<svg width="24" height="24" viewBox="0 0 24 24" fill="none" xmlns="http://www.w3.org/2000/svg">
<path fill-rule="evenodd" clip-rule="evenodd" d="M7.37696 18.1966C5.49057 16.7869 4.26934 14.5361 4.26934 12C4.26934 7.73055 7.73054 4.26946 11.9998 4.26946C15.5235 4.26946 19.3714 6.37525 20.3019 9.60025C19.2623 5.99637 15.9394 3.35999 12 3.35999C7.22826 3.35999 3.35986 7.22834 3.35986 12C3.35986 16.7718 7.22826 20.64 11.9998 20.64C16.7716 20.64 20.6399 16.7718 20.6399 12V11.5452H20.165L20.1018 11.5443C19.7536 11.5379 19.4058 11.5198 19.0589 11.49C18.4106 11.4336 17.6713 11.3237 17.1678 11.1225C16.3577 10.7989 15.9003 10.37 15.3777 9.86818L15.3475 9.83908C14.824 9.33632 14.2357 8.77135 13.2165 8.2917C12.2125 7.81913 11.1021 7.89498 10.2861 8.06287C9.93927 8.1347 9.59804 8.23123 9.26499 8.35172C9.13883 8.39738 9.03776 8.43812 8.96686 8.46795C8.55621 8.64075 8.15773 8.84538 7.75471 9.0351C7.75471 9.0351 8.54548 9.25192 8.93632 9.37306C9.04105 9.4066 9.1445 9.44404 9.24645 9.48529C9.50603 9.58956 9.75552 9.71742 9.99177 9.86727C10.4135 10.1383 10.7633 10.4795 10.9067 10.8984C10.0114 11.0161 9.17155 11.4092 8.54348 11.7786C8.2255 11.966 7.91851 12.1715 7.62401 12.394C7.51294 12.4782 7.42477 12.5486 7.36406 12.5988C7.31279 12.641 6.50421 13.3536 6.50421 13.3536C6.50421 13.3536 7.5473 13.4646 8.06211 13.5683C8.40442 13.6374 8.86597 13.7484 9.34752 13.9162C9.83125 14.085 10.3201 14.3062 10.7255 14.5893C11.1319 14.873 11.4295 15.2008 11.5762 15.5762C12.0041 16.6694 11.5844 17.7342 10.7416 18.3332C9.90905 18.9251 8.64292 19.0659 7.37696 18.1966ZM10.325 19.5486C10.6617 19.4394 10.9798 19.2796 11.2684 19.0746C12.4153 18.2593 13.0187 16.7664 12.4233 15.2448C12.1894 14.6471 11.7424 14.1898 11.2461 13.8435C10.7489 13.4964 10.1766 13.2423 9.64728 13.0577C9.32573 12.9463 8.99891 12.8507 8.668 12.7712C8.77849 12.699 8.89062 12.6294 9.00431 12.5624C9.70436 12.1508 10.5858 11.7726 11.4311 11.7726C12.7055 11.7726 13.6544 12.1637 14.5604 12.5831C14.6428 12.6213 14.7255 12.6601 14.8085 12.699C15.6182 13.079 16.4684 13.4779 17.4564 13.4779C18.4144 13.4779 19.1609 13.2069 19.6751 12.9267C19.2174 16.7594 15.9558 19.7305 11.9998 19.7305C11.4248 19.7305 10.8643 19.6678 10.325 19.5486ZM18.6926 12.3683C18.3521 12.4846 17.9393 12.5684 17.4566 12.5684C16.6817 12.5684 16.0158 12.2579 15.1703 11.8637L14.9427 11.7579C14.0963 11.3659 13.117 10.9505 11.8422 10.8751C11.6713 10.0312 11.0314 9.45455 10.4837 9.10222C10.4237 9.06371 10.3629 9.02653 10.3013 8.99072C10.3559 8.97799 10.4122 8.96525 10.4693 8.95361C11.2056 8.80209 12.0848 8.76426 12.8293 9.11459C13.7129 9.5304 14.2114 10.0091 14.73 10.5072L14.7478 10.5243C15.2814 11.0367 15.8458 11.5738 16.8304 11.9671C17.3775 12.1855 18.0854 12.303 18.6926 12.3683Z" fill="url(#paint0_linear_4741_36155)"/>
<defs>
<linearGradient id="paint0_linear_4741_36155" x1="3.35986" y1="12" x2="20.6399" y2="12" gradientUnits="userSpaceOnUse">
<stop stop-color="#DCE3EF"/>
<stop offset="0.545" stop-color="#8E9BB2"/>
<stop offset="1" stop-color="#DCE3EF"/>
</linearGradient>
</defs>
</svg>
