<svg width="24" height="24" viewBox="0 0 24 24" fill="none" xmlns="http://www.w3.org/2000/svg">
<path d="M7.2885 5.82553L12.0001 3.09863L16.7117 5.82553L14.9795 6.83291L12.0001 5.11341L9.02072 6.83291L7.2885 5.82553ZM16.7117 9.26455L14.9795 8.25715L12.0001 9.97667L9.02072 8.25715L7.2885 9.26455V11.2793L10.2679 12.9988V16.4378L12.0001 17.4452L13.7323 16.4378V12.9988L16.7117 11.2793V9.26455ZM16.7117 14.7184V12.7036L14.9795 13.711V15.7257L16.7117 14.7184ZM17.9415 15.4305L14.9622 17.1499V19.1648L19.6738 16.4378V10.984L17.9415 11.9914V15.4305ZM16.2094 7.54504L17.9415 8.55242V10.5672L19.6738 9.55981V7.54504L17.9415 6.53765L16.2094 7.54504ZM10.2679 17.8794V19.8943L12.0001 20.9016L13.7323 19.8943V17.8794L12.0001 18.8869L10.2679 17.8794ZM7.2885 14.7184L9.02072 15.7257V13.711L7.2885 12.7036V14.7184ZM10.2679 7.54504L12.0001 8.55242L13.7323 7.54504L12.0001 6.53765L10.2679 7.54504ZM6.05862 8.55242L7.79083 7.54504L6.05862 6.53765L4.32642 7.54504V9.55981L6.05862 10.5672V8.55242ZM6.05862 11.9914L4.32642 10.984V16.4378L9.03801 19.1648V17.1499L6.05862 15.4305V11.9914Z" fill="#F0B90B"/>
</svg>
