<svg width="24" height="24" viewBox="0 0 24 24" fill="none" xmlns="http://www.w3.org/2000/svg">
<path d="M16.0057 3.51367L14.3424 3.51452L14.3435 5.78332C13.8994 5.88013 13.472 6.07073 13.093 6.35466L13.0793 6.34093L12.9604 6.45945C12.8732 6.53219 12.7889 6.61019 12.7079 6.69346C12.6863 6.71573 12.665 6.73824 12.6441 6.76096L12.6512 6.76781L11.7429 7.67346L11.7434 7.67397C11.5448 7.82679 11.4168 8.06687 11.4168 8.33685C11.4168 8.79849 11.7911 9.17272 12.2527 9.17272C12.5218 9.17272 12.7612 9.04555 12.9141 8.84802L12.9174 8.8513L14.2059 7.56651C14.8182 7.20515 15.6196 7.28095 16.1541 7.80041C16.771 8.40002 16.8072 9.37204 16.2526 10.015L16.2463 10.0088L13.9321 12.3174C13.3049 12.8829 12.5089 12.8875 11.7405 12.292C11.7076 12.26 11.6763 12.2269 11.6467 12.193L11.6361 12.2035C11.4849 12.0524 11.276 11.959 11.0453 11.959C10.5837 11.959 10.2094 12.3332 10.2094 12.7949C10.2094 13.1238 10.4656 13.3984 10.6758 13.5655C12.0445 14.6057 13.8686 14.66 15.0984 13.4864L15.1069 13.4949L17.421 11.1863L17.4136 11.1789C17.8184 10.7462 18.0826 10.2308 18.2068 9.6902L20.5 9.67406L20.4883 8.01078L18.1538 8.02721C18.0003 7.5126 17.717 7.02891 17.3046 6.62803C16.9254 6.25953 16.4794 6.00209 16.0069 5.85515L16.0057 3.51367Z" fill="#878888"/>
<path d="M12.3232 16.3064C12.4517 16.1846 12.5313 15.9725 12.5313 15.7669C12.5313 15.3052 12.1571 14.931 11.6954 14.931C11.4262 14.931 11.2087 15.0701 11.0338 15.256L9.9084 16.3325C9.28295 16.7971 8.41652 16.7532 7.83975 16.1927C7.23935 15.6091 7.18902 14.6728 7.69797 14.0304L9.97674 11.7996C9.99509 11.7787 10.0141 11.7582 10.0337 11.738C10.6108 11.1442 11.6266 11.03 12.1747 11.5796C12.3696 11.7751 12.6337 11.9124 12.9268 11.9124C13.3885 11.9124 13.7109 11.5847 13.7109 11.1231C13.7109 10.9486 13.6574 10.7866 13.566 10.6526C13.5315 10.6159 13.5073 10.5779 13.4708 10.5424C12.1863 9.29405 10.1348 9.31097 8.88276 10.5897L6.68953 12.7027C6.66741 12.7242 6.64552 12.7461 6.62387 12.7684C6.60768 12.7851 6.5917 12.8019 6.57594 12.8188L6.53251 12.8621L6.53449 12.8641C6.14725 13.2954 5.89584 13.8044 5.77949 14.3366L3.5 14.3527L3.51171 16.0159L5.8503 15.9995C6.00594 16.5015 6.28584 16.9729 6.68929 17.365C7.07164 17.7366 7.52195 17.9953 7.99891 18.1416L7.98182 20.4729L9.6451 20.4851L9.6618 18.2072C10.1234 18.1048 10.5666 17.901 10.9559 17.5963L12.3232 16.3064Z" fill="#878888"/>
</svg>
