<svg width="24" height="24" viewBox="0 0 24 24" fill="none" xmlns="http://www.w3.org/2000/svg">
<rect x="2.39999" y="2.40039" width="19.2" height="19.2" rx="9.6" fill="#8E9BB2"/>
<path d="M15.129 14.0747V13.3468C15.577 13.1931 15.9033 12.716 15.9033 12.1512C15.9033 11.5865 15.577 11.108 15.129 10.9557V10.2278C15.5509 10.0836 15.8656 9.65091 15.9004 9.12793H15.3871V9.35033C15.3871 9.52151 15.2827 9.67247 15.129 9.74796V9.64417C15.129 9.49186 14.9957 9.36785 14.8318 9.36785H14.8057C14.6419 9.36785 14.5085 9.49186 14.5085 9.64417V9.74796C14.3548 9.67247 14.2504 9.52286 14.2504 9.35033V9.12793H13.7372C13.772 9.65091 14.0866 10.0836 14.5085 10.2278V10.9557C14.0619 11.108 13.7343 11.5851 13.7343 12.1512C13.7343 12.7173 14.0605 13.1945 14.5085 13.3468V14.0747C14.0866 14.2189 13.772 14.6516 13.7372 15.1745H14.2504V14.9521C14.2504 14.7809 14.3548 14.63 14.5085 14.5545V14.6583C14.5085 14.8106 14.6419 14.9346 14.8057 14.9346H14.8318C14.9957 14.9346 15.129 14.8106 15.129 14.6583V14.5545C15.2827 14.63 15.3871 14.7796 15.3871 14.9521V15.1745H15.9004C15.8656 14.6516 15.5509 14.2189 15.129 14.0747ZM14.2504 12.4693V11.8318C14.2504 11.6606 14.3548 11.5096 14.5085 11.4342V11.5379C14.5085 11.6903 14.6419 11.8143 14.8057 11.8143H14.8318C14.9957 11.8143 15.129 11.6903 15.129 11.5379V11.4342C15.2827 11.5096 15.3871 11.6592 15.3871 11.8318V12.4693C15.3871 12.6405 15.2827 12.7915 15.129 12.867V12.7632C15.129 12.6109 14.9957 12.4869 14.8318 12.4869H14.8057C14.6419 12.4869 14.5085 12.6109 14.5085 12.7632V12.867C14.3563 12.7915 14.2504 12.6419 14.2504 12.4693Z" fill="white"/>
<path d="M18.2776 12.5381V11.763C18.7256 11.6094 19.0518 11.1322 19.0518 10.5675C19.0518 10.0027 18.7256 9.52421 18.2776 9.3719V9.12793H17.6585V9.3719C17.2105 9.52555 16.8843 10.0027 16.8843 10.5675C16.8843 11.1322 17.2105 11.6107 17.6585 11.763V12.5381C17.2105 12.6917 16.8843 13.1689 16.8843 13.7336C16.8843 14.2984 17.2105 14.7769 17.6585 14.9292V15.1732H18.2776V14.9292C18.7256 14.7756 19.0518 14.2984 19.0518 13.7336C19.0518 13.1689 18.7256 12.6917 18.2776 12.5381ZM17.3989 10.8856V10.248C17.3989 10.0768 17.5034 9.92587 17.657 9.85039V9.95418C17.657 10.1065 17.7904 10.2305 17.9543 10.2305H17.9789C18.1427 10.2305 18.2761 10.1065 18.2761 9.95418V9.85039C18.4298 9.92587 18.5342 10.0755 18.5342 10.248V10.8856C18.5342 11.0567 18.4298 11.2077 18.2761 11.2832V11.1794C18.2761 11.0271 18.1427 10.9031 17.9789 10.9031H17.9528C17.789 10.9031 17.6556 11.0271 17.6556 11.1794V11.2832C17.5048 11.2077 17.3989 11.0581 17.3989 10.8856ZM18.5356 14.0531C18.5356 14.2243 18.4313 14.3752 18.2776 14.4507V14.2984C18.2776 14.1461 18.1442 14.0221 17.9804 14.0221H17.9557C17.7919 14.0221 17.6585 14.1461 17.6585 14.2984V14.4507C17.5048 14.3752 17.4004 14.2256 17.4004 14.0531V13.4155C17.4004 13.2444 17.5048 13.0934 17.6585 13.0179V13.0732C17.6585 13.2255 17.7919 13.3495 17.9557 13.3495H17.9818C18.1456 13.3495 18.279 13.2255 18.279 13.0732V13.0179C18.4327 13.0934 18.5371 13.243 18.5371 13.4155V14.0531H18.5356Z" fill="white"/>
<path d="M11.5786 11.5335C11.5728 11.5025 11.5655 11.4729 11.5539 11.4446C11.5583 11.4378 12.5209 10.191 11.6293 9.42005C10.7391 8.64907 9.69952 9.65459 9.69373 9.65998C9.52844 9.61145 9.36171 9.5818 9.19643 9.56832C9.19643 9.56832 9.19643 9.56832 9.19498 9.56832C8.85571 9.51575 8.38015 9.56832 8.38015 9.56832C8.21632 9.5818 8.05104 9.61145 7.8872 9.65863C7.8814 9.65324 6.84185 8.64772 5.95164 9.41871C5.06143 10.1897 6.02268 11.4378 6.02703 11.4432C6.01689 11.4729 6.00818 11.5025 6.00238 11.5322C5.9067 12.0659 5.24991 12.2304 5.24991 13.1604C5.24991 14.108 5.93569 14.8547 7.33626 14.8547H7.9104C7.9133 14.8574 8.13513 15.1513 8.59329 15.1688C8.59329 15.1688 8.69913 15.1795 8.9427 15.1715C9.4284 15.1715 9.66473 14.8601 9.66618 14.856H10.2403C11.6409 14.856 12.3267 14.1093 12.3267 13.1618C12.331 12.2331 11.6742 12.0673 11.5786 11.5335Z" fill="white"/>
</svg>
