<svg width="24" height="24" viewBox="0 0 24 24" fill="none" xmlns="http://www.w3.org/2000/svg">
<path d="M20.277 16.7604L17.316 12.7375C16.9944 12.3003 16.5181 12.0385 16.0107 11.9807C15.8953 11.9673 15.7922 11.9003 15.7344 11.7993C15.6757 11.6982 15.6695 11.5755 15.7159 11.4683C15.919 11.0002 15.9314 10.4569 15.7128 9.95995L13.7095 5.38433C13.4126 4.70491 12.7414 4.26672 12.0001 4.26672C11.2588 4.26672 10.5876 4.70594 10.2907 5.38433L8.28746 9.95995C8.06992 10.4569 8.08126 11.0002 8.28437 11.4683C8.33076 11.5755 8.32354 11.6982 8.26582 11.7993C8.20705 11.9003 8.10498 11.9673 7.9895 11.9807C7.48225 12.0385 7.00593 12.3003 6.68424 12.7375L3.7232 16.7604C3.28399 17.3575 3.23965 18.1574 3.60978 18.7998C3.98095 19.4411 4.69646 19.8029 5.4326 19.7216L10.3969 19.1689C10.9361 19.1091 11.4011 18.8277 11.7042 18.4173C11.7733 18.3235 11.8836 18.2677 12.0001 18.2677C12.1166 18.2677 12.2259 18.3235 12.296 18.4173C12.5991 18.8277 13.0641 19.1091 13.6033 19.1689L18.5676 19.7216C19.3038 19.804 20.0193 19.4421 20.3904 18.7998C20.7606 18.1574 20.7162 17.3575 20.277 16.7604ZM9.58241 10.5342L11.5887 5.95345C11.6609 5.78953 11.8228 5.68333 12.0011 5.68333C12.1795 5.68333 12.3414 5.78953 12.4136 5.95345L14.4199 10.5342C14.4828 10.6786 14.4694 10.8456 14.3828 10.9775C14.2962 11.1095 14.1498 11.1889 13.991 11.1889H10.0103C9.85253 11.1889 9.7051 11.1095 9.61849 10.9775C9.53189 10.8456 9.51951 10.6786 9.58241 10.5342ZM10.6124 17.508C10.5412 17.6492 10.4031 17.7441 10.2464 17.7615L5.27693 18.3142C5.09959 18.3338 4.92637 18.2472 4.83669 18.0926C4.74699 17.9379 4.75833 17.7451 4.86452 17.6007L7.82866 13.5736C7.92249 13.4468 8.07302 13.3746 8.23076 13.3839C8.3885 13.3922 8.53079 13.4798 8.61017 13.6169L8.61326 13.6221L10.598 17.0594L10.601 17.0646C10.6804 17.2017 10.6846 17.3687 10.6134 17.5089L10.6124 17.508ZM12.4084 15.9532C12.3239 16.0986 12.1692 16.1893 12.0001 16.1893C11.8321 16.1893 11.6764 16.0996 11.5918 15.9542L10.067 13.3138C9.98245 13.1684 9.98245 12.988 10.067 12.8426C10.1515 12.6973 10.3062 12.6065 10.4753 12.6065H13.5239C13.692 12.6065 13.8477 12.6952 13.9322 12.8416C14.0168 12.988 14.0168 13.1674 13.9322 13.3128L12.4084 15.9532ZM19.1646 18.0926C19.0749 18.2472 18.9027 18.3349 18.7243 18.3153L13.7549 17.7626C13.5982 17.7451 13.46 17.6503 13.3889 17.5089C13.3177 17.3678 13.3219 17.2007 13.4013 17.0646L13.4043 17.0594L15.389 13.6221L15.3921 13.6169C15.4715 13.4798 15.6138 13.3922 15.7715 13.3839C15.9293 13.3757 16.0798 13.4468 16.1736 13.5736L19.1378 17.6007C19.244 17.7451 19.2533 17.9379 19.1646 18.0926Z" fill="#8E9BB2"/>
</svg>
