<svg width="24" height="24" viewBox="0 0 24 24" fill="none" xmlns="http://www.w3.org/2000/svg">
<path fill-rule="evenodd" clip-rule="evenodd" d="M4.90145 16.79C4.7956 16.6697 4.68975 16.5482 4.58992 16.4231C2.08928 13.6603 1.67311 8.50624 5.25146 5.17205C5.52091 4.95795 5.79875 4.7667 6.0838 4.59831C4.54301 5.91419 4.1545 6.87282 3.86342 8.18749C3.36546 10.5053 4.79921 13.6314 5.61952 14.7356C7.18799 16.855 9.31936 14.9569 8.00229 13.2032C7.04366 11.9367 5.05903 8.64697 5.77831 6.44584C6.25461 4.99403 7.65227 3.91993 8.54116 3.41835C9.79809 3.0972 10.9263 3.02744 12.1448 3.25237C10.3571 3.76857 9.88219 4.13953 9.32339 4.57602L9.3232 4.57619C9.30004 4.59427 9.27676 4.61246 9.25322 4.63079C6.20805 7.00408 8.02123 9.63229 9.40343 11.6358C9.51335 11.7951 9.62051 11.9505 9.72232 12.1014C10.8157 13.4763 10.9384 15.5439 9.56836 16.8285C8.58686 17.7546 7.33593 17.9976 6.21251 17.6031C5.8613 17.4816 5.52931 17.2964 5.20936 17.0534C5.11915 16.9885 5.03977 16.9151 4.9664 16.8465L4.95678 16.8345C4.95197 16.8285 4.94565 16.8237 4.93934 16.8189C4.93302 16.8141 4.92671 16.8092 4.9219 16.8032C4.91949 16.8002 4.91558 16.7984 4.91167 16.7966C4.90776 16.7948 4.90385 16.793 4.90145 16.79ZM16.4598 5.53206C16.5657 5.65235 16.6715 5.77384 16.7713 5.89893C18.1531 7.42561 18.8981 9.68277 18.6844 11.9593C18.2957 11.8468 17.8878 11.7798 17.4666 11.7645C17.1432 10.03 16.2995 8.33884 15.7405 7.58646C14.1721 5.46712 12.0407 7.36516 13.3578 9.11886C13.8487 9.76741 14.6086 10.9465 15.1367 12.2383C14.5204 12.5283 13.9724 12.9395 13.5234 13.4412C13.1795 12.4571 12.5315 11.5178 11.9578 10.6861L11.9573 10.6855C11.8476 10.5265 11.7406 10.3714 11.639 10.2206C10.5456 8.84581 10.4229 6.77819 11.7929 5.49358C12.7744 4.56742 14.0253 4.32445 15.1487 4.71897C15.4988 4.84046 15.832 5.02569 16.1519 5.26866C16.2421 5.33361 16.3215 5.40698 16.3949 5.47554L16.4045 5.48757C16.4093 5.49358 16.4156 5.49839 16.4219 5.5032C16.4282 5.50802 16.4346 5.51283 16.4394 5.51884C16.4418 5.52184 16.4457 5.52366 16.4496 5.52546C16.4535 5.52726 16.4574 5.52906 16.4598 5.53206ZM12.2939 17.5401C12.2337 17.5906 12.1714 17.641 12.1068 17.6913C12.0856 17.7078 12.0646 17.7243 12.0437 17.7406L12.0413 17.7425L12.0397 17.7438C11.4806 18.1812 11.0061 18.5526 9.2153 19.0697C10.3987 19.2882 11.497 19.2286 12.7109 18.9308C12.5085 18.4972 12.3659 18.0302 12.2939 17.5401Z" fill="url(#paint0_linear_5710_245101)"/>
<path d="M17.28 20.8807C19.5333 20.8807 21.36 19.054 21.36 16.8007C21.36 14.5474 19.5333 12.7207 17.28 12.7207C15.0266 12.7207 13.2 14.5474 13.2 16.8007C13.2 19.054 15.0266 20.8807 17.28 20.8807Z" fill="#627EEB"/>
<path d="M17.28 14.6406L17.251 14.7391V17.5955L17.28 17.6244L18.6059 16.8407L17.28 14.6406Z" fill="#C1CDF6"/>
<path d="M17.2796 14.6406L15.9536 16.8407L17.2796 17.6244V16.238V14.6406Z" fill="white"/>
<path d="M17.2795 17.8751L17.2632 17.8951V18.9126L17.2795 18.9603L18.6062 17.0918L17.2795 17.8751Z" fill="#C1CDF6"/>
<path d="M17.2796 18.9603V17.8751L15.9536 17.0918L17.2796 18.9603Z" fill="white"/>
<path d="M17.2798 17.6247L18.6057 16.841L17.2798 16.2383V17.6247Z" fill="#8198EE"/>
<path d="M15.9536 16.841L17.2796 17.6247V16.2383L15.9536 16.841Z" fill="#C1CDF4"/>
<defs>
<linearGradient id="paint0_linear_5710_245101" x1="10.6804" y1="3.12109" x2="10.6804" y2="19.201" gradientUnits="userSpaceOnUse">
<stop stop-color="#ACE0FF"/>
<stop offset="1" stop-color="#84B6EB"/>
</linearGradient>
</defs>
</svg>
