<svg width="24" height="24" viewBox="0 0 24 24" fill="none" xmlns="http://www.w3.org/2000/svg">
<path fill-rule="evenodd" clip-rule="evenodd" d="M10.6372 5.1745C10.6372 4.42416 11.2476 3.8147 12.0023 3.8147C12.757 3.8147 13.3674 4.42273 13.3674 5.1745V13.1507C13.3674 13.9011 12.757 14.5105 12.0023 14.5105C11.2491 14.5105 10.6372 13.9025 10.6372 13.1507V5.1745ZM4.32007 5.17456C4.32007 4.42279 4.93189 3.81476 5.68513 3.81476C6.43981 3.81476 7.05164 4.42279 7.0502 5.17456V17.4539H13.6579C14.4082 17.4539 15.0177 18.0642 15.0177 18.8189C15.0177 19.5736 14.4096 20.184 13.6579 20.184L5.75105 20.184C5.72921 20.185 5.70723 20.1855 5.68513 20.1855C4.93189 20.1855 4.32007 19.5775 4.32007 18.8257V5.17456ZM18.315 3.8147C17.5603 3.8147 16.9499 4.42416 16.9499 5.1745V13.1507C16.9499 13.9025 17.5617 14.5105 18.315 14.5105C19.0696 14.5105 19.68 13.9011 19.68 13.1507V5.1745C19.68 4.42273 19.0696 3.8147 18.315 3.8147Z" fill="url(#paint0_linear_4741_37498)"/>
<defs>
<linearGradient id="paint0_linear_4741_37498" x1="4.32007" y1="12.0001" x2="19.6809" y2="3.8163" gradientUnits="userSpaceOnUse">
<stop stop-color="#4400E2"/>
<stop offset="0.421875" stop-color="#F94E6C"/>
<stop offset="1" stop-color="#FFCB00"/>
</linearGradient>
</defs>
</svg>
