<svg width="24" height="24" viewBox="0 0 24 24" fill="none" xmlns="http://www.w3.org/2000/svg">
<path d="M15.4988 12.3637C15.9244 12.2363 16.3816 12.4173 16.6061 12.802L19.0884 17.0555C19.4022 17.5933 19.0159 18.27 18.3952 18.27H5.60465C4.95237 18.27 4.57195 17.5308 4.94933 16.9966L6.07819 15.3987C6.20281 15.2223 6.38267 15.0929 6.58908 15.0311L15.4988 12.3637Z" fill="#8E9BB2"/>
<path d="M10.9029 6.36604C11.0861 6.03814 11.5772 6.11818 11.6477 6.48745L12.6958 11.9738C12.7499 12.257 12.5828 12.5357 12.308 12.6201L7.34942 14.1436C7.00292 14.25 6.70422 13.8777 6.88156 13.5605L10.9029 6.36604Z" fill="#8E9BB2"/>
<path d="M12.1695 6.01885C12.118 5.75099 12.4786 5.61559 12.6148 5.85166L15.7636 11.3103C15.8427 11.4474 15.7715 11.6224 15.6196 11.6648L13.7954 12.1736C13.5694 12.2366 13.338 12.0926 13.2935 11.8614L12.1695 6.01885Z" fill="#8E9BB2"/>
</svg>
