<svg width="24" height="24" viewBox="0 0 24 24" fill="none" xmlns="http://www.w3.org/2000/svg">
<path d="M7.23394 8.32297H4.80713C4.36134 8.32297 4 8.65631 4 9.06746V11.306C4 11.7172 4.36134 12.0506 4.80713 12.0506H7.23394C7.67973 12.0506 8.04115 11.7172 8.04115 11.306V9.06746C8.04115 8.65631 7.67973 8.32297 7.23394 8.32297Z" fill="#8E9BB2"/>
<path d="M8.04575 5.35973V7.58357C8.04575 7.99504 8.40684 8.32815 8.85296 8.32815H14.0623C14.7739 8.32815 15.1403 7.53457 14.6412 7.06436L12.2834 4.84052C12.1294 4.69847 11.9223 4.61523 11.7046 4.61523H8.8476C8.40157 4.61523 8.04048 4.94834 8.04048 5.35973H8.04575Z" fill="#8E9BB2"/>
<path d="M15.9694 10.078V11.3123C15.9694 11.7238 15.6083 12.0569 15.1623 12.0569H8.84301C8.39689 12.0569 8.0358 12.3899 8.0358 12.8014V14.9126C8.0358 15.324 7.6747 15.6572 7.22867 15.6572H4.80713C4.36109 15.6572 4 15.9903 4 16.4016V18.6402C4 19.0516 4.36109 19.3847 4.80713 19.3847H7.23394C7.68006 19.3847 8.04115 19.0516 8.04115 18.6402V16.529C8.04115 16.1175 8.40225 15.7845 8.84828 15.7845H15.1675C15.6137 15.7845 15.9747 16.1175 15.9747 16.529V18.6402C15.9747 19.0516 16.3358 19.3847 16.7819 19.3847H19.1928C19.6388 19.3847 20 19.0516 20 18.6402V12.2528C20 12.052 19.915 11.861 19.7557 11.7189L17.3448 9.54898C16.835 9.08851 15.9747 9.42161 15.9747 10.0829L15.9694 10.078Z" fill="#8E9BB2"/>
</svg>
