<svg width="24" height="24" viewBox="0 0 24 24" fill="none" xmlns="http://www.w3.org/2000/svg">
<path d="M19.0844 14.9136V5.28687C19.0643 4.48297 18.4212 3.83984 17.6173 3.83984H7.60865C5.43811 3.88004 3.70972 5.64863 3.70972 7.81917C3.70972 8.54268 3.91069 9.18581 4.21216 9.72844C4.47343 10.1907 4.87538 10.6127 5.25723 10.9343C5.37782 11.0348 5.31753 10.9946 5.65918 11.1956C6.12143 11.4769 6.66407 11.6176 6.66407 11.6176V17.3655C6.68416 17.6469 6.70426 17.9082 6.78465 18.1493C7.00572 18.9532 7.56846 19.5763 8.33217 19.8777C8.65373 19.9983 9.01548 20.0787 9.39734 20.0988L17.3761 20.139C18.9638 20.139 20.2701 18.8528 20.2701 17.2449C20.2701 16.3004 19.8079 15.4362 19.0844 14.9136Z" fill="#FFEEDA"/>
<path d="M19.2854 17.3055C19.2452 18.3305 18.4011 19.1545 17.3761 19.1545L11.8694 19.1344C12.3115 18.6319 12.5728 17.9687 12.5728 17.2452C12.5728 16.1197 11.9096 15.3359 11.9096 15.3359H17.3962C18.4413 15.3359 19.3055 16.2001 19.3055 17.2452L19.2854 17.3055Z" fill="#EBC28E"/>
<path d="M5.77977 10.1304C5.13665 9.52747 4.6945 8.74366 4.6945 7.81917V7.71868C4.75479 6.15107 6.04104 4.86482 7.60865 4.82463H17.6374C17.8986 4.84472 18.0996 5.0256 18.0996 5.28687V13.7882C18.3207 13.8284 18.4413 13.8686 18.6623 13.9288C18.8432 13.9891 19.0844 14.1298 19.0844 14.1298V5.28687C19.0643 4.48297 18.4212 3.83984 17.6173 3.83984H7.60865C5.43811 3.88004 3.70972 5.64863 3.70972 7.81917C3.70972 9.08532 4.29255 10.1706 5.21704 10.9142C5.27733 10.9745 5.33762 11.0348 5.5185 11.0348C5.81997 11.0348 6.02094 10.7936 6.00084 10.5524C6.00084 10.3314 5.92045 10.251 5.77977 10.1304Z" fill="#222222"/>
<path d="M17.3759 14.3513H9.51775C8.99521 14.3513 8.57316 14.7734 8.57316 15.316V16.4415C8.59326 16.964 9.0354 17.4061 9.55794 17.4061H10.1408V16.4415H9.55794V15.3361C9.55794 15.3361 9.69862 15.3361 9.8795 15.3361C10.8643 15.3361 11.6079 16.2606 11.6079 17.2454C11.6079 18.1297 10.804 19.235 9.47755 19.1546C8.29179 19.0742 7.64867 18.0292 7.64867 17.2454V7.65881C7.64867 7.23676 7.28691 6.875 6.86486 6.875H6.08105V7.85978H6.66389V17.2655C6.62369 19.1747 8.03052 20.1394 9.47755 20.1394L17.396 20.1595C18.9837 20.1595 20.2901 18.8733 20.2901 17.2655C20.27 15.6577 18.9837 14.3513 17.3759 14.3513ZM19.2852 17.3057C19.245 18.3306 18.4009 19.1546 17.3759 19.1546L11.8692 19.1345C12.3113 18.6321 12.5726 17.9689 12.5726 17.2454C12.5726 16.1199 11.9094 15.3361 11.9094 15.3361H17.396C18.4411 15.3361 19.3053 16.2003 19.3053 17.2454L19.2852 17.3057Z" fill="#222222"/>
<path d="M15.2652 8.02133H9.33643V7.05664H15.2652C15.5265 7.05664 15.7476 7.27771 15.7476 7.53898C15.7476 7.80025 15.5466 8.02133 15.2652 8.02133Z" fill="#222222"/>
<path d="M15.2652 12.643H9.33643V11.6582H15.2652C15.5265 11.6582 15.7476 11.8793 15.7476 12.1405C15.7476 12.4219 15.5466 12.643 15.2652 12.643Z" fill="#222222"/>
<path d="M16.3103 10.3305H9.33643V9.3457H16.3103C16.5716 9.3457 16.7926 9.56678 16.7926 9.82805C16.7926 10.1094 16.5716 10.3305 16.3103 10.3305Z" fill="#222222"/>
</svg>
