<svg width="24" height="24" viewBox="0 0 24 24" fill="none" xmlns="http://www.w3.org/2000/svg">
<path d="M4.99939 6.41001C4.99939 5.8455 5.3381 5.05518 6.46713 5.05518H7.82197V7.78743H6.46713C5.3381 7.78743 4.99939 6.97453 4.99939 6.41001Z" fill="#CAA58A" stroke="#371A16" stroke-width="0.225806"/>
<path d="M5.97113 6.52532C5.40662 6.52532 5.70042 5.89307 6.08404 5.89307C6.46765 5.89307 6.9746 6.14073 6.98726 6.52532H5.97113Z" fill="#371A16"/>
<path d="M5.40662 7.42855C5.74533 7.65436 6.58941 7.47559 6.87436 6.97694C6.94513 6.85309 6.99098 6.63823 6.98726 6.52532M6.98726 6.52532C6.9746 6.14073 6.46765 5.89307 6.08404 5.89307C5.70042 5.89307 5.40662 6.52532 5.97113 6.52532C6.42275 6.52532 6.79413 6.52532 6.98726 6.52532Z" stroke="#371A16" stroke-width="0.225806"/>
<path d="M6.87436 6.97694C6.58941 7.47559 5.74533 7.65436 5.40662 7.42855C5.55715 7.54151 5.94855 7.76744 6.30984 7.76744H7.89049V5.89307H6.08404C6.46765 5.89307 6.9746 6.14073 6.98726 6.52532C6.99098 6.63823 6.94513 6.85309 6.87436 6.97694Z" fill="#BF966D" stroke="#371A16" stroke-width="0.225806" stroke-linejoin="round"/>
<path d="M15.6124 5.05518H6.35437C7.04027 5.05518 7.59631 5.61121 7.59631 6.29711V17.1358C7.59631 18.1335 8.40508 18.9423 9.40276 18.9423H15.6124C16.6101 18.9423 17.4189 18.1335 17.4189 17.1358V6.86163C17.4189 5.86395 16.6101 5.05518 15.6124 5.05518Z" fill="#E5D1B8" stroke="#371A16" stroke-width="0.225806"/>
<rect x="9.01892" y="7.24658" width="7.40645" height="0.451613" rx="0.225806" fill="#371A16" stroke="#3F2F28" stroke-width="0.112903"/>
<rect x="9.01892" y="11.0845" width="7.40645" height="0.451613" rx="0.225806" fill="#371A16" stroke="#3F2F28" stroke-width="0.112903"/>
<rect x="9.01892" y="9.81885" width="7.40645" height="0.451613" rx="0.225806" fill="#371A16" stroke="#3F2F28" stroke-width="0.112903"/>
<rect x="9.01892" y="13.6802" width="7.40645" height="0.451613" rx="0.225806" fill="#371A16" stroke="#3F2F28" stroke-width="0.112903"/>
<rect x="9.01892" y="8.51221" width="7.40645" height="0.451613" rx="0.225806" fill="#371A16" stroke="#3F2F28" stroke-width="0.112903"/>
<rect x="9.01892" y="12.3911" width="7.40645" height="0.451613" rx="0.225806" fill="#371A16" stroke="#3F2F28" stroke-width="0.112903"/>
<rect x="9.01892" y="14.9692" width="7.40645" height="0.451613" rx="0.225806" fill="#371A16" stroke="#3F2F28" stroke-width="0.112903"/>
<path d="M8.38757 17.4105C8.38757 16.9207 8.70054 16.2349 9.74377 16.2349H10.9956V18.6058H9.74377C8.70054 18.6058 8.38757 17.9004 8.38757 17.4105Z" fill="#CAA58A" stroke="#371A16" stroke-width="0.237097"/>
<path d="M9.28467 17.495C8.86134 17.495 9.08166 16.9438 9.36933 16.9438C9.657 16.9438 10.191 17.1597 10.2005 17.495H9.28467Z" fill="#371A16"/>
<path d="M8.83875 18.3438C9.09274 18.5407 9.90685 18.3404 10.1205 17.9057C10.2005 17.7429 10.2033 17.5934 10.2005 17.495M10.2005 17.495C10.191 17.1597 9.657 16.9438 9.36933 16.9438C9.08166 16.9438 8.86134 17.495 9.28467 17.495C9.62333 17.495 10.0557 17.495 10.2005 17.495Z" stroke="#371A16" stroke-width="0.237097"/>
<path d="M10.1223 17.9036C9.87748 18.3451 9.12973 18.5325 8.83875 18.3326C8.96807 18.4326 9.32692 18.6035 9.6373 18.6035H10.9952V16.9438H9.44331C9.77287 16.9438 10.1897 17.1631 10.2005 17.5037C10.2037 17.6037 10.2136 17.7388 10.1223 17.9036Z" fill="#BF966D" stroke="#371A16" stroke-width="0.237097" stroke-linejoin="round"/>
<path d="M9.85535 16.2349H17.7586C17.7586 16.2349 19.0005 16.2349 19.0005 17.5897C19.0005 18.9445 17.7586 18.9445 17.7586 18.9445H9.85535C9.85535 18.9445 10.8715 18.7187 10.8715 17.5897C10.8715 16.4607 9.85535 16.2349 9.85535 16.2349Z" fill="#D5AF98" stroke="#371A16" stroke-width="0.225806"/>
</svg>
