<svg width="24" height="24" viewBox="0 0 24 24" fill="none" xmlns="http://www.w3.org/2000/svg">
<path fill-rule="evenodd" clip-rule="evenodd" d="M12.0268 8.33398C13.2236 8.33398 14.1938 7.36379 14.1938 6.16699C14.1938 4.9702 13.2236 4 12.0268 4C10.83 4 9.85982 4.9702 9.85982 6.16699C9.85982 7.36379 10.83 8.33398 12.0268 8.33398ZM9.11898 9.12321C9.1345 9.43058 9.28692 9.9711 9.73332 10.1943C10.0852 10.3702 10.5227 10.3748 10.7955 10.2162C11.1452 9.97437 11.5695 9.83268 12.0268 9.83268C12.519 9.83268 12.9729 9.99678 13.3367 10.2732C13.6067 10.3701 13.9727 10.3456 14.2752 10.1943C14.6883 9.98778 14.8496 9.50958 14.8837 9.19579C14.8815 9.15576 14.8804 9.11545 14.8804 9.07487C14.8804 7.87807 15.8506 6.90788 17.0474 6.90788C18.2442 6.90788 19.2144 7.87807 19.2144 9.07487C19.2144 10.2717 18.2442 11.2419 17.0474 11.2419C16.6025 11.2419 16.1888 11.1078 15.8448 10.8778C15.4999 10.73 15.0681 10.6721 14.6364 10.9527C14.3635 11.1301 14.2215 11.4072 14.1684 11.6671C14.1851 11.7755 14.1938 11.8866 14.1938 11.9997C14.1938 12.8387 13.717 13.5663 13.0196 13.9264C12.7048 14.1475 12.4161 14.4956 12.4392 15.0276C12.4545 15.3783 12.6471 15.6568 12.8637 15.8339C13.0246 15.9013 13.1756 15.9876 13.314 16.0899C13.5872 16.205 13.9755 16.1861 14.2937 16.027C14.6705 15.8386 14.8378 15.4241 14.8902 15.1146C14.8837 15.0463 14.8804 14.9772 14.8804 14.9072C14.8804 13.7104 15.8506 12.7402 17.0474 12.7402C18.2442 12.7402 19.2144 13.7104 19.2144 14.9072C19.2144 16.104 18.2442 17.0742 17.0474 17.0742C16.5907 17.0742 16.1669 16.9329 15.8175 16.6916C15.4806 16.5583 15.0677 16.5171 14.6549 16.7854C14.3615 16.9761 14.2195 17.282 14.1765 17.5579C14.1879 17.6481 14.1938 17.74 14.1938 17.8333C14.1938 19.0301 13.2236 20.0003 12.0268 20.0003C10.83 20.0003 9.85982 19.0301 9.85982 17.8333C9.85982 17.7994 9.8606 17.7656 9.86215 17.732L9.85627 17.7425C9.85627 17.4295 9.72445 17.0202 9.36328 16.7854C8.93127 16.5046 8.49926 16.5628 8.15425 16.7107C7.81034 16.9404 7.39706 17.0742 6.95251 17.0742C5.75572 17.0742 4.78552 16.104 4.78552 14.9072C4.78552 13.7104 5.75572 12.7402 6.95251 12.7402C8.14931 12.7402 9.11951 13.7104 9.11951 14.9072C9.11951 14.9484 9.11836 14.9893 9.1161 15.0298C9.15052 15.3437 9.31201 15.8208 9.72445 16.027C10.0856 16.2076 10.5371 16.2076 10.8079 16.036L10.8031 16.0447C10.8862 15.9877 10.9734 15.9364 11.0643 15.8913L11.0598 15.8912C11.3452 15.745 11.5745 15.3562 11.6025 14.9533C11.6347 14.4887 11.3209 14.1292 11.0564 13.9377C10.3468 13.5818 9.85982 12.8476 9.85982 11.9997C9.85982 11.9534 9.86127 11.9075 9.86413 11.8619C9.85131 11.5561 9.71516 11.1757 9.37215 10.9527C8.92974 10.6652 8.48732 10.7331 8.13835 10.8889C7.79763 11.1121 7.39023 11.2419 6.95251 11.2419C5.75572 11.2419 4.78552 10.2717 4.78552 9.07487C4.78552 7.87807 5.75572 6.90788 6.95251 6.90788C8.13137 6.90788 9.09037 7.84921 9.11886 9.02121L9.11923 9.02051L9.11894 9.02501C9.11932 9.04158 9.11951 9.05821 9.11951 9.07487C9.11951 9.09103 9.11933 9.10714 9.11898 9.12321Z" fill="#E39530"/>
</svg>
