<svg width="24" height="24" viewBox="0 0 24 24" fill="none" xmlns="http://www.w3.org/2000/svg">
<path fill-rule="evenodd" clip-rule="evenodd" d="M19.4075 12.0012C19.4075 16.0922 16.0911 19.4086 12.0001 19.4086C7.90906 19.4086 4.59265 16.0922 4.59265 12.0012C4.59265 7.91016 7.90906 4.59375 12.0001 4.59375C16.0911 4.59375 19.4075 7.91016 19.4075 12.0012ZM9.73306 13.9201C9.2915 13.9201 8.92971 13.8172 8.64771 13.6114C8.36941 13.402 8.23027 13.1044 8.23027 12.7186C8.23027 12.6377 8.23954 12.5385 8.2581 12.421C8.30633 12.1564 8.37498 11.8386 8.46403 11.4675C8.71635 10.457 9.36757 9.95182 10.4177 9.95182C10.7034 9.95182 10.9594 9.99959 11.1858 10.0951C11.4121 10.187 11.5902 10.3266 11.7201 10.514C11.8499 10.6977 11.9149 10.9182 11.9149 11.1754C11.9149 11.2525 11.9056 11.3499 11.8871 11.4675C11.8314 11.7945 11.7646 12.1123 11.6867 12.421C11.5568 12.9243 11.3323 13.301 11.0132 13.5508C10.6941 13.797 10.2674 13.9201 9.73306 13.9201ZM9.81098 13.1264C10.0188 13.1264 10.195 13.0658 10.3397 12.9445C10.4882 12.8233 10.5939 12.6377 10.657 12.3879C10.7423 12.0425 10.8073 11.7412 10.8518 11.484C10.8667 11.4068 10.8741 11.3279 10.8741 11.247C10.8741 10.9127 10.6978 10.7455 10.3453 10.7455C10.1375 10.7455 9.9594 10.8061 9.81098 10.9274C9.66627 11.0486 9.56237 11.2342 9.49929 11.484C9.4325 11.7302 9.36571 12.0315 9.29892 12.3879C9.28408 12.4614 9.27665 12.5385 9.27665 12.6194C9.27665 12.9574 9.45476 13.1264 9.81098 13.1264ZM12.1867 13.826C12.209 13.8517 12.2405 13.8645 12.2813 13.8645H13.0383C13.0754 13.8645 13.1106 13.8517 13.144 13.826C13.1774 13.8002 13.1978 13.7672 13.2053 13.7268L13.4613 12.5197H14.2127C14.6988 12.5197 15.081 12.4187 15.3593 12.2166C15.6413 12.0145 15.8287 11.7022 15.9214 11.2797C15.9437 11.1805 15.9548 11.0849 15.9548 10.9931C15.9548 10.6734 15.8287 10.4291 15.5763 10.26C15.3277 10.091 14.9975 10.0065 14.5856 10.0065H13.1051C13.068 10.0065 13.0327 10.0194 12.9993 10.0451C12.9659 10.0708 12.9455 10.1039 12.9381 10.1443L12.17 13.7268C12.1626 13.7635 12.1682 13.7966 12.1867 13.826ZM14.658 11.6324C14.5429 11.7169 14.4075 11.7592 14.2517 11.7592H13.6116L13.8231 10.7726H14.491C14.6431 10.7726 14.7507 10.802 14.8138 10.8608C14.8769 10.9159 14.9084 10.9967 14.9084 11.1033C14.9084 11.1511 14.9029 11.2062 14.8917 11.2686C14.8546 11.4266 14.7767 11.5479 14.658 11.6324Z" fill="#FF0420"/>
</svg>
