<svg width="24" height="24" viewBox="0 0 24 24" fill="none" xmlns="http://www.w3.org/2000/svg">
<path d="M11.3462 3H6.42257C6.25283 3 6.11523 3.1376 6.11523 3.30733V8.23097C6.11523 8.4007 6.25283 8.5383 6.42257 8.5383H11.3462C11.5159 8.5383 11.6535 8.4007 11.6535 8.23097V3.30733C11.6535 3.1376 11.5159 3 11.3462 3Z" fill="white"/>
<path d="M6.11523 15.7691V20.6927C6.11523 20.8624 6.25283 21 6.42257 21H11.3462C11.5159 21 11.6535 20.8624 11.6535 20.6927V15.7691C11.6535 15.5993 11.5159 15.4617 11.3462 15.4617H6.42257C6.25283 15.4617 6.11523 15.5993 6.11523 15.7691Z" fill="white"/>
<path d="M6.11523 9.53698V14.4606C6.11523 14.6303 6.25283 14.768 6.42257 14.768H11.3462C11.5159 14.768 11.6535 14.6303 11.6535 14.4606V9.53698C11.6535 9.36725 11.5159 9.22966 11.3462 9.22966H6.42257C6.25283 9.22966 6.11523 9.36725 6.11523 9.53698Z" fill="white"/>
<path d="M12.3461 15.7691V20.6927C12.3461 20.8624 12.4837 21 12.6534 21H17.5771C17.7468 21 17.8844 20.8624 17.8844 20.6927V15.7691C17.8844 15.5993 17.7468 15.4617 17.5771 15.4617H12.6534C12.4837 15.4617 12.3461 15.5993 12.3461 15.7691Z" fill="white"/>
<path d="M12.3461 9.53698V14.4606C12.3461 14.6303 12.4837 14.768 12.6534 14.768H17.5771C17.7468 14.768 17.8844 14.6303 17.8844 14.4606V9.53698C17.8844 9.36725 17.7468 9.22966 17.5771 9.22966H12.6534C12.4837 9.22966 12.3461 9.36725 12.3461 9.53698Z" fill="white"/>
</svg>
