<svg width="24" height="24" viewBox="0 0 24 24" fill="none" xmlns="http://www.w3.org/2000/svg">
<path d="M7.35985 5.91802L12.0001 3.23242L16.6404 5.91802L14.9344 6.91015L12.0001 5.21669L9.06583 6.91015L7.35985 5.91802ZM16.6404 9.30496L14.9344 8.31282L12.0001 10.0063L9.06583 8.31282L7.35985 9.30496V11.2892L10.2941 12.9827V16.3696L12.0001 17.3618L13.7061 16.3696V12.9827L16.6404 11.2892V9.30496ZM16.6404 14.6762V12.6919L14.9344 13.684V15.6683L16.6404 14.6762ZM17.8516 15.3775L14.9173 17.0709V19.0553L19.5576 16.3696V10.9984L17.8516 11.9906V15.3775ZM16.1457 7.61149L17.8516 8.60362V10.5879L19.5576 9.59575V7.61149L17.8516 6.61936L16.1457 7.61149ZM10.2941 17.7894V19.7737L12.0001 20.7658L13.7061 19.7737V17.7894L12.0001 18.7815L10.2941 17.7894ZM7.35985 14.6762L9.06583 15.6683V13.684L7.35985 12.6919V14.6762ZM10.2941 7.61149L12.0001 8.60362L13.7061 7.61149L12.0001 6.61936L10.2941 7.61149ZM6.1486 8.60362L7.85457 7.61149L6.1486 6.61936L4.44263 7.61149V9.59575L6.1486 10.5879V8.60362ZM6.1486 11.9906L4.44263 10.9984V16.3696L9.08287 19.0553V17.0709L6.1486 15.3775V11.9906Z" fill="#878888"/>
</svg>
