<svg width="24" height="24" viewBox="0 0 24 24" fill="none" xmlns="http://www.w3.org/2000/svg">
<path d="M8.31228 11.6516H2.10193L8.63568 8.58495L11.66 2L11.6671 8.2557C11.6695 10.1302 10.1669 11.6539 8.30993 11.6539L8.31228 11.6516Z" fill="#8E9BB2"/>
<path d="M15.6875 11.6516H21.8979L15.3642 8.58495L12.3398 2L12.3327 8.2557C12.3303 10.1302 13.833 11.6539 15.6899 11.6539L15.6875 11.6516Z" fill="#8E9BB2"/>
<path d="M15.6875 12.3484H21.8979L15.3642 15.415L12.3398 22L12.3327 15.7443C12.3303 13.8698 13.833 12.3461 15.6899 12.3461L15.6875 12.3484Z" fill="#8E9BB2"/>
<path d="M8.31228 12.3484H2.10193L8.63568 15.415L11.66 22L11.6671 15.7443C11.6695 13.8698 10.1669 12.3461 8.30993 12.3461L8.31228 12.3484Z" fill="#8E9BB2"/>
</svg>
