<svg width="24" height="24" xmlns="http://www.w3.org/2000/svg" fill="none">

 <g>
  <title>Layer 1</title>
  <g stroke="null">
   <path stroke="null" fill="#8E9BB2" d="m19.5716,8.238c-2.2513,0.90946 -5.16125,0.38891 -6.96349,-1.84885c-0.07784,-0.09574 -0.13771,-0.19745 -0.21555,-0.28122c-0.07784,-0.07777 -0.17364,-0.13163 -0.26345,-0.19743c-0.04193,0.10172 -0.10777,0.19743 -0.12574,0.30514c-0.11977,0.68211 -0.1497,1.39411 -0.35925,2.05228c-1.10172,3.48827 -3.47278,5.58243 -7.07725,6.25256c-0.78437,0.1436 -0.63469,0.17351 -0.80833,-0.54448c-1.17953,-4.96017 2.25132,-9.8246 7.32276,-10.399c3.40092,-0.38293 6.79584,1.4001 8.38253,4.40969c0.04193,0.0778 0.07186,0.16157 0.11377,0.25728l-0.00599,-0.00598z"/>
   <path stroke="null" fill="#8E9BB2" d="m4.39321,15.69302c0.55086,-0.11366 1.07776,-0.2872 1.61065,-0.32906c2.30519,-0.19148 4.16732,0.65217 5.5744,2.50101c0.07184,0.09572 0.18561,0.14958 0.28141,0.22737c0.0479,-0.11968 0.12574,-0.23934 0.13171,-0.359c0.16167,-3.97891 3.14944,-7.43726 7.07725,-8.18518c0.23351,-0.04189 0.47302,-0.0658 0.70654,-0.11966c0.22154,-0.04786 0.31135,0.03591 0.37122,0.25131c0.56283,2.09414 0.41912,4.14044 -0.5688,6.07305c-1.37714,2.69248 -3.6045,4.27207 -6.60425,4.65501c-3.48473,0.44277 -6.86171,-1.35222 -8.50827,-4.52338c-0.01796,-0.03591 -0.02396,-0.0718 -0.06587,-0.18548l-0.006,-0.00599z"/>
  </g>
 </g>
</svg>