<svg width="24" height="24" viewBox="0 0 24 24" fill="none" xmlns="http://www.w3.org/2000/svg">
<path fill-rule="evenodd" clip-rule="evenodd" d="M20.3334 11.9998C20.3334 16.6022 16.6025 20.3332 12.0001 20.3332C7.39771 20.3332 3.66675 16.6022 3.66675 11.9998C3.66675 7.39747 7.39771 3.6665 12.0001 3.6665C16.6025 3.6665 20.3334 7.39747 20.3334 11.9998ZM9.63867 15.3159H8.02141C7.68159 15.3159 7.51371 15.3159 7.41134 15.2504C7.3008 15.1787 7.23323 15.06 7.22504 14.929C7.21891 14.8082 7.30284 14.6608 7.47072 14.366L11.4639 7.3274C11.6339 7.02851 11.7198 6.87907 11.8283 6.82379C11.945 6.76444 12.0842 6.76444 12.2009 6.82379C12.3094 6.87907 12.3954 7.02851 12.5653 7.3274L13.3862 8.76042L13.3904 8.76774C13.574 9.0884 13.667 9.251 13.7077 9.42166C13.7527 9.60795 13.7527 9.80447 13.7077 9.99077C13.6667 10.1627 13.5746 10.3265 13.3883 10.652L11.2908 14.3599L11.2853 14.3694C11.1006 14.6927 11.007 14.8565 10.8772 14.9802C10.736 15.1153 10.5661 15.2135 10.3798 15.2688C10.2098 15.3159 10.0195 15.3159 9.63867 15.3159ZM13.7228 15.3161H16.0402C16.3821 15.3161 16.554 15.3161 16.6564 15.2485C16.767 15.1769 16.8366 15.0561 16.8427 14.9251C16.8486 14.8083 16.7665 14.6666 16.6056 14.3889C16.6001 14.3795 16.5945 14.3699 16.5889 14.3601L15.4281 12.3743L15.4149 12.352C15.2518 12.0761 15.1694 11.9368 15.0637 11.883C14.947 11.8236 14.8099 11.8236 14.6932 11.883C14.5867 11.9382 14.5007 12.0836 14.3308 12.3763L13.1742 14.3621L13.1702 14.369C13.0009 14.6612 12.9163 14.8073 12.9224 14.9271C12.9306 15.0582 12.9981 15.1789 13.1087 15.2506C13.209 15.3161 13.3809 15.3161 13.7228 15.3161Z" fill="#878888"/>
</svg>
