<svg width="24" height="24" viewBox="0 0 24 24" fill="none" xmlns="http://www.w3.org/2000/svg">
<path d="M8.42993 13.0228L8.53385 11.7067L8.61176 10.5985H8.63776L8.71568 11.7067L8.82824 13.0228H8.42993Z" fill="#8E9BB2"/>
<path d="M12.38 12.079H12.1549V9.62878H12.38C12.5532 9.62878 12.6225 9.7847 12.6225 10.0704V11.6461C12.6225 11.9232 12.5532 12.079 12.38 12.079Z" fill="#8E9BB2"/>
<path fill-rule="evenodd" clip-rule="evenodd" d="M12 3.35999C16.7717 3.35999 20.64 7.22827 20.64 12C20.64 16.7717 16.7717 20.64 12 20.64C7.22827 20.64 3.35999 16.7717 3.35999 12C3.35999 7.22827 7.22827 3.35999 12 3.35999ZM9.25262 8.85817H8.05779L7.28726 15.2651H8.24834L8.3609 13.8712H8.89768L9.01023 15.2651H10.0232L9.25262 8.85817ZM11.116 15.2651H12.1463V12.8495H12.4667C13.2026 12.8495 13.6528 12.4166 13.6528 11.6461V10.0703C13.6528 9.29111 13.2026 8.85817 12.4667 8.85817H11.116V15.2651ZM14.8396 15.2651V8.85817H16.8484V9.70669H15.8699V11.6028H16.7444V12.4512H15.8699V14.4167H16.8484V15.2651H14.8396Z" fill="#8E9BB2"/>
</svg>
