<?xml version="1.0" encoding="UTF-8" standalone="no"?>
<svg
   version="1.0"
   id="katman_1"
   x="0px"
   y="0px"
   viewBox="0 0 250 249.99999"
   xml:space="preserve"
   width="250"
   height="250"
   xmlns="http://www.w3.org/2000/svg"
   xmlns:svg="http://www.w3.org/2000/svg"><defs
   id="defs861" />
<style
   type="text/css"
   id="style824">
	.st0{fill:#FFF4FC;}
	.st1{fill:url(#SVGID_1_);}
	.st2{fill:url(#SVGID_00000175299121441110412300000008930710955666352001_);}
	.st3{fill:url(#SVGID_00000054259155200418614040000008316825540536380058_);}
	.st4{fill:url(#SVGID_00000072974053257590412950000007562705127322685623_);}
	.st5{fill:none;stroke:#98C9C0;stroke-width:2;stroke-miterlimit:10;}
</style>
<path
   class="st0"
   d="m 242.34621,154.13997 -113.2,83.7 c -1.5,1.1 -3.7,1.2 -5.2,0.1 l -114.9999945,-81.3 c -2.2,-1.6 -2.7,-4.8 -0.9,-6.9 L 121.14621,14.139973 c 1.6,-2 4.6,-2 6.3,0 l 115.5,134.799997 c 1.3,1.6 1.1,4 -0.6,5.2 z"
   id="path826" />
<linearGradient
   id="SVGID_1_"
   gradientUnits="userSpaceOnUse"
   x1="200.3"
   y1="141.1756"
   x2="309.29999"
   y2="141.1756"
   gradientTransform="matrix(1,0,0,-1,-73.053784,267.91557)">
	<stop
   offset="0"
   style="stop-color:#3B8270"
   id="stop828" />
	<stop
   offset="1"
   style="stop-color:#305C6E"
   id="stop830" />
</linearGradient>
<path
   class="st1"
   d="m 236.24621,151.33997 -107.6,79.5 -0.6,-81 -0.8,-127.199997 106.5,125.699997 z"
   id="path833"
   style="fill:url(#SVGID_1_)" />
<linearGradient
   id="SVGID_00000155862311437357007280000014758078183647478145_"
   gradientUnits="userSpaceOnUse"
   x1="86.400002"
   y1="141.1756"
   x2="196.8"
   y2="141.1756"
   gradientTransform="matrix(1,0,0,-1,-73.053784,267.91557)">
	<stop
   offset="0"
   style="stop-color:#4E7F98"
   id="stop835" />
	<stop
   offset="1"
   style="stop-color:#3BC0B5"
   id="stop837" />
</linearGradient>
<path
   style="fill:url(#SVGID_00000155862311437357007280000014758078183647478145_)"
   d="m 13.346216,153.03997 110.399994,77.8 -2.5,-208.199997 z"
   id="path840" />
<linearGradient
   id="SVGID_00000183955515555532182670000017616294773150489478_"
   gradientUnits="userSpaceOnUse"
   x1="86.400002"
   y1="77.475601"
   x2="196.8"
   y2="77.475601"
   gradientTransform="matrix(1,0,0,-1,-73.053784,267.91557)">
	<stop
   offset="0"
   style="stop-color:#30435C"
   id="stop842" />
	<stop
   offset="1"
   style="stop-color:#299AA9"
   id="stop844" />
</linearGradient>
<path
   style="fill:url(#SVGID_00000183955515555532182670000017616294773150489478_)"
   d="m 122.84621,150.03997 -108.699994,2.1 -0.8,0.9 110.399994,77.8 z"
   id="path847" />
<linearGradient
   id="SVGID_00000087397218019028340530000000785427759182122135_"
   gradientUnits="userSpaceOnUse"
   x1="201.10001"
   y1="78.3256"
   x2="309.29999"
   y2="78.3256"
   gradientTransform="matrix(1,0,0,-1,-73.053784,267.91557)">
	<stop
   offset="0"
   style="stop-color:#2E2C29"
   id="stop849" />
	<stop
   offset="1"
   style="stop-color:#323232"
   id="stop851" />
</linearGradient>
<path
   style="fill:url(#SVGID_00000087397218019028340530000000785427759182122135_)"
   d="m 128.04621,149.83997 105.7,-1.5 2.5,3 -107.6,79.5 z"
   id="path854" />
<path
   class="st5"
   d="m 128.04621,148.83997 105.7,-1.5 m -110.9,1.7 -108.699994,2.1 m 108.199994,-37.6 c -23.399995,-17.9 -33.299994,-20.7 -36.999994,-17.7 -10.2,8.5 27.599994,63.8 12.499999,77.7 -4.4,4 -13.499999,4.9 -30.999999,6.6 -5.4,0.5 -9.9,0.7 -12.8,0.7 m 109.699994,-32.5 -35.9,-31.4 m -23.7,-74.599997 c -0.3,4.9 -0.1,14.6 4.9,25.3 4,8.6 9.5,14.2 13,17.3 m 85.8,86.399997 c 0.9,-1.3 12.1,-17.8 5.2,-33.3 -5.1,-11.5 -17.6,-16.8 -19.5,-17.6 -2.5,-1.1 -2.6,-0.8 -14.3,-4.6 -7.1,-2.4 -10.7,-3.5 -13.8,-4.7 -4.8,-1.8 -14.1,-5.4 -24.7,-12.2 -3.5,-2.2 -8,-5.4 -13.1,-9.599997"
   id="path856" />
</svg>
