<svg width="24" height="24" viewBox="0 0 24 24" fill="none" xmlns="http://www.w3.org/2000/svg">
<path d="M16.7458 15.0659V13.9056C17.46 13.6606 17.9801 12.8999 17.9801 11.9995C17.9801 11.0992 17.46 10.3363 16.7458 10.0935V8.93315C17.4184 8.70322 17.92 8.01344 17.9755 7.17969H17.1572V7.53425C17.1572 7.80715 16.9908 8.04782 16.7458 8.16816V8.00269C16.7458 7.75988 16.5331 7.56218 16.272 7.56218H16.2304C15.9692 7.56218 15.7565 7.75988 15.7565 8.00269V8.16816C15.5115 8.04782 15.345 7.8093 15.345 7.53425V7.17969H14.5268C14.5823 8.01344 15.0839 8.70322 15.7565 8.93315V10.0935C15.0446 10.3363 14.5222 11.097 14.5222 11.9995C14.5222 12.9021 15.0422 13.6627 15.7565 13.9056V15.0659C15.0839 15.2959 14.5823 15.9857 14.5268 16.8194H15.345V16.4648C15.345 16.1919 15.5115 15.9512 15.7565 15.8309V15.9964C15.7565 16.2392 15.9692 16.4369 16.2304 16.4369H16.272C16.5331 16.4369 16.7458 16.2392 16.7458 15.9964V15.8309C16.9908 15.9512 17.1572 16.1898 17.1572 16.4648V16.8194H17.9755C17.92 15.9857 17.4184 15.2959 16.7458 15.0659ZM15.345 12.5067V11.4903C15.345 11.2174 15.5115 10.9767 15.7565 10.8564V11.0218C15.7565 11.2646 15.9692 11.4623 16.2304 11.4623H16.272C16.5331 11.4623 16.7458 11.2646 16.7458 11.0218V10.8564C16.9908 10.9767 17.1572 11.2152 17.1572 11.4903V12.5067C17.1572 12.7796 16.9908 13.0202 16.7458 13.1406V12.9751C16.7458 12.7323 16.5331 12.5346 16.272 12.5346H16.2304C15.9692 12.5346 15.7565 12.7323 15.7565 12.9751V13.1406C15.5138 13.0202 15.345 12.7817 15.345 12.5067Z" fill="#6C6D6D"/>
<path d="M21.7659 12.6163V11.3807C22.4801 11.1357 23.0003 10.375 23.0003 9.47465C23.0003 8.57429 22.4801 7.81145 21.7659 7.56863V7.17969H20.7789V7.56863C20.0647 7.8136 19.5447 8.57429 19.5447 9.47465C19.5447 10.375 20.0647 11.1379 20.7789 11.3807V12.6163C20.0647 12.8612 19.5447 13.6219 19.5447 14.5223C19.5447 15.4227 20.0647 16.1855 20.7789 16.4283V16.8172H21.7659V16.4283C22.4801 16.1833 23.0003 15.4227 23.0003 14.5223C23.0003 13.6219 22.4801 12.8612 21.7659 12.6163ZM20.3652 9.98178V8.96537C20.3652 8.69247 20.5316 8.4518 20.7766 8.33146V8.49693C20.7766 8.73975 20.9893 8.93744 21.2505 8.93744H21.2898C21.551 8.93744 21.7636 8.73975 21.7636 8.49693V8.33146C22.0087 8.4518 22.175 8.69032 22.175 8.96537V9.98178C22.175 10.2547 22.0087 10.4954 21.7636 10.6157V10.4502C21.7636 10.2074 21.551 10.0097 21.2898 10.0097H21.2482C20.987 10.0097 20.7743 10.2074 20.7743 10.4502V10.6157C20.534 10.4954 20.3652 10.2568 20.3652 9.98178ZM22.1774 15.0316C22.1774 15.3045 22.011 15.5452 21.7659 15.6655V15.4227C21.7659 15.1798 21.5533 14.9821 21.2921 14.9821H21.2528C20.9916 14.9821 20.7789 15.1798 20.7789 15.4227V15.6655C20.534 15.5452 20.3675 15.3066 20.3675 15.0316V14.0152C20.3675 13.7423 20.534 13.5016 20.7789 13.3812V13.4693C20.7789 13.7122 20.9916 13.9099 21.2528 13.9099H21.2944C21.5556 13.9099 21.7682 13.7122 21.7682 13.4693V13.3812C22.0133 13.5016 22.1797 13.7401 22.1797 14.0152V15.0316H22.1774Z" fill="#6C6D6D"/>
<path d="M11.0891 11.0148C11.0799 10.9654 11.0683 10.9181 11.0498 10.873C11.0568 10.8622 12.5915 8.87454 11.1701 7.6454C9.75083 6.41627 8.09351 8.01931 8.08427 8.0279C7.82076 7.95054 7.55495 7.90327 7.29145 7.88178C7.29145 7.88178 7.29145 7.88178 7.28914 7.88178C6.74826 7.79797 5.99011 7.88178 5.99011 7.88178C5.72893 7.90327 5.46543 7.95054 5.20423 8.02575C5.19498 8.01715 3.53769 6.41412 2.11849 7.64325C0.699271 8.87239 2.23174 10.8622 2.23868 10.8708C2.2225 10.9181 2.20863 10.9654 2.19938 11.0126C2.04683 11.8636 0.999756 12.1257 0.999756 13.6084C0.999756 15.1191 2.09306 16.3095 4.3259 16.3095H5.24121C5.24584 16.3138 5.59949 16.7823 6.3299 16.8102C6.3299 16.8102 6.49863 16.8274 6.88694 16.8145C7.66127 16.8145 8.03804 16.3181 8.04035 16.3117H8.95567C11.1885 16.3117 12.2818 15.1212 12.2818 13.6106C12.2887 12.13 11.2416 11.8657 11.0891 11.0148Z" fill="#6C6D6D"/>
</svg>
