<svg width="24" height="24" viewBox="0 0 24 24" fill="none" xmlns="http://www.w3.org/2000/svg">
<path d="M19.37 10.418L20.5757 12.5051L14.2251 16.1721C14.2251 16.1721 10.3358 18.5227 7.53955 13.6765L9.51702 12.5355C9.51702 12.5355 10.802 15.3758 13.0292 14.0859C15.2564 12.796 19.37 10.418 19.37 10.418Z" fill="#878888"/>
<path d="M4.6295 13.6612L3.42383 11.574L9.90957 7.82971C9.90957 7.82971 13.7989 5.47909 16.5942 10.3253L14.6167 11.4663C14.6167 11.4663 13.3317 8.62598 11.1045 9.91589C8.87728 11.2058 4.6295 13.6612 4.6295 13.6612Z" fill="#878888"/>
<path d="M12.122 13.6108C12.9973 13.6108 13.7068 12.9013 13.7068 12.0261C13.7068 11.1509 12.9973 10.4414 12.122 10.4414C11.2468 10.4414 10.5374 11.1509 10.5374 12.0261C10.5374 12.9013 11.2468 13.6108 12.122 13.6108Z" fill="#6C6D6D"/>
<path d="M6.52708 16.0849C6.98416 16.0849 7.35469 15.7144 7.35469 15.2573C7.35469 14.8002 6.98416 14.4297 6.52708 14.4297C6.07 14.4297 5.69946 14.8002 5.69946 15.2573C5.69946 15.7144 6.07 16.0849 6.52708 16.0849Z" fill="#878888"/>
<path d="M17.5732 9.70601C18.0303 9.70601 18.4008 9.33547 18.4008 8.87839C18.4008 8.42132 18.0303 8.05078 17.5732 8.05078C17.1161 8.05078 16.7456 8.42132 16.7456 8.87839C16.7456 9.33547 17.1161 9.70601 17.5732 9.70601Z" fill="#878888"/>
</svg>
