<svg width="24" height="24" viewBox="0 0 24 24" fill="none" xmlns="http://www.w3.org/2000/svg">
<path fill-rule="evenodd" clip-rule="evenodd" d="M20.6399 11.9999C20.6399 16.7716 16.7716 20.6399 11.9999 20.6399C7.22813 20.6399 3.35986 16.7716 3.35986 11.9999C3.35986 7.22813 7.22813 3.35986 11.9999 3.35986C16.7716 3.35986 20.6399 7.22813 20.6399 11.9999ZM9.55155 15.438H7.87478C7.52245 15.438 7.34839 15.438 7.24225 15.3701C7.12765 15.2957 7.0576 15.1727 7.0491 15.0368C7.04275 14.9116 7.12976 14.7588 7.30382 14.4531L11.444 7.15548C11.6202 6.84559 11.7093 6.69066 11.8218 6.63334C11.9428 6.57181 12.0871 6.57181 12.2081 6.63334C12.3206 6.69066 12.4097 6.84559 12.5859 7.15548L13.437 8.64124L13.4414 8.64882C13.6317 8.98128 13.7282 9.14986 13.7703 9.3268C13.817 9.51996 13.817 9.72371 13.7703 9.91686C13.7278 10.0952 13.6323 10.265 13.4392 10.6025L11.2644 14.4468L11.2588 14.4566C11.0672 14.7918 10.9702 14.9617 10.8357 15.0899C10.6892 15.23 10.5131 15.3318 10.3199 15.3891C10.1437 15.438 9.94635 15.438 9.55155 15.438ZM13.786 15.4382H16.1887C16.5431 15.4382 16.7214 15.4382 16.8276 15.3681C16.9422 15.2938 17.0143 15.1686 17.0207 15.0328C17.0268 14.9117 16.9417 14.7647 16.7749 14.4769C16.7692 14.4671 16.7634 14.4571 16.7575 14.4469L15.554 12.3881L15.5403 12.365C15.3712 12.0789 15.2858 11.9345 15.1762 11.8787C15.0552 11.8172 14.9131 11.8172 14.7921 11.8787C14.6817 11.936 14.5925 12.0867 14.4164 12.3902L13.2172 14.4491L13.213 14.4562C13.0375 14.7592 12.9498 14.9106 12.9561 15.0349C12.9646 15.1707 13.0346 15.296 13.1492 15.3702C13.2532 15.4382 13.4315 15.4382 13.786 15.4382Z" fill="#8E9BB2"/>
</svg>
