<svg width="24" height="24" viewBox="0 0 24 24" fill="none" xmlns="http://www.w3.org/2000/svg">
<path fill-rule="evenodd" clip-rule="evenodd" d="M4.46729 3.06474V16.0946C4.46744 16.338 4.5224 16.5782 4.62812 16.7975C4.73383 17.0169 4.8876 17.2097 5.07805 17.3619L11.2366 22.2928C11.4533 22.4658 11.7226 22.5601 12.0001 22.5601C12.2776 22.5601 12.5469 22.4658 12.7636 22.2928L18.9221 17.3619C19.1126 17.2097 19.2664 17.0169 19.372 16.7975C19.4778 16.5782 19.5327 16.338 19.5329 16.0946V3.06474C19.5329 2.63385 19.3613 2.2206 19.0559 1.91592C18.7504 1.61123 18.3362 1.44006 17.9042 1.44006H6.096C5.66404 1.44006 5.24977 1.61123 4.94432 1.91592C4.63888 2.2206 4.46729 2.63385 4.46729 3.06474Z" fill="#8E9BB2"/>
<path d="M16.3292 9.01003V6.16333C16.3292 5.78584 16.182 5.42381 15.9202 5.15688C15.6583 4.88995 15.3032 4.73999 14.9329 4.73999H8.99849C8.62816 4.73999 8.27301 4.88995 8.01115 5.15688C7.74929 5.42381 7.60217 5.78584 7.60217 6.16333V14.4232C7.60231 14.6363 7.64943 14.8468 7.74006 15.0389C7.83068 15.2311 7.96251 15.4001 8.12579 15.5334L10.2866 17.3018C10.3122 17.3231 10.3433 17.3364 10.3761 17.3404C10.4089 17.3443 10.4421 17.3387 10.4719 17.3241C10.5017 17.3096 10.5268 17.2867 10.5444 17.2582C10.5619 17.2297 10.5712 17.1967 10.5711 17.1631V11.323C10.5711 11.2757 10.5895 11.2305 10.6222 11.1971C10.6549 11.1638 10.6993 11.145 10.7456 11.145H12.3165C12.5942 11.145 12.8606 11.2575 13.057 11.4577C13.2534 11.6578 13.3637 11.9294 13.3637 12.2125V17.1631C13.3638 17.1966 13.3731 17.2294 13.3906 17.2577C13.4081 17.2861 13.4331 17.3089 13.4628 17.3234C13.4924 17.3379 13.5254 17.3436 13.5581 17.3397C13.5907 17.3359 13.6217 17.3228 13.6474 17.3018L15.8081 15.5334C15.9715 15.4001 16.1033 15.2311 16.1939 15.0389C16.2845 14.8468 16.3316 14.6363 16.3318 14.4232V11.8567C16.3318 11.4792 16.1846 11.1172 15.9228 10.8502C15.6609 10.5833 15.3058 10.4333 14.9355 10.4333C15.3053 10.4326 15.6598 10.2824 15.9211 10.0155C16.1824 9.74867 16.3292 9.38702 16.3292 9.01003ZM12.3147 9.7217H10.7439C10.6976 9.7217 10.6532 9.70291 10.6205 9.66954C10.5877 9.63617 10.5693 9.59097 10.5693 9.54373V6.34125C10.5693 6.29406 10.5877 6.2488 10.6205 6.21544C10.6532 6.18207 10.6976 6.16333 10.7439 6.16333H13.1874C13.2338 6.16333 13.2781 6.18207 13.3108 6.21544C13.3436 6.2488 13.3619 6.29406 13.3619 6.34125V8.65416C13.3619 8.93731 13.2516 9.20884 13.0553 9.40899C12.8589 9.60921 12.5925 9.7217 12.3147 9.7217Z" fill="url(#paint0_linear_6271_43946)"/>
<defs>
<linearGradient id="paint0_linear_6271_43946" x1="11.967" y1="4.73999" x2="11.967" y2="17.3416" gradientUnits="userSpaceOnUse">
<stop stop-color="white"/>
<stop offset="0.458333" stop-color="white"/>
<stop offset="1" stop-color="white"/>
</linearGradient>
</defs>
</svg>
