<svg width="24" height="24" viewBox="0 0 24 24" fill="none" xmlns="http://www.w3.org/2000/svg">
<path fill-rule="evenodd" clip-rule="evenodd" d="M20.6666 12.0002C20.6666 16.7866 16.7864 20.6668 11.9999 20.6668C7.21345 20.6668 3.33325 16.7866 3.33325 12.0002C3.33325 7.21369 7.21345 3.3335 11.9999 3.3335C16.7864 3.3335 20.6666 7.21369 20.6666 12.0002ZM9.34543 14.2459C8.8288 14.2459 8.40551 14.1255 8.07557 13.8848C7.74996 13.6397 7.58716 13.2915 7.58716 12.8401C7.58716 12.7455 7.59801 12.6295 7.61972 12.4919C7.67616 12.1824 7.75647 11.8105 7.86067 11.3763C8.15588 10.1941 8.9178 9.60303 10.1464 9.60303C10.4807 9.60303 10.7803 9.65891 11.0451 9.77069C11.3099 9.87816 11.5183 10.0415 11.6702 10.2608C11.8222 10.4757 11.8982 10.7336 11.8982 11.0346C11.8982 11.1249 11.8873 11.2388 11.8656 11.3763C11.8005 11.7589 11.7223 12.1308 11.6312 12.4919C11.4792 13.0809 11.2166 13.5215 10.8432 13.8138C10.4698 14.1019 9.97059 14.2459 9.34543 14.2459ZM9.4366 13.3173C9.67971 13.3173 9.88593 13.2464 10.0553 13.1045C10.2289 12.9626 10.3526 12.7455 10.4264 12.4532C10.5263 12.0491 10.6023 11.6966 10.6544 11.3957C10.6717 11.3054 10.6804 11.213 10.6804 11.1184C10.6804 10.7272 10.4742 10.5316 10.0618 10.5316C9.81864 10.5316 9.61025 10.6025 9.4366 10.7444C9.26728 10.8863 9.14572 11.1034 9.07192 11.3957C8.99377 11.6837 8.91563 12.0362 8.83748 12.4532C8.82012 12.5392 8.81143 12.6295 8.81143 12.724C8.81143 13.1196 9.01982 13.3173 9.4366 13.3173ZM12.2188 14.1362C12.2449 14.1663 12.2818 14.1814 12.3295 14.1814H13.2152C13.2586 14.1814 13.2998 14.1663 13.3389 14.1362C13.378 14.1061 13.4018 14.0675 13.4105 14.0202L13.7101 12.6079H14.5892C15.1579 12.6079 15.6051 12.4897 15.9307 12.2533C16.2607 12.0168 16.4799 11.6514 16.5884 11.1571C16.6145 11.041 16.6275 10.9292 16.6275 10.8217C16.6275 10.4477 16.4799 10.1619 16.1847 9.96411C15.8938 9.76636 15.5074 9.66748 15.0255 9.66748H13.2933C13.2499 9.66748 13.2087 9.68253 13.1696 9.71262C13.1305 9.74271 13.1066 9.7814 13.0979 9.82869L12.1993 14.0202C12.1906 14.0632 12.1971 14.1018 12.2188 14.1362ZM15.1102 11.5698C14.9756 11.6686 14.8172 11.7181 14.6348 11.7181H13.8859L14.1334 10.5638H14.9148C15.0928 10.5638 15.2187 10.5982 15.2925 10.667C15.3663 10.7315 15.4032 10.826 15.4032 10.9507C15.4032 11.0066 15.3967 11.0711 15.3837 11.1442C15.3403 11.329 15.2491 11.4709 15.1102 11.5698Z" fill="#878888"/>
</svg>
