<svg width="24" height="24" viewBox="0 0 24 24" fill="none" xmlns="http://www.w3.org/2000/svg">
<path d="M19.0126 7.67984L18.3749 8.31575C18.8817 9.11064 19.0411 10.1077 18.6937 11.0607C18.1141 12.679 16.318 13.5318 14.6805 12.9538C14.4483 12.8674 14.2317 12.7663 14.0429 12.6358L11.9999 14.6731L10.2177 12.8812C9.39201 13.4298 8.33414 13.5888 7.33431 13.2423C5.65348 12.6358 4.78457 10.8006 5.3927 9.13916C5.47934 8.87909 5.61016 8.64753 5.75485 8.43153L4.98722 7.66602L4.84253 7.91139C4.03867 9.22031 3.61264 10.7251 3.61137 12.26C3.59664 16.8686 7.36376 20.64 11.9852 20.64H11.9999C16.6213 20.64 20.3745 16.898 20.3885 12.2885C20.3883 10.7553 19.9674 9.25146 19.1712 7.93991L19.0126 7.67984Z" fill="#8E9BB2"/>
<path d="M6.69386 9.36768C6.46801 9.66769 6.34607 10.0328 6.34644 10.4079C6.34644 11.3471 7.11407 12.1126 8.05585 12.1126C8.44746 12.1126 8.80962 11.9822 9.099 11.7515L6.69386 9.36768Z" fill="#8E9BB2"/>
<path d="M15.0845 11.6078C15.36 11.7953 15.6788 11.8964 16.041 11.8964C16.9828 11.8964 17.7504 11.1308 17.7504 10.1917C17.7504 9.84519 17.649 9.51255 17.461 9.23779L15.0845 11.6078Z" fill="#8E9BB2"/>
<path d="M12.0282 13.4019L5.10303 6.46647L5.37854 6.17789C7.08796 4.37211 9.42031 3.36035 11.9268 3.36035H11.9415C14.4766 3.36035 16.9112 4.44382 18.6059 6.32218L18.8667 6.61076L12.0282 13.4019ZM6.23368 6.46647L12.0291 12.2605L17.7516 6.58225C16.2155 5.05122 14.1292 4.16907 11.9563 4.16907H11.9415C9.78247 4.16907 7.76895 4.97865 6.23368 6.46647Z" fill="#8E9BB2"/>
</svg>
