<svg width="24" height="24" viewBox="0 0 24 24" fill="none" xmlns="http://www.w3.org/2000/svg">
<path d="M18.751 7.23011C19.1837 7.50322 19.4599 7.97237 19.4803 8.48482V15.4961C19.4611 15.9561 19.2482 16.3808 18.8863 16.6624L12.5821 20.3299C12.4022 20.4007 12.2121 20.4367 12.0171 20.4367C11.8044 20.4367 11.5684 20.3901 11.4044 20.31C11.3836 20.2999 11.3247 20.2674 11.2383 20.2187C11.1825 20.1872 11.1145 20.1486 11.0382 20.105L8.73043 18.7703L4.51978 15.7368V8.48168C4.54396 8.00693 4.77941 7.57485 5.16566 7.29676C5.23899 7.24409 5.31692 7.19765 5.39782 7.15869C5.39782 7.15869 11.2446 3.75245 11.2953 3.7268C11.724 3.51018 12.2587 3.51044 12.6867 3.72695L18.751 7.23011Z" fill="#2D374B"/>
<path d="M12.0447 14.4459L14.3616 18.0987L16.5018 16.8528L13.459 12.0352L12.0447 14.4459Z" fill="#28A0F0"/>
<path d="M18.4534 15.3915L18.4519 14.3933L15.1271 9.19141L13.8936 11.2939L17.1032 16.5083L18.2637 15.8328C18.3775 15.7399 18.4464 15.6036 18.4537 15.4566L18.4534 15.3915Z" fill="#28A0F0"/>
<path d="M4.51983 16.3286L6.15864 17.2771L11.6122 8.49178L10.6866 8.46723C9.89798 8.45602 9.04849 8.66195 8.65855 9.30132L5.56165 14.123L4.51978 15.731V16.3286H4.51983Z" fill="#F3F3F3"/>
<path d="M14.7594 8.49805L12.3202 8.50695L6.80127 17.6552L8.73026 18.7709L9.25484 17.8772L14.7594 8.49805Z" fill="#F3F3F3"/>
<path d="M19.4803 8.48482C19.4599 7.97237 19.1837 7.50322 18.751 7.23011L12.6867 3.72695C12.2587 3.51044 11.724 3.51018 11.2953 3.7268C11.2446 3.75245 5.39782 7.15869 5.39782 7.15869C5.31692 7.19765 5.23899 7.24409 5.16566 7.29676C4.77941 7.57485 4.54396 8.00693 4.51978 8.48168V15.7368L5.56165 14.1287L5.55253 8.53074C5.55378 8.51026 5.55633 8.49016 5.55993 8.47026C5.58344 8.33852 5.65667 8.22103 5.76692 8.14165C5.79444 8.12186 11.7411 4.6642 11.76 4.65467C11.8998 4.58414 12.0774 4.58341 12.2173 4.65252L18.2032 8.11123C18.3448 8.20181 18.4336 8.35543 18.4415 8.52335V15.4579C18.4342 15.605 18.3764 15.7412 18.2625 15.8341L17.102 16.5096L16.5032 16.8582L14.363 18.1041L12.1925 19.3676C12.0756 19.41 11.9389 19.4077 11.823 19.3603L9.25501 17.8766L8.73043 18.7703L11.0382 20.105C11.1145 20.1486 11.1825 20.1872 11.2383 20.2187C11.3247 20.2674 11.3836 20.2999 11.4044 20.31C11.5684 20.3901 11.8044 20.4367 12.0171 20.4367C12.2121 20.4367 12.4022 20.4007 12.5821 20.3299L18.8863 16.6624C19.2482 16.3808 19.4611 15.9561 19.4803 15.4961V8.48482Z" fill="#96BEDC"/>
</svg>
