<svg width="24" height="24" viewBox="0 0 24 24" fill="none" xmlns="http://www.w3.org/2000/svg">
<path d="M16.7458 15.0664V13.9061C17.46 13.6611 17.9801 12.9004 17.9801 12C17.9801 11.0997 17.46 10.3368 16.7458 10.094V8.93364C17.4184 8.70371 17.92 8.01392 17.9755 7.18018H17.1572V7.53474C17.1572 7.80764 16.9908 8.04831 16.7458 8.16864V8.00318C16.7458 7.76036 16.5331 7.56267 16.272 7.56267H16.2304C15.9692 7.56267 15.7565 7.76036 15.7565 8.00318V8.16864C15.5115 8.04831 15.345 7.80979 15.345 7.53474V7.18018H14.5268C14.5823 8.01392 15.0839 8.70371 15.7565 8.93364V10.094C15.0446 10.3368 14.5222 11.0975 14.5222 12C14.5222 12.9025 15.0422 13.6632 15.7565 13.9061V15.0664C15.0839 15.2964 14.5823 15.9862 14.5268 16.8199H15.345V16.4653C15.345 16.1924 15.5115 15.9517 15.7565 15.8314V15.9969C15.7565 16.2397 15.9692 16.4374 16.2304 16.4374H16.272C16.5331 16.4374 16.7458 16.2397 16.7458 15.9969V15.8314C16.9908 15.9517 17.1572 16.1903 17.1572 16.4653V16.8199H17.9755C17.92 15.9862 17.4184 15.2964 16.7458 15.0664ZM15.345 12.5072V11.4908C15.345 11.2179 15.5115 10.9772 15.7565 10.8568V11.0223C15.7565 11.2651 15.9692 11.4628 16.2304 11.4628H16.272C16.5331 11.4628 16.7458 11.2651 16.7458 11.0223V10.8568C16.9908 10.9772 17.1572 11.2157 17.1572 11.4908V12.5072C17.1572 12.7801 16.9908 13.0207 16.7458 13.1411V12.9756C16.7458 12.7328 16.5331 12.5351 16.272 12.5351H16.2304C15.9692 12.5351 15.7565 12.7328 15.7565 12.9756V13.1411C15.5138 13.0207 15.345 12.7822 15.345 12.5072Z" fill="#F47226"/>
<path d="M21.7659 12.6168V11.3812C22.4801 11.1362 23.0003 10.3755 23.0003 9.47514C23.0003 8.57478 22.4801 7.81194 21.7659 7.56912V7.18018H20.7789V7.56912C20.0647 7.81408 19.5447 8.57478 19.5447 9.47514C19.5447 10.3755 20.0647 11.1383 20.7789 11.3812V12.6168C20.0647 12.8617 19.5447 13.6224 19.5447 14.5228C19.5447 15.4231 20.0647 16.186 20.7789 16.4288V16.8177H21.7659V16.4288C22.4801 16.1838 23.0003 15.4231 23.0003 14.5228C23.0003 13.6224 22.4801 12.8617 21.7659 12.6168ZM20.3652 9.98226V8.96586C20.3652 8.69296 20.5316 8.45229 20.7766 8.33195V8.49742C20.7766 8.74024 20.9893 8.93793 21.2505 8.93793H21.2898C21.551 8.93793 21.7636 8.74024 21.7636 8.49742V8.33195C22.0087 8.45229 22.175 8.69081 22.175 8.96586V9.98226C22.175 10.2552 22.0087 10.4958 21.7636 10.6162V10.4507C21.7636 10.2079 21.551 10.0102 21.2898 10.0102H21.2482C20.987 10.0102 20.7743 10.2079 20.7743 10.4507V10.6162C20.534 10.4958 20.3652 10.2573 20.3652 9.98226ZM22.1774 15.032C22.1774 15.305 22.011 15.5456 21.7659 15.6659V15.4231C21.7659 15.1803 21.5533 14.9826 21.2921 14.9826H21.2528C20.9916 14.9826 20.7789 15.1803 20.7789 15.4231V15.6659C20.534 15.5456 20.3675 15.3071 20.3675 15.032V14.0156C20.3675 13.7427 20.534 13.5021 20.7789 13.3817V13.4698C20.7789 13.7127 20.9916 13.9104 21.2528 13.9104H21.2944C21.5556 13.9104 21.7682 13.7127 21.7682 13.4698V13.3817C22.0133 13.5021 22.1797 13.7406 22.1797 14.0156V15.032H22.1774Z" fill="#F47226"/>
<path d="M11.0891 11.0153C11.0799 10.9659 11.0683 10.9186 11.0498 10.8735C11.0568 10.8627 12.5915 8.87503 11.1701 7.64589C9.75083 6.41675 8.09351 8.0198 8.08427 8.02839C7.82076 7.95103 7.55495 7.90375 7.29145 7.88226C7.29145 7.88226 7.29145 7.88226 7.28914 7.88226C6.74826 7.79846 5.99011 7.88226 5.99011 7.88226C5.72893 7.90375 5.46543 7.95103 5.20423 8.02624C5.19498 8.01764 3.53769 6.4146 2.11849 7.64374C0.699271 8.87288 2.23174 10.8627 2.23868 10.8713C2.2225 10.9186 2.20863 10.9659 2.19938 11.0131C2.04683 11.8641 0.999756 12.1262 0.999756 13.6089C0.999756 15.1196 2.09306 16.31 4.3259 16.31H5.24121C5.24584 16.3143 5.59949 16.7828 6.3299 16.8107C6.3299 16.8107 6.49863 16.8279 6.88694 16.815C7.66127 16.815 8.03804 16.3186 8.04035 16.3121H8.95567C11.1885 16.3121 12.2818 15.1217 12.2818 13.6111C12.2887 12.1305 11.2416 11.8662 11.0891 11.0153Z" fill="#F47226"/>
</svg>
