<svg width="24" height="24" viewBox="0 0 24 24" fill="none" xmlns="http://www.w3.org/2000/svg">
<g clip-path="url(#clip0_6_40107)">
<path d="M20.8393 3.16016H3.16077V20.8387H20.8393V3.16016Z" fill="white"/>
<path d="M14.2724 13.7098L16.4981 12.4119C16.617 12.3438 16.6876 12.214 16.6876 12.0777V9.48199C16.6876 9.34571 16.6138 9.21593 16.4981 9.14779L14.2724 7.84993C14.1536 7.78179 14.0091 7.78179 13.8902 7.84993L11.6645 9.14779C11.5457 9.21593 11.475 9.34571 11.475 9.48199V14.1218L9.91411 15.0303L8.35322 14.1218V12.3016L9.91411 11.3931L10.9451 11.9933V10.7734L10.1068 10.2834C10.049 10.251 9.98156 10.2315 9.91732 10.2315C9.85309 10.2315 9.78564 10.2477 9.72783 10.2834L7.50211 11.5813C7.38328 11.6494 7.31262 11.7792 7.31262 11.9155V14.5112C7.31262 14.6475 7.38649 14.7773 7.50211 14.8454L9.72783 16.1432C9.84667 16.2114 9.99119 16.2114 10.11 16.1432L12.3357 14.8454C12.4546 14.7773 12.5252 14.6475 12.5252 14.5112V9.87135L12.5541 9.85512L14.0861 8.96285L15.647 9.87135V11.6916L14.0861 12.6033L13.0584 12.0031V13.2231L13.8966 13.7098C14.0091 13.7811 14.1568 13.7811 14.2724 13.7098Z" fill="url(#paint0_linear_6_40107)"/>
</g>
<defs>
<linearGradient id="paint0_linear_6_40107" x1="8.10475" y1="14.8649" x2="16.2257" y2="9.0035" gradientUnits="userSpaceOnUse">
<stop stop-color="#9A3C8F"/>
<stop offset="0.8139" stop-color="#7B4C98"/>
<stop offset="1" stop-color="#734E9B"/>
</linearGradient>
<clipPath id="clip0_6_40107">
<rect x="3.75" y="3.75" width="16.5" height="16.5" rx="8.25" fill="white"/>
</clipPath>
</defs>
</svg>
