<svg width="24" height="24" viewBox="0 0 24 24" fill="none" xmlns="http://www.w3.org/2000/svg">
<path d="M11.3386 1.50734C11.8137 1.27526 12.3145 1.28992 12.7738 1.55253C14.3702 2.46252 15.9618 3.37983 17.5472 4.30935C18.0578 4.60861 18.3179 5.08986 18.3204 5.6786C18.3302 7.7453 18.3265 9.81077 18.3204 11.8775C18.3204 11.9544 18.2703 12.0656 18.2092 12.1022C17.5948 12.4674 16.9731 12.8217 16.3001 13.2089C16.3001 13.0733 16.3001 12.978 16.3001 12.884C16.3001 10.7586 16.294 8.6333 16.305 6.50797C16.3074 6.1 16.1657 5.83739 15.8042 5.63096C13.95 4.57807 12.1069 3.50442 10.26 2.43809C10.1806 2.39167 10.1025 2.34281 9.98153 2.26953C10.4579 1.99958 10.8866 1.72842 11.3386 1.50734ZM10.999 22.6544C10.8964 22.6006 10.8182 22.564 10.7437 22.5212C8.29715 21.1104 5.85424 19.6911 3.40035 18.2913C2.71267 17.898 2.39875 17.3398 2.40486 16.5544C2.41829 14.8835 2.41463 13.2137 2.40608 11.5428C2.40242 10.7879 2.709 10.2419 3.37103 9.86574C5.09328 8.88614 6.80698 7.89065 8.52067 6.89517C8.66847 6.80967 8.77718 6.79501 8.93108 6.88784C9.52348 7.24328 10.1244 7.58285 10.7535 7.94562C10.6338 8.01646 10.5422 8.07265 10.4506 8.12517C8.5964 9.19639 6.74346 10.27 4.88441 11.3339C4.57904 11.5086 4.43858 11.7346 4.44102 12.0876C4.45079 13.4043 4.45201 14.7198 4.44102 16.0365C4.43735 16.4005 4.58149 16.6301 4.8954 16.8097C6.85706 17.931 8.81138 19.067 10.7718 20.1907C10.9379 20.286 11.0088 20.3849 11.0039 20.584C10.9892 21.2582 10.999 21.9325 10.999 22.6544ZM10.999 18.8837C10.8292 18.7872 10.7059 18.7176 10.5837 18.6468C9.0288 17.749 7.47511 16.8488 5.91654 15.9583C5.74797 15.8619 5.68568 15.7593 5.68812 15.5638C5.69912 14.5512 5.69546 13.5399 5.69057 12.5273C5.69057 12.3905 5.71133 12.2952 5.84691 12.2207C6.42099 11.9007 6.98775 11.566 7.55695 11.2387C7.59848 11.2154 7.64245 11.1971 7.71818 11.1605C7.71818 11.5611 7.71818 11.9288 7.71818 12.2964C7.71818 12.912 7.72795 13.5277 7.71452 14.1433C7.70719 14.4938 7.84155 14.7308 8.14813 14.9042C9.0288 15.4014 9.89847 15.918 10.7804 16.4127C10.9538 16.5104 11.0063 16.6179 11.0027 16.8097C10.9917 17.4827 10.999 18.157 10.999 18.8837ZM9.20225 5.60043C8.87245 5.40622 8.5903 5.40866 8.2605 5.60165C6.41122 6.68141 4.55461 7.74774 2.70045 8.81896C2.62227 8.86415 2.54044 8.90568 2.40242 8.98141C2.45128 8.27663 2.30103 7.61216 2.54044 6.96846C2.67113 6.61668 2.91665 6.35162 3.24156 6.16352C4.78914 5.26941 6.33549 4.37287 7.88552 3.48487C8.45105 3.15997 9.02879 3.16851 9.59433 3.49342C11.3544 4.50723 13.1146 5.52348 14.871 6.54339C14.9455 6.58736 15.0396 6.68386 15.0408 6.75592C15.053 7.48025 15.0481 8.20335 15.0481 8.98141C14.4093 8.61253 13.8193 8.27175 13.2294 7.93218C11.8858 7.15656 10.5397 6.38704 9.20225 5.60043ZM21.578 16.9783C21.5328 17.5475 21.1981 17.9518 20.7059 18.2339C18.82 19.3186 16.9377 20.4069 15.053 21.4952C14.4618 21.836 13.8706 22.178 13.2782 22.5188C13.2074 22.5603 13.1329 22.5957 13.0364 22.647C13.0303 22.5493 13.0217 22.4772 13.0217 22.4052C13.0205 21.781 13.0254 21.1569 13.0181 20.5327C13.0168 20.3922 13.0523 20.3043 13.1817 20.2298C15.93 18.6492 18.6746 17.0625 21.4204 15.4783C21.462 15.4539 21.5072 15.4356 21.5853 15.3977C21.5866 15.951 21.6183 16.4677 21.578 16.9783ZM21.5914 13.044C21.5866 13.6913 21.2384 14.1457 20.6839 14.4633C18.5354 15.6982 16.3893 16.9404 14.2432 18.179C13.8511 18.4049 13.4578 18.6309 13.0364 18.8727C13.0303 18.7665 13.0217 18.6956 13.0217 18.6236C13.0205 18.0079 13.0278 17.3923 13.0168 16.7755C13.0144 16.6008 13.0718 16.5068 13.2233 16.4201C15.1764 15.3 17.1209 14.1665 19.0765 13.0525C19.4246 12.8546 19.5773 12.6116 19.5748 12.2036C19.5602 10.0783 19.5675 7.95172 19.5675 5.8264C19.5675 5.72502 19.5675 5.62486 19.5675 5.45508C20.0781 5.76288 20.5544 6.01572 20.9917 6.32475C21.3899 6.60691 21.5902 7.03441 21.5927 7.52666C21.6 9.36617 21.6049 11.2045 21.5914 13.044Z" fill="#6C6D6D"/>
</svg>
