<svg width="24" height="24" viewBox="0 0 24 24" fill="none" xmlns="http://www.w3.org/2000/svg">
<path d="M20.64 11.9999C20.64 16.7716 16.7717 20.6399 12 20.6399C9.85109 20.6399 7.88543 19.8554 6.37377 18.5571C6.40261 18.5661 6.43539 18.5589 6.45777 18.5355L11.0279 13.7667C11.0727 13.7199 11.1515 13.7408 11.1672 13.8036L11.8679 16.6065C11.889 16.6911 12.0099 16.689 12.0282 16.6038L12.545 14.1918C12.5574 14.1342 12.6244 14.1079 12.6727 14.1417L16.3033 16.6831C16.3787 16.7359 16.4707 16.6439 16.4179 16.5685L13.8715 12.9308C13.8391 12.8845 13.862 12.82 13.9163 12.8045L16.3143 12.1194C16.3997 12.095 16.3912 11.9713 16.3033 11.9588L13.9346 11.6204C13.8746 11.6118 13.8442 11.5437 13.8777 11.4933L16.4189 7.68164C16.4702 7.60466 16.375 7.51465 16.301 7.57016L12.6755 10.2893C12.6271 10.3256 12.5573 10.299 12.5454 10.2396L12.0231 7.62811C12.0061 7.54271 11.8854 7.5389 11.8629 7.62304L11.1614 10.254C11.1466 10.3092 11.0815 10.333 11.0347 10.3002L7.43908 7.78328C7.3624 7.72961 7.26991 7.82519 7.32606 7.90006L10.0241 11.4975C10.0605 11.5459 10.0338 11.6157 9.97444 11.6275L7.44546 12.1333C7.35624 12.1512 7.35769 12.2792 7.4473 12.2951L10.35 12.8073C10.4171 12.8191 10.4416 12.9028 10.3914 12.9489L5.43417 17.5096C5.41199 17.53 5.40364 17.5596 5.40933 17.587C4.13105 16.0806 3.35999 14.1303 3.35999 11.9999C3.35999 7.22812 7.22824 3.35986 12 3.35986C16.7717 3.35986 20.64 7.22812 20.64 11.9999Z" fill="#8E9BB2"/>
</svg>
