<svg width="24" height="24" viewBox="0 0 24 24" fill="none" xmlns="http://www.w3.org/2000/svg">
<mask id="mask0_8473_51954" style="mask-type:luminance" maskUnits="userSpaceOnUse" x="2" y="2" width="20" height="20">
<path d="M21.5999 2.30396H2.3999V21.504H21.5999V2.30396Z" fill="white"/>
</mask>
<g mask="url(#mask0_8473_51954)">
<path d="M14.0159 2.53345L13.9583 2.64865C15.9551 3.51265 17.0879 5.29825 17.0879 7.25665C17.0879 9.36865 15.7055 11.2886 13.0175 12.9206L12.5759 13.1894C10.5599 14.4182 9.5423 15.8006 9.5423 17.471C9.5423 19.6214 11.2319 21.1958 13.5551 21.1958C17.2799 21.1958 21.5999 17.2214 21.5999 11.9222C21.5999 11.0582 21.4847 10.2134 21.2735 9.40705L21.1391 9.44545C21.1967 9.88705 21.2159 10.2134 21.2159 10.5206C21.2159 13.6502 19.4495 16.3382 16.4927 18.1238L16.2047 18.2966C15.5711 18.6614 15.0335 18.8726 14.4959 18.8726C13.7855 18.8726 13.2479 18.4118 13.2479 17.7398C13.2479 17.1638 13.6319 16.5878 14.8799 15.8582L15.2447 15.647C18.0095 14.0342 19.5455 11.7686 19.5455 9.25345C19.5455 6.06625 17.1647 3.43585 14.0159 2.53345ZM9.9839 21.2918L10.0415 21.1766C8.0447 20.3126 6.9119 18.527 6.9119 16.5686C6.9119 14.4566 8.2943 12.5366 10.9823 10.9046L11.4239 10.6358C13.4399 9.40705 14.4575 8.02465 14.4575 6.35425C14.4575 4.20385 12.7679 2.62945 10.4447 2.62945C6.7199 2.62945 2.3999 6.60385 2.3999 11.903C2.3999 12.767 2.5151 13.6118 2.7263 14.4182L2.8607 14.3798C2.8031 13.9382 2.7839 13.6118 2.7839 13.3046C2.7839 10.175 4.5503 7.48705 7.5071 5.70145L7.7951 5.52865C8.4287 5.16385 8.9663 4.95265 9.5039 4.95265C10.2143 4.95265 10.7519 5.41345 10.7519 6.08545C10.7519 6.66145 10.3679 7.23745 9.1199 7.96705L8.7551 8.17825C5.9903 9.79105 4.4543 12.0566 4.4543 14.5718C4.4543 17.759 6.8351 20.3894 9.9839 21.2918Z" fill="#4D3DFF"/>
</g>
</svg>
