<svg width="24" height="24" viewBox="0 0 24 24" fill="none" xmlns="http://www.w3.org/2000/svg">
<path d="M21 12C21 7.02478 16.9655 3 12 3C7.02478 3 3 7.02478 3 12C3 16.9655 7.02478 21 12 21C16.9655 21 21 16.9655 21 12Z" fill="url(#paint0_radial_6186_147088)"/>
<path d="M18.1198 9.18649C18.081 9.40955 18.0422 9.51623 17.984 9.63261C17.9258 9.76839 17.8676 9.91386 17.8094 10.2242C17.79 10.3406 17.7706 10.4376 17.7609 10.5152V10.5249C17.7415 10.6509 17.7318 10.7382 17.6833 10.8837C17.6445 11.0098 17.5767 11.2134 17.4118 11.4268C17.276 11.6014 17.053 11.902 16.7523 11.9408C16.7232 11.9408 16.6747 11.9408 16.6456 11.9311C15.7922 11.4947 15.0648 11.1746 14.8127 11.1067C14.5217 11.0195 14.5605 10.3794 14.5896 9.81688C14.609 9.56472 14.6187 9.32227 14.609 9.1186C14.5702 8.40093 14.4441 7.62507 13.8234 7.24683C13.4549 7.02377 12.97 6.95589 12.5142 6.95589C12.6014 6.91709 12.6887 6.8589 12.7954 6.80071C13.067 6.64554 13.3967 6.45158 13.7361 6.41278C13.8428 6.40308 13.9495 6.39339 14.0562 6.37399C14.7254 6.2964 15.3073 6.22852 15.9183 6.44188C16.1995 6.53886 16.762 6.84921 16.9075 7.14985C17.0142 7.35352 17.1887 7.51839 17.5282 7.83843C17.7124 8.0033 17.8288 8.10028 17.9161 8.17787C18.0422 8.27485 18.0616 8.30395 18.1004 8.37183C18.2167 8.60459 18.178 8.84705 18.1198 9.18649Z" fill="white"/>
<path d="M15.0259 12.1244C15.0647 12.1341 15.0841 12.1826 15.055 12.2214C14.9677 12.3572 14.861 12.5512 14.735 12.7742C14.6768 12.8809 14.6186 12.9876 14.5701 13.0652C14.4052 13.3464 14.3955 13.5889 14.3858 13.7731C14.3761 13.9768 14.3664 14.0641 14.2403 14.1417C14.1434 14.2096 14.0367 14.229 13.3384 14.3356C13.2123 14.355 13.1638 14.3744 13.1153 14.4035C13.1056 14.4132 13.0862 14.4132 13.0766 14.4229C13.0378 14.4423 12.999 14.4035 12.999 14.3647C13.0087 14.2678 13.0087 14.1417 13.0087 13.9768V13.9477C13.0087 13.8119 13.0087 13.6956 12.999 13.6083C12.9893 13.4337 12.9893 13.3561 13.0378 13.2785C13.0959 13.1815 13.1444 13.1525 13.2123 13.104C13.319 13.0361 13.4645 12.9488 13.6681 12.6578C13.7845 12.5027 13.8039 12.4154 13.8233 12.3475C13.833 12.3184 13.833 12.3087 13.9203 12.2408C14.0076 12.1729 14.2888 11.9596 14.6477 12.0178C14.7641 12.0372 14.8901 12.0759 15.0259 12.1244Z" fill="white"/>
<path d="M12.2423 15.3444C12.2229 15.3638 12.2132 15.3735 12.1842 15.3735C12.1066 15.3735 12.0581 15.3541 12.029 15.3153C11.9611 15.228 11.9708 15.0534 11.9805 14.9467L12.2811 14.8691C12.3005 15.034 12.3102 15.2571 12.2423 15.3444Z" fill="white"/>
<path d="M12.2622 14.2776C12.2525 14.3164 12.2525 14.3648 12.2525 14.423C12.2525 14.4424 12.2525 14.4618 12.2525 14.4812C12.2525 14.5297 12.2525 14.6073 12.2525 14.6461C12.1555 14.6752 12.0779 14.6752 11.981 14.6752C11.981 14.6461 11.981 14.5976 11.981 14.5685C11.981 14.5491 11.981 14.52 11.981 14.5006C11.981 14.4715 11.981 14.4521 11.981 14.423C11.981 14.3648 11.981 14.2776 11.9907 14.2485C12.0197 14.2485 12.0488 14.2388 12.0779 14.2291C12.1361 14.2194 12.2234 14.2 12.2719 14.2097C12.2719 14.2291 12.2719 14.2582 12.2622 14.2776Z" fill="white"/>
<path d="M11.7191 15.2578C11.7094 15.413 11.6609 15.5973 11.5154 15.6263C11.4475 15.636 11.4184 15.6166 11.399 15.5973C11.302 15.51 11.2923 15.2384 11.302 15.0445C11.3699 15.0445 11.4475 15.0348 11.5445 15.0154C11.6027 15.0057 11.6609 14.9863 11.7094 14.9766C11.7191 15.0541 11.7288 15.1511 11.7191 15.2578Z" fill="white"/>
<path d="M11.6511 14.7138L11.3311 14.8301C11.3505 14.7041 11.3698 14.5295 11.3795 14.4131C11.3892 14.3355 11.4086 14.3064 11.4183 14.2967C11.4183 14.2967 11.428 14.287 11.4377 14.287C11.4377 14.287 11.4377 14.287 11.4474 14.287H11.4571L11.6608 14.2773C11.6511 14.3743 11.6511 14.5877 11.6511 14.7138Z" fill="white"/>
<path d="M11.127 14.6175C11.1076 14.666 11.0882 14.8018 11.0785 14.8988L10.6809 14.8891C10.7003 14.763 10.7391 14.6369 10.7682 14.5399C10.807 14.443 10.8361 14.3654 10.8749 14.346C10.9137 14.3266 11.001 14.3169 11.0591 14.3654C11.1464 14.4236 11.1658 14.5108 11.127 14.6175Z" fill="white"/>
<path d="M10.9815 15.8485C10.9524 15.8873 10.9136 15.9164 10.8748 15.9164C10.8263 15.9261 10.7972 15.9067 10.7681 15.8873C10.642 15.7709 10.6517 15.3927 10.6614 15.2084C10.8263 15.1697 11.0106 15.1406 11.0979 15.1309C11.0979 15.2763 11.1076 15.674 10.9815 15.8485Z" fill="white"/>
<path d="M10.458 14.87C10.4386 14.9185 10.4192 14.967 10.4095 15.0155C10.361 15.0349 10.2155 15.0155 10.0701 14.9864L10.1671 14.356C10.3319 14.3075 10.5259 14.2978 10.5647 14.3463C10.6326 14.4142 10.5065 14.7343 10.458 14.87Z" fill="white"/>
<path d="M10.2741 15.937C10.1966 16.0339 10.0802 16.0824 9.91531 16.0727C9.79893 16.0727 9.76014 16.0242 9.74074 15.9952C9.65346 15.8497 9.74074 15.5102 9.82803 15.2969L10.3711 15.326C10.3808 15.3648 10.3808 15.4133 10.3808 15.4617C10.3905 15.6266 10.3711 15.8206 10.2741 15.937Z" fill="white"/>
<path d="M14.774 11.3479C14.2794 11.2121 14.3279 10.4945 14.3667 9.7962C14.3764 9.55374 14.3958 9.32099 14.3861 9.12702C14.3473 8.47724 14.2406 7.76926 13.7169 7.44922C13.1544 7.10978 12.233 7.18737 11.6705 7.25525C11.4669 7.31344 11.2729 7.36193 11.1177 7.35224C10.788 7.33284 10.5261 7.19706 10.2934 7.07099C10.1188 6.974 9.96364 6.88672 9.80847 6.88672C9.79877 6.88672 9.78907 6.88672 9.78907 6.88672C9.35265 6.91581 9.14898 7.02249 8.96472 7.18737C8.91623 7.22616 8.85804 7.34254 8.67377 7.87594C8.57679 8.14749 8.56709 8.29297 8.54769 8.42874C8.5283 8.55482 8.5186 8.6906 8.45071 8.89426C8.40222 9.03004 8.36342 9.14642 8.33433 9.2628C8.24704 9.56344 8.16946 9.8059 7.9561 10.0968C7.927 10.1259 7.89791 10.1841 7.85911 10.2326C7.81062 10.3102 7.75243 10.4072 7.66515 10.5139C7.60696 10.5915 7.48088 10.8824 7.49058 10.9697C7.50028 11.1152 7.54877 11.2025 7.59726 11.2994C7.64575 11.3964 7.71364 11.5128 7.72334 11.6777V11.7068C7.74273 11.9589 7.70394 12.085 7.22873 12.5117C6.92808 12.7833 6.70502 13.0451 6.55955 13.2391C6.54985 13.2585 6.55954 13.2779 6.58864 13.2779C6.59834 13.2779 6.59834 13.2779 6.59834 13.2779C6.60804 13.2779 6.61773 13.2779 6.62743 13.2779C6.63713 13.2779 6.64683 13.2779 6.65653 13.2779C6.66623 13.2779 6.67592 13.2779 6.68562 13.2779C6.802 13.2876 6.91838 13.3361 6.99597 13.4234C7.00567 13.4428 7.03476 13.4428 7.05416 13.4331C7.13174 13.404 7.21903 13.404 7.29661 13.4137C7.3936 13.4234 7.50028 13.4525 7.56817 13.5203C7.58756 13.5397 7.61666 13.5494 7.64575 13.5397C7.72334 13.5203 7.81062 13.5203 7.88821 13.5494C7.9464 13.5688 8.00459 13.6076 8.04338 13.6561C8.07248 13.6852 8.12097 13.6949 8.15976 13.6755C8.17916 13.6658 8.20825 13.6464 8.23735 13.6367C8.34403 13.5979 8.46041 13.6173 8.55739 13.6561C8.60588 13.6755 8.65437 13.6852 8.70286 13.724C8.78045 13.7822 8.83864 13.8598 8.86773 13.9471C8.88713 13.9956 8.95502 14.015 8.99381 13.9762C9.0714 13.918 9.12959 13.9083 9.18778 13.9277C9.21687 13.9374 9.23627 13.9568 9.25567 13.9859C9.28476 14.0246 9.33325 14.0634 9.37204 14.044C9.53692 13.9956 9.73088 14.0246 9.87636 14.1022C9.92485 14.1313 9.98304 14.1701 10.0121 14.2283V14.1992C10.0121 14.1895 10.0218 14.1798 10.0315 14.1701L10.0606 14.1604C10.1382 14.1313 10.5455 14.015 10.7007 14.1798C10.7104 14.1895 10.7201 14.1895 10.7298 14.1798C10.7492 14.1604 10.7686 14.141 10.7783 14.141C10.885 14.0828 11.0595 14.0731 11.1759 14.1798C11.1953 14.1992 11.2341 14.1895 11.2535 14.1701C11.2632 14.1507 11.2729 14.141 11.2923 14.1313C11.3311 14.0925 11.3893 14.0828 11.4475 14.0828L11.6705 14.0731C11.7287 14.0731 11.9033 14.0537 11.9518 14.044H11.9615C11.9809 14.044 12.01 14.0343 12.0391 14.0246C12.1458 14.0053 12.2718 13.9762 12.3688 14.0246C12.4658 14.0731 12.4561 14.1798 12.4464 14.2768C12.4464 14.3156 12.4367 14.3544 12.4367 14.3932C12.4367 14.4126 12.4367 14.432 12.4367 14.4514C12.4367 14.5387 12.4367 14.6162 12.427 14.6744L12.4367 14.7229C12.4367 14.7229 12.4367 14.7229 12.4367 14.7326C12.4464 14.7714 12.4949 14.8005 12.524 14.7714C12.6016 14.7229 12.6792 14.6647 12.7083 14.6259V14.6162C12.7083 14.6065 12.718 14.5871 12.7276 14.5484C12.7373 14.4611 12.7567 14.2962 12.7567 13.9568C12.7567 13.9374 12.7567 13.9277 12.7567 13.918C12.7567 13.7919 12.7567 13.6852 12.747 13.5979C12.7373 13.4137 12.7276 13.2682 12.8246 13.1227C12.9119 12.9772 12.9992 12.9287 13.0865 12.8706C13.1835 12.8124 13.2901 12.7445 13.4744 12.4923C13.5617 12.3662 13.5714 12.3178 13.5811 12.279C13.6005 12.182 13.6296 12.1238 13.7751 12.0268C13.8914 11.9395 14.2309 11.6777 14.6964 11.7553C14.8516 11.7843 15.094 11.8619 15.3462 11.9589C15.3559 11.9589 15.3656 11.9686 15.3753 11.9686H15.385C15.608 12.0559 15.8117 12.1529 15.9572 12.2305C15.9863 12.2499 16.0251 12.2402 16.0542 12.2111C16.1026 12.1529 16.1511 12.1238 16.1996 12.085C16.219 12.0753 16.2384 12.0656 16.2481 12.0559C16.2578 12.0559 16.2578 12.0462 16.2578 12.0462C16.2966 12.0171 16.2966 11.9395 16.2481 11.9201C15.5983 11.6001 14.9776 11.4061 14.774 11.3479ZM10.0994 11.4934C9.94424 12.1529 8.91623 12.89 8.45071 12.89H8.44101C8.43131 12.89 8.42161 12.89 8.42161 12.89C8.41192 12.89 8.40222 12.89 8.39252 12.8803C8.38282 12.8803 8.38282 12.8803 8.37312 12.8803C8.28584 12.8512 8.16946 12.793 8.08217 12.7057C8.02398 12.6475 7.97549 12.5699 7.9561 12.502C7.9561 12.4923 7.9464 12.4729 7.9464 12.4632C7.9173 12.3468 7.88821 12.2111 7.98519 11.9783C7.99489 11.9492 8.01429 11.9201 8.02398 11.891C8.02398 11.8813 8.03368 11.8716 8.03368 11.8619C8.04338 11.8328 8.05308 11.8134 8.06278 11.794C8.07248 11.7553 8.09187 11.7262 8.10157 11.7068C8.10157 11.6971 8.11127 11.6874 8.11127 11.6777C8.14036 11.6001 8.14036 11.571 8.15006 11.5419C8.15006 11.5225 8.15976 11.4837 8.16946 11.4449C8.19855 11.3188 8.21795 11.2122 8.22765 11.1249C8.24705 10.96 8.27614 10.8145 8.36342 10.6787C8.38282 10.6593 8.39252 10.64 8.41192 10.6206C8.42161 10.6109 8.42161 10.6109 8.43131 10.6012C8.44101 10.5915 8.44101 10.5915 8.45071 10.5818C8.47011 10.5624 8.4992 10.5527 8.5186 10.543C8.5283 10.543 8.53799 10.5333 8.54769 10.5333C8.56709 10.5236 8.58648 10.5236 8.60588 10.5139C8.69317 10.4945 8.79015 10.4945 8.90653 10.5042C9.03261 10.5139 9.14898 10.5333 9.24597 10.5624C9.33325 10.5818 9.41084 10.6109 9.46903 10.64C9.47873 10.64 9.47873 10.6496 9.48842 10.6496C9.49812 10.6593 9.50782 10.6593 9.52722 10.669C9.54661 10.6787 9.55631 10.6787 9.57571 10.6884C9.59511 10.6981 9.6145 10.7078 9.6339 10.7175L9.65329 10.7272C9.72118 10.7563 9.78907 10.7951 9.83756 10.8339C9.86666 10.8533 9.88605 10.8727 9.90545 10.8921C9.91515 10.9018 9.92485 10.9018 9.92485 10.9115C9.93454 10.9212 9.93454 10.9212 9.94424 10.9309C10.1479 11.1055 10.1382 11.3479 10.0994 11.4934ZM10.5843 8.98155L10.5649 9.09793C10.5164 9.36948 10.4098 9.73801 10.0218 9.83499C9.6436 9.92228 9.55631 9.94168 9.29446 9.96107C9.28476 9.96107 9.28476 9.96107 9.27506 9.96107C9.0811 9.96107 8.70286 9.83499 8.63498 9.53435C8.59618 9.34038 8.68347 9.19491 8.81924 8.96215C8.83864 8.92336 8.86773 8.88456 8.89683 8.83607C9.09079 8.51603 9.15868 8.28327 9.21687 8.099C9.27506 7.91474 9.32355 7.76926 9.44963 7.64318C9.47873 7.61409 9.50782 7.58499 9.54661 7.5656C9.56601 7.5462 9.59511 7.5365 9.6242 7.51711C9.66299 7.49771 9.70179 7.48801 9.74058 7.46862C9.82786 7.43952 9.92485 7.42982 10.0121 7.42982C10.1964 7.42982 10.3807 7.47831 10.5067 7.58499C10.5649 7.63349 10.6522 7.72077 10.7007 8.00202C10.7201 8.14749 10.6813 8.40935 10.5843 8.98155ZM13.3677 9.75741C13.232 9.99017 13.1641 10.1162 13.0477 10.2132C12.8149 10.4072 12.5531 10.446 12.33 10.446C12.1748 10.446 12.0391 10.4169 11.9518 10.4072C11.719 10.3684 11.302 10.2908 11.1565 9.95137C11.1274 9.88349 11.1274 9.84469 11.1274 9.7865C11.1274 9.73801 11.1274 9.64103 11.0983 9.43737V9.42767C11.0886 9.33068 11.0789 9.224 11.0983 9.08823V9.06883C11.1759 8.6615 11.205 8.60331 11.2147 8.56452C11.2535 8.48693 11.3505 8.44814 11.4378 8.49663C11.5154 8.53543 11.5445 8.63241 11.5154 8.70999C11.5057 8.72939 11.4863 8.81668 11.4184 9.13672V9.15612C11.399 9.2434 11.4087 9.31129 11.4184 9.39857V9.40827C11.4475 9.64103 11.4475 9.73801 11.4475 9.7962C11.4475 9.8059 11.4475 9.8156 11.4475 9.8253V9.83499C11.4766 9.90288 11.5348 9.94168 11.6026 9.98047C11.6511 9.99987 11.6996 9.96107 11.6899 9.91258C11.622 9.55374 11.622 9.13672 11.7578 8.87487C11.8063 8.78758 11.8839 8.65181 11.9615 8.51603C11.9712 8.50633 11.9809 8.48693 11.9809 8.47724C11.9906 8.46754 11.9906 8.45784 12.0003 8.44814C12.0391 8.38995 12.0682 8.34146 12.0973 8.29297C12.0973 8.28327 12.107 8.28327 12.107 8.27357L12.1167 8.26387C12.1264 8.25418 12.1264 8.24448 12.1361 8.23478C12.1361 8.23478 12.1361 8.22508 12.1458 8.22508L12.1554 8.21538C12.1554 8.20568 12.1651 8.20568 12.1651 8.19599C12.1942 8.15719 12.2233 8.1184 12.2427 8.07961C12.2815 8.03112 12.233 7.97293 12.1845 7.99232C12.0488 8.05051 11.9615 8.1184 11.9421 8.1281C11.8742 8.18629 11.7675 8.17659 11.7093 8.099C11.6511 8.03112 11.6608 7.92443 11.7384 7.86624C11.8257 7.79836 12.2718 7.47831 12.8052 7.62379C13.1932 7.73047 13.3871 8.03112 13.4647 8.1378C13.5229 8.22508 13.7169 8.49663 13.7072 8.88456C13.7072 9.16581 13.5908 9.37918 13.3677 9.75741Z" fill="white"/>
<path d="M9.89515 7.76953C9.86605 7.83742 9.83696 7.91501 9.79817 8.00229C9.72058 8.20595 9.6236 8.43871 9.57511 8.526C9.49752 8.67147 9.43933 8.76845 9.39084 8.83634C9.33265 8.92363 9.29386 8.99151 9.25506 9.0885C9.19687 9.25337 9.18718 9.43763 9.22597 9.6413C9.11929 9.6316 8.95442 9.56371 8.93502 9.46673C8.92532 9.39884 8.96412 9.33095 9.08049 9.12729C9.09989 9.0885 9.12899 9.04001 9.15808 9.00121C9.36174 8.65207 9.44903 8.39022 9.50722 8.19626C9.57511 7.99259 9.6042 7.90531 9.71088 7.82772C9.77877 7.79863 9.83696 7.77923 9.89515 7.76953Z" fill="white"/>
<path d="M9.69221 15.1033C9.57584 15.3361 9.44006 15.5494 9.35278 15.6561C9.27519 15.4621 9.14911 15.0063 9.1879 14.6475C9.1879 14.6378 9.1879 14.6281 9.1879 14.6184C9.1976 14.502 9.2267 14.405 9.28489 14.3178C9.32368 14.2596 9.42066 14.2305 9.52734 14.2305C9.60493 14.2305 9.69222 14.2499 9.7698 14.2887C9.80859 14.3081 9.86678 14.3565 9.86678 14.4826C9.88618 14.6572 9.7989 14.89 9.69221 15.1033Z" fill="white"/>
<path d="M15.8989 12.5124C15.9086 12.5221 15.9086 12.5318 15.9086 12.5415C15.8795 12.6094 15.831 12.6579 15.7825 12.7161C15.7243 12.784 15.6564 12.8616 15.5982 12.9877C15.511 13.1622 15.4819 13.3174 15.4722 13.7247C15.4528 14.1999 15.4722 14.4618 15.4916 14.6558C15.5013 14.84 15.511 14.9564 15.4819 15.1407C15.414 15.5092 15.2588 15.7517 15.0551 16.062C14.803 16.4499 14.5508 16.8476 14.1241 16.9737C14.0853 16.9834 14.0853 16.9834 13.9689 16.9834C13.8719 16.9834 13.7071 16.9834 13.4064 16.9931C12.8439 17.0124 12.5627 17.0221 12.3299 17.0706C12.0778 17.1191 11.9517 17.1773 11.8159 17.2258C11.6995 17.2743 11.5928 17.3131 11.3892 17.3616C11.2631 17.3907 11.0788 17.4101 10.4485 17.4198C9.78897 17.4198 9.39134 17.4198 8.87733 17.3616C8.15966 17.284 7.80082 17.2355 7.55837 17.1094C6.99587 16.8088 6.75341 16.2657 6.36548 15.3734C6.36548 15.3637 6.37518 15.354 6.38488 15.354C6.40427 15.3637 6.42367 15.3734 6.44306 15.3831C6.46246 15.3928 6.48186 15.3928 6.49156 15.3928C6.53035 15.4025 6.56914 15.4025 6.60794 15.3928C6.61763 15.3928 6.61763 15.3928 6.62733 15.3831C6.63703 15.3831 6.64673 15.3831 6.64673 15.3928C6.67582 15.4607 6.71462 15.5189 6.7825 15.5577C6.85039 15.5965 6.92798 15.5965 6.99587 15.5965C7.07345 15.5965 7.15104 15.5868 7.22862 15.5771C7.26742 15.5771 7.30621 15.5965 7.32561 15.6256C7.3935 15.8002 7.48078 15.9165 7.61656 15.9359C7.62625 15.9359 7.63595 15.9359 7.64565 15.9359C7.67475 15.9359 7.72324 15.9262 7.78143 15.8874C7.82992 15.8487 7.9075 15.8778 7.9463 15.9262C7.97539 15.9747 8.01419 16.0038 8.05298 16.0329C8.18875 16.1687 8.5185 16.2366 8.79005 16.2366C8.93552 16.2366 9.0713 16.2172 9.14888 16.1784C9.26526 16.1202 9.26526 16.0426 9.25556 16.0038C9.24587 15.9456 9.23617 15.8777 9.22647 15.8196C9.22647 15.8099 9.23617 15.8099 9.23617 15.8196C9.25556 15.8584 9.27496 15.8971 9.32345 15.9068C9.33315 15.9068 9.33315 15.9068 9.34285 15.9068C9.42044 15.9068 9.53681 15.9359 9.55621 16.0038C9.56591 16.0426 9.58531 16.0717 9.6047 16.1105C9.65319 16.1784 9.74048 16.2657 9.92475 16.2754H9.93444C10.1478 16.2754 10.3127 16.2075 10.4194 16.0717C10.4291 16.062 10.4291 16.0523 10.4388 16.0426C10.4775 15.9844 10.5939 15.9844 10.6424 16.0329C10.7006 16.0814 10.7685 16.1105 10.8461 16.1105C10.8558 16.1105 10.8752 16.1105 10.8849 16.1105C10.9819 16.1008 11.0594 16.0523 11.1273 15.965C11.1661 15.9068 11.1952 15.839 11.2146 15.7614C11.2243 15.742 11.2534 15.7323 11.2728 15.7517C11.3116 15.7905 11.3795 15.8293 11.4765 15.8293C11.4959 15.8293 11.525 15.8293 11.5541 15.8196C11.7383 15.7808 11.8353 15.6256 11.8741 15.4607C11.8741 15.451 11.8838 15.451 11.8838 15.4607C11.9323 15.5189 12.0196 15.5868 12.165 15.5868C12.1747 15.5868 12.1844 15.5868 12.1844 15.5868C12.262 15.5868 12.3299 15.548 12.3784 15.4898C12.4366 15.4122 12.456 15.2959 12.4657 15.1892C12.4657 15.1601 12.4851 15.131 12.5239 15.1116C12.6791 15.0437 12.873 14.8982 12.9312 14.8012C12.9312 14.8012 12.9312 14.7915 12.9409 14.7915C12.9506 14.7624 12.9797 14.7431 12.9991 14.7431C13.1252 14.7237 13.1737 14.6946 13.2222 14.6752C13.261 14.6558 13.29 14.6461 13.387 14.6267C14.095 14.52 14.2308 14.4909 14.386 14.3939C14.6187 14.2387 14.6284 14.0254 14.6381 13.8217C14.6478 13.6471 14.6575 13.4532 14.7933 13.2204C14.8418 13.1331 14.9 13.0362 14.9582 12.9198C15.0648 12.7258 15.2103 12.4543 15.317 12.3088C15.3364 12.2797 15.3752 12.27 15.4043 12.2894C15.6467 12.3767 15.8601 12.4737 15.8989 12.5124Z" fill="white"/>
<path d="M9.0128 14.6274C8.9837 14.8698 8.96431 15.1996 9.0031 15.6263C9.0128 15.7427 9.03219 15.8687 9.05159 15.9948C9.02249 16.0142 8.91581 16.0433 8.74124 16.0336C8.48909 16.0239 8.23693 15.9657 8.15935 15.8784L8.14965 15.8687C8.09146 15.8202 8.04297 15.7815 8.04297 15.6942C8.04297 15.6651 8.05267 15.636 8.08176 15.5875C8.10116 15.5681 8.12055 15.539 8.13995 15.5002C8.17874 15.442 8.23693 15.3741 8.29512 15.2771C8.45999 15.0056 8.51818 14.9183 8.59577 14.8116C8.60547 14.8019 8.60547 14.7922 8.61517 14.7825C8.66366 14.7243 8.71215 14.6468 8.79943 14.5207C8.85762 14.4334 8.90612 14.3558 8.95461 14.2976C9.02249 14.2006 9.07099 14.1521 9.10008 14.123C9.10008 14.1618 9.09038 14.22 9.08068 14.2782C9.04189 14.3946 9.02249 14.5013 9.0128 14.6274Z" fill="white"/>
<path d="M8.88676 10.8065C8.88676 10.8162 8.88676 10.8162 8.88676 10.8065C8.84797 10.855 8.80917 10.9132 8.76068 11.0102C8.6346 11.2817 8.6346 11.4369 8.6346 11.563C8.6346 11.6309 8.6346 11.6794 8.61521 11.7375C8.60551 11.7763 8.58611 11.8248 8.55702 11.8733C8.48913 12.0382 8.39215 12.2515 8.43094 12.5425C8.37275 12.5134 8.28547 12.4455 8.26607 12.4164C8.26607 12.397 8.25637 12.3873 8.25637 12.3679C8.23697 12.2806 8.22728 12.2225 8.27577 12.0867C8.43094 11.7375 8.45034 11.6503 8.46003 11.5533C8.46003 11.5339 8.46973 11.5145 8.46973 11.4854C8.49883 11.3496 8.51822 11.2332 8.52792 11.1362C8.54732 10.9908 8.56672 10.8938 8.61521 10.8259C8.6346 10.7968 8.68309 10.7871 8.75098 10.7871C8.78008 10.7871 8.80917 10.7871 8.84797 10.7968H8.85766C8.88676 10.8065 8.88676 10.8065 8.88676 10.8065Z" fill="white"/>
<path d="M8.69309 14.2687C8.68339 14.1814 8.67369 14.1039 8.6349 14.0166C8.6349 14.0166 8.6252 13.9972 8.6252 13.9875C8.6155 13.9778 8.6155 13.9681 8.60581 13.9584L8.59611 13.9487C8.58641 13.939 8.58641 13.939 8.57671 13.939L8.56701 13.9293C8.55731 13.9293 8.55731 13.9196 8.54762 13.9196H8.53792C8.48943 13.9002 8.44093 13.8808 8.38275 13.8711C8.37305 13.8711 8.36335 13.8711 8.36335 13.8711C8.35365 13.8711 8.35365 13.8711 8.34395 13.8711H8.33425C8.32456 13.8711 8.31486 13.8808 8.29546 13.8808C8.28576 13.8808 8.28576 13.8905 8.27606 13.8905L8.26637 13.9002C8.25667 13.9099 8.25667 13.9099 8.24697 13.9196L8.23727 13.9293V13.939C8.21787 13.9681 8.19848 13.9972 8.17908 14.0263C8.13059 14.0942 8.0821 14.1717 8.03361 14.2396C7.98512 14.3075 7.94632 14.3657 7.89783 14.4336C7.86874 14.4724 7.84934 14.5015 7.82025 14.5403C7.82025 14.55 7.81055 14.55 7.81055 14.5597C7.83964 14.5694 7.86874 14.5694 7.89783 14.5791C7.96572 14.5888 8.03361 14.5985 8.0918 14.6082C8.22757 14.6276 8.37305 14.6373 8.50882 14.6276C8.51852 14.6276 8.51852 14.6276 8.52822 14.6276C8.55731 14.5791 8.60581 14.5209 8.6543 14.4433C8.68339 14.4045 8.71249 14.3657 8.73188 14.3269C8.70279 14.3172 8.69309 14.2881 8.69309 14.2687Z" fill="white"/>
<path d="M8.19854 14.8409C8.18884 14.9476 8.07246 15.2192 7.8882 15.481C7.73302 15.6944 7.63604 15.7526 7.61664 15.7526C7.53906 15.7429 7.47117 15.5586 7.41298 15.3743C7.39358 15.2967 7.36449 15.2289 7.35479 15.161C7.316 15.0252 7.3063 14.8312 7.316 14.7148C7.47117 14.8021 7.74272 14.8215 8.13065 14.8215C8.15005 14.8312 8.17914 14.8312 8.19854 14.8409Z" fill="white"/>
<path d="M7.92701 13.9673C7.85912 14.074 7.79123 14.171 7.72335 14.268C7.68455 14.3165 7.65546 14.365 7.61667 14.4135C7.59727 14.4426 7.56817 14.4716 7.54878 14.5007C7.49059 14.491 7.4421 14.4716 7.38391 14.4619C7.33542 14.4522 7.29662 14.4329 7.24813 14.4135C7.23843 14.4135 7.22873 14.4038 7.21904 14.4038C7.20934 14.3941 7.19964 14.3747 7.18994 14.365C7.20934 14.3359 7.21904 14.2971 7.23843 14.268C7.26753 14.2098 7.29662 14.1516 7.33542 14.0934C7.39361 13.9964 7.46149 13.8897 7.56817 13.8219C7.57787 13.8219 7.57787 13.8122 7.58757 13.8122C7.62636 13.7928 7.66516 13.7734 7.71365 13.7637C7.72335 13.7637 7.75244 13.7637 7.77184 13.7637H7.78154C7.78154 13.7637 7.78154 13.7637 7.79123 13.7637C7.80093 13.7637 7.81063 13.7734 7.83003 13.7734C7.83003 13.7734 7.83973 13.7734 7.83973 13.7831C7.84942 13.7928 7.85912 13.7928 7.86882 13.8025C7.84942 13.7928 7.88822 13.8316 7.88822 13.8219C7.90761 13.8801 7.91731 13.9091 7.92701 13.9673Z" fill="white"/>
<path d="M7.403 13.6859C7.27692 13.7828 7.18964 13.9186 7.12175 14.0641C7.08296 14.1417 7.04416 14.2193 7.00537 14.2968C7.00537 14.3065 6.99567 14.3162 6.99567 14.3162C6.95688 14.3065 6.91809 14.2968 6.88899 14.2871C6.8502 14.2775 6.81141 14.2581 6.77261 14.2484C6.75322 14.2387 6.74352 14.229 6.72412 14.2193C6.76291 14.1514 6.80171 14.0835 6.8502 14.0156C6.90839 13.9283 6.97628 13.8313 7.04416 13.7537C7.07326 13.7246 7.10235 13.6859 7.13145 13.6665C7.17024 13.6471 7.20903 13.6471 7.25753 13.6568C7.30602 13.6568 7.35451 13.6568 7.3933 13.6762C7.3836 13.6762 7.3933 13.6859 7.403 13.6859Z" fill="white"/>
<path d="M7.209 15.3365C7.1993 15.3462 7.1993 15.3462 7.1896 15.3559H7.1799C7.15081 15.3559 7.12171 15.3656 7.09262 15.3656C7.03443 15.3656 6.97624 15.3753 6.91805 15.3656C6.88895 15.3656 6.85986 15.3559 6.84046 15.3365C6.82106 15.3074 6.81137 15.2492 6.80167 15.2104C6.76288 14.997 6.76288 14.7837 6.78227 14.5703C6.88895 14.6091 7.00533 14.6382 7.12171 14.6576C7.09262 14.8516 7.14111 15.1328 7.1605 15.2104C7.1896 15.2492 7.1993 15.2977 7.209 15.3365Z" fill="white"/>
<path d="M6.86015 13.6189C6.76317 13.7353 6.67588 13.8613 6.5983 13.9971C6.5692 14.0456 6.53041 14.1038 6.50131 14.162C6.46252 14.1523 6.42373 14.1329 6.39463 14.1135C6.36554 14.0941 6.33644 14.0747 6.31705 14.0553C6.30735 14.0456 6.28795 14.0359 6.27825 14.0262C6.27825 14.0262 6.26855 14.0262 6.26855 14.0165C6.27825 13.9874 6.29765 13.968 6.29765 13.9486C6.31705 13.9001 6.33644 13.8613 6.36554 13.8225C6.41403 13.7449 6.46252 13.6674 6.52071 13.5898C6.54011 13.5607 6.5595 13.5316 6.5983 13.5219C6.62739 13.5122 6.66618 13.5219 6.69528 13.5219C6.75347 13.5316 6.81166 13.5704 6.86015 13.6189Z" fill="white"/>
<path d="M6.11327 14.1323C6.12297 14.1226 6.11327 14.1226 6.11327 14.1323C6.15206 14.1711 6.18116 14.2002 6.21995 14.2293C6.23935 14.239 6.24904 14.2584 6.26844 14.268C6.26844 14.268 6.26844 14.268 6.26844 14.2777C6.22965 14.4426 6.20055 14.6172 6.20055 14.7918C6.20055 14.8015 6.19086 14.8015 6.19086 14.7918C6.14236 14.5881 6.08417 14.2584 6.11327 14.1323Z" fill="white"/>
<path d="M6.58838 14.4916C6.56898 14.6371 6.55928 14.7826 6.56898 14.9281C6.56898 15.0057 6.57868 15.0832 6.58838 15.1705C6.56898 15.1705 6.54958 15.1705 6.53019 15.1705H6.52049H6.51079C6.49139 15.1608 6.49139 15.1608 6.472 15.1511C6.4526 15.1414 6.4332 15.1123 6.41381 15.0832C6.37501 15.0154 6.36532 14.9378 6.36532 14.8602C6.35562 14.7147 6.37501 14.5595 6.40411 14.4141C6.42351 14.4238 6.4526 14.4335 6.4817 14.4432C6.52049 14.4626 6.54958 14.482 6.58838 14.4916Z" fill="white"/>
<mask id="mask0_6186_147088" style="mask-type:luminance" maskUnits="userSpaceOnUse" x="3" y="3" width="18" height="18">
<path d="M21 12C21 7.02478 16.9655 3 12 3C7.02478 3 3 7.02478 3 12C3 16.9655 7.02478 21 12 21C16.9655 21 21 16.9655 21 12Z" fill="white"/>
</mask>
<g mask="url(#mask0_6186_147088)">
<g opacity="0.8">
<path opacity="0.8" d="M10.4063 22.0577C9.7468 22.0577 9.12611 22.0189 8.60241 21.9801L8.45693 21.9704L8.31146 21.951C8.24357 21.9413 8.16598 21.9316 8.0787 21.9219C7.57439 21.8638 6.63366 21.7668 5.59594 21.2819L5.43107 21.2043L5.2856 21.117C3.28775 19.992 2.55068 18.3142 2.14336 17.4122C2.11426 17.3541 2.08517 17.2862 2.05607 17.2183C1.85241 16.8013 1.72633 16.4327 1.61965 16.0836L1.60025 16.006L1.58086 15.9284C1.28991 14.9004 1.22202 14.0178 1.3481 13.1353C1.48387 12.2528 1.80392 11.4575 2.37611 10.6138L2.66706 10.1385C2.72525 10.0416 2.76404 9.93487 2.79314 9.82819C3.0162 8.72259 3.52051 7.93703 3.77267 7.5588C3.84055 7.10298 3.95693 6.65686 4.11211 6.22043L4.1315 6.15255L4.1606 6.08466C4.1606 6.07496 4.17029 6.05556 4.17999 6.02647C4.29637 5.68703 4.55823 4.90147 5.22741 4.06742L5.47956 3.77647L5.74142 3.54371C6.4009 2.94242 7.19616 2.4963 8.04961 2.24414C8.52482 2.09867 9.01943 2.01138 9.52374 1.98229H9.57223H9.64012C9.72741 1.98229 9.81469 1.97259 9.89228 1.97259C10.2026 1.97259 10.513 2.00168 10.8233 2.05018C11.0173 2.07927 11.2112 2.05987 11.3955 1.98229C11.9289 1.75923 12.4817 1.61375 13.0539 1.53617C13.1024 1.52647 13.1412 1.52647 13.18 1.51677C13.2673 1.50707 13.4128 1.48768 13.5873 1.46828C13.888 1.43918 14.3535 1.40039 14.8481 1.40039C15.8276 1.40039 16.6714 1.52647 17.4278 1.78832L17.4957 1.80772L17.5539 1.82711C19.222 2.4575 20.0658 3.34005 20.6768 4.10621L20.7059 4.145L20.7931 4.22259C21.3459 4.64931 21.8115 5.18272 22.18 5.77431L22.2964 5.95858L22.3934 6.15255C23.208 7.81095 22.9462 9.35298 22.8492 9.92517L22.8395 9.95427C22.7716 10.381 22.6552 10.798 22.5097 11.2053C22.4515 11.5933 22.3643 11.9812 22.2382 12.3497C22.0248 13.0092 21.7048 13.6396 21.2975 14.2021C21.0647 14.5319 20.7931 14.8519 20.5022 15.1331C20.3955 15.2301 20.3276 15.3659 20.3082 15.5114C20.2985 15.5987 20.2791 15.6859 20.2694 15.7732C20.027 17.0534 19.4742 17.9456 19.2414 18.3045L18.5528 19.2937C17.7188 20.3314 16.7296 21.0103 15.5367 21.3788L15.2457 21.4661L14.9354 21.5243C14.5765 21.5922 14.2177 21.6213 13.8492 21.6213C13.8007 21.6213 13.7522 21.6213 13.694 21.6213H13.6746H13.6164H13.5485C13.4128 21.6213 13.277 21.6504 13.1412 21.6892C12.3459 21.9413 11.4731 22.0577 10.4063 22.0577Z" stroke="url(#paint1_linear_6186_147088)" stroke-width="0.102356" stroke-miterlimit="10"/>
<path opacity="0.8" d="M10.4059 21.3678C9.77556 21.3678 9.16457 21.329 8.66026 21.2902L8.54388 21.2805L8.4275 21.2611C8.34991 21.2514 8.26263 21.2417 8.17534 21.232C7.68073 21.1835 6.86608 21.0865 5.95444 20.6598L5.81866 20.5919L5.69259 20.524C3.9178 19.5445 3.26802 18.0801 2.88009 17.2072C2.85099 17.149 2.8219 17.0715 2.7831 17.0036C2.59884 16.635 2.48246 16.2859 2.38547 15.9756L2.36608 15.9077L2.34668 15.8495C2.09453 14.9281 2.02664 14.1523 2.14302 13.3861C2.2594 12.6296 2.55035 11.9217 3.05466 11.1846L3.43289 10.5736C3.50078 10.4669 3.54927 10.3409 3.56866 10.2148C3.75293 9.16736 4.24754 8.43029 4.4706 8.09085L4.4997 8.05206L4.5094 8.03266C4.5094 8.02297 4.51909 8.01327 4.51909 8.00357C4.52879 7.95508 4.54819 7.91628 4.55789 7.87749C4.61608 7.45077 4.72276 7.02404 4.86823 6.61672L4.88763 6.55853L4.90703 6.50034C4.91672 6.48094 4.91672 6.46154 4.93612 6.40335C5.0428 6.08331 5.26586 5.41413 5.84776 4.69646L6.06112 4.4443L6.27448 4.25034C6.84668 3.72663 7.53526 3.3387 8.27233 3.12534C8.69905 2.99926 9.12578 2.92167 9.5719 2.90228H9.61069H9.66888C9.74647 2.90228 9.81435 2.89258 9.88224 2.89258C10.2023 2.89258 10.5126 2.80529 10.823 2.86348C11.0654 2.91197 11.3079 2.88288 11.5309 2.7859C11.948 2.60163 12.5105 2.53374 13.1506 2.44646C13.1991 2.43676 13.2378 2.43676 13.2669 2.42706C13.3542 2.41736 13.49 2.39797 13.6452 2.38827C13.9264 2.35917 14.3628 2.33008 14.8381 2.33008C15.7303 2.33008 16.4868 2.44646 17.1559 2.66952L17.2141 2.68891L17.2626 2.70831C18.7368 3.27081 19.4641 4.00788 20.0363 4.73525C20.0654 4.77404 20.1042 4.81284 20.1139 4.83223L20.1236 4.84193L20.2303 4.93891L20.24 4.95831C20.7346 5.33654 21.1516 5.80206 21.4717 6.32577L21.5687 6.48094L21.6462 6.64581C22.3445 8.07146 22.1312 9.38072 22.0342 9.93353L22.0245 9.96262C21.9566 10.3699 21.8499 10.7579 21.7044 11.1458C21.6559 11.5143 21.5687 11.8829 21.4523 12.232C21.2583 12.8139 20.9771 13.3667 20.6182 13.871C20.3758 14.2202 20.0848 14.5402 19.7745 14.8215C19.629 14.9572 19.532 15.1318 19.5126 15.3355C19.4932 15.4809 19.4738 15.6167 19.4544 15.7622C19.2411 16.8969 18.7562 17.6727 18.5234 18.0219L17.9609 18.8365C17.2141 19.7967 16.3316 20.4174 15.2648 20.7471L15.0223 20.8247L14.7605 20.8732C14.4501 20.9314 14.1301 20.9605 13.8197 20.9508C13.7712 20.9508 13.7228 20.9508 13.6743 20.9508H13.6646H13.6355C13.6355 20.9508 13.6258 20.9508 13.6064 20.9508H13.5482H13.49H13.3833C13.2378 20.9605 13.0924 20.9799 12.9469 21.0284C12.2389 21.2611 11.4146 21.3678 10.4059 21.3678Z" stroke="url(#paint2_linear_6186_147088)" stroke-width="0.102356" stroke-miterlimit="10"/>
<path opacity="0.8" d="M10.406 20.5645C9.80468 20.5645 9.21309 20.5257 8.71847 20.4869L8.62149 20.4772L8.52451 20.4675C8.43722 20.4578 8.34024 20.4481 8.24326 20.4384C7.77774 20.39 7.06977 20.3124 6.27451 19.9341L6.16783 19.8856L6.07085 19.8275C4.54822 18.974 3.98572 17.7132 3.61718 16.8792C3.58809 16.8113 3.54929 16.724 3.5202 16.6561C3.35533 16.3264 3.24865 16.016 3.16136 15.7251L3.14197 15.6766L3.13227 15.6281C2.90921 14.8328 2.85102 14.154 2.948 13.5139C3.04498 12.8641 3.30684 12.2531 3.75296 11.6033L3.81115 11.5257L3.86934 11.4481C3.90813 11.3996 3.93723 11.3512 3.97602 11.3124L4.19908 10.8953C4.27666 10.7596 4.32516 10.6141 4.34455 10.4589C4.49003 9.52788 4.93615 8.8587 5.13981 8.54836C5.14951 8.52896 5.16891 8.50956 5.1786 8.49987L5.2271 8.43198C5.24649 8.39318 5.26589 8.34469 5.28529 8.2865C5.30468 8.22831 5.33378 8.14103 5.35317 8.06344C5.40166 7.66581 5.49865 7.27788 5.63442 6.89965L5.65382 6.85116L5.67322 6.80267C5.68291 6.76387 5.70231 6.73478 5.72171 6.66689C5.81869 6.36624 6.00296 5.81344 6.49757 5.21215L6.66244 5.00849L6.83701 4.85331C7.32192 4.40719 7.90382 4.08715 8.53421 3.89318C8.90274 3.7865 9.27128 3.71862 9.65921 3.69922H9.6883H9.73679C9.79498 3.69922 9.85317 3.69922 9.92106 3.69922C10.2508 3.69922 10.5708 3.73801 10.8909 3.8253C11.1624 3.89318 11.4534 3.86409 11.7055 3.73801C12.1129 3.54405 12.656 3.33068 13.2864 3.2531C13.3252 3.2434 13.3639 3.2434 13.393 3.2337C13.4706 3.224 13.5967 3.20461 13.7519 3.19491C14.0137 3.16581 14.4308 3.13672 14.8672 3.13672C15.6624 3.13672 16.3316 3.2337 16.9232 3.43737L16.962 3.45676L17.0008 3.47616C18.3586 3.99017 18.9599 4.65935 19.4254 5.25094C19.5321 5.37702 19.5418 5.39642 19.6096 5.46431L19.6969 5.54189L19.726 5.58068C19.9491 5.75525 20.4049 6.11409 20.8025 6.76387L20.8801 6.88995L20.948 7.01603C21.5396 8.20892 21.3553 9.29512 21.268 9.81883L21.2583 9.84793C21.2002 10.2262 21.0935 10.6044 20.9383 10.9632V10.9923C20.8995 11.3318 20.8219 11.6712 20.7152 11.9912C20.5504 12.5053 20.3079 12.9805 19.9879 13.4169C19.726 13.7951 19.406 14.1346 19.0471 14.4255C18.9599 14.4934 18.892 14.5807 18.8435 14.6777C18.795 14.7747 18.7659 14.8813 18.7562 14.988C18.7465 15.2014 18.7174 15.4147 18.6786 15.6281C18.4943 16.6076 18.0676 17.2865 17.8543 17.6259L17.4178 18.266C16.768 19.1389 15.9922 19.7014 15.0514 19.9923L14.8575 20.0505L14.6441 20.0893C14.3823 20.1378 14.1107 20.1572 13.8392 20.1572C13.8004 20.1572 13.7519 20.1572 13.7034 20.1572H13.6937H13.6452C13.6355 20.1572 13.6161 20.1572 13.5676 20.1572H13.5191H13.4803L13.2573 20.1669C13.1021 20.1766 12.9469 20.196 12.8014 20.2542C12.1323 20.4675 11.3661 20.5645 10.406 20.5645Z" stroke="url(#paint3_linear_6186_147088)" stroke-width="0.0959547" stroke-miterlimit="10"/>
<path opacity="0.8" d="M10.4061 19.7575C9.83391 19.7575 9.26171 19.7187 8.7865 19.68L8.71861 19.6703L8.65072 19.6606C8.55374 19.6509 8.44706 19.6315 8.35007 19.6218C7.91365 19.5733 7.31236 19.5054 6.63348 19.195L6.55589 19.1562L6.47831 19.1175C5.18843 18.3901 4.71322 17.3233 4.36408 16.5474C4.32529 16.4698 4.28649 16.3825 4.2574 16.305C4.11193 16.0043 4.01494 15.7231 3.93736 15.4806L3.92766 15.4418L3.89856 15.4127C3.52033 14.0744 3.66581 13.1336 4.40287 12.0571L4.44167 11.9989L4.48046 11.9407C4.52895 11.8825 4.57744 11.8147 4.62593 11.7565C4.69382 11.6692 4.76171 11.5722 4.8393 11.4849C4.88779 11.4267 4.92658 11.3588 4.95568 11.2909L5.04296 11.0776C5.08175 10.9806 5.10115 10.8836 5.11085 10.7866C5.18843 9.92349 5.60546 9.3028 5.80912 8.99246C5.82852 8.97306 5.84792 8.93427 5.85762 8.92457L5.90611 8.84698L5.9255 8.82759C5.9546 8.77909 6.00309 8.66272 6.04188 8.54634C6.06128 8.46875 6.10007 8.34267 6.13887 8.23599V8.22629C6.17766 7.86746 6.26494 7.50862 6.39102 7.16918L6.40072 7.14009L6.41042 7.11099C6.42981 7.0528 6.44921 7.00431 6.46861 6.93642C6.55589 6.67457 6.70137 6.22845 7.09899 5.73384L7.22507 5.57866L7.35115 5.46228C8.29188 4.60884 9.3393 4.54095 9.68843 4.51185H9.70783H9.74662C9.79512 4.51185 9.84361 4.51185 9.8921 4.51185C10.3091 4.51185 10.7165 4.59914 11.1044 4.76401C11.1723 4.7931 11.2499 4.8028 11.3177 4.8028C11.3953 4.8028 11.4632 4.78341 11.5311 4.74461C11.8899 4.54095 12.5397 4.16272 13.3738 4.06573C13.4126 4.05603 13.4514 4.05603 13.4805 4.05603C13.558 4.04634 13.6744 4.03664 13.8102 4.01724C14.0624 3.99784 14.4406 3.96875 14.8479 3.96875C15.5559 3.96875 16.1378 4.05603 16.6324 4.22091L16.6615 4.2306L16.6906 4.2403C17.8544 4.67672 18.349 5.22953 18.766 5.75323C18.8727 5.89871 18.9309 5.9569 19.0473 6.07328L19.1152 6.13147L19.1637 6.18966L19.2024 6.21875C19.3964 6.37392 19.7649 6.65517 20.0947 7.18858L20.1529 7.28556L20.2014 7.38254C20.6766 8.35237 20.5214 9.22522 20.4438 9.69073V9.71983C20.3856 10.0593 20.2886 10.3987 20.1529 10.7187L20.1432 10.7478C20.1432 10.7575 20.1432 10.7575 20.1335 10.7769C20.1238 10.806 20.1238 10.8351 20.1238 10.8642L20.1141 10.903C20.085 11.194 20.0171 11.4752 19.9201 11.7468C19.7746 12.1832 19.571 12.5905 19.2994 12.9591C19.0376 13.3373 18.7369 13.6476 18.4072 13.8901C18.2617 13.9968 18.1453 14.1325 18.058 14.2974C17.9708 14.4623 17.932 14.6369 17.932 14.8211C17.932 15.0442 17.9029 15.2769 17.8641 15.5C17.7089 16.3341 17.3598 16.8966 17.1367 17.236L16.8167 17.7112C16.2542 18.4968 15.585 19.0011 14.78 19.2532L14.7412 19.2629C14.6733 19.2823 14.6055 19.3017 14.5376 19.3114L14.4891 19.3211C14.266 19.3599 14.043 19.3793 13.8199 19.3793C13.7811 19.3793 13.7423 19.3793 13.7035 19.3793H13.6938C13.6744 19.3793 13.655 19.3793 13.6356 19.3793C13.6162 19.3793 13.5774 19.3793 13.4999 19.3793H13.4708H13.4417C13.335 19.3793 13.1992 19.389 13.0828 19.389C12.918 19.3987 12.7628 19.4278 12.6076 19.486C12.0257 19.6606 11.3177 19.7575 10.4061 19.7575Z" stroke="url(#paint4_linear_6186_147088)" stroke-width="0.0895636" stroke-miterlimit="10"/>
<path opacity="0.8" d="M10.406 18.9542C9.85317 18.9542 9.31007 18.9154 8.84455 18.8766H8.79606L8.74757 18.8669C8.64089 18.8475 8.52451 18.8378 8.41783 18.8281C8.0105 18.7796 7.50619 18.7311 6.96309 18.4693L6.9049 18.4402L6.85641 18.4111C5.7993 17.8195 5.40167 16.9273 5.09132 16.2096C5.05253 16.1223 5.01374 16.035 4.97494 15.938C4.84886 15.6859 4.76158 15.4337 4.69369 15.2204L4.68399 15.1913L4.6743 15.1622C4.36395 14.0566 4.47063 13.3583 5.07193 12.4855L5.10102 12.4467L5.13011 12.4079C5.17861 12.34 5.2271 12.2818 5.27559 12.2139C5.43076 12.0102 5.58593 11.8066 5.80899 11.5641C5.85749 11.5156 5.88658 11.438 5.89628 11.3702L5.90598 11.1471L5.89628 11.0598V10.9725C5.91567 10.2548 6.27451 9.72144 6.46848 9.4305C6.48787 9.4014 6.51697 9.36261 6.52667 9.34321L6.55576 9.29472L6.58486 9.25593C6.62365 9.19774 6.71093 8.99407 6.78852 8.80981C6.81761 8.73222 6.85641 8.57705 6.9049 8.45097C6.9146 8.41218 6.9146 8.40248 6.9243 8.31519C6.95339 8.01455 7.03098 7.7139 7.12796 7.43265L7.13766 7.41325L7.14736 7.39386C7.17645 7.31627 7.19585 7.25808 7.22494 7.1805C7.30253 6.94774 7.41891 6.6083 7.71955 6.23006L7.80684 6.12338L7.89412 6.0458C8.55361 5.4542 9.26158 5.33782 9.74649 5.30873H9.76589H9.78529C9.82408 5.30873 9.85317 5.30873 9.89197 5.30873C10.2993 5.30873 10.7939 5.50269 11.0558 5.62877C11.114 5.65787 11.1818 5.67726 11.2497 5.67726C11.3176 5.67726 11.3855 5.66756 11.4534 5.64817C11.6183 5.58998 11.7734 5.52209 11.9189 5.4445C12.2486 5.25054 12.7918 4.94019 13.4706 4.86261C13.5094 4.85291 13.5385 4.85291 13.5676 4.85291C13.6355 4.84321 13.7422 4.83351 13.878 4.81412C14.1107 4.79472 14.4599 4.76562 14.8381 4.76562C15.4491 4.76562 15.9534 4.83351 16.3607 4.97899L16.3801 4.98869L16.3995 4.99838C17.3693 5.36692 17.7573 5.78394 18.1258 6.25916C18.2422 6.41433 18.3295 6.52101 18.504 6.67619L18.5428 6.71498L18.5816 6.75377C18.6204 6.79256 18.6592 6.82166 18.698 6.85075C18.8629 6.97683 19.1441 7.19989 19.3866 7.60722L19.4254 7.66541L19.4545 7.7333C19.8133 8.46067 19.6969 9.14925 19.629 9.55657V9.58567C19.5805 9.86692 19.503 10.1385 19.3866 10.4003C19.3575 10.4682 19.3381 10.5361 19.3187 10.6137C19.309 10.6622 19.2993 10.7107 19.2993 10.7495L19.2896 10.7883C19.2605 11.021 19.212 11.2538 19.1344 11.4768C19.018 11.8357 18.8435 12.1751 18.6301 12.4758C18.3004 12.9413 17.9221 13.271 17.4663 13.4844C17.3596 13.5329 17.2627 13.6105 17.1948 13.7171C17.1269 13.8141 17.0881 13.9402 17.0784 14.0566C17.0784 14.1051 17.0784 14.1439 17.0784 14.173C17.0978 14.5221 17.1269 14.9197 17.0493 15.3367C16.9232 16.0156 16.6323 16.4714 16.4189 16.8109C16.4189 16.8109 15.4297 18.188 14.5277 18.4693L14.4308 18.4984L14.3241 18.5178C14.1495 18.5469 13.9749 18.5663 13.7907 18.5663C13.7616 18.5663 13.7228 18.5663 13.684 18.5663C13.6646 18.5663 13.6355 18.5663 13.6064 18.5663C13.5676 18.5663 13.5094 18.5663 13.4221 18.576H13.4027H13.3833C13.0342 18.5857 12.7142 18.5954 12.6172 18.6148C12.5687 18.6245 12.5202 18.6342 12.4717 18.6536C11.9965 18.8572 11.3273 18.9542 10.406 18.9542Z" stroke="url(#paint5_linear_6186_147088)" stroke-width="0.0831627" stroke-miterlimit="10"/>
<path opacity="0.8" d="M10.4062 18.1587C9.88248 18.1587 9.35877 18.1199 8.91265 18.0909H8.89325H8.87386C8.74778 18.0715 8.6314 18.0618 8.52472 18.0521C8.14649 18.0133 7.74886 17.9648 7.32213 17.7708L7.29304 17.7611L7.26394 17.7514C6.43959 17.2859 6.12925 16.5973 5.8383 15.9281C5.7995 15.8312 5.75101 15.7342 5.70252 15.6372C5.60554 15.4432 5.52795 15.2299 5.46976 15.0262V15.0165V15.0068C5.21761 14.1243 5.2855 13.6781 5.75101 12.9993L5.76071 12.9799L5.77041 12.9605C5.8286 12.8926 5.87709 12.8247 5.92558 12.7665C6.14864 12.4756 6.34261 12.2234 6.77903 11.8161C6.80813 11.787 6.83722 11.7482 6.84692 11.6997C6.85662 11.6609 6.85662 11.6124 6.83722 11.5736L6.75963 11.3506C6.74024 11.2827 6.73054 11.2051 6.73054 11.1372V11.079V11.0305C6.74994 10.5456 7.00209 10.1674 7.16696 9.91521C7.19606 9.87641 7.21545 9.83762 7.23485 9.80853L7.25425 9.77943L7.27364 9.75034C7.36093 9.63396 7.5064 9.29452 7.58399 9.09085C7.60338 9.02297 7.65188 8.8581 7.70037 8.73202C7.72946 8.63503 7.74886 8.53805 7.75856 8.44107C7.78765 8.19861 7.83614 7.95616 7.92343 7.7331V7.7234V7.7137C7.96222 7.61672 7.99132 7.53913 8.01071 7.46154C8.0786 7.25788 8.15619 7.02512 8.36955 6.76327L8.40834 6.71478L8.44713 6.67598C8.91265 6.24926 9.42666 6.17167 9.81459 6.14258H9.82429H9.83399C9.85338 6.14258 9.88248 6.14258 9.90188 6.14258C10.2898 6.14258 10.5808 6.29775 10.7747 6.40443L10.8232 6.42383H10.8329C10.8911 6.45292 10.9299 6.48202 10.9784 6.50141C11.0948 6.5596 11.2402 6.579 11.3663 6.54021C11.6379 6.47232 12.0549 6.30745 12.3264 6.15228H12.3361C12.6271 5.97771 13.0732 5.72555 13.5969 5.66736C13.626 5.65766 13.6648 5.65766 13.6939 5.65766C13.7521 5.64797 13.8588 5.63827 13.9752 5.62857C14.1885 5.60917 14.5183 5.58008 14.8577 5.58008C15.3814 5.58008 15.7984 5.63827 16.1185 5.74495H16.1282H16.1379C16.9137 6.0359 17.2047 6.34624 17.515 6.75357C17.6411 6.91844 17.7672 7.07361 17.9999 7.27728L18.0193 7.29667L18.0387 7.31607C18.0969 7.37426 18.1648 7.43245 18.2424 7.49064C18.3782 7.59732 18.5721 7.74279 18.737 8.02404L18.7564 8.05314L18.7758 8.08223C19.0183 8.58654 18.9407 9.06176 18.8825 9.4206V9.44969C18.8437 9.67275 18.7855 9.88611 18.6885 10.0995C18.64 10.2159 18.6012 10.3419 18.5818 10.468C18.5721 10.5456 18.5624 10.6038 18.5527 10.6523L18.543 10.6911C18.5236 10.8753 18.4849 11.0499 18.4267 11.2245C18.3394 11.5057 18.2036 11.7676 18.029 12.01C17.7381 12.4368 17.4083 12.6986 16.9719 12.8344C16.7586 12.9023 16.584 13.0381 16.4676 13.2223L16.4288 13.2708L16.39 13.3193C16.2833 13.4454 16.3124 13.9303 16.3318 14.2212C16.3512 14.5413 16.3706 14.871 16.3124 15.1814C16.2155 15.7148 15.9827 16.0736 15.779 16.384C15.779 16.384 15.0226 17.4799 14.334 17.6835L14.2855 17.7029L14.237 17.7126C14.1109 17.732 13.9752 17.7514 13.8394 17.7514C13.8103 17.7514 13.7812 17.7514 13.7424 17.7514C13.7133 17.7514 13.6842 17.7514 13.6454 17.7514C13.5969 17.7514 13.529 17.7514 13.4127 17.7611H13.403H13.3933C12.9374 17.7805 12.6562 17.7902 12.501 17.8193C12.3943 17.8387 12.2973 17.8678 12.2004 17.9066C11.7833 18.0715 11.2208 18.1587 10.4062 18.1587Z" stroke="url(#paint6_linear_6186_147088)" stroke-width="0.0831627" stroke-miterlimit="10"/>
</g>
</g>
<defs>
<radialGradient id="paint0_radial_6186_147088" cx="0" cy="0" r="1" gradientUnits="userSpaceOnUse" gradientTransform="translate(12.0003 12.9403) rotate(90) scale(10.11)">
<stop offset="0.1667" stop-color="#030303"/>
<stop offset="1" stop-color="#878888"/>
</radialGradient>
<linearGradient id="paint1_linear_6186_147088" x1="1.98642" y1="0.662094" x2="22.6537" y2="22.3341" gradientUnits="userSpaceOnUse">
<stop offset="0.2057" stop-color="#C3C4C3"/>
<stop offset="0.3984" stop-color="#DDDDDD"/>
<stop offset="0.6015" stop-color="#878888"/>
<stop offset="0.8411" stop-color="#878888"/>
</linearGradient>
<linearGradient id="paint2_linear_6186_147088" x1="2.73432" y1="1.64967" x2="21.7777" y2="21.6933" gradientUnits="userSpaceOnUse">
<stop offset="0.2057" stop-color="#C3C4C3"/>
<stop offset="0.3984" stop-color="#DDDDDD"/>
<stop offset="0.6015" stop-color="#878888"/>
<stop offset="0.8411" stop-color="#878888"/>
</linearGradient>
<linearGradient id="paint3_linear_6186_147088" x1="3.49795" y1="2.51385" x2="20.9257" y2="20.9608" gradientUnits="userSpaceOnUse">
<stop offset="0.2057" stop-color="#C3C4C3"/>
<stop offset="0.3984" stop-color="#DDDDDD"/>
<stop offset="0.6015" stop-color="#878888"/>
<stop offset="0.8411" stop-color="#878888"/>
</linearGradient>
<linearGradient id="paint4_linear_6186_147088" x1="4.23942" y1="3.40446" x2="20.022" y2="20.2183" gradientUnits="userSpaceOnUse">
<stop offset="0.2057" stop-color="#C3C4C3"/>
<stop offset="0.3984" stop-color="#DDDDDD"/>
<stop offset="0.6015" stop-color="#878888"/>
<stop offset="0.8411" stop-color="#878888"/>
</linearGradient>
<linearGradient id="paint5_linear_6186_147088" x1="4.99477" y1="4.25852" x2="19.1735" y2="19.433" gradientUnits="userSpaceOnUse">
<stop offset="0.2057" stop-color="#C3C4C3"/>
<stop offset="0.3984" stop-color="#DDDDDD"/>
<stop offset="0.6015" stop-color="#878888"/>
<stop offset="0.8411" stop-color="#878888"/>
</linearGradient>
<linearGradient id="paint6_linear_6186_147088" x1="5.76413" y1="5.13051" x2="18.3243" y2="18.7162" gradientUnits="userSpaceOnUse">
<stop offset="0.2057" stop-color="#C3C4C3"/>
<stop offset="0.3984" stop-color="#DDDDDD"/>
<stop offset="0.6015" stop-color="#878888"/>
<stop offset="0.8411" stop-color="#878888"/>
</linearGradient>
</defs>
</svg>
