<svg version="1.1" id="Layer_1" xmlns="http://www.w3.org/2000/svg" xmlns:xlink="http://www.w3.org/1999/xlink" x="0px" y="0px"
	 width="100%" viewBox="0 0 400 400" enable-background="new 0 0 400 400" xml:space="preserve">
<path fill="#FEFEFE" opacity="1.000000" stroke="none" 
	d="
M221.000000,401.000000 
	C147.333328,401.000000 74.166664,401.000000 1.000000,401.000000 
	C1.000000,267.666656 1.000000,134.333328 1.000000,1.000000 
	C134.333328,1.000000 267.666656,1.000000 401.000000,1.000000 
	C401.000000,134.333328 401.000000,267.666656 401.000000,401.000000 
	C341.166656,401.000000 281.333344,401.000000 221.000000,401.000000 
M208.499985,325.059570 
	C226.157990,325.219604 243.679901,325.143219 260.859863,319.578766 
	C306.562347,304.776001 338.801422,261.573975 339.215668,213.475540 
	C339.416595,190.146240 339.284454,166.814026 339.276337,143.483124 
	C339.275879,142.222427 339.027679,140.961823 338.862213,139.391617 
	C336.909271,139.391617 335.263580,139.391632 333.617859,139.391617 
	C281.789612,139.391129 229.961365,139.375336 178.133118,139.395920 
	C147.592743,139.408051 125.141243,161.885269 125.118477,192.424301 
	C125.102325,214.088806 125.109650,235.753357 125.106552,257.417877 
	C125.106323,259.034821 125.106514,260.651764 125.106514,262.781494 
	C127.239029,262.781494 128.860962,262.781525 130.482910,262.781494 
	C161.313217,262.781219 192.143524,262.781128 222.973831,262.780090 
	C223.973648,262.780060 225.059387,263.017822 225.953049,262.707245 
	C227.279236,262.246338 229.069565,261.666168 229.540573,260.627869 
	C229.970490,259.680115 229.098770,257.950958 228.444794,256.761902 
	C227.905960,255.782227 226.840790,255.094360 226.017807,254.268265 
	C208.039032,236.221512 190.065781,218.169220 172.080185,200.129272 
	C168.411057,196.449066 165.188858,192.577087 167.737625,186.947021 
	C170.111984,181.702255 174.794739,181.042068 179.887054,181.048233 
	C218.549866,181.095047 257.212769,181.071609 295.875641,181.082214 
	C297.301727,181.082611 298.727722,181.208435 300.034668,181.270187 
	C300.034668,193.565842 300.890045,205.475143 299.753754,217.191299 
	C298.903015,225.963577 296.818420,235.138123 292.973083,243.004288 
	C279.127411,271.327698 255.750229,285.805664 224.237778,285.992615 
	C172.244690,286.301056 120.248466,286.078064 68.253571,286.079071 
	C66.494530,286.079102 64.735481,286.079041 62.928925,286.079041 
	C62.928925,299.392731 62.928925,311.997406 62.928925,325.059570 
	C111.257347,325.059570 159.378662,325.059570 208.499985,325.059570 
M159.669174,118.020340 
	C166.268997,117.326378 172.866913,116.052193 179.468948,116.030571 
	C230.616043,115.863007 281.763947,115.937363 332.911591,115.936829 
	C334.849426,115.936806 336.787262,115.936813 338.912659,115.936813 
	C338.912659,102.679176 338.912659,90.116837 338.912659,77.234505 
	C336.974457,77.136559 335.347473,76.982758 333.720459,76.982483 
	C281.239990,76.973694 228.759460,76.942429 176.279037,76.998123 
	C146.835114,77.029366 121.174484,87.143005 99.538918,106.977219 
	C78.173897,126.563431 65.108246,150.967239 63.376850,179.888123 
	C61.816250,205.956055 62.919437,232.180740 62.704716,258.335144 
	C62.675293,261.919403 64.010719,262.876678 67.390121,262.816528 
	C77.050110,262.644592 86.723053,262.528900 96.374832,262.859680 
	C100.983070,263.017609 101.893547,261.276276 101.856407,257.057343 
	C101.667221,235.567001 101.649864,214.072937 101.852104,192.582825 
	C101.909760,186.456253 102.075005,180.121674 103.609261,174.253311 
	C111.234428,145.087845 129.608734,126.196831 159.669174,118.020340 
z"/>
<path fill="#030303" opacity="1.000000" stroke="none" 
	d="
M207.999969,325.059570 
	C159.378662,325.059570 111.257347,325.059570 62.928925,325.059570 
	C62.928925,311.997406 62.928925,299.392731 62.928925,286.079041 
	C64.735481,286.079041 66.494530,286.079102 68.253571,286.079071 
	C120.248466,286.078064 172.244690,286.301056 224.237778,285.992615 
	C255.750229,285.805664 279.127411,271.327698 292.973083,243.004288 
	C296.818420,235.138123 298.903015,225.963577 299.753754,217.191299 
	C300.890045,205.475143 300.034668,193.565842 300.034668,181.270187 
	C298.727722,181.208435 297.301727,181.082611 295.875641,181.082214 
	C257.212769,181.071609 218.549866,181.095047 179.887054,181.048233 
	C174.794739,181.042068 170.111984,181.702255 167.737625,186.947021 
	C165.188858,192.577087 168.411057,196.449066 172.080185,200.129272 
	C190.065781,218.169220 208.039032,236.221512 226.017807,254.268265 
	C226.840790,255.094360 227.905960,255.782227 228.444794,256.761902 
	C229.098770,257.950958 229.970490,259.680115 229.540573,260.627869 
	C229.069565,261.666168 227.279236,262.246338 225.953049,262.707245 
	C225.059387,263.017822 223.973648,262.780060 222.973831,262.780090 
	C192.143524,262.781128 161.313217,262.781219 130.482910,262.781494 
	C128.860962,262.781525 127.239029,262.781494 125.106514,262.781494 
	C125.106514,260.651764 125.106323,259.034821 125.106552,257.417877 
	C125.109650,235.753357 125.102325,214.088806 125.118477,192.424301 
	C125.141243,161.885269 147.592743,139.408051 178.133118,139.395920 
	C229.961365,139.375336 281.789612,139.391129 333.617859,139.391617 
	C335.263580,139.391632 336.909271,139.391617 338.862213,139.391617 
	C339.027679,140.961823 339.275879,142.222427 339.276337,143.483124 
	C339.284454,166.814026 339.416595,190.146240 339.215668,213.475540 
	C338.801422,261.573975 306.562347,304.776001 260.859863,319.578766 
	C243.679901,325.143219 226.157990,325.219604 207.999969,325.059570 
z"/>
<path fill="#06CB9B" opacity="1.000000" stroke="none" 
	d="
M159.257874,118.089508 
	C129.608734,126.196831 111.234428,145.087845 103.609261,174.253311 
	C102.075005,180.121674 101.909760,186.456253 101.852104,192.582825 
	C101.649864,214.072937 101.667221,235.567001 101.856407,257.057343 
	C101.893547,261.276276 100.983070,263.017609 96.374832,262.859680 
	C86.723053,262.528900 77.050110,262.644592 67.390121,262.816528 
	C64.010719,262.876678 62.675293,261.919403 62.704716,258.335144 
	C62.919437,232.180740 61.816250,205.956055 63.376850,179.888123 
	C65.108246,150.967239 78.173897,126.563431 99.538918,106.977219 
	C121.174484,87.143005 146.835114,77.029366 176.279037,76.998123 
	C228.759460,76.942429 281.239990,76.973694 333.720459,76.982483 
	C335.347473,76.982758 336.974457,77.136559 338.912659,77.234505 
	C338.912659,90.116837 338.912659,102.679176 338.912659,115.936813 
	C336.787262,115.936813 334.849426,115.936806 332.911591,115.936829 
	C281.763947,115.937363 230.616043,115.863007 179.468948,116.030571 
	C172.866913,116.052193 166.268997,117.326378 159.257874,118.089508 
z"/>
</svg>