<svg width="24" height="24" viewBox="0 0 24 24" fill="none" xmlns="http://www.w3.org/2000/svg">
<path d="M11.3464 3H6.42282C6.25308 3 6.11548 3.1376 6.11548 3.30733V8.23097C6.11548 8.4007 6.25308 8.5383 6.42282 8.5383H11.3464C11.5162 8.5383 11.6538 8.4007 11.6538 8.23097V3.30733C11.6538 3.1376 11.5162 3 11.3464 3Z" fill="#8E9BB2"/>
<path d="M6.11548 15.7691V20.6927C6.11548 20.8624 6.25308 21 6.42281 21H11.3464C11.5162 21 11.6538 20.8624 11.6538 20.6927V15.7691C11.6538 15.5993 11.5162 15.4617 11.3464 15.4617H6.42281C6.25308 15.4617 6.11548 15.5993 6.11548 15.7691Z" fill="#8E9BB2"/>
<path d="M6.11548 9.53698V14.4606C6.11548 14.6303 6.25308 14.768 6.42282 14.768H11.3464C11.5162 14.768 11.6538 14.6303 11.6538 14.4606V9.53698C11.6538 9.36725 11.5162 9.22966 11.3464 9.22966H6.42282C6.25308 9.22966 6.11548 9.36725 6.11548 9.53698Z" fill="#8E9BB2"/>
<path d="M12.3463 15.7691V20.6927C12.3463 20.8624 12.4839 21 12.6536 21H17.5773C17.747 21 17.8846 20.8624 17.8846 20.6927V15.7691C17.8846 15.5993 17.747 15.4617 17.5773 15.4617H12.6536C12.4839 15.4617 12.3463 15.5993 12.3463 15.7691Z" fill="#8E9BB2"/>
<path d="M12.3463 9.53698V14.4606C12.3463 14.6303 12.4839 14.768 12.6536 14.768H17.5773C17.747 14.768 17.8846 14.6303 17.8846 14.4606V9.53698C17.8846 9.36725 17.747 9.22966 17.5773 9.22966H12.6536C12.4839 9.22966 12.3463 9.36725 12.3463 9.53698Z" fill="#8E9BB2"/>
</svg>
