<svg width="24" height="24" viewBox="0 0 24 24" fill="none" xmlns="http://www.w3.org/2000/svg">
<path fill-rule="evenodd" clip-rule="evenodd" d="M11.9764 21C14.5967 21 16.954 19.8667 18.5901 18.0608L18.1548 17.5775C17.616 16.9793 16.6975 16.9282 16.0961 17.4629L15.1674 18.2886C13.9039 19.412 11.9836 19.3411 10.8057 18.1277L10.225 17.5295C9.6674 16.955 8.75367 16.9351 8.17155 17.4846L6.46823 19.0924C7.98675 20.2876 9.89887 21 11.9764 21ZM19.4134 16.4365L19.6248 16.6713C20.4483 15.3095 20.9227 13.7105 20.9227 12C20.9227 9.9259 20.2253 8.01566 19.0534 6.49367C18.8356 6.54985 18.6274 6.65735 18.4476 6.81721L17.519 7.64292C16.2555 8.76629 14.3352 8.69548 13.1573 7.48209L12.5767 6.88385C12.019 6.30938 11.1053 6.28935 10.5231 6.83884L8.13369 9.09439L6.97125 7.85506L9.36069 5.59951C10.6168 4.41376 12.5886 4.45698 13.7919 5.69664L14.3726 6.29487C14.9185 6.85718 15.8083 6.88999 16.3939 6.3694L17.3225 5.54369C17.4784 5.40512 17.6441 5.28478 17.8171 5.18252C16.2498 3.82243 14.2086 3 11.9764 3C7.4884 3 3.77227 6.3246 3.12871 10.6593C4.35337 9.95007 5.94352 10.1355 6.97215 11.1952L7.64372 11.887C8.16572 12.4248 9.00777 12.4815 9.59676 12.0186L11.5876 10.4539C12.7824 9.51483 14.474 9.56025 15.6171 10.5621L18.3279 12.9381L17.2119 14.2196L14.501 11.8437C13.9713 11.3793 13.1874 11.3583 12.6337 11.7936L10.6429 13.3582C9.37192 14.3571 7.55486 14.2347 6.42844 13.0742L5.75688 12.3824C5.19923 11.8079 4.28551 11.7879 3.70339 12.3374L3.07715 12.9285C3.27082 14.8295 4.05261 16.5552 5.23647 17.9185L7.00912 16.2452C8.26526 15.0595 10.237 15.1026 11.4403 16.3423L12.021 16.9406C12.5669 17.5028 13.4568 17.5357 14.0423 17.0151L14.971 16.1894C16.2687 15.0355 18.2508 15.1458 19.4134 16.4365Z" fill="#6C6D6D"/>
</svg>
