<svg width="24" height="24" viewBox="0 0 24 24" fill="none" xmlns="http://www.w3.org/2000/svg">
<path fill-rule="evenodd" clip-rule="evenodd" d="M3.3855 11.9998C3.3855 7.22772 7.24249 3.35938 11.9997 3.35938C16.7578 3.35938 20.6148 7.22772 20.6144 11.9994C20.6144 13.6896 20.1303 15.2662 19.2941 16.5976C19.0635 16.9645 18.8067 17.3127 18.5252 17.6399L12.0111 11.1067L6.40963 16.7243L5.4848 17.6519C5.20252 17.3254 4.94482 16.9776 4.71425 16.6112C3.8725 15.2773 3.3855 13.6955 3.3855 11.9998ZM18.3065 15.3665L18.3854 15.2084L18.3858 15.2089C18.88 14.2201 19.1411 13.1102 19.1411 11.9998C19.1411 8.05071 15.9376 4.83785 12.0001 4.83785C8.06262 4.83785 4.85963 8.05071 4.85963 11.9998C4.85963 13.1161 5.12326 14.2307 5.62212 15.2233L5.70139 15.3806L12.0111 9.05222L18.3065 15.3665ZM12.0001 20.6394C14.1447 20.6394 16.1067 19.8534 17.6147 18.5526L12.0115 12.9324L6.39768 18.5624C7.9036 19.8576 9.8554 20.6394 12.0001 20.6394Z" fill="url(#paint0_linear_5429_200099)"/>
<defs>
<linearGradient id="paint0_linear_5429_200099" x1="11.9999" y1="3.35937" x2="12.0255" y2="20.6394" gradientUnits="userSpaceOnUse">
<stop stop-color="#169E00"/>
<stop offset="0.49" stop-color="#00C537"/>
<stop offset="1" stop-color="#00B1C9"/>
</linearGradient>
</defs>
</svg>
