<svg width="24" height="24" viewBox="0 0 24 24" fill="none" xmlns="http://www.w3.org/2000/svg">
<path d="M5.68506 3.81445C6.43952 3.81454 7.0515 4.42231 7.05029 5.17383V17.4531H13.6577C14.4079 17.4531 15.0169 18.0638 15.0171 18.8184C15.0171 19.573 14.4095 20.1836 13.6577 20.1836H5.72021C5.70852 20.1839 5.69682 20.1855 5.68506 20.1855C4.93182 20.1855 4.31982 19.577 4.31982 18.8252V5.17383C4.32005 4.42225 4.93196 3.81445 5.68506 3.81445ZM12.0024 3.81445C12.7568 3.81463 13.3665 4.42236 13.3667 5.17383V13.1504C13.3667 13.9006 12.757 14.5106 12.0024 14.5107C11.2492 14.5107 10.6372 13.9022 10.6372 13.1504V5.17383C10.6374 4.42369 11.2479 3.81445 12.0024 3.81445ZM18.3149 3.81445C19.0694 3.81454 19.6799 4.42231 19.6802 5.17383V13.1504C19.6802 13.9007 19.0695 14.5107 18.3149 14.5107C17.5617 14.5107 16.9497 13.9022 16.9497 13.1504V5.17383C16.9499 4.42369 17.5604 3.81445 18.3149 3.81445Z" fill="#8E9BB2"/>
</svg>
