<svg width="24" height="24" viewBox="0 0 24 24" fill="none" xmlns="http://www.w3.org/2000/svg">
<rect x="3.40002" y="3.40002" width="17.2" height="17.2" rx="8.6" fill="#0054FA"/>
<path d="M8.0087 8.8114H9.19798L9.96498 15.1887H8.95667L8.84464 13.8012H8.31033L8.19829 15.1887H7.2417L8.0087 8.8114ZM8.48269 11.6467L8.37927 12.9566H8.7757L8.66366 11.6467L8.5861 10.5436H8.56025L8.48269 11.6467Z" fill="white"/>
<path d="M12.0783 15.1887H11.0527V8.8114H12.3971C13.1297 8.8114 13.5778 9.2423 13.5778 10.0179V11.5864C13.5778 12.3534 13.1297 12.7843 12.3971 12.7843H12.0783V15.1887ZM12.0869 12.0173H12.3109C12.4833 12.0173 12.5522 11.8622 12.5522 11.5864V10.0179C12.5522 9.73352 12.4833 9.5784 12.3109 9.5784H12.0869V12.0173Z" fill="white"/>
<path d="M14.7591 15.1887V8.8114H16.7585V9.65596H15.7847V11.5433H16.6551V12.3879H15.7847V14.3441H16.7585V15.1887H14.7591Z" fill="white"/>
</svg>
