<svg width="24" height="24" viewBox="0 0 24 24" fill="none" xmlns="http://www.w3.org/2000/svg">
<path d="M12.0256 3.59224C12.0728 3.59224 12.1162 3.60411 12.1597 3.62741L19.2136 7.72236C19.2964 7.76941 19.3477 7.85621 19.3436 7.95031L19.3161 16.0968C19.3161 16.1914 19.2648 16.2777 19.182 16.3248L12.1043 20.3722C12.065 20.3959 12.0178 20.4074 11.9702 20.4074C11.9226 20.4074 11.8796 20.3955 11.8361 20.3722L4.78274 16.2777C4.69991 16.2307 4.64865 16.1439 4.65277 16.0498L4.68023 7.90326C4.68023 7.8087 4.73148 7.72236 4.81432 7.67531L11.8956 3.62376C11.935 3.60411 11.9821 3.59224 12.0256 3.59224ZM12.0297 2.40039C11.7776 2.40039 11.5254 2.46343 11.3007 2.59317L4.22303 6.6406C3.76995 6.90054 3.48986 7.3802 3.48986 7.8996L3.4624 16.0461C3.4624 16.5655 3.73837 17.0452 4.18733 17.3087L11.2412 21.4037C11.4659 21.5334 11.7181 21.6006 11.9702 21.6006C12.2224 21.6006 12.4746 21.5375 12.6993 21.4078L19.777 17.3604C20.23 17.1009 20.5101 16.6208 20.5101 16.1018L20.5376 7.95534C20.5376 7.43593 20.2616 6.95627 19.8127 6.69268L12.7588 2.59728C12.5341 2.46754 12.2819 2.40039 12.0297 2.40039Z" fill="#1B4ADD"/>
<path d="M13.4599 6.84115H12.4274C12.3487 6.84115 12.2815 6.8882 12.254 6.96312L8.9282 16.0612C8.9044 16.1201 8.952 16.1831 9.0147 16.1831H10.0472C10.1259 16.1831 10.1932 16.1361 10.2206 16.0612L13.5464 6.96312C13.5702 6.90419 13.5226 6.84115 13.4599 6.84115ZM11.6513 6.84115H10.6188C10.5401 6.84115 10.4728 6.8882 10.4453 6.96312L7.1232 16.0575C7.0994 16.1164 7.147 16.1795 7.2097 16.1795H8.24217C8.32089 16.1795 8.38816 16.1324 8.41562 16.0575L11.7378 6.96312C11.7616 6.90419 11.7181 6.84115 11.6513 6.84115ZM12.9913 10.3655C12.9638 10.2828 12.8453 10.2828 12.8178 10.3655L12.2819 11.8365C12.2663 11.8758 12.2663 11.9228 12.2819 11.9626L13.7794 16.0575C13.8068 16.1283 13.8741 16.1795 13.9528 16.1795H14.9853C15.0484 16.1795 15.0956 16.1164 15.0718 16.0575L12.9913 10.3655ZM16.8768 16.0575L13.8938 7.89138C13.8663 7.8087 13.7478 7.8087 13.7203 7.89138L13.1844 9.36235C13.1688 9.40163 13.1688 9.44869 13.1844 9.48843L15.5844 16.0575C15.6118 16.1283 15.6791 16.1795 15.7578 16.1795H16.7903C16.8571 16.1836 16.9006 16.1164 16.8768 16.0575Z" fill="#1B4ADD"/>
</svg>
