<svg width="24" height="24" viewBox="0 0 24 24" fill="none" xmlns="http://www.w3.org/2000/svg">
<path d="M9.44676 13.3116C9.68914 13.3116 9.89471 13.2409 10.0635 13.0995C10.2366 12.958 10.36 12.7416 10.4335 12.4502C10.5331 12.0473 10.6088 11.6959 10.6608 11.3959C10.6781 11.3059 10.6868 11.2138 10.6868 11.1195C10.6868 10.7295 10.4812 10.5345 10.07 10.5345C9.82763 10.5345 9.61988 10.6052 9.44676 10.7466C9.27797 10.8881 9.15678 11.1045 9.08321 11.3959C9.0053 11.6831 8.9274 12.0345 8.84949 12.4502C8.83218 12.5359 8.82352 12.6259 8.82352 12.7202C8.82352 13.1145 9.03127 13.3116 9.44676 13.3116Z" fill="#8E9BB2"/>
<path d="M15.1002 11.568C14.966 11.6666 14.808 11.7159 14.6263 11.7159H13.8797L14.1264 10.5652H14.9054C15.0829 10.5652 15.2084 10.5994 15.282 10.668C15.3555 10.7323 15.3923 10.8266 15.3923 10.9509C15.3923 11.0066 15.3858 11.0709 15.3728 11.1437C15.3296 11.328 15.2387 11.4694 15.1002 11.568Z" fill="#8E9BB2"/>
<path fill-rule="evenodd" clip-rule="evenodd" d="M20.6399 11.9999C20.6399 16.7716 16.7716 20.6399 11.9999 20.6399C7.22812 20.6399 3.35986 16.7716 3.35986 11.9999C3.35986 7.22812 7.22812 3.35986 11.9999 3.35986C16.7716 3.35986 20.6399 7.22812 20.6399 11.9999ZM9.35588 14.2373C8.84084 14.2373 8.41885 14.1173 8.08992 13.8773C7.76532 13.6331 7.60302 13.2859 7.60302 12.8359C7.60302 12.7416 7.61384 12.6259 7.63548 12.4888C7.69174 12.1802 7.77181 11.8095 7.87568 11.3766C8.16999 10.1981 8.92956 9.60877 10.1544 9.60877C10.4877 9.60877 10.7863 9.66448 11.0503 9.77591C11.3143 9.88306 11.5221 10.0459 11.6735 10.2645C11.825 10.4788 11.9008 10.7359 11.9008 11.0359C11.9008 11.1259 11.89 11.2395 11.8683 11.3766C11.8034 11.7581 11.7255 12.1288 11.6346 12.4888C11.4831 13.0759 11.2213 13.5152 10.8491 13.8066C10.4768 14.0938 9.97912 14.2373 9.35588 14.2373ZM12.2177 14.1266C12.2437 14.1566 12.2804 14.1716 12.3281 14.1716H13.211C13.2543 14.1716 13.2954 14.1566 13.3343 14.1266C13.3733 14.0966 13.3971 14.058 13.4057 14.0109L13.7044 12.603H14.5808C15.1478 12.603 15.5936 12.4852 15.9182 12.2494C16.2471 12.0137 16.4657 11.6494 16.5739 11.1566C16.5999 11.0409 16.6128 10.9294 16.6128 10.8223C16.6128 10.4494 16.4657 10.1644 16.1714 9.9673C15.8814 9.77015 15.4962 9.67158 15.0158 9.67158H13.2889C13.2456 9.67158 13.2045 9.68658 13.1655 9.71658C13.1266 9.74658 13.1028 9.78515 13.0941 9.8323L12.1982 14.0109C12.1896 14.0537 12.1961 14.0923 12.2177 14.1266Z" fill="#8E9BB2"/>
</svg>
