<svg width="24" height="24" viewBox="0 0 24 24" fill="none" xmlns="http://www.w3.org/2000/svg">
<circle cx="12" cy="11.9998" r="8.33333" fill="white"/>
<path fill-rule="evenodd" clip-rule="evenodd" d="M12 20.3332C16.6023 20.3332 20.3333 16.6022 20.3333 11.9998C20.3333 7.39746 16.6023 3.6665 12 3.6665C7.39759 3.6665 3.66663 7.39746 3.66663 11.9998C3.66663 16.6022 7.39759 20.3332 12 20.3332ZM18.0164 12.0003C18.0164 15.314 15.3301 18.0003 12.0164 18.0003C8.87074 18.0003 6.29048 15.5796 6.03687 12.4993H14.8497V11.4993H6.03703C6.29157 8.42005 8.87141 6.00033 12.0164 6.00033C15.3301 6.00033 18.0164 8.68662 18.0164 12.0003Z" fill="#0052FF"/>
</svg>
