<svg width="24" height="24" viewBox="0 0 24 24" fill="none" xmlns="http://www.w3.org/2000/svg">
<path fill-rule="evenodd" clip-rule="evenodd" d="M3.02686 12.0004C3.02686 7.02953 7.04455 3 12 3C16.9563 3 20.974 7.02953 20.9736 12C20.9736 13.7606 20.4694 15.403 19.5983 16.7899C19.3581 17.172 19.0906 17.5347 18.7974 17.8756L12.0119 11.0701L6.17699 16.9218L5.21363 17.888C4.91958 17.5479 4.65115 17.1857 4.41097 16.804C3.53414 15.4145 3.02686 13.7668 3.02686 12.0004ZM18.5696 15.5075L18.6517 15.3428L18.6521 15.3432C19.1669 14.3132 19.4389 13.1571 19.4389 12.0004C19.4389 7.8868 16.102 4.54008 12.0004 4.54008C7.89886 4.54008 4.56241 7.8868 4.56241 12.0004C4.56241 13.1632 4.83703 14.3243 5.35667 15.3582L5.43924 15.5221L12.0119 8.93004L18.5696 15.5075ZM12.0004 21C14.2344 21 16.2781 20.1813 17.849 18.8263L12.0123 12.9719L6.16455 18.8365C7.73321 20.1857 9.76634 21 12.0004 21Z" fill="#878888"/>
</svg>
