<svg width="24" height="24" viewBox="0 0 24 24" fill="none" xmlns="http://www.w3.org/2000/svg">
<rect x="2.3999" y="2.40002" width="19.2" height="19.2" rx="9.6" fill="white"/>
<path d="M3.81079 11.5401H4.38569C4.54858 11.5401 4.6923 11.5066 4.81686 11.4395C4.94142 11.3629 5.04203 11.267 5.11868 11.152C5.20492 11.0275 5.2672 10.8934 5.30552 10.7496C5.35342 10.5963 5.3774 10.443 5.3774 10.2897V7.97575C5.3774 7.62123 5.41094 7.30981 5.47798 7.04154C5.55464 6.77324 5.67921 6.54807 5.85167 6.36602C6.02413 6.17441 6.25412 6.03068 6.54156 5.93484C6.83858 5.83904 7.20749 5.79114 7.64823 5.79114H8.81241V6.72534H7.59074C7.18832 6.72534 6.90088 6.81637 6.72839 6.99842C6.56551 7.18047 6.48407 7.51103 6.48407 7.99011V9.97352C6.48407 10.6155 6.38824 11.0898 6.19663 11.3964C6.00499 11.6934 5.7846 11.8946 5.53547 12C5.7846 12.115 6.00499 12.3306 6.19663 12.6468C6.38824 12.963 6.48407 13.4229 6.48407 14.0265V16.0099C6.48407 16.489 6.57029 16.8196 6.74278 17.0016C6.91524 17.1837 7.20269 17.2747 7.6051 17.2747H8.81241V18.2089H7.64823C7.20749 18.2089 6.83858 18.161 6.54156 18.0652C6.25412 17.9694 6.02413 17.8257 5.85167 17.634C5.67921 17.452 5.55464 17.2268 5.47798 16.9585C5.41094 16.6902 5.3774 16.3788 5.3774 16.0243V13.7103C5.3774 13.5666 5.35342 13.4229 5.30552 13.2792C5.2672 13.1259 5.20492 12.9917 5.11868 12.8767C5.04203 12.7522 4.94142 12.6516 4.81686 12.5749C4.70188 12.4983 4.56295 12.4599 4.40006 12.4599H3.81079V11.5401Z" fill="#030412"/>
<path d="M20.1891 12.4599H19.6142C19.4513 12.4599 19.3076 12.4983 19.183 12.5749C19.0681 12.642 18.9674 12.7378 18.8812 12.8624C18.8046 12.9774 18.7423 13.1115 18.6944 13.2648C18.656 13.4085 18.6369 13.557 18.6369 13.7103V16.0243C18.6369 16.3788 18.5986 16.6902 18.5219 16.9585C18.4548 17.2268 18.3303 17.452 18.1482 17.634C17.9757 17.8257 17.741 17.9694 17.444 18.0652C17.1565 18.161 16.7924 18.2089 16.3517 18.2089H15.1875V17.2747H16.4091C16.8116 17.2747 17.0942 17.1837 17.2571 17.0016C17.4296 16.8196 17.5158 16.489 17.5158 16.0099V14.0265C17.5158 13.3846 17.6116 12.9151 17.8033 12.618C17.9949 12.3114 18.2153 12.1054 18.4644 12C18.2153 11.8851 17.9949 11.6695 17.8033 11.3533C17.6116 11.0371 17.5158 10.5772 17.5158 9.97352V7.99011C17.5158 7.51103 17.4296 7.18047 17.2571 6.99842C17.0847 6.81637 16.7972 6.72534 16.3948 6.72534H15.1875V5.79114H16.3517C16.7924 5.79114 17.1565 5.83904 17.444 5.93484C17.741 6.03068 17.9757 6.17441 18.1482 6.36602C18.3303 6.54807 18.4548 6.77324 18.5219 7.04154C18.5986 7.30981 18.6369 7.62123 18.6369 7.97575V10.2897C18.6369 10.4334 18.656 10.5819 18.6944 10.7353C18.7327 10.879 18.7902 11.0131 18.8668 11.1377C18.9531 11.2527 19.0537 11.3485 19.1687 11.4251C19.2932 11.5018 19.4369 11.5401 19.5998 11.5401H20.1891V12.4599Z" fill="#030412"/>
<path d="M12.2197 15.1882C11.6554 15.1882 11.1268 15.0968 10.634 14.914C10.1411 14.7312 9.71985 14.5205 9.37012 14.2821L9.8232 13.6383C10.157 13.8767 10.5266 14.0675 10.932 14.2106C11.3374 14.3536 11.8064 14.4252 12.3389 14.4252C12.8318 14.4252 13.1974 14.3338 13.4359 14.1509C13.6823 13.9681 13.8055 13.7575 13.8055 13.519C13.8055 13.4078 13.7816 13.3044 13.7339 13.209C13.6942 13.1136 13.6107 13.0222 13.4835 12.9348C13.3643 12.8474 13.1855 12.7639 12.947 12.6844C12.7085 12.6049 12.3906 12.5255 11.9932 12.446C11.2381 12.287 10.6697 12.0724 10.2882 11.8021C9.91459 11.5319 9.72782 11.1821 9.72782 10.7529C9.72782 10.2839 9.93049 9.89446 10.3359 9.58447C10.7413 9.26651 11.3414 9.10754 12.1362 9.10754C12.5814 9.10754 13.0106 9.18306 13.4239 9.33409C13.8373 9.47715 14.187 9.64805 14.4732 9.84676L13.9962 10.4787C13.7339 10.2879 13.4358 10.1409 13.102 10.0375C12.7682 9.92624 12.4184 9.8706 12.0528 9.8706C11.7189 9.8706 11.4527 9.91034 11.254 9.98985C11.0632 10.0614 10.9241 10.1607 10.8366 10.2879C10.7572 10.4151 10.7174 10.5542 10.7174 10.7052C10.7174 10.9516 10.8486 11.1463 11.1109 11.2894C11.3811 11.4246 11.8104 11.5517 12.3985 11.671C13.0424 11.8061 13.5352 11.9571 13.877 12.124C14.2267 12.291 14.4652 12.4817 14.5924 12.6964C14.7275 12.911 14.7951 13.1653 14.7951 13.4594C14.7951 13.7774 14.6957 14.0675 14.497 14.3298C14.2983 14.5842 14.0081 14.7908 13.6266 14.9498C13.2451 15.1088 12.7761 15.1882 12.2197 15.1882Z" fill="#030412"/>
</svg>
