<svg width="24" height="24" viewBox="0 0 24 24" fill="none" xmlns="http://www.w3.org/2000/svg">
<path d="M11.8783 3.33325C10.1537 3.33371 8.49989 4.01666 7.28044 5.23198C6.06098 6.4473 5.3757 8.09549 5.37524 9.81421C5.37566 10.2236 5.41417 10.6321 5.49029 11.0344L6.33172 10.4611C7.80851 9.4514 10.204 9.4514 11.6808 10.4611L12.5617 11.0635L13.0408 11.3904C14.3716 12.2991 16.5284 12.2991 17.8575 11.3904L18.2491 11.1234C18.4428 10.1815 18.424 9.2085 18.1939 8.27477C17.9639 7.34103 17.5284 6.46997 16.9189 5.72465C16.3094 4.97934 15.5413 4.37841 14.6701 3.96541C13.7989 3.5524 12.8464 3.33763 11.8817 3.33667L11.8783 3.33325Z" fill="#F2B705"/>
<path d="M15.5341 13.7082C14.6054 13.7259 13.6925 13.4673 12.912 12.9655L11.5537 12.0379C10.8143 11.5858 9.96381 11.3464 9.09636 11.3464C8.22891 11.3464 7.3784 11.5858 6.63905 12.0379L5.76157 12.6369C5.72019 12.6651 5.67364 12.6849 5.62458 12.6952C5.57552 12.7055 5.52491 12.706 5.47563 12.6968C5.42636 12.6876 5.37939 12.6688 5.33741 12.6415C5.29543 12.6142 5.25925 12.5789 5.23095 12.5376C5.20265 12.4964 5.18278 12.45 5.17247 12.4011C5.16216 12.3522 5.16161 12.3018 5.17086 12.2527C5.18011 12.2036 5.19897 12.1568 5.22637 12.1149C5.25377 12.0731 5.28917 12.037 5.33055 12.0088V12.0088L6.20804 11.4098C7.0751 10.8729 8.07556 10.5884 9.09636 10.5884C10.1172 10.5884 11.1176 10.8729 11.9847 11.4098L13.343 12.3374C14.0021 12.7402 14.7601 12.9534 15.5333 12.9534C16.3064 12.9534 17.0645 12.7402 17.7236 12.3374L18.2387 11.9866C18.2801 11.9584 18.3266 11.9386 18.3757 11.9283C18.4248 11.918 18.4754 11.9175 18.5246 11.9267C18.5739 11.9359 18.6209 11.9547 18.6629 11.982C18.7049 12.0093 18.741 12.0446 18.7693 12.0858C18.7976 12.1271 18.8175 12.1735 18.8278 12.2224C18.8381 12.2712 18.8387 12.3217 18.8294 12.3708C18.8202 12.4199 18.8013 12.4667 18.7739 12.5085C18.7465 12.5504 18.7111 12.5864 18.6697 12.6146L18.1546 12.9655C17.3741 13.466 16.4621 13.7245 15.5341 13.7082V13.7082Z" fill="#53CBC8"/>
<path d="M9.06862 16.431V12.7687C9.06547 12.6915 9.06834 12.6143 9.0772 12.5376C9.08898 12.4369 9.13744 12.3439 9.21341 12.2764C9.28937 12.2089 9.38755 12.1715 9.48933 12.1714C9.58782 12.1744 9.68177 12.2134 9.75333 12.2809C9.82488 12.3484 9.86904 12.4398 9.87741 12.5376C9.89306 12.6648 9.89765 12.793 9.89115 12.921V20.2234C9.89321 20.2801 9.88392 20.3367 9.8638 20.3899C9.84369 20.443 9.81316 20.4916 9.774 20.5329C9.73484 20.5741 9.68783 20.6072 9.63571 20.6302C9.58359 20.6531 9.52741 20.6655 9.47044 20.6666C9.41336 20.6635 9.35751 20.6488 9.30629 20.6235C9.25507 20.5982 9.20954 20.5628 9.17246 20.5194C9.13537 20.476 9.1075 20.4256 9.09054 20.3712C9.07357 20.3168 9.06787 20.2595 9.07377 20.2029V17.7676L9.06862 16.431Z" fill="#53CBC8"/>
<path d="M8.29592 14.5866V16.4058C8.29592 16.7173 8.1242 16.9192 7.89238 16.9192C7.66056 16.9192 7.47681 16.7019 7.4751 16.4058V12.764C7.4751 12.4457 7.66227 12.2301 7.9044 12.2506C8.14652 12.2712 8.29077 12.4543 8.29248 12.7743C8.29592 13.3733 8.29592 13.9791 8.29592 14.5866Z" fill="#53CBC8"/>
<path d="M10.6675 14.584V13.3073C10.6675 13.0113 10.8255 12.8196 11.0607 12.8196C11.1201 12.8224 11.1783 12.8371 11.2318 12.8628C11.2854 12.8885 11.3331 12.9248 11.3723 12.9694C11.4114 13.014 11.4411 13.066 11.4596 13.1223C11.478 13.1786 11.4849 13.238 11.4797 13.2971C11.4877 14.1664 11.4877 15.0364 11.4797 15.9069C11.4797 16.203 11.308 16.3827 11.0624 16.3792C10.8169 16.3758 10.6675 16.1944 10.6658 15.8915V14.5857L10.6675 14.584Z" fill="#53CBC8"/>
<path d="M5.88331 14.8472V13.5688C5.88331 13.271 6.04129 13.0793 6.27655 13.0793C6.33592 13.0821 6.39412 13.0968 6.44766 13.1226C6.50119 13.1483 6.54896 13.1846 6.58809 13.2291C6.62722 13.2737 6.65691 13.3257 6.67537 13.382C6.69384 13.4384 6.7007 13.4978 6.69555 13.5568C6.70356 14.4273 6.70356 15.2979 6.69555 16.1684C6.69555 16.4644 6.52382 16.6424 6.27998 16.6407C6.03614 16.639 5.88331 16.4559 5.88159 16.1513V14.8472H5.88331Z" fill="#53CBC8"/>
<path d="M13.0647 14.1651C13.0647 13.943 12.884 13.7629 12.6611 13.7629C12.4382 13.7629 12.2576 13.943 12.2576 14.1651V14.8599C12.2576 15.082 12.4382 15.2621 12.6611 15.2621C12.884 15.2621 13.0647 15.082 13.0647 14.8599V14.1651Z" fill="#53CBC8"/>
<path d="M14.6618 14.774C14.6618 14.5519 14.4811 14.3718 14.2583 14.3718C14.0354 14.3718 13.8547 14.5519 13.8547 14.774V18.6742C13.8547 18.8963 14.0354 19.0764 14.2583 19.0764C14.4811 19.0764 14.6618 18.8963 14.6618 18.6742V14.774Z" fill="#53CBC8"/>
<path d="M16.2482 14.9246C16.2482 14.7025 16.0676 14.5225 15.8447 14.5225C15.6218 14.5225 15.4412 14.7025 15.4412 14.9246V18.2396C15.4412 18.4617 15.6218 18.6417 15.8447 18.6417C16.0676 18.6417 16.2482 18.4617 16.2482 18.2396V14.9246Z" fill="#53CBC8"/>
<path d="M17.8574 14.546C17.8574 14.3239 17.6767 14.1438 17.4538 14.1438C17.231 14.1438 17.0503 14.3239 17.0503 14.546V15.975C17.0503 16.1971 17.231 16.3771 17.4538 16.3771C17.6767 16.3771 17.8574 16.1971 17.8574 15.975V14.546Z" fill="#53CBC8"/>
</svg>
