<svg width="24" height="24" viewBox="0 0 24 24" fill="none" xmlns="http://www.w3.org/2000/svg">
<path d="M20.6197 11.4135C20.2959 6.65303 16.1742 3.05631 11.4137 3.38012C9.04216 3.54142 6.95989 4.6456 5.50681 6.30135L5.50682 6.30134L5.50277 6.29841C5.49298 6.31196 5.48383 6.32533 5.47411 6.33887C4.03074 8.00269 3.21895 10.215 3.38023 12.5862C3.3956 12.8121 3.4222 13.0345 3.45434 13.2549C3.45435 13.2549 3.45435 13.255 3.45436 13.255C3.4558 13.265 3.45728 13.2749 3.45868 13.2849C3.48041 13.4303 3.50563 13.5744 3.53441 13.7172C3.53443 13.7173 3.53444 13.7174 3.53446 13.7174C3.53499 13.72 3.53549 13.7226 3.536 13.7252C3.5622 13.8546 3.59131 13.9827 3.62316 14.1097L3.62321 14.1099C3.62324 14.11 3.62327 14.1101 3.62329 14.1102C4.62111 18.0895 8.34942 20.9078 12.5863 20.6196C17.3469 20.2958 20.9435 16.1741 20.6197 11.4135H20.6197ZM18.7391 11.5415C18.7789 12.1276 18.742 12.7014 18.6377 13.2535C18.6364 13.2504 18.6354 13.247 18.6341 13.2439V13.2439C18.0077 11.7128 16.7687 10.6074 15.6791 9.99681C15.8996 7.40251 15.0195 6.30956 14.0234 6.13172C13.9963 6.12651 13.969 6.12206 13.9414 6.11863C13.1508 6.01723 12.4278 6.57605 12.3265 7.36659C12.2251 8.15717 12.7839 8.88017 13.5745 8.98161C13.6434 8.99033 13.7116 8.99276 13.7792 8.99169C13.7836 9.07927 13.7863 9.1723 13.7871 9.26958C12.866 9.04133 12.0051 8.99666 11.2201 9.06724C10.9265 9.0868 10.6328 9.12379 10.3406 9.17838C10.4386 8.30236 10.7673 7.31885 11.405 6.5991C12.0215 5.90334 12.9381 5.50455 13.938 5.60689C14.1275 5.62629 14.3298 5.67283 14.5119 5.73398C14.5202 5.73679 14.5291 5.73916 14.5374 5.74204C14.5375 5.74188 14.5377 5.74166 14.5378 5.74149C16.8538 6.68496 18.5582 8.88294 18.7391 11.5415ZM12.7171 12.8611C12.7164 12.8621 12.7158 12.863 12.7152 12.864C12.509 13.1613 12.2638 13.4545 11.976 13.738C11.5445 13.279 11.1979 12.7846 10.935 12.2732C10.9215 12.2458 10.9071 12.2197 10.8939 12.1919C10.8934 12.1908 10.893 12.1898 10.8925 12.1888C10.738 11.8615 10.6066 11.5024 10.505 11.1112C11.1189 10.9667 11.721 10.9136 12.296 10.9416C12.3265 10.9436 12.3562 10.9442 12.3869 10.9468C12.3881 10.9468 12.3892 10.9469 12.3903 10.947C12.7505 10.9769 13.1265 11.0425 13.5155 11.1497C13.3336 11.7534 13.0786 12.3012 12.767 12.785C12.75 12.8103 12.7346 12.8358 12.7171 12.8611ZM9.76479 5.62696C9.76318 5.62904 9.76134 5.63101 9.75973 5.63309L9.75972 5.6331C8.74748 6.94042 8.40954 8.56514 8.42516 9.81383C6.06832 10.92 5.56188 12.2286 5.90593 13.1802C5.91494 13.2062 5.92473 13.2321 5.93559 13.2578C6.24308 13.9931 7.08852 14.3399 7.82379 14.0323C8.55915 13.7248 8.90587 12.8793 8.59846 12.144C8.57153 12.0799 8.53953 12.0196 8.50483 11.9617C8.57931 11.9135 8.65931 11.8641 8.74424 11.8142C9.0071 12.7262 9.39598 13.4975 9.84965 14.1421C10.013 14.3861 10.1916 14.6215 10.3845 14.8468C9.57676 15.2001 8.56047 15.4074 7.61807 15.2149C6.70726 15.0289 5.90362 14.4345 5.49231 13.5174C5.41434 13.3436 5.35354 13.1452 5.31544 12.9569C5.292 12.7924 5.27236 12.6266 5.26091 12.4583C5.05038 9.36331 6.97051 6.60806 9.76479 5.62696ZM12.4584 18.7389C10.6205 18.864 8.90255 18.2371 7.60414 17.1228C9.24245 17.3458 10.8185 16.8261 11.8921 16.1882C14.0293 17.6774 15.4164 17.4618 16.0686 16.6879C16.0867 16.667 16.1042 16.6456 16.121 16.6234C16.6041 15.9894 16.4816 15.0839 15.8477 14.6009C15.2137 14.1178 14.3081 14.2402 13.825 14.8741C13.783 14.9295 13.7468 14.9874 13.7139 15.0464C13.6355 15.0062 13.5532 14.9619 13.4682 14.9137C14.1271 14.2298 14.5966 13.506 14.9282 12.7904C15.0581 12.5264 15.1729 12.2535 15.2717 11.9732C15.9819 12.496 16.6702 13.2729 16.9749 14.1857C17.2691 15.0676 17.1562 16.0607 16.5677 16.8755C16.4561 17.0299 16.3146 17.1818 16.1707 17.3089C16.1686 17.3108 16.1665 17.3127 16.1644 17.3146C15.1347 18.1239 13.8607 18.6436 12.4584 18.7389Z" fill="#8E9BB2"/>
<path style="mix-blend-mode:overlay" opacity="0.9" d="M14.0218 6.13517C13.9948 6.12996 13.9675 6.12551 13.9398 6.12208C13.7999 6.10414 13.6624 6.10784 13.5298 6.12886C14.3563 6.57851 14.9589 7.83133 14.6421 10.3026C14.5372 11.1211 14.2938 11.9 13.9424 12.6147C13.6576 13.2293 13.2701 13.8497 12.7493 14.4459C12.9994 14.6335 13.2433 14.7905 13.4666 14.9171C14.1255 14.2332 14.5951 13.5094 14.9267 12.7938C15.2781 12.0791 15.5215 11.3002 15.6264 10.4817C16.0036 7.53925 15.0776 6.32365 14.0218 6.13517Z" fill="url(#paint0_radial_4741_36225)"/>
<g style="mix-blend-mode:overlay" opacity="0.8">
<path d="M14.6418 10.3012C14.9586 7.82991 14.356 6.57709 13.5295 6.12744C13.4972 6.13256 13.4656 6.13944 13.4339 6.14669C14.2431 6.61185 14.8253 7.86349 14.5128 10.3012C14.4079 11.1197 14.1645 11.8986 13.8131 12.6133C13.5377 13.2075 13.1653 13.807 12.6703 14.385C12.6966 14.4054 12.7228 14.4248 12.749 14.4445C13.2698 13.8483 13.6573 13.2279 13.942 12.6133C14.2935 11.8986 14.5369 11.1197 14.6418 10.3012Z" fill="#FAFAFA"/>
</g>
<path style="mix-blend-mode:overlay" opacity="0.5" d="M11.5006 15.9084C11.4229 15.8492 11.3482 15.7873 11.2734 15.7253C10.0537 16.2342 8.36279 16.5533 6.68384 16.1637C6.95877 16.5141 7.2656 16.8377 7.60263 17.127C9.24093 17.35 10.817 16.8302 11.8905 16.1924C11.7631 16.1036 11.6334 16.0096 11.5006 15.9084Z" fill="url(#paint1_radial_4741_36225)"/>
<path style="mix-blend-mode:overlay" opacity="0.6" d="M11.2732 15.7253C11.2358 15.6944 11.1982 15.6637 11.1616 15.6321C9.9326 16.1232 8.23402 16.4168 6.55884 15.9993C6.59965 16.0547 6.64116 16.1096 6.68359 16.1637C8.36254 16.5533 10.0534 16.2342 11.2732 15.7253Z" fill="url(#paint2_linear_4741_36225)"/>
<path style="mix-blend-mode:overlay" opacity="0.9" d="M5.90476 13.1822C5.91378 13.2083 5.92357 13.2341 5.93443 13.2598C5.98884 13.3899 6.06081 13.5072 6.14531 13.6115C6.12145 12.6708 6.90512 11.5226 9.20372 10.5613C9.96502 10.2429 10.7613 10.0642 11.556 10.0113C12.2306 9.95061 12.9616 9.97596 13.7384 10.1289C13.7757 9.8185 13.7898 9.52875 13.7878 9.27204C12.866 9.04338 12.0044 8.99864 11.2189 9.06926C10.4242 9.12225 9.62799 9.30093 8.86668 9.61929C6.12982 10.7639 5.54011 12.1737 5.90476 13.1822L5.90476 13.1822Z" fill="url(#paint3_radial_4741_36225)"/>
<g style="mix-blend-mode:overlay" opacity="0.8">
<path d="M9.20371 10.5595C6.90512 11.5208 6.12144 12.669 6.1453 13.6097C6.16587 13.6351 6.18766 13.659 6.20975 13.6828C6.208 12.7494 7.00085 11.6194 9.2682 10.6712C10.0295 10.3528 10.8257 10.1741 11.6204 10.1212C12.2727 10.0625 12.9781 10.0853 13.7262 10.225C13.7307 10.192 13.7344 10.1596 13.7383 10.1271C12.9616 9.97416 12.2306 9.94881 11.5559 10.0095C10.7613 10.0624 9.96502 10.2411 9.20371 10.5595Z" fill="#FAFAFA"/>
</g>
<path style="mix-blend-mode:overlay" opacity="0.4" d="M15.6287 10.4799C15.6163 10.5768 15.6 10.6725 15.5837 10.7682C16.6343 11.5701 17.7561 12.8749 18.2581 14.5237C18.4242 14.1104 18.551 13.6829 18.633 13.2464C18.0069 11.7161 16.7688 10.6111 15.6796 10.0002C15.6664 10.155 15.6499 10.3143 15.6287 10.4799Z" fill="url(#paint4_radial_4741_36225)"/>
<path style="mix-blend-mode:overlay" opacity="0.5" d="M15.5839 10.7681C15.5758 10.8159 15.568 10.8638 15.559 10.9113C16.5988 11.7301 17.7023 13.0543 18.1784 14.7138C18.206 14.6507 18.2327 14.5874 18.2583 14.5236C17.7563 12.8747 16.6345 11.5699 15.5839 10.7681Z" fill="url(#paint5_linear_4741_36225)"/>
<path style="mix-blend-mode:overlay" opacity="0.9" d="M16.0683 16.6879C16.0863 16.667 16.1038 16.6456 16.1206 16.6234C16.2061 16.5112 16.2717 16.3902 16.3198 16.2649C15.5171 16.7559 14.1308 16.6513 12.149 15.1413C11.4927 14.6412 10.9398 14.041 10.4966 13.3793C10.1067 12.8254 9.76318 12.1796 9.50726 11.4304C9.21974 11.5532 8.96179 11.6859 8.74048 11.816C9.00333 12.7286 9.39538 13.4972 9.8493 14.1421C10.2925 14.8039 10.8454 15.4041 11.5018 15.9042C13.8614 17.7021 15.3772 17.5079 16.0683 16.6879Z" fill="url(#paint6_radial_4741_36225)"/>
<g style="mix-blend-mode:overlay" opacity="0.8">
<path d="M12.149 15.1419C14.1308 16.6519 15.517 16.7564 16.3197 16.2655C16.3314 16.235 16.3413 16.2041 16.3508 16.1731C15.5434 16.6413 14.1683 16.5197 12.2135 15.0302C11.5571 14.5301 11.0042 13.9298 10.561 13.2681C10.1841 12.7326 9.85108 12.1103 9.59804 11.3926C9.56723 11.4052 9.53731 11.4181 9.5072 11.431C9.76313 12.1801 10.1067 12.8259 10.4965 13.3798C10.9398 14.0415 11.4926 14.6418 12.149 15.1419V15.1419Z" fill="#FAFAFA"/>
</g>
<path style="mix-blend-mode:overlay" opacity="0.3" d="M8.86546 9.61669C8.95556 9.57901 9.04659 9.54526 9.1376 9.51149C9.30675 8.20071 9.87586 6.57682 11.0528 5.31763C10.6118 5.3805 10.1781 5.48442 9.75913 5.63167C8.74688 6.939 8.40896 8.56373 8.42459 9.81243C8.56522 9.74646 8.71144 9.6811 8.86546 9.61669Z" fill="url(#paint7_radial_4741_36225)"/>
<path style="mix-blend-mode:overlay" opacity="0.4" d="M9.13757 9.51171C9.18306 9.49484 9.22843 9.4776 9.27413 9.46169C9.46328 8.1518 10.0583 6.53399 11.2575 5.29199C11.1891 5.29963 11.1208 5.30814 11.0527 5.31785C9.87583 6.57704 9.30672 8.20093 9.13757 9.51171V9.51171Z" fill="url(#paint8_linear_4741_36225)"/>
<path style="mix-blend-mode:multiply" opacity="0.4" d="M11.4127 3.38002C9.04116 3.54133 6.95889 4.6455 5.50581 6.30125C5.49483 6.31376 5.48392 6.3263 5.47302 6.33888L5.47311 6.33877C5.756 6.61938 6.68055 7.17269 7.05527 7.40343C7.791 6.61218 8.71593 5.99478 9.76379 5.62686C9.83698 5.53257 9.91283 5.43953 9.99317 5.34885C10.9691 4.24757 12.3019 3.66548 13.8477 3.66548C14.0198 3.66548 14.3702 3.69287 14.3777 3.69342C13.4406 3.42418 12.4418 3.31002 11.4127 3.38002Z" fill="url(#paint9_linear_4741_36225)"/>
<path style="mix-blend-mode:multiply" opacity="0.4" d="M12.4571 18.738C10.6193 18.863 8.9013 18.2361 7.60289 17.1218H7.60288L7.60287 17.1218C7.48202 17.1054 7.3609 17.0856 7.23958 17.0609C5.79786 16.7663 4.62738 15.9031 3.85446 14.5644C3.76843 14.4154 3.69145 14.2636 3.62207 14.1094C4.61992 18.0886 8.34821 20.9069 12.585 20.6187C12.6039 20.1823 12.4752 19.17 12.4571 18.738Z" fill="url(#paint10_linear_4741_36225)"/>
<path style="mix-blend-mode:multiply" opacity="0.4" d="M20.6184 11.4137C20.3529 11.3865 19.0565 11.4889 18.7377 11.5416C18.7776 12.1277 18.7407 12.7016 18.6363 13.2537C18.6811 13.3635 18.7235 13.475 18.7616 13.5891C19.2274 14.985 19.0651 16.4302 18.2922 17.769C18.2077 17.9152 18.1166 18.0553 18.0198 18.1901C18.018 18.1926 18.0158 18.1956 18.0143 18.1977C18.0142 18.1978 18.0183 18.1944 18.0205 18.1923C19.7754 16.485 20.7975 14.0478 20.6184 11.4137Z" fill="url(#paint11_linear_4741_36225)"/>
<path style="mix-blend-mode:multiply" opacity="0.5" d="M13.937 5.6066C14.1266 5.62599 14.3288 5.67253 14.5109 5.73368C14.5193 5.73649 14.5282 5.73887 14.5364 5.74175C14.5366 5.74158 14.5367 5.74136 14.5368 5.7412C15.2822 6.04482 15.9636 6.47897 16.5518 7.01599C16.5531 7.01704 16.5544 7.01791 16.5556 7.01896C16.8391 6.69484 17.385 6.33868 17.385 6.33868C17.385 6.33868 16.5491 5.48365 15.2707 5.21831C14.3758 5.03254 12.3571 4.85248 11.084 7.01896C11.084 7.01896 11.0891 7.01419 11.0965 7.00731C11.1907 6.86496 11.2908 6.7266 11.4041 6.59881C12.0206 5.90305 12.9371 5.50426 13.937 5.6066Z" fill="url(#paint12_linear_4741_36225)"/>
<path style="mix-blend-mode:multiply" opacity="0.5" d="M16.5664 16.8728C16.4548 17.0272 16.3134 17.1791 16.1694 17.3062C16.1628 17.3121 16.1563 17.3186 16.1496 17.3243C16.1497 17.3245 16.1498 17.3248 16.1499 17.3249C15.5143 17.8186 14.7976 18.1916 14.0384 18.4326C14.0369 18.4332 14.0355 18.4338 14.0339 18.4344C14.1729 18.842 14.2084 19.4928 14.2084 19.4928C14.2084 19.4928 15.3668 19.1964 16.2358 18.222C16.8442 17.5398 18.0094 15.8816 16.7698 13.6958C16.7698 13.6958 16.7714 13.7026 16.7736 13.7125C16.8498 13.8652 16.9195 14.0211 16.9736 14.1831C17.2679 15.0649 17.155 16.058 16.5664 16.8728Z" fill="url(#paint13_linear_4741_36225)"/>
<path style="mix-blend-mode:multiply" opacity="0.5" d="M5.49452 13.5213C5.41654 13.3474 5.35571 13.149 5.31763 12.9608C5.31588 12.9521 5.31349 12.9432 5.31185 12.9346C5.31165 12.9346 5.31137 12.9346 5.31117 12.9345C5.20146 12.1373 5.23674 11.3301 5.40768 10.5521C5.40795 10.5505 5.40807 10.549 5.40835 10.5473C4.9859 10.4639 4.40452 10.1692 4.40452 10.1692C4.40452 10.1692 4.08198 11.3206 4.49139 12.5604C4.778 13.4284 5.63138 15.2666 8.14417 15.2859C8.14417 15.2859 8.1375 15.2839 8.12783 15.2809C7.95746 15.2705 7.78757 15.253 7.62028 15.2188C6.70947 15.0328 5.90582 14.4384 5.49452 13.5213Z" fill="url(#paint14_linear_4741_36225)"/>
<path style="mix-blend-mode:multiply" opacity="0.6" d="M13.5724 8.97906C13.6414 8.98778 13.7096 8.99021 13.7772 8.98914C13.7772 8.98914 13.7321 8.09142 13.6218 7.63083C13.5116 7.17023 13.349 6.86522 13.1704 6.69258C13.0425 6.56891 12.6386 6.41488 12.3245 7.36404C12.2231 8.15462 12.7819 8.87762 13.5724 8.97906Z" fill="url(#paint15_linear_4741_36225)"/>
<path style="mix-blend-mode:multiply" opacity="0.5" d="M8.59738 12.1448C8.57045 12.0807 8.53844 12.0204 8.50374 11.9624C8.50374 11.9624 7.74885 12.4503 7.40508 12.7761C7.06131 13.1019 6.87846 13.3952 6.81824 13.6362C6.77511 13.8088 6.84367 14.2356 7.8227 14.033C8.55807 13.7255 8.90479 12.8801 8.59738 12.1448Z" fill="url(#paint16_linear_4741_36225)"/>
<path style="mix-blend-mode:multiply" opacity="0.6" d="M13.8245 14.8676C13.7824 14.923 13.7462 14.9809 13.7134 15.0399C13.7134 15.0399 14.5134 15.4497 14.9674 15.5845C15.4214 15.7194 15.7668 15.7311 16.0056 15.6627C16.1767 15.6138 16.5121 15.341 15.8471 14.5944C15.2131 14.1113 14.3076 14.2338 13.8245 14.8676Z" fill="url(#paint17_linear_4741_36225)"/>
<path style="mix-blend-mode:multiply" opacity="0.3" d="M13.5158 11.1516C13.3339 11.7553 13.079 12.303 12.7673 12.7868C12.7503 12.8122 12.7349 12.8377 12.7174 12.863C12.7168 12.864 12.7161 12.8649 12.7155 12.8658C12.5093 13.1632 12.2641 13.4563 11.9763 13.7399C12.1741 13.9504 12.388 14.1541 12.6229 14.3474C12.9179 14.5802 13.207 14.7673 13.4685 14.9156C14.1274 14.2316 14.597 13.5078 14.9286 12.7923C15.0584 12.5282 15.1732 12.2553 15.272 11.975C14.9681 11.7513 14.6601 11.5732 14.3764 11.4522C14.083 11.3271 13.7961 11.2289 13.5158 11.1516Z" fill="url(#paint18_linear_4741_36225)"/>
<path style="mix-blend-mode:multiply" opacity="0.3" d="M7.60474 17.1231C9.24305 17.3461 10.8191 16.8264 11.8927 16.1885C11.7652 16.0997 11.6355 16.0058 11.5027 15.9046C11.0883 15.5888 10.7154 15.233 10.3851 14.8472C9.57736 15.2005 8.56106 15.4077 7.61867 15.2153C6.70786 15.0292 5.90422 14.4348 5.4929 13.5178C5.41494 13.3439 5.35414 13.1455 5.31604 12.9573C5.55406 14.6275 6.39687 16.0865 7.60474 17.1231Z" fill="url(#paint19_linear_4741_36225)"/>
<path style="mix-blend-mode:multiply" opacity="0.3" d="M11.9771 13.7362C11.5456 13.2771 11.1991 12.7828 10.9361 12.2714C10.9226 12.244 10.9082 12.2179 10.8951 12.19C10.8946 12.189 10.8941 12.188 10.8936 12.187C10.7391 11.8596 10.6078 11.5006 10.5061 11.1094C10.2256 11.1754 9.94281 11.2586 9.65861 11.3651C9.31027 11.5039 9.00412 11.6604 8.74536 11.8124C9.00822 12.7243 9.39709 13.4957 9.85077 14.1403C10.0142 14.3843 10.1927 14.6197 10.3856 14.845C10.7319 14.6935 11.0406 14.5156 11.2875 14.3302C11.5421 14.1389 11.7703 13.94 11.9771 13.7362Z" fill="url(#paint20_linear_4741_36225)"/>
<path style="mix-blend-mode:multiply" opacity="0.3" d="M9.76037 5.63338C8.74813 6.9407 8.41018 8.56542 8.42581 9.81412C8.56697 9.74786 8.71383 9.68223 8.86849 9.61755C9.34858 9.41679 9.84256 9.27185 10.3413 9.17866C10.4393 8.30265 10.7679 7.31914 11.4057 6.59939C12.0222 5.90363 12.9388 5.50484 13.9386 5.60718C14.1282 5.62658 14.3304 5.67311 14.5125 5.73427C14.5209 5.73707 14.5298 5.73945 14.5381 5.74233C14.5382 5.74217 14.5383 5.74194 14.5385 5.74178C13.6173 5.36652 12.5996 5.18916 11.5422 5.26108C10.9212 5.30333 10.3261 5.43038 9.76543 5.62725C9.76382 5.62933 9.76199 5.63129 9.76038 5.63337L9.76037 5.63338Z" fill="url(#paint21_linear_4741_36225)"/>
<path style="mix-blend-mode:multiply" opacity="0.3" d="M18.6346 13.2427C18.0082 11.7116 16.7692 10.6062 15.6796 9.99561C15.6664 10.1509 15.6498 10.3109 15.6285 10.4771C15.5623 10.9932 15.4409 11.4935 15.2722 11.972C15.9825 12.4948 16.6707 13.2717 16.9754 14.1845C17.2697 15.0663 17.1567 16.0595 16.5682 16.8743C16.4566 17.0287 16.3152 17.1806 16.1712 17.3077C16.1691 17.3096 16.167 17.3115 16.165 17.3134C17.4334 16.3164 18.3306 14.8796 18.6382 13.2523C18.6369 13.2492 18.6359 13.2458 18.6346 13.2427V13.2427Z" fill="url(#paint22_linear_4741_36225)"/>
<path style="mix-blend-mode:multiply" opacity="0.3" d="M10.336 10.2187C10.3743 10.5347 10.4325 10.8316 10.5055 11.1125C11.1194 10.968 11.7215 10.9149 12.2965 10.9429C12.327 10.9449 12.3567 10.9455 12.3874 10.948C12.3886 10.9481 12.3897 10.9482 12.3908 10.9483C12.751 10.9781 13.127 11.0438 13.516 11.151C13.5992 10.8749 13.6685 10.5882 13.7184 10.2886C13.7726 9.91613 13.79 9.57174 13.7876 9.27087C12.8665 9.04262 12.0056 8.99795 11.2206 9.06852C10.927 9.08809 10.6333 9.12508 10.3411 9.17966C10.2991 9.55553 10.2988 9.91196 10.336 10.2187H10.336Z" fill="url(#paint23_linear_4741_36225)"/>
<defs>
<radialGradient id="paint0_radial_4741_36225" cx="0" cy="0" r="1" gradientUnits="userSpaceOnUse" gradientTransform="translate(14.4612 10.2544) scale(3.2851)">
<stop stop-color="white"/>
<stop offset="1" stop-color="white" stop-opacity="0"/>
</radialGradient>
<radialGradient id="paint1_radial_4741_36225" cx="0" cy="0" r="1" gradientUnits="userSpaceOnUse" gradientTransform="translate(9.60545 16.3494) scale(1.9113)">
<stop stop-color="white"/>
<stop offset="1" stop-color="white" stop-opacity="0"/>
</radialGradient>
<linearGradient id="paint2_linear_4741_36225" x1="6.73691" y1="16.0261" x2="8.57927" y2="16.0005" gradientUnits="userSpaceOnUse">
<stop stop-color="white" stop-opacity="0"/>
<stop offset="1" stop-color="white"/>
</linearGradient>
<radialGradient id="paint3_radial_4741_36225" cx="0" cy="0" r="1" gradientUnits="userSpaceOnUse" gradientTransform="translate(9.25242 10.7421) rotate(-120) scale(3.2851)">
<stop stop-color="white"/>
<stop offset="1" stop-color="white" stop-opacity="0"/>
</radialGradient>
<radialGradient id="paint4_radial_4741_36225" cx="0" cy="0" r="1" gradientUnits="userSpaceOnUse" gradientTransform="translate(16.9582 11.9007) rotate(-120) scale(1.9113)">
<stop stop-color="white"/>
<stop offset="1" stop-color="white" stop-opacity="0"/>
</radialGradient>
<linearGradient id="paint5_linear_4741_36225" x1="18.1125" y1="14.5462" x2="17.1692" y2="12.9634" gradientUnits="userSpaceOnUse">
<stop stop-color="white" stop-opacity="0"/>
<stop offset="1" stop-color="white"/>
</linearGradient>
<radialGradient id="paint6_radial_4741_36225" cx="0" cy="0" r="1" gradientUnits="userSpaceOnUse" gradientTransform="translate(12.1261 14.8568) rotate(120) scale(3.2851)">
<stop stop-color="white"/>
<stop offset="1" stop-color="white" stop-opacity="0"/>
</radialGradient>
<radialGradient id="paint7_radial_4741_36225" cx="0" cy="0" r="1" gradientUnits="userSpaceOnUse" gradientTransform="translate(9.43112 7.75495) rotate(120) scale(1.9113)">
<stop stop-color="white"/>
<stop offset="1" stop-color="white" stop-opacity="0"/>
</radialGradient>
<linearGradient id="paint8_linear_4741_36225" x1="11.1452" y1="5.4328" x2="10.2462" y2="7.04113" gradientUnits="userSpaceOnUse">
<stop stop-color="white" stop-opacity="0"/>
<stop offset="1" stop-color="white"/>
</linearGradient>
<linearGradient id="paint9_linear_4741_36225" x1="11.5463" y1="4.61437" x2="8.73161" y2="5.4332" gradientUnits="userSpaceOnUse">
<stop stop-color="#231F20"/>
<stop offset="1" stop-color="white"/>
</linearGradient>
<linearGradient id="paint10_linear_4741_36225" x1="6.2268" y1="15.3487" x2="8.58094" y2="17.8052" gradientUnits="userSpaceOnUse">
<stop stop-color="#231F20"/>
<stop offset="1" stop-color="white"/>
</linearGradient>
<linearGradient id="paint11_linear_4741_36225" x1="18.8614" y1="14.9795" x2="19.6803" y2="12.4889" gradientUnits="userSpaceOnUse">
<stop stop-color="#231F20"/>
<stop offset="1" stop-color="white"/>
</linearGradient>
<linearGradient id="paint12_linear_4741_36225" x1="12.8289" y1="6.03844" x2="16.6027" y2="6.90252" gradientUnits="userSpaceOnUse">
<stop stop-color="#231F20"/>
<stop offset="1" stop-color="white"/>
</linearGradient>
<linearGradient id="paint13_linear_4741_36225" x1="16.7465" y1="15.6972" x2="14.1113" y2="18.5333" gradientUnits="userSpaceOnUse">
<stop stop-color="#231F20"/>
<stop offset="1" stop-color="white"/>
</linearGradient>
<linearGradient id="paint14_linear_4741_36225" x1="6.42255" y1="14.265" x2="5.28399" y2="10.5648" gradientUnits="userSpaceOnUse">
<stop stop-color="#231F20"/>
<stop offset="1" stop-color="white"/>
</linearGradient>
<linearGradient id="paint15_linear_4741_36225" x1="13.6529" y1="7.42805" x2="12.4588" y2="8.62218" gradientUnits="userSpaceOnUse">
<stop stop-color="#231F20"/>
<stop offset="1" stop-color="white"/>
</linearGradient>
<linearGradient id="paint16_linear_4741_36225" x1="7.21394" y1="12.8506" x2="8.84515" y2="13.2877" gradientUnits="userSpaceOnUse">
<stop stop-color="#231F20"/>
<stop offset="1" stop-color="white"/>
</linearGradient>
<linearGradient id="paint17_linear_4741_36225" x1="15.1275" y1="15.7128" x2="14.6904" y2="14.0816" gradientUnits="userSpaceOnUse">
<stop stop-color="#231F20"/>
<stop offset="1" stop-color="white"/>
</linearGradient>
<linearGradient id="paint18_linear_4741_36225" x1="12.6466" y1="14.2684" x2="13.3631" y2="13.279" gradientUnits="userSpaceOnUse">
<stop stop-color="#231F20"/>
<stop offset="1" stop-color="white"/>
</linearGradient>
<linearGradient id="paint19_linear_4741_36225" x1="10.1798" y1="13.8385" x2="8.74685" y2="14.5209" gradientUnits="userSpaceOnUse">
<stop stop-color="#231F20"/>
<stop offset="1" stop-color="white"/>
</linearGradient>
<linearGradient id="paint20_linear_4741_36225" x1="9.66034" y1="11.4511" x2="10.1039" y2="12.3722" gradientUnits="userSpaceOnUse">
<stop stop-color="#231F20"/>
<stop offset="1" stop-color="white"/>
</linearGradient>
<linearGradient id="paint21_linear_4741_36225" x1="11.7232" y1="8.6082" x2="11.4161" y2="7.55054" gradientUnits="userSpaceOnUse">
<stop stop-color="#231F20"/>
<stop offset="1" stop-color="white"/>
</linearGradient>
<linearGradient id="paint22_linear_4741_36225" x1="15.0324" y1="13.4492" x2="15.9195" y2="13.6539" gradientUnits="userSpaceOnUse">
<stop stop-color="#231F20"/>
<stop offset="1" stop-color="white"/>
</linearGradient>
<linearGradient id="paint23_linear_4741_36225" x1="13.6403" y1="10.455" x2="12.5144" y2="10.2503" gradientUnits="userSpaceOnUse">
<stop stop-color="#231F20"/>
<stop offset="1" stop-color="white"/>
</linearGradient>
</defs>
</svg>
