<?xml version="1.0" encoding="UTF-8" standalone="no"?>
<svg
   version="1.0"
   id="katman_1"
   x="0px"
   y="0px"
   viewBox="0 0 350 350"
   xml:space="preserve"
   width="350"
   height="350"
   xmlns="http://www.w3.org/2000/svg"
   xmlns:svg="http://www.w3.org/2000/svg"><defs
   id="defs839" />
<style
   type="text/css"
   id="style824">
	.st0{fill:#5C4B9A;}
</style>
<path
   class="st0"
   d="m 295.60438,77.603187 -98.4,-56.9 c -7.1,-4 -15,-6.2 -23.2,-6.2 -8.2,0 -16.1,2.2 -23.1,6.2 l -98.399998,56.9 c -7,4.1 -12.9,9.9 -17,17 -4.1,7.000003 -6.2,15.000003 -6.2,23.200003 v 114 c 0.1,8.1 2.2,16 6.3,23 4.1,7 9.9,12.8 16.9,16.8 l 98.399998,56.9 c 7,4.1 15,6.2 23.2,6.2 8.2,0 16.1,-2.1 23.2,-6.2 l 98.4,-56.9 c 7,-4.1 12.9,-9.9 17,-17 4.1,-7 6.2,-15 6.2,-23.2 v -114 c -0.1,-8.1 -2.2,-16 -6.3,-23.000003 -4.2,-7 -10,-12.8 -17,-16.8 z M 52.404382,117.70319 c 0,-4.1 1.1,-8.1 3.1,-11.6 2,-3.5 5,-6.500003 8.5,-8.500003 l 98.399998,-56.8 c 3.5,-2 7.5,-3.1 11.6,-3.1 4.1,0 8.1,1.1 11.6,3.1 l 98.5,56.8 c 3.5,2 6.4,4.900003 8.4,8.300003 2,3.5 3.1,7.4 3.2,11.4 v 11.6 c 0,9 -3.6,17.7 -10,24 -6.4,6.4 -15,10 -24,10 H 86.504382 c -12.3,0 -24.2,3.9 -34.1,11.3 z m 243.199998,113.7 c 0,4.1 -1.1,8.1 -3.1,11.6 -2,3.5 -5,6.5 -8.5,8.5 l -98.5,56.8 c -3.5,2 -7.5,3.1 -11.6,3.1 -4.1,0 -8.1,-1.1 -11.6,-3.1 l -98.399998,-56.8 c -3.5,-2 -6.4,-4.9 -8.4,-8.3 -2,-3.5 -3.1,-7.4 -3.2,-11.4 v -11.6 c 0,-9 3.6,-17.7 10,-24 6.4,-6.4 15,-10 24,-10 H 261.40438 c 12.3,0 24.2,-3.9 34.1,-11.3 v 56.5 z"
   id="path826" />
<path
   class="st0"
   d="m 120.20438,111.90319 h 22.5 v 33.6 h 23.2 v -33.6 c 0,-6.1 -2.4,-12.000003 -6.8,-16.400003 -4.3,-4.3 -10.2,-6.8 -16.4,-6.8 h -22.5 c -6.1,0 -12,2.4 -16.4,6.8 -4.299998,4.3 -6.799998,10.200003 -6.799998,16.400003 v 33.6 h 23.199998 z"
   id="path828" />
<path
   class="st0"
   d="m 142.60438,237.20319 h -22.5 v -33.6 H 96.904382 v 33.6 c 0,6.1 2.4,12 6.799998,16.4 4.3,4.3 10.2,6.8 16.4,6.8 h 22.5 c 6.1,0 12,-2.4 16.4,-6.8 4.3,-4.3 6.8,-10.2 6.8,-16.4 v -33.6 h -23.2 z"
   id="path830" />
<path
   class="st0"
   d="m 211.40438,111.90319 h 22.5 v 33.6 h 23.2 v -33.6 c 0,-6.1 -2.4,-12.000003 -6.8,-16.400003 -4.3,-4.3 -10.2,-6.8 -16.4,-6.8 h -22.5 c -6.1,0 -12,2.4 -16.4,6.8 -4.3,4.3 -6.8,10.200003 -6.8,16.400003 v 33.6 h 23.2 z"
   id="path832" />
<path
   class="st0"
   d="m 234.00438,237.20319 h -22.5 v -33.6 h -23.2 v 33.6 c 0,6.1 2.4,12 6.8,16.4 4.3,4.3 10.2,6.8 16.4,6.8 h 22.5 c 6.1,0 12,-2.4 16.4,-6.8 4.3,-4.3 6.8,-10.2 6.8,-16.4 v -33.6 h -23.2 z"
   id="path834" />
</svg>
