<svg width="24" height="24" viewBox="0 0 24 24" fill="none" xmlns="http://www.w3.org/2000/svg">
<path d="M5.17935 6.08798C5.28709 5.95332 5.40829 5.81865 5.52949 5.67051C5.52949 5.65704 5.54296 5.65704 5.55643 5.65704C5.56989 5.64358 5.58336 5.63011 5.59683 5.61664L5.61029 5.60318C5.69109 5.52237 5.78536 5.44157 5.87963 5.37424C6.24324 5.1049 6.60684 4.88943 6.99739 4.75476C8.24981 4.31035 9.65037 4.57969 10.7547 5.61664C12.2899 7.08454 12.1552 9.40084 10.9297 10.9361C9.38103 13.2254 6.72805 16.4306 10.4045 19.299C11.0644 19.8108 11.5627 20.2417 13.6366 20.8477C12.2764 21.1036 11.0105 21.0228 9.5965 20.6592C8.59995 20.0936 7.03779 18.895 6.49911 17.2655C5.69109 14.8011 7.91314 11.1246 8.99049 9.69712C10.4718 7.73095 8.07474 5.60318 6.32404 7.98682C5.40829 9.22577 3.80573 12.7272 4.35787 15.3128C4.68108 16.7807 5.12548 17.8581 6.84925 19.326C6.52604 19.1374 6.2163 18.9219 5.92003 18.6795C1.92036 14.9627 2.37823 9.18537 5.17935 6.08798Z" fill="url(#paint0_linear_5710_245101)"/>
<path d="M18.8207 17.8837C18.713 18.0184 18.5918 18.153 18.4706 18.3012C18.4706 18.3012 18.4571 18.3146 18.4437 18.3146C18.4302 18.3281 18.4167 18.3416 18.4033 18.355L18.3898 18.3685C18.309 18.4493 18.2147 18.5301 18.1205 18.5974C17.7569 18.8668 17.3933 19.0823 17.0027 19.2169C15.7503 19.6613 14.3363 19.392 13.2454 18.355C11.7102 16.9141 11.8449 14.5978 13.0704 13.0625C14.6191 10.7732 17.2721 7.56805 13.5956 4.69959C12.9357 4.18785 12.4374 3.75691 10.3635 3.1509C11.7237 2.89503 12.9896 2.97583 14.4036 3.33944C15.4001 3.90505 16.9623 5.1036 17.501 6.7331C18.309 9.19754 16.087 12.874 15.0096 14.3015C13.5282 16.2677 15.9254 18.3954 17.6761 16.0118C18.5918 14.7728 20.1944 11.2714 19.6422 8.6858C19.319 7.21791 18.8746 6.14055 17.1508 4.67266C17.4741 4.8612 17.7838 5.07667 18.0801 5.31907C22.0797 9.02247 21.6219 14.7998 18.8207 17.8837Z" fill="url(#paint1_linear_5710_245101)"/>
<defs>
<linearGradient id="paint0_linear_5710_245101" x1="2.99782" y1="12.7788" x2="21.004" y2="12.7788" gradientUnits="userSpaceOnUse">
<stop stop-color="#3B76BB"/>
<stop offset="1" stop-color="#69C6DE"/>
</linearGradient>
<linearGradient id="paint1_linear_5710_245101" x1="2.99725" y1="11.2031" x2="21.0034" y2="11.2031" gradientUnits="userSpaceOnUse">
<stop stop-color="#3B76BB"/>
<stop offset="1" stop-color="#69C6DE"/>
</linearGradient>
</defs>
</svg>
