<svg width="24" height="24" viewBox="0 0 24 24" fill="none" xmlns="http://www.w3.org/2000/svg">
<path d="M10.2398 12.6254C9.92234 12.9769 9.92299 13.5535 10.2418 13.9063L12.5565 16.4687C12.8752 16.8216 13.3955 16.8223 13.7136 16.4707C14.031 16.1193 14.0304 15.5427 13.7116 15.1899L11.3968 12.6274C11.0781 12.2746 10.5579 12.2739 10.2398 12.6254Z" fill="#8E9BB2"/>
<path d="M18.1189 11.6094C18.4376 11.2566 18.4382 10.6799 18.1209 10.3285C17.8034 9.97706 17.2825 9.97776 16.9638 10.3305L13.7168 13.9249C13.3981 14.2777 13.4554 14.2142 13.1374 14.5664C12.4181 15.3626 11.4342 15.2385 11.1155 14.8857C11.1155 14.8857 12.5591 16.4838 12.5598 16.4845C12.8772 16.8359 13.3981 16.8352 13.7168 16.4825L18.1189 11.6094Z" fill="url(#paint0_linear_4741_36149)"/>
<path d="M22.7604 10.3285C22.4429 9.97707 21.922 9.97777 21.6033 10.3305L19.2886 12.8929C18.9699 13.2457 18.9692 13.8217 19.2866 14.1738C19.604 14.5252 20.1249 14.5245 20.4436 14.1718L22.7584 11.6093C23.0771 11.2565 23.0777 10.6806 22.7604 10.3285Z" fill="#8E9BB2"/>
<path d="M13.7371 11.3614C14.0545 11.0099 14.0539 10.4333 13.7351 10.0805L11.4203 7.51808C11.1016 7.16523 10.5813 7.16453 10.2633 7.51608C9.94577 7.86748 9.94642 8.44413 10.2653 8.79693L12.58 11.3594C12.8988 11.7122 13.419 11.7129 13.7371 11.3614Z" fill="#8E9BB2"/>
<path d="M5.85891 12.3912C5.54019 12.744 5.53956 13.3206 5.8569 13.672C6.17436 14.0235 6.69526 14.0228 7.01396 13.67L10.2609 10.0757C10.5796 9.72281 10.5223 9.78626 10.8404 9.43416C11.5597 8.63791 12.5436 8.76201 12.8623 9.11481C12.8623 9.11481 11.4186 7.51671 11.418 7.51601C11.1005 7.16456 10.5796 7.16526 10.2609 7.518L5.85891 12.3912Z" fill="url(#paint1_linear_4741_36149)"/>
<path d="M1.23972 13.6582C1.55717 14.0096 2.07808 14.0089 2.39679 13.6562L4.71154 11.0937C5.03025 10.7409 5.03088 10.1643 4.71354 9.81286C4.39608 9.46146 3.87519 9.46211 3.55647 9.81486L1.24172 12.3773C0.923006 12.7301 0.922377 13.306 1.23972 13.6582Z" fill="#8E9BB2"/>
<defs>
<linearGradient id="paint0_linear_4741_36149" x1="11.3212" y1="19.5357" x2="19.8912" y2="10.0392" gradientUnits="userSpaceOnUse">
<stop offset="0.39" stop-color="#636F86"/>
<stop offset="1" stop-color="#8E9BB2"/>
</linearGradient>
<linearGradient id="paint1_linear_4741_36149" x1="3.09191" y1="18.914" x2="12.5695" y2="8.84211" gradientUnits="userSpaceOnUse">
<stop offset="0.31" stop-color="#8E9BB2"/>
<stop offset="1" stop-color="#FAFAFA"/>
</linearGradient>
</defs>
</svg>
