<svg width="24" height="24" viewBox="0 0 24 24" fill="none" xmlns="http://www.w3.org/2000/svg">
<path d="M18.7009 6.40643L13.4924 3.40071C12.5701 2.86643 11.4299 2.86643 10.5076 3.40071L5.29905 6.40643C4.37674 6.94072 3.80664 7.92571 3.80664 8.99129V15.0057C3.80664 16.0713 4.37674 17.0563 5.29905 17.5906L10.5076 20.5993C11.4299 21.1336 12.5701 21.1336 13.4924 20.5993L18.7009 17.5906C19.6232 17.0563 20.1933 16.0713 20.1933 15.0057V8.99129C20.1933 7.92571 19.6262 6.94072 18.7009 6.40643ZM16.134 12.597L14.5849 15.2803C14.3729 15.6504 13.9789 15.8773 13.5521 15.8773H10.4509C10.024 15.8773 9.63004 15.6504 9.41812 15.2803L7.866 12.597C7.65408 12.2268 7.65408 11.7732 7.866 11.403L9.41513 8.71968C9.62705 8.34956 10.021 8.12271 10.4479 8.12271H13.5461C13.973 8.12271 14.367 8.34956 14.5789 8.71968L16.128 11.403C16.3459 11.7732 16.3459 12.2268 16.134 12.597Z" fill="#8E9BB2"/>
<path d="M16.13 12.5836L14.5809 15.267C14.369 15.6371 13.975 15.864 13.5482 15.864H10.4469C10.0201 15.864 9.6261 15.6371 9.41418 15.267L7.86207 12.5836C7.65014 12.2135 7.65014 11.7598 7.86207 11.3897L9.41119 8.70634C9.62311 8.33622 10.0171 8.10938 10.4439 8.10938H13.5422C13.969 8.10938 14.363 8.33622 14.5749 8.70634L16.1241 11.3897C16.342 11.7598 16.342 12.2135 16.13 12.5836Z" fill="#EEF2F6"/>
</svg>
