<svg width="24" height="24" viewBox="0 0 24 24" fill="none" xmlns="http://www.w3.org/2000/svg">
<path fill-rule="evenodd" clip-rule="evenodd" d="M20.6399 12C20.6399 7.22824 16.7716 3.35999 11.9999 3.35999C7.22812 3.35999 3.35986 7.22824 3.35986 12C3.35986 16.7717 7.22812 20.64 11.9999 20.64C16.7716 20.64 20.6399 16.7717 20.6399 12ZM13.233 18.4663C13.233 19.0524 12.752 19.5289 12.0691 19.5425C12.0502 19.5427 12.0313 19.5428 12.0123 19.5429H11.9874C7.82733 19.5361 4.45701 16.1616 4.45701 12C4.45701 7.83419 7.83406 4.45714 11.9999 4.45714C12.0223 4.45714 12.0448 4.45724 12.0672 4.45744C12.8377 4.47116 13.233 4.94757 13.233 5.53368C13.233 6.13018 12.7057 6.56913 12.1471 6.56913C11.5884 6.56913 11.561 6.56913 11.0263 6.61198C10.4915 6.65484 9.93852 7.09378 9.93852 7.68852C9.93852 8.2868 10.4246 8.76859 11.0263 8.76859H15.7688C16.3687 8.76859 16.8547 9.25039 16.8547 9.84514C16.8547 10.4399 16.3687 10.9217 15.7688 10.9217H8.46405C7.86233 10.9217 7.37633 11.4052 7.37633 12.0017C7.37633 12.5965 7.86233 13.0783 8.46405 13.0783H12.1471C12.7471 13.0783 13.233 13.5601 13.233 14.1566C13.233 14.7513 12.7471 15.2332 12.1471 15.2332H11.0263C10.4246 15.2332 9.93852 15.7149 9.93852 16.3097C9.93852 16.9062 10.4366 17.3416 11.0263 17.3863C11.0727 17.3898 11.1153 17.393 11.1544 17.396C11.3619 17.4118 11.4752 17.4204 11.5888 17.4252C11.7255 17.4309 11.8625 17.4309 12.1644 17.4309C12.7644 17.4309 13.233 17.8715 13.233 18.4663Z" fill="#7133F5"/>
</svg>
