<svg width="24" height="24" viewBox="0 0 24 24" fill="none" xmlns="http://www.w3.org/2000/svg">
<path fill-rule="evenodd" clip-rule="evenodd" d="M20.3334 11.9998C20.3334 16.6022 16.6025 20.3332 12.0001 20.3332C7.39771 20.3332 3.66675 16.6022 3.66675 11.9998C3.66675 7.39746 7.39771 3.6665 12.0001 3.6665C16.6025 3.6665 20.3334 7.39746 20.3334 11.9998ZM9.44959 14.1576C8.95284 14.1576 8.54583 14.0419 8.22857 13.8104C7.91549 13.5748 7.75895 13.24 7.75895 12.8059C7.75895 12.715 7.76939 12.6034 7.79026 12.4711C7.84453 12.1735 7.92175 11.816 8.02194 11.3985C8.3058 10.2617 9.03841 9.69336 10.2198 9.69336C10.5412 9.69336 10.8292 9.7471 11.0839 9.85457C11.3385 9.95791 11.5389 10.115 11.685 10.3258C11.8311 10.5325 11.9042 10.7805 11.9042 11.0698C11.9042 11.1567 11.8937 11.2662 11.8729 11.3985C11.8102 11.7664 11.7351 12.1239 11.6474 12.4711C11.5013 13.0374 11.2488 13.4611 10.8898 13.7422C10.5308 14.0192 10.0507 14.1576 9.44959 14.1576ZM9.53726 13.2648C9.77103 13.2648 9.96931 13.1966 10.1321 13.0602C10.2991 12.9238 10.4181 12.715 10.489 12.4339C10.585 12.0454 10.6581 11.7064 10.7082 11.4171C10.7249 11.3303 10.7332 11.2414 10.7332 11.1505C10.7332 10.7743 10.5349 10.5862 10.1384 10.5862C9.90461 10.5862 9.70423 10.6544 9.53726 10.7908C9.37445 10.9272 9.25757 11.136 9.18661 11.4171C9.11147 11.694 9.03633 12.033 8.96119 12.4339C8.94449 12.5166 8.93614 12.6034 8.93614 12.6943C8.93614 13.0746 9.13651 13.2648 9.53726 13.2648ZM12.2098 14.0521C12.2348 14.081 12.2703 14.0955 12.3162 14.0955H13.1678C13.2096 14.0955 13.2492 14.081 13.2868 14.0521C13.3243 14.0231 13.3473 13.986 13.3557 13.9405L13.6437 12.5826H14.489C15.0359 12.5826 15.4658 12.4689 15.7789 12.2416C16.0962 12.0142 16.307 11.6629 16.4114 11.1875C16.4364 11.0759 16.4489 10.9684 16.4489 10.8651C16.4489 10.5055 16.307 10.2306 16.0231 10.0404C15.7434 9.85028 15.3719 9.75521 14.9085 9.75521H13.243C13.2012 9.75521 13.1616 9.76968 13.124 9.79861C13.0864 9.82755 13.0635 9.86475 13.0551 9.91022L12.191 13.9405C12.1826 13.9818 12.1889 14.019 12.2098 14.0521ZM14.9899 11.5843C14.8605 11.6794 14.7082 11.7269 14.5328 11.7269H13.8128L14.0507 10.6171H14.8021C14.9732 10.6171 15.0943 10.6501 15.1653 10.7163C15.2362 10.7783 15.2717 10.8692 15.2717 10.9891C15.2717 11.0428 15.2655 11.1048 15.2529 11.1751C15.2112 11.3528 15.1235 11.4893 14.9899 11.5843Z" fill="#878888"/>
</svg>
