<svg width="24" height="24" viewBox="0 0 24 24" fill="none" xmlns="http://www.w3.org/2000/svg">
<path d="M6.3181 6.0584C7.9457 7.66916 10.549 9.04313 13.6937 9.98488C12.0508 9.06385 10.5275 7.91772 9.19384 6.59349C8.69834 6.1012 8.2216 5.57716 7.77613 5.03587L7.46617 4.6582C6.94565 4.97649 6.46335 5.34932 6.02344 5.76635L6.31881 6.0584H6.3181Z" fill="#8E9BB2"/>
<path d="M3.36011 12.6194C3.48659 14.3841 4.1468 16.0011 5.18298 17.3129L5.45262 17.0471C6.46032 16.055 7.77379 15.154 9.35621 14.3676C10.7447 13.6778 12.3376 13.0868 14.0541 12.6194H3.36011Z" fill="#8E9BB2"/>
<path d="M13.6932 14.0156C10.5485 14.9581 7.94591 16.3313 6.31832 17.9421L6.02295 18.2342C6.46286 18.6512 6.94587 19.024 7.46639 19.3423L7.77634 18.9653C8.2218 18.424 8.69854 17.9 9.19405 17.407C10.527 16.0828 12.051 14.9367 13.6932 14.0156Z" fill="#8E9BB2"/>
<path d="M8.79858 4.32082C9.20096 4.80551 9.63045 5.2757 10.0759 5.71757C12.8919 8.51518 16.4355 10.3649 20.323 11.0656L20.6399 11.1229C20.1973 6.77531 16.5022 3.38184 12.0093 3.38184C10.7973 3.38184 9.64297 3.6297 8.59497 4.07572L8.7979 4.32013L8.79858 4.32082Z" fill="#8E9BB2"/>
<path d="M14.0541 11.3803C12.3376 10.9129 10.7447 10.3219 9.35621 9.63219C7.7731 8.84578 6.46032 7.94407 5.45262 6.95262L5.18298 6.6875C4.1468 7.99862 3.48589 9.61561 3.36011 11.3803H14.0541Z" fill="#8E9BB2"/>
<path d="M20.3224 12.935C16.4348 13.6358 12.8919 15.4847 10.0752 18.2831C9.62837 18.727 9.19889 19.1972 8.7979 19.6798L8.59497 19.9242C9.64297 20.3702 10.7966 20.6182 12.0086 20.6182C16.5015 20.6182 20.1959 17.2253 20.6386 12.8777L20.3217 12.9343L20.3224 12.935Z" fill="#8E9BB2"/>
</svg>
