<svg width="24" height="24" viewBox="0 0 24 24" fill="none" xmlns="http://www.w3.org/2000/svg">
<path fill-rule="evenodd" clip-rule="evenodd" d="M3.89355 4.7947C3.89355 4.00117 4.53936 3.35938 5.33443 3.35938C6.13103 3.35938 6.77684 4.00117 6.77531 4.7947V17.7559H13.75C14.542 17.7559 15.1853 18.4001 15.1853 19.1967C15.1853 19.9933 14.5435 20.6376 13.75 20.6376H5.40642C5.38257 20.6388 5.35857 20.6394 5.33443 20.6394C4.53936 20.6394 3.89355 19.9976 3.89355 19.2041V4.7947ZM10.5617 4.7947C10.5617 4.00269 11.206 3.35938 12.0026 3.35938C12.7992 3.35938 13.4435 4.00117 13.4435 4.7947V13.2139C13.4435 14.0059 12.7992 14.6493 12.0026 14.6493C11.2075 14.6493 10.5617 14.0075 10.5617 13.2139V4.7947ZM18.6658 3.35938C17.8692 3.35938 17.2249 4.00269 17.2249 4.7947V13.2139C17.2249 14.0075 17.8707 14.6493 18.6658 14.6493C19.4624 14.6493 20.1067 14.0059 20.1067 13.2139V4.7947C20.1067 4.00117 19.4624 3.35938 18.6658 3.35938Z" fill="url(#paint0_linear_6635_158336)"/>
<defs>
<linearGradient id="paint0_linear_6635_158336" x1="3.89355" y1="11.9994" x2="20.1075" y2="3.36106" gradientUnits="userSpaceOnUse">
<stop stop-color="#4400E2"/>
<stop offset="0.421875" stop-color="#F94E6C"/>
<stop offset="1" stop-color="#FFCB00"/>
</linearGradient>
</defs>
</svg>
