<svg width="24" height="24" viewBox="0 0 24 24" fill="none" xmlns="http://www.w3.org/2000/svg">
<path fill-rule="evenodd" clip-rule="evenodd" d="M4.90122 16.7901C4.79537 16.6698 4.68952 16.5483 4.58969 16.4232C2.08903 13.6604 1.67286 8.50628 5.25123 5.17206C5.52068 4.95796 5.79853 4.76672 6.08358 4.59832C4.54278 5.91421 4.15427 6.87285 3.86319 8.18753C3.36522 10.5054 4.79898 13.6315 5.6193 14.7357C7.18778 16.855 9.31916 14.957 8.00208 13.2033C7.04344 11.9367 5.0588 8.64701 5.77808 6.44586C6.25439 4.99405 7.65206 3.91993 8.54096 3.41836C9.7979 3.0972 10.9261 3.02744 12.1446 3.25237C10.3569 3.76858 9.88199 4.13954 9.3232 4.57603L9.323 4.5762C9.29984 4.59428 9.27656 4.61247 9.25302 4.6308C6.20783 7.0041 8.02102 9.63234 9.40324 11.6359C9.51316 11.7952 9.62032 11.9505 9.72213 12.1015C10.8155 13.4763 10.9382 15.544 9.56817 16.8286C8.58666 17.7547 7.33572 17.9977 6.21229 17.6032C5.86108 17.4817 5.52908 17.2965 5.20914 17.0535C5.11892 16.9886 5.03954 16.9152 4.96617 16.8466L4.95655 16.8346C4.95174 16.8286 4.94542 16.8238 4.93911 16.8189C4.93279 16.8141 4.92648 16.8093 4.92167 16.8033C4.91926 16.8003 4.91535 16.7985 4.91144 16.7967C4.90753 16.7949 4.90363 16.7931 4.90122 16.7901ZM16.4597 5.53208C16.5655 5.65237 16.6714 5.77386 16.7712 5.89895C18.153 7.42564 18.8979 9.68281 18.6842 11.9594C18.2956 11.8469 17.8876 11.7798 17.4665 11.7645C17.1431 10.03 16.2993 8.33887 15.7404 7.58649C14.1719 5.46714 12.0405 7.36519 13.3576 9.1189C13.8485 9.76746 14.6084 10.9466 15.1366 12.2383C14.5203 12.5283 13.9722 12.9396 13.5233 13.4412C13.1794 12.4572 12.5313 11.5179 11.9576 10.6862L11.9571 10.6856C11.8474 10.5265 11.7404 10.3714 11.6388 10.2207C10.5454 8.84585 10.4227 6.77822 11.7927 5.4936C12.7742 4.56743 14.0252 4.32446 15.1486 4.71898C15.4986 4.84047 15.8318 5.0257 16.1517 5.26867C16.242 5.33362 16.3214 5.407 16.3947 5.47556L16.4044 5.48758C16.4092 5.4936 16.4155 5.49841 16.4218 5.50322C16.4281 5.50803 16.4344 5.51284 16.4392 5.51886C16.4416 5.52185 16.4455 5.52368 16.4494 5.52548C16.4534 5.52728 16.4573 5.52908 16.4597 5.53208ZM12.2938 17.5402C12.2336 17.5907 12.1712 17.6411 12.1067 17.6914C12.0854 17.7079 12.0644 17.7244 12.0435 17.7407L12.0411 17.7426L12.0395 17.7439C11.4804 18.1813 11.0059 18.5527 9.2151 19.0698C10.3985 19.2883 11.4969 19.2287 12.7107 18.9309C12.5083 18.4974 12.3658 18.0303 12.2938 17.5402Z" fill="url(#paint0_linear_5710_245076)"/>
<path d="M17.28 20.8808C19.5333 20.8808 21.36 19.0541 21.36 16.8007C21.36 14.5474 19.5333 12.7207 17.28 12.7207C15.0266 12.7207 13.2 14.5474 13.2 16.8007C13.2 19.0541 15.0266 20.8808 17.28 20.8808Z" fill="#878888"/>
<path d="M17.28 14.6406L17.251 14.7391V17.5955L17.28 17.6245L18.6059 16.8407L17.28 14.6406Z" fill="#DDDDDD"/>
<path d="M17.2801 14.6406L15.9541 16.8407L17.2801 17.6245V16.238V14.6406Z" fill="white"/>
<path d="M17.2793 17.8751L17.2629 17.8951V18.9126L17.2793 18.9603L18.606 17.0918L17.2793 17.8751Z" fill="#DDDDDD"/>
<path d="M17.2801 18.9603V17.8751L15.9541 17.0918L17.2801 18.9603Z" fill="white"/>
<path d="M17.2793 17.6247L18.6052 16.841L17.2793 16.2383V17.6247Z" fill="#B0B1B1"/>
<path d="M15.9541 16.841L17.2801 17.6247V16.2383L15.9541 16.841Z" fill="#DDDDDD"/>
<defs>
<linearGradient id="paint0_linear_5710_245076" x1="10.6802" y1="3.12109" x2="10.6802" y2="19.2011" gradientUnits="userSpaceOnUse">
<stop stop-color="#DDDDDD"/>
<stop offset="1" stop-color="#B0B1B1"/>
</linearGradient>
</defs>
</svg>
