<svg width="24" height="24" viewBox="0 0 24 24" fill="none" xmlns="http://www.w3.org/2000/svg">
<path d="M20.6217 16.9596L17.5374 12.769C17.2024 12.3137 16.7062 12.0409 16.1777 11.9807C16.0575 11.9668 15.9501 11.897 15.8899 11.7917C15.8287 11.6865 15.8223 11.5587 15.8706 11.447C16.0822 10.9594 16.095 10.3934 15.8674 9.87576L13.7806 5.10949C13.4713 4.40175 12.7722 3.94531 12 3.94531C11.2278 3.94531 10.5287 4.40282 10.2194 5.10949L8.13266 9.87576C7.90605 10.3934 7.91787 10.9594 8.12944 11.447C8.17776 11.5587 8.17025 11.6865 8.11011 11.7917C8.04889 11.897 7.94257 11.9668 7.82229 11.9807C7.2939 12.0409 6.79773 12.3137 6.46264 12.769L3.37822 16.9596C2.92071 17.5815 2.87453 18.4148 3.26008 19.084C3.64671 19.752 4.39203 20.1289 5.15884 20.0441L10.33 19.4684C10.8917 19.4061 11.376 19.113 11.6918 18.6855C11.7637 18.5878 11.8787 18.5297 12 18.5297C12.1214 18.5297 12.2352 18.5878 12.3082 18.6855C12.624 19.113 13.1083 19.4061 13.67 19.4684L18.8411 20.0441C19.608 20.13 20.3533 19.753 20.7399 19.084C21.1255 18.4148 21.0793 17.5815 20.6217 16.9596ZM9.48156 10.474L11.5715 5.70232C11.6467 5.53157 11.8153 5.42094 12.0011 5.42094C12.1869 5.42094 12.3555 5.53157 12.4307 5.70232L14.5206 10.474C14.5861 10.6243 14.5722 10.7983 14.482 10.9357C14.3917 11.0732 14.2392 11.1559 14.0738 11.1559H9.92726C9.76294 11.1559 9.60937 11.0732 9.51915 10.9357C9.42894 10.7983 9.41604 10.6243 9.48156 10.474ZM10.5545 17.7383C10.4803 17.8854 10.3364 17.9842 10.1732 18.0024L4.99669 18.5781C4.81196 18.5985 4.63153 18.5083 4.5381 18.3473C4.44467 18.1861 4.45648 17.9853 4.56709 17.8349L7.65475 13.64C7.75248 13.5079 7.90928 13.4327 8.0736 13.4424C8.23791 13.451 8.38612 13.5423 8.46882 13.6851L8.47203 13.6905L10.5394 17.2711L10.5426 17.2764C10.6253 17.4192 10.6296 17.5932 10.5555 17.7393L10.5545 17.7383ZM12.4253 16.1187C12.3372 16.2701 12.1762 16.3646 12 16.3646C11.825 16.3646 11.6628 16.2712 11.5747 16.1198L9.98633 13.3694C9.89827 13.2179 9.89827 13.03 9.98633 12.8786C10.0744 12.7271 10.2355 12.6326 10.4116 12.6326H13.5873C13.7624 12.6326 13.9246 12.725 14.0126 12.8775C14.1007 13.03 14.1007 13.2169 14.0126 13.3683L12.4253 16.1187ZM19.4631 18.3473C19.3696 18.5083 19.1902 18.5996 19.0044 18.5792L13.8279 18.0035C13.6647 17.9853 13.5208 17.8865 13.4466 17.7393C13.3725 17.5922 13.3768 17.4183 13.4595 17.2764L13.4627 17.2711L15.5301 13.6905L15.5334 13.6851C15.6161 13.5423 15.7643 13.451 15.9286 13.4424C16.0929 13.4338 16.2497 13.5079 16.3474 13.64L19.4351 17.8349C19.5457 17.9853 19.5554 18.1861 19.4631 18.3473Z" fill="#E81899"/>
</svg>
