<svg width="24" height="24" viewBox="0 0 24 24" fill="none" xmlns="http://www.w3.org/2000/svg">
<path fill-rule="evenodd" clip-rule="evenodd" d="M14.4735 12.6785C14.5058 12.5602 14.53 12.4381 14.5454 12.3127C14.5608 12.1874 14.5669 12.063 14.5642 11.9404L17.2791 11.8806C17.2846 12.1334 17.2721 12.3884 17.2407 12.6437C17.2093 12.8991 17.1598 13.1496 17.0933 13.3935L14.4735 12.6785ZM14.4817 11.3506L17.1085 10.6623C16.977 10.1604 16.7735 9.68624 16.5093 9.25289L14.1907 10.6665C14.3193 10.8775 14.418 11.1077 14.4817 11.3506ZM13.824 10.1971L15.7566 8.2895C15.4001 7.9283 14.9893 7.61607 14.5341 7.36702L13.2306 9.74925C13.4509 9.86977 13.6504 10.0212 13.824 10.1971ZM12.6784 9.52644L13.3933 6.90673C13.1494 6.84014 12.899 6.79063 12.6436 6.75927C12.3882 6.7279 12.1332 6.71534 11.8804 6.72091L11.9402 9.43578C12.0628 9.43308 12.1872 9.43915 12.3125 9.45455C12.4379 9.46994 12.56 9.49414 12.6784 9.52644ZM11.3504 9.51832L10.6621 6.89147C10.1602 7.02298 9.68605 7.22651 9.2527 7.49071L10.6663 9.80932C10.8773 9.68066 11.1075 9.58196 11.3504 9.51832ZM10.197 10.176L8.28931 8.24334C7.9281 8.59988 7.61588 9.01068 7.36683 9.46583L9.74905 10.7693C9.86957 10.5491 10.021 10.3496 10.197 10.176ZM9.52624 11.3216L6.90653 10.6066C6.83995 10.8506 6.79044 11.101 6.75907 11.3564C6.72771 11.6118 6.71514 11.8668 6.72071 12.1196L9.43558 12.0598C9.43288 11.9372 9.43896 11.8128 9.45435 11.6875C9.46975 11.5621 9.49394 11.44 9.52624 11.3216ZM9.51813 12.6496L6.89127 13.3379C7.02278 13.8398 7.22632 14.3139 7.49051 14.7473L9.80913 13.3337C9.68046 13.1227 9.58176 12.8925 9.51813 12.6496ZM10.1758 13.803L8.24315 15.7107C8.59969 16.0719 9.01049 16.3841 9.46564 16.6332L10.7691 14.2509C10.5489 14.1304 10.3494 13.9789 10.1758 13.803ZM11.3214 14.4737L10.6064 17.0935C10.8504 17.16 11.1008 17.2095 11.3562 17.2409C11.6116 17.2723 11.8666 17.2848 12.1194 17.2793L12.0596 14.5644C11.937 14.5671 11.8126 14.561 11.6873 14.5456C11.5619 14.5302 11.4398 14.506 11.3214 14.4737ZM12.6494 14.4819L13.3377 17.1087C13.8396 16.9772 14.3137 16.7737 14.7471 16.5095L13.3335 14.1909C13.1225 14.3195 12.8923 14.4182 12.6494 14.4819ZM13.8028 13.8242L15.7105 15.7568C16.0717 15.4003 16.3839 14.9895 16.633 14.5343L14.2507 13.2308C14.1302 13.4511 13.9787 13.6506 13.8028 13.8242Z" fill="#DDDDDD"/>
<path fill-rule="evenodd" clip-rule="evenodd" d="M17.2134 12.8643C17.2377 12.7165 17.256 12.5666 17.2679 12.4146C17.2799 12.2626 17.2853 12.1116 17.2844 11.9619L19.9999 11.9454C20.0012 12.1716 19.9931 12.3992 19.9751 12.6277C19.9571 12.8561 19.9296 13.0822 19.8928 13.3054L17.2134 12.8643ZM17.226 11.2102L19.9114 10.8068C19.8427 10.3491 19.7348 9.90286 19.5913 9.47218L17.0151 10.3309C17.1097 10.6147 17.1807 10.9086 17.226 11.2102ZM16.726 9.63443L19.1532 8.41665C18.9476 8.00692 18.7079 7.61701 18.4376 7.25083L16.2528 8.86356C16.4317 9.10592 16.5902 9.36378 16.726 9.63443ZM15.7631 8.2902L17.6978 6.38461C17.3784 6.06036 17.0308 5.7626 16.6582 5.49546L15.0758 7.70223C15.3218 7.8787 15.5517 8.07558 15.7631 8.2902ZM14.4331 7.30775L15.6842 4.89761C15.2813 4.68845 14.8575 4.51214 14.4162 4.37263L13.5976 6.96186C13.8884 7.05378 14.1676 7.16992 14.4331 7.30775ZM12.8643 6.78665L13.3054 4.10718C13.0822 4.07043 12.8561 4.04291 12.6277 4.02493C12.3992 4.00695 12.1716 3.99877 11.9454 4.00015L11.9619 6.71563C12.1116 6.71472 12.2626 6.72013 12.4146 6.73209C12.5666 6.74405 12.7165 6.76233 12.8643 6.78665ZM11.2102 6.77397L10.8068 4.08857C10.3491 4.15733 9.90286 4.26515 9.47218 4.40871L10.3309 6.9849C10.6147 6.8903 10.9086 6.81927 11.2102 6.77397ZM9.63443 7.27399L8.41665 4.84683C8.00692 5.0524 7.61701 5.29212 7.25083 5.56242L8.86356 7.74719C9.10592 7.56828 9.36378 7.40979 9.63443 7.27399ZM8.2902 8.23688L6.38461 6.30224C6.06036 6.62163 5.7626 6.96923 5.49546 7.34176L7.70223 8.92424C7.87869 8.67817 8.07558 8.44828 8.2902 8.23688ZM7.30775 9.56688L4.89761 8.31576C4.68845 8.71869 4.51214 9.14254 4.37263 9.58384L6.96186 10.4024C7.05378 10.1116 7.16992 9.83241 7.30775 9.56688ZM6.78665 11.1357C6.76233 11.2835 6.74405 11.4334 6.73209 11.5854C6.72013 11.7374 6.71472 11.8884 6.71563 12.0381L4.00015 12.0546C3.99877 11.8284 4.00695 11.6008 4.02493 11.3723C4.04291 11.1439 4.07043 10.9178 4.10718 10.6946L6.78665 11.1357ZM6.77397 12.7898L4.08857 13.1932C4.15733 13.6509 4.26515 14.0971 4.40871 14.5278L6.9849 13.6691C6.8903 13.3853 6.81927 13.0914 6.77397 12.7898ZM7.27399 14.3656L4.84683 15.5834C5.0524 15.9931 5.29212 16.383 5.56242 16.7492L7.74719 15.1364C7.56829 14.8941 7.40979 14.6362 7.27399 14.3656ZM8.23688 15.7098L6.30224 17.6154C6.62163 17.9396 6.96923 18.2374 7.34176 18.5045L8.92424 16.2978C8.67817 16.1213 8.44828 15.9244 8.23688 15.7098ZM9.56688 16.6922L8.31576 19.1024C8.71869 19.3116 9.14254 19.4879 9.58384 19.6274L10.4024 17.0381C10.1116 16.9462 9.83241 16.8301 9.56688 16.6922ZM11.1357 17.2134L10.6946 19.8928C10.9178 19.9296 11.1439 19.9571 11.3723 19.9751C11.6008 19.9931 11.8284 20.0012 12.0546 19.9999L12.0381 17.2844C11.8884 17.2853 11.7374 17.2799 11.5854 17.2679C11.4334 17.256 11.2835 17.2377 11.1357 17.2134ZM12.7898 17.226L13.1932 19.9114C13.6509 19.8427 14.0971 19.7348 14.5278 19.5913L13.6691 17.0151C13.3853 17.1097 13.0914 17.1807 12.7898 17.226ZM14.3656 16.726L15.5834 19.1532C15.9931 18.9476 16.383 18.7079 16.7492 18.4376L15.1364 16.2528C14.8941 16.4317 14.6362 16.5902 14.3656 16.726ZM15.7098 15.7631L17.6154 17.6978C17.9396 17.3784 18.2374 17.0308 18.5045 16.6582L16.2978 15.0758C16.1213 15.3218 15.9244 15.5517 15.7098 15.7631ZM16.6922 14.4331L19.1024 15.6842C19.3116 15.2813 19.4879 14.8575 19.6274 14.4162L17.0381 13.5976C16.9462 13.8884 16.8301 14.1676 16.6922 14.4331Z" fill="#DDDDDD"/>
</svg>
