<svg width="24" height="24" viewBox="0 0 24 24" fill="none" xmlns="http://www.w3.org/2000/svg">
<path d="M22.0563 11.3159C21.6785 5.76196 16.8699 1.56577 11.3159 1.94356C8.54913 2.13174 6.11981 3.41995 4.42456 5.35166L4.42457 5.35164L4.41983 5.34823C4.40841 5.36404 4.39774 5.37963 4.3864 5.39542C2.70247 7.33656 1.75538 9.91759 1.94354 12.684C1.96148 12.9475 1.9925 13.207 2.03 13.4641C2.03001 13.4642 2.03001 13.4642 2.03002 13.4643C2.03171 13.4759 2.03343 13.4875 2.03507 13.4991C2.06041 13.6688 2.08984 13.8369 2.12342 14.0035C2.12344 14.0036 2.12345 14.0037 2.12348 14.0038C2.12409 14.0068 2.12467 14.0098 2.12527 14.0128C2.15584 14.1637 2.1898 14.3132 2.22696 14.4614L2.22702 14.4617C2.22706 14.4618 2.22709 14.4619 2.22711 14.462C3.39124 19.1045 7.74093 22.3925 12.6839 22.0563C18.2379 21.6785 22.4341 16.8699 22.0563 11.3159H22.0563ZM19.8622 11.4651C19.9087 12.1489 19.8657 12.8184 19.7439 13.4625C19.7424 13.4588 19.7412 13.455 19.7397 13.4513V13.4513C19.009 11.665 17.5634 10.3754 16.2922 9.66303C16.5495 6.63635 15.5227 5.36123 14.3606 5.15376C14.329 5.14767 14.2972 5.14248 14.2649 5.13848C13.3425 5.02018 12.499 5.67214 12.3809 6.59444C12.2626 7.51678 12.9145 8.36028 13.8368 8.47863C13.9173 8.4888 13.9969 8.49163 14.0757 8.49039C14.0808 8.59256 14.084 8.7011 14.0849 8.8146C13.0103 8.5483 12.0059 8.49619 11.09 8.57852C10.7476 8.60135 10.4048 8.64451 10.064 8.70819C10.1783 7.68617 10.5618 6.53874 11.3058 5.69904C12.0251 4.88732 13.0944 4.42206 14.2609 4.54146C14.4821 4.56408 14.718 4.61838 14.9305 4.68972C14.9402 4.693 14.9506 4.69577 14.9602 4.69913C14.9604 4.69894 14.9606 4.69868 14.9607 4.69849C17.6627 5.7992 19.6512 8.36351 19.8622 11.4651V11.4651ZM12.8365 13.0048C12.8358 13.0058 12.835 13.0069 12.8343 13.008C12.5938 13.3549 12.3077 13.697 11.9719 14.0278C11.4686 13.4922 11.0642 12.9155 10.7574 12.3188C10.7417 12.2868 10.7249 12.2564 10.7095 12.2239C10.709 12.2227 10.7084 12.2215 10.7078 12.2203C10.5276 11.8385 10.3744 11.4195 10.2557 10.9631C10.972 10.7946 11.6744 10.7326 12.3453 10.7653C12.3808 10.7677 12.4155 10.7684 12.4514 10.7713C12.4527 10.7714 12.454 10.7715 12.4553 10.7716C12.8755 10.8064 13.3142 10.883 13.768 11.0081C13.5558 11.7124 13.2583 12.3515 12.8948 12.9159C12.875 12.9455 12.857 12.9752 12.8365 13.0048V13.0048ZM9.39219 4.56487C9.39031 4.56729 9.38817 4.56959 9.3863 4.57202L9.38628 4.57203C8.20534 6.09723 7.81107 7.99274 7.8293 9.44955C5.07964 10.7401 4.48879 12.2668 4.89019 13.377C4.90071 13.4073 4.91213 13.4375 4.9248 13.4675C5.28353 14.3254 6.26988 14.7299 7.12769 14.3711C7.98562 14.0124 8.39012 13.026 8.03148 12.1681C8.00006 12.0933 7.96272 12.023 7.92224 11.9553C8.00914 11.8992 8.10246 11.8415 8.20156 11.7833C8.50822 12.8473 8.96191 13.7472 9.49119 14.4992C9.68183 14.7839 9.89013 15.0585 10.1152 15.3214C9.17283 15.7336 7.98715 15.9754 6.88769 15.7508C5.82508 15.5338 4.8875 14.8403 4.40763 13.7704C4.31667 13.5676 4.24574 13.3361 4.20129 13.1165C4.17394 12.9246 4.15102 12.7312 4.13767 12.5347C3.89205 8.92395 6.1322 5.70948 9.39219 4.56487V4.56487ZM12.5347 19.8622C10.3905 20.008 8.38624 19.2767 6.87144 17.9767C8.7828 18.2368 10.6215 17.6305 11.874 16.8863C14.3675 18.6237 15.9858 18.3722 16.7467 17.4693C16.7677 17.445 16.7882 17.42 16.8078 17.394C17.3714 16.6544 17.2285 15.5979 16.4889 15.0345C15.7492 14.4708 14.6928 14.6137 14.1291 15.3532C14.0801 15.4178 14.0378 15.4854 13.9995 15.5542C13.908 15.5074 13.812 15.4557 13.7128 15.3994C14.4815 14.6015 15.0293 13.7571 15.4162 12.9222C15.5677 12.6142 15.7017 12.2958 15.8169 11.9688C16.6455 12.5788 17.4485 13.4851 17.8039 14.5501C18.1473 15.5789 18.0155 16.7376 17.3289 17.6881C17.1987 17.8683 17.0337 18.0455 16.8657 18.1938C16.8633 18.196 16.8609 18.1982 16.8585 18.2005C15.6571 19.1447 14.1708 19.7509 12.5347 19.8622V19.8622Z" fill="url(#paint0_linear_6199_178261)"/>
<path style="mix-blend-mode:overlay" opacity="0.9" d="M14.3509 5.15758C14.3193 5.1515 14.2875 5.14631 14.2552 5.1423C14.092 5.12137 13.9315 5.12569 13.7768 5.15022C14.7411 5.6748 15.4442 7.13643 15.0745 10.0196C14.9521 10.9745 14.6682 11.8832 14.2581 12.7171C13.9259 13.434 13.4738 14.1579 12.8662 14.8534C13.158 15.0723 13.4426 15.2555 13.7031 15.4032C14.4718 14.6053 15.0196 13.7609 15.4065 12.926C15.8165 12.0922 16.1005 11.1835 16.2229 10.2286C16.663 6.79567 15.5826 5.37747 14.3509 5.15758V5.15758Z" fill="url(#paint1_radial_6199_178261)"/>
<g style="mix-blend-mode:overlay" opacity="0.8">
<path d="M15.0877 10.0178C15.4573 7.13465 14.7543 5.67302 13.79 5.14844C13.7524 5.15441 13.7154 5.16243 13.6785 5.1709C14.6226 5.71358 15.3018 7.17383 14.9372 10.0178C14.8148 10.9727 14.5309 11.8814 14.1208 12.7153C13.7996 13.4085 13.3651 14.108 12.7876 14.7823C12.8183 14.8061 12.8488 14.8287 12.8794 14.8517C13.487 14.1561 13.9391 13.4322 14.2713 12.7153C14.6814 11.8814 14.9653 10.9727 15.0877 10.0178V10.0178Z" fill="white"/>
</g>
<path style="mix-blend-mode:overlay" opacity="0.5" d="M11.4377 16.5652C11.347 16.4961 11.2598 16.4238 11.1726 16.3516C9.74959 16.9453 7.77689 17.3175 5.81812 16.863C6.13887 17.2718 6.49684 17.6494 6.89004 17.9868C8.80139 18.2469 10.6401 17.6406 11.8926 16.8964C11.7439 16.7928 11.5926 16.6832 11.4377 16.5652V16.5652Z" fill="url(#paint2_radial_6199_178261)"/>
<path style="mix-blend-mode:overlay" opacity="0.6" d="M11.1607 16.3412C11.1171 16.3051 11.0732 16.2693 11.0305 16.2324C9.5967 16.8054 7.61502 17.1479 5.66064 16.6609C5.70826 16.7255 5.75668 16.7895 5.80619 16.8526C7.76497 17.3072 9.73767 16.9349 11.1607 16.3412V16.3412Z" fill="url(#paint3_linear_6199_178261)"/>
<path style="mix-blend-mode:overlay" opacity="0.9" d="M4.8685 13.3889C4.87902 13.4193 4.89044 13.4495 4.90312 13.4794C4.9666 13.6312 5.05056 13.768 5.14914 13.8897C5.1213 12.7923 6.03559 11.4527 8.71728 10.3312C9.60548 9.95977 10.5344 9.7513 11.4616 9.68948C12.2486 9.61873 13.1015 9.6483 14.0077 9.82674C14.0513 9.4646 14.0677 9.12656 14.0654 8.82706C12.99 8.56029 11.9848 8.5081 11.0683 8.59049C10.1412 8.65231 9.21227 8.86077 8.32407 9.23219C5.13107 10.5675 4.44308 12.2123 4.8685 13.3889L4.8685 13.3889Z" fill="url(#paint4_radial_6199_178261)"/>
<g style="mix-blend-mode:overlay" opacity="0.8">
<path d="M8.71744 10.3354C6.03575 11.4569 5.12145 12.7966 5.1493 13.894C5.17329 13.9236 5.19871 13.9516 5.22449 13.9793C5.22245 12.8904 6.14743 11.572 8.79268 10.4658C9.68087 10.0943 10.6098 9.88587 11.537 9.82405C12.2979 9.75563 13.1209 9.78217 13.9937 9.94516C13.9989 9.90668 14.0033 9.86891 14.0078 9.83098C13.1016 9.65255 12.2488 9.62298 11.4617 9.69373C10.5346 9.75555 9.60563 9.96402 8.71744 10.3354Z" fill="white"/>
</g>
<path style="mix-blend-mode:overlay" opacity="0.4" d="M16.2263 10.2354C16.2118 10.3484 16.1928 10.4601 16.1738 10.5717C17.3995 11.5072 18.7083 13.0295 19.294 14.9532C19.4877 14.471 19.6356 13.9722 19.7313 13.4629C19.0009 11.6776 17.5565 10.3884 16.2857 9.67578C16.2703 9.85635 16.251 10.0422 16.2263 10.2354V10.2354Z" fill="url(#paint5_radial_6199_178261)"/>
<path style="mix-blend-mode:overlay" opacity="0.5" d="M16.1634 10.5625C16.1539 10.6183 16.1449 10.6742 16.1343 10.7296C17.3474 11.6849 18.6349 13.2298 19.1902 15.1659C19.2224 15.0923 19.2536 15.0184 19.2835 14.9439C18.6978 13.0203 17.3891 11.498 16.1634 10.5625V10.5625Z" fill="url(#paint6_linear_6199_178261)"/>
<path style="mix-blend-mode:overlay" opacity="0.9" d="M16.7295 17.4833C16.7506 17.459 16.771 17.434 16.7906 17.4081C16.8903 17.2772 16.9668 17.1361 17.0229 16.9898C16.0865 17.5627 14.4691 17.4407 12.1571 15.679C11.3913 15.0955 10.7463 14.3953 10.2292 13.6233C9.7744 12.977 9.37357 12.2236 9.07499 11.3496C8.73956 11.4929 8.43862 11.6477 8.18042 11.7995C8.48708 12.8642 8.94447 13.7608 9.47404 14.5133C9.99115 15.2853 10.6362 15.9856 11.4019 16.569C14.1548 18.6666 15.9233 18.44 16.7295 17.4833V17.4833Z" fill="url(#paint7_radial_6199_178261)"/>
<g style="mix-blend-mode:overlay" opacity="0.8">
<path d="M12.1683 15.6652C14.4803 17.4269 16.0977 17.5489 17.0341 16.9761C17.0478 16.9405 17.0593 16.9045 17.0704 16.8683C16.1284 17.4145 14.5242 17.2726 12.2435 15.5349C11.4777 14.9514 10.8327 14.2512 10.3156 13.4791C9.87588 12.8543 9.48738 12.1283 9.19216 11.291C9.15621 11.3057 9.12131 11.3208 9.08618 11.3358C9.38476 12.2098 9.78559 12.9632 10.2404 13.6095C10.7575 14.3815 11.4025 15.0817 12.1683 15.6652V15.6652Z" fill="white"/>
</g>
<path style="mix-blend-mode:overlay" opacity="0.3" d="M8.34113 9.23823C8.44624 9.19427 8.55244 9.15489 8.65862 9.11549C8.85596 7.58626 9.51992 5.69172 10.893 4.22266C10.3785 4.29601 9.87258 4.41725 9.38374 4.58904C8.20278 6.11426 7.80854 8.00978 7.82677 9.46659C7.99084 9.38963 8.16144 9.31338 8.34113 9.23823V9.23823Z" fill="url(#paint8_radial_6199_178261)"/>
<path style="mix-blend-mode:overlay" opacity="0.4" d="M8.65308 9.1066C8.70615 9.08692 8.75907 9.06681 8.81239 9.04825C9.03306 7.52003 9.72727 5.6326 11.1263 4.18359C11.0465 4.1925 10.9668 4.20244 10.8874 4.21376C9.51438 5.68282 8.85041 7.57736 8.65308 9.1066V9.1066Z" fill="url(#paint9_linear_6199_178261)"/>
<path style="mix-blend-mode:multiply" opacity="0.4" d="M11.3302 1.94344C8.56346 2.13163 6.13414 3.41984 4.43889 5.35154C4.42608 5.36614 4.41335 5.38077 4.40063 5.39545L4.40074 5.39531C4.73078 5.72269 5.80941 6.36822 6.24659 6.63741C7.10495 5.71429 8.18403 4.99399 9.40653 4.56475C9.49192 4.45474 9.58041 4.3462 9.67414 4.2404C10.8128 2.95558 12.3676 2.27647 14.1711 2.27647C14.3719 2.27647 14.7807 2.30843 14.7895 2.30907C13.6961 1.99496 12.5309 1.86177 11.3302 1.94344Z" fill="url(#paint10_linear_6199_178261)"/>
<path style="mix-blend-mode:multiply" opacity="0.4" d="M12.5427 19.861C10.3985 20.0068 8.3942 19.2755 6.8794 17.9755H6.87939L6.87938 17.9755C6.73838 17.9563 6.59707 17.9333 6.45553 17.9043C4.77353 17.5607 3.40797 16.5537 2.50623 14.9918C2.40586 14.818 2.31605 14.6408 2.23511 14.4609C3.39926 19.1034 7.74894 22.3913 12.6919 22.0551C12.7139 21.5461 12.5638 20.365 12.5427 19.861V19.861Z" fill="url(#paint11_linear_6199_178261)"/>
<path style="mix-blend-mode:multiply" opacity="0.4" d="M22.0469 11.3158C21.7372 11.2841 20.2247 11.4035 19.8528 11.4651C19.8993 12.1488 19.8563 12.8183 19.7345 13.4624C19.7867 13.5906 19.8362 13.7206 19.8807 13.8538C20.424 15.4823 20.2347 17.1684 19.333 18.7303C19.2345 18.9009 19.1281 19.0643 19.0152 19.2216C19.0131 19.2246 19.0106 19.228 19.0088 19.2305C19.0087 19.2306 19.0134 19.2266 19.0161 19.2242C21.0634 17.2323 22.2559 14.389 22.0469 11.3158V11.3158Z" fill="url(#paint12_linear_6199_178261)"/>
<path style="mix-blend-mode:multiply" opacity="0.5" d="M14.2655 4.54229C14.4867 4.56492 14.7227 4.61922 14.9351 4.69056C14.9449 4.69383 14.9552 4.69661 14.9649 4.69996C14.965 4.69977 14.9652 4.69952 14.9653 4.69933C15.8349 5.05355 16.6299 5.56006 17.3162 6.18658C17.3177 6.18781 17.3191 6.18882 17.3206 6.19005C17.6514 5.81191 18.2882 5.39639 18.2882 5.39639C18.2882 5.39639 17.313 4.39886 15.8215 4.08928C14.7774 3.87256 12.4223 3.66248 10.937 6.19005C10.937 6.19005 10.9429 6.18448 10.9516 6.17646C11.0615 6.01039 11.1783 5.84896 11.3104 5.69987C12.0297 4.88815 13.099 4.4229 14.2655 4.54229V4.54229Z" fill="url(#paint13_linear_6199_178261)"/>
<path style="mix-blend-mode:multiply" opacity="0.5" d="M17.3171 17.6948C17.1869 17.875 17.0219 18.0522 16.8539 18.2005C16.8462 18.2073 16.8386 18.2149 16.8309 18.2216C16.831 18.2218 16.8311 18.2221 16.8312 18.2223C16.0896 18.7982 15.2535 19.2334 14.3678 19.5145C14.366 19.5152 14.3644 19.516 14.3625 19.5166C14.5246 19.9922 14.5661 20.7515 14.5661 20.7515C14.5661 20.7515 15.9176 20.4057 16.9314 19.2688C17.6411 18.4729 19.0006 16.5384 17.5543 13.9883C17.5543 13.9883 17.5562 13.9962 17.5588 14.0077C17.6477 14.1859 17.7291 14.3678 17.7921 14.5568C18.1355 15.5855 18.0037 16.7442 17.3171 17.6948V17.6948Z" fill="url(#paint14_linear_6199_178261)"/>
<path style="mix-blend-mode:multiply" opacity="0.5" d="M4.43519 13.7643C4.34422 13.5615 4.27325 13.33 4.22882 13.1103C4.22678 13.1002 4.224 13.0899 4.22208 13.0798C4.22185 13.0798 4.22152 13.0798 4.22129 13.0798C4.09329 12.1496 4.13445 11.2079 4.33388 10.3003C4.3342 10.2984 4.33434 10.2966 4.33466 10.2947C3.8418 10.1973 3.16353 9.85352 3.16353 9.85352C3.16353 9.85352 2.78723 11.1968 3.26488 12.6433C3.59926 13.6559 4.59486 15.8005 7.52646 15.823C7.52646 15.823 7.51868 15.8207 7.50739 15.8172C7.30862 15.8051 7.11042 15.7846 6.91525 15.7447C5.85264 15.5277 4.91505 14.8342 4.43519 13.7643V13.7643Z" fill="url(#paint15_linear_6199_178261)"/>
<path style="mix-blend-mode:multiply" opacity="0.6" d="M13.824 8.47662C13.9045 8.4868 13.9841 8.48963 14.0629 8.48839C14.0629 8.48839 14.0103 7.44105 13.8817 6.90369C13.7531 6.36633 13.5634 6.01048 13.355 5.80907C13.2058 5.66479 12.7345 5.48509 12.3681 6.59244C12.2498 7.51478 12.9018 8.35828 13.824 8.47662Z" fill="url(#paint16_linear_6199_178261)"/>
<path style="mix-blend-mode:multiply" opacity="0.5" d="M8.02291 12.1737C7.99149 12.0989 7.95415 12.0286 7.91366 11.9609C7.91366 11.9609 7.03296 12.5302 6.6319 12.9103C6.23083 13.2903 6.0175 13.6325 5.94725 13.9137C5.89693 14.1151 5.97692 14.613 7.11912 14.3767C7.97704 14.0179 8.38155 13.0316 8.02291 12.1737V12.1737Z" fill="url(#paint17_linear_6199_178261)"/>
<path style="mix-blend-mode:multiply" opacity="0.6" d="M14.1377 15.343C14.0886 15.4076 14.0464 15.4751 14.0081 15.544C14.0081 15.544 14.9414 16.0221 15.4711 16.1794C16.0007 16.3367 16.4038 16.3503 16.6824 16.2706C16.8819 16.2135 17.2732 15.8952 16.4974 15.0242C15.7578 14.4606 14.7013 14.6035 14.1377 15.343V15.343Z" fill="url(#paint18_linear_6199_178261)"/>
<path style="mix-blend-mode:multiply" opacity="0.3" d="M13.7568 10.9961C13.5446 11.7004 13.2471 12.3394 12.8835 12.9039C12.8637 12.9334 12.8458 12.9632 12.8253 12.9927C12.8246 12.9938 12.8238 12.9949 12.8231 12.996C12.5825 13.3429 12.2965 13.6849 11.9607 14.0158C12.1914 14.2613 12.441 14.499 12.715 14.7245C13.0592 14.9961 13.3965 15.2144 13.7016 15.3874C14.4703 14.5894 15.0181 13.745 15.405 12.9102C15.5564 12.6022 15.6904 12.2838 15.8057 11.9568C15.4511 11.6957 15.0918 11.4879 14.7608 11.3468C14.4184 11.2009 14.0838 11.0863 13.7568 10.9961V10.9961Z" fill="url(#paint19_linear_6199_178261)"/>
<path style="mix-blend-mode:multiply" opacity="0.3" d="M6.87401 17.9617C8.78536 18.2219 10.624 17.6155 11.8766 16.8713C11.7279 16.7677 11.5766 16.6581 11.4216 16.5401C10.9382 16.1717 10.5031 15.7566 10.1178 15.3064C9.1754 15.7186 7.98972 15.9604 6.89026 15.7359C5.82764 15.5188 4.89006 14.8254 4.4102 13.7555C4.31924 13.5527 4.24831 13.3212 4.20386 13.1016C4.48155 15.0501 5.46483 16.7524 6.87401 17.9617V17.9617Z" fill="url(#paint20_linear_6199_178261)"/>
<path style="mix-blend-mode:multiply" opacity="0.3" d="M11.9906 14.0217C11.4872 13.4861 11.0829 12.9093 10.776 12.3127C10.7603 12.2807 10.7436 12.2503 10.7282 12.2178C10.7276 12.2166 10.7271 12.2154 10.7265 12.2142C10.5463 11.8323 10.393 11.4134 10.2744 10.957C9.94711 11.034 9.61724 11.1311 9.28567 11.2554C8.87927 11.4173 8.5221 11.5999 8.22021 11.7772C8.52688 12.8412 8.98057 13.7411 9.50985 14.4931C9.70049 14.7777 9.90879 15.0524 10.1338 15.3153C10.5379 15.1385 10.898 14.931 11.1861 14.7146C11.4831 14.4915 11.7493 14.2594 11.9906 14.0217V14.0217Z" fill="url(#paint21_linear_6199_178261)"/>
<path style="mix-blend-mode:multiply" opacity="0.3" d="M9.384 4.55816C8.20306 6.08337 7.80878 7.97888 7.82702 9.43568C7.9917 9.35839 8.16304 9.28181 8.34348 9.20636C8.90358 8.97214 9.4799 8.80303 10.0617 8.69432C10.176 7.6723 10.5595 6.52488 11.3035 5.68517C12.0228 4.87345 13.0921 4.4082 14.2586 4.52759C14.4798 4.55022 14.7158 4.60451 14.9282 4.67586C14.9379 4.67913 14.9483 4.68191 14.958 4.68526C14.9581 4.68507 14.9583 4.68482 14.9584 4.68463C13.8837 4.24682 12.6965 4.0399 11.4628 4.12381C10.7383 4.1731 10.0441 4.32133 9.38991 4.551C9.38803 4.55343 9.38589 4.55572 9.38401 4.55815L9.384 4.55816V4.55816Z" fill="url(#paint22_linear_6199_178261)"/>
<path style="mix-blend-mode:multiply" opacity="0.3" d="M19.7424 13.4445C19.0116 11.6582 17.5661 10.3686 16.2949 9.65625C16.2795 9.83746 16.2601 10.024 16.2353 10.218C16.1581 10.8201 16.0163 11.4038 15.8196 11.962C16.6482 12.572 17.4511 13.4783 17.8066 14.5433C18.1499 15.5721 18.0182 16.7308 17.3315 17.6813C17.2014 17.8615 17.0364 18.0388 16.8684 18.1871C16.8659 18.1892 16.8635 18.1914 16.8611 18.1937C18.341 17.0306 19.3877 15.3542 19.7466 13.4557C19.7451 13.4521 19.7439 13.4482 19.7424 13.4445V13.4445V13.4445Z" fill="url(#paint23_linear_6199_178261)"/>
<path style="mix-blend-mode:multiply" opacity="0.3" d="M10.0629 9.91284C10.1076 10.2815 10.1755 10.6279 10.2607 10.9556C10.9769 10.787 11.6794 10.7251 12.3502 10.7577C12.3857 10.7601 12.4205 10.7608 12.4563 10.7637C12.4576 10.7638 12.4589 10.7639 12.4603 10.764C12.8804 10.7988 13.3191 10.8754 13.7729 11.0005C13.87 10.6784 13.9509 10.3439 14.0091 9.99433C14.0723 9.55983 14.0927 9.15804 14.0898 8.80702C13.0152 8.54073 12.0108 8.48861 11.095 8.57095C10.7525 8.59378 10.4098 8.63693 10.0689 8.70061C10.0199 9.13912 10.0196 9.55496 10.0629 9.91284H10.0629Z" fill="url(#paint24_linear_6199_178261)"/>
<defs>
<linearGradient id="paint0_linear_6199_178261" x1="5.12092" y1="18.8794" x2="17.9746" y2="6.02572" gradientUnits="userSpaceOnUse">
<stop offset="0.001139" stop-color="#E6007A"/>
<stop offset="0.207149" stop-color="#703AC2"/>
<stop offset="0.456011" stop-color="#0070EB"/>
<stop offset="0.768132" stop-color="#0297FB"/>
<stop offset="1" stop-color="#0AE2FF"/>
</linearGradient>
<radialGradient id="paint1_radial_6199_178261" cx="0" cy="0" r="1" gradientUnits="userSpaceOnUse" gradientTransform="translate(14.8635 9.96333) scale(3.83261)">
<stop stop-color="white"/>
<stop offset="1" stop-color="white" stop-opacity="0"/>
</radialGradient>
<radialGradient id="paint2_radial_6199_178261" cx="0" cy="0" r="1" gradientUnits="userSpaceOnUse" gradientTransform="translate(9.22666 17.0797) scale(2.22985)">
<stop stop-color="white"/>
<stop offset="1" stop-color="white" stop-opacity="0"/>
</radialGradient>
<linearGradient id="paint3_linear_6199_178261" x1="5.86839" y1="16.6921" x2="8.01782" y2="16.6623" gradientUnits="userSpaceOnUse">
<stop stop-color="white" stop-opacity="0"/>
<stop offset="1" stop-color="white"/>
</linearGradient>
<radialGradient id="paint4_radial_6199_178261" cx="0" cy="0" r="1" gradientUnits="userSpaceOnUse" gradientTransform="translate(8.7741 10.5421) rotate(-120) scale(3.83261)">
<stop stop-color="white"/>
<stop offset="1" stop-color="white" stop-opacity="0"/>
</radialGradient>
<radialGradient id="paint5_radial_6199_178261" cx="0" cy="0" r="1" gradientUnits="userSpaceOnUse" gradientTransform="translate(17.7774 11.8929) rotate(-120) scale(2.22985)">
<stop stop-color="white"/>
<stop offset="1" stop-color="white" stop-opacity="0"/>
</radialGradient>
<linearGradient id="paint6_linear_6199_178261" x1="19.1134" y1="14.9703" x2="18.0129" y2="13.1238" gradientUnits="userSpaceOnUse">
<stop stop-color="white" stop-opacity="0"/>
<stop offset="1" stop-color="white"/>
</linearGradient>
<radialGradient id="paint7_radial_6199_178261" cx="0" cy="0" r="1" gradientUnits="userSpaceOnUse" gradientTransform="translate(12.1303 15.3471) rotate(120) scale(3.83261)">
<stop stop-color="white"/>
<stop offset="1" stop-color="white" stop-opacity="0"/>
</radialGradient>
<radialGradient id="paint8_radial_6199_178261" cx="0" cy="0" r="1" gradientUnits="userSpaceOnUse" gradientTransform="translate(9.00106 7.0662) rotate(120) scale(2.22985)">
<stop stop-color="white"/>
<stop offset="1" stop-color="white" stop-opacity="0"/>
</radialGradient>
<linearGradient id="paint9_linear_6199_178261" x1="10.9953" y1="4.34787" x2="9.94647" y2="6.22426" gradientUnits="userSpaceOnUse">
<stop stop-color="white" stop-opacity="0"/>
<stop offset="1" stop-color="white"/>
</linearGradient>
<linearGradient id="paint10_linear_6199_178261" x1="11.4862" y1="3.38352" x2="8.20232" y2="4.33882" gradientUnits="userSpaceOnUse">
<stop stop-color="#231F20"/>
<stop offset="1" stop-color="white"/>
</linearGradient>
<linearGradient id="paint11_linear_6199_178261" x1="5.27396" y1="15.9068" x2="8.02046" y2="18.7727" gradientUnits="userSpaceOnUse">
<stop stop-color="#231F20"/>
<stop offset="1" stop-color="white"/>
</linearGradient>
<linearGradient id="paint12_linear_6199_178261" x1="19.9971" y1="15.476" x2="20.9524" y2="12.5703" gradientUnits="userSpaceOnUse">
<stop stop-color="#231F20"/>
<stop offset="1" stop-color="white"/>
</linearGradient>
<linearGradient id="paint13_linear_6199_178261" x1="12.9728" y1="5.04611" x2="17.3755" y2="6.0542" gradientUnits="userSpaceOnUse">
<stop stop-color="#231F20"/>
<stop offset="1" stop-color="white"/>
</linearGradient>
<linearGradient id="paint14_linear_6199_178261" x1="17.5271" y1="16.3233" x2="14.4528" y2="19.6321" gradientUnits="userSpaceOnUse">
<stop stop-color="#231F20"/>
<stop offset="1" stop-color="white"/>
</linearGradient>
<linearGradient id="paint15_linear_6199_178261" x1="5.5179" y1="14.632" x2="4.18958" y2="10.3151" gradientUnits="userSpaceOnUse">
<stop stop-color="#231F20"/>
<stop offset="1" stop-color="white"/>
</linearGradient>
<linearGradient id="paint16_linear_6199_178261" x1="13.9179" y1="6.66712" x2="12.5248" y2="8.06027" gradientUnits="userSpaceOnUse">
<stop stop-color="#231F20"/>
<stop offset="1" stop-color="white"/>
</linearGradient>
<linearGradient id="paint17_linear_6199_178261" x1="6.4089" y1="12.9972" x2="8.31198" y2="13.5071" gradientUnits="userSpaceOnUse">
<stop stop-color="#231F20"/>
<stop offset="1" stop-color="white"/>
</linearGradient>
<linearGradient id="paint18_linear_6199_178261" x1="15.6578" y1="16.3291" x2="15.1479" y2="14.426" gradientUnits="userSpaceOnUse">
<stop stop-color="#231F20"/>
<stop offset="1" stop-color="white"/>
</linearGradient>
<linearGradient id="paint19_linear_6199_178261" x1="12.7427" y1="14.6323" x2="13.5786" y2="13.478" gradientUnits="userSpaceOnUse">
<stop stop-color="#231F20"/>
<stop offset="1" stop-color="white"/>
</linearGradient>
<linearGradient id="paint20_linear_6199_178261" x1="9.87825" y1="14.1297" x2="8.20647" y2="14.9257" gradientUnits="userSpaceOnUse">
<stop stop-color="#231F20"/>
<stop offset="1" stop-color="white"/>
</linearGradient>
<linearGradient id="paint21_linear_6199_178261" x1="9.28769" y1="11.3557" x2="9.80514" y2="12.4304" gradientUnits="userSpaceOnUse">
<stop stop-color="#231F20"/>
<stop offset="1" stop-color="white"/>
</linearGradient>
<linearGradient id="paint22_linear_6199_178261" x1="11.6739" y1="8.02878" x2="11.3157" y2="6.79485" gradientUnits="userSpaceOnUse">
<stop stop-color="#231F20"/>
<stop offset="1" stop-color="white"/>
</linearGradient>
<linearGradient id="paint23_linear_6199_178261" x1="15.5398" y1="13.6854" x2="16.5747" y2="13.9242" gradientUnits="userSpaceOnUse">
<stop stop-color="#231F20"/>
<stop offset="1" stop-color="white"/>
</linearGradient>
<linearGradient id="paint24_linear_6199_178261" x1="13.9179" y1="10.1885" x2="12.6044" y2="9.94972" gradientUnits="userSpaceOnUse">
<stop stop-color="#231F20"/>
<stop offset="1" stop-color="white"/>
</linearGradient>
</defs>
</svg>
