<svg width="24" height="24" viewBox="0 0 24 24" fill="none" xmlns="http://www.w3.org/2000/svg">
<mask id="mask0_8169_45929" style="mask-type:luminance" maskUnits="userSpaceOnUse" x="2" y="2" width="20" height="20">
<path d="M21.6 2.3042H2.39999V21.5042H21.6V2.3042Z" fill="white"/>
</mask>
<g mask="url(#mask0_8169_45929)">
<path d="M14.016 2.53369L13.9584 2.64889C15.9552 3.51289 17.088 5.29849 17.088 7.25689C17.088 9.36889 15.7056 11.2889 13.0176 12.9209L12.576 13.1897C10.56 14.4185 9.54239 15.8009 9.54239 17.4713C9.54239 19.6217 11.232 21.1961 13.5552 21.1961C17.28 21.1961 21.6 17.2217 21.6 11.9225C21.6 11.0585 21.4848 10.2137 21.2736 9.40729L21.1392 9.44569C21.1968 9.88729 21.216 10.2137 21.216 10.5209C21.216 13.6505 19.4496 16.3385 16.4928 18.1241L16.2048 18.2969C15.5712 18.6617 15.0336 18.8729 14.496 18.8729C13.7856 18.8729 13.248 18.4121 13.248 17.7401C13.248 17.1641 13.632 16.5881 14.88 15.8585L15.2448 15.6473C18.0096 14.0345 19.5456 11.7689 19.5456 9.25369C19.5456 6.06649 17.1648 3.43609 14.016 2.53369ZM9.98399 21.2921L10.0416 21.1769C8.04479 20.3129 6.91199 18.5273 6.91199 16.5689C6.91199 14.4569 8.29439 12.5369 10.9824 10.9049L11.424 10.6361C13.44 9.40729 14.4576 8.02489 14.4576 6.35449C14.4576 4.20409 12.768 2.62969 10.4448 2.62969C6.71999 2.62969 2.39999 6.60409 2.39999 11.9033C2.39999 12.7673 2.51519 13.6121 2.72639 14.4185L2.86079 14.3801C2.80319 13.9385 2.78399 13.6121 2.78399 13.3049C2.78399 10.1753 4.55039 7.48729 7.50719 5.70169L7.79519 5.52889C8.42879 5.16409 8.96639 4.95289 9.50399 4.95289C10.2144 4.95289 10.752 5.41369 10.752 6.08569C10.752 6.66169 10.368 7.23769 9.11999 7.96729L8.75519 8.17849C5.99039 9.79129 4.45439 12.0569 4.45439 14.5721C4.45439 17.7593 6.83519 20.3897 9.98399 21.2921Z" fill="#8E9BB2"/>
</g>
</svg>
