<svg width="24" height="24" viewBox="0 0 24 24" fill="none" xmlns="http://www.w3.org/2000/svg">
<g clip-path="url(#clip0_6_40200)">
<path d="M20.64 11.9994C20.64 7.22763 16.7717 3.35938 12 3.35938C7.22824 3.35938 3.35999 7.22763 3.35999 11.9994C3.35999 16.7711 7.22824 20.6394 12 20.6394C16.7717 20.6394 20.64 16.7711 20.64 11.9994Z" fill="#6C00F6"/>
<path d="M13.8588 8.14258L11.4477 9.52738V13.8494L10.1173 14.6205L8.77876 13.8487V12.3057L10.1173 11.5414L10.9779 12.0405V10.792L10.1098 10.2992L7.69922 11.6996V14.4698L10.1179 15.8627L12.5284 14.4698V10.1485L13.867 9.37661L15.2048 10.1485V11.6846L13.867 12.4633L12.9988 11.9598V13.202L13.8588 13.698L16.2931 12.3132V9.52738L13.8588 8.14258Z" fill="#F3F3F3"/>
</g>
<defs>
<clipPath id="clip0_6_40200">
<rect x="3.35999" y="3.35938" width="17.28" height="17.28" rx="8.64" fill="white"/>
</clipPath>
</defs>
</svg>
