<svg width="24" height="24" viewBox="0 0 24 24" fill="none" xmlns="http://www.w3.org/2000/svg">
<path d="M11.9542 21.504C17.2241 21.5289 21.5574 17.2549 21.5997 11.9864C21.608 10.9302 21.4451 9.91316 21.1382 8.96094C18.8689 9.14863 16.6524 10.1092 14.9165 11.8447C13.0341 13.7265 12.0627 16.1729 12.0009 18.6383C11.9963 18.823 11.7566 18.8909 11.654 18.7378C10.4187 16.893 8.31535 15.6784 5.92772 15.6784C5.0333 15.6784 4.1781 15.8488 3.39378 16.1594C4.95563 19.3131 8.19997 21.4859 11.9542 21.504Z" fill="#8E9BB2"/>
<path d="M11.9998 5.1735C12.0044 4.98879 12.2441 4.92093 12.3467 5.07398C13.5821 6.91884 15.6853 8.13343 18.073 8.13343C18.9682 8.13343 19.8234 7.96229 20.6077 7.65168C19.0466 4.49647 15.8015 2.3229 12.0466 2.3048C6.77586 2.27917 2.44177 6.55544 2.4003 11.8246C2.392 12.8809 2.5549 13.8987 2.86259 14.8509C5.13106 14.6632 7.34825 13.7027 9.08354 11.9671C10.9659 10.0853 11.938 7.6388 11.9998 5.1735Z" fill="#8E9BB2"/>
<mask id="mask0_8237_46624" style="mask-type:alpha" maskUnits="userSpaceOnUse" x="2" y="2" width="20" height="20">
<path d="M11.9542 21.504C17.2241 21.5289 21.5574 17.2549 21.5997 11.9864C21.608 10.9302 21.4451 9.91316 21.1382 8.96094C18.8689 9.14863 16.6524 10.1092 14.9165 11.8447C13.0341 13.7265 12.0627 16.1729 12.0009 18.6383C11.9963 18.823 11.7566 18.8909 11.654 18.7378C10.4187 16.893 8.31535 15.6784 5.92772 15.6784C5.0333 15.6784 4.1781 15.8488 3.39378 16.1594C4.95563 19.3131 8.19997 21.4859 11.9542 21.504Z" fill="#1812FF"/>
<path d="M11.9998 5.1735C12.0044 4.98879 12.2441 4.92093 12.3467 5.07398C13.5821 6.91884 15.6853 8.13343 18.073 8.13343C18.9682 8.13343 19.8234 7.96229 20.6077 7.65168C19.0466 4.49647 15.8015 2.3229 12.0466 2.3048C6.77586 2.27917 2.44177 6.55544 2.4003 11.8246C2.392 12.8809 2.5549 13.8987 2.86259 14.8509C5.13106 14.6632 7.34825 13.7027 9.08354 11.9671C10.9659 10.0853 11.938 7.6388 11.9998 5.1735Z" fill="#1812FF"/>
</mask>
<g mask="url(#mask0_8237_46624)">
<g filter="url(#filter0_f_8237_46624)">
<path d="M4.27998 18.749C9.6716 18.749 14.0424 14.3647 14.0424 8.95652C14.0424 3.5483 9.6716 -0.835938 4.27998 -0.835938C-1.11164 -0.835938 -5.48241 3.5483 -5.48241 8.95652C-5.48241 14.3647 -1.11164 18.749 4.27998 18.749Z" fill="#8E9BB2"/>
</g>
<g filter="url(#filter1_f_8237_46624)">
<path d="M19.3198 29.5831C25.4822 29.5831 30.4779 24.5721 30.4779 18.3907C30.4779 12.2093 25.4822 7.19824 19.3198 7.19824C13.1574 7.19824 8.16174 12.2093 8.16174 18.3907C8.16174 24.5721 13.1574 29.5831 19.3198 29.5831Z" fill="#8E9BB2"/>
</g>
</g>
<mask id="mask1_8237_46624" style="mask-type:alpha" maskUnits="userSpaceOnUse" x="3" y="8" width="19" height="14">
<path d="M11.9541 21.504C17.2241 21.5289 21.5574 17.2549 21.5996 11.9864C21.608 10.9302 21.4451 9.91316 21.1381 8.96094C18.8689 9.14863 16.6524 10.1092 14.9164 11.8447C13.034 13.7265 12.0627 16.173 12.0009 18.6383C11.9963 18.823 11.7565 18.8909 11.654 18.7379C10.4186 16.893 8.31533 15.6784 5.9277 15.6784C5.03327 15.6784 4.17807 15.8488 3.39375 16.1594C4.95559 19.3131 8.19995 21.4859 11.9541 21.504Z" fill="#1812FF"/>
</mask>
<g mask="url(#mask1_8237_46624)">
<g filter="url(#filter2_f_8237_46624)">
<path d="M15.741 10.9452C15.741 14.3138 18.3459 17.0447 21.5592 17.0447C24.7725 17.0447 27.3774 14.3138 27.3774 10.9452C27.3774 7.57653 24.7725 4.8457 21.5592 4.8457C18.3459 4.8457 15.741 7.57653 15.741 10.9452Z" fill="#8E9BB2"/>
</g>
</g>
<defs>
<filter id="filter0_f_8237_46624" x="-13.4796" y="-8.83311" width="35.5191" height="35.5793" filterUnits="userSpaceOnUse" color-interpolation-filters="sRGB">
<feFlood flood-opacity="0" result="BackgroundImageFix"/>
<feBlend mode="normal" in="SourceGraphic" in2="BackgroundImageFix" result="shape"/>
<feGaussianBlur stdDeviation="3.99859" result="effect1_foregroundBlur_8237_46624"/>
</filter>
<filter id="filter1_f_8237_46624" x="0.164571" y="-0.79893" width="38.3104" height="38.3791" filterUnits="userSpaceOnUse" color-interpolation-filters="sRGB">
<feFlood flood-opacity="0" result="BackgroundImageFix"/>
<feBlend mode="normal" in="SourceGraphic" in2="BackgroundImageFix" result="shape"/>
<feGaussianBlur stdDeviation="3.99859" result="effect1_foregroundBlur_8237_46624"/>
</filter>
<filter id="filter2_f_8237_46624" x="9.34323" y="-1.55203" width="24.4319" height="24.9942" filterUnits="userSpaceOnUse" color-interpolation-filters="sRGB">
<feFlood flood-opacity="0" result="BackgroundImageFix"/>
<feBlend mode="normal" in="SourceGraphic" in2="BackgroundImageFix" result="shape"/>
<feGaussianBlur stdDeviation="3.19887" result="effect1_foregroundBlur_8237_46624"/>
</filter>
</defs>
</svg>
