<svg width="24" height="24" viewBox="0 0 24 24" fill="none" xmlns="http://www.w3.org/2000/svg">
<path fill-rule="evenodd" clip-rule="evenodd" d="M17.4463 5.27917L12.8217 2.83327C12.377 2.61091 11.71 2.61091 11.2653 2.83327L6.6407 5.27917C6.46283 5.36811 6.32943 5.50153 6.26273 5.63494H6.21826V5.87953V5.87953V5.87953V11.8609V11.8609V11.8609V18.109V18.109V18.109V18.3536H6.28496C6.35167 18.487 6.48507 18.6204 6.66294 18.7094L11.2876 21.1553C11.5099 21.2665 11.7767 21.3332 12.0657 21.3332C12.3325 21.3332 12.6216 21.2665 12.8439 21.1553L17.4685 18.7094C17.6464 18.6204 17.7798 18.487 17.8465 18.3536H17.9132V5.63494H17.8465C17.7576 5.50153 17.6242 5.36811 17.4463 5.27917H17.4463ZM11.5549 9.34649C11.5993 9.32426 11.666 9.30202 11.7327 9.27979V14.4162C11.666 14.3939 11.6216 14.3717 11.5549 14.3495L6.93024 11.9036C6.88578 11.8813 6.86354 11.8591 6.84131 11.8369C6.86355 11.8146 6.88578 11.7924 6.93024 11.7702L11.5549 9.34649ZM12.355 14.4162V9.27979C12.4217 9.30202 12.4662 9.32426 12.5328 9.34649L17.1575 11.7924C17.2019 11.8146 17.2242 11.8369 17.2464 11.8591C17.2242 11.8813 17.2019 11.9036 17.1575 11.9258L12.5328 14.3717C12.4884 14.3939 12.4217 14.4162 12.355 14.4162V14.4162ZM12.9565 8.87983L17.2699 6.61182V11.1701L12.9565 8.87983ZM6.84131 11.1466V6.58838L11.1546 8.85639L6.84131 11.1466ZM6.84131 12.5728L11.288 14.9075C11.3325 14.9297 11.3992 14.9519 11.4437 14.9742C11.3992 14.9964 11.3325 15.0187 11.288 15.0409L6.84131 17.3756V12.5728ZM12.8231 14.9075L17.2699 12.5728V17.3978L12.8231 15.0631C12.7787 15.0409 12.7119 15.0187 12.6675 14.9964C12.7119 14.9742 12.7787 14.9519 12.8231 14.9075ZM6.9322 5.83356L11.5568 3.38766C11.8236 3.25424 12.2683 3.25424 12.5351 3.38766L17.1597 5.83356C17.2042 5.8558 17.2264 5.87803 17.2486 5.90026C17.2264 5.9225 17.2042 5.94473 17.1597 5.96696L12.5351 8.41286C12.2683 8.54628 11.8236 8.54628 11.5568 8.41286L6.9322 5.96696C6.88773 5.94473 6.86549 5.92249 6.84326 5.90026C6.8655 5.87802 6.88773 5.85579 6.9322 5.83356ZM17.1578 18.174L12.5331 20.6199C12.2663 20.7533 11.8217 20.7533 11.5549 20.6199L6.93024 18.174C6.88578 18.1518 6.86354 18.1295 6.84131 18.1073C6.86355 18.0851 6.88578 18.0628 6.93024 18.0406L11.5549 15.5947C11.8217 15.4613 12.2663 15.4613 12.5331 15.5947L17.1578 18.0406C17.2022 18.0628 17.2245 18.0851 17.2467 18.1073C17.2245 18.1295 17.2022 18.1518 17.1578 18.174Z" fill="#8E9BB2"/>
<path d="M18.4032 3.56524L18.292 3.49854L17.9585 4.03218L18.0697 4.09889C18.8924 4.58807 19.1592 4.74372 19.1592 5.89996H19.7818C19.7818 4.41019 19.2704 4.09889 18.4032 3.56524H18.4032Z" fill="#8E9BB2"/>
<path d="M4.84087 17.8892H4.21826C4.21826 19.3789 4.75192 19.6902 5.5969 20.2239L5.70808 20.2906L6.04161 19.7569L5.93043 19.6902C5.1077 19.201 4.84087 19.0232 4.84087 17.8892V17.8892Z" fill="#8E9BB2"/>
</svg>
