<svg width="24" height="24" viewBox="0 0 24 24" fill="none" xmlns="http://www.w3.org/2000/svg">
<path d="M16.0915 3.84987C18.4501 4.85597 20.0225 7.33531 19.8438 9.85058C15.6269 9.85058 11.41 9.88651 7.19312 9.81465C7.19312 8.12582 7.7649 6.40107 8.97994 5.2153C10.7668 3.38275 13.7329 2.80783 16.0915 3.84987Z" fill="#C4CEDF"/>
<path d="M15.912 20.0195C16.1621 20.0195 16.3765 20.1633 16.3765 20.3429C16.3765 20.5226 16.1621 20.6663 15.912 20.6663H9.12205C8.87189 20.6663 8.65747 20.5226 8.65747 20.3429C8.65747 20.1633 8.87189 20.0195 9.12205 20.0195H15.912Z" fill="#636F86"/>
<path d="M7.6578 20.6662C7.91443 20.6662 8.12247 20.457 8.12247 20.1991C8.12247 19.9411 7.91443 19.7319 7.6578 19.7319C7.40116 19.7319 7.19312 19.9411 7.19312 20.1991C7.19312 20.457 7.40116 20.6662 7.6578 20.6662Z" fill="#636F86"/>
<path d="M11.731 18.9445C11.9877 18.9445 12.1957 18.7354 12.1957 18.4774C12.1957 18.2194 11.9877 18.0103 11.731 18.0103C11.4744 18.0103 11.2664 18.2194 11.2664 18.4774C11.2664 18.7354 11.4744 18.9445 11.731 18.9445Z" fill="#636F86"/>
<path d="M19.7002 18.0103C19.9503 18.0103 20.1648 18.2258 20.1648 18.4774C20.1648 18.7289 19.9503 18.9445 19.7002 18.9445H13.0532C12.803 18.9445 12.5886 18.7289 12.5886 18.4774C12.5886 18.2258 12.803 18.0103 13.0532 18.0103H19.7002Z" fill="#636F86"/>
<path d="M3.01131 17.2184C3.26795 17.2184 3.47599 17.0093 3.47599 16.7513C3.47599 16.4933 3.26795 16.2842 3.01131 16.2842C2.75468 16.2842 2.54663 16.4933 2.54663 16.7513C2.54663 17.0093 2.75468 17.2184 3.01131 17.2184Z" fill="#636F86"/>
<path d="M9.62366 16.2842C9.87381 16.2842 10.0882 16.4998 10.0882 16.7513C10.0882 17.0028 9.87381 17.2184 9.62366 17.2184H4.15598C3.90583 17.2184 3.69141 17.0028 3.69141 16.7513C3.69141 16.4998 3.90583 16.2842 4.15598 16.2842H9.62366Z" fill="#636F86"/>
<path d="M21.8817 16.2842C22.1318 16.2842 22.3462 16.4998 22.3462 16.7513C22.3462 17.0028 22.1318 17.2184 21.8817 17.2184H11.0178C10.7676 17.2184 10.5532 17.0028 10.5532 16.7513C10.5532 16.4998 10.7676 16.2842 11.0178 16.2842H21.8817Z" fill="#636F86"/>
<path d="M19.8428 14.5615C20.093 14.5615 20.3074 14.7771 20.3074 15.0286C20.3074 15.2802 20.093 15.4958 19.8428 15.4958H6.51315C6.263 15.4958 6.04858 15.2802 6.04858 15.0286C6.04858 14.7771 6.263 14.5615 6.51315 14.5615H19.8428Z" fill="#636F86"/>
<path d="M5.04891 15.4958C5.30555 15.4958 5.51359 15.2866 5.51359 15.0286C5.51359 14.7707 5.30555 14.5615 5.04891 14.5615C4.79227 14.5615 4.58423 14.7707 4.58423 15.0286C4.58423 15.2866 4.79227 15.4958 5.04891 15.4958Z" fill="#636F86"/>
<path d="M17.056 12.8687C17.3061 12.8687 17.5206 13.0842 17.5206 13.3358C17.5206 13.5873 17.3061 13.8029 17.056 13.8029H3.72629C3.47614 13.8029 3.26172 13.5873 3.26172 13.3358C3.26172 13.0842 3.47614 12.8687 3.72629 12.8687H17.056Z" fill="#636F86"/>
<path d="M2.11849 13.8029C2.37513 13.8029 2.58317 13.5938 2.58317 13.3358C2.58317 13.0778 2.37513 12.8687 2.11849 12.8687C1.86185 12.8687 1.65381 13.0778 1.65381 13.3358C1.65381 13.5938 1.86185 13.8029 2.11849 13.8029Z" fill="#636F86"/>
<path d="M5.04891 12.0802C5.30555 12.0802 5.51359 11.8711 5.51359 11.6131C5.51359 11.3551 5.30555 11.146 5.04891 11.146C4.79227 11.146 4.58423 11.3551 4.58423 11.6131C4.58423 11.8711 4.79227 12.0802 5.04891 12.0802Z" fill="#636F86"/>
<path d="M21.1298 11.146C21.38 11.146 21.5944 11.3616 21.5944 11.6131C21.5944 11.8646 21.38 12.0802 21.1298 12.0802H6.62082C6.37067 12.0802 6.15625 11.8646 6.15625 11.6131C6.15625 11.3616 6.37067 11.146 6.62082 11.146H21.1298Z" fill="#636F86"/>
</svg>
