<svg width="24" height="24" viewBox="0 0 24 24" fill="none" xmlns="http://www.w3.org/2000/svg">
<path d="M6.93361 6.8445C6.93361 5.74109 6.93361 4.64929 6.93361 3.54588C6.93361 3.42973 6.94523 3.37166 7.08461 3.4065C7.76988 3.5575 8.43193 3.76656 9.09397 3.98725C9.21012 4.02209 9.24497 4.08017 9.24497 4.19631C9.24497 5.2068 9.24497 6.22891 9.24497 7.2394C9.24497 7.39039 9.27981 7.44847 9.4308 7.49493C10.058 7.704 10.6736 7.93629 11.2892 8.15697C11.3473 8.1802 11.4053 8.20343 11.4866 8.22666C11.4866 7.92468 11.4866 7.63431 11.4866 7.34394C11.4866 6.58897 11.4866 5.83401 11.4866 5.06743C11.4866 4.8932 11.5331 4.88159 11.6841 4.92805C12.0674 5.0442 12.4739 5.14873 12.8572 5.26488C12.9966 5.31134 13.0314 5.27649 13.0314 5.1255C13.0198 4.68414 13.0314 4.23116 13.0314 3.78979C13.0314 3.68526 13.043 3.6388 13.1708 3.67365C13.6238 3.78979 14.0767 3.90594 14.5297 4.01048C14.6575 4.03371 14.6691 4.10339 14.6691 4.20793C14.6691 4.64929 14.6691 5.10227 14.6691 5.54364C14.6691 5.64817 14.6923 5.70624 14.8085 5.71786C15.1918 5.78755 15.5867 5.85724 15.97 5.92692C16.0977 5.95015 16.1558 5.91531 16.1442 5.77593C16.1326 5.34618 16.1442 4.90482 16.1442 4.47507C16.1442 4.35892 16.1674 4.31246 16.2952 4.33569C16.7249 4.40538 17.1663 4.45184 17.6077 4.46345C17.7354 4.46345 17.7238 4.54476 17.7238 4.63768C17.7238 5.07904 17.7238 5.52041 17.7238 5.96177C17.7238 6.07792 17.747 6.12438 17.8748 6.13599C18.4672 6.20568 19.0595 6.2986 19.6286 6.50767C20.5346 6.8445 21.1618 7.42524 21.2896 8.42412C21.4754 9.8179 21.0921 11.0491 20.07 12.0479C20.0468 12.0712 20.0119 12.0944 19.9422 12.1409C20.1281 12.2106 20.2675 12.257 20.4068 12.3035C21.2431 12.6403 21.6845 13.2907 21.8006 14.1618C21.9516 15.4279 21.6729 16.5777 20.8714 17.5766C20.1513 18.4826 19.1757 18.9588 18.0374 19.0865C18.0142 19.0865 17.9909 19.0982 17.9561 19.0865C17.7586 19.0749 17.7006 19.1678 17.7122 19.3653C17.7238 19.7602 17.7122 20.1667 17.7238 20.5732C17.7238 20.701 17.7006 20.7591 17.5612 20.7591C17.1314 20.7591 16.7133 20.7591 16.2836 20.7242C16.179 20.7126 16.1442 20.6894 16.1442 20.5732C16.1558 20.1319 16.1442 19.6905 16.1442 19.2491C16.1442 19.1214 16.121 19.0633 15.9816 19.0517C15.5867 19.0169 15.1918 18.9704 14.8085 18.9239C14.6923 18.9123 14.6691 18.9355 14.6691 19.0517C14.6691 19.4814 14.6691 19.9112 14.6691 20.3293C14.6691 20.5036 14.6575 20.5732 14.4484 20.5268C14.0303 20.4455 13.6121 20.3758 13.1824 20.3177C13.0663 20.2945 13.0198 20.2596 13.0198 20.1319C13.0314 19.6905 13.0198 19.2375 13.0314 18.7962C13.0314 18.6684 13.0082 18.6103 12.8804 18.5871C11.6841 18.4129 10.5458 17.9831 9.38435 17.6463C9.30304 17.6231 9.23335 17.5998 9.23335 17.4837C9.24497 16.3919 9.24497 15.3117 9.24497 14.2199C9.25658 14.2199 9.2682 14.2199 9.27981 14.2199C9.6631 14.3012 10.0232 14.4406 10.3832 14.5568C10.7433 14.6729 11.1033 14.8007 11.4866 14.9168C11.4866 13.8134 11.4866 12.7332 11.4866 11.6647C11.4866 11.595 11.4518 11.5601 11.3937 11.5369C10.6852 11.3046 9.98832 11.0258 9.2682 10.8168C9.25658 10.7935 9.24497 10.7819 9.23335 10.7587C9.23335 9.80628 9.23335 8.86548 9.23335 7.91306C9.23335 7.75046 9.29143 7.52977 9.21012 7.42524C9.12882 7.30909 8.90814 7.28586 8.74553 7.2394C8.14156 7.11164 7.5492 6.9258 6.93361 6.8445ZM17.0966 16.4732C17.2244 16.4732 17.3521 16.4732 17.4799 16.4732C18.3394 16.4384 18.8504 15.9041 18.8388 15.0794C18.8272 14.4522 18.5252 14.0573 17.9096 13.9179C17.7122 13.8715 17.5031 13.8482 17.2941 13.8366C16.4578 13.8134 15.6331 13.7089 14.8085 13.5811C14.6923 13.5579 14.6459 13.5695 14.6459 13.6973C14.6459 14.4871 14.6459 15.2885 14.6459 16.0783C14.6459 16.1712 14.6575 16.2177 14.7736 16.2409C15.5518 16.3687 16.3184 16.4384 17.0966 16.4732ZM14.6575 9.70175C14.6575 10.0618 14.6691 10.4219 14.6575 10.7935C14.6575 10.9329 14.7039 10.9794 14.8317 11.0026C15.2498 11.0607 15.6564 11.142 16.0745 11.1884C16.4926 11.2349 16.9108 11.3162 17.3289 11.2465C17.7703 11.1652 18.1187 10.9562 18.2465 10.4916C18.4323 9.84113 18.2813 9.09778 17.387 8.85387C17.2941 8.83064 17.2011 8.80741 17.1082 8.78418C16.33 8.67964 15.5518 8.60995 14.7852 8.44735C14.6575 8.42412 14.6459 8.47058 14.6459 8.57511C14.6575 8.94678 14.6575 9.31846 14.6575 9.70175Z" fill="#6C6D6D"/>
<path d="M9.23335 10.8052C9.24497 10.8284 9.25658 10.84 9.2682 10.8632C9.2682 10.8981 9.25658 10.9213 9.25658 10.9562C9.25658 12.0015 9.25658 13.0584 9.25658 14.1038C9.25658 14.1502 9.25658 14.2083 9.29143 14.2548C9.27981 14.2548 9.2682 14.2548 9.25658 14.2548C8.61777 14.0225 7.95572 13.8715 7.29367 13.7553C6.95684 13.6973 6.95684 13.6973 6.95684 14.0457C6.95684 15.0213 6.95684 15.9854 6.95684 16.961C6.95684 17.1236 6.91038 17.1469 6.75939 17.1236C6.10896 17.0423 5.45853 17.0307 4.8081 17.1352C4.63387 17.1585 4.58741 17.1236 4.58741 16.9378C4.59903 15.9273 4.58741 14.9052 4.59903 13.8947C4.59903 13.7321 4.5758 13.674 4.38996 13.7089C3.93698 13.7786 3.47239 13.8018 3.03103 13.9063C2.7755 13.9644 2.53159 14.0457 2.29929 14.1735C2.20637 14.2199 2.17153 14.2083 2.17153 14.1038C2.17153 13.0004 2.17153 11.9086 2.17153 10.8052C2.17153 10.689 2.25283 10.6658 2.32252 10.6309C2.84519 10.3754 3.41432 10.2941 3.99506 10.2476C4.19251 10.236 4.38996 10.2128 4.59903 10.2012C4.59903 10.2709 4.61064 10.3406 4.61064 10.4103C4.61064 11.4207 4.61064 12.4429 4.61064 13.4533C4.61064 13.6392 4.6571 13.6856 4.83133 13.6624C5.47014 13.5811 6.10896 13.5927 6.74777 13.6856C6.93361 13.7089 6.95684 13.6624 6.95684 13.4998C6.94523 12.4312 6.95684 11.3511 6.95684 10.2825C7.3169 10.3173 7.67696 10.4103 8.03702 10.4916C8.42031 10.5729 8.82683 10.689 9.23335 10.8052Z" fill="#6C6D6D"/>
<path d="M4.5758 6.72835C3.99506 6.78642 3.41431 6.78642 2.84519 6.9258C2.67096 6.97226 2.49674 7.03033 2.33413 7.11164C2.20637 7.16971 2.15991 7.1581 2.15991 7.00711C2.17153 6.41475 2.15991 5.83401 2.15991 5.24165C2.15991 4.77706 2.17153 4.31246 2.15991 3.84787C2.15991 3.69688 2.20637 3.6388 2.34575 3.58073C2.88003 3.34843 3.43754 3.26713 4.00667 3.25551C4.14605 3.25551 4.29704 3.25551 4.43642 3.2439C4.5758 3.23228 4.61064 3.27874 4.61064 3.41812C4.59903 4.14985 4.61064 4.8932 4.61064 5.62494C4.61064 5.985 4.61064 6.34506 4.61064 6.71673C4.58741 6.70512 4.58741 6.71673 4.5758 6.72835Z" fill="#6C6D6D"/>
<path d="M4.5758 6.72835C4.58741 6.71673 4.59903 6.71673 4.59903 6.70512C5.27269 6.65866 5.94635 6.67028 6.62001 6.77481C6.72455 6.78642 6.84069 6.79804 6.93361 6.85611C6.93361 7.99437 6.93361 9.13262 6.93361 10.2709C6.42256 10.2012 5.92312 10.1431 5.41207 10.1547C5.13331 10.1663 4.85456 10.178 4.58741 10.1896C4.58741 9.10939 4.58741 8.02921 4.58741 6.93742C4.58741 6.86773 4.5758 6.79804 4.5758 6.72835Z" fill="#6C6D6D"/>
</svg>
