<svg width="24" height="24" viewBox="0 0 24 24" fill="none" xmlns="http://www.w3.org/2000/svg">
<path d="M20.2769 16.7603L17.3158 12.7374C16.9942 12.3002 16.5179 12.0383 16.0106 11.9806C15.8951 11.9672 15.792 11.9002 15.7343 11.7991C15.6755 11.6981 15.6693 11.5754 15.7157 11.4682C15.9189 11.0001 15.9312 10.4568 15.7126 9.95983L13.7094 5.38421C13.4125 4.70478 12.7413 4.2666 12 4.2666C11.2587 4.2666 10.5875 4.70581 10.2906 5.38421L8.28734 9.95983C8.0698 10.4568 8.08114 11.0001 8.28425 11.4682C8.33064 11.5754 8.32342 11.6981 8.26569 11.7991C8.20692 11.9002 8.10485 11.9672 7.98938 11.9806C7.48213 12.0383 7.0058 12.3002 6.68412 12.7374L3.72307 16.7603C3.28386 17.3574 3.23953 18.1573 3.60966 18.7997C3.98083 19.441 4.69634 19.8028 5.43248 19.7215L10.3968 19.1688C10.936 19.109 11.401 18.8276 11.7041 18.4172C11.7732 18.3234 11.8835 18.2676 12 18.2676C12.1165 18.2676 12.2258 18.3234 12.2959 18.4172C12.599 18.8276 13.064 19.109 13.6032 19.1688L18.5675 19.7215C19.3037 19.8039 20.0191 19.442 20.3903 18.7997C20.7605 18.1573 20.7161 17.3574 20.2769 16.7603ZM9.58228 10.5341L11.5886 5.95333C11.6608 5.7894 11.8227 5.68321 12.001 5.68321C12.1794 5.68321 12.3413 5.7894 12.4134 5.95333L14.4198 10.5341C14.4827 10.6784 14.4693 10.8455 14.3827 10.9774C14.296 11.1094 14.1496 11.1888 13.9909 11.1888H10.0102C9.85241 11.1888 9.70498 11.1094 9.61837 10.9774C9.53177 10.8455 9.51938 10.6784 9.58228 10.5341ZM10.6123 17.5079C10.5411 17.6491 10.403 17.7439 10.2462 17.7614L5.2768 18.314C5.09946 18.3337 4.92625 18.247 4.83656 18.0925C4.74687 17.9378 4.75821 17.745 4.86439 17.6006L7.82854 13.5735C7.92237 13.4467 8.0729 13.3745 8.23064 13.3838C8.38838 13.392 8.53066 13.4797 8.61005 13.6168L8.61313 13.622L10.5978 17.0593L10.6009 17.0645C10.6803 17.2016 10.6844 17.3686 10.6133 17.5088L10.6123 17.5079ZM12.4083 15.9531C12.3237 16.0984 12.1691 16.1892 12 16.1892C11.832 16.1892 11.6763 16.0995 11.5917 15.9541L10.0669 13.3137C9.98232 13.1683 9.98232 12.9879 10.0669 12.8425C10.1514 12.6971 10.306 12.6064 10.4751 12.6064H13.5238C13.6919 12.6064 13.8476 12.6951 13.9321 12.8415C14.0166 12.9879 14.0166 13.1673 13.9321 13.3127L12.4083 15.9531ZM19.1645 18.0925C19.0748 18.247 18.9026 18.3348 18.7242 18.3151L13.7548 17.7625C13.5981 17.745 13.4599 17.6501 13.3888 17.5088C13.3176 17.3676 13.3218 17.2006 13.4011 17.0645L13.4042 17.0593L15.3889 13.622L15.392 13.6168C15.4714 13.4797 15.6137 13.392 15.7714 13.3838C15.9292 13.3756 16.0797 13.4467 16.1735 13.5735L19.1377 17.6006C19.2438 17.745 19.2532 17.9378 19.1645 18.0925Z" fill="#8E9BB2"/>
</svg>
