<svg width="24" height="24" viewBox="0 0 24 24" fill="none" xmlns="http://www.w3.org/2000/svg">
<path fill-rule="evenodd" clip-rule="evenodd" d="M12 4.15445L5.21278 8.07718V15.9226L12 19.8453L18.7872 15.9226V8.07718L12 4.15445ZM12.285 2.17752C12.1087 2.07559 11.8913 2.07559 11.7149 2.17752L3.64505 6.84157C3.46869 6.94355 3.35999 7.1319 3.35999 7.3358V16.6639C3.35999 16.8678 3.46869 17.0562 3.64505 17.1581L11.7149 21.8222C11.8913 21.9242 12.1087 21.9242 12.285 21.8222L20.3549 17.1581C20.5313 17.0562 20.64 16.8678 20.64 16.6639V7.3358C20.64 7.1319 20.5313 6.94355 20.3549 6.84157L12.285 2.17752Z" fill="#8E9BB2"/>
<path d="M12.0002 6.9961L7.67131 9.49798V14.5017L11.9717 16.9872C11.9893 16.9974 12.0002 17.0162 12.0002 17.0366V17.8933C12.0002 17.9372 11.9526 17.9647 11.9147 17.9427L7.02992 15.1196C6.89766 15.0431 6.81617 14.9018 6.81617 14.7489V9.25084C6.81617 9.09792 6.89766 8.95663 7.02992 8.8802L11.7864 6.13118C11.9186 6.05469 12.0817 6.05469 12.2139 6.13118L17.1181 8.95534C17.1558 8.97707 17.1562 9.03139 17.1188 9.05361C16.8293 9.22545 16.6812 9.30188 16.3574 9.48217C16.3398 9.49196 16.3184 9.49185 16.301 9.48179L12.0002 6.9961Z" fill="#8E9BB2"/>
<path d="M12.7126 12.1054C12.7126 12.0843 12.7242 12.0649 12.7428 12.055L17.047 9.76164C17.085 9.74142 17.1308 9.76895 17.1308 9.81204V15.391C17.1308 15.4114 17.12 15.4302 17.1024 15.4404L12.7982 17.9422C12.7602 17.9643 12.7126 17.9369 12.7126 17.8929V12.1054Z" fill="#8E9BB2"/>
</svg>
