<svg width="24" height="24" viewBox="0 0 24 24" fill="none" xmlns="http://www.w3.org/2000/svg">
<g clip-path="url(#clip0_6_39935)">
<path d="M20.25 3.75H3.75V20.25H20.25V3.75Z" fill="url(#paint0_linear_6_39935)"/>
<path d="M14.2714 13.7115L16.4963 12.4141C16.6151 12.346 16.6857 12.2162 16.6857 12.08V9.48527C16.6857 9.34904 16.6119 9.21931 16.4963 9.15119L14.2714 7.85382C14.1526 7.78571 14.0081 7.78571 13.8894 7.85382L11.6645 9.15119C11.5457 9.21931 11.475 9.34904 11.475 9.48527V14.1234L9.91473 15.0315L8.35442 14.1234V12.3038L9.91473 11.3957L10.9453 11.9957V10.7762L10.1074 10.2864C10.0496 10.254 9.98215 10.2345 9.91794 10.2345C9.85373 10.2345 9.78631 10.2507 9.72852 10.2864L7.50363 11.5838C7.38484 11.6519 7.31421 11.7816 7.31421 11.9178V14.5126C7.31421 14.6488 7.38805 14.7786 7.50363 14.8467L9.72852 16.144C9.84731 16.2122 9.99178 16.2122 10.1106 16.144L12.3355 14.8467C12.4543 14.7786 12.5249 14.6488 12.5249 14.5126V9.87448L12.5538 9.85826L14.0852 8.96632L15.6455 9.87448V11.694L14.0852 12.6055L13.0578 12.0054V13.2249L13.8958 13.7115C14.0081 13.7828 14.1558 13.7828 14.2714 13.7115Z" fill="white"/>
</g>
<defs>
<linearGradient id="paint0_linear_6_39935" x1="0.734648" y1="5.10628" x2="17.7684" y2="15.5299" gradientUnits="userSpaceOnUse">
<stop stop-color="#C3C4C3"/>
<stop offset="1" stop-color="#878888"/>
</linearGradient>
<clipPath id="clip0_6_39935">
<rect x="3.75" y="3.75" width="16.5" height="16.5" rx="8.25" fill="white"/>
</clipPath>
</defs>
</svg>
