<svg width="24" height="24" viewBox="0 0 24 24" fill="none" xmlns="http://www.w3.org/2000/svg">
<path fill-rule="evenodd" clip-rule="evenodd" d="M11.9999 3.35938C16.7717 3.35938 20.64 7.22761 20.64 11.9995C20.64 16.7711 16.7716 20.6394 11.9999 20.6394C7.22822 20.6394 3.35999 16.7713 3.35999 11.9995C3.35999 7.22761 7.22806 3.35938 11.9999 3.35938ZM17.2636 11.1829C17.4605 11.3076 17.8344 11.5465 17.8344 11.5671C17.8345 11.5699 17.8348 11.5735 17.8352 11.578C17.839 11.6187 17.8493 11.7277 17.7002 11.8574C17.5348 12.0013 17.2234 12.2292 17.2234 12.2292C17.2344 12.2945 17.2547 12.3579 17.2838 12.4173C17.2936 12.4361 17.3066 12.4568 17.3206 12.4791C17.3687 12.5559 17.4277 12.6502 17.4023 12.7379C17.3892 12.7831 17.3445 12.8245 17.2998 12.8659C17.2327 12.9279 17.1658 12.99 17.2054 13.0647C17.2317 13.1142 17.2731 13.1502 17.3106 13.1828C17.3672 13.232 17.4147 13.2733 17.3866 13.3415C17.367 13.3888 17.3159 13.4503 17.2647 13.5119C17.1933 13.5978 17.1216 13.684 17.135 13.7326C17.158 13.8161 17.3423 14.5912 16.9168 14.7264C16.5966 14.8278 15.7165 14.8856 15.3032 14.9074C15.2154 14.9122 15.1304 14.9392 15.056 14.9859C14.9816 15.0327 14.9203 15.0976 14.878 15.1746C14.7957 15.3286 14.7419 15.4963 14.7192 15.6694C14.6393 16.2187 14.0962 17.4792 14.0962 17.4792C14.0962 17.4792 14.0703 17.538 14.0441 17.6001C14.0275 17.6399 14.0022 17.6754 13.9699 17.7041C13.9376 17.7327 13.8993 17.7537 13.8578 17.7655C12.6017 18.1114 11.2695 18.062 10.0425 17.624C10.0052 17.6109 9.97097 17.5903 9.94199 17.5635C9.91299 17.5366 9.88982 17.5041 9.87391 17.4679C9.85801 17.4317 9.84972 17.3927 9.84954 17.3532C9.84936 17.3136 9.8573 17.2745 9.87288 17.2382C9.98332 16.9836 10.0761 16.7292 10.1449 16.5254C10.1748 16.4368 10.2084 16.3499 10.2449 16.2637C10.351 16.0134 10.5683 15.5069 10.7141 15.1989C12.2691 15.5432 13.2148 14.6754 13.4604 14.4112C13.4679 14.403 13.4732 14.393 13.4758 14.3823C13.4784 14.3715 13.4782 14.3603 13.4754 14.3496C13.4725 14.3389 13.467 14.3291 13.4594 14.3211C13.4517 14.3131 13.4422 14.3071 13.4317 14.3038C12.6411 14.0381 11.6217 14.2403 10.9239 14.768C11.1461 14.3221 11.396 13.8556 11.6693 13.3954C13.2851 13.6159 14.1427 12.6532 14.3583 12.3677C14.3647 12.3589 14.3689 12.3487 14.3705 12.338C14.372 12.3272 14.3708 12.3163 14.3671 12.3061C14.3633 12.2959 14.3571 12.2868 14.3489 12.2797C14.3407 12.2725 14.3309 12.2675 14.3203 12.2651C13.5701 12.0839 12.6676 12.3201 12.0235 12.8234C12.2099 12.5348 12.4049 12.2542 12.6075 11.9875C14.2919 11.2012 14.537 9.66971 14.5722 9.27216C14.5733 9.26133 14.5716 9.25039 14.5674 9.24038C14.5631 9.23038 14.5563 9.22162 14.5477 9.21493C14.5391 9.20825 14.529 9.20386 14.5182 9.20217C14.5075 9.20048 14.4964 9.20156 14.4862 9.20529C14.1046 9.33839 12.6523 9.97 12.361 11.8929C12.2537 12.0367 12.0894 12.2657 11.887 12.575C12.1662 11.4118 11.7153 10.6043 11.5494 10.3581C11.5434 10.3488 11.5351 10.3413 11.5254 10.3362C11.5156 10.3311 11.5047 10.3286 11.4937 10.3289C11.4827 10.3292 11.472 10.3323 11.4625 10.3379C11.4531 10.3436 11.4452 10.3516 11.4398 10.3611C11.2485 10.6797 10.6421 11.8888 11.4558 13.2679C11.2348 13.6412 10.9929 14.0781 10.744 14.5751C10.8284 13.2248 10.1089 12.477 9.87224 12.2696C9.8642 12.2624 9.85446 12.2573 9.84393 12.2548C9.8334 12.2523 9.82242 12.2526 9.812 12.2555C9.80159 12.2584 9.79207 12.2639 9.78434 12.2714C9.7766 12.279 9.7709 12.2883 9.76775 12.2987C9.65988 12.6458 9.36329 13.9413 10.4911 15.0976C10.3505 15.3979 10.2093 15.7168 10.0701 16.0531C10.0598 16.0494 10.0512 16.0464 10.0454 16.0448C9.8475 15.985 9.65781 15.901 9.48064 15.7946C9.33532 15.7073 9.18074 15.6364 9.01976 15.5832C8.56996 15.4356 8.49052 15.2382 8.36034 14.9147C8.30921 14.7876 8.25025 14.6411 8.15795 14.4705C8.13657 14.4311 7.87776 14.1601 7.82213 14.1118C7.8204 14.1103 7.81615 14.1074 7.80989 14.1031C7.76745 14.0738 7.63243 13.9808 7.5593 13.8267C7.48897 13.6822 7.44338 13.527 7.42443 13.3675C7.40321 13.1706 7.32283 13.0412 7.12992 12.9747C6.29076 12.6847 6.55656 11.6685 6.63558 11.3664C6.64342 11.3364 6.64942 11.3135 6.65232 11.299C6.67277 11.1979 6.61221 11.0084 6.56184 10.8508C6.54448 10.7965 6.52833 10.746 6.51713 10.7042C6.51268 10.6855 6.50779 10.6627 6.50191 10.6352L6.50105 10.6312C6.43386 10.3102 6.58272 10.0385 6.69396 9.92691C6.7462 9.87452 6.85833 9.80737 6.9709 9.73997C7.09802 9.66384 7.2257 9.58739 7.26833 9.53146C7.30467 9.48388 7.33769 9.43327 7.37069 9.3827C7.40939 9.32341 7.44804 9.26417 7.49194 9.20995C7.60029 9.07604 7.92807 8.81401 8.37191 8.57609C8.54922 8.48122 8.63 8.28497 8.69395 8.1296C8.72676 8.04986 8.75515 7.9809 8.78988 7.94192C8.88305 7.83676 9.00181 7.78762 9.1222 7.7378C9.22781 7.6941 9.33468 7.64988 9.42663 7.56688C9.4733 7.52481 9.52981 7.49264 9.58618 7.46055C9.64978 7.42434 9.7132 7.38823 9.76212 7.33812C10.2191 6.86904 10.8316 6.67903 11.4375 6.5665C11.7739 6.50367 12.1419 6.57232 12.4998 6.63908C12.5759 6.65328 12.6516 6.6674 12.7264 6.68015C12.7873 6.69094 12.8474 6.70521 12.9066 6.72291C13.8641 6.7549 15.0167 6.95488 15.4331 7.36111C15.6388 7.56143 15.7926 7.80899 15.8809 8.08225C15.9505 8.29484 16.0452 8.49835 16.1631 8.68846L16.419 9.1053C16.5814 9.36885 16.6337 9.68572 16.5646 9.98752C16.5247 10.1595 16.5037 10.3397 16.555 10.4399C16.635 10.5965 16.8805 10.8509 17.0277 10.9966C17.0994 11.0671 17.1784 11.1295 17.2636 11.1829Z" fill="#00D2FF"/>
</svg>
