<svg width="24" height="24" viewBox="0 0 24 24" fill="none" xmlns="http://www.w3.org/2000/svg">
<path fill-rule="evenodd" clip-rule="evenodd" d="M20.6401 12.0004C20.6401 16.7721 16.7718 20.6403 12.0001 20.6403C7.22837 20.6403 3.36011 16.7721 3.36011 12.0004C3.36011 7.22861 7.22837 3.36035 12.0001 3.36035C16.7718 3.36035 20.6401 7.22861 20.6401 12.0004ZM18.7133 12.7094C18.3589 16.1041 15.4886 18.7503 12.0001 18.7503C10.9516 18.7503 9.95888 18.5113 9.07356 18.0847C10.4538 16.6313 11.7249 15.6008 13.2008 14.7811C14.6931 13.9522 16.4165 13.3266 18.7133 12.7094ZM18.7162 11.3195C14.3228 10.2905 11.6471 8.59898 9.2406 5.83835C10.083 5.46051 11.017 5.25035 12.0001 5.25035C15.4982 5.25035 18.3748 7.91131 18.7162 11.3195ZM8.27388 6.37117C7.90177 6.61798 7.55555 6.90071 7.24016 7.21439C8.9121 8.45097 10.3808 9.31688 12.1292 9.96352C12.3108 10.0307 12.4956 10.0956 12.6843 10.1583C11.0047 9.16693 9.60089 7.92384 8.27388 6.37117ZM6.53584 8.03667C5.8264 9.01301 5.37224 10.1868 5.27141 11.4601H13.2463C12.7252 11.3129 12.2305 11.1525 11.7546 10.9765C9.86006 10.2758 8.28619 9.33675 6.53584 8.03667ZM5.27137 12.5401C5.37322 13.8274 5.83623 15.0131 6.55907 15.9958C8.30478 14.6623 9.92016 13.7258 11.779 13.0374C12.2723 12.8547 12.7813 12.69 13.3128 12.5401H5.27137ZM7.26775 16.8136C7.53115 17.0726 7.81571 17.3101 8.1186 17.5234C9.57907 15.9599 10.9447 14.8191 12.5458 13.9103C12.4138 13.9557 12.2833 14.0023 12.1541 14.0501C10.435 14.6868 8.92674 15.5523 7.26775 16.8136Z" fill="url(#paint0_linear_8545_119829)"/>
<defs>
<linearGradient id="paint0_linear_8545_119829" x1="3.36011" y1="12.0004" x2="20.6401" y2="12.0004" gradientUnits="userSpaceOnUse">
<stop stop-color="white"/>
<stop offset="0.36" stop-color="#C9C9C9"/>
<stop offset="0.65" stop-color="#878888"/>
<stop offset="1" stop-color="#404141"/>
</linearGradient>
</defs>
</svg>
