<svg width="24" height="24" viewBox="0 0 24 24" fill="none" xmlns="http://www.w3.org/2000/svg">
<path d="M10.2395 12.6264C9.9221 12.9778 9.92275 13.5544 10.2415 13.9073L12.5563 16.4697C12.875 16.8225 13.3953 16.8232 13.7133 16.4717C14.0308 16.1203 14.0302 15.5436 13.7114 15.1908L11.3966 12.6284C11.0779 12.2756 10.5576 12.2749 10.2395 12.6264Z" fill="#6C6D6D"/>
<path d="M18.1186 11.6103C18.4373 11.2575 18.438 10.6809 18.1206 10.3295C17.8032 9.97803 17.2823 9.97873 16.9635 10.3315L13.7166 13.9258C13.3979 14.2786 13.4552 14.2152 13.1371 14.5673C12.4178 15.3636 11.434 15.2395 11.1152 14.8867C11.1152 14.8867 12.5589 16.4848 12.5595 16.4855C12.877 16.8369 13.3979 16.8362 13.7166 16.4835L18.1186 11.6103Z" fill="url(#paint0_linear_5410_303708)"/>
<path d="M22.7601 10.3294C22.4427 9.97804 21.9218 9.97875 21.6031 10.3314L19.2883 12.8939C18.9696 13.2467 18.969 13.8226 19.2864 14.1747C19.6038 14.5261 20.1247 14.5254 20.4434 14.1727L22.7582 11.6103C23.0769 11.2575 23.0775 10.6815 22.7601 10.3294Z" fill="#6C6D6D"/>
<path d="M13.7368 11.3624C14.0543 11.0109 14.0536 10.4343 13.7348 10.0815L11.4201 7.51906C11.1014 7.16621 10.5811 7.16551 10.263 7.51706C9.94552 7.86846 9.94617 8.44511 10.265 8.79791L12.5798 11.3604C12.8985 11.7132 13.4187 11.7139 13.7368 11.3624Z" fill="#6C6D6D"/>
<path d="M5.85867 12.3921C5.53995 12.7449 5.53932 13.3216 5.85666 13.673C6.17412 14.0244 6.69502 14.0237 7.01372 13.671L10.2607 10.0766C10.5794 9.72379 10.5221 9.78724 10.8402 9.43513C11.5595 8.63888 12.5433 8.76298 12.862 9.11578C12.862 9.11578 11.4184 7.51768 11.4177 7.51698C11.1003 7.16553 10.5794 7.16623 10.2607 7.51898L5.85867 12.3921Z" fill="url(#paint1_linear_5410_303708)"/>
<path d="M1.23948 13.6591C1.55693 14.0105 2.07783 14.0098 2.39654 13.6571L4.7113 11.0947C5.03001 10.7419 5.03064 10.1652 4.7133 9.81384C4.39584 9.46244 3.87494 9.46309 3.55623 9.81584L1.24147 12.3782C0.922762 12.7311 0.922133 13.307 1.23948 13.6591Z" fill="#6C6D6D"/>
<defs>
<linearGradient id="paint0_linear_5410_303708" x1="11.321" y1="19.5367" x2="19.891" y2="10.0402" gradientUnits="userSpaceOnUse">
<stop offset="0.39" stop-color="#B0B1B1"/>
<stop offset="1" stop-color="#6C6D6D"/>
</linearGradient>
<linearGradient id="paint1_linear_5410_303708" x1="3.09166" y1="18.915" x2="12.5693" y2="8.84308" gradientUnits="userSpaceOnUse">
<stop offset="0.31" stop-color="#6C6D6D"/>
<stop offset="1" stop-color="#B0B1B1"/>
</linearGradient>
</defs>
</svg>
