<svg width="24" height="24" viewBox="0 0 24 24" fill="none" xmlns="http://www.w3.org/2000/svg">
<path d="M19.3704 10.418L20.576 12.5051L14.2255 16.1721C14.2255 16.1721 10.3362 18.5227 7.53992 13.6765L9.51739 12.5355C9.51739 12.5355 10.8024 15.3758 13.0296 14.0859C15.2568 12.796 19.3704 10.418 19.3704 10.418Z" fill="#F3F3F3"/>
<path d="M4.62974 13.6612L3.42407 11.574L9.90982 7.82971C9.90982 7.82971 13.7991 5.47909 16.5944 10.3253L14.6169 11.4663C14.6169 11.4663 13.332 8.62598 11.1047 9.91589C8.87752 11.2058 4.62974 13.6612 4.62974 13.6612Z" fill="#F3F3F3"/>
<path d="M12.1223 13.6108C12.9975 13.6108 13.707 12.9013 13.707 12.0261C13.707 11.1509 12.9975 10.4414 12.1223 10.4414C11.2471 10.4414 10.5376 11.1509 10.5376 12.0261C10.5376 12.9013 11.2471 13.6108 12.1223 13.6108Z" fill="#FF931E"/>
<path d="M6.52732 16.0849C6.9844 16.0849 7.35494 15.7144 7.35494 15.2573C7.35494 14.8002 6.9844 14.4297 6.52732 14.4297C6.07025 14.4297 5.69971 14.8002 5.69971 15.2573C5.69971 15.7144 6.07025 16.0849 6.52732 16.0849Z" fill="#F3F3F3"/>
<path d="M17.5737 9.70601C18.0308 9.70601 18.4013 9.33547 18.4013 8.87839C18.4013 8.42132 18.0308 8.05078 17.5737 8.05078C17.1166 8.05078 16.7461 8.42132 16.7461 8.87839C16.7461 9.33547 17.1166 9.70601 17.5737 9.70601Z" fill="#F3F3F3"/>
</svg>
