<?xml version="1.0" encoding="utf-8"?>
<svg width="24" height="24" viewBox="0 0 24 24" fill="none" xmlns="http://www.w3.org/2000/svg">
  <g transform="matrix(0.028098, 0, 0, 0.028098, 10.575318, 11.802302)" style="">
    <circle cx="50.704" cy="7.036" r="343.091" fill="white" style="stroke-width: 1;"/>
    <path d="M -244.24 -9.966 L -223.66 -9.966 C -217.84 -9.966 -212.69 -11.166 -208.24 -13.565 C -203.78 -16.308 -200.18 -19.737 -197.44 -23.851 C -194.35 -28.308 -192.12 -33.107 -190.75 -38.25 C -189.04 -43.736 -188.18 -49.221 -188.18 -54.707 L -188.18 -137.5 C -188.18 -150.19 -186.98 -161.33 -184.58 -170.93 C -181.84 -180.53 -177.38 -188.59 -171.21 -195.1 C -165.04 -201.96 -156.81 -207.1 -146.53 -210.53 C -135.9 -213.96 -122.7 -215.67 -106.93 -215.67 L -65.271 -215.67 L -65.271 -182.24 L -108.98 -182.24 C -123.38 -182.24 -133.67 -178.99 -139.84 -172.47 C -145.67 -165.96 -148.58 -154.13 -148.58 -136.99 L -148.58 -66.02 C -148.58 -43.05 -152.01 -26.079 -158.87 -15.108 C -165.72 -4.48 -173.61 2.72 -182.52 6.491 C -173.61 10.605 -165.72 18.319 -158.87 29.633 C -152.01 40.946 -148.58 57.403 -148.58 79.002 L -148.58 149.97 C -148.58 167.113 -145.5 178.941 -139.32 185.455 C -133.15 191.969 -122.87 195.226 -108.47 195.226 L -65.271 195.226 L -65.271 228.653 L -106.93 228.653 C -122.7 228.653 -135.9 226.939 -146.53 223.51 C -156.81 220.082 -165.04 214.939 -171.21 208.082 C -177.38 201.568 -181.84 193.511 -184.58 183.912 C -186.98 174.312 -188.18 163.17 -188.18 150.485 L -188.18 67.688 C -188.18 62.546 -189.04 57.403 -190.75 52.26 C -192.12 46.775 -194.35 41.975 -197.44 37.861 C -200.18 33.404 -203.78 29.804 -208.24 27.061 C -212.35 24.319 -217.32 22.947 -223.15 22.947 L -244.24 22.947 L -244.24 -9.966 Z" fill="black" style="stroke-width: 1;"/>
    <path d="M 341.657 22.947 L 321.086 22.947 C 315.258 22.947 310.115 24.319 305.658 27.061 C 301.544 29.461 297.944 32.89 294.859 37.347 C 292.116 41.461 289.887 46.261 288.173 51.746 C 286.802 56.889 286.116 62.203 286.116 67.688 L 286.116 150.485 C 286.116 163.17 284.745 174.312 282.002 183.912 C 279.602 193.511 275.145 201.568 268.631 208.082 C 262.46 214.939 254.06 220.082 243.432 223.51 C 233.147 226.939 220.119 228.653 204.348 228.653 L 162.693 228.653 L 162.693 195.226 L 206.405 195.226 C 220.805 195.226 230.918 191.969 236.747 185.455 C 242.918 178.941 246.004 167.113 246.004 149.97 L 246.004 79.002 C 246.004 56.032 249.432 39.232 256.289 28.604 C 263.146 17.633 271.031 10.262 279.945 6.491 C 271.031 2.377 263.146 -5.337 256.289 -16.651 C 249.432 -27.965 246.004 -44.421 246.004 -66.02 L 246.004 -136.99 C 246.004 -154.13 242.918 -165.96 236.747 -172.47 C 230.576 -178.99 220.29 -182.24 205.891 -182.24 L 162.693 -182.24 L 162.693 -215.67 L 204.348 -215.67 C 220.119 -215.67 233.147 -213.96 243.432 -210.53 C 254.06 -207.1 262.46 -201.96 268.631 -195.1 C 275.145 -188.59 279.602 -180.53 282.002 -170.93 C 284.745 -161.33 286.116 -150.19 286.116 -137.5 L 286.116 -54.707 C 286.116 -49.564 286.802 -44.25 288.173 -38.764 C 289.545 -33.622 291.602 -28.822 294.344 -24.365 C 297.43 -20.251 301.03 -16.822 305.144 -14.08 C 309.601 -11.337 314.743 -9.966 320.572 -9.966 L 341.657 -9.966 L 341.657 22.947 Z" fill="black" style="stroke-width: 1;"/>
    <path d="M 56.651 120.5 C 36.457 120.5 17.544 117.229 -0.089 110.688 C -17.723 104.146 -32.797 96.609 -45.311 88.077 L -29.099 65.04 C -17.154 73.572 -3.929 80.398 10.576 85.517 C 25.081 90.637 41.861 93.196 60.917 93.196 C 78.55 93.196 91.633 89.926 100.166 83.384 C 108.983 76.843 113.391 69.306 113.391 60.773 C 113.391 56.792 112.538 53.094 110.831 49.681 C 109.409 46.268 106.423 42.998 101.872 39.869 C 97.606 36.741 91.207 33.754 82.674 30.91 C 74.142 28.066 62.766 25.222 48.545 22.378 C 21.526 16.69 1.19 9.01 -12.461 -0.66 C -25.829 -10.33 -32.512 -22.844 -32.512 -38.202 C -32.512 -54.982 -25.26 -68.918 -10.755 -80.01 C 3.75 -91.387 25.223 -97.075 53.664 -97.075 C 69.591 -97.075 84.95 -94.373 99.739 -88.969 C 114.529 -83.85 127.043 -77.735 137.282 -70.625 L 120.217 -48.014 C 110.831 -54.84 100.166 -60.102 88.22 -63.799 C 76.275 -67.781 63.761 -69.772 50.678 -69.772 C 38.733 -69.772 29.205 -68.35 22.095 -65.505 C 15.269 -62.946 10.292 -59.391 7.163 -54.84 C 4.319 -50.289 2.897 -45.312 2.897 -39.908 C 2.897 -31.092 7.59 -24.124 16.975 -19.004 C 26.645 -14.169 42.004 -9.619 63.05 -5.352 C 86.087 -0.517 103.721 4.886 115.951 10.859 C 128.465 16.832 136.997 23.658 141.548 31.337 C 146.383 39.016 148.8 48.117 148.8 58.64 C 148.8 70.017 145.245 80.398 138.135 89.783 C 131.024 98.885 120.643 106.279 106.992 111.968 C 93.34 117.656 76.56 120.5 56.651 120.5 Z" fill="black" style="stroke-width: 1;"/>
  </g>
</svg>