<svg width="24" height="24" viewBox="0 0 24 24" fill="none" xmlns="http://www.w3.org/2000/svg">
<path fill-rule="evenodd" clip-rule="evenodd" d="M12 21.0293C16.9703 21.0293 21 16.9898 21 12.0073C21.0127 7.01213 16.9703 2.97266 12 2.97266C7.02965 2.97266 3 7.01213 3 11.9946C3 16.9771 7.02965 21.0293 12 21.0293ZM8.51694 8.15899L11.8856 11.5358V8.33739C11.8856 8.31191 11.8856 8.27368 11.8983 8.24819C11.911 8.22271 11.9237 8.19722 11.9491 8.17174C11.9746 8.14625 12 8.13351 12.0254 8.12077C12.0508 8.10802 12.089 8.10802 12.1144 8.10802H15.9025H15.9152C15.9152 8.10802 15.9152 8.10802 15.9279 8.10802C15.9534 8.10802 15.9915 8.12077 16.0169 8.12077C16.0424 8.13351 16.0678 8.14625 16.0932 8.17174C16.1186 8.19722 16.1313 8.22271 16.144 8.24819C16.1568 8.27368 16.1568 8.31191 16.1568 8.33739V12.1093C16.1568 12.122 16.1568 12.122 16.1568 12.1348V15.9321C16.1568 15.9704 16.1568 15.9959 16.144 16.0213C16.1313 16.0468 16.1186 16.0723 16.0932 16.0978C16.0678 16.1233 16.0424 16.136 16.0169 16.1488C15.9915 16.1615 15.9534 16.1615 15.9279 16.1615C15.8898 16.1615 15.8644 16.1615 15.8262 16.1488C15.8008 16.136 15.7627 16.1233 15.75 16.0978L12.3813 12.7209V15.9321C12.3813 15.9576 12.3813 15.9959 12.3686 16.0213C12.3559 16.0468 12.3432 16.0723 12.3178 16.0978C12.2924 16.1233 12.2669 16.136 12.2415 16.1488C12.2161 16.1615 12.178 16.1615 12.1525 16.1615H8.35169H8.33897C8.31355 16.1615 8.27541 16.1488 8.24999 16.1488C8.22457 16.136 8.19914 16.1233 8.17372 16.0978C8.1483 16.0723 8.13558 16.0468 8.12287 16.0213C8.11016 15.9959 8.11016 15.9576 8.11016 15.9321V12.1348C8.11016 12.1093 8.11016 12.0965 8.12287 12.071V8.33739C8.12287 8.28642 8.13558 8.24819 8.16101 8.19722C8.18643 8.15899 8.22457 8.12076 8.27541 8.10802C8.31355 8.09528 8.3644 8.08254 8.41525 8.09528C8.44067 8.10802 8.49152 8.13351 8.51694 8.15899Z" fill="#DF42AB"/>
</svg>
