<svg width="24" height="24" viewBox="0 0 24 24" fill="none" xmlns="http://www.w3.org/2000/svg">
<path d="M6.31835 6.05815C7.94594 7.66892 10.5493 9.04288 13.6939 9.98464C12.0511 9.0636 10.5277 7.91748 9.19408 6.59324C8.69859 6.10096 8.22185 5.57692 7.77637 5.03562L7.46642 4.65796C6.9459 4.97624 6.46359 5.34908 6.02368 5.76611L6.31905 6.05815H6.31835Z" fill="#1E2739"/>
<path d="M3.35986 12.6194C3.48635 14.3841 4.14656 16.0011 5.18274 17.3129L5.45238 17.0471C6.46008 16.055 7.77354 15.154 9.35596 14.3676C10.7445 13.6778 12.3373 13.0868 14.0539 12.6194H3.35986Z" fill="#1E2739"/>
<path d="M13.6932 14.0157C10.5485 14.9582 7.94591 16.3315 6.31832 17.9422L6.02295 18.2343C6.46286 18.6513 6.94587 19.0241 7.46639 19.3424L7.77634 18.9654C8.2218 18.4242 8.69854 17.9001 9.19405 17.4071C10.527 16.0829 12.051 14.9368 13.6932 14.0157Z" fill="#1E2739"/>
<path d="M8.79858 4.32082C9.20096 4.80551 9.63045 5.2757 10.0759 5.71757C12.8919 8.51518 16.4355 10.3649 20.323 11.0656L20.6399 11.1229C20.1973 6.77531 16.5022 3.38184 12.0093 3.38184C10.7973 3.38184 9.64297 3.6297 8.59497 4.07572L8.7979 4.32013L8.79858 4.32082Z" fill="#1E2739"/>
<path d="M14.0539 11.3802C12.3373 10.9128 10.7445 10.3218 9.35596 9.63207C7.77286 8.84566 6.46008 7.94395 5.45238 6.9525L5.18274 6.68738C4.14656 7.9985 3.48565 9.61549 3.35986 11.3802H14.0539Z" fill="#1E2739"/>
<path d="M20.3224 12.935C16.4348 13.6358 12.8919 15.4847 10.0752 18.2831C9.62837 18.727 9.19889 19.1972 8.7979 19.6798L8.59497 19.9242C9.64297 20.3702 10.7966 20.6182 12.0086 20.6182C16.5015 20.6182 20.1959 17.2253 20.6386 12.8777L20.3217 12.9343L20.3224 12.935Z" fill="#1E2739"/>
</svg>
