<svg width="24" height="24" viewBox="0 0 24 24" fill="none" xmlns="http://www.w3.org/2000/svg">
<path fill-rule="evenodd" clip-rule="evenodd" d="M2.52844 12.0007C2.52844 6.75375 6.76922 2.50049 11.9998 2.50049C17.2313 2.50049 21.4721 6.75375 21.4716 12.0002C21.4716 13.8586 20.9394 15.5921 20.02 17.056C19.7664 17.4593 19.4841 17.8422 19.1746 18.202L12.0124 11.0187L5.85348 17.1953L4.83664 18.2152C4.52626 17.8562 4.24293 17.4738 3.98941 17.071C3.0639 15.6043 2.52844 13.8651 2.52844 12.0007ZM18.9342 15.7024L19.0208 15.5286L19.0213 15.529C19.5647 14.4419 19.8518 13.2215 19.8518 12.0007C19.8518 7.65862 16.3296 4.12608 12.0003 4.12608C7.67096 4.12608 4.14925 7.65862 4.14925 12.0007C4.14925 13.228 4.43912 14.4536 4.98762 15.5449L5.07477 15.7179L12.0124 8.75979L18.9342 15.7024ZM12.0002 21.4999C14.3583 21.4999 16.5155 20.6357 18.1735 19.2055L12.0128 13.0261L5.84035 19.2162C7.49612 20.6404 9.64212 21.4999 12.0002 21.4999Z" fill="url(#paint0_linear_4741_37468)"/>
<defs>
<linearGradient id="paint0_linear_4741_37468" x1="12" y1="2.50049" x2="12.0282" y2="21.4999" gradientUnits="userSpaceOnUse">
<stop stop-color="#169E00"/>
<stop offset="0.49" stop-color="#00C537"/>
<stop offset="1" stop-color="#00B1C9"/>
</linearGradient>
</defs>
</svg>
