<?xml version="1.0" encoding="UTF-8" standalone="no"?>
<svg
   version="1.1"
   id="Layer_1"
   x="0px"
   y="0px"
   viewBox="0 0 500 500"
   style="enable-background:new 0 0 500 500;"
   xml:space="preserve"
   sodipodi:docname="Chain1890.svg"
   inkscape:version="1.1-alpha (17bc9184, 2021-03-28)"
   xmlns:inkscape="http://www.inkscape.org/namespaces/inkscape"
   xmlns:sodipodi="http://sodipodi.sourceforge.net/DTD/sodipodi-0.dtd"
   xmlns="http://www.w3.org/2000/svg"
   xmlns:svg="http://www.w3.org/2000/svg"><sodipodi:namedview
   id="namedview67"
   pagecolor="#ffffff"
   bordercolor="#666666"
   borderopacity="1.0"
   objecttolerance="10.0"
   gridtolerance="10.0"
   guidetolerance="10.0"
   inkscape:pageshadow="2"
   inkscape:pageopacity="0.0"
   inkscape:pagecheckerboard="0"
   showgrid="false"
   inkscape:zoom="1.506"
   inkscape:cx="250"
   inkscape:cy="257.96813"
   inkscape:window-width="1312"
   inkscape:window-height="1003"
   inkscape:window-x="44"
   inkscape:window-y="25"
   inkscape:window-maximized="0"
   inkscape:current-layer="Layer_1" /><defs
   id="defs20"><linearGradient
     id="paint0_linear_479_2389"
     x1="14.1197"
     y1="19.0317"
     x2="27.3654"
     y2="30.8557"
     gradientUnits="userSpaceOnUse"
     gradientTransform="matrix(10.793454,0,0,10.793454,7.2145895,-0.3333695)"><stop
       offset="0.12"
       stop-color="#6978FF"
       id="stop39" /><stop
       offset="0.19"
       stop-color="#5F87FF"
       id="stop41" /><stop
       offset="0.35"
       stop-color="#4DA4FF"
       id="stop43" /><stop
       offset="0.51"
       stop-color="#40B9FF"
       id="stop45" /><stop
       offset="0.66"
       stop-color="#38C6FF"
       id="stop47" /><stop
       offset="0.81"
       stop-color="#36CBFF"
       id="stop49" /><stop
       offset="1"
       stop-color="#67FFFC"
       id="stop51" /></linearGradient><linearGradient
     id="paint1_linear_479_2389"
     x1="11.5384"
     y1="42.839298"
     x2="50.9618"
     y2="6.2297602"
     gradientUnits="userSpaceOnUse"
     gradientTransform="matrix(10.793454,0,0,10.793454,7.2145895,-0.3333695)"><stop
       offset="0.39"
       stop-color="#6978FF"
       id="stop54" /><stop
       offset="0.44"
       stop-color="#6184FF"
       id="stop56" /><stop
       offset="0.65"
       stop-color="#49AAFF"
       id="stop58" /><stop
       offset="0.81"
       stop-color="#3BC2FF"
       id="stop60" /><stop
       offset="0.91"
       stop-color="#36CBFF"
       id="stop62" /><stop
       offset="1"
       stop-color="#67FFFC"
       id="stop64" /></linearGradient><linearGradient
     id="paint2_linear_479_2389"
     x1="42.680801"
     y1="20.3204"
     x2="12.2821"
     y2="45.814201"
     gradientUnits="userSpaceOnUse"
     gradientTransform="matrix(10.793454,0,0,10.793454,7.2145895,-0.3333695)"><stop
       offset="0.05"
       stop-color="#6978FF"
       id="stop67" /><stop
       offset="0.12"
       stop-color="#5F87FF"
       id="stop69" /><stop
       offset="0.3"
       stop-color="#4DA4FF"
       id="stop71" /><stop
       offset="0.48"
       stop-color="#40B9FF"
       id="stop73" /><stop
       offset="0.65"
       stop-color="#38C6FF"
       id="stop75" /><stop
       offset="0.81"
       stop-color="#36CBFF"
       id="stop77" /><stop
       offset="1"
       stop-color="#67FFFC"
       id="stop79" /></linearGradient><linearGradient
     id="paint3_linear_479_2389"
     x1="20.18"
     y1="14.7045"
     x2="25.0019"
     y2="20.5126"
     gradientUnits="userSpaceOnUse"
     gradientTransform="matrix(10.793454,0,0,10.793454,7.2145895,-0.3333695)"><stop
       offset="0.12"
       stop-color="#6978FF"
       id="stop82" /><stop
       offset="0.19"
       stop-color="#5F87FF"
       id="stop84" /><stop
       offset="0.35"
       stop-color="#4DA4FF"
       id="stop86" /><stop
       offset="0.51"
       stop-color="#40B9FF"
       id="stop88" /><stop
       offset="0.66"
       stop-color="#38C6FF"
       id="stop90" /><stop
       offset="0.81"
       stop-color="#36CBFF"
       id="stop92" /><stop
       offset="1"
       stop-color="#67FFFC"
       id="stop94" /></linearGradient><linearGradient
     id="paint4_linear_479_2389"
     x1="4.17027"
     y1="36.3223"
     x2="23.1255"
     y2="16.178499"
     gradientUnits="userSpaceOnUse"
     gradientTransform="matrix(10.793454,0,0,10.793454,7.2145895,-0.3333695)"><stop
       offset="0.31"
       stop-color="#6978FF"
       id="stop97" /><stop
       offset="0.36"
       stop-color="#5F87FF"
       id="stop99" /><stop
       offset="0.48"
       stop-color="#4DA4FF"
       id="stop101" /><stop
       offset="0.59"
       stop-color="#40B9FF"
       id="stop103" /><stop
       offset="0.7"
       stop-color="#38C6FF"
       id="stop105" /><stop
       offset="0.81"
       stop-color="#36CBFF"
       id="stop107" /><stop
       offset="1"
       stop-color="#67FFFC"
       id="stop109" /></linearGradient><linearGradient
     id="paint5_linear_479_2389"
     x1="20.5944"
     y1="0.84867001"
     x2="0.33115"
     y2="21.8307"
     gradientUnits="userSpaceOnUse"
     gradientTransform="matrix(10.793454,0,0,10.793454,7.2145895,-0.3333695)"><stop
       stop-color="#6978FF"
       id="stop112" /><stop
       offset="0.09"
       stop-color="#5F87FF"
       id="stop114" /><stop
       offset="0.28"
       stop-color="#4DA4FF"
       id="stop116" /><stop
       offset="0.46"
       stop-color="#40B9FF"
       id="stop118" /><stop
       offset="0.64"
       stop-color="#38C6FF"
       id="stop120" /><stop
       offset="0.81"
       stop-color="#36CBFF"
       id="stop122" /><stop
       offset="1"
       stop-color="#67FFFC"
       id="stop124" /></linearGradient></defs>
<style
   type="text/css"
   id="style9">
	.st0{fill:#FF0420;}
	.st1{fill:#FFFFFF;}
</style>



<path
   d="m 206.71433,256.12448 c -6.85277,7.58673 -6.83874,20.03373 0.0431,27.65068 l 49.9683,55.31429 c 6.87974,7.61694 18.11142,7.63205 24.97714,0.0431 6.85275,-7.58563 6.83981,-20.03373 -0.0431,-27.64959 l -49.96832,-55.31533 c -6.87974,-7.61585 -18.11032,-7.63096 -24.97712,-0.0431 z"
   fill="url(#paint0_linear_479_2389)"
   id="path22"
   style="fill:url(#paint0_linear_479_2389);stroke-width:10.7935" /><path
   d="m 376.74145,233.89645 c 6.87975,-7.61588 6.89378,-20.06395 0.0431,-27.64959 -6.85276,-7.58673 -18.09739,-7.57161 -24.97821,0.0431 l -70.09161,77.59091 c -6.87976,7.61585 -5.64282,6.24617 -12.50854,13.84799 -15.52746,17.18858 -36.76575,14.50964 -43.64656,6.89379 0,0 31.16394,34.49803 31.17796,34.51315 6.85278,7.58564 18.09738,7.57052 24.97714,-0.0431 z"
   fill="url(#paint1_linear_479_2389)"
   id="path24"
   style="fill:url(#paint1_linear_479_2389);stroke-width:10.7935" /><path
   d="m 476.99754,206.65161 c -6.85278,-7.58564 -18.0974,-7.57053 -24.97714,0.0431 l -49.96829,55.31537 c -6.87975,7.61586 -6.89378,20.04884 -0.0431,27.64958 6.85275,7.58565 18.09738,7.57054 24.97713,-0.0431 l 49.9683,-55.31538 c 6.88081,-7.61586 6.89378,-20.04884 0.0431,-27.64958 z"
   fill="url(#paint2_linear_479_2389)"
   id="path26"
   style="fill:url(#paint2_linear_479_2389);stroke-width:10.7935" /><path
   d="m 282.02458,228.67025 c 6.85276,-7.58672 6.83873,-20.03373 -0.0433,-27.65067 l -49.96829,-55.3143 c -6.87974,-7.61694 -18.11141,-7.63204 -24.97712,-0.0431 -6.85384,7.58564 -6.83981,20.03373 0.0431,27.6496 l 49.96829,55.31537 c 6.88084,7.61586 18.11143,7.63096 24.97821,0.0431 z"
   fill="url(#paint3_linear_479_2389)"
   id="path28"
   style="fill:url(#paint3_linear_479_2389);stroke-width:10.7935" /><path
   d="m 111.9572,250.90153 c -6.88009,7.61587 -6.89368,20.06395 -0.0433,27.6496 6.85298,7.58671 18.09761,7.57159 24.97735,-0.0432 l 70.09162,-77.59091 c 6.87975,-7.61693 5.64282,-6.24724 12.50962,-13.84799 15.52746,-17.18859 36.76574,-14.50964 43.64548,-6.89379 0,0 -31.16394,-34.49803 -31.17796,-34.51314 -6.85278,-7.58672 -18.09739,-7.57161 -24.97714,0.0431 z"
   fill="url(#paint4_linear_479_2389)"
   id="path30"
   style="fill:url(#paint4_linear_479_2389);stroke-width:10.7935" /><path
   d="m 12.34397,278.3277 c 6.85287,7.58564 18.097493,7.57052 24.97745,-0.0431 l 49.968409,-55.31539 c 6.879957,-7.61585 6.893564,-20.06395 0.04311,-27.64958 -6.852869,-7.58564 -18.097379,-7.57162 -24.977464,0.0431 l -49.968395,55.3143 c -6.8799693,7.61694 -6.8935629,20.04883 -0.04311,27.65067 z"
   fill="url(#paint5_linear_479_2389)"
   id="path32"
   style="fill:url(#paint5_linear_479_2389);stroke-width:10.7935" /></svg>
