<svg width="24" height="24" viewBox="0 0 24 24" fill="none" xmlns="http://www.w3.org/2000/svg">
<g opacity="0.8">
<path d="M11.9999 22.6673C17.891 22.6673 22.6666 17.8917 22.6666 12.0007C22.6666 6.10961 17.891 1.33398 11.9999 1.33398C6.10888 1.33398 1.33325 6.10961 1.33325 12.0007C1.33325 17.8917 6.10888 22.6673 11.9999 22.6673Z" fill="#404141"/>
<path d="M9.86591 17.0411C9.9421 16.8125 10.0945 16.584 10.1707 16.2792C10.1707 16.203 10.1707 16.0506 10.0945 15.9744C9.63734 15.3649 9.48496 14.6792 9.63734 13.9935C9.63734 13.9173 9.63734 13.8411 9.71353 13.8411C9.71353 13.7649 9.78972 13.7649 9.78972 13.6887C10.3231 14.2221 10.4754 14.9078 10.5516 15.5935C10.704 15.2887 10.9326 14.984 11.085 14.603C11.085 14.5268 11.0088 14.4506 11.0088 14.3744C10.5516 13.6887 10.4754 12.9268 10.7802 12.0887C11.3135 12.6221 11.4659 13.3078 11.4659 13.9935C11.6945 13.6887 11.8469 13.384 12.0754 13.1554C12.0754 13.0792 12.0754 13.003 11.9992 12.9268C11.7707 12.2411 11.7707 11.5554 12.1516 10.8697C12.2278 10.7935 12.2278 10.7173 12.304 10.6411C12.685 11.2506 12.6088 11.8602 12.5326 12.4697H12.6088C12.7612 12.2411 12.9135 12.0887 12.9897 11.8602C13.2945 11.0221 13.7516 10.4125 14.5897 10.0316C14.7421 9.9554 14.8183 9.9554 14.9707 9.87921C14.9707 10.0316 14.9707 10.1078 14.8945 10.2602C14.6659 11.0221 14.1326 11.6316 13.3707 12.0125C13.0659 12.1649 12.8373 12.3935 12.685 12.6983C13.2945 12.3935 13.904 12.2411 14.6659 12.4697C14.5135 12.6221 14.4373 12.6983 14.285 12.7744C13.7516 13.1554 13.1421 13.3078 12.5326 13.2316C12.304 13.2316 12.2278 13.2316 12.1516 13.384C11.9992 13.6125 11.8469 13.9173 11.6945 14.2221C12.3802 13.9173 13.0659 13.7649 13.8278 14.1459C13.5992 14.2983 13.4469 14.4506 13.2945 14.5268C12.7612 14.7554 12.2278 14.8316 11.6183 14.6792C11.4659 14.603 11.3897 14.6792 11.3135 14.8316C11.1611 15.1363 11.0088 15.4411 10.7802 15.8221C11.4659 15.5173 12.1516 15.2887 12.9135 15.5935L12.9897 15.6697C12.9135 15.7459 12.8373 15.7459 12.685 15.8221C12.0754 16.203 11.4659 16.3554 10.7802 16.2792C10.6278 16.203 10.4754 16.2792 10.4754 16.4316C10.2469 17.0411 10.0183 17.6506 9.78972 18.184C9.71353 18.4125 9.56115 18.6411 9.40877 18.8697C9.33258 19.0221 9.1802 19.0983 9.02782 19.0221C6.97067 17.9554 5.52305 16.3554 4.98972 14.1459C3.92305 10.1078 6.13258 6.06968 10.0945 4.92683C14.6659 3.5554 19.1611 6.60302 19.8469 11.0221C20.3802 14.603 18.3231 18.0316 14.9707 19.2506C14.7421 19.3268 14.5897 19.403 14.4373 19.2506C14.285 19.0221 14.285 18.8697 14.3611 18.6411C14.6659 17.8792 14.8945 17.1173 15.1231 16.3554C15.2754 15.8983 15.4278 15.7459 15.885 15.7459C16.3421 15.6697 16.7992 15.6697 17.2564 15.5935C17.6373 15.5173 17.7897 15.3649 17.7897 14.984C17.7897 14.9078 17.7897 14.7554 17.7897 14.6792C17.7135 14.5268 17.7897 14.3744 17.9421 14.2221C18.0945 14.0697 18.0945 13.9935 17.9421 13.8411C17.8659 13.7649 17.8659 13.6125 17.9421 13.6125C18.0945 13.4602 18.0945 13.3078 17.9421 13.1554C17.7897 13.003 17.8659 12.8506 18.0183 12.7744C18.1707 12.6983 18.2469 12.6221 18.3231 12.4697C18.5516 12.3173 18.4754 12.1649 18.3231 12.0125C18.0183 11.7078 17.6373 11.4792 17.3326 11.1744C17.104 11.0221 17.0278 10.7173 17.104 10.4887C17.1802 10.0316 17.104 9.65064 16.8754 9.26968C16.6469 8.96492 16.4945 8.58397 16.3421 8.27921C16.1135 7.74587 15.7326 7.36492 15.1992 7.21254C14.6659 7.06016 14.1326 6.98397 13.5231 6.90778C13.1421 6.83159 12.7612 6.83159 12.3802 6.7554C11.3897 6.60302 10.4754 6.83159 9.71353 7.5173C9.48496 7.66968 9.25639 7.89826 8.95163 7.97445C8.72305 8.05064 8.57067 8.27921 8.41829 8.43159C8.3421 8.66016 8.18972 8.81254 7.96115 8.88873C7.5802 9.19349 7.19925 9.42206 6.89448 9.80302C6.81829 9.9554 6.58972 10.0316 6.51353 10.1078C6.05639 10.4125 5.9802 10.7173 6.13258 11.1744C6.20877 11.4792 6.28496 11.784 6.20877 12.0887C6.13258 12.3173 6.13258 12.6221 6.20877 12.8506C6.20877 13.1554 6.43734 13.4602 6.7421 13.5363C6.97067 13.6125 7.12305 13.7649 7.12305 13.9935C7.19924 14.2983 7.35163 14.603 7.5802 14.8316C7.80877 15.0602 7.96115 15.3649 8.11353 15.6697C8.26591 16.0506 8.49448 16.2792 8.87543 16.4316C9.25639 16.584 9.56115 16.7364 9.9421 16.8887C9.71353 16.9649 9.78972 16.9649 9.86591 17.0411Z" fill="#878888"/>
</g>
</svg>
