<svg width="25" height="25" viewBox="0 0 25 25" fill="none" xmlns="http://www.w3.org/2000/svg">
<circle cx="12.5" cy="12.4993" r="8.63988" fill="#EEF2F6"/>
<path fill-rule="evenodd" clip-rule="evenodd" d="M12.5 21.1391C17.2717 21.1391 21.1399 17.2709 21.1399 12.4993C21.1399 7.72758 17.2717 3.85938 12.5 3.85938C7.72831 3.85938 3.86011 7.72758 3.86011 12.4993C3.86011 17.2709 7.72831 21.1391 12.5 21.1391ZM18.7379 12.5009C18.7379 15.9365 15.9527 18.7216 12.5171 18.7216C9.25497 18.7216 6.57927 16.2106 6.31744 13.0159H15.4547V11.9791H6.318C6.58301 8.78766 9.25724 6.28015 12.5171 6.28015C15.9527 6.28015 18.7379 9.06526 18.7379 12.5009Z" fill="#8E9BB2"/>
</svg>
