<svg width="24" height="24" viewBox="0 0 24 24" fill="none" xmlns="http://www.w3.org/2000/svg">
<path d="M10.8386 7.13592C11.6679 6.93625 12.5346 6.95285 13.3557 7.18413C14.1767 7.41541 14.9248 7.85363 15.5283 8.4569C17.173 10.1034 17.4942 12.5468 16.3067 14.4788C15.927 15.0944 15.4703 15.6589 14.9478 16.1588C13.2876 17.8112 10.2401 20.8247 10.2401 20.8247C12.5079 21.2793 14.8636 20.842 16.8176 19.6036C18.7716 18.3652 20.1737 16.4209 20.7326 14.1748C21.2922 11.9288 20.9663 9.55346 19.8225 7.5416C18.6786 5.52974 16.8047 4.03587 14.5896 3.36999L10.8386 7.13592Z" fill="#DCE3EF"/>
<path d="M10.636 16.8188C11.4571 17.05 12.3237 17.0668 13.1531 16.8675L9.39313 20.625C7.18217 19.9554 5.31311 18.4606 4.17287 16.4501C3.03263 14.4396 2.70851 12.0672 3.26761 9.82417C3.82605 7.5809 5.22564 5.63874 7.17623 4.4003C9.12683 3.16186 11.4788 2.72214 13.7446 3.17229C13.7446 3.17229 10.6971 6.18373 9.03742 7.8387C8.51426 8.33686 8.05752 8.90051 7.67853 9.51567C7.10116 10.4593 6.86411 11.5724 7.00682 12.6697C7.14953 13.767 7.66339 14.7822 8.46289 15.5466C9.06672 16.1495 9.81488 16.5875 10.636 16.8188Z" fill="#DCE3EF"/>
</svg>
