<svg width="24" height="24" viewBox="0 0 24 24" fill="none" xmlns="http://www.w3.org/2000/svg">
<path d="M20.2772 16.7603L17.3162 12.7374C16.9946 12.3002 16.5183 12.0383 16.011 11.9806C15.8955 11.9672 15.7924 11.9002 15.7347 11.7991C15.6759 11.6981 15.6697 11.5754 15.7161 11.4682C15.9192 11.0001 15.9316 10.4568 15.713 9.95983L13.7098 5.38421C13.4128 4.70478 12.7417 4.2666 12.0004 4.2666C11.2591 4.2666 10.5879 4.70581 10.291 5.38421L8.2877 9.95983C8.07016 10.4568 8.0815 11.0001 8.28462 11.4682C8.331 11.5754 8.32379 11.6981 8.26606 11.7991C8.20729 11.9002 8.10522 11.9672 7.98975 11.9806C7.4825 12.0383 7.00617 12.3002 6.68449 12.7374L3.72344 16.7603C3.28423 17.3574 3.2399 18.1573 3.61003 18.7997C3.9812 19.441 4.6967 19.8028 5.43284 19.7215L10.3971 19.1688C10.9364 19.109 11.4013 18.8276 11.7045 18.4172C11.7735 18.3234 11.8839 18.2676 12.0004 18.2676C12.1169 18.2676 12.2262 18.3234 12.2963 18.4172C12.5994 18.8276 13.0644 19.109 13.6036 19.1688L18.5678 19.7215C19.304 19.8039 20.0195 19.442 20.3906 18.7997C20.7608 18.1573 20.7164 17.3574 20.2772 16.7603ZM9.58265 10.5341L11.589 5.95333C11.6612 5.7894 11.823 5.68321 12.0014 5.68321C12.1798 5.68321 12.3416 5.7894 12.4138 5.95333L14.4201 10.5341C14.483 10.6784 14.4696 10.8455 14.383 10.9774C14.2964 11.1094 14.15 11.1888 13.9912 11.1888H10.0105C9.85278 11.1888 9.70535 11.1094 9.61873 10.9774C9.53214 10.8455 9.51975 10.6784 9.58265 10.5341ZM10.6126 17.5079C10.5415 17.6491 10.4033 17.7439 10.2466 17.7614L5.27717 18.314C5.09983 18.3337 4.92662 18.247 4.83693 18.0925C4.74723 17.9378 4.75857 17.745 4.86476 17.6006L7.82891 13.5735C7.92273 13.4467 8.07326 13.3745 8.231 13.3838C8.38875 13.392 8.53103 13.4797 8.61041 13.6168L8.6135 13.622L10.5982 17.0593L10.6013 17.0645C10.6807 17.2016 10.6848 17.3686 10.6137 17.5088L10.6126 17.5079ZM12.4086 15.9531C12.3241 16.0984 12.1695 16.1892 12.0004 16.1892C11.8323 16.1892 11.6766 16.0995 11.5921 15.9541L10.0672 13.3137C9.98269 13.1683 9.98269 12.9879 10.0672 12.8425C10.1518 12.6971 10.3064 12.6064 10.4755 12.6064H13.5242C13.6922 12.6064 13.8479 12.6951 13.9325 12.8415C14.017 12.9879 14.017 13.1673 13.9325 13.3127L12.4086 15.9531ZM19.1649 18.0925C19.0751 18.247 18.903 18.3348 18.7246 18.3151L13.7551 17.7625C13.5984 17.745 13.4603 17.6501 13.3891 17.5088C13.318 17.3676 13.3221 17.2006 13.4015 17.0645L13.4046 17.0593L15.3893 13.622L15.3924 13.6168C15.4718 13.4797 15.614 13.392 15.7718 13.3838C15.9295 13.3756 16.08 13.4467 16.1738 13.5735L19.1381 17.6006C19.2442 17.745 19.2535 17.9378 19.1649 18.0925Z" fill="#8E9BB2"/>
</svg>
