<svg width="24" height="24" viewBox="0 0 24 24" fill="none" xmlns="http://www.w3.org/2000/svg">
<path fill-rule="evenodd" clip-rule="evenodd" d="M7.37721 18.197C5.49082 16.7873 4.26958 14.5365 4.26958 12.0004C4.26958 7.73092 7.73078 4.26983 12 4.26983C15.5237 4.26983 19.3716 6.37562 20.3022 9.60061C19.2625 5.99673 15.9397 3.36035 12.0002 3.36035C7.22851 3.36035 3.36011 7.22871 3.36011 12.0004C3.36011 16.7722 7.22851 20.6403 12 20.6403C16.7719 20.6403 20.6401 16.7722 20.6401 12.0004V11.5456H20.1653L20.102 11.5447C19.7539 11.5383 19.406 11.5202 19.0591 11.4903C18.4109 11.4339 17.6715 11.3241 17.168 11.1229C16.358 10.7993 15.9006 10.3704 15.378 9.86854L15.3478 9.83944C14.8242 9.33668 14.236 8.77172 13.2167 8.29206C12.2127 7.8195 11.1024 7.89535 10.2863 8.06324C9.93952 8.13507 9.59829 8.23159 9.26523 8.35209C9.13907 8.39774 9.038 8.43849 8.9671 8.46832C8.55645 8.64112 8.15798 8.84575 7.75496 9.03547C7.75496 9.03547 8.54573 9.25229 8.93656 9.37343C9.0413 9.40697 9.14474 9.44441 9.24669 9.48566C9.50628 9.58992 9.75576 9.71779 9.99201 9.86764C10.4138 10.1387 10.7635 10.4799 10.9069 10.8988C10.0116 11.0165 9.17179 11.4096 8.54373 11.779C8.22575 11.9664 7.91875 12.1718 7.62425 12.3943C7.51318 12.4786 7.42502 12.5489 7.3643 12.5991C7.31304 12.6413 6.50445 13.354 6.50445 13.354C6.50445 13.354 7.54754 13.465 8.06236 13.5686C8.40466 13.6378 8.86621 13.7487 9.34776 13.9166C9.8315 14.0854 10.3203 14.3066 10.7257 14.5896C11.1322 14.8734 11.4298 15.2012 11.5765 15.5766C12.0044 16.6698 11.5846 17.7346 10.7419 18.3336C9.9093 18.9254 8.64316 19.0662 7.37721 18.197ZM10.3252 19.549C10.6619 19.4398 10.9801 19.2799 11.2687 19.075C12.4156 18.2597 13.0189 16.7667 12.4236 15.2452C12.1896 14.6475 11.7426 14.1902 11.2463 13.8439C10.7491 13.4968 10.1769 13.2427 9.64753 13.0581C9.32597 12.9466 8.99915 12.851 8.66825 12.7716C8.77873 12.6994 8.89086 12.6298 9.00455 12.5628C9.70461 12.1511 10.5861 11.773 11.4314 11.773C12.7057 11.773 13.6546 12.1641 14.5606 12.5835C14.643 12.6217 14.7257 12.6604 14.8088 12.6994C15.6185 13.0793 16.4687 13.4782 17.4567 13.4782C18.4147 13.4782 19.1611 13.2072 19.6754 12.9271C19.2176 16.7598 15.956 19.7309 12 19.7309C11.425 19.7309 10.8646 19.6681 10.3252 19.549ZM18.6928 12.3687C18.3523 12.4849 17.9395 12.5688 17.4569 12.5688C16.6819 12.5688 16.016 12.2583 15.1705 11.8641L14.9429 11.7582C14.0965 11.3663 13.1173 10.9508 11.8424 10.8755C11.6715 10.0315 11.0316 9.45492 10.4839 9.10259C10.424 9.06408 10.3632 9.0269 10.3016 8.99108C10.3561 8.97835 10.4125 8.96562 10.4696 8.95398C11.2058 8.80246 12.0851 8.76463 12.8295 9.11495C13.7132 9.53077 14.2116 10.0095 14.7303 10.5075L14.7481 10.5246C15.2816 11.037 15.8461 11.5742 16.8306 11.9674C17.3778 12.1859 18.0857 12.3034 18.6928 12.3687Z" fill="url(#paint0_linear_7798_280156)"/>
<defs>
<linearGradient id="paint0_linear_7798_280156" x1="3.36011" y1="12.0004" x2="20.6401" y2="12.0004" gradientUnits="userSpaceOnUse">
<stop stop-color="#878888"/>
<stop offset="0.545" stop-color="#6C6D6D"/>
<stop offset="1" stop-color="#878888"/>
</linearGradient>
</defs>
</svg>
