<svg width="24" height="24" viewBox="0 0 24 24" fill="none" xmlns="http://www.w3.org/2000/svg">
<path d="M3 8.63424V6.1182C3 5.35393 3.76751 4.73438 4.71428 4.73438H7.83117C8.77795 4.73438 9.54546 5.35393 9.54546 6.11819V8.14999C9.54546 8.50032 9.71786 8.8363 10.0247 9.08402C10.6638 9.59988 11.6999 9.59988 12.3389 9.08402L17.2252 5.13969C17.5467 4.88017 17.9827 4.73438 18.4374 4.73438H19.2857C20.2325 4.73438 21 5.35393 21 6.1182V6.80302C21 7.17003 20.8194 7.52201 20.4979 7.78153L15.6116 11.7259C14.9726 12.2417 14.9726 13.0781 15.6116 13.594C15.9185 13.8416 16.3348 13.9808 16.7687 13.9808H19.2857C20.2325 13.9808 21 14.6003 21 15.3646V17.8807C21 18.645 20.2325 19.2645 19.2857 19.2645H16.1688C15.2221 19.2645 14.4545 18.645 14.4545 17.8807V15.8489C14.4545 15.4986 14.2821 15.1626 13.9753 14.9148C13.3362 14.399 12.3001 14.399 11.6611 14.9148L6.77483 18.8592C6.45334 19.1187 6.01731 19.2645 5.56265 19.2645H4.71429C3.76751 19.2645 3 18.645 3 17.8807V17.1959C3 16.8288 3.18061 16.4769 3.5021 16.2174L8.38837 12.273C9.02741 11.7572 9.02741 10.9208 8.38837 10.4049C8.0815 10.1572 7.66528 10.0181 7.23129 10.0181H4.71429C3.76751 10.0181 3 9.3985 3 8.63424Z" fill="#B16EFF"/>
</svg>
