<svg width="24" height="24" viewBox="0 0 24 24" fill="none" xmlns="http://www.w3.org/2000/svg">
<path fill-rule="evenodd" clip-rule="evenodd" d="M3.38562 12.0003C3.38562 7.22821 7.24261 3.35986 11.9999 3.35986C16.7579 3.35986 20.6149 7.22821 20.6145 11.9999C20.6145 13.6901 20.1304 15.2667 19.2942 16.5981C19.0636 16.9649 18.8068 17.3131 18.5253 17.6404L12.0113 11.1072L6.40975 16.7248L5.48492 17.6524C5.20264 17.3259 4.94495 16.9781 4.71437 16.6117C3.87262 15.2778 3.38562 13.696 3.38562 12.0003ZM18.3066 15.367L18.3855 15.2089L18.3859 15.2094C18.8801 14.2206 19.1412 13.1106 19.1412 12.0003C19.1412 8.05119 15.9378 4.83834 12.0002 4.83834C8.06274 4.83834 4.85975 8.05119 4.85975 12.0003C4.85975 13.1166 5.12338 14.2312 5.62225 15.2238L5.70151 15.3811L12.0113 9.0527L18.3066 15.367ZM12.0002 20.6399C14.1449 20.6399 16.1068 19.8539 17.6148 18.5531L12.0116 12.9329L6.39781 18.5629C7.90373 19.8581 9.85552 20.6399 12.0002 20.6399Z" fill="#8E9BB2"/>
</svg>
