<svg width="24" height="24" viewBox="0 0 24 24" fill="none" xmlns="http://www.w3.org/2000/svg">
<path d="M16.4067 3.2226C18.9468 4.30611 20.6401 6.9762 20.4477 9.68498C15.9064 9.68498 11.3651 9.72367 6.82373 9.64628C6.82373 7.82753 7.4395 5.97008 8.74802 4.69308C10.6723 2.71954 13.8666 2.10039 16.4067 3.2226Z" fill="#5FC0C1"/>
<path d="M16.214 20.6372C16.4834 20.6372 16.7143 20.792 16.7143 20.9855C16.7143 21.179 16.4834 21.3338 16.214 21.3338H8.90168C8.63228 21.3338 8.40137 21.179 8.40137 20.9855C8.40137 20.792 8.63228 20.6372 8.90168 20.6372H16.214Z" fill="#E1177C"/>
<path d="M7.32392 21.3333C7.6003 21.3333 7.82435 21.108 7.82435 20.8302C7.82435 20.5524 7.6003 20.3271 7.32392 20.3271C7.04754 20.3271 6.82349 20.5524 6.82349 20.8302C6.82349 21.108 7.04754 21.3333 7.32392 21.3333Z" fill="#E1177C"/>
<path d="M11.7114 19.4758C11.9878 19.4758 12.2118 19.2506 12.2118 18.9728C12.2118 18.695 11.9878 18.4697 11.7114 18.4697C11.435 18.4697 11.2109 18.695 11.2109 18.9728C11.2109 19.2506 11.435 19.4758 11.7114 19.4758Z" fill="#E1177C"/>
<path d="M20.2937 18.4697C20.5631 18.4697 20.794 18.7019 20.794 18.9728C20.794 19.2437 20.5631 19.4758 20.2937 19.4758H13.1353C12.8659 19.4758 12.635 19.2437 12.635 18.9728C12.635 18.7019 12.8659 18.4697 13.1353 18.4697H20.2937Z" fill="#E1177C"/>
<path d="M2.32099 17.6189C2.59737 17.6189 2.82142 17.3937 2.82142 17.1159C2.82142 16.838 2.59737 16.6128 2.32099 16.6128C2.04461 16.6128 1.82056 16.838 1.82056 17.1159C1.82056 17.3937 2.04461 17.6189 2.32099 17.6189Z" fill="#E1177C"/>
<path d="M9.44065 16.6128C9.71005 16.6128 9.94096 16.845 9.94096 17.1159C9.94096 17.3867 9.71005 17.6189 9.44065 17.6189H3.55232C3.28292 17.6189 3.052 17.3867 3.052 17.1159C3.052 16.845 3.28292 16.6128 3.55232 16.6128H9.44065Z" fill="#E1177C"/>
<path d="M22.6412 16.6128C22.9106 16.6128 23.1415 16.845 23.1415 17.1159C23.1415 17.3867 22.9106 17.6189 22.6412 17.6189H10.9415C10.6721 17.6189 10.4412 17.3867 10.4412 17.1159C10.4412 16.845 10.6721 16.6128 10.9415 16.6128H22.6412Z" fill="#E1177C"/>
<path d="M20.4476 14.7554C20.717 14.7554 20.9479 14.9876 20.9479 15.2584C20.9479 15.5293 20.717 15.7615 20.4476 15.7615H6.09235C5.82295 15.7615 5.59204 15.5293 5.59204 15.2584C5.59204 14.9876 5.82295 14.7554 6.09235 14.7554H20.4476Z" fill="#E1177C"/>
<path d="M4.51435 15.7615C4.79073 15.7615 5.01478 15.5363 5.01478 15.2584C5.01478 14.9806 4.79073 14.7554 4.51435 14.7554C4.23797 14.7554 4.01392 14.9806 4.01392 15.2584C4.01392 15.5363 4.23797 15.7615 4.51435 15.7615Z" fill="#E1177C"/>
<path d="M17.4456 12.936C17.715 12.936 17.9459 13.1682 17.9459 13.4391C17.9459 13.71 17.715 13.9422 17.4456 13.9422H3.0904C2.821 13.9422 2.59009 13.71 2.59009 13.4391C2.59009 13.1682 2.821 12.936 3.0904 12.936H17.4456Z" fill="#E1177C"/>
<path d="M1.35859 13.9422C1.63497 13.9422 1.85901 13.7169 1.85901 13.4391C1.85901 13.1613 1.63497 12.936 1.35859 12.936C1.08221 12.936 0.858154 13.1613 0.858154 13.4391C0.858154 13.7169 1.08221 13.9422 1.35859 13.9422Z" fill="#E1177C"/>
<path d="M4.51435 12.0847C4.79073 12.0847 5.01478 11.8595 5.01478 11.5817C5.01478 11.3038 4.79073 11.0786 4.51435 11.0786C4.23797 11.0786 4.01392 11.3038 4.01392 11.5817C4.01392 11.8595 4.23797 12.0847 4.51435 12.0847Z" fill="#E1177C"/>
<path d="M21.8328 11.0786C22.1022 11.0786 22.3331 11.3108 22.3331 11.5817C22.3331 11.8526 22.1022 12.0847 21.8328 12.0847H6.20759C5.93819 12.0847 5.70728 11.8526 5.70728 11.5817C5.70728 11.3108 5.93819 11.0786 6.20759 11.0786H21.8328Z" fill="#E1177C"/>
</svg>
