<svg width="24" height="24" viewBox="0 0 24 24" fill="none" xmlns="http://www.w3.org/2000/svg">
<path fill-rule="evenodd" clip-rule="evenodd" d="M20.6399 12C20.6399 16.7717 16.7716 20.64 11.9999 20.64C7.22812 20.64 3.35986 16.7717 3.35986 12C3.35986 7.22824 7.22812 3.35999 11.9999 3.35999C16.7716 3.35999 20.6399 7.22824 20.6399 12ZM18.7131 12.709C18.3587 16.1037 15.4883 18.75 11.9999 18.75C10.9513 18.75 9.95863 18.5109 9.07332 18.0843C10.4535 16.6309 11.7247 15.6004 13.2005 14.7807C14.6928 13.9518 16.4162 13.3262 18.7131 12.709ZM18.7159 11.3191C14.3226 10.2901 11.6469 8.59861 9.24036 5.83799C10.0828 5.46014 11.0168 5.24999 11.9999 5.24999C15.498 5.24999 18.3746 7.91095 18.7159 11.3191ZM8.27363 6.37081C7.90153 6.61762 7.5553 6.90034 7.23991 7.21403C8.91185 8.45061 10.3805 9.31651 12.129 9.96316C12.3105 10.0303 12.4954 10.0952 12.684 10.1579C11.0045 9.16657 9.60065 7.92348 8.27363 6.37081ZM6.53559 8.03631C5.82615 9.01264 5.372 10.1865 5.27117 11.4597H13.246C12.7249 11.3125 12.2303 11.1521 11.7543 10.9761C9.85982 10.2754 8.28594 9.33638 6.53559 8.03631ZM5.27113 12.5397C5.37298 13.8271 5.83598 15.0127 6.55882 15.9954C8.30454 14.662 9.91991 13.7254 11.7787 13.037C12.2721 12.8543 12.7811 12.6896 13.3126 12.5397H5.27113ZM7.26751 16.8132C7.53091 17.0722 7.81547 17.3098 8.11836 17.523C9.57882 15.9595 10.9445 14.8188 12.5455 13.9099C12.4135 13.9553 12.283 14.0019 12.1538 14.0498C10.4348 14.6864 8.9265 15.552 7.26751 16.8132Z" fill="url(#paint0_linear_4741_36157)"/>
<defs>
<linearGradient id="paint0_linear_4741_36157" x1="3.35986" y1="12" x2="20.6399" y2="12" gradientUnits="userSpaceOnUse">
<stop offset="0.36" stop-color="#C4CEDF"/>
<stop offset="0.65" stop-color="#8E9BB2"/>
</linearGradient>
</defs>
</svg>
