<svg width="24" height="24" viewBox="0 0 24 24" fill="none" xmlns="http://www.w3.org/2000/svg">
<path d="M20.64 12C20.64 7.22824 16.7717 3.35999 12 3.35999C7.22824 3.35999 3.35999 7.22824 3.35999 12C3.35999 16.7717 7.22824 20.64 12 20.64C16.7717 20.64 20.64 16.7717 20.64 12Z" fill="#8E9BB2"/>
<path fill-rule="evenodd" clip-rule="evenodd" d="M7.1191 6.73994L9.74998 7.33657C9.78238 7.34262 9.8047 7.37095 9.8047 7.40327V16.6496C9.8047 16.682 9.78058 16.7123 9.74818 16.7184L7.11695 17.2605C7.07267 17.2706 7.03198 17.2361 7.03198 17.1918V6.8087C7.03198 6.7642 7.07446 6.72982 7.1191 6.73994ZM16.8812 6.73994L14.25 7.33657C14.2176 7.34262 14.1953 7.37095 14.1953 7.40327V16.6496C14.1953 16.682 14.2197 16.7123 14.2521 16.7184L16.883 17.2605C16.9277 17.2706 16.968 17.2361 16.968 17.1918V6.8087C16.968 6.7642 16.9255 6.72982 16.8812 6.73994ZM13.3863 10.6412V13.2925V13.3532H13.3259H10.6745H10.6136V13.2925V10.6412V10.5805H10.6745H13.3259H13.3863V10.6412Z" fill="white"/>
<path fill-rule="evenodd" clip-rule="evenodd" d="M9.52282 7.57406L7.31386 7.07319V16.9322L9.52282 16.4772V7.57406ZM14.4771 7.57406V16.4772L16.6861 16.9322V7.07319L14.4771 7.57406ZM9.74998 7.33657C9.78238 7.34262 9.8047 7.37095 9.8047 7.40327V16.6496C9.8047 16.682 9.78058 16.7123 9.74818 16.7184L7.11695 17.2605C7.07267 17.2706 7.03198 17.2361 7.03198 17.1918V6.8087C7.03198 6.7642 7.07446 6.72982 7.1191 6.73994L9.74998 7.33657ZM16.883 17.2605L14.2521 16.7184C14.2197 16.7123 14.1953 16.682 14.1953 16.6496V7.40327C14.1953 7.37095 14.2176 7.34262 14.25 7.33657L16.8812 6.73994C16.9255 6.72982 16.968 6.7642 16.968 6.8087V17.1918C16.968 17.2361 16.9277 17.2706 16.883 17.2605ZM13.1045 13.0713V10.8624H10.8955V13.0713H13.1045ZM10.6136 13.3532V10.5805H13.3863V13.3532H10.6136Z" fill="white"/>
</svg>
