<svg width="24" height="24" viewBox="0 0 24 24" fill="none" xmlns="http://www.w3.org/2000/svg">
<g opacity="0.8">
<path d="M12 22.6673C17.8911 22.6673 22.6667 17.8917 22.6667 12.0007C22.6667 6.10961 17.8911 1.33398 12 1.33398C6.109 1.33398 1.33337 6.10961 1.33337 12.0007C1.33337 17.8917 6.109 22.6673 12 22.6673Z" fill="#313042"/>
<path d="M9.86603 17.0411C9.94222 16.8125 10.0946 16.584 10.1708 16.2792C10.1708 16.203 10.1708 16.0506 10.0946 15.9744C9.63746 15.3649 9.48508 14.6792 9.63746 13.9935C9.63746 13.9173 9.63746 13.8411 9.71365 13.8411C9.71365 13.7649 9.78984 13.7649 9.78984 13.6887C10.3232 14.2221 10.4756 14.9078 10.5517 15.5935C10.7041 15.2887 10.9327 14.984 11.0851 14.603C11.0851 14.5268 11.0089 14.4506 11.0089 14.3744C10.5517 13.6887 10.4756 12.9268 10.7803 12.0887C11.3137 12.6221 11.466 13.3078 11.466 13.9935C11.6946 13.6887 11.847 13.384 12.0756 13.1554C12.0756 13.0792 12.0756 13.003 11.9994 12.9268C11.7708 12.2411 11.7708 11.5554 12.1517 10.8697C12.2279 10.7935 12.2279 10.7173 12.3041 10.6411C12.6851 11.2506 12.6089 11.8602 12.5327 12.4697H12.6089C12.7613 12.2411 12.9137 12.0887 12.9898 11.8602C13.2946 11.0221 13.7517 10.4125 14.5898 10.0316C14.7422 9.9554 14.8184 9.9554 14.9708 9.87921C14.9708 10.0316 14.9708 10.1078 14.8946 10.2602C14.666 11.0221 14.1327 11.6316 13.3708 12.0125C13.066 12.1649 12.8375 12.3935 12.6851 12.6983C13.2946 12.3935 13.9041 12.2411 14.666 12.4697C14.5137 12.6221 14.4375 12.6983 14.2851 12.7744C13.7517 13.1554 13.1422 13.3078 12.5327 13.2316C12.3041 13.2316 12.2279 13.2316 12.1517 13.384C11.9994 13.6125 11.847 13.9173 11.6946 14.2221C12.3803 13.9173 13.066 13.7649 13.8279 14.1459C13.5994 14.2983 13.447 14.4506 13.2946 14.5268C12.7613 14.7554 12.2279 14.8316 11.6184 14.6792C11.466 14.603 11.3898 14.6792 11.3137 14.8316C11.1613 15.1363 11.0089 15.4411 10.7803 15.8221C11.466 15.5173 12.1517 15.2887 12.9137 15.5935L12.9898 15.6697C12.9137 15.7459 12.8375 15.7459 12.6851 15.8221C12.0756 16.203 11.466 16.3554 10.7803 16.2792C10.6279 16.203 10.4756 16.2792 10.4756 16.4316C10.247 17.0411 10.0184 17.6506 9.78984 18.184C9.71365 18.4125 9.56127 18.6411 9.40889 18.8697C9.3327 19.0221 9.18032 19.0983 9.02794 19.0221C6.9708 17.9554 5.52318 16.3554 4.98984 14.1459C3.92318 10.1078 6.1327 6.06968 10.0946 4.92683C14.666 3.5554 19.1613 6.60302 19.847 11.0221C20.3803 14.603 18.3232 18.0316 14.9708 19.2506C14.7422 19.3268 14.5898 19.403 14.4375 19.2506C14.2851 19.0221 14.2851 18.8697 14.3613 18.6411C14.666 17.8792 14.8946 17.1173 15.1232 16.3554C15.2756 15.8983 15.4279 15.7459 15.8851 15.7459C16.3422 15.6697 16.7994 15.6697 17.2565 15.5935C17.6375 15.5173 17.7898 15.3649 17.7898 14.984C17.7898 14.9078 17.7898 14.7554 17.7898 14.6792C17.7137 14.5268 17.7898 14.3744 17.9422 14.2221C18.0946 14.0697 18.0946 13.9935 17.9422 13.8411C17.866 13.7649 17.866 13.6125 17.9422 13.6125C18.0946 13.4602 18.0946 13.3078 17.9422 13.1554C17.7898 13.003 17.866 12.8506 18.0184 12.7744C18.1708 12.6983 18.247 12.6221 18.3232 12.4697C18.5517 12.3173 18.4756 12.1649 18.3232 12.0125C18.0184 11.7078 17.6375 11.4792 17.3327 11.1744C17.1041 11.0221 17.0279 10.7173 17.1041 10.4887C17.1803 10.0316 17.1041 9.65064 16.8756 9.26968C16.647 8.96492 16.4946 8.58397 16.3422 8.27921C16.1137 7.74587 15.7327 7.36492 15.1994 7.21254C14.666 7.06016 14.1327 6.98397 13.5232 6.90778C13.1422 6.83159 12.7613 6.83159 12.3803 6.7554C11.3898 6.60302 10.4756 6.83159 9.71365 7.5173C9.48508 7.66968 9.25651 7.89826 8.95175 7.97445C8.72318 8.05064 8.5708 8.27921 8.41842 8.43159C8.34223 8.66016 8.18984 8.81254 7.96127 8.88873C7.58032 9.19349 7.19937 9.42206 6.89461 9.80302C6.81842 9.9554 6.58984 10.0316 6.51365 10.1078C6.05651 10.4125 5.98032 10.7173 6.1327 11.1744C6.20889 11.4792 6.28508 11.784 6.20889 12.0887C6.1327 12.3173 6.1327 12.6221 6.20889 12.8506C6.20889 13.1554 6.43746 13.4602 6.74222 13.5363C6.9708 13.6125 7.12318 13.7649 7.12318 13.9935C7.19937 14.2983 7.35175 14.603 7.58032 14.8316C7.80889 15.0602 7.96127 15.3649 8.11365 15.6697C8.26603 16.0506 8.4946 16.2792 8.87556 16.4316C9.25651 16.584 9.56127 16.7364 9.94222 16.8887C9.71365 16.9649 9.78984 16.9649 9.86603 17.0411Z" fill="#00DACC"/>
</g>
</svg>
