<svg width="24" height="24" viewBox="0 0 24 24" fill="none" xmlns="http://www.w3.org/2000/svg">
<path d="M12.0447 14.4459L14.3616 18.0987L16.5018 16.8528L13.459 12.0352L12.0447 14.4459Z" fill="#404141"/>
<path d="M18.4534 15.3915L18.4519 14.3933L15.1271 9.19141L13.8936 11.2939L17.1032 16.5083L18.2637 15.8328C18.3775 15.7399 18.4464 15.6036 18.4537 15.4566L18.4534 15.3915Z" fill="#404141"/>
<path d="M4.51958 16.3286L6.15839 17.2771L11.6119 8.49178L10.6863 8.46723C9.89773 8.45602 9.04825 8.66195 8.6583 9.30132L5.5614 14.123L4.51953 15.731V16.3286H4.51958Z" fill="#878888"/>
<path d="M14.7592 8.49609L12.3199 8.50499L6.80103 17.6533L8.73001 18.7689L9.2546 17.8752L14.7592 8.49609Z" fill="#878888"/>
<path d="M19.48 8.48482C19.4596 7.97237 19.1834 7.50322 18.7507 7.23011L12.6864 3.72695C12.2584 3.51044 11.7237 3.51018 11.295 3.7268C11.2444 3.75245 5.39758 7.15869 5.39758 7.15869C5.31668 7.19765 5.23875 7.24409 5.16541 7.29676C4.77917 7.57485 4.54372 8.00693 4.51953 8.48168V15.7368L5.5614 14.1287L5.55228 8.53074C5.55353 8.51026 5.55609 8.49016 5.55968 8.47026C5.58319 8.33852 5.65643 8.22103 5.76667 8.14165C5.79419 8.12186 11.7408 4.6642 11.7597 4.65467C11.8995 4.58414 12.0771 4.58341 12.2171 4.65252L18.203 8.11123C18.3446 8.20181 18.4333 8.35544 18.4412 8.52335V15.4579C18.434 15.605 18.3761 15.7412 18.2623 15.8341L17.1018 16.5096L16.503 16.8582L14.3628 18.1041L12.1923 19.3676C12.0754 19.41 11.9387 19.4077 11.8228 19.3603L9.25477 17.8766L8.73018 18.7703L11.038 20.105C11.1143 20.1486 11.1823 20.1872 11.2381 20.2187C11.3245 20.2674 11.3833 20.2999 11.4041 20.31C11.5682 20.3901 11.8041 20.4367 12.0168 20.4367C12.2118 20.4367 12.4019 20.4007 12.5819 20.3299L18.8861 16.6624C19.248 16.3808 19.4608 15.9561 19.48 15.4961V8.48482V8.48482Z" fill="#404141"/>
</svg>
