<svg width="24" height="24" viewBox="0 0 24 24" fill="none" xmlns="http://www.w3.org/2000/svg">
<path d="M8.3124 11.6516H2.10205L8.6358 8.58495L11.6602 2L11.6673 8.2557C11.6697 10.1303 10.167 11.654 8.31005 11.654L8.3124 11.6516Z" fill="#222222"/>
<path d="M15.6877 11.6516H21.8981L15.3643 8.58495L12.34 2L12.3329 8.2557C12.3305 10.1303 13.8331 11.654 15.6901 11.654L15.6877 11.6516Z" fill="#222222"/>
<path d="M15.6877 12.3485H21.8981L15.3643 15.4151L12.34 22L12.3329 15.7443C12.3305 13.8698 13.8331 12.3461 15.6901 12.3461L15.6877 12.3485Z" fill="#222222"/>
<path d="M8.3124 12.3485H2.10205L8.6358 15.4151L11.6602 22L11.6673 15.7443C11.6697 13.8698 10.167 12.3461 8.31005 12.3461L8.3124 12.3485Z" fill="#222222"/>
</svg>
