<svg width="23.999999999999996" height="23.999999999999996" xmlns="http://www.w3.org/2000/svg" fill="none">
 <g>
  <title>Layer 1</title>
  <g stroke="null">
   <mask stroke="null" height="72" width="72" y="0" x="0" maskUnits="userSpaceOnUse" id="svg_9">
    <path stroke="null" fill="white" d="m72,0l-72,0l0,72l72,0l0,-72z"/>
   </mask>
   <g stroke="null" mask="url(#svg_9)">
    <path stroke="null" fill="#8E9BB2" d="m13.70269,4.07846l-0.04865,0.0973c1.68647,0.72972 2.64322,2.23782 2.64322,3.89186c0,1.78377 -1.16756,3.40537 -3.43781,4.78374l-0.37297,0.22703c-1.70269,1.03783 -2.56214,2.20539 -2.56214,3.61618c0,1.8162 1.42701,3.14589 3.38916,3.14589c3.14592,0 6.79453,-3.3567 6.79453,-7.83234c0,-0.72972 -0.0973,-1.44323 -0.27567,-2.1243l-0.11351,0.03243c0.04865,0.37297 0.06486,0.64864 0.06486,0.9081c0,2.64322 -1.49188,4.91347 -3.98915,6.42157l-0.24324,0.14594c-0.53513,0.3081 -0.98918,0.48648 -1.44323,0.48648c-0.59999,0 -1.05404,-0.38918 -1.05404,-0.95675c0,-0.48648 0.32432,-0.97296 1.37837,-1.58917l0.30811,-0.17838c2.33511,-1.36215 3.6324,-3.27564 3.6324,-5.39995c0,-2.69187 -2.01079,-4.91347 -4.67023,-5.67563zm-3.40537,15.84308l0.04865,-0.0973c-1.68647,-0.7297 -2.64322,-2.23779 -2.64322,-3.89183c0,-1.78377 1.16756,-3.40537 3.43781,-4.78374l0.37297,-0.22702c1.70269,-1.03783 2.56214,-2.20539 2.56214,-3.61618c0,-1.8162 -1.42701,-3.14592 -3.38916,-3.14592c-3.14592,0 -6.79453,3.35673 -6.79453,7.83236c0,0.72972 0.0973,1.44323 0.27567,2.12431l0.11351,-0.03243c-0.04865,-0.37297 -0.06486,-0.64864 -0.06486,-0.9081c0,-2.64322 1.49188,-4.91347 3.98915,-6.42156l0.24324,-0.14595c0.53513,-0.3081 0.98918,-0.48649 1.44323,-0.48649c0.59999,0 1.05404,0.38919 1.05404,0.95675c0,0.48648 -0.32432,0.97296 -1.37836,1.58917l-0.30811,0.17838c-2.33511,1.36215 -3.6324,3.27565 -3.6324,5.39995c0,2.69187 2.01079,4.91347 4.67023,5.6756z"/>
   </g>
  </g>
 </g>
</svg>