<svg width="24" height="24" viewBox="0 0 24 24" fill="none" xmlns="http://www.w3.org/2000/svg">
<path d="M12.0255 3.59223C12.0727 3.59223 12.1161 3.6041 12.1596 3.6274L19.2134 7.7223C19.2963 7.76936 19.3475 7.85615 19.3434 7.95025L19.3159 16.0967C19.3159 16.1912 19.2647 16.2776 19.1818 16.3246L12.1042 20.372C12.0649 20.3958 12.0178 20.4072 11.9702 20.4072C11.9226 20.4072 11.8795 20.3953 11.8361 20.372L4.78273 16.2776C4.69989 16.2305 4.64864 16.1437 4.65276 16.0496L4.68021 7.9032C4.68021 7.80864 4.73147 7.7223 4.81431 7.67525L11.8956 3.62375C11.9349 3.6041 11.9821 3.59223 12.0255 3.59223ZM12.0297 2.40039C11.7775 2.40039 11.5253 2.46343 11.3006 2.59317L4.22302 6.64056C3.76994 6.90049 3.48986 7.38015 3.48986 7.89955L3.4624 16.046C3.4624 16.5654 3.73837 17.045 4.18732 17.3086L11.2411 21.4035C11.4658 21.5332 11.718 21.6004 11.9702 21.6004C12.2223 21.6004 12.4745 21.5373 12.6992 21.4076L19.7768 17.3602C20.2299 17.1007 20.5099 16.6206 20.5099 16.1017L20.5374 7.95528C20.5374 7.43588 20.2614 6.95622 19.8125 6.69264L12.7587 2.59728C12.534 2.46754 12.2818 2.40039 12.0297 2.40039Z" fill="#8E9BB2"/>
<path d="M13.4598 6.8411H12.4274C12.3486 6.8411 12.2814 6.88816 12.2539 6.96307L8.92814 16.061C8.90435 16.12 8.95194 16.183 9.01464 16.183H10.0471C10.1258 16.183 10.1931 16.136 10.2206 16.061L13.5463 6.96307C13.5701 6.90415 13.5225 6.8411 13.4598 6.8411ZM11.6512 6.8411H10.6187C10.54 6.8411 10.4727 6.88816 10.4453 6.96307L7.12316 16.0574C7.09936 16.1163 7.14696 16.1793 7.20966 16.1793H8.24212C8.32084 16.1793 8.38811 16.1323 8.41557 16.0574L11.7377 6.96307C11.7615 6.90415 11.718 6.8411 11.6512 6.8411ZM12.9912 10.3654C12.9637 10.2828 12.8452 10.2828 12.8177 10.3654L12.2818 11.8364C12.2663 11.8757 12.2663 11.9227 12.2818 11.9625L13.7793 16.0574C13.8067 16.1282 13.874 16.1793 13.9527 16.1793H14.9852C15.0483 16.1793 15.0955 16.1163 15.0717 16.0574L12.9912 10.3654ZM16.8766 16.0574L13.8937 7.89133C13.8662 7.80864 13.7477 7.80864 13.7202 7.89133L13.1843 9.36228C13.1687 9.40156 13.1687 9.44861 13.1843 9.48836L15.5842 16.0574C15.6117 16.1282 15.679 16.1793 15.7577 16.1793H16.7902C16.857 16.1835 16.9004 16.1163 16.8766 16.0574Z" fill="#8E9BB2"/>
</svg>
