<svg width="24" height="24" viewBox="0 0 24 24" fill="none" xmlns="http://www.w3.org/2000/svg">
<path fill-rule="evenodd" clip-rule="evenodd" d="M12.0001 3.28181L4.45784 7.64092V16.3591L12.0001 20.7181L19.5423 16.3591V7.64092L12.0001 3.28181ZM12.3168 1.08495C12.1209 0.971685 11.8793 0.971685 11.6833 1.08495L2.7157 6.26785C2.51972 6.38118 2.39893 6.59049 2.39893 6.81707V17.1829C2.39893 17.4095 2.51972 17.6188 2.7157 17.7321L11.6833 22.915C11.8793 23.0283 12.1209 23.0283 12.3168 22.915L21.2845 17.7321C21.4805 17.6188 21.6013 17.4095 21.6013 17.1829V6.81707C21.6013 6.59049 21.4805 6.38118 21.2845 6.26785L12.3168 1.08495Z" fill="#6C6D6D"/>
<path d="M12.0003 6.43958L7.18986 9.21978V14.7802L11.9686 17.5421C11.9882 17.5535 12.0003 17.5744 12.0003 17.597V18.549C12.0003 18.5979 11.9475 18.6284 11.9053 18.604L6.47712 15.4668C6.33015 15.3818 6.2396 15.2247 6.2396 15.0548V8.94514C6.2396 8.77522 6.33015 8.61821 6.47712 8.53328L11.7627 5.47843C11.9097 5.39344 12.0908 5.39344 12.2378 5.47843L17.6876 8.61677C17.7295 8.64092 17.7299 8.70129 17.6883 8.72597C17.3667 8.91693 17.202 9.00186 16.8422 9.20221C16.8227 9.21309 16.7989 9.21297 16.7796 9.20179L12.0003 6.43958Z" fill="#6C6D6D"/>
<path d="M12.792 12.1173C12.792 12.0938 12.8049 12.0722 12.8256 12.0613L17.6086 9.51277C17.6508 9.4903 17.7017 9.5209 17.7017 9.56877V15.7684C17.7017 15.7911 17.6897 15.8119 17.6701 15.8233L12.8871 18.6034C12.8449 18.628 12.792 18.5974 12.792 18.5486V12.1173Z" fill="#6C6D6D"/>
</svg>
