<svg width="24" height="24" viewBox="0 0 24 24" fill="none" xmlns="http://www.w3.org/2000/svg">
<path d="M4.88966 7.58889C4.8731 6.49588 4.97493 5.9816 5.2361 5.08493C5.69277 4.92745 6.1022 4.88039 6.55886 4.91187C6.3888 5.2481 6.27542 5.589 6.24392 5.91969C6.62185 5.84096 6.86531 5.80928 7.28323 5.84096C7.14492 6.28432 7.08197 6.53834 7.04703 6.97475C6.24392 7.022 5.64553 7.17947 4.88966 7.58889Z" fill="#8E9BB2"/>
<path d="M19.8912 15.1095C20.1105 16.1805 20.106 16.7047 20.0159 17.6343C19.5964 17.8738 19.2029 17.9961 18.7483 18.05C18.8529 17.688 18.901 17.332 18.8706 17.0012C18.5138 17.1488 18.2805 17.2251 17.8639 17.2716C17.9175 16.8103 17.9322 16.549 17.8855 16.1137C18.6658 15.9181 19.2245 15.6522 19.8912 15.1095Z" fill="#8E9BB2"/>
<path d="M3.78694 10.4698C3.36307 9.46214 3.26531 8.94707 3.17243 8.01776C3.53715 7.70103 3.89932 7.50435 4.33465 7.36287C4.30258 7.7383 4.32482 8.09687 4.4192 8.41537C4.74032 8.20109 4.9543 8.08072 5.35377 7.95391C5.39118 8.41683 5.42773 8.67597 5.55843 9.09382C4.83118 9.43779 4.335 9.8075 3.78694 10.4698Z" fill="#A7B1C3"/>
<path d="M20.4373 12.0721C21.041 12.9835 21.2327 13.4714 21.4966 14.3673C21.197 14.7463 20.8777 15.0068 20.4762 15.2267C20.438 14.8518 20.3495 14.5036 20.1976 14.2082C19.9219 14.4784 19.734 14.6364 19.3651 14.8352C19.2423 14.3873 19.1583 14.1395 18.9522 13.7532C19.6029 13.2801 20.0218 12.8247 20.4373 12.0721Z" fill="#A7B1C3"/>
<path d="M6.97031 5.28176C7.34986 4.25662 7.63065 3.8139 8.19822 3.0722C8.68093 3.0904 9.07969 3.19448 9.49412 3.38886C9.21404 3.64091 8.98513 3.91779 8.83626 4.21476C9.2171 4.27792 9.45556 4.33637 9.83379 4.51693C9.5446 4.88035 9.3941 5.09445 9.20382 5.48874C8.43791 5.24257 7.82305 5.17315 6.97031 5.28176Z" fill="#636F86"/>
<path d="M18.28 17.7599C18.0975 18.8377 17.9038 19.3249 17.4839 20.1591C17.0062 20.2309 16.595 20.2027 16.1517 20.0887C16.3801 19.789 16.5536 19.4744 16.6447 19.1549C16.2588 19.1636 16.0136 19.1505 15.6084 19.0433C15.8251 18.6325 15.9332 18.3942 16.0469 17.9714C16.8452 18.071 17.4623 18.025 18.28 17.7599Z" fill="#C4CEDF"/>
<path d="M9.7785 3.9112C10.5004 3.09033 10.9213 2.77773 11.717 2.28888C12.1611 2.47896 12.4961 2.7191 12.8132 3.04916C12.4614 3.18402 12.1484 3.36041 11.903 3.58424C12.2358 3.77977 12.4375 3.91983 12.7258 4.22401C12.3255 4.45956 12.1083 4.60546 11.7893 4.9053C11.1626 4.40086 10.6135 4.11559 9.7785 3.9112Z" fill="#455065"/>
<path d="M15.779 19.6261C15.2222 20.5668 14.8667 20.9521 14.1755 21.5803C13.7039 21.476 13.3302 21.3023 12.9572 21.0369C13.2779 20.839 13.5526 20.6075 13.7522 20.342C13.3889 20.2117 13.1647 20.1115 12.8249 19.8662C13.1745 19.5604 13.3608 19.3767 13.6186 19.0228C14.3281 19.4021 14.9206 19.5804 15.779 19.6261Z" fill="#636F86"/>
<path d="M12.8585 3.63392C13.834 3.14056 14.3409 3.007 15.2615 2.84931C15.603 3.19096 15.8245 3.53848 15.9961 3.96285C15.6193 3.95712 15.2632 4.00441 14.9521 4.12085C15.1883 4.42618 15.3234 4.63121 15.4778 5.02083C15.0187 5.09055 14.7627 5.14514 14.355 5.30477C13.961 4.60337 13.5575 4.13429 12.8585 3.63392Z" fill="#636F86"/>
<path d="M12.7903 20.4746C11.9235 21.1406 11.4501 21.366 10.5749 21.6919C10.1759 21.4196 9.89368 21.1193 9.64624 20.7342C10.0175 20.6698 10.3587 20.5572 10.6427 20.385C10.3539 20.1289 10.1831 19.9525 9.95897 19.5983C10.3972 19.4446 10.6386 19.3434 11.0095 19.1108C11.5269 19.7268 12.0106 20.1128 12.7903 20.4746Z" fill="#8E9BB2"/>
<path d="M15.7883 4.50834C16.8749 4.38865 17.3965 4.44146 18.3138 4.61681C18.5137 5.05657 18.5992 5.45972 18.611 5.91732C18.2602 5.77976 17.9101 5.69907 17.5779 5.69894C17.692 6.06775 17.7465 6.30713 17.7544 6.72618C17.3 6.63034 17.0412 6.59166 16.6034 6.59808C16.4806 5.80302 16.2673 5.22217 15.7883 4.50834Z" fill="#8E9BB2"/>
<path d="M9.75175 20.161C8.70632 20.4804 8.18399 20.5254 7.25006 20.5235C6.97197 20.1285 6.81306 19.7482 6.71649 19.3008C7.08673 19.3708 7.4457 19.3851 7.77213 19.3235C7.59155 18.9823 7.49351 18.7572 7.40789 18.3469C7.87223 18.3567 8.13374 18.3466 8.56269 18.259C8.83109 19.0174 9.14853 19.5485 9.75175 20.161Z" fill="#636F86"/>
<path d="M18.2855 6.42446C19.3431 6.70118 19.8113 6.93699 20.6053 7.42873C20.6347 7.91089 20.5705 8.31797 20.4178 8.74953C20.1394 8.49564 19.8413 8.29512 19.5312 8.17623C19.5058 8.56144 19.4711 8.80449 19.3287 9.19867C18.9386 8.94669 18.7107 8.81802 18.2996 8.6675C18.4691 7.88107 18.4776 7.26236 18.2855 6.42446Z" fill="#C4CEDF"/>
<path d="M6.94456 18.7409C5.85403 18.6654 5.35015 18.5207 4.47863 18.185C4.36014 17.7167 4.3477 17.3047 4.41749 16.8523C4.73822 17.0501 5.06837 17.1917 5.39523 17.2509C5.34859 16.8677 5.33751 16.6225 5.40424 16.2087C5.83439 16.3838 6.08221 16.4679 6.51414 16.5395C6.49363 17.3437 6.60019 17.9532 6.94456 18.7409Z" fill="#8E9BB2"/>
<path d="M19.9181 9.01436C20.7974 9.66383 21.1446 10.0566 21.6994 10.8079C21.5478 11.2666 21.337 11.6207 21.0351 11.9648C20.8708 11.6257 20.6684 11.3289 20.4245 11.1033C20.258 11.4516 20.1356 11.6644 19.857 11.9776C19.5883 11.5988 19.4245 11.3947 19.0986 11.1024C19.5479 10.435 19.7854 9.86369 19.9181 9.01436Z" fill="#636F86"/>
<path d="M4.8588 16.4995C3.87418 16.0246 3.46001 15.7032 2.77536 15.068C2.83916 14.5892 2.9805 14.202 3.21322 13.8079C3.43764 14.1105 3.69162 14.3646 3.97316 14.5409C4.07208 14.1678 4.15283 13.9359 4.36838 13.5765C4.7028 13.8988 4.9017 14.0688 5.27621 14.2956C4.95867 15.0348 4.83137 15.6403 4.8588 16.4995Z" fill="#C4CEDF"/>
<path d="M3.73178 13.6116C2.99273 12.8062 2.72689 12.3543 2.32584 11.5109C2.56227 11.0896 2.83682 10.7823 3.19887 10.5022C3.29537 10.8664 3.43732 11.1964 3.63365 11.4644C3.86362 11.1543 4.02442 10.9688 4.35766 10.7146C4.5491 11.1378 4.67096 11.3694 4.93501 11.7186C4.3665 12.2878 4.0242 12.8033 3.73178 13.6116Z" fill="#636F86"/>
</svg>
