<svg width="24" height="24" viewBox="0 0 24 24" fill="none" xmlns="http://www.w3.org/2000/svg">
<path d="M14.4334 7.10645H10.5301C10.3889 7.10645 10.2694 7.16294 10.1706 7.2862L7.37153 10.7529C6.96065 11.2665 6.85794 11.7416 6.85794 12.4221V15.9658C5.94632 18.5209 5.36853 20.2543 4.94482 21.8207C4.91914 21.9209 4.95766 21.9748 5.04754 21.9748H5.47125C5.54829 21.9748 5.62533 21.9363 5.65101 21.8721C8.84809 13.7317 12.3277 9.70006 14.5104 7.2862C14.6003 7.18348 14.5618 7.10645 14.4334 7.10645Z" fill="#FAFAFA"/>
<path d="M14.5483 3.11249C14.2864 3.21392 14.0348 3.38598 13.9192 3.48484C12.7636 4.4735 11.9932 5.25672 11.2614 6.0271C11.1715 6.11698 11.21 6.20686 11.3384 6.20686H15.6654C16.0634 6.20686 16.2945 6.43797 16.2945 6.836V11.7151C16.2945 11.8435 16.3973 11.882 16.4743 11.7664L19.0808 8.36393C19.5045 7.81182 19.6329 7.6449 19.7484 6.87452C19.9025 5.74463 19.8126 4.01127 19.1321 3.29225C18.5287 2.65026 15.8066 2.62458 14.5483 3.11249Z" fill="#FAFAFA"/>
<path d="M15.2032 8.07979C12.5197 11.0714 10.4268 14.2172 8.48803 18.0049C8.43924 18.0999 8.50087 18.1846 8.61643 18.1461L12.6224 16.9135C13.0744 16.7748 13.3286 16.5925 13.5469 16.233L15.3316 13.2927C15.3701 13.2157 15.3829 13.1258 15.3829 13.0616V8.15683C15.3829 8.02843 15.2931 7.97707 15.2032 8.07979Z" fill="#FAFAFA"/>
</svg>
