<svg width="24" height="24" viewBox="0 0 24 24" fill="none" xmlns="http://www.w3.org/2000/svg">
<path d="M14.4329 7.10645H10.5296C10.3884 7.10645 10.269 7.16294 10.1701 7.2862L7.37104 10.7529C6.96017 11.2665 6.85745 11.7416 6.85745 12.4221V15.9658C5.94583 18.5209 5.36804 20.2543 4.94433 21.8207C4.91865 21.9209 4.95717 21.9748 5.04705 21.9748H5.47076C5.5478 21.9748 5.62484 21.9363 5.65052 21.8721C8.8476 13.7317 12.3272 9.70006 14.5099 7.2862C14.5998 7.18348 14.5613 7.10645 14.4329 7.10645Z" fill="#1E2739"/>
<path d="M14.5481 3.11249C14.2862 3.21392 14.0345 3.38598 13.919 3.48484C12.7634 4.4735 11.993 5.25672 11.2611 6.0271C11.1713 6.11698 11.2098 6.20686 11.3382 6.20686H15.6652C16.0632 6.20686 16.2943 6.43797 16.2943 6.836V11.7151C16.2943 11.8435 16.397 11.882 16.4741 11.7664L19.0805 8.36393C19.5042 7.81182 19.6326 7.6449 19.7482 6.87452C19.9023 5.74463 19.8124 4.01127 19.1319 3.29225C18.5284 2.65026 15.8064 2.62458 14.5481 3.11249Z" fill="#1E2739"/>
<path d="M15.2029 8.07979C12.5194 11.0714 10.4266 14.2172 8.48778 18.0049C8.43899 18.0999 8.50062 18.1846 8.61618 18.1461L12.6222 16.9135C13.0741 16.7748 13.3284 16.5925 13.5466 16.233L15.3313 13.2927C15.3699 13.2157 15.3827 13.1258 15.3827 13.0616V8.15683C15.3827 8.02843 15.2928 7.97707 15.2029 8.07979Z" fill="#1E2739"/>
</svg>
