<svg width="24" height="24" viewBox="0 0 24 24" fill="none" xmlns="http://www.w3.org/2000/svg">
<g clip-path="url(#clip0_4741_36197)">
<path d="M20.7113 15.9563L18.6324 14.3396C18.2833 14.0681 17.7753 14.1806 17.5698 14.5721C17.0596 15.5429 16.26 16.3428 15.3439 16.8885L13.1651 14.7097C13.0479 14.5925 12.8889 14.5265 12.723 14.5265C12.5571 14.5265 12.3982 14.5925 12.281 14.7097L9.96297 17.0277C8.16054 16.0729 6.92959 14.1778 6.92959 11.9999C6.92959 8.86473 9.4804 6.31392 12.6156 6.31392C14.5116 6.31392 16.3282 7.13958 17.529 9.12392C17.7442 9.47957 18.2177 9.57414 18.5529 9.32845L20.5702 7.84993C20.8696 7.63064 20.9491 7.21687 20.7518 6.90238C19.0015 4.10934 15.9415 2.3999 12.6153 2.3999C7.32169 2.3999 3.01526 6.70633 3.01526 11.9999C3.01526 17.2935 7.32169 21.5999 12.6153 21.5999C14.4249 21.5999 16.1881 21.0931 17.7147 20.1349C19.0165 19.3176 20.1037 18.2006 20.8857 16.8772C21.0673 16.5699 20.9931 16.1753 20.7113 15.9563ZM11.2414 17.5175L12.7227 16.0361L14.1268 17.4402C13.6266 17.6004 13.1151 17.6862 12.6156 17.6862C12.1418 17.6862 11.6818 17.6274 11.2414 17.5178V17.5175ZM12.5722 10.528C12.57 10.5748 12.5697 11.1969 14.1287 12.2594C15.2917 13.0524 14.747 14.6321 14.5088 15.1514C14.3603 14.7147 14.1472 14.3026 13.8767 13.9289C13.4767 13.3763 13.0325 13.021 12.7224 12.8108C12.3963 13.0106 11.8612 13.3996 11.4321 14.0681C11.1722 14.4731 11.0293 14.8586 10.9476 15.1514L10.9467 15.1498C10.4723 13.8743 10.6403 13.2371 10.8854 12.8909C11.0777 12.6191 11.427 12.2437 11.427 12.2437C11.7321 11.9402 12.0541 11.6449 12.3639 11.0445C12.5543 10.6753 12.571 10.5468 12.5722 10.5277V10.528Z" fill="#8E9BB2"/>
<path d="M11.4271 12.244C11.4271 12.244 11.0781 12.6194 10.8855 12.8912C10.6404 13.2374 10.4726 13.8745 10.9467 15.1501C8.24419 12.7843 11.0272 10.3699 10.9716 10.5537C10.7648 11.237 11.4268 12.244 11.4268 12.244H11.4271ZM12.0863 11.5006C12.1808 11.3665 12.2738 11.216 12.3627 11.0435C12.5707 10.6404 12.5714 10.5238 12.5714 10.5238C12.5714 10.5238 12.5057 11.1528 14.1275 12.2584C15.2906 13.0514 14.7458 14.6311 14.5076 15.1504C14.5076 15.1504 15.8803 14.2751 15.6855 12.7966C15.4514 11.018 14.4891 11.1786 13.774 9.86123C13.107 8.63248 14.2462 7.64817 14.2462 7.64817C14.2462 7.64817 12.7212 7.56617 12.0231 9.16941C11.2873 10.8587 12.0859 11.5009 12.0859 11.5009L12.0863 11.5006Z" fill="#636F86"/>
</g>
<defs>
<clipPath id="clip0_4741_36197">
<rect width="17.9694" height="19.2" fill="white" transform="translate(3.01526 2.3999)"/>
</clipPath>
</defs>
</svg>
