<svg width="24" height="24" xmlns="http://www.w3.org/2000/svg" fill="none">

 <g>
  <title>Layer 1</title>
  <path id="svg_1" d="m2.3999,12.00002c0,-5.21644 4.38356,-9.6 9.6,-9.6l0,0c5.21644,0 9.6,4.38356 9.6,9.6l0,0c0,5.21644 -4.38356,9.6 -9.6,9.6l0,0c-5.21644,0 -9.6,-4.38356 -9.6,-9.6l0,0z" opacity="undefined" fill="#8e9bb2"/>

  <g stroke="null" id="svg_6">
   <path stroke="null" fill="#eef2f6" d="m13.24123,8.82222l-2.35412,0c-0.08518,0 -0.1572,0.03407 -0.21682,0.10841l-1.68816,2.09083c-0.2478,0.30975 -0.30975,0.59628 -0.30975,1.0067l0,2.13729c-0.54982,1.54102 -0.89829,2.58644 -1.15383,3.53118c-0.01549,0.0604 0.00774,0.09293 0.06195,0.09293l0.25555,0c0.04646,0 0.09292,-0.02323 0.10841,-0.06195c1.92822,-4.90958 4.02679,-7.34114 5.34324,-8.79699c0.05421,-0.06195 0.03098,-0.10841 -0.04646,-0.10841z" class="cls-1"/>
   <path stroke="null" fill="#eef2f6" d="m13.31093,6.41389c-0.15797,0.06117 -0.30976,0.16494 -0.37945,0.22457c-0.69694,0.59627 -1.16157,1.06865 -1.60297,1.53328c-0.05421,0.05421 -0.03098,0.10841 0.04646,0.10841l2.60967,0c0.24006,0 0.37945,0.13939 0.37945,0.37945l0,2.94265c0,0.07744 0.06195,0.10067 0.10841,0.03098l1.572,-2.05211c0.25555,-0.33298 0.33298,-0.43365 0.40268,-0.89828c0.09293,-0.68146 0.03872,-1.72687 -0.3717,-2.16053c-0.36396,-0.38719 -2.00565,-0.40268 -2.76454,-0.10841z" class="cls-1"/>
   <path stroke="null" fill="#eef2f6" d="m13.70586,9.41075c-1.61846,1.80431 -2.8807,3.70155 -4.05002,5.98597c-0.02943,0.05731 0.00774,0.10842 0.07744,0.08519l2.41607,-0.74341c0.27258,-0.08364 0.42591,-0.1936 0.55756,-0.41042l1.07639,-1.77333c0.02323,-0.04646 0.03098,-0.10067 0.03098,-0.13939l0,-2.95814c0,-0.07744 -0.05421,-0.10841 -0.10842,-0.04646z" class="cls-1"/>
  </g>
 </g>
</svg>