<svg width="24" height="24" viewBox="0 0 24 24" fill="none" xmlns="http://www.w3.org/2000/svg">
<path d="M15.6357 14.7407L19.1968 12.6641C19.3869 12.5551 19.5 12.3474 19.5 12.1294V7.97626C19.5 7.75822 19.3818 7.55056 19.1968 7.44154L15.6357 5.36497C15.4455 5.25595 15.2143 5.25595 15.0242 5.36497L11.463 7.44154C11.2729 7.55056 11.1598 7.75822 11.1598 7.97626V15.4L8.66238 16.8536L6.16495 15.4V12.4876L8.66238 11.034L10.3119 11.9944V10.0425L8.97071 9.25854C8.87821 9.20663 8.7703 9.17548 8.66752 9.17548C8.56475 9.17548 8.45683 9.20144 8.36434 9.25854L4.80319 11.3351C4.61305 11.4441 4.5 11.6518 4.5 11.8698V16.023C4.5 16.241 4.61819 16.4487 4.80319 16.5577L8.36434 18.6343C8.55447 18.7433 8.78571 18.7433 8.97585 18.6343L12.537 16.5577C12.7271 16.4487 12.8402 16.241 12.8402 16.023V8.59923L12.8864 8.57327L15.3376 7.14563L17.835 8.59923V11.5116L15.3376 12.9704L13.6932 12.01V13.962L15.0344 14.7407C15.2143 14.8549 15.4507 14.8549 15.6357 14.7407Z" fill="#878888"/>
</svg>
