<?xml version="1.0" encoding="UTF-8" standalone="no"?>
<svg
   width="32"
   height="32"
   viewBox="0 0 32 32"
   fill="none"
   version="1.1"
   id="svg853"
   xmlns="http://www.w3.org/2000/svg"
   xmlns:svg="http://www.w3.org/2000/svg">
  <g
     clip-path="url(#clip0_1854_2491)"
     id="g846">
    <path
       d="m 15.670789,8.9322216 c 2.2152,0 4.0111,-1.78199 4.0111,-3.98017 0,-2.19819 -1.7959,-3.980176 -4.0111,-3.980176 -2.2153,0 -4.01113,1.781986 -4.01113,3.980176 0,2.19818 1.79583,3.98017 4.01113,3.98017 z"
       fill="#FAF9F5"
       id="path842"
       style="fill:#e68f23;fill-opacity:1" />
    <path
       d="m 26.818089,17.253092 c -1.9184,-1.096 -4.3745,-0.4471 -5.479,1.4565 -0.3778,0.6489 -0.5522,1.37 -0.5377,2.0766 0.0436,1.7594 -1.555,2.6679 -3.0665,1.7594 -0.0581,-0.0289 -0.1162,-0.0721 -0.1889,-0.101 -1.5259,-0.8508 -1.5259,-2.6534 0,-3.4898 1.2499,-0.6778 2.1073,-1.9901 2.1073,-3.5043 0,-0.0289 0,-0.0577 0,-0.0865 -0.0436,-1.7594 1.555,-2.6679 3.0665,-1.7594 1.2062,0.7355 2.7758,0.7932 4.0837,0.0433 1.9184,-1.096 2.5724,-3.53316 1.4679,-5.4367204 -1.1045,-1.90356 -3.5606,-2.5525 -5.479,-1.45651 -1.3079,0.74989 -2.0346,2.1343 -2.0055,3.5331304 0.0436,1.7593 -1.5551,2.6679 -3.052,1.7593 -0.6103,-0.3749 -1.3225,-0.5912 -2.0927,-0.5912 -0.7703,0 -1.4824,0.2163 -2.0928,0.5768 -1.51138,0.8941 -3.09548,-0.0144 -3.05188,-1.75933 0.02907,-1.4132404 -0.6975805,-2.7832304 -2.0055505,-3.5331204 -1.91836,-1.09599 -4.37443,-0.43263 -5.478937,1.47093 -1.104506,1.9035604 -0.4359891,4.3407204 1.482367,5.4367204 1.30797,0.7499 2.87753,0.6777 4.08377,-0.0433 1.5114305,-0.9085 3.0955205,0 3.0519205,1.7594 0,0.0288 0,0.0576 0,0.0865 0,1.5142 0.84292,2.8265 2.10731,3.5043 1.5259,0.8508 1.5259,2.6534 0,3.4898 -0.0582,0.0289 -0.1163,0.0721 -0.1744,0.101 -1.51145,0.8941 -3.09555,-0.0145 -3.05195,-1.7594 0.01454,-0.7066 -0.15986,-1.4277 -0.5377205,-2.091 -1.1045,-1.9036 -3.56058,-2.5525 -5.47893,-1.4565 -1.9183561,1.1248 -2.57234,3.5619 -1.467834,5.4655 1.104504,1.9036 3.560584,2.5525 5.478934,1.4565 0.02907,-0.0144 0.0436,-0.0288 0.07267,-0.0433 1.5114305,-0.9085 3.0955205,0 3.0519205,1.7594 0,0.0288 0,0.0577 0,0.1009 0,2.192 1.80211,3.9802 4.01111,3.9802 2.209,0 4.0111,-1.7882 4.0111,-3.9802 0,-0.0288 0,-0.0576 0,-0.0865 -0.0436,-1.7593 1.555,-2.6678 3.0665,-1.7593 0.029,0.0144 0.0581,0.0288 0.0872,0.0577 1.9183,1.0959 4.3744,0.447 5.4789,-1.4566 1.1045,-1.9468 0.4505,-4.3839 -1.4678,-5.4799 z"
       fill="#FAF9F5"
       id="path844"
       style="fill:#e68f23;fill-opacity:1" />
  </g>
  <defs
     id="defs851">
    <clipPath
       id="clip0_1854_2491">
      <rect
         width="178"
         height="32"
         fill="#ffffff"
         id="rect848"
         x="0"
         y="0" />
    </clipPath>
  </defs>
</svg>
