<svg width="24" height="24" viewBox="0 0 24 24" fill="none" xmlns="http://www.w3.org/2000/svg">
<path fill-rule="evenodd" clip-rule="evenodd" d="M12 21C16.9706 21 21 16.9706 21 12C21 7.02944 16.9706 3 12 3C7.02944 3 3 7.02944 3 12C3 16.9706 7.02944 21 12 21ZM5.20858 17.726L10.3724 12.9753C10.4246 12.9273 10.3992 12.8402 10.3293 12.8279L7.3056 12.2943C7.21226 12.2778 7.21074 12.1444 7.30368 12.1258L9.93803 11.5989C9.99987 11.5866 10.0276 11.5139 9.98979 11.4635L7.1793 7.71614C7.12081 7.63815 7.21716 7.53859 7.29703 7.59449L11.0424 10.2163C11.0912 10.2504 11.1591 10.2257 11.1744 10.1681L11.9052 7.42758C11.9286 7.33994 12.0543 7.34391 12.0721 7.43286L12.6161 10.1532C12.6285 10.215 12.7012 10.2428 12.7516 10.2049L16.5282 7.3725C16.6053 7.31468 16.7044 7.40843 16.651 7.48862L14.004 11.4591C13.969 11.5116 14.0007 11.5826 14.0632 11.5915L16.5306 11.944C16.6222 11.9571 16.631 12.0859 16.542 12.1113L14.0442 12.8249C13.9876 12.8411 13.9637 12.9083 13.9975 12.9565L16.65 16.7458C16.705 16.8243 16.6092 16.9201 16.5306 16.8652L12.7487 14.2178C12.6985 14.1826 12.6286 14.2101 12.6157 14.2701L12.0774 16.7826C12.0583 16.8713 11.9324 16.8735 11.9104 16.7854L11.1805 13.8657C11.1641 13.8003 11.0821 13.7785 11.0354 13.8272L6.27483 18.7948C6.24158 18.8295 6.18632 18.83 6.15234 18.7961L5.20601 17.8497C5.17155 17.8153 5.17272 17.759 5.20858 17.726Z" fill="url(#paint0_linear_5710_245369)"/>
<defs>
<linearGradient id="paint0_linear_5710_245369" x1="6" y1="4.5" x2="18.2143" y2="19.2857" gradientUnits="userSpaceOnUse">
<stop stop-color="#382CC6"/>
<stop offset="1" stop-color="#8C57F3"/>
</linearGradient>
</defs>
</svg>
