<svg width="24" height="24" viewBox="0 0 24 24" fill="none" xmlns="http://www.w3.org/2000/svg">
<path d="M16.3121 4.54989C14.9946 3.78331 13.5573 3.40002 12.0001 3.40002C10.443 3.40002 9.00572 3.78331 7.68817 4.54989C6.37062 5.31646 5.31658 6.3705 4.55001 7.68805C3.78343 9.00559 3.40015 10.4429 3.40015 12C3.40015 13.5571 3.78343 14.9945 4.55001 16.312C5.31658 17.6295 6.37062 18.6836 7.68817 19.4502C9.00572 20.2167 10.443 20.6 12.0001 20.6C13.5573 20.6 14.9946 20.2167 16.3121 19.4502C17.6297 18.6836 18.6837 17.6295 19.4503 16.312C20.2169 14.9945 20.6001 13.5571 20.6001 12C20.6001 10.4429 20.2169 9.00559 19.4503 7.68805C18.6837 6.3705 17.6297 5.31646 16.3121 4.54989ZM12.5032 15.1142C11.521 15.1142 10.7545 14.8268 10.1556 14.2758C9.74833 13.8925 9.48483 13.4374 9.36505 12.8864H18.6598C18.5639 13.6769 18.3244 14.4195 17.989 15.1142H12.5272H12.5032ZM9.36505 11.1376C9.48483 10.6106 9.74833 10.1315 10.1556 9.74821C10.7545 9.19724 11.521 8.90977 12.5032 8.90977H17.989C18.3483 9.60448 18.5639 10.3471 18.6598 11.1376H9.36505ZM6.15502 8.5744C6.75391 7.54432 7.56839 6.70587 8.59847 6.10699C9.62856 5.5081 10.7545 5.19668 12.0001 5.19668C13.2458 5.19668 14.3717 5.5081 15.4018 6.10699C15.9288 6.41841 16.384 6.77774 16.8152 7.20894H12.4793C11.4971 7.20894 10.6107 7.42454 9.84416 7.83178C9.07759 8.23902 8.4787 8.81395 8.07146 9.53262C7.78399 10.0357 7.59235 10.5867 7.49653 11.1616H5.36449C5.46031 10.2513 5.74778 9.38888 6.20293 8.59835L6.15502 8.5744ZM15.3779 17.8931C14.3478 18.4919 13.2219 18.8034 11.9762 18.8034C10.7305 18.8034 9.6046 18.4919 8.57452 17.8931C7.54444 17.2942 6.72995 16.4557 6.13107 15.4257C5.67591 14.6351 5.38845 13.7967 5.29263 12.8864H7.42466C7.52048 13.4613 7.71212 14.0123 7.99959 14.5153C8.43079 15.234 9.02967 15.785 9.77229 16.2162C10.5389 16.6234 11.4252 16.839 12.4074 16.839H16.7194C16.3121 17.2463 15.857 17.6056 15.3539 17.8931H15.3779Z" fill="#8E9BB2"/>
</svg>
