<svg width="24" height="24" viewBox="0 0 24 24" fill="none" xmlns="http://www.w3.org/2000/svg">
<path d="M18.4935 7.99913L17.903 8.58798C18.3724 9.32404 18.52 10.2473 18.1983 11.1298C17.6616 12.6283 15.9984 13.418 14.4821 12.8827C14.2671 12.8027 14.0665 12.7091 13.8917 12.5883L11.9999 14.4748L10.3496 12.8155C9.58502 13.3236 8.60544 13.4708 7.67961 13.1499C6.12319 12.5883 5.31858 10.889 5.8817 9.35044C5.96193 9.10962 6.08307 8.8952 6.21705 8.69518L5.50624 7.98633L5.37226 8.21355C4.62789 9.42558 4.23339 10.819 4.23222 12.2403C4.21858 16.5078 7.70689 20.0001 11.9862 20.0001H11.9999C16.2792 20.0001 19.7547 16.535 19.7676 12.2667C19.7675 10.847 19.3777 9.45443 18.6404 8.23995L18.4935 7.99913Z" fill="#878888"/>
<path d="M7.08661 9.56201C6.87747 9.83982 6.76456 10.1779 6.76489 10.5253C6.76489 11.395 7.47571 12.1038 8.34779 12.1038C8.71042 12.1038 9.04577 11.983 9.31373 11.7694L7.08661 9.56201Z" fill="#878888"/>
<path d="M14.856 11.6345C15.1111 11.8081 15.4063 11.9017 15.7417 11.9017C16.6137 11.9017 17.3246 11.1929 17.3246 10.3232C17.3246 10.0024 17.2307 9.69436 17.0566 9.43994L14.856 11.6345Z" fill="#878888"/>
<path d="M12.0261 13.2983L5.61353 6.87623L5.86865 6.60901C7.45155 4.93688 9.61128 4 11.9323 4H11.9459C14.2934 4 16.5478 5.00328 18.117 6.74262L18.3585 7.00984L12.0261 13.2983ZM6.6605 6.87623L12.0269 12.2415L17.326 6.98344C15.9035 5.56573 13.9717 4.74886 11.9595 4.74886H11.9459C9.94663 4.74886 8.08214 5.49852 6.6605 6.87623" fill="#878888"/>
</svg>
