<svg width="24" height="24" viewBox="0 0 24 24" fill="none" xmlns="http://www.w3.org/2000/svg">
<path fill-rule="evenodd" clip-rule="evenodd" d="M11.9774 20.6394C14.4929 20.6394 16.7558 19.5514 18.3265 17.8178L17.9086 17.3537C17.3914 16.7795 16.5096 16.7304 15.9323 17.2438L15.0407 18.0365C13.8278 19.1149 11.9842 19.0469 10.8535 17.882L10.2961 17.3077C9.76072 16.7562 8.88354 16.737 8.32471 17.2646L6.68952 18.8081C8.1473 19.9555 9.98293 20.6394 11.9774 20.6394ZM19.1168 16.2584L19.3198 16.4838C20.1104 15.1765 20.5658 13.6415 20.5658 11.9994C20.5658 10.0082 19.8963 8.17441 18.7713 6.7133C18.5622 6.76723 18.3624 6.87043 18.1897 7.0239L17.2982 7.81658C16.0853 8.89501 14.2418 8.82704 13.1111 7.66218L12.5536 7.08787C12.0182 6.53638 11.1411 6.51715 10.5822 7.04467L8.28836 9.20999L7.17242 8.02024L9.46629 5.85491C10.6722 4.71659 12.5651 4.75808 13.7202 5.94814L14.2777 6.52245C14.8018 7.06226 15.656 7.09376 16.2181 6.594L17.1096 5.80132C17.2593 5.66829 17.4184 5.55276 17.5845 5.4546C16.0799 4.14891 14.1202 3.35938 11.9774 3.35938C7.66888 3.35938 4.1014 6.55099 3.48358 10.7123C4.65926 10.0314 6.18579 10.2094 7.17328 11.2267L7.81799 11.8909C8.31911 12.4072 9.12748 12.4616 9.69291 12.0172L11.6041 10.5152C12.7512 9.61361 14.3751 9.65722 15.4725 10.619L18.0748 12.9L17.0034 14.1302L14.401 11.8493C13.8925 11.4035 13.1399 11.3833 12.6084 11.8012L10.6972 13.3033C9.47706 14.2622 7.73269 14.1447 6.65132 13.0307L6.00662 12.3665C5.47128 11.815 4.59411 11.7958 4.03527 12.3233L3.43408 12.8908C3.62001 14.7157 4.37053 16.3724 5.50703 17.6811L7.20877 16.0747C8.41467 14.9365 10.3075 14.9779 11.4627 16.168L12.0202 16.7423C12.5442 17.2821 13.3985 17.3136 13.9606 16.8139L14.8522 16.0212C16.098 14.9134 18.0008 15.0193 19.1168 16.2584Z" fill="#6C6D6D"/>
</svg>
