<svg width="24" height="24" viewBox="0 0 24 24" fill="none" xmlns="http://www.w3.org/2000/svg">
<path d="M12.0447 14.4454L14.3616 18.0982L16.5018 16.8523L13.459 12.0347L12.0447 14.4454Z" fill="#404141"/>
<path d="M18.4534 15.391L18.4519 14.3928L15.1271 9.19092L13.8936 11.2934L17.1032 16.5078L18.2637 15.8323C18.3775 15.7394 18.4464 15.6032 18.4537 15.4561L18.4534 15.391Z" fill="#404141"/>
<path d="M4.51983 16.3286L6.15864 17.2771L11.6122 8.49178L10.6866 8.46723C9.89798 8.45602 9.04849 8.66195 8.65855 9.30132L5.56165 14.123L4.51978 15.731V16.3286H4.51983Z" fill="#878888"/>
<path d="M14.7594 8.49658L12.3202 8.50548L6.80127 17.6537L8.73026 18.7694L9.25484 17.8757L14.7594 8.49658Z" fill="#878888"/>
<path d="M19.4803 8.48433C19.4599 7.97188 19.1837 7.50273 18.751 7.22962L12.6867 3.72646C12.2587 3.50996 11.724 3.50969 11.2953 3.72631C11.2446 3.75196 5.39782 7.1582 5.39782 7.1582C5.31692 7.19716 5.23899 7.2436 5.16566 7.29628C4.77941 7.57436 4.54396 8.00644 4.51978 8.48119V15.7363L5.56165 14.1282L5.55253 8.53025C5.55378 8.50978 5.55633 8.48967 5.55993 8.46977C5.58344 8.33803 5.65667 8.22054 5.76692 8.14116C5.79444 8.12137 11.7411 4.66371 11.76 4.65418C11.8998 4.58365 12.0774 4.58292 12.2173 4.65204L18.2032 8.11074C18.3448 8.20132 18.4336 8.35495 18.4415 8.52287V15.4574C18.4342 15.6045 18.3764 15.7407 18.2625 15.8336L17.102 16.5091L16.5032 16.8577L14.363 18.1036L12.1925 19.3671C12.0756 19.4095 11.9389 19.4072 11.823 19.3598L9.25501 17.8761L8.73043 18.7698L11.0382 20.1045C11.1145 20.1481 11.1825 20.1867 11.2383 20.2182C11.3247 20.2669 11.3836 20.2995 11.4044 20.3096C11.5684 20.3896 11.8044 20.4362 12.0171 20.4362C12.2121 20.4362 12.4022 20.4002 12.5821 20.3294L18.8863 16.6619C19.2482 16.3803 19.4611 15.9557 19.4803 15.4956V8.48433Z" fill="#404141"/>
</svg>
