<svg width="24" height="24" viewBox="0 0 24 24" fill="none" xmlns="http://www.w3.org/2000/svg">
<path d="M11.4048 2.55739C11.8324 2.34852 12.2831 2.36171 12.6965 2.59806C14.1333 3.41705 15.5657 4.24263 16.9926 5.0792C17.4521 5.34853 17.6862 5.78166 17.6884 6.31152C17.6972 8.17155 17.6939 10.0305 17.6884 11.8905C17.6884 11.9598 17.6434 12.0598 17.5884 12.0928C17.0354 12.4215 16.4759 12.7403 15.8702 13.0888C15.8702 12.9667 15.8702 12.881 15.8702 12.7963C15.8702 10.8835 15.8647 8.97075 15.8746 7.05795C15.8768 6.69078 15.7492 6.45443 15.4239 6.26865C13.7551 5.32104 12.0962 4.35476 10.4341 3.39506C10.3626 3.35329 10.2923 3.30931 10.1835 3.24335C10.6122 3.00041 10.998 2.75636 11.4048 2.55739ZM11.0992 21.5897C11.0068 21.5413 10.9365 21.5084 10.8694 21.4699C8.66751 20.2002 6.46889 18.9228 4.26038 17.663C3.64147 17.309 3.35895 16.8066 3.36445 16.0998C3.37654 14.5959 3.37324 13.0931 3.36555 11.5893C3.36225 10.9099 3.63818 10.4185 4.234 10.0799C5.78403 9.1983 7.32635 8.30237 8.86868 7.40643C9.0017 7.32948 9.09953 7.31629 9.23805 7.39984C9.77121 7.71974 10.3121 8.02534 10.8782 8.35184C10.7705 8.4156 10.688 8.46617 10.6056 8.51344C8.93683 9.47753 7.26918 10.4438 5.59604 11.4013C5.32121 11.5585 5.19479 11.7619 5.19699 12.0796C5.20578 13.2646 5.20688 14.4486 5.19699 15.6337C5.19369 15.9612 5.32341 16.1679 5.60594 16.3295C7.37142 17.3387 9.13031 18.361 10.8947 19.3724C11.0442 19.4581 11.108 19.5472 11.1036 19.7264C11.0904 20.3332 11.0992 20.94 11.0992 21.5897ZM11.0992 18.1961C10.9464 18.1093 10.8353 18.0466 10.7254 17.9829C9.32599 17.1749 7.92767 16.3647 6.52496 15.5633C6.37325 15.4765 6.31719 15.3841 6.31939 15.2082C6.32928 14.2969 6.32598 13.3867 6.32159 12.4753C6.32159 12.3522 6.34027 12.2665 6.46229 12.1994C6.97897 11.9114 7.48905 11.6102 8.00132 11.3156C8.0387 11.2947 8.07828 11.2782 8.14643 11.2452C8.14643 11.6058 8.14643 11.9367 8.14643 12.2676C8.14643 12.8216 8.15523 13.3757 8.14314 13.9297C8.13654 14.2452 8.25747 14.4585 8.53339 14.6146C9.32599 15.062 10.1087 15.527 10.9024 15.9722C11.0585 16.0602 11.1058 16.1569 11.1025 16.3295C11.0926 16.9352 11.0992 17.5421 11.0992 18.1961ZM9.4821 6.24117C9.18528 6.06638 8.93134 6.06857 8.63453 6.24227C6.97017 7.21405 5.29922 8.17375 3.63048 9.13784C3.56012 9.17852 3.48647 9.21589 3.36225 9.28405C3.40622 8.64975 3.271 8.05173 3.48647 7.47239C3.60409 7.15579 3.82506 6.91724 4.11748 6.74795C5.5103 5.94325 6.90202 5.13636 8.29704 4.33717C8.80602 4.04475 9.32599 4.05244 9.83497 4.34486C11.4191 5.25729 13.0032 6.17191 14.584 7.08983C14.651 7.12941 14.7357 7.21625 14.7368 7.28111C14.7478 7.933 14.7434 8.58379 14.7434 9.28405C14.1684 8.95206 13.6375 8.64535 13.1065 8.33975C11.8973 7.64169 10.6858 6.94912 9.4821 6.24117ZM20.6203 16.4812C20.5796 16.9935 20.2784 17.3574 19.8354 17.6113C18.138 18.5875 16.444 19.567 14.7478 20.5465C14.2157 20.8532 13.6836 21.161 13.1505 21.4677C13.0867 21.5051 13.0197 21.5369 12.9328 21.5831C12.9273 21.4952 12.9196 21.4303 12.9196 21.3654C12.9185 20.8037 12.9229 20.242 12.9163 19.6802C12.9152 19.5538 12.9471 19.4746 13.0636 19.4076C15.5371 17.9851 18.0072 16.5571 20.4785 15.1313C20.5158 15.1093 20.5565 15.0928 20.6269 15.0587C20.628 15.5567 20.6566 16.0217 20.6203 16.4812ZM20.6324 12.9404C20.628 13.523 20.3147 13.9319 19.8156 14.2177C17.8819 15.3291 15.9504 16.4471 14.0189 17.5618C13.6661 17.7652 13.3121 17.9686 12.9328 18.1862C12.9273 18.0906 12.9196 18.0268 12.9196 17.962C12.9185 17.4079 12.9251 16.8539 12.9152 16.2987C12.913 16.1415 12.9647 16.0569 13.101 15.9788C14.8588 14.9708 16.6089 13.9506 18.3689 12.948C18.6822 12.77 18.8196 12.5512 18.8174 12.184C18.8042 10.2712 18.8108 8.35733 18.8108 6.44454C18.8108 6.3533 18.8108 6.26315 18.8108 6.11035C19.2703 6.38738 19.6991 6.61493 20.0926 6.89306C20.451 7.147 20.6313 7.53175 20.6335 7.97478C20.6401 9.63033 20.6445 11.2848 20.6324 12.9404Z" fill="#8E9BB2"/>
</svg>
