<svg width="24" height="24" viewBox="0 0 24 24" fill="none" xmlns="http://www.w3.org/2000/svg">
<path d="M8.3124 11.6516H2.10205L8.6358 8.58495L11.6601 2L11.6672 8.2557C11.6696 10.1303 10.167 11.6539 8.31005 11.6539L8.3124 11.6516Z" fill="#6C6D6D"/>
<path d="M15.6876 11.6516H21.898L15.3643 8.58495L12.3399 2L12.3328 8.2557C12.3304 10.1303 13.8331 11.6539 15.69 11.6539L15.6876 11.6516Z" fill="#6C6D6D"/>
<path d="M15.6876 12.3484H21.898L15.3643 15.415L12.3399 22L12.3328 15.7443C12.3304 13.8697 13.8331 12.3461 15.69 12.3461L15.6876 12.3484Z" fill="#6C6D6D"/>
<path d="M8.3124 12.3484H2.10205L8.6358 15.415L11.6601 22L11.6672 15.7443C11.6696 13.8697 10.167 12.3461 8.31005 12.3461L8.3124 12.3484Z" fill="#6C6D6D"/>
</svg>
