<svg width="24" height="24" viewBox="0 0 24 24" fill="none" xmlns="http://www.w3.org/2000/svg">
<path d="M19.0853 14.9153V5.2873C19.0652 4.48329 18.422 3.84009 17.618 3.84009H7.60816C5.43735 3.88029 3.70874 5.6491 3.70874 7.81991C3.70874 8.54352 3.90974 9.18672 4.21124 9.72942C4.47255 10.1917 4.87455 10.6138 5.25645 10.9354C5.37705 11.0359 5.31675 10.9957 5.65845 11.1967C6.12076 11.4781 6.66346 11.6188 6.66346 11.6188V17.3675C6.68356 17.6489 6.70366 17.9102 6.78406 18.1514C7.00516 18.9554 7.56796 19.5785 8.33177 19.88C8.65337 20.0006 9.01517 20.081 9.39708 20.1011L17.3768 20.1413C18.9647 20.1413 20.2712 18.8549 20.2712 17.2469C20.2712 16.3022 19.8089 15.4379 19.0853 14.9153Z" fill="#EEF2F6"/>
<path d="M19.2873 17.3075C19.2471 18.3326 18.4029 19.1567 17.3778 19.1567L11.8704 19.1366C12.3126 18.6341 12.5739 17.9708 12.5739 17.2472C12.5739 16.1216 11.9106 15.3376 11.9106 15.3376H17.3979C18.4431 15.3376 19.3074 16.202 19.3074 17.2472L19.2873 17.3075Z" fill="#DCE3EF"/>
<path d="M5.77905 10.1314C5.13585 9.52842 4.69365 8.74452 4.69365 7.81991V7.71941C4.75395 6.1516 6.04036 4.86519 7.60817 4.82499H17.6381C17.8994 4.84509 18.1004 5.026 18.1004 5.2873V13.7897C18.3215 13.8299 18.4421 13.8701 18.6632 13.9304C18.8441 13.9907 19.0853 14.1314 19.0853 14.1314V5.2873C19.0652 4.48329 18.422 3.84009 17.618 3.84009H7.60817C5.43735 3.88029 3.70874 5.6491 3.70874 7.81991C3.70874 9.08622 4.29164 10.1716 5.21625 10.9153C5.27655 10.9756 5.33685 11.0359 5.51775 11.0359C5.81925 11.0359 6.02025 10.7947 6.00015 10.5535C6.00015 10.3324 5.91975 10.252 5.77905 10.1314Z" fill="#8E9BB2"/>
<path d="M17.3766 14.351H9.51744C8.99484 14.351 8.57274 14.7731 8.57274 15.3158V16.4414C8.59284 16.964 9.03504 17.4062 9.55764 17.4062H10.1405V16.4414H9.55764V15.3359C9.55764 15.3359 9.69835 15.3359 9.87925 15.3359C10.8642 15.3359 11.6079 16.2605 11.6079 17.2454C11.6079 18.1298 10.8039 19.2354 9.47724 19.155C8.29134 19.0746 7.64813 18.0293 7.64813 17.2454V7.65768C7.64813 7.23558 7.28633 6.87378 6.86423 6.87378H6.08032V7.85869H6.66323V17.2655C6.62303 19.1751 8.03003 20.1399 9.47724 20.1399L17.3967 20.16C18.9846 20.16 20.2911 18.8736 20.2911 17.2655C20.271 15.6575 18.9846 14.351 17.3766 14.351ZM19.2861 17.3057C19.2459 18.3309 18.4017 19.155 17.3766 19.155L11.8692 19.1349C12.3114 18.6324 12.5727 17.969 12.5727 17.2454C12.5727 16.1198 11.9094 15.3359 11.9094 15.3359H17.3967C18.4419 15.3359 19.3062 16.2002 19.3062 17.2454L19.2861 17.3057Z" fill="#8E9BB2"/>
<path d="M15.2667 8.01925H9.33716V7.05444H15.2667C15.528 7.05444 15.7491 7.27554 15.7491 7.53685C15.7491 7.79815 15.5481 8.01925 15.2667 8.01925Z" fill="#8E9BB2"/>
<path d="M15.2667 12.6458H9.33716V11.6609H15.2667C15.528 11.6609 15.7491 11.882 15.7491 12.1433C15.7491 12.4247 15.5481 12.6458 15.2667 12.6458Z" fill="#8E9BB2"/>
<path d="M16.3119 10.3345H9.33716V9.34961H16.3119C16.5732 9.34961 16.7943 9.57071 16.7943 9.83201C16.7943 10.1134 16.5732 10.3345 16.3119 10.3345Z" fill="#8E9BB2"/>
</svg>
