<svg width="24" height="24" viewBox="0 0 24 24" fill="none" xmlns="http://www.w3.org/2000/svg">
<path d="M20.6399 11.9999C20.6399 7.2281 16.7716 3.35986 11.9998 3.35986C7.22794 3.35986 3.35986 7.2281 3.35986 11.9999C3.35986 16.7718 7.2281 20.6399 11.9998 20.6399C16.7715 20.6399 20.6399 16.7716 20.6399 11.9999Z" fill="#8E9BB2"/>
<path d="M17.8309 11.5688C17.8309 11.5483 17.4569 11.3094 17.26 11.1846C17.1749 11.1313 17.0958 11.0688 17.0242 10.9983C16.8769 10.8527 16.6315 10.5982 16.5514 10.4416C16.5001 10.3415 16.5212 10.1613 16.5611 9.98926C16.6302 9.68746 16.5779 9.37059 16.4154 9.10704L16.1595 8.6902C16.0416 8.50009 15.9469 8.29657 15.8774 8.08399C15.789 7.81073 15.6353 7.56316 15.4295 7.36285C15.0132 6.95662 13.8605 6.75664 12.9031 6.72465C12.8439 6.70695 12.7837 6.69268 12.7229 6.68189C12.2964 6.60923 11.842 6.49204 11.434 6.56824C10.8281 6.68077 10.2156 6.87078 9.75857 7.33986C9.6663 7.43438 9.52242 7.47907 9.42308 7.56861C9.22631 7.74625 8.96123 7.74625 8.78633 7.94365C8.68393 8.05859 8.63666 8.43428 8.36836 8.57783C7.92452 8.81575 7.59674 9.07778 7.48839 9.21169C7.40705 9.31216 7.34371 9.42983 7.26478 9.5332C7.18441 9.63865 6.80165 9.81709 6.69041 9.92865C6.57917 10.0402 6.43031 10.3119 6.4975 10.6329C6.50377 10.6622 6.50892 10.6863 6.51358 10.7059C6.5573 10.8691 6.67626 11.1649 6.64877 11.3007C6.61662 11.4614 6.20396 12.6576 7.12637 12.9764C7.31928 13.043 7.39966 13.1724 7.42088 13.3693C7.43983 13.5288 7.48542 13.684 7.55575 13.8284C7.63966 14.0052 7.80508 14.1017 7.81858 14.1136C7.8742 14.1618 8.13302 14.4328 8.1544 14.4722C8.4817 15.0771 8.38974 15.3794 9.01621 15.585C9.17719 15.6381 9.33177 15.7091 9.47709 15.7964C9.65426 15.9028 9.84395 15.9868 10.0418 16.0465C10.0476 16.0481 10.0563 16.0512 10.0666 16.0549C10.2058 15.7186 10.3469 15.3996 10.4876 15.0993C9.35974 13.943 9.65633 12.6475 9.7642 12.3004C9.76735 12.2901 9.77305 12.2807 9.78079 12.2731C9.78852 12.2656 9.79804 12.2601 9.80845 12.2572C9.81887 12.2543 9.82985 12.2541 9.84038 12.2566C9.85091 12.259 9.86065 12.2641 9.86869 12.2713C10.1053 12.4787 10.8249 13.2265 10.7405 14.5769C10.9893 14.0798 11.2312 13.6429 11.4523 13.2696C10.6385 11.8905 11.2449 10.6815 11.4362 10.3629C11.4417 10.3533 11.4495 10.3453 11.459 10.3397C11.4684 10.334 11.4792 10.3309 11.4902 10.3306C11.5012 10.3303 11.5121 10.3328 11.5218 10.3379C11.5316 10.343 11.5398 10.3506 11.5458 10.3598C11.7117 10.6061 12.1627 11.4135 11.8834 12.5768C12.0858 12.2675 12.2501 12.0384 12.3575 11.8947C12.6488 9.97173 14.101 9.34013 14.4827 9.20702C14.4929 9.2033 14.5039 9.20222 14.5147 9.20391C14.5254 9.20559 14.5356 9.20998 14.5442 9.21667C14.5528 9.22336 14.5595 9.23212 14.5638 9.24212C14.5681 9.25213 14.5698 9.26306 14.5687 9.2739C14.5335 9.67145 14.2883 11.203 12.6039 11.9892C12.4014 12.2559 12.2064 12.5366 12.0199 12.8251C12.6641 12.3218 13.5665 12.0857 14.3168 12.2668C14.3274 12.2692 14.3372 12.2742 14.3453 12.2814C14.3535 12.2886 14.3598 12.2976 14.3635 12.3078C14.3673 12.318 14.3685 12.329 14.3669 12.3397C14.3654 12.3505 14.3612 12.3607 14.3547 12.3694C14.1391 12.6549 13.2815 13.6177 11.6658 13.3971C11.3925 13.8573 11.1425 14.3238 10.9203 14.7698C11.6182 14.242 12.6375 14.0398 13.4281 14.3055C13.4387 14.3089 13.4482 14.3148 13.4558 14.3228C13.4635 14.3309 13.469 14.3407 13.4718 14.3514C13.4747 14.362 13.4748 14.3733 13.4722 14.384C13.4696 14.3948 13.4643 14.4047 13.4569 14.4129C13.2113 14.6772 12.2655 15.5449 10.7106 15.2006C10.5648 15.5086 10.3474 16.0151 10.2413 16.2654C10.2048 16.3516 10.1712 16.4386 10.1413 16.5271C10.0725 16.731 9.97977 16.9853 9.86933 17.2399C9.85375 17.2762 9.84581 17.3154 9.84599 17.3549C9.84617 17.3944 9.85446 17.4335 9.87036 17.4697C9.88627 17.5058 9.90944 17.5384 9.93844 17.5652C9.96742 17.5921 10.0016 17.6127 10.0389 17.6257C11.266 18.0638 12.5982 18.1132 13.8543 17.7672C13.8958 17.7554 13.9341 17.7344 13.9663 17.7058C13.9986 17.6772 14.024 17.6416 14.0406 17.6018C14.0668 17.5397 14.0927 17.4809 14.0927 17.4809C14.0927 17.4809 14.6357 16.2204 14.7156 15.6711C14.7384 15.498 14.7922 15.3304 14.8744 15.1763C14.9168 15.0993 14.978 15.0344 15.0524 14.9877C15.1268 14.9409 15.2119 14.9139 15.2996 14.9092C15.7129 14.8873 16.5931 14.8296 16.9133 14.7281C17.3388 14.5929 17.1544 13.8178 17.1314 13.7344C17.1084 13.6509 17.3362 13.4566 17.383 13.3432C17.4298 13.2299 17.2679 13.191 17.2018 13.0664C17.1358 12.9418 17.366 12.8526 17.3988 12.7396C17.4316 12.6266 17.3238 12.5025 17.2803 12.4191C17.2512 12.3596 17.2308 12.2962 17.2198 12.231C17.2198 12.231 17.5312 12.003 17.6966 11.8592C17.8621 11.7153 17.8313 11.5968 17.8309 11.5688Z" fill="#FAFAFA"/>
</svg>
