<svg width="24" height="24" viewBox="0 0 24 24" fill="none" xmlns="http://www.w3.org/2000/svg">
<path fill-rule="evenodd" clip-rule="evenodd" d="M11.9774 20.6399C14.4929 20.6399 16.7558 19.5519 18.3265 17.8183L17.9086 17.3542C17.3914 16.78 16.5096 16.7309 15.9323 17.2442L15.0407 18.0369C13.8278 19.1154 11.9842 19.0474 10.8535 17.8825L10.2961 17.3082C9.76072 16.7567 8.88354 16.7375 8.32471 17.265L6.68952 18.8085C8.1473 19.956 9.98293 20.6399 11.9774 20.6399ZM19.1168 16.2589L19.3198 16.4843C20.1104 15.177 20.5658 13.642 20.5658 11.9999C20.5658 10.0087 19.8963 8.1749 18.7713 6.71379C18.5622 6.76772 18.3624 6.87092 18.1897 7.02438L17.2982 7.81707C16.0853 8.8955 14.2418 8.82752 13.1111 7.66267L12.5536 7.08836C12.0182 6.53687 11.1411 6.51764 10.5822 7.04515L8.28836 9.21047L7.17242 8.02072L9.46629 5.8554C10.6722 4.71708 12.5651 4.75856 13.7202 5.94863L14.2777 6.52294C14.8018 7.06275 15.656 7.09425 16.2181 6.59449L17.1096 5.80181C17.2593 5.66877 17.4184 5.55325 17.5845 5.45509C16.0799 4.1494 14.1202 3.35986 11.9774 3.35986C7.66888 3.35986 4.1014 6.55148 3.48358 10.7128C4.65926 10.0319 6.18579 10.2099 7.17328 11.2272L7.81799 11.8914C8.31911 12.4077 9.12748 12.4621 9.69291 12.0177L11.6041 10.5156C12.7512 9.6141 14.3751 9.65771 15.4725 10.6195L18.0748 12.9004L17.0034 14.1307L14.401 11.8498C13.8925 11.404 13.1399 11.3838 12.6084 11.8017L10.6972 13.3037C9.47706 14.2627 7.73269 14.1451 6.65132 13.0311L6.00662 12.367C5.47128 11.8155 4.59411 11.7963 4.03527 12.3238L3.43408 12.8912C3.62001 14.7162 4.37053 16.3728 5.50703 17.6816L7.20877 16.0752C8.41467 14.9369 10.3075 14.9784 11.4627 16.1685L12.0202 16.7428C12.5442 17.2826 13.3985 17.3141 13.9606 16.8144L14.8522 16.0217C16.098 14.9139 18.0008 15.0198 19.1168 16.2589Z" fill="#8E9BB2"/>
</svg>
