<svg width="24" height="24" viewBox="0 0 24 24" fill="none" xmlns="http://www.w3.org/2000/svg">
<path fill-rule="evenodd" clip-rule="evenodd" d="M4.90122 16.7891C4.79537 16.6688 4.68952 16.5473 4.58969 16.4223C2.08903 13.6594 1.67286 8.5053 5.25123 5.17109C5.52068 4.95699 5.79853 4.76574 6.08358 4.59734C4.54278 5.91323 4.15427 6.87187 3.86319 8.18655C3.36522 10.5044 4.79898 13.6305 5.6193 14.7347C7.18778 16.8541 9.31916 14.956 8.00208 13.2023C7.04344 11.9357 5.0588 8.64604 5.77808 6.44488C6.25439 4.99307 7.65206 3.91896 8.54096 3.41738C9.7979 3.09623 10.9261 3.02646 12.1446 3.25139C10.3569 3.7676 9.88199 4.13856 9.3232 4.57506L9.323 4.57522C9.29984 4.5933 9.27656 4.6115 9.25302 4.62982C6.20783 7.00313 8.02102 9.63136 9.40324 11.6349C9.51316 11.7942 9.62032 11.9496 9.72213 12.1005C10.8155 13.4753 10.9382 15.543 9.56817 16.8276C8.58666 17.7538 7.33572 17.9967 6.21229 17.6022C5.86108 17.4807 5.52908 17.2955 5.20914 17.0525C5.11892 16.9876 5.03954 16.9142 4.96617 16.8456L4.95655 16.8336C4.95174 16.8276 4.94542 16.8228 4.93911 16.818C4.93279 16.8132 4.92648 16.8083 4.92167 16.8023C4.91926 16.7993 4.91535 16.7975 4.91144 16.7957C4.90753 16.7939 4.90363 16.7921 4.90122 16.7891ZM16.4597 5.5311C16.5655 5.65139 16.6714 5.77288 16.7712 5.89797C18.153 7.42467 18.8979 9.68183 18.6842 11.9584C18.2956 11.8459 17.8876 11.7789 17.4665 11.7636C17.1431 10.029 16.2993 8.3379 15.7404 7.58552C14.1719 5.46616 12.0405 7.36421 13.3576 9.11793C13.8485 9.76648 14.6084 10.9456 15.1366 12.2373C14.5203 12.5274 13.9722 12.9386 13.5233 13.4403C13.1794 12.4562 12.5313 11.5169 11.9576 10.6852L11.9571 10.6846C11.8474 10.5255 11.7404 10.3704 11.6388 10.2197C10.5454 8.84488 10.4227 6.77724 11.7927 5.49262C12.7742 4.56645 14.0252 4.32348 15.1486 4.71801C15.4986 4.83949 15.8318 5.02473 16.1517 5.2677C16.242 5.33265 16.3214 5.40602 16.3947 5.47458L16.4044 5.48661C16.4092 5.49262 16.4155 5.49743 16.4218 5.50224C16.4281 5.50706 16.4344 5.51187 16.4392 5.51788C16.4416 5.52088 16.4455 5.5227 16.4494 5.5245C16.4534 5.5263 16.4573 5.5281 16.4597 5.5311ZM12.2938 17.5392C12.2336 17.5897 12.1712 17.6401 12.1067 17.6904C12.0854 17.707 12.0644 17.7234 12.0435 17.7397L12.0411 17.7416L12.0395 17.7429C11.4804 18.1804 11.0059 18.5517 9.2151 19.0688C10.3985 19.2873 11.4969 19.2278 12.7107 18.9299C12.5083 18.4964 12.3658 18.0293 12.2938 17.5392Z" fill="url(#paint0_linear_4741_36169)"/>
<path d="M17.2802 20.8803C19.5336 20.8803 21.3603 19.0536 21.3603 16.8002C21.3603 14.5469 19.5336 12.7202 17.2802 12.7202C15.0269 12.7202 13.2002 14.5469 13.2002 16.8002C13.2002 19.0536 15.0269 20.8803 17.2802 20.8803Z" fill="#8E9BB2"/>
<path d="M17.2803 14.6401L17.2513 14.7386V17.5951L17.2803 17.624L18.6062 16.8402L17.2803 14.6401Z" fill="#DDDDDD"/>
<path d="M17.2803 14.6401L15.9543 16.8402L17.2803 17.624V16.2375V14.6401Z" fill="white"/>
<path d="M17.2795 17.8751L17.2632 17.8951V18.9126L17.2795 18.9603L18.6063 17.0918L17.2795 17.8751Z" fill="#DDDDDD"/>
<path d="M17.2803 18.9603V17.8751L15.9543 17.0918L17.2803 18.9603Z" fill="white"/>
<path d="M17.2797 17.6237L18.6056 16.84L17.2797 16.2373V17.6237Z" fill="#8E9BB2"/>
<path d="M15.9543 16.84L17.2803 17.6237V16.2373L15.9543 16.84Z" fill="#DDDDDD"/>
<defs>
<linearGradient id="paint0_linear_4741_36169" x1="10.6802" y1="3.12012" x2="10.6802" y2="19.2001" gradientUnits="userSpaceOnUse">
<stop stop-color="#C4CEDF"/>
<stop offset="1" stop-color="#8E9BB2"/>
</linearGradient>
</defs>
</svg>
