<svg width="24" height="24" viewBox="0 0 24 24" fill="none" xmlns="http://www.w3.org/2000/svg">
<path d="M19.0853 14.915V5.28705C19.0652 4.48305 18.422 3.83984 17.618 3.83984H7.60816C5.43735 3.88004 3.70874 5.64885 3.70874 7.81967C3.70874 8.54327 3.90974 9.18648 4.21124 9.72918C4.47255 10.1915 4.87455 10.6136 5.25645 10.9352C5.37705 11.0357 5.31675 10.9955 5.65845 11.1965C6.12076 11.4779 6.66346 11.6186 6.66346 11.6186V17.3672C6.68356 17.6486 6.70366 17.9099 6.78406 18.1511C7.00516 18.9551 7.56796 19.5782 8.33177 19.8797C8.65337 20.0003 9.01517 20.0807 9.39708 20.1008L17.3768 20.141C18.9647 20.141 20.2712 18.8546 20.2712 17.2466C20.2712 16.3019 19.8089 15.4376 19.0853 14.915Z" fill="#EFEFEF"/>
<path d="M19.2876 17.3077C19.2474 18.3328 18.4031 19.1569 17.378 19.1569L11.8706 19.1368C12.3128 18.6343 12.5741 17.971 12.5741 17.2474C12.5741 16.1218 11.9108 15.3379 11.9108 15.3379H17.3981C18.4433 15.3379 19.3077 16.2022 19.3077 17.2474L19.2876 17.3077Z" fill="#B0B1B1"/>
<path d="M5.77905 10.1312C5.13585 9.52818 4.69365 8.74428 4.69365 7.81967V7.71917C4.75395 6.15136 6.04036 4.86495 7.60817 4.82475H17.6381C17.8994 4.84485 18.1004 5.02575 18.1004 5.28705V13.7894C18.3215 13.8296 18.4421 13.8698 18.6632 13.9301C18.8441 13.9904 19.0853 14.1311 19.0853 14.1311V5.28705C19.0652 4.48305 18.422 3.83984 17.618 3.83984H7.60817C5.43735 3.88004 3.70874 5.64886 3.70874 7.81967C3.70874 9.08598 4.29164 10.1714 5.21625 10.9151C5.27655 10.9754 5.33685 11.0357 5.51775 11.0357C5.81925 11.0357 6.02025 10.7945 6.00015 10.5533C6.00015 10.3322 5.91975 10.2518 5.77905 10.1312Z" fill="#404141"/>
<path d="M17.3766 14.3503H9.51744C8.99484 14.3503 8.57274 14.7724 8.57274 15.3151V16.4407C8.59284 16.9633 9.03504 17.4055 9.55764 17.4055H10.1405V16.4407H9.55764V15.3352C9.55764 15.3352 9.69835 15.3352 9.87925 15.3352C10.8642 15.3352 11.6079 16.2598 11.6079 17.2447C11.6079 18.1291 10.8039 19.2346 9.47724 19.1542C8.29134 19.0738 7.64813 18.0286 7.64813 17.2447V7.65695C7.64813 7.23485 7.28633 6.87305 6.86423 6.87305H6.08032V7.85795H6.66323V17.2648C6.62303 19.1743 8.03003 20.1391 9.47724 20.1391L17.3967 20.1592C18.9846 20.1592 20.2911 18.8728 20.2911 17.2648C20.271 15.6568 18.9846 14.3503 17.3766 14.3503ZM19.2861 17.305C19.2459 18.3301 18.4017 19.1542 17.3766 19.1542L11.8692 19.1341C12.3114 18.6316 12.5727 17.9683 12.5727 17.2447C12.5727 16.1191 11.9094 15.3352 11.9094 15.3352H17.3967C18.4419 15.3352 19.3062 16.1995 19.3062 17.2447L19.2861 17.305Z" fill="#404141"/>
<path d="M15.2665 8.01949H9.33691V7.05469H15.2665C15.5278 7.05469 15.7489 7.27579 15.7489 7.53709C15.7489 7.79839 15.5479 8.01949 15.2665 8.01949Z" fill="#404141"/>
<path d="M15.2665 12.6451H9.33691V11.6602H15.2665C15.5278 11.6602 15.7489 11.8813 15.7489 12.1426C15.7489 12.424 15.5479 12.6451 15.2665 12.6451Z" fill="#404141"/>
<path d="M16.3117 10.3345H9.33691V9.34961H16.3117C16.573 9.34961 16.7941 9.57071 16.7941 9.83201C16.7941 10.1134 16.573 10.3345 16.3117 10.3345Z" fill="#404141"/>
</svg>
