<svg width="24" height="24" viewBox="0 0 24 24" fill="none" xmlns="http://www.w3.org/2000/svg">
<mask id="mask0_4741_36153" style="mask-type:alpha" maskUnits="userSpaceOnUse" x="18" y="5" width="3" height="5">
<path d="M18.3067 5.03979H20.9316V9.67929H18.3067V5.03979Z" fill="black"/>
</mask>
<g mask="url(#mask0_4741_36153)">
<path d="M20.6223 5.03979H16.6015C16.4307 5.03979 16.2922 5.17827 16.2922 5.34909V9.36996C16.2922 9.54079 16.4307 9.67926 16.6015 9.67926H20.6223C20.7931 9.67926 20.9316 9.54079 20.9316 9.36996V5.34909C20.9316 5.17827 20.7931 5.03979 20.6223 5.03979Z" fill="#636F86"/>
</g>
<mask id="mask1_4741_36153" style="mask-type:alpha" maskUnits="userSpaceOnUse" x="18" y="14" width="3" height="5">
<path d="M18.306 14.3098H20.9309V18.9493H18.306V14.3098Z" fill="black"/>
</mask>
<g mask="url(#mask1_4741_36153)">
<path d="M20.6235 14.3098H16.6028C16.4319 14.3098 16.2935 14.4483 16.2935 14.6191V18.64C16.2935 18.8108 16.4319 18.9493 16.6028 18.9493H20.6235C20.7943 18.9493 20.9328 18.8108 20.9328 18.64V14.6191C20.9328 14.4483 20.7943 14.3098 20.6235 14.3098Z" fill="#636F86"/>
</g>
<path d="M12.0298 9.69385H8.02804C7.85803 9.69385 7.72021 9.83067 7.72021 9.99945V13.9727C7.72021 14.1415 7.85803 14.2783 8.02804 14.2783H12.0298C12.1998 14.2783 12.3376 14.1415 12.3376 13.9727V9.99945C12.3376 9.83067 12.1998 9.69385 12.0298 9.69385Z" fill="#8E9BB2"/>
<path d="M7.39842 5.03979H3.37765C3.20683 5.03979 3.06836 5.17827 3.06836 5.34909V9.36998C3.06836 9.54077 3.20683 9.67925 3.37765 9.67925H7.39842C7.56924 9.67925 7.70772 9.54077 7.70772 9.36998V5.34909C7.70772 5.17827 7.56924 5.03979 7.39842 5.03979Z" fill="#8E9BB2"/>
<path d="M16.6719 5.03979H12.6511C12.4803 5.03979 12.3418 5.17827 12.3418 5.34909V9.36998C12.3418 9.54077 12.4803 9.67925 12.6511 9.67925H16.6719C16.8427 9.67925 16.9812 9.54077 16.9812 9.36998V5.34909C16.9812 5.17827 16.8427 5.03979 16.6719 5.03979Z" fill="#8E9BB2"/>
<path d="M7.39844 14.3208H3.37765C3.20683 14.3208 3.06836 14.4593 3.06836 14.6301V18.651C3.06836 18.8218 3.20683 18.9603 3.37765 18.9603H7.39844C7.56924 18.9603 7.70772 18.8218 7.70772 18.651V14.6301C7.70772 14.4593 7.56924 14.3208 7.39844 14.3208Z" fill="#8E9BB2"/>
<path d="M16.6716 14.3208H12.6508C12.48 14.3208 12.3416 14.4593 12.3416 14.6301V18.651C12.3416 18.8218 12.48 18.9603 12.6508 18.9603H16.6716C16.8424 18.9603 16.9809 18.8218 16.9809 18.651V14.6301C16.9809 14.4593 16.8424 14.3208 16.6716 14.3208Z" fill="#8E9BB2"/>
</svg>
