<svg width="24" height="24" viewBox="0 0 24 24" fill="none" xmlns="http://www.w3.org/2000/svg">
<path d="M21 12C21 16.9706 16.9706 21 12 21C7.02944 21 3 16.9706 3 12C3 7.02944 7.02944 3 12 3C16.9706 3 21 7.02944 21 12Z" fill="#6C6D6D"/>
<path d="M15.5137 5.62997C14.4722 5.05425 13.2744 4.72656 12 4.72656C7.98274 4.72656 4.72607 7.98323 4.72607 12.0005C4.72607 16.0178 7.98274 19.2745 12 19.2745C15.1287 19.2745 17.7959 17.2993 18.8229 14.5279" stroke="black" stroke-width="0.369863"/>
<path d="M16.1975 7.69015L16.0563 7.73534L16.0697 7.88302L16.1314 8.56111L16.1488 8.75316L16.34 8.72767C16.4905 8.70761 16.739 8.68032 16.9916 8.66419C17.2485 8.64778 17.4936 8.64408 17.6456 8.66579C17.7742 8.68417 17.8886 8.78618 17.9217 8.95707C17.9544 9.12642 17.9056 9.3779 17.6575 9.65353C17.2173 10.1427 16.4518 10.9205 16.1231 11.2492L16.069 11.3034V11.38V12.1813V12.3663H16.2539H19.0895H19.2745V12.1813V11.38V11.195H19.0895H17.7944C17.9057 11.0936 18.0239 10.9825 18.14 10.8694C18.4023 10.6137 18.6652 10.336 18.8095 10.1299C19.0437 9.7953 19.212 9.34409 19.2205 8.90236C19.2291 8.45576 19.0725 8.00254 18.6373 7.7124C18.2881 7.47962 17.7935 7.44282 17.3527 7.47217C16.9033 7.50209 16.4662 7.60419 16.1975 7.69015Z" fill="#EFEFEF" stroke="black" stroke-width="0.369863"/>
<mask id="path-7-outside-1_5850_168087" maskUnits="userSpaceOnUse" x="6.68506" y="6.5625" width="9" height="11" fill="black">
<rect fill="white" x="6.68506" y="6.5625" width="9" height="11"/>
<path fill-rule="evenodd" clip-rule="evenodd" d="M13.3059 11.8358C13.3213 11.8259 13.327 11.8244 13.3326 11.823C13.3375 11.8188 13.3441 11.8156 13.3508 11.8124C13.3575 11.8092 13.3641 11.806 13.369 11.8017C13.7447 11.5863 13.9743 11.2719 14.0294 10.842C14.0477 10.6829 14.0419 10.524 14.0235 10.3625C14.008 10.212 13.9685 10.0619 13.9024 9.92447C13.7772 9.65381 13.5767 9.46192 13.3174 9.32078C13.1063 9.20288 12.8773 9.13115 12.6373 9.08601C12.3958 9.03531 12.1475 9.0042 11.9035 8.98977C11.8656 8.98724 11.8473 8.98602 11.8385 8.97634C11.8304 8.96732 11.8306 8.95096 11.831 8.91935L11.8307 8.4384C11.8315 8.30456 11.8313 8.17248 11.8312 8.0404C11.831 7.90831 11.8308 7.77621 11.8316 7.64238C11.8339 7.58241 11.8339 7.58241 11.7676 7.58164C11.6351 7.5801 11.5026 7.57856 11.3687 7.57146L10.9881 7.5625C10.9641 7.56273 10.9529 7.56562 10.9545 7.59488C10.956 7.60044 10.9557 7.60498 10.9554 7.60951C10.9551 7.61404 10.9548 7.61858 10.9562 7.62414C10.9574 7.74263 10.9595 7.85936 10.9617 7.97609C10.9638 8.09282 10.966 8.20956 10.9671 8.32804L10.9679 8.42275C10.9692 8.57929 10.9705 8.7331 10.9766 8.88977C10.9761 8.91068 10.9759 8.92114 10.9705 8.92624C10.965 8.93135 10.9545 8.9311 10.9333 8.9306L10.5952 8.94633C10.548 8.94957 10.5019 8.95105 10.4558 8.95253C10.4096 8.95401 10.3635 8.95549 10.3163 8.95872C10.2951 8.95822 10.2846 8.95798 10.2794 8.95262C10.2742 8.94727 10.2745 8.93681 10.275 8.91589C10.2743 8.91311 10.2746 8.90858 10.2749 8.90405C10.2752 8.89951 10.2755 8.89498 10.2748 8.8922C10.2757 8.69005 10.2776 8.48615 10.2796 8.28225C10.2816 8.07834 10.2835 7.87444 10.2844 7.67229C10.2845 7.66539 10.2847 7.65902 10.2848 7.65314C10.2856 7.61349 10.286 7.59635 10.2776 7.58879C10.2711 7.58304 10.2596 7.58285 10.2394 7.58251C10.2289 7.58234 10.2161 7.58212 10.2004 7.58108L9.49856 7.58351C9.45064 7.58396 9.45064 7.58396 9.45109 7.63136C9.4476 7.70945 9.44973 7.7861 9.45186 7.86275C9.44959 8.21966 9.44878 8.58213 9.45213 8.93759C9.45258 8.98499 9.45258 8.98499 9.4005 8.99245C9.14552 9.00461 8.8947 9.00976 8.64242 9.00935C8.47374 9.00855 8.30555 9.00956 8.13623 9.01059C8.00985 9.01136 7.88284 9.01212 7.75454 9.01214C7.69391 9.00993 7.69391 9.00993 7.6929 9.05176C7.6907 9.19188 7.6899 9.33165 7.68911 9.47141C7.68831 9.61117 7.68751 9.75094 7.68531 9.89106C7.68481 9.91197 7.68455 9.92243 7.68971 9.92779C7.69487 9.93314 7.70544 9.93339 7.72659 9.93389C7.83513 9.93565 7.9422 9.93186 8.04928 9.92806C8.10636 9.92822 8.16167 9.92735 8.21698 9.92648C8.27229 9.92561 8.3276 9.92474 8.38468 9.9249C8.64967 9.92798 8.79835 10.151 8.80014 10.3406C8.80412 10.5385 8.80633 10.7354 8.80854 10.9323C8.81075 11.1292 8.81296 11.3261 8.81694 11.524C8.8244 11.9407 8.83044 12.3578 8.83649 12.7749C8.84254 13.1921 8.84859 13.6092 8.85604 14.026C8.85618 14.0408 8.85687 14.0554 8.85754 14.0698C8.85904 14.1018 8.86049 14.1328 8.85592 14.1626C8.83893 14.3036 8.71734 14.4121 8.56235 14.4163C8.4266 14.4224 8.29215 14.4225 8.15859 14.4226C8.09953 14.4226 8.0405 14.4226 7.98175 14.4232C7.90988 14.4263 7.90965 14.4287 7.90582 14.469C7.90522 14.4753 7.90453 14.4825 7.90346 14.4908C7.88343 14.6088 7.86481 14.7265 7.84619 14.8441C7.82757 14.9617 7.80895 15.0793 7.78892 15.1973C7.78155 15.2378 7.77455 15.2797 7.76754 15.3216C7.76054 15.3635 7.75353 15.4054 7.74616 15.4459C7.77011 15.4456 7.78844 15.4469 7.80677 15.4481C7.83765 15.4488 7.86836 15.4496 7.89892 15.4504C8.03579 15.4538 8.17011 15.4572 8.30719 15.4559C8.40722 15.456 8.50782 15.4582 8.60871 15.4605C8.78644 15.4645 8.96507 15.4685 9.14299 15.4606C9.23736 15.4541 9.33319 15.4532 9.43048 15.4579C9.48548 15.4615 9.48548 15.4615 9.48739 15.5145C9.48801 15.5169 9.48837 15.5182 9.48826 15.5195C9.4881 15.5213 9.48708 15.523 9.48469 15.5271L9.48866 16.8444C9.49057 16.8974 9.49057 16.8974 9.53848 16.8969C9.55767 16.8975 9.57667 16.8982 9.59553 16.8988C9.67783 16.9016 9.75761 16.9044 9.84014 16.9025C9.92459 16.9044 10.0104 16.9061 10.0963 16.9077L10.0971 16.9077C10.183 16.9093 10.2688 16.911 10.3533 16.913C10.3601 16.8934 10.3614 16.8752 10.3626 16.8571C10.3612 16.5546 10.3612 16.2577 10.3653 15.9537C10.3669 15.8227 10.3685 15.6916 10.3645 15.562L10.3644 15.5583C10.364 15.5143 10.3639 15.5088 10.4146 15.5016C10.4407 15.4978 10.4657 15.4959 10.4907 15.4939C10.5157 15.4919 10.5407 15.4899 10.5667 15.4862C10.673 15.4794 10.7781 15.4786 10.8822 15.4779C10.9284 15.4775 10.9745 15.4772 11.0204 15.4763C11.0627 15.4773 11.0627 15.4773 11.0632 15.5247C11.0618 15.531 11.0622 15.5383 11.0627 15.5457C11.0631 15.553 11.0635 15.5603 11.0622 15.5666C11.0634 15.7771 11.0629 15.9865 11.0625 16.196C11.062 16.4055 11.0615 16.6149 11.0628 16.8254C11.0606 16.8836 11.0658 16.884 11.1164 16.8873L11.1211 16.8876C11.243 16.8948 11.3662 16.9016 11.4894 16.9085L11.4904 16.9085C11.6136 16.9154 11.7368 16.9222 11.8586 16.9294L11.8651 16.9299C11.9143 16.9332 11.9346 16.9345 11.9425 16.9254C11.948 16.919 11.9474 16.9074 11.9464 16.8876C11.9458 16.8769 11.9451 16.8638 11.9452 16.8478C11.9488 16.6332 11.9521 16.4172 11.9553 16.2013L11.9553 16.2008C11.9586 15.9847 11.9618 15.7686 11.9654 15.5539C11.9677 15.4939 11.9677 15.4939 12.0212 15.492C12.3366 15.4584 12.6562 15.4177 12.9669 15.3437C13.2031 15.2829 13.4364 15.211 13.6538 15.1016C14.0508 14.8985 14.3312 14.5948 14.4724 14.1724C14.5395 13.971 14.5671 13.7561 14.5834 13.544C14.5978 13.279 14.5898 13.0198 14.5042 12.7627C14.4403 12.5654 14.3302 12.3977 14.178 12.2528C13.9975 12.0914 13.7893 11.9846 13.5547 11.9143C13.467 11.8775 13.3893 11.8559 13.3059 11.8358ZM11.9898 14.4368C11.7311 14.5034 11.4678 14.5295 11.2016 14.5446C11.0199 14.5557 10.8357 14.5574 10.6516 14.5592C10.5902 14.5598 10.5288 14.5603 10.4675 14.5613C10.4444 14.5615 10.4324 14.5616 10.426 14.5558C10.4191 14.5495 10.4186 14.5362 10.4176 14.5088C10.4132 14.2635 10.4084 14.0168 10.4036 13.7701C10.3988 13.5234 10.394 13.2766 10.3896 13.0313L10.3884 12.9831C10.3862 12.8974 10.3839 12.8089 10.3867 12.7232C10.3862 12.6759 10.3919 12.6744 10.4271 12.6713C10.4937 12.6697 10.5601 12.6677 10.6266 12.6658C10.941 12.6566 11.2543 12.6475 11.5687 12.6745C11.7902 12.6947 12.0033 12.7289 12.214 12.7994C12.3186 12.8319 12.4163 12.884 12.5099 12.943C12.948 13.2163 12.9671 13.9062 12.5247 14.2101C12.386 14.2992 12.2204 14.3775 11.9898 14.4368ZM10.6677 10.0813C10.5754 10.0815 10.4826 10.0817 10.3889 10.0802C10.3862 10.0927 10.3835 10.1053 10.3864 10.1164C10.3966 10.5746 10.4019 11.0299 10.4072 11.488C10.4082 11.5789 10.4093 11.67 10.4104 11.7612C10.4113 11.7887 10.4118 11.8019 10.4187 11.8082C10.4252 11.814 10.4371 11.8139 10.4602 11.8137C10.4926 11.8137 10.525 11.8138 10.5575 11.8138C10.8254 11.8143 11.0939 11.8148 11.3576 11.7788C11.5716 11.7475 11.7826 11.7051 11.9748 11.614C12.1137 11.5486 12.2355 11.4638 12.3217 11.3347C12.5204 11.0401 12.4587 10.6225 12.1817 10.3909C12.0879 10.3081 11.9775 10.2534 11.8587 10.2127C11.6932 10.1543 11.5238 10.1266 11.3503 10.1059C11.1212 10.0803 10.896 10.0808 10.6677 10.0813Z"/>
</mask>
<path fill-rule="evenodd" clip-rule="evenodd" d="M13.3059 11.8358C13.3213 11.8259 13.327 11.8244 13.3326 11.823C13.3375 11.8188 13.3441 11.8156 13.3508 11.8124C13.3575 11.8092 13.3641 11.806 13.369 11.8017C13.7447 11.5863 13.9743 11.2719 14.0294 10.842C14.0477 10.6829 14.0419 10.524 14.0235 10.3625C14.008 10.212 13.9685 10.0619 13.9024 9.92447C13.7772 9.65381 13.5767 9.46192 13.3174 9.32078C13.1063 9.20288 12.8773 9.13115 12.6373 9.08601C12.3958 9.03531 12.1475 9.0042 11.9035 8.98977C11.8656 8.98724 11.8473 8.98602 11.8385 8.97634C11.8304 8.96732 11.8306 8.95096 11.831 8.91935L11.8307 8.4384C11.8315 8.30456 11.8313 8.17248 11.8312 8.0404C11.831 7.90831 11.8308 7.77621 11.8316 7.64238C11.8339 7.58241 11.8339 7.58241 11.7676 7.58164C11.6351 7.5801 11.5026 7.57856 11.3687 7.57146L10.9881 7.5625C10.9641 7.56273 10.9529 7.56562 10.9545 7.59488C10.956 7.60044 10.9557 7.60498 10.9554 7.60951C10.9551 7.61404 10.9548 7.61858 10.9562 7.62414C10.9574 7.74263 10.9595 7.85936 10.9617 7.97609C10.9638 8.09282 10.966 8.20956 10.9671 8.32804L10.9679 8.42275C10.9692 8.57929 10.9705 8.7331 10.9766 8.88977C10.9761 8.91068 10.9759 8.92114 10.9705 8.92624C10.965 8.93135 10.9545 8.9311 10.9333 8.9306L10.5952 8.94633C10.548 8.94957 10.5019 8.95105 10.4558 8.95253C10.4096 8.95401 10.3635 8.95549 10.3163 8.95872C10.2951 8.95822 10.2846 8.95798 10.2794 8.95262C10.2742 8.94727 10.2745 8.93681 10.275 8.91589C10.2743 8.91311 10.2746 8.90858 10.2749 8.90405C10.2752 8.89951 10.2755 8.89498 10.2748 8.8922C10.2757 8.69005 10.2776 8.48615 10.2796 8.28225C10.2816 8.07834 10.2835 7.87444 10.2844 7.67229C10.2845 7.66539 10.2847 7.65902 10.2848 7.65314C10.2856 7.61349 10.286 7.59635 10.2776 7.58879C10.2711 7.58304 10.2596 7.58285 10.2394 7.58251C10.2289 7.58234 10.2161 7.58212 10.2004 7.58108L9.49856 7.58351C9.45064 7.58396 9.45064 7.58396 9.45109 7.63136C9.4476 7.70945 9.44973 7.7861 9.45186 7.86275C9.44959 8.21966 9.44878 8.58213 9.45213 8.93759C9.45258 8.98499 9.45258 8.98499 9.4005 8.99245C9.14552 9.00461 8.8947 9.00976 8.64242 9.00935C8.47374 9.00855 8.30555 9.00956 8.13623 9.01059C8.00985 9.01136 7.88284 9.01212 7.75454 9.01214C7.69391 9.00993 7.69391 9.00993 7.6929 9.05176C7.6907 9.19188 7.6899 9.33165 7.68911 9.47141C7.68831 9.61117 7.68751 9.75094 7.68531 9.89106C7.68481 9.91197 7.68455 9.92243 7.68971 9.92779C7.69487 9.93314 7.70544 9.93339 7.72659 9.93389C7.83513 9.93565 7.9422 9.93186 8.04928 9.92806C8.10636 9.92822 8.16167 9.92735 8.21698 9.92648C8.27229 9.92561 8.3276 9.92474 8.38468 9.9249C8.64967 9.92798 8.79835 10.151 8.80014 10.3406C8.80412 10.5385 8.80633 10.7354 8.80854 10.9323C8.81075 11.1292 8.81296 11.3261 8.81694 11.524C8.8244 11.9407 8.83044 12.3578 8.83649 12.7749C8.84254 13.1921 8.84859 13.6092 8.85604 14.026C8.85618 14.0408 8.85687 14.0554 8.85754 14.0698C8.85904 14.1018 8.86049 14.1328 8.85592 14.1626C8.83893 14.3036 8.71734 14.4121 8.56235 14.4163C8.4266 14.4224 8.29215 14.4225 8.15859 14.4226C8.09953 14.4226 8.0405 14.4226 7.98175 14.4232C7.90988 14.4263 7.90965 14.4287 7.90582 14.469C7.90522 14.4753 7.90453 14.4825 7.90346 14.4908C7.88343 14.6088 7.86481 14.7265 7.84619 14.8441C7.82757 14.9617 7.80895 15.0793 7.78892 15.1973C7.78155 15.2378 7.77455 15.2797 7.76754 15.3216C7.76054 15.3635 7.75353 15.4054 7.74616 15.4459C7.77011 15.4456 7.78844 15.4469 7.80677 15.4481C7.83765 15.4488 7.86836 15.4496 7.89892 15.4504C8.03579 15.4538 8.17011 15.4572 8.30719 15.4559C8.40722 15.456 8.50782 15.4582 8.60871 15.4605C8.78644 15.4645 8.96507 15.4685 9.14299 15.4606C9.23736 15.4541 9.33319 15.4532 9.43048 15.4579C9.48548 15.4615 9.48548 15.4615 9.48739 15.5145C9.48801 15.5169 9.48837 15.5182 9.48826 15.5195C9.4881 15.5213 9.48708 15.523 9.48469 15.5271L9.48866 16.8444C9.49057 16.8974 9.49057 16.8974 9.53848 16.8969C9.55767 16.8975 9.57667 16.8982 9.59553 16.8988C9.67783 16.9016 9.75761 16.9044 9.84014 16.9025C9.92459 16.9044 10.0104 16.9061 10.0963 16.9077L10.0971 16.9077C10.183 16.9093 10.2688 16.911 10.3533 16.913C10.3601 16.8934 10.3614 16.8752 10.3626 16.8571C10.3612 16.5546 10.3612 16.2577 10.3653 15.9537C10.3669 15.8227 10.3685 15.6916 10.3645 15.562L10.3644 15.5583C10.364 15.5143 10.3639 15.5088 10.4146 15.5016C10.4407 15.4978 10.4657 15.4959 10.4907 15.4939C10.5157 15.4919 10.5407 15.4899 10.5667 15.4862C10.673 15.4794 10.7781 15.4786 10.8822 15.4779C10.9284 15.4775 10.9745 15.4772 11.0204 15.4763C11.0627 15.4773 11.0627 15.4773 11.0632 15.5247C11.0618 15.531 11.0622 15.5383 11.0627 15.5457C11.0631 15.553 11.0635 15.5603 11.0622 15.5666C11.0634 15.7771 11.0629 15.9865 11.0625 16.196C11.062 16.4055 11.0615 16.6149 11.0628 16.8254C11.0606 16.8836 11.0658 16.884 11.1164 16.8873L11.1211 16.8876C11.243 16.8948 11.3662 16.9016 11.4894 16.9085L11.4904 16.9085C11.6136 16.9154 11.7368 16.9222 11.8586 16.9294L11.8651 16.9299C11.9143 16.9332 11.9346 16.9345 11.9425 16.9254C11.948 16.919 11.9474 16.9074 11.9464 16.8876C11.9458 16.8769 11.9451 16.8638 11.9452 16.8478C11.9488 16.6332 11.9521 16.4172 11.9553 16.2013L11.9553 16.2008C11.9586 15.9847 11.9618 15.7686 11.9654 15.5539C11.9677 15.4939 11.9677 15.4939 12.0212 15.492C12.3366 15.4584 12.6562 15.4177 12.9669 15.3437C13.2031 15.2829 13.4364 15.211 13.6538 15.1016C14.0508 14.8985 14.3312 14.5948 14.4724 14.1724C14.5395 13.971 14.5671 13.7561 14.5834 13.544C14.5978 13.279 14.5898 13.0198 14.5042 12.7627C14.4403 12.5654 14.3302 12.3977 14.178 12.2528C13.9975 12.0914 13.7893 11.9846 13.5547 11.9143C13.467 11.8775 13.3893 11.8559 13.3059 11.8358ZM11.9898 14.4368C11.7311 14.5034 11.4678 14.5295 11.2016 14.5446C11.0199 14.5557 10.8357 14.5574 10.6516 14.5592C10.5902 14.5598 10.5288 14.5603 10.4675 14.5613C10.4444 14.5615 10.4324 14.5616 10.426 14.5558C10.4191 14.5495 10.4186 14.5362 10.4176 14.5088C10.4132 14.2635 10.4084 14.0168 10.4036 13.7701C10.3988 13.5234 10.394 13.2766 10.3896 13.0313L10.3884 12.9831C10.3862 12.8974 10.3839 12.8089 10.3867 12.7232C10.3862 12.6759 10.3919 12.6744 10.4271 12.6713C10.4937 12.6697 10.5601 12.6677 10.6266 12.6658C10.941 12.6566 11.2543 12.6475 11.5687 12.6745C11.7902 12.6947 12.0033 12.7289 12.214 12.7994C12.3186 12.8319 12.4163 12.884 12.5099 12.943C12.948 13.2163 12.9671 13.9062 12.5247 14.2101C12.386 14.2992 12.2204 14.3775 11.9898 14.4368ZM10.6677 10.0813C10.5754 10.0815 10.4826 10.0817 10.3889 10.0802C10.3862 10.0927 10.3835 10.1053 10.3864 10.1164C10.3966 10.5746 10.4019 11.0299 10.4072 11.488C10.4082 11.5789 10.4093 11.67 10.4104 11.7612C10.4113 11.7887 10.4118 11.8019 10.4187 11.8082C10.4252 11.814 10.4371 11.8139 10.4602 11.8137C10.4926 11.8137 10.525 11.8138 10.5575 11.8138C10.8254 11.8143 11.0939 11.8148 11.3576 11.7788C11.5716 11.7475 11.7826 11.7051 11.9748 11.614C12.1137 11.5486 12.2355 11.4638 12.3217 11.3347C12.5204 11.0401 12.4587 10.6225 12.1817 10.3909C12.0879 10.3081 11.9775 10.2534 11.8587 10.2127C11.6932 10.1543 11.5238 10.1266 11.3503 10.1059C11.1212 10.0803 10.896 10.0808 10.6677 10.0813Z" fill="#EFEFEF"/>
<path fill-rule="evenodd" clip-rule="evenodd" d="M13.3059 11.8358C13.3213 11.8259 13.327 11.8244 13.3326 11.823C13.3375 11.8188 13.3441 11.8156 13.3508 11.8124C13.3575 11.8092 13.3641 11.806 13.369 11.8017C13.7447 11.5863 13.9743 11.2719 14.0294 10.842C14.0477 10.6829 14.0419 10.524 14.0235 10.3625C14.008 10.212 13.9685 10.0619 13.9024 9.92447C13.7772 9.65381 13.5767 9.46192 13.3174 9.32078C13.1063 9.20288 12.8773 9.13115 12.6373 9.08601C12.3958 9.03531 12.1475 9.0042 11.9035 8.98977C11.8656 8.98724 11.8473 8.98602 11.8385 8.97634C11.8304 8.96732 11.8306 8.95096 11.831 8.91935L11.8307 8.4384C11.8315 8.30456 11.8313 8.17248 11.8312 8.0404C11.831 7.90831 11.8308 7.77621 11.8316 7.64238C11.8339 7.58241 11.8339 7.58241 11.7676 7.58164C11.6351 7.5801 11.5026 7.57856 11.3687 7.57146L10.9881 7.5625C10.9641 7.56273 10.9529 7.56562 10.9545 7.59488C10.956 7.60044 10.9557 7.60498 10.9554 7.60951C10.9551 7.61404 10.9548 7.61858 10.9562 7.62414C10.9574 7.74263 10.9595 7.85936 10.9617 7.97609C10.9638 8.09282 10.966 8.20956 10.9671 8.32804L10.9679 8.42275C10.9692 8.57929 10.9705 8.7331 10.9766 8.88977C10.9761 8.91068 10.9759 8.92114 10.9705 8.92624C10.965 8.93135 10.9545 8.9311 10.9333 8.9306L10.5952 8.94633C10.548 8.94957 10.5019 8.95105 10.4558 8.95253C10.4096 8.95401 10.3635 8.95549 10.3163 8.95872C10.2951 8.95822 10.2846 8.95798 10.2794 8.95262C10.2742 8.94727 10.2745 8.93681 10.275 8.91589C10.2743 8.91311 10.2746 8.90858 10.2749 8.90405C10.2752 8.89951 10.2755 8.89498 10.2748 8.8922C10.2757 8.69005 10.2776 8.48615 10.2796 8.28225C10.2816 8.07834 10.2835 7.87444 10.2844 7.67229C10.2845 7.66539 10.2847 7.65902 10.2848 7.65314C10.2856 7.61349 10.286 7.59635 10.2776 7.58879C10.2711 7.58304 10.2596 7.58285 10.2394 7.58251C10.2289 7.58234 10.2161 7.58212 10.2004 7.58108L9.49856 7.58351C9.45064 7.58396 9.45064 7.58396 9.45109 7.63136C9.4476 7.70945 9.44973 7.7861 9.45186 7.86275C9.44959 8.21966 9.44878 8.58213 9.45213 8.93759C9.45258 8.98499 9.45258 8.98499 9.4005 8.99245C9.14552 9.00461 8.8947 9.00976 8.64242 9.00935C8.47374 9.00855 8.30555 9.00956 8.13623 9.01059C8.00985 9.01136 7.88284 9.01212 7.75454 9.01214C7.69391 9.00993 7.69391 9.00993 7.6929 9.05176C7.6907 9.19188 7.6899 9.33165 7.68911 9.47141C7.68831 9.61117 7.68751 9.75094 7.68531 9.89106C7.68481 9.91197 7.68455 9.92243 7.68971 9.92779C7.69487 9.93314 7.70544 9.93339 7.72659 9.93389C7.83513 9.93565 7.9422 9.93186 8.04928 9.92806C8.10636 9.92822 8.16167 9.92735 8.21698 9.92648C8.27229 9.92561 8.3276 9.92474 8.38468 9.9249C8.64967 9.92798 8.79835 10.151 8.80014 10.3406C8.80412 10.5385 8.80633 10.7354 8.80854 10.9323C8.81075 11.1292 8.81296 11.3261 8.81694 11.524C8.8244 11.9407 8.83044 12.3578 8.83649 12.7749C8.84254 13.1921 8.84859 13.6092 8.85604 14.026C8.85618 14.0408 8.85687 14.0554 8.85754 14.0698C8.85904 14.1018 8.86049 14.1328 8.85592 14.1626C8.83893 14.3036 8.71734 14.4121 8.56235 14.4163C8.4266 14.4224 8.29215 14.4225 8.15859 14.4226C8.09953 14.4226 8.0405 14.4226 7.98175 14.4232C7.90988 14.4263 7.90965 14.4287 7.90582 14.469C7.90522 14.4753 7.90453 14.4825 7.90346 14.4908C7.88343 14.6088 7.86481 14.7265 7.84619 14.8441C7.82757 14.9617 7.80895 15.0793 7.78892 15.1973C7.78155 15.2378 7.77455 15.2797 7.76754 15.3216C7.76054 15.3635 7.75353 15.4054 7.74616 15.4459C7.77011 15.4456 7.78844 15.4469 7.80677 15.4481C7.83765 15.4488 7.86836 15.4496 7.89892 15.4504C8.03579 15.4538 8.17011 15.4572 8.30719 15.4559C8.40722 15.456 8.50782 15.4582 8.60871 15.4605C8.78644 15.4645 8.96507 15.4685 9.14299 15.4606C9.23736 15.4541 9.33319 15.4532 9.43048 15.4579C9.48548 15.4615 9.48548 15.4615 9.48739 15.5145C9.48801 15.5169 9.48837 15.5182 9.48826 15.5195C9.4881 15.5213 9.48708 15.523 9.48469 15.5271L9.48866 16.8444C9.49057 16.8974 9.49057 16.8974 9.53848 16.8969C9.55767 16.8975 9.57667 16.8982 9.59553 16.8988C9.67783 16.9016 9.75761 16.9044 9.84014 16.9025C9.92459 16.9044 10.0104 16.9061 10.0963 16.9077L10.0971 16.9077C10.183 16.9093 10.2688 16.911 10.3533 16.913C10.3601 16.8934 10.3614 16.8752 10.3626 16.8571C10.3612 16.5546 10.3612 16.2577 10.3653 15.9537C10.3669 15.8227 10.3685 15.6916 10.3645 15.562L10.3644 15.5583C10.364 15.5143 10.3639 15.5088 10.4146 15.5016C10.4407 15.4978 10.4657 15.4959 10.4907 15.4939C10.5157 15.4919 10.5407 15.4899 10.5667 15.4862C10.673 15.4794 10.7781 15.4786 10.8822 15.4779C10.9284 15.4775 10.9745 15.4772 11.0204 15.4763C11.0627 15.4773 11.0627 15.4773 11.0632 15.5247C11.0618 15.531 11.0622 15.5383 11.0627 15.5457C11.0631 15.553 11.0635 15.5603 11.0622 15.5666C11.0634 15.7771 11.0629 15.9865 11.0625 16.196C11.062 16.4055 11.0615 16.6149 11.0628 16.8254C11.0606 16.8836 11.0658 16.884 11.1164 16.8873L11.1211 16.8876C11.243 16.8948 11.3662 16.9016 11.4894 16.9085L11.4904 16.9085C11.6136 16.9154 11.7368 16.9222 11.8586 16.9294L11.8651 16.9299C11.9143 16.9332 11.9346 16.9345 11.9425 16.9254C11.948 16.919 11.9474 16.9074 11.9464 16.8876C11.9458 16.8769 11.9451 16.8638 11.9452 16.8478C11.9488 16.6332 11.9521 16.4172 11.9553 16.2013L11.9553 16.2008C11.9586 15.9847 11.9618 15.7686 11.9654 15.5539C11.9677 15.4939 11.9677 15.4939 12.0212 15.492C12.3366 15.4584 12.6562 15.4177 12.9669 15.3437C13.2031 15.2829 13.4364 15.211 13.6538 15.1016C14.0508 14.8985 14.3312 14.5948 14.4724 14.1724C14.5395 13.971 14.5671 13.7561 14.5834 13.544C14.5978 13.279 14.5898 13.0198 14.5042 12.7627C14.4403 12.5654 14.3302 12.3977 14.178 12.2528C13.9975 12.0914 13.7893 11.9846 13.5547 11.9143C13.467 11.8775 13.3893 11.8559 13.3059 11.8358ZM11.9898 14.4368C11.7311 14.5034 11.4678 14.5295 11.2016 14.5446C11.0199 14.5557 10.8357 14.5574 10.6516 14.5592C10.5902 14.5598 10.5288 14.5603 10.4675 14.5613C10.4444 14.5615 10.4324 14.5616 10.426 14.5558C10.4191 14.5495 10.4186 14.5362 10.4176 14.5088C10.4132 14.2635 10.4084 14.0168 10.4036 13.7701C10.3988 13.5234 10.394 13.2766 10.3896 13.0313L10.3884 12.9831C10.3862 12.8974 10.3839 12.8089 10.3867 12.7232C10.3862 12.6759 10.3919 12.6744 10.4271 12.6713C10.4937 12.6697 10.5601 12.6677 10.6266 12.6658C10.941 12.6566 11.2543 12.6475 11.5687 12.6745C11.7902 12.6947 12.0033 12.7289 12.214 12.7994C12.3186 12.8319 12.4163 12.884 12.5099 12.943C12.948 13.2163 12.9671 13.9062 12.5247 14.2101C12.386 14.2992 12.2204 14.3775 11.9898 14.4368ZM10.6677 10.0813C10.5754 10.0815 10.4826 10.0817 10.3889 10.0802C10.3862 10.0927 10.3835 10.1053 10.3864 10.1164C10.3966 10.5746 10.4019 11.0299 10.4072 11.488C10.4082 11.5789 10.4093 11.67 10.4104 11.7612C10.4113 11.7887 10.4118 11.8019 10.4187 11.8082C10.4252 11.814 10.4371 11.8139 10.4602 11.8137C10.4926 11.8137 10.525 11.8138 10.5575 11.8138C10.8254 11.8143 11.0939 11.8148 11.3576 11.7788C11.5716 11.7475 11.7826 11.7051 11.9748 11.614C12.1137 11.5486 12.2355 11.4638 12.3217 11.3347C12.5204 11.0401 12.4587 10.6225 12.1817 10.3909C12.0879 10.3081 11.9775 10.2534 11.8587 10.2127C11.6932 10.1543 11.5238 10.1266 11.3503 10.1059C11.1212 10.0803 10.896 10.0808 10.6677 10.0813Z" stroke="#030303" stroke-width="0.739726" mask="url(#path-7-outside-1_5850_168087)"/>
</svg>
