<svg width="24" height="24" viewBox="0 0 24 24" fill="none" xmlns="http://www.w3.org/2000/svg">
<path d="M22.0563 11.3159C21.6785 5.76195 16.8699 1.56577 11.3159 1.94356C8.54913 2.13174 6.11981 3.41995 4.42455 5.35165L4.42457 5.35164L4.41983 5.34823C4.40841 5.36404 4.39774 5.37963 4.3864 5.39542C2.70247 7.33656 1.75538 9.91759 1.94354 12.684C1.96148 12.9475 1.9925 13.207 2.03 13.4641C2.03001 13.4642 2.03001 13.4642 2.03002 13.4643C2.03171 13.4759 2.03343 13.4875 2.03507 13.4991C2.06041 13.6688 2.08984 13.8369 2.12342 14.0035C2.12344 14.0036 2.12345 14.0037 2.12348 14.0037C2.12409 14.0068 2.12467 14.0098 2.12527 14.0128C2.15584 14.1637 2.1898 14.3132 2.22696 14.4614L2.22702 14.4617C2.22706 14.4618 2.22709 14.4619 2.22711 14.462C3.39124 19.1045 7.74093 22.3925 12.6839 22.0563C18.2379 21.6785 22.4341 16.8698 22.0563 11.3159H22.0563ZM19.8622 11.4651C19.9087 12.1489 19.8657 12.8184 19.7439 13.4625C19.7424 13.4588 19.7412 13.455 19.7397 13.4513V13.4513C19.0089 11.665 17.5634 10.3754 16.2922 9.66303C16.5495 6.63635 15.5227 5.36123 14.3606 5.15376C14.329 5.14767 14.2972 5.14248 14.2649 5.13848C13.3425 5.02018 12.499 5.67213 12.3809 6.59443C12.2626 7.51678 12.9145 8.36028 13.8368 8.47862C13.9173 8.4888 13.9969 8.49163 14.0757 8.49039C14.0808 8.59256 14.084 8.70109 14.0849 8.81459C13.0103 8.5483 12.0059 8.49618 11.09 8.57852C10.7476 8.60135 10.4048 8.64451 10.064 8.70819C10.1783 7.68617 10.5618 6.53874 11.3058 5.69904C12.0251 4.88732 13.0944 4.42206 14.2609 4.54146C14.4821 4.56408 14.718 4.61838 14.9305 4.68972C14.9402 4.693 14.9506 4.69577 14.9602 4.69913C14.9604 4.69894 14.9606 4.69868 14.9607 4.69849C17.6627 5.7992 19.6512 8.36351 19.8622 11.4651V11.4651ZM12.8365 13.0047C12.8358 13.0058 12.835 13.0069 12.8343 13.008C12.5938 13.3549 12.3077 13.697 11.9719 14.0278C11.4686 13.4922 11.0642 12.9155 10.7574 12.3188C10.7417 12.2868 10.7249 12.2564 10.7095 12.2239C10.709 12.2227 10.7084 12.2215 10.7078 12.2203C10.5276 11.8385 10.3744 11.4195 10.2557 10.9631C10.972 10.7946 11.6744 10.7326 12.3453 10.7653C12.3808 10.7677 12.4155 10.7684 12.4514 10.7713C12.4527 10.7714 12.454 10.7715 12.4553 10.7716C12.8755 10.8064 13.3142 10.883 13.768 11.0081C13.5558 11.7124 13.2583 12.3515 12.8948 12.9159C12.875 12.9455 12.857 12.9752 12.8365 13.0047V13.0047ZM9.39219 4.56487C9.39031 4.56729 9.38817 4.56959 9.38629 4.57201L9.38628 4.57203C8.20534 6.09723 7.81106 7.99274 7.8293 9.44955C5.07964 10.7401 4.48879 12.2668 4.89019 13.377C4.90071 13.4073 4.91213 13.4375 4.9248 13.4675C5.28353 14.3254 6.26988 14.7299 7.12769 14.3711C7.98562 14.0124 8.39012 13.026 8.03148 12.1681C8.00006 12.0933 7.96272 12.023 7.92224 11.9553C8.00914 11.8992 8.10246 11.8415 8.20156 11.7833C8.50822 12.8473 8.96191 13.7472 9.49119 14.4992C9.68183 14.7839 9.89013 15.0585 10.1152 15.3214C9.17283 15.7336 7.98715 15.9754 6.88769 15.7508C5.82508 15.5338 4.88749 14.8403 4.40763 13.7704C4.31667 13.5676 4.24574 13.3361 4.20129 13.1165C4.17394 12.9246 4.15102 12.7312 4.13766 12.5347C3.89205 8.92395 6.1322 5.70948 9.39219 4.56487V4.56487ZM12.5347 19.8622C10.3905 20.008 8.38624 19.2767 6.87144 17.9767C8.7828 18.2368 10.6215 17.6305 11.874 16.8863C14.3675 18.6237 15.9858 18.3722 16.7467 17.4693C16.7677 17.4449 16.7882 17.42 16.8078 17.394C17.3714 16.6544 17.2285 15.5979 16.4889 15.0345C15.7492 14.4708 14.6928 14.6137 14.1291 15.3532C14.0801 15.4178 14.0378 15.4853 13.9995 15.5542C13.908 15.5074 13.812 15.4557 13.7128 15.3994C14.4815 14.6015 15.0293 13.7571 15.4162 12.9222C15.5677 12.6142 15.7017 12.2958 15.8169 11.9688C16.6455 12.5788 17.4485 13.4851 17.8039 14.5501C18.1473 15.5789 18.0155 16.7376 17.3289 17.6881C17.1987 17.8683 17.0337 18.0455 16.8657 18.1938C16.8633 18.196 16.8609 18.1982 16.8585 18.2005C15.6571 19.1446 14.1708 19.7509 12.5347 19.8622V19.8622Z" fill="#B0B1B1"/>
<path style="mix-blend-mode:overlay" opacity="0.9" d="M14.3587 5.15758C14.3271 5.1515 14.2953 5.14631 14.263 5.1423C14.0998 5.12137 13.9393 5.12569 13.7846 5.15022C14.7489 5.6748 15.452 7.13643 15.0824 10.0196C14.9599 10.9745 14.676 11.8832 14.266 12.7171C13.9337 13.434 13.4817 14.1579 12.874 14.8534C13.1658 15.0723 13.4504 15.2555 13.7109 15.4032C14.4797 14.6053 15.0275 13.7609 15.4143 12.926C15.8244 12.0922 16.1083 11.1835 16.2307 10.2286C16.6708 6.79567 15.5904 5.37747 14.3587 5.15758V5.15758Z" fill="url(#paint0_radial_6199_178197)"/>
<g style="mix-blend-mode:overlay" opacity="0.8">
<path d="M15.0819 10.0178C15.4515 7.13465 14.7484 5.67302 13.7842 5.14844C13.7465 5.15441 13.7096 5.16243 13.6727 5.1709C14.6167 5.71358 15.296 7.17383 14.9314 10.0178C14.8089 10.9727 14.525 11.8814 14.115 12.7153C13.7937 13.4085 13.3593 14.108 12.7817 14.7823C12.8125 14.8061 12.843 14.8287 12.8735 14.8517C13.4812 14.1561 13.9332 13.4322 14.2655 12.7153C14.6755 11.8814 14.9594 10.9727 15.0819 10.0178V10.0178Z" fill="white"/>
</g>
<path style="mix-blend-mode:overlay" opacity="0.5" d="M11.4172 16.5612C11.3265 16.4922 11.2393 16.4199 11.1521 16.3477C9.72908 16.9414 7.75638 17.3136 5.79761 16.8591C6.11837 17.2679 6.47633 17.6455 6.86953 17.9829C8.78089 18.243 10.6196 17.6367 11.8721 16.8925C11.7234 16.7889 11.5721 16.6793 11.4172 16.5612V16.5612Z" fill="url(#paint1_radial_6199_178197)"/>
<path style="mix-blend-mode:overlay" opacity="0.6" d="M11.1519 16.3451C11.1083 16.309 11.0644 16.2732 11.0217 16.2363C9.58791 16.8093 7.60623 17.1518 5.65186 16.6648C5.69947 16.7294 5.7479 16.7934 5.7974 16.8565C7.75618 17.3111 9.72888 16.9388 11.1519 16.3451V16.3451Z" fill="url(#paint2_linear_6199_178197)"/>
<path style="mix-blend-mode:overlay" opacity="0.9" d="M4.88901 13.3772C4.89953 13.4076 4.91095 13.4377 4.92363 13.4677C4.98711 13.6195 5.07106 13.7563 5.16965 13.878C5.14181 12.7806 6.0561 11.441 8.73779 10.3195C9.62598 9.94805 10.5549 9.73958 11.4821 9.67777C12.2691 9.60701 13.122 9.63658 14.0282 9.81502C14.0718 9.45288 14.0882 9.11484 14.0859 8.81534C13.0105 8.54858 12.0053 8.49638 11.0889 8.57877C10.1617 8.64059 9.23278 8.84905 8.34458 9.22047C5.15158 10.5558 4.46359 12.2006 4.88901 13.3772L4.88901 13.3772Z" fill="url(#paint3_radial_6199_178197)"/>
<g style="mix-blend-mode:overlay" opacity="0.8">
<path d="M8.7377 10.3179C6.05601 11.4393 5.14172 12.779 5.16956 13.8764C5.19356 13.906 5.21898 13.934 5.24475 13.9617C5.24271 12.8728 6.16769 11.5544 8.81294 10.4482C9.70113 10.0768 10.6301 9.86829 11.5572 9.80647C12.3182 9.73806 13.1412 9.7646 14.0139 9.92758C14.0192 9.8891 14.0235 9.85133 14.0281 9.81341C13.1219 9.63497 12.269 9.6054 11.482 9.67615C10.5548 9.73797 9.62589 9.94644 8.7377 10.3179Z" fill="white"/>
</g>
<path style="mix-blend-mode:overlay" opacity="0.4" d="M16.2336 10.2237C16.2191 10.3367 16.2001 10.4484 16.1812 10.56C17.4068 11.4955 18.7156 13.0178 19.3013 14.9414C19.495 14.4592 19.643 13.9605 19.7386 13.4512C19.0082 11.6659 17.5638 10.3767 16.293 9.66406C16.2776 9.84463 16.2584 10.0305 16.2336 10.2237V10.2237Z" fill="url(#paint4_radial_6199_178197)"/>
<path style="mix-blend-mode:overlay" opacity="0.5" d="M16.1815 10.5625C16.172 10.6183 16.1629 10.6742 16.1523 10.7296C17.3655 11.6849 18.6529 13.2298 19.2083 15.1659C19.2405 15.0923 19.2717 15.0184 19.3016 14.9439C18.7159 13.0203 17.4072 11.498 16.1815 10.5625V10.5625Z" fill="url(#paint5_linear_6199_178197)"/>
<path style="mix-blend-mode:overlay" opacity="0.9" d="M16.7464 17.4677C16.7674 17.4434 16.7878 17.4184 16.8075 17.3924C16.9072 17.2615 16.9837 17.1204 17.0398 16.9742C16.1033 17.547 14.486 17.4251 12.1739 15.6634C11.4082 15.0799 10.7631 14.3796 10.246 13.6076C9.79125 12.9614 9.39042 12.208 9.09184 11.334C8.75641 11.4773 8.45547 11.6321 8.19727 11.7839C8.50393 12.8486 8.96132 13.7452 9.49089 14.4977C10.008 15.2697 10.653 15.9699 11.4188 16.5534C14.1717 18.651 15.9401 18.4244 16.7464 17.4677V17.4677Z" fill="url(#paint6_radial_6199_178197)"/>
<g style="mix-blend-mode:overlay" opacity="0.8">
<path d="M12.1739 15.6633C14.486 17.4249 16.1033 17.5469 17.0397 16.9741C17.0534 16.9385 17.0649 16.9025 17.076 16.8663C16.134 17.4125 14.5298 17.2707 12.2491 15.533C11.4834 14.9495 10.8383 14.2492 10.3212 13.4772C9.8815 12.8524 9.49299 12.1264 9.19777 11.2891C9.16183 11.3038 9.12693 11.3189 9.0918 11.3339C9.39038 12.2079 9.7912 12.9613 10.246 13.6075C10.7631 14.3795 11.4081 15.0798 12.1739 15.6633V15.6633Z" fill="white"/>
</g>
<path style="mix-blend-mode:overlay" opacity="0.3" d="M8.34308 9.21675C8.44819 9.17279 8.55439 9.13341 8.66058 9.09401C8.85791 7.56477 9.52188 5.67023 10.8949 4.20117C10.3805 4.27453 9.87453 4.39577 9.3857 4.56756C8.20474 6.09278 7.81049 7.98829 7.82873 9.44511C7.99279 9.36814 8.16339 9.29189 8.34308 9.21675V9.21675Z" fill="url(#paint7_radial_6199_178197)"/>
<path style="mix-blend-mode:overlay" opacity="0.4" d="M8.66064 9.09488C8.71371 9.0752 8.76664 9.05509 8.81996 9.03653C9.04063 7.50831 9.73484 5.62088 11.1339 4.17188C11.054 4.18078 10.9744 4.19072 10.895 4.20204C9.52194 5.6711 8.85798 7.56564 8.66064 9.09488V9.09488Z" fill="url(#paint8_linear_6199_178197)"/>
<path style="mix-blend-mode:multiply" opacity="0.4" d="M11.3148 1.94344C8.54808 2.13163 6.11876 3.41984 4.42351 5.35154C4.4107 5.36614 4.39797 5.38077 4.38525 5.39545L4.38535 5.39531C4.7154 5.72269 5.79403 6.36822 6.2312 6.63741C7.08957 5.71429 8.16865 4.99399 9.39114 4.56475C9.47654 4.45474 9.56503 4.3462 9.65876 4.2404C10.7974 2.95558 12.3523 2.27647 14.1557 2.27647C14.3565 2.27647 14.7653 2.30843 14.7741 2.30907C13.6807 1.99496 12.5155 1.86177 11.3148 1.94344Z" fill="url(#paint9_linear_6199_178197)"/>
<path style="mix-blend-mode:multiply" opacity="0.4" d="M12.5331 19.861C10.389 20.0068 8.38468 19.2755 6.86988 17.9755H6.86987L6.86986 17.9755C6.72886 17.9563 6.58755 17.9333 6.44601 17.9043C4.76401 17.5607 3.39845 16.5537 2.4967 14.9918C2.39633 14.818 2.30653 14.6408 2.22559 14.4609C3.38974 19.1034 7.73942 22.3913 12.6824 22.0551C12.7043 21.5461 12.5543 20.365 12.5331 19.861V19.861Z" fill="url(#paint10_linear_6199_178197)"/>
<path style="mix-blend-mode:multiply" opacity="0.4" d="M22.0547 11.3158C21.745 11.2841 20.2325 11.4035 19.8606 11.4651C19.9071 12.1488 19.8641 12.8183 19.7423 13.4624C19.7945 13.5906 19.844 13.7206 19.8885 13.8538C20.4319 15.4823 20.2425 17.1684 19.3408 18.7303C19.2423 18.9009 19.136 19.0643 19.023 19.2216C19.0209 19.2246 19.0184 19.228 19.0166 19.2305C19.0165 19.2306 19.0212 19.2266 19.0239 19.2242C21.0712 17.2323 22.2637 14.389 22.0547 11.3158V11.3158Z" fill="url(#paint11_linear_6199_178197)"/>
<path style="mix-blend-mode:multiply" opacity="0.5" d="M14.2597 4.54229C14.4808 4.56492 14.7168 4.61922 14.9292 4.69056C14.939 4.69383 14.9494 4.69661 14.959 4.69996C14.9591 4.69977 14.9593 4.69952 14.9595 4.69933C15.829 5.05355 16.624 5.56006 17.3103 6.18658C17.3118 6.18781 17.3133 6.18882 17.3147 6.19005C17.6455 5.81191 18.2824 5.39639 18.2824 5.39639C18.2824 5.39639 17.3072 4.39886 15.8157 4.08928C14.7716 3.87256 12.4165 3.66248 10.9312 6.19005C10.9312 6.19005 10.9371 6.18448 10.9457 6.17646C11.0556 6.01039 11.1724 5.84896 11.3046 5.69987C12.0238 4.88815 13.0932 4.4229 14.2597 4.54229V4.54229Z" fill="url(#paint12_linear_6199_178197)"/>
<path style="mix-blend-mode:multiply" opacity="0.5" d="M17.3273 17.685C17.1972 17.8652 17.0322 18.0424 16.8642 18.1907C16.8564 18.1975 16.8489 18.2051 16.8411 18.2118C16.8412 18.212 16.8413 18.2123 16.8414 18.2125C16.0999 18.7884 15.2638 19.2237 14.378 19.5048C14.3762 19.5054 14.3746 19.5062 14.3728 19.5069C14.5349 19.9824 14.5763 20.7417 14.5763 20.7417C14.5763 20.7417 15.9278 20.3959 16.9416 19.259C17.6514 18.4631 19.0109 16.5286 17.5646 13.9785C17.5646 13.9785 17.5665 13.9864 17.5691 13.998C17.6579 14.1762 17.7393 14.358 17.8024 14.547C18.1457 15.5758 18.014 16.7345 17.3273 17.685V17.685Z" fill="url(#paint13_linear_6199_178197)"/>
<path style="mix-blend-mode:multiply" opacity="0.5" d="M4.41029 13.7741C4.31932 13.5713 4.24835 13.3397 4.20392 13.1201C4.20188 13.11 4.1991 13.0996 4.19718 13.0896C4.19694 13.0896 4.19662 13.0895 4.19639 13.0895C4.06839 12.1594 4.10954 11.2176 4.30898 10.31C4.3093 10.3081 4.30944 10.3063 4.30976 10.3044C3.8169 10.2071 3.13862 9.86328 3.13862 9.86328C3.13862 9.86328 2.76233 11.2066 3.23997 12.653C3.57435 13.6657 4.56996 15.8103 7.50156 15.8328C7.50156 15.8328 7.49377 15.8305 7.48249 15.8269C7.28372 15.8148 7.08552 15.7944 6.89035 15.7545C5.82774 15.5374 4.89015 14.844 4.41029 13.7741V13.7741Z" fill="url(#paint14_linear_6199_178197)"/>
<path style="mix-blend-mode:multiply" opacity="0.6" d="M13.8348 8.47662C13.9153 8.4868 13.9948 8.48963 14.0737 8.48839C14.0737 8.48839 14.021 7.44105 13.8924 6.90369C13.7638 6.36633 13.5741 6.01048 13.3658 5.80907C13.2165 5.66479 12.7453 5.48509 12.3789 6.59244C12.2606 7.51478 12.9125 8.35828 13.8348 8.47662Z" fill="url(#paint15_linear_6199_178197)"/>
<path style="mix-blend-mode:multiply" opacity="0.5" d="M8.03048 12.1698C7.99906 12.095 7.96171 12.0247 7.92123 11.957C7.92123 11.957 7.04053 12.5263 6.63946 12.9064C6.2384 13.2864 6.02507 13.6286 5.95482 13.9097C5.9045 14.1112 5.98448 14.6091 7.12669 14.3728C7.98461 14.014 8.38912 13.0277 8.03048 12.1698V12.1698Z" fill="url(#paint16_linear_6199_178197)"/>
<path style="mix-blend-mode:multiply" opacity="0.6" d="M14.1286 15.3469C14.0796 15.4115 14.0374 15.479 13.999 15.5479C13.999 15.5479 14.9324 16.026 15.462 16.1833C15.9917 16.3406 16.3947 16.3543 16.6733 16.2745C16.8729 16.2174 17.2641 15.8992 16.4884 15.0281C15.7487 14.4645 14.6923 14.6074 14.1286 15.3469V15.3469Z" fill="url(#paint17_linear_6199_178197)"/>
<path style="mix-blend-mode:multiply" opacity="0.3" d="M13.7687 11.0137C13.5565 11.718 13.2591 12.357 12.8955 12.9214C12.8757 12.951 12.8577 12.9808 12.8373 13.0103C12.8365 13.0114 12.8358 13.0125 12.835 13.0136C12.5945 13.3605 12.3084 13.7025 11.9727 14.0333C12.2034 14.2789 12.453 14.5166 12.727 14.7421C13.0712 15.0137 13.4085 15.232 13.7135 15.405C14.4823 14.607 15.0301 13.7626 15.4169 12.9278C15.5684 12.6197 15.7024 12.3014 15.8177 11.9743C15.463 11.7133 15.1038 11.5055 14.7727 11.3644C14.4304 11.2184 14.0958 11.1038 13.7687 11.0137V11.0137Z" fill="url(#paint18_linear_6199_178197)"/>
<path style="mix-blend-mode:multiply" opacity="0.3" d="M6.8723 17.9813C8.78365 18.2414 10.6223 17.6351 11.8749 16.8909C11.7262 16.7873 11.5748 16.6776 11.4199 16.5596C10.9365 16.1912 10.5014 15.7761 10.116 15.326C9.17369 15.7382 7.98801 15.98 6.88855 15.7554C5.82594 15.5384 4.88835 14.8449 4.40849 13.775C4.31753 13.5722 4.2466 13.3407 4.20215 13.1211C4.47984 15.0697 5.46312 16.7719 6.8723 17.9813V17.9813Z" fill="url(#paint19_linear_6199_178197)"/>
<path style="mix-blend-mode:multiply" opacity="0.3" d="M11.9735 14.0295C11.4701 13.4939 11.0658 12.9172 10.759 12.3205C10.7432 12.2885 10.7265 12.2581 10.7111 12.2256C10.7105 12.2244 10.71 12.2232 10.7094 12.222C10.5292 11.8402 10.3759 11.4212 10.2573 10.9648C9.93002 11.0418 9.60015 11.1389 9.26858 11.2632C8.86218 11.4251 8.50501 11.6077 8.20312 11.785C8.50979 12.849 8.96348 13.7489 9.49276 14.5009C9.6834 14.7856 9.8917 15.0602 10.1168 15.3231C10.5208 15.1464 10.8809 14.9388 11.169 14.7224C11.466 14.4993 11.7322 14.2672 11.9735 14.0295V14.0295Z" fill="url(#paint20_linear_6199_178197)"/>
<path style="mix-blend-mode:multiply" opacity="0.3" d="M9.38718 4.57574C8.20623 6.10095 7.81196 7.99645 7.83019 9.45326C7.99488 9.37597 8.16622 9.29939 8.34665 9.22393C8.90675 8.98972 9.48307 8.82061 10.0649 8.7119C10.1792 7.68988 10.5627 6.54245 11.3067 5.70275C12.026 4.89103 13.0953 4.42577 14.2618 4.54517C14.483 4.5678 14.7189 4.62209 14.9314 4.69343C14.9411 4.69671 14.9515 4.69949 14.9611 4.70284C14.9613 4.70265 14.9615 4.70239 14.9616 4.7022C13.8869 4.2644 12.6997 4.05748 11.466 4.14139C10.7415 4.19067 10.0472 4.33891 9.39308 4.56858C9.3912 4.57101 9.38907 4.5733 9.38719 4.57573L9.38718 4.57574V4.57574Z" fill="url(#paint21_linear_6199_178197)"/>
<path style="mix-blend-mode:multiply" opacity="0.3" d="M19.7407 13.4523C19.0099 11.6661 17.5644 10.3765 16.2932 9.66406C16.2778 9.84527 16.2584 10.0319 16.2336 10.2258C16.1563 10.8279 16.0146 11.4116 15.8179 11.9698C16.6465 12.5798 17.4494 13.4861 17.8049 14.5511C18.1482 15.5799 18.0165 16.7386 17.3298 17.6892C17.1997 17.8693 17.0346 18.0466 16.8666 18.1949C16.8642 18.197 16.8618 18.1993 16.8594 18.2015C18.3393 17.0384 19.386 15.362 19.7448 13.4635C19.7434 13.4599 19.7422 13.456 19.7407 13.4523V13.4523V13.4523Z" fill="url(#paint22_linear_6199_178197)"/>
<path style="mix-blend-mode:multiply" opacity="0.3" d="M10.0588 9.92455C10.1035 10.2932 10.1713 10.6396 10.2565 10.9673C10.9728 10.7988 11.6752 10.7368 12.3461 10.7695C12.3816 10.7718 12.4163 10.7725 12.4521 10.7754C12.4535 10.7755 12.4548 10.7757 12.4561 10.7757C12.8763 10.8106 13.315 10.8871 13.7688 11.0123C13.8658 10.6901 13.9467 10.3556 14.0049 10.0061C14.0682 9.57155 14.0885 9.16976 14.0857 8.81874C13.0111 8.55244 12.0066 8.50033 11.0908 8.58267C10.7483 8.6055 10.4056 8.64865 10.0648 8.71233C10.0157 9.15084 10.0154 9.56668 10.0588 9.92455H10.0588Z" fill="url(#paint23_linear_6199_178197)"/>
<defs>
<radialGradient id="paint0_radial_6199_178197" cx="0" cy="0" r="1" gradientUnits="userSpaceOnUse" gradientTransform="translate(14.8713 9.96333) scale(3.83261)">
<stop stop-color="white"/>
<stop offset="1" stop-color="white" stop-opacity="0"/>
</radialGradient>
<radialGradient id="paint1_radial_6199_178197" cx="0" cy="0" r="1" gradientUnits="userSpaceOnUse" gradientTransform="translate(9.20615 17.0757) scale(2.22985)">
<stop stop-color="white"/>
<stop offset="1" stop-color="white" stop-opacity="0"/>
</radialGradient>
<linearGradient id="paint2_linear_6199_178197" x1="5.8596" y1="16.696" x2="8.00903" y2="16.6662" gradientUnits="userSpaceOnUse">
<stop stop-color="white" stop-opacity="0"/>
<stop offset="1" stop-color="white"/>
</linearGradient>
<radialGradient id="paint3_radial_6199_178197" cx="0" cy="0" r="1" gradientUnits="userSpaceOnUse" gradientTransform="translate(8.79461 10.5304) rotate(-120) scale(3.83261)">
<stop stop-color="white"/>
<stop offset="1" stop-color="white" stop-opacity="0"/>
</radialGradient>
<radialGradient id="paint4_radial_6199_178197" cx="0" cy="0" r="1" gradientUnits="userSpaceOnUse" gradientTransform="translate(17.7847 11.8812) rotate(-120) scale(2.22985)">
<stop stop-color="white"/>
<stop offset="1" stop-color="white" stop-opacity="0"/>
</radialGradient>
<linearGradient id="paint5_linear_6199_178197" x1="19.1315" y1="14.9703" x2="18.0309" y2="13.1238" gradientUnits="userSpaceOnUse">
<stop stop-color="white" stop-opacity="0"/>
<stop offset="1" stop-color="white"/>
</linearGradient>
<radialGradient id="paint6_radial_6199_178197" cx="0" cy="0" r="1" gradientUnits="userSpaceOnUse" gradientTransform="translate(12.1472 15.3315) rotate(120) scale(3.83261)">
<stop stop-color="white"/>
<stop offset="1" stop-color="white" stop-opacity="0"/>
</radialGradient>
<radialGradient id="paint7_radial_6199_178197" cx="0" cy="0" r="1" gradientUnits="userSpaceOnUse" gradientTransform="translate(9.00301 7.04472) rotate(120) scale(2.22985)">
<stop stop-color="white"/>
<stop offset="1" stop-color="white" stop-opacity="0"/>
</radialGradient>
<linearGradient id="paint8_linear_6199_178197" x1="11.0029" y1="4.33615" x2="9.95404" y2="6.21254" gradientUnits="userSpaceOnUse">
<stop stop-color="white" stop-opacity="0"/>
<stop offset="1" stop-color="white"/>
</linearGradient>
<linearGradient id="paint9_linear_6199_178197" x1="11.4708" y1="3.38352" x2="8.18694" y2="4.33882" gradientUnits="userSpaceOnUse">
<stop stop-color="#231F20"/>
<stop offset="1" stop-color="white"/>
</linearGradient>
<linearGradient id="paint10_linear_6199_178197" x1="5.26444" y1="15.9068" x2="8.01093" y2="18.7727" gradientUnits="userSpaceOnUse">
<stop stop-color="#231F20"/>
<stop offset="1" stop-color="white"/>
</linearGradient>
<linearGradient id="paint11_linear_6199_178197" x1="20.0049" y1="15.476" x2="20.9602" y2="12.5703" gradientUnits="userSpaceOnUse">
<stop stop-color="#231F20"/>
<stop offset="1" stop-color="white"/>
</linearGradient>
<linearGradient id="paint12_linear_6199_178197" x1="12.9669" y1="5.04611" x2="17.3696" y2="6.0542" gradientUnits="userSpaceOnUse">
<stop stop-color="#231F20"/>
<stop offset="1" stop-color="white"/>
</linearGradient>
<linearGradient id="paint13_linear_6199_178197" x1="17.5374" y1="16.3135" x2="14.463" y2="19.6223" gradientUnits="userSpaceOnUse">
<stop stop-color="#231F20"/>
<stop offset="1" stop-color="white"/>
</linearGradient>
<linearGradient id="paint14_linear_6199_178197" x1="5.493" y1="14.6418" x2="4.16468" y2="10.3248" gradientUnits="userSpaceOnUse">
<stop stop-color="#231F20"/>
<stop offset="1" stop-color="white"/>
</linearGradient>
<linearGradient id="paint15_linear_6199_178197" x1="13.9286" y1="6.66712" x2="12.5355" y2="8.06027" gradientUnits="userSpaceOnUse">
<stop stop-color="#231F20"/>
<stop offset="1" stop-color="white"/>
</linearGradient>
<linearGradient id="paint16_linear_6199_178197" x1="6.41647" y1="12.9933" x2="8.31954" y2="13.5032" gradientUnits="userSpaceOnUse">
<stop stop-color="#231F20"/>
<stop offset="1" stop-color="white"/>
</linearGradient>
<linearGradient id="paint17_linear_6199_178197" x1="15.6488" y1="16.333" x2="15.1389" y2="14.4299" gradientUnits="userSpaceOnUse">
<stop stop-color="#231F20"/>
<stop offset="1" stop-color="white"/>
</linearGradient>
<linearGradient id="paint18_linear_6199_178197" x1="12.7546" y1="14.6499" x2="13.5905" y2="13.4956" gradientUnits="userSpaceOnUse">
<stop stop-color="#231F20"/>
<stop offset="1" stop-color="white"/>
</linearGradient>
<linearGradient id="paint19_linear_6199_178197" x1="9.87654" y1="14.1492" x2="8.20476" y2="14.9453" gradientUnits="userSpaceOnUse">
<stop stop-color="#231F20"/>
<stop offset="1" stop-color="white"/>
</linearGradient>
<linearGradient id="paint20_linear_6199_178197" x1="9.2706" y1="11.3635" x2="9.78805" y2="12.4382" gradientUnits="userSpaceOnUse">
<stop stop-color="#231F20"/>
<stop offset="1" stop-color="white"/>
</linearGradient>
<linearGradient id="paint21_linear_6199_178197" x1="11.6771" y1="8.04636" x2="11.3189" y2="6.81243" gradientUnits="userSpaceOnUse">
<stop stop-color="#231F20"/>
<stop offset="1" stop-color="white"/>
</linearGradient>
<linearGradient id="paint22_linear_6199_178197" x1="15.5381" y1="13.6932" x2="16.573" y2="13.932" gradientUnits="userSpaceOnUse">
<stop stop-color="#231F20"/>
<stop offset="1" stop-color="white"/>
</linearGradient>
<linearGradient id="paint23_linear_6199_178197" x1="13.9138" y1="10.2003" x2="12.6002" y2="9.96144" gradientUnits="userSpaceOnUse">
<stop stop-color="#231F20"/>
<stop offset="1" stop-color="white"/>
</linearGradient>
</defs>
</svg>
