<svg width="24" height="24" viewBox="0 0 24 24" fill="none" xmlns="http://www.w3.org/2000/svg">
<path d="M16.0057 3.5144L14.3424 3.51525L14.3435 5.78405C13.8994 5.88086 13.472 6.07146 13.093 6.35539L13.0793 6.34166L12.9604 6.46018C12.8732 6.53292 12.7889 6.61092 12.7079 6.69419C12.6863 6.71646 12.665 6.73897 12.6441 6.7617L12.6512 6.76854L11.7429 7.67419L11.7434 7.67471C11.5448 7.82752 11.4168 8.0676 11.4168 8.33758C11.4168 8.79922 11.791 9.17346 12.2527 9.17346C12.5218 9.17346 12.7612 9.04628 12.9141 8.84876L12.9174 8.85203L14.2059 7.56724C14.8182 7.20588 15.6196 7.28169 16.1541 7.80114C16.771 8.40075 16.8072 9.37277 16.2526 10.0158L16.2463 10.0095L13.9321 12.3181C13.3049 12.8836 12.5089 12.8883 11.7405 12.2927C11.7076 12.2607 11.6763 12.2277 11.6467 12.1937L11.6361 12.2043C11.4849 12.0532 11.276 11.9597 11.0453 11.9597C10.5837 11.9597 10.2094 12.334 10.2094 12.7956C10.2094 13.1246 10.4656 13.3991 10.6758 13.5663C12.0445 14.6065 13.8686 14.6608 15.0984 13.4871L15.1069 13.4957L17.421 11.1871L17.4136 11.1796C17.8184 10.7469 18.0826 10.2315 18.2068 9.69094L20.5 9.6748L20.4883 8.01152L18.1538 8.02795C18.0003 7.51333 17.717 7.02964 17.3046 6.62876C16.9254 6.26026 16.4794 6.00282 16.0069 5.85588L16.0057 3.5144Z" fill="#8E9BB2"/>
<path d="M12.3232 16.3071C12.4517 16.1854 12.5313 15.9732 12.5313 15.7676C12.5313 15.306 12.1571 14.9317 11.6954 14.9317C11.4262 14.9317 11.2087 15.0709 11.0338 15.2567L9.9084 16.3333C9.28295 16.7979 8.41652 16.754 7.83975 16.1934C7.23935 15.6098 7.18902 14.6736 7.69797 14.0311L9.97674 11.8004C9.99509 11.7795 10.0141 11.7589 10.0337 11.7387C10.6108 11.1449 11.6266 11.0308 12.1747 11.5803C12.3696 11.7758 12.6337 11.9131 12.9268 11.9131C13.3885 11.9131 13.7109 11.5855 13.7109 11.1238C13.7109 10.9494 13.6574 10.7874 13.566 10.6533C13.5315 10.6166 13.5073 10.5786 13.4708 10.5432C12.1863 9.29479 10.1348 9.3117 8.88276 10.5904L6.68953 12.7034C6.66741 12.725 6.64552 12.7469 6.62387 12.7691C6.60768 12.7858 6.5917 12.8026 6.57594 12.8195L6.53251 12.8628L6.53449 12.8648C6.14725 13.2961 5.89584 13.8052 5.77949 14.3374L3.5 14.3534L3.51171 16.0167L5.8503 16.0002C6.00594 16.5023 6.28584 16.9736 6.68929 17.3658C7.07164 17.7374 7.52195 17.996 7.99891 18.1423L7.98182 20.4736L9.6451 20.4858L9.6618 18.208C10.1234 18.1056 10.5666 17.9018 10.9559 17.597L12.3232 16.3071Z" fill="#8E9BB2"/>
</svg>
