<svg width="24" height="24" viewBox="0 0 24 24" fill="none" xmlns="http://www.w3.org/2000/svg">
<path fill-rule="evenodd" clip-rule="evenodd" d="M22.6929 10.7092C22.743 11.1318 22.7708 11.5628 22.7708 12.0008C22.7708 17.9419 17.9488 22.7595 11.9993 22.7595C7.6673 22.7595 3.93388 20.2054 2.22306 16.5223L3.94641 15.6561C5.33843 18.7107 8.42039 20.8338 11.9993 20.8338C16.8825 20.8338 20.8429 16.8796 20.8429 12.0008C20.8429 11.9104 20.8415 11.8201 20.8387 11.7297L22.6929 10.7092ZM11.9993 1.24219C16.5359 1.24219 20.4183 4.04376 22.0052 8.01049L20.1622 8.5972C18.8286 5.4091 15.6757 3.16783 11.9993 3.16783C7.11605 3.16783 3.15575 7.12203 3.15575 12.0008C3.15575 12.0606 3.15712 12.1218 3.15852 12.1816L1.35445 13.6554C1.27093 13.1159 1.22777 12.5639 1.22777 12.0008C1.22917 6.0584 6.05116 1.24219 11.9993 1.24219Z" fill="#222222"/>
<path fill-rule="evenodd" clip-rule="evenodd" d="M0 16.3025L10.5349 7.69614L10.0978 11.2749L16.2464 7.79484L15.9346 11.1929L24 8.62768L13.0614 14.6452L13.8786 11.2207L7.55873 14.9205L7.97634 12.2941L0 16.3025Z" fill="#222222"/>
</svg>
