<svg width="24" height="24" viewBox="0 0 24 24" fill="none" xmlns="http://www.w3.org/2000/svg">
<mask id="mask0_5291_301577" style="mask-type:alpha" maskUnits="userSpaceOnUse" x="18" y="4" width="4" height="6">
<path d="M18.709 4.60547H21.5V9.53849H18.709V4.60547Z" fill="black"/>
</mask>
<g mask="url(#mask0_5291_301577)">
<path d="M21.1714 4.60547H16.8963C16.7146 4.60547 16.5674 4.75271 16.5674 4.93434V9.20959C16.5674 9.39122 16.7146 9.53846 16.8963 9.53846H21.1714C21.353 9.53846 21.5003 9.39122 21.5003 9.20959V4.93434C21.5003 4.75271 21.353 4.60547 21.1714 4.60547Z" fill="#404141"/>
</g>
<mask id="mask1_5291_301577" style="mask-type:alpha" maskUnits="userSpaceOnUse" x="18" y="14" width="4" height="6">
<path d="M18.709 14.4648H21.5V19.3979H18.709V14.4648Z" fill="black"/>
</mask>
<g mask="url(#mask1_5291_301577)">
<path d="M21.1714 14.4648H16.8963C16.7146 14.4648 16.5674 14.6121 16.5674 14.7937V19.069C16.5674 19.2506 16.7146 19.3978 16.8963 19.3978H21.1714C21.353 19.3978 21.5003 19.2506 21.5003 19.069V14.7937C21.5003 14.6121 21.353 14.4648 21.1714 14.4648Z" fill="#404141"/>
</g>
<path d="M12.0287 9.54688H7.77383C7.59307 9.54688 7.44653 9.69236 7.44653 9.87182V14.0965C7.44653 14.2759 7.59307 14.4214 7.77383 14.4214H12.0287C12.2095 14.4214 12.356 14.2759 12.356 14.0965V9.87182C12.356 9.69236 12.2095 9.54688 12.0287 9.54688Z" fill="#878888"/>
<path d="M7.10376 4.60059H2.82861C2.64699 4.60059 2.49976 4.74783 2.49976 4.92945V9.20472C2.49976 9.38633 2.64699 9.53356 2.82861 9.53356H7.10376C7.28539 9.53356 7.43263 9.38633 7.43263 9.20472V4.92945C7.43263 4.74783 7.28539 4.60059 7.10376 4.60059Z" fill="#878888"/>
<path d="M16.9678 4.60059H12.6926C12.511 4.60059 12.3638 4.74783 12.3638 4.92945V9.20472C12.3638 9.38633 12.511 9.53356 12.6926 9.53356H16.9678C17.1494 9.53356 17.2966 9.38633 17.2966 9.20472V4.92945C17.2966 4.74783 17.1494 4.60059 16.9678 4.60059Z" fill="#878888"/>
<path d="M7.10379 14.4668H2.82861C2.64699 14.4668 2.49976 14.614 2.49976 14.7957V19.0709C2.49976 19.2526 2.64699 19.3998 2.82861 19.3998H7.10379C7.28539 19.3998 7.43263 19.2526 7.43263 19.0709V14.7957C7.43263 14.614 7.28539 14.4668 7.10379 14.4668Z" fill="#878888"/>
<path d="M16.9678 14.4668H12.6926C12.511 14.4668 12.3638 14.614 12.3638 14.7957V19.0709C12.3638 19.2526 12.511 19.3998 12.6926 19.3998H16.9678C17.1494 19.3998 17.2966 19.2526 17.2966 19.0709V14.7957C17.2966 14.614 17.1494 14.4668 16.9678 14.4668Z" fill="#878888"/>
</svg>
