<svg width="24" height="24" viewBox="0 0 24 24" fill="none" xmlns="http://www.w3.org/2000/svg">
<g clip-path="url(#clip0_9321_72768)">
<path d="M20.6404 12.0004C20.6404 7.22861 16.7721 3.36035 12.0004 3.36035C7.22861 3.36035 3.36035 7.22861 3.36035 12.0004C3.36035 16.7721 7.22861 20.6404 12.0004 20.6404C16.7721 20.6404 20.6404 16.7721 20.6404 12.0004Z" fill="#8E9BB2"/>
<path d="M13.8598 8.14258L11.4486 9.52738V13.8494L10.1183 14.6205L8.77974 13.8487V12.3057L10.1183 11.5414L10.9789 12.0405V10.792L10.1107 10.2992L7.7002 11.6996V14.4698L10.1189 15.8627L12.5294 14.4698V10.1485L13.8679 9.37661L15.2058 10.1485V11.6846L13.8679 12.4633L12.9998 11.9598V13.202L13.8598 13.698L16.2941 12.3132V9.52738L13.8598 8.14258Z" fill="#FAFAFA"/>
</g>
<defs>
<clipPath id="clip0_9321_72768">
<rect x="3.36035" y="3.36035" width="17.28" height="17.28" rx="8.64" fill="white"/>
</clipPath>
</defs>
</svg>
