<svg width="24" height="24" viewBox="0 0 24 24" fill="none" xmlns="http://www.w3.org/2000/svg">
<path d="M3.35999 8.76926V6.35386C3.35999 5.62017 4.0968 5.02539 5.0057 5.02539H7.99791C8.90681 5.02539 9.64363 5.62016 9.64363 6.35385V8.30438C9.64363 8.6407 9.80913 8.96324 10.1037 9.20105C10.7172 9.69627 11.7119 9.69627 12.3254 9.20105L17.0162 5.41449C17.3248 5.16535 17.7434 5.02539 18.1799 5.02539H18.9943C19.9032 5.02539 20.64 5.62017 20.64 6.35386V7.01129C20.64 7.36362 20.4666 7.70152 20.158 7.95066L15.4672 11.7372C14.8537 12.2324 14.8537 13.0353 15.4672 13.5306C15.7617 13.7683 16.1614 13.902 16.578 13.902H18.9943C19.9032 13.902 20.64 14.4967 20.64 15.2304V17.6458C20.64 18.3795 19.9032 18.9743 18.9943 18.9743H16.002C15.0932 18.9743 14.3563 18.3795 14.3563 17.6458V15.6953C14.3563 15.359 14.1908 15.0365 13.8963 14.7986C13.2828 14.3034 12.2881 14.3034 11.6746 14.7986L6.98383 18.5852C6.67519 18.8344 6.2566 18.9743 5.82013 18.9743H5.0057C4.0968 18.9743 3.35999 18.3795 3.35999 17.6458V16.9884C3.35999 16.636 3.53337 16.2982 3.842 16.0491L8.53282 12.2625C9.1463 11.7673 9.1463 10.9644 8.53282 10.4691C8.23822 10.2313 7.83866 10.0977 7.42202 10.0977H5.0057C4.0968 10.0977 3.35999 9.50295 3.35999 8.76926Z" fill="#8E9BB2"/>
</svg>
