<svg width="24" height="24" viewBox="0 0 24 24" fill="none" xmlns="http://www.w3.org/2000/svg">
<mask id="mask0_5291_301602" style="mask-type:alpha" maskUnits="userSpaceOnUse" x="18" y="4" width="4" height="6">
<path d="M18.7093 4.60449H21.5002V9.53751H18.7093V4.60449Z" fill="black"/>
</mask>
<g mask="url(#mask0_5291_301602)">
<path d="M21.1717 4.60449H16.8965C16.7149 4.60449 16.5676 4.75173 16.5676 4.93336V9.20861C16.5676 9.39025 16.7149 9.53748 16.8965 9.53748H21.1717C21.3533 9.53748 21.5005 9.39025 21.5005 9.20861V4.93336C21.5005 4.75173 21.3533 4.60449 21.1717 4.60449Z" fill="#878888"/>
</g>
<mask id="mask1_5291_301602" style="mask-type:alpha" maskUnits="userSpaceOnUse" x="18" y="14" width="4" height="6">
<path d="M18.709 14.4629H21.5V19.3959H18.709V14.4629Z" fill="black"/>
</mask>
<g mask="url(#mask1_5291_301602)">
<path d="M21.1714 14.4629H16.8963C16.7146 14.4629 16.5674 14.6101 16.5674 14.7918V19.067C16.5674 19.2486 16.7146 19.3959 16.8963 19.3959H21.1714C21.353 19.3959 21.5003 19.2486 21.5003 19.067V14.7918C21.5003 14.6101 21.353 14.4629 21.1714 14.4629Z" fill="#878888"/>
</g>
<path d="M12.029 9.5459H7.77408C7.59332 9.5459 7.44678 9.69138 7.44678 9.87084V14.0955C7.44678 14.2749 7.59332 14.4204 7.77408 14.4204H12.029C12.2097 14.4204 12.3563 14.2749 12.3563 14.0955V9.87084C12.3563 9.69138 12.2097 9.5459 12.029 9.5459Z" fill="#DDDDDD"/>
<path d="M7.104 4.59961H2.82886C2.64724 4.59961 2.5 4.74685 2.5 4.92848V9.20375C2.5 9.38535 2.64724 9.53259 2.82886 9.53259H7.104C7.28564 9.53259 7.43287 9.38535 7.43287 9.20375V4.92848C7.43287 4.74685 7.28564 4.59961 7.104 4.59961Z" fill="#DDDDDD"/>
<path d="M16.968 4.59961H12.6929C12.5112 4.59961 12.364 4.74685 12.364 4.92848V9.20375C12.364 9.38535 12.5112 9.53259 12.6929 9.53259H16.968C17.1497 9.53259 17.2969 9.38535 17.2969 9.20375V4.92848C17.2969 4.74685 17.1497 4.59961 16.968 4.59961Z" fill="#DDDDDD"/>
<path d="M7.10403 14.4658H2.82886C2.64724 14.4658 2.5 14.6131 2.5 14.7947V19.0699C2.5 19.2516 2.64724 19.3988 2.82886 19.3988H7.10403C7.28564 19.3988 7.43287 19.2516 7.43287 19.0699V14.7947C7.43287 14.6131 7.28564 14.4658 7.10403 14.4658Z" fill="#DDDDDD"/>
<path d="M16.968 14.4658H12.6929C12.5112 14.4658 12.364 14.6131 12.364 14.7947V19.0699C12.364 19.2516 12.5112 19.3988 12.6929 19.3988H16.968C17.1497 19.3988 17.2969 19.2516 17.2969 19.0699V14.7947C17.2969 14.6131 17.1497 14.4658 16.968 14.4658Z" fill="#DDDDDD"/>
</svg>
