<svg width="24" height="24" viewBox="0 0 24 24" fill="none" xmlns="http://www.w3.org/2000/svg">
<path d="M20.5286 5.99223C21.0753 6.33616 21.4242 6.92697 21.4499 7.57231V16.4017C21.4257 16.9811 21.1568 17.516 20.6996 17.8706L12.7354 22.4891C12.508 22.5782 12.2679 22.6235 12.0215 22.6235C11.7529 22.6235 11.4548 22.5649 11.2475 22.4641C11.2212 22.4514 11.1469 22.4104 11.0377 22.3491C10.9673 22.3094 10.8813 22.2607 10.7849 22.2059L7.86946 20.525L2.55005 16.7048V7.56835C2.5806 6.97049 2.87805 6.42636 3.366 6.07617C3.45865 6.00983 3.5571 5.95134 3.6593 5.90229C3.6593 5.90229 11.0457 1.61273 11.1097 1.58042C11.6513 1.30763 12.3267 1.30796 12.8674 1.58062L20.5286 5.99223Z" fill="#2D374B"/>
<path d="M12.0557 15.0809L14.9827 19.6809L17.6865 18.1118L13.8425 12.0449L12.0557 15.0809Z" fill="#28A0F0"/>
<path d="M20.1542 16.2694L20.1522 15.0123L15.9519 8.46143L14.3936 11.1091L18.4484 17.6757L19.9145 16.8251C20.0583 16.7081 20.1453 16.5365 20.1544 16.3513L20.1542 16.2694Z" fill="#28A0F0"/>
<path d="M2.55012 17.4542L4.62046 18.6488L11.51 7.58518L10.3407 7.55425C9.34444 7.54014 8.27128 7.79948 7.77865 8.60465L3.86627 14.6767L2.55005 16.7018V17.4542H2.55012Z" fill="#F3F3F3"/>
<path d="M15.4854 7.58984L12.4038 7.60105L5.43164 19.1217L7.86857 20.5267L8.53129 19.4012L15.4854 7.58984Z" fill="#F3F3F3"/>
<path d="M21.4499 7.57231C21.4242 6.92697 21.0753 6.33616 20.5286 5.99223L12.8674 1.58062C12.3267 1.30796 11.6513 1.30763 11.1097 1.58042C11.0457 1.61273 3.6593 5.90229 3.6593 5.90229C3.5571 5.95134 3.45865 6.00983 3.366 6.07617C2.87805 6.42636 2.5806 6.97049 2.55005 7.56835V16.7048L3.86627 14.6798L3.85474 7.63014C3.85633 7.60435 3.85955 7.57903 3.8641 7.55398C3.8938 7.38808 3.98631 7.24011 4.12559 7.14015C4.16036 7.11522 11.6729 2.76091 11.6968 2.74891C11.8734 2.66009 12.0977 2.65917 12.2745 2.74621L19.8366 7.10184C20.0155 7.21591 20.1277 7.40937 20.1376 7.62084V16.3537C20.1285 16.5389 20.0554 16.7104 19.9115 16.8274L18.4454 17.6781L17.689 18.117L14.9852 19.686L12.2432 21.2773C12.0955 21.3307 11.9228 21.3277 11.7764 21.268L8.53218 19.3996L7.86946 20.525L10.7849 22.2059C10.8813 22.2607 10.9673 22.3094 11.0377 22.3491C11.1469 22.4104 11.2212 22.4514 11.2475 22.4641C11.4548 22.5649 11.7529 22.6235 12.0215 22.6235C12.2679 22.6235 12.508 22.5782 12.7353 22.4891L20.6996 17.8706C21.1568 17.516 21.4257 16.9811 21.4499 16.4017V7.57231Z" fill="#96BEDC"/>
</svg>
