<svg width="24" height="24" viewBox="0 0 24 24" fill="none" xmlns="http://www.w3.org/2000/svg">
<g clip-path="url(#clip0_7619_211921)">
<path d="M20.7114 15.9568L18.6325 14.3401C18.2835 14.0686 17.7754 14.1811 17.57 14.5726C17.0597 15.5434 16.2602 16.3433 15.344 16.889L13.1652 14.7102C13.048 14.593 12.889 14.527 12.7231 14.527C12.5573 14.527 12.3983 14.593 12.2811 14.7102L9.9631 17.0282C8.16066 16.0734 6.92971 14.1783 6.92971 12.0004C6.92971 8.86522 9.48052 6.31441 12.6157 6.31441C14.5118 6.31441 16.3283 7.14007 17.5291 9.12441C17.7443 9.48006 18.2178 9.57463 18.553 9.32894L20.5703 7.85042C20.8698 7.63113 20.9492 7.21736 20.7519 6.90286C19.0017 4.10983 15.9416 2.40039 12.6154 2.40039C7.32181 2.40039 3.01538 6.70682 3.01538 12.0004C3.01538 17.294 7.32181 21.6004 12.6154 21.6004C14.425 21.6004 16.1882 21.0936 17.7148 20.1354C19.0166 19.3181 20.1039 18.201 20.8858 16.8777C21.0674 16.5704 20.9932 16.1758 20.7114 15.9568ZM11.2415 17.518L12.7228 16.0366L14.1269 17.4407C13.6267 17.6009 13.1152 17.6867 12.6157 17.6867C12.1419 17.6867 11.682 17.6279 11.2415 17.5183V17.518ZM12.5723 10.5285C12.5701 10.5753 12.5698 11.1974 14.1288 12.2599C15.2919 13.0529 14.7471 14.6326 14.5089 15.1519C14.3604 14.7151 14.1474 14.3031 13.8768 13.9294C13.4769 13.3768 13.0326 13.0215 12.7225 12.8113C12.3964 13.0111 11.8614 13.4001 11.4322 14.0686C11.1724 14.4736 11.0294 14.8591 10.9477 15.1519L10.9468 15.1503C10.4724 13.8748 10.6405 13.2376 10.8855 12.8914C11.0778 12.6196 11.4272 12.2442 11.4272 12.2442C11.7322 11.9407 12.0543 11.6454 12.364 11.045C12.5544 10.6758 12.5711 10.5473 12.5723 10.5282V10.5285Z" fill="#222222"/>
<path d="M11.4271 12.2469C11.4271 12.2469 11.0781 12.6223 10.8855 12.8941C10.6404 13.2403 10.4726 13.8775 10.9467 15.153C8.24419 12.7873 11.0272 10.3728 10.9716 10.5566C10.7648 11.2399 11.4268 12.2469 11.4268 12.2469H11.4271ZM12.0863 11.5035C12.1808 11.3694 12.2738 11.2189 12.3627 11.0464C12.5707 10.6433 12.5714 10.5268 12.5714 10.5268C12.5714 10.5268 12.5057 11.1557 14.1275 12.2613C15.2906 13.0543 14.7458 14.634 14.5076 15.1533C14.5076 15.1533 15.8803 14.278 15.6855 12.7995C15.4514 11.021 14.4891 11.1815 13.774 9.86416C13.107 8.63541 14.2462 7.6511 14.2462 7.6511C14.2462 7.6511 12.7212 7.5691 12.0231 9.17234C11.2873 10.8617 12.0859 11.5039 12.0859 11.5039L12.0863 11.5035Z" fill="#878888"/>
</g>
<defs>
<clipPath id="clip0_7619_211921">
<rect width="17.9694" height="19.2" fill="white" transform="translate(3.01538 2.40039)"/>
</clipPath>
</defs>
</svg>
