<svg width="32" height="32" viewBox="0 0 32 32" fill="none" xmlns="http://www.w3.org/2000/svg">
<g clip-path="url(#clip0_5441_41561)">
<rect width="32" height="32" rx="16" fill="white"/>
<path d="M22.4754 17.0825L16.3019 6.60148C16.272 6.54972 16.2287 6.50661 16.1764 6.47649C16.1241 6.44638 16.0646 6.43032 16.0039 6.42994C15.9433 6.42956 15.8836 6.44487 15.8309 6.47433C15.7782 6.50379 15.7343 6.54635 15.7038 6.59773L13.8549 9.7383C13.7943 9.8411 13.7625 9.95772 13.7625 10.0764C13.7625 10.1951 13.7943 10.3117 13.8549 10.4145L17.8804 17.2521C17.941 17.355 18.0282 17.4404 18.1332 17.4998C18.2382 17.5591 18.3573 17.5903 18.4785 17.5902H22.1763C22.2368 17.59 22.2963 17.5743 22.3486 17.5445C22.401 17.5148 22.4445 17.4721 22.4748 17.4207C22.505 17.3693 22.5211 17.311 22.5212 17.2517C22.5212 17.1923 22.5055 17.134 22.4754 17.0825Z" fill="url(#paint0_radial_5441_41561)"/>
<path d="M6.29309 22.5605L12.4665 12.0795C12.4968 12.0281 12.5404 11.9855 12.5928 11.9559C12.6452 11.9262 12.7046 11.9106 12.7651 11.9106C12.8256 11.9106 12.8851 11.9262 12.9375 11.9559C12.9899 11.9855 13.0334 12.0281 13.0637 12.0795L14.9136 15.2172C14.9741 15.3202 15.006 15.437 15.006 15.5558C15.006 15.6747 14.9741 15.7915 14.9136 15.8944L10.8881 22.732C10.8277 22.8348 10.7407 22.9203 10.6358 22.9796C10.531 23.039 10.412 23.0702 10.2909 23.0701H6.59216C6.53123 23.0704 6.47131 23.0548 6.41848 23.0251C6.36566 22.9953 6.32183 22.9523 6.29144 22.9006C6.26106 22.8488 6.2452 22.7901 6.24549 22.7304C6.24578 22.6706 6.2622 22.6121 6.29309 22.5605Z" fill="url(#paint1_radial_5441_41561)"/>
<path d="M13.063 23.0676H25.4099C25.4705 23.0676 25.5299 23.0519 25.5824 23.0221C25.6348 22.9924 25.6783 22.9496 25.7085 22.8982C25.7387 22.8468 25.7546 22.7884 25.7545 22.7291C25.7544 22.6696 25.7384 22.6113 25.708 22.56L23.861 19.4204C23.8004 19.3174 23.7132 19.232 23.6082 19.1727C23.5032 19.1133 23.3841 19.0822 23.2629 19.0823H15.2119C15.0907 19.0822 14.9716 19.1133 14.8666 19.1727C14.7616 19.232 14.6744 19.3174 14.6138 19.4204L12.7649 22.56C12.7345 22.6113 12.7185 22.6696 12.7184 22.7291C12.7183 22.7884 12.7342 22.8468 12.7644 22.8982C12.7946 22.9496 12.8381 22.9924 12.8905 23.0221C12.9429 23.0519 13.0024 23.0676 13.063 23.0676Z" fill="url(#paint2_radial_5441_41561)"/>
</g>
<defs>
<radialGradient id="paint0_radial_5441_41561" cx="0" cy="0" r="1" gradientUnits="userSpaceOnUse" gradientTransform="translate(16.5814 6.42993) rotate(95.3323) scale(16.0651 21.6908)">
<stop stop-color="#05D5FF"/>
<stop offset="0.770833" stop-color="#363FF9"/>
<stop offset="1" stop-color="#5533FF"/>
</radialGradient>
<radialGradient id="paint1_radial_5441_41561" cx="0" cy="0" r="1" gradientUnits="userSpaceOnUse" gradientTransform="translate(16.5813 6.43016) rotate(95.3323) scale(16.0651 21.6908)">
<stop stop-color="#05D5FF"/>
<stop offset="0.770833" stop-color="#363FF9"/>
<stop offset="1" stop-color="#5533FF"/>
</radialGradient>
<radialGradient id="paint2_radial_5441_41561" cx="0" cy="0" r="1" gradientUnits="userSpaceOnUse" gradientTransform="translate(16.5815 6.42997) rotate(95.3323) scale(16.0651 21.6908)">
<stop stop-color="#05D5FF"/>
<stop offset="0.770833" stop-color="#363FF9"/>
<stop offset="1" stop-color="#5533FF"/>
</radialGradient>
<clipPath id="clip0_5441_41561">
<rect width="32" height="32" rx="16" fill="white"/>
</clipPath>
</defs>
</svg>
