<svg width="32" height="32" viewBox="0 0 32 32" fill="none" xmlns="http://www.w3.org/2000/svg">
<g clip-path="url(#clip0_8596_191465)">
<rect width="32" height="32" rx="16" fill="white"/>
<path d="M26.1162 19.1084C26.0382 21.4463 25.0949 23.672 23.4689 25.3538C21.843 27.0356 19.6504 28.0536 17.3164 28.2104C14.9825 28.3672 12.6734 27.6516 10.8372 26.2023C9.00092 24.7532 7.76832 22.6736 7.37842 20.3671H9.85247C10.0552 20.3664 10.2534 20.427 10.4209 20.5412C10.5884 20.6553 10.7174 20.8175 10.7909 21.0064C11.16 21.9921 11.7704 22.8695 12.5664 23.5581C13.3624 24.2468 14.3184 24.7248 15.3469 24.9482C16.3754 25.1717 17.4435 25.1336 18.4535 24.8373C19.4635 24.5412 20.383 23.9963 21.1279 23.2526C21.8726 22.509 22.419 21.5903 22.7168 20.5808C23.0148 19.5714 23.0546 18.5032 22.8327 17.4743C22.6108 16.4455 22.1344 15.4888 21.447 14.6917C20.7596 13.8946 19.8832 13.2828 18.8981 12.9121C18.7071 12.8383 18.543 12.7081 18.4278 12.5388C18.3126 12.3695 18.2515 12.1691 18.2529 11.9643V9.48438C20.5065 9.86505 22.5454 11.0503 23.9915 12.8201C25.4375 14.5899 26.1924 16.8242 26.1162 19.1084Z" fill="black"/>
<path d="M16.6875 22.5332C18.7575 22.5332 20.4355 20.8551 20.4355 18.7852C20.4355 16.7152 18.7575 15.0371 16.6875 15.0371C14.6175 15.0371 12.9395 16.7152 12.9395 18.7852C12.9395 20.8551 14.6175 22.5332 16.6875 22.5332Z" fill="#574B90"/>
<path d="M7.37842 17.0725V6.88422C7.37873 6.32243 7.60204 5.78374 7.99928 5.38649C8.39653 4.98924 8.93523 4.76594 9.49702 4.76562C9.76325 4.76624 10.0184 4.8722 10.2068 5.06035C10.3952 5.2485 10.5014 5.50355 10.5024 5.76979V11.661C11.809 10.525 13.404 9.772 15.1114 9.48496V11.9613C15.1098 12.1686 15.0453 12.3705 14.9263 12.5402C14.8072 12.7099 14.6394 12.8394 14.4451 12.9116C13.6368 13.2201 12.9008 13.6918 12.2828 14.2973C11.6648 14.9028 11.1781 15.6291 10.8531 16.4308C10.781 16.611 10.6589 16.7669 10.5012 16.8801C10.3311 17.0052 10.1257 17.0729 9.91463 17.0736L7.37842 17.0725Z" fill="#574B90"/>
</g>
<defs>
<clipPath id="clip0_8596_191465">
<rect width="32" height="32" rx="16" fill="white"/>
</clipPath>
</defs>
</svg>
