<svg xmlns="http://www.w3.org/2000/svg" width="32" height="32" fill="none"><rect width="32" height="32" fill="#F3F3F3" rx="16"/><path fill="#8BC53F" d="M23.409 10.617c-1.036-.293-2.111-.723-3.206-1.153-.059-.274-.313-.606-.802-1.036-.703-.626-2.052-.606-3.205-.332-1.271-.293-2.542-.41-3.754-.118-9.91 2.737-4.3 9.384-7.936 16.088.508 1.095 6.099 7.507 14.172 5.787 0 0-2.756-6.627 3.48-9.813 5.063-2.58 8.699-7.39 1.25-9.423Z"/><path fill="#009345" d="M16.201 8.093c.724.059 3.343.9 4.008 1.368-.567-1.622-2.444-1.837-4.008-1.368Z"/><path fill="#fff" d="M24.646 14.976c0 .527-.645.8-1.016.43-.372-.372-.118-1.017.41-1.037.333.02.606.274.606.607Zm-7.76-2.757c0 1.114-.684 2.13-1.72 2.561a2.774 2.774 0 0 1-3.03-.606 2.774 2.774 0 0 1-.606-3.03 2.788 2.788 0 0 1 2.56-1.72c.743 0 1.447.293 1.955.801.547.548.84 1.251.84 1.994Z"/><path fill="#58595B" d="M16.062 12.24a1.93 1.93 0 0 1-1.212 1.798 1.966 1.966 0 0 1-2.56-2.56 1.96 1.96 0 0 1 1.798-1.212c1.095.02 1.974.899 1.974 1.974Z"/><path fill="#8BC53F" d="M26.893 16.206c-2.248 1.584-4.809 2.776-8.425 2.776-1.7 0-2.033-1.799-3.167-.919-.586.45-2.62 1.466-4.242 1.408-1.622-.079-4.241-1.036-4.965-4.477-.293 3.46-.43 6.001-1.74 8.914 2.58 4.144 8.738 7.33 14.33 5.962-.607-4.203 3.068-8.308 5.12-10.4.802-.82 2.307-2.11 3.09-3.264Z"/><path fill="#58595B" d="M26.79 16.305c-.703.645-1.524 1.114-2.364 1.524-.86.41-1.74.724-2.659.978-.919.234-1.877.41-2.834.332-.978-.078-1.955-.41-2.6-1.134l.039-.039c.782.508 1.7.684 2.6.723.918.02 1.837-.039 2.736-.215.9-.195 1.799-.469 2.659-.82.86-.352 1.7-.763 2.444-1.35h-.02Z"/></svg>