<svg xmlns="http://www.w3.org/2000/svg" width="32" height="32" fill="none"><rect width="32" height="32" fill="#F3F3F3" rx="16"/><path fill="#CA312C" fill-rule="evenodd" d="M26.196 12.944a3.288 3.288 0 0 0-.866-1.472c-1.796-2.012-3.462-2.77-6.21-1.493h-.13a2.378 2.378 0 0 0-2.186 1.775c-1.017 2.921-2.099 5.8-3.159 8.699-.152.216-.303.433-.476.628-1.948 1.428-3.809 2.77-6.535 1.622-.996-.39-2.597-.28-1.753 1.732.043.26.195.519.411.67.26.282.563.498.887.671 3.787 2.445 7.92 2.986 11.902 1.06 4.523-2.185 7.834-5.626 8.158-11.036a7.47 7.47 0 0 0-.043-2.856Z" clip-rule="evenodd"/><path fill="#91B949" fill-rule="evenodd" d="M24.567 10.09c.021-.758.108-1.494.238-2.251.238-1.948-.823-2.77-1.623-2.835-.8-.043-1.558.26-2.12.822a.746.746 0 0 0-.088 1.04c.39.389.715.389.931-.434.368-1.341 1.926 0 1.883.693-.087 1.363-1.082 1.882-1.926 2.445-.866.563-1.71.692-3.116 1.169-.325.151-.368.627-.044.822a3.03 3.03 0 0 0 1.082 0c1.147-.195 1.494.151 1.861 1.298.693-.346 1.472-.433 2.23-.303.757.282.757.736 1.038 1.082a.318.318 0 0 0 .433-.324c-.541-1.017-.823-2.1-.78-3.225Z" clip-rule="evenodd"/></svg>