<svg xmlns="http://www.w3.org/2000/svg" viewBox="0 0 170.86 28.24"><defs><style>.cls-1{isolation:isolate}</style></defs><g id="Layer_2" data-name="Layer 2"><g id="Shape_6_copy_12" data-name="Shape 6 copy 12" class="cls-1"><path d="M26.38 9.72a4.33 4.33 0 00-1.06-1.8c-2.21-2.46-4.24-3.39-7.6-1.83h-.17a2.89 2.89 0 00-2.68 2.18c-1.24 3.57-2.57 7.1-3.87 10.64-.19.26-.38.52-.58.77-2.38 1.75-4.68 3.38-8 2-1.21-.49-3.18-.34-2.15 2.13a1.32 1.32 0 00.5.83 4 4 0 001.09.83c4.63 3 9.7 3.66 14.59 1.3 5.55-2.67 9.59-6.89 10-13.51a9.76 9.76 0 00-.07-3.54z" fill-rule="evenodd" fill="#ca312c" id="Shape_6_copy_12-2" data-name="Shape 6 copy 12"/></g><g id="Shape_7_copy_12" data-name="Shape 7 copy 12" class="cls-1"><path d="M24.4 6.23a19 19 0 01.3-2.75c.28-2.38-1-3.41-2-3.47a3.37 3.37 0 00-2.59 1A.93.93 0 0020 2.27c.47.49.88.48 1.15-.54.45-1.65 2.37 0 2.31.84-.1 1.68-1.31 2.31-2.37 3S19 6.41 17.27 7a.57.57 0 00-.06 1 4.27 4.27 0 001.33 0c1.41-.23 1.84.19 2.28 1.58a4.49 4.49 0 012.74-.38c.93.34.94.91 1.26 1.31a.4.4 0 00.53-.4 7.23 7.23 0 01-.95-3.88z" fill="#91b949" fill-rule="evenodd" id="Shape_7_copy_12-2" data-name="Shape 7 copy 12"/></g><g id="coinpaprika_copy_7" data-name="coinpaprika copy 7" class="cls-1"><path d="M42.09 20.54a7.05 7.05 0 01-.8.15 6.76 6.76 0 01-.76 0 3.65 3.65 0 01-1.35-.24 3.07 3.07 0 01-1-.7 3.43 3.43 0 01-.67-1.11 4.55 4.55 0 01-.23-1.48 4.46 4.46 0 01.22-1.45 3.14 3.14 0 01.63-1.12 2.82 2.82 0 011-.72 3.36 3.36 0 011.38-.26 6.76 6.76 0 011.55.19 7.1 7.1 0 011.51.54v-2.62a10.46 10.46 0 00-1.37-.3 12.2 12.2 0 00-1.87-.12 6.76 6.76 0 00-2.48.43 5.3 5.3 0 00-3.12 3.12 6.85 6.85 0 00-.44 2.49 7.38 7.38 0 00.4 2.51 4.73 4.73 0 003 2.92 7.4 7.4 0 002.44.37 9.71 9.71 0 001.8-.14 8.08 8.08 0 001.68-.48v-2.47a6.93 6.93 0 01-.73.27c-.26.08-.52.16-.79.22zm13.83-7.81a4.43 4.43 0 00-1.7-1.12 6.51 6.51 0 00-2.29-.38 6.14 6.14 0 00-2.37.44 4.92 4.92 0 00-1.77 1.22 5.33 5.33 0 00-1.12 1.91 7.46 7.46 0 00-.39 2.48 8.36 8.36 0 00.37 2.58 4.82 4.82 0 001.08 1.85 4.32 4.32 0 001.7 1.12 6.73 6.73 0 002.28.37 6.21 6.21 0 002.39-.44 5 5 0 001.77-1.24A5.47 5.47 0 0057 19.59a7.44 7.44 0 00.39-2.47 8.14 8.14 0 00-.39-2.54 4.82 4.82 0 00-1.08-1.85zm-1.59 5.89a3.52 3.52 0 01-.47 1.15 2.16 2.16 0 01-.82.77 2.42 2.42 0 01-1.2.28 2.37 2.37 0 01-2-.91 4.3 4.3 0 01-.72-2.7 6.26 6.26 0 01.15-1.4 3.27 3.27 0 01.48-1.14 2.47 2.47 0 01.83-.78 2.6 2.6 0 011.23-.28 2.32 2.32 0 012 .9 4.43 4.43 0 01.67 2.68 6 6 0 01-.15 1.43zm9.07-9a1.75 1.75 0 00.6.38 1.9 1.9 0 001.43 0 1.75 1.75 0 00.57-.39 1.7 1.7 0 00.34-.61 1.8 1.8 0 000-1.39 1.85 1.85 0 00-.34-.54 1.92 1.92 0 00-.57-.39 1.9 1.9 0 00-1.43 0 1.92 1.92 0 00-.57.39 1.72 1.72 0 00-.38.58A1.8 1.8 0 0063 9a1.59 1.59 0 00.4.61zm2.85 1.87h-6v2.14h3.24v7.17H59.8v2.14h9.76V20.8h-3.31zm14.89.85a2.94 2.94 0 00-1.09-.81 3.85 3.85 0 00-1.54-.29 4.45 4.45 0 00-1.14.14 3.89 3.89 0 00-.94.39 4.06 4.06 0 00-.82.61 9.52 9.52 0 00-.73.8l-.07-1.69h-2.38v11.45h2.76v-7.25a9.91 9.91 0 011.34-1.54 2 2 0 011.34-.56c.93 0 1.4.63 1.4 1.88v7.47H82v-7.69a5.75 5.75 0 00-.22-1.66 3.6 3.6 0 00-.64-1.26zm13.2.46A3.72 3.72 0 0093 11.64a3.92 3.92 0 00-1.81-.41 4.45 4.45 0 00-1.14.14 4 4 0 00-.95.39 4.3 4.3 0 00-.81.61 8.07 8.07 0 00-.73.8l-.07-1.69h-2.36v15.93h2.75v-4.47a5.72 5.72 0 00.78.14 6.22 6.22 0 00.86.06 7.17 7.17 0 002.36-.37 5 5 0 001.87-1.12A5.16 5.16 0 0095 19.73a7.64 7.64 0 00.44-2.73 9.3 9.3 0 00-.28-2.4 5.54 5.54 0 00-.82-1.81zm-2 5.94a3.58 3.58 0 01-.58 1.21 2.65 2.65 0 01-.91.76 2.52 2.52 0 01-1.19.28 6.37 6.37 0 01-1-.08 4.29 4.29 0 01-.81-.21v-5a10.46 10.46 0 011.35-1.54 2 2 0 011.34-.56 1.6 1.6 0 011.46.82 3.53 3.53 0 01.39 1.1 8.24 8.24 0 01.13 1.61 5.77 5.77 0 01-.17 1.6zm13.87-6.53a4.17 4.17 0 00-1.51-.73 8.72 8.72 0 00-2.19-.24 11 11 0 00-2.24.22 10.77 10.77 0 00-1.9.54v2.2a10.1 10.1 0 011.92-.65 8.35 8.35 0 012-.23 3.71 3.71 0 011.08.13 1.91 1.91 0 01.72.39 1.48 1.48 0 01.4.6 2.47 2.47 0 01.12.79v.69h-1.5a10.08 10.08 0 00-2.48.28 5.55 5.55 0 00-1.75.78 3.2 3.2 0 00-1 1.19 3.28 3.28 0 00-.35 1.5 4.44 4.44 0 00.23 1.44 3.11 3.11 0 00.69 1.12 3.33 3.33 0 001.11.72 4.34 4.34 0 001.55.26 5.78 5.78 0 001.22-.13 4.65 4.65 0 001-.37 4.32 4.32 0 00.87-.56 8.29 8.29 0 00.76-.7l.07 1.5h2.35v-7.84a4.66 4.66 0 00-.28-1.7 3 3 0 00-.88-1.21zm-1.6 7.21a8.39 8.39 0 01-1.36 1.19 2.18 2.18 0 01-1.2.42 1.86 1.86 0 01-1.23-.37 1.29 1.29 0 01-.45-1.06 1.66 1.66 0 01.14-.66 1.37 1.37 0 01.45-.55 2.15 2.15 0 01.79-.37 4.38 4.38 0 011.18-.14h1.68zm15.12-6.62a3.67 3.67 0 00-1.33-1.15 3.88 3.88 0 00-1.8-.41 4.45 4.45 0 00-1.14.14 4 4 0 00-1 .39 4.71 4.71 0 00-.82.61 8 8 0 00-.72.8l-.07-1.69h-2.38v15.92h2.75v-4.47a5.21 5.21 0 00.78.14 6.11 6.11 0 00.86.06 7.11 7.11 0 002.35-.37 5 5 0 001.88-1.12 5.27 5.27 0 001.24-1.92 7.41 7.41 0 00.45-2.72 9.76 9.76 0 00-.28-2.4 5.75 5.75 0 00-.76-1.82zm-2 5.94a3.78 3.78 0 01-.58 1.21 2.68 2.68 0 01-.92.76 2.46 2.46 0 01-1.19.28 6.24 6.24 0 01-1-.08 4.29 4.29 0 01-.81-.21v-5a9.91 9.91 0 011.35-1.54 2 2 0 011.34-.56 1.6 1.6 0 011.46.82 3.53 3.53 0 01.38 1.1 7.47 7.47 0 01.14 1.61 6.17 6.17 0 01-.15 1.6zm14.75-6.31a2.84 2.84 0 00-1.12-.89 3.78 3.78 0 00-1.54-.3 4.81 4.81 0 00-1.17.14 3.72 3.72 0 00-1 .39 4.22 4.22 0 00-.79.6 4.51 4.51 0 00-.64.79l-.1-1.67h-2.49v11.45h2.82v-7.25a7.19 7.19 0 011.49-1.69 2.09 2.09 0 011.25-.5 1.35 1.35 0 01.62.14 1.11 1.11 0 01.46.43 2.2 2.2 0 01.27.74 4.58 4.58 0 01.06 1.09h2.77a7.53 7.53 0 00-.19-2 3.85 3.85 0 00-.68-1.48zm7.09-2.81a1.75 1.75 0 00.57.39 1.9 1.9 0 001.43 0 1.75 1.75 0 00.57-.39 1.7 1.7 0 00.37-.57 1.8 1.8 0 000-1.39 1.85 1.85 0 00-.37-.58 1.92 1.92 0 00-.57-.39 1.9 1.9 0 00-1.43 0 1.92 1.92 0 00-.57.39 1.72 1.72 0 00-.38.58 1.8 1.8 0 000 1.39 1.59 1.59 0 00.4.56zm2.85 1.87h-6.05v2.14h3.23v7.17H136v2.14h9.76V20.8h-3.31zm16.49 0h-3.44l-4 4.85V7h-2.75v15.94h2.75v-5.73l4.23 5.73h3.6l-5-6.24zm11.65 1.93a3 3 0 00-.87-1.21 4.17 4.17 0 00-1.51-.73 8.72 8.72 0 00-2.19-.24 10.81 10.81 0 00-2.23.22 10.3 10.3 0 00-1.9.54v2.2a9.78 9.78 0 011.91-.65 8.35 8.35 0 012-.23 3.71 3.71 0 011.08.13 1.91 1.91 0 01.72.39 1.48 1.48 0 01.4.6 2.47 2.47 0 01.12.79v.69h-1.5a9.94 9.94 0 00-2.47.28 5.51 5.51 0 00-1.76.78 3.2 3.2 0 00-1 1.19 3.28 3.28 0 00-.35 1.5 4.18 4.18 0 00.24 1.44 3 3 0 00.68 1.12 3.33 3.33 0 001.11.72 4.34 4.34 0 001.55.26 5.78 5.78 0 001.22-.13 4.65 4.65 0 001-.37 4.32 4.32 0 00.87-.56 7.16 7.16 0 00.76-.7l.07 1.5h2.35v-7.84a4.66 4.66 0 00-.28-1.7zm-2.47 6a8 8 0 01-1.36 1.19 2.18 2.18 0 01-1.2.42 1.86 1.86 0 01-1.23-.37 1.29 1.29 0 01-.45-1.06 1.66 1.66 0 01.14-.66 1.56 1.56 0 01.45-.55 2.15 2.15 0 01.79-.37 4.38 4.38 0 011.18-.14h1.68z" fill="#333" fill-rule="evenodd" id="coinpaprika_copy_7-2" data-name="coinpaprika copy 7"/></g></g></svg>