<svg width="250" height="250" xmlns="http://www.w3.org/2000/svg" fill="none">
 <g>
  <title>Coinpaprika</title>
  <circle id="svg_1" fill="#ffffff" r="125" cy="125" cx="125"/>
  <g>

   <g data-name="Layer 2" id="svg_61">
    <g isolation="isolate" class="cls-1" data-name="Shape 6 copy 12" id="svg_66">
     <path data-name="Shape 6 copy 12" id="svg_67" fill="#ca312c" fill-rule="evenodd" d="m202.67507,99.02461a25.67484,25.67484 0 0 0 -6.2853,-10.67314c-13.10425,-14.58663 -25.14118,-20.10109 -45.06438,-10.85103l-1.00802,0a17.13632,17.13632 0 0 0 -15.89112,12.92636c-7.35261,21.1684 -15.23888,42.09962 -22.94726,63.09013c-1.12661,1.54168 -2.25322,3.08335 -3.43912,4.56573c-14.11227,10.37667 -27.75017,20.04179 -47.43619,11.85905c-7.17472,-2.90547 -18.85589,-2.01604 -12.74848,12.62989a7.82697,7.82697 0 0 0 2.96476,4.9215a23.7181,23.7181 0 0 0 6.46318,4.9215c27.4537,17.78857 57.51638,21.70206 86.51175,7.70838c32.90886,-15.83183 56.86413,-40.85442 59.29524,-80.10787a57.87215,57.87215 0 0 0 -0.41507,-20.99051z"/>
    </g>
    <g isolation="isolate" class="cls-1" data-name="Shape 7 copy 12" id="svg_64">
     <path data-name="Shape 7 copy 12" id="svg_65" fill-rule="evenodd" fill="#91b949" d="m190.93461,78.33057a112.66095,112.66095 0 0 1 1.77886,-16.30619c1.66027,-14.11227 -5.92952,-20.21968 -11.85905,-20.57545a19.9825,19.9825 0 0 0 -15.35747,5.92952a5.51446,5.51446 0 0 0 -0.65225,7.4712c2.78688,2.90547 5.21798,2.84617 6.81895,-3.20194c2.66829,-9.78371 14.05297,0 13.6972,4.9808c-0.59295,9.9616 -7.76768,13.6972 -14.05297,17.78857s-12.39271,4.9808 -22.65078,8.47922a3.37983,3.37983 0 0 0 -0.35577,5.92952a25.31907,25.31907 0 0 0 7.88627,0c8.36063,-1.36379 10.91032,1.12661 13.51931,9.36865a26.62356,26.62356 0 0 1 16.2469,-2.25322c5.51446,2.01604 5.57375,5.39587 7.4712,7.76768a2.37181,2.37181 0 0 0 3.14265,-2.37181a42.87046,42.87046 0 0 1 -5.63305,-23.00655z"/>
    </g>
   </g>
  </g>
 </g>
</svg>