<svg width="32" height="32" viewBox="0 0 32 32" fill="none" xmlns="http://www.w3.org/2000/svg">
<g clip-path="url(#clip0_8596_191369)">
<rect width="32" height="32" rx="16" fill="white"/>
<path d="M7.07158 20.0394C5.89653 18.9578 5.30901 17.6125 5.30901 16.0036C5.30901 14.4228 5.88245 13.0839 7.03062 12.0023C8.17815 10.9136 9.59576 10.3658 11.2687 10.3658C12.0227 10.3658 12.8175 10.4976 13.647 10.7472L14.1654 8.77088C13.1491 8.47263 12.1539 8.32031 11.1785 8.32031C8.98008 8.32031 7.09974 9.06912 5.53685 10.5674C3.98164 12.072 3.2002 13.8749 3.2002 15.9767C3.2002 18.1194 3.99508 19.9498 5.57845 21.4686C6.91286 22.7447 8.47511 23.4724 10.2658 23.6804L10.8054 21.6279C9.33208 21.5025 8.08791 20.9751 7.07158 20.0394Z" fill="#292D3E"/>
<path d="M24.9006 8.77734H24.7764L20.3591 19.3873L17.8977 13.507L17.1162 16.4888L20.1306 23.6798H20.601L24.4795 14.4638L26.8712 23.6798H27.611H28.8001L24.9006 8.77734Z" fill="#292D3E"/>
<path d="M11.8906 23.6798H13.7921L17.0132 11.3918L15.9143 8.77734H15.7966L11.8906 23.6798Z" fill="#757CA1"/>
</g>
<defs>
<clipPath id="clip0_8596_191369">
<rect width="32" height="32" rx="16" fill="white"/>
</clipPath>
</defs>
</svg>
