<svg width="32" height="32" viewBox="0 0 32 32" fill="none" xmlns="http://www.w3.org/2000/svg">
<g clip-path="url(#clip0_8596_184117)">
<rect width="32" height="32" rx="16" fill="white"/>
<path d="M5.375 22.133L8.91463 20.0879L12.4543 22.133L8.91463 24.1781L5.375 22.133Z" fill="#49FF87"/>
<path d="M8.91553 7.83789L12.4552 9.86336V22.1341L8.91553 20.0889V7.83789Z" fill="#33B05D"/>
<path d="M8.91463 7.83789L5.375 9.86336V22.134L8.91463 20.0889V7.83789Z" fill="#41E278"/>
<path d="M15.9916 3.73242L15.9929 7.8204L12.452 9.86327L12.4507 5.77528L15.9916 3.73242Z" fill="#49FF87"/>
<path d="M26.6076 13.9459L26.6234 9.86778L15.9966 3.73242L15.9976 7.82025L26.6076 13.9459Z" fill="#41E278"/>
<path d="M26.6067 13.9457L23.0828 15.9984L12.4561 9.86306L12.4565 9.86222L15.9972 7.82031L26.6067 13.9457Z" fill="#33B05D"/>
<path d="M23.0843 16L23.083 20.088L26.6239 22.1308L26.6253 18.0429L23.0843 16Z" fill="#49FF87"/>
<path d="M12.4722 26.2134L15.9961 28.2661L26.6229 22.1307L23.0821 20.0879L12.4722 26.2134Z" fill="#33B05D"/>
<path d="M12.4718 26.2132L12.4561 22.1351L23.0824 16L23.0811 20.0877L12.4718 26.2132Z" fill="#41E278"/>
</g>
<defs>
<clipPath id="clip0_8596_184117">
<rect width="32" height="32" rx="16" fill="white"/>
</clipPath>
</defs>
</svg>
