<?xml version="1.0" encoding="UTF-8" standalone="no"?>
<svg
   viewBox="-5960 20 157.737 40"
   class="light"
   version="1.1"
   id="svg25"
   sodipodi:docname="dxfeed.svg"
   inkscape:version="1.1-alpha (17bc9184, 2021-03-28)"
   xmlns:inkscape="http://www.inkscape.org/namespaces/inkscape"
   xmlns:sodipodi="http://sodipodi.sourceforge.net/DTD/sodipodi-0.dtd"
   xmlns="http://www.w3.org/2000/svg"
   xmlns:svg="http://www.w3.org/2000/svg">
  <sodipodi:namedview
     id="namedview27"
     pagecolor="#ffffff"
     bordercolor="#666666"
     borderopacity="1.0"
     objecttolerance="10.0"
     gridtolerance="10.0"
     guidetolerance="10.0"
     inkscape:pageshadow="2"
     inkscape:pageopacity="0.0"
     inkscape:pagecheckerboard="0"
     showgrid="false"
     inkscape:zoom="7.246239"
     inkscape:cx="8.5561627"
     inkscape:cy="21.597411"
     inkscape:window-width="1793"
     inkscape:window-height="1003"
     inkscape:window-x="44"
     inkscape:window-y="25"
     inkscape:window-maximized="0"
     inkscape:current-layer="logo-dxFeed-white" />
  <defs
     id="defs11">
    <style
       id="style9">.cls-1{fill:#000}</style>
  </defs>
  <g
     id="logo-dxFeed-white"
     transform="translate(-6220 5)">
    <g
       id="Group_82"
       data-name="Group 82"
       transform="translate(331.193 23.659)">
      <path
         id="Path_116"
         d="M149.915 37.182a4.5 4.5 0 01-3.838-1.919A8.7 8.7 0 01144.7 30a8.853 8.853 0 011.427-5.314 4.97 4.97 0 017.921.1h.148a15.056 15.056 0 01-.3-2.755V17.6h3.788v19.287h-2.9l-.738-1.82h-.146a4.416 4.416 0 01-3.985 2.115zm1.328-3a2.566 2.566 0 002.116-.836 4.981 4.981 0 00.738-2.854V30.1a5.817 5.817 0 00-.689-3.2 2.513 2.513 0 00-2.214-.984A2.221 2.221 0 00149.226 27a6.028 6.028 0 00-.689 3.1 5.478 5.478 0 00.689 3.05 2.253 2.253 0 002.018 1.031z"
         class="cls-1"
         data-name="Path 116"
         transform="translate(-144.7 -17.6)" />
      <path
         id="Path_117"
         d="M180.025 35.49l-4.477-6.79h4.28l2.706 4.428 2.706-4.428h4.28l-4.477 6.79 4.723 7.085h-4.28l-2.9-4.772-2.9 4.772H175.4z"
         class="cls-1"
         data-name="Path 117"
         transform="translate(-160.295 -23.239)" />
      <path
         id="Path_118"
         d="M212.888 38.206H209.1V20.1h10.381v3.149h-6.593v4.674h6.15v3.149h-6.15v7.134z"
         class="cls-1"
         data-name="Path 118"
         transform="translate(-177.415 -18.87)" />
      <path
         id="Path_119"
         d="M240.685 42.516a7.116 7.116 0 01-5.215-1.87 6.848 6.848 0 01-1.87-5.215 7.935 7.935 0 011.722-5.412 6.192 6.192 0 014.822-1.919 6.02 6.02 0 014.576 1.673 6.387 6.387 0 011.624 4.625v1.82h-8.954a3.629 3.629 0 00.935 2.509 3.394 3.394 0 002.509.886 11.991 11.991 0 002.362-.246 9.418 9.418 0 002.312-.836v2.9a7.709 7.709 0 01-2.116.738 7.238 7.238 0 01-2.707.347zm-.541-11.661a2.409 2.409 0 00-1.87.738 3.464 3.464 0 00-.787 2.165h5.313a2.96 2.96 0 00-.738-2.165 2.6 2.6 0 00-1.918-.738z"
         class="cls-1"
         data-name="Path 119"
         transform="translate(-189.861 -22.934)" />
      <path
         id="Path_120"
         d="M270.785 42.516a7.116 7.116 0 01-5.215-1.87 6.848 6.848 0 01-1.87-5.215 7.935 7.935 0 011.722-5.412 6.192 6.192 0 014.822-1.919 6.019 6.019 0 014.576 1.673 6.387 6.387 0 011.624 4.625v1.82h-8.955a3.629 3.629 0 00.935 2.509 3.394 3.394 0 002.509.886 11.991 11.991 0 002.362-.246 9.418 9.418 0 002.312-.836v2.9a7.709 7.709 0 01-2.116.738 7.239 7.239 0 01-2.706.347zm-.541-11.661a2.409 2.409 0 00-1.87.738 3.464 3.464 0 00-.787 2.165h5.313a2.96 2.96 0 00-.738-2.165 2.52 2.52 0 00-1.918-.738z"
         class="cls-1"
         data-name="Path 120"
         transform="translate(-205.151 -22.934)" />
      <path
         id="Path_121"
         d="M299.415 37.182a4.5 4.5 0 01-3.838-1.919A8.7 8.7 0 01294.2 30a8.853 8.853 0 011.427-5.314 4.97 4.97 0 017.921.1h.148a15.056 15.056 0 01-.3-2.755V17.6h3.788v19.287h-2.9l-.738-1.82h-.146a4.416 4.416 0 01-3.985 2.115zm1.328-3a2.566 2.566 0 002.116-.836 4.981 4.981 0 00.738-2.854V30.1a5.817 5.817 0 00-.689-3.2 2.513 2.513 0 00-2.214-.984A2.221 2.221 0 00298.726 27a6.028 6.028 0 00-.689 3.1 5.477 5.477 0 00.689 3.05 2.253 2.253 0 002.018 1.031z"
         class="cls-1"
         data-name="Path 121"
         transform="translate(-220.645 -17.6)" />
    </g>
    <path
       id="Path_122"
       d="M23.329 16.581h4.379v-3.346L12.259 4.674h15.449V0H.5v16.581h4.674V6.347l.1.049z"
       class="cls-1"
       data-name="Path 122"
       transform="translate(259.746 15)" />
    <path
       id="Path_123"
       d="M92.106 16.581V0H64.8v4.674h15.449L64.8 13.235v3.346h4.428L87.383 6.3v10.281z"
       class="cls-1"
       data-name="Path 123"
       transform="translate(227.082 15)"
       style="fill:#e6411d;fill-opacity:1" />
    <path
       id="Path_124"
       d="M80.938 53.657H64.8v4.674h27.306V41.8h-4.723v9.84l-.049-.049L69.917 41.8H64.8v2.9z"
       class="cls-1"
       data-name="Path 124"
       transform="translate(227.082 -6.234)" />
    <path
       id="Path_125"
       d="M0 41.7v4.772h15.99L0 55.378v5.806l22.534-12.6v9.746h4.772V41.7z"
       data-name="Path 125"
       transform="translate(260 -6.183)"
       fill="#e6411d" />
    <path
       style="fill:#e6411d;fill-opacity:1;stroke-width:0.427808;stroke-miterlimit:9"
       d="m 32.016609,34.776661 v -2.277043 h 8.004152 c 4.402284,0 8.002046,-0.04658 7.999474,-0.103502 -0.0026,-0.05693 -3.603809,-2.09074 -8.002746,-4.519586 l -7.998067,-4.416084 -0.0014,-1.414527 -0.0014,-1.414527 h 2.469079 2.469079 l 8.708614,4.899094 c 4.789738,2.694501 8.739898,4.899093 8.778136,4.899093 0.03824,0 0.06952,-2.204592 0.06952,-4.899093 v -4.899094 h 2.277043 2.277043 v 8.211157 8.211156 H 45.540866 32.016609 Z"
       id="path937"
       transform="translate(260,15)" />
    <path
       style="fill:#e6411d;fill-opacity:1;stroke-width:0.427808;stroke-miterlimit:9"
       d="M 0.27600525,8.2801575 V 0.06900131 H 13.800262 27.32452 V 2.3460446 4.6230879 l -7.693647,0.00439 c -6.525466,0.00372 -7.655982,0.032952 -7.445592,0.1925062 0.13643,0.1034643 3.597945,2.0421513 7.692257,4.308193 l 7.444202,4.1200769 0.0014,1.621531 0.0014,1.621531 H 25.205702 23.086883 L 14.130991,11.436868 C 9.2052499,8.6569223 5.0974719,6.3525345 5.0025951,6.3160057 4.8664985,6.263607 4.8300919,7.3303423 4.8300919,11.370452 v 5.120862 H 2.5530486 0.27600525 Z"
       id="path976"
       transform="translate(260,15)" />
    <path
       style="fill:#313035;fill-opacity:1;stroke-width:0.427808;stroke-miterlimit:9"
       d="M 0.03159266,37.047312 0.06900131,34.249107 8.0351898,29.820795 c 4.3814042,-2.435572 7.9677482,-4.474888 7.9696522,-4.531814 0.0019,-0.05693 -3.598406,-0.103502 -8.0006898,-0.103502 H 0 v -2.277043 -2.277044 h 13.593259 13.593258 v 8.211157 8.211156 H 24.909474 22.63243 v -4.830092 c 0,-2.709067 -0.05362,-4.830092 -0.122113,-4.830092 -0.06716,0 -5.070284,2.766977 -11.118047,6.148839 -6.0477644,3.381861 -11.08641879,6.18356 -11.19701038,6.225998 -0.17276574,0.0663 -0.19580876004,-0.316805 -0.16366696,-2.721046 z"
       id="path1052"
       transform="translate(260,15)" />
    <path
       style="fill:#313035;fill-opacity:1;stroke-width:0.427808;stroke-miterlimit:9"
       d="m 86.527646,27.875203 c 0,-0.03868 0.993619,-1.594451 2.208042,-3.457267 1.214423,-1.862816 2.208042,-3.4418 2.208042,-3.508852 0,-0.06705 -0.962569,-1.582365 -2.139041,-3.36736 -1.176472,-1.784995 -2.139041,-3.279423 -2.139041,-3.320951 0,-0.04153 0.896185,-0.0755 1.991521,-0.0755 h 1.991521 l 1.342863,2.208042 c 0.738575,1.214423 1.387152,2.208042 1.441283,2.208042 0.05413,0 0.703917,-0.993619 1.443968,-2.208042 l 1.345548,-2.208042 h 1.983777 c 1.091077,0 1.983781,0.04246 1.983781,0.09436 0,0.0519 -0.962573,1.543719 -2.139045,3.315151 -1.176473,1.771432 -2.139041,3.282062 -2.139041,3.356956 0,0.0749 1.024912,1.672611 2.277581,3.55048 l 2.277585,3.414309 -1.891432,0.03858 c -1.040286,0.02122 -1.958539,0.01282 -2.040564,-0.01865 -0.08203,-0.03148 -0.79284,-1.12008 -1.57959,-2.419122 -0.78675,-1.299041 -1.446764,-2.361892 -1.4667,-2.361892 -0.01994,0 -0.698538,1.08677 -1.508006,2.415046 l -1.471761,2.415045 h -1.990646 c -1.094855,0 -1.990645,-0.03165 -1.990645,-0.07033 z"
       id="path1202"
       transform="translate(260,15)" />
    <path
       style="fill:#313035;fill-opacity:1;stroke-width:0.427808;stroke-miterlimit:9"
       d="m 75.396871,28.085833 c -1.389168,-0.294248 -2.503235,-1.213435 -3.209506,-2.648074 -0.6051,-1.229133 -0.834137,-2.164598 -0.923366,-3.771347 -0.184061,-3.314378 1.04259,-6.196724 3.071196,-7.216599 1.898625,-0.954527 4.060766,-0.606091 5.599645,0.9024 0.358783,0.351698 0.690345,0.601439 0.736805,0.554979 0.04646,-0.04646 0.01684,-0.52037 -0.06582,-1.053134 -0.08266,-0.532764 -0.150293,-2.121164 -0.150293,-3.529777 V 8.7631667 h 1.794034 1.794034 v 9.5911823 9.591182 H 82.693303 81.343005 L 81.00277,27.035397 c -0.187128,-0.500574 -0.381474,-0.935651 -0.431879,-0.966835 -0.0504,-0.03119 -0.454063,0.305351 -0.897017,0.747858 -0.559304,0.55874 -1.016194,0.876629 -1.495385,1.040445 -0.85623,0.292709 -2.026076,0.389004 -2.781616,0.228968 z m 3.682778,-3.072857 c 1.155072,-0.583525 1.518191,-1.49676 1.536373,-3.863935 0.01847,-2.405126 -0.485595,-3.562116 -1.764744,-4.050628 -1.356508,-0.518055 -2.756536,-0.0052 -3.332844,1.220818 -0.88667,1.886309 -0.659353,5.29113 0.418921,6.274726 0.867637,0.791455 2.083997,0.953655 3.142294,0.419019 z"
       id="path1241"
       transform="translate(260,15)" />
    <path
       style="fill:#313035;fill-opacity:1;stroke-width:0.427808;stroke-miterlimit:9"
       d="M 102.94996,18.975361 V 10.00519 h 5.1061 5.10609 v 1.44653 1.44653 l -3.27756,0.037 -3.27756,0.037 -0.0378,2.380545 -0.0378,2.380545 h 3.10832 3.10831 v 1.518029 1.518029 h -3.10505 -3.10506 v 3.588068 3.588068 h -1.79404 -1.79403 z"
       id="path1280"
       transform="translate(260,15)" />
    <path
       style="fill:#313035;fill-opacity:1;stroke-width:0.427808;stroke-miterlimit:9"
       d="m 120.20029,28.01458 c -3.50374,-0.794828 -5.47225,-3.647306 -5.19663,-7.53019 0.21951,-3.092539 1.64076,-5.268277 4.06159,-6.217746 0.65972,-0.258747 1.06319,-0.310582 2.44606,-0.314252 1.92784,-0.0051 2.75854,0.243486 3.94354,1.180171 1.42548,1.126775 2.05269,2.591682 2.16234,5.050321 l 0.0754,1.690532 h -4.52438 -4.52439 l 0.0834,0.704152 c 0.10512,0.887554 0.64812,1.825331 1.3082,2.259292 0.79369,0.5218 1.64446,0.653454 3.1803,0.49214 1.4399,-0.151238 2.05047,-0.293791 2.99806,-0.699978 l 0.61064,-0.26175 v 1.354163 1.354163 l -0.51751,0.233091 c -1.66384,0.749411 -4.47985,1.074926 -6.10661,0.705891 z m 4.00207,-8.943122 c 0,-0.250752 -0.15896,-0.774905 -0.35324,-1.164783 -0.28822,-0.578386 -0.48373,-0.773895 -1.06212,-1.062116 -1.44853,-0.721835 -2.89019,-0.312437 -3.58529,1.018141 -0.2098,0.401594 -0.38145,0.940433 -0.38145,1.197421 v 0.46725 h 2.69105 2.69105 z"
       id="path1319"
       transform="translate(260,15)" />
    <path
       style="fill:#313035;fill-opacity:1;stroke-width:0.427808;stroke-miterlimit:9"
       d="m 135.31548,28.083522 c -2.48313,-0.44828 -4.31964,-1.975329 -5.12734,-4.263362 -0.26786,-0.758796 -0.32234,-1.190424 -0.32476,-2.573262 -0.004,-2.478585 0.50024,-4.057416 1.73596,-5.431833 2.28169,-2.537789 6.91773,-2.611997 9.22286,-0.147628 1.14995,1.229395 1.59651,2.568064 1.59651,4.785946 v 1.420033 h -4.50384 -4.50385 l 0.0885,0.645972 c 0.14281,1.04189 0.74523,1.955159 1.61313,2.445489 0.69865,0.394712 0.82974,0.420138 2.06324,0.400196 1.40719,-0.02275 2.84085,-0.295873 3.815,-0.726787 l 0.59976,-0.265303 v 1.370414 1.370415 l -0.51751,0.216853 c -1.63669,0.685825 -4.242,1.026486 -5.7577,0.752857 z m 3.65316,-9.06459 c 0,-1.602412 -1.48808,-2.729006 -3.25473,-2.464081 -1.10504,0.165712 -2.12737,1.440197 -2.12737,2.652097 v 0.320423 h 2.69105 2.69105 z"
       id="path1358"
       transform="translate(260,15)" />
    <path
       style="fill:#313035;fill-opacity:1;stroke-width:0.427808;stroke-miterlimit:9"
       d="m 148.95227,28.085833 c -1.38917,-0.294248 -2.50324,-1.213435 -3.20951,-2.648074 -0.6051,-1.229133 -0.83413,-2.164598 -0.92336,-3.771347 -0.18406,-3.314378 1.04259,-6.196724 3.07119,-7.216599 1.89863,-0.954527 4.06077,-0.606091 5.59965,0.9024 0.35878,0.351698 0.69034,0.601439 0.7368,0.554979 0.0465,-0.04646 0.0168,-0.52037 -0.0658,-1.053134 -0.0827,-0.532764 -0.15029,-2.121164 -0.15029,-3.529777 V 8.7631667 h 1.79403 1.79404 v 9.5911823 9.591182 h -1.3503 -1.3503 l -0.34023,-0.910134 c -0.18713,-0.500574 -0.38148,-0.935651 -0.43188,-0.966835 -0.0504,-0.03119 -0.45406,0.305351 -0.89702,0.747858 -0.5593,0.55874 -1.01619,0.876629 -1.49538,1.040445 -0.85623,0.292709 -2.02608,0.389004 -2.78162,0.228968 z m 3.68278,-3.072857 c 1.15507,-0.583525 1.51819,-1.49676 1.53637,-3.863935 0.0185,-2.405126 -0.48559,-3.562116 -1.76474,-4.050628 -1.35651,-0.518055 -2.75654,-0.0052 -3.33285,1.220818 -0.88673,1.886444 -0.66107,5.270576 0.41892,6.28234 0.84265,0.789413 2.07473,0.950723 3.1423,0.411405 z"
       id="path1397"
       transform="translate(260,15)" />
  </g>
</svg>
