<svg xmlns="http://www.w3.org/2000/svg" width="32" height="32" fill="none"><path fill="#F3F3F3" d="M32 16c0 8.837-7.163 16-16 16S0 24.837 0 16 7.163 0 16 0s16 7.163 16 16Z"/><path fill="#878888" d="M13.44 14.659h1.72v-1.314L9.091 9.982h6.069V8.146H4.472v6.513h1.836v-4.02l.038.02 7.094 4ZM27.626 14.659V8.146H16.9v1.836h6.07l-6.07 3.363v1.314h1.74l7.132-4.04v4.04h1.855ZM23.239 20.882h-6.34v1.836h10.727v-6.494h-1.855v3.865l-.02-.02-6.841-3.845H16.9v1.14l6.339 3.518Z"/><path fill="#F4511E" d="M4.375 16.206v1.875h6.282l-6.282 3.498v2.28l8.852-4.947v3.827h1.875v-6.533H4.375Z"/></svg>