<svg width="250" height="250" xmlns="http://www.w3.org/2000/svg" version="1.1" fill="none">

 <g>
  <title>dxFeed</title>
  <g>
   <g>
    <circle cx="125" cy="125" r="125" fill="#ffffff" id="svg_1"/>
   </g>
  </g>
  <path stroke-width="2.57622" fill="#000000" data-name="Path 122" class="cls-1" d="m107.5416,120.02393l11.28128,0l0,-8.62004l-39.80006,-22.05505l39.80006,0l0,-12.04126l-70.09387,0l0,42.71635l12.04127,0l0,-26.36506l0.25762,0.12623l46.5137,26.23883z" id="Path_122"/>
  <path stroke-width="2.57622" fill="#e6411d" data-name="Path 123" class="cls-1" d="m200.57674,120.02393l0,-42.71635l-70.34634,0l0,12.04126l39.80007,0l-39.80007,22.05505l0,8.62004l11.40751,0l46.77133,-26.48615l0,26.48615l12.1675,0z" id="Path_123"/>
  <path stroke-width="2.57622" fill="#000000" data-name="Path 124" class="cls-1" d="m171.80548,160.83645l-41.57508,0l0,12.04127l70.34634,0l0,-42.58754l-12.1675,0l0,25.35003l-0.12624,-0.12623l-44.87007,-25.2238l-13.18253,0l0,7.47105l41.57508,23.07522z" id="Path_124"/>
  <path stroke-width="2.57622" fill="#e6411d" data-name="Path 125" d="m48.09526,130.16394l0,12.29374l41.1938,0l-41.1938,22.94384l0,14.95755l58.05261,-32.46041l0,25.10787l12.29373,0l0,-42.84259l-70.34634,0z" id="Path_125"/>
  <path stroke-miterlimit="9" stroke-width="1.10213" fill="#e6411d" id="path937" d="m130.57718,166.90001l0,-5.86617l20.62048,0c11.34125,0 20.61506,-0.12005 20.60842,-0.26664c-0.008,-0.14658 -9.2842,-5.38621 -20.61685,-11.64347l-20.60481,-11.3768l-0.003,-3.64415l-0.003,-3.64414l6.3609,0l6.3609,0l22.43532,12.62117c12.33944,6.94163 22.51593,12.62115 22.61445,12.62115c0.0984,0 0.17904,-5.67952 0.17904,-12.62115l0,-12.62117l5.86617,0l5.86618,0l0,21.15378l0,21.15375l-34.84153,0l-34.84151,0l-0.00116,-5.86616z"/>
  <path stroke-miterlimit="9" stroke-width="1.10213" fill="#e6411d" id="path976" d="m48.80632,98.63912l0,-21.15378l34.84149,0l34.84151,0l0,5.86616l0,5.86619l-19.82056,0.0103c-16.81104,0.01031 -19.72351,0.08476 -19.1815,0.49592c0.35147,0.26657 9.26912,5.26106 19.81697,11.09889l19.17792,10.61422l0.003,4.17744l0.003,4.17743l-5.45861,0l-5.45855,0l-23.07321,-13.02139c-12.68981,-7.16177 -23.27236,-13.09839 -23.51677,-13.19248c-0.35062,-0.13499 -0.44442,2.61314 -0.44442,13.02137l0,13.19247l-5.86616,0l-5.86617,0l0.00206,-21.15274z"/>
  <path stroke-miterlimit="9" stroke-width="1.10213" fill="#313035" id="path1052" d="m48.17664,172.74971l0.09635,-7.20879l20.52268,-11.40834c11.28747,-6.27457 20.5267,-11.52829 20.5316,-11.67495c0.0052,-0.14659 -9.27028,-0.26664 -20.61156,-0.26664l-20.62047,0l0,-5.86616l0,-5.86619l35.01926,0l35.01927,0l0,21.15378l0,21.15375l-5.86619,0l-5.86616,0l0,-12.44339c0,-6.97914 -0.13809,-12.44339 -0.31458,-12.44339c-0.17313,0 -13.0622,7.12836 -28.64258,15.84078c-15.58038,8.71243 -28.56109,15.93023 -28.84599,16.03957c-0.44509,0.1708 -0.50445,-0.81618 -0.42165,-7.01003l0.00002,0z"/>
 </g>
</svg>