<svg xmlns="http://www.w3.org/2000/svg" width="32" height="32" fill="none"><path fill="#F3F3F3" d="M0 16C0 7.163 7.163 0 16 0s16 7.163 16 16-7.163 16-16 16S0 24.837 0 16Z"/><path fill="#6944FD" fill-rule="evenodd" d="M23.61 8.358c.356.607.151 1.387-.456 1.742l-9.198 5.378-.01 12.21a1.274 1.274 0 1 1-2.547-.002l.01-12.94c0-.452.24-.87.631-1.098L21.868 7.9a1.274 1.274 0 0 1 1.743.457Z" clip-rule="evenodd"/><path fill="#6944FD" fill-rule="evenodd" d="M21.801 3.678c.351.61.142 1.388-.468 1.74L8.87 12.594V24.48a1.274 1.274 0 0 1-2.548 0v-12.62c0-.456.244-.876.638-1.104L20.062 3.21a1.274 1.274 0 0 1 1.74.468ZM25.516 13.325c.344.614.126 1.39-.487 1.734l-6.004 3.37v6.097a1.274 1.274 0 1 1-2.547 0v-6.842c0-.46.248-.885.65-1.11l6.654-3.736a1.274 1.274 0 0 1 1.734.487Z" clip-rule="evenodd"/></svg>