<svg xmlns="http://www.w3.org/2000/svg" width="958" height="188" viewBox="0 0 958 188" fill="none" class="light">
<path fill-rule="evenodd" clip-rule="evenodd" d="M173.135 102.291L173.852 154.806H197.99C198.311 142.014 198.71 129.222 199.185 116.43L206.594 113.804C210.898 112.188 220.06 110.909 234.078 109.966L254.153 108.956V88.7584L242.686 88.1525C235.186 87.9374 227.681 88.2411 220.22 89.0614C211.296 89.9366 205.321 90.9128 202.296 91.9901C201.804 92.3346 201.209 92.4784 200.623 92.394C199.346 92.2594 198.948 88.4218 199.428 80.8812L199.91 68.3586C223.331 67.6853 246.752 67.0793 270.174 66.5407V46.1409L222.375 45.7369C203.734 45.6023 191.067 45.6359 184.375 45.8379C177.683 46.0399 174.178 46.5448 173.859 47.3527C173.221 48.6992 172.982 67.012 173.142 102.291H173.135ZM298.606 102.291L299.323 154.806H323.461V46.1409L311.751 45.7369C303.943 45.333 299.799 45.8715 299.319 47.3527C298.681 48.6992 298.442 67.012 298.602 102.291H298.606ZM356.918 53.6141L362.892 60.6833L363.131 106.936L363.848 153.19H387.987L388.469 118.651C388.625 112.592 388.785 106.903 388.95 101.584C389.116 96.2653 389.355 92.0911 389.667 89.0614C389.985 86.0317 390.303 84.5169 390.623 84.5169C391.579 84.5169 398.51 91.1822 411.416 104.513C430.853 123.903 442.484 135.483 446.309 139.253L461.604 154.2C469.886 153.796 478.092 153.459 486.221 153.19V44.525H462.316L461.599 81.2852C461.599 87.8832 461.48 94.0772 461.241 99.8672C461.002 105.657 460.723 110.168 460.405 113.4C460.083 116.632 459.844 118.247 459.688 118.247C458.732 118.247 450.208 110.303 434.115 94.4138C416.43 77.0436 403.763 64.5883 396.115 57.0477L382.015 43.7171H367.683C357.801 43.7171 352.543 44.1884 351.909 45.131C351.431 45.9389 353.104 48.7666 356.928 53.6141H356.918ZM571.054 48.9686C571.244 49.1424 571.407 49.3469 571.535 49.5745C573.126 51.8636 573.485 54.119 572.611 56.3408C571.737 58.5626 567.714 65.1269 560.542 76.0337C560.165 76.532 559.844 77.0741 559.586 77.6496C555.441 83.9782 548.151 95.4237 537.718 111.986C527.284 128.548 521.748 137.233 521.108 138.041C519.269 140.863 517.593 143.796 516.089 146.827C514.812 149.453 514.413 150.901 514.894 151.17C516.646 152.651 521.227 152.988 528.636 152.18C535.56 151.494 542.358 149.795 548.831 147.13C558.07 143.495 565.875 141.206 572.249 140.263C573.839 139.994 576.349 139.522 579.777 138.849C583.205 138.176 585.714 137.738 587.305 137.536C588.896 137.334 591.087 137.031 593.877 136.627C596.668 136.223 599.417 135.92 602.123 135.718C604.829 135.517 607.777 135.416 610.965 135.416C617.657 135.416 622.158 136.021 624.469 137.233C626.779 138.445 629.527 141.61 632.714 146.726C634.305 149.419 635.818 151.035 637.255 151.574C638.691 152.112 642.595 152.382 648.965 152.382C657.727 152.382 662.108 151.843 662.11 150.766C662.11 149.958 660.557 147.063 657.45 142.081C654.343 137.099 645.22 122.556 630.081 98.4534C615.581 75.6971 606.181 60.7507 601.88 53.6141L594.232 41.0914L580.848 40.6874C572.085 40.2835 567.703 40.7548 567.704 42.1013C567.704 43.1785 568.819 45.4676 571.05 48.9686H571.054ZM606.664 106.634C607.803 108.662 608.84 110.752 609.77 112.895C610.406 114.443 610.645 115.285 610.487 115.42C609.211 116.093 603.953 116.766 594.714 117.439C584.833 118.247 576.946 119.527 571.054 121.277C564.362 122.893 560.777 123.431 560.299 122.893C559.661 122.354 563.805 114.679 572.73 99.8672C575.756 95.1544 578.106 91.4851 579.781 88.8594C581.181 86.62 582.697 84.4623 584.322 82.3961C585.671 80.7129 586.627 79.7704 587.189 79.5684C587.778 79.3681 588.417 79.4041 588.982 79.6693C590.573 81.0159 594.795 87.2099 601.649 98.2514C603.556 101.214 605.226 104.008 606.66 106.634H606.664ZM717.198 53.8161C710.581 57.9903 705.522 62.2318 702.022 66.5407C698.354 70.9842 695.327 77.1783 692.94 85.1228C691.744 88.8919 690.943 92.786 690.55 96.7366C690.505 100.46 690.988 104.17 691.984 107.744C693.418 114.612 695.29 119.964 697.6 123.802C699.911 127.639 703.934 132.184 709.67 137.435C715.175 142.27 721.337 146.219 727.953 149.15C734.405 151.978 742.412 154.132 751.971 155.613C764.481 157.486 777.199 157.179 789.613 154.705C802.912 152.213 812.432 148.409 818.173 143.293C819.197 142.5 820.061 141.503 820.717 140.359C821.374 139.215 821.808 137.947 821.996 136.627C822.314 134.069 822.393 127.067 822.235 115.622L821.518 91.9901L798.814 91.5861C783.358 91.3168 775.152 91.5861 774.198 92.394C772.92 93.4713 774.035 96.7702 777.544 102.291C778.774 104.804 780.389 107.09 782.324 109.057C783.902 110.406 785.801 111.279 787.817 111.582C790.523 111.986 792.156 112.659 792.716 113.602C793.275 114.544 793.554 117.237 793.552 121.681V130.972L783.515 133.194C769.809 136.291 755.868 135.146 741.691 129.76C735.633 127.336 730.973 124.542 727.71 121.378C724.184 117.777 721.592 113.293 720.181 108.35C718.903 104.614 718.371 100.642 718.618 96.6816C718.864 92.7208 719.885 88.8553 721.615 85.3248C725.117 78.0535 731.092 72.3308 739.54 68.1566C742.996 66.3805 746.649 65.0577 750.414 64.218C753.521 63.612 758.819 63.3091 766.307 63.3091C777.779 63.1744 786.94 64.1843 793.791 66.3388L804.546 69.7724L811.477 63.1071C815.935 59.0675 818.325 56.1052 818.647 54.22C818.647 52.7389 814.185 50.1804 805.263 46.5448C800.398 44.5183 795.355 42.9962 790.206 42.0003C786.383 41.3943 779.77 41.0241 770.37 40.8894C763.958 40.5832 757.536 40.6507 751.131 41.0914C746.618 41.5967 742.171 42.6125 737.867 44.1211C730.62 46.4473 723.676 49.7037 717.192 53.8161H717.198ZM850.915 100.473L851.631 153.19H957.983V132.79L877.682 131.174L877.2 123.095C876.83 120.739 876.952 118.327 877.558 116.026C878.115 114.41 879.708 113.03 882.338 111.885C885.636 110.585 889.099 109.802 892.615 109.562C896.834 109.158 903.087 108.754 911.375 108.35L935.992 107.34V86.9406L914.482 86.5367C899.982 86.1327 890.423 86.806 885.803 88.5565C881.341 90.0376 878.673 90.1723 877.798 88.9604C876.922 87.7485 876.723 83.6416 877.2 76.6397L877.682 66.5407C903.171 66.0021 928.583 65.4635 953.916 64.9249V44.525L903.253 44.1211C883.178 43.8518 869.635 43.8518 862.624 44.1211C855.614 44.3904 851.949 44.929 851.631 45.7369C850.993 46.9488 850.754 65.1942 850.915 100.473Z" fill="#0E1012"/>
<path fill-rule="evenodd" clip-rule="evenodd" d="M124.32 39.2311C126.871 43.593 125.402 49.1966 121.04 51.747L54.9723 90.3764L54.9049 178.076C54.901 183.129 50.8017 187.222 45.7488 187.218C40.696 187.214 36.603 183.114 36.6069 178.062L36.6783 85.1182C36.6808 81.87 38.4054 78.8667 41.2094 77.2272L111.804 35.9509C116.166 33.4005 121.77 34.8691 124.32 39.2311Z" fill="#4353FF"/>
<path fill-rule="evenodd" clip-rule="evenodd" d="M111.21 5.36721C113.732 9.74588 112.227 15.3397 107.848 17.8613L18.3155 69.422V154.78C18.3155 159.833 14.2193 163.929 9.16646 163.929C4.11361 163.929 0.0174561 159.833 0.0174561 154.78V64.1331C0.0174561 60.8609 1.76504 57.8378 4.60066 56.2048L98.7164 2.00473C103.095 -0.516898 108.689 0.988536 111.21 5.36721Z" fill="#4353FF"/>
<path fill-rule="evenodd" clip-rule="evenodd" d="M137.981 74.37C140.454 78.7761 138.888 84.353 134.482 86.8265L91.3579 111.035V154.828C91.3579 159.881 87.2617 163.977 82.2089 163.977C77.156 163.977 73.0599 159.881 73.0599 154.828V105.679C73.0599 102.371 74.8457 99.3207 77.7303 97.7013L125.524 70.8708C129.93 68.3973 135.507 69.964 137.981 74.37Z" fill="#4353FF"/>
</svg>