<svg width="250" height="250" xmlns="http://www.w3.org/2000/svg" fill="none">
 <g>
  <title>Finage</title>
  <circle id="svg_1" fill="#ffffff" r="125" cy="125" cx="125"/>
  <g>
   <path fill="#4353FF" d="m179.73446,70.23086c2.551,4.3619 1.082,9.9655 -3.28,12.5159l-66.0677,38.6294l-0.0674,87.6996c-0.0039,5.053 -4.1032,9.146 -9.1561,9.142c-5.0528,-0.004 -9.1458,-4.104 -9.1419,-9.156l0.0714,-92.9438c0.0025,-3.2482 1.7271,-6.2515 4.5311,-7.891l70.5946,-41.2763c4.362,-2.5504 9.966,-1.0818 12.516,3.2802z" clip-rule="evenodd" fill-rule="evenodd"/>
   <path fill="#4353FF" d="m166.62446,36.36697c2.522,4.37867 1.017,9.97249 -3.362,12.49409l-89.5325,51.5607l0,85.358c0,5.053 -4.0962,9.149 -9.14904,9.149c-5.05285,0 -9.149,-4.096 -9.149,-9.149l0,-90.6469c0,-3.2722 1.74758,-6.2953 4.5832,-7.9283l94.11574,-54.20007c4.3786,-2.52163 9.9726,-1.01619 12.4936,3.36248z" clip-rule="evenodd" fill-rule="evenodd"/>
   <path fill="#4353FF" d="m193.39546,105.36976c2.473,4.4061 0.907,9.983 -3.499,12.4565l-43.1241,24.2085l0,43.793c0,5.053 -4.0962,9.149 -9.149,9.149c-5.0529,0 -9.149,-4.096 -9.149,-9.149l0,-49.149c0,-3.308 1.7858,-6.3583 4.6704,-7.9777l47.7937,-26.8305c4.406,-2.4735 9.983,-0.9068 12.457,3.4992z" clip-rule="evenodd" fill-rule="evenodd"/>
  </g>
 </g>
</svg>