<svg xmlns="http://www.w3.org/2000/svg" width="32" height="32" fill="none"><rect width="32" height="32" fill="#F3F3F3" rx="16"/><path fill="url(#a)" d="M3 15.67c0-.846.686-1.532 1.532-1.532h9.766a1.532 1.532 0 1 1 0 3.064H4.532A1.532 1.532 0 0 1 3 15.67Z"/><path fill="url(#b)" d="M3 19.308c0-.634.514-1.148 1.149-1.148h5.936a1.149 1.149 0 0 1 0 2.297H4.15A1.149 1.149 0 0 1 3 19.308Z"/><path fill="url(#c)" d="M3 22.276c0-.581.472-1.053 1.053-1.053h2.681a1.053 1.053 0 1 1 0 2.107h-2.68A1.053 1.053 0 0 1 3 22.277Z"/><path fill="url(#d)" d="M24.83 23.33V23.3a5.745 5.745 0 1 0-1.9-11.307 8.333 8.333 0 0 0-15.96 1.474h7.328a2.202 2.202 0 0 1 0 4.404h-3.096a1.82 1.82 0 0 1-1.117 3.255H8.745v2.203H24.83Z"/><defs><linearGradient id="a" x1="29.138" x2="3" y1="15.096" y2="23.33" gradientUnits="userSpaceOnUse"><stop stop-color="#44AE51"/><stop offset="1" stop-color="#6BB533"/></linearGradient><linearGradient id="b" x1="29.138" x2="3" y1="15.096" y2="23.33" gradientUnits="userSpaceOnUse"><stop stop-color="#44AE51"/><stop offset="1" stop-color="#6BB533"/></linearGradient><linearGradient id="c" x1="29.138" x2="3" y1="15.096" y2="23.33" gradientUnits="userSpaceOnUse"><stop stop-color="#44AE51"/><stop offset="1" stop-color="#6BB533"/></linearGradient><linearGradient id="d" x1="29.138" x2="3" y1="15.096" y2="23.33" gradientUnits="userSpaceOnUse"><stop stop-color="#44AE51"/><stop offset="1" stop-color="#6BB533"/></linearGradient></defs></svg>