<svg width="250" height="250" xmlns="http://www.w3.org/2000/svg" fill="none">

 <g>
  <title>iexCloud</title>
  <circle id="svg_1" fill="#ffffff" r="125" cy="125" cx="125"/>
  <g>
   <path fill="currentColor" d="m48.77511,67.91038l-10.18256,0l0,10.04963l10.18256,0l0,-10.04963z"/>
   <path fill="currentColor" d="m48.78096,83.05566l-10.13823,0l0,37.9121l10.13823,0l0,-37.9121z"/>
   <path fill="currentColor" d="m80.00567,97.58071c-0.7533,-4.64378 -3.89951,-7.21379 -8.64051,-7.21379c-4.51979,0 -7.88739,2.74727 -8.45457,7.21379l17.09509,0zm-9.06612,-14.96813c11.52069,0 19.39934,7.08967 19.49668,18.20283c0.00285,1.18832 -0.10076,2.37493 -0.31028,3.54469l-27.47235,0l0,0.31028c0.43422,5.45006 3.54495,8.86202 8.86199,8.86202c4.2095,0 7.08967,-1.85227 7.97599,-5.39697l10.29783,0c-1.1966,7.34658 -7.57722,13.29303 -17.53822,13.29303c-12.84114,0 -20.50685,-7.57693 -20.50685,-19.31028c0,-11.73354 7.75434,-19.49673 19.17752,-19.49673"/>
   <path fill="currentColor" d="m88.01763,83.05566l11.86636,0l7.88722,11.20167l8.06448,-11.20167l11.11307,0l-13.32871,18.60154l14.08201,19.31056l-11.86636,0l-8.72929,-11.86636l-8.59627,11.86636l-11.15731,0l14.08201,-19.31056l-13.4172,-18.60154z"/>
   <path fill="currentColor" d="m55.99989,182.08962c-11.99927,0 -19.62068,-7.7542 -19.62068,-19.4433c0,-11.83097 7.71001,-19.40819 19.66498,-19.40819c10.27111,0 16.83813,5.61876 18.33559,14.65805l-10.81163,0c-0.31048,-1.77691 -1.25106,-3.38199 -2.6493,-4.5215c-1.39824,-1.13951 -3.1604,-1.73667 -4.96326,-1.68186c-5.49451,0 -8.95071,4.43101 -8.95071,10.94465c0,6.51364 3.50051,10.9358 8.95071,10.9358c4.16517,0 6.86811,-2.43716 7.70105,-6.38091l10.72314,0c-1.32933,9.1723 -8.02024,14.8884 -18.37989,14.8884"/>
   <path fill="currentColor" d="m88.28453,129.82978l-10.44854,0l0,51.77229l10.44854,0l0,-51.77229z"/>
   <path fill="currentColor" d="m121.32286,162.6018c0,-6.42487 -3.63347,-10.94465 -9.47374,-10.94465c-5.83998,0 -9.39381,4.51979 -9.39381,10.94465c0,6.42515 3.54498,10.9358 9.39381,10.9358c5.84912,0 9.47374,-4.43101 9.47374,-10.9358zm-29.49307,0c0,-11.69795 7.92261,-19.4433 20.06386,-19.4433c12.14096,0 20.06358,7.74535 20.06358,19.4433c0,11.69795 -7.93146,19.44358 -20.06358,19.44358c-12.1324,0 -20.06386,-7.78988 -20.06386,-19.44358"/>
   <path fill="currentColor" d="m171.28085,143.60151l0,38.04509l-9.25223,0l-0.97481,-4.60827c-2.43716,2.96866 -5.76034,5.05129 -11.15731,5.05129c-7.84297,0 -15.06567,-3.988 -15.06567,-17.84821l0,-20.6399l10.45739,0l0,19.39905c0,6.7263 2.21536,10.44854 7.39111,10.44854c5.17546,0 8.19721,-4.07648 8.19721,-11.11307l0,-18.73453l10.4043,0z"/>
   <path fill="currentColor" d="m203.30527,162.73482c0,-6.51364 -3.54498,-11.03314 -9.26079,-11.03314c-5.7161,0 -9.29647,4.43101 -9.29647,10.94465c0,6.51364 3.62462,10.9358 9.29647,10.9358c5.67157,0 9.26079,-4.43101 9.26079,-10.84731zm10.31552,-32.90503l0,51.77258l-9.11921,0l-1.01905,-5.27308c-1.34332,1.82658 -3.1091,3.30092 -5.14634,4.29628c-2.03724,0.99536 -4.28515,1.48262 -6.5516,1.41982c-10.22703,0 -17.67095,-7.48845 -17.67095,-19.49668c0,-11.78644 7.48845,-19.39905 17.62671,-19.39905c5.2728,0 9.03929,2.08263 11.47616,5.17546l0,-18.53957l10.4043,0l0,0.04424z"/>
  </g>
 </g>
</svg>