<svg width="auto" height="100%" viewBox="0 0 63 40" fill="none" xmlns="http://www.w3.org/2000/svg">
<path d="M4.84261 0H1.27539V3.52065H4.84261V0Z" fill="currentColor"></path>
<path d="M4.84466 5.30579H1.29297V18.5874H4.84466V5.30579Z" fill="currentColor"></path>
<path d="M15.7835 10.3943C15.5196 8.76746 14.4174 7.86712 12.7565 7.86712C11.1731 7.86712 9.99334 8.82956 9.79464 10.3943H15.7835ZM12.6074 5.15057C16.6434 5.15057 19.4035 7.63427 19.4376 11.5275C19.4386 11.9438 19.4023 12.3595 19.3289 12.7693H9.70461V12.878C9.85673 14.7873 10.9465 15.9826 12.8092 15.9826C14.2839 15.9826 15.2929 15.3337 15.6034 14.0919H19.211C18.7918 16.6656 16.5565 18.7488 13.0669 18.7488C8.56831 18.7488 5.88281 16.0944 5.88281 11.9839C5.88281 7.87333 8.59936 5.15368 12.6012 5.15368" fill="currentColor"></path>
<path d="M18.5903 5.30579H22.7474L25.5105 9.23003L28.3357 5.30579H32.2289L27.5595 11.8224L32.4928 18.5874H28.3357L25.2776 14.4303L22.2661 18.5874H18.3574L23.2907 11.8224L18.5903 5.30579Z" fill="currentColor"></path>
<path d="M7.37364 40C3.16998 40 0.5 37.2835 0.5 33.1885C0.5 29.0438 3.20102 26.3893 7.38916 26.3893C10.9874 26.3893 13.288 28.3577 13.8126 31.5244H10.025C9.91623 30.9019 9.58672 30.3396 9.09688 29.9404C8.60704 29.5412 7.98971 29.332 7.35812 29.3512C5.43325 29.3512 4.22245 30.9035 4.22245 33.1854C4.22245 35.4673 5.44877 37.0165 7.35812 37.0165C8.81729 37.0165 9.7642 36.1627 10.056 34.7811H13.8126C13.3469 37.9944 11.0029 39.9969 7.37364 39.9969" fill="currentColor"></path>
<path d="M18.6838 21.692H15.0234V39.8292H18.6838V21.692Z" fill="currentColor"></path>
<path d="M30.258 33.1729C30.258 30.9221 28.9851 29.3387 26.9391 29.3387C24.8932 29.3387 23.6482 30.9221 23.6482 33.1729C23.6482 35.4238 24.8901 37.004 26.9391 37.004C28.9882 37.004 30.258 35.4517 30.258 33.1729ZM19.9258 33.1729C19.9258 29.0748 22.7013 26.3614 26.9547 26.3614C31.208 26.3614 33.9835 29.0748 33.9835 33.1729C33.9835 37.271 31.2049 39.9845 26.9547 39.9845C22.7044 39.9845 19.9258 37.2555 19.9258 33.1729" fill="currentColor"></path>
<path d="M47.7596 26.5166V39.8448H44.5183L44.1768 38.2304C43.323 39.2704 42.1588 40 40.2681 40C37.5205 40 34.9902 38.6029 34.9902 33.7473V26.5166H38.6537V33.3126C38.6537 35.669 39.4298 36.973 41.243 36.973C43.0561 36.973 44.1147 35.5449 44.1147 33.0798V26.5166H47.7596Z" fill="currentColor"></path>
<path d="M58.9786 33.2195C58.9786 30.9376 57.7367 29.3543 55.7343 29.3543C53.7318 29.3543 52.4775 30.9066 52.4775 33.1885C52.4775 35.4704 53.7473 37.0196 55.7343 37.0196C57.7212 37.0196 58.9786 35.4673 58.9786 33.2195ZM62.5924 21.692V39.8293H59.3977L59.0407 37.982C58.5701 38.6219 57.9515 39.1384 57.2378 39.4871C56.5241 39.8358 55.7366 40.0065 54.9426 39.9845C51.3598 39.9845 48.752 37.3611 48.752 33.1543C48.752 29.0252 51.3754 26.3583 54.9271 26.3583C56.7743 26.3583 58.0938 27.0879 58.9475 28.1714V21.6765H62.5924V21.692Z" fill="currentColor"></path>
</svg>