<svg xmlns="http://www.w3.org/2000/svg" width="32" height="32" fill="none"><rect width="32" height="32" fill="#F3F3F3" rx="16"/><path fill="url(#a)" d="m9.436 16.617 1.314-6.242H5.5l-1.362 8.172a1.5 1.5 0 0 0 .495 1.379l7.505 6.525a.375.375 0 0 0 .614-.21l.823-4.116a1.5 1.5 0 0 0-.51-1.446l-3.121-2.601a1.5 1.5 0 0 1-.508-1.461Z"/><path fill="url(#b)" d="m22.564 15.383-1.314 6.242h5.25l1.362-8.172a1.5 1.5 0 0 0-.495-1.379L19.862 5.55a.375.375 0 0 0-.614.21l-.823 4.116a1.5 1.5 0 0 0 .51 1.446l3.122 2.601a1.5 1.5 0 0 1 .507 1.461Z"/><path fill="#FEB81C" d="m5.729 9.007-1.594 9.618c.086-.5.222-1.35.615-2.25.491-1.125 1.5-2.25 3-3.375 1.123-.843 5.184-2.19 7.44-2.87.268-.081.47-.301.524-.575l.908-4.539a.375.375 0 0 0-.49-.428L6.72 7.834c-.52.18-.901.63-.991 1.173ZM26.273 22.994l1.534-9.244c-.087.5-.162.975-.555 1.875-.492 1.125-1.5 2.25-3 3.375-1.124.843-5.184 2.19-7.441 2.87a.755.755 0 0 0-.523.575l-.908 4.539a.375.375 0 0 0 .49.428l9.412-3.246c.52-.18.9-.63.99-1.172Z"/><defs><linearGradient id="a" x1="13" x2="7.375" y1="27.25" y2="10.375" gradientUnits="userSpaceOnUse"><stop stop-color="#FB9D22"/><stop offset="1" stop-color="#FF6A1F"/></linearGradient><linearGradient id="b" x1="19" x2="24.625" y1="4.75" y2="21.625" gradientUnits="userSpaceOnUse"><stop stop-color="#FB9D22"/><stop offset="1" stop-color="#FF6A1F"/></linearGradient></defs></svg>