<svg xmlns="http://www.w3.org/2000/svg" width="135" height="48" viewBox="0 0 135 48" fill="none" class="light">
<g clip-path="url(#clip0_3385_11165)">
<path d="M0.0471191 23.1115L2.89782 8.07941C3.06735 7.19092 3.69526 6.45941 4.54921 6.16429L19.5468 0.952661C19.9141 0.82394 20.2814 1.14103 20.2092 1.52406L18.7368 9.29754C18.7022 9.47336 18.5767 9.62092 18.4071 9.68057L10.0842 12.5878" fill="#FFB81C"/>
<path d="M8.7028 13.0681C4.22896 14.6285 0.929307 18.4556 0.0439582 23.1115C-0.122437 23.9968 0.191516 24.901 0.872795 25.4913L12.9129 35.9239C13.208 36.1782 13.6664 36.0181 13.7386 35.6351L15.2299 27.7674C15.2644 27.5916 15.1985 27.4095 15.0635 27.2902L8.38256 21.5354L10.0779 12.5878" fill="url(#paint0_linear_3385_11165)"/>
<path d="M37.9852 14.8231L35.1346 29.8552C34.965 30.7437 34.3371 31.4752 33.4832 31.7703L18.4887 36.9788C18.1214 37.1075 17.7541 36.7904 17.8263 36.4074L19.2987 28.6339C19.3333 28.4581 19.4589 28.3106 19.6284 28.2509L27.9513 25.3437" fill="#FFB81C"/>
<path d="M27.9513 25.3468L29.6466 16.3992L22.9657 10.6444C22.8276 10.5251 22.7648 10.3461 22.7993 10.1672L24.2906 2.29951C24.3628 1.91649 24.8243 1.75638 25.1163 2.01068L37.1564 12.4434C37.8377 13.0336 38.1516 13.9378 37.9852 14.8231C37.103 19.479 33.8002 23.3061 29.3264 24.8665" fill="url(#paint1_linear_3385_11165)"/>
<g clip-path="url(#clip1_3385_11165)">
<path d="M90.0701 8.76068C90.0701 7.22545 91.3259 5.96649 92.8266 5.96649C94.3273 5.96649 95.6208 7.22231 95.6208 8.76068C95.6208 10.299 94.365 11.5172 92.8266 11.5172C91.2883 11.5172 90.0701 10.2614 90.0701 8.76068Z" fill="#000046"/>
<path d="M48.0349 8.745H52.9232V21.3126C53.0613 21.0677 54.179 19.3912 54.9827 18.3457L62.1754 8.745H67.8674L59.9777 19.0772L68.8437 31.3653H63.1172L56.9732 22.672L52.9232 27.6293V31.3653H48.0349V8.745Z" fill="#000046"/>
<path d="M95.2001 13.9127H90.5222V31.3685H95.2001V13.9127Z" fill="#000046"/>
<path d="M98.7604 8.745H103.438V21.1744L109.444 13.9127H115.136L108.33 21.5229L116.288 31.3685H110.669L105.432 24.7001L103.441 27.0736V31.3685H98.7635V8.745H98.7604Z" fill="#000046"/>
<path d="M116.427 22.6374C116.427 17.5765 120.546 13.561 125.748 13.561C130.95 13.561 135.104 17.5765 135.104 22.6374C135.104 27.6984 130.985 31.7138 125.748 31.7138C120.511 31.7138 116.427 27.6984 116.427 22.6374ZM130.322 22.6374C130.322 19.9155 128.366 17.8905 125.748 17.8905C123.129 17.8905 121.173 19.9155 121.173 22.6374C121.173 25.3594 123.129 27.3844 125.748 27.3844C128.366 27.3844 130.322 25.3939 130.322 22.6374Z" fill="#000046"/>
<path d="M82.3877 13.9095V15.3129C81.1727 14.3271 79.6563 13.7211 78.0991 13.5736C75.3018 13.3036 72.426 14.572 70.5674 16.6472C69.0981 18.286 68.2849 20.4366 68.2849 22.6374C68.2849 24.8382 69.0981 26.9888 70.5674 28.6277C72.426 30.7029 75.3018 31.9713 78.0991 31.7013C79.6594 31.5537 81.1758 30.9478 82.3877 29.962V31.3622H86.962V13.9095H82.3877ZM77.6031 27.3844C74.9847 27.3844 73.0287 25.3594 73.0287 22.6374C73.0287 19.9154 74.9847 17.8904 77.6031 17.8904C80.2214 17.8904 82.1774 19.9154 82.1774 22.6374C82.1774 25.3594 80.2246 27.3844 77.6031 27.3844Z" fill="#000046"/>
<path d="M49.3064 44.7743C48.9265 44.611 48.6251 44.3818 48.4022 44.0867C48.1825 43.7947 48.06 43.4557 48.0349 43.0758H49.1086C49.14 43.3897 49.2844 43.6441 49.5482 43.8418C49.8119 44.0396 50.1572 44.1401 50.5842 44.1401C50.9798 44.1401 51.2937 44.0522 51.5229 43.8764C51.7521 43.7006 51.8651 43.4808 51.8651 43.2139C51.8651 42.9471 51.7427 42.7367 51.4978 42.6017C51.2529 42.4699 50.8762 42.338 50.3644 42.2061C49.8998 42.0837 49.5199 41.9613 49.2279 41.8357C48.936 41.7101 48.6817 41.5217 48.4744 41.2768C48.2641 41.0288 48.1605 40.7023 48.1605 40.3004C48.1605 39.9802 48.2547 39.6882 48.4462 39.4214C48.6377 39.1545 48.9077 38.9442 49.2593 38.7872C49.611 38.6302 50.0097 38.5517 50.4586 38.5517C51.1525 38.5517 51.7113 38.7275 52.1383 39.076C52.5653 39.4277 52.7944 39.908 52.8227 40.5171H51.7835C51.7615 40.1906 51.6297 39.9268 51.3879 39.7291C51.1493 39.5313 50.826 39.4308 50.421 39.4308C50.0474 39.4308 49.7491 39.5124 49.5293 39.6694C49.3096 39.8295 49.1965 40.0399 49.1965 40.2973C49.1965 40.5045 49.2625 40.6741 49.3975 40.8059C49.5293 40.9409 49.6989 41.0445 49.8998 41.1261C50.1007 41.2078 50.3833 41.2957 50.7412 41.3961C51.1901 41.5186 51.5575 41.6379 51.84 41.7572C52.1226 41.8765 52.3643 42.0523 52.5653 42.2878C52.7662 42.5232 52.8729 42.8341 52.8792 43.2139C52.8792 43.5561 52.785 43.867 52.5935 44.1401C52.402 44.4132 52.1351 44.6299 51.7867 44.7868C51.4382 44.9438 51.0426 45.0223 50.5905 45.0223C50.1101 45.0223 49.68 44.9407 49.297 44.7774H49.3064V44.7743Z" fill="#000046"/>
<path d="M63.1863 38.8374C63.5662 39.0384 63.8675 39.3429 64.0905 39.7479C64.3102 40.1529 64.4232 40.6427 64.4232 41.2235V44.9156H63.3935V41.371C63.3935 40.7463 63.2396 40.2691 62.9288 39.9363C62.6212 39.6035 62.2036 39.4402 61.6762 39.4402C61.1487 39.4402 60.7029 39.6129 60.3827 39.9614C60.0624 40.3099 59.9023 40.8091 59.9023 41.4652V44.9187H58.8725V41.3742C58.8725 40.7494 58.7187 40.2722 58.411 39.9394C58.1034 39.6066 57.6858 39.4434 57.1584 39.4434C56.6309 39.4434 56.1851 39.616 55.8649 39.9645C55.5446 40.313 55.3845 40.8122 55.3845 41.4684V44.9219H54.3453V38.6553H55.3845V39.5595C55.5917 39.233 55.868 38.9819 56.2134 38.806C56.5587 38.6302 56.9417 38.5423 57.3624 38.5423C57.8899 38.5423 58.3545 38.6616 58.7564 38.8971C59.1614 39.1326 59.4628 39.481 59.6606 39.9363C59.8364 39.4936 60.1252 39.1514 60.5302 38.9065C60.9352 38.6616 61.3842 38.5392 61.8802 38.5392C62.3763 38.5392 62.8032 38.6397 63.1831 38.8437V38.8374H63.1863Z" fill="#000046"/>
<path d="M66.1249 40.0744C66.3855 39.5909 66.7402 39.2142 67.1955 38.9473C67.6475 38.6804 68.153 38.5486 68.7118 38.5486C69.2707 38.5486 69.7385 38.6679 70.1403 38.9034C70.5453 39.1388 70.8467 39.4371 71.0445 39.795V38.6522H72.0963V44.9187H71.0445V43.7508C70.8373 44.1181 70.5328 44.4195 70.1246 44.6613C69.7165 44.8999 69.2424 45.0223 68.7024 45.0223C68.1624 45.0223 67.6413 44.8842 67.1923 44.611C66.7434 44.3379 66.3886 43.9517 66.128 43.4557C65.8674 42.9596 65.7387 42.3977 65.7387 41.7635C65.7387 41.1293 65.8674 40.561 66.128 40.0775H66.1249V40.0744ZM70.7557 40.5359C70.5642 40.1843 70.3067 39.9174 69.9834 39.729C69.66 39.5407 69.3021 39.4496 68.9128 39.4496C68.5235 39.4496 68.1687 39.5407 67.8485 39.7228C67.5282 39.9049 67.2739 40.1717 67.0824 40.5234C66.8909 40.875 66.7967 41.2863 66.7967 41.7572C66.7967 42.2281 66.8909 42.6551 67.0824 43.0099C67.2739 43.3646 67.5282 43.6346 67.8485 43.823C68.1687 44.0114 68.5235 44.1024 68.9128 44.1024C69.3021 44.1024 69.6568 44.0082 69.9834 43.823C70.3067 43.6378 70.5642 43.3646 70.7557 43.0099C70.9472 42.6551 71.0414 42.2407 71.0414 41.7697C71.0414 41.2988 70.9472 40.8844 70.7557 40.5359Z" fill="#000046"/>
<path d="M75.6785 38.8343C76.0175 38.6365 76.432 38.536 76.9186 38.536V39.6098H76.6455C75.4807 39.6098 74.8967 40.2439 74.8967 41.5092V44.9156H73.8575V38.6491H74.8967V39.6663C75.0788 39.3084 75.3394 39.0289 75.6785 38.8312V38.8343Z" fill="#000046"/>
<path d="M79.3894 39.5124V43.2014C79.3894 43.5059 79.4554 43.7226 79.5841 43.8481C79.7128 43.9737 79.9389 44.0365 80.2591 44.0365H81.0251V44.9156H80.0864C79.5056 44.9156 79.0723 44.7837 78.7835 44.5169C78.4947 44.25 78.3502 43.8105 78.3502 43.2014V39.5124H77.5371V38.6522H78.3502V36.4577H79.3894V38.6522H81.0251V39.5124H79.3894Z" fill="#000046"/>
<path d="M85.3357 40.0744C85.5963 39.5909 85.951 39.2142 86.4063 38.9473C86.8584 38.6805 87.3701 38.5486 87.9321 38.5486C88.4187 38.5486 88.8739 38.6616 89.2915 38.8845C89.7091 39.1106 90.0293 39.4057 90.2522 39.7699V36.4545H91.3039V44.9156H90.2522V43.7382C90.045 44.1119 89.7404 44.4195 89.3386 44.6581C88.9336 44.8967 88.4627 45.0192 87.9195 45.0192C87.3764 45.0192 86.8584 44.881 86.4031 44.6079C85.951 44.3348 85.5931 43.9486 85.3325 43.4526C85.072 42.9565 84.9432 42.3945 84.9432 41.7603C84.9432 41.1262 85.072 40.5579 85.3325 40.0744H85.3357ZM89.9665 40.5391C89.775 40.1874 89.5175 39.9206 89.1942 39.7322C88.8708 39.5438 88.5129 39.4528 88.1236 39.4528C87.7343 39.4528 87.3795 39.5438 87.0593 39.7259C86.7391 39.908 86.4847 40.1749 86.2932 40.5265C86.1017 40.8781 86.0075 41.2894 86.0075 41.7603C86.0075 42.2313 86.1017 42.6582 86.2932 43.013C86.4847 43.3678 86.7391 43.6378 87.0593 43.8262C87.3795 44.0145 87.7343 44.1056 88.1236 44.1056C88.5129 44.1056 88.8677 44.0114 89.1942 43.8262C89.5175 43.6409 89.775 43.3678 89.9665 43.013C90.158 42.6582 90.2522 42.2438 90.2522 41.7729C90.2522 41.302 90.158 40.8876 89.9665 40.5391Z" fill="#000046"/>
<path d="M93.0652 40.0744C93.3258 39.5909 93.6806 39.2142 94.1358 38.9473C94.5879 38.6804 95.0934 38.5486 95.6522 38.5486C96.2111 38.5486 96.6788 38.6679 97.0807 38.9034C97.4857 39.1388 97.7871 39.4371 97.9849 39.795V38.6522H99.0366V44.9187H97.9849V43.7508C97.7777 44.1181 97.4731 44.4195 97.065 44.6613C96.6569 44.8999 96.1828 45.0223 95.6428 45.0223C95.1028 45.0223 94.5816 44.8842 94.1327 44.611C93.6837 44.3379 93.329 43.9517 93.0684 43.4557C92.8078 42.9596 92.6791 42.3977 92.6791 41.7635C92.6791 41.1293 92.8078 40.561 93.0684 40.0775L93.0652 40.0744ZM97.6961 40.5359C97.5045 40.1843 97.2471 39.9174 96.9237 39.729C96.6004 39.5407 96.2424 39.4496 95.8531 39.4496C95.4638 39.4496 95.1091 39.5407 94.7888 39.7228C94.4686 39.9049 94.2143 40.1717 94.0228 40.5234C93.8313 40.875 93.7371 41.2863 93.7371 41.7572C93.7371 42.2281 93.8313 42.6551 94.0228 43.0099C94.2143 43.3646 94.4686 43.6346 94.7888 43.823C95.1091 44.0114 95.4638 44.1024 95.8531 44.1024C96.2424 44.1024 96.5972 44.0082 96.9237 43.823C97.2471 43.6378 97.5045 43.3646 97.6961 43.0099C97.8876 42.6551 97.9818 42.2407 97.9818 41.7697C97.9818 41.2988 97.8876 40.8844 97.6961 40.5359Z" fill="#000046"/>
<path d="M102.063 39.5093V43.2014C102.063 43.5059 102.129 43.7226 102.258 43.8481C102.387 43.9737 102.613 44.0365 102.933 44.0365H103.699V44.9156H102.76C102.179 44.9156 101.746 44.7837 101.457 44.5169C101.168 44.25 101.024 43.8105 101.024 43.2014V39.5093H100.211V38.6522H101.024V36.4577H102.063V38.6522H103.699V39.5093H102.063Z" fill="#000046"/>
<path d="M104.955 40.0744C105.215 39.5909 105.57 39.2142 106.025 38.9473C106.477 38.6804 106.983 38.5486 107.542 38.5486C108.1 38.5486 108.568 38.6679 108.97 38.9034C109.375 39.1388 109.677 39.4371 109.874 39.795V38.6522H110.926V44.9187H109.874V43.7508C109.667 44.1181 109.363 44.4195 108.954 44.6613C108.546 44.8999 108.072 45.0223 107.532 45.0223C106.992 45.0223 106.471 44.8842 106.022 44.611C105.573 44.3379 105.218 43.9517 104.958 43.4557C104.697 42.9596 104.568 42.3977 104.568 41.7635C104.568 41.1293 104.697 40.561 104.958 40.0775L104.955 40.0744ZM109.585 40.5359C109.394 40.1843 109.137 39.9174 108.813 39.729C108.49 39.5407 108.132 39.4496 107.743 39.4496C107.353 39.4496 106.998 39.5407 106.678 39.7228C106.358 39.9049 106.104 40.1717 105.912 40.5234C105.721 40.875 105.627 41.2863 105.627 41.7572C105.627 42.2281 105.721 42.6551 105.912 43.0099C106.104 43.3646 106.358 43.6346 106.678 43.823C106.998 44.0114 107.353 44.1024 107.743 44.1024C108.132 44.1024 108.487 44.0082 108.813 43.823C109.137 43.6378 109.394 43.3646 109.585 43.0099C109.777 42.6551 109.871 42.2407 109.871 41.7697C109.871 41.2988 109.777 40.8844 109.585 40.5359Z" fill="#000046"/>
</g>
</g>
<defs>
<linearGradient id="paint0_linear_3385_11165" x1="9.88954" y1="12.5407" x2="13.657" y2="36.0872" gradientUnits="userSpaceOnUse">
<stop stop-color="#FF671E"/>
<stop offset="1" stop-color="#FC9E21"/>
</linearGradient>
<linearGradient id="paint1_linear_3385_11165" x1="26.686" y1="-0.0174649" x2="28.0988" y2="25.4128" gradientUnits="userSpaceOnUse">
<stop stop-color="#FFB81C"/>
<stop offset="1" stop-color="#FF671E"/>
</linearGradient>
<clipPath id="clip0_3385_11165">
<rect width="135" height="46.1512" fill="white" transform="translate(0 0.924408)"/>
</clipPath>
<clipPath id="clip1_3385_11165">
<rect width="87.0687" height="39.0558" fill="white" transform="translate(48.0349 5.96649)"/>
</clipPath>
</defs>
</svg>