<svg width="250" height="250" xmlns="http://www.w3.org/2000/svg" xmlns:undefined="http://sodipodi.sourceforge.net/DTD/sodipodi-0.dtd" xmlns:undefined="http://www.inkscape.org/namespaces/inkscape" fill="none" version="1.1">
 <defs id="defs31">
  <linearGradient y2="1.00171" x2="0.89619" y1="-0.00201" x1="0.64896" id="paint0_linear_3385_11165">
   <stop id="stop75" stop-color="#FF671E"/>
   <stop id="stop77" stop-color="#FC9E21" offset="1"/>
  </linearGradient>
  <linearGradient y2="1.00281" x2="0.34837" y1="-0.0812" x1="0.25566" id="paint1_linear_3385_11165">
   <stop id="stop80" stop-color="#FFB81C"/>
   <stop id="stop82" stop-color="#FF671E" offset="1"/>
  </linearGradient>
 </defs>
 <g id="g25">
  <title id="title9">Kaiko</title>
  <g fill="#ffffff" id="g16">
   <g fill="#ffffff" id="g14">
    <circle id="svg_1" fill="#ffffff" r="125" cy="125" cx="125"/>
   </g>
  </g>
  <g transform="matrix(4.803042,0,0,4.803042,-258.57832,-370.07125)" id="g420">
   <path id="path33" fill="#ffb81c" d="m61.04582,107.39943l2.8507,-15.03209c0.16953,-0.88849 0.79744,-1.62 1.65139,-1.91512l14.99759,-5.21163c0.3673,-0.12872 0.7346,0.18837 0.6624,0.5714l-1.4724,7.77348c-0.0346,0.17582 -0.1601,0.32338 -0.3297,0.38303l-8.3229,2.90723"/>
   <path id="path35" fill="url(#paint0_linear_3385_11165)" d="m69.7015,97.35603c-4.47384,1.5604 -7.7735,5.3875 -8.65884,10.0434c-0.1664,0.8853 0.14755,1.7895 0.82883,2.3798l12.04011,10.4326c0.2951,0.2543 0.7535,0.0942 0.8257,-0.2888l1.4913,-7.8677c0.0345,-0.1758 -0.0314,-0.3579 -0.1664,-0.4772l-6.68094,-5.7548l1.69534,-8.9476"/>
   <path id="path37" fill="#ffb81c" d="m98.9839,99.11103l-2.8506,15.0321c-0.1696,0.8885 -0.7975,1.62 -1.6514,1.9151l-14.9945,5.2085c-0.3673,0.1287 -0.7346,-0.1884 -0.6624,-0.5714l1.4724,-7.7735c0.0346,-0.1758 0.1602,-0.3233 0.3297,-0.383l8.3229,-2.9072"/>
   <path id="path39" fill="url(#paint1_linear_3385_11165)" d="m88.95,109.63473l1.6953,-8.9476l-6.6809,-5.7548c-0.1381,-0.1193 -0.2009,-0.2983 -0.1664,-0.4772l1.4913,-7.86769c0.0722,-0.38302 0.5337,-0.54313 0.8257,-0.28883l12.0401,10.43272c0.6813,0.5902 0.9952,1.4944 0.8288,2.3797c-0.8822,4.6559 -4.185,8.483 -8.6588,10.0434"/>
  </g>
 </g>
</svg>