<svg width="250" height="250" xmlns="http://www.w3.org/2000/svg" fill="none">
 <g>
  <title>ncfx</title>
  <circle id="svg_1" fill="#ffffff" r="125" cy="125" cx="125"/>
  <g>
   <path fill="#504478" d="m67.11084,145.12308l0,-40.30569l-10.002,0l0,19.94447l-31.97069,-19.94447l-13.1574,0l0,40.30569l10.002,0l0,-31.13719l35.12608,22.02822l0,9.10897l10.002,0zm52.04451,-14.8244c-1.36932,4.88193 -5.29868,8.03732 -17.08675,8.03732c-13.336,0 -16.96768,-3.45307 -16.96768,-13.336c0,-9.88293 3.63168,-13.336 16.96768,-13.336c11.43086,0 15.53883,2.5005 16.84861,7.85872l9.52572,-3.03632c-3.86982,-9.70432 -11.60947,-12.91925 -26.37433,-12.91925c-18.09886,0 -27.50551,5.23914 -27.50551,21.43286c0,16.19372 9.40665,21.43286 27.50551,21.43286c14.8244,0 23.21893,-4.34611 26.55294,-13.09786l-9.46618,-3.03632z"/>
   <path fill="#F95986" d="m179.65204,131.25125l0,-8.03732l-34.35212,0l0,-10.71643l34.64979,0l0,-7.68011l-44.71133,0l0,40.30569l10.06154,0l0,-13.87182l34.35212,0zm58.3672,13.87182l-21.25426,-21.67101l20.18261,-18.63468l-12.91925,0l-13.57415,13.27647l-13.09786,-13.27647l-13.9909,0l20.24215,19.58725l-21.25426,20.71843l13.03832,0l14.52672,-14.64579l14.22904,14.64579l13.87182,0z"/>
  </g>
 </g>
</svg>