<svg xmlns="http://www.w3.org/2000/svg" width="32" height="32" fill="none"><path fill="#F3F3F3" d="M32 16c0 8.837-7.163 16-16 16S0 24.837 0 16 7.163 0 16 0s16 7.163 16 16Z"/><path fill="#6C6D6D" d="M3.43 13.746v4.531h1.15V14.92l3.772 2.37v.988h1.173v-4.53H8.352v2.023l-3.404-2.024H3.43Z"/><path fill="#F95986" d="M17.3 13.769v4.462h1.15v-1.472h3.725v-.966h-3.749v-1.104h3.75v-.92h-4.877ZM22.681 13.769h1.38l1.472 1.449 1.45-1.45h1.494l-2.185 2.07 2.277 2.416h-1.54l-1.496-1.564-1.564 1.518h-1.564l2.37-2.346-2.094-2.093Z"/><path fill="#6C6D6D" d="M15.252 16.621a1.303 1.303 0 0 1-1.242.851h-1.219a1.335 1.335 0 0 1-1.334-1.334v-.299c0-.736.598-1.334 1.334-1.334h1.219a1.36 1.36 0 0 1 1.288.966l1.012-.368a2.067 2.067 0 0 0-1.955-1.403h-1.909c-1.15 0-2.07.92-2.07 2.07v.46c0 1.15.92 2.07 2.07 2.07h1.909c.92 0 1.679-.598 1.955-1.403l-1.058-.276Z"/></svg>