<svg xmlns="http://www.w3.org/2000/svg" width="32" height="32" fill="none"><rect width="32" height="32" fill="#F3F3F3" rx="16"/><path fill="url(#a)" d="m4.5 21.75 7.321-12.812c.214-.374.61-.604 1.04-.604H16l-7.114 12.45a1.917 1.917 0 0 1-1.664.966H4.5Z"/><path fill="url(#b)" d="m27.5 10.25-7.321 12.813c-.214.373-.61.603-1.04.603H16l7.114-12.45a1.917 1.917 0 0 1 1.664-.965H27.5Z"/><path fill="url(#c)" fill-rule="evenodd" d="M12.819 8.334h-.015a1.13 1.13 0 0 0-.546.162.67.67 0 0 1 .797.277l4.267 7.467 1.577-2.76c.21-.368.21-.82 0-1.188l-1.917-3.355a1.198 1.198 0 0 0-1.04-.603h-3.123Z" clip-rule="evenodd"/><path fill="url(#d)" fill-rule="evenodd" d="m13.1 19.708 1.917 3.355c.214.373.61.603 1.04.603h3.138a1.13 1.13 0 0 0 .546-.163.671.671 0 0 1-.79-.263l-4.273-7.48-1.578 2.76c-.21.368-.21.82 0 1.188Z" clip-rule="evenodd"/><defs><linearGradient id="a" x1="14.095" x2="6.058" y1="8.565" y2="22.332" gradientUnits="userSpaceOnUse"><stop stop-color="#082929"/><stop offset="1" stop-color="#0A3333"/></linearGradient><linearGradient id="b" x1="25.384" x2="18.501" y1="10.515" y2="23.258" gradientUnits="userSpaceOnUse"><stop stop-color="#ADA976"/><stop offset="1" stop-color="#807C58"/></linearGradient><linearGradient id="c" x1="12.903" x2="17.174" y1="8.648" y2="16.93" gradientUnits="userSpaceOnUse"><stop stop-color="#0A3333"/><stop offset="1" stop-color="#0C4745"/></linearGradient><linearGradient id="d" x1="19.993" x2="15.302" y1="24.154" y2="15.327" gradientUnits="userSpaceOnUse"><stop stop-color="#908C65"/><stop offset="1" stop-color="#ADA976"/></linearGradient></defs></svg>