<svg width="162" height="36" viewBox="0 0 162 36" fill="none" xmlns="http://www.w3.org/2000/svg">
<g clip-path="url(#clip0_1805_41921)">
<path d="M-0.000610352 31.5L17.1903 1.4171C17.6911 0.540826 18.623 4.12767e-05 19.6322 3.63036e-05L26.9998 0L10.2957 29.2326C9.49456 30.6347 8.00353 31.5 6.38868 31.5L-0.000610352 31.5Z" fill="url(#paint0_linear_1805_41921)"/>
<path d="M54.0033 4.49995L36.8123 34.5829C36.3116 35.4592 35.3797 36 34.3704 36L27.0029 36L43.7069 6.76744C44.5081 5.36535 45.9992 4.50005 47.614 4.50003L54.0033 4.49995Z" fill="url(#paint1_linear_1805_41921)"/>
<path fill-rule="evenodd" clip-rule="evenodd" d="M33.8093 9.29308L29.3081 1.417C28.8073 0.540782 27.8755 4.12769e-05 26.8662 3.6304e-05L19.4986 0L19.4989 0.000432414C19.0735 0.00758553 18.6223 0.142913 18.2167 0.382508C18.3836 0.322425 18.5636 0.289682 18.7512 0.289682C19.3056 0.289682 19.7932 0.575604 20.0746 1.00803L30.1061 18.564L33.8093 12.0841C34.3035 11.2194 34.3035 10.1578 33.8093 9.29308Z" fill="url(#paint2_linear_1805_41921)"/>
<path fill-rule="evenodd" clip-rule="evenodd" d="M20.1934 26.7069L24.6946 34.583C25.1954 35.4592 26.1272 36 27.1365 36L34.5041 36L34.5039 35.9997C34.9293 35.9925 35.3804 35.8572 35.786 35.6176C35.6191 35.6777 35.4391 35.7104 35.2515 35.7104C34.6974 35.7104 34.21 35.4248 33.9285 34.9928L23.8966 17.436L20.1934 23.9159C19.6992 24.7806 19.6992 25.8422 20.1934 26.7069Z" fill="url(#paint3_linear_1805_41921)"/>
</g>
<path d="M63.0005 28.9597V7.09416H68.0658L76.0164 25.564H76.6575V7.09416H79.7352V28.9597H74.7661L66.6872 10.4581H66.0781V28.9597H63.0005Z" fill="#082929"/>
<path d="M91.2523 29.277C89.457 29.277 88.0464 28.9808 87.0205 28.3885C85.9946 27.7749 85.268 26.844 84.8405 25.5958C84.4131 24.3475 84.1993 22.7608 84.1993 20.8355C84.1993 18.9948 84.4237 17.4821 84.8726 16.2974C85.3428 15.1126 86.0908 14.224 87.1167 13.6316C88.1639 13.0392 89.5425 12.743 91.2523 12.743C92.9834 12.743 94.362 13.0392 95.3879 13.6316C96.4137 14.224 97.1511 15.1126 97.5999 16.2974C98.0701 17.4821 98.3052 18.9948 98.3052 20.8355C98.3052 22.7608 98.0915 24.3475 97.664 25.5958C97.2579 26.844 96.542 27.7749 95.5161 28.3885C94.4902 28.9808 93.0689 29.277 91.2523 29.277ZM91.2523 26.77C92.385 26.77 93.2399 26.569 93.817 26.167C94.394 25.765 94.7787 25.1303 94.9711 24.2629C95.1634 23.3743 95.2596 22.2318 95.2596 20.8355C95.2596 19.4603 95.1421 18.3707 94.907 17.5668C94.6719 16.7417 94.2658 16.1493 93.6887 15.7896C93.1117 15.4299 92.2995 15.2501 91.2523 15.2501C90.2264 15.2501 89.4142 15.4299 88.8158 15.7896C88.2387 16.1493 87.8327 16.7417 87.5976 17.5668C87.3625 18.3707 87.2449 19.4603 87.2449 20.8355C87.2449 22.2318 87.3411 23.3743 87.5334 24.2629C87.7258 25.1303 88.0998 25.765 88.6555 26.167C89.2326 26.569 90.0982 26.77 91.2523 26.77Z" fill="#082929"/>
<path d="M107.769 29.277C107.106 29.277 106.476 29.203 105.878 29.0549C105.279 28.9068 104.734 28.6635 104.243 28.325C103.772 27.9653 103.356 27.4787 102.992 26.8652C102.65 26.2516 102.383 25.4794 102.191 24.5485C102.02 23.5965 101.934 22.454 101.934 21.1211C101.934 19.2593 102.159 17.7149 102.608 16.4878C103.056 15.2395 103.772 14.3086 104.756 13.6951C105.739 13.0604 107.053 12.743 108.699 12.743C109.276 12.743 109.938 12.7959 110.686 12.9017C111.434 12.9863 112.011 13.0604 112.418 13.1238V6.30078H115.431V28.9597H112.482L112.45 27.9442C112.129 28.1346 111.702 28.3356 111.167 28.5471C110.654 28.7587 110.099 28.928 109.5 29.0549C108.902 29.203 108.325 29.277 107.769 29.277ZM108.314 26.7065C108.827 26.7065 109.34 26.6536 109.853 26.5478C110.366 26.4209 110.847 26.2728 111.296 26.1035C111.766 25.9343 112.14 25.7862 112.418 25.6592V15.5992C112.182 15.5569 111.851 15.5146 111.424 15.4722C111.018 15.4299 110.59 15.3876 110.141 15.3453C109.714 15.303 109.319 15.2818 108.955 15.2818C107.951 15.2818 107.16 15.504 106.583 15.9483C106.006 16.3926 105.589 17.0484 105.333 17.9159C105.097 18.7833 104.98 19.8517 104.98 21.1211C104.98 22.3059 105.065 23.2579 105.236 23.9773C105.407 24.6966 105.642 25.2573 105.942 25.6592C106.262 26.0612 106.626 26.3363 107.032 26.4843C107.438 26.6324 107.865 26.7065 108.314 26.7065Z" fill="#082929"/>
<path d="M124.061 29.277C122.543 29.277 121.389 28.8645 120.598 28.0394C119.808 27.2143 119.412 25.9977 119.412 24.3898C119.412 23.3108 119.605 22.4434 119.989 21.7875C120.374 21.1105 120.94 20.6028 121.688 20.2643C122.458 19.9257 123.409 19.7248 124.542 19.6613L129.19 19.217V17.9793C129.19 16.985 128.966 16.2868 128.517 15.8848C128.068 15.4617 127.395 15.2501 126.497 15.2501C125.941 15.2501 125.29 15.2713 124.542 15.3136C123.794 15.3559 123.056 15.4088 122.329 15.4722C121.603 15.5357 120.951 15.5992 120.374 15.6627L120.246 13.5047C120.78 13.3777 121.41 13.2614 122.137 13.1556C122.885 13.0498 123.665 12.9546 124.477 12.87C125.29 12.7853 126.038 12.743 126.722 12.743C127.983 12.743 129.019 12.9229 129.831 13.2825C130.643 13.6422 131.242 14.2028 131.627 14.9645C132.011 15.7261 132.204 16.7099 132.204 17.9159V25.7227C132.246 26.1458 132.417 26.4632 132.717 26.6748C133.037 26.8652 133.433 26.9921 133.903 27.0556L133.807 29.2453C133.336 29.2453 132.888 29.2242 132.46 29.1818C132.054 29.1607 131.68 29.0972 131.338 28.9914C130.996 28.9068 130.686 28.7904 130.408 28.6423C130.152 28.4731 129.906 28.2827 129.671 28.0711C129.286 28.2404 128.784 28.4202 128.164 28.6106C127.544 28.801 126.882 28.9597 126.177 29.0866C125.471 29.2136 124.766 29.277 124.061 29.277ZM124.67 26.9286C125.204 26.9286 125.749 26.8757 126.305 26.77C126.882 26.6642 127.427 26.5478 127.94 26.4209C128.453 26.2728 128.869 26.1458 129.19 26.0401V21.2798L124.926 21.6923C124.029 21.7558 123.387 22.0097 123.003 22.454C122.618 22.8771 122.426 23.4907 122.426 24.2946C122.426 25.1197 122.607 25.765 122.971 26.2305C123.355 26.6959 123.922 26.9286 124.67 26.9286Z" fill="#082929"/>
<path d="M137.295 28.9597V13.0604H140.276V15.1232C140.661 14.8481 141.153 14.5519 141.751 14.2346C142.35 13.9172 143.001 13.621 143.707 13.346C144.433 13.0498 145.149 12.8382 145.855 12.7113V15.6627C145.171 15.7896 144.465 15.9694 143.739 16.2022C143.033 16.4349 142.371 16.6888 141.751 16.9638C141.153 17.2177 140.661 17.4504 140.276 17.662V28.9597H137.295Z" fill="#082929"/>
<path d="M152.639 35.878L154.691 28.9597H152.03L147.67 13.0604H150.716L154.338 26.4209H155.364L159.019 13.0604H162L155.685 35.878H152.639Z" fill="#082929"/>
<defs>
<linearGradient id="paint0_linear_1805_41921" x1="22.5281" y1="0.541298" x2="3.65812" y2="32.8672" gradientUnits="userSpaceOnUse">
<stop stop-color="#082929"/>
<stop offset="1" stop-color="#0A3333"/>
</linearGradient>
<linearGradient id="paint1_linear_1805_41921" x1="49.0345" y1="5.12093" x2="32.8725" y2="35.0428" gradientUnits="userSpaceOnUse">
<stop stop-color="#ADA976"/>
<stop offset="1" stop-color="#807C58"/>
</linearGradient>
<linearGradient id="paint2_linear_1805_41921" x1="19.7305" y1="0.736695" x2="29.7593" y2="20.1847" gradientUnits="userSpaceOnUse">
<stop stop-color="#0A3333"/>
<stop offset="1" stop-color="#0C4745"/>
</linearGradient>
<linearGradient id="paint3_linear_1805_41921" x1="36.3762" y1="37.1458" x2="25.3625" y2="16.4199" gradientUnits="userSpaceOnUse">
<stop stop-color="#908C65"/>
<stop offset="1" stop-color="#ADA976"/>
</linearGradient>
<clipPath id="clip0_1805_41921">
<rect width="54.0012" height="36" fill="white" transform="translate(-0.000610352)"/>
</clipPath>
</defs>
</svg>
