<svg width="250" height="250" xmlns="http://www.w3.org/2000/svg" fill="none" version="1.1">
 <defs id="defs31">
  <linearGradient y2="1.0434" x2="0.13551" y1="0.01718" x1="0.83438" id="paint0_linear_1805_41921">
   <stop id="stop770" stop-color="#082929"/>
   <stop id="stop772" stop-color="#0A3333" offset="1"/>
  </linearGradient>
  <linearGradient y2="0.96961" x2="0.21739" y1="0.01971" x1="0.81597" id="paint1_linear_1805_41921">
   <stop id="stop775" stop-color="#ADA976"/>
   <stop id="stop777" stop-color="#807C58" offset="1"/>
  </linearGradient>
  <linearGradient y2="1.0873" x2="0.72308" y1="0.03968" x1="0.09483" id="paint2_linear_1805_41921">
   <stop id="stop780" stop-color="#0A3333"/>
   <stop id="stop782" stop-color="#0C4745" offset="1"/>
  </linearGradient>
  <linearGradient y2="-0.05474" x2="0.34703" y1="1.06172" x1="1.03697" id="paint3_linear_1805_41921">
   <stop id="stop785" stop-color="#908C65"/>
   <stop id="stop787" stop-color="#ADA976" offset="1"/>
  </linearGradient>
 </defs>
 <g id="g25">
  <title id="title9">Nodary</title>
  <g fill="#ffffff" id="g16">
   <g fill="#ffffff" id="svg_5">
    <circle id="svg_4" fill="#ffffff" r="125" cy="125" cx="125"/>
   </g>
  </g>
  <g id="svg_2">
   <path stroke-width="3.78914" id="path748" fill="url(#paint0_linear_1805_41921)" d="m22.68572,176.15343l65.13882,-113.98842c1.89761,-3.32031 5.42871,-5.36944 9.25271,-5.36944l27.9169,-0.00015l-63.29423,110.76651c-3.03564,5.31276 -8.68537,8.5915 -14.80426,8.5915l-24.20994,0z"/>
   <path stroke-width="3.78914" id="path750" fill="url(#paint1_linear_1805_41921)" d="m227.31428,73.84637l-65.13916,113.98861c-1.89723,3.32043 -5.42833,5.3696 -9.25271,5.3696l-27.91652,0l63.29385,-110.76636c3.03587,-5.31272 8.68586,-8.59147 14.80457,-8.59154l24.20997,-0.00031z"/>
   <path stroke-width="3.78914" id="path752" fill="url(#paint2_linear_1805_41921)" d="m150.79632,92.00823l-17.05569,-29.8436c-1.89761,-3.32012 -5.42833,-5.36906 -9.25271,-5.36906l-27.9169,-0.00015l0.001,0.002c-1.6119,0.0265 -3.32156,0.53987 -4.85844,1.44775c0.63241,-0.22773 1.31445,-0.35163 2.0253,-0.35163c2.1007,0 3.94828,1.08339 5.01455,2.72193l38.01079,66.52209l14.03196,-24.55327c1.87259,-3.27647 1.87259,-7.29903 0,-10.57558l0.00014,-0.00048z" clip-rule="evenodd" fill-rule="evenodd"/>
   <path stroke-width="3.78914" id="path754" fill="url(#paint3_linear_1805_41921)" d="m99.20372,157.99169l17.05569,29.84367c1.89761,3.32005 5.42833,5.36922 9.25271,5.36922l27.91689,0l-0.00075,-0.001c1.6119,-0.0265 3.32118,-0.53995 4.85806,-1.44783c-0.63241,0.22773 -1.31446,0.35163 -2.0253,0.35163c-2.09956,0 -3.94639,-1.08218 -5.01304,-2.71909l-38.0123,-66.52523l-14.03196,24.55327c-1.87259,3.27647 -1.87259,7.29903 0,10.5755l0,-0.00014z" clip-rule="evenodd" fill-rule="evenodd"/>
  </g>
 </g>
</svg>