<svg width="250" height="250" xmlns="http://www.w3.org/2000/svg" xmlns:undefined="http://www.inkscape.org/namespaces/inkscape" fill="none">

 <g>
  <title>Tradermade</title>
  <circle id="svg_1" fill="#ffffff" r="125" cy="125" cx="125"/>
  <g>

   <g id="svg_9"  >
    <path stroke-width="0.43141" id="svg_22" d="m122.24638,53.73713c3.09998,-3.8604 4.55744,0.20418 5.73404,1.61741c12.72995,15.29024 25.2115,30.7868 37.86057,46.1449c15.07271,18.30082 30.26925,36.49965 45.35697,54.78821c5.74997,6.96983 11.34689,14.06598 17.97754,22.30199c-12.63608,6.61644 -24.30714,12.72764 -36.32161,18.22275c-0.77697,-0.85927 -1.2105,-1.10247 -1.64403,-1.34562c0,0 0.01155,0.09462 0.17618,-0.36298c-1.45101,-2.67634 -2.95693,-4.986 -4.69984,-7.10026c-21.04794,-25.53285 -42.13088,-51.03684 -63.15626,-77.15785c0.07318,-17.45063 0.14491,-34.29204 0.06039,-51.13267c-0.01007,-1.99419 -0.8752,-3.98418 -1.34396,-5.97612l0,0.00024z" fill="#19699d"/>
    <path stroke-width="0.43141" id="svg_21" d="m159.86719,178.78767c-11.11742,5.82132 -22.22389,11.66386 -33.37359,17.42263c-0.86928,0.44892 -2.04123,0.31182 -3.56921,-0.00107c-11.62138,-14.558 -22.74603,-28.66777 -33.85063,-43.21346c0.04586,-1.01709 0.07149,-1.59832 0.35662,-2.63019c0.45609,-17.61503 0.65269,-34.77936 1.03734,-52.19814c0.46263,-0.58001 0.7828,-0.85208 1.56712,-0.94403c19.61704,22.8865 38.85279,45.6153 57.98014,68.43487c3.50977,4.1873 6.57943,8.74349 9.85224,13.12938l-0.00003,0z" fill="#f39123"/>
    <path stroke-width="0.43141" id="svg_20" d="m160.18227,179.06811c-3.58789,-4.66633 -6.65756,-9.22253 -10.1673,-13.40982c-19.12738,-22.81957 -38.36311,-45.54837 -57.99382,-68.79c-0.40466,-0.71773 -0.37704,-0.95383 0.11996,-1.10674c10.75971,5.28672 21.05007,10.49031 31.34043,15.6939c21.07379,25.51148 42.15672,51.01547 63.20466,76.54832c1.74291,2.11427 3.24883,4.42393 4.74724,7.09485c-10.39042,-4.94864 -20.66323,-10.3493 -31.25115,-16.0305l-0.00003,0z" fill="#030404"/>
    <path stroke-width="0.43141" id="svg_19" d="m55.7261,197.88357c-11.35515,-6.3696 -22.7103,-12.73913 -34.90162,-19.57775c11.83098,-14.50122 23.0244,-28.221 34.61425,-41.50137c0.36005,20.6526 0.32373,40.86587 0.28734,61.07912l0.00003,0z" fill="#2c60aa"/>
    <path stroke-width="0.43141" id="svg_18" d="m56.15756,197.7706c-0.3951,-20.10027 -0.35875,-40.31354 -0.34128,-61.07704c-0.01895,-0.55032 0.18444,-0.87538 0.56734,-0.89341c1.39793,1.05537 2.41298,2.12874 3.48549,3.64538c10.14891,13.39244 20.24039,26.34174 30.33184,39.29097c-11.20396,6.30707 -22.40794,12.61411 -34.04336,19.03409l-0.00003,0z" fill="#283c8f"/>
    <path stroke-width="0.43141" id="svg_17" d="m123.52992,110.84592c-10.33876,-4.59406 -20.6291,-9.79765 -31.55898,-15.29223c-0.87396,-0.59354 -1.18199,-0.75891 -1.52111,-0.83432c0.04248,-0.04826 0.0839,-0.16703 0.0839,-0.16703c3.5934,-5.10459 6.99076,-10.36203 10.82375,-15.27991c6.5887,-8.45358 13.44905,-16.69536 20.54212,-25.28062c0.81555,1.7374 1.68071,3.72736 1.69072,5.72158c0.08452,16.84063 0.01243,33.68204 -0.06039,51.13267l0,-0.00015z" fill="#3797c4"/>
    <path stroke-width="0.43141" id="svg_16" d="m90.40732,94.76648c0.3816,0.02901 0.68967,0.19355 1.09424,0.70403c0.14255,0.4441 0.11492,0.68005 0.10104,1.27128c-0.35209,0.57359 -0.67226,0.84565 -1.39896,1.88732c-0.64562,17.87306 -0.83914,35.03011 -1.03267,52.18713c-0.02546,0.58123 -0.05139,1.16245 -0.4425,2.159c-0.55731,0.2877 -0.74923,0.15978 -1.09134,-0.19936c-0.42808,-0.50274 -0.76122,-0.64061 -1.58325,-0.74766c-9.03652,-4.41043 -17.63936,-8.71815 -26.24221,-13.02588c-1.01505,-1.07337 -2.0301,-2.14677 -3.38244,-3.38833c8.2708,-11.04993 16.88273,-21.92868 25.48383,-32.81595c1.69489,-2.14541 3.34813,-4.32374 5.66178,-6.76937c0.98337,-0.4412 1.26098,-0.67575 1.47404,-0.98681c0,0 0.53244,-0.15303 0.8699,-0.16943c0.33752,-0.01451 0.48856,-0.10572 0.48856,-0.10572l-0.00003,-0.00024z" fill="#f7aa40"/>
    <path stroke-width="0.43141" id="svg_15" d="m59.86908,139.44554c8.54538,3.86446 17.14822,8.17219 26.31438,12.84053c0.83461,0.69876 1.18143,0.81895 1.60383,0.72111c0.19193,0.12792 0.38382,0.25534 0.92106,0.40404c11.47001,14.13037 22.59466,28.24013 33.73322,42.79955c-10.4663,-5.38151 -20.94646,-11.21266 -31.83362,-17.25903c-10.49848,-13.16437 -20.58993,-26.11363 -30.73887,-39.50611l0,-0.00009z" fill="#050403"/>
    <path stroke-width="0.43141" id="svg_14" d="m88.75542,95.04974c0.08038,0.30315 -0.19723,0.53788 -0.80169,0.78402c-0.11386,-0.29687 0.14302,-0.58496 0.80169,-0.78402z" fill="#df9534"/>
    <path stroke-width="0.43141" id="svg_13" d="m90.44983,94.71938c-0.04248,0.04829 -0.19361,0.13612 -0.25439,0.16605c-0.06081,0.02901 0.03958,-0.27177 0.18885,-0.30217c0.14944,-0.02901 0.10809,0.08929 0.06554,0.13612z" fill="#df9534"/>
    <path stroke-width="0.43141" id="svg_12" d="m191.30899,195.81191c0.33444,-0.10184 0.76794,0.14095 1.2044,0.80726c-0.36647,0.12792 -0.73588,-0.16703 -1.2044,-0.80726z" fill="#030404"/>
    <path stroke-width="0.43141" id="svg_11" d="m89.43037,150.36559c-0.0659,-16.70638 0.12763,-33.86342 0.58522,-51.48212c0.06744,16.70276 -0.12922,33.86709 -0.58522,51.48212z" fill="#df9534"/>
    <path stroke-width="0.43141" id="svg_10" d="m87.63708,152.77581c-0.27218,0.3292 -0.619,0.20901 -1.01997,-0.38714c0.25877,-0.25341 0.59188,-0.11584 1.01997,0.38714z" fill="#df9534"/>
   </g>
  </g>
 </g>
</svg>