<svg xmlns="http://www.w3.org/2000/svg" width="32" height="32" fill="none"><rect width="32" height="32" fill="#F3F3F3" rx="16"/><path fill="#030303" d="m15.93 5.264-4.405 5.398 8.95 10.656 4.263 2.415L29 21.318 15.93 5.264Z"/><path fill="#196A9F" d="m15.93 5.264-4.405 5.398 4.404 2.132 8.809 10.94L29 21.317 15.93 5.264Z"/><path fill="#389AC7" d="m15.93 5.264-4.405 5.398 4.404 2.132v-7.53Z"/><path fill="#030303" d="m20.475 21.321-8.951-10.656-4.404 5.4 4.262 5.114 4.404 2.557 4.689-2.415Z"/><path fill="#F79323" d="m20.475 21.321-8.951-10.656-4.404 5.4 4.404 2.273 4.262 5.398 4.689-2.415Z"/><path fill="#FBAE42" d="M11.524 18.338v-7.673l-4.404 5.4 4.404 2.273Z"/><path fill="#293B91" d="m3 21.175 4.12 2.416 4.262-2.416-4.262-5.114L3 21.175Z"/><path fill="#2D61AD" d="M7.12 23.59v-7.53L3 21.177l4.12 2.415Z"/></svg>