<?xml version="1.0" encoding="UTF-8" standalone="no"?>
<svg
   width="100mm"
   height="100mm"
   viewBox="0 0 100 100"
   version="1.1"
   id="svg248"
   inkscape:version="1.1-alpha (17bc9184, 2021-03-28)"
   sodipodi:docname="drawing.svg"
   xmlns:inkscape="http://www.inkscape.org/namespaces/inkscape"
   xmlns:sodipodi="http://sodipodi.sourceforge.net/DTD/sodipodi-0.dtd"
   xmlns="http://www.w3.org/2000/svg"
   xmlns:svg="http://www.w3.org/2000/svg">
  <sodipodi:namedview
     id="namedview250"
     pagecolor="#ffffff"
     bordercolor="#666666"
     borderopacity="1.0"
     objecttolerance="10.0"
     gridtolerance="10.0"
     guidetolerance="10.0"
     inkscape:pageshadow="2"
     inkscape:pageopacity="0.0"
     inkscape:pagecheckerboard="0"
     inkscape:document-units="mm"
     showgrid="false"
     inkscape:zoom="0.67081229"
     inkscape:cx="218.39194"
     inkscape:cy="563.49594"
     inkscape:window-width="2048"
     inkscape:window-height="1280"
     inkscape:window-x="0"
     inkscape:window-y="0"
     inkscape:window-maximized="0"
     inkscape:current-layer="layer1" />
  <defs
     id="defs245" />
  <g
     inkscape:label="Layer 1"
     inkscape:groupmode="layer"
     id="layer1">
    <path
       fill="#19699d"
       opacity="1"
       stroke="none"
       d="m 47.3866,21.232944 c 1.047129,-1.303993 1.539444,0.06897 1.936875,0.546339 4.300006,5.164823 8.516093,10.39935 12.78877,15.587098 5.091356,6.181763 10.224538,12.329072 15.320954,18.506693 1.942264,2.35431 3.832817,4.75129 6.072566,7.533301 -4.268293,2.23494 -8.21061,4.299212 -12.268931,6.155381 -0.262449,-0.290249 -0.408894,-0.372395 -0.555336,-0.454524 0,0 0.0039,0.03196 0.05951,-0.122615 -0.490129,-0.904026 -0.998811,-1.684198 -1.587542,-2.398366 -7.109694,-8.624642 -14.231217,-17.239534 -21.333301,-26.062838 0.02472,-5.894579 0.04895,-11.58337 0.0204,-17.2719 -0.0034,-0.673617 -0.295623,-1.345799 -0.453965,-2.01865 z"
       id="path11"
       style="stroke-width:0.431408" />
    <path
       fill="#f39123"
       opacity="1"
       stroke="none"
       d="m 60.094378,63.473259 c -3.75531,1.96636 -7.506916,3.939894 -11.273131,5.885122 -0.293626,0.151639 -0.689497,0.105332 -1.205626,-3.59e-4 -3.925537,-4.917488 -7.683293,-9.683567 -11.434269,-14.596898 0.01549,-0.343567 0.02415,-0.539898 0.120463,-0.888439 0.154051,-5.950114 0.220466,-11.747986 0.350397,-17.631804 0.156269,-0.195923 0.26442,-0.287819 0.52935,-0.318881 6.626362,7.730741 13.123924,15.408214 19.584882,23.11634 1.185549,1.414412 2.222436,2.953428 3.327943,4.434919 z"
       id="path15"
       style="stroke-width:0.431408" />
    <path
       fill="#030404"
       opacity="1"
       stroke="none"
       d="M 60.200811,63.567993 C 58.988872,61.991768 57.951984,60.452752 56.766436,59.03834 50.305477,51.330214 43.807916,43.652741 37.176937,35.802043 c -0.136687,-0.242442 -0.12736,-0.322191 0.04052,-0.373846 3.634484,1.785779 7.110423,3.543481 10.586358,5.301183 7.118436,8.617419 14.239959,17.23231 21.349653,25.856952 0.588731,0.714168 1.097413,1.49434 1.603554,2.39654 C 67.24728,67.311294 63.77727,65.487018 60.200818,63.567993 Z"
       id="path31"
       style="stroke-width:0.431408" />
    <path
       fill="#2c60aa"
       opacity="1"
       stroke="none"
       d="m 24.916976,69.923585 c -3.835609,-2.151554 -7.671218,-4.303092 -11.789275,-6.613084 3.996337,-4.898314 7.77732,-9.532663 11.692212,-14.018586 0.12162,6.976169 0.109342,13.803928 0.09706,20.63167 z"
       id="path33"
       style="stroke-width:0.431408" />
    <path
       fill="#283c8f"
       opacity="1"
       stroke="none"
       d="m 25.06272,69.885431 c -0.133458,-6.789588 -0.12118,-13.617347 -0.115278,-20.630969 -0.0064,-0.185895 0.0623,-0.295695 0.19164,-0.301777 0.472201,0.356481 0.815068,0.71906 1.177347,1.231354 3.428165,4.523783 6.836919,8.897868 10.245674,13.271937 -3.784544,2.130439 -7.569088,4.260878 -11.499378,6.429455 z"
       id="path35"
       style="stroke-width:0.431408" />
    <path
       fill="#3797c4"
       opacity="1"
       stroke="none"
       d="m 47.82016,40.523494 c -3.492286,-1.551816 -6.968224,-3.309518 -10.660184,-5.165507 -0.295206,-0.200489 -0.399256,-0.256351 -0.513808,-0.28182 0.01435,-0.0163 0.02834,-0.05642 0.02834,-0.05642 1.213798,-1.72426 2.361386,-3.500142 3.656116,-5.161333 2.22557,-2.855499 4.542898,-5.639467 6.93884,-8.539447 0.275476,0.586873 0.567721,1.259056 0.571098,1.932673 0.02855,5.68853 0.0042,11.37732 -0.0204,17.271899 z"
       id="path41"
       style="stroke-width:0.431408" />
    <path
       fill="#f7aa40"
       opacity="1"
       stroke="none"
       d="m 36.631806,35.092081 c 0.128909,0.0098 0.232964,0.06538 0.36962,0.237812 0.04815,0.150008 0.03882,0.229708 0.03413,0.429414 -0.11893,0.193755 -0.227071,0.285651 -0.472541,0.637517 -0.218082,6.037266 -0.283453,11.832676 -0.348824,17.628071 -0.0086,0.196331 -0.01736,0.392662 -0.14947,0.729283 -0.188255,0.09718 -0.253081,0.05397 -0.368643,-0.06734 -0.144594,-0.169819 -0.257125,-0.216386 -0.534802,-0.252551 -3.052406,-1.489775 -5.958326,-2.944868 -8.864244,-4.399962 -0.342869,-0.362562 -0.685737,-0.725141 -1.142546,-1.144528 2.793765,-3.732507 5.70275,-7.407197 8.608083,-11.084772 0.57251,-0.724685 1.130951,-1.460491 1.912471,-2.286594 0.332168,-0.14903 0.425941,-0.228257 0.497907,-0.333328 0,0 0.179851,-0.05169 0.293848,-0.05723 0.114006,-0.0049 0.165028,-0.03571 0.165028,-0.03571 z"
       id="path43"
       style="stroke-width:0.431408" />
    <path
       fill="#050403"
       opacity="1"
       stroke="none"
       d="m 26.316424,50.184039 c 2.886509,1.305362 5.792429,2.760456 8.888625,4.337349 0.281919,0.236034 0.399075,0.276634 0.541746,0.243584 0.06483,0.04321 0.129659,0.08625 0.311128,0.136474 3.874405,4.773041 7.632161,9.53912 11.394604,14.457098 C 43.917157,67.540741 40.37711,65.571055 36.699582,63.528681 33.153343,59.08194 29.744589,54.707855 26.316424,50.184071 Z"
       id="path45"
       style="stroke-width:0.431408" />
    <path
       fill="#df9534"
       opacity="1"
       stroke="none"
       d="m 36.07382,35.18776 c 0.02715,0.102397 -0.06662,0.181689 -0.270801,0.264829 -0.03846,-0.100277 0.04831,-0.197586 0.270801,-0.264829 z"
       id="path87"
       style="stroke-width:0.431408" />
    <path
       fill="#df9534"
       opacity="1"
       stroke="none"
       d="m 36.646168,35.076167 c -0.01435,0.01631 -0.0654,0.04598 -0.08593,0.05609 -0.02054,0.0098 0.01337,-0.0918 0.06379,-0.10207 0.05048,-0.0098 0.03651,0.03016 0.02214,0.04598 z"
       id="path89"
       style="stroke-width:0.431408" />
    <path
       fill="#030404"
       opacity="1"
       stroke="none"
       d="m 70.714984,69.223814 c 0.112962,-0.0344 0.259401,0.04761 0.406823,0.272672 -0.123789,0.04321 -0.248565,-0.05642 -0.406823,-0.272672 z"
       id="path91"
       style="stroke-width:0.431408" />
    <path
       fill="#df9534"
       opacity="1"
       stroke="none"
       d="m 36.301806,53.872685 c -0.02226,-5.643185 0.04311,-11.438595 0.197686,-17.389949 0.02278,5.641963 -0.04365,11.439835 -0.197686,17.389949 z"
       id="path93"
       style="stroke-width:0.431408" />
    <path
       fill="#df9534"
       opacity="1"
       stroke="none"
       d="m 35.696061,54.686821 c -0.09194,0.111201 -0.209093,0.0706 -0.344526,-0.130768 0.0874,-0.0856 0.199928,-0.03913 0.344526,0.130768 z"
       id="path107"
       style="stroke-width:0.431408" />
  </g>
</svg>
