<svg width="250" height="250" xmlns="http://www.w3.org/2000/svg" fill="none">

 <g>
  <title>Twelvedata</title>
  <circle id="svg_1" fill="#ffffff" r="125" cy="125" cx="125"/>
  <g>
   <path fill="#2469F0" d="m49.03388,88.47286c5.66244,0 10.27012,-0.38828 13.82301,-1.16485c3.66389,-0.88746 6.4951,-2.16332 8.49362,-3.82747c1.99852,-1.66403 3.38637,-3.77196 4.16356,-6.32357c0.7773,-2.5516 1.16583,-5.60238 1.16583,-9.15257l23.81562,0l0,116.4873l-27.47952,0l0,-77.04814l-23.98213,0l0,-18.9707z"/>
   <path fill="#2469F0" d="m119.19374,184.4917c0,-9.4296 0.72168,-17.36242 2.16516,-23.797c1.55436,-6.43445 3.7194,-11.87056 6.4951,-16.30809c2.7757,-4.43765 5.99556,-8.20961 9.65946,-11.31589c3.7749,-3.10628 7.93846,-6.04617 12.49067,-8.81967c3.44188,-1.99693 6.60623,-3.88297 9.49295,-5.65801c2.99772,-1.88592 5.60691,-3.77196 7.82745,-5.65788c2.22054,-1.88604 3.94154,-3.93835 5.16288,-6.15718c1.33186,-2.32971 1.9984,-4.93682 1.9984,-7.82132c0,-4.65942 -1.27672,-7.98759 -3.83041,-9.98452c-2.55369,-2.10794 -5.71792,-3.16178 -9.49295,-3.16178c-4.21906,0 -7.77195,1.33124 -10.65866,3.99386c-2.7757,2.5516 -4.16356,6.87824 -4.16356,12.97991l-26.81334,0c0,-5.3251 0.88819,-10.26192 2.6647,-14.81045c1.88739,-4.54853 4.60759,-8.48689 8.1606,-11.81518c3.55289,-3.32817 7.88295,-5.93528 12.99021,-7.8212c5.10737,-1.88604 10.99181,-2.829 17.65354,-2.829c5.32939,0 10.38114,0.72107 15.15499,2.16332c4.88511,1.33124 9.16004,3.43918 12.82357,6.32357c3.66475,2.7735 6.55146,6.43457 8.66136,10.98311c2.22017,4.43752 3.33026,9.70724 3.33026,15.80892c0,4.88131 -1.05495,9.31896 -3.16485,13.31282c-2.10867,3.99386 -4.71848,7.54393 -7.82696,10.6502c-2.99821,3.10628 -6.27333,5.87978 -9.82658,8.32049c-3.55203,2.32971 -6.77201,4.32664 -9.65885,5.99079c-3.99704,2.66249 -7.32791,4.99232 -9.99261,6.98925c-2.55356,1.88592 -4.60759,3.66095 -6.16208,5.3251c-1.55436,1.66403 -2.6647,3.38356 -3.33075,5.15871c-0.55517,1.77503 -0.83281,3.82734 -0.83281,6.15705l49.9623,0l0,21.80007l-80.9392,0z"/>
  </g>
 </g>
</svg>