<svg xmlns="http://www.w3.org/2000/svg" width="32" height="32" fill="none"><rect width="32" height="32" fill="#F3F3F3" rx="16"/><path fill="#2469F0" d="M4.5 10.708c.82 0 1.487-.056 2.002-.168.53-.129.94-.314 1.23-.555.29-.24.49-.546.603-.915.112-.37.169-.812.169-1.326h3.449v16.87h-3.98V13.456H4.5v-2.748ZM14.658 24.616c0-1.366.105-2.515.314-3.447.225-.931.538-1.719.94-2.361a6.976 6.976 0 0 1 1.4-1.639c.546-.45 1.149-.876 1.808-1.277.498-.29.957-.563 1.375-.82a9.875 9.875 0 0 0 1.133-.819c.322-.273.571-.57.748-.892.193-.337.29-.715.29-1.132 0-.675-.185-1.157-.555-1.446-.37-.306-.828-.458-1.375-.458-.611 0-1.126.193-1.544.578-.401.37-.602.996-.602 1.88h-3.884c0-.771.13-1.486.386-2.145a4.88 4.88 0 0 1 1.182-1.71c.515-.483 1.142-.86 1.881-1.134.74-.273 1.592-.41 2.557-.41.772 0 1.503.105 2.195.314a5.154 5.154 0 0 1 1.857.916c.53.401.948.932 1.254 1.59.322.643.482 1.406.482 2.29 0 .707-.152 1.35-.458 1.928a6.371 6.371 0 0 1-1.134 1.542c-.434.45-.908.852-1.423 1.205-.514.337-.98.627-1.398.868-.58.385-1.062.723-1.447 1.012a6.56 6.56 0 0 0-.893.77c-.225.242-.386.49-.482.748-.08.257-.12.554-.12.892h7.235v3.157H14.658Z"/></svg>