<svg xmlns="http://www.w3.org/2000/svg" width="36" height="36" fill="none"><rect width="36" height="36" fill="#C3ED8E" rx="18"/><path fill="#030303" d="M26.012 13.858c-.13.102-2.435 1.4-2.435 4.287 0 3.34 2.932 4.52 3.02 4.55-.013.072-.466 1.618-1.546 3.193-.963 1.386-1.969 2.77-3.499 2.77s-1.924-.889-3.69-.889c-1.722 0-2.334.919-3.733.919-1.4 0-2.377-1.283-3.5-2.858-1.3-1.85-2.35-4.723-2.35-7.45 0-4.375 2.843-6.695 5.643-6.695 1.487 0 2.727.976 3.66.976.89 0 2.276-1.035 3.968-1.035.641 0 2.945.059 4.462 2.232Zm-5.265-4.084c.7-.83 1.194-1.982 1.194-3.134 0-.16-.013-.322-.042-.452-1.139.042-2.494.758-3.31 1.705-.642.73-1.24 1.881-1.24 3.05 0 .175.029.35.043.407.072.013.189.029.306.029 1.021 0 2.306-.684 3.049-1.605Z"/></svg>