<svg xmlns="http://www.w3.org/2000/svg" width="42" height="42" fill="none"><path fill="#B6509E" d="M21 42c11.598 0 21-9.402 21-21S32.598 0 21 0 0 9.402 0 21s9.402 21 21 21Z"/><path fill="#F3F3F3" d="m31.126 30.173-7.813-18.882c-.442-.976-1.094-1.454-1.958-1.454h-.691c-.864 0-1.517.478-1.958 1.454l-3.398 8.226h-2.573a1.407 1.407 0 0 0-1.4 1.397v.02a1.406 1.406 0 0 0 1.4 1.396h1.382l-3.244 7.843a1.657 1.657 0 0 0-.096.536c0 .44.135.785.384 1.052.25.268.595.402 1.037.402.29-.004.571-.097.806-.268.25-.172.422-.42.557-.708l3.57-8.858h2.477a1.407 1.407 0 0 0 1.401-1.396v-.038a1.407 1.407 0 0 0-1.401-1.397h-1.325l2.726-6.791 7.43 18.48c.134.287.307.536.556.708.235.17.517.264.806.268.442 0 .788-.134 1.037-.402.25-.268.384-.612.384-1.052a1.263 1.263 0 0 0-.096-.536Z"/></svg>