<svg xmlns="http://www.w3.org/2000/svg" width="42" height="42" fill="none"><circle cx="21" cy="21" r="21" fill="#0133AD"/><path fill="#F3F3F3" d="M14.224 20.902a2.02 2.02 0 0 0 1.904 2.127h.12c1.12 0 2.023-.904 2.015-2.023 0-1.119-.904-2.022-2.024-2.014-1.072 0-1.96.84-2.015 1.91ZM6.689 20.379a.653.653 0 1 0-.071 1.303.653.653 0 0 0 .07-1.303ZM14.097 9.182a.66.66 0 0 0 .288-.88.66.66 0 0 0-.88-.288.65.65 0 0 0-.288.872c.16.328.552.464.88.296-.008 0 0 0 0 0ZM16.145 12.753c.496-.248.696-.855.448-1.35a1.01 1.01 0 0 0-1.352-.448 1.008 1.008 0 0 0-.448 1.35 1.01 1.01 0 0 0 1.352.448ZM9.249 15.208a.837.837 0 0 0 1.152-.24.836.836 0 0 0-.24-1.15.837.837 0 0 0-1.152.24.827.827 0 0 0 .24 1.15ZM10.471 20.023a1.005 1.005 0 0 0-1.064.95c-.032.56.392 1.032.952 1.064a1.01 1.01 0 0 0 .112-2.014ZM9.36 26.79a.833.833 0 1 0 .753 1.487.833.833 0 0 0-.753-1.487ZM13.28 17.934c.552.36 1.288.208 1.64-.344a1.176 1.176 0 0 0-.344-1.638 1.178 1.178 0 0 0-1.64.343 1.179 1.179 0 0 0 .344 1.64ZM25.719 12.675a1.015 1.015 0 0 0 1.4-.288 1.014 1.014 0 0 0-.288-1.399 1.016 1.016 0 0 0-1.4.288.998.998 0 0 0 .288 1.4ZM27.783 9.12a.65.65 0 0 0 .904-.192.65.65 0 0 0-.192-.904.655.655 0 0 0-.904.184.674.674 0 0 0 .192.912ZM25.873 18.976a2.015 2.015 0 0 0-2.128 1.902 2.015 2.015 0 0 0 1.904 2.126h.112a2.019 2.019 0 0 0 2.016-2.022 2.004 2.004 0 0 0-1.904-2.006ZM16.809 17.79a2.019 2.019 0 0 0 3.824-.911c0-.312-.073-.624-.217-.912a2.017 2.017 0 0 0-2.711-.895c-1 .511-1.4 1.726-.896 2.718ZM32.639 15.209a.833.833 0 0 0 .36-1.12.834.834 0 0 0-1.488.752.846.846 0 0 0 1.128.368ZM27.52 15.846a1.185 1.185 0 1 0 1.063 2.118 1.185 1.185 0 0 0 .528-1.59 1.194 1.194 0 0 0-1.592-.528ZM20.92 8.814a.843.843 0 0 0 .88-.784.837.837 0 0 0-.783-.879.836.836 0 0 0-.88.775.845.845 0 0 0 .784.888ZM20.913 14.031a1.178 1.178 0 0 0 1.248-1.119 1.177 1.177 0 0 0-1.12-1.247 1.178 1.178 0 0 0-1.248 1.12 1.183 1.183 0 0 0 1.12 1.246ZM14.48 26.15a1.185 1.185 0 1 0-1.065-2.118 1.185 1.185 0 1 0 1.064 2.118ZM21.68 15.77a2.012 2.012 0 0 0 .585 2.79 2.015 2.015 0 0 0 2.792-.584 2.012 2.012 0 0 0-1.688-3.117c-.68 0-1.312.344-1.688.911ZM25.192 24.208a2.017 2.017 0 0 0-2.712-.895c-1 .503-1.4 1.718-.896 2.71.504.999 1.72 1.398 2.712.895a2.008 2.008 0 0 0 .904-2.694c0-.008 0-.008-.008-.016ZM28.719 24.066a1.178 1.178 0 0 0-1.64.343 1.176 1.176 0 0 0 .344 1.639c.552.36 1.288.208 1.64-.344a1.179 1.179 0 0 0-.344-1.639ZM32.59 21.037a1.005 1.005 0 0 0-.952-1.063 1.005 1.005 0 0 0-1.064.951c-.032.56.392 1.031.952 1.063.552.032 1.032-.4 1.064-.951ZM35.383 20.315a.653.653 0 1 0 .616.688.658.658 0 0 0-.617-.688ZM32.753 26.791a.837.837 0 0 0-1.152.24.836.836 0 0 0 .24 1.15.837.837 0 0 0 1.152-.239.827.827 0 0 0-.24-1.151ZM14.209 32.883a.655.655 0 0 0-.904.184.655.655 0 0 0 .184.904c.304.2.704.112.904-.184a.642.642 0 0 0-.184-.904ZM27.905 32.818a.66.66 0 0 0-.288.88c.16.32.56.448.88.288a.65.65 0 0 0 .288-.872.647.647 0 0 0-.88-.296c.008 0 0 0 0 0ZM20.32 26.232a2.022 2.022 0 1 0-2.8.583c.328.216.712.328 1.104.328a1.991 1.991 0 0 0 1.696-.911ZM16.28 29.324a1.016 1.016 0 0 0-1.4.288 1.014 1.014 0 0 0 .289 1.4 1.016 1.016 0 0 0 1.4-.289 1 1 0 0 0-.288-1.399ZM20.99 33.186a.843.843 0 0 0-.88.784.837.837 0 0 0 .785.879.836.836 0 0 0 .88-.775.845.845 0 0 0-.784-.888ZM21 27.967a1.178 1.178 0 0 0-1.248 1.119 1.177 1.177 0 0 0 1.12 1.247 1.183 1.183 0 0 0 1.248-1.12A1.182 1.182 0 0 0 21 27.968ZM25.856 29.245a1.01 1.01 0 1 0 .92 1.799c.496-.248.696-.856.448-1.351a1.021 1.021 0 0 0-1.368-.448Z"/></svg>