<svg xmlns="http://www.w3.org/2000/svg" width="42" height="42" fill="none"><circle cx="21" cy="21" r="21" fill="#31C77F"/><path stroke="#F3F3F3" stroke-width="1.21" d="M37.333 20.885c0 8.957-7.313 16.218-16.333 16.218S4.666 29.843 4.666 20.885C4.666 11.928 11.98 4.667 21 4.667c9.02 0 16.333 7.261 16.333 16.218Z"/><path fill="#F3F3F3" fill-rule="evenodd" d="m17.5 37.102-3.439-1.138c.129-.307.285-.68.39-.924l.22.153c.218.119.532.238.696.282.696.186 1.4.304 2.118.334.248.011.5-.015.751-.042l.244-.025.332-.03c.527-.048 1.057-.097 1.576-.17.154-.024.3-.005.446.014.081.01.162.02.242.023l.064.003c.182.008.365.016.513-.077.286-.172.601-.197.91-.22l.115-.01a10.428 10.428 0 0 0 2.237-.468l.138-.043c.694-.215 1.387-.43 2.054-.736.19-.087.375-.181.549-.286.19.425.568 1.25.899 1.832l-1.722.95-4.667.81-4.666-.232Zm8.416-10.087c-.06-.43-.08-.867-.028-1.304a7.423 7.423 0 0 0-.105-2.3c-.142-.69-.172-1.38-.03-2.078a.958.958 0 0 0 .008-.327 7.713 7.713 0 0 1-.135-1.655c-.052-.03-.06-.014-.075.015-.284.46-.74.542-1.227.468-.486-.067-.793-.371-.905-.846-.03-.118-.082-.148-.17-.2h-.002c-.135-.082-.12-.208.022-.275a.553.553 0 0 1 .134-.042l.046-.01 1.024-.269 1.01-.265c.278-.075.278-.075.248-.342a8.297 8.297 0 0 0-.344-1.536c-.262-.787-.689-1.484-1.22-2.122-.034-.043-.076-.08-.117-.119a.67.67 0 0 1-.175-.208c-.058-.13.02-.201.098-.272.042-.037.083-.075.104-.121.271-.575.705-1.028 1.137-1.481.093-.098.186-.195.277-.293.15-.163.322-.312.487-.453.134-.111.284-.193.471-.104.195.097.232.268.24.46.007.312-.075.609-.172.899-.217.624-.526 1.194-.838 1.77l-.098.181-.005.01c-.13.242-.197.369-.192.492.004.135.093.266.278.54l.009.012c.05-.083.1-.156.148-.227.06-.089.116-.172.166-.263.404-.742.786-1.499 1.063-2.3.277-.802.486-1.618.434-2.479-.03-.453-.217-.586-.659-.445-.27.081-.471.26-.673.445-.644.597-1.218 1.257-1.791 1.917-.24.275-.479.55-.723.821a.583.583 0 0 0-.15.253c-.09.341-.202.386-.509.2l-.03-.017a1.514 1.514 0 0 0-.404-.183c-1.01-.208-2.02-.282-3.045-.097-.374.06-.726.134-1.04.35a.573.573 0 0 1-.135.066c-.187.074-.329.015-.344-.186-.015-.178-.112-.29-.217-.408-.165-.193-.337-.386-.509-.579a65.016 65.016 0 0 1-.465-.523c-.48-.542-.957-1.083-1.495-1.577-.21-.193-.427-.37-.71-.445-.39-.097-.57.007-.592.408-.015.364-.015.735.052 1.098.247 1.395.83 2.657 1.527 3.874v.002c.06.11.128.236.254.325.019-.042.046-.08.074-.116.07-.095.138-.187.046-.337-.378-.607-.624-1.271-.87-1.935-.085-.229-.17-.458-.26-.685a1.686 1.686 0 0 1-.09-.794c.038-.415.337-.549.674-.311.112.081.217.17.299.274l.063.078c.375.463.748.923 1.06 1.429.07.124.149.244.227.363l.087.134c.052.074.097.134.209.096.105-.037.195-.007.24.104.042.107-.031.18-.096.244l-.01.009c-.546.527-.927 1.172-1.226 1.855-.307.705-.45 1.447-.54 2.204-.014.163.023.245.203.267.167.018.34.057.509.095l.105.024c.434.093.872.194 1.308.294l.562.129c.105.022.202.06.187.185-.015.134-.127.149-.224.127-.174-.039-.215.066-.256.171l-.021.051c-.165.364-.412.631-.823.72-.502.111-.973.09-1.414-.297a9.4 9.4 0 0 1-.143 1.425c-.022.126 0 .267.023.4.097.61.112 1.218-.015 1.826-.15.72-.24 1.455-.157 2.19.09.779.015 1.536-.112 2.3-.06.356-.09.705-.06 1.061.045.58.077 1.163.054 1.746.759.71 1.608 1.308 2.46 1.907l.09.063c.688.49 1.428.868 2.177 1.247a.4.4 0 0 0 .434-.015c.291-.17.62-.26.95-.096.18.089.314.103.434-.075a.291.291 0 0 1 .074-.058.522.522 0 0 0 .046-.03c1.28-.965 2.529-1.953 3.636-3.125.224-.238.307-.453.27-.772a20.562 20.562 0 0 1-.113-2.627h.02Zm-4.944-7.657a.85.85 0 0 1 .71-.312c.45.007.779.297.816.742.015.215.03.445-.052.653-.075.186-.053.29.127.423.366.29.553.675.524 1.158-.015.193-.06.378-.195.504-.18.164-.277.379-.367.58-.21.452-.59.652-1.04.726-.501.075-.98-.052-1.406-.326a1.053 1.053 0 0 1-.457-.601.457.457 0 0 0-.202-.282c-.426-.29-.538-.772-.284-1.217.082-.149.18-.305.307-.409.194-.148.21-.296.142-.504-.09-.282-.03-.557.067-.824.195-.541.644-.697 1.145-.408.024.012.05.027.078.045l.087.052Z" clip-rule="evenodd"/><path fill="#F3F3F3" d="M32.853 29.922c.771-.401 1.542-.81 2.357-1.136l.956-2.11 1.147-4.71c-2.514.898-5.013 1.84-7.415 3.02-1.122.55-2.185 1.173-3.12 2.012-.277.245-.397.482-.33.853.06.305.023.631.038.95.007.119.022.245.03.364.007.148.067.208.232.185.247-.03.486.03.726.104a.731.731 0 0 1 .508.49c.075.2.083.408.068.616-.008.14.015.23.15.297.359.17.635.43.763.809.044.14.134.156.254.119.36-.127.733-.216 1.063-.416a48.431 48.431 0 0 1 2.573-1.447ZM14.193 32.872c.12.052.202.082.277.111.134.052.277.06.366-.074.098-.14.008-.252-.097-.349-.12-.103-.24-.207-.359-.319-.486-.445-.277-1.254.18-1.536.112-.066.194-.096.284.015.022.03.052.052.075.082.943 1.053 2.125 1.818 3.307 2.567.539.342 1.092.668 1.691.906.15.06.217.133.187.297a.67.67 0 0 0 .03.4c.052.141-.023.178-.142.186-.195.022-.39.052-.591.052-.748.015-1.497.17-2.245.104-.763-.075-1.504-.238-2.2-.58a1.641 1.641 0 0 1-.628-.496c-.322-.416-.33-.861-.135-1.366Z"/><path fill="#F3F3F3" d="M22.796 34.74c-.113-.014-.262.105-.367.008-.075-.074-.082-.222-.127-.334a.449.449 0 0 0-.067-.133c-.105-.127-.03-.193.074-.26.651-.4 1.227-.898 1.848-1.343.756-.557 1.422-1.21 2.05-1.9.203-.215.352-.475.337-.787-.007-.126.053-.178.18-.163.12.015.247.03.366.06.375.088.532.4.367.749-.067.14-.157.274-.232.415-.052.104-.075.208.03.297.098.082.202.067.307.015.007-.007.022-.007.03-.015.09-.044.142-.185.232-.156.134.045.262.134.374.223.27.215.367.468.27.735a2.073 2.073 0 0 1-.532.786c-.471.438-1.032.713-1.624.92-.987.342-1.975.676-3.015.847a3.527 3.527 0 0 1-.501.037ZM21.19 35.136c-.038-.007-.105-.007-.165-.014-.262-.037-.419-.163-.449-.364-.03-.2.135-.468.352-.55.404-.162.778-.044.95.298.113.215.082.326-.105.475a.937.937 0 0 1-.583.155ZM16.596 19.08c-.173.007-.292-.09-.292-.246-.008-.163.082-.267.224-.267.172-.007.285.09.292.252 0 .164-.067.253-.224.26ZM24.503 18.844c-.037.12-.06.245-.202.275-.134.03-.261-.096-.261-.238.007-.148.097-.222.231-.23.12-.007.21.067.232.193Z"/><path fill="#F3F3F3" fill-rule="evenodd" d="M22.108 22.53c-.285-.023-.554-.193-.756-.483-.142-.208-.213-.312-.282-.31-.068.002-.134.11-.265.325a.937.937 0 0 1-.897.468c-.517-.038-.764-.527-.48-.965.106-.164.255-.297.412-.416.247-.185.262-.222.157-.527-.067-.2-.127-.393-.112-.608.038-.468.404-.66.808-.438.038.02.071.046.104.071.025.02.05.039.076.055.15.09.277.097.366-.082.113-.215.307-.222.51-.2.224.022.351.156.433.356a.395.395 0 0 1-.007.32c-.03.074-.062.147-.094.22a7.794 7.794 0 0 0-.093.217c-.142.305-.127.371.187.505.262.111.464.274.576.542.202.46-.082.935-.643.95Zm-1.665-2.504c.008.006.021.01.036.015.025.008.054.018.069.037.097.126.18.267.194.43.008.075-.03.142-.112.171-.067.023-.12-.007-.165-.052-.12-.126-.21-.274-.187-.46.008-.074.053-.126.165-.14Zm.909.265-.02.057c-.022.126-.022.223.083.252.12.045.187-.03.224-.126.038-.104.075-.208.097-.311a.155.155 0 0 0-.09-.178c-.104-.045-.172.014-.209.096-.038.071-.065.15-.085.21Z" clip-rule="evenodd"/><path fill="#F3F3F3" d="M19.992 22.864c.538-.06.568-.074 1.13-.608.299.386.673.623 1.182.586-.15.445-.48.668-.98.683-.554.007-1.198-.134-1.332-.66Z"/></svg>