<svg width="42" height="42" viewBox="0 0 42 42" fill="none" xmlns="http://www.w3.org/2000/svg">
<g clip-path="url(#clip0_4532_195427)">
<mask id="mask0_4532_195427" style="mask-type:luminance" maskUnits="userSpaceOnUse" x="0" y="0" width="42" height="42">
<path d="M0 0H42V42H0V0Z" fill="white"/>
</mask>
<g mask="url(#mask0_4532_195427)">
<mask id="mask1_4532_195427" style="mask-type:luminance" maskUnits="userSpaceOnUse" x="0" y="0" width="42" height="42">
<path d="M42 21C42 9.40202 32.598 0 21 0C9.40202 0 0 9.40202 0 21C0 32.598 9.40202 42 21 42C32.598 42 42 32.598 42 21Z" fill="white"/>
</mask>
<g mask="url(#mask1_4532_195427)">
<path d="M42 21C42 9.40202 32.598 0 21 0C9.40202 0 0 9.40202 0 21C0 32.598 9.40202 42 21 42C32.598 42 42 32.598 42 21Z" fill="#F5F5F5"/>
<path d="M21 42C32.5978 42 42 32.5978 42 21C42 9.40217 32.5978 0 21 0C9.40217 0 0 9.40217 0 21C0 32.5978 9.40217 42 21 42Z" fill="#F3F3F3"/>
<path opacity="0.2" d="M21 42C32.5978 42 42 32.5978 42 21C42 9.40217 32.5978 0 21 0C9.40217 0 0 9.40217 0 21C0 32.5978 9.40217 42 21 42Z" fill="url(#paint0_linear_4532_195427)"/>
<path d="M26.0086 16.0068H16.1713L10.1805 10.0078H32.0088V31.8431L26.0098 25.8441L26.0086 16.0068ZM16.1771 25.8301V17.1886L10.0078 23.3591V32.0065H18.6481L24.8198 25.8301H16.1771Z" fill="#DD6464"/>
</g>
</g>
</g>
<defs>
<linearGradient id="paint0_linear_4532_195427" x1="21.1377" y1="15.3428" x2="21" y2="42" gradientUnits="userSpaceOnUse">
<stop stop-color="white"/>
<stop offset="1" stop-color="#696969"/>
</linearGradient>
<clipPath id="clip0_4532_195427">
<rect width="42" height="42" fill="white"/>
</clipPath>
</defs>
</svg>
