<svg xmlns="http://www.w3.org/2000/svg" width="36" height="36" fill="none"><g clip-path="url(#a)"><g clip-path="url(#b)"><rect width="36" height="36" fill="#F5F5F5" rx="18"/><path fill="#F3F3F3" d="M18 36c9.941 0 18-8.059 18-18S27.941 0 18 0 0 8.059 0 18s8.059 18 18 18Z"/><path fill="url(#c)" d="M18 36c9.941 0 18-8.059 18-18S27.941 0 18 0 0 8.059 0 18s8.059 18 18 18Z" opacity=".2"/><path fill="#DD6464" d="M22.287 13.714h-8.432L8.72 8.572h18.71v18.716l-5.142-5.142v-8.432ZM13.86 22.134v-7.407l-5.288 5.289v7.412h7.406l5.29-5.294H13.86Z"/></g></g><defs><clipPath id="a"><path fill="#fff" d="M0 0h36v36H0z"/></clipPath><clipPath id="b"><rect width="36" height="36" fill="#fff" rx="18"/></clipPath><linearGradient id="c" x1="18.118" x2="18" y1="13.151" y2="36" gradientUnits="userSpaceOnUse"><stop stop-color="#fff"/><stop offset="1" stop-color="#696969"/></linearGradient></defs></svg>