<svg xmlns="http://www.w3.org/2000/svg" width="42" height="42" fill="none"><circle cx="21" cy="21" r="20" fill="#E42E95"/><path fill="#F3F3F3" fill-rule="evenodd" d="M20.171 12.665c-.162.13-.357.357-.487.78-.13.422-.845 2.502-1.755 5.102h6.077c-.91-2.6-1.625-4.68-1.755-5.102-.13-.423-.325-.65-.487-.78-.163-.13-.39-.228-.813-.228-.422 0-.617.098-.78.228Zm-8.969 5.882h4.127c1.008-2.958 1.885-5.427 2.015-5.882.26-.78.683-1.463 1.332-1.95.65-.488 1.43-.715 2.243-.715.812 0 1.592.195 2.242.715.65.487 1.072 1.17 1.332 1.95a525.77 525.77 0 0 1 2.015 5.882H30.7a1.234 1.234 0 1 1 0 2.47H11.202c-.682 0-1.202-.553-1.202-1.236 0-.682.552-1.234 1.202-1.234Zm0 4.874c-.682 0-1.202.552-1.202 1.235 0 .682.552 1.235 1.202 1.235h1.625l-.65 1.885-.65 1.884-.26.715c-.227.65.13 1.332.748 1.56.65.228 1.332-.13 1.56-.747l.26-.715.65-1.885c.26-.78.584-1.69.942-2.697H26.54c.325.975.65 1.917.942 2.697l.65 1.885.26.715c.227.65.91.975 1.56.747.65-.227.975-.91.747-1.56l-.26-.715-.65-1.884-.65-1.885h1.625a1.234 1.234 0 1 0 0-2.47H11.202Zm18.296 7.312 1.137-.39-1.137.39Zm0 0-1.138.39 1.138-.39Zm-17.06 0 1.137.39-1.138-.39Zm0 0-1.138-.39 1.137.39Z" clip-rule="evenodd"/></svg>