<svg xmlns="http://www.w3.org/2000/svg" width="36" height="36" fill="none"><rect width="36" height="36" fill="#E4B060" rx="18"/><path fill="#030303" d="M26.78 26.327c-2.38 1.754-5.83 2.69-8.8 2.69-4.163 0-7.912-1.54-10.748-4.102-.223-.202-.023-.476.244-.32 3.06 1.782 6.845 2.853 10.754 2.853 2.637 0 5.537-.546 8.204-1.678.403-.17.74.264.346.557Z"/><path fill="#030303" d="M27.765 25.195c-.303-.389-2.01-.184-2.777-.093-.234.029-.27-.174-.059-.32 1.36-.958 3.592-.681 3.852-.36.26.322-.068 2.56-1.346 3.627-.196.164-.383.077-.296-.14.287-.717.93-2.324.626-2.714ZM19.562 17.326v-.55c-1.833 0-3.769.393-3.769 2.554 0 1.094.567 1.836 1.54 1.836.714 0 1.352-.439 1.755-1.152.499-.877.474-1.7.474-2.688Zm2.556 6.178a.529.529 0 0 1-.599.061c-.841-.699-.991-1.023-1.454-1.69-1.39 1.42-2.375 1.843-4.179 1.843-2.132 0-3.793-1.315-3.793-3.95 0-2.057 1.116-3.458 2.702-4.143 1.376-.606 3.298-.713 4.767-.88v-.328c0-.603.046-1.316-.307-1.836-.31-.467-.902-.66-1.422-.66-.966 0-1.83.496-2.04 1.522-.042.229-.21.453-.438.464l-2.46-.264c-.207-.046-.435-.214-.378-.531.567-2.98 3.259-3.88 5.669-3.88 1.233 0 2.845.329 3.818 1.263 1.234 1.152 1.116 2.688 1.116 4.36v3.95c0 1.188.492 1.708.955 2.35.164.228.2.503-.007.674-.517.431-1.437 1.233-1.943 1.683l-.007-.008Z"/></svg>