<svg width="42" height="42" viewBox="0 0 42 42" fill="none" xmlns="http://www.w3.org/2000/svg">
<path d="M18.2721 0.731664C19.9602 -0.243888 22.04 -0.243888 23.728 0.731664L37.1722 8.50106C38.8602 9.47662 39.9001 11.2795 39.9001 13.2306V28.7694C39.9001 30.7205 38.8602 32.5234 37.1722 33.499L23.728 41.2684C22.04 42.2439 19.9602 42.2439 18.2721 41.2684L4.82808 33.499C3.14 32.5234 2.1001 30.7205 2.1001 28.7694V13.2306C2.1001 11.2795 3.14 9.47662 4.82808 8.50106L18.2721 0.731664Z" fill="#FFE81C"/>
<path opacity="0.6" d="M20.9954 25.3858L27.8981 21.2133L20.9954 18.0098L14.1011 21.2133L20.9954 25.3858Z" fill="black"/>
<path opacity="0.45" d="M20.9954 18.0102V9.50391L14.1011 21.2139L20.9954 25.3862V18.0102Z" fill="black"/>
<path opacity="0.8" d="M20.9956 25.3862L27.8983 21.2139L20.9956 9.50391V18.0102V25.3862Z" fill="black"/>
<path opacity="0.45" d="M20.9954 26.7205L14.1011 22.5566L20.9954 32.4991V26.7205Z" fill="black"/>
<path opacity="0.8" d="M27.8983 22.5566L20.9956 26.7205V32.4991L27.8983 22.5566Z" fill="black"/>
</svg>
