<svg xmlns="http://www.w3.org/2000/svg" width="36" height="36" fill="none"><g clip-path="url(#a)"><g clip-path="url(#b)"><path fill="url(#c)" d="M36 18c0-9.95-8.069-18-18-18C8.05 0 0 8.05 0 18c0 9.931 8.05 18 18 18 9.931 0 18-8.069 18-18Z"/><path fill="#F3F3F3" d="M30.326 12.976c-.077.447-.155.66-.271.893-.117.271-.233.562-.35 1.183-.038.233-.077.427-.096.582v.02c-.04.251-.059.426-.156.717-.077.252-.213.66-.543 1.086-.271.35-.717.95-1.319 1.028-.058 0-.155 0-.213-.02-1.707-.872-3.162-1.512-3.666-1.648-.582-.175-.504-1.455-.446-2.58.039-.504.058-.989.039-1.396-.078-1.436-.33-2.987-1.572-3.744-.736-.446-1.706-.582-2.618-.582.175-.077.35-.194.563-.31.543-.31 1.202-.698 1.881-.776.213-.02.427-.039.64-.078 1.338-.155 2.502-.29 3.724.136.563.194 1.688.815 1.979 1.416.213.408.562.737 1.241 1.377.369.33.601.524.776.68.252.193.29.251.368.387.233.466.156.95.04 1.63ZM24.146 18.86c.077.02.116.117.058.194-.175.272-.388.66-.64 1.106-.116.213-.233.427-.33.582-.33.562-.349 1.047-.368 1.416-.02.407-.04.581-.291.737-.194.136-.408.174-1.804.388-.252.038-.35.077-.446.135-.02.02-.058.02-.078.04-.078.038-.155-.04-.155-.117.02-.194.02-.446.02-.776v-.058c0-.272 0-.505-.02-.68-.02-.348-.02-.503.078-.659.116-.194.213-.252.349-.349.213-.136.504-.31.911-.892.233-.31.272-.485.31-.62.02-.059.02-.078.195-.214.174-.136.737-.563 1.454-.446.233.039.485.116.757.213ZM18.571 25.308c-.038.039-.058.058-.116.058-.155 0-.252-.039-.31-.116-.136-.175-.117-.524-.097-.737l.6-.156c.04.33.06.776-.077.95ZM18.614 23.163c-.02.077-.02.174-.02.29v.447c-.193.058-.349.058-.543.058v-.505c0-.116 0-.29.02-.349.058 0 .116-.019.174-.038.117-.02.291-.059.388-.04 0 .04 0 .098-.019.137ZM17.53 25.13c-.02.311-.117.68-.408.738-.136.02-.194-.02-.233-.058-.194-.175-.213-.718-.194-1.106.136 0 .291-.02.485-.058.116-.02.233-.058.33-.078.02.155.039.35.02.563ZM17.39 24.035l-.64.233c.04-.252.078-.602.098-.834.02-.155.058-.214.077-.233 0 0 .02-.02.04-.02h.038l.407-.019c-.02.194-.02.62-.02.873ZM16.342 23.843c-.039.096-.077.368-.097.562l-.795-.02c.039-.252.116-.504.175-.698.077-.194.135-.349.213-.388.078-.038.252-.058.368.04.175.116.214.29.136.504ZM16.056 26.285c-.058.078-.135.136-.213.136-.097.02-.155-.02-.213-.058-.252-.233-.233-.99-.214-1.358.33-.078.699-.136.873-.155 0 .29.02 1.086-.233 1.435ZM15.004 24.344a1.7 1.7 0 0 0-.097.29c-.097.04-.388 0-.679-.058l.194-1.26c.33-.097.718-.117.795-.02.136.136-.116.776-.213 1.048ZM14.638 26.481c-.155.194-.388.291-.718.272-.232 0-.31-.097-.349-.155-.175-.291 0-.97.175-1.397l1.086.058c.02.078.02.175.02.272.019.33-.02.718-.214.95Z"/><path fill="#F3F3F3" d="M23.633 17.319c-.989-.272-.892-1.707-.814-3.104.019-.485.058-.95.038-1.338-.077-1.3-.29-2.715-1.338-3.356-1.125-.678-2.968-.523-4.093-.387-.407.116-.795.213-1.105.194-.66-.04-1.184-.31-1.649-.563-.35-.194-.66-.369-.97-.369h-.039c-.873.059-1.28.272-1.648.602-.097.077-.214.31-.582 1.377-.194.543-.214.834-.252 1.105-.04.253-.059.524-.194.932a7.852 7.852 0 0 0-.233.737c-.175.6-.33 1.086-.757 1.668-.058.058-.116.174-.194.271-.097.155-.213.35-.388.563-.116.155-.368.737-.349.911.02.291.117.466.214.66.097.194.232.427.252.756v.059c.039.504-.039.756-.99 1.61A10.425 10.425 0 0 0 7.205 21.1c-.02.039 0 .078.058.078h.194c.233.02.466.116.621.29.02.04.078.04.117.02.155-.058.33-.058.484-.039.194.02.408.078.544.214a.15.15 0 0 0 .155.038.828.828 0 0 1 .485.02.69.69 0 0 1 .31.213.206.206 0 0 0 .233.04c.039-.02.097-.06.155-.079.213-.077.446-.038.64.04.097.038.194.058.29.135a.932.932 0 0 1 .33.446c.04.097.175.136.253.058.155-.116.271-.135.388-.097.058.02.097.059.136.117.058.077.155.155.232.116.33-.097.718-.039 1.009.117.097.058.213.135.272.252v-.058c0-.02.019-.04.038-.059l.059-.02c.155-.057.97-.29 1.28.04.019.02.038.02.058 0 .039-.04.077-.078.097-.078.213-.116.562-.136.795.078.039.038.116.02.155-.02a.151.151 0 0 1 .078-.077c.077-.078.194-.097.31-.097l.446-.02c.117 0 .466-.038.563-.058h.02c.038 0 .096-.02.154-.039.214-.038.466-.097.66 0s.174.31.155.505c0 .077-.02.155-.02.232v.117c0 .174 0 .33-.019.446l.02.097v.02c.019.077.116.135.174.077.155-.097.31-.213.369-.291v-.02c0-.019.02-.058.039-.135.019-.175.058-.505.058-1.183v-.078c0-.252 0-.465-.02-.64-.02-.369-.038-.66.155-.95.175-.291.35-.389.524-.505.194-.116.408-.252.776-.756.175-.253.194-.35.213-.427.04-.194.097-.31.388-.504.233-.175.912-.699 1.843-.543.31.058.795.213 1.3.407.019 0 .038.02.058.02h.02c.445.174.853.368 1.144.523.058.039.135.02.194-.039.097-.116.194-.174.29-.252.04-.02.078-.039.097-.058.02 0 .02-.02.02-.02.077-.058.077-.213-.02-.252a19.018 19.018 0 0 0-2.948-1.144Zm-9.349.29c-.31 1.32-2.366 2.794-3.297 2.794h-.059c-.019 0-.038 0-.058-.02h-.038a1.55 1.55 0 0 1-.582-.349 1.017 1.017 0 0 1-.253-.407c0-.02-.019-.058-.019-.078-.058-.232-.116-.504.078-.97.019-.058.058-.116.077-.174 0-.02.02-.039.02-.058.019-.058.038-.097.058-.136.02-.077.058-.136.077-.174 0-.02.02-.04.02-.059.058-.155.058-.213.077-.271 0-.039.02-.117.04-.194.057-.252.096-.466.115-.64.04-.33.098-.62.272-.893.039-.038.058-.077.097-.116l.039-.039.039-.038c.038-.04.097-.059.135-.078.02 0 .04-.02.059-.02.038-.019.077-.019.116-.038a2.01 2.01 0 0 1 .601-.02c.252.02.485.059.68.117.174.039.329.097.445.155.02 0 .02.02.04.02.018.019.038.019.077.038.038.02.058.02.097.039l.116.058.039.02c.136.058.271.135.368.213.059.039.097.078.136.116.02.02.039.02.039.04.02.018.02.018.039.038.407.349.388.834.31 1.125Zm.97-5.023-.039.233c-.097.543-.31 1.28-1.086 1.474-.757.175-.931.213-1.455.252h-.039c-.388 0-1.144-.252-1.28-.853-.077-.388.097-.68.369-1.145.038-.077.097-.155.155-.252.388-.64.524-1.105.64-1.474.116-.368.213-.66.466-.912.058-.058.116-.116.193-.155.04-.039.097-.058.156-.097.077-.039.155-.058.232-.097.175-.058.369-.077.543-.077.369 0 .738.097.99.31.116.097.29.272.388.834.038.291-.04.815-.233 1.96Zm5.567 1.552c-.272.465-.408.717-.64.912-.466.387-.99.465-1.436.465-.31 0-.582-.058-.756-.078-.466-.077-1.3-.232-1.59-.911-.059-.136-.059-.214-.059-.33 0-.097 0-.29-.058-.698v-.02a2.631 2.631 0 0 1 0-.678v-.04c.155-.814.213-.93.233-1.008a.32.32 0 0 1 .446-.136c.155.078.213.272.155.427-.02.039-.058.213-.194.854v.038c-.039.175-.02.31 0 .485v.02c.058.465.058.66.058.775v.078c.058.136.175.213.31.291.098.039.195-.039.175-.136-.136-.718-.136-1.552.136-2.075.097-.175.252-.446.407-.718a.147.147 0 0 0 .039-.077c.02-.02.02-.04.039-.059.077-.116.136-.213.194-.31 0-.02.02-.02.02-.039l.018-.02c.02-.019.02-.038.04-.057 0 0 0-.02.019-.02l.02-.02c0-.019.019-.019.019-.038.058-.078.116-.155.155-.233.077-.097-.02-.213-.117-.174-.271.116-.446.252-.485.271a.32.32 0 0 1-.465-.058.32.32 0 0 1 .058-.466c.175-.135 1.067-.775 2.134-.484.775.213 1.163.814 1.319 1.028.116.174.504.717.485 1.493 0 .563-.233.99-.68 1.746Z"/><path fill="#F3F3F3" d="M13.884 10.154c-.058.136-.117.291-.194.466-.155.407-.35.873-.446 1.047a5.786 5.786 0 0 1-.369.62c-.116.175-.194.311-.271.505-.117.33-.136.699-.059 1.106-.213-.02-.543-.155-.582-.35-.019-.135.059-.27.292-.678.038-.078.096-.175.155-.252a6.972 6.972 0 0 0 .698-1.61c.136-.408.194-.582.407-.737.136-.059.252-.097.369-.117ZM13.476 24.802c-.233.466-.504.893-.679 1.106-.155-.388-.407-1.3-.33-2.017v-.058c.02-.233.078-.427.194-.602.078-.116.272-.174.485-.174.155 0 .33.038.485.116.078.039.194.136.194.388.039.35-.136.815-.349 1.241Z"/><path fill="#F3F3F3" d="M25.886 19.62c.02.02.02.04.02.059-.059.136-.156.233-.253.349-.116.136-.252.29-.368.543-.175.35-.233.66-.253 1.474-.038.95 0 1.474.04 1.862.019.369.038.602-.02.97-.136.737-.446 1.222-.854 1.843-.504.776-1.008 1.57-1.862 1.823-.077.02-.077.02-.31.02-.194 0-.524 0-1.125.019-1.125.039-1.688.058-2.153.155-.504.097-.757.213-1.028.31a4.966 4.966 0 0 1-.854.272c-.252.058-.62.097-1.881.116-1.319 0-2.114 0-3.142-.116-1.435-.155-2.153-.252-2.638-.504-1.125-.602-1.61-1.688-2.386-3.472 0-.02.02-.04.039-.04l.116.059a.21.21 0 0 0 .097.02c.078.019.155.019.233 0 .02 0 .02 0 .039-.02.02 0 .039 0 .039.02a.646.646 0 0 0 .271.33c.136.077.291.077.427.077.155 0 .31-.02.465-.04.078 0 .156.04.194.098.136.349.31.582.582.62h.058c.059 0 .156-.019.272-.096.097-.078.252-.02.33.077a.742.742 0 0 0 .213.213c.272.272.931.408 1.474.408.291 0 .563-.039.718-.116.233-.117.233-.272.213-.35-.02-.116-.039-.252-.058-.368 0-.02.02-.02.02 0 .038.077.077.155.174.174h.039c.155 0 .388.059.427.194.019.078.058.136.096.214.098.136.272.31.64.33h.02c.427 0 .756-.136.97-.408.02-.02.02-.039.039-.058.077-.116.31-.116.407-.02a.626.626 0 0 0 .407.156h.078c.194-.02.349-.117.485-.291.077-.117.136-.252.174-.408.02-.038.078-.058.117-.019a.567.567 0 0 0 .407.155c.039 0 .097 0 .155-.02.369-.077.563-.387.64-.717 0-.02.02-.02.02 0a.703.703 0 0 0 .562.252h.039a.506.506 0 0 0 .388-.194c.116-.155.155-.388.175-.601 0-.058.038-.116.116-.155.31-.136.698-.427.815-.62 0 0 0-.02.019-.02.02-.058.078-.097.116-.097.253-.039.35-.097.447-.136.077-.039.135-.058.33-.097 1.415-.213 1.687-.271 1.997-.465.466-.31.485-.738.504-1.145.02-.349.04-.737.31-1.203.098-.174.214-.368.33-.6.214-.389.505-.932.718-1.223a.126.126 0 0 1 .175-.039c.485.175.911.369.989.447Z"/><path fill="#F3F3F3" d="M12.116 23.854a9.393 9.393 0 0 0-.02 1.998c.02.233.059.485.098.737-.058.039-.272.097-.62.078-.505-.02-1.01-.136-1.165-.31l-.02-.02c-.115-.097-.212-.174-.212-.35 0-.057.019-.115.077-.212a.677.677 0 0 0 .117-.175c.077-.116.193-.252.31-.446.33-.543.446-.718.601-.931.02-.02.02-.039.039-.058.097-.117.194-.272.368-.524.117-.175.214-.33.31-.446.137-.194.233-.291.292-.35 0 .078-.02.195-.04.311a2.79 2.79 0 0 0-.135.698ZM11.865 16.205c0 .02 0 .02 0 0a2.176 2.176 0 0 0-.253.407c-.252.543-.252.854-.252 1.106 0 .136 0 .233-.038.349-.02.078-.059.174-.117.271-.136.33-.33.757-.252 1.339a1.214 1.214 0 0 1-.33-.252c0-.04-.02-.059-.02-.097-.038-.175-.057-.291.04-.563.31-.698.349-.873.368-1.067 0-.038.02-.077.02-.135.058-.272.096-.505.116-.699.039-.29.078-.485.175-.62.038-.059.135-.078.271-.078.058 0 .116 0 .194.02h.02l.058.019ZM11.476 23.149a1.584 1.584 0 0 0-.117-.505s-.019-.038-.019-.058c-.02-.02-.02-.038-.039-.058l-.02-.02c-.019-.019-.019-.019-.038-.019l-.02-.02c-.019 0-.019-.018-.038-.018h-.02a1.451 1.451 0 0 0-.31-.098h-.097c-.02 0-.039.02-.077.02-.02 0-.02.02-.04.02l-.019.019-.038.039-.02.019v.02l-.116.174c-.097.136-.194.29-.291.427-.097.135-.175.252-.272.387-.058.078-.097.136-.155.214 0 .02-.02.02-.02.039.059.02.117.02.175.038.136.02.272.04.388.059.272.038.563.058.834.038h.039c.058-.096.155-.213.252-.368.058-.078.117-.155.155-.233-.058-.02-.077-.077-.077-.116ZM10.49 24.293c-.02.213-.252.757-.621 1.28-.31.427-.504.543-.543.543-.155-.019-.291-.387-.408-.756-.038-.155-.096-.291-.116-.427a2.88 2.88 0 0 1-.077-.892c.31.175.853.213 1.629.213.039.02.097.02.136.04ZM9.946 22.55c-.136.213-.272.407-.408.601-.077.097-.136.194-.213.291-.039.058-.097.116-.136.175-.116-.02-.213-.059-.33-.078-.097-.02-.174-.058-.271-.097-.02 0-.039-.02-.058-.02-.02-.019-.04-.057-.059-.077.04-.058.059-.136.097-.194.059-.116.117-.233.194-.349.117-.194.253-.407.466-.543.02 0 .02-.02.039-.02.077-.038.155-.077.252-.096h.155c.02 0 .039.019.078.019 0 0 .019 0 .019.02.02.019.039.019.058.038-.039-.02.039.058.039.039.039.116.058.174.078.29ZM8.898 21.967c-.253.194-.427.466-.563.757l-.233.465c0 .02-.02.04-.02.04a3.181 3.181 0 0 1-.212-.059c-.078-.02-.156-.058-.233-.078-.039-.019-.058-.038-.097-.058a4.64 4.64 0 0 1 .252-.407c.116-.175.252-.369.388-.524.058-.058.116-.136.174-.174a.369.369 0 0 1 .253-.02c.097 0 .194 0 .271.039-.02 0 0 .02.02.02ZM8.507 25.257l-.04.039h-.019c-.058 0-.116.02-.174.02-.117 0-.233.018-.35 0a.22.22 0 0 1-.154-.06c-.04-.057-.059-.174-.078-.251a4.722 4.722 0 0 1-.039-1.28c.214.077.446.135.68.174-.06.388.038.95.077 1.106.058.077.077.174.097.252ZM7.809 21.853a5.237 5.237 0 0 0-.524.756c-.058.097-.136.214-.194.33a.717.717 0 0 1-.213-.097c-.058-.039-.116-.077-.155-.116-.02-.02-.058-.039-.078-.058 0 0-.02 0-.02-.02.02-.058.059-.097.059-.136.039-.096.078-.174.136-.252.097-.155.194-.31.31-.465.039-.058.078-.117.155-.136.058-.02.136 0 .194 0a.65.65 0 0 1 .33.194ZM6.316 22.86c.02-.02 0-.02 0 0 .078.078.136.136.213.194.04.02.059.058.097.078v.02c-.077.329-.135.678-.135 1.027 0 .02-.02.02-.02 0-.097-.407-.213-1.067-.155-1.319ZM7.27 23.599a4.389 4.389 0 0 0-.039.872c0 .155.02.31.04.485h-.156l-.078-.038c-.038-.02-.077-.078-.116-.136a.884.884 0 0 1-.097-.446c-.02-.291.02-.602.078-.893.039.02.097.04.155.058.077.04.136.078.213.098Z"/><mask id="d" width="36" height="36" x="0" y="0" maskUnits="userSpaceOnUse" style="mask-type:luminance"><path fill="#fff" d="M36 18c0-9.95-8.069-18-18-18C8.05 0 0 8.05 0 18c0 9.931 8.05 18 18 18 9.931 0 18-8.069 18-18Z"/></mask><g stroke-miterlimit="10" mask="url(#d)" opacity=".8"><path stroke="url(#e)" stroke-width=".205" d="M14.817 36.74c-1.261 0-2.483-.078-3.492-.156l-.232-.02-.233-.038c-.155-.02-.33-.039-.504-.058-.99-.097-2.619-.291-4.442-1.145l-.272-.135-.252-.136c-3.55-1.96-4.85-4.888-5.625-6.634-.058-.116-.116-.271-.194-.407-.368-.737-.601-1.435-.795-2.056l-.039-.136-.039-.116c-.504-1.843-.64-3.395-.407-4.927.233-1.513.815-2.929 1.823-4.403l.757-1.222c.135-.213.232-.465.271-.717.369-2.095 1.358-3.57 1.804-4.248l.058-.078.02-.039c0-.02.02-.039.02-.058.018-.097.057-.175.077-.252.116-.854.33-1.707.62-2.522l.04-.116.038-.116c.02-.04.02-.078.058-.194.213-.64.66-1.979 1.823-3.414l.427-.504.427-.388a10.108 10.108 0 0 1 3.995-2.25 10.731 10.731 0 0 1 2.6-.447h.194c.155 0 .29-.019.426-.019.64 0 1.261-.175 1.882-.058.485.097.97.039 1.416-.155.834-.369 1.959-.505 3.239-.68.097-.019.175-.019.233-.038.174-.02.446-.058.756-.078a24.348 24.348 0 0 1 2.386-.116c1.784 0 3.297.233 4.636.679l.116.039.097.039c2.948 1.125 4.403 2.599 5.548 4.053.058.078.135.156.155.194l.02.02.212.194.02.039c.99.756 1.823 1.687 2.463 2.734l.194.31.155.33c1.397 2.852.97 5.47.776 6.576l-.02.058a12.56 12.56 0 0 1-.64 2.367 11.786 11.786 0 0 1-.503 2.172 12.454 12.454 0 0 1-1.669 3.278 11.282 11.282 0 0 1-1.687 1.9c-.291.272-.485.621-.524 1.029l-.116.853a12.076 12.076 0 0 1-1.862 4.52l-1.125 1.629c-1.494 1.92-3.259 3.162-5.392 3.821l-.486.155-.523.097c-.62.117-1.26.175-1.882.155h-.872c-.291.02-.582.059-.873.156-1.416.465-3.065.678-5.082.678Z" opacity=".8"/><path stroke="url(#f)" stroke-width=".192" d="M14.822 35.137c-1.203 0-2.386-.078-3.375-.155l-.194-.02-.194-.02c-.175-.019-.369-.038-.563-.057-.93-.097-2.347-.252-3.937-1.009l-.214-.097-.194-.116c-3.045-1.707-4.17-4.229-4.907-5.897-.058-.136-.136-.31-.194-.446a11.35 11.35 0 0 1-.718-1.862l-.038-.097-.02-.097c-.446-1.59-.562-2.948-.368-4.228.194-1.3.717-2.522 1.61-3.822l.116-.155.116-.155c.078-.097.136-.194.214-.271l.446-.834c.155-.272.252-.563.29-.873.292-1.862 1.184-3.2 1.591-3.822.02-.038.059-.077.078-.096l.097-.136a2.26 2.26 0 0 0 .116-.291c.04-.117.097-.291.136-.446.097-.796.291-1.571.563-2.328l.038-.097.04-.097c.019-.077.057-.136.096-.271.194-.602.563-1.707 1.552-2.91l.33-.407.349-.31a8.817 8.817 0 0 1 3.394-1.92 9.76 9.76 0 0 1 2.25-.389h.524c.66 0 1.3.078 1.94.252a2.37 2.37 0 0 0 1.629-.174c.814-.388 1.9-.815 3.162-.97.077-.02.155-.02.213-.039.155-.02.407-.058.718-.077a21.518 21.518 0 0 1 2.23-.117c1.59 0 2.929.194 4.112.602l.078.038.077.04c2.716 1.027 3.919 2.366 4.85 3.549.213.252.232.29.368.426l.175.156.058.077a8.592 8.592 0 0 1 2.153 2.367l.155.252.136.252c1.183 2.386.814 4.558.64 5.606l-.02.058a9.146 9.146 0 0 1-.64 2.23v.059a9.935 9.935 0 0 1-.446 1.997 9.907 9.907 0 0 1-1.454 2.852 9.768 9.768 0 0 1-1.882 2.017c-.174.136-.31.31-.407.504a1.749 1.749 0 0 0-.175.62c-.02.428-.077.854-.155 1.281-.369 1.96-1.222 3.317-1.649 3.996l-.873 1.28c-1.3 1.746-2.85 2.87-4.732 3.453l-.388.116-.427.077a8.87 8.87 0 0 1-1.61.136h-.718l-.446.02c-.31.019-.62.058-.911.174-1.339.427-2.871.62-4.791.62Z" opacity=".8"/><path stroke="url(#g)" stroke-width=".179" d="M14.816 33.511c-1.144 0-2.289-.077-3.24-.155l-.135-.02-.136-.019c-.194-.02-.407-.058-.6-.077-.874-.097-2.076-.233-3.434-.854l-.155-.077-.155-.078c-2.58-1.455-3.53-3.588-4.229-5.14a5.271 5.271 0 0 1-.213-.485 12.307 12.307 0 0 1-.64-1.649l-.02-.077-.058-.058c-.756-2.677-.465-4.559 1.009-6.712l.077-.116.078-.116c.097-.117.194-.253.29-.369.137-.175.272-.369.428-.543.096-.117.174-.252.232-.388l.175-.427c.077-.194.116-.388.136-.582.155-1.726.989-2.967 1.396-3.588.039-.039.078-.116.097-.136l.097-.155.039-.039c.058-.097.155-.33.233-.562.038-.155.116-.408.194-.62v-.02a8.84 8.84 0 0 1 .504-2.115l.02-.058.019-.058c.039-.116.077-.213.116-.35.175-.523.466-1.415 1.26-2.404l.253-.31.252-.233c1.882-1.707 3.976-1.843 4.675-1.901h.407c.834 0 1.649.174 2.425.504.135.058.29.078.426.078a.83.83 0 0 0 .427-.117c.718-.407 2.017-1.163 3.686-1.357.077-.02.155-.02.213-.02.155-.02.388-.039.66-.077a26.7 26.7 0 0 1 2.075-.097c1.416 0 2.58.174 3.569.504l.058.02.058.019c2.328.873 3.317 1.978 4.15 3.026.214.29.33.407.563.64l.136.116.097.116.078.059c.388.31 1.125.872 1.784 1.94l.117.193.097.194c.95 1.94.64 3.686.485 4.617v.058a9.065 9.065 0 0 1-.582 1.998l-.02.058c0 .02 0 .02-.02.058-.019.058-.019.116-.019.175l-.019.077a7.112 7.112 0 0 1-.388 1.688 8.69 8.69 0 0 1-1.241 2.424 7.8 7.8 0 0 1-1.785 1.862 2.369 2.369 0 0 0-.698.815c-.175.33-.252.679-.252 1.047 0 .446-.058.912-.136 1.358-.31 1.668-1.009 2.793-1.455 3.472l-.64.95c-1.125 1.572-2.463 2.58-4.073 3.085l-.078.019c-.135.039-.271.078-.407.097l-.097.02a7.797 7.797 0 0 1-1.338.116H20.887c-.213 0-.485.02-.717.02-.33.019-.64.077-.95.193-1.165.35-2.58.543-4.404.543Z" opacity=".8"/><path stroke="url(#h)" stroke-width=".166" d="M14.817 31.893c-1.106 0-2.192-.078-3.123-.155h-.097l-.097-.02c-.213-.039-.446-.058-.66-.077-.814-.097-1.823-.194-2.909-.718l-.116-.058-.097-.058c-2.115-1.184-2.91-2.968-3.53-4.403-.078-.175-.156-.35-.233-.544a9.885 9.885 0 0 1-.563-1.435l-.02-.058-.019-.058c-.62-2.212-.407-3.608.796-5.354l.058-.077.058-.078c.097-.136.194-.252.291-.388.31-.407.62-.814 1.067-1.3a.712.712 0 0 0 .174-.387l.02-.446-.02-.175v-.175c.04-1.435.757-2.502 1.145-3.084.039-.058.097-.135.116-.174l.058-.097.059-.078c.077-.116.252-.524.407-.892.058-.155.136-.465.233-.718.02-.077.02-.097.038-.271a7.783 7.783 0 0 1 .408-1.765l.02-.04.019-.038c.058-.155.097-.271.155-.427.155-.465.388-1.144.989-1.9l.175-.214.174-.155c1.32-1.183 2.735-1.416 3.705-1.474h.291c.815 0 1.804.388 2.327.64a.883.883 0 0 0 .388.097c.136 0 .272-.02.408-.058.33-.117.64-.252.93-.408.66-.388 1.746-1.008 3.104-1.163.078-.02.136-.02.194-.02.136-.02.35-.039.62-.077a22.782 22.782 0 0 1 1.921-.097c1.222 0 2.23.135 3.045.426l.04.02.038.02c1.94.736 2.715 1.57 3.453 2.52a4.9 4.9 0 0 0 .756.835l.077.077.078.078c.078.077.155.136.233.194.33.252.892.698 1.377 1.513l.078.116.058.136c.718 1.455.485 2.832.349 3.646v.059a6.847 6.847 0 0 1-.485 1.629 2.76 2.76 0 0 0-.136.427c-.02.097-.039.194-.039.271l-.019.078a6.735 6.735 0 0 1-.31 1.377 7.442 7.442 0 0 1-1.009 1.998c-.66.93-1.416 1.59-2.328 2.017a1.255 1.255 0 0 0-.543.466 1.423 1.423 0 0 0-.232.678v.233c.039.699.097 1.494-.058 2.328-.253 1.358-.835 2.27-1.261 2.948 0 0-1.979 2.754-3.783 3.317l-.194.058-.213.039c-.35.058-.698.097-1.067.097h-.368c-.078 0-.194 0-.369.02h-.077c-.699.019-1.339.038-1.533.077-.097.02-.194.039-.29.078-.951.407-2.29.6-4.132.6Z" opacity=".8"/><path stroke="url(#i)" stroke-width=".166" d="M14.82 30.325c-1.047 0-2.095-.077-2.987-.136h-.078c-.252-.038-.484-.058-.698-.077-.756-.078-1.551-.175-2.405-.563l-.058-.019-.058-.02c-1.649-.93-2.27-2.308-2.852-3.646-.077-.194-.174-.388-.271-.582a7.192 7.192 0 0 1-.466-1.222v-.039c-.504-1.765-.368-2.657.563-4.015l.02-.038.019-.04c.116-.135.213-.27.31-.387.446-.582.834-1.086 1.707-1.901a.466.466 0 0 0 .136-.233.378.378 0 0 0-.02-.252l-.155-.446a1.616 1.616 0 0 1-.058-.427V16.07c.039-.97.543-1.726.873-2.23.058-.078.097-.156.136-.214l.038-.058.04-.059c.174-.232.465-.911.62-1.318a9.6 9.6 0 0 1 .233-.718c.058-.194.097-.388.116-.582a5.79 5.79 0 0 1 .33-1.416v-.039c.077-.194.135-.349.174-.504.136-.407.291-.873.718-1.397l.078-.097.077-.077c.931-.854 1.96-1.009 2.735-1.067H13.812c.775 0 1.357.31 1.745.524l.097.038h.02c.116.059.194.117.29.156.233.116.524.155.776.077a8.86 8.86 0 0 0 1.92-.776h.02c.582-.349 1.474-.853 2.522-.97.058-.019.135-.019.194-.019a8.7 8.7 0 0 1 .562-.058 19.603 19.603 0 0 1 1.765-.097c1.048 0 1.882.116 2.522.33h.038c1.552.582 2.134 1.202 2.755 2.017.252.33.504.64.97 1.047l.039.04.038.038c.117.116.252.233.408.35.271.212.66.503.989 1.066l.039.058.038.058c.485 1.009.33 1.96.214 2.677v.058a5.26 5.26 0 0 1-.388 1.3 3.218 3.218 0 0 0-.213.737c-.02.155-.04.271-.059.368l-.02.078a4.987 4.987 0 0 1-.232 1.067 5.452 5.452 0 0 1-.795 1.57c-.582.854-1.241 1.378-2.114 1.65a1.84 1.84 0 0 0-1.009.776l-.078.096-.077.097c-.213.253-.155 1.222-.116 1.804.038.64.077 1.3-.04 1.92-.193 1.067-.659 1.785-1.066 2.406 0 0-1.513 2.192-2.89 2.599l-.097.039-.097.02a5.273 5.273 0 0 1-.795.077h-.388c-.097 0-.233 0-.466.019h-.039c-.911.039-1.474.058-1.784.116a3.072 3.072 0 0 0-.602.175c-.834.33-1.959.504-3.588.504Z" opacity=".8"/></g></g></g><defs><linearGradient id="e" x1="-.924" x2="37.097" y1="-2.182" y2="37.886" gradientUnits="userSpaceOnUse"><stop offset=".206" stop-color="#89D0FF"/><stop offset=".398" stop-color="#EBBF9A"/><stop offset=".602" stop-color="#EB80DA"/><stop offset=".841" stop-color="#A281FF"/></linearGradient><linearGradient id="f" x1=".696" x2="35.495" y1="-.565" y2="36.285" gradientUnits="userSpaceOnUse"><stop offset=".206" stop-color="#89D0FF"/><stop offset=".398" stop-color="#EBBF9A"/><stop offset=".602" stop-color="#EB8280"/><stop offset=".841" stop-color="#A281FF"/></linearGradient><linearGradient id="g" x1="2.304" x2="33.873" y1="1.036" y2="34.657" gradientUnits="userSpaceOnUse"><stop offset=".206" stop-color="#89D0FF"/><stop offset=".398" stop-color="#EBBF9A"/><stop offset=".602" stop-color="#EB80E7"/><stop offset=".841" stop-color="#A281FF"/></linearGradient><linearGradient id="h" x1="3.908" x2="32.255" y1="2.646" y2="33.036" gradientUnits="userSpaceOnUse"><stop offset=".206" stop-color="#89D0FF"/><stop offset=".398" stop-color="#EBBF9A"/><stop offset=".602" stop-color="#EB80D3"/><stop offset=".841" stop-color="#A281FF"/></linearGradient><linearGradient id="i" x1="5.536" x2="30.657" y1="4.269" y2="31.44" gradientUnits="userSpaceOnUse"><stop offset=".206" stop-color="#89D0FF"/><stop offset=".398" stop-color="#EBBF9A"/><stop offset=".602" stop-color="#A280EB"/><stop offset=".841" stop-color="#A281FF"/></linearGradient><clipPath id="a"><path fill="#fff" d="M0 0h36v36H0z"/></clipPath><clipPath id="b"><path fill="#fff" d="M0 0h36v36H0z"/></clipPath><radialGradient id="c" cx="0" cy="0" r="1" gradientTransform="matrix(0 20.22 -20.22 0 18 19.88)" gradientUnits="userSpaceOnUse"><stop offset=".167" stop-color="#073183"/><stop offset="1" stop-color="#0054F9"/></radialGradient></defs></svg>