<svg xmlns="http://www.w3.org/2000/svg" xmlns:xlink="http://www.w3.org/1999/xlink" width="42" height="42" fill="none" xmlns:v="https://vecta.io/nano"><style><![CDATA[.B{opacity:.8}.C{stroke-miterlimit:10}.D{stroke-width:.227}.E{stroke-width:.185}]]></style><path d="M41 21C41 9.944 32.035 1 21 1A19.99 19.99 0 0 0 1 21c0 11.035 8.944 20 20 20 11.035 0 20-8.965 20-20z" fill="url(#B)"/><g fill="#f3f3f3"><path d="M34.695 15.417c-.086.496-.172.733-.302.991-.129.302-.259.625-.388 1.315l-.108.646v.022c-.043.28-.065.474-.172.797-.086.28-.237.733-.603 1.207-.302.388-.797 1.056-1.465 1.142-.065 0-.172 0-.237-.021l-4.073-1.832c-.646-.194-.56-1.616-.496-2.866l.043-1.552c-.086-1.595-.366-3.319-1.746-4.159-.819-.496-1.897-.647-2.91-.647.194-.086.388-.216.625-.345.603-.345 1.336-.776 2.091-.862l.711-.086c1.487-.172 2.78-.323 4.138.151.625.216 1.875.905 2.198 1.573.237.453.625.819 1.379 1.53l.862.754c.28.216.323.28.409.431.259.517.172 1.056.043 1.81zm-6.867 6.538c.086.021.129.129.065.216l-.711 1.228-.366.647c-.366.625-.388 1.164-.409 1.573-.022.453-.043.646-.323.819-.215.151-.453.194-2.004.431-.28.043-.388.086-.496.151-.022.022-.065.022-.086.043-.086.043-.172-.043-.172-.129.022-.215.022-.496.022-.862v-.065l-.022-.754c-.022-.388-.022-.56.086-.733.129-.216.237-.28.388-.388.237-.151.56-.345 1.013-.991.259-.345.302-.539.345-.69.021-.065.021-.086.216-.237s.819-.625 1.616-.496c.259.043.539.129.84.237zm-6.194 7.164c-.043.043-.065.065-.129.065-.172 0-.28-.043-.345-.129-.151-.194-.129-.582-.108-.819l.668-.172c.043.366.065.862-.086 1.056zm.048-2.384c-.021.086-.021.194-.021.323v.129.366c-.215.065-.388.065-.604.065v-.237-.151-.172c0-.129 0-.323.022-.388a.63.63 0 0 0 .194-.043c.129-.021.323-.065.431-.043 0 .043 0 .108-.022.151zm-1.206 2.187c-.022.345-.129.754-.453.819-.151.022-.216-.021-.259-.065-.215-.194-.237-.797-.215-1.229.151 0 .323-.021.539-.065.129-.022.259-.065.366-.086a2.87 2.87 0 0 1 .022.625zm-.153-1.218l-.711.259.108-.927c.021-.172.065-.237.086-.259 0 0 .021-.022.043-.022h.021.022l.453-.021c-.022.215-.022.69-.022.97zm-1.166-.214c-.043.108-.086.409-.108.625l-.884-.021c.043-.28.129-.56.194-.776.086-.216.151-.388.237-.431s.28-.065.409.043c.194.129.237.323.151.56zm-.317 2.714c-.065.086-.151.151-.237.151-.108.021-.172-.022-.237-.065-.28-.259-.259-1.099-.237-1.509a9.35 9.35 0 0 1 .97-.172c0 .323.022 1.207-.259 1.595zm-1.169-2.157c-.043.108-.086.216-.108.323-.108.043-.431 0-.754-.065l.216-1.401c.366-.108.797-.129.884-.022.151.151-.129.862-.237 1.164zm-.407 2.375c-.172.215-.431.323-.797.302-.259 0-.345-.108-.388-.172-.194-.323 0-1.078.194-1.552l1.207.065c.022.086.022.194.022.302.022.366-.022.797-.237 1.056z"/><path d="M27.259 20.242c-1.099-.302-.991-1.896-.905-3.448l.043-1.487c-.086-1.444-.323-3.017-1.487-3.729-1.25-.754-3.297-.582-4.547-.431-.453.129-.884.237-1.228.216-.733-.043-1.315-.345-1.832-.625-.388-.216-.733-.41-1.078-.41h-.043c-.97.065-1.422.302-1.832.668-.108.086-.237.345-.646 1.53-.216.603-.237.927-.28 1.228-.043.28-.065.582-.216 1.035l-.259.819c-.194.668-.366 1.207-.841 1.853-.065.065-.129.194-.216.302-.108.172-.237.388-.431.625-.129.172-.409.819-.388 1.013.022.323.129.517.237.733s.259.474.28.84v.065c.043.56-.043.84-1.099 1.789a11.59 11.59 0 0 0-1.487 1.616c-.022.043 0 .086.065.086h.022.065.065.065a1.04 1.04 0 0 1 .69.323c.022.043.086.043.129.021.172-.065.366-.065.539-.043.216.022.453.086.604.237.043.043.108.065.172.043a.92.92 0 0 1 .539.022c.129.043.259.129.345.237a.23.23 0 0 0 .259.043c.043-.021.108-.065.172-.086.237-.086.496-.043.711.043.108.043.216.065.323.151.172.129.302.302.366.496.043.108.194.151.28.065.172-.129.302-.151.431-.108.065.022.108.065.151.129.065.086.172.172.259.129.366-.108.797-.043 1.121.129.108.065.237.151.302.28v-.065c0-.021.021-.043.043-.065l.065-.022c.172-.065 1.078-.323 1.422.043.021.022.043.022.065 0 .043-.043.086-.086.108-.086.237-.129.625-.151.884.086.043.043.129.022.172-.021.022-.043.043-.065.086-.086.086-.086.215-.108.345-.108l.496-.022c.129 0 .517-.043.625-.065h.022c.043 0 .108-.022.172-.043.237-.043.517-.108.733 0s.194.345.172.56c0 .086-.022.172-.022.259v.129l-.021.496.021.108v.022c.022.086.129.151.194.086.172-.108.345-.237.409-.323v-.022c0-.021.021-.065.043-.151.022-.194.065-.56.065-1.315v-.086l-.021-.711c-.022-.41-.043-.733.172-1.056.194-.323.388-.431.582-.56.215-.129.453-.28.862-.84.194-.28.215-.388.237-.474.043-.215.108-.345.431-.56.259-.194 1.013-.776 2.047-.603.345.065.884.237 1.444.453.022 0 .043.022.065.022h.021c.496.194.948.409 1.272.582.065.043.151.022.216-.043.108-.129.215-.194.323-.28a.47.47 0 0 0 .108-.065c.022 0 .022-.022.022-.022.086-.065.086-.237-.022-.28-1.444-.711-2.823-1.142-3.276-1.272zm-10.388.323c-.345 1.465-2.629 3.103-3.664 3.103h-.022-.043c-.021 0-.043 0-.065-.022h-.043c-.194-.065-.453-.194-.646-.388a1.13 1.13 0 0 1-.28-.453c0-.022-.021-.065-.021-.086a1.5 1.5 0 0 1 .086-1.078c.021-.065.065-.129.086-.194 0-.021.021-.043.021-.065a1.05 1.05 0 0 1 .065-.151c.021-.086.065-.151.086-.194 0-.021.022-.043.022-.065.065-.172.065-.237.086-.302 0-.043.021-.129.043-.216l.129-.711c.043-.366.108-.69.302-.991.043-.043.065-.086.108-.129l.043-.043.043-.043c.043-.043.108-.065.151-.086.022 0 .043-.021.065-.021.043-.022.086-.022.129-.043.194-.043.409-.043.668-.022a3.66 3.66 0 0 1 .754.129c.194.043.366.108.496.172.021 0 .021.022.043.022.021.021.043.021.086.043s.065.021.108.043l.129.065.043.021c.151.065.302.151.409.237a.92.92 0 0 1 .151.129c.022.021.043.021.043.043l.043.043c.453.388.431.927.345 1.25zm1.078-5.582l-.043.259c-.108.604-.345 1.422-1.207 1.638-.841.194-1.034.237-1.616.28h-.043c-.431 0-1.272-.28-1.423-.948-.086-.431.108-.754.41-1.271.043-.086.108-.172.172-.28.431-.711.582-1.228.711-1.638s.237-.733.517-1.013c.065-.065.129-.129.215-.172.043-.043.108-.065.172-.108.086-.043.172-.065.259-.108a1.95 1.95 0 0 1 .604-.086c.409 0 .819.108 1.099.345.129.108.323.302.431.927.043.323-.043.905-.259 2.177zm6.185 1.724c-.302.517-.453.797-.711 1.013-.517.431-1.099.517-1.595.517-.345 0-.646-.065-.841-.086-.517-.086-1.444-.259-1.767-1.013-.065-.151-.065-.237-.065-.366 0-.108 0-.323-.065-.776v-.021c-.022-.216-.043-.453 0-.754v-.043l.259-1.121c.086-.172.302-.259.496-.151.172.086.237.302.172.474-.021.043-.065.237-.215.948v.043c-.043.194-.022.345 0 .539v.022l.065.862v.065.021c.065.151.194.237.345.323.108.043.216-.043.194-.151-.151-.797-.151-1.724.151-2.306l.453-.797c.021-.021.043-.065.043-.086.021-.021.021-.043.043-.065l.215-.345c0-.021.022-.021.022-.043l.021-.021c.022-.022.022-.043.043-.065 0 0 0-.021.022-.021l.021-.022c0-.021.022-.021.022-.043a1.71 1.71 0 0 0 .172-.259c.086-.108-.022-.237-.129-.194-.302.129-.496.28-.539.302-.151.129-.388.108-.517-.065-.129-.151-.108-.388.065-.517.194-.151 1.185-.862 2.371-.539.862.237 1.293.905 1.465 1.142.129.194.56.797.539 1.659 0 .625-.259 1.099-.754 1.94zm-7.708-4.426l-.216.517-.496 1.164-.409.69a2.83 2.83 0 0 0-.302.56c-.129.366-.151.776-.065 1.228-.237-.021-.604-.172-.647-.388-.021-.151.065-.302.323-.754.043-.086.108-.194.172-.28.453-.776.647-1.358.776-1.789.151-.453.215-.646.453-.819.151-.065.28-.108.409-.129z"/><path d="M15.973 28.557c-.259.517-.56.991-.754 1.229-.172-.431-.453-1.444-.366-2.241v-.065a1.36 1.36 0 0 1 .216-.668c.086-.129.302-.194.539-.194a1.24 1.24 0 0 1 .539.129c.086.043.216.151.216.431.043.388-.151.905-.388 1.379zm13.789-5.758c.022.022.022.043.022.065-.065.151-.172.259-.28.388-.129.151-.28.323-.41.604-.194.388-.259.733-.28 1.638-.043 1.056 0 1.638.043 2.069.022.41.043.668-.021 1.078-.151.819-.496 1.358-.948 2.047-.56.862-1.121 1.746-2.069 2.026-.086.021-.086.021-.345.021l-1.25.022-2.392.172c-.56.108-.841.237-1.142.345-.259.108-.496.194-.948.302-.28.065-.69.108-2.091.129-1.465 0-2.349 0-3.491-.129-1.595-.172-2.392-.28-2.931-.56-1.25-.668-1.789-1.875-2.651-3.858 0-.021.022-.043.043-.043l.129.065a.24.24 0 0 0 .108.021c.086.022.172.022.259 0 .022 0 .022 0 .043-.021.022 0 .043 0 .043.021.065.151.151.28.302.366s.323.086.474.086c.172 0 .345-.021.517-.043.086 0 .172.043.215.108.151.388.345.646.646.69h.065c.065 0 .172-.021.302-.108.108-.086.28-.022.366.086.065.108.151.172.237.237.302.302 1.034.453 1.638.453.323 0 .625-.043.797-.129.259-.129.259-.302.237-.388l-.065-.41c0-.021.022-.021.022 0 .043.086.086.172.194.194h.043c.172 0 .431.065.474.215.021.086.065.151.108.237a.86.86 0 0 0 .711.366h.021c.474 0 .84-.151 1.078-.453.021-.021.021-.043.043-.065.086-.129.345-.129.453-.022.129.108.28.173.453.173h.086c.216-.022.388-.129.539-.323.086-.129.151-.28.194-.453.022-.043.086-.065.129-.022a.63.63 0 0 0 .453.173c.043 0 .108 0 .172-.022.409-.086.625-.431.711-.797 0-.022.021-.022.021 0a.78.78 0 0 0 .625.28h.043c.172 0 .323-.086.431-.216.129-.172.173-.431.194-.668 0-.065.043-.129.129-.172.345-.151.776-.474.905-.69 0 0 0-.022.021-.022.022-.065.086-.108.129-.108.28-.043.388-.108.496-.151a1.26 1.26 0 0 1 .366-.108c1.573-.237 1.875-.302 2.22-.517.517-.345.539-.819.56-1.272.021-.388.043-.819.345-1.336l.366-.668.797-1.358a.14.14 0 0 1 .194-.043c.539.194 1.013.41 1.099.496z"/><path d="M14.462 27.504a10.37 10.37 0 0 0-.021 2.22l.108.819c-.065.043-.302.108-.69.086-.56-.022-1.121-.151-1.293-.345l-.022-.022c-.129-.108-.237-.194-.237-.388 0-.065.022-.129.086-.237a.75.75 0 0 0 .129-.194l.345-.496.668-1.035c.021-.022.021-.043.043-.065.108-.129.215-.302.409-.582l.345-.496c.151-.216.259-.323.323-.388 0 .086-.022.215-.043.345a3.13 3.13 0 0 0-.151.776zm-.28-8.5c0 .022 0 .022 0 0a2.42 2.42 0 0 0-.28.453c-.28.603-.28.948-.28 1.228 0 .151 0 .259-.043.388a1.16 1.16 0 0 1-.129.302c-.151.366-.366.84-.28 1.487-.129-.065-.323-.215-.366-.28 0-.043-.022-.065-.022-.108a.92.92 0 0 1 .043-.625c.345-.776.388-.97.409-1.185 0-.043.021-.086.021-.151l.129-.776c.043-.323.086-.539.194-.69.043-.065.151-.086.302-.086.065 0 .129 0 .216.022h.021l.065.021z"/><path d="M13.75 26.72c-.022-.194-.043-.366-.129-.56 0 0-.022-.043-.022-.065-.021-.022-.021-.043-.043-.065l-.021-.021c-.022-.022-.022-.022-.043-.022l-.021-.022c-.022 0-.022-.021-.043-.021h-.022c-.108-.043-.216-.086-.345-.108h-.043-.043-.021c-.022 0-.043.022-.086.022-.021 0-.021.021-.043.021l-.021.022-.043.043-.022.021v.022l-.129.194-.323.474-.302.431-.172.237c0 .022-.022.022-.022.043.065.022.129.022.194.043l.431.065c.302.043.625.065.927.043h.043c.065-.108.172-.237.28-.409.065-.086.129-.172.172-.259-.065-.022-.086-.086-.086-.129z"/><path d="M12.655 27.991c-.022.237-.28.841-.69 1.422-.345.474-.56.604-.604.604-.172-.022-.323-.431-.453-.84-.043-.172-.108-.323-.129-.474-.086-.302-.108-.733-.086-.991.345.194.948.237 1.81.237.043.022.108.022.151.043zm-.605-1.937l-.453.668-.237.323c-.043.065-.108.129-.151.194-.129-.022-.237-.065-.366-.086-.108-.022-.194-.065-.302-.108-.021 0-.043-.021-.065-.021-.022-.022-.043-.065-.065-.086.043-.065.065-.151.108-.215l.216-.388c.129-.215.28-.453.517-.603.022 0 .022-.022.043-.022.086-.043.172-.086.28-.108h.129.022.021c.022 0 .043.021.086.021 0 0 .022 0 .022.022.021.021.043.021.065.043-.043-.022.043.065.043.043.043.129.065.194.086.323z"/><path d="M10.886 25.407c-.28.216-.474.517-.625.841l-.259.517c0 .021-.022.043-.022.043l-.237-.065c-.086-.021-.172-.065-.259-.086-.043-.021-.065-.043-.108-.065l.28-.453.431-.582c.065-.065.129-.151.194-.194.086-.043.172-.043.28-.021.108 0 .215 0 .302.043-.022 0 0 .021.022.021zm-.435 3.655l-.043.043h-.022c-.065 0-.129.021-.194.021-.129 0-.259.022-.388 0-.065 0-.129-.021-.172-.065-.043-.065-.065-.194-.086-.28-.086-.474-.086-.948-.043-1.422a4.3 4.3 0 0 0 .754.194c-.065.431.043 1.056.086 1.229.065.086.086.194.108.28zm-.775-3.782a5.82 5.82 0 0 0-.582.84l-.216.366a.8.8 0 0 1-.237-.108c-.065-.043-.129-.086-.172-.129-.022-.021-.065-.043-.086-.065 0 0-.022 0-.022-.022.022-.065.065-.108.065-.151a1.16 1.16 0 0 1 .151-.28l.345-.517c.043-.065.086-.129.172-.151.065-.022.151 0 .216 0 .129.021.259.108.366.216zm-1.659 1.119c.022-.022 0-.022 0 0l.237.215c.043.021.065.065.108.086v.022c-.086.366-.151.754-.151 1.142 0 .021-.022.021-.022 0-.108-.453-.237-1.185-.172-1.465z"/><path d="M9.077 27.219c-.043.323-.065.646-.043.97 0 .172.022.345.043.539h-.129-.022-.022l-.086-.043c-.043-.021-.086-.086-.129-.151-.086-.151-.108-.323-.108-.496a3.86 3.86 0 0 1 .086-.991c.043.021.108.043.172.065.086.043.151.086.237.108z"/></g><mask id="A" maskUnits="userSpaceOnUse" x="1" y="1" width="40" height="40"><path d="M41 21C41 9.944 32.035 1 21 1A19.99 19.99 0 0 0 1 21c0 11.035 8.944 20 20 20 11.035 0 20-8.965 20-20z" fill="#fff"/></mask><g mask="url(#A)" class="C"><g class="B"><path d="M17.4649 43.3505C15.9994 43.3505 14.6201 43.2643 13.4563 43.1781L13.133 43.1565L12.8098 43.1134C12.6589 43.0919 12.4865 43.0703 12.2925 43.0488C11.1718 42.9195 9.0813 42.7039 6.77527 41.6263L6.40889 41.4539L6.08561 41.26C1.64596 38.76 0.00802751 35.0315 -0.897145 33.0272C-0.9618 32.8979 -1.02646 32.747 -1.09111 32.5962C-1.5437 31.6695 -1.82387 30.8505 -2.06094 30.0746L-2.10404 29.9022L-2.14714 29.7298C-2.7937 27.4453 -2.94456 25.4841 -2.66439 23.5229C-2.36266 21.5617 -1.65146 19.7945 -0.379903 17.9195L0.266648 16.8634C0.395959 16.6479 0.482166 16.4108 0.546821 16.1738C1.04251 13.7169 2.1632 11.9712 2.72354 11.1307C2.87441 10.1177 3.13303 9.12635 3.47786 8.15652L3.52096 8.00566L3.58561 7.85479C3.58561 7.83324 3.60717 7.79014 3.62872 7.72548C3.88734 6.97117 4.46923 5.22548 5.9563 3.37204L6.51665 2.72548L7.09854 2.20824C8.56406 0.872037 10.3313 -0.119343 12.2279 -0.679688C13.2839 -1.00296 14.383 -1.19693 15.5037 -1.26158H15.6115H15.7623C15.9563 -1.26158 16.1503 -1.28314 16.3227 -1.28314C17.0123 -1.28314 17.702 -1.21848 18.3916 -1.11072C18.8227 -1.04607 19.2537 -1.08917 19.6632 -1.26158C20.8485 -1.75727 22.077 -2.08055 23.3485 -2.25296C23.4563 -2.27452 23.5425 -2.27452 23.6287 -2.29607C23.8227 -2.31762 24.146 -2.36072 24.5339 -2.40383C25.202 -2.46848 26.2365 -2.55469 27.3356 -2.55469C29.5123 -2.55469 31.3873 -2.27452 33.0684 -1.69262L33.2192 -1.64952L33.3485 -1.60641C37.0554 -0.20555 38.9304 1.75566 40.2882 3.45824L40.3529 3.54445L40.5468 3.71686C41.7753 4.66514 42.8098 5.85048 43.6287 7.16514L43.8873 7.57462L44.1029 8.00566C45.9132 11.691 45.3313 15.1177 45.1158 16.3893L45.0942 16.4539C44.9434 17.4022 44.6848 18.3289 44.3615 19.2341C44.2322 20.0962 44.0382 20.9582 43.758 21.7772C43.2839 23.2427 42.5727 24.6436 41.6675 25.8936C41.1503 26.6263 40.5468 27.3376 39.9003 27.9626C39.6632 28.1781 39.5123 28.4798 39.4692 28.8031C39.4477 28.997 39.4046 29.191 39.383 29.385C38.8442 32.2298 37.6158 34.2126 37.0985 35.01L35.5684 37.2082C33.7149 39.5143 31.5166 41.0229 28.8658 41.8419L28.2192 42.0358L27.5296 42.1651C26.7322 42.316 25.9348 42.3807 25.1158 42.3807C25.008 42.3807 24.9003 42.3807 24.771 42.3807H24.7279H24.5985H24.4477C24.146 42.3807 23.8442 42.4453 23.5425 42.5315C21.7753 43.0919 19.8356 43.3505 17.4649 43.3505Z" stroke="url(#C)" class="B D"/><path d="M17.4631 41.8217C16.0622 41.8217 14.7045 41.7355 13.5838 41.6492L13.3252 41.6277L13.0665 41.5846C12.8941 41.563 12.7002 41.5415 12.5062 41.5199C11.4071 41.4122 9.59671 41.1967 7.57085 40.2484L7.26912 40.0975L6.98895 39.9467C3.04499 37.7699 1.60102 34.5156 0.738951 32.576C0.674296 32.4467 0.609641 32.2742 0.523434 32.1234C0.113951 31.3044 -0.14467 30.5286 -0.360187 29.8389L-0.40329 29.688L-0.446394 29.5587C-1.00674 27.5113 -1.1576 25.7872 -0.89898 24.0846C-0.640359 22.4036 0.00619258 20.8303 1.12688 19.1923L1.9674 17.8346C2.11826 17.5975 2.22602 17.3173 2.26912 17.0372C2.67861 14.7096 3.77774 13.0717 4.27343 12.3173L4.33809 12.2311L4.35964 12.188C4.35964 12.1665 4.38119 12.1449 4.38119 12.1234C4.40274 12.0156 4.44585 11.9294 4.4674 11.8432C4.59671 10.8949 4.83378 9.94666 5.15705 9.04149L5.20016 8.91218L5.24326 8.78287C5.26481 8.73976 5.26481 8.69666 5.30792 8.56735C5.54499 7.85614 6.04068 6.36907 7.33378 4.77425L7.80792 4.2139L8.28205 3.78287C9.55361 2.61907 11.0838 1.757 12.7217 1.28287C13.67 1.00269 14.6183 0.83028 15.6096 0.787177H15.6958H15.8252C15.9976 0.787177 16.1484 0.765625 16.2993 0.765625C17.0105 0.765625 17.7002 0.571659 18.3898 0.70097C18.9286 0.808728 19.4674 0.744073 19.9631 0.528556C20.8898 0.119073 22.1398 -0.0317887 23.5622 -0.225754C23.67 -0.247306 23.7562 -0.247306 23.8208 -0.268858C24.0148 -0.290409 24.3165 -0.333513 24.6614 -0.355065C25.2864 -0.41972 26.2562 -0.484375 27.3122 -0.484375C29.295 -0.484375 30.976 -0.225754 32.4631 0.269935L32.5924 0.313039L32.7002 0.356142C35.976 1.60614 37.5924 3.24407 38.864 4.86045C38.9286 4.94666 39.0148 5.03287 39.0364 5.07597L39.0579 5.09752L39.295 5.31304L39.3165 5.35614C40.4157 6.19666 41.3424 7.23114 42.0536 8.39494L42.2691 8.73976L42.4415 9.10614C43.9933 12.2742 43.5191 15.1837 43.3036 16.4122L43.2821 16.4768C43.1312 17.382 42.8941 18.2441 42.5708 19.1061C42.4631 19.9251 42.2691 20.7441 42.0105 21.5199C41.5795 22.813 40.9545 24.0415 40.1571 25.1622C39.6183 25.938 38.9717 26.6492 38.2821 27.2742C37.9588 27.576 37.7433 27.9639 37.7002 28.4165C37.6571 28.7398 37.614 29.0415 37.5708 29.3648C37.0967 31.8863 36.0191 33.6104 35.5019 34.3863L34.2519 36.1967C32.5924 38.3303 30.6312 39.7096 28.2605 40.4423L27.7217 40.6148L27.1398 40.7225C26.4502 40.8518 25.739 40.9165 25.0493 40.8949C24.9415 40.8949 24.8338 40.8949 24.726 40.8949H24.7045H24.6398C24.6398 40.8949 24.6183 40.8949 24.5752 40.8949H24.4458H24.3165H24.0795C23.7562 40.9165 23.4329 40.9596 23.1096 41.0673C21.5364 41.5846 19.7045 41.8217 17.4631 41.8217Z" stroke="url(#D)" class="B D"/><path d="M17.4686 40.041C16.1324 40.041 14.8177 39.9547 13.7186 39.8685L13.5031 39.847L13.2875 39.8254C13.0936 39.8039 12.8781 39.7823 12.6625 39.7608C11.6281 39.653 10.0548 39.4806 8.28754 38.6401L8.05047 38.5323L7.83495 38.403C4.45133 36.5065 3.20133 33.7047 2.38237 31.8513C2.31771 31.7004 2.2315 31.5065 2.16685 31.3556C1.80047 30.6228 1.5634 29.9332 1.36944 29.2866L1.32633 29.1789L1.30478 29.0711C0.80909 27.3039 0.67978 25.7953 0.895297 24.3728C1.11081 22.9289 1.69271 21.5711 2.68409 20.1272L2.8134 19.9547L2.94271 19.7823C3.02892 19.6746 3.09357 19.5668 3.17978 19.4806L3.67547 18.5539C3.84788 18.2522 3.95564 17.9289 3.99875 17.5841C4.32202 15.5151 5.3134 14.028 5.76599 13.3384C5.78754 13.2953 5.83064 13.2522 5.85219 13.2306L5.95995 13.0797C6.00306 12.9935 6.04616 12.8858 6.08926 12.7565C6.13237 12.6272 6.19702 12.4332 6.24012 12.2608C6.34788 11.3772 6.5634 10.5151 6.86512 9.67457L6.90823 9.56681L6.95133 9.45905C6.97288 9.37284 7.01599 9.30819 7.05909 9.15733C7.27461 8.48922 7.68409 7.26078 8.78323 5.92457L9.14961 5.47198L9.53754 5.12716C10.6151 4.13578 11.9082 3.42457 13.3091 2.99353C14.1281 2.75647 14.947 2.6056 15.8091 2.5625H15.8737H15.9815C16.1108 2.5625 16.2401 2.5625 16.391 2.5625C17.1237 2.5625 17.835 2.64871 18.5462 2.84267C19.1496 2.99353 19.7962 2.92888 20.3565 2.64871C21.2617 2.21767 22.4686 1.74353 23.8694 1.57112C23.9556 1.54957 24.0418 1.54957 24.1065 1.52802C24.2789 1.50647 24.5591 1.46336 24.9039 1.44181C25.4858 1.37716 26.4125 1.3125 27.3824 1.3125C29.1496 1.3125 30.6367 1.52802 31.9513 1.9806L32.0375 2.02371L32.1237 2.06681C35.141 3.20905 36.4772 4.69612 37.5117 6.01078C37.7487 6.29095 37.7703 6.33405 37.9212 6.48491L38.1151 6.65733L38.1798 6.74353C38.6755 7.13147 39.6884 7.92888 40.572 9.37284L40.7444 9.65302L40.8953 9.93319C42.21 12.5841 41.8005 14.9978 41.6065 16.1616L41.585 16.2263C41.4556 17.0668 41.2186 17.9073 40.8737 18.7047V18.7694C40.7875 19.5237 40.6151 20.278 40.3781 20.9892C40.0117 22.1315 39.4729 23.1875 38.7617 24.1573C38.1798 24.9978 37.4686 25.7522 36.6712 26.3987C36.4772 26.5496 36.3263 26.7435 36.2186 26.9591C36.1108 27.1746 36.0462 27.4116 36.0246 27.6487C36.0031 28.1228 35.9384 28.597 35.8522 29.0711C35.4427 31.2478 34.4944 32.7565 34.0203 33.5108L33.0505 34.9332C31.6065 36.8728 29.8824 38.1228 27.7918 38.7694L27.3608 38.8987L26.8867 38.9849C26.3048 39.0927 25.7013 39.1358 25.0979 39.1358C25.0117 39.1358 24.9039 39.1358 24.7962 39.1358H24.7746H24.6668C24.6453 39.1358 24.6022 39.1358 24.4944 39.1358H24.3867H24.3005L23.8048 39.1573C23.46 39.1789 23.1151 39.222 22.7918 39.3513C21.3048 39.8254 19.6022 40.041 17.4686 40.041Z" stroke="url(#E)" stroke-width=".213" class="B"/><path d="M17.4624 38.2346C16.1908 38.2346 14.9193 38.1484 13.8632 38.0622L13.7124 38.0407L13.5615 38.0191C13.346 37.9976 13.1089 37.9545 12.8934 37.9329C11.9236 37.8252 10.5874 37.6743 9.07874 36.9846L8.90632 36.8984L8.73391 36.8122C5.86753 35.1959 4.81149 32.8252 4.03563 31.101C3.94942 30.9286 3.86322 30.7346 3.79856 30.5622C3.47529 29.8941 3.25977 29.2691 3.08736 28.7303L3.0658 28.6441L3.00115 28.5795C2.16063 25.6053 2.48391 23.5148 4.12184 21.1226L4.20805 20.9933L4.29425 20.864C4.40201 20.7346 4.50977 20.5838 4.61753 20.4545C4.76839 20.2605 4.91925 20.045 5.09167 19.851C5.19942 19.7217 5.28563 19.5709 5.35029 19.42L5.54425 18.9459C5.63046 18.7303 5.67356 18.5148 5.69511 18.2993C5.86753 16.3812 6.79425 15.0019 7.24684 14.3122C7.28994 14.2691 7.33305 14.1829 7.3546 14.1614L7.46236 13.989L7.50546 13.9459C7.57011 13.8381 7.67787 13.5795 7.76408 13.3209C7.80718 13.1484 7.89339 12.8683 7.9796 12.6312V12.6096C8.0658 11.8122 8.25977 11.0148 8.53994 10.2605L8.56149 10.1959L8.58305 10.1312C8.62615 10.0019 8.66925 9.89413 8.71236 9.74327C8.90632 9.16137 9.2296 8.16999 10.1132 7.07085L10.3934 6.72602L10.6736 6.4674C12.7641 4.57085 15.0917 4.41999 15.8675 4.35533H15.9106H15.9968C16.1046 4.35533 16.2124 4.35533 16.3201 4.35533C17.2468 4.35533 18.152 4.5493 19.0141 4.91568C19.1649 4.98033 19.3374 5.00189 19.4882 5.00189C19.6606 5.00189 19.8115 4.95878 19.9624 4.87258C20.7598 4.41999 22.2037 3.57947 24.0572 3.36395C24.1434 3.3424 24.2296 3.3424 24.2943 3.3424C24.4667 3.32085 24.7253 3.2993 25.027 3.2562C25.5874 3.21309 26.4279 3.14844 27.333 3.14844C28.9063 3.14844 30.1994 3.3424 31.2986 3.70878L31.3632 3.73033L31.4279 3.75189C34.0141 4.72171 35.1132 5.95016 36.0399 7.11395C36.277 7.43723 36.4063 7.56654 36.6649 7.82516L36.8158 7.95447L36.9236 8.08378L37.0098 8.14844C37.4408 8.49327 38.2598 9.11827 38.9925 10.3036L39.1218 10.5191L39.2296 10.7346C40.2856 12.8898 39.9408 14.8295 39.7684 15.864V15.9286C39.6391 16.6829 39.4236 17.4372 39.1218 18.1484L39.1003 18.2131C39.1003 18.2346 39.1003 18.2346 39.0787 18.2777C39.0572 18.3424 39.0572 18.4071 39.0572 18.4717L39.0356 18.5579C38.971 19.2045 38.8201 19.8295 38.6046 20.4329C38.2813 21.4027 37.8287 22.3079 37.2253 23.1269C36.6434 23.9674 35.9753 24.6571 35.2425 25.1959C34.9192 25.4329 34.6606 25.7346 34.4667 26.101C34.2727 26.4674 34.1865 26.8553 34.1865 27.2648C34.1865 27.7605 34.1218 28.2777 34.0356 28.7734C33.6908 30.6269 32.9149 31.8769 32.4193 32.6312L31.708 33.6872C30.458 35.4329 28.971 36.5536 27.1822 37.114L27.096 37.1355C26.9451 37.1786 26.7943 37.2217 26.6434 37.2433L26.5356 37.2648C26.0399 37.351 25.5443 37.3941 25.0486 37.3941C24.9624 37.3941 24.8761 37.3941 24.7899 37.3941H24.7684C24.7253 37.3941 24.6822 37.3941 24.6391 37.3941C24.596 37.3941 24.5098 37.3941 24.3374 37.3941H24.2727H24.208C23.971 37.3941 23.6693 37.4157 23.4106 37.4157C23.0443 37.4372 22.6994 37.5019 22.3546 37.6312C21.0615 38.0191 19.4882 38.2346 17.4624 38.2346Z" stroke="url(#F)" stroke-width=".199" class="B"/><path d="M17.4632 36.4364C16.2347 36.4364 15.0278 36.3502 13.9933 36.264H13.8856L13.7778 36.2425C13.5407 36.1994 13.2821 36.1778 13.045 36.1562C12.1399 36.0485 11.0192 35.9407 9.81229 35.3588L9.68298 35.2942L9.57522 35.2295C7.22608 33.9149 6.34246 31.9321 5.65281 30.3373C5.5666 30.1433 5.48039 29.9494 5.39419 29.7338C5.11401 29.1735 4.92005 28.6131 4.76919 28.139L4.74763 28.0744L4.72608 28.0097C4.03643 25.5528 4.2735 24.0011 5.6097 22.0614L5.67436 21.9752L5.73901 21.889C5.84677 21.7381 5.95453 21.6088 6.06229 21.458C6.40712 21.0054 6.75194 20.5528 7.24763 20.014C7.35539 19.9063 7.42005 19.7338 7.4416 19.583L7.46315 19.0873L7.4416 18.8933V18.6994C7.4847 17.1045 8.28212 15.9192 8.71315 15.2726C8.75625 15.208 8.82091 15.1218 8.84246 15.0787L8.90712 14.9709L8.97177 14.8847C9.05798 14.7554 9.25194 14.3028 9.42436 13.8933C9.48901 13.7209 9.57522 13.3761 9.68298 13.0959C9.70453 13.0097 9.70453 12.9881 9.72608 12.7942C9.79074 12.1261 9.96315 11.458 10.1787 10.833L10.2002 10.7899L10.2218 10.7468C10.2864 10.5744 10.3295 10.445 10.3942 10.2726C10.5666 9.75539 10.8252 9.00108 11.4933 8.16056L11.6873 7.92349L11.8813 7.75108C13.3468 6.43642 14.92 6.1778 15.9976 6.11315H16.0407H16.0838C16.17 6.11315 16.2347 6.11315 16.3209 6.11315C17.2261 6.11315 18.3252 6.54418 18.9071 6.82435C19.0364 6.88901 19.1873 6.93211 19.3382 6.93211C19.489 6.93211 19.6399 6.91056 19.7907 6.86746C20.1571 6.73815 20.5019 6.58728 20.8252 6.41487C21.558 5.98384 22.7649 5.29418 24.2735 5.12177C24.3597 5.10022 24.4244 5.10022 24.489 5.10022C24.6399 5.07866 24.8769 5.05711 25.1787 5.01401C25.6959 4.97091 26.4718 4.90625 27.3123 4.90625C28.67 4.90625 29.7907 5.05711 30.6959 5.38039L30.739 5.40194L30.7821 5.42349C32.9373 6.24246 33.7994 7.16918 34.6183 8.22521C34.8769 8.57004 35.0709 8.80711 35.4588 9.15194L35.545 9.23815L35.6313 9.32435C35.7175 9.41056 35.8037 9.47522 35.8899 9.53987C36.2563 9.82004 36.8813 10.3157 37.42 11.2209L37.5063 11.3502L37.5709 11.5011C38.3683 13.1175 38.1097 14.6476 37.9588 15.5528V15.6175C37.8511 16.2425 37.6787 16.8459 37.42 17.4278C37.3554 17.5787 37.3123 17.7295 37.2692 17.9019C37.2476 18.0097 37.2261 18.1175 37.2261 18.2037L37.2045 18.2899C37.1399 18.8071 37.0321 19.3244 36.8597 19.82C36.6011 20.6175 36.2131 21.3718 35.739 22.0399C35.0063 23.0744 34.1657 23.8071 33.1528 24.2812C32.9157 24.389 32.7002 24.5614 32.5494 24.7985C32.3985 25.014 32.3123 25.2942 32.2907 25.5528C32.2907 25.6606 32.2907 25.7468 32.2907 25.8114C32.3338 26.5873 32.3985 27.4709 32.2261 28.3976C31.9459 29.9062 31.2994 30.9192 30.8252 31.6735C30.8252 31.6735 28.6269 34.7338 26.6226 35.3588L26.4071 35.4235L26.17 35.4666C25.7821 35.5313 25.3942 35.5744 24.9847 35.5744C24.92 35.5744 24.8338 35.5744 24.7476 35.5744C24.7045 35.5744 24.6399 35.5744 24.5752 35.5744C24.489 35.5744 24.3597 35.5744 24.1657 35.5959H24.1226H24.0795C23.3037 35.6175 22.5925 35.639 22.3769 35.6821C22.2692 35.7037 22.1614 35.7252 22.0537 35.7683C20.9976 36.2209 19.5106 36.4364 17.4632 36.4364Z" stroke="url(#G)" class="B E"/><path d="M17.4669 34.6948C16.3031 34.6948 15.1393 34.6086 14.1479 34.5439H14.1048H14.0617C13.7815 34.5008 13.5229 34.4793 13.2858 34.4577C12.4453 34.3715 11.5617 34.2637 10.6134 33.8327L10.5488 33.8112L10.4841 33.7896C8.65222 32.7551 7.96256 31.2249 7.31601 29.7379C7.2298 29.5224 7.12204 29.3068 7.01428 29.0913C6.79877 28.6603 6.62635 28.1862 6.49704 27.7336V27.712V27.6905C5.9367 25.7293 6.08756 24.7379 7.12204 23.2293L7.1436 23.1862L7.16515 23.143C7.29446 22.9922 7.40222 22.8413 7.50997 22.712C8.00566 22.0655 8.4367 21.5051 9.40653 20.5999C9.47118 20.5353 9.53584 20.4491 9.55739 20.3413C9.57894 20.2551 9.57894 20.1474 9.53584 20.0612L9.36342 19.5655C9.32032 19.4146 9.29877 19.2422 9.29877 19.0913V18.962V18.8543C9.34187 17.7767 9.90222 16.9362 10.2686 16.3758C10.3333 16.2896 10.3764 16.2034 10.4195 16.1387L10.4626 16.0741L10.5057 16.0094C10.6996 15.7508 11.0229 14.9965 11.1953 14.5439C11.2384 14.393 11.3462 14.0267 11.4539 13.7465C11.5186 13.531 11.5617 13.3155 11.5833 13.0999C11.6479 12.5612 11.7557 12.0224 11.9496 11.5267V11.5051V11.4836C12.0358 11.268 12.1005 11.0956 12.1436 10.9232C12.2945 10.4706 12.4669 9.95339 12.941 9.3715L13.0272 9.26374L13.1134 9.17753C14.1479 8.22926 15.2901 8.05684 16.1522 7.99219H16.1738H16.1953C16.2384 7.99219 16.3031 7.99219 16.3462 7.99219C17.2082 7.99219 17.8548 8.33701 18.2858 8.57408L18.3936 8.61719H18.4151C18.5445 8.68184 18.6307 8.7465 18.7384 8.7896C18.997 8.91891 19.3203 8.96201 19.6005 8.87581C20.2039 8.72495 21.1307 8.35857 21.7341 8.01374H21.7557C22.4022 7.62581 23.3936 7.06546 24.5574 6.93615C24.622 6.9146 24.7083 6.9146 24.7729 6.9146C24.9022 6.89305 25.1393 6.8715 25.3979 6.84995C25.872 6.80684 26.6048 6.74219 27.3591 6.74219C28.5229 6.74219 29.4496 6.8715 30.1608 7.10857H30.1824H30.2039C31.9281 7.75512 32.5746 8.44477 33.2643 9.34995C33.5445 9.71633 33.8246 10.0612 34.3419 10.5137L34.385 10.5568L34.4281 10.5999C34.5574 10.7293 34.7083 10.8586 34.8807 10.9879C35.1824 11.2249 35.6134 11.5482 35.9798 12.1732L36.0229 12.2379L36.066 12.3025C36.6048 13.4232 36.4324 14.4793 36.3031 15.2767V15.3413C36.2169 15.837 36.0876 16.3112 35.872 16.7853C35.7643 17.0439 35.6781 17.3241 35.635 17.6043C35.6134 17.7767 35.5919 17.906 35.5703 18.0137L35.5488 18.0999C35.5057 18.5094 35.4195 18.8974 35.2901 19.2853C35.0962 19.9103 34.7945 20.4922 34.4065 21.031C33.76 21.9793 33.0272 22.5612 32.0574 22.8629C31.5833 23.0137 31.1953 23.3155 30.9367 23.7249L30.8505 23.8327L30.7643 23.9405C30.5272 24.2206 30.5919 25.2982 30.635 25.9448C30.6781 26.656 30.7212 27.3887 30.5919 28.0784C30.3764 29.2637 29.8591 30.0612 29.4065 30.7508C29.4065 30.7508 27.7255 33.1862 26.1953 33.6387L26.0876 33.6818L25.9798 33.7034C25.6996 33.7465 25.3979 33.7896 25.0962 33.7896C25.0315 33.7896 24.9669 33.7896 24.8807 33.7896C24.816 33.7896 24.7514 33.7896 24.6651 33.7896C24.5574 33.7896 24.4065 33.7896 24.1479 33.8112H24.1264H24.1048C23.0919 33.8543 22.4669 33.8758 22.122 33.9405C21.885 33.9836 21.6695 34.0482 21.4539 34.1344C20.5272 34.5008 19.2772 34.6948 17.4669 34.6948Z" stroke="url(#H)" class="B E"/></g></g><defs><radialGradient id="B" cx="0" cy="0" r="1" gradientTransform="translate(21.0008 23.0895) rotate(90) scale(22.4667)" xlink:href="#I"><stop offset=".167" stop-color="#073183"/><stop offset="1" stop-color="#0054f9"/></radialGradient><linearGradient id="C" x1="-1.801" y1="-3.495" x2="44.024" y2="44.601" xlink:href="#I"><stop offset=".206" stop-color="#89d0ff"/><stop offset=".398" stop-color="#ebbf9a"/><stop offset=".602" stop-color="#eb8280"/><stop offset=".841" stop-color="#a281ff"/></linearGradient><linearGradient id="D" x1="-.026" y1="-1.425" x2="42.219" y2="43.096" xlink:href="#I"><stop offset=".206" stop-color="#89d0ff"/><stop offset=".398" stop-color="#ebbf9a"/><stop offset=".602" stop-color="#eb80da"/><stop offset=".841" stop-color="#a281ff"/></linearGradient><linearGradient id="E" x1="1.774" y1=".373" x2="40.439" y2="41.317" xlink:href="#I"><stop offset=".206" stop-color="#89d0ff"/><stop offset=".398" stop-color="#ebbf9a"/><stop offset=".602" stop-color="#eb8280"/><stop offset=".841" stop-color="#a281ff"/></linearGradient><linearGradient id="F" x1="3.56" y1="2.151" x2="38.637" y2="39.508" xlink:href="#I"><stop offset=".206" stop-color="#89d0ff"/><stop offset=".398" stop-color="#ebbf9a"/><stop offset=".602" stop-color="#eb80e7"/><stop offset=".841" stop-color="#a281ff"/></linearGradient><linearGradient id="G" x1="5.343" y1="3.94" x2="36.839" y2="37.707" xlink:href="#I"><stop offset=".206" stop-color="#89d0ff"/><stop offset=".398" stop-color="#ebbf9a"/><stop offset=".602" stop-color="#eb80d3"/><stop offset=".841" stop-color="#a281ff"/></linearGradient><linearGradient id="H" x1="7.151" y1="5.743" x2="35.063" y2="35.934" xlink:href="#I"><stop offset=".206" stop-color="#89d0ff"/><stop offset=".398" stop-color="#ebbf9a"/><stop offset=".602" stop-color="#a280eb"/><stop offset=".841" stop-color="#a281ff"/></linearGradient><linearGradient id="I" gradientUnits="userSpaceOnUse"/></defs></svg>