<svg width="42" height="42" viewBox="0 0 42 42" fill="none" xmlns="http://www.w3.org/2000/svg">
<path d="M41 21C41 9.94397 32.0345 1 21 1C9.94397 1 1 9.94397 1 21C1 32.0345 9.94397 41 21 41C32.0345 41 41 32.0345 41 21Z" fill="url(#paint0_radial_7663_321955)"/>
<path d="M34.6952 15.417C34.609 15.9127 34.5228 16.1498 34.3935 16.4084C34.2641 16.7101 34.1348 17.0334 34.0055 17.7231C33.9624 17.9817 33.9193 18.1972 33.8978 18.3696V18.3912C33.8547 18.6713 33.8331 18.8653 33.7253 19.1886C33.6391 19.4688 33.4883 19.9213 33.1219 20.3955C32.8202 20.7834 32.3245 21.4515 31.6564 21.5377C31.5917 21.5377 31.484 21.5377 31.4193 21.5162C29.5228 20.5463 27.9064 19.8351 27.346 19.6843C26.6995 19.4903 26.7857 18.0679 26.8504 16.8179C26.8935 16.2575 26.915 15.7188 26.8935 15.2662C26.8072 13.6713 26.5271 11.9472 25.1478 11.1067C24.3288 10.611 23.2512 10.4601 22.2383 10.4601C22.4322 10.3739 22.6262 10.2446 22.8633 10.1153C23.4667 9.77047 24.1995 9.33944 24.9538 9.25323C25.1909 9.23168 25.4279 9.21013 25.665 9.16703C27.1521 8.99461 28.4452 8.84375 29.8029 9.31789C30.4279 9.53341 31.6779 10.2231 32.0012 10.8912C32.2383 11.3438 32.6262 11.7101 33.3805 12.4213C33.79 12.7877 34.0486 13.0032 34.2426 13.1756C34.5228 13.3912 34.5659 13.4558 34.6521 13.6067C34.9107 14.1239 34.8245 14.6627 34.6952 15.417Z" fill="#F3F3F3"/>
<path d="M27.8281 21.9545C27.9143 21.976 27.9574 22.0838 27.8927 22.17C27.6988 22.4717 27.4617 22.9027 27.1815 23.3984C27.0522 23.6355 26.9229 23.8726 26.8151 24.045C26.4488 24.67 26.4272 25.2088 26.4057 25.6183C26.3841 26.0709 26.3626 26.2648 26.0824 26.4372C25.8669 26.5881 25.6298 26.6312 24.0781 26.8683C23.7979 26.9114 23.6901 26.9545 23.5824 27.0191C23.5608 27.0407 23.5177 27.0407 23.4962 27.0622C23.41 27.1053 23.3238 27.0191 23.3238 26.9329C23.3453 26.7174 23.3453 26.4372 23.3453 26.0709V26.0062C23.3453 25.7045 23.3453 25.4459 23.3238 25.2519C23.3022 24.864 23.3022 24.6915 23.41 24.5191C23.5393 24.3036 23.647 24.239 23.7979 24.1312C24.035 23.9803 24.3582 23.7864 24.8108 23.1398C25.0695 22.795 25.1126 22.601 25.1557 22.4502C25.1772 22.3855 25.1772 22.364 25.3712 22.2131C25.5651 22.0622 26.1901 21.5881 26.9876 21.7174C27.2462 21.7605 27.5263 21.8467 27.8281 21.9545Z" fill="#F3F3F3"/>
<path d="M21.6342 29.1185C21.5911 29.1616 21.5696 29.1832 21.5049 29.1832C21.3325 29.1832 21.2248 29.1401 21.1601 29.0539C21.0092 28.8599 21.0308 28.472 21.0523 28.2349L21.7205 28.0625C21.7636 28.4289 21.7851 28.9246 21.6342 29.1185Z" fill="#F3F3F3"/>
<path d="M21.6816 26.7349C21.6601 26.8211 21.6601 26.9288 21.6601 27.0581C21.6601 27.1012 21.6601 27.1443 21.6601 27.1874C21.6601 27.2952 21.6601 27.4676 21.6601 27.5538C21.4446 27.6185 21.2722 27.6185 21.0566 27.6185C21.0566 27.5538 21.0566 27.4461 21.0566 27.3814C21.0566 27.3383 21.0566 27.2737 21.0566 27.2306C21.0566 27.1659 21.0566 27.1228 21.0566 27.0581C21.0566 26.9288 21.0566 26.7349 21.0782 26.6702C21.1428 26.6702 21.2075 26.6487 21.2722 26.6271C21.4015 26.6056 21.5954 26.5624 21.7032 26.584C21.7032 26.6271 21.7032 26.6918 21.6816 26.7349Z" fill="#F3F3F3"/>
<path d="M20.4763 28.9219C20.4547 29.2667 20.347 29.6762 20.0237 29.7408C19.8728 29.7624 19.8082 29.7193 19.7651 29.6762C19.5496 29.4822 19.528 28.8788 19.5496 28.4477C19.7004 28.4477 19.8728 28.4262 20.0883 28.3831C20.2177 28.3615 20.347 28.3184 20.4547 28.2969C20.4763 28.4693 20.4978 28.6848 20.4763 28.9219Z" fill="#F3F3F3"/>
<path d="M20.3225 27.7042L19.6113 27.9628C19.6544 27.6827 19.6975 27.2947 19.7191 27.0361C19.7406 26.8637 19.7837 26.799 19.8053 26.7775C19.8053 26.7775 19.8268 26.7559 19.8484 26.7559C19.8484 26.7559 19.8484 26.7559 19.8699 26.7559H19.8915L20.3441 26.7344C20.3225 26.9499 20.3225 27.424 20.3225 27.7042Z" fill="#F3F3F3"/>
<path d="M19.1574 27.4903C19.1143 27.5981 19.0712 27.8998 19.0496 28.1153L18.166 28.0938C18.2091 27.8136 18.2953 27.5334 18.36 27.3179C18.4462 27.1024 18.5108 26.93 18.5971 26.8869C18.6833 26.8438 18.8772 26.8222 19.0065 26.93C19.2005 27.0593 19.2436 27.2533 19.1574 27.4903Z" fill="#F3F3F3"/>
<path d="M18.8399 30.2042C18.7753 30.2904 18.6891 30.3551 18.6028 30.3551C18.4951 30.3766 18.4304 30.3335 18.3658 30.2904C18.0856 30.0318 18.1072 29.1913 18.1287 28.7818C18.4951 28.6956 18.9046 28.6309 19.0985 28.6094C19.0985 28.9327 19.1201 29.8163 18.8399 30.2042Z" fill="#F3F3F3"/>
<path d="M17.6707 28.0471C17.6276 28.1549 17.5845 28.2627 17.5629 28.3704C17.4551 28.4135 17.1319 28.3704 16.8086 28.3058L17.0241 26.9049C17.3905 26.7971 17.8215 26.7756 17.9077 26.8833C18.0586 27.0342 17.7784 27.7454 17.6707 28.0471Z" fill="#F3F3F3"/>
<path d="M17.2637 30.4224C17.0913 30.6379 16.8327 30.7457 16.4663 30.7241C16.2077 30.7241 16.1215 30.6164 16.0784 30.5517C15.8844 30.2284 16.0784 29.4741 16.2724 29L17.4793 29.0647C17.5008 29.1509 17.5008 29.2586 17.5008 29.3664C17.5224 29.7328 17.4793 30.1638 17.2637 30.4224Z" fill="#F3F3F3"/>
<path d="M27.2585 20.2419C26.1593 19.9402 26.2671 18.3454 26.3533 16.7936C26.3749 16.2548 26.418 15.7376 26.3964 15.3066C26.3102 13.8626 26.0731 12.2893 24.9093 11.5781C23.6593 10.8238 21.6119 10.9962 20.3619 11.1471C19.9093 11.2764 19.4783 11.3842 19.1335 11.3626C18.4007 11.3195 17.8188 11.0178 17.3016 10.7376C16.9137 10.5221 16.5688 10.3281 16.224 10.3281C16.2024 10.3281 16.1809 10.3281 16.1809 10.3281C15.2111 10.3928 14.7585 10.6298 14.349 10.9962C14.2412 11.0824 14.1119 11.3411 13.7025 12.5264C13.4869 13.1298 13.4654 13.4531 13.4223 13.7548C13.3792 14.035 13.3576 14.3367 13.2068 14.7893C13.099 15.0911 13.0128 15.3497 12.9481 15.6083C12.7542 16.2764 12.5818 16.8152 12.1076 17.4617C12.043 17.5264 11.9783 17.6557 11.8921 17.7635C11.7843 17.9359 11.655 18.1514 11.4611 18.3885C11.3318 18.5609 11.0516 19.2074 11.0731 19.4014C11.0947 19.7247 11.2025 19.9186 11.3102 20.1342C11.418 20.3497 11.5688 20.6083 11.5904 20.9747V21.0393C11.6335 21.5997 11.5473 21.8798 10.4912 22.8281C9.82314 23.4316 9.32745 24.0135 9.00418 24.4445C8.98262 24.4876 9.00418 24.5307 9.06883 24.5307C9.09038 24.5307 9.09038 24.5307 9.09038 24.5307C9.11193 24.5307 9.13349 24.5307 9.15504 24.5307C9.17659 24.5307 9.19814 24.5307 9.21969 24.5307C9.24124 24.5307 9.2628 24.5307 9.28435 24.5307C9.54297 24.5523 9.80159 24.66 9.974 24.854C9.99555 24.8971 10.0602 24.8971 10.1033 24.8755C10.2757 24.8109 10.4697 24.8109 10.6421 24.8324C10.8576 24.854 11.0947 24.9186 11.2456 25.0695C11.2887 25.1126 11.3533 25.1342 11.418 25.1126C11.5904 25.0695 11.7843 25.0695 11.9568 25.1342C12.0861 25.1773 12.2154 25.2635 12.3016 25.3712C12.3662 25.4359 12.474 25.4574 12.5602 25.4143C12.6033 25.3928 12.668 25.3497 12.7326 25.3281C12.9697 25.2419 13.2283 25.285 13.4438 25.3712C13.5516 25.4143 13.6593 25.4359 13.7671 25.5221C13.9395 25.6514 14.0688 25.8238 14.1335 26.0178C14.1766 26.1255 14.3275 26.1686 14.4137 26.0824C14.5861 25.9531 14.7154 25.9316 14.8447 25.9747C14.9093 25.9962 14.9525 26.0393 14.9956 26.104C15.0602 26.1902 15.168 26.2764 15.2542 26.2333C15.6206 26.1255 16.0516 26.1902 16.3749 26.3626C16.4826 26.4273 16.6119 26.5135 16.6766 26.6428V26.5781C16.6766 26.5566 16.6981 26.535 16.7197 26.5135L16.7843 26.4919C16.9568 26.4273 17.8619 26.1686 18.2068 26.535C18.2283 26.5566 18.2499 26.5566 18.2714 26.535C18.3145 26.4919 18.3576 26.4488 18.3792 26.4488C18.6162 26.3195 19.0042 26.298 19.2628 26.535C19.3059 26.5781 19.3921 26.5566 19.4352 26.5135C19.4568 26.4704 19.4783 26.4488 19.5214 26.4273C19.6076 26.3411 19.7369 26.3195 19.8662 26.3195L20.3619 26.298C20.4912 26.298 20.8792 26.2548 20.9869 26.2333H21.0085C21.0516 26.2333 21.1162 26.2117 21.1809 26.1902C21.418 26.1471 21.6981 26.0824 21.9137 26.1902C22.1292 26.298 22.1076 26.535 22.0861 26.7505C22.0861 26.8367 22.0645 26.923 22.0645 27.0092C22.0645 27.0523 22.0645 27.0954 22.0645 27.1385C22.0645 27.3324 22.0645 27.5048 22.043 27.6342L22.0645 27.7419C22.0645 27.7419 22.0645 27.7419 22.0645 27.7635C22.0861 27.8497 22.1938 27.9143 22.2585 27.8497C22.4309 27.7419 22.6033 27.6126 22.668 27.5264V27.5048C22.668 27.4833 22.6895 27.4402 22.7111 27.354C22.7326 27.16 22.7757 26.7936 22.7757 26.0393C22.7757 25.9962 22.7757 25.9747 22.7757 25.9531C22.7757 25.673 22.7757 25.4359 22.7542 25.2419C22.7326 24.8324 22.7111 24.5092 22.9266 24.1859C23.1206 23.8626 23.3145 23.7548 23.5085 23.6255C23.724 23.4962 23.9611 23.3454 24.3706 22.785C24.5645 22.5048 24.5861 22.3971 24.6076 22.3109C24.6507 22.0954 24.7154 21.9661 25.0387 21.7505C25.2973 21.5566 26.0516 20.9747 27.0861 21.1471C27.4309 21.2117 27.9697 21.3842 28.53 21.5997C28.5516 21.5997 28.5731 21.6212 28.5947 21.6212H28.6162C29.1119 21.8152 29.5645 22.0307 29.8878 22.2031C29.9525 22.2462 30.0387 22.2247 30.1033 22.16C30.2111 22.0307 30.3188 21.9661 30.4266 21.8798C30.4697 21.8583 30.5128 21.8367 30.5343 21.8152C30.5559 21.8152 30.5559 21.7936 30.5559 21.7936C30.6421 21.729 30.6421 21.5566 30.5343 21.5135C29.0904 20.8023 27.7111 20.3712 27.2585 20.2419ZM16.8706 20.5652C16.5257 22.0307 14.2412 23.6686 13.2068 23.6686H13.1852C13.1637 23.6686 13.1421 23.6686 13.1421 23.6686C13.1206 23.6686 13.099 23.6686 13.0775 23.6471C13.0559 23.6471 13.0559 23.6471 13.0343 23.6471C12.8404 23.5824 12.5818 23.4531 12.3878 23.2592C12.2585 23.1298 12.1507 22.9574 12.1076 22.8066C12.1076 22.785 12.0861 22.7419 12.0861 22.7204C12.0214 22.4617 11.9568 22.16 12.1723 21.6428C12.1938 21.5781 12.2369 21.5135 12.2585 21.4488C12.2585 21.4273 12.28 21.4057 12.28 21.3842C12.3016 21.3195 12.3231 21.2764 12.3447 21.2333C12.3662 21.1471 12.4093 21.0824 12.4309 21.0393C12.4309 21.0178 12.4525 20.9962 12.4525 20.9747C12.5171 20.8023 12.5171 20.7376 12.5387 20.673C12.5387 20.6298 12.5602 20.5436 12.5818 20.4574C12.6464 20.1773 12.6895 19.9402 12.7111 19.7462C12.7542 19.3798 12.8188 19.0566 13.0128 18.7548C13.0559 18.7117 13.0775 18.6686 13.1206 18.6255C13.1421 18.604 13.1421 18.604 13.1637 18.5824C13.1852 18.5609 13.1852 18.5609 13.2068 18.5393C13.2499 18.4962 13.3145 18.4747 13.3576 18.4531C13.3792 18.4531 13.4007 18.4316 13.4223 18.4316C13.4654 18.41 13.5085 18.41 13.5516 18.3885C13.7456 18.3454 13.9611 18.3454 14.2197 18.3669C14.4999 18.3885 14.7585 18.4316 14.974 18.4962C15.168 18.5393 15.3404 18.604 15.4697 18.6686C15.4912 18.6686 15.4912 18.6902 15.5128 18.6902C15.5343 18.7117 15.5559 18.7117 15.599 18.7333C15.6421 18.7548 15.6637 18.7548 15.7068 18.7764C15.7499 18.798 15.793 18.8195 15.8361 18.8411L15.8792 18.8626C16.03 18.9273 16.1809 19.0135 16.2887 19.0997C16.3533 19.1428 16.3964 19.1859 16.4395 19.229C16.4611 19.2505 16.4826 19.2505 16.4826 19.2721C16.5042 19.2936 16.5042 19.2936 16.5257 19.3152C16.9783 19.7031 16.9568 20.2419 16.8706 20.5652ZM17.9481 14.9833L17.905 15.2419C17.7973 15.8454 17.5602 16.6643 16.6981 16.8798C15.8576 17.0738 15.6637 17.1169 15.0818 17.16C15.0602 17.16 15.0602 17.16 15.0387 17.16C14.6076 17.16 13.7671 16.8798 13.6162 16.2117C13.53 15.7807 13.724 15.4574 14.0257 14.9402C14.0688 14.854 14.1335 14.7678 14.1981 14.66C14.6292 13.9488 14.78 13.4316 14.9093 13.0221C15.0387 12.6126 15.1464 12.2893 15.4266 12.0092C15.4912 11.9445 15.5559 11.8798 15.6421 11.8367C15.6852 11.7936 15.7499 11.7721 15.8145 11.729C15.9007 11.6859 15.9869 11.6643 16.0731 11.6212C16.2671 11.5566 16.4826 11.535 16.6766 11.535C17.0861 11.535 17.4956 11.6428 17.7757 11.8798C17.905 11.9876 18.099 12.1816 18.2068 12.8066C18.2499 13.1298 18.1637 13.7117 17.9481 14.9833ZM24.1335 16.7074C23.8318 17.2247 23.6809 17.5048 23.4223 17.7204C22.905 18.1514 22.3231 18.2376 21.8274 18.2376C21.4826 18.2376 21.1809 18.173 20.9869 18.1514C20.4697 18.0652 19.543 17.8928 19.2197 17.1385C19.155 16.9876 19.155 16.9014 19.155 16.7721C19.155 16.6643 19.155 16.4488 19.0904 15.9962V15.9747C19.0688 15.7592 19.0473 15.5221 19.0904 15.2204V15.1773C19.2628 14.2721 19.3274 14.1428 19.349 14.0566C19.4352 13.8842 19.6507 13.798 19.8447 13.9057C20.0171 13.9919 20.0818 14.2074 20.0171 14.3798C19.9956 14.423 19.9525 14.6169 19.8016 15.3281V15.3712C19.7585 15.5652 19.78 15.7161 19.8016 15.91V15.9316C19.8662 16.4488 19.8662 16.6643 19.8662 16.7936C19.8662 16.8152 19.8662 16.8367 19.8662 16.8583V16.8798C19.9309 17.0307 20.0602 17.1169 20.2111 17.2031C20.3188 17.2462 20.4266 17.16 20.405 17.0523C20.2542 16.2549 20.2542 15.3281 20.5559 14.7462C20.6637 14.5523 20.8361 14.2505 21.0085 13.9488C21.03 13.9273 21.0516 13.8842 21.0516 13.8626C21.0731 13.8411 21.0731 13.8195 21.0947 13.798C21.1809 13.6686 21.2456 13.5609 21.3102 13.4531C21.3102 13.4316 21.3318 13.4316 21.3318 13.41L21.3533 13.3885C21.3749 13.3669 21.3749 13.3454 21.3964 13.3238C21.3964 13.3238 21.3964 13.3023 21.418 13.3023L21.4395 13.2807C21.4395 13.2592 21.4611 13.2592 21.4611 13.2376C21.5257 13.1514 21.5904 13.0652 21.6335 12.979C21.7197 12.8712 21.6119 12.7419 21.5042 12.785C21.2024 12.9143 21.0085 13.0652 20.9654 13.0867C20.8145 13.2161 20.5775 13.1945 20.4481 13.0221C20.3188 12.8712 20.3404 12.6342 20.5128 12.5048C20.7068 12.354 21.6981 11.6428 22.8835 11.9661C23.7456 12.2031 24.1766 12.8712 24.349 13.1083C24.4783 13.3023 24.9093 13.9057 24.8878 14.7678C24.8878 15.3928 24.6292 15.8669 24.1335 16.7074Z" fill="#F3F3F3"/>
<path d="M16.4259 12.2812C16.3612 12.4321 16.2965 12.6045 16.2103 12.7985C16.0379 13.2511 15.8224 13.7683 15.7146 13.9623C15.5422 14.2856 15.4129 14.5011 15.3052 14.6519C15.1759 14.8459 15.0896 14.9968 15.0034 15.2123C14.8741 15.5787 14.8526 15.9881 14.9388 16.4407C14.7017 16.4192 14.3353 16.2683 14.2922 16.0528C14.2707 15.9019 14.3569 15.7511 14.6155 15.2985C14.6586 15.2123 14.7233 15.1045 14.7879 15.0183C15.2405 14.2425 15.4345 13.6606 15.5638 13.2295C15.7146 12.7769 15.7793 12.583 16.0164 12.4106C16.1672 12.3459 16.2965 12.3028 16.4259 12.2812Z" fill="#F3F3F3"/>
<path d="M15.9727 28.5568C15.7141 29.0741 15.4124 29.5482 15.2184 29.7853C15.046 29.3543 14.7658 28.3413 14.852 27.5439C14.852 27.5224 14.852 27.5008 14.852 27.4793C14.8736 27.2206 14.9382 27.0051 15.0675 26.8112C15.1538 26.6818 15.3693 26.6172 15.6063 26.6172C15.7788 26.6172 15.9727 26.6603 16.1451 26.7465C16.2313 26.7896 16.3606 26.8974 16.3606 27.1775C16.4038 27.5655 16.2098 28.0827 15.9727 28.5568Z" fill="#F3F3F3"/>
<path d="M29.7615 22.7994C29.7831 22.8209 29.7831 22.8425 29.7831 22.864C29.7184 23.0149 29.6107 23.1226 29.5029 23.2519C29.3736 23.4028 29.2227 23.5752 29.0934 23.8554C28.8994 24.2433 28.8348 24.5882 28.8132 25.4933C28.7701 26.5494 28.8132 27.1313 28.8563 27.5623C28.8779 27.9718 28.8994 28.2304 28.8348 28.6399C28.6839 29.4588 28.3391 29.9976 27.8865 30.6873C27.3262 31.5494 26.7658 32.433 25.8176 32.7132C25.7313 32.7347 25.7313 32.7347 25.4727 32.7347C25.2572 32.7347 24.8908 32.7347 24.2227 32.7563C22.9727 32.7994 22.3477 32.8209 21.8305 32.9287C21.2701 33.0364 20.99 33.1657 20.6882 33.2735C20.4296 33.3813 20.1926 33.4675 19.74 33.5752C19.4598 33.6399 19.0503 33.683 17.6494 33.7045C16.1839 33.7045 15.3003 33.7045 14.1581 33.5752C12.5632 33.4028 11.7658 33.2951 11.227 33.0149C9.97703 32.3468 9.43824 31.1399 8.57617 29.1571C8.57617 29.1356 8.59772 29.114 8.61928 29.114C8.66238 29.1356 8.70548 29.1571 8.74859 29.1787C8.79169 29.2002 8.83479 29.2002 8.85634 29.2002C8.94255 29.2218 9.02876 29.2218 9.11496 29.2002C9.13652 29.2002 9.13652 29.2002 9.15807 29.1787C9.17962 29.1787 9.20117 29.1787 9.20117 29.2002C9.26583 29.3511 9.35203 29.4804 9.5029 29.5666C9.65376 29.6528 9.82617 29.6528 9.97703 29.6528C10.1494 29.6528 10.3219 29.6313 10.4943 29.6097C10.5805 29.6097 10.6667 29.6528 10.7098 29.7175C10.8607 30.1054 11.0546 30.364 11.3563 30.4071C11.3779 30.4071 11.3994 30.4071 11.421 30.4071C11.4857 30.4071 11.5934 30.3856 11.7227 30.2994C11.8305 30.2132 12.0029 30.2778 12.0891 30.3856C12.1538 30.4933 12.24 30.558 12.3262 30.6226C12.6279 30.9244 13.3607 31.0752 13.9641 31.0752C14.2874 31.0752 14.5891 31.0321 14.7615 30.9459C15.0201 30.8166 15.0201 30.6442 14.9986 30.558C14.977 30.4287 14.9555 30.2778 14.9339 30.1485C14.9339 30.127 14.9555 30.127 14.9555 30.1485C14.9986 30.2347 15.0417 30.3209 15.1494 30.3425C15.171 30.3425 15.171 30.3425 15.1926 30.3425C15.365 30.3425 15.6236 30.4071 15.6667 30.558C15.6882 30.6442 15.7313 30.7088 15.7744 30.7951C15.8822 30.9459 16.0762 31.1399 16.4857 31.1614H16.5072C16.9813 31.1614 17.3477 31.0106 17.5848 30.7088C17.6063 30.6873 17.6063 30.6657 17.6279 30.6442C17.7141 30.5149 17.9727 30.5149 18.0805 30.6226C18.2098 30.7304 18.3607 30.7951 18.5331 30.7951C18.5546 30.7951 18.5977 30.7951 18.6193 30.7951C18.8348 30.7735 19.0072 30.6657 19.1581 30.4718C19.2443 30.3425 19.3089 30.1916 19.352 30.0192C19.3736 29.9761 19.4382 29.9545 19.4813 29.9976C19.5676 30.0838 19.7184 30.1701 19.9339 30.1701C19.977 30.1701 20.0417 30.1701 20.1063 30.1485C20.5158 30.0623 20.7313 29.7175 20.8176 29.3511C20.8176 29.3295 20.8391 29.3295 20.8391 29.3511C20.9469 29.4804 21.1408 29.6313 21.4641 29.6313C21.4857 29.6313 21.5072 29.6313 21.5072 29.6313C21.6796 29.6313 21.8305 29.5451 21.9382 29.4157C22.0676 29.2433 22.1107 28.9847 22.1322 28.7476C22.1322 28.683 22.1753 28.6183 22.2615 28.5752C22.6063 28.4244 23.0374 28.1011 23.1667 27.8856C23.1667 27.8856 23.1667 27.864 23.1882 27.864C23.2098 27.7994 23.2744 27.7563 23.3175 27.7563C23.5977 27.7132 23.7055 27.6485 23.8132 27.6054C23.8994 27.5623 23.9641 27.5407 24.1796 27.4976C25.7529 27.2606 26.0546 27.1959 26.3994 26.9804C26.9167 26.6356 26.9382 26.1614 26.9598 25.7088C26.9813 25.3209 27.0029 24.8899 27.3046 24.3726C27.4124 24.1787 27.5417 23.9632 27.671 23.7045C27.9081 23.2735 28.2313 22.6701 28.4684 22.3468C28.5115 22.2821 28.5977 22.2606 28.6624 22.3037C29.2012 22.4976 29.6753 22.7132 29.7615 22.7994Z" fill="#F3F3F3"/>
<path d="M14.4618 27.5035C14.3972 28.0423 14.3541 28.7751 14.4403 29.7233C14.4618 29.982 14.5049 30.2621 14.548 30.5423C14.4834 30.5854 14.2463 30.6501 13.8584 30.6285C13.298 30.6069 12.7377 30.4776 12.5653 30.2837L12.5437 30.2621C12.4144 30.1544 12.3066 30.0682 12.3066 29.8742C12.3066 29.8095 12.3282 29.7449 12.3928 29.6371C12.436 29.594 12.4791 29.5294 12.5222 29.4432C12.6084 29.3138 12.7377 29.163 12.867 28.9475C13.2334 28.344 13.3627 28.1501 13.5351 27.913C13.5566 27.8914 13.5566 27.8699 13.5782 27.8483C13.686 27.719 13.7937 27.5466 13.9877 27.2664C14.117 27.0725 14.2247 26.9001 14.3325 26.7707C14.4834 26.5552 14.5911 26.4475 14.6558 26.3828C14.6558 26.469 14.6342 26.5983 14.6127 26.7276C14.5265 26.9863 14.4834 27.2233 14.4618 27.5035Z" fill="#F3F3F3"/>
<path d="M14.1823 19.004C14.1823 19.0256 14.1823 19.0256 14.1823 19.004C14.0961 19.1118 14.0099 19.2411 13.9021 19.4566C13.6219 20.0601 13.6219 20.4049 13.6219 20.6851C13.6219 20.8359 13.6219 20.9437 13.5788 21.073C13.5573 21.1592 13.5142 21.267 13.4495 21.3747C13.2987 21.7411 13.0831 22.2152 13.1693 22.8618C13.04 22.7971 12.8461 22.6463 12.803 22.5816C12.803 22.5385 12.7814 22.517 12.7814 22.4739C12.7383 22.2799 12.7168 22.1506 12.8245 21.8489C13.1693 21.073 13.2124 20.879 13.234 20.6635C13.234 20.6204 13.2555 20.5773 13.2555 20.5127C13.3202 20.2109 13.3633 19.9523 13.3849 19.7368C13.428 19.4135 13.4711 19.198 13.5788 19.0471C13.6219 18.9825 13.7297 18.9609 13.8805 18.9609C13.9452 18.9609 14.0099 18.9609 14.0961 18.9825H14.1176C14.1823 19.004 14.1823 19.004 14.1823 19.004Z" fill="#F3F3F3"/>
<path d="M13.7503 26.7196C13.7287 26.5256 13.7072 26.3532 13.621 26.1592C13.621 26.1592 13.5994 26.1161 13.5994 26.0946C13.5779 26.073 13.5779 26.0515 13.5563 26.0299L13.5348 26.0084C13.5132 25.9868 13.5132 25.9868 13.4916 25.9868L13.4701 25.9652C13.4485 25.9652 13.4485 25.9437 13.427 25.9437H13.4054C13.2977 25.9006 13.1899 25.8575 13.0606 25.8359C13.0391 25.8359 13.0175 25.8359 13.0175 25.8359C12.996 25.8359 12.996 25.8359 12.9744 25.8359H12.9529C12.9313 25.8359 12.9098 25.8575 12.8666 25.8575C12.8451 25.8575 12.8451 25.879 12.8235 25.879L12.802 25.9006C12.7804 25.9221 12.7804 25.9221 12.7589 25.9437L12.7373 25.9652V25.9868C12.6942 26.0515 12.6511 26.1161 12.608 26.1808C12.5003 26.3316 12.3925 26.504 12.2848 26.6549C12.177 26.8058 12.0908 26.9351 11.983 27.0859C11.9184 27.1721 11.8753 27.2368 11.8106 27.323C11.8106 27.3446 11.7891 27.3446 11.7891 27.3661C11.8537 27.3877 11.9184 27.3877 11.983 27.4092C12.1339 27.4308 12.2848 27.4523 12.4141 27.4739C12.7158 27.517 13.0391 27.5385 13.3408 27.517C13.3623 27.517 13.3623 27.517 13.3839 27.517C13.4485 27.4092 13.5563 27.2799 13.6641 27.1075C13.7287 27.0213 13.7934 26.9351 13.8365 26.8489C13.7718 26.8273 13.7503 26.7627 13.7503 26.7196Z" fill="#F3F3F3"/>
<path d="M12.6545 27.9911C12.633 28.2282 12.3744 28.8316 11.9649 29.4135C11.62 29.8877 11.4045 30.017 11.3614 30.017C11.189 29.9954 11.0381 29.5859 10.9088 29.1765C10.8657 29.004 10.8011 28.8532 10.7795 28.7023C10.6933 28.4006 10.6718 27.9696 10.6933 27.7109C11.0381 27.9049 11.6416 27.948 12.5037 27.948C12.5468 27.9696 12.6114 27.9696 12.6545 27.9911Z" fill="#F3F3F3"/>
<path d="M12.05 26.0541C11.8992 26.2912 11.7483 26.5067 11.5975 26.7223C11.5112 26.83 11.4466 26.9378 11.3604 27.0455C11.3173 27.1102 11.2526 27.1748 11.2095 27.2395C11.0802 27.2179 10.9725 27.1748 10.8431 27.1533C10.7354 27.1317 10.6492 27.0886 10.5414 27.0455C10.5199 27.0455 10.4983 27.024 10.4768 27.024C10.4552 27.0024 10.4337 26.9593 10.4121 26.9378C10.4552 26.8731 10.4768 26.7869 10.5199 26.7223C10.5845 26.5929 10.6492 26.4636 10.7354 26.3343C10.8647 26.1188 11.0156 25.8817 11.2526 25.7309C11.2742 25.7309 11.2742 25.7093 11.2957 25.7093C11.3819 25.6662 11.4681 25.6231 11.5759 25.6016C11.5975 25.6016 11.6621 25.6016 11.7052 25.6016H11.7268C11.7268 25.6016 11.7268 25.6016 11.7483 25.6016C11.7699 25.6016 11.7914 25.6231 11.8345 25.6231C11.8345 25.6231 11.8561 25.6231 11.8561 25.6447C11.8776 25.6662 11.8992 25.6662 11.9207 25.6878C11.8776 25.6662 11.9638 25.7524 11.9638 25.7309C12.0069 25.8602 12.0285 25.9248 12.05 26.0541Z" fill="#F3F3F3"/>
<path d="M10.8856 25.4069C10.6054 25.6225 10.4114 25.9242 10.2606 26.2475C10.1744 26.4199 10.0882 26.5923 10.002 26.7647C10.002 26.7862 9.9804 26.8078 9.9804 26.8078C9.89419 26.7862 9.80799 26.7647 9.74333 26.7431C9.65712 26.7216 9.57092 26.6785 9.48471 26.6569C9.44161 26.6354 9.42006 26.6138 9.37695 26.5923C9.46316 26.4414 9.54937 26.2906 9.65713 26.1397C9.78644 25.9457 9.9373 25.7302 10.0882 25.5578C10.1528 25.4931 10.2175 25.4069 10.2821 25.3638C10.3683 25.3207 10.4545 25.3207 10.5623 25.3423C10.6701 25.3423 10.7778 25.3423 10.864 25.3854C10.8425 25.3854 10.864 25.4069 10.8856 25.4069Z" fill="#F3F3F3"/>
<path d="M10.4512 29.062C10.4296 29.0835 10.4296 29.0835 10.4081 29.1051H10.3865C10.3219 29.1051 10.2572 29.1266 10.1926 29.1266C10.0633 29.1266 9.93396 29.1482 9.80465 29.1266C9.73999 29.1266 9.67534 29.1051 9.63223 29.062C9.58913 28.9973 9.56758 28.868 9.54603 28.7818C9.45982 28.3077 9.45982 27.8335 9.50292 27.3594C9.73999 27.4456 9.99861 27.5102 10.2572 27.5533C10.1926 27.9844 10.3003 28.6094 10.3434 28.7818C10.4081 28.868 10.4296 28.9758 10.4512 29.062Z" fill="#F3F3F3"/>
<path d="M9.67598 25.2798C9.46047 25.5384 9.2665 25.8186 9.09409 26.1203C9.02943 26.2281 8.94322 26.3574 8.87857 26.4867C8.79236 26.4651 8.70616 26.422 8.6415 26.3789C8.57685 26.3358 8.51219 26.2927 8.46909 26.2496C8.44754 26.2281 8.40443 26.2065 8.38288 26.185C8.38288 26.185 8.36133 26.185 8.36133 26.1634C8.38288 26.0987 8.42598 26.0556 8.42598 26.0125C8.46909 25.9048 8.51219 25.8186 8.57685 25.7324C8.6846 25.56 8.79236 25.3875 8.92167 25.2151C8.96478 25.1505 9.00788 25.0858 9.09409 25.0643C9.15874 25.0427 9.24495 25.0643 9.3096 25.0643C9.43891 25.0858 9.56822 25.172 9.67598 25.2798Z" fill="#F3F3F3"/>
<path d="M8.01733 26.399C8.03888 26.3774 8.01733 26.3774 8.01733 26.399C8.10354 26.4852 8.1682 26.5498 8.2544 26.6145C8.29751 26.636 8.31906 26.6791 8.36216 26.7007C8.36216 26.7007 8.36216 26.7007 8.36216 26.7223C8.27595 27.0886 8.2113 27.4766 8.2113 27.8645C8.2113 27.886 8.18975 27.886 8.18975 27.8645C8.08199 27.4119 7.95268 26.6791 8.01733 26.399Z" fill="#F3F3F3"/>
<path d="M9.07747 27.2193C9.03436 27.5426 9.01281 27.8658 9.03436 28.1891C9.03436 28.3615 9.05592 28.5339 9.07747 28.7279C9.03436 28.7279 8.99126 28.7279 8.94816 28.7279H8.92661H8.90505C8.86195 28.7064 8.86195 28.7064 8.81885 28.6848C8.77574 28.6633 8.73264 28.5986 8.68954 28.5339C8.60333 28.3831 8.58178 28.2107 8.58178 28.0383C8.56023 27.715 8.60333 27.3702 8.66798 27.0469C8.71109 27.0684 8.77574 27.09 8.8404 27.1115C8.92661 27.1546 8.99126 27.1977 9.07747 27.2193Z" fill="#F3F3F3"/>
<mask id="mask0_7663_321955" style="mask-type:luminance" maskUnits="userSpaceOnUse" x="1" y="1" width="40" height="40">
<path d="M41 21C41 9.94397 32.0345 1 21 1C9.94397 1 1 9.94397 1 21C1 32.0345 9.94397 41 21 41C32.0345 41 41 32.0345 41 21Z" fill="white"/>
</mask>
<g mask="url(#mask0_7663_321955)">
<g opacity="0.8">
<path opacity="0.8" d="M17.4649 43.3505C15.9994 43.3505 14.6201 43.2643 13.4563 43.1781L13.133 43.1565L12.8098 43.1134C12.6589 43.0919 12.4865 43.0703 12.2925 43.0488C11.1718 42.9195 9.0813 42.7039 6.77527 41.6263L6.40889 41.4539L6.08561 41.26C1.64596 38.76 0.00802751 35.0315 -0.897145 33.0272C-0.9618 32.8979 -1.02646 32.747 -1.09111 32.5962C-1.5437 31.6695 -1.82387 30.8505 -2.06094 30.0746L-2.10404 29.9022L-2.14714 29.7298C-2.7937 27.4453 -2.94456 25.4841 -2.66439 23.5229C-2.36266 21.5617 -1.65146 19.7945 -0.379903 17.9195L0.266648 16.8634C0.395959 16.6479 0.482166 16.4108 0.546821 16.1738C1.04251 13.7169 2.1632 11.9712 2.72354 11.1307C2.87441 10.1177 3.13303 9.12635 3.47786 8.15652L3.52096 8.00566L3.58561 7.85479C3.58561 7.83324 3.60717 7.79014 3.62872 7.72548C3.88734 6.97117 4.46923 5.22548 5.9563 3.37204L6.51665 2.72548L7.09854 2.20824C8.56406 0.872037 10.3313 -0.119343 12.2279 -0.679688C13.2839 -1.00296 14.383 -1.19693 15.5037 -1.26158H15.6115H15.7623C15.9563 -1.26158 16.1503 -1.28314 16.3227 -1.28314C17.0123 -1.28314 17.702 -1.21848 18.3916 -1.11072C18.8227 -1.04607 19.2537 -1.08917 19.6632 -1.26158C20.8485 -1.75727 22.077 -2.08055 23.3485 -2.25296C23.4563 -2.27452 23.5425 -2.27452 23.6287 -2.29607C23.8227 -2.31762 24.146 -2.36072 24.5339 -2.40383C25.202 -2.46848 26.2365 -2.55469 27.3356 -2.55469C29.5123 -2.55469 31.3873 -2.27452 33.0684 -1.69262L33.2192 -1.64952L33.3485 -1.60641C37.0554 -0.20555 38.9304 1.75566 40.2882 3.45824L40.3529 3.54445L40.5468 3.71686C41.7753 4.66514 42.8098 5.85048 43.6287 7.16514L43.8873 7.57462L44.1029 8.00566C45.9132 11.691 45.3313 15.1177 45.1158 16.3893L45.0942 16.4539C44.9434 17.4022 44.6848 18.3289 44.3615 19.2341C44.2322 20.0962 44.0382 20.9582 43.758 21.7772C43.2839 23.2427 42.5727 24.6436 41.6675 25.8936C41.1503 26.6263 40.5468 27.3376 39.9003 27.9626C39.6632 28.1781 39.5123 28.4798 39.4692 28.8031C39.4477 28.997 39.4046 29.191 39.383 29.385C38.8442 32.2298 37.6158 34.2126 37.0985 35.01L35.5684 37.2082C33.7149 39.5143 31.5166 41.0229 28.8658 41.8419L28.2192 42.0358L27.5296 42.1651C26.7322 42.316 25.9348 42.3807 25.1158 42.3807C25.008 42.3807 24.9003 42.3807 24.771 42.3807H24.7279H24.5985H24.4477C24.146 42.3807 23.8442 42.4453 23.5425 42.5315C21.7753 43.0919 19.8356 43.3505 17.4649 43.3505Z" stroke="url(#paint1_linear_7663_321955)" stroke-width="0.227457" stroke-miterlimit="10"/>
<path opacity="0.8" d="M17.4631 41.8217C16.0622 41.8217 14.7045 41.7355 13.5838 41.6492L13.3252 41.6277L13.0665 41.5846C12.8941 41.563 12.7002 41.5415 12.5062 41.5199C11.4071 41.4122 9.59671 41.1967 7.57085 40.2484L7.26912 40.0975L6.98895 39.9467C3.04499 37.7699 1.60102 34.5156 0.738951 32.576C0.674296 32.4467 0.609641 32.2742 0.523434 32.1234C0.113951 31.3044 -0.14467 30.5286 -0.360187 29.8389L-0.40329 29.688L-0.446394 29.5587C-1.00674 27.5113 -1.1576 25.7872 -0.89898 24.0846C-0.640359 22.4036 0.00619258 20.8303 1.12688 19.1923L1.9674 17.8346C2.11826 17.5975 2.22602 17.3173 2.26912 17.0372C2.67861 14.7096 3.77774 13.0717 4.27343 12.3173L4.33809 12.2311L4.35964 12.188C4.35964 12.1665 4.38119 12.1449 4.38119 12.1234C4.40274 12.0156 4.44585 11.9294 4.4674 11.8432C4.59671 10.8949 4.83378 9.94666 5.15705 9.04149L5.20016 8.91218L5.24326 8.78287C5.26481 8.73976 5.26481 8.69666 5.30792 8.56735C5.54499 7.85614 6.04068 6.36907 7.33378 4.77425L7.80792 4.2139L8.28205 3.78287C9.55361 2.61907 11.0838 1.757 12.7217 1.28287C13.67 1.00269 14.6183 0.83028 15.6096 0.787177H15.6958H15.8252C15.9976 0.787177 16.1484 0.765625 16.2993 0.765625C17.0105 0.765625 17.7002 0.571659 18.3898 0.70097C18.9286 0.808728 19.4674 0.744073 19.9631 0.528556C20.8898 0.119073 22.1398 -0.0317887 23.5622 -0.225754C23.67 -0.247306 23.7562 -0.247306 23.8208 -0.268858C24.0148 -0.290409 24.3165 -0.333513 24.6614 -0.355065C25.2864 -0.41972 26.2562 -0.484375 27.3122 -0.484375C29.295 -0.484375 30.976 -0.225754 32.4631 0.269935L32.5924 0.313039L32.7002 0.356142C35.976 1.60614 37.5924 3.24407 38.864 4.86045C38.9286 4.94666 39.0148 5.03287 39.0364 5.07597L39.0579 5.09752L39.295 5.31304L39.3165 5.35614C40.4157 6.19666 41.3424 7.23114 42.0536 8.39494L42.2691 8.73976L42.4415 9.10614C43.9933 12.2742 43.5191 15.1837 43.3036 16.4122L43.2821 16.4768C43.1312 17.382 42.8941 18.2441 42.5708 19.1061C42.4631 19.9251 42.2691 20.7441 42.0105 21.5199C41.5795 22.813 40.9545 24.0415 40.1571 25.1622C39.6183 25.938 38.9717 26.6492 38.2821 27.2742C37.9588 27.576 37.7433 27.9639 37.7002 28.4165C37.6571 28.7398 37.614 29.0415 37.5708 29.3648C37.0967 31.8863 36.0191 33.6104 35.5019 34.3863L34.2519 36.1967C32.5924 38.3303 30.6312 39.7096 28.2605 40.4423L27.7217 40.6148L27.1398 40.7225C26.4502 40.8518 25.739 40.9165 25.0493 40.8949C24.9415 40.8949 24.8338 40.8949 24.726 40.8949H24.7045H24.6398C24.6398 40.8949 24.6183 40.8949 24.5752 40.8949H24.4458H24.3165H24.0795C23.7562 40.9165 23.4329 40.9596 23.1096 41.0673C21.5364 41.5846 19.7045 41.8217 17.4631 41.8217Z" stroke="url(#paint2_linear_7663_321955)" stroke-width="0.227457" stroke-miterlimit="10"/>
<path opacity="0.8" d="M17.4686 40.041C16.1324 40.041 14.8177 39.9547 13.7186 39.8685L13.5031 39.847L13.2875 39.8254C13.0936 39.8039 12.8781 39.7823 12.6625 39.7608C11.6281 39.653 10.0548 39.4806 8.28754 38.6401L8.05047 38.5323L7.83495 38.403C4.45133 36.5065 3.20133 33.7047 2.38237 31.8513C2.31771 31.7004 2.2315 31.5065 2.16685 31.3556C1.80047 30.6228 1.5634 29.9332 1.36944 29.2866L1.32633 29.1789L1.30478 29.0711C0.80909 27.3039 0.67978 25.7953 0.895297 24.3728C1.11081 22.9289 1.69271 21.5711 2.68409 20.1272L2.8134 19.9547L2.94271 19.7823C3.02892 19.6746 3.09357 19.5668 3.17978 19.4806L3.67547 18.5539C3.84788 18.2522 3.95564 17.9289 3.99875 17.5841C4.32202 15.5151 5.3134 14.028 5.76599 13.3384C5.78754 13.2953 5.83064 13.2522 5.85219 13.2306L5.95995 13.0797C6.00306 12.9935 6.04616 12.8858 6.08926 12.7565C6.13237 12.6272 6.19702 12.4332 6.24012 12.2608C6.34788 11.3772 6.5634 10.5151 6.86512 9.67457L6.90823 9.56681L6.95133 9.45905C6.97288 9.37284 7.01599 9.30819 7.05909 9.15733C7.27461 8.48922 7.68409 7.26078 8.78323 5.92457L9.14961 5.47198L9.53754 5.12716C10.6151 4.13578 11.9082 3.42457 13.3091 2.99353C14.1281 2.75647 14.947 2.6056 15.8091 2.5625H15.8737H15.9815C16.1108 2.5625 16.2401 2.5625 16.391 2.5625C17.1237 2.5625 17.835 2.64871 18.5462 2.84267C19.1496 2.99353 19.7962 2.92888 20.3565 2.64871C21.2617 2.21767 22.4686 1.74353 23.8694 1.57112C23.9556 1.54957 24.0418 1.54957 24.1065 1.52802C24.2789 1.50647 24.5591 1.46336 24.9039 1.44181C25.4858 1.37716 26.4125 1.3125 27.3824 1.3125C29.1496 1.3125 30.6367 1.52802 31.9513 1.9806L32.0375 2.02371L32.1237 2.06681C35.141 3.20905 36.4772 4.69612 37.5117 6.01078C37.7487 6.29095 37.7703 6.33405 37.9212 6.48491L38.1151 6.65733L38.1798 6.74353C38.6755 7.13147 39.6884 7.92888 40.572 9.37284L40.7444 9.65302L40.8953 9.93319C42.21 12.5841 41.8005 14.9978 41.6065 16.1616L41.585 16.2263C41.4556 17.0668 41.2186 17.9073 40.8737 18.7047V18.7694C40.7875 19.5237 40.6151 20.278 40.3781 20.9892C40.0117 22.1315 39.4729 23.1875 38.7617 24.1573C38.1798 24.9978 37.4686 25.7522 36.6712 26.3987C36.4772 26.5496 36.3263 26.7435 36.2186 26.9591C36.1108 27.1746 36.0462 27.4116 36.0246 27.6487C36.0031 28.1228 35.9384 28.597 35.8522 29.0711C35.4427 31.2478 34.4944 32.7565 34.0203 33.5108L33.0505 34.9332C31.6065 36.8728 29.8824 38.1228 27.7918 38.7694L27.3608 38.8987L26.8867 38.9849C26.3048 39.0927 25.7013 39.1358 25.0979 39.1358C25.0117 39.1358 24.9039 39.1358 24.7962 39.1358H24.7746H24.6668C24.6453 39.1358 24.6022 39.1358 24.4944 39.1358H24.3867H24.3005L23.8048 39.1573C23.46 39.1789 23.1151 39.222 22.7918 39.3513C21.3048 39.8254 19.6022 40.041 17.4686 40.041Z" stroke="url(#paint3_linear_7663_321955)" stroke-width="0.213233" stroke-miterlimit="10"/>
<path opacity="0.8" d="M17.4624 38.2346C16.1908 38.2346 14.9193 38.1484 13.8632 38.0622L13.7124 38.0407L13.5615 38.0191C13.346 37.9976 13.1089 37.9545 12.8934 37.9329C11.9236 37.8252 10.5874 37.6743 9.07874 36.9846L8.90632 36.8984L8.73391 36.8122C5.86753 35.1959 4.81149 32.8252 4.03563 31.101C3.94942 30.9286 3.86322 30.7346 3.79856 30.5622C3.47529 29.8941 3.25977 29.2691 3.08736 28.7303L3.0658 28.6441L3.00115 28.5795C2.16063 25.6053 2.48391 23.5148 4.12184 21.1226L4.20805 20.9933L4.29425 20.864C4.40201 20.7346 4.50977 20.5838 4.61753 20.4545C4.76839 20.2605 4.91925 20.045 5.09167 19.851C5.19942 19.7217 5.28563 19.5709 5.35029 19.42L5.54425 18.9459C5.63046 18.7303 5.67356 18.5148 5.69511 18.2993C5.86753 16.3812 6.79425 15.0019 7.24684 14.3122C7.28994 14.2691 7.33305 14.1829 7.3546 14.1614L7.46236 13.989L7.50546 13.9459C7.57011 13.8381 7.67787 13.5795 7.76408 13.3209C7.80718 13.1484 7.89339 12.8683 7.9796 12.6312V12.6096C8.0658 11.8122 8.25977 11.0148 8.53994 10.2605L8.56149 10.1959L8.58305 10.1312C8.62615 10.0019 8.66925 9.89413 8.71236 9.74327C8.90632 9.16137 9.2296 8.16999 10.1132 7.07085L10.3934 6.72602L10.6736 6.4674C12.7641 4.57085 15.0917 4.41999 15.8675 4.35533H15.9106H15.9968C16.1046 4.35533 16.2124 4.35533 16.3201 4.35533C17.2468 4.35533 18.152 4.5493 19.0141 4.91568C19.1649 4.98033 19.3374 5.00189 19.4882 5.00189C19.6606 5.00189 19.8115 4.95878 19.9624 4.87258C20.7598 4.41999 22.2037 3.57947 24.0572 3.36395C24.1434 3.3424 24.2296 3.3424 24.2943 3.3424C24.4667 3.32085 24.7253 3.2993 25.027 3.2562C25.5874 3.21309 26.4279 3.14844 27.333 3.14844C28.9063 3.14844 30.1994 3.3424 31.2986 3.70878L31.3632 3.73033L31.4279 3.75189C34.0141 4.72171 35.1132 5.95016 36.0399 7.11395C36.277 7.43723 36.4063 7.56654 36.6649 7.82516L36.8158 7.95447L36.9236 8.08378L37.0098 8.14844C37.4408 8.49327 38.2598 9.11827 38.9925 10.3036L39.1218 10.5191L39.2296 10.7346C40.2856 12.8898 39.9408 14.8295 39.7684 15.864V15.9286C39.6391 16.6829 39.4236 17.4372 39.1218 18.1484L39.1003 18.2131C39.1003 18.2346 39.1003 18.2346 39.0787 18.2777C39.0572 18.3424 39.0572 18.4071 39.0572 18.4717L39.0356 18.5579C38.971 19.2045 38.8201 19.8295 38.6046 20.4329C38.2813 21.4027 37.8287 22.3079 37.2253 23.1269C36.6434 23.9674 35.9753 24.6571 35.2425 25.1959C34.9192 25.4329 34.6606 25.7346 34.4667 26.101C34.2727 26.4674 34.1865 26.8553 34.1865 27.2648C34.1865 27.7605 34.1218 28.2777 34.0356 28.7734C33.6908 30.6269 32.9149 31.8769 32.4193 32.6312L31.708 33.6872C30.458 35.4329 28.971 36.5536 27.1822 37.114L27.096 37.1355C26.9451 37.1786 26.7943 37.2217 26.6434 37.2433L26.5356 37.2648C26.0399 37.351 25.5443 37.3941 25.0486 37.3941C24.9624 37.3941 24.8761 37.3941 24.7899 37.3941H24.7684C24.7253 37.3941 24.6822 37.3941 24.6391 37.3941C24.596 37.3941 24.5098 37.3941 24.3374 37.3941H24.2727H24.208C23.971 37.3941 23.6693 37.4157 23.4106 37.4157C23.0443 37.4372 22.6994 37.5019 22.3546 37.6312C21.0615 38.0191 19.4882 38.2346 17.4624 38.2346Z" stroke="url(#paint4_linear_7663_321955)" stroke-width="0.19903" stroke-miterlimit="10"/>
<path opacity="0.8" d="M17.4632 36.4364C16.2347 36.4364 15.0278 36.3502 13.9933 36.264H13.8856L13.7778 36.2425C13.5407 36.1994 13.2821 36.1778 13.045 36.1562C12.1399 36.0485 11.0192 35.9407 9.81229 35.3588L9.68298 35.2942L9.57522 35.2295C7.22608 33.9149 6.34246 31.9321 5.65281 30.3373C5.5666 30.1433 5.48039 29.9494 5.39419 29.7338C5.11401 29.1735 4.92005 28.6131 4.76919 28.139L4.74763 28.0744L4.72608 28.0097C4.03643 25.5528 4.2735 24.0011 5.6097 22.0614L5.67436 21.9752L5.73901 21.889C5.84677 21.7381 5.95453 21.6088 6.06229 21.458C6.40712 21.0054 6.75194 20.5528 7.24763 20.014C7.35539 19.9063 7.42005 19.7338 7.4416 19.583L7.46315 19.0873L7.4416 18.8933V18.6994C7.4847 17.1045 8.28212 15.9192 8.71315 15.2726C8.75625 15.208 8.82091 15.1218 8.84246 15.0787L8.90712 14.9709L8.97177 14.8847C9.05798 14.7554 9.25194 14.3028 9.42436 13.8933C9.48901 13.7209 9.57522 13.3761 9.68298 13.0959C9.70453 13.0097 9.70453 12.9881 9.72608 12.7942C9.79074 12.1261 9.96315 11.458 10.1787 10.833L10.2002 10.7899L10.2218 10.7468C10.2864 10.5744 10.3295 10.445 10.3942 10.2726C10.5666 9.75539 10.8252 9.00108 11.4933 8.16056L11.6873 7.92349L11.8813 7.75108C13.3468 6.43642 14.92 6.1778 15.9976 6.11315H16.0407H16.0838C16.17 6.11315 16.2347 6.11315 16.3209 6.11315C17.2261 6.11315 18.3252 6.54418 18.9071 6.82435C19.0364 6.88901 19.1873 6.93211 19.3382 6.93211C19.489 6.93211 19.6399 6.91056 19.7907 6.86746C20.1571 6.73815 20.5019 6.58728 20.8252 6.41487C21.558 5.98384 22.7649 5.29418 24.2735 5.12177C24.3597 5.10022 24.4244 5.10022 24.489 5.10022C24.6399 5.07866 24.8769 5.05711 25.1787 5.01401C25.6959 4.97091 26.4718 4.90625 27.3123 4.90625C28.67 4.90625 29.7907 5.05711 30.6959 5.38039L30.739 5.40194L30.7821 5.42349C32.9373 6.24246 33.7994 7.16918 34.6183 8.22521C34.8769 8.57004 35.0709 8.80711 35.4588 9.15194L35.545 9.23815L35.6313 9.32435C35.7175 9.41056 35.8037 9.47522 35.8899 9.53987C36.2563 9.82004 36.8813 10.3157 37.42 11.2209L37.5063 11.3502L37.5709 11.5011C38.3683 13.1175 38.1097 14.6476 37.9588 15.5528V15.6175C37.8511 16.2425 37.6787 16.8459 37.42 17.4278C37.3554 17.5787 37.3123 17.7295 37.2692 17.9019C37.2476 18.0097 37.2261 18.1175 37.2261 18.2037L37.2045 18.2899C37.1399 18.8071 37.0321 19.3244 36.8597 19.82C36.6011 20.6175 36.2131 21.3718 35.739 22.0399C35.0063 23.0744 34.1657 23.8071 33.1528 24.2812C32.9157 24.389 32.7002 24.5614 32.5494 24.7985C32.3985 25.014 32.3123 25.2942 32.2907 25.5528C32.2907 25.6606 32.2907 25.7468 32.2907 25.8114C32.3338 26.5873 32.3985 27.4709 32.2261 28.3976C31.9459 29.9062 31.2994 30.9192 30.8252 31.6735C30.8252 31.6735 28.6269 34.7338 26.6226 35.3588L26.4071 35.4235L26.17 35.4666C25.7821 35.5313 25.3942 35.5744 24.9847 35.5744C24.92 35.5744 24.8338 35.5744 24.7476 35.5744C24.7045 35.5744 24.6399 35.5744 24.5752 35.5744C24.489 35.5744 24.3597 35.5744 24.1657 35.5959H24.1226H24.0795C23.3037 35.6175 22.5925 35.639 22.3769 35.6821C22.2692 35.7037 22.1614 35.7252 22.0537 35.7683C20.9976 36.2209 19.5106 36.4364 17.4632 36.4364Z" stroke="url(#paint5_linear_7663_321955)" stroke-width="0.184806" stroke-miterlimit="10"/>
<path opacity="0.8" d="M17.4669 34.6948C16.3031 34.6948 15.1393 34.6086 14.1479 34.5439H14.1048H14.0617C13.7815 34.5008 13.5229 34.4793 13.2858 34.4577C12.4453 34.3715 11.5617 34.2637 10.6134 33.8327L10.5488 33.8112L10.4841 33.7896C8.65222 32.7551 7.96256 31.2249 7.31601 29.7379C7.2298 29.5224 7.12204 29.3068 7.01428 29.0913C6.79877 28.6603 6.62635 28.1862 6.49704 27.7336V27.712V27.6905C5.9367 25.7293 6.08756 24.7379 7.12204 23.2293L7.1436 23.1862L7.16515 23.143C7.29446 22.9922 7.40222 22.8413 7.50997 22.712C8.00566 22.0655 8.4367 21.5051 9.40653 20.5999C9.47118 20.5353 9.53584 20.4491 9.55739 20.3413C9.57894 20.2551 9.57894 20.1474 9.53584 20.0612L9.36342 19.5655C9.32032 19.4146 9.29877 19.2422 9.29877 19.0913V18.962V18.8543C9.34187 17.7767 9.90222 16.9362 10.2686 16.3758C10.3333 16.2896 10.3764 16.2034 10.4195 16.1387L10.4626 16.0741L10.5057 16.0094C10.6996 15.7508 11.0229 14.9965 11.1953 14.5439C11.2384 14.393 11.3462 14.0267 11.4539 13.7465C11.5186 13.531 11.5617 13.3155 11.5833 13.0999C11.6479 12.5612 11.7557 12.0224 11.9496 11.5267V11.5051V11.4836C12.0358 11.268 12.1005 11.0956 12.1436 10.9232C12.2945 10.4706 12.4669 9.95339 12.941 9.3715L13.0272 9.26374L13.1134 9.17753C14.1479 8.22926 15.2901 8.05684 16.1522 7.99219H16.1738H16.1953C16.2384 7.99219 16.3031 7.99219 16.3462 7.99219C17.2082 7.99219 17.8548 8.33701 18.2858 8.57408L18.3936 8.61719H18.4151C18.5445 8.68184 18.6307 8.7465 18.7384 8.7896C18.997 8.91891 19.3203 8.96201 19.6005 8.87581C20.2039 8.72495 21.1307 8.35857 21.7341 8.01374H21.7557C22.4022 7.62581 23.3936 7.06546 24.5574 6.93615C24.622 6.9146 24.7083 6.9146 24.7729 6.9146C24.9022 6.89305 25.1393 6.8715 25.3979 6.84995C25.872 6.80684 26.6048 6.74219 27.3591 6.74219C28.5229 6.74219 29.4496 6.8715 30.1608 7.10857H30.1824H30.2039C31.9281 7.75512 32.5746 8.44477 33.2643 9.34995C33.5445 9.71633 33.8246 10.0612 34.3419 10.5137L34.385 10.5568L34.4281 10.5999C34.5574 10.7293 34.7083 10.8586 34.8807 10.9879C35.1824 11.2249 35.6134 11.5482 35.9798 12.1732L36.0229 12.2379L36.066 12.3025C36.6048 13.4232 36.4324 14.4793 36.3031 15.2767V15.3413C36.2169 15.837 36.0876 16.3112 35.872 16.7853C35.7643 17.0439 35.6781 17.3241 35.635 17.6043C35.6134 17.7767 35.5919 17.906 35.5703 18.0137L35.5488 18.0999C35.5057 18.5094 35.4195 18.8974 35.2901 19.2853C35.0962 19.9103 34.7945 20.4922 34.4065 21.031C33.76 21.9793 33.0272 22.5612 32.0574 22.8629C31.5833 23.0137 31.1953 23.3155 30.9367 23.7249L30.8505 23.8327L30.7643 23.9405C30.5272 24.2206 30.5919 25.2982 30.635 25.9448C30.6781 26.656 30.7212 27.3887 30.5919 28.0784C30.3764 29.2637 29.8591 30.0612 29.4065 30.7508C29.4065 30.7508 27.7255 33.1862 26.1953 33.6387L26.0876 33.6818L25.9798 33.7034C25.6996 33.7465 25.3979 33.7896 25.0962 33.7896C25.0315 33.7896 24.9669 33.7896 24.8807 33.7896C24.816 33.7896 24.7514 33.7896 24.6651 33.7896C24.5574 33.7896 24.4065 33.7896 24.1479 33.8112H24.1264H24.1048C23.0919 33.8543 22.4669 33.8758 22.122 33.9405C21.885 33.9836 21.6695 34.0482 21.4539 34.1344C20.5272 34.5008 19.2772 34.6948 17.4669 34.6948Z" stroke="url(#paint6_linear_7663_321955)" stroke-width="0.184806" stroke-miterlimit="10"/>
</g>
</g>
<defs>
<radialGradient id="paint0_radial_7663_321955" cx="0" cy="0" r="1" gradientUnits="userSpaceOnUse" gradientTransform="translate(21.0008 23.0895) rotate(90) scale(22.4667)">
<stop offset="0.1667" stop-color="#073183"/>
<stop offset="1" stop-color="#0054F9"/>
</radialGradient>
<linearGradient id="paint1_linear_7663_321955" x1="-1.8015" y1="-3.4954" x2="44.0235" y2="44.6005" gradientUnits="userSpaceOnUse">
<stop offset="0.2057" stop-color="#89D0FF"/>
<stop offset="0.3984" stop-color="#EBBF9A"/>
<stop offset="0.6015" stop-color="#EB8280"/>
<stop offset="0.8411" stop-color="#A281FF"/>
</linearGradient>
<linearGradient id="paint2_linear_7663_321955" x1="-0.0263505" y1="-1.42461" x2="42.2192" y2="43.0959" gradientUnits="userSpaceOnUse">
<stop offset="0.2057" stop-color="#89D0FF"/>
<stop offset="0.3984" stop-color="#EBBF9A"/>
<stop offset="0.6015" stop-color="#EB80DA"/>
<stop offset="0.8411" stop-color="#A281FF"/>
</linearGradient>
<linearGradient id="paint3_linear_7663_321955" x1="1.77385" y1="0.372758" x2="40.4393" y2="41.317" gradientUnits="userSpaceOnUse">
<stop offset="0.2057" stop-color="#89D0FF"/>
<stop offset="0.3984" stop-color="#EBBF9A"/>
<stop offset="0.6015" stop-color="#EB8280"/>
<stop offset="0.8411" stop-color="#A281FF"/>
</linearGradient>
<linearGradient id="paint4_linear_7663_321955" x1="3.5599" y1="2.15074" x2="38.6372" y2="39.5077" gradientUnits="userSpaceOnUse">
<stop offset="0.2057" stop-color="#89D0FF"/>
<stop offset="0.3984" stop-color="#EBBF9A"/>
<stop offset="0.6015" stop-color="#EB80E7"/>
<stop offset="0.8411" stop-color="#A281FF"/>
</linearGradient>
<linearGradient id="paint5_linear_7663_321955" x1="5.3425" y1="3.94026" x2="36.8385" y2="37.7071" gradientUnits="userSpaceOnUse">
<stop offset="0.2057" stop-color="#89D0FF"/>
<stop offset="0.3984" stop-color="#EBBF9A"/>
<stop offset="0.6015" stop-color="#EB80D3"/>
<stop offset="0.8411" stop-color="#A281FF"/>
</linearGradient>
<linearGradient id="paint6_linear_7663_321955" x1="7.15118" y1="5.74316" x2="35.0628" y2="35.9335" gradientUnits="userSpaceOnUse">
<stop offset="0.2057" stop-color="#89D0FF"/>
<stop offset="0.3984" stop-color="#EBBF9A"/>
<stop offset="0.6015" stop-color="#A280EB"/>
<stop offset="0.8411" stop-color="#A281FF"/>
</linearGradient>
</defs>
</svg>
