<?xml version="1.0" encoding="UTF-8"?>
<svg width="42" height="42" fill="none" version="1.1" viewBox="0 0 42 42" xmlns="http://www.w3.org/2000/svg">
 <circle cx="21" cy="21" r="20" fill="#222"/>
 <path d="m8.2547 30.7h5.1233l4.7092-17.925-10.05 17.545c-0.1035 0.1745 0.0207 0.3798 0.21735 0.3798z" fill="url(#paint0_linear_7674_310927)"/>
 <path d="m31.448 25.995-18.071 4.7021h20.369c0.1966 0 0.3208-0.2054 0.2173-0.3799l-2.515-4.3222z" fill="url(#paint1_linear_7674_310927)"/>
 <path d="m28.679 23.254 2.7738 2.7412-10.329-17.74c-0.0932-0.16426-0.3416-0.16426-0.4451 0l-2.5875 4.5173 10.588 10.482z" fill="url(#paint2_linear_7674_310927)"/>
 <path d="m13.376 30.707 3.726-0.9753-0.0207-13.11-3.7053 14.086z" fill="url(#paint3_linear_7674_310927)"/>
 <path d="m17.084 16.614 11.592 6.6424-10.588-10.482-1.0039 3.8397z" fill="url(#paint4_linear_7674_310927)"/>
 <path d="m17.102 29.729 14.345-3.7267-2.7738-2.7412-11.571 6.4679z" fill="url(#paint5_linear_7674_310927)"/>
 <path d="m17.105 29.729 2.484-1.3859-2.5047-8.9421 0.0207 10.328z" fill="url(#paint6_linear_7674_310927)"/>
 <path d="m28.674 23.26-2.4426-1.3962-6.6447 6.4781 9.0873-5.0819z" fill="url(#paint7_linear_7674_310927)"/>
 <path d="m17.086 19.393 9.1494 2.4639-9.1494-5.2461v2.7822z" fill="url(#paint8_linear_7674_310927)"/>
 <path d="m22.901 21.342h1.4076l-7.2243-1.9403 0.5382 1.9301 5.2681 0.0102h0.0104z" fill="url(#paint9_linear_7674_310927)"/>
 <path d="m17.624 21.331 1.9665 7.0119 1.3869-1.3551-2.6082-4.4146-0.7452-1.2422z" fill="url(#paint10_linear_7674_310927)"/>
 <path d="m24.31 21.342-3.3327 5.6465 5.2578-5.1229-1.9251-0.5236z" fill="url(#paint11_linear_7674_310927)"/>
 <path d="m22.902 21.341-5.2785-0.0102 0.7452 1.2422 4.5333-1.232z" fill="url(#paint12_linear_7674_310927)"/>
 <path d="m21.669 25.813-3.3016-3.2339 2.6082 4.4146 0.6934-1.1807z" fill="url(#paint13_linear_7674_310927)"/>
 <path d="m24.312 21.342h-1.4076l-1.2316 4.4659 2.6392-4.4659z" fill="url(#paint14_linear_7674_310927)"/>
 <path d="m8.2547 30.7h5.1233l4.7092-17.925-10.05 17.545c-0.1035 0.1642 0.0207 0.3798 0.21735 0.3798z" fill="url(#paint15_linear_7674_310927)"/>
 <path d="m31.448 25.995-18.071 4.7021h20.369c0.1966 0 0.3208-0.2054 0.2173-0.3799l-2.515-4.3222z" fill="url(#paint1_linear_7674_310927)"/>
 <path d="m28.679 23.254 2.7738 2.7412-10.329-17.74c-0.0932-0.16426-0.3416-0.16426-0.4451 0l-2.5875 4.5173 10.588 10.482z" fill="url(#paint2_linear_7674_310927)"/>
 <path d="m13.376 30.707 3.726-0.9753-0.0207-13.11-3.7053 14.086z" fill="url(#paint3_linear_7674_310927)"/>
 <path d="m17.102 29.729 14.345-3.7267-2.7738-2.7412-11.571 6.4679z" fill="url(#paint5_linear_7674_310927)"/>
 <path d="m17.105 29.729 2.484-1.3859-2.5047-8.9421 0.0207 10.328z" fill="url(#paint6_linear_7674_310927)"/>
 <path d="m28.674 23.26-2.4426-1.3962-6.6447 6.4781 9.0873-5.0819z" fill="url(#paint7_linear_7674_310927)"/>
 <path d="m17.624 21.331 1.9665 7.0119 1.3869-1.3551-2.6082-4.4146-0.7452-1.2422z" fill="url(#paint10_linear_7674_310927)"/>
 <path d="m24.31 21.342-3.3327 5.6465 5.2578-5.1229-1.9251-0.5236z" fill="url(#paint11_linear_7674_310927)"/>
 <path d="m21.669 25.813-3.3016-3.2339 2.6082 4.4146 0.6934-1.1807z" fill="url(#paint13_linear_7674_310927)"/>
 <path d="m24.312 21.342h-1.4076l-1.2316 4.4659 2.6392-4.4659z" fill="url(#paint14_linear_7674_310927)"/>
 <defs>
  <linearGradient id="paint0_linear_7674_310927" x1="13.999" x2="12.201" y1="30.634" y2="13.387" gradientUnits="userSpaceOnUse">
   <stop stop-color="#C3C4C3" offset="0"/>
   <stop stop-color="#D8D8D8" offset=".094032"/>
   <stop stop-color="#E9EAE9" offset=".2118"/>
   <stop stop-color="#F6F6F6" offset=".3548"/>
   <stop stop-color="#FDFDFD" offset=".5471"/>
   <stop stop-color="#fff" offset="1"/>
  </linearGradient>
  <linearGradient id="paint1_linear_7674_310927" x1="30.992" x2="16.989" y1="25.372" y2="35.628" gradientUnits="userSpaceOnUse">
   <stop stop-color="#C3C4C3" offset="0"/>
   <stop stop-color="#D8D8D8" offset=".094032"/>
   <stop stop-color="#E9EAE9" offset=".2118"/>
   <stop stop-color="#F6F6F6" offset=".3548"/>
   <stop stop-color="#FDFDFD" offset=".5471"/>
   <stop stop-color="#fff" offset="1"/>
  </linearGradient>
  <linearGradient id="paint2_linear_7674_310927" x1="17.826" x2="33.887" y1="13.361" y2="20.57" gradientUnits="userSpaceOnUse">
   <stop stop-color="#C3C4C3" offset="0"/>
   <stop stop-color="#D8D8D8" offset=".094032"/>
   <stop stop-color="#E9EAE9" offset=".2118"/>
   <stop stop-color="#F6F6F6" offset=".3548"/>
   <stop stop-color="#FDFDFD" offset=".5471"/>
   <stop stop-color="#fff" offset="1"/>
  </linearGradient>
  <linearGradient id="paint3_linear_7674_310927" x1="15.945" x2="14.532" y1="30.438" y2="16.884" gradientUnits="userSpaceOnUse">
   <stop stop-color="#B7B8B8" offset="0"/>
   <stop stop-color="#C9CACA" offset=".113"/>
   <stop stop-color="#E1E1E1" offset=".3025"/>
   <stop stop-color="#F2F2F2" offset=".5045"/>
   <stop stop-color="#FCFCFC" offset=".7252"/>
   <stop stop-color="#fff" offset="1"/>
  </linearGradient>
  <linearGradient id="paint4_linear_7674_310927" x1="17.001" x2="29.73" y1="15.196" y2="20.909" gradientUnits="userSpaceOnUse">
   <stop stop-color="#B7B8B8" offset="0"/>
   <stop stop-color="#C9CACA" offset=".113"/>
   <stop stop-color="#E1E1E1" offset=".3025"/>
   <stop stop-color="#F2F2F2" offset=".5045"/>
   <stop stop-color="#FCFCFC" offset=".7252"/>
   <stop stop-color="#fff" offset="1"/>
  </linearGradient>
  <linearGradient id="paint5_linear_7674_310927" x1="29.863" x2="18.748" y1="23.839" y2="31.981" gradientUnits="userSpaceOnUse">
   <stop stop-color="#B7B8B8" offset="0"/>
   <stop stop-color="#C9CACA" offset=".113"/>
   <stop stop-color="#E1E1E1" offset=".3025"/>
   <stop stop-color="#F2F2F2" offset=".5045"/>
   <stop stop-color="#FCFCFC" offset=".7252"/>
   <stop stop-color="#fff" offset="1"/>
  </linearGradient>
  <linearGradient id="paint6_linear_7674_310927" x1="18.476" x2="15.755" y1="29.344" y2="19.778" gradientUnits="userSpaceOnUse">
   <stop stop-color="#B7B8B8" offset="0"/>
   <stop stop-color="#CECECE" offset=".2097"/>
   <stop stop-color="#E9E9E9" offset=".5176"/>
   <stop stop-color="#F9F9F9" offset=".791"/>
   <stop stop-color="#fff" offset="1"/>
  </linearGradient>
  <linearGradient id="paint7_linear_7674_310927" x1="27.603" x2="20.715" y1="22.234" y2="29.425" gradientUnits="userSpaceOnUse">
   <stop stop-color="#B7B8B8" offset="0"/>
   <stop stop-color="#CECECE" offset=".2097"/>
   <stop stop-color="#E9E9E9" offset=".5176"/>
   <stop stop-color="#F9F9F9" offset=".791"/>
   <stop stop-color="#fff" offset="1"/>
  </linearGradient>
  <linearGradient id="paint8_linear_7674_310927" x1="16.729" x2="26.579" y1="18.012" y2="20.488" gradientUnits="userSpaceOnUse">
   <stop stop-color="#B7B8B8" offset="0"/>
   <stop stop-color="#CECECE" offset=".2097"/>
   <stop stop-color="#E9E9E9" offset=".5176"/>
   <stop stop-color="#F9F9F9" offset=".791"/>
   <stop stop-color="#fff" offset="1"/>
  </linearGradient>
  <linearGradient id="paint9_linear_7674_310927" x1="17.01" x2="24.342" y1="20.338" y2="20.92" gradientUnits="userSpaceOnUse">
   <stop stop-color="#ABACAC" offset="0"/>
   <stop stop-color="#BDBDBD" offset=".1841"/>
   <stop stop-color="#EDEDED" offset=".7286"/>
   <stop stop-color="#fff" offset="1"/>
  </linearGradient>
  <linearGradient id="paint10_linear_7674_310927" x1="20.42" x2="17.298" y1="27.943" y2="21.489" gradientUnits="userSpaceOnUse">
   <stop stop-color="#ABACAC" offset="0"/>
   <stop stop-color="#BDBDBD" offset=".1841"/>
   <stop stop-color="#EDEDED" offset=".7286"/>
   <stop stop-color="#fff" offset="1"/>
  </linearGradient>
  <linearGradient id="paint11_linear_7674_310927" x1="25.453" x2="21.455" y1="21.341" y2="27.316" gradientUnits="userSpaceOnUse">
   <stop stop-color="#ABACAC" offset="0"/>
   <stop stop-color="#BDBDBD" offset=".1841"/>
   <stop stop-color="#EDEDED" offset=".7286"/>
   <stop stop-color="#fff" offset="1"/>
  </linearGradient>
  <linearGradient id="paint12_linear_7674_310927" x1="17.952" x2="22.568" y1="22.193" y2="20.453" gradientUnits="userSpaceOnUse">
   <stop stop-color="#9FA0A0" offset="0"/>
   <stop stop-color="#A5A6A6" offset=".1748"/>
   <stop stop-color="#B6B6B6" offset=".4035"/>
   <stop stop-color="#D1D1D1" offset=".6621"/>
   <stop stop-color="#F6F6F6" offset=".9409"/>
   <stop stop-color="#fff" offset="1"/>
  </linearGradient>
  <linearGradient id="paint13_linear_7674_310927" x1="21.533" x2="17.832" y1="26.334" y2="23.204" gradientUnits="userSpaceOnUse">
   <stop stop-color="#9FA0A0" offset="0"/>
   <stop stop-color="#A5A6A6" offset=".1748"/>
   <stop stop-color="#B6B6B6" offset=".4035"/>
   <stop stop-color="#D1D1D1" offset=".6621"/>
   <stop stop-color="#F6F6F6" offset=".9409"/>
   <stop stop-color="#fff" offset="1"/>
  </linearGradient>
  <linearGradient id="paint14_linear_7674_310927" x1="23.417" x2="22.581" y1="21.189" y2="25.966" gradientUnits="userSpaceOnUse">
   <stop stop-color="#9FA0A0" offset="0"/>
   <stop stop-color="#A5A6A6" offset=".1748"/>
   <stop stop-color="#B6B6B6" offset=".4035"/>
   <stop stop-color="#D1D1D1" offset=".6621"/>
   <stop stop-color="#F6F6F6" offset=".9409"/>
   <stop stop-color="#fff" offset="1"/>
  </linearGradient>
  <linearGradient id="paint15_linear_7674_310927" x1="13.999" x2="12.201" y1="30.636" y2="13.389" gradientUnits="userSpaceOnUse">
   <stop stop-color="#C3C4C3" offset="0"/>
   <stop stop-color="#D8D8D8" offset=".094032"/>
   <stop stop-color="#E9EAE9" offset=".2118"/>
   <stop stop-color="#F6F6F6" offset=".3548"/>
   <stop stop-color="#FDFDFD" offset=".5471"/>
   <stop stop-color="#fff" offset="1"/>
  </linearGradient>
 </defs>
</svg>
