<svg xmlns="http://www.w3.org/2000/svg" width="42" height="42" fill="none"><rect width="42" height="42" fill="#F3F3F3" rx="21"/><path fill="#0A0B0D" fill-rule="evenodd" d="M35.392 27.515c.535-1.18.93-2.439 1.161-3.753H20.502l-2.468-1.974-2.468 1.974H5.447a15.677 15.677 0 0 0 1.161 3.753h7.778l2.468-1.974 2.468 1.974h16.07Zm-2.56 3.948H15.372l-2.467-1.974-2.468 1.974h-1.27A15.755 15.755 0 0 0 21 36.794c4.71 0 8.938-2.061 11.831-5.33ZM24.45 19.814h12.3a15.721 15.721 0 0 0-.81-3.947h-9.51l-2.469-1.974-2.467 1.974H6.059a15.72 15.72 0 0 0-.809 3.947h14.265l2.467-1.974 2.468 1.974ZM8.077 11.918C10.935 7.86 15.658 5.207 21 5.207s10.064 2.652 12.923 6.712h-3.546L27.91 9.944l-2.468 1.974H8.077Z" clip-rule="evenodd"/></svg>