<svg width="42" height="42" viewBox="0 0 42 42" fill="none" xmlns="http://www.w3.org/2000/svg">
<rect width="42" height="42" rx="21" fill="white"/>
<path d="M24.2525 28.4215C24.1578 28.2005 24.063 27.9794 23.9999 27.7584C23.9367 27.5058 23.8736 27.2215 23.8104 26.9689C23.5894 27.2215 23.3051 27.4426 23.0525 27.6637C22.7683 27.8847 22.4525 28.0742 22.1051 28.2321C21.7262 28.39 21.3157 28.5163 20.9367 28.611C20.4946 28.7058 20.0209 28.7373 19.5788 28.7373C18.8209 28.7373 18.0946 28.6426 17.3683 28.39C16.7367 28.1689 16.1367 27.8531 15.6315 27.411C14.6525 26.59 14.0841 25.3584 14.0841 24.0636C14.0841 22.4215 14.6841 21.1268 15.9157 20.2426C17.1472 19.3268 18.9788 18.8847 21.4104 18.8847H23.6841V17.9689C23.7157 17.3058 23.4315 16.6426 22.9578 16.1689C22.4525 15.7268 21.7578 15.5058 20.842 15.5058C20.0209 15.5058 19.4209 15.6637 19.042 16.0426C18.663 16.4215 18.442 16.9268 18.4736 17.4637H14.463C14.463 16.8005 14.6209 16.1689 14.9051 15.5689C15.2209 14.9689 15.663 14.4005 16.1999 13.99C16.8315 13.5163 17.5262 13.1373 18.2525 12.9163C19.1683 12.6321 20.1157 12.5058 21.063 12.5058C21.9472 12.5058 22.8315 12.6005 23.7157 12.8531C24.4736 13.0742 25.1999 13.4215 25.8315 13.8952C26.4315 14.3373 26.9367 14.9373 27.2525 15.6321C27.5999 16.39 27.7894 17.211 27.7578 18.0321V24.7584C27.7578 25.4531 27.7894 26.1479 27.9157 26.8426C28.0104 27.3479 28.1683 27.8215 28.3894 28.2637V28.4215H24.2525ZM20.4315 25.611C20.8104 25.611 21.1893 25.5794 21.5367 25.4847C21.8525 25.39 22.1683 25.2637 22.4841 25.1058C22.7367 24.9794 22.9893 24.79 23.2104 24.5689C23.3999 24.3794 23.5578 24.19 23.6841 23.9689V21.2847H21.6315C21.0946 21.2847 20.5578 21.3479 20.0209 21.4742C19.642 21.5689 19.263 21.7268 18.9472 21.9794C18.663 22.1689 18.442 22.4531 18.3157 22.7689C18.1894 23.0847 18.0946 23.4321 18.1262 23.7479C18.1262 24.2531 18.3157 24.7584 18.6946 25.1058C19.0736 25.4215 19.642 25.611 20.4315 25.611Z" fill="#404141"/>
<path d="M21 42C9.41053 42 0 32.5895 0 21C0 9.41053 9.41053 0 21 0C32.5895 0 42 9.41053 42 21C42 32.5895 32.5895 42 21 42ZM21 3.03158C11.0842 3.03158 3.03158 11.0842 3.03158 21C3.03158 30.9158 11.0842 38.9684 21 38.9684C30.9158 38.9684 38.9684 30.9158 38.9684 21C38.9684 11.0842 30.9158 3.03158 21 3.03158Z" fill="#404141"/>
</svg>
