<svg xmlns="http://www.w3.org/2000/svg" width="42" height="42" fill="none"><rect width="42" height="42" fill="#F5F5F5" rx="21"/><path fill="#2D374B" d="M33.635 12.072A2.923 2.923 0 0 1 35 14.42v13.122a2.902 2.902 0 0 1-1.112 2.183L22.09 36.59c-.336.133-.692.2-1.057.2-.398 0-.84-.087-1.147-.237a9.217 9.217 0 0 1-.31-.171l-.375-.213-4.32-2.498L7 27.993V14.414a2.902 2.902 0 0 1 1.643-2.476s10.943-6.375 11.038-6.423a2.94 2.94 0 0 1 2.604 0l11.35 6.557Z"/><path fill="#28A0F0" d="m21.085 25.582 4.337 6.837 4.005-2.332-5.694-9.017-2.648 4.512ZM33.079 27.342l-.003-1.868-6.223-9.736-2.309 3.935 6.008 9.76 2.172-1.265a.968.968 0 0 0 .355-.704v-.122Z"/><path fill="#F3F3F3" d="m7 29.113 3.067 1.775 10.207-16.443-1.732-.046c-1.476-.02-3.066.365-3.796 1.561L8.95 24.985 7 27.995v1.117ZM26.163 14.453l-4.565.017L11.27 31.592l3.61 2.088.982-1.673 10.302-17.554Z"/><path fill="#96BEDC" d="M35 14.42a2.923 2.923 0 0 0-1.365-2.348l-11.35-6.557a2.94 2.94 0 0 0-2.604 0c-.095.048-11.038 6.423-11.038 6.423A2.91 2.91 0 0 0 7 14.414v13.579l1.95-3.01-.017-10.477a.97.97 0 0 1 .401-.728c.052-.037 11.181-6.509 11.217-6.527a.983.983 0 0 1 .856-.004l11.203 6.474a.97.97 0 0 1 .446.771v12.979a.948.948 0 0 1-.335.704l-2.172 1.264-1.12.652-4.006 2.332-4.063 2.365a.98.98 0 0 1-.691-.014l-4.806-2.777-.982 1.673 4.319 2.498.374.213c.162.091.272.152.311.17.307.15.749.238 1.147.238.365 0 .72-.067 1.057-.2l11.8-6.864A2.902 2.902 0 0 0 35 27.542V14.42Z"/></svg>