<svg xmlns="http://www.w3.org/2000/svg" width="36" height="36" fill="none"><rect width="36" height="36" fill="#BCBDAA" rx="18"/><path fill="#030303" d="M29.091 18c0-6.115-4.975-11.091-11.091-11.091S6.909 11.884 6.909 17.999c0 6.117 4.975 11.092 11.09 11.092 6.117 0 11.092-4.975 11.092-11.091ZM17.057 7.582l-8.35 15.212A10.393 10.393 0 0 1 7.537 18c0-5.45 4.191-9.938 9.519-10.417Zm.627 10.233-8.093 4.673 8.093-14.741v10.068Zm0 10.637a10.461 10.461 0 0 1-8.58-4.957l8.58-4.952v9.909Zm2.8-15.885a6.473 6.473 0 0 1-2.17 4.817V7.75a6.377 6.377 0 0 1 2.17 4.817Zm6.408-.068-7.015 4.05a7.091 7.091 0 0 0 1.234-3.982 7.002 7.002 0 0 0-2.048-4.975 10.475 10.475 0 0 1 7.827 4.907h.002Zm.317 10.457L18.626 18l8.583-4.958a10.442 10.442 0 0 1 0 9.914Zm-.317.544a10.462 10.462 0 0 1-8.578 4.952v-9.908l8.578 4.956Z"/></svg>