<svg width="42" height="42" viewBox="0 0 42 42" fill="none" xmlns="http://www.w3.org/2000/svg">
<g clip-path="url(#clip0_4532_193236)">
<path d="M41.9979 20.9989C41.9979 9.40155 32.5963 0 20.9989 0C9.40155 0 0 9.40155 0 20.9989C0 32.5963 9.40155 41.9979 20.9989 41.9979C32.5963 41.9979 41.9979 32.5963 41.9979 20.9989Z" fill="url(#paint0_linear_4532_193236)"/>
<path d="M20.9989 41.9979C32.5962 41.9979 41.9979 32.5962 41.9979 20.9989C41.9979 9.4017 32.5962 0 20.9989 0C9.4017 0 0 9.4017 0 20.9989C0 32.5962 9.4017 41.9979 20.9989 41.9979Z" fill="url(#paint1_linear_4532_193236)"/>
<path d="M34.9331 20.1044C34.4081 12.3908 27.7305 6.5636 20.0169 7.08741C16.3253 7.33356 12.8825 9.03603 10.446 11.8204L10.439 11.8157L10.3924 11.8822C9.07026 13.4028 8.09317 15.1919 7.52828 17.1263C6.96339 19.0605 6.82413 21.0942 7.12004 23.0875L7.12704 23.1365C7.16204 23.371 7.20287 23.6043 7.24954 23.8363L7.25304 23.8492C7.29504 24.0592 7.34286 24.2668 7.39303 24.4722C9.00995 30.92 15.0518 35.4874 21.9162 35.0207C29.6297 34.4957 35.4581 27.8181 34.9331 20.1044ZM31.886 20.3109C31.9502 21.2389 31.8954 22.1712 31.7227 23.0851C31.7207 23.0799 31.7184 23.0749 31.7157 23.07C30.7007 20.5886 28.6941 18.7979 26.9279 17.8085C27.2849 13.6053 25.8593 11.8344 24.2447 11.5462C23.9224 11.483 23.5903 11.4884 23.2702 11.562C22.9501 11.6356 22.6491 11.7759 22.3867 11.9736C22.1244 12.1713 21.9066 12.422 21.7477 12.7095C21.5887 12.997 21.4921 13.3148 21.4641 13.642C21.436 13.9693 21.4773 14.2988 21.5851 14.6092C21.6929 14.9194 21.8648 15.2036 22.0898 15.443C22.3146 15.6824 22.5875 15.8717 22.8903 15.9987C23.1933 16.1257 23.5196 16.1874 23.848 16.18C23.855 16.3211 23.8597 16.4716 23.8597 16.6291C22.5018 16.2886 21.0963 16.1781 19.7019 16.3025C19.2259 16.334 18.7499 16.3935 18.2763 16.4821C18.4361 15.0623 18.9681 13.4688 20.0018 12.3021C20.5072 11.7255 21.1436 11.2785 21.8575 10.9988C22.5715 10.7191 23.3421 10.6147 24.1047 10.6946C24.4115 10.7261 24.7394 10.8019 25.0344 10.901L25.0753 10.9127C28.8295 12.4433 31.5932 16.0038 31.886 20.3109ZM22.1285 22.4493L22.125 22.454C21.7711 22.9624 21.3704 23.4366 20.928 23.8702C20.2579 23.1614 19.69 22.3623 19.2411 21.4961C19.2189 21.4519 19.1956 21.4099 19.1746 21.3644L19.1723 21.3597C18.9092 20.7986 18.6986 20.2144 18.5434 19.6144C19.4933 19.3875 20.4704 19.2949 21.446 19.3391C21.495 19.3426 21.544 19.3426 21.593 19.3472H21.5988C22.1822 19.3962 22.791 19.5024 23.421 19.6762C23.1424 20.6118 22.734 21.5036 22.2078 22.3256C22.1822 22.3676 22.1577 22.4073 22.1285 22.4493ZM17.3454 10.7284C17.3428 10.7317 17.3401 10.7348 17.3372 10.7377C15.6969 12.8563 15.1487 15.4893 15.1743 17.5122C11.356 19.3041 10.5347 21.4251 11.0923 22.9661C11.2004 23.2748 11.372 23.5574 11.5961 23.7955C11.8203 24.0337 12.0918 24.2223 12.3934 24.349C12.6948 24.4756 13.0196 24.5376 13.3465 24.531C13.6735 24.5243 13.9954 24.4491 14.2915 24.3102C14.5876 24.1714 14.8513 23.9719 15.0655 23.7248C15.2797 23.4777 15.4398 23.1884 15.5351 22.8755C15.6305 22.5627 15.6592 22.2333 15.6193 21.9088C15.5795 21.5841 15.472 21.2715 15.3038 20.9911C15.4252 20.9141 15.5547 20.8336 15.6911 20.7531C16.0734 22.1014 16.6786 23.3762 17.4819 24.5247C17.7467 24.919 18.0359 25.3017 18.3486 25.6657C17.0397 26.2384 15.3937 26.5756 13.8677 26.2617C13.1153 26.1126 12.4098 25.785 11.8104 25.3065C11.2109 24.828 10.735 24.2126 10.4227 23.5121C10.2948 23.2203 10.199 22.9157 10.1369 22.6033C10.0972 22.3354 10.0676 22.0662 10.0482 21.796C9.70641 16.7831 12.8178 12.3184 17.3454 10.7284ZM21.7085 31.9735C18.8446 32.1693 16.019 31.2282 13.8443 29.3544C16.4972 29.7161 19.0521 28.8738 20.7915 27.8402C24.254 30.2528 26.5021 29.9039 27.5578 28.6498C27.7596 28.4121 27.9118 28.1366 28.0055 27.8392C28.099 27.5419 28.1323 27.2289 28.1032 26.9184C28.0741 26.6081 27.9832 26.3066 27.8358 26.032C27.6885 25.7573 27.4877 25.5147 27.2453 25.3187C27.0028 25.1228 26.7238 24.9772 26.4242 24.8908C26.1247 24.8043 25.811 24.7785 25.5013 24.8151C25.1918 24.8517 24.8927 24.9498 24.6215 25.1037C24.3504 25.2576 24.1128 25.4641 23.9227 25.7112C23.8563 25.8 23.7967 25.8935 23.7442 25.9912C23.6099 25.9223 23.4773 25.8505 23.3464 25.7753C24.3219 24.7685 25.1216 23.6052 25.7123 22.3338C25.9223 21.9068 26.1089 21.4647 26.2676 21.0097C27.419 21.8578 28.5343 23.1155 29.0278 24.5947C29.2746 25.321 29.3434 26.0959 29.2285 26.8544C29.1136 27.6127 28.8183 28.3326 28.3675 28.9531C28.1765 29.2136 27.9574 29.4522 27.7141 29.6648C25.9913 31.0225 23.8982 31.8277 21.7097 31.9747L21.7085 31.9735Z" fill="url(#paint2_linear_4532_193236)"/>
<path opacity="0.9" d="M24.2969 11.5251C24.0341 11.4746 23.7643 11.471 23.5002 11.5146C24.8394 12.2438 25.8159 14.2737 25.3014 18.2774C25.1324 19.5797 24.7492 20.845 24.1674 22.0222C23.6679 23.0987 23.017 24.0981 22.2344 24.9901C22.6392 25.2934 23.0347 25.5489 23.3964 25.7543C24.3718 24.7474 25.1716 23.5841 25.7623 22.3127C26.3316 21.1555 26.7258 19.8943 26.8973 18.5679C27.5075 13.8 26.0073 11.8308 24.2969 11.5251Z" fill="url(#paint3_radial_4532_193236)"/>
<path opacity="0.8" d="M25.2566 18.246C25.7699 14.2423 24.7934 12.2123 23.4542 11.4844C23.4025 11.4927 23.3512 11.5029 23.3002 11.5147C24.6115 12.2683 25.5541 14.2971 25.0478 18.246C24.8789 19.5486 24.4958 20.8145 23.9139 21.992C23.467 22.9556 22.8639 23.9262 22.0625 24.8619L22.1908 24.9587C22.9718 24.0668 23.6219 23.0682 24.1216 21.9931C24.6909 20.8359 25.0863 19.5736 25.2554 18.2484L25.2566 18.246Z" fill="white"/>
<path opacity="0.5" d="M20.1941 27.3666C20.0681 27.271 19.9479 27.1706 19.8266 27.0703C17.8492 27.8951 15.1112 28.412 12.3906 27.7808C12.8351 28.3478 13.3333 28.8728 13.8792 29.3405C16.5332 29.7022 19.0869 28.86 20.8263 27.8263C20.612 27.6781 20.4012 27.5248 20.1941 27.3666Z" fill="url(#paint4_radial_4532_193236)"/>
<path opacity="0.6" d="M19.7796 27.0567C19.7185 27.0076 19.6583 26.9575 19.5988 26.9062C17.6074 27.7019 14.8553 28.1779 12.1406 27.5012C12.2071 27.5911 12.2748 27.6809 12.3436 27.7684C15.063 28.3984 17.8034 27.8827 19.7796 27.0567Z" fill="url(#paint5_linear_4532_193236)"/>
<path opacity="0.9" d="M11.1498 22.956C11.2393 23.2082 11.3711 23.4433 11.5395 23.6513C11.501 22.1277 12.7715 20.2681 16.4952 18.7096C17.708 18.2045 18.9957 17.9034 20.3065 17.8182C21.4887 17.7129 22.6797 17.7769 23.8437 18.0084C23.8995 17.5478 23.9264 17.0842 23.9242 16.6202C22.5648 16.2786 21.1578 16.1674 19.7618 16.2912C18.4749 16.3775 17.1836 16.6668 15.9504 17.1824C11.5138 19.0374 10.5595 21.3216 11.1498 22.956Z" fill="url(#paint6_radial_4532_193236)"/>
<path opacity="0.8" d="M16.4409 18.6581C12.7172 20.2155 11.4467 22.0762 11.4852 23.6009C11.5202 23.6418 11.554 23.6803 11.5902 23.7188C11.5879 22.2069 12.8735 20.3753 16.5459 18.8388C17.7587 18.3344 19.0464 18.0336 20.3573 17.9488C21.497 17.8475 22.6451 17.9037 23.7696 18.1156C23.7754 18.0631 23.7812 18.0106 23.7894 17.9581C22.6254 17.7266 21.4344 17.6626 20.2523 17.7679C18.9655 17.8531 17.6741 18.1424 16.4409 18.6581Z" fill="white"/>
<path opacity="0.4" d="M26.9016 18.5727C26.8809 18.7288 26.8564 18.8844 26.8281 19.0394C28.5315 20.3401 30.349 22.454 31.1621 25.1255C31.4304 24.4559 31.6369 23.763 31.7687 23.056C30.7538 20.5769 28.7496 18.7862 26.9833 17.7969C26.9623 18.0465 26.9366 18.3055 26.9016 18.5727Z" fill="url(#paint7_radial_4532_193236)"/>
<path opacity="0.5" d="M26.783 19.0312C26.7703 19.1088 26.7567 19.1862 26.7422 19.2634C28.4279 20.5899 30.2151 22.7353 30.9863 25.4242C31.033 25.3217 31.075 25.219 31.117 25.1163C30.3038 22.4448 28.4862 20.3309 26.783 19.0312Z" fill="url(#paint8_linear_4532_193236)"/>
<path opacity="0.9" d="M27.5443 28.6111C27.5735 28.5773 27.6027 28.5434 27.6295 28.5061C27.7672 28.3253 27.8745 28.1281 27.9515 27.9263C26.652 28.7219 24.4051 28.5528 21.1934 26.1064C20.1499 25.3083 19.2453 24.3433 18.516 23.2505C17.8341 22.28 17.2944 21.217 16.9131 20.0938C16.4476 20.2921 16.0299 20.5078 15.6719 20.7178C16.0556 22.0659 16.663 23.34 17.4684 24.4872C18.1976 25.5796 19.1022 26.5442 20.1458 27.3419C23.9687 30.2548 26.4256 29.9398 27.5443 28.6111Z" fill="url(#paint9_radial_4532_193236)"/>
<path opacity="0.8" d="M21.2646 26.0913C24.4764 28.5377 26.7221 28.7068 28.0228 27.9112C28.0413 27.862 28.058 27.8122 28.073 27.7618C26.7652 28.5202 24.5359 28.323 21.3696 25.9093C20.3264 25.1114 19.4218 24.1469 18.6923 23.0546C18.035 22.1181 17.5097 21.0955 17.1314 20.0156L16.9844 20.0775C17.3985 21.2907 17.9562 22.3383 18.5874 23.2354C19.3059 24.3087 20.2019 25.2806 21.2646 26.0913Z" fill="white"/>
<path opacity="0.3" d="M15.8867 17.1365C16.0337 17.0758 16.1807 17.021 16.3289 16.9662C16.6031 14.8429 17.5246 12.2122 19.4321 10.1719C18.7183 10.2724 18.0161 10.4428 17.3356 10.6805C15.6954 12.7991 15.1471 15.4309 15.1727 17.4538C15.4014 17.3477 15.6371 17.2415 15.8867 17.1365Z" fill="url(#paint10_radial_4532_193236)"/>
<path opacity="0.4" d="M16.3281 17.0094C16.4028 16.9814 16.4762 16.9534 16.5497 16.9277C16.8565 14.8057 17.8213 12.1843 19.7637 10.1719C19.6531 10.1837 19.5426 10.1973 19.4324 10.2127C17.525 12.2543 16.601 14.885 16.3281 17.0094Z" fill="url(#paint11_linear_4532_193236)"/>
<path style="mix-blend-mode:multiply" opacity="0.4" d="M20.0453 7.0018C16.3536 7.24797 12.9109 8.95044 10.4744 11.7348L10.4219 11.7953C10.8804 12.2503 12.3783 13.1463 12.9849 13.5208C14.1927 12.2193 15.6988 11.2312 17.3737 10.6416C17.4927 10.49 17.6152 10.3383 17.747 10.1913C19.3278 8.4064 21.4871 7.46378 23.9907 7.46378C24.2707 7.46378 24.8377 7.50811 24.8505 7.50811C23.2903 7.06157 21.6642 6.89025 20.0453 7.0018Z" fill="url(#paint12_linear_4532_193236)"/>
<path style="mix-blend-mode:multiply" opacity="0.4" d="M21.6983 31.9443C18.8337 32.1406 16.0071 31.1995 13.8318 29.3252C13.6349 29.2989 13.4388 29.2662 13.2438 29.2272C10.9083 28.749 9.0114 27.3514 7.75963 25.1815C7.62175 24.9427 7.49598 24.697 7.38281 24.4453C8.99973 30.8921 15.0405 35.4582 21.906 34.9915C21.9363 34.2845 21.7275 32.6443 21.6983 31.9443Z" fill="url(#paint13_linear_4532_193236)"/>
<path style="mix-blend-mode:multiply" opacity="0.4" d="M34.9842 20.023C34.5548 19.9787 32.4538 20.1455 31.937 20.2307C32.0012 21.1586 31.9463 22.0909 31.7736 23.0049C31.846 23.1834 31.9136 23.363 31.9766 23.5485C32.7303 25.8094 32.4678 28.152 31.216 30.3207C31.0802 30.5552 30.933 30.7829 30.775 31.0031C30.7729 31.0077 30.7697 31.0117 30.7656 31.0147L30.7773 31.0066C32.235 29.5919 33.3666 27.8762 34.0932 25.9792C34.8198 24.0822 35.1238 22.0496 34.9842 20.023Z" fill="url(#paint14_linear_4532_193236)"/>
<path style="mix-blend-mode:multiply" opacity="0.5" d="M24.1467 10.6388C24.4779 10.6746 24.804 10.7482 25.1185 10.8581C26.3206 11.3484 27.4264 12.0475 28.385 12.923L28.3908 12.9276C28.8493 12.4026 29.7336 11.8264 29.7336 11.8264C29.7336 11.8264 28.3791 10.4404 26.3084 10.0111C24.8584 9.71015 21.5872 9.41849 19.5234 12.9288L19.5433 12.9101C19.6961 12.6791 19.8583 12.4551 20.0426 12.2475C20.5479 11.6704 21.1844 11.2231 21.8987 10.9431C22.6128 10.6632 23.3838 10.5588 24.1467 10.6388Z" fill="url(#paint15_linear_4532_193236)"/>
<path style="mix-blend-mode:multiply" opacity="0.5" d="M28.3854 28.9373C28.1885 29.2062 27.962 29.4521 27.71 29.67C26.684 30.4651 25.5256 31.0724 24.2883 31.4642L24.2812 31.4677C24.5064 32.1269 24.5648 33.1826 24.5648 33.1826C24.5648 33.1826 26.4418 32.702 27.8488 31.1224C28.8345 30.0177 30.7232 27.3309 28.7144 23.7891L28.7202 23.8159C28.8438 24.0632 28.957 24.3164 29.0445 24.5789C29.2911 25.3053 29.36 26.0802 29.2451 26.8385C29.1301 27.5969 28.8362 28.3167 28.3854 28.9373Z" fill="url(#paint16_linear_4532_193236)"/>
<path style="mix-blend-mode:multiply" opacity="0.5" d="M10.493 23.4774C10.3648 23.1862 10.2686 22.8818 10.206 22.5698L10.1967 22.5266C10.0211 21.2411 10.074 19.9345 10.353 18.6674V18.6593C9.66937 18.5239 8.72675 18.0469 8.72675 18.0469C8.72675 18.0469 8.20411 19.9134 8.86791 21.9211C9.33222 23.328 10.7146 26.3076 14.7861 26.3379L14.7593 26.3297C14.4831 26.3157 14.2083 26.2823 13.9368 26.2294C13.1847 26.0793 12.4794 25.751 11.8802 25.2722C11.2811 24.7934 10.8054 24.1779 10.493 23.4774Z" fill="url(#paint17_linear_4532_193236)"/>
<path opacity="0.6" d="M23.5319 16.1596C23.6439 16.1724 23.7547 16.1771 23.8644 16.1759C23.8644 16.1759 23.7909 14.7212 23.6124 13.9745C23.4339 13.2278 23.1702 12.7343 22.881 12.4545C22.6733 12.2538 22.02 12.0053 21.5113 13.5428C21.4721 13.8475 21.4932 14.1567 21.5736 14.4532C21.654 14.7496 21.792 15.0273 21.9797 15.2703C22.1676 15.5133 22.4014 15.7169 22.668 15.8695C22.9344 16.0221 23.2273 16.1207 23.5319 16.1596Z" fill="url(#paint18_linear_4532_193236)"/>
<path opacity="0.5" d="M15.4448 21.217C15.4013 21.1152 15.3507 21.0166 15.2932 20.9219C15.2932 20.9219 14.0706 21.7129 13.5129 22.2402C12.9564 22.7687 12.6601 23.2434 12.5621 23.6343C12.4921 23.9143 12.6041 24.6049 14.1896 24.2759C14.7614 24.0368 15.2149 23.5804 15.4502 23.0069C15.6856 22.4335 15.6836 21.7891 15.4448 21.217Z" fill="url(#paint19_linear_4532_193236)"/>
<path opacity="0.6" d="M23.9686 25.6951C23.9019 25.7839 23.8419 25.8774 23.7891 25.9751C23.7891 25.9751 25.0839 26.6378 25.8213 26.8571C26.5562 27.0764 27.1162 27.0939 27.5035 26.9831C27.78 26.9038 28.3237 26.4616 27.2468 25.2519C27.0025 25.0657 26.7238 24.9295 26.4269 24.851C26.1299 24.7726 25.8203 24.7534 25.516 24.7945C25.2116 24.8357 24.9182 24.9364 24.6527 25.091C24.3872 25.2455 24.1548 25.4508 23.9686 25.6951Z" fill="url(#paint20_linear_4532_193236)"/>
<path style="mix-blend-mode:multiply" opacity="0.3" d="M23.4173 19.6094C23.1385 20.5449 22.7302 21.4367 22.2039 22.2588C22.1771 22.2996 22.1514 22.3416 22.1223 22.3836C22.1223 22.3836 22.1223 22.3859 22.1199 22.3871C21.7851 22.8689 21.3884 23.3438 20.9219 23.8034C21.2426 24.144 21.5891 24.4753 21.9694 24.788C22.4478 25.1648 22.9168 25.4693 23.3403 25.7096C24.3157 24.7028 25.1153 23.5395 25.7061 22.2681C25.916 21.8399 26.1027 21.3979 26.2625 20.944C25.8127 20.6073 25.3257 20.3231 24.8113 20.097C24.3581 19.9036 23.8923 19.7406 23.4173 19.6094Z" fill="url(#paint21_linear_4532_193236)"/>
<path style="mix-blend-mode:multiply" opacity="0.3" d="M13.8782 29.3125C16.5334 29.6741 19.0871 28.8319 20.8265 27.7983C20.6125 27.6496 20.4022 27.496 20.1953 27.3374C19.5326 26.8323 18.9253 26.2583 18.3836 25.6249C17.0759 26.1977 15.4286 26.5337 13.9027 26.2211C13.1503 26.0718 12.4448 25.7442 11.8453 25.2658C11.2458 24.7872 10.77 24.1719 10.4577 23.4713C10.3298 23.1797 10.234 22.8749 10.1719 22.5625C10.5455 25.1887 11.8636 27.5884 13.8794 29.3125H13.8782Z" fill="url(#paint22_linear_4532_193236)"/>
<path style="mix-blend-mode:multiply" opacity="0.3" d="M20.9858 23.8663C20.3156 23.1574 19.7478 22.3584 19.2989 21.4923C19.2779 21.4479 19.2546 21.4059 19.2324 21.3604L19.23 21.3558C18.9673 20.7944 18.7572 20.2096 18.6024 19.6094C18.1363 19.7183 17.6777 19.8572 17.2293 20.0247C16.6647 20.2487 16.1677 20.503 15.75 20.7492C16.1324 22.0974 16.7377 23.3722 17.5408 24.5208C17.8057 24.9175 18.0937 25.2978 18.4075 25.6629C18.9675 25.418 19.4692 25.1298 19.8682 24.8288C20.2811 24.5185 20.6509 24.1965 20.9858 23.8663Z" fill="url(#paint23_linear_4532_193236)"/>
<path style="mix-blend-mode:multiply" opacity="0.3" d="M17.3356 10.7229C15.6954 12.8415 15.1471 15.4733 15.1727 17.4963C15.4014 17.389 15.6394 17.2828 15.8902 17.1778C16.6671 16.8523 17.4674 16.6178 18.2759 16.4661C18.4346 15.0476 18.9665 13.4539 20.0002 12.2874C20.5057 11.7106 21.1423 11.2635 21.8564 10.9837C22.5706 10.704 23.3415 10.5997 24.1043 10.6798C24.4355 10.7156 24.7616 10.7892 25.0761 10.8991C22.6073 9.8934 19.8556 9.8274 17.3414 10.7136C17.3393 10.7166 17.3374 10.7197 17.3356 10.7229Z" fill="url(#paint24_linear_4532_193236)"/>
<path style="mix-blend-mode:multiply" opacity="0.3" d="M31.7761 23.0583C30.7612 20.5769 28.7547 18.7862 26.9883 17.7969C26.9662 18.0477 26.9393 18.3067 26.9043 18.5762C26.7983 19.4139 26.6011 20.2234 26.3281 20.9993C27.4783 21.8463 28.5937 23.105 29.0872 24.5842C29.3339 25.3106 29.4028 26.0855 29.2878 26.8439C29.1729 27.6024 28.8776 28.3221 28.4268 28.9427C28.2357 29.2031 28.0168 29.4417 27.7735 29.6543C29.8603 28.0172 31.2838 25.6799 31.7808 23.0746C31.7801 23.069 31.7786 23.0634 31.7761 23.0583Z" fill="url(#paint25_linear_4532_193236)"/>
<path style="mix-blend-mode:multiply" opacity="0.3" d="M18.34 18.1548C18.403 18.667 18.4975 19.1465 18.6152 19.6015C19.565 19.3758 20.5415 19.2836 21.5166 19.3273C21.5667 19.3308 21.6146 19.332 21.6647 19.3366H21.6694C22.2858 19.3886 22.8959 19.4983 23.4916 19.6645C23.627 19.2176 23.7389 18.7533 23.8194 18.268C23.9069 17.6638 23.9361 17.1061 23.9326 16.6184C22.5739 16.2776 21.1677 16.1673 19.7725 16.2918C19.2977 16.3233 18.8217 16.3828 18.3493 16.4703C18.2827 17.0297 18.2795 17.5948 18.34 18.1548Z" fill="url(#paint26_linear_4532_193236)"/>
</g>
<defs>
<linearGradient id="paint0_linear_4532_193236" x1="20.9989" y1="0" x2="20.9989" y2="41.9979" gradientUnits="userSpaceOnUse">
<stop stop-color="#404141"/>
<stop offset="1" stop-color="#222222"/>
</linearGradient>
<linearGradient id="paint1_linear_4532_193236" x1="20.9989" y1="0" x2="20.9989" y2="41.9979" gradientUnits="userSpaceOnUse">
<stop stop-color="white"/>
<stop offset="1" stop-color="#FFDFFE"/>
</linearGradient>
<linearGradient id="paint2_linear_4532_193236" x1="11.4132" y1="30.6086" x2="29.2646" y2="12.7571" gradientUnits="userSpaceOnUse">
<stop offset="0.001" stop-color="#E6007A"/>
<stop offset="0.207" stop-color="#703AC2"/>
<stop offset="0.456" stop-color="#0070EB"/>
<stop offset="0.768" stop-color="#0297FB"/>
<stop offset="1" stop-color="#0AE2FF"/>
</linearGradient>
<radialGradient id="paint3_radial_4532_193236" cx="0" cy="0" r="1" gradientUnits="userSpaceOnUse" gradientTransform="translate(25.0086 18.1993) scale(5.32275)">
<stop stop-color="white"/>
<stop offset="1" stop-color="white" stop-opacity="0"/>
</radialGradient>
<radialGradient id="paint4_radial_4532_193236" cx="0" cy="0" r="1" gradientUnits="userSpaceOnUse" gradientTransform="translate(17.1236 28.0818) scale(3.09682)">
<stop stop-color="white"/>
<stop offset="1" stop-color="white" stop-opacity="0"/>
</radialGradient>
<linearGradient id="paint5_linear_4532_193236" x1="12.43" y1="27.5456" x2="15.4153" y2="27.5036" gradientUnits="userSpaceOnUse">
<stop stop-color="white" stop-opacity="0"/>
<stop offset="1" stop-color="white"/>
</linearGradient>
<radialGradient id="paint6_radial_4532_193236" cx="0" cy="0" r="1" gradientUnits="userSpaceOnUse" gradientTransform="translate(16.5743 19.0052) rotate(-120.001) scale(5.32264)">
<stop stop-color="white"/>
<stop offset="1" stop-color="white" stop-opacity="0"/>
</radialGradient>
<radialGradient id="paint7_radial_4532_193236" cx="0" cy="0" r="1" gradientUnits="userSpaceOnUse" gradientTransform="translate(29.0549 20.8764) rotate(-120.001) scale(3.09675)">
<stop stop-color="white"/>
<stop offset="1" stop-color="white" stop-opacity="0"/>
</radialGradient>
<linearGradient id="paint8_linear_4532_193236" x1="30.8801" y1="25.1548" x2="29.3519" y2="22.5906" gradientUnits="userSpaceOnUse">
<stop stop-color="white" stop-opacity="0"/>
<stop offset="1" stop-color="white"/>
</linearGradient>
<radialGradient id="paint9_radial_4532_193236" cx="0" cy="0" r="1" gradientUnits="userSpaceOnUse" gradientTransform="translate(21.1595 25.643) rotate(120.001) scale(5.32264)">
<stop stop-color="white"/>
<stop offset="1" stop-color="white" stop-opacity="0"/>
</radialGradient>
<radialGradient id="paint10_radial_4532_193236" cx="0" cy="0" r="1" gradientUnits="userSpaceOnUse" gradientTransform="translate(16.8069 14.1191) rotate(120.001) scale(3.09675)">
<stop stop-color="white"/>
<stop offset="1" stop-color="white" stop-opacity="0"/>
</radialGradient>
<linearGradient id="paint11_linear_4532_193236" x1="19.5841" y1="10.3994" x2="18.127" y2="13.0045" gradientUnits="userSpaceOnUse">
<stop stop-color="white" stop-opacity="0"/>
<stop offset="1" stop-color="white"/>
</linearGradient>
<linearGradient id="paint12_linear_4532_193236" x1="20.2623" y1="9.00254" x2="15.7008" y2="10.329" gradientUnits="userSpaceOnUse">
<stop stop-color="#231F20"/>
<stop offset="1" stop-color="white"/>
</linearGradient>
<linearGradient id="paint13_linear_4532_193236" x1="11.6036" y1="26.452" x2="15.4172" y2="30.4324" gradientUnits="userSpaceOnUse">
<stop stop-color="#231F20"/>
<stop offset="1" stop-color="white"/>
</linearGradient>
<linearGradient id="paint14_linear_4532_193236" x1="32.1376" y1="25.8001" x2="33.464" y2="21.7647" gradientUnits="userSpaceOnUse">
<stop stop-color="#231F20"/>
<stop offset="1" stop-color="white"/>
</linearGradient>
<linearGradient id="paint15_linear_4532_193236" x1="22.3513" y1="11.3387" x2="28.4655" y2="12.7386" gradientUnits="userSpaceOnUse">
<stop stop-color="#231F20"/>
<stop offset="1" stop-color="white"/>
</linearGradient>
<linearGradient id="paint16_linear_4532_193236" x1="28.6782" y1="27.0311" x2="24.4084" y2="31.6252" gradientUnits="userSpaceOnUse">
<stop stop-color="#231F20"/>
<stop offset="1" stop-color="white"/>
</linearGradient>
<linearGradient id="paint17_linear_4532_193236" x1="11.9968" y1="24.6849" x2="10.1512" y2="18.6896" gradientUnits="userSpaceOnUse">
<stop stop-color="#231F20"/>
<stop offset="1" stop-color="white"/>
</linearGradient>
<linearGradient id="paint18_linear_4532_193236" x1="23.6625" y1="13.6455" x2="21.7283" y2="15.5809" gradientUnits="userSpaceOnUse">
<stop stop-color="#231F20"/>
<stop offset="1" stop-color="white"/>
</linearGradient>
<linearGradient id="paint19_linear_4532_193236" x1="13.2026" y1="22.3639" x2="15.8462" y2="23.072" gradientUnits="userSpaceOnUse">
<stop stop-color="#231F20"/>
<stop offset="1" stop-color="white"/>
</linearGradient>
<linearGradient id="paint20_linear_4532_193236" x1="26.0814" y1="27.0624" x2="25.3733" y2="24.42" gradientUnits="userSpaceOnUse">
<stop stop-color="#231F20"/>
<stop offset="1" stop-color="white"/>
</linearGradient>
<linearGradient id="paint21_linear_4532_193236" x1="22.0091" y1="24.6596" x2="23.1699" y2="23.0568" gradientUnits="userSpaceOnUse">
<stop stop-color="#231F20"/>
<stop offset="1" stop-color="white"/>
</linearGradient>
<linearGradient id="paint22_linear_4532_193236" x1="18.0511" y1="23.9905" x2="15.7284" y2="25.0964" gradientUnits="userSpaceOnUse">
<stop stop-color="#231F20"/>
<stop offset="1" stop-color="white"/>
</linearGradient>
<linearGradient id="paint23_linear_4532_193236" x1="17.2317" y1="20.1635" x2="17.9502" y2="21.6568" gradientUnits="userSpaceOnUse">
<stop stop-color="#231F20"/>
<stop offset="1" stop-color="white"/>
</linearGradient>
<linearGradient id="paint24_linear_4532_193236" x1="20.5158" y1="15.5421" x2="20.0177" y2="13.8296" gradientUnits="userSpaceOnUse">
<stop stop-color="#231F20"/>
<stop offset="1" stop-color="white"/>
</linearGradient>
<linearGradient id="paint25_linear_4532_193236" x1="25.9396" y1="23.392" x2="27.3768" y2="23.7245" gradientUnits="userSpaceOnUse">
<stop stop-color="#231F20"/>
<stop offset="1" stop-color="white"/>
</linearGradient>
<linearGradient id="paint26_linear_4532_193236" x1="23.6946" y1="18.5375" x2="21.8701" y2="18.2061" gradientUnits="userSpaceOnUse">
<stop stop-color="#231F20"/>
<stop offset="1" stop-color="white"/>
</linearGradient>
<clipPath id="clip0_4532_193236">
<rect width="42" height="42" fill="white"/>
</clipPath>
</defs>
</svg>
