<svg xmlns="http://www.w3.org/2000/svg" width="36" height="36" fill="none"><path fill="#DDD" d="M18 36c9.941 0 18-8.059 18-18S27.941 0 18 0 0 8.059 0 18s8.059 18 18 18Z"/><path fill="url(#a)" d="M18 36c9.941 0 18-8.059 18-18S27.941 0 18 0 0 8.059 0 18s8.059 18 18 18Z" opacity=".5" style="mix-blend-mode:multiply"/><path fill="url(#b)" d="M18 36c9.941 0 18-8.059 18-18S27.941 0 18 0 0 8.059 0 18s8.059 18 18 18Z"/><path fill="url(#c)" d="M29.972 17.186c-.45-6.612-6.174-11.607-12.786-11.158a11.959 11.959 0 0 0-8.204 4.057l-.006-.004-.04.057a11.962 11.962 0 0 0-2.805 9.605l.006.042c.03.201.065.401.105.6l.003.011c.036.18.077.358.12.534 1.386 5.527 6.565 9.442 12.449 9.042 6.612-.45 11.608-6.174 11.158-12.786Zm-2.612.177a9.336 9.336 0 0 1-.14 2.378.106.106 0 0 0-.006-.013c-.87-2.127-2.59-3.662-4.104-4.51.306-3.603-.916-5.121-2.3-5.368a2.005 2.005 0 1 0-.34 3.972c.006.121.01.25.01.385a10.733 10.733 0 0 0-3.564-.28c-.408.027-.816.078-1.222.154.137-1.217.593-2.583 1.479-3.583A4.108 4.108 0 0 1 20.69 9.12c.263.027.544.092.797.177l.035.01c3.218 1.312 5.586 4.364 5.837 8.056Zm-8.364 1.833-.003.004a8.49 8.49 0 0 1-1.026 1.214 8.97 8.97 0 0 1-1.446-2.035c-.019-.038-.039-.074-.057-.113l-.002-.004a8.59 8.59 0 0 1-.539-1.496 8.96 8.96 0 0 1 2.488-.236c.042.003.084.003.126.007h.005c.5.042 1.022.133 1.562.282a8.954 8.954 0 0 1-1.04 2.271c-.022.036-.043.07-.068.106Zm-4.1-10.047a.078.078 0 0 1-.007.008c-1.406 1.816-1.876 4.073-1.854 5.807-3.273 1.536-3.977 3.354-3.499 4.675a2.004 2.004 0 1 0 3.61-1.693c.104-.066.215-.135.332-.204a10.766 10.766 0 0 0 1.535 3.233c.227.338.475.666.743.978-1.122.491-2.533.78-3.841.511a4.108 4.108 0 0 1-2.953-2.357 3.774 3.774 0 0 1-.245-.779 9.237 9.237 0 0 1-.076-.692c-.293-4.297 2.374-8.124 6.255-9.487Zm3.74 18.211a9.35 9.35 0 0 1-6.741-2.245c2.274.31 4.464-.412 5.955-1.298 2.968 2.068 4.895 1.769 5.8.694a2.004 2.004 0 1 0-3.116-2.519 1.923 1.923 0 0 0-.153.24 8.05 8.05 0 0 1-.341-.185 10.746 10.746 0 0 0 2.028-2.95c.18-.366.34-.745.476-1.135.987.727 1.943 1.805 2.366 3.073a4.108 4.108 0 0 1-.566 3.736 3.778 3.778 0 0 1-.56.61 9.325 9.325 0 0 1-5.147 1.98Z"/><path fill="url(#d)" d="M20.808 9.851a1.943 1.943 0 0 0-.683-.009c1.148.625 1.985 2.365 1.544 5.797a10.214 10.214 0 0 1-.972 3.21 10.668 10.668 0 0 1-1.657 2.544c.347.26.686.479.996.655a10.745 10.745 0 0 0 2.028-2.95c.488-.992.826-2.073.973-3.21.523-4.087-.763-5.775-2.229-6.037Z" opacity=".9"/><path fill="#fff" d="M21.673 15.638c.44-3.432-.397-5.172-1.545-5.796a1.99 1.99 0 0 0-.132.026c1.124.646 1.932 2.385 1.498 5.77a10.21 10.21 0 0 1-.972 3.211c-.383.826-.9 1.658-1.587 2.46l.11.083A10.712 10.712 0 0 0 20.7 18.85c.488-.992.827-2.074.972-3.21Z" opacity=".8"/><path fill="url(#e)" d="M17.306 23.424c-.108-.082-.211-.168-.315-.254-1.695.707-4.042 1.15-6.374.609.381.486.808.936 1.276 1.337 2.275.31 4.464-.412 5.955-1.298a14.056 14.056 0 0 1-.542-.394Z" opacity=".5"/><path fill="url(#f)" d="M16.991 23.17a6.227 6.227 0 0 1-.155-.129c-1.707.682-4.066 1.09-6.393.51.057.077.115.154.174.229 2.331.54 4.68.098 6.374-.61Z" opacity=".6"/><path fill="url(#g)" d="M9.535 19.646a2.019 2.019 0 0 0 .334.596c-.033-1.306 1.056-2.9 4.248-4.236a10.223 10.223 0 0 1 3.267-.764 10.685 10.685 0 0 1 3.032.163 9.52 9.52 0 0 0 .069-1.19 10.748 10.748 0 0 0-3.568-.282c-1.103.074-2.21.322-3.267.764-3.803 1.59-4.621 3.548-4.115 4.949Z" opacity=".9"/><path fill="#fff" d="M14.117 16.005c-3.192 1.335-4.281 2.93-4.248 4.237.03.035.059.068.09.101-.002-1.296 1.1-2.866 4.248-4.183a10.226 10.226 0 0 1 3.267-.763 10.69 10.69 0 0 1 2.925.143c.005-.045.01-.09.017-.135a10.684 10.684 0 0 0-3.032-.163c-1.103.073-2.21.321-3.267.763Z" opacity=".8"/><path fill="url(#h)" d="M23.042 15.894a8.55 8.55 0 0 1-.063.4c1.46 1.115 3.018 2.927 3.715 5.217.23-.574.407-1.168.52-1.774-.87-2.125-2.588-3.66-4.102-4.508-.018.214-.04.436-.07.665Z" opacity=".4"/><path fill="url(#i)" d="M22.978 16.291a8.405 8.405 0 0 1-.035.199c1.445 1.137 2.977 2.976 3.638 5.281.04-.088.076-.176.112-.264-.697-2.29-2.255-4.102-3.715-5.216Z" opacity=".5"/><path fill="url(#j)" d="M23.643 24.514c.025-.029.05-.058.073-.09.118-.155.21-.324.276-.497-1.114.682-3.04.537-5.793-1.56a10.234 10.234 0 0 1-2.295-2.448 10.673 10.673 0 0 1-1.374-2.706c-.399.17-.757.355-1.064.535a10.74 10.74 0 0 0 1.54 3.231 10.223 10.223 0 0 0 2.295 2.447c3.277 2.497 5.383 2.227 6.342 1.088Z" opacity=".9"/><path fill="#fff" d="M18.202 22.37c2.753 2.097 4.678 2.242 5.793 1.56a1.93 1.93 0 0 0 .043-.128c-1.121.65-3.032.481-5.746-1.588a10.24 10.24 0 0 1-2.295-2.447 10.683 10.683 0 0 1-1.338-2.605l-.126.053c.355 1.04.833 1.938 1.374 2.707.616.92 1.384 1.753 2.295 2.448Z" opacity=".8"/><path fill="url(#k)" d="M13.642 14.695c.126-.052.252-.099.379-.146.235-1.82 1.025-4.075 2.66-5.824a9.438 9.438 0 0 0-1.797.436c-1.406 1.816-1.876 4.072-1.854 5.806.196-.091.398-.182.612-.272Z" opacity=".3"/><path fill="url(#l)" d="M14.02 14.549c.064-.024.127-.048.19-.07.263-1.819 1.09-4.066 2.755-5.791a9.03 9.03 0 0 0-.284.035c-1.635 1.75-2.426 4.005-2.66 5.826Z" opacity=".4"/><path fill="url(#m)" d="M17.187 6.028a11.959 11.959 0 0 0-8.204 4.057l-.045.052c.393.39 1.677 1.158 2.197 1.479a9.382 9.382 0 0 1 3.762-2.468c.102-.13.207-.26.32-.386 1.355-1.53 3.206-2.338 5.352-2.338.24 0 .726.038.737.038a11.977 11.977 0 0 0-4.119-.434Z" opacity=".4" style="mix-blend-mode:multiply"/><path fill="url(#n)" d="M18.638 27.36a9.351 9.351 0 0 1-6.743-2.245 8.045 8.045 0 0 1-.504-.084c-2.002-.41-3.628-1.608-4.701-3.468a7.04 7.04 0 0 1-.323-.631c1.386 5.526 6.564 9.44 12.449 9.04.026-.606-.153-2.012-.178-2.612Z" opacity=".4" style="mix-blend-mode:multiply"/><path fill="url(#o)" d="M29.97 17.184c-.368-.038-2.169.105-2.612.178a9.335 9.335 0 0 1-.14 2.378c.062.153.12.307.174.466.646 1.938.421 3.946-.652 5.805a7.132 7.132 0 0 1-.378.585.027.027 0 0 1-.008.01l.01-.007a11.973 11.973 0 0 0 3.606-9.415Z" opacity=".4" style="mix-blend-mode:multiply"/><path fill="url(#p)" d="M20.693 9.123a3.749 3.749 0 0 1 .833.188 9.438 9.438 0 0 1 2.8 1.77l.005.004c.393-.45 1.151-.944 1.151-.944s-1.161-1.188-2.936-1.556c-1.243-.258-4.047-.508-5.816 2.501l.017-.016c.131-.198.27-.39.428-.568a4.107 4.107 0 0 1 3.518-1.379Z" opacity=".5" style="mix-blend-mode:multiply"/><path fill="url(#q)" d="M24.348 24.772a3.788 3.788 0 0 1-.579.628 9.438 9.438 0 0 1-2.933 1.538l-.006.003c.193.565.243 1.47.243 1.47s1.609-.412 2.815-1.766c.845-.947 2.464-3.25.742-6.286l.005.023c.106.212.203.429.278.654a4.109 4.109 0 0 1-.566 3.736Z" opacity=".5" style="mix-blend-mode:multiply"/><path fill="url(#r)" d="M8.968 20.114a3.773 3.773 0 0 1-.246-.778l-.008-.037a9.443 9.443 0 0 1 .134-3.308v-.007c-.586-.116-1.394-.525-1.394-.525s-.448 1.6.121 3.321c.398 1.206 1.583 3.76 5.073 3.786l-.023-.007a5.026 5.026 0 0 1-.705-.086 4.114 4.114 0 0 1-2.952-2.359Z" opacity=".5" style="mix-blend-mode:multiply"/><path fill="url(#s)" d="M20.19 13.814c.096.011.191.015.285.014 0 0-.063-1.247-.216-1.887-.153-.64-.379-1.063-.627-1.303-.178-.172-.738-.385-1.174.933a2.003 2.003 0 0 0 1.733 2.243Z" opacity=".6"/><path fill="url(#t)" d="M13.277 18.21a2.003 2.003 0 0 0-.13-.253s-1.048.678-1.526 1.13c-.477.453-.731.86-.815 1.195-.06.24.036.832 1.395.55a2.004 2.004 0 0 0 1.076-2.621Z" opacity=".5"/><path fill="url(#u)" d="M20.535 21.993a1.923 1.923 0 0 0-.154.24s1.11.568 1.742.756c.63.188 1.11.203 1.442.108.237-.068.703-.447-.22-1.484a2.005 2.005 0 0 0-2.81.38Z" opacity=".6"/><path fill="url(#v)" d="M20.103 16.826a8.954 8.954 0 0 1-1.04 2.271c-.023.035-.045.071-.07.107 0 .001 0 .002-.002.003-.287.413-.627.82-1.027 1.214.275.292.572.576.898.844.41.323.812.584 1.175.79a10.748 10.748 0 0 0 2.028-2.95c.18-.367.34-.746.477-1.135a6.321 6.321 0 0 0-1.244-.726 9.458 9.458 0 0 0-1.195-.418Z" opacity=".3" style="mix-blend-mode:multiply"/><path fill="url(#w)" d="M11.896 25.118c2.276.31 4.465-.412 5.956-1.298a14.355 14.355 0 0 1-.541-.395 10.099 10.099 0 0 1-1.553-1.468c-1.121.491-2.533.779-3.841.511a4.108 4.108 0 0 1-2.953-2.357 3.773 3.773 0 0 1-.245-.779 9.346 9.346 0 0 0 3.178 5.786Z" opacity=".3" style="mix-blend-mode:multiply"/><path fill="url(#x)" d="M17.967 20.422a8.972 8.972 0 0 1-1.446-2.035c-.018-.038-.038-.074-.057-.113l-.002-.004a8.592 8.592 0 0 1-.538-1.497 9.62 9.62 0 0 0-1.177.356c-.484.192-.91.41-1.268.621a10.771 10.771 0 0 0 1.535 3.233c.227.34.474.666.743.979.48-.21.91-.457 1.252-.715.354-.266.671-.542.958-.825Z" opacity=".3" style="mix-blend-mode:multiply"/><path fill="url(#y)" d="M14.89 9.162c-1.406 1.816-1.876 4.072-1.854 5.806.196-.092.4-.183.615-.273.666-.279 1.352-.48 2.045-.61.136-1.216.592-2.582 1.478-3.582a4.108 4.108 0 0 1 3.518-1.378 3.75 3.75 0 0 1 .833.188 9.342 9.342 0 0 0-6.63-.159.08.08 0 0 0-.005.008Z" opacity=".3" style="mix-blend-mode:multiply"/><path fill="url(#z)" d="M27.214 19.737c-.87-2.127-2.59-3.662-4.104-4.51-.019.215-.042.437-.072.668-.091.718-.26 1.412-.494 2.077.986.726 1.942 1.805 2.365 3.073a4.108 4.108 0 0 1-.566 3.736 3.779 3.779 0 0 1-.56.61 9.41 9.41 0 0 0 3.435-5.64.047.047 0 0 0-.004-.014Z" opacity=".3" style="mix-blend-mode:multiply"/><path fill="url(#A)" d="M15.69 15.529c.054.439.135.85.236 1.24a9.01 9.01 0 0 1 2.487-.235c.043.003.084.004.127.008h.004a8.46 8.46 0 0 1 1.562.281c.116-.383.212-.781.281-1.197.075-.518.1-.996.097-1.414a10.734 10.734 0 0 0-3.566-.28c-.407.027-.815.078-1.22.153a6.405 6.405 0 0 0-.008 1.444Z" opacity=".3" style="mix-blend-mode:multiply"/><defs><linearGradient id="a" x1="18" x2="18" y1="15.429" y2="36" gradientUnits="userSpaceOnUse"><stop stop-color="#030303" stop-opacity="0"/><stop offset=".491" stop-color="#030303" stop-opacity=".3"/><stop offset="1" stop-color="#030303"/></linearGradient><linearGradient id="b" x1="18" x2="18" y1="0" y2="36" gradientUnits="userSpaceOnUse"><stop stop-color="#fff"/><stop offset="1" stop-color="#FFDFFE"/></linearGradient><linearGradient id="c" x1="9.811" x2="25.113" y1="26.19" y2="10.888" gradientUnits="userSpaceOnUse"><stop offset=".001" stop-color="#E6007A"/><stop offset=".207" stop-color="#703AC2"/><stop offset=".456" stop-color="#0070EB"/><stop offset=".768" stop-color="#0297FB"/><stop offset="1" stop-color="#0AE2FF"/></linearGradient><linearGradient id="f" x1="10.691" x2="13.25" y1="23.589" y2="23.553" gradientUnits="userSpaceOnUse"><stop stop-color="#fff" stop-opacity="0"/><stop offset="1" stop-color="#fff"/></linearGradient><linearGradient id="i" x1="26.49" x2="25.18" y1="21.54" y2="19.342" gradientUnits="userSpaceOnUse"><stop stop-color="#fff" stop-opacity="0"/><stop offset="1" stop-color="#fff"/></linearGradient><linearGradient id="l" x1="16.811" x2="15.562" y1="8.883" y2="11.116" gradientUnits="userSpaceOnUse"><stop stop-color="#fff" stop-opacity="0"/><stop offset="1" stop-color="#fff"/></linearGradient><linearGradient id="m" x1="17.373" x2="13.463" y1="7.743" y2="8.88" gradientUnits="userSpaceOnUse"><stop stop-color="#231F20"/><stop offset="1" stop-color="#fff"/></linearGradient><linearGradient id="n" x1="9.985" x2="13.254" y1="22.652" y2="26.064" gradientUnits="userSpaceOnUse"><stop stop-color="#231F20"/><stop offset="1" stop-color="#fff"/></linearGradient><linearGradient id="o" x1="27.53" x2="28.667" y1="22.136" y2="18.677" gradientUnits="userSpaceOnUse"><stop stop-color="#231F20"/><stop offset="1" stop-color="#fff"/></linearGradient><linearGradient id="p" x1="19.154" x2="24.395" y1="9.723" y2="10.923" gradientUnits="userSpaceOnUse"><stop stop-color="#231F20"/><stop offset="1" stop-color="#fff"/></linearGradient><linearGradient id="q" x1="24.599" x2="20.939" y1="23.138" y2="27.076" gradientUnits="userSpaceOnUse"><stop stop-color="#231F20"/><stop offset="1" stop-color="#fff"/></linearGradient><linearGradient id="r" x1="10.257" x2="8.675" y1="21.149" y2="16.01" gradientUnits="userSpaceOnUse"><stop stop-color="#231F20"/><stop offset="1" stop-color="#fff"/></linearGradient><linearGradient id="s" x1="20.302" x2="18.644" y1="11.659" y2="13.318" gradientUnits="userSpaceOnUse"><stop stop-color="#231F20"/><stop offset="1" stop-color="#fff"/></linearGradient><linearGradient id="t" x1="11.355" x2="13.621" y1="19.193" y2="19.8" gradientUnits="userSpaceOnUse"><stop stop-color="#231F20"/><stop offset="1" stop-color="#fff"/></linearGradient><linearGradient id="u" x1="22.346" x2="21.739" y1="23.165" y2="20.9" gradientUnits="userSpaceOnUse"><stop stop-color="#231F20"/><stop offset="1" stop-color="#fff"/></linearGradient><linearGradient id="v" x1="18.896" x2="19.891" y1="21.155" y2="19.781" gradientUnits="userSpaceOnUse"><stop stop-color="#231F20"/><stop offset="1" stop-color="#fff"/></linearGradient><linearGradient id="w" x1="15.473" x2="13.482" y1="20.556" y2="21.504" gradientUnits="userSpaceOnUse"><stop stop-color="#231F20"/><stop offset="1" stop-color="#fff"/></linearGradient><linearGradient id="x" x1="14.749" x2="15.365" y1="17.248" y2="18.528" gradientUnits="userSpaceOnUse"><stop stop-color="#231F20"/><stop offset="1" stop-color="#fff"/></linearGradient><linearGradient id="y" x1="17.616" x2="17.189" y1="13.293" y2="11.825" gradientUnits="userSpaceOnUse"><stop stop-color="#231F20"/><stop offset="1" stop-color="#fff"/></linearGradient><linearGradient id="z" x1="22.211" x2="23.443" y1="20.023" y2="20.308" gradientUnits="userSpaceOnUse"><stop stop-color="#231F20"/><stop offset="1" stop-color="#fff"/></linearGradient><linearGradient id="A" x1="20.28" x2="18.716" y1="15.857" y2="15.573" gradientUnits="userSpaceOnUse"><stop stop-color="#231F20"/><stop offset="1" stop-color="#fff"/></linearGradient><radialGradient id="d" cx="0" cy="0" r="1" gradientTransform="translate(21.418 15.572) scale(4.56259)" gradientUnits="userSpaceOnUse"><stop stop-color="#fff"/><stop offset="1" stop-color="#fff" stop-opacity="0"/></radialGradient><radialGradient id="e" cx="0" cy="0" r="1" gradientTransform="translate(14.674 24.037) scale(2.65455)" gradientUnits="userSpaceOnUse"><stop stop-color="#fff"/><stop offset="1" stop-color="#fff" stop-opacity="0"/></radialGradient><radialGradient id="g" cx="0" cy="0" r="1" gradientTransform="rotate(-120.001 11.786 4.035) scale(4.56249)" gradientUnits="userSpaceOnUse"><stop stop-color="#fff"/><stop offset="1" stop-color="#fff" stop-opacity="0"/></radialGradient><radialGradient id="h" cx="0" cy="0" r="1" gradientTransform="rotate(-120.001 17.602 1.75) scale(2.65449)" gradientUnits="userSpaceOnUse"><stop stop-color="#fff"/><stop offset="1" stop-color="#fff" stop-opacity="0"/></radialGradient><radialGradient id="j" cx="0" cy="0" r="1" gradientTransform="rotate(120.001 2.743 16.23) scale(4.56249)" gradientUnits="userSpaceOnUse"><stop stop-color="#fff"/><stop offset="1" stop-color="#fff" stop-opacity="0"/></radialGradient><radialGradient id="k" cx="0" cy="0" r="1" gradientTransform="rotate(120.001 3.72 10.22) scale(2.65449)" gradientUnits="userSpaceOnUse"><stop stop-color="#fff"/><stop offset="1" stop-color="#fff" stop-opacity="0"/></radialGradient></defs></svg>