<svg width="42" height="42" viewBox="0 0 42 42" fill="none" xmlns="http://www.w3.org/2000/svg">
<rect width="42" height="42" rx="21" fill="#1F2925"/>
<mask id="mask0_8174_46013" style="mask-type:luminance" maskUnits="userSpaceOnUse" x="9" y="10" width="24" height="20">
<path d="M32.8125 10.979H9.1875V29.521H32.8125V10.979Z" fill="white"/>
</mask>
<g mask="url(#mask0_8174_46013)">
<path d="M23.4933 10.979H18.5063C17.9319 10.979 17.4085 11.3067 17.1592 11.822L14.6097 17.0935C14.2908 17.7527 14.773 18.5175 15.5081 18.5175H18.9487C19.4272 18.5175 19.8633 18.2443 20.0714 17.8148L20.9998 15.8954L25.7562 25.7283L19.3301 21.0949C19.0745 20.9111 18.7681 20.8118 18.4527 20.8118H13.7487C13.1742 20.8118 12.6509 21.1395 12.4016 21.6547L9.28759 28.097C8.96859 28.7562 9.45083 29.521 10.1861 29.521H13.6265C14.105 29.521 14.5411 29.2479 14.7493 28.8184L17.2776 23.5915L24.2434 28.8717C24.7991 29.2926 25.477 29.521 26.1749 29.521H31.8147C32.55 29.521 33.0322 28.7562 32.7133 28.097L24.8403 11.822C24.5911 11.3067 24.0677 10.979 23.4933 10.979Z" fill="#D7FE51"/>
</g>
</svg>
