<svg xmlns="http://www.w3.org/2000/svg" width="42" height="42" fill="none"><path fill="#5064FB" d="M42 21c0 11.598-9.402 21-21 21S0 32.598 0 21 9.402 0 21 0s21 9.402 21 21Z"/><g clip-path="url(#a)"><path fill="url(#b)" fill-rule="evenodd" d="M22.551 31.55c.512-2.232.867-5.356.953-8.89l.784.02c-.087 3.567-.446 6.747-.973 9.046-.263 1.146-.572 2.094-.92 2.764-.175.335-.37.62-.588.826-.221.207-.493.357-.807.357-.362 0-.664-.196-.903-.454-.24-.258-.452-.617-.644-1.043-.384-.854-.718-2.062-.99-3.516l.771-.144c.266 1.428.587 2.567.934 3.339.174.387.346.66.504.831.16.172.268.203.327.203.052 0 .141-.023.27-.145.131-.123.277-.324.43-.617.304-.584.595-1.458.852-2.577Z" clip-rule="evenodd"/><path fill="url(#c)" fill-rule="evenodd" d="M19.694 9.487c-.469 1.64-.841 3.977-1.046 6.72l-.781-.058c.206-2.773.584-5.167 1.074-6.878.244-.852.521-1.558.832-2.058.296-.477.698-.888 1.227-.888.315 0 .587.15.807.357.22.206.414.491.588.826.35.67.658 1.618.92 2.764.528 2.299.887 5.48.974 9.046l-.784.02c-.086-3.534-.442-6.659-.953-8.89-.257-1.12-.548-1.994-.852-2.578-.153-.293-.299-.494-.43-.617-.129-.121-.218-.144-.27-.144-.09 0-.29.081-.56.517-.256.412-.51 1.038-.745 1.86Z" clip-rule="evenodd"/><path fill="url(#d)" fill-rule="evenodd" d="M18.648 16.206a64.879 64.879 0 0 0-.173 4.791c0 3.673.292 7.012.76 9.517l-.771.145c-.479-2.564-.773-5.953-.773-9.662 0-1.7.062-3.333.175-4.85l.782.06Z" clip-rule="evenodd"/><path fill="url(#e)" fill-rule="evenodd" d="M18.282 22.33c-2.543-1.553-4.74-3.127-6.372-4.518l-.509.596c1.67 1.424 3.903 3.022 6.473 4.59l.408-.668Z" clip-rule="evenodd"/><path fill="url(#f)" fill-rule="evenodd" d="M29.346 27.617c-2.189-.673-5.073-1.927-8.175-3.619l-.376.688c3.133 1.709 6.067 2.988 8.32 3.68 1.124.346 2.1.552 2.855.585.377.017.721-.009 1.01-.096.29-.087.554-.247.712-.52.266-.46.108-1.017-.159-1.514-.28-.522-.757-1.118-1.379-1.76-1.248-1.286-3.147-2.82-5.462-4.392l-.44.648c2.29 1.557 4.143 3.056 5.34 4.29.6.62 1.02 1.156 1.25 1.585.246.456.217.67.171.75-.026.046-.09.11-.26.162-.172.052-.419.078-.749.064-.658-.03-1.56-.214-2.657-.551h-.001Z" clip-rule="evenodd"/><path fill="url(#g)" fill-rule="evenodd" d="M22.246 18.81a64.972 64.972 0 0 1 4.005 2.505l.441-.648a65.904 65.904 0 0 0-4.054-2.537c-3.432-1.981-6.716-3.49-9.251-4.332-1.265-.42-2.363-.68-3.21-.745-.421-.032-.803-.017-1.12.066-.318.083-.612.246-.781.54-.182.315-.162.678-.057 1.016.107.34.315.707.592 1.089.557.767 1.45 1.67 2.59 2.642l.508-.597c-1.12-.955-1.96-1.811-2.463-2.506-.253-.348-.408-.637-.479-.863-.07-.227-.042-.338-.013-.39.028-.047.101-.12.3-.172.2-.052.487-.071.864-.043.754.057 1.782.296 3.021.707 2.473.822 5.707 2.305 9.107 4.267Z" clip-rule="evenodd"/><path fill="url(#h)" fill-rule="evenodd" d="M21.276 17.958c2.634-1.432 5.108-2.547 7.13-3.258l-.26-.74c-2.07.728-4.583 1.863-7.244 3.31l.374.688Z" clip-rule="evenodd"/><path fill="url(#i)" fill-rule="evenodd" d="M11.085 24.949c1.665-1.551 4.176-3.413 7.175-5.248l-.409-.668c-3.028 1.852-5.586 3.745-7.3 5.342-.856.797-1.517 1.535-1.92 2.17-.202.317-.35.626-.418.918-.069.294-.062.603.095.874.265.46.825.602 1.387.62.592.017 1.345-.096 2.208-.313 1.734-.435 4.007-1.31 6.52-2.525l-.34-.706c-2.488 1.202-4.707 2.053-6.37 2.47-.835.21-1.507.305-1.993.29-.516-.016-.687-.148-.733-.227-.026-.045-.05-.133-.01-.305.04-.173.14-.399.316-.676.35-.553.957-1.238 1.792-2.016Z" clip-rule="evenodd"/><path fill="url(#j)" fill-rule="evenodd" d="M22.278 23.182a64.731 64.731 0 0 1-4.195 2.227l.34.706a65.613 65.613 0 0 0 4.247-2.254c3.432-1.981 6.38-4.071 8.378-5.846.996-.885 1.771-1.706 2.25-2.406.238-.35.416-.688.503-1.004.087-.316.093-.652-.077-.946-.18-.312-.5-.476-.84-.554-.342-.079-.757-.084-1.219-.038-.925.092-2.131.403-3.518.89l.26.74c1.362-.478 2.5-.766 3.337-.85.42-.042.74-.03.965.022.227.052.307.13.336.182.028.048.055.147 0 .346-.055.2-.181.457-.395.77-.426.624-1.147 1.395-2.123 2.262-1.947 1.731-4.85 3.79-8.248 5.753Z" clip-rule="evenodd"/><path fill="#fff" d="M18.974 31.576a1.024 1.024 0 1 0 0-2.048 1.024 1.024 0 0 0 0 2.049ZM11.696 19a1.024 1.024 0 1 0 0-2.048 1.024 1.024 0 0 0 0 2.049ZM28.277 15.492a1.024 1.024 0 1 0 0-2.049 1.024 1.024 0 0 0 0 2.049Z"/><path fill="#fff" fill-rule="evenodd" d="M21 19.215a1.783 1.783 0 1 1 0 3.566 1.783 1.783 0 0 1 0-3.566Z" clip-rule="evenodd"/></g><defs><linearGradient id="b" x1="19.726" x2="23.513" y1="35.183" y2="22.43" gradientUnits="userSpaceOnUse"><stop offset=".38" stop-color="#fff" stop-opacity=".6"/><stop offset=".99" stop-color="#fff" stop-opacity="0"/></linearGradient><linearGradient id="c" x1="18.392" x2="23.278" y1="7.386" y2="19.741" gradientUnits="userSpaceOnUse"><stop offset=".63" stop-color="#fff" stop-opacity=".81"/><stop offset="1" stop-color="#fff" stop-opacity="0"/></linearGradient><linearGradient id="d" x1="18.463" x2="18.463" y1="16.148" y2="30.675" gradientUnits="userSpaceOnUse"><stop stop-color="#fff" stop-opacity=".81"/><stop offset=".65" stop-color="#fff"/></linearGradient><linearGradient id="e" x1="11.605" x2="18.012" y1="18.172" y2="22.692" gradientUnits="userSpaceOnUse"><stop stop-color="#fff" stop-opacity=".6"/><stop offset="1" stop-color="#fff" stop-opacity="0"/></linearGradient><linearGradient id="f" x1="34.859" x2="20.654" y1="25.754" y2="23.39" gradientUnits="userSpaceOnUse"><stop offset=".61" stop-color="#fff" stop-opacity=".81"/><stop offset="1" stop-color="#fff" stop-opacity="0"/></linearGradient><linearGradient id="g" x1="26.077" x2="7.637" y1="21.166" y2="14.329" gradientUnits="userSpaceOnUse"><stop stop-color="#fff" stop-opacity=".81"/><stop offset=".48" stop-color="#fff"/></linearGradient><linearGradient id="h" x1="28.304" x2="20.622" y1="14.219" y2="17.789" gradientUnits="userSpaceOnUse"><stop stop-color="#fff" stop-opacity=".6"/><stop offset="1" stop-color="#fff" stop-opacity="0"/></linearGradient><linearGradient id="i" x1="9.742" x2="19.358" y1="30.172" y2="20.143" gradientUnits="userSpaceOnUse"><stop offset=".55" stop-color="#fff" stop-opacity=".81"/><stop offset="1" stop-color="#fff" stop-opacity="0"/></linearGradient><linearGradient id="j" x1="33.598" x2="18.07" y1="12.669" y2="25.584" gradientUnits="userSpaceOnUse"><stop offset=".52" stop-color="#fff"/><stop offset="1" stop-color="#fff" stop-opacity=".81"/></linearGradient><clipPath id="a"><path fill="#fff" d="M8.14 6.325h25.72v29.348H8.14z"/></clipPath></defs></svg>