<svg xmlns="http://www.w3.org/2000/svg" width="42" height="42" fill="none"><mask id="a" width="42" height="42" x="0" y="0" maskUnits="userSpaceOnUse" style="mask-type:alpha"><circle cx="21" cy="21" r="21" fill="#D9D9D9"/></mask><g mask="url(#a)"><path fill="#00008B" d="M67 0h-84v42h84V0Z"/><g clip-path="url(#b)"><path fill="#000" d="m-17 0 42 21-42-21Zm42 0-42 21L25 0Z"/><path stroke="#fff" stroke-width="4.2" d="m-17 0 42 21m0-21-42 21"/><path fill="#000" d="m-17 0 42 21-42-21Zm42 0-42 21L25 0Z"/><path stroke="red" stroke-width="2.8" d="m-17 0 42 21m0-21-42 21"/><path fill="#000" d="M4 0v21V0Zm-21 10.5h42-42Z"/><path stroke="#fff" stroke-width="7" d="M4 0v21m-21-10.5h42"/><path fill="#000" d="M4 0v21V0Zm-21 10.5h42-42Z"/><path stroke="red" stroke-width="4.2" d="M4 0v21m-21-10.5h42"/></g><path fill="#fff" d="m4 25.2 1.214 3.777 3.711-1.406-2.196 3.305 3.413 2.025-3.953.344.544 3.93L3.999 34.3l-2.733 2.876.544-3.93-3.953-.344 3.413-2.025-2.196-3.305 3.71 1.405L4 25.2ZM35.497 15.376l.579 1.799 1.767-.67-1.046 1.574 1.625.965-1.883.163.26 1.872-1.302-1.37-1.302 1.37.26-1.872-1.883-.163 1.625-.965-1.045-1.573 1.767.669.578-1.799Z"/></g><defs><clipPath id="b"><path fill="#fff" d="M-10.504 0h35.372v21h-35.372z"/></clipPath></defs></svg>