<svg width="42" height="42" viewBox="0 0 42 42" fill="none" xmlns="http://www.w3.org/2000/svg">
<rect width="42" height="42" rx="21" fill="#9A9350"/>
<path d="M20.3989 16.9025V6.8999H17.7507C17.3652 6.8999 17.0206 7.1375 16.8837 7.49625L14.9184 12.6274L19.6074 17.2345C19.9017 17.5241 20.3989 17.3148 20.3989 16.9025Z" fill="white"/>
<path d="M20.3988 26.1389V20.52L20.4004 20.5184C20.4004 20.0274 20.2021 19.5554 19.8513 19.2108L14.5502 14.0026L12.4181 19.5664L19.6845 26.4472C19.9535 26.7022 20.3988 26.5102 20.3988 26.1389Z" fill="white"/>
<path d="M20.3988 29.5808V32.0999H9.1311C8.47968 32.0999 8.03124 31.4469 8.26411 30.8396L12.0483 20.9691L19.8827 28.3865C20.2116 28.6981 20.3972 29.1292 20.3972 29.5823L20.3988 29.5808Z" fill="white"/>
<path d="M21.6011 16.9025V6.8999H24.2493C24.6348 6.8999 24.9794 7.1375 25.1163 7.49625L27.0815 12.6274L22.3925 17.2345C22.0983 17.5241 21.6011 17.3148 21.6011 16.9025Z" fill="white"/>
<path d="M21.6012 20.5199V26.1388C21.6012 26.5102 22.0465 26.7021 22.3155 26.4472L29.5819 19.5664L27.4498 14.0026L22.1488 19.2108C21.7979 19.5554 21.5996 20.0274 21.5996 20.5184L21.6012 20.5199Z" fill="white"/>
<path d="M21.6012 32.0999V29.5808L21.6028 29.5823C21.6028 29.1292 21.7885 28.6981 22.1174 28.3865L29.9517 20.9691L33.7359 30.8396C33.9688 31.4469 33.5203 32.0999 32.869 32.0999H21.6012Z" fill="white"/>
</svg>
