<svg xmlns="http://www.w3.org/2000/svg" width="42" height="42" fill="none"><circle cx="21" cy="21" r="18.667" fill="#F3F3F3"/><path fill="#D54F49" fill-rule="evenodd" d="M42 21c0 11.598-9.402 21-21 21S0 32.598 0 21 9.402 0 21 0s21 9.402 21 21Zm-26.95 8.357h-4.076c-.857 0-1.28 0-1.538-.165a1.036 1.036 0 0 1-.47-.81c-.015-.304.197-.676.62-1.419L19.649 9.226c.428-.753.645-1.13.918-1.27.294-.149.645-.149.94 0 .272.14.49.517.917 1.27l2.07 3.611.01.018c.462.809.697 1.218.799 1.648.113.47.113.965 0 1.435-.103.433-.335.846-.805 1.666l-5.286 9.344-.013.024c-.466.814-.702 1.227-1.029 1.539-.356.34-.784.588-1.253.727-.429.119-.908.119-1.868.119Zm10.291 0h5.84c.861 0 1.295 0 1.553-.17.279-.18.454-.485.47-.815.014-.295-.193-.652-.598-1.351l-.042-.073-2.925-5.004-.034-.057c-.41-.695-.618-1.046-.885-1.181-.294-.15-.64-.15-.933 0-.269.139-.485.505-.914 1.243l-2.914 5.004-.01.017c-.427.737-.64 1.105-.625 1.407.02.33.191.634.47.815.252.165.686.165 1.547.165Z" clip-rule="evenodd"/></svg>