<svg width="42" height="42" viewBox="0 0 42 42" fill="none" xmlns="http://www.w3.org/2000/svg">
<rect width="42" height="42" rx="21" fill="white"/>
<path d="M22.4569 19.0311L30.1113 11.4189L27.2074 8.53125L21.005 14.6994L14.8027 8.53125L11.8989 11.4189L19.5532 19.0311C19.9542 19.4297 20.4796 19.6291 21.005 19.6291C21.5305 19.6291 22.0559 19.4299 22.4569 19.0311ZM33.5375 27.163L27.3352 20.9949L33.5375 14.8265L30.6338 11.9389L22.9796 19.551C22.1779 20.3485 22.1779 21.6413 22.9796 22.4387L30.6338 30.0509L33.5375 27.163ZM20.9944 27.3006L27.1967 33.4688L30.1004 30.5811L22.4462 22.9689C21.6442 22.1715 20.3445 22.1715 19.5424 22.9689L11.8883 30.5811L14.7921 33.4688L20.9944 27.3006ZM19.0198 22.4492C19.405 22.0661 19.6212 21.5469 19.6212 21.0053C19.6212 20.4638 19.405 19.9443 19.0198 19.5615L11.3657 11.9493L8.46191 14.8372L14.6642 21.0053L8.46191 27.1736L11.3657 30.0613L19.0198 22.4492Z" fill="black"/>
</svg>
