<svg width="42" height="42" viewBox="0 0 42 42" fill="none" xmlns="http://www.w3.org/2000/svg">
<circle cx="21" cy="21" r="21" fill="#0055D5"/>
<path fill-rule="evenodd" clip-rule="evenodd" d="M10.6058 13.0624C10.6058 13.0624 8.23108 11.1634 8.06776 15.8535C7.90444 19.488 7.90886 26.5451 9.59059 29.8794C10.3012 31.1336 11.2503 30.7493 13.0159 29.4996C14.5519 28.3646 20.1091 23.2418 22.4618 20.9939C24.8145 18.7461 29.586 12.2984 30.5792 16.6793C30.972 18.5208 31.4575 20.0842 31.0868 24.1692C30.972 25.4278 30.4335 26.3817 27.9793 24.677C26.1254 23.4847 24.3642 22.204 24.3642 22.204C24.3642 22.204 24.0244 21.5945 23.221 22.5838C22.5898 23.3743 22.272 23.5686 23.2828 24.1692C24.298 24.7698 29.4315 28.3116 31.4002 28.8636C33.0245 29.3362 33.9514 29.3273 34 26.1344C33.9912 23.5995 33.8455 16.3437 32.923 13.2523C32.2256 11.3268 31.2015 10.4524 28.9901 12.6164C26.7787 14.7803 19.8046 21.546 15.9909 24.6108C13.4617 26.5098 12.3802 28.2233 11.4268 25.0568C10.7559 22.6588 9.88633 15.1954 12.6318 16.6175C14.3489 17.4389 15.2052 17.4345 14.5343 17.9512C13.8633 18.4634 11.9344 20.2343 11.9344 20.2343C11.9344 20.2343 11.3385 20.7157 11.6166 21.7579C11.8947 22.4866 11.8947 22.8487 13.391 21.44C14.8874 20.0312 15.9909 18.9669 15.9909 18.9669C15.9909 18.9669 16.2292 18.5915 16.9399 19.2849C17.6506 19.9782 17.7653 20.1725 17.7653 20.1725C17.7653 20.1725 17.9551 20.6892 18.7143 19.7927C19.4779 18.8962 19.9679 18.3486 18.5245 17.5095C17.0856 16.6616 10.6058 13.0624 10.6058 13.0624Z" fill="#FAFAFA"/>
</svg>
