<svg xmlns="http://www.w3.org/2000/svg" width="42" height="42" fill="none"><circle cx="21" cy="21" r="21" fill="#0055D5"/><path fill="#F3F3F3" fill-rule="evenodd" d="M10.606 13.063s-2.375-1.9-2.538 2.79c-.164 3.635-.16 10.692 1.523 14.027.71 1.254 1.66.87 3.425-.38 1.536-1.135 7.093-6.258 9.446-8.506 2.352-2.248 7.124-8.695 8.117-4.315.393 1.842.878 3.405.508 7.49-.115 1.259-.654 2.213-3.108.508a87.619 87.619 0 0 1-3.615-2.473s-.34-.61-1.143.38c-.631.79-.949.985.062 1.585 1.015.6 6.148 4.143 8.117 4.695 1.625.472 2.551.463 2.6-2.73-.009-2.534-.154-9.79-1.077-12.882-.697-1.925-1.722-2.8-3.933-.636-2.211 2.164-9.185 8.93-13 11.995-2.528 1.899-3.61 3.612-4.563.446-.671-2.398-1.54-9.861 1.205-8.44 1.717.822 2.573.818 1.902 1.334-.67.513-2.6 2.284-2.6 2.284s-.595.48-.317 1.523c.278.729.278 1.09 1.774-.318 1.496-1.409 2.6-2.473 2.6-2.473s.238-.375.949.318c.71.693.825.888.825.888s.19.516.95-.38c.763-.897 1.253-1.444-.19-2.283-1.44-.848-7.92-4.448-7.92-4.448Z" clip-rule="evenodd"/></svg>