<svg xmlns="http://www.w3.org/2000/svg" width="36" height="36" fill="none"><g clip-path="url(#a)"><g clip-path="url(#b)"><rect width="36" height="36" fill="#F5F5F5" rx="18"/><path fill="#F3F3F3" d="M18 36c9.941 0 18-8.059 18-18S27.941 0 18 0 0 8.059 0 18s8.059 18 18 18Z"/><path fill="url(#c)" d="M18 36c9.941 0 18-8.059 18-18S27.941 0 18 0 0 8.059 0 18s8.059 18 18 18Z" opacity=".5"/><path fill="#000" d="M5.977 23.808c-.126-.014-.32-.125-.46-.24-1.32-1.292.375-2.776 2.338-3.637v-2.456c.459.292.71.305.723.346l1.502-1.485-.501-1.277c4.397-1.513 6.163-2.096 9.738-2.693l-.64-.598 1.043-.596c2.41.792 4.675 1 4.285 3.011.098-1.36-1.6-1.888-4.188-2.61l-.5.306.964.791c-4.284.736-6.914 1.568-10.044 2.646l.43 1.107-1.571 1.54c.265.07 3.005.986 5.856-1 0 0 .056-.041.056-.055-.082-.139-.278-.292-.514-.5a1.375 1.375 0 0 1 1.28 1.555h-.39a1.392 1.392 0 0 0-.111-.694c-2.213 1.611-4.772 1.847-6.957 1.083v1.901c-1.057.375-2.95 1.54-2.941 2.665.07.541.348.736.598.875"/><path fill="#22BC3B" d="M14.968 23.336c-2.366 1.194-4.628 2.152-8.125 2.29-4.55-.097-5.258-3.11-3.103-6.26 2.032-3.18 5.26-6.053 10.393-7.845 1.488-.526 3.674-1.123 5.787-1.151 3.037-.028 5.979.916 5.787 3.818-.11 2.22-3.324 5.358-5.022 7.607-.724.985-.849 1.624.389 1.569 4.494-.292 8.57-1.847 12.354-3.457-2.559 1.735-15.79 8.273-15.845 3.818.014-.57.278-1.166.709-1.805.418-.639 1.003-1.306 1.6-1.986.905-1.027 3.143-3.484 3.895-4.956 1.266-2.79-1.572-2.934-4.02-3.79l-1.045.597.641.598c-3.575.596-5.342 1.18-9.738 2.693l.502 1.277-1.503 1.485c-.042-.042-.265-.055-.723-.347v2.457c-1.963.866-3.665 2.346-2.338 3.637.14.111.335.223.46.241 2.411 1.36 8.959-.481 8.946-.481"/></g></g><defs><clipPath id="a"><path fill="#fff" d="M0 0h36v36H0z"/></clipPath><clipPath id="b"><rect width="36" height="36" fill="#fff" rx="18"/></clipPath><linearGradient id="c" x1="18" x2="18" y1="18" y2="36" gradientUnits="userSpaceOnUse"><stop stop-color="#fff" stop-opacity="0"/><stop offset="1" stop-color="#A7FF72" stop-opacity=".7"/></linearGradient></defs></svg>