<svg width="36" height="36" viewBox="0 0 36 36" fill="none" xmlns="http://www.w3.org/2000/svg">
<g clip-path="url(#clip0_579_186089)">
<g clip-path="url(#clip1_579_186089)">
<rect width="36" height="36" rx="18" fill="#F5F5F5"/>
<path d="M18 36C27.9411 36 36 27.9411 36 18C36 8.05887 27.9411 0 18 0C8.05887 0 0 8.05887 0 18C0 27.9411 8.05887 36 18 36Z" fill="#F3F3F3"/>
<path opacity="0.5" d="M18 36C27.9411 36 36 27.9411 36 18C36 8.05887 27.9411 0 18 0C8.05887 0 0 8.05887 0 18C0 27.9411 8.05887 36 18 36Z" fill="url(#paint0_linear_579_186089)"/>
<path d="M5.97695 23.8084C5.85159 23.7939 5.65632 23.6833 5.51746 23.5678C4.19636 22.2761 5.89257 20.7919 7.85494 19.9307V17.4747C8.31395 17.7668 8.56467 17.7802 8.57817 17.8211L10.0806 16.3364L9.57911 15.0591C13.9764 13.5461 15.742 12.963 19.3177 12.366L18.6764 11.7684L19.7203 11.1719C22.131 11.9638 24.3952 12.1716 24.0051 14.1835C24.103 12.823 22.4054 12.2952 19.8176 11.5736L19.3172 11.8786L20.2815 12.67C15.9971 13.4061 13.3674 14.2384 10.2373 15.316L10.6678 16.4226L9.096 17.963C9.36119 18.0323 12.1008 18.9493 14.9522 16.9638C14.9522 16.9638 15.0086 16.9219 15.0086 16.908C14.9257 16.7694 14.73 16.616 14.4942 16.4086C15.3283 16.4644 15.8703 17.2 15.7733 17.9635H15.3842C15.4071 17.7264 15.3688 17.4874 15.2729 17.2693C13.0608 18.88 10.501 19.1157 8.31636 18.3518V20.2531C7.25948 20.6283 5.36654 21.7926 5.37522 22.9183C5.44465 23.4591 5.72334 23.6535 5.9731 23.793" fill="black"/>
<path d="M14.9687 23.3363C12.6023 24.5303 10.3401 25.4882 6.84348 25.6263C2.29436 25.5286 1.58511 22.5165 3.74082 19.3653C5.77213 16.1867 8.99967 13.3131 14.1336 11.5215C15.6216 10.9952 17.8076 10.3976 19.9204 10.3697C22.958 10.3418 25.8991 11.2862 25.7077 14.1877C25.5968 16.4089 22.3833 19.5462 20.6851 21.7953C19.9619 22.7796 19.8365 23.419 21.0742 23.3637C25.5689 23.0717 29.6445 21.5172 33.4289 19.907C30.8696 21.6423 17.6384 28.1799 17.5834 23.725C17.5969 23.1549 17.8612 22.5588 18.2922 21.9199C18.7102 21.2815 19.2951 20.6142 19.893 19.9344C20.797 18.9073 23.0356 16.4503 23.7878 14.9782C25.0539 12.1878 22.216 12.0435 19.7666 11.1886L18.7228 11.7851L19.364 12.3826C15.7884 12.9792 14.0218 13.5623 9.6255 15.0758L10.1269 16.3531L8.62455 17.8378C8.58261 17.7964 8.35937 17.783 7.90132 17.4914V19.9484C5.93896 20.8144 4.23695 22.2937 5.56383 23.5855C5.70269 23.6961 5.89845 23.8077 6.02381 23.826C8.43458 25.1866 14.9822 23.3449 14.9697 23.3449" fill="#22BC3B"/>
</g>
</g>
<defs>
<linearGradient id="paint0_linear_579_186089" x1="18" y1="18" x2="18" y2="36" gradientUnits="userSpaceOnUse">
<stop stop-color="white" stop-opacity="0"/>
<stop offset="1" stop-color="#A7FF72" stop-opacity="0.7"/>
</linearGradient>
<clipPath id="clip0_579_186089">
<rect width="36" height="36" fill="white"/>
</clipPath>
<clipPath id="clip1_579_186089">
<rect width="36" height="36" rx="18" fill="white"/>
</clipPath>
</defs>
</svg>
