<svg width="250" height="250" xmlns="http://www.w3.org/2000/svg" fill="none">
 <g>
  <path id="svg_1" d="m125,250c-69.06077,0 -125,-55.93922 -125,-125c0,-69.06077 55.93923,-125 125,-125c69.06078,0 125,55.93923 125,125c0,69.06078 -55.93922,125 -125,125z" opacity="undefined" fill="#f3652c"/>
  <g id="svg_2">
   <g id="svg_3" clip-path="url(#svg_29)">
    <path id="svg_4" d="m43.9997,138.5l17.19091,-30.0829c0.5008,-0.87627 1.4327,-1.41706 2.4419,-1.41706l7.3676,-0.00004l-16.7041,29.2326c-0.80114,1.4021 -2.29217,2.2674 -3.90702,2.2674l-6.38929,0z" fill="url(#svg_33)"/>
    <path id="svg_5" d="m98.00361,111.49995l-17.191,30.08295c-0.50069,0.8763 -1.43259,1.4171 -2.44189,1.4171l-7.3675,0l16.70399,-29.23256c0.8012,-1.40209 2.2923,-2.26739 3.9071,-2.26741l6.3893,-0.00008z" fill="url(#svg_32)"/>
    <path id="svg_6" fill-rule="evenodd" clip-rule="evenodd" d="m77.80961,116.29308l-4.5012,-7.87608c-0.5008,-0.87622 -1.4326,-1.41696 -2.4419,-1.41696l-7.3676,-0.00004l0.0003,0.00043c-0.4254,0.00716 -0.8766,0.14249 -1.2822,0.38208c0.1669,-0.06007 0.3469,-0.09283 0.5345,-0.09283c0.5544,0 1.042,0.28592 1.3234,0.71835l10.03149,17.55597l3.7032,-6.4799c0.4942,-0.8647 0.4942,-1.9263 0,-2.79102z" fill="url(#svg_31)"/>
    <path id="svg_7" fill-rule="evenodd" clip-rule="evenodd" d="m64.19371,133.70689l4.5012,7.8761c0.5008,0.87619 1.4326,1.41699 2.4419,1.41699l7.3676,0l-0.0002,-0.00029c0.4254,-0.0072 0.8765,-0.1425 1.2821,-0.38211c-0.1669,0.0601 -0.3469,0.0928 -0.5345,0.0928c-0.5541,0 -1.0415,-0.2856 -1.323,-0.71761l-10.0319,-17.55679l-3.7032,6.4799c-0.4942,0.8647 -0.4942,1.9263 0,2.791z" fill="url(#svg_30)"/>
   </g>
   <defs transform="translate(-73.5359, 37.623) translate(0, 4.56036) translate(0.414066) translate(53.5843, -4.56036) translate(44.0003) translate(0, 107) translate(152.002, 107) scale(2.33001) translate(-152.002, -107) translate(42.0591, 61.3731) scale(2.45668) translate(-42.0591, -61.3731)">
    <clipPath id="svg_29">
     <rect id="svg_8" width="54.0012" height="36" fill="white" y="144.623" x="24.46217"/>
    </clipPath>
   </defs>
  </g>
  <g stroke="null" fill="#f3652c">
   <defs stroke="null" fill="#ffffff" transform="translate(0 2.66412) translate(-5.37636 0) translate(-281.315 0) translate(0 -255.714) translate(61.4895 156.471) scale(1.35343 1.35343) translate(-61.4895 -156.471) translate(172.453 52.6694) scale(1.19859 1.19859) translate(-172.453 -52.6694)" id="svg_19">
    <clipPath stroke="null" fill="#ffffff" id="svg_14" clipPathUnits="userSpaceOnUse">
     <path stroke="null" fill="#ffffff" id="svg_20" d="m-213.47218,790.55365l599.99998,0l0,-600.00005l-599.99998,0l0,600.00005z"/>
    </clipPath>
   </defs>
   <g stroke="null" transform="matrix(2.16293 0 0 -2.16293 -72.3985 1217.32)" id="svg_11">
    <g stroke="null" id="svg_12">
     <g stroke="null" clip-path="url(#svg_14)" id="svg_13">
      <g stroke="null" transform="translate(267.789 296.432)" id="svg_17">
       <path stroke="null" fill-rule="evenodd" fill="#ffffff" id="svg_18" d="m-213.47218,190.5536c-0.407,0.092 -0.99699,0.408 -1.44901,0.771c-4.123,3.94101 1.132,8.562 7.203,11.235l0,7.61101c1.44901,-0.86101 2.174,-0.951 2.265,-1.08701l4.621,4.621l-1.541,3.895c13.591,4.71199 19.07201,6.52399 30.127,8.382l-1.994,1.812l3.26201,1.90199c7.42999,-2.491 14.36,-3.125 13.183,-9.332c0.317,4.168 -4.89301,5.79901 -12.95601,8.06401l-1.495,-0.95201l2.944,-2.446c-13.228,-2.31 -21.383,-4.847 -31.032,-8.2l1.26801,-3.44301l-4.802,-4.756c0.81599,-0.22699 9.24199,-3.08099 18.07599,3.08c0.04501,0.04601 0.181,0.091 0.181,0.181c-0.31699,0.45401 -0.86099,0.862 -1.58499,1.541c2.537,-0.181 4.213,-2.446 3.895,-4.802l-1.177,0c0.136,0.724 -0.045,1.586 -0.36301,2.129c-6.75,-4.98299 -14.677,-5.70799 -21.42799,-3.35199l0,-5.89c-3.30701,-1.132 -9.151,-4.75601 -9.106,-8.24501c0.22701,-1.67599 1.088,-2.26399 1.903,-2.71899"/>
      </g>
      <g stroke="null" transform="translate(295.378 297.973)" id="svg_15">
       <path stroke="null" fill-rule="evenodd" fill="#ffffff" id="svg_16" d="m-213.47218,190.5536c-7.29401,-3.75999 -14.27,-6.705 -25.14301,-7.11099c-13.99899,0.271 -16.172,9.603 -9.51299,19.34299c6.25099,9.83101 16.21799,18.755 32.11899,24.328c4.53,1.58501 11.371,3.487 17.849,3.533c9.37801,0.091 18.483,-2.854 17.895,-11.77901c-0.31801,-6.886 -10.239,-16.62599 -15.44901,-23.60199c-2.26399,-3.03601 -2.627,-4.983 1.17801,-4.847c13.81699,0.905 26.457,5.707 38.05499,10.69099c-7.79199,-5.30099 -48.65599,-25.55 -48.882,-11.73399c0.04601,1.72299 0.90601,3.57899 2.22,5.52699c1.31401,1.948 3.12601,4.032 4.983,6.161c2.76401,3.17201 9.649,10.78201 11.96001,15.358c3.896,8.608 -4.84801,9.06 -12.367,11.733l-3.26199,-1.90199l1.948,-1.812c-11.009,-1.858 -16.49001,-3.67001 -30.08101,-8.382l1.54001,-3.895l-4.621,-4.621c-0.091,0.136 -0.815,0.226 -2.26401,1.08701l0,-7.61101c-6.071,-2.67299 -11.327,-7.29399 -7.20399,-11.235c0.453,-0.36299 1.04201,-0.679 1.45,-0.771l-0.045,0c7.474,-4.211 27.679,1.541 27.634,1.541"/>
      </g>
     </g>
    </g>
   </g>
  </g>
 </g>
</svg>