<svg xmlns="http://www.w3.org/2000/svg" width="42" height="42" fill="none"><path fill="#222" fill-rule="evenodd" d="M21 0c11.596 0 21 9.404 21 21s-9.404 21-21 21S0 32.596 0 21 9.404 0 21 0Z" clip-rule="evenodd"/><path fill="#F3F3F3" d="M21 30.152c-6.716 0-12.16-1.94-12.16-4.54 0-1.357 1.483-2.579 3.856-3.44 1.853 1.189 4.96 1.798 8.484 1.798 3.44 0 6.481-.744 8.35-1.882 2.239.853 3.629 2.041 3.629 3.352 0 2.604-5.443 4.712-12.16 4.712Z"/><path fill="#F3F3F3" d="M21.071 23.388c-5.09 0-9.219-1.596-9.219-3.566 0-1.092 1.273-2.07 3.268-2.722 1.424.744 3.557 1.218 5.951 1.218 2.394 0 4.528-.474 5.951-1.218 2 .655 3.268 1.63 3.268 2.722.004 1.97-4.124 3.566-9.219 3.566Z"/><path fill="#F3F3F3" d="M21.038 17.726c-3.936 0-7.128-1.32-7.128-2.94 0-1.621 3.192-2.94 7.128-2.94 3.935 0 7.127 1.319 7.127 2.94 0 1.62-3.192 2.94-7.127 2.94Z"/></svg>