<svg xmlns="http://www.w3.org/2000/svg" width="42" height="42" fill="none"><rect width="42" height="42" fill="#4520E6" rx="21"/><path fill="#F3F3F3" fill-rule="evenodd" d="m26.486 10.823 2.946-2.946 2.346-.002-1.164 1.184-2.706 2.706c.95.904 1.697 2.31 1.697 4.222 0 2.355-1.117 3.964-2.57 4.91.41.197.808.44 1.174.746 1.1.919 1.814 2.314 1.814 4.37 0 2.046-.707 3.435-1.693 4.303-.958.842-2.103 1.127-2.902 1.127H15.33l-2.68 2.68-2.428.002 1.247-1.184 12.71-12.71.249-.05c1.805-.361 3.505-1.684 3.505-4.194 0-1.46-.566-2.444-1.209-3.04L14.15 25.523V10.557h11.325l.046.005c.304.034.632.12.966.261Zm-1.404 1.405H15.82v9.261l9.262-9.261Zm-.221 9.685-7.86 7.86h8.427c.454 0 1.188-.175 1.798-.711.58-.511 1.126-1.42 1.126-3.05 0-1.62-.539-2.522-1.214-3.086-.618-.516-1.422-.811-2.277-1.013Z" clip-rule="evenodd"/></svg>