<svg xmlns="http://www.w3.org/2000/svg" width="42" height="42" fill="none"><circle cx="21" cy="21" r="20" fill="#8DC351"/><path fill="#F3F3F3" fill-rule="evenodd" d="M26.235 18.645c.032-.035.046-.042.059-.05a.213.213 0 0 1 .04-.038.22.22 0 0 0 .039-.038c.816-.784 1.2-1.732 1.07-2.866a5.589 5.589 0 0 0-.315-1.223 3.524 3.524 0 0 0-.581-1.046c-.487-.615-1.115-.982-1.86-1.182-.608-.171-1.233-.213-1.87-.18a13 13 0 0 0-1.918.21c-.097.017-.145.025-.173.006-.026-.019-.036-.06-.054-.142l-.303-1.23c-.081-.343-.165-.681-.248-1.02-.083-.337-.167-.675-.248-1.018-.032-.155-.032-.155-.2-.116a24.77 24.77 0 0 1-1.017.222l-.97.213c-.06.015-.087.03-.064.103.007.014.01.025.011.037a.11.11 0 0 0 .012.037c.077.303.155.6.234.898.078.297.157.594.234.897l.062.242c.101.4.2.792.314 1.19.012.053.018.08.008.097-.01.016-.038.022-.092.034l-.846.25c-.117.037-.233.07-.35.102a9.812 9.812 0 0 0-.349.102c-.053.012-.08.018-.097.008-.016-.01-.022-.038-.034-.091a.113.113 0 0 1-.008-.03 326.801 326.801 0 0 1-.378-1.594 312.86 312.86 0 0 0-.37-1.565l-.01-.05c-.023-.101-.033-.145-.06-.16-.02-.01-.048-.003-.1.008-.027.006-.06.014-.1.02l-1.775.442c-.121.031-.121.031-.09.152.04.202.093.397.147.592.218.915.443 1.843.674 2.75.03.121.03.121-.096.173-.639.19-1.27.358-1.91.513-.427.103-.852.21-1.28.317-.32.08-.641.162-.966.241-.155.032-.155.032-.131.14.082.36.168.718.253 1.076.086.358.171.716.254 1.076.011.054.017.081.034.092.016.01.043.004.097-.008.276-.062.545-.139.813-.215.145-.035.284-.071.424-.108.14-.036.28-.073.424-.108.673-.156 1.189.322 1.312.806.134.504.263 1.007.393 1.51.129.502.258 1.004.392 1.508.28 1.062.556 2.126.833 3.19.277 1.063.554 2.127.834 3.19l.031.11c.024.081.047.16.054.239.046.371-.194.724-.584.831-.34.1-.68.184-1.019.267-.15.037-.299.073-.447.111-.18.053-.18.059-.164.164.003.017.006.036.008.058.023.314.05.627.076.94a83.981 83.981 0 0 1 .1 1.27c.01.112.018.223.024.331.06-.015.108-.023.155-.032l.235-.05c.349-.077.691-.152 1.037-.24.254-.062.51-.118.767-.175.452-.1.907-.2 1.353-.331a6.4 6.4 0 0 1 .726-.186c.142-.024.142-.024.18.11.003.006.005.009.005.012 0 .005 0 .01-.004.022l.836 3.369c.038.134.038.134.159.103l.145-.03c.21-.044.414-.087.622-.143l.652-.145h.002c.218-.05.437-.099.652-.146a.54.54 0 0 0-.011-.149c-.194-.773-.38-1.533-.56-2.313a24.058 24.058 0 0 0-.247-1.002l-.003-.01c-.029-.112-.032-.126.092-.176.063-.026.125-.046.187-.067.063-.02.125-.041.188-.067.265-.083.53-.15.794-.217.117-.03.233-.059.349-.09.108-.023.108-.023.139.098 0 .017.006.035.011.054a199.503 199.503 0 0 1 .407 1.665c.13.536.26 1.072.396 1.61.03.15.044.148.174.125l.012-.002c.314-.057.63-.116.946-.175h.003c.316-.06.632-.118.945-.176l.017-.003c.127-.022.179-.03.193-.059.01-.02.001-.05-.014-.1-.008-.026-.018-.06-.028-.1-.125-.552-.252-1.106-.38-1.661v-.001l-.38-1.662c-.031-.155-.031-.155.103-.193.778-.282 1.561-.584 2.302-.966.56-.302 1.106-.631 1.588-1.046.878-.766 1.397-1.717 1.49-2.886.044-.556-.021-1.124-.113-1.677-.13-.687-.312-1.345-.69-1.95a3.191 3.191 0 0 0-1.146-1.103c-.558-.3-1.152-.445-1.79-.48a4.024 4.024 0 0 0-.68-.046Zm-1.703 7.473c-.613.33-1.264.561-1.928.765-.453.14-.919.26-1.384.378l-.465.12c-.058.014-.088.022-.108.011-.022-.012-.031-.045-.051-.115l-.498-1.882-.5-1.881-.032-.123c-.06-.218-.12-.443-.168-.664-.03-.121-.017-.128.07-.158l.502-.138c.79-.218 1.578-.436 2.391-.562.573-.086 1.135-.13 1.712-.08.286.018.566.09.84.183 1.28.428 1.761 2.182.831 3.234a4.601 4.601 0 0 1-1.212.912ZM18.454 15.79c-.234.058-.469.116-.707.17a.214.214 0 0 0 .017.095c.313 1.166.611 2.328.912 3.497l.18.697c.02.07.028.103.05.115.02.011.05.004.108-.011l.247-.06c.679-.165 1.359-.33 2.004-.586.522-.213 1.03-.453 1.46-.805.31-.253.566-.546.703-.93.319-.877-.1-1.907-.946-2.328a2.436 2.436 0 0 0-.93-.256c-.455-.047-.902-.013-1.354.042-.596.077-1.166.218-1.744.36Z" clip-rule="evenodd"/></svg>