<svg width="42" height="42" viewBox="0 0 42 42" fill="none" xmlns="http://www.w3.org/2000/svg">
<path d="M21 41C32.0457 41 41 32.0457 41 21C41 9.9543 32.0457 1 21 1C9.9543 1 1 9.9543 1 21C1 32.0457 9.9543 41 21 41Z" fill="#222222"/>
<path d="M21.0087 28.7522H20.9775C16.6939 28.7991 13.192 25.3754 13.1294 21.1074C13.0825 16.8238 16.5063 13.3219 20.7742 13.2594C20.8368 13.2594 20.8993 13.2594 20.9619 13.2594C25.2454 13.2594 28.7161 16.7144 28.7161 20.998C28.7161 21.8422 28.5754 22.6708 28.3096 23.4525L31.7959 28.1269C35.7355 22.1549 34.094 14.1036 28.1064 10.164C22.1344 6.22431 14.0831 7.86583 10.1435 13.8535C6.2038 19.8411 7.84532 27.8767 13.833 31.8164C16.9909 33.8957 20.915 34.5054 24.5576 33.4579C24.4325 33.3016 21.0087 28.7366 21.0087 28.7522Z" fill="#F3F3F3"/>
<path d="M27.1368 24.719L26.9805 24.5002C26.9492 24.4533 26.8867 24.3907 26.8398 24.3282C26.7147 24.1875 26.5896 24.0624 26.4489 23.9374C26.3864 23.8748 26.3239 23.8279 26.2457 23.7654L26.1363 23.6716L26.0268 23.5778C25.9486 23.5153 25.8705 23.4684 25.7767 23.4058C24.7449 22.7336 23.6505 22.4053 22.3217 22.4053H18.9292C18.9292 22.4053 24.5104 29.8625 25.8861 31.7541C26.0425 31.973 26.2144 32.1762 26.402 32.3638C26.4333 32.3951 26.4489 32.4107 26.4802 32.442C26.5427 32.5045 26.6053 32.5514 26.6834 32.614L26.7929 32.7078L26.9023 32.8016C26.9805 32.8641 27.0586 32.911 27.1524 32.9735C28.1842 33.6458 29.388 33.9897 30.6074 33.9741H33.9999L27.1368 24.719Z" fill="#4FAFE7"/>
</svg>
