<svg width="42" height="42" viewBox="0 0 42 42" fill="none" xmlns="http://www.w3.org/2000/svg">
<rect width="42" height="42" rx="21" fill="#814625"/>
<path d="M27.8422 25.5373V23.9451C28.8223 23.609 29.5359 22.5652 29.5359 21.3298C29.5359 20.0944 28.8223 19.0476 27.8422 18.7145V17.1223C28.7652 16.8068 29.4534 15.8603 29.5296 14.7163H28.4068V15.2028C28.4068 15.5773 28.1785 15.9075 27.8422 16.0726V15.8456C27.8422 15.5124 27.5505 15.2411 27.1921 15.2411H27.135C26.7767 15.2411 26.4848 15.5124 26.4848 15.8456V16.0726C26.1487 15.9075 25.9203 15.5802 25.9203 15.2028V14.7163H24.7976C24.8737 15.8603 25.5619 16.8068 26.4848 17.1223V18.7145C25.508 19.0476 24.7913 20.0914 24.7913 21.3298C24.7913 22.5681 25.5048 23.6119 26.4848 23.9451V25.5373C25.5619 25.8527 24.8737 26.7992 24.7976 27.9432H25.9203V27.4567C25.9203 27.0823 26.1487 26.752 26.4848 26.5869V26.814C26.4848 27.1472 26.7767 27.4184 27.135 27.4184H27.1921C27.5505 27.4184 27.8422 27.1472 27.8422 26.814V26.5869C28.1785 26.752 28.4068 27.0793 28.4068 27.4567V27.9432H29.5296C29.4534 26.7992 28.7652 25.8527 27.8422 25.5373ZM25.9203 22.0256V20.631C25.9203 20.2565 26.1487 19.9263 26.4848 19.7612V19.9882C26.4848 20.3214 26.7767 20.5926 27.135 20.5926H27.1921C27.5505 20.5926 27.8422 20.3214 27.8422 19.9882V19.7612C28.1785 19.9263 28.4068 20.2536 28.4068 20.631V22.0256C28.4068 22.4001 28.1785 22.7303 27.8422 22.8954V22.6684C27.8422 22.3352 27.5505 22.0639 27.1921 22.0639H27.135C26.7767 22.0639 26.4848 22.3352 26.4848 22.6684V22.8954C26.1518 22.7303 25.9203 22.403 25.9203 22.0256Z" fill="white"/>
<path d="M34.7297 22.176V20.4806C35.7097 20.1445 36.4234 19.1007 36.4234 17.8653C36.4234 16.6299 35.7097 15.5832 34.7297 15.25V14.7163H33.3755V15.25C32.3954 15.5861 31.6819 16.6299 31.6819 17.8653C31.6819 19.1007 32.3954 20.1474 33.3755 20.4806V22.176C32.3954 22.5121 31.6819 23.5559 31.6819 24.7913C31.6819 26.0267 32.3954 27.0734 33.3755 27.4066V27.9403H34.7297V27.4066C35.7097 27.0705 36.4234 26.0267 36.4234 24.7913C36.4234 23.5559 35.7097 22.5121 34.7297 22.176ZM32.8077 18.5611V17.1665C32.8077 16.792 33.0361 16.4618 33.3723 16.2967V16.5237C33.3723 16.8569 33.6641 17.1282 34.0225 17.1282H34.0764C34.4348 17.1282 34.7265 16.8569 34.7265 16.5237V16.2967C35.0628 16.4618 35.2911 16.7891 35.2911 17.1665V18.5611C35.2911 18.9356 35.0628 19.2658 34.7265 19.4309V19.2039C34.7265 18.8707 34.4348 18.5995 34.0764 18.5995H34.0193C33.661 18.5995 33.3691 18.8707 33.3691 19.2039V19.4309C33.0393 19.2658 32.8077 18.9385 32.8077 18.5611ZM35.2943 25.4901C35.2943 25.8645 35.066 26.1948 34.7297 26.3599V26.0267C34.7297 25.6935 34.438 25.4223 34.0796 25.4223H34.0257C33.6673 25.4223 33.3755 25.6935 33.3755 26.0267V26.3599C33.0393 26.1948 32.8109 25.8675 32.8109 25.4901V24.0954C32.8109 23.721 33.0393 23.3908 33.3755 23.2256V23.3465C33.3755 23.6797 33.6673 23.951 34.0257 23.951H34.0828C34.4411 23.951 34.7329 23.6797 34.7329 23.3465V23.2256C35.0691 23.3908 35.2974 23.718 35.2974 24.0954V25.4901H35.2943Z" fill="white"/>
<path d="M20.0807 19.9786C20.068 19.9107 20.0522 19.8459 20.0268 19.784C20.0363 19.7692 22.1422 17.0419 20.1918 15.3553C18.2444 13.6688 15.9704 15.8684 15.9577 15.8802C15.5961 15.774 15.2314 15.7092 14.8698 15.6797C14.8698 15.6797 14.8698 15.6797 14.8667 15.6797C14.1245 15.5647 13.0842 15.6797 13.0842 15.6797C12.7258 15.7092 12.3643 15.774 12.0059 15.8772C11.9932 15.8654 9.71919 13.6658 7.77186 15.3524C5.82451 17.0389 7.92726 19.7692 7.93678 19.781C7.91458 19.8459 7.89555 19.9107 7.88286 19.9756C7.67354 21.1432 6.23682 21.5029 6.23682 23.5374C6.23682 25.6102 7.73696 27.2436 10.8007 27.2436H12.0566C12.063 27.2495 12.5482 27.8923 13.5505 27.9306C13.5505 27.9306 13.782 27.9542 14.3148 27.9365C15.3773 27.9365 15.8942 27.2554 15.8974 27.2465H17.1533C20.217 27.2465 21.7172 25.6131 21.7172 23.5403C21.7267 21.5088 20.29 21.1462 20.0807 19.9786Z" fill="white"/>
</svg>
