<svg xmlns="http://www.w3.org/2000/svg" width="42" height="42" fill="none"><path fill="#ADFF00" d="M21 41c11.046 0 20-8.954 20-20S32.046 1 21 1 1 9.954 1 21s8.954 20 20 20Z"/><path fill="#030303" d="M28 17h-5.5v14.5H25V20h3v11.5h5.5v-3h-3V20h3v-3h-3v-5.5H28V17Z"/><path fill="#030303" fill-rule="evenodd" d="M8.5 11.5V31H17a4 4 0 0 0 4-4v-3a3 3 0 0 0-3-3 1.728 1.728 0 0 0 1.5-1.713V15.5a4 4 0 0 0-4-4h-7ZM11 14v6h4a2 2 0 0 0 2-2v-2a2 2 0 0 0-2-2h-4Zm0 8.5V28h5.5a2 2 0 0 0 2-2v-1.5a2 2 0 0 0-2-2H11Z" clip-rule="evenodd"/><path fill="#030303" d="M22.5 11.5H25V14h-2.5z"/></svg>