<svg width="42" height="42" viewBox="0 0 42 42" fill="none" xmlns="http://www.w3.org/2000/svg">
<path d="M21 41C32.0457 41 41 32.0457 41 21C41 9.9543 32.0457 1 21 1C9.9543 1 1 9.9543 1 21C1 32.0457 9.9543 41 21 41Z" fill="#ADFF00"/>
<path d="M28 17H22.5V31.5H25V20H28V31.5H33.5V28.5H30.5V20H33.5V17H30.5V11.5H28V17Z" fill="#030303"/>
<path fill-rule="evenodd" clip-rule="evenodd" d="M8.5 11.5V31H17C19.2091 31 21 29.2091 21 27V24C21 22.3431 19.6569 21 18 21C18.8587 20.8855 19.5 20.153 19.5 19.2867V15.5C19.5 13.2909 17.7091 11.5 15.5 11.5H8.5ZM11 14V20H15C16.1046 20 17 19.1046 17 18V16C17 14.8954 16.1046 14 15 14H11ZM11 22.5V28H16.5C17.6046 28 18.5 27.1046 18.5 26V24.5C18.5 23.3954 17.6046 22.5 16.5 22.5H11Z" fill="#030303"/>
<rect x="22.5" y="11.5" width="2.5" height="2.5" fill="#030303"/>
</svg>
