<svg width="42" height="42" viewBox="0 0 42 42" fill="none" xmlns="http://www.w3.org/2000/svg">
<circle cx="20" cy="20" r="20" fill="#EAB300"/>
<path fill-rule="evenodd" clip-rule="evenodd" d="M25.6544 18.9596C25.6946 18.9335 25.7092 18.9296 25.7239 18.9258C25.7367 18.9147 25.754 18.9063 25.7714 18.8978C25.7888 18.8894 25.8062 18.881 25.8189 18.8698C26.7984 18.3022 27.3969 17.4737 27.5407 16.341C27.5882 15.9218 27.5733 15.5032 27.5252 15.0776C27.4848 14.6813 27.3819 14.2856 27.2095 13.9236C26.8831 13.2104 26.3603 12.7048 25.6844 12.3329C25.134 12.0223 24.537 11.8333 23.9112 11.7144C23.2817 11.5808 22.6342 11.4988 21.9982 11.4608C21.8992 11.4541 21.8515 11.4509 21.8287 11.4254C21.8075 11.4016 21.808 11.3585 21.809 11.2753L21.8082 10.008C21.8105 9.6554 21.81 9.30738 21.8095 8.95936C21.809 8.61135 21.8085 8.26329 21.8107 7.91065C21.8166 7.75265 21.8166 7.75265 21.6439 7.75063C21.2984 7.74657 20.953 7.74251 20.6037 7.7238L19.6114 7.7002C19.549 7.70079 19.5196 7.70842 19.524 7.78551C19.5278 7.80017 19.527 7.81211 19.5262 7.82406C19.5254 7.836 19.5246 7.84795 19.5284 7.8626C19.5313 8.17479 19.537 8.48236 19.5426 8.78994C19.5482 9.09751 19.5538 9.40508 19.5568 9.71727L19.5589 9.9668C19.5622 10.3793 19.5655 10.7845 19.5816 11.1973C19.5803 11.2524 19.5796 11.28 19.5655 11.2934C19.5514 11.3069 19.5238 11.3062 19.4687 11.3049L18.5872 11.3464C18.4642 11.3549 18.3439 11.3588 18.2236 11.3627C18.1033 11.3666 17.983 11.3705 17.86 11.379C17.8048 11.3777 17.7773 11.377 17.7638 11.3629C17.7504 11.3488 17.751 11.3213 17.7524 11.2661C17.7505 11.2588 17.7513 11.2469 17.7521 11.2349C17.7529 11.223 17.7537 11.211 17.7518 11.2037C17.7542 10.6711 17.7592 10.1338 17.7643 9.5966C17.7694 9.05935 17.7745 8.52211 17.7769 7.98948C17.7772 7.97128 17.7775 7.9545 17.7779 7.93902C17.78 7.83453 17.781 7.78937 17.759 7.76947C17.7423 7.75432 17.7123 7.75382 17.6595 7.75292C17.6322 7.75246 17.5987 7.75189 17.5579 7.74914L15.728 7.75555C15.6031 7.75674 15.6031 7.75674 15.6043 7.88162C15.5952 8.08739 15.6007 8.28935 15.6063 8.49131C15.6004 9.43169 15.5983 10.3867 15.607 11.3233C15.6082 11.4482 15.6082 11.4482 15.4724 11.4678C14.8076 11.4999 14.1537 11.5135 13.496 11.5124C13.0562 11.5103 12.6177 11.513 12.1763 11.5157C11.8468 11.5177 11.5156 11.5197 11.1811 11.5197C11.0231 11.5139 11.0231 11.5139 11.0204 11.6241C11.0147 11.9933 11.0126 12.3616 11.0106 12.7298C11.0085 13.0981 11.0064 13.4663 11.0007 13.8355C10.9993 13.8906 10.9987 13.9182 11.0121 13.9323C11.0256 13.9464 11.0531 13.9471 11.1083 13.9484C11.3912 13.953 11.6704 13.943 11.9496 13.933C12.0984 13.9334 12.2426 13.9311 12.3868 13.9289C12.531 13.9266 12.6752 13.9243 12.824 13.9247C13.5149 13.9328 13.9025 14.5205 13.9072 15.02C13.9176 15.5415 13.9233 16.0602 13.9291 16.579C13.9348 17.0978 13.9406 17.6166 13.951 18.1381C13.9704 19.2361 13.9862 20.3351 14.002 21.434C14.0177 22.5331 14.0335 23.6323 14.0529 24.7304C14.0533 24.7692 14.0551 24.8078 14.0568 24.8458C14.0607 24.93 14.0645 25.0118 14.0526 25.0903C14.0083 25.4617 13.6913 25.7476 13.2872 25.7588C12.9333 25.7749 12.5828 25.7751 12.2346 25.7753C12.0806 25.7753 11.9267 25.7754 11.7735 25.7769C11.5862 25.785 11.5856 25.7914 11.5756 25.8975C11.574 25.9141 11.5722 25.9332 11.5694 25.9551C11.5172 26.266 11.4686 26.5759 11.4201 26.8859C11.3715 27.1958 11.323 27.5057 11.2708 27.8166C11.2516 27.9233 11.2333 28.0336 11.215 28.144C11.1968 28.2544 11.1785 28.3648 11.1593 28.4715C11.2218 28.4709 11.2695 28.4741 11.3173 28.4773C11.3978 28.4792 11.4779 28.4813 11.5576 28.4833C11.9144 28.4924 12.2646 28.5013 12.622 28.4979C12.8828 28.4981 13.1451 28.504 13.4081 28.51C13.8715 28.5205 14.3372 28.531 14.801 28.5102C15.0471 28.4932 15.2969 28.4908 15.5506 28.5031C15.694 28.5127 15.694 28.5127 15.6989 28.6523C15.7006 28.6585 15.7015 28.6621 15.7012 28.6656C15.7008 28.6703 15.6981 28.6748 15.6919 28.6854L15.7022 32.1564C15.7072 32.2959 15.7072 32.2959 15.8321 32.2948C15.8822 32.2963 15.9317 32.298 15.9809 32.2997C16.1954 32.3072 16.4034 32.3143 16.6186 32.3093C16.8388 32.3145 17.0626 32.3188 17.2864 32.3231L17.2885 32.3232C17.5124 32.3274 17.7362 32.3317 17.9564 32.337C17.9743 32.2854 17.9775 32.2376 17.9807 32.1898C17.977 31.3928 17.977 30.6104 17.9879 29.8095C17.992 29.4642 17.9962 29.1189 17.9856 28.7774L17.9855 28.7678C17.9843 28.6518 17.9842 28.6374 18.1164 28.6182C18.1843 28.6084 18.2495 28.6032 18.3146 28.598C18.3798 28.5928 18.445 28.5876 18.5129 28.5777C18.7901 28.5598 19.0639 28.5578 19.3354 28.5558C19.4559 28.5549 19.5761 28.554 19.6958 28.5518C19.8061 28.5544 19.8061 28.5544 19.8072 28.6793C19.8037 28.6958 19.8048 28.7151 19.8059 28.7344C19.807 28.7536 19.8081 28.7729 19.8046 28.7895C19.8079 29.3441 19.8066 29.896 19.8054 30.4479C19.8041 30.9998 19.8028 31.5517 19.8061 32.1063C19.8004 32.2597 19.8141 32.2606 19.946 32.2693L19.9583 32.2701C20.2759 32.2891 20.5972 32.3072 20.9185 32.3252L20.9209 32.3253C21.2422 32.3434 21.5635 32.3614 21.8811 32.3804L21.8979 32.3815C22.0263 32.3902 22.0792 32.3938 22.0997 32.3697C22.1142 32.3528 22.1126 32.3223 22.1099 32.2702C22.1084 32.242 22.1066 32.2074 22.1069 32.1652C22.1163 31.5999 22.1248 31.0309 22.1332 30.4619L22.1332 30.4606C22.1417 29.8912 22.1502 29.3218 22.1596 28.756C22.1655 28.598 22.1655 28.598 22.305 28.593C23.1273 28.5044 23.9604 28.3973 24.7706 28.2022C25.3864 28.0421 25.9946 27.8526 26.5615 27.5644C27.5963 27.0293 28.3274 26.2289 28.6955 25.1161C28.8706 24.5855 28.9425 24.0192 28.9851 23.4605C29.0226 22.7622 29.0016 22.0792 28.7784 21.4018C28.6119 20.8818 28.3249 20.4401 27.9281 20.0582C27.4575 19.6329 26.9147 19.3516 26.303 19.1664C26.0743 19.0694 25.8717 19.0126 25.6544 18.9596ZM22.2231 25.8127C21.5487 25.9881 20.8622 26.0571 20.1681 26.0968C19.6944 26.1261 19.2142 26.1306 18.7341 26.1352C18.574 26.1367 18.4139 26.1383 18.2541 26.1407C18.194 26.1413 18.1628 26.1416 18.1461 26.1262C18.128 26.1096 18.1268 26.0747 18.1242 26.0024C18.1127 25.356 18.1002 24.706 18.0877 24.056C18.0752 23.406 18.0627 22.7559 18.0511 22.1095L18.048 21.9824C18.0423 21.7567 18.0364 21.5234 18.0436 21.2978C18.0424 21.173 18.0571 21.1692 18.1488 21.1609C18.3224 21.1567 18.4958 21.1516 18.6689 21.1465C19.4888 21.1224 20.3056 21.0983 21.1252 21.1693C21.7026 21.2226 22.2583 21.3128 22.8075 21.4986C23.0802 21.5841 23.335 21.7213 23.579 21.8769C24.7211 22.597 24.7712 24.4147 23.6175 25.2154C23.2559 25.4503 22.8243 25.6564 22.2231 25.8127ZM18.7761 14.3367C18.5355 14.3373 18.2936 14.3378 18.0492 14.3338C18.0422 14.3669 18.0351 14.4 18.0427 14.4293C18.0693 15.6366 18.0831 16.8362 18.0969 18.0432C18.0996 18.2828 18.1024 18.5227 18.1052 18.763C18.1078 18.8354 18.1091 18.8702 18.1271 18.8868C18.1438 18.9022 18.175 18.9019 18.2351 18.9014C18.3196 18.9014 18.4042 18.9015 18.4887 18.9017C19.1874 18.903 19.8875 18.9043 20.5749 18.8093C21.1326 18.7269 21.6828 18.6151 22.1839 18.3752C22.5461 18.2028 22.8637 17.9794 23.0883 17.6393C23.6065 16.863 23.4456 15.7626 22.7234 15.1524C22.4788 14.9344 22.1909 14.7902 21.8812 14.6829C21.4499 14.5291 21.0083 14.4562 20.5558 14.4017C19.9586 14.3342 19.3713 14.3354 18.7761 14.3367Z" fill="#F3F3F3"/>
</svg>
