<svg width="42" height="42" viewBox="0 0 42 42" fill="none" xmlns="http://www.w3.org/2000/svg">
<g clip-path="url(#clip0_4532_193347)">
<path d="M42 21C42 9.40202 32.598 0 21 0C9.40202 0 0 9.40202 0 21C0 32.598 9.40202 42 21 42C32.598 42 42 32.598 42 21Z" fill="#222222"/>
<path fill-rule="evenodd" clip-rule="evenodd" d="M9.1875 9.1875V20.3665H18.4368L21.0793 18.158V15.9507L19.9045 14.8458L21.0793 13.6045V11.5337L18.4368 9.18867H9.1875V9.1875ZM12.271 13.7422V11.2572H17.262L17.997 11.9478V13.1903L17.262 13.7422H12.271ZM12.271 18.2968V15.8118H17.262L17.997 16.5025V17.6062L17.262 18.2968H12.271Z" fill="#FF6E26"/>
<path d="M22.841 9.1875V18.1592L25.3377 20.3665H33.2652V18.158H26.9523L25.7775 16.9167V9.1875H22.841ZM9.1875 30.6273V21.6557H12.0878V29.3848L13.5368 30.6273H16.5818L17.8862 29.3848V21.6568H20.6418V30.6273L18.466 32.8358H11.508L9.1875 30.6273Z" fill="#FF6E26"/>
<path fill-rule="evenodd" clip-rule="evenodd" d="M22.5625 21.6562H31.9868L34.1615 24.0013V26.0721L33.0018 27.1769L34.1615 28.4183V32.8353H31.2623V28.9701L30.5367 28.4183H25.6075V32.8353H22.5625V21.6562ZM25.6075 23.7259V26.2109H30.6825L31.4058 25.5203V24.5543L30.5367 23.7259H25.6075Z" fill="#FF6E26"/>
</g>
<defs>
<clipPath id="clip0_4532_193347">
<rect width="42" height="42" fill="white"/>
</clipPath>
</defs>
</svg>
