<svg xmlns="http://www.w3.org/2000/svg" width="36" height="36" fill="none"><rect width="36" height="36" fill="#222" rx="18"/><path fill="#FF6E26" fill-rule="evenodd" d="M7.875 7.865v9.582h7.928l2.265-1.893v-1.892l-1.007-.947 1.007-1.064V9.876l-2.265-2.01H7.875Zm2.643 3.904v-2.13h4.278l.63.592v1.065l-.63.473h-4.278Zm0 3.904v-2.13h4.278l.63.592v.946l-.63.592h-4.278Z" clip-rule="evenodd"/><path fill="#FF6E26" d="M19.578 7.865v7.69l2.14 1.892h6.795v-1.893h-5.411l-1.007-1.064V7.865h-2.517ZM7.875 26.242v-7.69h2.486v6.625l1.242 1.065h2.61l1.118-1.065v-6.624h2.362v7.689l-1.865 1.893H9.864l-1.988-1.893Z"/><path fill="#FF6E26" fill-rule="evenodd" d="M19.308 18.553h8.078l1.864 2.01v1.775l-.994.947.994 1.064v3.786h-2.485v-3.313l-.622-.473h-4.225v3.786h-2.61v-9.582Zm2.61 1.774v2.13h4.35l.62-.592v-.828l-.745-.71h-4.225Z" clip-rule="evenodd"/></svg>