<svg xmlns="http://www.w3.org/2000/svg" width="42" height="42" fill="none"><circle cx="21" cy="21" r="21" fill="#F0B90B"/><path fill="#F3F3F3" d="M13.632 11.255 21 7l7.368 4.255-2.709 1.572L21 10.144l-4.66 2.683-2.708-1.572Zm14.736 5.366-2.709-1.572L21 17.732l-4.66-2.683-2.708 1.572v3.143l4.66 2.683v5.366L21 29.385l2.709-1.572v-5.366l4.659-2.683v-3.143Zm0 8.51v-3.145l-2.709 1.572v3.144l2.709-1.572Zm1.923 1.11-4.659 2.683v3.144L33 27.813v-8.51l-2.709 1.572v5.366Zm-2.709-12.303 2.71 1.571v3.144L33 17.081v-3.143l-2.709-1.572-2.709 1.572Zm-9.29 16.124v3.144L21 34.778l2.709-1.572v-3.144L21 31.634l-2.709-1.572Zm-4.66-4.932 2.709 1.572v-3.144l-2.709-1.572v3.144Zm4.66-11.192L21 15.509l2.709-1.571L21 12.366l-2.709 1.572Zm-6.583 1.571 2.709-1.571-2.71-1.572L9 13.938v3.143l2.709 1.572V15.51Zm0 5.366L9 19.303v8.51l7.368 4.255v-3.144l-4.66-2.683v-5.366Z"/></svg>