<svg width="42" height="42" viewBox="0 0 42 42" fill="none" xmlns="http://www.w3.org/2000/svg">
<rect width="42" height="42" rx="21" fill="url(#paint0_linear_6588_199529)"/>
<path fill-rule="evenodd" clip-rule="evenodd" d="M21 42C32.5978 42 42 32.5978 42 21C42 9.40217 32.5978 0 21 0C9.40217 0 0 9.40217 0 21C0 32.5978 9.40217 42 21 42ZM30.0067 5.00033L26.7563 8.23433C29.8504 9.63426 32.3328 12.1072 33.7447 15.1958L36.9997 11.9572L30.0078 5.00033H30.0067ZM8.20517 15.3102C9.58927 12.2093 12.0493 9.71437 15.1305 8.28683L11.9933 5.16483L5.00033 12.1217L8.20517 15.3102ZM8.20633 26.6922C9.59073 29.7933 12.0512 32.2882 15.1328 33.7155L11.9968 36.8352L5.00383 29.8783L8.20633 26.6922ZM26.7563 33.7668C29.8504 32.3669 32.3328 29.894 33.7447 26.8053L36.9985 30.0428L30.0055 36.9997L26.7563 33.7668Z" fill="#030303"/>
<path style="mix-blend-mode:lighten" opacity="0.3" fill-rule="evenodd" clip-rule="evenodd" d="M42 21C42 32.5978 32.5978 42 21 42C9.40217 42 0 32.5978 0 21C0 9.40217 9.40217 0 21 0C32.5978 0 42 9.40217 42 21ZM30.0067 5.00033L26.7563 8.23433C29.8504 9.63426 32.3328 12.1072 33.7447 15.1958L36.9997 11.9572L30.0078 5.00033H30.0067ZM8.20517 15.3102C9.58927 12.2093 12.0493 9.71437 15.1305 8.28683L11.9933 5.16483L5.00033 12.1217L8.20517 15.3102ZM8.20633 26.6922C9.59073 29.7933 12.0512 32.2882 15.1328 33.7155L11.9968 36.8352L5.00383 29.8783L8.20633 26.6922ZM26.7563 33.7668C29.8504 32.3669 32.3328 29.894 33.7447 26.8053L36.9985 30.0428L30.0055 36.9997L26.7563 33.7668Z" fill="url(#paint1_linear_6588_199529)"/>
<path d="M14.9372 13.2318L20.8814 9.80078L26.8256 13.2318L24.6402 14.4993L20.8814 12.3358L17.1226 14.4993L14.9372 13.2318ZM26.8256 17.5589L24.6402 16.2913L20.8814 18.4549L17.1226 16.2913L14.9372 17.5589V20.0939L18.696 22.2574V26.5844L20.8814 27.8519L23.0668 26.5844V22.2574L26.8256 20.0939V17.5589ZM26.8256 24.421V21.8859L24.6402 23.1534V25.6884L26.8256 24.421ZM28.3772 25.317L24.6184 27.4804V30.0155L30.5626 26.5844V19.7224L28.3772 20.9899V25.317ZM26.1919 15.3953L28.3772 16.6628V19.1979L30.5626 17.9304V15.3953L28.3772 14.1278L26.1919 15.3953ZM18.696 28.3983V30.9334L20.8814 32.2008L23.0668 30.9334V28.3983L20.8814 29.6658L18.696 28.3983ZM14.9372 24.421L17.1226 25.6884V23.1534L14.9372 21.8859V24.421ZM18.696 15.3953L20.8814 16.6628L23.0668 15.3953L20.8814 14.1278L18.696 15.3953ZM13.3856 16.6628L15.5709 15.3953L13.3856 14.1278L11.2002 15.3953V17.9304L13.3856 19.1979V16.6628ZM13.3856 20.9899L11.2002 19.7224V26.5844L17.1444 30.0155V27.4804L13.3856 25.317V20.9899Z" fill="#F3F3F3"/>
<defs>
<linearGradient id="paint0_linear_6588_199529" x1="21" y1="0" x2="21" y2="42" gradientUnits="userSpaceOnUse">
<stop stop-color="#404141"/>
<stop offset="1" stop-color="#222222"/>
</linearGradient>
<linearGradient id="paint1_linear_6588_199529" x1="21" y1="21" x2="21" y2="44.4827" gradientUnits="userSpaceOnUse">
<stop stop-color="white" stop-opacity="0"/>
<stop offset="1" stop-color="#F3F3F3"/>
</linearGradient>
</defs>
</svg>
