<svg width="42" height="42" viewBox="0 0 42 42" fill="none" xmlns="http://www.w3.org/2000/svg">
<rect width="42" height="42" rx="21" fill="url(#paint0_linear_6588_199518)"/>
<path fill-rule="evenodd" clip-rule="evenodd" d="M21 42C32.5978 42 42 32.5978 42 21C42 9.40217 32.5978 0 21 0C9.40217 0 0 9.40217 0 21C0 32.5978 9.40217 42 21 42ZM30.0067 5.00033L26.7563 8.23433C29.8504 9.63426 32.3328 12.1072 33.7447 15.1958L36.9997 11.9572L30.0078 5.00033H30.0067ZM8.20517 15.3102C9.58927 12.2093 12.0493 9.71437 15.1305 8.28683L11.9933 5.16483L5.00033 12.1217L8.20517 15.3102ZM8.20633 26.6922C9.59073 29.7933 12.0512 32.2882 15.1328 33.7155L11.9968 36.8352L5.00383 29.8783L8.20633 26.6922ZM26.7563 33.7668C29.8504 32.3669 32.3328 29.894 33.7447 26.8053L36.9985 30.0428L30.0055 36.9997L26.7563 33.7668Z" fill="#F3F3F3"/>
<path style="mix-blend-mode:multiply" opacity="0.5" fill-rule="evenodd" clip-rule="evenodd" d="M42 21C42 32.5978 32.5978 42 21 42C9.40217 42 0 32.5978 0 21C0 9.40217 9.40217 0 21 0C32.5978 0 42 9.40217 42 21ZM30.0067 5.00033L26.7563 8.23433C29.8504 9.63426 32.3328 12.1072 33.7447 15.1958L36.9997 11.9572L30.0078 5.00033H30.0067ZM8.20517 15.3102C9.58927 12.2093 12.0493 9.71437 15.1305 8.28683L11.9933 5.16483L5.00033 12.1217L8.20517 15.3102ZM8.20633 26.6922C9.59073 29.7933 12.0512 32.2882 15.1328 33.7155L11.9968 36.8352L5.00383 29.8783L8.20633 26.6922ZM26.7563 33.7668C29.8504 32.3669 32.3328 29.894 33.7447 26.8053L36.9985 30.0428L30.0055 36.9997L26.7563 33.7668Z" fill="url(#paint1_linear_6588_199518)"/>
<path d="M14.9391 13.2338L20.8834 9.80273L26.8276 13.2338L24.6422 14.5013L20.8834 12.3378L17.1245 14.5013L14.9391 13.2338ZM26.8276 17.5608L24.6422 16.2933L20.8834 18.4568L17.1245 16.2933L14.9391 17.5608V20.0958L18.698 22.2593V26.5863L20.8834 27.8539L23.0687 26.5863V22.2593L26.8276 20.0958V17.5608ZM26.8276 24.4229V21.8878L24.6422 23.1554V25.6903L26.8276 24.4229ZM28.3792 25.3189L24.6203 27.4824V30.0175L30.5646 26.5863V19.7243L28.3792 20.9918V25.3189ZM26.1939 15.3973L28.3792 16.6648V19.1998L30.5646 17.9323V15.3973L28.3792 14.1298L26.1939 15.3973ZM18.698 28.4002V30.9353L20.8834 32.2027L23.0687 30.9353V28.4002L20.8834 29.6678L18.698 28.4002ZM14.9391 24.4229L17.1245 25.6903V23.1554L14.9391 21.8878V24.4229ZM18.698 15.3973L20.8834 16.6648L23.0687 15.3973L20.8834 14.1298L18.698 15.3973ZM13.3875 16.6648L15.5729 15.3973L13.3875 14.1298L11.2021 15.3973V17.9323L13.3875 19.1998V16.6648ZM13.3875 20.9918L11.2021 19.7243V26.5863L17.1464 30.0175V27.4824L13.3875 25.3189V20.9918Z" fill="#030303"/>
<defs>
<linearGradient id="paint0_linear_6588_199518" x1="21" y1="0" x2="21" y2="42" gradientUnits="userSpaceOnUse">
<stop stop-color="#404141"/>
<stop offset="1" stop-color="#222222"/>
</linearGradient>
<linearGradient id="paint1_linear_6588_199518" x1="21" y1="15.1153" x2="21" y2="44.4827" gradientUnits="userSpaceOnUse">
<stop stop-color="white"/>
<stop offset="1" stop-color="#7D7D7D"/>
</linearGradient>
</defs>
</svg>
