<svg xmlns="http://www.w3.org/2000/svg" width="42" height="42" fill="none"><g clip-path="url(#a)"><mask id="b" width="42" height="42" x="0" y="0" maskUnits="userSpaceOnUse" style="mask-type:alpha"><circle cx="21" cy="21" r="21" fill="#D9D9D9"/></mask><g mask="url(#b)"><path fill="#229E45" d="M52.625 0H-13v45.937h65.625V0Z"/><path fill="#F8E509" fill-rule="evenodd" d="m21.03 37.122 24.813-16.105L20.881 4.87-4.016 21.056 21.03 37.122Z" clip-rule="evenodd"/><path fill="#2B49A3" fill-rule="evenodd" d="M31.841 20.998a10.466 10.466 0 0 0-3.036-7.48 10.497 10.497 0 0 0-7.46-3.108 10.512 10.512 0 0 0-7.46 3.108 10.477 10.477 0 0 0-3.037 7.48 10.464 10.464 0 0 0 3.036 7.48 10.499 10.499 0 0 0 7.46 3.107 10.511 10.511 0 0 0 7.461-3.107 10.48 10.48 0 0 0 3.037-7.48Z" clip-rule="evenodd"/><path fill="#FFFFEF" fill-rule="evenodd" d="m17.893 27.275-.325-.187-.336.167.075-.375-.26-.274.372-.044.175-.335.155.347.368.066-.276.258.052.377ZM24.927 29.056l-.324-.187-.337.167.076-.375-.26-.274.372-.043.174-.336.156.347.367.067-.275.258.051.376ZM21.897 26.21l-.28-.161-.29.144.064-.324-.224-.237.321-.037.15-.29.136.3.317.057-.238.223.044.326ZM29 25.186l-.275-.159-.286.142.064-.318-.22-.232.315-.037.149-.285.132.294.311.057-.234.219.044.32ZM21.767 23.056l-.324-.187-.337.167.075-.375-.26-.274.372-.043.175-.336.156.347.367.067-.276.258.052.376ZM13.106 19.804l-.325-.187-.337.167.076-.374-.26-.275.372-.043.175-.336.155.347.367.067-.275.257.052.377ZM14.146 24.13l-.324-.187-.337.167.075-.374-.26-.275.372-.043.175-.336.156.347.367.067-.275.258.051.377ZM24.956 18.211l-.286-.165-.298.147.067-.33-.23-.243.329-.038.154-.297.138.307.324.059-.243.227.045.333ZM24.362 21.026l-.226-.13-.234.116.052-.26-.18-.191.258-.03.122-.234.108.241.256.047-.192.18.036.261ZM12.623 24.911l-.217-.125-.225.111.05-.25-.173-.183.248-.029.117-.224.104.232.245.044-.184.172.035.252ZM29.06 25.91l-.176-.093-.183.083.041-.187-.141-.137.202-.022.095-.167.085.173.2.034-.15.128.028.188Z" clip-rule="evenodd"/><path fill="#FFFFEF" fill-rule="evenodd" d="m12.623 24.911-.217-.125-.225.111.05-.25-.173-.183.248-.029.117-.224.104.232.245.044-.184.172.035.252Z" clip-rule="evenodd"/><path fill="#FFFFEF" fill-rule="evenodd" d="m12.623 24.911-.217-.125-.225.111.05-.25-.173-.183.248-.029.117-.224.104.232.245.044-.184.172.035.252ZM16.07 24.911l-.216-.125-.225.111.05-.25-.173-.183.248-.029.117-.224.104.232.245.044-.184.172.035.252ZM15.642 26.06l-.217-.125-.225.11.05-.25-.173-.182.249-.03.116-.224.104.232.245.045-.184.172.035.251ZM22.798 23.974l-.216-.125-.225.11.05-.25-.174-.182.249-.03.117-.224.104.232.245.045-.184.172.034.252ZM20.699 23.974l-.217-.125-.225.11.05-.25-.173-.182.248-.03.117-.224.104.232.245.045-.184.172.035.252ZM15.002 23.24l-.135-.079-.141.07.031-.157-.109-.115.156-.018.073-.14.065.145.154.028-.115.108.021.157ZM28.793 26.817l-.216-.125-.225.112.05-.25-.174-.183.249-.03.117-.224.104.232.245.045-.184.172.034.251ZM27.046 27.046l-.18-.104-.186.093.042-.208-.144-.152.206-.024.097-.186.086.192.203.037-.153.143.029.21ZM27.87 27.025l-.167-.096-.173.085.039-.193-.134-.141.191-.023.09-.173.08.18.19.034-.142.133.026.194ZM30.239 24.958l-.16-.093-.168.083.037-.186-.129-.136.185-.022.087-.166.077.172.182.033-.137.128.026.187ZM27.025 28.213l-.21-.115-.219.102.05-.23-.17-.167.242-.027.113-.206.1.213.239.041-.179.158.034.23ZM27.037 29.154l-.192-.114-.2.102.045-.23-.153-.168.22-.026.103-.206.092.212.217.041-.163.158.03.231ZM25.448 27.024l-.16-.093-.168.083.037-.186-.129-.136.185-.021.087-.167.077.172.182.033-.137.128.026.187ZM23.96 27.028l-.162-.093-.167.083.038-.186-.13-.136.185-.022.087-.166.077.172.182.033-.136.128.025.187ZM21.43 24.813l-.16-.093-.168.083.038-.186-.13-.136.185-.022.087-.166.077.172.182.033-.136.128.025.187ZM21.712 29.323l-.136-.078-.141.07.031-.158-.11-.115.157-.018.074-.141.065.146.154.028-.115.108.021.158ZM17.893 22.033l-.325-.187-.336.166.075-.374-.26-.274.372-.044.175-.336.155.348.368.066-.276.258.052.377Z" clip-rule="evenodd"/><path fill="#fff" fill-rule="evenodd" d="M31.15 24.769c.16-.42.367-1.05.477-1.629-5.576-4.898-11.791-7.407-19.646-6.89a10.18 10.18 0 0 0-.696 1.715c9.305-.887 16.126 3.233 19.865 6.804Z" clip-rule="evenodd"/><path fill="#309E3A" d="m28.645 22.014.198.108a.287.287 0 0 0-.025.185c.014.054.05.1.11.14.06.041.117.06.165.055a.14.14 0 0 0 .11-.06.107.107 0 0 0 .018-.071.181.181 0 0 0-.04-.088 2.806 2.806 0 0 0-.126-.147.63.63 0 0 1-.153-.242.295.295 0 0 1 .043-.251.29.29 0 0 1 .132-.108.318.318 0 0 1 .184-.017.564.564 0 0 1 .21.094c.12.082.192.169.216.263a.336.336 0 0 1-.046.275l-.198-.123c.025-.054.03-.101.018-.141-.012-.04-.045-.079-.1-.115a.263.263 0 0 0-.153-.055.086.086 0 0 0-.072.038.09.09 0 0 0-.01.078c.01.037.055.098.134.184.078.086.132.156.16.21.03.054.042.11.04.169a.342.342 0 0 1-.064.178.335.335 0 0 1-.35.142.655.655 0 0 1-.23-.106c-.12-.082-.195-.173-.221-.273a.432.432 0 0 1 .05-.322ZM27.7 21.392l.202.101a.28.28 0 0 0-.018.185.25.25 0 0 0 .116.134c.063.04.12.057.168.05a.141.141 0 0 0 .107-.065.104.104 0 0 0 .015-.072.185.185 0 0 0-.044-.087 3.302 3.302 0 0 0-.13-.14.634.634 0 0 1-.164-.236.306.306 0 0 1 .031-.253.312.312 0 0 1 .313-.138c.067.011.139.04.213.086.123.076.199.162.227.253a.34.34 0 0 1-.035.277l-.203-.114c.022-.056.026-.103.013-.143-.014-.038-.049-.076-.105-.11a.263.263 0 0 0-.155-.049.085.085 0 0 0-.07.042.085.085 0 0 0-.008.077c.013.038.06.097.14.179.083.083.14.15.17.203a.32.32 0 0 1 .047.167.36.36 0 0 1-.201.31.338.338 0 0 1-.2.027.663.663 0 0 1-.234-.096.507.507 0 0 1-.232-.263.444.444 0 0 1 .037-.325ZM26.53 21.078l.598-.984.729.445-.102.167-.53-.325-.133.219.493.302-.1.166-.493-.303-.163.269.548.335-.101.166-.747-.457ZM24.828 19.681l.088-.174.445.23-.21.409a.602.602 0 0 1-.246.013.76.76 0 0 1-.273-.08.64.64 0 0 1-.245-.211.5.5 0 0 1-.08-.286.71.71 0 0 1 .08-.305.659.659 0 0 1 .214-.25.502.502 0 0 1 .294-.09c.083 0 .172.025.27.075a.539.539 0 0 1 .256.235c.044.09.053.187.025.292l-.225-.068a.246.246 0 0 0-.02-.16.28.28 0 0 0-.125-.122.317.317 0 0 0-.26-.025c-.083.03-.153.101-.211.214-.062.122-.083.227-.06.317a.308.308 0 0 0 .166.2c.042.023.09.036.142.042a.5.5 0 0 0 .144-.004l.066-.13-.235-.122ZM17.399 17.84l.168-1.14.344.05.092.809.317-.748.346.05-.168 1.142-.214-.03.132-.9-.358.865-.22-.032-.094-.932-.132.899-.213-.032ZM16.238 17.703l.108-1.148.848.08-.018.195-.617-.058-.025.254.576.054-.018.193-.576-.053-.028.312.638.06-.018.194-.87-.083ZM12.395 16.987a.739.739 0 0 1 .06-.295.565.565 0 0 1 .111-.155.463.463 0 0 1 .153-.1.624.624 0 0 1 .248-.04c.17.005.304.062.402.17.1.109.146.257.141.444-.005.186-.06.33-.163.434a.537.537 0 0 1-.41.146.54.54 0 0 1-.402-.168.605.605 0 0 1-.14-.436Z"/><path fill="#F7FFFF" d="M12.635 16.984c-.004.132.023.231.081.3.058.07.135.105.227.107a.29.29 0 0 0 .23-.093c.06-.066.094-.165.098-.3.003-.131-.023-.23-.08-.298a.289.289 0 0 0-.226-.103.297.297 0 0 0-.235.092c-.06.065-.092.163-.095.295Z"/><path fill="#309E3A" d="m13.758 17.582.015-1.153.487.005a.793.793 0 0 1 .267.036c.056.02.1.057.133.111s.05.114.048.183a.304.304 0 0 1-.079.212.36.36 0 0 1-.228.105.5.5 0 0 1 .122.098c.034.035.077.099.13.188l.139.227-.278-.002-.164-.253a1.459 1.459 0 0 0-.12-.172.191.191 0 0 0-.07-.049.405.405 0 0 0-.117-.014l-.047-.001-.005.481-.233-.002Z"/><path fill="#fff" d="m14 16.918.17.002c.111 0 .182-.002.209-.012a.122.122 0 0 0 .066-.049.144.144 0 0 0 .024-.085.14.14 0 0 0-.03-.094.138.138 0 0 0-.086-.046 2.046 2.046 0 0 0-.17-.007l-.181-.002-.003.293Z"/><path fill="#309E3A" d="m15.071 16.484.424.02a.836.836 0 0 1 .217.033.388.388 0 0 1 .168.116.499.499 0 0 1 .1.192c.022.075.03.166.025.274a.78.78 0 0 1-.05.244.491.491 0 0 1-.132.197.395.395 0 0 1-.167.084.668.668 0 0 1-.207.014l-.436-.023.058-1.151Z"/><path fill="#fff" d="m15.294 16.69-.04.763.174.01a.626.626 0 0 0 .14-.004.207.207 0 0 0 .096-.044.233.233 0 0 0 .067-.106.744.744 0 0 0 .034-.21.69.69 0 0 0-.014-.208.218.218 0 0 0-.164-.174.823.823 0 0 0-.19-.02l-.103-.007Z"/><path fill="#309E3A" d="m20.72 18.546.268-1.12.362.086c.137.034.226.06.265.081.06.033.105.083.134.15.03.066.035.144.012.233a.381.381 0 0 1-.078.166.325.325 0 0 1-.251.112 1.249 1.249 0 0 1-.238-.04l-.148-.036-.1.422-.226-.054Z"/><path fill="#fff" d="m21.17 17.668-.078.318.124.03c.09.022.15.03.183.026a.14.14 0 0 0 .083-.039.148.148 0 0 0 .047-.08.15.15 0 0 0-.09-.182 1.04 1.04 0 0 0-.161-.047l-.109-.026Z"/><path fill="#309E3A" d="m21.787 18.867.382-1.087.46.162c.116.042.197.08.243.12a.266.266 0 0 1 .09.148.348.348 0 0 1-.014.188.307.307 0 0 1-.143.177.36.36 0 0 1-.25.025.506.506 0 0 1 .085.132c.02.045.04.119.063.22l.058.26-.262-.092-.075-.292a1.479 1.479 0 0 0-.06-.201.176.176 0 0 0-.049-.07.345.345 0 0 0-.106-.05l-.044-.017-.16.455-.218-.078Z"/><path fill="#fff" d="m22.226 18.32.161.057a.857.857 0 0 0 .202.055c.029 0 .056-.008.078-.024a.153.153 0 0 0 .051-.074.138.138 0 0 0 0-.099.143.143 0 0 0-.066-.072c-.017-.008-.07-.028-.159-.06l-.17-.06-.097.276Z"/><path fill="#309E3A" d="M23.137 18.825a.765.765 0 0 1 .138-.267.564.564 0 0 1 .148-.119.465.465 0 0 1 .174-.055.628.628 0 0 1 .25.03.54.54 0 0 1 .34.272c.067.132.072.287.017.467-.056.178-.147.302-.274.372a.528.528 0 0 1-.433.03.54.54 0 0 1-.343-.271c-.065-.13-.07-.283-.017-.46Z"/><path fill="#fff" d="M23.368 18.887c-.04.125-.04.229-.002.311.037.081.1.137.188.165.088.028.17.018.247-.029.076-.045.135-.133.175-.26.039-.127.04-.228.004-.309a.29.29 0 0 0-.19-.161.296.296 0 0 0-.25.025c-.075.045-.133.132-.172.258Z"/><path fill="#309E3A" d="m25.384 20.43.527-1.025.433.226a.837.837 0 0 1 .224.15c.04.044.063.098.069.16a.353.353 0 0 1-.039.186.312.312 0 0 1-.166.155.354.354 0 0 1-.25-.011c.03.05.053.098.065.144.013.047.023.121.032.227l.021.264-.246-.128-.034-.3a1.466 1.466 0 0 0-.031-.206.17.17 0 0 0-.04-.075.349.349 0 0 0-.098-.066l-.042-.022-.22.428-.205-.107Z"/><path fill="#fff" d="m25.894 19.945.152.08c.1.051.163.079.192.084.029.004.056 0 .08-.014a.156.156 0 0 0 .061-.067.133.133 0 0 0 .014-.096.14.14 0 0 0-.055-.081 2.716 2.716 0 0 0-.15-.081l-.16-.084-.134.26Z"/><path fill="#309E3A" d="M29.648 22.536a.734.734 0 0 1 .209-.216.56.56 0 0 1 .177-.071.464.464 0 0 1 .181-.003c.077.016.153.05.23.102.141.096.224.215.25.36.025.144-.015.294-.12.45-.104.154-.227.247-.369.278a.538.538 0 0 1-.424-.098.547.547 0 0 1-.25-.359.606.606 0 0 1 .116-.443Z"/><path fill="#fff" d="M29.852 22.664c-.074.107-.105.206-.093.296a.3.3 0 0 0 .134.213.289.289 0 0 0 .244.045c.087-.023.168-.088.243-.2.074-.108.105-.207.093-.294a.295.295 0 0 0-.136-.21.297.297 0 0 0-.247-.048c-.086.022-.165.087-.238.198Z"/><path fill="#309E3A" d="m19.418 18.076.184-.81.6.138-.032.137-.435-.101-.042.18.405.093-.032.136-.404-.093-.05.22.45.105-.031.136-.613-.141Z"/></g></g><defs><clipPath id="a"><rect width="42" height="42" fill="#fff" rx="21"/></clipPath></defs></svg>