<svg width="42" height="42" viewBox="0 0 42 42" fill="none" xmlns="http://www.w3.org/2000/svg">
<g clip-path="url(#clip0_7674_311007)">
<mask id="mask0_7674_311007" style="mask-type:alpha" maskUnits="userSpaceOnUse" x="0" y="0" width="42" height="42">
<circle cx="21" cy="21" r="21" fill="#D9D9D9"/>
</mask>
<g mask="url(#mask0_7674_311007)">
<path d="M52.6251 0H-13V45.9373H52.6251V0Z" fill="#229E45"/>
<path fill-rule="evenodd" clip-rule="evenodd" d="M21.0294 37.1221L45.8432 21.0171L20.8807 4.86914L-4.01562 21.0558L21.0294 37.1221Z" fill="#F8E509"/>
<path fill-rule="evenodd" clip-rule="evenodd" d="M31.8415 20.9977C31.8556 19.6124 31.5946 18.2381 31.0734 16.9542C30.5522 15.6703 29.7813 14.5023 28.8052 13.5178C27.8291 12.5332 26.6672 11.7516 25.3866 11.2182C24.1061 10.6848 22.7324 10.4102 21.3448 10.4102C19.9573 10.4102 18.5836 10.6848 17.303 11.2182C16.0225 11.7516 14.8606 12.5332 13.8844 13.5178C12.9083 14.5023 12.1374 15.6703 11.6163 16.9542C11.0951 18.2381 10.834 19.6124 10.8482 20.9977C10.834 22.3829 11.0951 23.7572 11.6163 25.0411C12.1374 26.325 12.9083 27.493 13.8844 28.4776C14.8606 29.4622 16.0225 30.2437 17.303 30.7771C18.5836 31.3105 19.9573 31.5852 21.3448 31.5852C22.7324 31.5852 24.1061 31.3105 25.3866 30.7771C26.6672 30.2437 27.8291 29.4622 28.8052 28.4776C29.7813 27.493 30.5522 26.325 31.0734 25.0411C31.5946 23.7572 31.8556 22.3829 31.8415 20.9977Z" fill="#2B49A3"/>
<path fill-rule="evenodd" clip-rule="evenodd" d="M17.8928 27.2752L17.5685 27.088L17.2317 27.2546L17.3071 26.8803L17.0469 26.6059L17.4189 26.5623L17.5937 26.2266L17.7495 26.5739L18.1166 26.6405L17.8413 26.8982L17.8928 27.2752Z" fill="#FFFFEF"/>
<path fill-rule="evenodd" clip-rule="evenodd" d="M24.9275 29.0564L24.6032 28.8692L24.2663 29.0359L24.3417 28.6615L24.0815 28.3872L24.4536 28.3436L24.6283 28.0078L24.7842 28.3551L25.1512 28.4218L24.876 28.6795L24.9275 29.0564Z" fill="#FFFFEF"/>
<path fill-rule="evenodd" clip-rule="evenodd" d="M21.8974 26.2106L21.6172 26.0489L21.3261 26.1929L21.3913 25.8694L21.1665 25.6324L21.488 25.5948L21.6389 25.3047L21.7736 25.6047L22.0907 25.6623L21.8528 25.8849L21.8974 26.2106Z" fill="#FFFFEF"/>
<path fill-rule="evenodd" clip-rule="evenodd" d="M29.0003 25.1863L28.7252 25.0275L28.4394 25.1689L28.5034 24.8513L28.2827 24.6186L28.5983 24.5817L28.7465 24.2969L28.8787 24.5915L29.19 24.648L28.9565 24.8666L29.0003 25.1863Z" fill="#FFFFEF"/>
<path fill-rule="evenodd" clip-rule="evenodd" d="M21.7669 23.0564L21.4426 22.8692L21.1057 23.0359L21.1811 22.6615L20.9209 22.3872L21.293 22.3436L21.4677 22.0078L21.6236 22.3551L21.9906 22.4218L21.7153 22.6795L21.7669 23.0564Z" fill="#FFFFEF"/>
<path fill-rule="evenodd" clip-rule="evenodd" d="M13.1057 19.8044L12.7814 19.6173L12.4445 19.7839L12.52 19.4096L12.2598 19.1352L12.6318 19.0916L12.8066 18.7559L12.9624 19.1032L13.3295 19.1698L13.0542 19.4275L13.1057 19.8044Z" fill="#FFFFEF"/>
<path fill-rule="evenodd" clip-rule="evenodd" d="M14.1462 24.1306L13.8219 23.9434L13.4851 24.1101L13.5605 23.7357L13.3003 23.4614L13.6724 23.4178L13.8471 23.082L14.003 23.4293L14.37 23.496L14.0947 23.7537L14.1462 24.1306Z" fill="#FFFFEF"/>
<path fill-rule="evenodd" clip-rule="evenodd" d="M24.9563 18.2114L24.6698 18.0461L24.3722 18.1933L24.4388 17.8626L24.209 17.6203L24.5377 17.5818L24.692 17.2852L24.8297 17.5919L25.1539 17.6508L24.9107 17.8785L24.9563 18.2114Z" fill="#FFFFEF"/>
<path fill-rule="evenodd" clip-rule="evenodd" d="M24.362 21.0264L24.1364 20.8962L23.902 21.0121L23.9545 20.7517L23.7734 20.5608L24.0323 20.5305L24.1538 20.2969L24.2623 20.5385L24.5176 20.5849L24.3261 20.7642L24.362 21.0264Z" fill="#FFFFEF"/>
<path fill-rule="evenodd" clip-rule="evenodd" d="M12.6229 24.911L12.4064 24.786L12.1815 24.8973L12.2318 24.6474L12.0581 24.4642L12.3065 24.4351L12.4232 24.2109L12.5272 24.4428L12.7723 24.4873L12.5885 24.6594L12.6229 24.911Z" fill="#FFFFEF"/>
<path fill-rule="evenodd" clip-rule="evenodd" d="M29.0608 25.9105L28.8844 25.817L28.7011 25.9002L28.7421 25.7132L28.6006 25.5762L28.803 25.5544L28.8981 25.3867L28.9829 25.5602L29.1826 25.5935L29.0328 25.7222L29.0608 25.9105Z" fill="#FFFFEF"/>
<path fill-rule="evenodd" clip-rule="evenodd" d="M12.6229 24.911L12.4064 24.786L12.1815 24.8973L12.2318 24.6474L12.0581 24.4642L12.3065 24.4351L12.4232 24.2109L12.5272 24.4428L12.7723 24.4873L12.5885 24.6594L12.6229 24.911Z" fill="#FFFFEF"/>
<path fill-rule="evenodd" clip-rule="evenodd" d="M12.6229 24.911L12.4064 24.786L12.1815 24.8973L12.2318 24.6474L12.0581 24.4642L12.3065 24.4351L12.4232 24.2109L12.5272 24.4428L12.7723 24.4873L12.5885 24.6594L12.6229 24.911Z" fill="#FFFFEF"/>
<path fill-rule="evenodd" clip-rule="evenodd" d="M16.0707 24.911L15.8541 24.786L15.6292 24.8973L15.6796 24.6474L15.5059 24.4642L15.7543 24.4351L15.8709 24.2109L15.975 24.4428L16.22 24.4873L16.0362 24.6594L16.0707 24.911Z" fill="#FFFFEF"/>
<path fill-rule="evenodd" clip-rule="evenodd" d="M15.6419 26.0594L15.4254 25.9345L15.2005 26.0458L15.2509 25.7958L15.0771 25.6126L15.3256 25.5835L15.4422 25.3594L15.5463 25.5912L15.7913 25.6358L15.6075 25.8078L15.6419 26.0594Z" fill="#FFFFEF"/>
<path fill-rule="evenodd" clip-rule="evenodd" d="M22.7982 23.9735L22.5817 23.8485L22.3568 23.9598L22.4071 23.7099L22.2334 23.5267L22.4818 23.4976L22.5985 23.2734L22.7025 23.5053L22.9476 23.5498L22.7638 23.7219L22.7982 23.9735Z" fill="#FFFFEF"/>
<path fill-rule="evenodd" clip-rule="evenodd" d="M20.6986 23.9735L20.4821 23.8485L20.2572 23.9598L20.3075 23.7099L20.1338 23.5267L20.3822 23.4976L20.4988 23.2734L20.6029 23.5053L20.848 23.5498L20.6642 23.7219L20.6986 23.9735Z" fill="#FFFFEF"/>
<path fill-rule="evenodd" clip-rule="evenodd" d="M15.0024 23.2395L14.8667 23.1612L14.7257 23.2309L14.7573 23.0743L14.6484 22.9595L14.8041 22.9413L14.8772 22.8008L14.9424 22.9461L15.096 22.974L14.9808 23.0818L15.0024 23.2395Z" fill="#FFFFEF"/>
<path fill-rule="evenodd" clip-rule="evenodd" d="M28.7933 26.8173L28.5768 26.6923L28.3519 26.8036L28.4022 26.5536L28.2285 26.3705L28.4769 26.3414L28.5936 26.1172L28.6976 26.3491L28.9427 26.3936L28.7589 26.5656L28.7933 26.8173Z" fill="#FFFFEF"/>
<path fill-rule="evenodd" clip-rule="evenodd" d="M27.046 27.0462L26.8666 26.9424L26.6803 27.0348L26.722 26.8273L26.5781 26.6752L26.7839 26.651L26.8805 26.4648L26.9667 26.6574L27.1697 26.6944L27.0175 26.8372L27.046 27.0462Z" fill="#FFFFEF"/>
<path fill-rule="evenodd" clip-rule="evenodd" d="M27.8703 27.025L27.7033 26.9285L27.5297 27.0144L27.5686 26.8214L27.4346 26.68L27.6262 26.6575L27.7162 26.4844L27.7965 26.6634L27.9856 26.6978L27.8438 26.8307L27.8703 27.025Z" fill="#FFFFEF"/>
<path fill-rule="evenodd" clip-rule="evenodd" d="M30.239 24.9577L30.0781 24.8648L29.911 24.9475L29.9484 24.7618L29.8193 24.6257L30.0039 24.6041L30.0906 24.4375L30.1679 24.6098L30.35 24.6429L30.2135 24.7707L30.239 24.9577Z" fill="#FFFFEF"/>
<path fill-rule="evenodd" clip-rule="evenodd" d="M27.0247 28.2129L26.8146 28.0982L26.5963 28.2003L26.6452 27.9709L26.4766 27.8028L26.7176 27.7761L26.8308 27.5703L26.9318 27.7831L27.1696 27.824L26.9913 27.9819L27.0247 28.2129Z" fill="#FFFFEF"/>
<path fill-rule="evenodd" clip-rule="evenodd" d="M27.0366 29.1543L26.8449 29.0396L26.6458 29.1417L26.6904 28.9123L26.5366 28.7442L26.7565 28.7175L26.8598 28.5117L26.9519 28.7245L27.1688 28.7654L27.0061 28.9233L27.0366 29.1543Z" fill="#FFFFEF"/>
<path fill-rule="evenodd" clip-rule="evenodd" d="M25.448 27.0241L25.2871 26.9313L25.12 27.0139L25.1574 26.8282L25.0283 26.6921L25.2129 26.6705L25.2996 26.5039L25.3769 26.6762L25.559 26.7093L25.4225 26.8371L25.448 27.0241Z" fill="#FFFFEF"/>
<path fill-rule="evenodd" clip-rule="evenodd" d="M23.9593 27.028L23.7984 26.9352L23.6312 27.0178L23.6686 26.8321L23.5396 26.696L23.7241 26.6744L23.8108 26.5078L23.8882 26.6801L24.0703 26.7132L23.9337 26.841L23.9593 27.028Z" fill="#FFFFEF"/>
<path fill-rule="evenodd" clip-rule="evenodd" d="M21.4304 24.8132L21.2696 24.7203L21.1024 24.803L21.1398 24.6173L21.0107 24.4812L21.1953 24.4595L21.282 24.293L21.3594 24.4653L21.5415 24.4983L21.4049 24.6262L21.4304 24.8132Z" fill="#FFFFEF"/>
<path fill-rule="evenodd" clip-rule="evenodd" d="M21.7124 29.3234L21.5761 29.2448L21.4346 29.3148L21.4663 29.1575L21.3569 29.0422L21.5133 29.0239L21.5867 28.8828L21.6522 29.0288L21.8065 29.0568L21.6908 29.1651L21.7124 29.3234Z" fill="#FFFFEF"/>
<path fill-rule="evenodd" clip-rule="evenodd" d="M17.8928 22.033L17.5685 21.8458L17.2317 22.0124L17.3071 21.6381L17.0469 21.3637L17.4189 21.3201L17.5937 20.9844L17.7495 21.3317L18.1166 21.3983L17.8413 21.656L17.8928 22.033Z" fill="#FFFFEF"/>
<path fill-rule="evenodd" clip-rule="evenodd" d="M31.1503 24.7686C31.31 24.3498 31.5165 23.7195 31.6266 23.1404C26.0507 18.2419 19.8359 15.7333 11.9813 16.2502C11.6991 16.7893 11.4747 17.3546 11.2847 17.9655C20.5903 17.0782 27.4109 21.1984 31.1503 24.7686Z" fill="white"/>
<path d="M28.6445 22.0144L28.8428 22.1222C28.8125 22.1927 28.8042 22.2549 28.818 22.3074C28.8317 22.3613 28.8689 22.4069 28.9281 22.447C28.9887 22.4885 29.0451 22.5078 29.0933 22.5023C29.1429 22.4981 29.1801 22.4774 29.2035 22.4429C29.2186 22.4194 29.2241 22.3959 29.2214 22.371C29.22 22.3461 29.2062 22.3171 29.1814 22.2825C29.1636 22.259 29.1222 22.2106 29.0548 22.136C28.9694 22.0406 28.9185 21.9605 28.902 21.8941C28.8786 21.8029 28.8923 21.7186 28.9446 21.6426C28.9763 21.5942 29.0217 21.5583 29.0768 21.5348C29.1333 21.5113 29.1952 21.5057 29.2613 21.5182C29.3274 21.5306 29.3976 21.5624 29.4706 21.6122C29.5904 21.6937 29.6633 21.7808 29.6867 21.8748C29.7129 21.9674 29.6964 22.06 29.6413 22.1498L29.443 22.0268C29.4678 21.9729 29.4733 21.9259 29.4609 21.8858C29.4485 21.8458 29.4155 21.8071 29.3618 21.7711C29.3054 21.7324 29.2544 21.7144 29.2076 21.7158C29.1759 21.7172 29.1539 21.7297 29.136 21.7545C29.1209 21.778 29.1181 21.8029 29.1264 21.8319C29.136 21.8693 29.1814 21.9301 29.2599 22.0158C29.3384 22.1015 29.3921 22.1719 29.4196 22.2259C29.4499 22.2798 29.4623 22.3364 29.4596 22.3945C29.4582 22.4525 29.4362 22.512 29.3962 22.5728C29.3591 22.6267 29.3095 22.6681 29.2462 22.6958C29.1842 22.7221 29.1181 22.729 29.0465 22.7151C28.9749 22.6999 28.8978 22.6654 28.8152 22.6087C28.6954 22.5272 28.6211 22.4359 28.5949 22.3364C28.5674 22.2369 28.5839 22.1291 28.6445 22.0144Z" fill="#309E3A"/>
<path d="M27.6998 21.3922L27.9022 21.4931C27.8746 21.5636 27.8677 21.6271 27.8843 21.6783C27.9022 21.7308 27.9393 21.7764 27.9999 21.8124C28.0632 21.8524 28.1197 21.869 28.1679 21.8621C28.2174 21.8552 28.2532 21.8331 28.2753 21.7971C28.289 21.7737 28.2945 21.7502 28.2904 21.7253C28.2877 21.7004 28.2725 21.6714 28.2464 21.6382C28.2285 21.6161 28.1844 21.5691 28.1156 21.4972C28.0261 21.406 27.971 21.3272 27.9517 21.2622C27.9256 21.171 27.9366 21.0867 27.9834 21.0093C28.0151 20.9596 28.0577 20.9209 28.1128 20.896C28.1679 20.8697 28.2285 20.8614 28.2959 20.8711C28.3634 20.8822 28.435 20.9112 28.5093 20.9568C28.6319 21.0328 28.7076 21.1185 28.7365 21.2097C28.7654 21.3023 28.753 21.3949 28.7007 21.4875L28.4983 21.3728C28.5203 21.3175 28.5245 21.2705 28.5107 21.2305C28.4969 21.1918 28.4625 21.1544 28.4061 21.1199C28.3496 21.0839 28.2973 21.0687 28.2505 21.0715C28.2202 21.0743 28.1968 21.0881 28.1817 21.113C28.1665 21.1365 28.1638 21.1627 28.1734 21.1904C28.1858 21.2277 28.2326 21.2871 28.3138 21.3687C28.3964 21.4516 28.4529 21.5193 28.4832 21.5719C28.5148 21.6244 28.53 21.681 28.53 21.7391C28.53 21.7972 28.5107 21.8566 28.4735 21.9202C28.4377 21.9755 28.3895 22.0183 28.329 22.0487C28.267 22.0777 28.2009 22.0874 28.1293 22.0763C28.0577 22.0639 27.9793 22.0321 27.8953 21.9796C27.7714 21.9022 27.6943 21.8151 27.6626 21.717C27.6323 21.6175 27.6447 21.5097 27.6998 21.3922Z" fill="#309E3A"/>
<path d="M26.5293 21.0779L27.1282 20.0938L27.8565 20.5388L27.7546 20.7061L27.2259 20.3812L27.0924 20.5996L27.5853 20.9023L27.4848 21.0682L26.9919 20.7655L26.8294 21.0336L27.3774 21.3695L27.2755 21.5354L26.5293 21.0779Z" fill="#309E3A"/>
<path d="M24.8277 19.6811L24.9159 19.507L25.3606 19.7378L25.1513 20.1455C25.0866 20.1663 25.004 20.1704 24.9048 20.1593C24.8071 20.1497 24.7162 20.122 24.6322 20.0792C24.5262 20.0239 24.4436 19.9534 24.3872 19.8677C24.3321 19.7806 24.3046 19.6853 24.3073 19.5816C24.3101 19.4765 24.3376 19.3757 24.3872 19.2775C24.4422 19.1697 24.5138 19.0868 24.6006 19.0273C24.6873 18.9665 24.7864 18.9375 24.8952 18.9375C24.9778 18.9375 25.0673 18.9624 25.1651 19.0121C25.2931 19.0785 25.3785 19.1559 25.4211 19.2471C25.4652 19.337 25.4735 19.4337 25.4459 19.5387L25.2215 19.471C25.2325 19.4144 25.2256 19.3604 25.2008 19.3107C25.1761 19.2609 25.1348 19.2208 25.0756 19.1891C24.9847 19.1434 24.898 19.1338 24.8154 19.1642C24.7327 19.1946 24.6625 19.2651 24.6047 19.3784C24.5427 19.5 24.5221 19.6051 24.5441 19.6949C24.5675 19.7834 24.6226 19.8497 24.7107 19.8953C24.7534 19.9175 24.8002 19.9313 24.8525 19.9368C24.9048 19.9423 24.953 19.941 24.9971 19.9327L25.0632 19.8027L24.8277 19.6811Z" fill="#309E3A"/>
<path d="M17.3989 17.8409L17.5669 16.6992L17.9111 16.7504L18.0033 17.5589L18.32 16.8112L18.6656 16.8609L18.4976 18.0026L18.2842 17.9722L18.4164 17.0724L18.0584 17.9376L17.8381 17.9059L17.7445 16.9743L17.6123 17.8727L17.3989 17.8409Z" fill="#309E3A"/>
<path d="M16.2383 17.7033L16.3457 16.5547L17.1938 16.6349L17.1759 16.8297L16.5591 16.7717L16.5343 17.026L17.1098 17.0799L17.0919 17.2734L16.5164 17.2195L16.4875 17.5319L17.1263 17.5927L17.1084 17.7862L16.2383 17.7033Z" fill="#309E3A"/>
<path d="M12.3954 16.9868C12.3982 16.8687 12.4188 16.7711 12.4556 16.6918C12.4839 16.6339 12.5206 16.5817 12.5664 16.5365C12.6141 16.4916 12.6641 16.458 12.7191 16.4371C12.7913 16.4084 12.8736 16.3956 12.9671 16.3979C13.1366 16.4024 13.2706 16.4585 13.3686 16.5678C13.4688 16.6757 13.5155 16.8242 13.5102 17.0107C13.505 17.1973 13.4508 17.3419 13.3466 17.4452C13.2429 17.5466 13.1072 17.5953 12.9377 17.5907C12.7681 17.5861 12.6331 17.5308 12.5347 17.4233C12.4374 17.3151 12.391 17.1696 12.3954 16.9868Z" fill="#309E3A"/>
<path d="M12.635 16.9844C12.6312 17.1158 12.6578 17.2151 12.7161 17.2845C12.7744 17.3539 12.8509 17.3893 12.9425 17.3912C13.0349 17.3942 13.1116 17.3626 13.1723 17.2983C13.2334 17.2321 13.267 17.1326 13.2705 16.9981C13.2742 16.8667 13.2477 16.7674 13.1908 16.7003C13.1357 16.6336 13.06 16.5992 12.9646 16.5966C12.8682 16.5946 12.7907 16.625 12.73 16.6894C12.6694 16.7537 12.638 16.8518 12.635 16.9844Z" fill="#F7FFFF"/>
<path d="M13.7582 17.5823L13.7727 16.4287L14.2602 16.434C14.3834 16.4361 14.4721 16.4466 14.5272 16.4696C14.5828 16.4907 14.6275 16.5271 14.6599 16.5813C14.6934 16.6347 14.7091 16.6951 14.7076 16.7637C14.7065 16.8497 14.6813 16.9211 14.6294 16.9764C14.5783 17.0327 14.5017 17.0674 14.4014 17.0807C14.4514 17.1103 14.4921 17.1429 14.5234 17.1785C14.5566 17.2144 14.5998 17.2776 14.6539 17.3672L14.7919 17.5944L14.5144 17.5916L14.3497 17.3386C14.2912 17.247 14.2514 17.1913 14.2292 17.1674C14.2071 17.1434 14.1841 17.128 14.1601 17.1182C14.1356 17.1103 14.0963 17.1041 14.0432 17.1039L13.9961 17.1029L13.9905 17.5845L13.7582 17.5823Z" fill="#309E3A"/>
<path d="M13.9991 16.9178L14.1705 16.9201C14.2814 16.9206 14.3516 16.9176 14.3787 16.9077C14.4066 16.8989 14.4282 16.883 14.4446 16.8592C14.4607 16.8373 14.4686 16.8079 14.4688 16.774C14.469 16.7353 14.4591 16.7032 14.4388 16.6796C14.4185 16.6561 14.39 16.6395 14.3526 16.6338C14.3329 16.6307 14.2773 16.6289 14.183 16.627L14.002 16.6246L13.9991 16.9178Z" fill="white"/>
<path d="M15.0711 16.4839L15.4947 16.5044C15.59 16.5093 15.6623 16.5204 15.7117 16.5374C15.7778 16.5616 15.8349 16.5992 15.8801 16.6534C15.9257 16.7057 15.9585 16.7706 15.9801 16.8453C16.0017 16.9201 16.0097 17.0111 16.0046 17.1194C15.9989 17.2138 15.9827 17.2959 15.9557 17.3626C15.9227 17.4454 15.8794 17.511 15.8226 17.5596C15.7813 17.5973 15.7247 17.6253 15.6559 17.6436C15.6037 17.6581 15.5344 17.6625 15.4488 17.6579L15.013 17.6354L15.0711 16.4839Z" fill="#309E3A"/>
<path d="M15.2939 16.6903L15.2549 17.4534L15.428 17.4628C15.4925 17.4661 15.5404 17.4652 15.5682 17.4593C15.6071 17.4513 15.639 17.4367 15.6637 17.4154C15.6902 17.3946 15.7126 17.359 15.7307 17.3087C15.7494 17.2566 15.7606 17.187 15.7648 17.0981C15.7691 17.0091 15.7647 16.9396 15.7512 16.8913C15.7389 16.8423 15.719 16.8041 15.6916 16.7768C15.6653 16.7488 15.6301 16.7293 15.5872 16.7177C15.5557 16.707 15.4921 16.7001 15.3976 16.6963L15.2939 16.6903Z" fill="white"/>
<path d="M20.7196 18.5464L20.9877 17.4253L21.3504 17.5124C21.4871 17.5455 21.5758 17.5724 21.6151 17.5934C21.6743 17.6256 21.7202 17.6758 21.7493 17.7423C21.7785 17.8087 21.7835 17.8872 21.761 17.976C21.7454 18.045 21.7186 18.0996 21.6829 18.1417C21.6468 18.1826 21.6059 18.2109 21.5613 18.2292C21.5162 18.2462 21.4738 18.255 21.4318 18.2536C21.3754 18.2519 21.2962 18.2387 21.1941 18.214L21.0462 18.1779L20.9455 18.6004L20.7196 18.5464Z" fill="#309E3A"/>
<path d="M21.1692 17.6678L21.0925 17.9864L21.2164 18.0158C21.3061 18.0379 21.3666 18.0467 21.399 18.0417C21.4319 18.0379 21.4598 18.0245 21.4818 18.0033C21.5056 17.9828 21.5211 17.9555 21.5288 17.9224C21.5391 17.8813 21.5344 17.8457 21.5179 17.8132C21.5002 17.7811 21.4739 17.7566 21.4382 17.7414C21.4124 17.7296 21.3593 17.7137 21.2777 17.6943L21.1692 17.6678Z" fill="white"/>
<path d="M21.7872 18.8672L22.1689 17.7798L22.6289 17.9421C22.7449 17.9839 22.8255 18.0224 22.8716 18.0616C22.9175 18.0996 22.9469 18.1488 22.9615 18.2102C22.9745 18.2706 22.9704 18.3342 22.9484 18.3983C22.9197 18.4794 22.8717 18.5392 22.8049 18.5748C22.7385 18.6117 22.6561 18.6195 22.5557 18.6001C22.5935 18.6443 22.6215 18.6883 22.6398 18.732C22.6598 18.7768 22.6804 18.8505 22.703 18.9529L22.761 19.2125L22.4991 19.1203L22.4241 18.8276C22.398 18.722 22.3781 18.6564 22.3648 18.6266C22.3515 18.5968 22.336 18.5745 22.3151 18.5578C22.2954 18.5407 22.2592 18.5238 22.209 18.5065L22.1647 18.4904L22.0052 18.9446L21.7872 18.8672Z" fill="#309E3A"/>
<path d="M22.2259 18.3192L22.3874 18.3767C22.4923 18.413 22.5597 18.4328 22.5886 18.4321C22.6178 18.4328 22.6447 18.4243 22.6665 18.4075C22.6888 18.3919 22.7057 18.3666 22.718 18.3343C22.7306 18.2976 22.7302 18.2644 22.7185 18.2355C22.7081 18.2063 22.6851 18.1818 22.6525 18.1626C22.6352 18.1547 22.5818 18.1354 22.4932 18.1032L22.3225 18.0425L22.2259 18.3192Z" fill="white"/>
<path d="M23.1367 18.8246C23.173 18.7126 23.2187 18.623 23.2748 18.5583C23.3176 18.5103 23.3671 18.4701 23.4234 18.439C23.481 18.4076 23.5387 18.3901 23.5969 18.3837C23.6741 18.3758 23.7572 18.3871 23.8465 18.4148C24.0084 18.4654 24.1222 18.5559 24.1879 18.6861C24.2539 18.8176 24.2587 18.9733 24.2036 19.1527C24.1481 19.3308 24.0568 19.4552 23.9295 19.5246C23.8014 19.5956 23.6576 19.6054 23.497 19.5544C23.3334 19.5029 23.2183 19.4129 23.1543 19.2836C23.0887 19.1533 23.0834 19.0006 23.1367 18.8246Z" fill="#309E3A"/>
<path d="M23.3682 18.8874C23.3286 19.0116 23.3277 19.1157 23.3664 19.198C23.4034 19.2794 23.4661 19.3347 23.5542 19.3628C23.6423 19.3909 23.7247 19.3814 23.8014 19.3343C23.8772 19.2889 23.936 19.201 23.9761 19.0738C24.0149 18.9471 24.0165 18.8456 23.9799 18.7655C23.945 18.6863 23.8813 18.6326 23.7903 18.604C23.6993 18.5754 23.6152 18.584 23.5394 18.6294C23.4649 18.6744 23.407 18.7607 23.3682 18.8874Z" fill="white"/>
<path d="M25.3836 20.4302L25.9111 19.4048L26.3444 19.6307C26.4534 19.6868 26.5281 19.7375 26.5683 19.7814C26.6085 19.8253 26.631 19.8794 26.6369 19.941C26.6416 20.004 26.6285 20.065 26.5981 20.1268C26.5585 20.2031 26.5026 20.2544 26.4317 20.2817C26.3608 20.3091 26.2782 20.3053 26.1812 20.2708C26.2127 20.3212 26.2345 20.3687 26.2466 20.4146C26.2602 20.4616 26.2703 20.5362 26.2787 20.642L26.3003 20.9059L26.0536 20.7782L26.0196 20.4779C26.0084 20.3711 25.9976 20.302 25.9887 20.272C25.9796 20.2406 25.9672 20.215 25.9489 20.1969C25.9318 20.1773 25.8982 20.1556 25.8509 20.1314L25.8093 20.1093L25.5888 20.5371L25.3836 20.4302Z" fill="#309E3A"/>
<path d="M25.8939 19.9452L26.0461 20.0245C26.1451 20.0764 26.209 20.104 26.2378 20.1087C26.2666 20.1134 26.2944 20.1087 26.3184 20.0951C26.3424 20.0814 26.3628 20.0601 26.3793 20.0284C26.3969 19.9952 26.4011 19.9622 26.3935 19.932C26.3871 19.9003 26.3679 19.8742 26.3382 19.8506C26.3221 19.8404 26.2717 19.8125 26.1885 19.7696L26.0278 19.6859L25.8939 19.9452Z" fill="white"/>
<path d="M29.6482 22.5361C29.7138 22.4381 29.7833 22.3669 29.8569 22.3199C29.9118 22.2863 29.9706 22.2621 30.0335 22.2487C30.0977 22.2353 30.158 22.2353 30.2155 22.246C30.2917 22.2621 30.368 22.2957 30.4456 22.3481C30.5861 22.4435 30.669 22.563 30.6944 22.7081C30.7199 22.8518 30.6797 23.0022 30.5754 23.158C30.471 23.3125 30.3479 23.4051 30.2061 23.436C30.063 23.4656 29.9225 23.4333 29.782 23.338C29.6415 23.2426 29.5572 23.1217 29.5318 22.9794C29.5077 22.8357 29.5465 22.6879 29.6482 22.5361Z" fill="#309E3A"/>
<path d="M29.8517 22.6637C29.7781 22.7711 29.7473 22.8705 29.7594 22.9605C29.7728 23.0505 29.8169 23.1203 29.8932 23.1727C29.9694 23.2251 30.051 23.2399 30.1367 23.2184C30.2236 23.1955 30.3052 23.1297 30.3802 23.0183C30.4537 22.9095 30.4845 22.8114 30.4725 22.7241C30.4604 22.6382 30.4163 22.5683 30.3373 22.5146C30.2571 22.4609 30.1755 22.4448 30.0898 22.4662C30.0042 22.4877 29.9253 22.5535 29.8517 22.6637Z" fill="white"/>
<path d="M19.418 18.0756L19.6025 17.2656L20.2014 17.4038L20.1697 17.5407L19.7346 17.4398L19.6933 17.6195L20.0981 17.7134L20.0664 17.8489L19.6617 17.7563L19.6121 17.9761L20.0623 18.0811L20.0306 18.2166L19.418 18.0756Z" fill="#309E3A"/>
</g>
</g>
<defs>
<clipPath id="clip0_7674_311007">
<rect width="42" height="42" rx="21" fill="white"/>
</clipPath>
</defs>
</svg>
