<svg width="42" height="42" viewBox="0 0 42 42" fill="none" xmlns="http://www.w3.org/2000/svg">
<path d="M0 21C0 9.40202 9.40202 0 21 0V0C32.598 0 42 9.40202 42 21V21C42 32.598 32.598 42 21 42V42C9.40202 42 0 32.598 0 21V21Z" fill="#92D3CF"/>
<mask id="path-2-outside-1_3220_257110" maskUnits="userSpaceOnUse" x="5.30005" y="5.30005" width="31" height="31" fill="black">
<rect fill="white" x="5.30005" y="5.30005" width="31" height="31"/>
<path fill-rule="evenodd" clip-rule="evenodd" d="M20.9099 14.0097C21.0886 14.0097 21.2334 14.1545 21.2334 14.3331V20.6404H26.4086C26.5872 20.6404 26.732 20.7852 26.732 20.9638C26.732 21.1424 26.5872 21.2873 26.4086 21.2873H21.2334V27.5945C21.2334 27.7731 21.0886 27.9179 20.9099 27.9179C20.7313 27.9179 20.5865 27.7731 20.5865 27.5945V14.3331C20.5865 14.1545 20.7313 14.0097 20.9099 14.0097Z"/>
<path fill-rule="evenodd" clip-rule="evenodd" d="M21 7.03626L7.03626 21L21 34.9638L34.9638 21L21 7.03626ZM21.305 6.42636C21.1366 6.25794 20.8635 6.25794 20.6951 6.42636L6.42636 20.6951C6.25794 20.8635 6.25794 21.1366 6.42636 21.305L20.6951 35.5737C20.8635 35.7422 21.1366 35.7422 21.305 35.5737L35.5737 21.305C35.7422 21.1366 35.7422 20.8635 35.5737 20.6951L21.305 6.42636Z"/>
<path fill-rule="evenodd" clip-rule="evenodd" d="M20.9099 26.0851C23.7681 26.0851 26.0851 23.7681 26.0851 20.9099C26.0851 18.0517 23.7681 15.7347 20.9099 15.7347C18.0518 15.7347 15.7348 18.0517 15.7348 20.9099C15.7348 23.7681 18.0518 26.0851 20.9099 26.0851ZM20.9099 26.732C24.1254 26.732 26.732 24.1253 26.732 20.9099C26.732 17.6945 24.1254 15.0878 20.9099 15.0878C17.6945 15.0878 15.0879 17.6945 15.0879 20.9099C15.0879 24.1253 17.6945 26.732 20.9099 26.732Z"/>
</mask>
<path fill-rule="evenodd" clip-rule="evenodd" d="M20.9099 14.0097C21.0886 14.0097 21.2334 14.1545 21.2334 14.3331V20.6404H26.4086C26.5872 20.6404 26.732 20.7852 26.732 20.9638C26.732 21.1424 26.5872 21.2873 26.4086 21.2873H21.2334V27.5945C21.2334 27.7731 21.0886 27.9179 20.9099 27.9179C20.7313 27.9179 20.5865 27.7731 20.5865 27.5945V14.3331C20.5865 14.1545 20.7313 14.0097 20.9099 14.0097Z" fill="#F3F3F3"/>
<path fill-rule="evenodd" clip-rule="evenodd" d="M21 7.03626L7.03626 21L21 34.9638L34.9638 21L21 7.03626ZM21.305 6.42636C21.1366 6.25794 20.8635 6.25794 20.6951 6.42636L6.42636 20.6951C6.25794 20.8635 6.25794 21.1366 6.42636 21.305L20.6951 35.5737C20.8635 35.7422 21.1366 35.7422 21.305 35.5737L35.5737 21.305C35.7422 21.1366 35.7422 20.8635 35.5737 20.6951L21.305 6.42636Z" fill="#F3F3F3"/>
<path fill-rule="evenodd" clip-rule="evenodd" d="M20.9099 26.0851C23.7681 26.0851 26.0851 23.7681 26.0851 20.9099C26.0851 18.0517 23.7681 15.7347 20.9099 15.7347C18.0518 15.7347 15.7348 18.0517 15.7348 20.9099C15.7348 23.7681 18.0518 26.0851 20.9099 26.0851ZM20.9099 26.732C24.1254 26.732 26.732 24.1253 26.732 20.9099C26.732 17.6945 24.1254 15.0878 20.9099 15.0878C17.6945 15.0878 15.0879 17.6945 15.0879 20.9099C15.0879 24.1253 17.6945 26.732 20.9099 26.732Z" fill="#F3F3F3"/>
<path d="M21.2334 20.6404H20.9334C20.9334 20.806 21.0677 20.9404 21.2334 20.9404V20.6404ZM21.2334 21.2873V20.9873C21.0677 20.9873 20.9334 21.1216 20.9334 21.2873H21.2334ZM7.03626 21L6.82413 20.7879L6.612 21L6.82413 21.2122L7.03626 21ZM21 7.03626L21.2122 6.82413L21 6.612L20.7879 6.82413L21 7.03626ZM21 34.9638L20.7879 35.176L21 35.3881L21.2122 35.176L21 34.9638ZM34.9638 21L35.176 21.2122L35.3881 21L35.176 20.7879L34.9638 21ZM20.6951 6.42636L20.9072 6.6385L20.6951 6.42636ZM21.305 6.42636L21.0929 6.6385L21.305 6.42636ZM6.42636 20.6951L6.21423 20.483L6.42636 20.6951ZM6.42636 21.305L6.6385 21.0929L6.42636 21.305ZM20.6951 35.5737L20.483 35.7859L20.6951 35.5737ZM35.5737 20.6951L35.7859 20.483L35.5737 20.6951ZM21.5334 14.3331C21.5334 13.9888 21.2543 13.7097 20.9099 13.7097V14.3097C20.9229 14.3097 20.9334 14.3202 20.9334 14.3331H21.5334ZM21.5334 20.6404V14.3331H20.9334V20.6404H21.5334ZM26.4086 20.3404H21.2334V20.9404H26.4086V20.3404ZM27.032 20.9638C27.032 20.6195 26.7529 20.3404 26.4086 20.3404V20.9404C26.4215 20.9404 26.432 20.9509 26.432 20.9638H27.032ZM26.4086 21.5873C26.7529 21.5873 27.032 21.3081 27.032 20.9638H26.432C26.432 20.9768 26.4215 20.9873 26.4086 20.9873V21.5873ZM21.2334 21.5873H26.4086V20.9873H21.2334V21.5873ZM21.5334 27.5945V21.2873H20.9334V27.5945H21.5334ZM20.9099 28.2179C21.2543 28.2179 21.5334 27.9388 21.5334 27.5945H20.9334C20.9334 27.6074 20.9229 27.6179 20.9099 27.6179V28.2179ZM20.2865 27.5945C20.2865 27.9388 20.5656 28.2179 20.9099 28.2179V27.6179C20.897 27.6179 20.8865 27.6074 20.8865 27.5945H20.2865ZM20.9099 13.7097C20.5656 13.7097 20.2865 13.9888 20.2865 14.3331H20.8865C20.8865 14.3202 20.897 14.3097 20.9099 14.3097V13.7097ZM20.2865 14.3331V27.5945H20.8865V14.3331H20.2865ZM7.24839 21.2122L21.2122 7.24839L20.7879 6.82413L6.82413 20.7879L7.24839 21.2122ZM21.2122 34.7517L7.24839 20.7879L6.82413 21.2122L20.7879 35.176L21.2122 34.7517ZM34.7517 20.7879L20.7879 34.7517L21.2122 35.176L35.176 21.2122L34.7517 20.7879ZM20.7879 7.24839L34.7517 21.2122L35.176 20.7879L21.2122 6.82413L20.7879 7.24839ZM20.9072 6.6385C20.9585 6.58723 21.0416 6.58723 21.0929 6.6385L21.5171 6.21423C21.2316 5.92865 20.7685 5.92865 20.483 6.21423L20.9072 6.6385ZM6.6385 20.9072L20.9072 6.6385L20.483 6.21423L6.21423 20.483L6.6385 20.9072ZM6.6385 21.0929C6.58723 21.0416 6.58723 20.9585 6.6385 20.9072L6.21423 20.483C5.92865 20.7685 5.92865 21.2316 6.21423 21.5171L6.6385 21.0929ZM20.9072 35.3616L6.6385 21.0929L6.21423 21.5171L20.483 35.7859L20.9072 35.3616ZM21.0929 35.3616C21.0416 35.4129 20.9585 35.4129 20.9072 35.3616L20.483 35.7859C20.7685 36.0714 21.2316 36.0714 21.5171 35.7859L21.0929 35.3616ZM35.3616 21.0929L21.0929 35.3616L21.5171 35.7859L35.7859 21.5171L35.3616 21.0929ZM35.3616 20.9072C35.4129 20.9585 35.4129 21.0416 35.3616 21.0929L35.7859 21.5171C36.0714 21.2316 36.0714 20.7685 35.7859 20.483L35.3616 20.9072ZM21.0929 6.6385L35.3616 20.9072L35.7859 20.483L21.5171 6.21423L21.0929 6.6385ZM25.7851 20.9099C25.7851 23.6024 23.6024 25.7851 20.9099 25.7851V26.3851C23.9338 26.3851 26.3851 23.9338 26.3851 20.9099H25.7851ZM20.9099 16.0347C23.6024 16.0347 25.7851 18.2174 25.7851 20.9099H26.3851C26.3851 17.886 23.9338 15.4347 20.9099 15.4347V16.0347ZM16.0348 20.9099C16.0348 18.2174 18.2175 16.0347 20.9099 16.0347V15.4347C17.8861 15.4347 15.4348 17.886 15.4348 20.9099H16.0348ZM20.9099 25.7851C18.2175 25.7851 16.0348 23.6024 16.0348 20.9099H15.4348C15.4348 23.9338 17.8861 26.3851 20.9099 26.3851V25.7851ZM26.432 20.9099C26.432 23.9597 23.9597 26.432 20.9099 26.432V27.032C24.2911 27.032 27.032 24.291 27.032 20.9099H26.432ZM20.9099 15.3878C23.9597 15.3878 26.432 17.8601 26.432 20.9099H27.032C27.032 17.5288 24.2911 14.7878 20.9099 14.7878V15.3878ZM15.3879 20.9099C15.3879 17.8601 17.8602 15.3878 20.9099 15.3878V14.7878C17.5288 14.7878 14.7879 17.5288 14.7879 20.9099H15.3879ZM20.9099 26.432C17.8602 26.432 15.3879 23.9597 15.3879 20.9099H14.7879C14.7879 24.291 17.5288 27.032 20.9099 27.032V26.432Z" fill="#F3F3F3" mask="url(#path-2-outside-1_3220_257110)"/>
</svg>
