<svg xmlns="http://www.w3.org/2000/svg" width="42" height="42" fill="none"><path fill="#92D3CF" d="M0 21C0 9.402 9.402 0 21 0s21 9.402 21 21-9.402 21-21 21S0 32.598 0 21Z"/><mask id="a" width="31" height="31" x="5.3" y="5.3" fill="#000" maskUnits="userSpaceOnUse"><path fill="#fff" d="M5.3 5.3h31v31h-31z"/><path fill-rule="evenodd" d="M20.91 14.01c.179 0 .323.145.323.323v6.307h5.176a.323.323 0 0 1 0 .647h-5.176v6.308a.323.323 0 0 1-.646 0V14.332c0-.178.144-.323.323-.323Z" clip-rule="evenodd"/><path fill-rule="evenodd" d="M21 7.036 7.036 21 21 34.964 34.964 21 21 7.036Zm.305-.61a.431.431 0 0 0-.61 0L6.426 20.696a.431.431 0 0 0 0 .609l14.27 14.269a.431.431 0 0 0 .609 0l14.269-14.269a.431.431 0 0 0 0-.61L21.305 6.426Z" clip-rule="evenodd"/><path fill-rule="evenodd" d="M20.91 26.085a5.175 5.175 0 1 0 0-10.35 5.175 5.175 0 0 0 0 10.35Zm0 .647a5.822 5.822 0 1 0 0-11.644 5.822 5.822 0 0 0 0 11.644Z" clip-rule="evenodd"/></mask><path fill="#F3F3F3" fill-rule="evenodd" d="M20.91 14.01c.179 0 .323.145.323.323v6.307h5.176a.323.323 0 0 1 0 .647h-5.176v6.308a.323.323 0 0 1-.646 0V14.332c0-.178.144-.323.323-.323Z" clip-rule="evenodd"/><path fill="#F3F3F3" fill-rule="evenodd" d="M21 7.036 7.036 21 21 34.964 34.964 21 21 7.036Zm.305-.61a.431.431 0 0 0-.61 0L6.426 20.696a.431.431 0 0 0 0 .609l14.27 14.269a.431.431 0 0 0 .609 0l14.269-14.269a.431.431 0 0 0 0-.61L21.305 6.426Z" clip-rule="evenodd"/><path fill="#F3F3F3" fill-rule="evenodd" d="M20.91 26.085a5.175 5.175 0 1 0 0-10.35 5.175 5.175 0 0 0 0 10.35Zm0 .647a5.822 5.822 0 1 0 0-11.644 5.822 5.822 0 0 0 0 11.644Z" clip-rule="evenodd"/><path fill="#F3F3F3" d="M21.233 20.64h-.3a.3.3 0 0 0 .3.3v-.3Zm0 .647v-.3a.3.3 0 0 0-.3.3h.3ZM7.036 21l-.212-.212-.212.212.212.212.212-.212ZM21 7.036l.212-.212L21 6.612l-.212.212.212.212Zm0 27.928-.212.212.212.212.212-.212-.212-.212ZM34.964 21l.212.212.212-.212-.212-.212-.212.212ZM20.695 6.426l.212.212-.212-.212Zm.61 0-.212.212.212-.212ZM6.426 20.696l-.212-.213.212.212Zm0 .609.212-.212-.212.212Zm14.27 14.269-.213.212.212-.212Zm14.878-14.879.212-.212-.212.212Zm-14.04-6.362a.623.623 0 0 0-.624-.623v.6c.013 0 .023.01.023.023h.6Zm0 6.307v-6.307h-.6v6.307h.6Zm4.875-.3h-5.176v.6h5.176v-.6Zm.623.624a.623.623 0 0 0-.623-.624v.6c.013 0 .023.01.023.024h.6Zm-.623.623c.344 0 .623-.279.623-.623h-.6c0 .013-.01.023-.023.023v.6Zm-5.176 0h5.176v-.6h-5.176v.6Zm.3 6.008v-6.308h-.6v6.308h.6Zm-.623.623c.344 0 .623-.28.623-.623h-.6c0 .012-.01.023-.023.023v.6Zm-.623-.623c0 .344.279.623.623.623v-.6a.023.023 0 0 1-.023-.023h-.6Zm.623-13.885a.623.623 0 0 0-.623.623h.6c0-.013.01-.023.023-.023v-.6Zm-.623.623v13.261h.6v-13.26h-.6Zm-13.039 6.88L21.212 7.247l-.424-.424L6.824 20.788l.424.424Zm13.964 13.539L7.248 20.788l-.424.424 13.964 13.964.424-.424Zm13.54-13.964L20.788 34.752l.424.424 13.964-13.964-.424-.424ZM20.788 7.248l13.964 13.964.424-.424L21.212 6.824l-.424.424Zm.12-.61a.131.131 0 0 1 .185 0l.424-.424a.731.731 0 0 0-1.034 0l.424.424Zm-14.27 14.27 14.27-14.27-.425-.424L6.214 20.483l.424.424Zm0 .185a.131.131 0 0 1 0-.186l-.424-.424a.731.731 0 0 0 0 1.034l.424-.424Zm14.27 14.269-14.27-14.27-.424.425 14.269 14.269.424-.424Zm.185 0a.131.131 0 0 1-.186 0l-.424.424a.731.731 0 0 0 1.034 0l-.424-.424Zm14.269-14.27-14.27 14.27.425.424 14.269-14.269-.424-.424Zm0-.185a.131.131 0 0 1 0 .186l.424.424a.731.731 0 0 0 0-1.034l-.424.424ZM21.092 6.64l14.27 14.268.424-.424L21.517 6.214l-.424.424Zm4.693 14.27a4.875 4.875 0 0 1-4.875 4.876v.6a5.475 5.475 0 0 0 5.475-5.475h-.6Zm-4.875-4.874a4.875 4.875 0 0 1 4.875 4.875h.6a5.475 5.475 0 0 0-5.475-5.475v.6Zm-4.875 4.875a4.875 4.875 0 0 1 4.875-4.875v-.6a5.475 5.475 0 0 0-5.475 5.475h.6Zm4.875 4.875a4.875 4.875 0 0 1-4.875-4.875h-.6a5.475 5.475 0 0 0 5.475 5.475v-.6Zm5.522-4.875a5.522 5.522 0 0 1-5.522 5.522v.6a6.122 6.122 0 0 0 6.122-6.122h-.6Zm-5.522-5.522a5.522 5.522 0 0 1 5.522 5.522h.6a6.122 6.122 0 0 0-6.122-6.122v.6Zm-5.522 5.522a5.522 5.522 0 0 1 5.522-5.522v-.6a6.122 6.122 0 0 0-6.122 6.122h.6Zm5.522 5.522a5.522 5.522 0 0 1-5.522-5.522h-.6a6.122 6.122 0 0 0 6.122 6.122v-.6Z" mask="url(#a)"/></svg>