<svg xmlns="http://www.w3.org/2000/svg" width="42" height="42" fill="none"><circle cx="20" cy="20" r="20" fill="#EAB300"/><path fill="#F3F3F3" fill-rule="evenodd" d="M25.654 18.96a.203.203 0 0 1 .07-.034c.013-.011.03-.02.047-.028.018-.009.035-.017.048-.028.98-.568 1.578-1.396 1.722-2.529a5.59 5.59 0 0 0-.016-1.263 3.524 3.524 0 0 0-.316-1.154c-.326-.714-.849-1.22-1.525-1.591-.55-.31-1.147-.5-1.773-.619a12.999 12.999 0 0 0-1.913-.253c-.099-.007-.146-.01-.17-.036-.02-.023-.02-.067-.019-.15v-1.267c.002-.353.001-.7 0-1.049 0-.348 0-.696.002-1.048.006-.158.006-.158-.167-.16-.346-.004-.691-.008-1.04-.027L19.61 7.7c-.062 0-.091.008-.087.086.004.014.003.026.002.038 0 .012-.001.024.002.039.003.312.009.62.015.927l.014.927.002.25c.003.412.006.817.023 1.23-.002.055-.002.083-.017.096-.014.014-.041.013-.096.012l-.882.041a9.87 9.87 0 0 1-.363.017c-.12.004-.241.008-.364.016-.055-.001-.083-.002-.096-.016-.014-.014-.013-.042-.012-.097-.002-.007 0-.02 0-.031a323.171 323.171 0 0 1 .012-1.638c.005-.538.01-1.075.013-1.608v-.05c.003-.104.004-.15-.018-.17-.017-.015-.047-.015-.1-.016a1.91 1.91 0 0 1-.101-.004l-1.83.007c-.125 0-.125 0-.124.126-.009.205-.003.407.002.61a183.1 183.1 0 0 0 .001 2.831c.001.125.001.125-.135.145-.664.032-1.318.046-1.976.044-.44-.002-.878.001-1.32.004-.33.002-.66.004-.995.004-.158-.006-.158-.006-.16.104-.006.37-.008.738-.01 1.106-.002.368-.005.736-.01 1.105-.002.056-.002.083.011.097.014.014.041.015.096.016.283.005.562-.005.842-.015.148 0 .293-.002.437-.004.144-.002.288-.005.437-.004.69.008 1.079.595 1.083 1.095.01.521.016 1.04.022 1.559.006.519.012 1.038.022 1.56.02 1.097.035 2.196.051 3.295.016 1.1.031 2.198.05 3.296l.005.116c.004.084.008.166-.004.244-.045.372-.362.658-.766.669-.354.016-.704.016-1.052.016-.154 0-.308 0-.461.002-.188.008-.188.014-.198.12l-.007.058c-.052.311-.1.62-.149.93-.049.31-.097.62-.15.932l-.055.327-.056.328c.063-.001.11.002.158.005l.24.006c.357.01.708.018 1.065.015.26 0 .523.006.786.012.463.01.93.021 1.393 0 .246-.017.496-.02.75-.007.143.01.143.01.148.15a.04.04 0 0 1 .002.013c0 .004-.003.009-.01.02l.011 3.47c.005.14.005.14.13.139l.149.005c.214.007.422.014.638.01l.667.013h.002l.668.014c.018-.052.021-.1.025-.147-.004-.797-.004-1.58.007-2.38.004-.346.008-.691-.002-1.033v-.01c-.002-.115-.002-.13.13-.149.068-.01.134-.015.199-.02.065-.005.13-.01.198-.02.277-.018.55-.02.822-.022l.36-.004c.111.002.111.002.112.127-.003.017-.002.036-.001.055a.218.218 0 0 1-.001.055c.003.555.002 1.107 0 1.659 0 .552-.002 1.104.001 1.658-.006.154.008.155.14.163l.012.001c.318.02.64.037.96.055h.003l.96.055.017.002c.128.008.181.012.202-.012.014-.017.013-.048.01-.1a1.656 1.656 0 0 1-.003-.105c.01-.565.018-1.134.026-1.703v-.001c.009-.57.017-1.14.027-1.705.006-.158.006-.158.145-.163.822-.089 1.655-.196 2.466-.39.615-.16 1.224-.35 1.79-.639 1.035-.535 1.766-1.335 2.134-2.448.176-.53.247-1.097.29-1.655.038-.699.017-1.382-.207-2.06a3.19 3.19 0 0 0-.85-1.343c-.47-.425-1.013-.706-1.625-.892a4.021 4.021 0 0 0-.649-.206Zm-3.43 6.853c-.675.175-1.362.244-2.056.284-.474.03-.954.034-1.434.038l-.48.006c-.06 0-.091 0-.108-.015-.018-.016-.02-.051-.022-.124l-.036-1.946-.037-1.947-.003-.127c-.006-.225-.012-.459-.004-.684-.002-.125.013-.129.105-.137l.52-.015c.82-.024 1.637-.048 2.456.023.578.054 1.133.144 1.683.33.272.085.527.222.771.378 1.142.72 1.192 2.538.038 3.338a4.596 4.596 0 0 1-1.394.598Zm-3.448-11.476c-.24 0-.482 0-.727-.003-.007.033-.014.066-.006.095.026 1.208.04 2.407.054 3.614l.008.72c.003.072.004.107.022.124.017.015.048.015.108.014h.254c.698.002 1.398.003 2.086-.092.558-.082 1.108-.194 1.609-.434.362-.172.68-.396.904-.736.518-.776.358-1.876-.365-2.487a2.438 2.438 0 0 0-.842-.47c-.431-.153-.873-.226-1.325-.28-.597-.068-1.185-.067-1.78-.065Z" clip-rule="evenodd"/></svg>