<svg xmlns="http://www.w3.org/2000/svg" width="42" height="42" fill="none"><circle cx="21" cy="21.001" r="18.667" fill="#F3F3F3"/><path fill="#F2A900" d="M20.777 0c3.223.019 6.205.685 9.02 2a21.07 21.07 0 0 1 6.298 4.499 21 21 0 0 1 5.334 9.702c.26 1.055.426 2.129.5 3.203.056.796.093 1.592.056 2.388-.093 2.537-.611 4.98-1.611 7.313-1.89 4.407-4.927 7.814-9.095 10.202a20.653 20.653 0 0 1-5.834 2.222c-.852.185-1.704.315-2.575.389-.908.074-1.815.11-2.723.055a21.045 21.045 0 0 1-7.298-1.648c-2.63-1.11-4.945-2.684-6.909-4.74C3.162 32.698 1.347 29.31.476 25.403a20.467 20.467 0 0 1-.444-3.37 19.535 19.535 0 0 1 .166-3.887c.575-4.203 2.26-7.906 5.094-11.09C7.83 4.184 10.96 2.165 14.61 1 15.776.63 16.96.37 18.165.204 19.073.074 19.98.019 20.777 0Zm7.668 21.44c.056-.018.074-.018.093-.018.037-.019.092-.019.13-.037 1.333-.37 2.296-1.167 2.815-2.463.185-.481.296-.981.37-1.5a4.31 4.31 0 0 0-.018-1.462c-.167-.944-.63-1.704-1.315-2.352-.556-.537-1.204-.944-1.908-1.277a15.902 15.902 0 0 0-2.186-.889c-.222-.074-.222-.074-.166-.277l.388-1.5c.223-.833.427-1.648.649-2.481.055-.185.055-.185-.148-.24-.408-.112-.815-.223-1.223-.353l-1.167-.333c-.074-.018-.11-.018-.13.074 0 .037-.018.056-.018.093-.185.74-.352 1.462-.537 2.203-.148.592-.297 1.166-.426 1.759-.037.13-.037.13-.167.092l-1.056-.222c-.296-.055-.574-.13-.87-.185-.13-.037-.13-.037-.093-.167 0-.018.019-.055.019-.074.333-1.259.685-2.536 1.018-3.795.093-.333.093-.26-.185-.352l-2.167-.555c-.148-.037-.148-.037-.185.11-.074.241-.13.482-.185.723-.297 1.11-.593 2.24-.87 3.351-.038.148-.038.148-.205.13a48.342 48.342 0 0 1-2.352-.556c-.908-.24-1.815-.463-2.741-.703-.185-.056-.185-.056-.223.074-.24.87-.463 1.74-.703 2.61-.037.13-.037.13.092.167.334.092.667.166 1 .24.352.093.686.167 1.038.26.815.222 1.092 1.037.944 1.63-.296 1.24-.61 2.462-.907 3.702-.63 2.61-1.278 5.221-1.908 7.832-.037.148-.056.296-.111.426-.167.425-.63.666-1.112.555-.61-.13-1.204-.296-1.796-.444-.26-.056-.223-.037-.297.148-.314.703-.61 1.407-.926 2.11-.11.241-.222.5-.333.741.074.019.13.037.185.056.519.148 1.019.296 1.537.426.852.222 1.704.5 2.575.685.296.055.593.13.89.222.166.055.166.055.129.222 0 .018 0 .018-.019.037l-1.056 4.11c-.037.167-.037.167.112.204.314.093.61.185.926.26.518.147 1.055.295 1.574.444a.658.658 0 0 0 .074-.167c.241-.944.482-1.87.741-2.814.111-.408.222-.815.315-1.222.037-.148.037-.167.204-.148.167.018.315.055.481.074.482.092.945.222 1.408.333.13.037.13.037.093.185-.019.037-.019.093-.037.13-.334 1.314-.686 2.61-1.02 3.925-.055.185-.036.185.13.24.741.241 1.5.482 2.242.723.333.11.26.092.333-.186.37-1.333.741-2.684 1.111-4.017.056-.186.056-.185.223-.148 1 .148 2.019.277 3.037.296.778 0 1.556-.037 2.316-.204 1.389-.315 2.5-1.037 3.278-2.24.37-.574.63-1.222.852-1.87.26-.815.445-1.63.39-2.5a3.9 3.9 0 0 0-.593-1.851c-.426-.648-.982-1.148-1.649-1.555a4.918 4.918 0 0 0-.704-.445Z"/><path fill="#F2A900" d="M22.277 28.493c-.852 0-1.686-.13-2.52-.296-.759-.148-1.518-.352-2.278-.537-.148-.037-.148-.037-.11-.204.37-1.537.74-3.092 1.11-4.629.075-.314.149-.648.241-.962.037-.148.056-.148.167-.13 1.186.278 2.371.518 3.52.926.666.24 1.296.518 1.889.907a4 4 0 0 1 .796.685c1.13 1.203.63 3.37-.982 3.962-.5.167-1.074.278-1.833.278ZM20.87 13.627c1 .278 1.982.481 2.945.852.519.203 1.019.426 1.482.74.333.222.63.482.852.815.667.944.518 2.296-.334 3.055-.37.333-.815.5-1.296.592-.667.13-1.352.093-2.038.019-.944-.111-1.87-.37-2.797-.611-.148-.037-.148-.037-.11-.204.425-1.722.851-3.425 1.259-5.147 0-.037.018-.074.037-.111Z"/></svg>