<svg xmlns="http://www.w3.org/2000/svg" width="42" height="42" fill="none"><circle cx="21" cy="21" r="20" fill="#222"/><path fill="#fff" d="M35.692 17.984a14.929 14.929 0 0 0-.877-2.815 14.91 14.91 0 0 0-3.215-4.77 14.914 14.914 0 0 0-2.216-1.83 15.728 15.728 0 0 0-2.553-1.385 14.933 14.933 0 0 0-11.662 0 14.906 14.906 0 0 0-4.769 3.217 14.904 14.904 0 0 0-1.83 2.213 15.725 15.725 0 0 0-1.385 2.555 14.933 14.933 0 0 0 0 11.661c.37.892.847 1.738 1.385 2.553.537.796 1.15 1.538 1.83 2.216.678.68 1.42 1.293 2.217 1.83.799.538 1.66 1 2.552 1.385a14.933 14.933 0 0 0 11.662 0c.892-.37 1.738-.847 2.553-1.384A14.912 14.912 0 0 0 31.6 31.6c.68-.679 1.293-1.421 1.83-2.217.538-.8 1-1.66 1.385-2.553a14.933 14.933 0 0 0 .877-8.846ZM21.014 34.122c-7.245 0-13.106-5.877-13.106-13.108 0-7.23 5.877-13.107 13.106-13.107 7.23 0 13.108 5.877 13.108 13.107 0 7.23-5.876 13.108-13.108 13.108Z"/><path fill="#fff" d="M21.246 32.984h.355c.061 0 .122 0 .183-.016h.017c.061 0 .106 0 .168-.015h.046c.047 0 .093 0 .139-.015h.046c.047 0 .093-.015.155-.015h.03c.061 0 .123-.017.184-.017.062 0 .108-.015.17-.03h.03c.047 0 .093-.015.138-.015h.032c.061-.016.108-.016.17-.031a2.45 2.45 0 0 0 .352-.077h.032c.045-.015.107-.015.153-.031h.015c.123-.03.231-.062.354-.092a13.758 13.758 0 0 1-3.43-.323c-1.693-.37-3.307-1.03-4.677-2.17a9.478 9.478 0 0 1-3.415-7.368 8.954 8.954 0 0 1 2.107-5.723c1.754-2.076 4.247-3.17 6.8-3.231h.354V11.77h-.4c-.776.014-1.55.106-2.307.276-.763.172-1.506.425-2.215.754-.724.339-1.401.754-2.032 1.231a10.824 10.824 0 0 0-1.769 1.692 10.468 10.468 0 0 0-1.276 1.892 10.816 10.816 0 0 0-.847 2.046 11.177 11.177 0 0 0-.415 2.14l-.046.675v.4c.015.785.108 1.554.276 2.308.17.77.431 1.507.754 2.216.386.845 1.078 2.092 2.108 3.03a11.897 11.897 0 0 0 7.384 2.554h.277Z"/><path fill="#fff" d="M24.6 31.012a15.637 15.637 0 0 1-2.262-.246c-3.168-.57-5.892-2.508-6.89-5.43-1.217-3.554.645-7.4 4.183-8.569a6.547 6.547 0 0 1 2.092-.339c.908 0 1.815.185 2.647.523l.86-1.83c-.258-.104-.52-.202-.784-.292a9.064 9.064 0 0 0-2.723-.416A8.63 8.63 0 0 0 19 14.86a8.556 8.556 0 0 0-3.03 1.754c-.424.377-.81.795-1.154 1.246-.339.447-.633.926-.876 1.431a8.674 8.674 0 0 0-.862 3.247 8.748 8.748 0 0 0 .46 3.445 8.506 8.506 0 0 0 1.848 3.061c.754.816 1.63 1.431 2.69 2 1.109.585 2.478.893 3.908 1.093.923.122 2.155.154 2.877.154.63-.231.892-.34 1.231-.478.293-.138.585-.276.877-.446.293-.17.34-.2.83-.522a.857.857 0 0 0 .124-.093c-1.692.293-2.123.276-3.323.261Z"/><path fill="#fff" d="M28.384 28.723c-.477.03-1.154.075-1.923.075-1.37 0-3.047-.122-4.476-.6-2.217-.737-4.308-2.629-4.308-4.968a4.212 4.212 0 0 1 4.215-4.215c1.584 0 2.953.877 3.677 2.153l1.83-.907a5.947 5.947 0 0 0-1.093-1.461 6.24 6.24 0 0 0-8.83 0 6.24 6.24 0 0 0-1.831 4.415c.004.86.188 1.708.54 2.492a7.49 7.49 0 0 0 1.338 1.985c1 1.076 2.369 1.938 3.83 2.43 1.4.461 3.462.63 5.462.493a11.45 11.45 0 0 0 1.676-.247 11.54 11.54 0 0 0 1.847-1.83c-.477.046-1.354.138-1.954.185Z"/></svg>