<svg xmlns="http://www.w3.org/2000/svg" width="42" height="42" fill="none"><circle cx="21" cy="21" r="21" fill="#49D6DD"/><path fill="#F3F3F3" fill-rule="evenodd" d="M12.562 11.977c-.415-2.162 1.247-4.157 3.409-4.157 1.912 0 3.491 1.58 3.491 3.492v4.323c.499 0 .998-.083 1.497-.083.498 0 .914 0 1.413.083v-4.323c0-1.912 1.58-3.492 3.491-3.492 2.162 0 3.825 1.995 3.492 4.157l-.915 5.071c3.243 1.413 5.737 3.907 5.737 6.983v1.912c0 2.577-1.663 4.739-4.074 6.152-2.41 1.496-5.57 2.328-9.144 2.328-3.575 0-6.734-.832-9.145-2.328-2.328-1.413-3.99-3.575-3.99-6.152v-1.912c0-3.076 2.41-5.57 5.653-6.983l-.915-5.071Zm14.632 5.736 1.08-5.986c.25-1.496-.831-2.91-2.41-2.91-1.33 0-2.411 1.082-2.411 2.412v5.486c-.333-.083-.749-.083-1.081-.083-.499 0-.915-.083-1.413-.083-.5 0-.998 0-1.497.083-.332 0-.748.083-1.08.083v-5.403c0-1.33-1.081-2.411-2.411-2.411-1.497 0-2.66 1.413-2.328 2.91l1.08 5.985c-3.49 1.33-5.819 3.658-5.819 6.318v1.912c0 4.074 5.404 7.4 12.055 7.4 6.65 0 12.054-3.326 12.054-7.4v-1.912c.083-2.743-2.245-5.07-5.82-6.4Z" clip-rule="evenodd"/><path fill="#F3F3F3" fill-rule="evenodd" d="M8.868 24.15h-.001v1.913c0 4.073 5.415 7.398 12.08 7.398s12.08-3.325 12.08-7.399h.083V24.15h-.084v.093c0 4.073-5.415 7.398-12.08 7.398-6.664 0-12.08-3.325-12.08-7.398l.002-.093Z" clip-rule="evenodd"/><path fill="#F3F3F3" d="M17.633 23.542c0 1.08-.582 1.995-1.33 1.995-.748 0-1.33-.914-1.33-1.995 0-1.08.582-1.995 1.33-1.995.748 0 1.33.914 1.33 1.995ZM26.861 23.542c0 1.08-.582 1.995-1.33 1.995-.748 0-1.33-.914-1.33-1.995 0-1.08.582-1.995 1.33-1.995.748 0 1.33.914 1.33 1.995Z"/></svg>