<svg width="42" height="42" viewBox="0 0 42 42" fill="none" xmlns="http://www.w3.org/2000/svg">
<rect x="1" y="1" width="40" height="40" rx="20" fill="white"/>
<rect x="1" y="1" width="40" height="40" rx="20" stroke="#0052FF" stroke-width="2"/>
<path d="M29.8482 18.2793C30.3124 15.5126 28.228 13.9842 25.3589 12.9198L26.3542 9.20551L24.079 8.59589L23.1022 12.2413C22.5033 12.0808 21.8914 11.9168 21.2839 11.754L22.2606 8.10865L20.0027 7.50365L19.0005 11.2438L14.3856 10.0073L13.7333 12.4419C13.7333 12.4419 15.4219 12.862 15.3879 12.8852C15.6999 12.9331 15.9811 13.1001 16.1722 13.3512C16.3634 13.6023 16.4496 13.9178 16.4128 14.2313L13.6695 24.4694C13.6345 24.574 13.5789 24.6706 13.5059 24.7534C13.433 24.8362 13.3442 24.9035 13.2448 24.9514C13.1465 25.001 13.0392 25.0302 12.9294 25.0372C12.8196 25.0443 12.7094 25.0291 12.6056 24.9926C12.6289 25.0265 10.951 24.5492 10.951 24.5492L9.79154 27.1527L14.3634 28.3777L13.345 32.1782L15.6202 32.7878L16.6235 29.0433L18.4419 29.5306L17.4432 33.2578L19.7226 33.8686L20.7294 30.1112C24.6354 30.9084 27.5695 30.6786 28.8697 27.1706C29.9171 24.3478 28.9018 22.6902 26.8655 21.5858C28.3627 21.2896 29.5047 20.3024 29.8482 18.2793ZM24.4912 25.5171C23.7338 28.3438 18.9771 26.7229 17.4345 26.3095L18.7785 21.2939C20.3199 21.7115 25.2821 22.5655 24.4912 25.5171ZM25.3291 18.1675C24.6363 20.7529 20.6788 19.3554 19.3947 19.0113L20.6163 14.4524C21.9003 14.7965 26.0507 15.4744 25.3291 18.1675Z" fill="#0052FF"/>
</svg>
