<svg width="42" height="42" viewBox="0 0 42 42" fill="none" xmlns="http://www.w3.org/2000/svg">
<g clip-path="url(#clip0_26_34013)">
<path d="M21 42C32.598 42 42 32.598 42 21C42 9.40202 32.598 0 21 0C9.40202 0 0 9.40202 0 21C0 32.598 9.40202 42 21 42Z" fill="#FF1256"/>
<path d="M15.5968 12.6859L20.0956 9.90847C20.4916 9.68488 20.4916 9.22152 20.206 8.93866L16.448 5.30455C16.3753 5.23182 16.2541 5.23182 16.1813 5.30455L15.8257 5.66284C15.3705 6.12081 15.3732 6.85894 15.8311 7.31422L17.2993 8.66927C17.5498 8.91711 17.5014 9.33197 17.2023 9.51785L15.4486 10.5927C14.9017 10.9295 14.732 11.6487 15.0714 12.1956L15.3354 12.6239C15.3893 12.7128 15.5079 12.7398 15.5968 12.6859Z" fill="#F3F3F3"/>
<path d="M19.9393 27.5832C20.3084 25.9858 19.872 24.3074 18.7675 23.0925L15.9254 19.8706C14.3441 18.0764 14.7347 15.2963 16.7497 14.0086L21.3994 11.0372C21.6985 10.8459 22.0918 10.8809 22.3531 11.1207C24.053 12.6886 29.9715 18.3404 29.7075 24.1781C29.7075 24.1781 29.7156 33.2432 20.7879 36.6348C19.476 37.1332 18.1479 35.9344 18.4927 34.574C19.7265 29.6872 19.942 27.5806 19.942 27.5806L19.9393 27.5832ZM21.1031 13.6261C20.3919 14.0759 19.0153 14.9488 17.8408 15.695C17.0542 16.1934 16.8952 17.2736 17.504 17.9794L20.4754 21.4142C22.178 23.2864 22.8542 25.8726 22.283 28.3402L21.7847 30.525C21.5692 31.4733 22.6871 32.136 23.4253 31.5002C26.5556 28.7982 30.944 22.3032 21.7901 13.6934C21.6042 13.5183 21.3213 13.4914 21.1031 13.6287V13.6261Z" fill="#F3F3F3"/>
</g>
<defs>
<clipPath id="clip0_26_34013">
<rect width="42" height="42" fill="white"/>
</clipPath>
</defs>
</svg>
