<svg xmlns="http://www.w3.org/2000/svg" width="42" height="42" fill="none"><path fill="#B02728" d="M21 41c11.046 0 20-8.954 20-20S32.046 1 21 1 1 9.954 1 21s8.954 20 20 20Z"/><circle cx="10.9" cy="10.9" r="1.6" fill="#F3F3F3"/><circle cx="16.1" cy="22.3" r="1.6" fill="#F3F3F3"/><circle cx="31.1" cy="10.9" r="1.6" fill="#F3F3F3"/><circle cx="25.8" cy="22.3" r="1.6" fill="#F3F3F3"/><circle cx="21.1" cy="34.1" r="1.6" fill="#F3F3F3"/><path stroke="#F3F3F3" d="M11 11h20m-20 0 15 11.75M11 11l5 11.75M31 11l-5 11.75M31 11 16 22.75m10 0L21 34.5l-5-11.75"/></svg>