<svg xmlns="http://www.w3.org/2000/svg" width="42" height="42" fill="none"><mask id="a" width="42" height="42" x="0" y="0" maskUnits="userSpaceOnUse" style="mask-type:alpha"><circle cx="21" cy="21" r="21" fill="#D9D9D9"/></mask><g mask="url(#a)"><path fill="#EE1C25" d="M63 0H0v42h63V0Z"/><path fill="#FF0" d="m10.498 4.204 3.704 11.397-9.695-7.044H16.49l-9.695 7.044L10.5 4.204ZM21.823 2.258l-.35 3.98-2.056-3.426 3.676 1.563-3.893.896 2.623-3.013ZM26.707 6.93l-1.867 3.53-.565-3.954 2.782 2.868-3.936-.685 3.587-1.76ZM27.17 13.976l-3.145 2.462 1.098-3.84 1.37 3.751-3.314-2.23 3.992-.143ZM21.74 16.926l-.184 3.99-2.196-3.337 3.738 1.41-3.852 1.056 2.495-3.119Z"/></g></svg>