<svg xmlns="http://www.w3.org/2000/svg" width="42" height="42" fill="none"><path fill="#60D09A" d="M21 42c11.598 0 21-9.402 21-21S32.598 0 21 0 0 9.402 0 21s9.402 21 21 21Z"/><path fill="#F3F3F3" fill-rule="evenodd" d="M12.132 28.04a2.114 2.114 0 0 1-1.012-1.802v-4.103a.88.88 0 0 1 1.327-.76l9.259 5.399c.541.315.875.895.875 1.523v4.25a1.054 1.054 0 0 1-1.608.903l-8.841-5.41Zm13.801-7.789c.542.315.874.897.876 1.523V30.4c0 .254-.137.489-.36.613l-2.026 1.14a.353.353 0 0 1-.082.034v-4.79c0-.62-.325-1.195-.859-1.514l-8.13-4.864v-5.407a.88.88 0 0 1 1.326-.76l9.255 5.398Zm4.053-6.371c.544.315.878.897.878 1.525v12.6a.714.714 0 0 1-.372.62l-1.921 1.037V20.89c0-.62-.326-1.193-.855-1.512l-8.312-4.986V9.264c0-.155.042-.308.118-.443a.884.884 0 0 1 1.205-.32l9.259 5.379Z" clip-rule="evenodd"/></svg>