<svg width="42" height="42" viewBox="0 0 42 42" fill="none" xmlns="http://www.w3.org/2000/svg">
<rect width="42" height="42" rx="21" fill="white"/>
<mask id="mask0_5261_36686" style="mask-type:luminance" maskUnits="userSpaceOnUse" x="6" y="7" width="29" height="29">
<path d="M34.5 7.31201H6.5V35.6879H34.5V7.31201Z" fill="white"/>
</mask>
<g mask="url(#mask0_5261_36686)">
<path d="M15.7666 35.6878C15.484 35.6878 15.3138 35.3747 15.4674 35.1376L19.49 28.9294C19.5274 28.8716 19.5473 28.8044 19.5473 28.7356V25.4101C19.5473 25.2133 19.7068 25.0537 19.9037 25.0537H21.3352C21.532 25.0537 21.6916 25.2133 21.6916 25.4101V28.7356C21.6916 28.8044 21.7116 28.8716 21.7489 28.9294L25.7715 35.1376C25.9251 35.3747 25.7549 35.6878 25.4723 35.6878H15.7666Z" fill="url(#paint0_linear_5261_36686)"/>
<path d="M19.9059 17.9461C19.709 17.9461 19.5495 17.7865 19.5495 17.5897V14.2642C19.5495 14.1954 19.5295 14.1281 19.4921 14.0703L15.4675 7.86231C15.3138 7.62518 15.4839 7.31201 15.7665 7.31201H25.4722C25.7547 7.31201 25.9249 7.62511 25.7713 7.86224L21.7487 14.0704C21.7114 14.1281 21.6914 14.1954 21.6914 14.2642V17.5897C21.6914 17.7865 21.5318 17.9461 21.335 17.9461H19.9059Z" fill="url(#paint1_linear_5261_36686)"/>
<path d="M6.5 16.6285C6.5 16.3452 6.81461 16.1751 7.05165 16.3303L13.2229 20.3709C13.2809 20.4089 13.3487 20.4291 13.4181 20.4291H16.7222C16.9191 20.4291 17.0786 20.5886 17.0786 20.7855V22.2273C17.0786 22.4241 16.9191 22.5837 16.7222 22.5837H13.4181C13.3487 22.5837 13.2809 22.6039 13.2229 22.642L7.05165 26.6825C6.81461 26.8377 6.5 26.6677 6.5 26.3843V16.6285Z" fill="url(#paint2_linear_5261_36686)"/>
<path d="M7.20255 28.0791C7.00339 27.8789 7.10501 27.5376 7.38125 27.479L14.5923 25.9492C14.6601 25.9348 14.7222 25.9009 14.7711 25.8519L17.1071 23.5026C17.2465 23.3624 17.4733 23.3624 17.6126 23.5026L18.6254 24.5218C18.7636 24.661 18.7635 24.8855 18.6252 25.0245L16.286 27.375C16.2374 27.4238 16.204 27.4856 16.1898 27.553L14.6675 34.7995C14.6092 35.0769 14.266 35.1786 14.0661 34.9776L7.20255 28.0791Z" fill="url(#paint3_linear_5261_36686)"/>
<path d="M14.5932 17.1063C14.5453 17.0605 14.4857 17.029 14.4209 17.0153L7.38118 15.5204C7.10499 15.4618 7.00341 15.1206 7.20255 14.9204L14.0662 8.02183C14.2661 7.82084 14.6093 7.92247 14.6676 8.19994L16.1899 15.4464C16.2041 15.5138 16.2374 15.5756 16.286 15.6244L18.6253 17.9771C18.7636 18.1162 18.7636 18.3408 18.6252 18.4798L17.6064 19.5035C17.4695 19.641 17.2478 19.6438 17.1075 19.5097L14.5932 17.1063Z" fill="url(#paint4_linear_5261_36686)"/>
<path d="M25.0528 27.5533C25.0386 27.4858 25.0051 27.4238 24.9564 27.375L22.6152 25.0246C22.4768 24.8856 22.4767 24.661 22.6149 24.5219L23.6277 23.5026C23.767 23.3624 23.9938 23.3624 24.1331 23.5025L26.4716 25.8521C26.5204 25.9012 26.5825 25.9349 26.6502 25.9493L33.859 27.4792C34.1352 27.5377 34.2368 27.8789 34.0377 28.0791L27.1743 34.9775C26.9743 35.1785 26.631 35.0768 26.5728 34.7993L25.0528 27.5533Z" fill="url(#paint5_linear_5261_36686)"/>
<path d="M22.5695 18.5193C22.4311 18.3803 22.4311 18.1555 22.5695 18.0165L24.9109 15.6639C24.9595 15.615 24.9929 15.5531 25.007 15.4856L26.5272 8.23959C26.5854 7.96206 26.9286 7.86036 27.1286 8.06138L33.992 14.9597C34.1912 15.1599 34.0895 15.5011 33.8133 15.5598L26.6045 17.0896C26.5368 17.104 26.4748 17.1377 26.4258 17.1868L24.0872 19.5367C23.9479 19.6766 23.7213 19.6766 23.582 19.5367L22.5695 18.5193Z" fill="url(#paint6_linear_5261_36686)"/>
</g>
<defs>
<linearGradient id="paint0_linear_5261_36686" x1="9.65029" y1="10.6833" x2="31.127" y2="34.1331" gradientUnits="userSpaceOnUse">
<stop stop-color="#EF6FC4"/>
<stop offset="1" stop-color="#FF0C3C"/>
</linearGradient>
<linearGradient id="paint1_linear_5261_36686" x1="6.78989" y1="13.147" x2="35.4" y2="28.5288" gradientUnits="userSpaceOnUse">
<stop stop-color="#EF6FC4"/>
<stop offset="1" stop-color="#FF0C3C"/>
</linearGradient>
<linearGradient id="paint2_linear_5261_36686" x1="8.35649" y1="14.0544" x2="15.802" y2="27.0441" gradientUnits="userSpaceOnUse">
<stop offset="0.273943" stop-color="#EF6FC4"/>
<stop offset="1" stop-color="#FF0C3C"/>
</linearGradient>
<linearGradient id="paint3_linear_5261_36686" x1="9.93012" y1="9.98054" x2="31.7295" y2="33.1228" gradientUnits="userSpaceOnUse">
<stop stop-color="#EF6FC4"/>
<stop offset="1" stop-color="#FF0C3C"/>
</linearGradient>
<linearGradient id="paint4_linear_5261_36686" x1="6.68813" y1="6.74819" x2="23.6949" y2="25.1644" gradientUnits="userSpaceOnUse">
<stop offset="0.496592" stop-color="#EF6FC4"/>
<stop offset="1" stop-color="#FF0C3C"/>
</linearGradient>
<linearGradient id="paint5_linear_5261_36686" x1="9.92937" y1="10.683" x2="31.7331" y2="32.912" gradientUnits="userSpaceOnUse">
<stop offset="0.245" stop-color="#EF6FC4"/>
<stop offset="1" stop-color="#FF0C3C"/>
</linearGradient>
<linearGradient id="paint6_linear_5261_36686" x1="7.30926" y1="13.6064" x2="33.8689" y2="30.1611" gradientUnits="userSpaceOnUse">
<stop stop-color="#EF6FC4"/>
<stop offset="1" stop-color="#FF0C3C"/>
</linearGradient>
</defs>
</svg>
