<svg width="42" height="42" viewBox="0 0 42 42" fill="none" xmlns="http://www.w3.org/2000/svg">
<rect width="42" height="42" rx="21" fill="white"/>
<path fill-rule="evenodd" clip-rule="evenodd" d="M20.9998 9.24175L10.8269 15.1213V26.8803L20.9998 32.7598L31.1728 26.8803V15.1213L20.9998 9.24175ZM21.427 6.27864C21.1627 6.12587 20.8369 6.12587 20.5726 6.27864L8.47707 13.2693C8.21273 13.4222 8.0498 13.7045 8.0498 14.0101V27.9915C8.0498 28.2971 8.21273 28.5795 8.47707 28.7322L20.5726 35.7229C20.8369 35.8758 21.1627 35.8758 21.427 35.7229L33.5225 28.7322C33.787 28.5795 33.9498 28.2971 33.9498 27.9915V14.0101C33.9498 13.7045 33.787 13.4222 33.5225 13.2693L21.427 6.27864Z" fill="#FF9211"/>
<path d="M21.0001 13.5009L14.5118 17.2509V24.7507L20.9574 28.476C20.9838 28.4913 21.0001 28.5195 21.0001 28.5501V29.8341C21.0001 29.9 20.9288 29.9412 20.8719 29.9082L13.5505 25.6767C13.3522 25.5621 13.2301 25.3503 13.2301 25.1211V16.8804C13.2301 16.6512 13.3522 16.4395 13.5505 16.3249L20.6796 12.2046C20.8779 12.0899 21.1222 12.0899 21.3204 12.2046L28.6711 16.4375C28.7276 16.4701 28.7282 16.5515 28.672 16.5848C28.2383 16.8424 28.0162 16.9569 27.5308 17.2272C27.5046 17.2418 27.4724 17.2417 27.4464 17.2266L21.0001 13.5009Z" fill="#FF9211"/>
<path d="M22.0679 21.159C22.0679 21.1274 22.0853 21.0983 22.1132 21.0834L28.5645 17.646C28.6214 17.6157 28.6901 17.657 28.6901 17.7216V26.0836C28.6901 26.1142 28.6739 26.1423 28.6475 26.1576L22.1962 29.9075C22.1392 29.9406 22.0679 29.8994 22.0679 29.8335V21.159Z" fill="#FF9211"/>
</svg>
