<svg xmlns="http://www.w3.org/2000/svg" width="36" height="36" fill="none"><path fill="url(#a)" d="M18 35.998c9.94 0 17.998-8.058 17.998-17.999C35.998 8.06 27.94 0 18 0 8.06 0 0 8.058 0 18c0 9.94 8.058 17.998 18 17.998Z"/><path fill="#F3F3F3" fill-rule="evenodd" d="M16.353 6.364c2.646.553 8.785 2.885 11.638 5.75a7.355 7.355 0 0 1 2.046 6.616c-.253 1.39-.57 2.727-2.476 3.451-.931.355-4.277 1.332-7.038 2.138-1.4.41-2.65.774-3.357.991l-.02.07c-.357 1.215-1.3 3.855-3.082 4.438-2.6.85-4.504-1.417-5.665-4.27-.67-1.647-1.798-5.214-1.948-8.363-.12-2.561.136-6.969 3.3-9.838 1.896-1.716 4.22-1.482 6.602-.983Zm-.887 15.361c.339 2.838-.64 5.29-2.187 5.475-1.547.185-3.076-1.966-3.415-4.804-.34-2.839.64-5.29 2.187-5.475 1.546-.185 3.075 1.966 3.415 4.804Zm6.084-8.03c-2.898-.828-3.996-.68-4.82-.47-.244.063-.18.3-.117.47.022.06.048.125.078.199.128.321.319.801.51 1.567.209.835.343 1.919.352 2.312.006.025.016.034.041.038.731-.042 2.48-.191 3.956-.468 1.477-.277 3.189-.828 3.919-1.109.035-.013.026-.064 0-.114-.284-.536-1.371-1.695-3.92-2.424Z" clip-rule="evenodd"/><defs><linearGradient id="a" x1="17.999" x2="17.999" y1=".002" y2="36" gradientUnits="userSpaceOnUse"><stop offset=".24" stop-color="#426F4C"/><stop offset=".85" stop-color="#4C7F46"/></linearGradient></defs></svg>