<svg width="42" height="42" viewBox="0 0 42 42" fill="none" xmlns="http://www.w3.org/2000/svg">
<circle cx="21" cy="21" r="21" fill="#721BFF"/>
<path fill-rule="evenodd" clip-rule="evenodd" d="M19.0795 7.42438C22.1665 8.06963 29.3292 10.7905 32.6579 14.1344C33.6588 15.126 34.4003 16.3488 34.8167 17.6948C35.2331 19.0407 35.3116 20.4685 35.0454 21.852C34.7498 23.4731 34.381 25.0338 32.1555 25.8793C31.0694 26.2934 27.1655 27.4332 23.9447 28.3736C22.3111 28.8506 20.8532 29.2763 20.0279 29.5299L20.0047 29.611C19.5882 31.0286 18.4882 34.1087 16.409 34.7889C13.3761 35.7806 11.1538 33.136 9.79948 29.808C9.0174 27.885 7.70122 23.7242 7.52636 20.0498C7.38648 17.0619 7.68532 11.9189 11.3764 8.57185C13.5891 6.56934 16.3009 6.8427 19.0795 7.42438ZM18.0441 25.3457C18.4399 28.6574 17.2977 31.5173 15.493 31.7334C13.6882 31.9495 11.9043 29.4399 11.5085 26.1282C11.1128 22.8164 12.255 19.9566 14.0597 19.7405C15.8645 19.5244 17.6483 22.0339 18.0441 25.3457ZM25.1426 15.978C21.7615 15.011 20.4803 15.1833 19.5203 15.429C19.2341 15.5022 19.3084 15.7782 19.3832 15.978C19.4088 16.0464 19.4392 16.1228 19.4735 16.2089C19.6228 16.5839 19.8458 17.144 20.0688 18.0368C20.3122 19.0113 20.4688 20.2761 20.4796 20.7344C20.487 20.7643 20.4977 20.7744 20.5274 20.7792C21.3803 20.7296 23.42 20.5562 25.1426 20.2329C26.8667 19.9093 28.8633 19.2677 29.715 18.9393C29.7556 18.9236 29.7462 18.8647 29.715 18.8058C29.384 18.1809 28.1156 16.8283 25.1426 15.978Z" fill="#F3F3F3"/>
</svg>
