<svg width="42" height="42" viewBox="0 0 42 42" fill="none" xmlns="http://www.w3.org/2000/svg">
<g clip-path="url(#clip0_4532_193509)">
<path d="M20.9989 41.9979C32.5963 41.9979 41.9979 32.5963 41.9979 20.9989C41.9979 9.40155 32.5963 0 20.9989 0C9.40155 0 0 9.40155 0 20.9989C0 32.5963 9.40155 41.9979 20.9989 41.9979Z" fill="url(#paint0_linear_4532_193509)"/>
<path fill-rule="evenodd" clip-rule="evenodd" d="M19.0477 7.39311C22.1345 8.03832 29.2969 10.7591 32.6253 14.1028C33.6263 15.0943 34.3676 16.3171 34.784 17.663C35.2004 19.0089 35.279 20.4366 35.0128 21.8201C34.7172 23.441 34.3484 25.0017 32.1231 25.8472C31.037 26.2611 27.1336 27.4008 23.9131 28.3411C22.2796 28.8182 20.8212 29.2439 19.996 29.4975L19.9728 29.5786C19.5563 30.9961 18.4564 34.0761 16.3773 34.7563C13.3445 35.748 11.1224 33.1035 9.76812 29.7757C8.98608 27.8527 7.66996 23.6921 7.49511 20.0179C7.35523 17.0301 7.65406 11.8874 11.3449 8.54051C13.5576 6.53811 16.2692 6.81146 19.0477 7.39311ZM18.0125 25.3146C18.4082 28.6262 17.266 31.4859 15.4614 31.702C13.6567 31.918 11.8729 29.4086 11.4772 26.0971C11.0814 22.7855 12.2236 19.9257 14.0282 19.7097C15.8329 19.4936 17.6166 22.003 18.0125 25.3146ZM25.1106 15.9473C21.7296 14.9804 20.4485 15.1527 19.4885 15.3984C19.2024 15.4716 19.2767 15.7476 19.3515 15.9473C19.3771 16.0158 19.4075 16.0921 19.4418 16.1783C19.5911 16.5531 19.814 17.1133 20.0371 18.0061C20.2805 18.9805 20.4369 20.2452 20.4478 20.7034C20.4552 20.7334 20.4659 20.7436 20.4956 20.7484C21.3486 20.6988 23.388 20.5253 25.1106 20.202C26.8346 19.8785 28.8311 19.2368 29.6828 18.9085C29.7234 18.8928 29.7139 18.8339 29.6828 18.7751C29.3518 18.1501 28.0834 16.7976 25.1106 15.9473Z" fill="#F3F3F3"/>
</g>
<defs>
<linearGradient id="paint0_linear_4532_193509" x1="20.9989" y1="0.00203874" x2="20.9989" y2="42" gradientUnits="userSpaceOnUse">
<stop offset="0.24" stop-color="#426F4C"/>
<stop offset="0.85" stop-color="#4C7F46"/>
</linearGradient>
<clipPath id="clip0_4532_193509">
<rect width="42" height="42" fill="white"/>
</clipPath>
</defs>
</svg>
