<svg xmlns="http://www.w3.org/2000/svg" width="36" height="36" fill="none"><path fill="url(#a)" d="M18 35.998c9.94 0 17.998-8.058 17.998-17.999C35.998 8.06 27.94 0 18 0 8.06 0 0 8.058 0 18c0 9.94 8.058 17.998 18 17.998Z"/><mask id="b" width="26" height="26" x="5" y="5" maskUnits="userSpaceOnUse" style="mask-type:luminance"><path fill="#fff" d="M30.231 5.797H5.767v24.409H30.23V5.796Z"/></mask><g stroke="#fff" stroke-linejoin="round" stroke-width=".059" mask="url(#b)"><path d="m16.178 20.597-1.863.406-.23-.863 1.978-.359.115.815v.001Zm-1.864.405-1.619.543-.35-.9 1.738-.506.23.863ZM16.061 19.78l-1.978.359-.208-1.007 2.083-.304.103.953Z"/><path d="m14.083 20.138-1.737.506-.316-1.05 1.845-.461.208 1.006v-.001Zm2.219 1.115-1.739.445-.248-.697 1.863-.405.124.657Z"/><path d="m14.563 21.7-1.492.574-.376-.729 1.619-.543.248.697h.002Zm1.395-2.87-2.083.304-.18-1.128 2.176-.244.089 1.067h-.002Z"/><path d="m13.875 19.131-1.845.461-.275-1.176 1.938-.412.18 1.127h.002Zm4.339 1.194-2.036.267-.115-.814 2.144-.212.007.76v-.001Zm-1.781 1.411-1.61.479-.261-.515 1.739-.446.13.484.002-.002Zm-3.738-.192-1.328.675-.466-.928 1.443-.646.35.9h.001Z"/><path d="m14.822 22.213-1.36.597-.393-.538 1.493-.575.26.516Zm3.385-2.646-2.144.212-.103-.953 2.242-.15.005.891Zm-5.861 1.079-1.443.646-.422-1.083 1.55-.615.317 1.05-.002.002Zm5.877.292-1.921.315-.124-.657 2.036-.268.009.61Z"/><path d="m13.071 22.274-1.202.693-.5-.748 1.328-.674.376.729h-.002Zm2.798-4.514-2.176.245-.146-1.22 2.25-.181.072 1.156Z"/><path d="m13.695 18.007-1.938.412-.225-1.274 2.016-.358.147 1.22Zm4.505.67-2.242.15-.09-1.067 2.328-.082.004 1Zm-6.17.917-1.55.615-.366-1.214 1.641-.577.274 1.176Zm6.205 1.787-1.802.355-.13-.484 1.92-.314.01.445.002-.002Zm-1.667.656-1.48.5-.266-.32 1.611-.479.135.3Zm-3.104.774-1.073.706-.522-.552 1.202-.694.393.539v.001Z"/><path d="m15.088 22.534-1.225.612-.4-.335 1.359-.598.266.32v.001Zm3.108-4.857-2.327.082-.072-1.157 2.398-.012v1.085l.001.002Zm-6.441.742-1.64.576-.301-1.316 1.716-.532.225 1.273v-.001Zm6.492 3.233-1.68.383-.134-.3 1.802-.354.012.269v.002Zm-2.45-5.052-2.25.182-.112-1.284 2.308-.115.054 1.218Zm4.535 3.593-2.118.136-.007-.76 2.214-.075-.089.7Zm-6.786-3.41-2.016.358-.171-1.34 2.075-.301.112 1.284v-.001Z"/><path d="m20.24 20.749-2.016.189-.008-.61 2.117-.137-.092.558h-.002Zm.18-1.256-2.213.075-.006-.891 2.302-.007-.082.823Zm-9.053 2.728-1.013.786-.575-.94 1.122-.772.466.928v-.002Zm-.467-.929-1.121.773-.52-1.103 1.22-.753.422 1.083Zm2.964 1.854-.94.711-.533-.34 1.073-.706.4.335Z"/><path d="m11.869 22.969-.896.795-.617-.757 1.013-.786.5.748Zm4.831-.829-1.348.514-.264-.117 1.48-.5.134.105-.001-.002Zm3.443-.988-1.908.232-.01-.445 2.014-.189-.096.402Zm.358-2.482-2.301.007-.004-1 2.377.067-.072.928v-.002Zm-5.15 3.984-1.09.619-.398-.122 1.225-.612.264.117v-.002Zm2.844-6.065-2.398.012-.054-1.218 2.452.061v1.145Zm-7.714 3.62-1.22.753-.45-1.241 1.305-.729.365 1.215v.002Zm7.779 1.529-1.56.4-.134-.105 1.68-.383.012.086.001.002Zm-5.869 1.783-.776.797-.644-.552.896-.795.522.552.002-.002Zm-.86-6.376-1.716.533-.228-1.388 1.775-.487.171 1.34-.002.002Z"/><path d="m20.047 21.384-1.8.266-.012-.27 1.908-.232-.096.236Zm-4.302-5.996-2.309.115-.071-1.317 2.347-.05.033 1.252Zm4.828 2.355-2.377-.066v-1.085l2.44.141-.061 1.01h-.002Z"/><path d="m13.436 15.502-2.076.302-.112-1.376 2.115-.243.072 1.318.001-.002Zm.827 7.767-.807.71-.53-.121.94-.712.399.123h-.002Zm-4.149-4.275-1.305.728-.37-1.347 1.375-.697.3 1.316Zm6.718 3.051-1.224.515-.257.093 1.35-.514.13-.094Zm-3.908 1.815-.651.792-.657-.336.775-.796.533.34Zm5.273-8.41-2.452-.062-.034-1.251 2.489.134-.003 1.178Zm1.756 6.002-1.694.288-.012-.086 1.8-.265-.094.064v-.001Zm2.472-1.277-2.093.016.089-.699 2.176.05-.17.633h-.002Zm-.18.5-2.006.074.093-.557 2.093-.016-.18.5Z"/><path d="m15.608 22.56-.96.616-.387.096 1.09-.619.257-.092Zm5.028-5.825-2.44-.141v-1.145l2.489.22-.05 1.068v-.002Zm-2.363 4.902-1.441.407-.131.094 1.558-.4.014-.101Zm4.322-2.095-2.176-.049.082-.823 2.25.119-.156.751v.002ZM11.36 15.803l-1.775.488-.15-1.426 1.814-.437.111 1.375Zm10.698 5.227-1.915.12.096-.403 2.006-.073-.187.355v.001Zm-11.704 1.978-.7.876-.67-.942.797-.876.574.94-.001.002Z"/><path d="m10.972 23.762-.599.87-.718-.75.7-.876.617.756Zm4.74-9.628-2.347.049-.032-1.318 2.366.018.013 1.251Zm7.038 4.656-2.248-.118.071-.928 2.314.196-.137.85ZM9.779 22.067l-.797.876-.605-1.11.883-.868.519 1.102Zm.035-4.388-1.375.697-.283-1.423 1.429-.662.229 1.388Zm3.549-3.496-2.114.243-.05-1.377 2.134-.184.032 1.318h-.002Zm8.507 7.045-1.825.156.096-.236 1.916-.119-.19.2h.003Zm-7.22 1.948-.68.699-.514.104.807-.709.386-.096v.002Zm-1.196.804-.53.78-.653-.109.652-.792.53.12Z"/><path d="m11.615 24.314-.492.86-.752-.542.6-.87.644.552Zm8.247-2.972-1.588.297-.015.101 1.694-.288-.09-.11h-.001ZM9.26 20.96l-.883.868-.526-1.251.958-.858.45 1.239v.001Zm8.938-6.691-2.488-.135-.012-1.251 2.505.206-.005 1.18Zm2.487 1.397-2.489-.22.004-1.178 2.521.298-.035 1.1h-.001Zm2.202 2.272-2.314-.195.061-1.01 2.366.274-.115.93.002.001Zm-5.931 3.816-1.105.507-.243.3 1.223-.515.125-.292Z"/><path d="m18.287 21.352-1.331.401-.124.292 1.441-.407.014-.286Zm3.399-.083-1.733.18.094-.065 1.825-.155-.186.04Zm-5.835.991-.839.603-.365.312.961-.615.243-.3Zm-4.603-7.832-1.813.437-.069-1.428 1.832-.386.049 1.377h.002Zm1.025 10.224-.385.844-.765-.32.493-.86.657.336Zm-3.464-4.928-.958.858-.433-1.364 1.019-.841.37 1.347h.002Z"/><path d="m9.587 16.29-1.43.662-.185-1.465 1.466-.624.15 1.426h-.001Zm13.415.716-2.366-.274.049-1.068 2.408.357-.09.987-.001-.002Zm-7.304-4.124-2.366-.018.012-1.286 2.363.082-.01 1.222Zm4.082 8.173-1.493.295-.014.287 1.589-.297-.084-.284.002-.001Zm-5.813 2.82-.408.764-.633.122.53-.78.513-.104-.002-.002Zm10.163-3.17-1.885-.03.18-.5 1.954.088-.25.442Z"/><path d="m24.38 20.263-1.955-.088.17-.634 2.018.152-.236.568.002.002Zm-3.66-5.697-2.522-.299.005-1.18 2.536.375-.021 1.104h.002Zm-7.387-1.702-2.133.184.014-1.346 2.13-.124-.012 1.286h.001Zm8.175 8.284-1.646.19.089.11 1.733-.18-.176-.122v.002Zm-6.496 1.715-.559.682-.486.33.68-.699.365-.313Zm8.858-1.852-1.812.02.187-.355 1.884.03-.259.307v-.002Z"/><path d="m24.615 19.696-2.018-.152.155-.751 2.078.225-.215.68v-.002Zm-6.412-6.608-2.506-.206.01-1.222 2.503.274-.007 1.154Zm-5.277 11.671-.278.825-.76-.09.385-.844.653.109Zm4.144-3.488-.997.488-.222.503 1.105-.506.113-.485Zm6.538-.095-1.738.056.188-.2 1.813-.018-.262.162Z"/><path d="m18.302 20.885-1.232.384-.114.484 1.332-.402.014-.466Zm6.526-1.871-2.078-.226.137-.85 2.13.302-.189.774Zm-1.737-2.99-2.408-.357.035-1.099 2.434.437-.063 1.019h.002ZM8.439 18.375l-1.02.84-.328-1.444 1.066-.82.283 1.423-.001.001Zm1.214 5.506-.414.932-.746-.928.49-.946.67.942Zm.718.752-.332.913-.8-.732.414-.931.718.751v-.002Zm5.702-2.877-.727.58-.334.524.84-.6.221-.504Z"/><path d="m8.984 22.938-.491.945-.675-1.1.56-.955.604 1.11h.002Zm2.216-9.889-1.832.386.018-1.396 1.828-.336-.014 1.346Zm12.152 8.143-1.668.08.186-.04 1.738-.056-.256.016Zm-2.008-.325-1.564.19.084.284 1.646-.19-.165-.282-.001-.002ZM9.435 14.863l-1.467.624-.083-1.47 1.481-.583.069 1.427v.002Zm1.688 10.309-.248.892-.836-.521.332-.914.752.542v.001Zm8.582-4.567-1.404.28-.014.467 1.493-.296-.075-.45Zm5.312-2.365-2.13-.303.115-.93 2.172.383-.157.85Zm-4.277-4.777-2.535-.374.007-1.154 2.534.448-.005 1.08Zm-5.032-1.802-2.363-.082.054-1.222 2.34.144-.031 1.16Zm-1.255 11.884-.297.74-.597.354.409-.764.485-.33Z"/><path d="m8.377 21.831-.559.955-.585-1.248.618-.956.526 1.251v-.002Zm4.967-10.252-2.13.124.078-1.277 2.106-.069-.054 1.222Zm4.866.36-2.504-.275.032-1.16 2.481.339-.008 1.096Zm-4.651 12.7-.173.8-.738.147.278-.825.633-.122Zm9.595-9.635-2.434-.437.02-1.104 2.45.515-.034 1.026h-.002Zm-.049 6.051-1.597.092.176.123 1.668-.08-.247-.135Zm-7.759 1.283-.449.657-.444.549.56-.682.333-.524Zm-3.458 3.156-.16.865-.852-.294.248-.891.766.32h-.002Zm-3.733-8.541-1.066.817-.216-1.49 1.095-.792.185 1.465h.002Zm17.019.439-2.172-.383.09-.988 2.205.465-.123.906Zm-6.859 2.858-1.144.357-.102.663 1.232-.384.014-.636Zm-1.145.354-.901.457-.196.694.996-.488.102-.663Zm4.025-.17-1.489.174.075.451 1.564-.189-.148-.435-.002-.001Zm-13.342.144-.618.956-.483-1.367.668-.954.433 1.365Zm17.926.243-1.65-.115.25-.442 1.7.17-.302.387h.002Z"/><path d="m25.466 21.079-1.595-.068.258-.308 1.65.116-.313.26Zm.614-.645-1.701-.17.236-.569 1.75.236-.284.503h-.002Zm-6.438-.436-1.327.25-.014.636 1.404-.28-.063-.608v.002Zm-3.373 1.066-.627.55-.296.726.727-.58.196-.694v-.002Zm6.606-.289-1.533.091.164.281 1.597-.092-.23-.282.002.002Zm-2.129-8.395-2.534-.446.009-1.096 2.515.514.01 1.029Zm-8.098 13.201-.075.838-.846-.06.16-.865.761.09v-.003Zm-3.28-12.146-1.482.584.021-1.438 1.479-.54-.018 1.396v-.002Zm15.782 7.773-1.542-.032.262-.162 1.596.068-.316.127v-.001Zm-13.937-9.503-1.827.336.103-1.328 1.803-.285-.079 1.277Z"/><path d="m26.363 19.931-1.75-.236.215-.68 1.793.308-.258.608Zm-1.067-3.443-2.205-.465.063-1.02 2.226.546-.084.937v.002Zm-2.109-2.51-2.448-.515.005-1.08 2.447.589-.004 1.006Zm-7.449-3.477-2.34-.143.096-1.126 2.296.198-.052 1.07v.001Zm-.841 12.493-.194.713-.547.577.297-.741.444-.549Zm9.943-1.796-1.487-.006.257-.016 1.541.031-.31-.009Z"/><path d="m14.156 24.285-.075.772-.695.38.173-.8.597-.354v.002Zm12.465-4.963-1.793-.308.189-.774 1.831.383-.225.697-.002.002Zm-8.402-8.482-2.482-.339.053-1.07 2.441.4-.01 1.01h-.002Zm2.847 9.014L19.642 20l.063.608 1.488-.174-.127-.58Zm-7.668-9.496-2.106.068.142-1.178 2.06-.018-.096 1.126v.002ZM7.97 15.49l-1.095.79-.098-1.499 1.11-.761.083 1.47Zm-.55 3.725-.668.954-.367-1.452.706-.945.329 1.445v-.002Zm8.222 2.398-.353.626-.392.757.45-.657.295-.726Zm7.024-1.258-1.473.077.149.436 1.532-.091-.207-.422ZM10.04 25.547l-.073.884-.833-.72.105-.896.8.732Zm-.801-.734-.105.896-.778-.917.137-.907.746.928Zm9.089-5.354-1.072.316-.085.832 1.144-.356.012-.792Zm6.213 1.594-1.436.003.247.135 1.487.007-.3-.145h.002Zm-7.285-1.28-.823.418-.164.87.902-.458.085-.832v.002Z"/><path d="m26.848 18.627-1.831-.383.157-.85 1.863.464-.189.77v-.001Zm-15.973 7.439-.037.87-.87-.505.071-.884.836.519Zm2.511-.629.007.806-.82.176.075-.837.738-.146v.001ZM25.38 15.55l-2.226-.546.033-1.025 2.237.625-.044.946ZM8.493 23.884l-.137.907-.702-1.094.164-.914.675 1.101Zm11.097-4.636-1.26.21-.013.791 1.326-.25-.05-.751h-.002Zm1.145-7.894-2.514-.514.01-1.012 2.478.573.026.953Zm2.455 1.618-2.446-.59-.01-1.028 2.429.658.026.961.002-.001Zm-6.755 7.221-.545.512-.247.91.628-.55.164-.87v-.002Zm-4.709 6.167v.855l-.888-.278.037-.87.85.293Zm12.538-5.587-1.39.004.231.281 1.437-.003-.278-.28v-.002ZM9.385 12.04l-1.478.54.128-1.371 1.454-.498-.104 1.328v.002Zm17.65 5.813-1.863-.463.123-.906 1.885.544-.147.823.002.002Zm-15.743-7.425-1.803.285.187-1.225 1.758-.238-.142 1.178Z"/><path d="m7.818 22.783-.164.914-.61-1.245.189-.919.585 1.25Zm14.67-2.983-1.42.05.127.58 1.473-.077-.18-.552Zm-1.527-.657-1.372.104.051.752 1.424-.147-.105-.71h.002ZM15.79 9.431l-2.296-.197.136-1 2.232.247-.072.95Zm-8.7 8.339-.707.945-.24-1.502.73-.932.216 1.49Zm7.613 5.939.014.743-.638.606.076-.772.547-.577h.001Z"/><path d="m18.23 9.828-2.441-.399.071-.95 2.382.447-.012.9v.002Zm-2.941 12.41-.103.682-.483.788.194-.713.392-.757Zm10.135-7.635-2.237-.626.004-1.006 2.235.699v.931l-.002.002Zm1.316 6.616-1.274-.138.313-.26 1.309.183-.348.215Zm.348-.216-1.31-.183.303-.386 1.344.235-.336.334h-.001ZM7.886 14.018l-1.11.762.025-1.471 1.106-.729-.02 1.438Z"/><path d="m26.389 21.308-1.238-.104.317-.128 1.274.138-.352.093-.001.002Zm1.034-.639-1.344-.236.283-.503 1.376.297-.315.442ZM13.494 9.23l-2.06.018.202-1.045 1.994.03-.136 1V9.23Zm4.846 9.3-1.015.265-.069.978 1.072-.316.012-.928Zm-5.769 7.89.035.84-.88-.044v-.855l.845.06Zm1.51-1.363.086.774-.774.412-.007-.805.695-.38v-.001Zm9.931-4.689-1.346-.012.208.42 1.39-.003-.252-.407v.002Zm-8.124.335-.27.589-.33.947.354-.625.246-.91Zm11.294-3.674-1.886-.544.084-.936 1.902.624-.1.856Z"/><path d="m19.552 18.371-1.212.157-.012.928 1.261-.21-.037-.875ZM7.233 21.536l-.189.92-.503-1.365.208-.921.482 1.366h.002Zm18.81-.259-1.202-.082.31.01 1.238.104-.346-.032Zm-8.718-2.482-.762.37-.13 1.028.823-.42.069-.978Zm10.415 1.432-1.376-.299.259-.608 1.405.366-.287.54-.002.001Zm-4.576-8.215-2.429-.66-.026-.952 2.398.719.057.89v.003Z"/><path d="m20.71 10.4-2.479-.572.012-.9 2.426.625.04.848Zm1.631 8.735-1.378.007.105.71 1.42-.05-.146-.67v.003Zm3.369 1.989-1.168-.071.299.145 1.202.082-.332-.156Zm2.316-1.436-1.405-.366.226-.697 1.429.439-.252.625.002-.002Zm-7.142-1.368-1.33.053.037.875 1.372-.105-.079-.823Zm-4.321.844-.483.465-.192 1.073.545-.512.13-1.028v.002Zm8.863-5.492-2.235-.7-.026-.96 2.22.769.04.893v-.002Zm-1.631 6.169-1.307-.04.18.552 1.346.012-.217-.524h-.002Zm3.487-3.666-1.902-.624.044-.946 1.908.701-.05.869ZM13.393 26.242l.068.823-.855.194-.035-.839.82-.176.002-.002Zm-6.52-9.96-.73.932-.109-1.519.741-.914.098 1.5v.001Zm2.616-5.571-1.454.499.23-1.267 1.41-.455-.186 1.225v-.002Zm6.373-2.23-2.232-.246.173-.844 2.15.288-.09.804-.001-.002Zm-4.428.769-1.758.238.267-1.09 1.692-.195-.203 1.045.002.002Z"/><path d="M18.242 8.927 15.86 8.48l.09-.804 2.304.49-.014.763.002-.002Zm7.158 11.92-1.136-.074.278.28 1.169.072-.31-.278H25.4ZM9.97 26.433l.1.807-.831-.72-.103-.81.833.72v.003Zm18.306-7.37-1.43-.439.19-.77 1.45.513-.21.694v.002ZM9.134 25.71l.103.81-.776-.916-.105-.811.778.917Zm6.052-2.79.094.71-.563.819-.014-.743.483-.788v.002ZM6.75 20.17l-.208.922-.382-1.454.223-.921.367 1.452v.002Zm4.09 6.767.1.807-.87-.505-.1-.807.87.505Zm4.777-5.647-.026.646-.404.982.103-.682.329-.947-.002.002Zm2.733-3.802-.978.206-.047 1.101 1.015-.265.01-1.042Zm-3.631 6.963.157.743-.71.638-.085-.774.638-.607Zm8.388-13.328-2.398-.719-.04-.847 2.352.77.086.797v-.002Zm-3.575 6.272-1.182.096-.01 1.041 1.213-.157-.023-.979.002-.002ZM7.907 12.58l-1.106.73.149-1.407 1.085-.694-.128 1.372Z"/><path d="m8.358 24.793.105.811-.7-1.09-.107-.815.702 1.094Zm13.873-6.427-1.347-.046.078.823 1.38-.007-.11-.77ZM13.63 8.234l-1.994-.03.259-.884 1.908.07-.173.844Zm7.038 1.319-2.426-.625.014-.764 2.357.666.055.722v.001Zm-3.296 8.138-.72.313-.09 1.159.763-.37.047-1.102Zm7.748 2.765-1.108-.087.252.406 1.136.073-.28-.392Zm-9.04-.826-.208.546-.255 1.117.271-.59.192-1.072Z"/><path d="m23.617 19.213-1.276-.08.147.67 1.307.04-.178-.63Zm4.869-.845-1.45-.514.146-.823 1.465.593-.161.746v-.002Zm-16.76 8.849.097.81-.884-.28-.1-.808.887.278Zm15.606-11.913-1.908-.7v-.932l1.908.774v.858Zm-1.946-2.524-2.221-.77-.058-.89 2.195.828.082.83.002.001Zm-4.551 4.625-1.303-.01.022.978 1.33-.052-.049-.916ZM7.656 23.7l.106.814-.608-1.24-.107-.817.61 1.244-.001-.001Zm19.947-2.287-.863-.194.348-.215.882.236-.367.175v-.002Zm-13.436 4.419.1.805-.806.428-.068-.823.774-.412v.002Z"/><path d="m27.233 21.474-.844-.165.351-.092.863.194-.37.063Zm.737-.236-.882-.236.335-.334.902.285-.355.283v.002Z"/><path d="m26.867 21.42-.824-.143.346.032.844.164-.366-.052Zm1.458-.464-.902-.285.315-.442.92.34-.333.385v.002Zm-11.674-2.95-.438.412-.133 1.211.482-.465.09-1.158Zm-10.266.71-.223.92-.252-1.506.234-.917.241 1.503Zm18.492 1.241-1.083-.115.216.524 1.108.087-.243-.496h.002Zm-6.621-11.79-2.305-.49.106-.634 2.213.519-.014.605Zm10.39 9.455-1.464-.592.1-.856 1.474.67-.11.78v-.002Zm-21.869-2.84-.741.914.028-1.494.737-.892-.024 1.472Zm5.829 12.476.096.81-.879-.046-.098-.81.881.045v.001Z"/><path d="m15.95 7.677-2.148-.289.204-.665 2.05.32-.107.634h.002Zm7.071 2.647-2.352-.77-.054-.722 2.294.81.112.682Zm3.495 10.934-.805-.135.332.156.824.143-.35-.166v.002Zm-4.356-3.743-1.326-.109.048.916 1.348.045-.07-.852Zm6.497 3.053-.92-.34.287-.54.935.403-.302.477ZM9.678 9.487l-1.41.454.33-1.13 1.349-.415-.268 1.091h-.001Z"/><path d="m11.636 8.204-1.691.194.342-.924 1.606-.156-.258.885.001.001Zm11.847 10.292-1.253-.13.11.77 1.276.08-.135-.718.002-.002Zm-3.959-2.162-1.165.024-.009 1.13 1.181-.097-.006-1.057Z"/><path d="m18.359 16.361-.961.138-.026 1.197.978-.204.009-1.129v-.002Zm8.973-1.913-1.906-.774-.04-.893 1.896.84.05.826v.001ZM15.591 21.94l.16.676-.471 1.015-.095-.71.404-.982h.002Zm5.022-13.109-2.357-.666.014-.604 2.275.695.068.575ZM7.046 22.455l.106.817-.501-1.36-.108-.822.503 1.365Zm18.256-10.508-2.195-.828-.086-.797 2.16.88.122.745h-.001Z"/><path d="m15.28 23.63.22.712-.625.851-.158-.743.563-.82Zm.592-3.454.034.606-.315 1.155.026-.645.255-1.116Zm10.318.81-.79-.138.309.277.806.135-.327-.274h.002Zm-5.374-4.57-1.291-.084.007 1.057 1.303.01-.019-.985v.002Zm8.144 3.676-.936-.404.252-.625.947.471-.264.558ZM13.803 7.388l-1.908-.07.308-.699 1.805.103-.205.666ZM8.035 11.21l-1.085.694.27-1.303 1.047-.658-.23 1.267h-.002Zm9.363 5.286-.7.25-.046 1.26.72-.313.026-1.197Zm7.282 2.871-1.063-.154.178.629 1.084.115-.2-.59Zm4.077-2.527-1.475-.669.05-.868 1.479.742-.054.794v.002Zm-12.544 1.578-.164.5-.175 1.258.208-.545.133-1.211-.002-.002Zm-2.753 8.646.095.813-.853.19-.096-.81.855-.195v.002Zm1.414-1.871.13.79-.738.655-.1-.805.71-.638-.002-.002Zm11.02-4.586-.774-.152.28.392.79.138-.296-.378Zm3.331-1.074-.947-.472.21-.694.957.542-.22.624Zm-5.828-1.827-1.237-.194.07.852 1.253.131-.086-.79Z"/><path d="m22.132 16.598-1.316-.182.02.986 1.326.108-.028-.912h-.002ZM18.27 7.562l-2.212-.519.118-.447 2.108.538-.014.428Zm-8.2 19.676.156.725-.823-.711-.164-.732.832.72v-.002ZM27.28 13.62l-1.896-.84-.082-.83 1.877.9.1.77Zm-4.372-3.978-2.295-.811-.068-.575 2.226.839.137.547ZM9.237 26.521l.164.732-.767-.905-.173-.742.776.915Zm-3.093-9.309-.234.918-.112-1.524.238-.91.108 1.516Zm10.553-.464-.418.355-.068 1.317.439-.412.045-1.26h.002Zm-.639-9.706-2.05-.32.232-.468 1.936.34-.118.448ZM6.542 21.09l.109.824-.381-1.449-.11-.828.382 1.454Zm12.993-5.862-1.17-.054-.006 1.186 1.165-.024.01-1.11v.002ZM10.94 27.745l.146.72-.86-.502-.155-.725.868.505v.002Zm14.24-16.542-2.16-.879-.112-.681 2.112.919.16.641Z"/><path d="m18.366 15.174-.963.063-.003 1.261.96-.138.008-1.186h-.002Zm6.164 3.525-1.048-.205.135.718 1.063.154-.15-.667ZM20.545 8.256l-2.275-.695.014-.428 2.183.713.078.412v-.002Zm8.265 7.792-1.478-.743v-.858l1.477.813v.788h.002ZM6.801 13.311l-.737.891.166-1.433.72-.865-.149 1.407Zm1.66 12.295.173.743-.694-1.078-.18-.755.701 1.09Zm17.176-5.471-.76-.176.243.496.774.152-.257-.472Zm-4.809-4.745-1.293-.163-.009 1.11 1.292.083.012-1.03h-.002Zm8.615 3.519-.957-.542.16-.746.967.614-.17.674ZM11.895 7.318l-1.606.156.409-.732 1.505-.123-.308.7Zm-1.95 1.079-1.35.414.424-.96 1.268-.378-.342.924Zm17.674 13.289-.386-.21.37-.064.392.238-.378.035.002.002Z"/><path d="m27.995 21.65-.392-.237.367-.175.397.275-.374.14.002-.002Zm-16.172 6.374.138.718-.875-.278-.147-.72.884.28Zm15.424-6.406-.38-.194.366.052.386.212-.372-.07Zm-9.844-6.382-.702.182v1.33l.699-.25.003-1.262Zm10.966 6.276-.397-.274.355-.283.403.318-.36.24h-.001Zm-12.463-.729.213.643-.367 1.189-.16-.677.314-1.155Zm-1.639 5.854.094.816-.806.425-.094-.813.806-.428Z"/><path d="m15.752 22.613.272.68-.524 1.047-.22-.712.472-1.015Zm-1.744-15.89-1.805-.103.35-.491 1.687.126-.232.468Zm9.354 10.142-1.23-.265.028.912 1.237.194-.035-.84Zm3.528 4.58-.374-.187.351.166.38.194-.357-.173ZM7.76 24.514l.18.755-.6-1.225-.188-.769.608 1.24Zm8.289-5.594.073.566-.217 1.299-.033-.607.175-1.258h.002Zm11.13-6.073-1.877-.9-.122-.746 1.848.95.15.696Z"/><path d="m22.148 15.653-1.318-.262-.012 1.029 1.316.182.014-.95Zm6.581 5.62-.404-.318.332-.385.409.369-.337.334Zm-3.302-1.693-.747-.213.199.59.76.177-.21-.554h-.002ZM22.771 9.097l-2.226-.839-.079-.412 2.148.854.157.397Zm-14.506.844-1.046.657.386-1.167.99-.622-.33 1.13v.002Zm21.348 8.297-.966-.613.11-.781.97.685-.114.71Zm-5.18-.269-1.036-.264.086.79 1.046.204-.096-.73ZM18.284 7.132l-2.108-.538.13-.246 1.992.545-.014.24Zm10.525 8.126-1.477-.812-.05-.825 1.47.877.059.762-.002-.002ZM16.28 17.102l-.144.449-.089 1.368.164-.5.068-1.317Zm10.276 4.069-.368-.189.327.275.373.187-.332-.271v-.002ZM25.02 10.564l-2.112-.92-.137-.546 2.057.947.192.519ZM15.5 24.34l.154.774-.65.867-.13-.79.626-.851Zm4.06-10.247-1.19-.136-.006 1.214 1.17.055.025-1.133Z"/><path d="m29.066 20.94-.41-.37.303-.476.413.424-.306.421Zm-16.363 7.13.129.72-.87-.046-.139-.719.88.046v-.002Zm7.763-20.227-2.182-.713.014-.24 2.081.717.087.236ZM6.16 19.64l.11.828-.25-1.502-.11-.833.252 1.506H6.16Zm14.712-5.298-1.312-.248-.027 1.132 1.294.163.043-1.047h.002Zm-2.502-.385-.988-.014.02 1.293.962-.062.005-1.215v-.002Zm-2.194-7.361-1.936-.34.254-.256 1.812.35-.13.246Zm.523 8.82-.42.294v1.39l.418-.354v-1.33h.002Zm-10.663.281-.238.91.03-1.502.236-.904-.028 1.494v.002Zm20.22 5.111-.364-.203.296.378.369.189-.301-.364ZM7.152 23.274l.187.768-.496-1.343-.194-.785.501 1.36h.002Zm18.117-4.314-.74-.26.15.667.749.213-.16-.622v.002Z"/><path d="m29.372 20.52-.413-.425.264-.558.416.486-.267.496Zm-5.994-4.525-1.232-.343-.014.95 1.23.265.016-.872Zm6.348 1.53-.97-.685.055-.793.971.753-.056.725Zm-2.698-5.371-1.849-.95-.159-.642 1.814.99.194.602Zm-4.823 2.534-1.333-.346-.044 1.047 1.318.262.058-.961.001-.002Zm-4.821-.745-.727.11.044 1.363.702-.181-.02-1.294v.002Zm7.009 3.257-1.03-.333.034.84 1.036.265-.04-.774v.001Zm-1.779-8.502-2.148-.855-.087-.236 2.06.857.175.234ZM6.95 11.905l-.72.865.302-1.333.687-.837-.271 1.303.002.002Zm21.8 2.595-1.47-.878-.101-.77 1.455.933.116.714ZM12.203 6.62l-1.505.122.465-.517 1.39-.096-.35.491Zm13.793 13.74-.359-.225.257.472.364.202-.26-.447-.002-.002Zm-10.992 5.622.092.82-.737.65-.095-.816.738-.655.002.001Zm9.826-15.937-2.057-.947-.157-.397 1.994.961.22.383ZM14.24 6.254l-1.688-.126.383-.269 1.56.14-.253.255h-.002Zm5.361 6.714-1.228-.22v1.21l1.188.136.04-1.124v-.002ZM18.3 6.892l-1.993-.545.137-.036 1.87.538-.015.042v.001Zm-8.013.58L9.02 7.85l.505-.766 1.172-.344-.409.732ZM29.64 20.02l-.415-.486.22-.624.418.549-.222.56Zm-16.085 7.859.12.723-.843.187-.13-.72.853-.19Z"/><path d="m20.379 7.61-2.081-.716.014-.042 1.973.706.094.052Zm.566 5.696-1.343-.335-.04 1.123 1.312.248.073-1.036h-.002Zm-2.572-.557-1.03-.095.041 1.288.987.014v-1.21l.002.003Zm-2.251 6.735.25.61-.252 1.332-.213-.643.217-1.299h-.002Zm9.045-1.199-.734-.316.096.73.74.26-.103-.674h.001Zm-9.048 3.141.314.652-.409 1.216-.272-.68.367-1.188Z"/><path d="m16.138 17.55.094.525-.11 1.41-.073-.566.089-1.368Zm.168-11.202-1.812-.35.269-.033 1.68.348-.137.036v-.001Zm-6.08 21.613.154.608-.807-.699-.17-.62.823.711Zm19.556-11.16-.971-.753v-.788l.968.82.003.721ZM9.403 27.253l.17.62-.754-.888-.183-.64.767.906v.002Zm14.043-12.139-1.24-.427-.058.962 1.232.342.068-.879-.002.002Z"/><path d="m16.281 15.71-.143.398v1.443l.143-.45v-1.39Zm9.501 4.133-.354-.259.21.554.358.225-.213-.52Zm1.73 2.094.107-.252.377-.035-.11.275-.372.012h-.002Zm-.676-10.387-1.814-.99-.192-.519 1.772 1.015.234.493ZM6.65 21.913l.195.785-.376-1.431-.197-.802.38 1.448h-.001Zm15.655-8.173-1.358-.435-.073 1.036 1.333.346.1-.949-.002.002Zm4.839 8.111.103-.236.372.07-.107.252-.367-.084-.001-.002ZM8.596 8.81l-.991.623.493-.996.919-.587-.423.96h.002ZM5.91 18.13l.11.833-.112-1.519-.112-.84.112 1.523.002.002Zm5.176 10.334.136.598-.844-.491-.154-.608.86.501h.002ZM22.441 8.465l-2.06-.856-.095-.052 1.97.844.185.064Z"/><path d="m27.884 21.924.11-.274.375-.14-.116.306-.369.108Zm-11.227-7.869-.444.23.068 1.428.42-.293-.044-1.365Zm-.633 9.244.177.76-.545 1.06-.154-.773.524-1.047h-.002ZM24.41 16.4l-1.03-.406-.016.872 1.03.332.018-.797-.002-.001Zm5.453 3.06-.418-.55.17-.674.42.614-.172.61Zm-1.229-5.675-1.455-.933-.15-.696 1.436.982.168.649.001-.002Zm-1.842 7.891.098-.229.357.173-.104.236-.352-.178.001-.002ZM8.634 26.348l.184.64-.68-1.058-.197-.66.693 1.078ZM24.61 9.662l-1.994-.961-.175-.234 1.926.963.243.234v-.002Zm3.643 12.155.116-.306.36-.24-.12.343-.354.203h-.002Zm-8.596-9.933-1.284-.306v1.17l1.228.22.056-1.086v.002Zm-2.315.77-.774.037.087 1.361.727-.11-.042-1.288h.002Zm.972-5.804-1.87-.537.14.176 1.744.517-.014-.157v.002Z"/><path d="m20.285 7.558-1.973-.706.014.157 1.86.681.099-.132Zm.763 4.748-1.39-.423-.057 1.085 1.344.336.102-.998h.001Zm5.414 9.098.094-.232.332.272-.098.23-.328-.27ZM6.064 14.203l-.236.903.175-1.443.228-.892-.166 1.433-.001-.001Zm5.897 14.54.121.594-.86-.273-.136-.597.875.278v-.002Zm6.412-17.166-1.092-.175.063 1.25 1.029.094v-1.169ZM28.61 21.614l.119-.343.337-.334-.124.387-.334.29h.002Zm-3.487-4.038-.73-.379.04.774.734.317-.044-.71v-.002Zm.497 1.684-.351-.303.159.622.354.259-.16-.58-.002.001Zm4.159-3.18-.97-.82-.06-.76.965.879.065.7ZM14.494 5.999l-1.56-.14.405-.037 1.424.142-.27.033v.002Zm-.134 21.456.113.73-.797.418-.12-.723.805-.425Z"/><path d="m26.165 21.051.093-.242.3.363-.094.232-.297-.353h-.002ZM12.552 6.128l-1.39.097.51-.287 1.262-.079-.382.27Zm11.013 8.124-1.26-.512-.1.95 1.24.426.12-.864ZM22.254 8.4l-1.97-.843-.097.132 1.875.818.192-.106Z"/><path d="m22.443 12.833-1.395-.523-.101.998 1.358.435.14-.908-.002-.002Zm7.589 6.015-.42-.613.114-.71.42.677-.114.644v.002Zm-22.09 6.42.198.66-.591-1.2-.21-.685.601 1.225h.002Zm8.5-18.955-1.68-.348.277.19 1.543.334-.14-.176Zm10.16 4.747-1.772-1.015-.22-.383 1.726 1.03.268.368h-.002ZM15.654 25.115l.092.825-.65.862-.092-.82.65-.867Zm4.072-14.247-1.355-.388v1.1l1.286.306.069-1.018Zm9.216 10.455.124-.386.306-.421-.128.435-.302.372Zm-4.458-5.722-1.038-.486-.068.88 1.03.405.076-.8v.001Zm-.117-6.173-1.926-.963-.185-.065 1.852.95.259.078Zm4.099 3.708-1.436-.982-.194-.603 1.414 1.018.218.567h-.002ZM20.187 7.69l-1.861-.682.012.353 1.747.645.1-.317h.002ZM7.22 10.6l-.686.836.431-1.197.642-.805L7.22 10.6v-.002Zm13.956.778-1.45-.509-.069 1.017 1.391.423.128-.931Zm-2.85-4.368-1.744-.518.14.386 1.616.486-.012-.353V7.01Zm-7.63-.27-1.172.344.575-.545 1.064-.314-.465.517-.002-.002Zm15.21 13.883.09-.264.26.448-.093.243-.258-.428.001.001Zm-8.626-9.215-.84-.035.13 1.321.774-.037-.063-1.249Z"/><path d="m18.37 10.478-1.173-.25.082 1.177 1.092.174V10.48l-.002-.002Zm-5.538 18.309.103.595-.855-.048-.12-.594.87.046.002.001Zm3.738-16.096-.491.168.134 1.424.444-.23-.087-1.362Zm8.947 5.945-.35-.35.103.674.352.302-.105-.624v-.002ZM6.27 20.466l.198.802-.247-1.482-.2-.821.249 1.501ZM22.062 8.507l-1.875-.818-.1.317 1.781.777.194-.276Zm-5.849 5.776-.166.345.09 1.48.144-.397-.068-1.428Zm8.928 2.565-.73-.45-.018.797.73.38.018-.727Z"/><path d="m19.804 9.95-1.44-.466.005.998 1.355.388.078-.92h.002Zm9.44 11.001.128-.435.267-.496-.131.487-.264.446v-.002Zm-13.106-4.846.094.483v1.485l-.094-.524v-1.444Zm6.479-4.12-1.441-.608-.128.931 1.395.523.174-.846Zm-2.532-3.981-1.747-.645.01.542 1.64.596.1-.491-.003-.002Zm-3.853 10.072.267.577-.129 1.441-.25-.61.11-1.41.002.002Z"/><path d="m21.326 10.536-1.522-.589-.079.92 1.45.508.151-.84v.001Zm8.388 4.843-.964-.88-.116-.714.956.932.124.662Zm.434 2.823-.42-.676.056-.725.42.739-.055.662h-.002Zm-6.418-4.774-1.287-.598-.14.909 1.26.512.166-.823h.002Zm-7.36 6.666.345.627-.282 1.358-.314-.652.251-1.331v-.002Zm9.964-9.403-1.726-1.029-.243-.234 1.676 1.029.293.234ZM24.108 9.35l-1.852-.95-.192.107 1.778.92.268-.078h-.002Zm-5.77-1.99-1.617-.485.135.585 1.492.44-.01-.54Zm-1.756-.872-1.543-.334.276.413 1.406.307-.14-.386Zm3.311 2.66-1.534-.535.007.869 1.44.465.089-.799h-.002ZM5.796 16.606l.112.84.032-1.495-.112-.848-.03 1.503h-.002Z"/><path d="m19.988 8.496-1.64-.596.01.715 1.534.535.094-.654h.002ZM7.34 24.045l.209.685-.486-1.316-.218-.713.496 1.344h-.002Zm18.355-3.911.087-.292.213.52-.089.264-.211-.49v-.002Z"/><path d="m21.868 8.783-1.78-.777-.1.49 1.688.726.19-.439h.002Zm-3.504.703-1.267-.322.1 1.068 1.172.25-.005-.998v.002Zm3.13.327-1.602-.663-.09.799 1.522.589.168-.725h.002Zm3.121 5.007-1.05-.566-.119.863 1.038.486.131-.781v-.002ZM9.019 7.851l-.92.587.59-.798.835-.554-.505.765Zm5.744-1.887-1.425-.142.418.2 1.283.134-.276-.19v-.002Zm13.485 6.606-1.414-1.019-.234-.492 1.386 1.045.26.466h.002Z"/><path d="m21.676 9.221-1.688-.725-.095.654 1.603.662.182-.59h-.002ZM16.433 22.08l.192.748-.426 1.229-.176-.76.409-1.217h.001Zm1.916-14.179-1.493-.44.126.769 1.375.386-.008-.715Z"/><path d="m18.357 8.615-1.375-.386.115.93 1.267.322-.007-.868v.002Zm4.467 2.613-1.498-.689-.15.84 1.442.609.206-.759v-.001Zm-5.625-1-.927-.103.168 1.244.84.035-.081-1.176Zm12.309 10.28.13-.488.223-.561-.137.542-.218.506h.002ZM23.84 9.429l-1.778-.921-.194.276 1.704.88.269-.235Zm1.631 8.554-.348-.409.044.71.35.351-.046-.654v.002Zm1.089 4.141.585-.272.367.083-.596.285-.356-.098v.002ZM12.935 5.859l-1.262.079.54-.046 1.127-.07-.405.037Zm13.981 16.366.596-.285.373-.012-.607.305-.361-.006v-.002ZM15.096 26.8l.105.74-.728.641-.112-.73.737-.65h-.002Z"/><path d="m26.217 21.94.575-.266.353.178-.585.273-.343-.186Zm-2.278-9.274-1.321-.682-.175.846 1.288.598.21-.762h-.002Zm1.279 3.456-.734-.52-.075.8.73.449.077-.727.002-.002Zm.822-5.665-1.675-1.029-.259-.078 1.622 1.015.313.092Zm-9.319-3.581-1.406-.308.269.622 1.272.27-.135-.586v.002Zm6.335 3.698-1.562-.761-.168.725 1.498.688.232-.652ZM6.23 12.769 6 13.66l.317-1.345.215-.88-.302 1.334ZM13.676 28.6l.087.599-.828.182-.103-.594.844-.187Zm2.764-17.227-.559.107.198 1.382.49-.168-.129-1.321Zm9.094 8.217.087-.328.161.58-.087.292-.16-.544Zm1.744 2.639.607-.306.368-.108-.618.331-.359.083h.002Zm2.924-4.688-.42-.74-.003-.72.418.798.006.664-.001-.002ZM23.57 9.664l-1.704-.88-.19.438 1.63.826.264-.386v.002Zm6.02 5.05-.956-.93-.168-.65.946.978.18.604-.002-.002Zm-3.692 6.958.564-.268.329.27-.575.265-.32-.267h.002Z"/><path d="m23.306 10.05-1.63-.827-.182.59 1.562.762.252-.526h-.002Zm-6.209-.888-1.029-.166.203 1.133.926.103-.1-1.068v-.002ZM10.38 28.57l.106.462-.784-.678-.13-.481.808.699v-.002Zm14.417-14.494-1.068-.648-.166.823 1.05.566.184-.743v.002Zm2.84 8.072.618-.332.355-.203-.63.364-.343.171Zm.351-10.047-1.386-1.045-.268-.368 1.355 1.057.299.355v.001ZM16.856 7.46l-1.272-.269.253.816 1.145.222-.126-.768ZM9.571 27.876l.13.48-.733-.863-.15-.505.753.888ZM29.726 20l.137-.542.17-.61-.137.596-.168.555h-.002Zm-4.118 1.329.557-.276.297.353-.564.267-.29-.344Z"/><path d="m16.984 8.228-1.145-.222.23.987 1.03.166-.115-.931Zm-.906 4.632-.211.291.18 1.477.166-.344-.135-1.425Zm.122 11.193.092.83-.546 1.055-.092-.825.545-1.06h.002ZM11.163 6.226l-1.064.314.629-.309.945-.293-.51.286v.002Zm3.876-.07-1.283-.135.418.43 1.14.117-.275-.412Zm9.146 5.829-1.361-.76-.206.758 1.32.682.247-.68Zm1.545-1.62L24.108 9.35l-.267.078 1.567.99.324-.053h-.002ZM11.222 29.063l.082.448-.82-.48-.106-.46.844.49v.002ZM6.845 22.7l.218.714-.368-1.402-.227-.742.375 1.43h.002Zm-.825-3.736.201.821-.11-1.5-.203-.84.112 1.519Zm19.467-1.646-.348-.47-.017.727.348.409.015-.666h.002ZM7.605 9.433l-.641.806.55-1.03.584-.773-.493.996v.001ZM27.98 21.978l.63-.364.333-.29-.64.399-.323.255ZM8.818 26.985l.15.505-.66-1.026-.17-.536.68 1.057Zm16.612-7.974.085-.37.105.623-.087.329-.105-.582h.002Zm-9.383-4.382.073.442.112 1.52-.094-.482-.091-1.48Zm9.309 6.288.55-.292.259.428-.557.276-.252-.412Zm-.002-5.503-.74-.596-.13.782.734.52.136-.706Z"/><path d="m24.463 11.41-1.409-.834-.232.652 1.361.76.278-.578h.002Zm-8.193-1.285-.646.049.257 1.302.56-.107-.168-1.244h-.002Zm9.137.292-1.568-.99-.27.237 1.512.949.326-.196Zm4.789 6.459-.417-.798-.065-.701.414.851.068.647v.001Zm-.784-2.765-.946-.976-.218-.567.931 1.01.231.532.002.001Zm-4.382-.718-1.09-.727-.21.762 1.069.648.23-.683Zm2.659-1.643-1.354-1.057-.294-.234 1.321 1.057.327.234Zm-11.457 4.84.27.547v1.515l-.27-.577V16.59Zm8.533-5.645-1.459-.896-.252.526 1.409.833.302-.463Z"/><path d="m25.083 10.61-1.511-.948-.264.386 1.459.897.318-.334h-.002ZM12.082 29.337l.058.44-.836-.265-.082-.448.86.273ZM13.34 5.822l-1.127.07.557.2.99-.07-.418-.2h-.002Zm16.554 13.622.138-.596.114-.645-.142.652-.112.59.002-.001Zm-1.592 2.28.64-.399.302-.372-.65.439-.292.332ZM15.317 6.568l-1.142-.117.408.652 1.003.087-.27-.622ZM16.5 18.652l.36.607-.145 1.464-.345-.627.13-1.442v-.002Zm8.65 1.798.543-.315.211.49-.55.293-.206-.469h.002ZM5.828 15.104l.112.847.174-1.436-.111-.853-.175 1.444v-.002Zm3.696-8.02-.836.554.67-.576.739-.523-.575.545h.002Zm4.949 21.1.073.61-.781.408-.088-.599.797-.418-.001-.001ZM8.138 25.93l.17.535-.574-1.165-.185-.572.59 1.201h-.001ZM16.07 8.996l-.752-.004.308 1.185.647-.049-.203-1.132Zm9.494 7.66-.348-.535-.077.727.348.47.077-.66v-.002Zm-.18 1.748.087-.42.046.654-.086.37-.045-.604h-.002Z"/><path d="m15.584 7.189-1.003-.087.385.854.872.05-.254-.815v-.002Zm9.718 5.599-1.115-.802-.247.68 1.09.727.272-.605Zm-9.421-1.309-.278.242.264 1.432.211-.292-.197-1.383Zm11.481.036-1.321-1.057-.313-.093 1.285 1.045.347.105h.002Zm-1.817 3.235-.748-.672-.184.743.74.596.192-.668Zm-8.83 5.97.204.738-.293 1.368-.193-.748.282-1.357Zm-.878-12.712-.871-.051.35 1.035.752.003-.23-.987Zm-.091 17.932.1.75-.643.852-.105-.74.65-.86-.002-.003ZM29.18 13.58l-.932-1.01-.26-.466.915 1.034.276.442Zm-.584 7.808.65-.438.264-.446-.659.482-.255.402Zm1.532-5.158-.414-.85-.124-.663.41.898.128.613v.002Zm-5.134 3.702.54-.342.161.543-.543.315-.158-.516Zm-12.059 9.449.035.44-.83-.045-.058-.44.855.047-.002-.002Zm17.071-10.526.142-.652.054-.662-.144.704-.052.61ZM11.671 5.94l-.945.294.667-.062.82-.277-.54.045h-.002Zm13.858 16.495 1.03-.308.357.098-1.045.32-.342-.11Z"/><path d="m25.61 12.278-1.145-.87-.278.579 1.115.802.307-.51Zm-.41 9.966 1.018-.3.342.185-1.031.307-.329-.192Zm1.814-10.834-1.284-1.045-.323.053 1.25 1.018.357-.026ZM6.467 21.269l.228.743-.242-1.453-.232-.774.246 1.482v.002Zm.065-9.834-.215.88.45-1.212.197-.865-.432 1.197ZM25.87 22.544l1.045-.32.361.008-1.06.337-.346-.025Zm-.977-.574 1.005-.3.32.267-1.018.3-.307-.268v.002ZM13.758 6.021l-.99.07.558.439.85-.079-.418-.43Zm2.109 7.129.033.402.22 1.515-.073-.442-.18-1.477v.002Zm10.076-1.275-1.178-.932-.302.463 1.145.87.333-.401h.002Z"/><path d="m26.656 11.435-1.25-1.019-.325.196 1.213.98.36-.157h.002ZM25.4 17.79l.089-.472-.016.666-.087.42.015-.614H25.4Zm.302-1.773-.348-.603-.136.706.348.535.136-.64v.002Zm.086-1.88-.759-.744-.23.683.747.67.243-.609h-.002Zm.429 8.431 1.061-.337.358-.083-1.076.359-.343.06Zm2.633-1.581.66-.482.218-.507-.666.526-.211.461v.002Zm-4.235.647.993-.304.29.344-1.005.3-.278-.338v-.002ZM7.549 24.728l.185.572-.472-1.278-.199-.608.486 1.316v-.002Zm18.747-13.134-1.213-.98-.318.333 1.178.931.351-.283.002-.001Zm2.607 1.546-.916-1.035-.298-.355.898 1.047.314.342h.002Zm-12.276 9.684.091.837-.425 1.223-.09-.83.426-1.228-.002-.002ZM5.908 17.449l.203.84.031-1.476-.202-.86-.032 1.496Zm9.716-7.271-.363.197.342 1.348.278-.243-.257-1.302Zm9.267 9.205.538-.377.105.582-.54.342-.103-.547ZM30 15.616l-.41-.898-.18-.605.406.939.183.564h.002ZM8.1 8.437l-.584.775.657-.83.515-.741-.589.798v-.002Z"/><path d="m26.56 22.506 1.076-.358.345-.171-1.09.384-.331.145Zm-2.186-1.277.984-.315.251.412-.992.305-.242-.402h-.001Zm5.684-2.982.144-.704-.007-.664-.145.755.008.613ZM16.12 15.068l.252.52.128 1.548-.27-.547-.111-1.52h.002Zm-1.944-8.615-.85.079.544.669.713-.096-.407-.652Zm11.898 7.15-.772-.814-.273.605.759.744.286-.536v.001Zm2.515-.809-.898-1.046-.327-.234.88 1.046.346.233-.001.002ZM15.201 27.543l.06.623-.715.626-.073-.61.728-.641v.002Zm-1.438 1.658.012.447-.806.177-.034-.44.828-.182V29.2Zm15.297-8.676.666-.526.168-.556-.673.572-.16.51Zm-2.17 1.835 1.09-.384.324-.255-1.105.412-.309.226v.001Zm-.996-6.943-.35-.669-.192.668.348.602.192-.599.002-.002ZM15.317 8.992l-.467.158.41 1.224.364-.197-.307-1.185Zm10.158 8.192.09-.528-.077.66-.089.473.076-.605ZM10.097 6.54l-.74.522.735-.335.634-.497-.63.31Zm.388 22.493.035.294-.757-.654-.064-.32.784.678.002.002Zm13.69-8.259.975-.329.206.469-.984.314-.199-.454h.002Z"/><path d="m9.7 28.354.065.32-.704-.83-.091-.352.732.863-.002-.001Zm15.146-9.536.538-.416.045.605-.538.377-.045-.566Zm-8.345-1.68.362.588v1.532l-.362-.606v-1.515.001ZM14.58 7.102l-.712.096.512.88.585-.122-.384-.854Zm-2.369-1.209-.82.277.687.19.689-.268-.558-.2h.002Zm17.606 9.157-.405-.939-.23-.53.4.969.235.5Z"/><path d="m14.965 7.957-.585.122.468 1.068.467-.157-.351-1.035.001.002Zm-3.66 21.553.005.276-.79-.461-.035-.294.82.479Zm15.091-16.355-.788-.878-.308.51.772.815.324-.447Zm-20.394.505.112.853.317-1.339-.112-.86-.317 1.346Zm22.241-1.096-.881-1.047-.348-.105.862 1.036.367.117v-.001Zm1.807 5.07.145-.755-.069-.647-.146.803.068.6.002-.001Zm-14.447-5.915-.028.367.325 1.468-.033-.402-.264-1.431v-.002ZM8.968 27.492l.09.352-.635-.99-.116-.39.66 1.027v.001Zm18.23-5.357 1.104-.412.292-.332-1.119.443-.28.303.003-.002ZM7.063 23.411l.2.608-.359-1.36-.211-.65.368 1.402h.002Zm9.229 1.476.092.765-.54 1.04-.1-.752.546-1.055.002.002Zm7.731-4.604.97-.348.157.516-.976.329-.151-.495v-.002Zm2.726-7.475-.804-.931-.334.402.788.877.351-.348h-.001Zm-9.889 6.45.211.728-.152 1.472-.204-.738.145-1.464v.002Z"/><path d="m27.876 12.446-.862-1.036-.358.026.842 1.012h.378v-.002ZM6.22 19.787l.233.772-.106-1.466-.236-.806.11 1.5Zm23.001.229.673-.572.112-.59-.678.616-.107.546Zm-3.082-5.142-.351-.733-.243.61.35.669.244-.546Zm.978-2.304-.823-.976-.351.283.804.931.37-.237Zm.38-.123-.843-1.011-.36.157.823.977.38-.123Zm-1.889 4.156.094-.585-.136.64-.091.527.134-.582h-.002ZM12.14 29.777l-.027.268-.803-.257-.006-.276.836.265Zm11.668-7.196 1.39-.337.33.192-1.408.346-.312-.2Zm5.773-8.028-.4-.97-.276-.442.395.99.283.422h-.002ZM24.86 18.25l.54-.457-.016.613-.538.416.012-.57.002-.001Z"/><path d="m24.12 22.778 1.407-.346.343.11-1.425.358-.325-.122Zm-.606-.473 1.377-.332.308.269-1.391.337-.294-.274Z"/><path d="m24.447 22.9 1.425-.359.346.024-1.44.373-.33-.04v.001ZM6.963 10.238l-.195.865.575-1.043.17-.851-.55 1.03ZM23.25 21.963l1.365-.33.278.34-1.377.333-.266-.341v-.002Zm4.227-.129 1.119-.444.255-.402-1.129.477-.243.369h-.002Zm-19.17 4.63.116.39-.552-1.122-.138-.433.573 1.165h.001Zm15.616-6.705.968-.372.103.547-.97.35-.1-.523-.001-.002Zm6.058-2.726.147-.802-.128-.614-.146.842.127.574ZM12.769 6.09l-.689.269.689.439.557-.27-.557-.438Zm13.658 8.309-.355-.795-.286.536.351.734.288-.475h.002ZM14.546 28.793l-.01.46-.76.394-.013-.447.781-.409.002.002Zm10.232-5.853 1.44-.373.342-.061-1.457.39-.325.043ZM15.9 13.553l.217.494.255 1.54-.251-.52-.22-1.514Zm7.12 8.009 1.354-.334.24.402-1.364.33-.23-.4v.002Zm-7.76-11.191-.108.336.421 1.378.028-.367-.342-1.347h.002Zm-9.32 5.581.202.86.173-1.417-.202-.88-.175 1.437h.002Zm23.388 3.517.678-.617.052-.61-.681.659-.049.566v.002ZM8.688 7.637l-.515.741.748-.608.437-.71-.67.577Zm20.61 6.491-.395-.99-.314-.343.39 1.003.321.332-.002-.002Zm-12.379 7.331.09.842-.293 1.362-.09-.837.293-1.367Zm8.877-5.398.098-.643-.192.6-.095.585.19-.542Zm-15.07-9.83-.634.496.777-.082.523-.475-.668.061h.002ZM24.93 17.689l.543-.503-.075.604-.54.458.072-.56ZM12.97 29.823l-.056.265-.799-.045.026-.268.83.046-.001.002Z"/><path d="m25.102 22.898 1.458-.39.33-.145-1.473.41-.313.125h-.002Zm-9.256 3.792.046.643-.631.831-.06-.623.643-.852h.002Zm11.874-5.224 1.13-.477.21-.462-1.139.51-.2.429Zm-4.891-.35 1.345-.339.2.455-1.354.333-.191-.447v-.002Zm3.925-7.109-.358-.85-.324.447.355.795.327-.392Zm-2.874 5.215.966-.4.045.567-.968.372-.046-.539h.002Zm5.974-2.762.147-.843-.184-.564-.146.875.183.53v.001Zm-.877-2.662-.39-1.003-.346-.232.383 1.002.351.233h.002ZM13.326 6.53l-.557.268.669.677.432-.275-.544-.669v-.002ZM6.695 22.01l.211.65-.234-1.408-.219-.693.242 1.452Zm9.677-6.42.348.573.141 1.562-.361-.587-.128-1.548ZM14.85 9.148l-.203.31.507 1.25.108-.335-.41-1.225h-.002ZM7.734 25.297l.138.433-.454-1.23-.156-.482.472 1.277v.002Zm19.376-11.59-.361-.9-.351.347.358.851.354-.298Z"/><path d="m25.417 22.773 1.473-.409.31-.225-1.49.431-.293.205v-.002Zm3.96-3.868.681-.659-.009-.613-.683.699.009.573h.002Zm-6.693 1.725 1.34-.349.152.495-1.345.339-.145-.486-.002.002Zm3.352-5.058.101-.699-.245.545-.097.643.239-.489h.002Zm2.589-2.006-.382-1.004-.367-.117.377.993.372.127ZM13.868 7.197l-.432.275.633.894.313-.288-.512-.88h-.002Zm.514.883-.313.288.577 1.09.202-.31-.468-1.068h.002Zm10.677 9.074.549-.55-.135.581-.543.504.127-.535h.002Zm2.425-3.644-.367-.94-.37.238.362.9.375-.197ZM6.317 12.316l.112.86.45-1.206-.111-.867-.451 1.212v.001Zm21.604 8.722 1.14-.51.16-.51-1.148.543-.152.475v.002Z"/><path d="m28.253 13.438-.377-.993h-.378l.372.975.385.02-.002-.002Zm-.384-.018-.372-.97-.38.122.367.94.385-.091Zm-3.979 5.26.97-.432-.013.57-.966.4.01-.54-.001.002Zm-1.751 4.272 1.67-.376.313.201-1.686.388-.297-.211v-.002Z"/><path d="m21.86 22.67 1.654-.365.294.274-1.67.376-.279-.285ZM6.11 18.29l.237.805.031-1.445-.236-.837-.031 1.476Zm23.56-2.364.147-.876-.236-.5-.145.902.234.474ZM10.521 29.33l-.035.116-.721-.623v-.147l.756.653Zm6.195-5.668.09.783-.422 1.206-.092-.766.424-1.223Zm.147-5.935.213.723-.003 1.54-.211-.73v-1.532l.001-.001Zm5.573 5.438 1.686-.388.325.123-1.702.4-.31-.135Z"/><path d="M9.765 28.675v.147l-.673-.793-.033-.185.704.83.002.002Zm5.81-16.587.165.474.377 1.488-.217-.494-.325-1.468Zm6.033 10.233 1.642-.358.266.34-1.655.366-.252-.35-.002.002Zm4.101.247 1.489-.432.28-.302-1.503.453-.266.28v.001Zm-11.934 7.08-.085.273-.774.17.056-.266.805-.177h-.002Zm8.813-9.526 1.337-.362.1.522-1.341.35-.096-.51Zm-11.277 9.666-.07.096-.753-.44.035-.118.79.462h-.002ZM26.32 15.152l.107-.752-.288.476-.102.699.285-.423h-.002ZM22.745 23.3l1.702-.4.33.04-1.719.415-.313-.054ZM11.393 6.17l-.522.475.8.173.41-.458-.688-.19Z"/><path d="m21.387 21.917 1.63-.353.231.4-1.642.359-.22-.406h.001Zm-6.127 6.247-.03.479-.696.606.01-.46.715-.625h.002Zm14.108-9.833.683-.699-.068-.6-.683.737.068.564v-.002ZM9.06 27.84l.034.186-.607-.944-.06-.23.635.987-.001.002ZM7.516 9.209l-.172.851.687-.846.143-.835-.657.83h-.001Zm17.724 7.449.558-.598-.189.542-.549.55.182-.496-.002.002Zm4.194-1.204.145-.902-.283-.421-.143.92.28.405.001-.002Zm-1.361 5.107 1.148-.543.107-.545-1.153.576-.1.512h-.002ZM9.358 7.062l-.437.71.818-.366.353-.68-.734.336Zm13.698 16.294 1.72-.414.325-.044-1.737.429-.31.03h.002Zm.9-5.202.974-.465-.072.56-.97.431.066-.526h.002Z"/><path d="m21.206 21.465 1.621-.348.19.448-1.63.352-.181-.45v-.002ZM7.263 24.022l.155.482-.344-1.307-.17-.533.359 1.36v-.002Zm18.711-1.732 1.503-.453.243-.368-1.517.475-.23.346h.002Zm-13.859 7.754-.106.084-.767-.245.07-.096.803.257Zm10.428-10.446 1.335-.377.045.538-1.337.362-.043-.523Zm4.099-4.792.112-.798-.327.391-.107.752.322-.345Zm-20.529-.292.202.88.313-1.322-.2-.896-.315 1.338Zm10.958 5.474.09.85-.151 1.466-.091-.843.152-1.47v-.003Zm6.295 3.337 1.737-.428.312-.125-1.754.442-.297.111h.002Zm5.789-8.273.143-.921-.321-.332-.142.93.318.321.002.002Zm.143 2.716.683-.738-.127-.573-.68.769.126.542h-.002Zm-13.181-3.719.322.564.283 1.549-.348-.574-.255-1.54h-.002ZM8.425 26.854l.06.23-.525-1.069-.088-.283.553 1.122Zm-1.972-6.296.219.694-.103-1.423-.222-.737.106 1.466Z"/><path d="m21.068 20.977 1.616-.348.145.486-1.622.35-.14-.487v-.001Zm-4.684 4.675.037.666-.53 1.017-.045-.643.54-1.04h-.002Zm-1.232-14.945.097.458.489 1.394-.165-.473-.42-1.379Zm11.84 3.843.117-.841-.357.299-.112.799.35-.258h.002Zm-1.521 1.663.567-.643-.24.49-.557.597.23-.444ZM12.08 6.361l-.409.458.803.426.295-.447-.689-.439v.002ZM28.175 20.05l1.153-.578.049-.566-1.157.61-.045.535v-.002Zm.662-5.321.142-.93-.352-.233-.138.93.348.232Zm-4.76 2.925.98-.5-.127.535-.974.465.12-.5Zm2.128 4.286 1.517-.475.2-.428-1.527.5-.188.405-.002-.002Zm-3.654-2.862 1.339-.396-.01.54-1.336.377.009-.52h-.002Zm-2.144 4.44 1.879-.448-.289-.248-1.882.444.294.254-.002-.002Zm-.294-.252 1.883-.444-.266-.318-1.887.438.27.324Z"/><path d="m27.362 14.385.122-.875-.376.197-.117.84.37-.162ZM14.534 29.252l-.116.288-.73.38.086-.273.76-.395Zm9.129-6.039 1.754-.442.294-.205-1.77.458-.277.19-.001-.001Zm-2.948.479 1.873-.45-.304-.174-1.879.448.308.176h.002Zm-7.801 6.398-.145.083-.762-.044.106-.084.799.045h.002ZM28.49 14.497l.137-.93-.372-.127-.133.92.369.137h-.002Zm-7.515 5.972 1.613-.348.096.51-1.616.348-.093-.508v-.002Zm-1.132 2.474 1.887-.439-.236-.379-1.893.433.242.385Zm7.898-8.618.128-.903-.385.09-.122.876.38-.063Zm1.431 2.903.68-.769-.183-.53-.677.796.18.503Z"/><path d="m28.12 14.362.133-.92-.384-.02-.128.903.38.037Zm-7.09 9.429 1.87-.453-.31-.094-1.874.451.317.096h-.002Zm4.716-7.956.575-.685-.285.423-.566.643.274-.379.002-.002Zm-11.099-6.38.014.447.59 1.262-.097-.458-.507-1.25Zm4.954 13.102 1.893-.434-.201-.43-1.896.427.206.437h-.002ZM6.768 11.104l.112.867.575-1.038-.11-.873-.575 1.044h-.002Zm9.954 5.06.208.72.146 1.566-.213-.724-.141-1.562Zm-3.955-9.367-.295.447.78.67.184-.44-.669-.677ZM6.142 16.812l.236.837.171-1.386-.234-.869-.173 1.418Zm1.73 8.92.088.284-.434-1.173-.108-.34.454 1.231v-.002Zm20.348-6.219 1.157-.61-.009-.573-1.158.638.01.543v.002Z"/><path d="m21.345 23.803 1.867-.453-.311-.012-1.87.453.314.012ZM10.092 6.727l-.353.68.866-.11.264-.652-.777.082ZM24.25 17.193l.99-.535-.181.496-.98.5.173-.461h-.002Zm2.144 4.341 1.527-.5.152-.475-1.536.52-.143.455Zm-2.455 1.489 1.77-.458.265-.28-1.785.472-.25.266Zm-8.047 4.311-.05.503-.613.806.032-.48.63-.831v.002Zm1.118-5.031.086.8-.29 1.344-.09-.783.294-1.361Zm5.604-3.729 1.344-.418-.066.526-1.339.397.061-.505ZM6.906 22.66l.17.533-.226-1.354-.178-.587.234 1.408Zm3.58 6.785-.078-.06-.682-.59.04.026.722.624h-.002Zm10.445-9.495 1.613-.35.044.522-1.613.348-.044-.52ZM9.765 28.819l-.04-.026-.636-.75.003-.018.673.794Zm9.63-6.698 1.896-.426-.16-.47-1.902.419.165.477h.001Zm9.599-5.399.677-.795-.236-.474-.671.816.229.453h.001ZM14.069 8.369l-.08.44.672 1.094-.014-.447-.576-1.089-.002.002Zm-.633-.894-.185.44.736.895.08-.44-.633-.895h.002Zm-5.263.903-.143.835.779-.624.112-.818-.748.609v-.002Zm17.882 7.152.587-.725-.322.344-.574.685.31-.306-.001.002Z"/><path d="m11.24 29.883-.12-.084-.714-.416.079.06.753.44h.002Zm4.5-17.321.28.56.418 1.492-.321-.565-.378-1.489v.002Zm5.913 11.17 1.863-.453-.304.07-1.867.453.306-.072.002.002ZM9.092 28.028l-.004.017-.573-.89-.03-.07.607.945v-.002Zm4.596 1.892-.18.09-.74.162.146-.082.774-.17Zm14.52-10.95 1.159-.638-.069-.564-1.158.664.068.538Zm-8.978 2.672 1.902-.42-.115-.5-1.905.413.12.507h-.001Zm9.534-5.372.67-.816-.28-.403-.663.83.273.39Zm-4.575 6.49 1.786-.473.23-.346-1.798.485-.216.333h-.002Zm.281-5.975 1.001-.57-.23.444-.991.535.22-.41Zm-5.997 7.227 1.934-.495-.294-.253-1.946.484.306.264Zm8.064-2.928 1.536-.521.1-.512-1.543.542-.095.49h.002Z"/><path d="m18.167 23.749 1.946-.484-.27-.324-1.958.472.282.336Zm8.227-8.442.599-.76-.35.257-.587.725.34-.222h-.002Zm-5.457 4.131 1.614-.358-.008.52-1.613.352.007-.515v.001Zm1.791-1.345 1.35-.44-.12.5-1.344.417.114-.48v.003ZM12.007 30.13l-.163-.098-.725-.231.12.084.768.244Zm6.785-5.935 1.923-.503-.31-.176-1.934.494.32.184.001.001ZM6.347 19.092l.222.737.031-1.401-.222-.782-.031 1.446Z"/><path d="m17.886 23.417 1.957-.472-.241-.384-1.968.456.252.4Zm4.057.161 1.861-.451-.288.152-1.863.453.29-.154Zm-4.869-5.131.091.857-.003 1.532-.091-.85.003-1.539Zm-10.645-5.27.2.896.445-1.188-.196-.914-.45 1.206Zm8.8 15.468-.141.312-.67.584.116-.288.695-.607v-.002ZM28.49 15.88l.665-.83-.318-.322-.655.838.309.316v-.002Zm-9.369 8.418 1.91-.506-.316-.097-1.922.504.326.1h.002Zm-2.314.147.028.692-.412 1.18-.037-.666.421-1.206Zm-9.389.059.108.34-.328-1.247-.124-.4.344 1.307Zm19.334-9.329.61-.788-.369.162-.6.76.36-.132v-.002ZM8.486 27.085l.03.068-.499-1.012-.06-.127.527 1.07h.002Zm9.148-4.071 1.968-.456-.207-.437-1.978.439.215.454h.002Zm1.476-1.877 1.905-.413-.068-.515-1.908.404.071.522v.002ZM10.87 6.645l-.265.651.892.149.173-.628-.8-.172Zm17.271 11.789 1.159-.664-.126-.541-1.155.686.122.52Zm.04-2.87.656-.837-.348-.233-.645.835.337.235Zm-3.451.875 1.014-.603-.275.38-1 .569.26-.346h.001Z"/><path d="m27.12 15.135.621-.81-.379.062-.61.788.367-.042v.002Zm-7.672 9.177 1.9-.507-.315-.012-1.91.507.326.014-.001-.002Zm4.959-1.887 1.798-.484.189-.406-1.81.497-.179.393h.002Zm3.436-7.094.645-.835-.37-.137-.633.827.356.145h.002Z"/><path d="m27.486 15.188.634-.827-.379-.037-.622.811.367.053Zm-.854 5.404 1.543-.542.045-.534-1.546.56-.042.516Zm-5.638-1.654 1.62-.366-.061.505-1.615.358.056-.497Zm1.895-1.28 1.36-.463-.172.462-1.35.44.162-.437v-.002Zm-.68 5.69 1.86-.448-.265.23-1.86.45.265-.232Zm-4.792-.786 1.978-.439-.164-.477-1.987.42.173.496ZM15.25 11.164l.227.56.544 1.394-.282-.56-.489-1.394Zm1.189 3.451.197.718.294 1.55-.208-.72-.283-1.548ZM12.77 30.173l-.204-.1-.72-.04.163.098.762.044v-.002Zm-6.098-8.918.178.587-.098-1.367-.184-.643.104 1.422Zm12.367-.643 1.908-.403-.02-.52-1.91.397.022.526Zm.725 3.628 1.889-.506-.306.072-1.9.507.319-.074h-.002ZM7.343 10.06l.11.873.685-.84-.11-.878-.687.846h.002Zm20.677 7.855 1.154-.687-.18-.503-1.148.706.175.485-.002-.001ZM10.408 29.383l-.077-.225-.64-.553.034.19.681.59.002-.002Zm4.012.158-.215.108-.697.362.18-.09.73-.38h.002Zm2.178-4.984 1.875-.545-.306-.264-1.893.528.324.28v.001Z"/><path d="m16.274 24.28 1.893-.528-.282-.336-1.911.507.3.356Zm-6.549 4.516-.034-.19-.596-.702-.005.142.636.75h-.001Zm15.302-12.63 1.03-.635-.311.306-1.014.603.296-.274ZM8.92 7.771l-.111.818.852-.38.077-.803-.817.365Zm8.018 16.984 1.856-.556-.32-.183-1.875.545.34.196v-.002Zm-.517 1.565-.065.535-.513.986.049-.504.53-1.017ZM6.315 15.393l.235.869.307-1.292-.229-.898-.313 1.321ZM7.96 26.016l.06.128-.41-1.108-.082-.192.434 1.172H7.96Zm9.284-3.953 1.987-.42-.12-.506-1.995.4.128.528v-.002Z"/><path d="m15.974 23.923 1.912-.507-.252-.4-1.928.482.27.425h-.002ZM11.12 29.8l-.12-.253-.668-.39.077.226.713.415Zm13.465-7.771 1.81-.497.144-.454-1.82.507-.134.444Zm2.088-1.956 1.547-.56-.01-.544-1.549.578.012.526ZM11.671 6.816l-.173.628.893.405.082-.604-.802-.427v-.002Zm10.774 16.228 1.857-.444-.234.3-1.86.448.237-.304Zm-5.283-2.208.085.82-.15 1.446-.085-.8.152-1.466h-.002Zm.122 4.025 1.837-.562-.329-.1-1.856.556.348.107Zm5.812-7.588 1.374-.488-.22.409-1.362.463.208-.386v.002Zm-1.997 1.198 1.627-.375-.114.477-1.62.365.105-.468.002.001ZM9.09 28.047l.005-.141-.538-.836-.042.086.573.891h.002Zm10.975-3.967 1.878-.5-.29.154-1.889.505.3-.16Z"/><path d="m15.705 23.497 1.927-.482-.215-.454-1.943.454.23.482Zm12.139-6.069 1.148-.706-.229-.453-1.14.719.221.438v.002ZM14.661 9.902l.163.565.653 1.258-.227-.56-.589-1.26v-.003ZM25.35 15.97l1.044-.661-.339.222-1.03.634.324-.196h.002Zm-6.334 4.117 1.91-.397.032-.508-1.914.388-.03.515.002.002ZM7.074 23.194l.124.4-.213-1.29-.135-.464.225 1.354h-.001Zm4.772 6.836-.168-.267-.68-.216.123.252.725.23v.002Zm5.784-5.157 1.818-.564-.327-.014-1.837.563.346.015Zm-.513-3.335 1.993-.4-.071-.523-2 .38.078.543Zm-3.609 8.472-.245-.09-.697.152.205.1.739-.161h-.002Z"/><path d="m15.474 23.017 1.943-.454-.173-.497-1.955.425.187.528-.002-.002Zm12.148-6.027 1.141-.717-.272-.39-1.13.727.263.38h-.002Zm-15.15-9.742-.082.605.866.651-.005-.587-.78-.669Zm3.371 20.59-.165.344-.588.774.141-.313.614-.805h-.002Zm9.849-11.979 1.058-.685-.358.133-1.043.66.343-.11v.002Zm.969 3.689 1.549-.578-.069-.538-1.546.592.066.524ZM8.515 27.156l.042-.086-.466-.949-.074.023.498 1.012ZM24.72 21.59l1.819-.507.094-.491-1.826.514-.087.482v.002Zm-9.835 3.558 1.714-.591-.323-.28-1.739.57.35.302-.002-.001Z"/><path d="m14.535 24.848 1.74-.57-.301-.356-1.764.541.325.385Zm-8.157-7.201.222.781.168-1.343-.218-.825-.172 1.386v.001Zm16.967-.699 1.387-.51-.26.346-1.374.487.247-.323Zm-9.356-8.139.087.573.746 1.085-.162-.565-.673-1.093h.002Zm8.655 13.862 1.858-.439-.198.366-1.857.444.199-.371h-.002Zm-5.714-5.788.09.863.145 1.559-.09-.856-.147-1.566h.002Zm-1.68 8.476 1.686-.607-.338-.195-1.715.59.365.212h.002Zm5.089-1.522 1.87-.491-.266.232-1.878.5.274-.241Zm.912-5.795 1.637-.386-.162.437-1.627.376.152-.427Z"/><path d="m13.253 7.916.005.587.818.88-.087-.572-.736-.895Zm4.713 16.881 1.798-.559-.318.074-1.817.564.335-.077.002-.002Zm-3.756-.335 1.763-.541-.269-.425-1.786.509.29.457h.002Zm13.15-7.854 1.13-.727-.308-.316-1.119.728.297.313v.002ZM6.88 11.971l.195.914.57-1.024-.19-.93-.575 1.039v.001Zm19.163 3.866 1.075-.704-.367.04-1.06.685.352-.023v.002Zm-10.024-2.716.182.72.435 1.49-.198-.717-.417-1.493h-.002ZM7.526 24.842l.082.192-.309-1.178-.101-.26.328 1.246Zm2.805 4.318-.012-.37-.594-.515-.034.332.64.553Zm5.293-3.684 1.66-.616-.347-.106-1.687.606.374.116Zm3.422-5.905 1.913-.388.082-.484-1.913.381-.08.493-.002-.002Z"/><path d="m17.097 23.104.023.721-.285 1.314-.028-.692.29-1.343Zm-7.406 5.503.034-.332-.554-.654-.076.283.596.703Zm7.349-7.614 1.999-.38-.021-.525-2.003.358.025.547Zm-1.751 1.495 1.955-.425-.127-.528-1.966.392.138.559v.002Zm11.774-6.193 1.119-.729-.338-.234-1.104.727.325.236h-.002Zm-.667-.392 1.09-.718-.367-.052-1.074.704.35.066Zm-13.83 14.17-.213-.269-.675-.036.168.267.72.04v-.002Zm14.172-14.015 1.106-.727-.356-.146-1.09.719.342.154h-.002ZM13.92 24.006l1.787-.508-.231-.482-1.805.47.25.519v.001Zm-2.921 5.541-.06-.398-.62-.362.012.37.668.39Zm-1.26-22.14-.077.802.903-.126.04-.788-.866.11v.002Zm5.351 21.55-.247.136-.638.556.215-.108.67-.584Zm11.505-9.931 1.546-.593-.122-.519-1.543.605.119.507Zm-2.971-2.329 1.403-.533-.295.274-1.387.51.28-.25Z"/><path d="m9.095 27.905.076-.283-.5-.776-.112.223.538.836h-.002Zm15.712-6.8 1.826-.513.042-.516-1.83.52-.036.51h-.002Zm-8.812 4.387 1.635-.617-.346-.016-1.66.615.372.018h-.001Zm-9.426-5.661.183.643.032-1.345-.182-.7-.032 1.402Zm11.713 4.798 1.783-.55-.301.158-1.798.56.316-.168Zm-4.872 1.15 1.475-.63-.35-.303-1.506.603.381.328v.002Zm9.39-3.533 1.858-.431-.157.419-1.857.438.157-.426Zm-2.218 1.276 1.863-.479-.236.304-1.87.491.243-.316Zm-7.552 1.926 1.506-.603-.325-.384-1.536.568.354.42Zm-5.01.695.073-.023-.383-1.038-.1-.047.41 1.108Zm13.427-8.473 1.65-.399-.209.387-1.637.386.194-.372.002-.002ZM8.03 9.216l.11.877.78-.619-.11-.88-.779.624-.001-.002Z"/><path d="m13.809 26.01 1.441-.65-.365-.212-1.475.63.399.23v.002Zm-.14-2.524 1.805-.47-.187-.528-1.821.428.203.568v.002Zm-1.991 6.279-.108-.414-.631-.2.06.398.68.216Zm.997-4.733 1.535-.568-.29-.458-1.562.528.318.498h-.002Zm2.475-3.105 1.967-.391-.077-.544-1.973.358.084.577Zm-.945 7.723-.283-.072-.657.343.245.09.697-.361h-.002Zm2.808-9.204 2.003-.358.03-.516-2.005.338-.028.536Zm2.113-1.366 1.914-.38.129-.45-1.915.374-.13.456h.002Zm7.35-.56 1.543-.604-.175-.486-1.536.613.168.477Z"/><path d="m14.214 26.135 1.409-.66-.374-.116-1.442.65.405.126h.002Zm9.716-9.615 1.419-.551-.323.195-1.404.533.306-.174.002-.002Zm-7.095 8.617-.077.571-.402 1.143.065-.535.412-1.18h.002Z"/><path d="m16.355 25.41 1.61-.611-.336.077-1.636.616.36-.082h.002Zm-6.036 3.377.12-.49-.548-.473-.168.45.594.513h.002Zm-1.761-1.716.111-.224-.433-.88-.145.157.467.949v-.002Zm-1.708-5.23.135.465-.095-1.302-.14-.53.098 1.367h.002Z"/><path d="m9.723 28.275.168-.45-.51-.602-.21.4.554.653-.002-.001ZM6.628 14.073l.23.898.438-1.162-.22-.926-.446 1.188-.002.002Zm5.729 10.46 1.562-.528-.25-.519-1.587.48.274.567Zm-.134 1.9 1.187-.653-.381-.329-1.223.622.417.36Zm6.347-2.059 1.769-.536-.274.241-1.783.55.29-.255h-.002Z"/><path d="m11.806 26.073 1.223-.622-.355-.42-1.256.582.388.46Zm5.36-6.768.085.838-.003 1.514-.086-.82.004-1.532Zm-6.227 9.847.073-.52-.571-.333-.12.49.62.36-.002.003Zm13.905-8.554 1.83-.521-.013-.526-1.83.524.013.523ZM13.263 29.92l-.258-.26-.654.143.213.27.698-.152h.001Zm.203-7.003 1.82-.428-.137-.56-1.835.385.15.603h.002Zm2.011-11.19.16.723.564 1.391-.182-.72-.543-1.394h.001ZM12.66 26.686l1.149-.676-.399-.23-1.187.653.437.253Zm9.02-9.324 1.665-.413-.247.323-1.65.399.233-.31h-.002Zm-.894 5.773 1.858-.465-.2.37-1.862.48.204-.385Zm2.125-1.359 1.858-.424-.112.464-1.858.432.11-.472h.002ZM9.17 27.622l.21-.4-.46-.716-.25.339.5.776v.002Zm5.448-1.466 1.377-.662-.372-.017-1.409.66.404.02Zm11.69-8.116 1.536-.613-.222-.439-1.527.619.212.435.001-.002Z"/><path d="m11.418 25.613 1.256-.582-.318-.498-1.288.533.35.547Zm12.837-9.183 1.437-.57-.343.11-1.419.552.325-.091ZM7.2 23.596l.1.26-.2-1.217-.114-.332.214 1.29Zm5.153 6.204-.155-.417-.628-.035.108.414.675.037v.001Zm2.714-8.45 1.973-.358-.025-.547-1.978.325.03.58ZM10.605 7.295l-.04.788.93.135v-.773l-.89-.148v-.002Zm-.165 21 .323-.577-.504-.433-.368.538.548.474v-.002Zm.904-1.205.88-.658-.418-.36-.92.62.458.397Z"/><path d="m9.89 27.823.37-.538-.469-.553-.412.488.51.603h.002Zm2.192-3.858 1.586-.481-.202-.568-1.608.43.224.62v-.002Zm-1.195 2.726.919-.62-.388-.46-.958.577.427.505v-.002Zm2.217.133 1.11-.688-.405-.126-1.148.676.443.14v-.002Zm-1.534 2.525.024-.535-.582-.185-.073.519.63.2Zm5.066-14.015.093.868.291 1.543-.09-.863-.294-1.55v.002Zm.058 9.894 1.587-.6-.317.169-1.61.611.34-.18Zm-.338 1.624-.185.382-.494.947.164-.344.514-.985h.001Zm.685-6.942 2.005-.337.08-.493-2.005.318-.08.512Zm2.215-1.284 1.915-.374.175-.4-1.916.368-.174.407v-.001Z"/><path d="m10.763 27.719.582-.633-.458-.396-.626.594.504.433-.002.002Zm1.06-.352.838-.682-.437-.253-.88.657.48.278Z"/><path d="m11.01 28.63.277-.605-.524-.306-.324.576.572.334Zm-3.4-3.595.1.05-.29-1.103-.12-.123.31 1.178v-.002Zm18.487-7.428 1.527-.619-.264-.38-1.515.618.252.381Zm-15.836 9.682.626-.595-.427-.505-.667.546.468.552v.002Zm14.328-10.864 1.454-.587-.352.023-1.436.571.334-.005v-.002Zm-13.521 8.641 1.288-.533-.274-.566-1.316.479.302.62Z"/><path d="m10.46 26.186.958-.576-.35-.547-.992.522.384.6v.001ZM9.38 27.22l.413-.487-.421-.657-.451.428.461.717H9.38Zm-1.287-1.1.145-.157-.355-.965-.173.084.383 1.038Zm3.194 1.904.536-.658-.478-.278-.582.633.524.305v-.002Zm13.543-7.95 1.831-.524-.066-.525-1.83.528.065.523v-.002ZM8.671 26.843l.25-.339-.399-.813-.283.271.434.881H8.67Zm10.155-2.804 1.754-.518-.243.317-1.768.536.255-.335h.002Zm-3.817 2.027 1.345-.656-.36.082-1.377.662.392-.088ZM6.55 16.262l.218.825.3-1.251-.21-.865-.307 1.291H6.55Zm6.766 6.053 1.835-.385-.084-.576-1.844.338.095.623h-.002Zm8.627-5.193 1.681-.427-.281.252-1.666.412.264-.237h.002Zm3.902.104 1.515-.618-.297-.313-1.503.617.285.316v-.002Z"/><path d="m9.793 26.733.667-.546-.384-.6-.704.49.42.657v-.002Zm15.131-10.23 1.472-.6-.352-.067-1.453.587.335.08h-.002ZM12.31 27.52l.794-.695-.444-.14-.837.682.488.154Zm1.236-.676 1.071-.692-.403-.02-1.11.69.442.02v.002Zm2.132 1.341-.274.172-.561.737.246-.136.59-.774v.001ZM7.453 10.93l.19.93.679-.828-.184-.942-.685.84Zm15.519 10.341 1.86-.418-.063.498-1.858.425.061-.505Zm-11.378 7.544.228-.62-.535-.17-.276.605.582.185h.001ZM25.56 16.911l1.503-.617-.325-.235-1.487.61.31.242Zm-4.615 5.784 1.854-.447-.157.426-1.858.465.161-.442v-.002Z"/><path d="m25.251 16.668 1.487-.61-.342-.154-1.472.601.327.165v-.002ZM11.86 23.345l1.608-.43-.15-.602-1.624.375.166.657Zm-.038 4.849.49-.675-.487-.154-.536.659.534.17h-.001Zm-1.746-2.606.992-.522-.302-.62-1.024.462.332.682.002-.002Zm4.746-15.119.133.73.68 1.251-.16-.723-.653-1.258Zm.215 10.303 1.978-.325.028-.537-1.98.292-.026.57Zm-2.841 8.614-.025-.538-.578-.032-.025.535.628.035Zm-1.43-4.941 1.316-.479-.224-.62-1.34.42.246.679h.002Zm6.482-2.787.019.753-.147 1.416-.023-.722.15-1.447ZM8.92 26.504l.452-.428-.366-.746-.484.36.399.813v.001Zm5.923 2.589-.32-.042-.6.526.282.071.638-.555ZM8.809 8.59l.108.88.851-.377-.106-.884-.853.381Zm8.196 16.365 1.566-.58-.29.255-1.587.6.31-.275ZM11.498 7.443v.773l.927.393-.036-.76-.892-.406h.001Zm1.508 22.216-.202-.409-.607.135.156.417.653-.143Zm6.422-11.442 1.916-.369.215-.342-1.916.363-.215.348Z"/><path d="m9.37 26.075.704-.49-.332-.68-.737.424.365.746Zm4.552 3.5-.3-.24-.616.322.259.26.657-.342Zm3.2-10.178 2.004-.318.13-.456-2.003.299-.131.473v.002Zm7.643.155 1.83-.528-.119-.506-1.824.526.113.506v.002ZM6.6 18.428l.182.697.16-1.29-.176-.751-.168 1.344H6.6Zm6.195 9.116.751-.699-.442-.02-.793.695.484.024Zm9.438-10.582 1.697-.44-.306.174-1.68.427.29-.16v-.001Zm-6.855 8.908 1.317-.64-.339.18-1.345.656.369-.196h-.002Zm-7.14.093.283-.27-.327-.89-.311.195.355.965Zm5.737.787 1.034-.684-.391.09-1.072.692.429-.098Zm-.754-5.06 1.844-.338-.03-.58-1.849.293.035.627v-.001Zm-1.05 7.157.18-.624-.53-.028-.226.62.578.032h-.002Zm6.869-5.214 1.746-.494-.204.384-1.755.517.215-.407h-.001Z"/><path d="m12.351 28.222.444-.678-.484-.024-.491.674.53.028h.001Zm-2.609-3.315 1.024-.463-.246-.678-1.049.396.273.745h-.002Zm4.334-15.524.103.739.776 1.076-.133-.73-.746-1.085Zm8.905 11.364 1.863-.41-.012.518-1.86.418.01-.524v-.002ZM7.708 25.08l.173-.083-.269-1.024-.194.005.29 1.102Zm-.958-4.607.14.529.03-1.28-.14-.595-.031 1.346h.002ZM12.392 7.85l.034.76.904.64-.07-.749-.867-.651h-.002Zm8.665 14.355 1.852-.43-.11.472-1.854.448.112-.49Zm-9.365.486 1.624-.375-.095-.623-1.634.32.105.678Z"/><path d="m10.52 23.766 1.34-.42-.166-.657-1.358.357.186.72h-.002Zm14.132-4.72 1.824-.526-.168-.477-1.817.524.16.48ZM7.3 23.857l.118.122-.189-1.141-.132-.201.2 1.218.002.002Zm1.22 1.835.485-.36-.3-.816-.511.286.327.89Zm-1.535-3.386.113.332-.087-1.229-.119-.405.094 1.302h-.001Zm6.273-13.802.07.748.851.87-.103-.74-.818-.88v.002Z"/><path d="m9.005 25.333.737-.424-.273-.745-.765.353.299.816h.002Zm13.535-8.447 1.717-.454-.325.09-1.697.44.307-.076h-.001ZM15.063 20.2l1.98-.292.08-.512-1.978.26-.082.544Zm4.58-2.33 1.916-.363.25-.275-1.914.36-.252.28v-.002Zm-2.366 6.725 1.549-.554-.256.335-1.565.58.272-.361Zm-.157-.771-.086.612-.276 1.274.077-.572.285-1.314Zm-4.316 5.426-.072-.527-.559.124.024.538.607-.135Zm.459-1.812.71-.69-.428.098-.752.699.469-.107h.001Zm3.757-9.692.088.86.143 1.54-.086-.84-.145-1.558v-.002Zm-.82-3.906.095.874.433 1.485-.092-.869-.435-1.49Zm1.053 5.085 2.002-.3.175-.406-1.997.283-.178.423h-.002ZM7.076 12.886l.22.926.559-1-.21-.949-.57 1.024v-.001Z"/><path d="m15.713 25.572 1.292-.617-.311.275-1.318.639.335-.299.002.002Zm8.778-7.007 1.817-.524-.211-.436-1.809.52.203.438v.002Zm-10.114 7.97 1-.666-.368.196-1.034.683.402-.213Zm8.48-9.641 1.734-.468-.334.005-1.716.454.316.007v.002Zm-9.994 11.213.4-.67-.468.107-.444.678.512-.115Z"/><path d="m12.73 28.72.133-.614-.512.115-.18.624.56-.124Zm.456-7.657 1.85-.294.025-.57-1.85.248-.025.616Zm9.754-.849 1.864-.401.038.524-1.863.409-.042-.532h.002ZM9.471 24.162l1.049-.397-.185-.72-1.07.327.205.791.001-.001Zm9.737-1 1.74-.467-.162.442-1.745.495.167-.47Zm-5.586 6.175-.247-.386-.571.299.203.409.615-.322ZM7.883 25l.31-.195-.245-.946-.334.117L7.883 25Zm13.235-3.32 1.854-.409-.06.505-1.853.43.06-.524v-.002Zm-4.36 4.03-.2.427-.385 1.1.185-.383.402-1.145-.002.002Zm7.53-7.585 1.809-.52-.252-.38-1.796.512.24.386v.002Zm-12.7 3.887 1.634-.32-.035-.628-1.641.263.04.683.002.002Zm11.585-5.027 1.751-.483-.335-.08-1.734.468.318.093v.002Zm-12.837 6.061 1.358-.356-.105-.678-1.37.291.117.745v-.002Zm9.559-5.454 1.913-.36.278-.199-1.91.357-.28.202h-.001ZM9.664 8.21l.106.884.902-.124-.105-.888-.903.126v.002Z"/><path d="m14.523 29.05-.339-.206-.563.493.3.239.602-.526Zm-5.817-4.534.765-.353-.204-.792-.787.278.226.867Z"/><path d="m8.194 24.804.512-.287-.225-.867-.535.208.246.946h.002Zm15.855-7.064 1.796-.512-.285-.316-1.782.503.27.325Zm-8.904 1.916 1.978-.26.131-.474-1.972.23-.137.504Zm8.34-2.496 1.766-.492-.327-.164-1.75.482.309.175h.002Zm-7.312 10.076-.3.217-.47.903.275-.17.495-.948v-.002Z"/><path d="m23.778 17.414 1.782-.503-.309-.243-1.767.493.294.253Zm-6.272 6.739 1.535-.522-.215.407-1.549.554.23-.439Zm-2.102 4.204h-.351l-.53.698.32.042.56-.738v-.002ZM8.14 10.091l.183.942.77-.608-.176-.952-.78.618h.003Zm5.566 17.113.67-.669-.401.213-.71.69.44-.234ZM17.43 18.5l1.998-.283.215-.348-1.992.27-.222.361h.002ZM6.857 14.97l.21.866.426-1.124-.199-.902-.439 1.163.002-.002Zm.563 9.01.194-.004-.175-1.06-.208-.076.189 1.14Zm15.425-4.29 1.868-.393.089.515-1.864.402-.093-.524Zm-9.472 9.26-.116-.507-.527.278.072.528.572-.299Zm2.636-3.773 1.268-.583-.272.361-1.292.617.296-.393v-.002Zm-1.265 1.031.97-.638-.336.3-1.001.665.367-.325v-.002Zm5.431-8.818 1.91-.357.299-.119-1.909.355-.302.12h.002Zm-6.962 3.06 1.85-.248.082-.544-1.847.206-.085.586Zm6.111 2.194 1.733-.437-.112.491-1.738.467.115-.521h.002Z"/><path d="m13.347 27.85.358-.647-.44.234-.4.67.482-.255v-.002Zm-4.08-4.478 1.07-.327-.118-.744-1.082.253.132.816-.002.002Zm7.984-3.227.02.786-.004 1.48-.02-.753.004-1.514Zm3.874.989 1.856-.388-.009.524-1.854.41.007-.548v.002Zm-7.867 7.314.09-.593-.483.256-.133.615.526-.278Zm-6.16-5.809.133.2-.082-1.15-.138-.279.087 1.229Zm8.538-10.188.095.88.562 1.385-.094-.874-.564-1.39h.001Zm-8.868 4.636.176.752.29-1.201-.166-.802-.3 1.251Zm4.779 4.241 1.641-.262.025-.615-1.641.206-.025.67v.001Z"/><path d="m10.217 22.303 1.37-.292-.04-.683-1.377.226.047.75Zm12.486-3.116 1.874-.386.138.494-1.869.393-.141-.503-.002.002ZM7.614 23.975l.333-.117-.16-.977-.348.035.175 1.059Zm7.666-4.821 1.973-.231.178-.423-1.964.204-.185.45h-.002Zm2.371-1.014 1.992-.269.252-.28-1.985.26-.259.29ZM6.892 21.004l.119.405.03-1.21-.118-.476-.03 1.28h-.001Zm-.11-1.874.14.594.154-1.227-.133-.657-.161 1.29Zm1.698 4.517.787-.278-.131-.816-.8.199.144.895Zm11.997-6.378 1.908-.355.313-.035-1.905.355-.316.035Zm-6.293 11.576-.288-.353-.52.46.245.386.563-.493Zm3.5-5.197 1.524-.486-.168.47-1.534.523.178-.507Z"/><path d="m7.947 23.857.535-.208-.145-.895-.549.126.161.977h-.002Zm6.16 2.992.636-.64-.367.325-.67.67.401-.357v.002Zm-3.54-18.765.105.888.928.136-.103-.888-.93-.134v-.002Zm6.16 8.117.09.88.29 1.523-.088-.86-.292-1.543Zm5.791 2.52 1.877-.38.182.462-1.874.386-.187-.468h.002Zm-1.44 1.861 1.86-.367.041.531-1.856.388-.047-.552h.002ZM16.257 24.7l1.25-.546-.23.439-1.268.584.246-.48.002.003Zm-1.19 1.079.943-.601-.295.393-.97.638.323-.43h-.001Zm4.318-3.698 1.733-.405-.061.524-1.733.437.06-.558v.002Zm1.408-4.847 1.905-.355.318.05-1.901.357-.322-.05v-.002Zm-7.497 2.63 1.848-.206.136-.504-1.84.166-.144.544Z"/><path d="m17.267 22.41-.09.655-.143 1.372.086-.611.147-1.416ZM7.645 11.861l.21.95.666-.81-.198-.97-.678.829v.001Zm1.491 10.695 1.082-.254-.048-.75-1.088.18.054.824Zm4.65 4.905.32-.613-.402.356-.359.647.44-.39Zm1.265.895-.374-.163-.494.654.339.206.53-.697Zm7.239-10.058 1.883-.372.222.414-1.877.38-.227-.422Zm-4.38-.45 1.985-.258.28-.203-1.975.25-.29.211Zm-4.014 10.645-.157-.471-.48.424.116.505.521-.46v.002Zm1.061-17.296.096.883.678 1.247-.095-.879-.68-1.25Zm-7.726 11.64.208.075-.075-1.067-.215-.16.082 1.15v.002Zm13.884-5.553 1.901-.356.315.134-1.896.358-.32-.136Zm-5.648 1.421 1.964-.204.222-.362-1.954.181-.232.385Zm-3.895 1.952 1.64-.206.086-.586-1.635.154-.09.64-.001-.002Z"/><path d="m13.739 28.02.048-.56-.44.39-.089.593.48-.425v.002Zm-3.569-6.469 1.377-.225.025-.67-1.377.161-.025.734Zm11.86-3.616 1.888-.367.256.357-1.882.372-.26-.363-.002.001Zm-.595-.512 1.896-.358.302.214-1.89.362-.308-.218ZM8.917 9.471l.177.953.842-.37-.167-.96-.852.377Z"/><path d="m21.742 17.639 1.89-.362.284.29-1.887.367-.289-.295h.002Zm-4.707 6.797-.212.477-.265 1.223.2-.427.277-1.273Zm3.945-4.401 1.866-.346.093.525-1.86.367-.099-.546Zm-3.173 3.053 1.517-.445-.116.52-1.524.486.123-.56Zm-1.933 4.362-.38.05-.441.853h.35l.47-.904v.002ZM11.496 8.217l.104.887.928.393-.102-.889-.93-.393v.002ZM8.335 22.755l.8-.2-.053-.823-.808.121.061.902Zm8.222 3.38-.318.269-.365 1.047.299-.217.384-1.1Zm-2.097.242.607-.598-.324.43-.636.64.353-.472Zm4.93-4.872 1.735-.37-.007.547-1.733.405.005-.58v-.002Zm-11.951 1.41.348-.035-.069-.983-.354-.05.075 1.068ZM18.2 17.64l1.974-.25.303-.12-1.966.244-.313.126h.002Zm-4.02-7.519.099.886.774 1.073-.096-.882-.776-1.077Z"/><path d="m7.787 22.88.548-.127-.06-.901-.557.043.069.984Zm-.776-1.473.138.28.028-1.131-.136-.357-.03 1.21v-.002Zm9.438 2.743 1.235-.5-.178.507-1.25.545.193-.552Zm-3.009-4.83 1.84-.166.185-.449-1.828.131-.197.486v-.002Zm-6.144-5.512.199.902.543-.967-.183-.934-.56 1Zm8.04 11.445.92-.556-.246.48-.943.6.269-.524ZM12.424 8.61l.102.889.902.64-.1-.888-.904-.64V8.61Zm3.273 9.711 1.954-.181.259-.29-1.94.162-.273.308v.001Zm5.133 1.189 1.873-.325.142.504-1.866.346-.15-.523.001-.001Zm-6.151 8.68-.324-.307-.457.608.288.353.495-.654h-.002Z"/><path d="m13.328 9.252.1.888.849.868-.098-.886-.851-.87Zm3.78 9.352.023.82.141 1.505-.02-.786-.142-1.54h-.002ZM9.08 21.732l1.088-.18.025-.734-1.089.109-.024.807v-.002Zm9.433-4.218 1.966-.245.316-.035-1.954.245-.327.037-.001-.002Zm-6.853 2.503 1.636-.153.144-.544-1.627.105-.154.592h.002Zm2.514 6.931.286-.57-.353.473-.32.613.387-.515Zm2.119-12.231.096.898.429 1.468-.091-.88-.434-1.484v-.002ZM6.922 19.72l.117.478.147-1.157-.109-.547-.154 1.227h-.001Zm3.273 1.098 1.377-.16.089-.64-1.372.1-.096.7h.002Zm-3.128-4.981.166.802.41-1.079-.15-.847-.426 1.124Zm10.803 6.649 1.515-.402-.061.557-1.517.446.063-.601Zm1.468-1.57 1.74-.336.047.552-1.735.37-.052-.586ZM6.944 17.837l.133.657.276-1.14-.119-.715-.29 1.2v-.002Zm13.69 1.186 1.882-.306.187.468-1.873.325-.196-.487Zm-6.28 8.863-.194-.425-.421.56.157.473.458-.608Z"/><path d="m14.16 27.46.014-.513-.386.516-.05.559.422-.561v-.002Zm4.68-9.983 1.953-.245.322.051-1.942.246-.333-.054v.002Zm-11.691 4.21.215.16.026-1.051-.213-.24-.028 1.131Zm6.488-2.851 1.828-.131.233-.385-1.813.1-.248.414v.002Zm2.333-.823 1.94-.163.29-.21-1.924.151-.306.224v-.002Zm-7.698 3.841.808-.12.024-.808-.807.042-.025.886Zm6.482 3.949.58-.547-.269.524-.606.598.295-.575Zm.741 1.697-.404-.107-.414.798.374.163.442-.853h.002Zm1.085-3.963 1.227-.45-.123.562-1.235.5.13-.612Zm3.817-4.95 1.892-.288.227.421-1.882.306-.237-.439ZM9.77 9.095l.168.96.893-.121-.157-.963-.902.124H9.77Zm-1.447 1.939.198.97.756-.595-.181-.985-.771.608-.002.002Zm10.85 6.499 1.942-.246.32.136-1.93.252-.332-.143v.001Zm-3.629 7.117.905-.503-.192.552-.921.555.208-.604Zm1.726-3.718-.089.7-.003 1.435.089-.655.003-1.48Zm2.854-2.726 1.905-.272.26.363-1.893.288-.272-.377v-.002Z"/><path d="m19.505 17.674 1.93-.252.307.218-1.917.26-.32-.226ZM7.364 21.847l.355.05.024-.967-.353-.133-.026 1.048v.002Z"/><path d="m7.717 21.898.556-.044.024-.886-.556-.038-.024.966v.002Zm11.514-1.561 1.75-.302.099.545-1.74.336-.109-.58v.002Zm.594-2.436 1.917-.26.288.295-1.904.273-.3-.306V17.9Zm-8.01 1.524 1.627-.105.197-.486-1.611.06-.213.529v.002Zm6.058 2.435 1.517-.354-.005.58-1.515.402.003-.626v-.001Zm-8.769-.936 1.089-.106.096-.7-1.083.038-.104.77.002-.002Zm7.136 5.48-.4.109-.345.989.38-.05.364-1.046v-.002Zm.036-8.614 1.924-.15.313-.126-1.907.143-.33.133Zm-5.986 2.326 1.37-.1.155-.592-1.36.042-.164.65h-.002Zm4.205 6.204.259-.515-.294.575-.286.57.321-.63Zm2.683-3.256-.219.532-.136 1.317.211-.477.144-1.372ZM7.039 20.198l.136.356.138-1.082-.127-.433-.147 1.157v.002Zm8.691-6.87.104.916.557 1.37-.096-.898-.563-1.386-.001-.002Zm-1.845 5.092 1.812-.099.273-.307-1.793.075-.29.332h-.002Zm1.206 8.972-.354-.25-.383.743.323.308.414-.799v-.002Z"/><path d="m16.823 24.914-.332.329-.252 1.165.318-.269.266-1.223v-.002Zm2.247-5.135 1.76-.27.15.523-1.75.303-.16-.556Zm-2.424 3.101 1.224-.396-.063.601-1.227.45.066-.656Zm.171-5.8.029.853.283 1.49-.023-.82-.289-1.523Zm-8.962-4.267.183.935.647-.781-.164-.961-.666.809v-.002Zm6.656 13.963-.016-.456-.321.63-.014.512.351-.686Z"/><path d="m16.605 17.657 1.906-.144.327-.036-1.887.14-.346.038v.002Zm-1.869 9.485-.225-.367-.351.686.194.424.383-.743Zm.247-2.002.561-.49-.208.605-.58.547.229-.664-.002.002Zm-6.686-4.173.807-.042.103-.77-.798-.034-.11.846h-.002ZM10.672 8.97l.157.964.918.136-.149-.963-.928-.136h.002Zm7.144 12.253 1.523-.309.053.587-1.517.357-.058-.635h-.001Z"/><path d="m15.685 23.981.893-.444-.13.612-.906.503.142-.671h.001Zm-8.61-5.487.109.547.26-1.076-.094-.613-.276 1.14.001.002Zm11.785.769 1.774-.238.196.488-1.76.269-.21-.519Zm-6.834-.366 1.611-.059.248-.414-1.592.023-.267.452v-.002Zm-4.849 1.659.213.24.128-1.003-.205-.318-.138 1.081h.002Zm7-2.466 1.793-.075.306-.224-1.772.058-.327.24Zm2.775-.472 1.888-.14.333.055-1.868.143-.353-.058ZM7.493 14.71l.15.848.523-.926-.131-.888-.544.966h.002Zm1.714 5.442 1.084-.038.164-.65-1.07-.026-.178.714Zm-1.464.777.556.038.11-.846-.547-.115-.119.924v-.001Zm-.51-4.29.119.714.39-1.026-.099-.768-.41 1.078v.002Z"/><path d="m10.455 19.465 1.36-.042.213-.53-1.342-.01-.23.582Zm4.598-7.385.11.93.67 1.232-.102-.916-.678-1.248v.002Zm3.554 6.715 1.791-.211.238.439-1.774.237-.253-.466-.002.001Zm-2.767 7.717-.427-.045-.322.924.404.109.344-.99v.002ZM9.094 10.423l.182.986.826-.36-.166-.996-.842.37ZM7.39 20.798l.353.133.119-.925-.344-.211-.128 1.003Zm9.915-3.121 1.868-.144.332.143-1.847.152-.351-.151h-.002Zm-.657 4.521 1.225-.339-.003.626-1.223.395v-.683l.001.001Zm1.049-1.598 1.534-.262.108.58-1.523.31-.12-.626V20.6Zm-2.952 4.991.238-.452-.227.664-.259.515.25-.727h-.002Z"/><path d="m18.317 18.394 1.809-.187.272.377-1.79.212-.291-.402Zm-.66-.566 1.847-.152.32.227-1.829.168-.34-.243h.002ZM11.6 9.105l.148.963.918.39-.139-.96-.927-.393Z"/><path d="m17.997 18.07 1.828-.168.3.306-1.808.187-.32-.327v.002Zm-.867 1.354-.085.746.136 1.459.09-.7-.142-1.507.002.002Zm-2.626-1.577 1.772-.058.33-.133-1.747.047-.355.144Zm-2.211.595 1.592-.023.29-.332-1.567-.009-.315.364Zm3.466 4.82.89-.381-.067.655-.893.444.072-.718h-.002Zm-.62 1.141.548-.422-.141.67-.561.49.155-.736-.002-.002Zm-.861-13.395.12.944.765 1.06-.11-.93-.775-1.072v-.002Zm1.135 15.462-.38-.185-.296.86.354.25.322-.925Zm1.077-1.232-.415.173-.236 1.1.4-.11.252-1.165v.002Zm-1.706.745-.04-.39-.25.728.015.456.273-.794h.002Zm-6.375-5.86.798.033.179-.715-.783-.103-.194.785ZM12.528 9.5l.138.96.89.632-.127-.952-.901-.64Zm-5.342 9.543.127.434.245-1.005-.112-.503-.26 1.076v-.002ZM17.52 20l1.548-.219.161.556-1.534.262-.175-.601V20Zm-1.13-4.385.036.884.42 1.435-.028-.853-.428-1.468v.002Z"/><path d="m13.428 10.14.127.953.84.86-.118-.944-.85-.868Zm1.606 16.141-.25-.3-.273.793.226.367.297-.86Zm2.147-4.652-.218.587-.004 1.377.219-.531.003-1.435v.002Zm-6.495-2.742 1.342.01.267-.452-1.317-.056-.29.496-.002.002Z"/><path d="m16.582 21.506 1.234-.281.057.634-1.225.339-.066-.692Zm.378 2.088-.34.391-.13 1.255.333-.329.136-1.317Zm-2.101-5.891 1.747-.047.346-.039-1.721.044-.372.042Zm-5.473 1.735 1.069.027.23-.582-1.048-.084-.252.64Zm-.866-7.436.165.961.734-.573-.143-.982-.757.594h.002Zm-.658 8.003.547.115.194-.785-.53-.189-.211.858Zm9.431-.567 1.568-.176.21.519-1.549.218-.229-.559v-.002ZM12.61 18.08l1.567.009.327-.241-1.54-.032-.354.264Zm-5.297 1.396.204.318.228-.932-.187-.391-.245 1.005Zm2.623-9.422.166.996.875-.115-.148-1-.893.121v-.002Zm4.979 14.731.223-.38-.155.735-.238.453.17-.808Zm-7.564-7.433.095.613.37-.964-.071-.673-.392 1.026-.002-.002Z"/><path d="m15.231 17.66 1.721-.043.353.058-1.693.049-.381-.061v-.002Zm.526 4.852.891-.315v.684l-.89.38v-.75h-.001Zm-8.24-2.718.345.212.211-.858-.327-.287-.227.932-.002.002Zm9.5-.857 1.588-.138.254.466-1.568.177-.274-.503v-.002Zm-1.802 4.68.544-.353-.072.718-.549.423.08-.79-.003.002Zm-7.178-9.871.13.888.623-.748-.107-.921-.646.781Zm8.038 11.666-.444.025-.22 1.029.426.045.236-1.099h.002Zm.375-4.591 1.247-.223.119.625-1.234.28-.131-.683v.001Zm-.838-3.096 1.693-.05.352.153-1.666.06-.379-.163ZM7.643 15.56l.1.77.498-.881-.075-.816-.523.926v.002Zm9.061 2.941 1.613-.107.29.403-1.588.138-.315-.434Zm-5.728-.112 1.317.056.315-.364-1.29-.09-.344.398h.002Zm5.015-.499 1.666-.062.34.243-1.639.08-.367-.262Zm-7.388 1.447.783.103.251-.64-.762-.165-.274.702h.002Z"/><path d="m16.358 18.147 1.64-.08.319.326-1.613.107-.346-.353Zm-3.394-.329 1.54.031.355-.143-1.51-.044-.385.157v-.001Zm2.87-3.574.049.914.545 1.34-.037-.884-.557-1.37Z"/><path d="m16.847 17.934-.078.791.276 1.445.085-.746-.283-1.49Zm-1.877 7.168-.055-.317-.17.807.04.39.186-.88Zm-5.333-6.303 1.049.084.29-.496-1.022-.135-.319.547h.002Zm5.994 6.639-.397-.11-.202.956.379.185.218-1.029.002-.002Z"/><path d="m15.236 25.327-.265-.225-.186.88.25.3.203-.955h-.002Zm1.021-5.161 1.263-.168.175.601-1.246.224-.194-.655.002-.002Zm-.573 1.586.898-.246.066.692-.891.314-.073-.76Zm-8.238-3.785.112.503.348-.902-.088-.566-.37.965h-.002Zm9.174 6.017-.424.245-.12 1.183.415-.173.13-1.255ZM10.829 9.933l.148 1 .9.135-.13-1-.918-.136v.001Zm2.52 7.724 1.51.043.372-.042-1.477-.049-.405.046v.002Zm-5.277 1.491.53.189.274-.703-.507-.255-.297.767v.002Zm6.927 4.773.216-.306-.078.79-.224.381.086-.867v.002ZM9.276 11.409l.143.982.802-.348-.119-.994-.826.36Z"/><path d="m17.043 20.17-.215.645.133 1.401.218-.587-.136-1.46Zm-1.829 2.621.543-.277v.75l-.542.352v-.823l-.001-.002ZM11.32 17.99l1.29.09.354-.264-1.256-.117-.388.29Zm5.641 4.229-.34.457v1.311l.337-.391.003-1.377Zm-.954-2.664 1.286-.117.229.559-1.264.168-.25-.612-.001.002ZM7.558 18.47l.187.392.321-.836-.162-.458-.348.902h.002Zm7.605-5.458.06.94.658 1.206-.049-.914-.671-1.232h.002Z"/><path d="m7.745 18.86.326.287.297-.767-.302-.353-.321.836v-.002Zm6.01-1.249 1.476.05.381.06-1.442-.042-.415-.068Zm-4.88 1.023.762.166.318-.547-.732-.22-.346.601h-.002Zm1.08-.379 1.023.135.344-.399-.99-.175-.375.439h-.002Zm-2.21-1.925.071.673.472-.829-.045-.725-.498.881ZM15.537 21l.914-.18.131.684-.898.246-.145-.75h-.002Zm-3.79-10.93.13 1 .9.383-.111-.993-.918-.39h-.001Zm3.958 8.933 1.312-.07.274.504-1.286.117-.3-.55Zm-.642 5.153L15 23.92l-.085.867.056.316.092-.945v-.002Zm1.133.074-.453.102-.11 1.106.444-.025.12-1.183h-.001ZM8.685 12.964l.107.92.706-.548-.08-.945-.733.573Zm5.485 4.716 1.442.042.38.164-1.41-.028-.413-.178h.001Zm2.256-1.184-.066.837.407 1.391.078-.791-.419-1.435v-.002Zm-2.028-4.545.076.963.752 1.038-.061-.94-.766-1.06h-.001Zm-2.692 5.747 1.257.117.384-.157-1.22-.133-.42.173Z"/><path d="m15.362 18.53 1.342-.03.315.433-1.313.07-.344-.473Zm-7.194-3.897.075.816.594-.71-.047-.854-.622.748Zm6.414 3.224 1.409.028.367.262-1.374-.003-.4-.287h-.002Z"/><path d="m14.985 18.146 1.373.004.346.353-1.342.03-.377-.385v-.002Zm-2.321-7.687.112.992.874.62-.095-.98-.89-.632Zm2.467 11.496.553-.203.073.76-.543.278-.083-.835Zm-1.574-10.863.094.98.823.843-.077-.963-.84-.86Zm1.781 13.209-.275-.145-.092.946.265.225.102-1.028v.002Zm-.341-1.286.216-.226v.823l-.213.306-.003-.903Z"/><path d="m15.743 24.33-.405-.031-.102 1.027.397.11.11-1.106Zm-.419-4.05.933-.116.194.655-.914.18-.213-.72ZM8.37 18.382l.507.255.346-.601-.475-.311-.378.657Zm1.732-7.333.119.994.85-.11-.095-1.001-.876.115.002.002Zm-2.286 5.953.088.566.44-.772-.058-.622-.471.828h.001Zm2.515.81.99.175.387-.29-.952-.205-.425.32Zm6.291 4.864-.427.32v1.235l.425-.245v-1.31h.002Zm-4.492-5.149 1.219.133.405-.045-1.181-.138-.444.05Zm-2.907.506.732.22.376-.438-.697-.264-.41.482Zm7.546.691-.205.703.266 1.387.215-.646-.276-1.445v.001Zm-8.701-.697.302.353.378-.657-.271-.41-.409.716v-.002Zm-.162-.457.162.457.409-.715-.131-.515-.44.772Zm8.924 3.246-.336.526.128 1.334.34-.458-.132-1.402Z"/><path d="m15.047 19.609.96-.054.25.611-.933.116-.277-.671v-.002Zm-.078 1.522.568-.127.145.75-.553.202-.16-.825Zm.091 2.039-.063-.152.003.903.063.236-.003-.987Zm.82-8.012-.05.877.53 1.299.066-.837-.545-1.34v.001Zm-3.307 2.319 1.181.138.416.068-1.14-.131-.455-.074-.002-.001Zm-4.33-2.029.045.725.561-.667-.012-.768-.594.71Z"/><path d="m14.906 22.098.225-.143.083.835-.217.226-.091-.918Zm-5.487-9.709.078.945.773-.33-.047-.961-.802.348-.002-.002Zm5.297 6.615h.99l.301.55-.96.055-.331-.605Zm-3.96-1.509.952.205.421-.173-.912-.222-.461.19Zm5.44 5.499-.455.182v1.155l.455-.101v-1.236Zm-5.219-12.062.095 1 .873.134-.068-.998-.9-.135v-.001Zm2.05 6.618 1.142.132.414.178-1.101-.114-.455-.197v.002Zm-4.279.173.475.31.41-.481-.438-.359-.447.53Zm6.588 5.507-.274-.06.003.987.274.145V23.23h-.003ZM8.79 13.883l.047.854.673-.518-.014-.883-.706.549v-.002Zm5.546 4.599 1.024.048.345.473h-.991l-.38-.52h.002Z"/><path d="m13.482 17.746 1.1.114.4.286-1.062-.085-.44-.315h.002Zm2.259 5.428-.405.052V24.3l.407.032v-1.155l-.002-.002ZM9.634 17.55l.697.264.425-.32-.657-.295-.465.351Zm4.288.513 1.063.085.377.385-1.024-.048-.414-.422h-.002Zm.811 2.274.59-.056.214.72-.568.128-.236-.794v.002Zm.491-6.386-.031.914.637 1.17.051-.878-.657-1.206Zm-6.936 2.222.058.623.524-.623-.02-.667-.562.667Zm8.074 1.161-.19.758.394 1.335.204-.702-.407-1.391h-.001Zm-5.145-.03.912.222.444-.05-.868-.228-.488.056Zm-2.74.006.27.41.448-.53-.232-.458-.486.577Zm8.017 4.033-.42.395.12 1.257.426-.32-.127-1.333.001.002ZM11.878 11.07l.068.998.872.372-.04-.989-.9-.383v.002Zm3.082 11.1-.054-.068.09.917.064.154-.1-1.003Zm-.232-.976.241-.063.16.825-.225.143-.178-.907.002.002Z"/><path d="m8.346 16.794.13.515.487-.576-.093-.563-.524.622v.002Zm8.218 2.633-.323.593.253 1.32.336-.527-.266-1.387v.002Zm-2.135.169.619.012.276.67-.59.057-.307-.74h.002Zm.045-6.684-.008.945.728 1.007.032-.914-.752-1.038Zm-4.251-.866.047.96.818-.102-.014-.969-.85.11h-.002Zm2.555-.593.04.99.847.602-.015-.97-.874-.62.002-.002Zm-1.073 5.795.868.227.454.073-.823-.22-.5-.082v.002Zm-1.606-.05.657.295.461-.19-.612-.315-.506.21Zm-.904-.005.439.358.465-.351-.395-.391-.507.384h-.002Z"/><path d="m13.65 12.07.015.97.799.816.009-.945-.824-.843v.002Zm-4.813 2.668.012.767.636-.488.026-.798-.672.519h-.002Zm6.391 7.401-.268.026.1 1.003.274.06-.108-1.09h.002Zm.845-.401-.447.264.115 1.175.455-.182-.12-1.257h-.003Zm-2.011-2.806.654.073.332.605-.62-.013-.364-.665h-.002Z"/><path d="m9.497 13.336.014.883.736-.313.025-.9-.773.33h-.002Zm2.707 3.992.823.22.455.198-.778-.201-.5-.217Zm3.422 4.674-.399.138.109 1.089.405-.053-.115-1.174Zm-1.159-1.68.266.016.236.793-.241.063-.26-.872Zm1.365-4.287-.17.811.51 1.248.19-.759-.53-1.298v-.002Zm-2.186 2.325.692.125.38.521-.654-.073-.418-.574Zm-.942-.813.778.2.44.315-.734-.17-.484-.345Z"/><path d="m14.766 21.176-.038.017.178.907.054.068-.194-.99v-.002Zm-1.578-3.286.734.17.414.423-.692-.126-.456-.466Zm-4.225-1.154.232.458.507-.385-.189-.493-.55.42Zm1.642.253.612.314.487-.056-.564-.32-.535.062ZM8.85 15.505l.02.668.594-.455.02-.7-.636.487h.001Zm2.222-3.57.014.969.839.129.019-.965-.874-.133h.002Zm5.169 8.086-.407.47.241 1.245.421-.395-.253-1.32h-.002Z"/><path d="m8.87 16.173.093.563.55-.42-.05-.597-.595.454h.002Zm.834.634.394.391.507-.21-.347-.412-.554.23Zm6.467 1.289-.306.659.374 1.27.324-.592-.394-1.336.002-.001Zm-2.039 1.412.295.089.306.74-.266-.017-.335-.812Zm.886 1.556-.252.114.194.99.267-.025-.21-1.079Zm.176-6.199-.145.857.614 1.123.17-.81-.639-1.17Zm-4.054 2.063.565.32.5.082-.516-.313-.549-.09Zm-1.63-2.711-.026.799.693-.294.068-.818-.735.313Zm.76-1.213-.024.9.777-.097.063-.907-.818.104h.002Z"/><path d="m14.481 20.223-.014.1.26.871.04-.017-.286-.953v-.001Zm1.353.269-.434.346.226 1.162.447-.264-.241-1.244h.002Zm-3.888-8.426-.02.965.84.36.052-.95-.872-.373v-.002Zm1.784 6.711.332.154.365.666-.295-.09-.402-.732v.002Z"/><path d="m15.4 20.838-.382.224.21 1.076.398-.138-.226-1.162Zm-5.885-4.524.188.493.555-.23-.142-.515-.601.252Zm2.174.704.515.312.5.217-.466-.292-.549-.237Zm-1.433-.438.348.413.534-.062-.299-.417-.585.068.002-.002Zm4.21-2.72-.118.896.701.968.145-.856-.729-1.007v-.002Zm-1.194 4.286.374.212.418.573-.332-.154-.458-.63h-.002Zm-.454-5.706-.053.95.815.58.085-.928-.847-.602Zm-.58 4.814.466.292.484.346-.42-.257-.532-.38.002-.001Zm-2.754-2.238-.02.701.649-.273.065-.721-.694.293Zm6.179 1.832-.282.72.486 1.186.306-.659-.51-1.247Z"/><path d="m12.769 17.633.42.257.457.466-.374-.211-.502-.512h-.001Zm.896-4.592-.085.928.768.785.117-.897-.798-.816h-.002Zm2.202 5.711-.388.544.355 1.196.407-.47-.374-1.27ZM9.464 15.72l.051.597.601-.251-.003-.619-.649.273Zm4.65 3.614.018.175.335.812.014-.1-.367-.889v.002Z"/><path d="m14.709 20.025-.228.196.285.952.252-.113-.31-1.037v.002Zm-3.623-7.123-.063.907.799.124.103-.903-.839-.13v.002Zm-.245 3.608.299.417.549.09-.248-.411-.6-.096Zm-.596-2.605-.068.818.734-.09.112-.824-.778.096Zm5.234 5.39-.41.424.331 1.119.434-.346-.355-1.197Zm-5.365-3.23.142.514.585-.068-.09-.52-.637.074Z"/><path d="m15.069 19.719-.36.306.309 1.036.382-.224-.332-1.118Zm-1.395-1.188.056.245.402.732-.018-.176-.44-.8Zm1.376-2.809-.254.775.584 1.067.28-.72-.613-1.123.002.001Zm-3.61.885.249.411.549.238-.196-.388-.6-.26h-.001Zm-1.263-1.883-.064.722.685-.082.113-.73-.734.09Z"/><path d="m14.31 19.059-.196.274.367.89.228-.196-.399-.967v-.001Zm-4.198-3.612.004.619.636-.075.047-.626-.685.082h-.002Zm5.269 2.121-.36.612.46 1.118.388-.543-.486-1.187h-.002Zm-3.454-4.538-.104.903.8.342.142-.886-.838-.36Zm1.245 4.812.098.304.458.63-.056-.244-.501-.69h.001Zm-1.132-.973.196.388.533.38-.147-.354-.582-.416v.002Z"/><path d="m12.624 17.281.147.353.501.512-.098-.304-.548-.56h-.002Zm1.725-2.523-.219.821.668.921.253-.774-.7-.968h-.002ZM10.75 15.99l.091.521.6.096-.039-.512-.651-.105Zm.273-2.181-.112.824.753.12.16-.82-.8-.124Zm1.742-.419-.143.886.776.553.182-.86-.815-.58v.001Zm1.874 5.286-.329.383.399.966.36-.306-.43-1.043Zm-1.059-4.703-.182.86.732.746.218-.822-.768-.784Zm1.44 4.203-.381.498.43 1.043.41-.425-.46-1.118v.002Zm-1.189.014-.157.344.44.8.196-.274-.479-.87Z"/><path d="m14.796 16.496-.327.675.552 1.006.36-.611-.584-1.068-.001-.002Zm-3.999-1.131-.047.626.652.105.1-.619-.705-.112Z"/><path d="m11.402 16.094.039.512.6.26.013-.49-.652-.282Zm-.491-1.459-.113.729.704.111.162-.721-.753-.12Zm2.375 2.806-.114.406.502.69.157-.344-.545-.752Z"/><path d="m11.824 13.934-.16.82.754.324.204-.8-.798-.343v-.001Zm.23 2.441-.014.491.582.416.065-.454-.633-.453Zm2.069 1.359-.292.453.479.87.328-.382-.515-.94Zm-1.435-.904-.064.454.548.561.114-.405-.598-.61Z"/><path d="m14.47 17.172-.347.564.516.94.38-.497-.552-1.007h.002Z"/><path d="m14.129 15.578-.29.727.628.869.327-.675-.667-.92h.002Zm-2.627-.101-.1.618.652.282.15-.596-.704-.304h.002Zm1.12-1.2-.205.8.733.521.248-.768-.776-.553Zm-.958.477-.162.721.704.305.211-.703-.753-.325v.002Z"/><path d="m13.398 14.828-.248.769.69.704.29-.727-.732-.746Zm.136 2.098-.248.512.546.751.291-.452-.589-.811Zm.306-.621-.304.622.589.81.346-.564-.63-.868h-.001Zm-1.634-.525-.15.595.632.453.201-.561-.683-.488Z"/><path d="m12.89 16.27-.202.56.598.61.248-.512-.645-.659Zm-.472-1.192-.212.7.683.489.26-.668-.731-.52Z"/><path d="m13.15 15.602-.26.667.644.659.304-.622-.69-.704h.002Z"/></g><defs><linearGradient id="a" x1="17.999" x2="17.999" y1=".002" y2="36" gradientUnits="userSpaceOnUse"><stop offset=".24" stop-color="#426F4C"/><stop offset=".85" stop-color="#4C7F46"/></linearGradient></defs></svg>