<svg xmlns="http://www.w3.org/2000/svg" width="42" height="42" fill="none"><circle cx="21" cy="21" r="18.667" fill="#F3F3F3"/><path fill="#EBBB4D" d="M21.66 42h-1.297c-.037-.019-.074-.019-.111-.019a19.787 19.787 0 0 1-3.132-.351 21.365 21.365 0 0 1-6.04-2.128 20.778 20.778 0 0 1-6.114-4.94A21.055 21.055 0 0 1 .019 21.872v-.26c0-.092.018-.203-.019-.295v-.61c.019-.038.019-.075.019-.13v-.5a20.747 20.747 0 0 1 2.353-8.77A20.999 20.999 0 0 1 14.489 1.04 21.147 21.147 0 0 1 20.567.003c1.204-.019 2.39.055 3.576.222a20.84 20.84 0 0 1 4.595 1.24c3.224 1.294 6.003 3.237 8.245 5.901 2.927 3.441 4.558 7.42 4.947 11.915.111 1.369.093 2.738-.074 4.107a20.302 20.302 0 0 1-.797 3.793c-1.278 4.033-3.557 7.4-6.855 10.083-2.15 1.757-4.577 3.015-7.227 3.811-1.556.462-3.15.74-4.761.832-.167.075-.37.056-.556.093ZM16.287 9.364h-5.133c-.092 0-.148.056-.148.148v7.105c0 .296-.019.296-.296.296H7.949c-.204 0-.223.018-.223.222v2.349c0 .093.056.13.13.13H10.784c.185 0 .203.018.203.203v2.405c0 .241-.018.278-.277.278H7.8c-.074 0-.11 0-.11.093v2.386c0 .204.036.222.24.222h2.854c.166 0 .185.019.185.204V32.528c0 .148 0 .148.148.148h7.8c.63 0 1.26.018 1.909 0 1.26-.038 2.483-.204 3.687-.574 1.408-.425 2.705-1.036 3.873-1.924 1.649-1.258 2.89-2.83 3.631-4.773a.325.325 0 0 1 .315-.204h2.502c.037 0 .074 0 .11-.018a.197.197 0 0 0 .167-.167v-1.535c0-.278-.018-.556.038-.833.018-.111-.019-.148-.13-.148h-1.946c-.278 0-.296-.018-.278-.296a16.57 16.57 0 0 0 0-2.35c-.018-.203.019-.24.223-.24h1.853c.185 0 .259-.056.259-.24v-2.22c0-.204-.037-.241-.24-.241h-2.465c-.148 0-.297-.093-.334-.24a7.938 7.938 0 0 0-.796-1.647 11.233 11.233 0 0 0-4.336-4.145c-1.927-1.036-3.965-1.535-6.151-1.535-1.483 0-3.002.018-4.521.018Z"/><path fill="#EBBB4D" d="M21.42 17.006h-7.45c-.333 0-.333 0-.333-.333v-4.495c0-.296.019-.334.334-.334h6.985c2.297 0 4.317.722 6.096 2.202a7.844 7.844 0 0 1 2.056 2.609c.037.055.056.13.056.203-.019.148-.019.148-.185.148H21.419ZM21.141 25.24h6.967c.296 0 .574-.038.87-.02.186 0 .26.056.149.26-.093.185-.185.37-.296.555-.816 1.313-1.89 2.35-3.261 3.071-.5.259-1.02.5-1.557.647-.537.167-1.075.315-1.649.389-.482.074-.945.166-1.427.166h-6.985c-.315 0-.315-.018-.315-.332v-4.404c0-.074 0-.148.019-.222 0-.074.055-.11.13-.11h7.355ZM21.845 22.5H13.97c-.315 0-.315 0-.315-.314v-2.349c.019-.167.074-.204.223-.223H29.738c.26 0 .296.037.315.296.056.796.056 1.592-.019 2.406-.018.148-.055.185-.203.203h-.111c-2.632-.018-5.263-.018-7.875-.018Z"/></svg>