<svg xmlns="http://www.w3.org/2000/svg" width="42" height="42" fill="none"><path fill="#008CE7" d="M21 41c11.046 0 20-8.954 20-20S32.046 1 21 1 1 9.954 1 21s8.954 20 20 20Z"/><path fill="#F3F3F3" d="M24.816 11h-8.968l-.744 4.155 8.095.01c3.988 0 5.163 1.45 5.13 3.848-.02 1.229-.552 3.311-.782 3.988-.615 1.8-1.877 3.848-6.608 3.843l-7.87-.004-.74 4.16h8.948c3.158 0 4.496-.37 5.922-1.022 3.152-1.464 5.028-4.573 5.782-8.633C34.096 15.3 32.705 11 24.816 11Z"/><path fill="#F3F3F3" d="M11.977 18.913c-2.351 0-2.687 1.53-2.908 2.457a44.39 44.39 0 0 0-.388 1.703h9.184c2.351 0 2.687-1.53 2.908-2.457a44.49 44.49 0 0 0 .389-1.703h-9.185Z"/></svg>