<svg width="42" height="42" viewBox="0 0 42 42" fill="none" xmlns="http://www.w3.org/2000/svg">
<circle cx="21" cy="21" r="20" fill="#222222"/>
<path fill-rule="evenodd" clip-rule="evenodd" d="M21 7C28.7389 7 35 13.2611 35 21C35 28.6611 28.8556 34.8833 21.2333 35H21V23.2167L19.2111 25.0056L18.9778 29.4389L20.8444 35C19.7556 35 18.7056 34.8444 17.6556 34.5722L17.3833 34.4944L16.4889 31.8111L13.9611 33.0944C13.0278 32.55 12.1722 31.9278 11.3944 31.1889L11.2 30.9944L15.9056 28.6222L16.0611 25.9389L13.3778 26.0944L11.0056 30.8C10.2667 30.0222 9.60556 29.1667 9.06111 28.2722L8.90556 28.0389L10.1889 25.5111L7.50556 24.6167C7.23333 23.5667 7.07778 22.5167 7.03889 21.4667V21.1944L12.6389 23.0611L17.0722 22.8278L18.8611 21.0389L17.0722 19.25L12.6389 19.0167L7 20.8444C7 19.7556 7.15556 18.6667 7.38889 17.6556L7.46667 17.3833L10.15 16.4889L8.86667 13.9611C9.41111 13.0278 10.0333 12.1722 10.7722 11.3944L10.9667 11.2L13.3389 15.9056L16.0222 16.0611L15.8667 13.3778L11.1611 11.0056C11.9389 10.2667 12.7944 9.60556 13.6889 9.06111L13.9222 8.90556L16.45 10.1889L17.3444 7.50556C18.3944 7.23333 19.4444 7.07778 20.4944 7.03889H20.7667L18.9 12.6L19.1333 17.0333L20.9222 18.8222C21 18.7833 21 7 21 7ZM24.1111 10.5778V31.4611C28.5833 30.1 31.8889 25.9389 31.8889 21C31.8889 16.1389 28.6611 12.0167 24.2667 10.6167L24.1111 10.5778Z" fill="#5B10FF"/>
</svg>
