<svg width="42" height="42" viewBox="0 0 42 42" fill="none" xmlns="http://www.w3.org/2000/svg">
<rect width="42" height="42" rx="21" fill="#9E6BF5"/>
<path fill-rule="evenodd" clip-rule="evenodd" d="M12.0684 23.4852L12.1701 25.3377C12.1767 25.4639 12.224 25.5826 12.3038 25.6799C12.8617 26.3552 15.3626 28.7115 20.9984 28.7115C26.6342 28.7115 29.1048 26.3856 29.6833 25.6925C29.7705 25.5878 29.8207 25.4579 29.8289 25.3214L29.9297 23.4865C30.6006 23.1184 31.2933 22.7024 31.2933 22.7024C32.3823 22.1124 33.5977 22.9599 33.5999 24.203C33.6036 26.2142 32.0321 28.2811 29.9124 29.5835C27.5223 31.0522 23.9545 31.6615 20.9999 31.6615C18.0453 31.6615 14.4775 31.0522 12.0874 29.5835C9.96771 28.2811 8.39621 26.2149 8.39991 24.203C8.40213 22.9599 9.6175 22.1124 10.7065 22.7024C10.7065 22.7024 11.398 23.1173 12.0684 23.4852Z" fill="#452783"/>
<path fill-rule="evenodd" clip-rule="evenodd" d="M20.9993 10.3398C25.6073 10.3398 26.8567 10.4475 28.7304 10.6627H28.7296C29.5933 10.7621 30.2856 11.4048 30.2213 12.2754L29.5312 21.6771C29.3152 21.7397 29.0797 21.8187 28.8155 21.9074C27.4312 22.372 25.261 23.1002 20.9992 23.1002C16.7374 23.1002 14.5673 22.372 13.1829 21.9074C12.9185 21.8186 12.6828 21.7395 12.4666 21.6769L11.7765 12.2754C11.7129 11.4048 12.403 10.7465 13.2681 10.6627C15.1189 10.4831 17.0458 10.3398 20.9993 10.3398ZM12.7973 26.182L12.7997 26.215L12.8474 26.226C12.8303 26.2111 12.8136 26.1965 12.7973 26.182ZM29.1551 26.2249L29.1981 26.215L29.2003 26.1849C29.1855 26.1981 29.1705 26.2114 29.1551 26.2249Z" fill="#452783"/>
</svg>
