<svg width="42" height="42" viewBox="0 0 42 42" fill="none" xmlns="http://www.w3.org/2000/svg">
<rect width="42" height="42" rx="21" fill="#000001"/>
<circle cx="21" cy="21" r="21" fill="#000001"/>
<path d="M11.8475 8.31445L11.9485 8.60286L14.5094 12.1634C14.5104 12.153 14.5129 12.1426 14.5168 12.1326C14.5312 12.0961 14.5631 12.0694 14.6015 12.0617L18.6957 11.2415L11.8475 8.31445Z" fill="#E9B453"/>
<path d="M17.3036 15.9002L18.8832 11.3216L14.6242 12.1749L17.3036 15.9002Z" fill="#F1BB57"/>
<path d="M17.4706 16.1322L17.4656 16.2088L19.2343 18.6679L19.3568 18.7547L19.0528 11.5532L17.4706 16.1322Z" fill="#ECC677"/>
<path d="M19.3568 18.7547L17.4706 16.1322L12.628 16.1744L19.3568 18.7547Z" fill="#E9B453"/>
<path d="M12.4604 15.9413L17.3036 15.9002L14.6242 12.1749L12.4604 15.9413Z" fill="#F0A840"/>
<path d="M12.4604 15.9413L17.3036 15.9002L14.6242 12.1749L12.4604 15.9413Z" fill="#F0A840"/>
<path d="M11.8475 8.31445L12.444 15.7381L14.5242 12.1174C14.5325 12.1029 14.5437 12.0907 14.5568 12.0812L11.8475 8.31445Z" fill="#E9B453"/>
<path d="M24.336 21.5195L24.2898 21.5807L24.4152 24.6072L24.4698 24.747L28.1751 18.5645L24.336 21.5195Z" fill="#ECC677"/>
<path d="M24.4698 24.747L24.336 21.5195L20.2678 18.8923L24.4698 24.747Z" fill="#E9B453"/>
<path d="M24.3242 21.2338L28.1608 18.2777L24.1341 16.649L24.3242 21.2338Z" fill="#F1BB57"/>
<path d="M20.2559 18.6055L24.3242 21.2338L24.1341 16.649L20.2559 18.6055Z" fill="#F0A840"/>
<path d="M23.9371 11.8977L23.8628 12.1941L24.0445 16.5763C24.0511 16.5682 24.0588 16.5609 24.0676 16.5547C24.0997 16.5321 24.141 16.5274 24.1773 16.5421L28.0483 18.1078L23.9371 11.8977Z" fill="#E9B453"/>
<path d="M23.9371 11.8978L20.354 18.4267L24.0821 16.5459C24.097 16.5384 24.1131 16.5343 24.1293 16.5337L23.9371 11.8978Z" fill="#E9B453"/>
<path d="M20.3393 24.3942L20.4121 24.3698L23.2414 25.4515L23.3566 25.5477L16.3165 27.0939L20.3393 24.3942Z" fill="#ECC677"/>
<path d="M23.3566 25.5477L20.3393 24.3942L19.1427 19.7016L23.3566 25.5477Z" fill="#E9B453"/>
<path d="M20.0722 24.2921L16.0492 26.9891L15.786 22.6534L20.0722 24.2921Z" fill="#F1BB57"/>
<path d="M11.3442 20.9553L11.6489 20.9791L15.7455 22.5453C15.7357 22.549 15.7264 22.554 15.7177 22.5604C15.6861 22.5836 15.6685 22.6212 15.6708 22.6604L15.9239 26.8283L11.3442 20.9553Z" fill="#E9B453"/>
<path d="M16.0495 26.9889L16.0493 26.989L16.0492 26.9891L16.0495 26.9889Z" fill="#E9B453"/>
<path d="M18.8745 19.599L20.0722 24.2921L15.786 22.6534L18.8745 19.599Z" fill="#F0A840"/>
<path d="M11.3442 20.9553L18.6741 19.6351L15.7049 22.5715C15.693 22.5832 15.684 22.5971 15.6783 22.6122L11.3442 20.9553Z" fill="#E9B453"/>
<path d="M19.6412 24.1273L15.7861 22.6534L15.7861 22.6534L19.6412 24.1272L19.6412 24.1273Z" fill="#E9B453"/>
<path d="M29.3997 28.5596L29.3535 28.6209L29.4789 31.6474L29.5335 31.7872L33.2388 25.6046L29.3997 28.5596Z" fill="#ECC677"/>
<path d="M29.5335 31.7872L29.3997 28.5596L25.3315 25.9325L29.5335 31.7872Z" fill="#E9B453"/>
<path d="M29.3879 28.274L33.2245 25.3179L29.1978 23.6891L29.3879 28.274Z" fill="#F1BB57"/>
<path d="M25.3196 25.6456L29.3879 28.274L29.1978 23.6891L25.3196 25.6456Z" fill="#F0A840"/>
<path d="M29.0008 18.9379L28.9265 19.2343L29.1082 23.6164C29.1148 23.6083 29.1225 23.601 29.1313 23.5948C29.1633 23.5722 29.2047 23.5675 29.241 23.5822L33.112 25.1479L29.0008 18.9379Z" fill="#E9B453"/>
<path d="M29.0008 18.9379L25.4177 25.467L29.1458 23.5861C29.1607 23.5786 29.1768 23.5745 29.193 23.5739L29.0008 18.9379Z" fill="#E9B453"/>
<path d="M25.403 31.4343L25.4757 31.41L28.3051 32.4917L28.4203 32.5879L21.3802 34.134L25.403 31.4343Z" fill="#ECC677"/>
<path d="M28.4203 32.5879L25.403 31.4343L24.2064 26.7417L28.4203 32.5879Z" fill="#E9B453"/>
<path d="M25.1359 31.3322L21.1129 34.0292L20.8497 29.6936L25.1359 31.3322Z" fill="#F1BB57"/>
<path d="M23.9382 26.6392L25.1359 31.3322L20.8497 29.6936L23.9382 26.6392Z" fill="#F0A840"/>
<path d="M16.4079 27.9954L16.7126 28.0193L20.8092 29.5855C20.7994 29.5892 20.7901 29.5942 20.7814 29.6005C20.7498 29.6237 20.7322 29.6614 20.7345 29.7005L20.9876 33.8685L16.4079 27.9954Z" fill="#E9B453"/>
<path d="M21.1132 34.029L21.113 34.0292L21.1129 34.0292L21.1132 34.029Z" fill="#E9B453"/>
<path d="M16.4079 27.9954L23.7377 26.6753L20.7686 29.6116C20.7567 29.6233 20.7477 29.6373 20.742 29.6524L16.4079 27.9954Z" fill="#E9B453"/>
<path d="M24.7049 31.1674L20.8497 29.6936L20.8498 29.6935L24.7049 31.1674L24.7049 31.1674Z" fill="#E9B453"/>
<path d="M28.7563 32.9292C28.7191 32.8775 28.7309 32.8054 28.7826 32.7682L29.6459 32.1472C29.6977 32.11 29.7698 32.1218 29.807 32.1735L33.687 37.568C33.7242 37.6198 33.7125 37.6919 33.6608 37.7291L32.7974 38.35C32.7457 38.3873 32.6736 38.3755 32.6364 38.3238L28.7563 32.9292Z" fill="#DDAB3A"/>
</svg>
