<svg xmlns="http://www.w3.org/2000/svg" width="42" height="42" fill="none"><circle cx="21" cy="21" r="20" fill="#222"/><path fill="#5B10FF" fill-rule="evenodd" d="M21 7c7.739 0 14 6.261 14 14 0 7.661-6.144 13.883-13.767 14H21V23.217l-1.789 1.789-.233 4.433L20.844 35c-1.088 0-2.138-.156-3.188-.428l-.273-.078-.894-2.683-2.528 1.283a13.734 13.734 0 0 1-2.567-1.905l-.194-.195 4.706-2.372.155-2.683-2.683.155-2.372 4.706a15.09 15.09 0 0 1-1.945-2.528l-.155-.233 1.283-2.528-2.683-.894c-.273-1.05-.428-2.1-.467-3.15v-.273l5.6 1.867 4.433-.233 1.79-1.79-1.79-1.788-4.433-.233L7 20.844c0-1.088.156-2.177.389-3.188l.078-.273 2.683-.894-1.283-2.528a13.736 13.736 0 0 1 1.905-2.567l.195-.194 2.372 4.706 2.683.155-.155-2.683-4.706-2.372A15.09 15.09 0 0 1 13.69 9.06l.233-.155 2.528 1.283.894-2.683c1.05-.273 2.1-.428 3.15-.467h.273L18.9 12.6l.233 4.433 1.79 1.79C21 18.782 21 7 21 7Zm3.111 3.578V31.46C28.583 30.1 31.89 25.94 31.89 21c0-4.861-3.228-8.983-7.622-10.383l-.156-.04Z" clip-rule="evenodd"/></svg>