<svg width="400" height="400" xmlns="http://www.w3.org/2000/svg" version="1.1" enable-background="new 0 0 400 400" xml:space="preserve">
 <g>
  <title>Layer 1</title>
  <ellipse ry="200" rx="200" id="svg_3" cy="200" cx="200" fill="#ffffff"/>
  <g stroke="null" id="svg_4">
   <path stroke="null" fill="#1CBDCF" d="m285.19999,341.99999c-18.7115,0 -37.42301,0 -56.4677,-0.33275c-0.3332,-18.95833 -0.3332,-37.58393 -0.3332,-56.22669c-19.15321,0 -37.86773,0 -56.79909,0c0,19.01297 0,37.7862 0,56.55944c-18.7115,0 -37.42301,0 -56.46743,-0.33275c-0.33293,-18.96555 -0.33293,-37.59834 -0.33293,-56.46725c-19.2387,0 -38.01916,0 -56.79963,0c0,-18.7115 0,-37.42301 0.33275,-56.46766c18.95833,-0.33317 37.58393,-0.33317 56.2267,-0.33317c0,-19.15331 0,-37.86783 0,-56.79917c-19.01297,0 -37.78621,0 -56.55945,0c0,-18.7115 0,-37.42301 0.33275,-56.46746c18.96555,-0.33296 37.59835,-0.33296 56.46725,-0.33296c0,-19.23868 0,-38.01914 0,-56.79958c18.7115,0 37.423,0 56.46766,0.33275c0.36682,19.04158 0.40046,37.75043 0.38093,56.78877c-0.0618,17.22481 -0.07154,34.1201 -0.07743,51.01541c-0.00065,1.86011 0.02083,3.72023 0.03113,5.90518c-0.00092,18.92196 -0.00092,37.5191 -0.00092,56.35433c19.19547,0 37.93864,0 56.84062,0.2397c4.00409,0.09122 7.8487,-0.16376 11.6947,-0.18688c15.02354,-0.09029 30.04755,-0.10722 45.10088,-0.14736c0.02949,0.00402 0.04975,0.06002 0.10287,0.33814c1.34369,0.57874 2.63314,1.13493 3.92504,1.14073c14.00036,0.06283 28.00214,-0.05485 42.00099,0.10419c3.58252,0.04069 7.15592,0.88172 10.73352,1.35505c0,17.52817 0,35.05633 -0.13937,52.986c-0.31654,0.51779 -0.45537,0.66925 -0.88637,0.90436c-18.73074,0.04849 -37.13095,0.04849 -55.77426,0.04849c0,19.25568 0,38.03841 0,56.82115z" id="svg_1"/>
   <path stroke="null" fill="#181927" d="m171.60321,171.71728c-0.01122,-1.86012 -0.0327,-3.72024 -0.03205,-5.58035c0.00589,-16.89531 0.01563,-33.7906 0.40172,-51.01176c19.01124,-0.32585 37.64502,-0.32585 56.42712,-0.32585c0,-19.21994 0,-38.00963 0,-56.79932c18.7115,0 37.42301,0 56.46731,0.33275c0.33283,19.02715 0.33283,37.72157 0.33283,56.46725c19.28434,0 38.0421,0 56.79985,0c0,18.7115 0,37.423 -0.33275,56.46754c-18.97246,0.33304 -37.61214,0.33304 -56.45919,0.33304c0,19.14177 0,37.91952 0,56.69728c-15.02382,0.04418 -30.04783,0.0611 -45.07137,0.15139c-3.846,0.02312 -7.69061,0.2781 -11.64142,-0.14311c-0.10555,-19.26507 -0.10555,-37.96044 -0.10555,-56.58886c-19.27412,0 -38.03031,0 -56.78652,0z" id="svg_2"/>
   <path stroke="null" fill="#1CBDCF" d="m285.34044,228.64003c18.62927,-0.2655 37.31166,-0.25288 56.3268,-0.24015c0.33275,0.75746 0.33275,1.5148 0.33275,2.55613c-3.5776,-0.18934 -7.15101,-1.03037 -10.73352,-1.07106c-13.99884,-0.15904 -28.00062,-0.04136 -42.00099,-0.10419c-1.2919,-0.00579 -2.58135,-0.56199 -3.92504,-1.14073z" id="svg_11"/>
   <path stroke="null" fill="#1CBDCF" d="m341.99999,285.02249c0,0.1775 -0.35411,0.15672 -0.52465,0.10803c-0.07008,-0.23529 0.06875,-0.38674 0.38529,-0.57176c0.13937,-0.06877 0.13937,0.28623 0.13937,0.46373z" id="svg_12"/>
  </g>
 </g>

</svg>