<svg xmlns="http://www.w3.org/2000/svg" width="36" height="36" fill="none"><g clip-path="url(#a)"><g clip-path="url(#b)"><rect width="36" height="36" fill="#F5F5F5" rx="18"/><path fill="#F3F3F3" d="M18 36c9.941 0 18-8.059 18-18S27.941 0 18 0 0 8.059 0 18s8.059 18 18 18Z"/><path fill="url(#c)" d="M18 36c9.941 0 18-8.059 18-18S27.941 0 18 0 0 8.059 0 18s8.059 18 18 18Z" opacity=".3"/><path fill="#D321CC" d="M15.142 19.914s-.814.071-1.38.107c-.707.07-2.05.318-2.828.566-.248.071-.707.284-.743.532-.035.247.106.425.283.637.106.106.672.637.813.78.637.53 1.98 1.38 2.97 1.805.319.142.885.355.885.355s-.036-1.594-.036-3.152c0-.815.036-1.63.036-1.63Zm14.85.638c.036.425-.07 1.24-.07 1.346a5.802 5.802 0 0 1-.248.885 5.58 5.58 0 0 1-.46.92c-.282.497-.883 1.24-1.272 1.56-1.38 1.203-3.572 1.912-5.41 2.124-1.273.142-2.688.142-4.031-.106-.46-.07-1.132-.248-1.132-.248s0 .283-.035.46c0 .071-.07.32-.106.39a.588.588 0 0 1-.495.354c-.283.071-.566.071-.849-.035-.424-.177-.566-.567-.636-1.027-.071-.355-.106-.992-.106-.992s-.319-.142-.566-.283a14.281 14.281 0 0 1-2.263-1.381c-.177-.142-.99-.815-1.167-.992-.495-.46-.955-.956-1.273-1.559-.248-.46-.354-.885-.142-1.38.283-.709 1.273-1.205 1.945-1.524.495-.212 2.051-.743 2.688-.814.318-.036.777-.142.813-.142l.035-.035c0-.036.036-.709.036-.957 0-.247.176-1.877.247-2.23.036-.178.177-.921.318-1.099.106-.141.248-.106.39-.035.742.46.954 2.054 1.025 2.869.035.495.035 1.24.035 1.24s.849-.036 1.38 0c.494 0 1.06.105 1.59.176.672.107 1.98.39 2.758.78.637.318 1.203.85 1.38 1.416.176.531.141.886-.107 1.346-.282.531-.884.92-1.45.956-.176 0-.813-.07-1.025-.212a.171.171 0 0 1 0-.248c.036-.036.319-.177.495-.284.106-.035.177-.106.248-.177.141-.141.283-.283.283-.425-.036-.212-.248-.354-.46-.425-1.026-.425-3.076-.743-4.102-.814-.389-.036-.954-.036-.954-.036l.106 5.49s.46.07.813.142c.212.035 1.096.106 1.308.106 1.768.035 3.748-.106 5.375-.886.707-.354 1.379-.743 1.874-1.31.672-.744.99-1.77.92-2.869-.107-1.168-.92-2.585-1.592-3.4-1.733-2.23-4.738-4.073-7.355-5.17-2.687-1.098-5.34-1.736-8.168-1.842-.743-.036-2.334 0-3.147.248-.106.035-.248.07-.354.106-.07.036-.212.07-.247.106l-.035.036s.035.035.106.035c.07.036.46.071.636.106.177.036.354.107.424.248.071.107.071.213 0 .32-.176.212-.884.176-1.166.14-.319-.035-.708-.14-.778-.424-.071-.319.07-.638.247-.921.318-.602.813-.885 1.52-1.098.99-.283 2.264-.46 3.183-.496 2.122-.07 4.137.284 6.188.921 1.167.354 2.723.956 3.854 1.487.814.39 2.087 1.098 2.794 1.594a57.045 57.045 0 0 1 1.768 1.31c.424.355.99.85 1.379 1.276.778.779 1.768 1.983 2.227 2.904.107.212.213.46.354.708.035.106.283.638.318.78.036.14.071.389.106.389-.035-.036.036.425.036.602Z"/></g></g><defs><clipPath id="a"><path fill="#fff" d="M0 0h36v36H0z"/></clipPath><clipPath id="b"><rect width="36" height="36" fill="#fff" rx="18"/></clipPath><linearGradient id="c" x1="18.118" x2="18" y1="13.151" y2="36" gradientUnits="userSpaceOnUse"><stop stop-color="#fff"/><stop offset="1" stop-color="#E866FD"/></linearGradient></defs></svg>