<svg xmlns="http://www.w3.org/2000/svg" width="42" height="42" fill="none"><circle cx="21" cy="21" r="21" fill="#E6007A"/><path fill="#F3F3F3" d="M21 12.873c2.788 0 5.049-1.315 5.049-2.936 0-1.622-2.26-2.937-5.05-2.937-2.788 0-5.048 1.315-5.048 2.937 0 1.621 2.26 2.936 5.049 2.936ZM21 35c2.788 0 5.049-1.315 5.049-2.937 0-1.622-2.26-2.936-5.05-2.936-2.788 0-5.048 1.314-5.048 2.936C15.95 33.685 18.21 35 21 35ZM13.964 16.94c1.394-2.414 1.385-5.03-.02-5.841-1.405-.812-3.675.488-5.07 2.903-1.394 2.415-1.385 5.03.02 5.842 1.406.811 3.676-.489 5.07-2.904ZM33.124 27.998c1.395-2.415 1.386-5.03-.018-5.84-1.405-.811-3.674.489-5.068 2.904-1.394 2.415-1.386 5.03.019 5.84 1.404.811 3.673-.489 5.067-2.904ZM13.944 30.9c1.405-.811 1.414-3.427.02-5.841-1.394-2.415-3.664-3.715-5.07-2.904-1.405.812-1.414 3.427-.02 5.842 1.395 2.415 3.665 3.715 5.07 2.903ZM33.106 19.841c1.404-.81 1.413-3.426.018-5.84-1.394-2.415-3.663-3.716-5.067-2.905-1.405.811-1.413 3.426-.019 5.841 1.395 2.415 3.663 3.715 5.068 2.904Z"/></svg>