<svg width="42" height="42" viewBox="0 0 42 42" fill="none" xmlns="http://www.w3.org/2000/svg">
<circle cx="21" cy="21" r="21" fill="#E6007A"/>
<path d="M20.9998 12.8731C23.7883 12.8731 26.0489 11.5584 26.0489 9.93654C26.0489 8.31474 23.7883 7 20.9998 7C18.2112 7 15.9507 8.31474 15.9507 9.93654C15.9507 11.5584 18.2112 12.8731 20.9998 12.8731Z" fill="#F3F3F3"/>
<path d="M20.9998 34.9998C23.7883 34.9998 26.0489 33.6851 26.0489 32.0633C26.0489 30.4414 23.7883 29.1267 20.9998 29.1267C18.2112 29.1267 15.9507 30.4414 15.9507 32.0633C15.9507 33.6851 18.2112 34.9998 20.9998 34.9998Z" fill="#F3F3F3"/>
<path d="M13.9642 16.9405C15.3585 14.5256 15.3494 11.9102 13.944 11.0987C12.5385 10.2873 10.2689 11.5871 8.87465 14.002C7.48038 16.4169 7.48943 19.0323 8.89486 19.8438C10.3003 20.6552 12.5699 19.3554 13.9642 16.9405Z" fill="#F3F3F3"/>
<path d="M33.1243 27.9983C34.5186 25.5835 34.5103 22.9684 33.1058 22.1575C31.7013 21.3466 29.4325 22.6469 28.0382 25.0618C26.644 27.4767 26.6522 30.0917 28.0567 30.9026C29.4612 31.7135 31.73 30.4132 33.1243 27.9983Z" fill="#F3F3F3"/>
<path d="M13.944 30.9003C15.3494 30.0889 15.3585 27.4734 13.9642 25.0585C12.5699 22.6436 10.3003 21.3438 8.89486 22.1552C7.48943 22.9667 7.48038 25.5822 8.87465 27.997C10.2689 30.4119 12.5385 31.7118 13.944 30.9003Z" fill="#F3F3F3"/>
<path d="M33.1058 19.8412C34.5103 19.0303 34.5186 16.4153 33.1243 14.0004C31.73 11.5856 29.4612 10.2853 28.0567 11.0962C26.6522 11.9071 26.644 14.5221 28.0382 16.937C29.4325 19.3519 31.7013 20.6521 33.1058 19.8412Z" fill="#F3F3F3"/>
</svg>
