<svg width="36" height="36" viewBox="0 0 36 36" fill="none" xmlns="http://www.w3.org/2000/svg">
<rect width="35.9982" height="35.9982" rx="17.9991" fill="url(#paint0_linear_4101_219281)"/>
<path d="M17.9991 35.9982C27.9396 35.9982 35.9982 27.9396 35.9982 17.9991C35.9982 8.0586 27.9396 0 17.9991 0C8.0586 0 0 8.0586 0 17.9991C0 27.9396 8.0586 35.9982 17.9991 35.9982Z" fill="url(#paint1_linear_4101_219281)"/>
<path d="M7.21846 20.8866C6.67966 20.3494 6.31833 19.729 6.13445 19.0256C5.95486 18.3178 5.95486 17.6101 6.13445 16.9023C6.31833 16.1903 6.67752 15.5678 7.21204 15.0349C7.75511 14.4935 8.38157 14.1332 9.09141 13.9542C9.80125 13.7751 10.5111 13.7751 11.2209 13.9542C11.9308 14.1332 12.5551 14.4913 13.0939 15.0285L14.428 16.3588L16.4036 14.389L15.0695 13.0588C14.5307 12.5216 14.1693 11.9013 13.9854 11.1978C13.8058 10.49 13.8038 9.78442 13.979 9.08094C14.1587 8.3732 14.52 7.74859 15.0631 7.20713C15.6018 6.66992 16.2262 6.31179 16.936 6.13272C17.6459 5.95366 18.3535 5.95578 19.0591 6.13911C19.7689 6.31818 20.3933 6.67632 20.9321 7.21352C21.4709 7.75073 21.8301 8.3732 22.0097 9.08094C22.1936 9.78442 22.1956 10.49 22.0161 11.1978C21.8407 11.9098 21.4837 12.5344 20.9449 13.0716L19.6172 14.3954L21.5863 16.3588L22.914 15.0349C23.4529 14.4977 24.075 14.1374 24.7806 13.9542C25.4904 13.7751 26.1981 13.7772 26.9037 13.9605C27.6136 14.1396 28.24 14.4999 28.7831 15.0413C29.3219 15.5786 29.681 16.201 29.8606 16.9087C30.0445 17.6122 30.0445 18.3157 29.8606 19.0192C29.681 19.7269 29.3219 20.3494 28.7831 20.8866C28.24 21.4281 27.6136 21.7883 26.9037 21.9674C26.1981 22.1422 25.4904 22.1401 24.7806 21.961C24.0793 21.7819 23.4593 21.4238 22.9205 20.8866L21.5927 19.5628L19.6172 21.5325L20.9449 22.8564C21.4837 23.3935 21.8407 24.0139 22.0161 24.7174C22.1956 25.4251 22.1956 26.1329 22.0161 26.8406C21.8365 27.5484 21.4751 28.173 20.9321 28.7144C20.3976 29.2473 19.7732 29.6055 19.0591 29.7888C18.3492 29.9679 17.6394 29.9679 16.9296 29.7888C16.2283 29.6098 15.6082 29.2516 15.0695 28.7144C14.5264 28.173 14.1629 27.5505 13.979 26.847C13.7994 26.1393 13.7994 25.4315 13.979 24.7238C14.1672 24.016 14.5286 23.3957 15.0631 22.8628L16.4036 21.5261L14.4345 19.5628L13.0939 20.8994C12.5594 21.4324 11.9329 21.7883 11.2145 21.9674C10.5047 22.1465 9.79485 22.1465 9.085 21.9674C8.37944 21.7841 7.75725 21.4238 7.21846 20.8866ZM8.82201 19.2878C9.06575 19.5308 9.34797 19.6928 9.66869 19.7738C9.99368 19.8591 10.3165 19.8612 10.6372 19.7802C10.9579 19.6992 11.2402 19.5372 11.4839 19.2942L12.8245 17.9576L11.4903 16.6274C11.2466 16.3843 10.9622 16.2244 10.6372 16.1477C10.3165 16.0667 9.99582 16.0667 9.67511 16.1477C9.3544 16.2288 9.07003 16.3929 8.82201 16.6401C8.57827 16.8832 8.41364 17.1625 8.32812 17.4779C8.24687 17.7977 8.24687 18.1174 8.32812 18.4372C8.41364 18.7612 8.57827 19.0447 8.82201 19.2878ZM16.673 11.46L18.0072 12.7902L19.3349 11.4664C19.5829 11.2191 19.7455 10.9377 19.8224 10.6222C19.9036 10.3024 19.9015 9.98054 19.816 9.65651C19.7348 9.33675 19.5722 9.05536 19.3285 8.81234C19.0848 8.56931 18.8025 8.4073 18.4818 8.3263C18.1611 8.24529 17.8404 8.24529 17.5197 8.3263C17.2033 8.40304 16.921 8.56505 16.673 8.81234C16.4293 9.05536 16.2625 9.33675 16.1727 9.65651C16.0915 9.97627 16.0915 10.296 16.1727 10.6158C16.2625 10.9356 16.4293 11.217 16.673 11.46ZM22.8207 17.964L24.1484 19.2878C24.3921 19.5308 24.6722 19.6949 24.9887 19.7802C25.3094 19.8612 26.0036 19.8591 26.32 19.7738C26.6407 19.6928 26.9251 19.5287 27.1731 19.2814C27.4211 19.0341 27.5836 18.7527 27.6606 18.4372C27.7461 18.1217 27.7483 17.8041 27.667 17.4843C27.5857 17.1645 27.4233 16.8832 27.1795 16.6401C26.9315 16.3929 26.6471 16.2288 26.3264 16.1477C26.0057 16.0667 25.3094 16.0667 24.9887 16.1477C24.6765 16.2288 24.3964 16.3929 24.1484 16.6401L22.8207 17.964ZM16.673 27.1156C16.9168 27.3586 17.199 27.5206 17.5197 27.6016C17.8404 27.6827 18.159 27.6805 18.4754 27.5952C18.7961 27.5142 19.0784 27.3522 19.3221 27.1092C19.5701 26.8619 19.7348 26.5784 19.816 26.2586C19.9015 25.9431 19.9036 25.6255 19.8224 25.3057C19.7455 24.9817 19.5851 24.6982 19.3414 24.4552L18.0136 23.1313L16.673 24.468C16.4293 24.711 16.2646 24.9902 16.1791 25.3057C16.0979 25.6255 16.0979 25.9453 16.1791 26.2651C16.2604 26.5848 16.425 26.8683 16.673 27.1156ZM16.038 17.964L18.0072 19.9273L19.9827 17.9576L18.0136 15.9942L16.038 17.964Z" fill="#F3F3F3"/>
<defs>
<linearGradient id="paint0_linear_4101_219281" x1="17.9991" y1="0" x2="17.9991" y2="35.9982" gradientUnits="userSpaceOnUse">
<stop stop-color="#404141"/>
<stop offset="1" stop-color="#222222"/>
</linearGradient>
<linearGradient id="paint1_linear_4101_219281" x1="18.1171" y1="13.1503" x2="17.9991" y2="35.9982" gradientUnits="userSpaceOnUse">
<stop stop-color="#252526"/>
<stop offset="1" stop-color="#0D0D0D"/>
</linearGradient>
</defs>
</svg>
