<svg width="42" height="42" viewBox="0 0 42 42" fill="none" xmlns="http://www.w3.org/2000/svg">
<g clip-path="url(#clip0_4532_193569)">
<path d="M41.9979 20.9989C41.9979 9.40155 32.5963 0 20.9989 0C9.40155 0 0 9.40155 0 20.9989C0 32.5963 9.40155 41.9979 20.9989 41.9979C32.5963 41.9979 41.9979 32.5963 41.9979 20.9989Z" fill="url(#paint0_linear_4532_193569)"/>
<path d="M20.9989 41.9979C32.5962 41.9979 41.9979 32.5962 41.9979 20.9989C41.9979 9.4017 32.5962 0 20.9989 0C9.4017 0 0 9.4017 0 20.9989C0 32.5962 9.4017 41.9979 20.9989 41.9979Z" fill="url(#paint1_linear_4532_193569)"/>
<path d="M8.39057 24.3365C7.76197 23.7097 7.34042 22.9859 7.12589 22.1653C6.91637 21.3395 6.91637 20.5139 7.12589 19.6881C7.34042 18.8574 7.75947 18.1312 8.38308 17.5095C9.01666 16.8778 9.74753 16.4575 10.5757 16.2487C11.4038 16.0397 12.232 16.0397 13.0601 16.2487C13.8883 16.4575 14.6166 16.8753 15.2452 17.502L16.8017 19.054L19.1066 16.7559L17.5501 15.204C16.9215 14.5773 16.4999 13.8536 16.2853 13.0329C16.0758 12.2071 16.0735 11.3839 16.2779 10.5632C16.4875 9.73748 16.909 9.00877 17.5426 8.37707C18.1711 7.75032 18.8996 7.3325 19.7277 7.12359C20.5559 6.91469 21.3814 6.91716 22.2046 7.13105C23.0327 7.33996 23.7612 7.75779 24.3898 8.38452C25.0184 9.01127 25.4375 9.73748 25.647 10.5632C25.8616 11.3839 25.8639 12.2071 25.6545 13.0329C25.4498 13.8635 25.0333 14.5922 24.4047 15.219L22.8558 16.7634L25.153 19.054L26.702 17.5095C27.3307 16.8827 28.0565 16.4624 28.8797 16.2487C29.7078 16.0397 30.5335 16.0422 31.3567 16.256C32.1849 16.465 32.9157 16.8853 33.5493 17.5169C34.1779 18.1438 34.5969 18.8699 34.8064 19.6956C35.0209 20.5163 35.0209 21.3371 34.8064 22.1578C34.5969 22.9835 34.1779 23.7097 33.5493 24.3365C32.9157 24.9682 32.1849 25.3884 31.3567 25.5974C30.5335 25.8013 29.7078 25.7989 28.8797 25.5899C28.0615 25.381 27.3382 24.9632 26.7096 24.3365L25.1605 22.792L22.8558 25.09L24.4047 26.6346C25.0333 27.2612 25.4498 27.985 25.6545 28.8057C25.8639 29.6314 25.8639 30.4571 25.6545 31.2828C25.4449 32.1086 25.0233 32.8373 24.3898 33.4689C23.7662 34.0906 23.0378 34.5085 22.2046 34.7224C21.3764 34.9313 20.5483 34.9313 19.7202 34.7224C18.902 34.5135 18.1786 34.0956 17.5501 33.4689C16.9165 32.8373 16.4924 32.111 16.2779 31.2903C16.0683 30.4646 16.0683 29.6388 16.2779 28.8132C16.4974 27.9874 16.9191 27.2637 17.5426 26.642L19.1066 25.0825L16.8093 22.792L15.2452 24.3514C14.6217 24.9732 13.8908 25.3884 13.0526 25.5974C12.2245 25.8063 11.3964 25.8063 10.5682 25.5974C9.74505 25.3835 9.01916 24.9632 8.39057 24.3365ZM10.2614 22.4712C10.5457 22.7547 10.875 22.9437 11.2492 23.0382C11.6283 23.1377 12.005 23.1401 12.3791 23.0456C12.7533 22.9511 13.0826 22.7622 13.3669 22.4787L14.9309 20.9193L13.3744 19.3674C13.0901 19.0838 12.7583 18.8972 12.3791 18.8077C12.005 18.7132 11.6308 18.7132 11.2567 18.8077C10.8825 18.9024 10.5507 19.0938 10.2614 19.3822C9.97701 19.6658 9.78495 19.9917 9.68517 20.3596C9.59038 20.7327 9.59038 21.1057 9.68517 21.4788C9.78495 21.8568 9.97701 22.1876 10.2614 22.4712ZM19.4209 13.3388L20.9774 14.8907L22.5264 13.3462C22.8157 13.0577 23.0054 12.7294 23.0952 12.3613C23.1899 11.9882 23.1874 11.6127 23.0877 11.2347C22.993 10.8616 22.8033 10.5333 22.5189 10.2498C22.2346 9.96628 21.9053 9.77727 21.5311 9.68277C21.157 9.58825 20.7828 9.58825 20.4087 9.68277C20.0395 9.7723 19.7102 9.96131 19.4209 10.2498C19.1365 10.5333 18.9419 10.8616 18.8372 11.2347C18.7424 11.6077 18.7424 11.9808 18.8372 12.3539C18.9419 12.727 19.1365 13.0553 19.4209 13.3388ZM26.5932 20.9268L28.1422 22.4712C28.4265 22.7547 28.7533 22.9461 29.1225 23.0456C29.4967 23.1401 30.3066 23.1377 30.6757 23.0382C31.0498 22.9437 31.3816 22.7522 31.671 22.4637C31.9603 22.1752 32.1499 21.8469 32.2397 21.4788C32.3395 21.1107 32.342 20.7402 32.2472 20.3671C32.1523 19.994 31.9629 19.6658 31.6784 19.3822C31.3891 19.0938 31.0573 18.9024 30.6832 18.8077C30.309 18.7132 29.4967 18.7132 29.1225 18.8077C28.7583 18.9024 28.4315 19.0938 28.1422 19.3822L26.5932 20.9268ZM19.4209 31.6036C19.7053 31.8871 20.0345 32.0761 20.4087 32.1706C20.7828 32.2652 21.1545 32.2627 21.5237 32.1632C21.8978 32.0687 22.2272 31.8797 22.5115 31.5962C22.8008 31.3076 22.993 30.9769 23.0877 30.6038C23.1874 30.2357 23.1899 29.8652 23.0952 29.4921C23.0054 29.1141 22.8183 28.7833 22.534 28.4998L20.9849 26.9553L19.4209 28.5148C19.1365 28.7983 18.9444 29.124 18.8446 29.4921C18.7499 29.8652 18.7499 30.2383 18.8446 30.6114C18.9395 30.9844 19.1315 31.3151 19.4209 31.6036ZM18.68 20.9268L20.9774 23.2173L23.2822 20.9193L20.9849 18.6287L18.68 20.9268Z" fill="#F3F3F3"/>
</g>
<defs>
<linearGradient id="paint0_linear_4532_193569" x1="20.9989" y1="0" x2="20.9989" y2="41.9979" gradientUnits="userSpaceOnUse">
<stop stop-color="#404141"/>
<stop offset="1" stop-color="#222222"/>
</linearGradient>
<linearGradient id="paint1_linear_4532_193569" x1="21.1366" y1="15.342" x2="20.9989" y2="41.9979" gradientUnits="userSpaceOnUse">
<stop stop-color="#252526"/>
<stop offset="1" stop-color="#0D0D0D"/>
</linearGradient>
<clipPath id="clip0_4532_193569">
<rect width="42" height="42" fill="white"/>
</clipPath>
</defs>
</svg>
