<svg xmlns="http://www.w3.org/2000/svg" width="37" height="36" fill="none"><rect width="35.998" height="35.998" x=".572" fill="url(#a)" rx="17.999"/><path fill="url(#b)" stroke="url(#c)" stroke-linejoin="round" stroke-width=".857" d="M18.857 7.538a.428.428 0 0 0-.715.003c-.29.442-.593.9-.905 1.37-.998 1.5-2.077 3.123-3.01 4.771-1.226 2.162-2.232 4.418-2.487 6.57-.548 4.635 3.029 8.399 6.76 8.399 3.722 0 7.438-3.753 6.906-8.397-.246-2.155-1.254-4.377-2.5-6.522-.924-1.591-1.998-3.17-3.016-4.667-.354-.52-.701-1.03-1.033-1.527Z"/><path fill="url(#d)" fill-rule="evenodd" d="M14.124 21.963a3.157 3.157 0 0 0-.017.126c-.28 2.357 1.543 4.243 3.398 4.243.458 0 .919-.116 1.349-.325a5.914 5.914 0 0 1-4.73-4.044Z" clip-rule="evenodd"/><defs><linearGradient id="a" x1="28.014" x2="6.307" y1="6.171" y2="30.783" gradientUnits="userSpaceOnUse"><stop stop-color="#8D8BA0"/><stop offset="1" stop-color="#D9D8ED"/></linearGradient><linearGradient id="b" x1="18.571" x2="18.571" y1="7.775" y2="28.222" gradientUnits="userSpaceOnUse"><stop stop-color="#59688F"/><stop offset="1" stop-color="#464565"/></linearGradient><linearGradient id="c" x1="24.2" x2="18.571" y1="7.671" y2="28.222" gradientUnits="userSpaceOnUse"><stop stop-color="#fff"/><stop offset="1" stop-color="#A7A4BF"/></linearGradient><linearGradient id="d" x1="15.119" x2="17.495" y1="22.444" y2="27.486" gradientUnits="userSpaceOnUse"><stop stop-color="#EBEBEB"/><stop offset="1" stop-color="#CFCDE2"/></linearGradient></defs></svg>