<svg width="42" height="42" viewBox="0 0 42 42" fill="none" xmlns="http://www.w3.org/2000/svg">
<rect width="42" height="42" rx="21" fill="#100C32"/>
<rect x="1.525" y="1.525" width="38.95" height="38.95" rx="19.475" stroke="#C98557" stroke-width="1.05"/>
<path fill-rule="evenodd" clip-rule="evenodd" d="M26.9376 19.8616C26.9596 19.845 26.9846 19.8329 27.0111 19.8259C27.0248 19.8143 27.0426 19.8049 27.0605 19.7965C27.0794 19.787 27.0972 19.7786 27.1109 19.7671C28.1399 19.1707 28.7678 18.3013 28.919 17.1116C28.9635 16.6704 28.9579 16.2255 28.9022 15.7855C28.8615 15.3656 28.7493 14.9558 28.5704 14.5738C28.2281 13.8241 27.6789 13.2928 26.9691 12.9032C26.3916 12.5777 25.7648 12.3782 25.1075 12.2533C24.4454 12.1151 23.774 12.0263 23.0988 11.9876C22.9949 11.9803 22.9455 11.9771 22.9203 11.9498C22.8993 11.9257 22.8993 11.8795 22.9004 11.7923V10.462C22.9025 10.0913 22.9014 9.72697 22.9004 9.36052C22.9004 8.99512 22.9004 8.62972 22.9025 8.26012C22.9088 8.09422 22.9088 8.09422 22.7271 8.09212C22.3638 8.08792 22.0016 8.08372 21.6351 8.06377L20.5914 8.03857C20.5263 8.03857 20.4959 8.04697 20.5001 8.12887C20.5043 8.14357 20.5032 8.15617 20.5022 8.16877C20.5022 8.18137 20.5011 8.19397 20.5043 8.20972C20.5074 8.53732 20.5137 8.86072 20.52 9.18307L20.5347 10.1564L20.5368 10.4189C20.54 10.8515 20.5431 11.2768 20.561 11.7104C20.5589 11.7682 20.5589 11.7976 20.5431 11.8112C20.5284 11.8259 20.5001 11.8249 20.4423 11.8238L19.5162 11.8669C19.3893 11.8752 19.2622 11.8811 19.1351 11.8847C19.0091 11.8889 18.882 11.8931 18.7529 11.9015C18.6951 11.9005 18.6657 11.8994 18.6521 11.8847C18.6374 11.87 18.6384 11.8406 18.6395 11.7829C18.6374 11.7755 18.6395 11.7619 18.6395 11.7503C18.6422 11.177 18.6464 10.6037 18.6521 10.0304C18.6573 9.46552 18.6626 8.90167 18.6657 8.34202V8.28952C18.6689 8.18032 18.6699 8.13202 18.6468 8.11102C18.629 8.09527 18.5975 8.09527 18.5418 8.09422C18.5065 8.09376 18.4711 8.09236 18.4358 8.09002L16.5143 8.09737C16.383 8.09737 16.383 8.09737 16.3841 8.22967C16.3746 8.44492 16.3809 8.65702 16.3862 8.87017C16.3789 9.86101 16.3792 10.8519 16.3872 11.8427C16.3883 11.974 16.3883 11.974 16.2455 11.995C15.5483 12.0286 14.8616 12.0433 14.1707 12.0412C13.7087 12.0391 13.2488 12.0422 12.7847 12.0454C12.4382 12.0475 12.0917 12.0496 11.7399 12.0496C11.574 12.0433 11.574 12.0433 11.5719 12.1588C11.5656 12.5473 11.5635 12.9337 11.5614 13.3201C11.5593 13.7065 11.5562 14.0929 11.5509 14.4803C11.5488 14.5391 11.5488 14.5675 11.5625 14.5822C11.5772 14.5969 11.6055 14.5979 11.6633 14.599C11.9604 14.6042 12.2534 14.5937 12.5474 14.5832C12.7028 14.5832 12.855 14.5811 13.0062 14.579C13.1574 14.5769 13.3086 14.5738 13.4651 14.5748C14.1896 14.5832 14.598 15.1996 14.6022 15.7246C14.6127 16.2716 14.619 16.8166 14.6253 17.3615C14.6316 17.9065 14.6379 18.4514 14.6484 18.9995C14.6694 20.1514 14.6852 21.3053 14.702 22.4593C14.7188 23.6143 14.7345 24.7672 14.7545 25.9201L14.7597 26.0419C14.7639 26.1301 14.7681 26.2162 14.7555 26.2981C14.7083 26.6887 14.3754 26.989 13.9512 27.0005C13.5795 27.0173 13.212 27.0173 12.8466 27.0173C12.6849 27.0173 12.5232 27.0173 12.3626 27.0194C12.1652 27.0278 12.1652 27.0341 12.1547 27.1454L12.1473 27.2063C12.0927 27.5329 12.0423 27.8573 11.9909 28.1828C11.9394 28.5083 11.889 28.8338 11.8334 29.1614L11.7756 29.5048L11.7168 29.8492C11.783 29.8481 11.8323 29.8513 11.8827 29.8544L12.1347 29.8607C12.5096 29.8712 12.8781 29.8796 13.253 29.8765C13.526 29.8765 13.8021 29.8828 14.0783 29.8891C14.5644 29.8996 15.0548 29.9111 15.5409 29.8891C15.7992 29.8712 16.0617 29.8681 16.3284 29.8817C16.4786 29.8922 16.4786 29.8922 16.4838 30.0392C16.4853 30.0436 16.486 30.0482 16.4859 30.0529C16.4859 30.0571 16.4828 30.0623 16.4754 30.0739L16.487 33.7174C16.4922 33.8644 16.4922 33.8644 16.6235 33.8633L16.7799 33.8686C17.0046 33.8759 17.223 33.8833 17.4498 33.8791L18.1502 33.8927H18.1523L18.8537 33.9074C18.8726 33.8528 18.8757 33.8024 18.8799 33.7531C18.8757 32.9162 18.8757 32.0941 18.8873 31.2541C18.8915 30.8908 18.8957 30.5285 18.8852 30.1694V30.1589C18.8831 30.0382 18.8831 30.0224 19.0217 30.0025C19.0931 29.992 19.1624 29.9867 19.2306 29.9815C19.2989 29.9762 19.3671 29.971 19.4385 29.9605C19.7294 29.9416 20.016 29.9395 20.3016 29.9374L20.6796 29.9332C20.7962 29.9353 20.7962 29.9353 20.7972 30.0665C20.7941 30.0844 20.7951 30.1043 20.7962 30.1243C20.7983 30.1435 20.7979 30.1629 20.7951 30.182C20.7983 30.7648 20.7972 31.3444 20.7951 31.924C20.7951 32.5036 20.793 33.0832 20.7962 33.6649C20.7899 33.8266 20.8046 33.8276 20.9432 33.836L20.9558 33.8371C21.2897 33.8581 21.6278 33.8759 21.9638 33.8948H21.9669L22.9749 33.9526L22.9928 33.9547C23.1272 33.9631 23.1828 33.9673 23.2049 33.9421C23.2196 33.9242 23.2185 33.8917 23.2154 33.8371C23.2132 33.8004 23.2121 33.7636 23.2122 33.7268C23.2227 33.1336 23.2311 32.5361 23.2395 31.9387C23.249 31.3402 23.2574 30.7406 23.2679 30.1474C23.2742 29.9815 23.2742 29.9815 23.4201 29.9762C24.2832 29.8828 25.1579 29.7704 26.0094 29.5667C26.6552 29.3987 27.2946 29.1992 27.8889 28.8958C28.9757 28.334 29.7432 27.494 30.1296 26.3254C30.3144 25.7689 30.389 25.1735 30.4341 24.5876C30.474 23.8537 30.452 23.1365 30.2168 22.4246C30.043 21.8868 29.736 21.4017 29.3243 21.0145C28.8308 20.5682 28.2606 20.2732 27.618 20.0779C27.3974 19.9866 27.1705 19.9143 26.9376 19.8616ZM23.3361 27.0572C22.6274 27.241 21.906 27.3134 21.1773 27.3554C20.6796 27.3869 20.1756 27.3911 19.6716 27.3953L19.1676 27.4016C19.1046 27.4016 19.0721 27.4016 19.0542 27.3859C19.0353 27.3691 19.0332 27.3323 19.0311 27.2557L18.9933 25.2124L18.9545 23.168L18.9513 23.0347C18.945 22.7984 18.9387 22.5527 18.9471 22.3165C18.945 22.1852 18.9608 22.181 19.0574 22.1726L19.6034 22.1569C20.4644 22.1317 21.3222 22.1065 22.1822 22.181C22.7891 22.2377 23.3718 22.3322 23.9493 22.5275C24.2349 22.6168 24.5027 22.7606 24.7589 22.9244C25.958 23.6804 26.0105 25.5893 24.7988 26.4293C24.349 26.7182 23.8544 26.9304 23.3351 27.0572H23.3361ZM19.7157 15.0074C19.4637 15.0074 19.2096 15.0074 18.9524 15.0043C18.945 15.0389 18.9377 15.0736 18.9461 15.104C18.9734 16.3724 18.9881 17.6314 19.0028 18.8987L19.0112 19.6547C19.0143 19.7303 19.0154 19.7671 19.0343 19.7849C19.0521 19.8007 19.0847 19.8007 19.1477 19.7996H19.4144C20.1473 19.8017 20.8823 19.8028 21.6047 19.703C22.1906 19.6169 22.7681 19.4993 23.2941 19.2473C23.6742 19.0667 24.0081 18.8315 24.2433 18.4745C24.7872 17.6597 24.6192 16.5047 23.8601 15.8632C23.6012 15.6415 23.3006 15.4737 22.976 15.3697C22.5234 15.209 22.0593 15.1324 21.5847 15.0757C20.9579 15.0043 20.3405 15.0053 19.7157 15.0074Z" fill="url(#paint0_linear_4890_30058)"/>
<defs>
<linearGradient id="paint0_linear_4890_30058" x1="11.5499" y1="20.9999" x2="30.4501" y2="20.9999" gradientUnits="userSpaceOnUse">
<stop stop-color="#2DB9F9"/>
<stop offset="0.89" stop-color="#A35FF3"/>
</linearGradient>
</defs>
</svg>
