<svg width="42" height="42" viewBox="0 0 42 42" fill="none" xmlns="http://www.w3.org/2000/svg">
<circle cx="21" cy="21" r="20" fill="#F3F3F3"/>
<path d="M23.6719 16.5996L18.7173 19.4527C18.6544 19.4888 18.6024 19.541 18.5664 19.6038C18.5304 19.6667 18.5118 19.7381 18.5126 19.8105V22.2043C18.5119 22.275 18.5306 22.3446 18.5667 22.4055C18.6028 22.4664 18.6549 22.5162 18.7173 22.5496L20.7923 23.7465C20.8514 23.784 20.9199 23.8039 20.9899 23.8039C21.0599 23.8039 21.1285 23.784 21.1876 23.7465L29.7501 18.8152C31.2032 17.9746 31.2032 15.5527 29.7501 14.7121L22.0548 10.2808C21.7337 10.0869 21.3658 9.98438 20.9907 9.98438C20.6156 9.98437 20.2477 10.0869 19.9266 10.2808L12.2329 14.7136C11.9044 14.8972 11.6312 15.1655 11.4418 15.4906C11.2525 15.8158 11.1539 16.1858 11.1563 16.5621C11.1563 19.5308 11.1688 22.4855 11.1563 25.4402C11.1532 25.8159 11.2509 26.1855 11.4391 26.5105C11.6274 26.8356 11.8993 27.1043 12.2266 27.2886L19.9204 31.734C20.2435 31.922 20.6106 32.021 20.9844 32.021C21.3583 32.021 21.7254 31.922 22.0485 31.734L29.7501 27.2886C30.0766 27.1045 30.3473 26.8355 30.5335 26.5101C30.7198 26.1847 30.8145 25.8151 30.8079 25.4402V21.5808L21.6485 26.8808C21.448 26.9998 21.2192 27.0626 20.986 27.0626C20.7529 27.0626 20.524 26.9998 20.3235 26.8808L16.2329 24.5105C16.0296 24.3965 15.8608 24.2299 15.7442 24.028C15.6276 23.8262 15.5676 23.5967 15.5704 23.3636V18.6386C15.5694 18.4093 15.6287 18.1837 15.7426 17.9846C15.8564 17.7854 16.0207 17.6198 16.2188 17.5043C17.5829 16.7136 18.9579 15.9246 20.3219 15.134C20.5227 15.0158 20.7515 14.9535 20.9844 14.9535C21.2174 14.9535 21.4462 15.0158 21.6469 15.134L23.6782 16.2933C23.7044 16.3096 23.726 16.3325 23.7407 16.3597C23.7554 16.3868 23.7629 16.4173 23.7622 16.4482C23.7616 16.4791 23.7529 16.5093 23.7371 16.5359C23.7213 16.5624 23.6988 16.5844 23.6719 16.5996Z" fill="white"/>
<path d="M20.9988 6.83008C18.1965 6.83008 15.4571 7.66106 13.1271 9.21794C10.7971 10.7748 8.98102 12.9877 7.90862 15.5767C6.83622 18.1657 6.55563 21.0145 7.10233 23.763C7.64904 26.5115 8.99848 29.0361 10.98 31.0176C12.9616 32.9992 15.4862 34.3486 18.2346 34.8953C20.9831 35.442 23.832 35.1614 26.421 34.089C29.01 33.0166 31.2228 31.2006 32.7797 28.8706C34.3366 26.5405 35.1676 23.8011 35.1676 20.9988C35.1676 19.1382 34.8011 17.2957 34.0891 15.5767C33.377 13.8576 32.3333 12.2957 31.0177 10.98C29.702 9.66432 28.14 8.62066 26.421 7.90861C24.7019 7.19656 22.8595 6.83008 20.9988 6.83008ZM23.6707 16.2895L21.6395 15.1301C21.4387 15.0119 21.2099 14.9496 20.977 14.9496C20.744 14.9496 20.5152 15.0119 20.3145 15.1301C18.9504 15.9207 17.5754 16.7098 16.2113 17.5004C16.0132 17.6159 15.8489 17.7815 15.7351 17.9807C15.6213 18.1798 15.5619 18.4054 15.5629 18.6348V23.3598C15.5601 23.5928 15.6201 23.8223 15.7367 24.0242C15.8533 24.226 16.0221 24.3926 16.2254 24.5066L20.3145 26.877C20.515 26.9959 20.7438 27.0587 20.977 27.0587C21.2101 27.0587 21.4389 26.9959 21.6395 26.877L30.7988 21.577V25.4363C30.8063 25.8104 30.7127 26.1795 30.5279 26.5048C30.3431 26.8302 30.0739 27.0996 29.7488 27.2848L22.0551 31.7301C21.732 31.9181 21.3648 32.0171 20.991 32.0171C20.6172 32.0171 20.2501 31.9181 19.927 31.7301L12.2316 27.2848C11.9032 27.1013 11.63 26.8329 11.4406 26.5078C11.2512 26.1826 11.1526 25.8126 11.1551 25.4363C11.1676 22.4816 11.1551 19.5254 11.1551 16.5582C11.152 16.1826 11.2497 15.813 11.4379 15.4879C11.6261 15.1628 11.8981 14.8941 12.2254 14.7098L19.9191 10.277C20.2402 10.083 20.6081 9.98049 20.9832 9.98049C21.3583 9.98049 21.7262 10.083 22.0473 10.277L29.7488 14.7098C31.202 15.5504 31.202 17.9723 29.7488 18.8129L21.1863 23.7426C21.1272 23.7801 21.0587 23.8 20.9887 23.8C20.9187 23.8 20.8501 23.7801 20.791 23.7426L18.716 22.5457C18.6536 22.5123 18.6016 22.4625 18.5655 22.4016C18.5294 22.3407 18.5107 22.2712 18.5113 22.2004V19.8066C18.5106 19.7342 18.5292 19.6629 18.5651 19.6C18.6011 19.5371 18.6532 19.4849 18.716 19.4488L23.6707 16.5957C23.6973 16.5799 23.7193 16.5575 23.7345 16.5307C23.7498 16.5038 23.7578 16.4735 23.7578 16.4426C23.7578 16.4117 23.7498 16.3813 23.7345 16.3545C23.7193 16.3276 23.6973 16.3052 23.6707 16.2895Z" fill="white"/>
<path d="M21 1C17.0444 1 13.1776 2.17298 9.8886 4.37061C6.59962 6.56824 4.03617 9.69181 2.52242 13.3463C1.00867 17.0009 0.612599 21.0222 1.3843 24.9018C2.15601 28.7814 4.06082 32.3451 6.85787 35.1421C9.65492 37.9392 13.2186 39.844 17.0982 40.6157C20.9778 41.3874 24.9992 40.9913 28.6537 39.4776C32.3082 37.9638 35.4318 35.4004 37.6294 32.1114C39.827 28.8224 41 24.9556 41 21C41 15.6957 38.8929 10.6086 35.1421 6.85786C31.3914 3.10714 26.3043 1 21 1ZM23.6719 16.2906L21.6406 15.1313C21.4398 15.0131 21.2111 14.9508 20.9781 14.9508C20.7452 14.9508 20.5164 15.0131 20.3156 15.1313C18.9516 15.9219 17.5766 16.7109 16.2125 17.5016C16.0143 17.6171 15.8501 17.7827 15.7363 17.9818C15.6224 18.181 15.563 18.4066 15.5641 18.6359V23.3609C15.5613 23.594 15.6213 23.8235 15.7379 24.0253C15.8545 24.2271 16.0233 24.3938 16.2266 24.5078L20.3156 26.8781C20.5161 26.9971 20.745 27.0599 20.9781 27.0599C21.2113 27.0599 21.4401 26.9971 21.6406 26.8781L30.8 21.5781V25.4375C30.8074 25.8116 30.7138 26.1807 30.529 26.506C30.3442 26.8313 30.0751 27.1008 29.75 27.2859L22.0563 31.7312C21.7332 31.9193 21.366 32.0183 20.9922 32.0183C20.6184 32.0183 20.2512 31.9193 19.9281 31.7312L12.2328 27.2859C11.9043 27.1024 11.6311 26.8341 11.4418 26.5089C11.2524 26.1838 11.1538 25.8138 11.1563 25.4375C11.1688 22.4828 11.1563 19.5266 11.1563 16.5594C11.1532 16.1837 11.2508 15.8141 11.4391 15.489C11.6273 15.164 11.8992 14.8953 12.2266 14.7109L19.9203 10.2781C20.2414 10.0842 20.6093 9.98167 20.9844 9.98167C21.3595 9.98167 21.7274 10.0842 22.0484 10.2781L29.75 14.7109C31.2031 15.5516 31.2031 17.9734 29.75 18.8141L21.1875 23.7437C21.1284 23.7813 21.0599 23.8012 20.9899 23.8012C20.9198 23.8012 20.8513 23.7813 20.7922 23.7437L18.7172 22.5469C18.6548 22.5135 18.6027 22.4637 18.5667 22.4028C18.5306 22.3419 18.5118 22.2723 18.5125 22.2016V19.8078C18.5118 19.7354 18.5303 19.664 18.5663 19.6011C18.6023 19.5383 18.6544 19.4861 18.7172 19.45L23.6719 16.5969C23.6984 16.5811 23.7204 16.5587 23.7357 16.5318C23.751 16.505 23.759 16.4746 23.759 16.4437C23.759 16.4129 23.751 16.3825 23.7357 16.3557C23.7204 16.3288 23.6984 16.3064 23.6719 16.2906Z" fill="url(#paint0_linear_7674_311001)"/>
<defs>
<linearGradient id="paint0_linear_7674_311001" x1="-13.2531" y1="-20.1047" x2="54.5641" y2="61.2766" gradientUnits="userSpaceOnUse">
<stop stop-color="#273498"/>
<stop offset="0.53" stop-color="#0074C2"/>
<stop offset="1" stop-color="#00ABE7"/>
</linearGradient>
</defs>
</svg>
