<svg width="43" height="42" viewBox="0 0 43 42" fill="none" xmlns="http://www.w3.org/2000/svg">
<g clip-path="url(#clip0_4532_193577)">
<path d="M42.162 20.9989C42.162 9.40155 32.7604 0 21.163 0C9.56561 0 0.164062 9.40155 0.164062 20.9989C0.164062 32.5963 9.56561 41.9979 21.163 41.9979C32.7604 41.9979 42.162 32.5963 42.162 20.9989Z" fill="url(#paint0_linear_4532_193577)"/>
<path d="M21.163 41.9979C32.7604 41.9979 42.162 32.5963 42.162 20.9989C42.162 9.40155 32.7604 0 21.163 0C9.56561 0 0.164062 9.40155 0.164062 20.9989C0.164062 32.5963 9.56561 41.9979 21.163 41.9979Z" fill="#F3F3F3"/>
<path d="M23.969 16.3831L18.7669 19.3787C18.7009 19.4167 18.6463 19.4715 18.6085 19.5374C18.5707 19.6034 18.5511 19.6783 18.5519 19.7544V22.2678C18.5512 22.342 18.5708 22.4151 18.6087 22.479C18.6466 22.543 18.7013 22.5952 18.7669 22.6304L20.9455 23.887C21.0076 23.9264 21.0795 23.9473 21.153 23.9473C21.2265 23.9473 21.2985 23.9264 21.3605 23.887L30.3507 18.7094C31.8764 17.8268 31.8764 15.284 30.3507 14.4014L22.2711 9.74872C21.9339 9.54514 21.5477 9.4375 21.1538 9.4375C20.7599 9.43749 20.3738 9.54514 20.0366 9.74872L11.9586 14.4029C11.6137 14.5958 11.3268 14.8774 11.128 15.2188C10.9292 15.5602 10.8257 15.9486 10.8282 16.3438C10.8282 19.4608 10.8413 22.563 10.8282 25.6653C10.8249 26.0598 10.9275 26.4478 11.1251 26.7891C11.3228 27.1304 11.6083 27.4125 11.9519 27.6061L20.0301 32.2734C20.3693 32.4708 20.7547 32.5748 21.1471 32.5748C21.5397 32.5748 21.9252 32.4708 22.2645 32.2734L30.3507 27.6061C30.6935 27.4128 30.9777 27.1303 31.1732 26.7886C31.3689 26.447 31.4683 26.059 31.4614 25.6653V21.6131L21.8445 27.1779C21.634 27.3029 21.3938 27.3688 21.1489 27.3688C20.9041 27.3688 20.6638 27.3029 20.4533 27.1779L16.1584 24.6892C15.945 24.5695 15.7676 24.3946 15.6453 24.1826C15.5229 23.9707 15.4599 23.7297 15.4628 23.4849V18.5239C15.4617 18.2832 15.524 18.0464 15.6436 17.8373C15.7631 17.6282 15.9355 17.4543 16.1435 17.333C17.5759 16.5028 19.0195 15.6745 20.4516 14.8444C20.6624 14.7202 20.9026 14.6548 21.1471 14.6548C21.3918 14.6548 21.632 14.7202 21.8428 14.8444L23.9755 16.0616C24.003 16.0787 24.0258 16.1027 24.0412 16.1312C24.0566 16.1597 24.0645 16.1918 24.0637 16.2242C24.0631 16.2566 24.054 16.2884 24.0374 16.3162C24.0208 16.3441 23.9972 16.3672 23.969 16.3831Z" fill="white"/>
<path d="M21.1889 6.15625C18.2467 6.15625 15.3704 7.02874 12.924 8.66338C10.4777 10.298 8.57087 12.6215 7.44491 15.3398C6.31895 18.058 6.02434 21.0491 6.59835 23.935C7.17236 26.8207 8.58921 29.4714 10.6697 31.5519C12.7503 33.6324 15.401 35.0492 18.2866 35.6232C21.1725 36.1972 24.1636 35.9026 26.8819 34.7767C29.6002 33.6507 31.9235 31.7441 33.5583 29.2977C35.1929 26.8512 36.0654 23.9749 36.0654 21.0327C36.0654 19.0791 35.6806 17.1446 34.9331 15.3398C34.1854 13.5347 33.0895 11.8949 31.7083 10.5134C30.3268 9.13206 28.6869 8.03628 26.8819 7.28865C25.077 6.54104 23.1425 6.15625 21.1889 6.15625ZM23.9943 16.0881L21.8616 14.8708C21.6508 14.7468 21.4106 14.6813 21.1661 14.6813C20.9214 14.6813 20.6812 14.7468 20.4705 14.8708C19.0382 15.7009 17.5945 16.5294 16.1623 17.3595C15.9543 17.4807 15.7818 17.6547 15.6623 17.8639C15.5428 18.0728 15.4804 18.3098 15.4815 18.5506V23.5116C15.4786 23.7562 15.5416 23.9972 15.6639 24.2091C15.7864 24.421 15.9637 24.596 16.177 24.7157L20.4705 27.2044C20.681 27.3293 20.9212 27.3952 21.1661 27.3952C21.4108 27.3952 21.651 27.3293 21.8616 27.2044L31.4785 21.6398V25.6919C31.4863 26.0846 31.388 26.4721 31.194 26.8137C30.9999 27.1553 30.7173 27.4382 30.376 27.6326L22.298 32.3C21.9587 32.4974 21.5732 32.6013 21.1808 32.6013C20.7883 32.6013 20.4028 32.4974 20.0636 32.3L11.9838 27.6326C11.639 27.44 11.3522 27.1581 11.1533 26.8169C10.9544 26.4754 10.8509 26.0869 10.8535 25.6919C10.8667 22.5896 10.8535 19.4857 10.8535 16.3703C10.8503 15.9759 10.9529 15.5878 11.1505 15.2465C11.3481 14.9052 11.6337 14.623 11.9773 14.4296L20.0553 9.77534C20.3924 9.57166 20.7787 9.46402 21.1726 9.46402C21.5663 9.46402 21.9526 9.57166 22.2898 9.77534L30.376 14.4296C31.9017 15.3121 31.9017 17.855 30.376 18.7376L21.3857 23.9135C21.3237 23.9529 21.2518 23.9738 21.1783 23.9738C21.1048 23.9738 21.0328 23.9529 20.9708 23.9135L18.7921 22.6568C18.7266 22.6218 18.672 22.5695 18.634 22.5056C18.5961 22.4416 18.5765 22.3686 18.5772 22.2943V19.7809C18.5764 19.7049 18.596 19.6301 18.6337 19.5639C18.6715 19.4979 18.7262 19.4432 18.7921 19.4053L23.9943 16.4096C24.0222 16.3931 24.0453 16.3695 24.0613 16.3414C24.0774 16.3131 24.0858 16.2813 24.0858 16.2489C24.0858 16.2164 24.0774 16.1846 24.0613 16.1563C24.0453 16.1281 24.0222 16.1047 23.9943 16.0881Z" fill="white"/>
<path d="M21.163 0C17.0098 0 12.9499 1.23157 9.49663 3.53897C6.04337 5.84636 3.35189 9.12595 1.76252 12.9629C0.173166 16.8001 -0.242689 21.0223 0.567558 25.0956C1.37782 29.169 3.37776 32.9107 6.31452 35.8475C9.25128 38.7842 12.993 40.7842 17.0664 41.5944C21.1397 42.4046 25.362 41.9888 29.199 40.3995C33.0361 38.8101 36.3157 36.1186 38.623 32.6654C40.9304 29.212 42.162 25.1522 42.162 20.9989C42.162 15.4297 39.9496 10.0885 36.0115 6.15044C32.0734 2.21239 26.7322 0 21.163 0ZM23.9684 16.0544L21.8356 14.8371C21.6248 14.7131 21.3847 14.6476 21.14 14.6476C20.8955 14.6476 20.6553 14.7131 20.4445 14.8371C19.0123 15.6672 17.5686 16.4956 16.1364 17.3258C15.9283 17.447 15.7559 17.621 15.6364 17.83C15.5168 18.0391 15.4544 18.2761 15.4556 18.5167V23.4778C15.4526 23.7225 15.5156 23.9634 15.638 24.1753C15.7605 24.3872 15.9377 24.5623 16.1512 24.682L20.4445 27.1706C20.6549 27.2956 20.8953 27.3615 21.14 27.3615C21.3849 27.3615 21.6251 27.2956 21.8356 27.1706L31.4525 21.606V25.6581C31.4602 26.0508 31.362 26.4384 31.168 26.78C30.974 27.1215 30.6914 27.4044 30.35 27.5988L22.272 32.2661C21.9328 32.4637 21.5473 32.5676 21.1548 32.5676C20.7624 32.5676 20.3768 32.4637 20.0375 32.2661L11.9579 27.5988C11.613 27.4062 11.3262 27.1244 11.1274 26.783C10.9285 26.4417 10.825 26.0532 10.8276 25.6581C10.8408 22.5559 10.8276 19.4519 10.8276 16.3366C10.8244 15.942 10.9269 15.554 11.1246 15.2126C11.3222 14.8715 11.6077 14.5893 11.9514 14.3957L20.0294 9.74151C20.3665 9.53793 20.7528 9.43028 21.1467 9.43028C21.5404 9.43028 21.9267 9.53793 22.2638 9.74151L30.35 14.3957C31.8757 15.2784 31.8757 17.8212 30.35 18.7039L21.3598 23.8797C21.2979 23.9191 21.2259 23.9401 21.1524 23.9401C21.0788 23.9401 21.0069 23.9191 20.9448 23.8797L18.7662 22.6231C18.7006 22.5881 18.6459 22.5358 18.6081 22.4719C18.5703 22.4078 18.5505 22.3348 18.5513 22.2606V19.7472C18.5505 19.6712 18.57 19.5963 18.6078 19.5302C18.6456 19.4642 18.7003 19.4095 18.7662 19.3716L23.9684 16.3759C23.9961 16.3593 24.0192 16.3358 24.0353 16.3075C24.0514 16.2794 24.0598 16.2475 24.0598 16.215C24.0598 16.1827 24.0514 16.1509 24.0353 16.1226C24.0192 16.0944 23.9961 16.0709 23.9684 16.0544Z" fill="url(#paint1_linear_4532_193577)"/>
</g>
<defs>
<linearGradient id="paint0_linear_4532_193577" x1="21.163" y1="0" x2="21.163" y2="41.9979" gradientUnits="userSpaceOnUse">
<stop stop-color="#404141"/>
<stop offset="1" stop-color="#222222"/>
</linearGradient>
<linearGradient id="paint1_linear_4532_193577" x1="-14.8009" y1="-22.1589" x2="56.4036" y2="63.2872" gradientUnits="userSpaceOnUse">
<stop stop-color="#273498"/>
<stop offset="0.53" stop-color="#0074C2"/>
<stop offset="1" stop-color="#00ABE7"/>
</linearGradient>
<clipPath id="clip0_4532_193577">
<rect width="42" height="42" fill="white" transform="translate(0.164062)"/>
</clipPath>
</defs>
</svg>
