<svg width="42" height="42" viewBox="0 0 42 42" fill="none" xmlns="http://www.w3.org/2000/svg">
<rect x="0.5" y="0.5" width="41" height="41" rx="20.5" fill="url(#paint0_radial_5180_28576)"/>
<rect x="0.5" y="0.5" width="41" height="41" rx="20.5" stroke="#1A1071"/>
<circle cx="21" cy="21" r="9.7125" stroke="#CACEEC" stroke-width="0.2625"/>
<circle cx="21" cy="21" r="10.3687" stroke="#CACEEC" stroke-width="0.2625"/>
<circle opacity="0.9" cx="21" cy="21" r="11.025" stroke="#CACEEC" stroke-width="0.2625"/>
<circle opacity="0.8" cx="21" cy="21" r="11.6812" stroke="#CACEEC" stroke-width="0.2625"/>
<circle opacity="0.7" cx="21" cy="21" r="12.3375" stroke="#CACEEC" stroke-width="0.2625"/>
<circle opacity="0.6" cx="21" cy="21" r="12.9937" stroke="#CACEEC" stroke-width="0.2625"/>
<circle opacity="0.5" cx="21" cy="21" r="13.65" stroke="#CACEEC" stroke-width="0.2625"/>
<circle opacity="0.4" cx="21" cy="21" r="14.3062" stroke="#CACEEC" stroke-width="0.2625"/>
<circle opacity="0.25" cx="21" cy="21" r="14.9625" stroke="#CACEEC" stroke-width="0.2625"/>
<circle opacity="0.1" cx="21" cy="21" r="15.6187" stroke="#CACEEC" stroke-width="0.2625"/>
<circle cx="21" cy="21" r="16.4062" stroke="#FCCD59" stroke-width="0.984375"/>
<path d="M12.3285 21.1724C12.3125 21.1989 12.3046 21.2285 12.3047 21.258C12.3046 21.2678 12.3055 21.2778 12.3073 21.2876C12.3157 21.3348 12.3444 21.376 12.3858 21.4003L20.9145 26.4023C20.9658 26.4323 21.0293 26.4323 21.0805 26.4023L29.6108 21.4003C29.6522 21.376 29.6809 21.3348 29.6893 21.2876C29.6911 21.2778 29.6919 21.2678 29.6919 21.258C29.6919 21.2285 29.6841 21.1989 29.668 21.1724L21.1376 7.13356C21.1079 7.08458 21.0547 7.05468 20.9974 7.05469C20.9401 7.05469 20.887 7.08459 20.8572 7.13357L12.3285 21.1724ZM20.864 34.5458C20.8948 34.5888 20.9445 34.6144 20.9974 34.6144C21.0503 34.6144 21.1 34.5889 21.1308 34.5458L29.666 22.6232C29.711 22.5602 29.7059 22.4743 29.6537 22.4171C29.6015 22.3599 29.5165 22.3469 29.4496 22.3861L20.9975 27.3364L12.5517 22.3861C12.4849 22.347 12.3998 22.3598 12.3476 22.417C12.2954 22.4742 12.2903 22.5601 12.3353 22.6231L20.864 34.5458Z" fill="#050067" stroke="#050067" stroke-width="0.328125" stroke-linejoin="round"/>
<path d="M20.9975 7.21875L12.4688 21.2578L20.9975 17.4126V7.21875Z" fill="#FDBC01" stroke="#050067" stroke-width="0.13125" stroke-linejoin="round"/>
<path d="M20.9975 17.4136L12.4688 21.2588L20.9975 26.2609V17.4136Z" fill="#E09D00" stroke="#050067" stroke-width="0.13125" stroke-linejoin="round"/>
<path d="M29.5278 21.2578L20.9974 7.21875V17.4126L29.5278 21.2578Z" fill="#E09D00" stroke="#050067" stroke-width="0.13125" stroke-linejoin="round"/>
<path d="M20.9974 26.2609L29.5278 21.2588L20.9974 17.4136V26.2609Z" fill="#C48000" stroke="#050067" stroke-width="0.13125" stroke-linejoin="round"/>
<path d="M12.4688 22.5278L20.9975 34.4507V27.5268L12.4688 22.5278Z" fill="#FDBC01" stroke="#050067" stroke-width="0.13125" stroke-linejoin="round"/>
<path d="M20.9974 27.5268V34.4507L29.5326 22.5278L20.9974 27.5268Z" fill="#E09D00" stroke="#050067" stroke-width="0.13125" stroke-linejoin="round"/>
<defs>
<radialGradient id="paint0_radial_5180_28576" cx="0" cy="0" r="1" gradientUnits="userSpaceOnUse" gradientTransform="translate(21 21) rotate(90) scale(21)">
<stop offset="0.24" stop-color="#B2B3DF"/>
<stop offset="0.775" stop-color="white"/>
<stop offset="0.935" stop-color="#C1C2E8"/>
</radialGradient>
</defs>
</svg>
