<svg width="42" height="42" viewBox="0 0 42 42" fill="none" xmlns="http://www.w3.org/2000/svg">
<rect width="42" height="42" rx="21" fill="white"/>
<path d="M16.3858 27.1605H19.4784V21.0082C19.5194 21.0082 19.5358 21 19.5604 21H22.4725C22.5025 21 22.5325 21.0064 22.5624 21.0077C22.5617 20.9532 22.5545 20.8991 22.5545 20.8523V11.755H19.6014V8.68706H25.6307V14.8312C25.6717 14.8312 25.7045 14.8394 25.7292 14.8394H28.6413C28.6659 14.8312 28.6905 14.8312 28.7151 14.823V8.67886H31.7831V14.823C31.7502 14.823 31.7256 14.8312 31.6928 14.8312H28.7807C28.7643 14.8312 28.7397 14.823 28.7151 14.8312V20.9261C28.7151 20.9425 28.7151 20.9671 28.7069 20.9917C28.6577 20.9917 28.6084 21 28.551 21H22.7022C22.6557 21 22.6092 21.0073 22.5696 21.0151C22.5618 21.0547 22.5545 21.1007 22.5545 21.1394V27.1687H28.6905V33.321H10.3893C10.3319 33.3292 10.2745 33.3292 10.217 33.3292V8.67065H16.3858V27.1605Z" fill="#1F0472"/>
</svg>
