<svg xmlns="http://www.w3.org/2000/svg" width="42" height="42" fill="none"><path fill="#F3F3F3" d="M21 41c11.046 0 20-8.954 20-20S32.046 1 21 1 1 9.954 1 21s8.954 20 20 20Z"/><path fill="#030303" fill-rule="evenodd" d="M28.21 13.77c-.093-.094-.15-.188-.15-.32 0-.13.057-.224.15-.318a.54.54 0 0 1 .696 0c.094.094.15.187.15.319 0 .131-.056.225-.15.32a.585.585 0 0 1-.338.13.379.379 0 0 1-.357-.13Zm-1.2 1.296a.49.49 0 0 1-.132-.32.49.49 0 0 1 .131-.319.465.465 0 0 1 .639 0 .49.49 0 0 1 .131.32.49.49 0 0 1-.131.319.49.49 0 0 1-.32.131.49.49 0 0 1-.319-.131Zm-1.316 1.239a.453.453 0 0 1-.131-.319.49.49 0 0 1 .131-.32.465.465 0 0 1 .639 0 .453.453 0 0 1 .131.32.49.49 0 0 1-.131.32.412.412 0 0 1-.32.13.453.453 0 0 1-.319-.13Zm-1.258 1.258a.401.401 0 0 1-.15-.32c0-.13.056-.224.15-.318a.54.54 0 0 1 .695 0 .4.4 0 0 1 .15.319.401.401 0 0 1-.15.32.482.482 0 0 1-.338.13c-.131 0-.244-.018-.357-.13Zm-1.201 1.257c-.094-.074-.132-.187-.132-.318a.49.49 0 0 1 .131-.32.465.465 0 0 1 .639 0c.094.076.131.188.131.32a.453.453 0 0 1-.131.319c-.075.094-.188.131-.32.131a.318.318 0 0 1-.319-.131Zm-1.446.94a.49.49 0 0 1 .131-.319.465.465 0 0 1 .638 0 .412.412 0 0 1 .132.32.49.49 0 0 1-.132.319.453.453 0 0 1-.319.131.49.49 0 0 1-.319-.131c-.094-.075-.131-.188-.131-.32Zm-2.348 2.78a.453.453 0 0 1-.131-.32.49.49 0 0 1 .131-.319.465.465 0 0 1 .639 0 .412.412 0 0 1 .131.32.49.49 0 0 1-.131.319c-.076.094-.188.131-.32.131-.112.019-.225-.019-.319-.131Zm-1.296 1.257a.401.401 0 0 1-.15-.319c0-.131.056-.225.15-.319a.54.54 0 0 1 .695 0c.094.094.15.188.15.32 0 .13-.056.225-.15.319a.482.482 0 0 1-.338.13.408.408 0 0 1-.357-.13Zm-1.22 1.278a.453.453 0 0 1 0-.639.465.465 0 0 1 .638 0 .453.453 0 0 1 .132.32.49.49 0 0 1-.132.319.412.412 0 0 1-.319.131c-.131 0-.206-.056-.32-.131Zm-1.258 1.258c-.094-.075-.132-.188-.132-.32a.49.49 0 0 1 .132-.319.465.465 0 0 1 .638 0 .49.49 0 0 1 .132.32.453.453 0 0 1-.132.319.412.412 0 0 1-.32.131c-.112 0-.243-.037-.318-.131Zm-1.297 1.258a.401.401 0 0 1-.15-.319c0-.131.057-.225.15-.32.189-.168.49-.168.658 0 .094.095.15.189.15.32a.401.401 0 0 1-.15.32.585.585 0 0 1-.338.13c-.131 0-.244-.037-.32-.13Zm-1.238 1.259a.412.412 0 0 1-.132-.32.49.49 0 0 1 .132-.32.465.465 0 0 1 .638 0 .412.412 0 0 1 .131.32.49.49 0 0 1-.131.32.453.453 0 0 1-.32.13c-.093.02-.206-.037-.318-.13Zm.638-15.08a.49.49 0 0 0 .131-.32.49.49 0 0 0-.131-.318.465.465 0 0 0-.638 0 .412.412 0 0 0-.132.319.49.49 0 0 0 .132.32.453.453 0 0 0 .319.13c.131.02.244-.018.319-.13Zm1.258 1.296c.094-.094.15-.188.15-.32 0-.13-.056-.225-.15-.319a.54.54 0 0 0-.695 0c-.094.094-.15.188-.15.32 0 .131.056.225.15.319a.585.585 0 0 0 .338.131.744.744 0 0 0 .357-.131Zm1.277 1.239a.453.453 0 0 0 .132-.319.49.49 0 0 0-.132-.32.465.465 0 0 0-.638 0 .453.453 0 0 0-.132.32.49.49 0 0 0 .132.32.412.412 0 0 0 .319.13.533.533 0 0 0 .32-.13Zm1.258 1.258a.453.453 0 0 0 .132-.32.49.49 0 0 0-.132-.318.465.465 0 0 0-.638 0 .453.453 0 0 0 0 .638.412.412 0 0 0 .32.132c.112 0 .224-.02.318-.132Zm1.24 1.257a.401.401 0 0 0 .15-.318c0-.132-.056-.226-.15-.32a.49.49 0 0 0-.658 0 .401.401 0 0 0-.15.32.4.4 0 0 0 .15.319.482.482 0 0 0 .338.131.318.318 0 0 0 .32-.131Zm1.408.94a.49.49 0 0 0-.131-.319.465.465 0 0 0-.639 0 .412.412 0 0 0-.131.32.49.49 0 0 0 .131.319.453.453 0 0 0 .32.131.49.49 0 0 0 .319-.131c.093-.075.131-.188.131-.32Zm1.127 1.597a.412.412 0 0 0 .131-.32.49.49 0 0 0-.131-.318.465.465 0 0 0-.639 0 .412.412 0 0 0-.131.319.49.49 0 0 0 .131.319.453.453 0 0 0 .639 0Zm1.258 1.183a.401.401 0 0 0 .15-.32c0-.131-.056-.225-.15-.319-.188-.169-.488-.169-.657 0-.094.094-.15.188-.15.32 0 .13.056.225.15.319a.482.482 0 0 0 .338.131.346.346 0 0 0 .32-.131Zm1.277 1.257a.453.453 0 0 0 .131-.319.49.49 0 0 0-.131-.319.465.465 0 0 0-.639 0 .49.49 0 0 0-.131.32.49.49 0 0 0 .131.319.412.412 0 0 0 .32.13c.094.02.225-.037.319-.13Zm1.258 1.278a.453.453 0 0 0 0-.639.465.465 0 0 0-.638 0 .453.453 0 0 0-.132.32.49.49 0 0 0 .132.319.412.412 0 0 0 .319.131.49.49 0 0 0 .32-.131Zm1.183 1.258c.094-.075.132-.188.132-.32a.49.49 0 0 0-.132-.319.465.465 0 0 0-.638 0 .49.49 0 0 0-.132.32c0 .13.057.244.132.319a.412.412 0 0 0 .32.131c.112 0 .243-.037.318-.131Zm1.334 1.258c.094-.075.131-.187.131-.319a.49.49 0 0 0-.131-.32.465.465 0 0 0-.639 0 .412.412 0 0 0-.131.32c0 .132.056.244.131.32a.453.453 0 0 0 .32.13c.131 0 .244-.037.319-.13Zm1.258 1.259c.094-.095.15-.189.15-.32 0-.132-.056-.225-.15-.32-.188-.168-.489-.168-.658 0-.094.095-.15.188-.15.32 0 .131.056.225.15.32a.585.585 0 0 0 .338.13c.094.02.207-.037.32-.13Zm-12.15-14.723c1.277-.845 2.685-1.24 4.244-1.259 1.52 0 2.93.414 4.244 1.259l2.704-2.705C25.826 9.807 23.535 9 21 9s-4.864.807-6.93 2.422l2.686 2.705Zm-2.704 11.098c-.864-1.314-1.277-2.704-1.277-4.206 0-1.521.413-2.93 1.277-4.207l-2.686-2.685C9.79 16.193 9 18.484 9 21.037c0 2.517.789 4.827 2.385 6.93l2.667-2.742Zm11.173 2.685c-1.277.864-2.685 1.315-4.206 1.334-1.559 0-2.986-.414-4.263-1.315l-2.704 2.685c2.084 1.634 4.413 2.442 6.967 2.423 2.535-.019 4.826-.845 6.892-2.423l-2.686-2.704Zm2.648-11.135c.864 1.315 1.315 2.742 1.277 4.282-.019 1.502-.45 2.873-1.277 4.131l2.704 2.685C32.173 25.808 33 23.517 33 21c.019-2.554-.789-4.882-2.423-6.967l-2.704 2.742Zm2.817 11.981c1.033 0 1.897.845 1.897 1.896a1.903 1.903 0 0 1-1.897 1.897 1.903 1.903 0 0 1-1.896-1.896c0-1.052.845-1.897 1.896-1.897Zm-19.343 0c1.033 0 1.878.845 1.878 1.896 0 1.033-.845 1.897-1.878 1.897a1.887 1.887 0 0 1-1.878-1.896c0-1.052.845-1.897 1.878-1.897Zm19.38-19.343c1.033 0 1.878.845 1.878 1.897a1.887 1.887 0 0 1-1.877 1.896 1.888 1.888 0 0 1-1.878-1.896c0-1.052.845-1.897 1.877-1.897Zm-19.417 0c1.033 0 1.896.845 1.896 1.878a1.888 1.888 0 0 1-1.896 1.878c-1.033 0-1.897-.845-1.897-1.878s.845-1.878 1.897-1.878Z" clip-rule="evenodd"/></svg>