<svg xmlns="http://www.w3.org/2000/svg" width="42" height="42" fill="none"><rect width="42" height="42" fill="url(#a)" rx="21"/><path fill="#F3F3F3" d="M10.266 17.958c.318.676 1.113 2.027 1.113 2.027L20.48 4.922l-8.863 6.2a4.271 4.271 0 0 0-1.272 1.391c-.834 1.71-.834 3.697-.08 5.445ZM6.686 22.879a10.149 10.149 0 0 0 3.974 7.353l9.817 6.836s-6.16-8.863-11.327-17.687a8.786 8.786 0 0 1-1.033-3.02 4.322 4.322 0 0 1 0-1.431c-.12.238-.398.755-.398.755a12.68 12.68 0 0 0-1.073 3.418 17.11 17.11 0 0 0 .04 3.776ZM31.726 24.084c-.318-.676-1.113-2.027-1.113-2.027L21.511 37.08l8.903-6.161a4.27 4.27 0 0 0 1.272-1.391 6.514 6.514 0 0 0 .04-5.445ZM35.344 19.111a10.149 10.149 0 0 0-3.975-7.353l-9.817-6.836s6.16 8.863 11.328 17.687a8.786 8.786 0 0 1 1.033 3.02c.08.477.08.954 0 1.431.12-.238.398-.755.398-.755a12.863 12.863 0 0 0 1.073-3.378c.08-1.312.08-2.544-.04-3.816Z"/><path fill="#F3F3F3" d="M10.342 12.513c.318-.556.716-1.033 1.272-1.39l8.863-6.201-9.101 15.024s-.795-1.352-1.113-2.027c-.755-1.71-.755-3.697.08-5.406ZM6.686 22.887a10.149 10.149 0 0 0 3.974 7.353l9.817 6.836S14.317 28.213 9.15 19.39a8.787 8.787 0 0 1-1.033-3.02 4.322 4.322 0 0 1 0-1.431c-.12.238-.398.755-.398.755a12.682 12.682 0 0 0-1.073 3.418 17.11 17.11 0 0 0 .04 3.776Zm25.04 1.192c-.319-.675-1.113-2.027-1.113-2.027L21.51 37.076l8.903-6.16a4.271 4.271 0 0 0 1.272-1.392 6.514 6.514 0 0 0 .04-5.445Zm3.577-4.928a10.148 10.148 0 0 0-3.975-7.353l-9.777-6.876s6.16 8.863 11.327 17.687a8.786 8.786 0 0 1 1.033 3.02c.08.477.08.954 0 1.431.12-.238.398-.755.398-.755a12.863 12.863 0 0 0 1.073-3.378c.08-1.312.08-2.544-.08-3.776Z"/><defs><linearGradient id="a" x1="21" x2="21" y1="0" y2="42" gradientUnits="userSpaceOnUse"><stop stop-color="#7B99FA"/><stop offset="1" stop-color="#51B4F2"/></linearGradient></defs></svg>