<svg width="42" height="42" viewBox="0 0 42 42" fill="none" xmlns="http://www.w3.org/2000/svg">
<rect x="0.655" y="0.655" width="40.69" height="40.69" rx="20.345" fill="#222222"/>
<rect x="0.655" y="0.655" width="40.69" height="40.69" rx="20.345" stroke="#404141" stroke-width="1.31"/>
<path d="M35.5777 14.9915C33.956 13.4038 31.7767 12.5146 29.5072 12.5146C27.2376 12.5146 25.0584 13.4038 23.4366 14.9915L22.1496 16.2754L23.3458 17.4684L24.6338 16.1845C25.9341 14.9056 27.6849 14.1889 29.5087 14.1889C31.3325 14.1889 33.0833 14.9056 34.3836 16.1845C35.0221 16.8247 35.5282 17.5844 35.8731 18.4202C36.218 19.256 36.3949 20.1515 36.3937 21.0557C36.3926 21.9598 36.2133 22.8549 35.8662 23.6898C35.5191 24.5246 35.0109 25.283 34.3707 25.9215C33.7305 26.56 32.9709 27.0661 32.1351 27.411C31.2993 27.7559 30.4037 27.9328 29.4996 27.9316C27.6736 27.9292 25.9233 27.2015 24.6338 25.9086L23.3458 24.6247L22.1496 25.8167L23.4376 27.1006C25.0594 28.6883 27.2386 29.5775 29.5082 29.5775C31.7778 29.5775 33.957 28.6883 35.5787 27.1006C36.378 26.3097 37.0098 25.366 37.4364 24.3257C37.863 23.2854 38.0757 22.1698 38.0619 21.0455C38.0755 19.9213 37.8625 18.8059 37.4357 17.7658C37.0089 16.7257 36.377 15.7821 35.5777 14.9915Z" fill="#22ACE6"/>
<path d="M27.02 18.5677C27.5089 18.0835 28.1302 17.7548 28.8055 17.6229C29.4809 17.4911 30.1801 17.5621 30.8152 17.8269C31.4503 18.0918 31.9928 18.5387 32.3745 19.1112C32.7561 19.6838 32.9597 20.3566 32.9597 21.0447C32.9597 21.7328 32.7561 22.4055 32.3745 22.9781C31.9928 23.5507 31.4503 23.9975 30.8152 24.2624C30.1801 24.5272 29.4809 24.5982 28.8055 24.4664C28.1302 24.3345 27.5089 24.0058 27.02 23.5216L25.732 22.2377L24.5359 23.4308L25.8239 24.7146C26.552 25.454 27.4837 25.9599 28.5002 26.1682C29.5168 26.3764 30.5723 26.2776 31.5325 25.8841C32.4927 25.4907 33.3141 24.8205 33.8923 23.9588C34.4704 23.0971 34.7792 22.0828 34.7792 21.0452C34.7792 20.0075 34.4704 18.9933 33.8923 18.1316C33.3141 17.2699 32.4927 16.5997 31.5325 16.2062C30.5723 15.8128 29.5168 15.7139 28.5002 15.9221C27.4837 16.1304 26.552 16.6364 25.8239 17.3757L25.2717 17.9258L22.2365 21.0447L18.649 24.6228L18.2816 24.9902L17.5458 25.724L17.3621 25.9077C16.0618 27.1866 14.311 27.9034 12.4872 27.9034C10.6633 27.9034 8.91253 27.1866 7.61225 25.9077C6.971 25.2708 6.46209 24.5133 6.1148 23.6788C5.76752 22.8444 5.58873 21.9495 5.58873 21.0457C5.58873 20.1419 5.76752 19.247 6.1148 18.4125C6.46209 17.5781 6.971 16.8206 7.61225 16.1837C8.22992 15.5375 8.9736 15.025 9.79729 14.6778C10.621 14.3305 11.5071 14.156 12.401 14.165C14.229 14.1656 15.9821 14.8917 17.2754 16.1837L19.7585 18.6606L15.0678 23.3389L14.8841 23.5226C14.2194 24.1695 13.3285 24.5313 12.401 24.5309C11.819 24.532 11.2479 24.3735 10.7497 24.0727L16.8182 18.0176L16.0823 17.3757C15.8877 17.17 15.6719 16.9856 15.4383 16.8256C14.5561 16.1803 13.494 15.8273 12.401 15.8163C11.7147 15.8184 11.0357 15.9574 10.4037 16.2252C9.77177 16.4929 9.1996 16.8841 8.72068 17.3757C8.22636 17.8505 7.83307 18.4203 7.56442 19.0508C7.29576 19.6814 7.15728 20.3598 7.15728 21.0452C7.15728 21.7306 7.29576 22.4089 7.56442 23.0395C7.83307 23.6701 8.22636 24.2398 8.72068 24.7146C9.19801 25.2081 9.76972 25.6005 10.4018 25.8685C11.0339 26.1365 11.7134 26.2746 12.4 26.2746C13.0865 26.2746 13.766 26.1365 14.3981 25.8685C15.0302 25.6005 15.6019 25.2081 16.0792 24.7146L22.2416 18.5677L18.5624 14.8988C16.9406 13.311 14.7614 12.4219 12.4918 12.4219C10.2222 12.4219 8.043 13.311 6.42126 14.8988C5.62201 15.6896 4.99024 16.6333 4.56362 17.6736C4.137 18.714 3.92427 19.8295 3.93814 20.9538C3.95273 23.2171 4.84257 25.387 6.42126 27.0089C8.043 28.5966 10.2222 29.4858 12.4918 29.4858C14.7614 29.4858 16.9406 28.5966 18.5624 27.0089L19.8504 25.725L27.02 18.5677ZM8.90438 21.0457C8.89953 20.5856 8.98673 20.1293 9.16086 19.7034C9.33499 19.2776 9.59253 18.8909 9.91833 18.566C10.2441 18.2412 10.6316 17.9848 11.058 17.8119C11.4843 17.639 11.941 17.5532 12.401 17.5594C13.0548 17.5578 13.6946 17.7491 14.2401 18.1095L9.45653 22.8796C9.09537 22.3363 8.90324 21.6981 8.90438 21.0457Z" fill="#22ACE6"/>
</svg>
