<svg width="42" height="42" viewBox="0 0 42 42" fill="none" xmlns="http://www.w3.org/2000/svg">
<path fill-rule="evenodd" clip-rule="evenodd" d="M21 42C32.598 42 42 32.598 42 21C42 9.40202 32.598 0 21 0C9.40202 0 0 9.40202 0 21C0 32.598 9.40202 42 21 42ZM30.0075 5L26.7566 8.2345C29.8458 9.62976 32.3379 12.1133 33.7442 15.1964L37 11.9571L30.0075 5ZM8.20444 15.3104C9.58392 12.2126 12.0553 9.70837 15.1297 8.28644L11.9925 5.1651L5 12.1222L8.20444 15.3104ZM8.20541 26.6918C9.58542 29.7892 12.0572 32.2931 15.1318 33.7145L11.9956 36.8349L5.00311 29.8778L8.20541 26.6918ZM26.7545 33.7665C29.8439 32.3718 32.3364 29.8885 33.7432 26.8057L36.9969 30.0429L30.0044 37L26.7545 33.7665Z" fill="#F3F3F3"/>
<g style="mix-blend-mode:multiply" opacity="0.5">
<path d="M21 42C32.598 42 42 32.598 42 21C42 9.40202 32.598 0 21 0C9.40202 0 0 9.40202 0 21C0 32.598 9.40202 42 21 42Z" fill="url(#paint0_linear_18132_292706)"/>
</g>
<path d="M21.4477 17.7598L15 20.6932L21.4477 24.504L27.8928 20.6932L21.4477 17.7598Z" fill="#404141"/>
<path d="M27.8826 20.6932L21.4375 24.504V17.7598L27.8826 20.6932Z" fill="#121313"/>
<path d="M15 20.702L21.4477 17.7598V10L15 20.702Z" fill="#878888"/>
<path d="M21.4375 10V17.7594L27.8826 20.702L21.4375 10Z" fill="#404141"/>
<path d="M15 21.9121L21.4477 30.999V25.7228L15 21.9121Z" fill="#6C6D6D"/>
<path d="M21.4609 25.7228V30.999L27.9111 21.9121L21.4609 25.7228Z" fill="#222222"/>
<defs>
<linearGradient id="paint0_linear_18132_292706" x1="21" y1="15.1148" x2="21" y2="44.4825" gradientUnits="userSpaceOnUse">
<stop stop-color="white"/>
<stop offset="1" stop-color="#7D7D7D"/>
</linearGradient>
</defs>
</svg>
