<svg xmlns="http://www.w3.org/2000/svg" fill="none" class="et-hx_svg__light" viewBox="0 0 20 20">
    <path fill="#060710" fill-rule="evenodd" d="M20 10C20 15.5228 15.5228 20 10 20C4.47715 20 0 15.5228 0 10C0 4.47715 4.47715 0 10 0C15.5228 0 20 4.47715 20 10ZM14.2851 17.8206L17.8206 14.2851L16.1391 12.6036C15.4647 14.1919 14.1919 15.4647 12.6036 16.1391L14.2851 17.8206ZM7.86079 16.316C6.21102 15.7575 4.85096 14.5706 4.0654 13.0404L2.7022 14.4036L6.23773 17.9391L7.86079 16.316ZM3.86088 7.39642C4.53532 5.80812 5.80812 4.53532 7.39642 3.86088L6.03553 2.5L2.5 6.03553L3.86088 7.39642ZM13.0404 4.0654L14.4873 2.61845L18.0228 6.15398L16.316 7.86079C15.7575 6.21102 14.5706 4.85096 13.0404 4.0654Z" clip-rule="evenodd"/>
    <g clip-path="url(#et-hx_svg__clip0_4945_226466)">
        <path fill="#B7B7B7" d="M10.0007 5L9.93359 5.22789V11.84L10.0007 11.907L13.0699 10.0927L10.0007 5Z"/>
        <path fill="white" d="M10.0009 5L6.93164 10.0927L10.0009 11.907V8.69762V5Z"/>
        <path fill="#939090" d="M10.0027 12.4879L9.96484 12.534V14.8893L10.0027 14.9997L13.0738 10.6746L10.0027 12.4879Z"/>
        <path fill="white" d="M10.0009 14.9997V12.4879L6.93164 10.6746L10.0009 14.9997Z"/>
        <path fill="#939090" d="M10.002 11.9069L13.0712 10.0926L10.002 8.69751V11.9069Z"/>
        <path fill="#B1B1B1" d="M6.93164 10.0926L10.0009 11.9069V8.69751L6.93164 10.0926Z"/>
    </g>
    <defs>
        <clipPath id="et-hx_svg__clip0_4945_226466">
            <rect width="10" height="10" fill="white" transform="translate(5 5)"/>
        </clipPath>
    </defs>
</svg>
