<svg xmlns="http://www.w3.org/2000/svg" width="42" height="42" fill="none"><path fill="#17DE8D" d="M21 41c11.046 0 20-8.954 20-20S32.046 1 21 1 1 9.954 1 21s8.954 20 20 20Z"/><path fill="#F3F3F3" d="M12.5 22.552 20.997 35.7v-7.635L12.5 22.552ZM12.5 19.448 20.997 6.3v7.635L12.5 19.448Z"/><path fill="#F3F3F3" d="M20.997 28.065V35.7l8.504-13.148-8.504 5.513ZM20.997 13.935V6.3l8.504 13.148-8.504-5.513Z" opacity=".6"/><path fill="#F3F3F3" d="M20.997 16.55 12.5 20.79l8.497.76v-5Z"/><path fill="#F3F3F3" d="m20.997 21.55 8.499-.76-8.499-4.24v5Z" opacity=".6"/><path fill="#F3F3F3" d="m20.997 21.55-8.497-.76 8.497 5.516V21.55Z" opacity=".85"/><path fill="#F3F3F3" d="m20.997 26.306 8.499-5.516-8.499.76v4.756Z" opacity=".4"/></svg>