<svg xmlns="http://www.w3.org/2000/svg" width="42" height="42" fill="none"><path fill="#8A92B2" d="M21 42c11.598 0 21-9.402 21-21S32.598 0 21 0 0 9.402 0 21s9.402 21 21 21Z"/><g fill="#F3F3F3" clip-path="url(#a)"><path d="m20.996 5.8-9.33 15.482 9.33-4.24V5.798Z"/><path d="m20.996 17.04-9.33 4.24 9.33 5.517V17.04ZM30.328 21.282 20.996 5.799v11.242l9.332 4.24Z"/><path d="m20.996 26.797 9.332-5.516-9.332-4.241v9.757ZM11.666 23.051l9.33 13.149v-7.636l-9.33-5.513Z"/><path d="M20.996 28.564V36.2l9.337-13.149-9.337 5.513Z"/></g><defs><clipPath id="a"><path fill="#fff" d="M11.666 5.8h18.668v30.4H11.666z"/></clipPath></defs></svg>