<svg width="42" height="42" viewBox="0 0 42 42" fill="none" xmlns="http://www.w3.org/2000/svg">
<path d="M21 42C32.598 42 42 32.598 42 21C42 9.40202 32.598 0 21 0C9.40202 0 0 9.40202 0 21C0 32.598 9.40202 42 21 42Z" fill="#8A92B2"/>
<g clip-path="url(#clip0_1915_201415)">
<path d="M20.9964 5.79932L11.6665 21.2817L20.9964 17.0412V5.79932Z" fill="#F3F3F3"/>
<path d="M20.9964 17.04L11.6665 21.2806L20.9964 26.7969V17.04Z" fill="#F3F3F3"/>
<path d="M30.3277 21.2817L20.9961 5.79932V17.0412L30.3277 21.2817Z" fill="#F3F3F3"/>
<path d="M20.9961 26.7969L30.3277 21.2806L20.9961 17.04V26.7969Z" fill="#F3F3F3"/>
<path d="M11.6665 23.051L20.9964 36.1996V28.5639L11.6665 23.051Z" fill="#F3F3F3"/>
<path d="M20.9961 28.5639V36.1996L30.3329 23.051L20.9961 28.5639Z" fill="#F3F3F3"/>
</g>
<defs>
<clipPath id="clip0_1915_201415">
<rect width="18.6667" height="30.4012" fill="white" transform="translate(11.6665 5.79907)"/>
</clipPath>
</defs>
</svg>
