<svg width="42" height="42" viewBox="0 0 42 42" fill="none" xmlns="http://www.w3.org/2000/svg">
<path d="M21 41C32.0457 41 41 32.0457 41 21C41 9.9543 32.0457 1 21 1C9.9543 1 1 9.9543 1 21C1 32.0457 9.9543 41 21 41Z" fill="#17DE8D"/>
<path d="M12.5 22.5518L20.9972 35.7004V28.0646L12.5 22.5518Z" fill="#F3F3F3"/>
<path d="M12.5 19.4482L20.9972 6.29963V13.9354L12.5 19.4482Z" fill="#F3F3F3"/>
<path opacity="0.6" d="M20.9971 28.0646V35.7004L29.5006 22.5518L20.9971 28.0646Z" fill="#F3F3F3"/>
<path opacity="0.6" d="M20.9971 13.9354V6.29963L29.5006 19.4482L20.9971 13.9354Z" fill="#F3F3F3"/>
<path d="M20.9972 16.5498L12.5 20.7903L20.9972 21.5498V16.5498Z" fill="#F3F3F3"/>
<path opacity="0.6" d="M20.9971 21.5498L29.4958 20.7903L20.9971 16.5498V21.5498Z" fill="#F3F3F3"/>
<path opacity="0.85" d="M20.9972 21.5495L12.5 20.79L20.9972 26.3064V21.5495Z" fill="#F3F3F3"/>
<path opacity="0.4" d="M20.9971 26.3064L29.4958 20.79L20.9971 21.5495V26.3064Z" fill="#F3F3F3"/>
</svg>
