<svg width="42" height="42" viewBox="0 0 42 42" fill="none" xmlns="http://www.w3.org/2000/svg">
<rect width="42" height="42" rx="21" fill="#12155C"/>
<path d="M34.287 22.655L33.281 18.7345C33.2521 18.6192 33.1592 18.5295 33.0439 18.5007L29.1576 17.543C29.1287 17.5366 29.0967 17.5334 29.0678 17.5334C28.9749 17.5238 28.8788 17.5526 28.8083 17.6231L22.2499 24.1796L21.3817 20.7908C21.3528 20.6755 21.2599 20.5858 21.1446 20.557L17.8061 19.7338L24.3613 13.1805C24.3998 13.1421 24.4222 13.094 24.4382 13.046C24.467 12.9819 24.4767 12.9083 24.4574 12.8378L23.4514 8.91734C23.4226 8.80203 23.3296 8.71234 23.2143 8.68352L19.328 7.72583C19.2511 7.70661 19.1742 7.71942 19.1069 7.75145H19.1037C19.0845 7.76106 19.0684 7.77387 19.0492 7.78668C19.0332 7.7995 19.0108 7.8059 18.998 7.82192L7.80995 19.0004C7.80995 19.0004 7.79073 19.0324 7.77791 19.0484C7.70743 19.1317 7.68179 19.2406 7.71383 19.3463L8.79996 23.1354C8.83199 23.2443 8.9153 23.3276 9.02103 23.3564L12.6607 24.4006L13.7052 28.036C13.7372 28.1449 13.8205 28.2281 13.9262 28.257L17.5787 29.3043L18.6263 32.9558C18.6584 33.0647 18.7417 33.1479 18.8474 33.1768L22.6536 34.269C22.6825 34.2786 22.7145 34.2818 22.7433 34.2818C22.7497 34.2818 22.7562 34.2786 22.7658 34.2786C22.7658 34.2786 22.769 34.2786 22.7722 34.2786C22.8555 34.2786 22.9388 34.2466 23.0028 34.1825L34.1941 22.9945C34.2325 22.956 34.255 22.908 34.271 22.86C34.2998 22.7959 34.3094 22.7222 34.2902 22.6517L34.287 22.655ZM29.2697 27.0014L28.4527 23.8145L30.2629 22.0079L33.3739 22.9016L29.2729 27.0046L29.2697 27.0014ZM22.9228 33.3465L22.1057 30.1596L25.3801 26.8861L28.4911 27.7798L22.9228 33.3465ZM25.4474 25.9028L24.6657 23.1802L27.4755 23.8721L25.4474 25.8996V25.9028ZM27.9208 24.3461L28.6385 27.1424L25.9056 26.3576L27.9208 24.343V24.3461ZM28.0137 23.3372L24.8291 22.5525L28.9205 18.4622L29.8047 21.5467L28.0137 23.3372ZM24.0377 23.3404L24.922 26.4249L21.6636 29.6823L18.479 28.8976L24.0377 23.3404ZM32.7011 19.0772L33.518 22.2642L30.4295 21.377L29.5452 18.2989L32.7011 19.0772ZM17.9984 28.4235L17.1813 25.2366L18.3604 24.0579L21.4714 24.9515L17.9984 28.4235ZM18.4277 23.0745L17.6459 20.352L20.4557 21.0439L18.4277 23.0713V23.0745ZM21.6188 24.3173L18.8858 23.5326L20.9011 21.5179L21.6188 24.3141V24.3173ZM17.9055 23.5998L16.7424 24.7625L13.5578 23.9778L17.0212 20.5154L17.9055 23.5998ZM14.2402 13.488L15.1245 16.5725L11.8373 19.8588L8.65257 19.074L14.2402 13.488ZM19.0941 8.63547L19.9784 11.72L18.2162 13.4816L15.0315 12.6969L19.0941 8.63547ZM19.4721 17.1458L18.6552 13.962L20.4365 12.1812L23.5475 13.0716L19.4721 17.1458ZM15.6499 16.0504L14.8681 13.3279L17.6779 14.0197L15.6499 16.0472V16.0504ZM18.1233 14.4937L18.841 17.2899L16.1113 16.5052L18.1265 14.4905L18.1233 14.4937ZM15.5858 17.0305L18.6968 17.9209L13.0996 23.5166L12.2826 20.3328L15.5858 17.0305ZM22.8747 9.25686L23.6917 12.4438L20.6031 11.5566L19.7189 8.47853L22.8747 9.25686ZM8.49238 19.705L11.3022 20.3968L9.27414 22.4244L8.49238 19.7018V19.705ZM9.73229 22.8856L11.7475 20.8709L12.4652 23.6671L9.73549 22.8824L9.73229 22.8856ZM14.2786 27.6869L13.3944 24.6088L16.5502 25.3871L17.3672 28.5741L14.2786 27.6869ZM18.3187 29.5286L21.1286 30.2204L19.1005 32.2479L18.3187 29.5254V29.5286ZM19.5586 32.7091L21.5739 30.6944L22.2916 33.4906L19.5586 32.7059V32.7091Z" fill="url(#paint0_linear_6954_218970)"/>
<defs>
<linearGradient id="paint0_linear_6954_218970" x1="9.54326" y1="25.1693" x2="32.5746" y2="16.7829" gradientUnits="userSpaceOnUse">
<stop stop-color="#29BCFA"/>
<stop offset="0.43" stop-color="#6464E4"/>
<stop offset="1" stop-color="#B45AFA"/>
</linearGradient>
</defs>
</svg>
