<svg width="43" height="42" viewBox="0 0 43 42" fill="none" xmlns="http://www.w3.org/2000/svg">
<g clip-path="url(#clip0_4532_193608)">
<path d="M42.162 20.9989C42.162 9.40155 32.7604 0 21.163 0C9.56561 0 0.164062 9.40155 0.164062 20.9989C0.164062 32.5963 9.56561 41.9979 21.163 41.9979C32.7604 41.9979 42.162 32.5963 42.162 20.9989Z" fill="url(#paint0_linear_4532_193608)"/>
<path fill-rule="evenodd" clip-rule="evenodd" d="M21.163 41.9979C32.7603 41.9979 42.162 32.5962 42.162 20.9989C42.162 9.4017 32.7603 0 21.163 0C9.56576 0 0.164062 9.4017 0.164062 20.9989C0.164062 32.5962 9.56576 41.9979 21.163 41.9979ZM30.1692 5.00009L26.9191 8.23392C30.013 9.63378 32.4953 12.1066 33.9071 15.195L37.1619 11.9566L30.1692 5.00009ZM8.36882 15.3093C9.75286 12.2087 12.2128 9.71389 15.2939 8.28642L12.1568 5.16458L5.16415 12.1211L8.36882 15.3093ZM8.36999 26.6909C9.75431 29.7918 12.2147 32.2866 15.2962 33.7139L12.1603 36.8333L5.16765 29.8768L8.36999 26.6909ZM26.9191 33.7652C30.013 32.3653 32.4953 29.8924 33.9071 26.804L37.1607 30.0413L30.168 36.9978L26.9191 33.7652Z" fill="#F3F3F3"/>
<path style="mix-blend-mode:multiply" opacity="0.5" fill-rule="evenodd" clip-rule="evenodd" d="M42.162 20.9989C42.162 32.5962 32.7603 41.9979 21.163 41.9979C9.56576 41.9979 0.164062 32.5962 0.164062 20.9989C0.164062 9.4017 9.56576 0 21.163 0C32.7603 0 42.162 9.4017 42.162 20.9989ZM30.1692 5.00009L26.9191 8.23392C30.013 9.63378 32.4953 12.1066 33.9071 15.195L37.1619 11.9566L30.1692 5.00009ZM8.36882 15.3093C9.75286 12.2087 12.2128 9.71389 15.2939 8.28642L12.1568 5.16458L5.16415 12.1211L8.36882 15.3093ZM8.36999 26.6909C9.75431 29.7918 12.2147 32.2866 15.2962 33.7139L12.1603 36.8333L5.16765 29.8768L8.36999 26.6909ZM26.9191 33.7652C30.013 32.3653 32.4953 29.8924 33.9071 26.804L37.1607 30.0413L30.168 36.9978L26.9191 33.7652Z" fill="url(#paint1_linear_4532_193608)"/>
<path d="M21.6197 17.7188L15.1719 20.6528L21.6197 24.4629L28.0641 20.6528L21.6197 17.7188Z" fill="#404141"/>
<path d="M28.0236 20.6516L21.5781 24.4617V17.7188L28.0236 20.6516Z" fill="#121313"/>
<path d="M15.1719 20.7091L21.6197 17.7681V10.0078L15.1719 20.7091Z" fill="#878888"/>
<path d="M21.5781 10.0078V17.7669L28.0236 20.7091L21.5781 10.0078Z" fill="#404141"/>
<path d="M15.1719 21.9062L21.6197 30.993V25.7176L15.1719 21.9062Z" fill="#6C6D6D"/>
<path d="M21.6574 25.7176V30.993L28.1077 21.9062L21.6574 25.7176Z" fill="#222222"/>
</g>
<defs>
<linearGradient id="paint0_linear_4532_193608" x1="21.163" y1="0" x2="21.163" y2="41.9979" gradientUnits="userSpaceOnUse">
<stop stop-color="#404141"/>
<stop offset="1" stop-color="#222222"/>
</linearGradient>
<linearGradient id="paint1_linear_4532_193608" x1="21.163" y1="15.1146" x2="21.163" y2="44.4804" gradientUnits="userSpaceOnUse">
<stop stop-color="white"/>
<stop offset="1" stop-color="#7D7D7D"/>
</linearGradient>
<clipPath id="clip0_4532_193608">
<rect width="42" height="42" fill="white" transform="translate(0.164062)"/>
</clipPath>
</defs>
</svg>
