<svg width="36" height="36" viewBox="0 0 36 36" fill="none" xmlns="http://www.w3.org/2000/svg">
<g clip-path="url(#clip0_6746_46029)">
<rect width="36" height="36" rx="18" fill="#003299"/>
<path d="M7.30586 15.5034H9.44007C10.5273 11.1947 14.3931 8.09399 19.1045 8.09399C21.8025 8.09399 24.3394 9.18122 26.1112 11.0336L25.4266 12.7652C23.9367 11.0336 21.6817 9.82555 19.1045 9.82555C15.3595 9.82555 12.2589 12.2417 11.1716 15.6242H24.2186L23.534 17.2349H10.769C10.769 17.5168 10.769 17.7584 10.769 18.0403C10.769 18.3221 10.769 18.5637 10.769 18.8456H22.7287L22.0441 20.4563H11.0105C12.0978 23.7986 15.1582 26.255 18.9434 26.255C21.4803 26.255 23.7756 25.0469 25.2656 23.3153V25.6106C23.534 27.1006 21.3595 27.9059 18.9434 27.9059C14.3931 27.9059 10.487 24.6844 9.27898 20.4965H6.46021L7.14478 18.8858H9.03742C9.03742 18.6039 9.03742 18.3623 9.03742 18.0804C9.03742 17.7986 9.03742 17.557 9.03742 17.2751H6.5005L7.30586 15.5034Z" fill="white"/>
</g>
<defs>
<clipPath id="clip0_6746_46029">
<rect width="36" height="36" rx="18" fill="white"/>
</clipPath>
</defs>
</svg>
