<svg width="42" height="42" viewBox="0 0 42 42" fill="none" xmlns="http://www.w3.org/2000/svg">
<rect width="42" height="42" rx="21" fill="#003299"/>
<path d="M8.52346 18.0874H11.0134C12.2818 13.0606 16.7919 9.44312 22.2886 9.44312C25.4362 9.44312 28.396 10.7115 30.4631 12.8727L29.6644 14.8928C27.9261 12.8727 25.2952 11.4633 22.2886 11.4633C17.9194 11.4633 14.302 14.2821 13.0335 18.2283H28.255L27.4563 20.1075H12.5638C12.5638 20.4363 12.5638 20.7182 12.5638 21.0471C12.5638 21.3759 12.5638 21.6578 12.5638 21.9867H26.5168L25.7181 23.8658H12.8456C14.114 27.7652 17.6845 30.6309 22.1006 30.6309C25.0604 30.6309 27.7382 29.2215 29.4765 27.2014V29.8792C27.4563 31.6174 24.9194 32.557 22.1006 32.557C16.7919 32.557 12.2348 28.7986 10.8254 23.9127H7.53687L8.33553 22.0336H10.5436C10.5436 21.7047 10.5436 21.4228 10.5436 21.094C10.5436 20.7651 10.5436 20.4832 10.5436 20.1544H7.58388L8.52346 18.0874Z" fill="white"/>
</svg>
