<svg xmlns="http://www.w3.org/2000/svg" width="42" height="42" fill="none"><mask id="a" width="42" height="42" x="0" y="0" maskUnits="userSpaceOnUse" style="mask-type:alpha"><circle cx="21" cy="21" r="21" fill="#D9D9D9"/></mask><g mask="url(#a)"><path fill="#039" d="M52.496 0h-62.992v42h62.992V0Z"/><path fill="#FC0" d="m19.694 9.433 1.313-.96 1.313.96-.488-1.549 1.33-.96h-1.65l-.505-1.565-.505 1.566h-1.633l1.33.96-.505 1.548ZM12.896 11.265l1.313-.96 1.313.96-.488-1.549 1.33-.96h-1.65l-.505-1.582-.505 1.583h-1.633l1.33.96-.505 1.548ZM9.242 12.158l-.505 1.582h-1.65l1.33.96-.504 1.548 1.33-.96 1.312.96-.505-1.549 1.33-.96H9.73l-.488-1.582ZM7.405 22.07l1.313.959-.505-1.549 1.346-.96H7.91l-.504-1.565-.505 1.583-1.65-.017 1.347.96-.505 1.548 1.313-.96ZM9.73 27.319l-.488-1.566-.505 1.566h-1.65l1.33.96-.504 1.548 1.33-.96 1.312.96-.505-1.549 1.33-.96H9.73ZM14.73 32.302l-.504-1.565-.505 1.565h-1.65l1.33.96-.488 1.548 1.313-.96 1.313.96-.505-1.548 1.33-.96H14.73ZM21.512 34.134l-.505-1.582-.505 1.582h-1.633l1.33.96-.505 1.548 1.313-.96 1.313.96-.488-1.549 1.33-.959h-1.65ZM28.304 32.302l-.505-1.565-.505 1.565h-1.65l1.33.96-.488 1.548 1.313-.96 1.313.96-.505-1.548 1.33-.96h-1.633ZM33.295 27.319l-.505-1.566-.505 1.566h-1.65l1.347.96-.505 1.548 1.313-.96 1.313.96-.505-1.549 1.346-.96h-1.65ZM36.75 20.52H35.1l-.505-1.565-.505 1.566h-1.633l1.33.96-.505 1.548 1.313-.96 1.313.96-.488-1.549 1.33-.96ZM31.477 16.217l1.313-.96 1.313.96-.505-1.549 1.346-.959h-1.65l-.504-1.582-.505 1.582h-1.65l1.347.96-.505 1.548ZM27.822 7.174l-.505 1.583h-1.65l1.347.96-.505 1.548 1.313-.96 1.313.96-.505-1.549 1.347-.96h-1.65l-.505-1.582Z"/></g></svg>