<svg width="42" height="42" viewBox="0 0 42 42" fill="none" xmlns="http://www.w3.org/2000/svg">
<rect width="42" height="42" rx="21" fill="#2775CA"/>
<g clip-path="url(#clip0_8828_222648)">
<path fill-rule="evenodd" clip-rule="evenodd" d="M25.7983 5.99017C25.3248 5.83885 24.9375 6.11999 24.9375 6.61726V7.84023C24.9375 8.17366 25.1888 8.55315 25.5017 8.66789C30.5282 10.5093 34.125 15.3417 34.125 20.9993C34.125 26.6568 30.5282 31.4891 25.5017 33.3306C25.1585 33.4563 24.9375 33.7926 24.9375 34.1583V35.3812C24.9375 35.8784 25.3248 36.1596 25.7983 36.0083C32.1503 33.9783 36.75 28.0261 36.75 20.9993C36.75 13.9724 32.1503 8.02012 25.7983 5.99017Z" fill="white"/>
<path fill-rule="evenodd" clip-rule="evenodd" d="M17.0625 6.61726C17.0625 6.11999 16.6753 5.83885 16.2018 5.99017C9.84966 8.02012 5.25 13.9723 5.25 20.9993C5.25 28.0262 9.84966 33.9783 16.2018 36.0083C16.6753 36.1596 17.0625 35.8784 17.0625 35.3812V34.1583C17.0625 33.8248 16.8113 33.4452 16.4983 33.3305C11.4719 31.4891 7.875 26.6568 7.875 20.9993C7.875 15.3418 11.4719 10.5093 16.4983 8.66789C16.8113 8.55315 17.0625 8.17366 17.0625 7.84022V6.61726Z" fill="white"/>
<path d="M26.3703 25.0984L25.1691 24.5616C24.9046 24.4434 24.5927 24.554 24.4647 24.8139C23.8977 25.9649 22.9553 26.6984 21.7105 26.6984C20.5834 26.6984 19.6795 26.1464 18.9868 25.0309C18.7159 24.5993 18.5008 24.1175 18.3369 23.5896H21.5628C21.7672 23.5896 21.9543 23.4745 22.0465 23.2919L22.8163 22.2528C22.9983 21.8923 22.7363 21.4664 22.3325 21.4664H17.9739C17.9613 21.2429 17.9537 21.0149 17.9537 20.78C17.9513 20.5471 17.9578 20.3191 17.9699 20.0944H21.5628C21.7673 20.0944 21.9543 19.9793 22.0465 19.7967L22.8163 18.7576C22.9983 18.3971 22.7363 17.9713 22.3325 17.9713H18.333C18.918 16.0636 20.1392 14.8137 21.7105 14.8383C22.9078 14.8383 23.8373 15.4939 24.4336 16.5677C24.5672 16.8084 24.8679 16.9007 25.1197 16.7895L26.3271 16.2563C26.6161 16.1287 26.739 15.7793 26.586 15.5029C25.4714 13.4894 23.8463 12.478 21.7105 12.478C19.7616 12.478 18.2002 13.253 17.0144 14.7913C16.3214 15.6973 15.839 16.7603 15.5527 17.9713H13.7986C13.5941 17.9713 13.4071 18.0864 13.3149 18.2689L12.5451 19.308C12.3631 19.6686 12.625 20.0944 13.0288 20.0944H15.2628C15.2521 20.3201 15.2417 20.5461 15.2417 20.78C15.2389 21.012 15.2444 21.2402 15.2542 21.4664H13.7986C13.5941 21.4664 13.4071 21.5815 13.3149 21.7641L12.5451 22.8032C12.3631 23.1637 12.625 23.5896 13.0288 23.5896H15.5476C16.3441 26.8828 18.6374 29.1286 21.7105 29.0821C23.8923 29.0821 25.5369 27.9972 26.6348 25.8368C26.7745 25.5618 26.6519 25.2243 26.3703 25.0984Z" fill="white"/>
</g>
<defs>
<clipPath id="clip0_8828_222648">
<rect y="5.94922" width="42" height="30.1" rx="15.05" fill="white"/>
</clipPath>
</defs>
</svg>
