<svg width="43" height="42" viewBox="0 0 43 42" fill="none" xmlns="http://www.w3.org/2000/svg">
<g clip-path="url(#clip0_4532_193630)">
<path d="M21.1641 41.9977C32.7607 41.9977 42.1617 32.5967 42.1617 20.9988C42.1617 9.40333 32.7607 0 21.1641 0C9.5674 0 0.164062 9.401 0.164062 21C0.164062 32.5967 9.56506 41.9977 21.1641 41.9977Z" fill="url(#paint0_linear_4532_193630)"/>
<path d="M31.2777 27.6406L28.5594 26.0773C28.5219 26.0553 28.4791 26.044 28.4357 26.0446C28.4124 26.0446 28.3902 26.0481 28.368 26.0528C28.3036 26.0712 28.249 26.1144 28.2164 26.173C27.983 26.6011 27.6937 26.9943 27.3542 27.3455C26.4526 28.2803 25.2979 28.9318 24.0315 29.2203C23.451 29.3571 22.857 29.4283 22.2605 29.4326C21.2085 29.4427 20.1698 29.1965 19.2342 28.7151C18.3358 28.2501 17.5393 27.6103 16.8915 26.8333C16.5752 26.4515 16.2941 26.0419 16.0515 25.6095L15.7319 25.0436H22.6315C22.664 25.0436 22.6961 25.0372 22.726 25.0248C22.756 25.0123 22.7832 24.9941 22.806 24.9711C22.8289 24.9481 22.847 24.9209 22.8593 24.8909C22.8716 24.8609 22.8779 24.8287 22.8777 24.7963V22.6473C22.8777 22.582 22.8518 22.5194 22.8056 22.4732C22.7594 22.4271 22.6968 22.4011 22.6315 22.4011H14.963L14.9245 22.0628C14.8491 21.3759 14.8452 20.6831 14.9129 19.9955L14.9479 19.6525H22.6292C22.6945 19.6525 22.7571 19.6265 22.8033 19.5804C22.8494 19.5342 22.8754 19.4716 22.8754 19.4063V17.2573C22.8755 17.2249 22.8693 17.1927 22.857 17.1627C22.8447 17.1327 22.8266 17.1055 22.8037 17.0825C22.7808 17.0595 22.7536 17.0413 22.7237 17.0288C22.6937 17.0164 22.6616 17.01 22.6292 17.01H15.656L15.9524 16.4523C16.1624 16.0545 16.4027 15.6753 16.6734 15.3183C17.2869 14.5171 18.064 13.8557 18.953 13.3781C19.87 12.8765 20.9597 12.6233 22.187 12.6233C22.7704 12.6256 23.3502 12.691 23.9219 12.817C24.5175 12.9496 25.0932 13.1594 25.6345 13.4411C26.648 13.9813 27.4908 14.7934 28.0682 15.7861C28.0897 15.8233 28.1207 15.8542 28.158 15.8755C28.1953 15.8968 28.2376 15.9078 28.2805 15.9075C28.3305 15.9078 28.3794 15.8927 28.4205 15.8643L30.9452 14.126C30.9964 14.09 31.0324 14.0362 31.046 13.9751C31.0596 13.914 31.0499 13.8501 31.0187 13.7958C30.2697 12.537 29.2022 11.4858 27.8419 10.6656C26.3019 9.74046 24.4457 9.26562 22.3247 9.26562C20.5245 9.26562 18.9017 9.60396 17.497 10.2725C16.1566 10.8953 14.9522 11.7765 13.9528 12.8656C12.9534 13.9547 12.1787 15.2302 11.673 16.6191C11.6649 16.6401 11.659 16.66 11.6497 16.681V16.6868C11.6439 16.709 11.6357 16.7288 11.6275 16.7521L11.5377 17.0041H6.23171C6.19919 17.004 6.16696 17.0103 6.13688 17.0226C6.1068 17.035 6.07947 17.0532 6.05648 17.0762C6.03348 17.0992 6.01527 17.1265 6.00289 17.1566C5.99052 17.1867 5.98422 17.2189 5.98438 17.2515V19.4005C5.98438 19.537 6.09521 19.6466 6.23171 19.6466H10.9567L10.931 20.0526C10.9124 20.3443 10.9019 20.5893 10.9019 20.8191C10.9019 21.2018 10.9229 21.5915 10.9602 21.9765L10.9999 22.3965H6.23171C6.19919 22.3963 6.16696 22.4026 6.13688 22.415C6.1068 22.4273 6.07947 22.4456 6.05648 22.4686C6.03348 22.4916 6.01527 22.5189 6.00289 22.549C5.99052 22.579 5.98422 22.6113 5.98438 22.6438V24.7928C5.98438 24.9293 6.09521 25.039 6.23171 25.039H11.6789L11.7745 25.2793C12.3143 26.647 13.0867 27.9109 14.0577 29.015C15.0568 30.1403 16.2603 31.0658 17.6044 31.7426C18.9577 32.431 20.4779 32.781 22.117 32.781C23.0877 32.7763 24.0537 32.6538 24.994 32.4193C25.9542 32.186 26.8817 31.836 27.7544 31.374C28.5979 30.9274 29.3741 30.3638 30.0597 29.6998C30.5847 29.1958 31.0222 28.6113 31.3629 27.9708C31.3927 27.9143 31.3997 27.8485 31.3823 27.787C31.365 27.7255 31.3246 27.6731 31.2695 27.6406H31.2777Z" fill="white"/>
</g>
<defs>
<linearGradient id="paint0_linear_4532_193630" x1="10.6617" y1="2.81167" x2="31.6641" y2="39.1907" gradientUnits="userSpaceOnUse">
<stop stop-color="#7FB2CC"/>
<stop offset="1" stop-color="#2E72A4"/>
</linearGradient>
<clipPath id="clip0_4532_193630">
<rect width="42" height="42" fill="white" transform="translate(0.164062)"/>
</clipPath>
</defs>
</svg>
