<svg xmlns="http://www.w3.org/2000/svg" width="36" height="36" fill="none"><path fill="url(#a)" d="M18 35.998c9.94 0 17.998-8.058 17.998-17.999C35.998 8.06 27.94 0 18 0 8.06 0 0 8.058 0 18c0 9.94 8.058 17.998 18 17.998Z"/><path fill="#fff" d="m26.693 23.672-2.33-1.34a.203.203 0 0 0-.106-.028c-.02 0-.039.003-.058.007a.217.217 0 0 0-.13.103c-.2.367-.448.704-.739 1.005a5.723 5.723 0 0 1-2.848 1.607 6.833 6.833 0 0 1-1.518.182 5.553 5.553 0 0 1-2.594-.615 6.51 6.51 0 0 1-2.008-1.613 7.047 7.047 0 0 1-.72-1.049l-.274-.485h5.914a.211.211 0 0 0 .211-.212v-1.842a.211.211 0 0 0-.211-.211h-6.573l-.033-.29a8.558 8.558 0 0 1-.01-1.772l.03-.294h6.584a.211.211 0 0 0 .211-.211v-1.842a.211.211 0 0 0-.211-.212h-5.977l.254-.478c.18-.341.386-.666.618-.972a6.092 6.092 0 0 1 1.954-1.663c.786-.43 1.72-.647 2.772-.647.5.002.997.058 1.487.166a6.01 6.01 0 0 1 1.468.535 5.293 5.293 0 0 1 2.086 2.01.208.208 0 0 0 .182.104.209.209 0 0 0 .12-.037l2.164-1.49a.215.215 0 0 0 .063-.283c-.642-1.079-1.557-1.98-2.723-2.683-1.32-.793-2.911-1.2-4.729-1.2-1.543 0-2.934.29-4.138.863a9.632 9.632 0 0 0-4.992 5.44c-.007.018-.012.035-.02.053v.005c-.005.019-.012.036-.019.056l-.077.216H5.225a.211.211 0 0 0-.212.212v1.842c0 .117.095.211.212.211h4.05l-.022.348c-.016.25-.025.46-.025.657 0 .328.018.662.05.992l.034.36H5.225a.211.211 0 0 0-.212.212v1.842c0 .117.095.211.212.211h4.669l.082.206a10.917 10.917 0 0 0 1.957 3.202 10.2 10.2 0 0 0 3.04 2.338c1.16.59 2.463.89 3.868.89.832-.004 1.66-.109 2.466-.31.823-.2 1.618-.5 2.366-.896a8.675 8.675 0 0 0 1.976-1.435c.45-.432.825-.933 1.117-1.482a.213.213 0 0 0-.08-.283h.007Z"/><defs><linearGradient id="a" x1="8.998" x2="27" y1="2.41" y2="33.592" gradientUnits="userSpaceOnUse"><stop stop-color="#7FB2CC"/><stop offset="1" stop-color="#2E72A4"/></linearGradient></defs></svg>