<svg width="42" height="42" viewBox="0 0 42 42" fill="none" xmlns="http://www.w3.org/2000/svg">
<g clip-path="url(#clip0_2736_274255)">
<path style="mix-blend-mode:multiply" d="M41.9979 20.9989C41.9979 9.40155 32.5963 0 20.9989 0C9.40155 0 0 9.40155 0 20.9989C0 32.5963 9.40155 41.9979 20.9989 41.9979C32.5963 41.9979 41.9979 32.5963 41.9979 20.9989Z" fill="url(#paint0_linear_2736_274255)"/>
<mask id="mask0_2736_274255" style="mask-type:luminance" maskUnits="userSpaceOnUse" x="11" y="4" width="20" height="32">
<path d="M30.3337 4.79883H11.668V35.1985H30.3337V4.79883Z" fill="white"/>
</mask>
<g mask="url(#mask0_2736_274255)">
<path d="M20.9973 4.79883L11.668 20.2804L20.9973 16.0402V4.79883Z" fill="#C2EC69"/>
<path d="M20.9973 16.0391L11.668 20.2794L20.9973 25.7955V16.0391Z" fill="#E3F7B9"/>
<path d="M30.3272 20.2804L20.9961 4.79883V16.0402L30.3272 20.2804Z" fill="#90C128"/>
<path d="M20.9961 25.7955L30.3272 20.2794L20.9961 16.0391V25.7955Z" fill="#A4DB2E"/>
<path d="M11.668 22.0508L20.9973 35.1988V27.5634L11.668 22.0508Z" fill="#C2EC69"/>
<path d="M20.9961 27.5634V35.1988L30.3325 22.0508L20.9961 27.5634Z" fill="#6B8D1D"/>
</g>
</g>
<defs>
<linearGradient id="paint0_linear_2736_274255" x1="20.9989" y1="15.1146" x2="20.9989" y2="44.4804" gradientUnits="userSpaceOnUse">
<stop stop-color="#FAFAFA"/>
<stop offset="1" stop-color="#FAFAFA"/>
</linearGradient>
<clipPath id="clip0_2736_274255">
<rect width="42" height="42" fill="white"/>
</clipPath>
</defs>
</svg>
