<svg width="42" height="42" viewBox="0 0 42 42" fill="none" xmlns="http://www.w3.org/2000/svg">
<rect width="42" height="42" rx="21" fill="black"/>
<g clip-path="url(#clip0_8691_51484)">
<path d="M37.829 0.499665C38.004 0.441337 38.2376 0.499802 38.3542 0.616445C42.7875 4.11643 43.7791 10.4747 40.5708 15.083C39.7542 16.1913 38.8211 17.2415 37.7128 18.1164C37.1878 18.5831 36.6044 18.9333 35.9628 19.225L35.6711 19.3418L35.4957 19.3999C35.0875 19.5164 34.8541 19.3998 34.096 19.2831L33.7457 19.225C33.6715 19.2102 33.5979 19.1921 33.5246 19.1732C34.8477 22.3096 36.76 27.8861 37.0856 29.6071C37.2023 30.2487 37.1439 31.0071 37.0856 31.6488C36.6189 37.1904 30.4651 41.7481 20.6651 41.5147C11.4486 41.2813 5.17669 37.482 4.71003 31.9404C4.6517 31.2405 4.65227 30.6571 4.7106 29.8988C5.00227 27.7404 5.61546 25.531 6.72378 23.6644L8.6236 19.0718C8.50188 19.1081 8.37888 19.1397 8.25446 19.1646L7.90412 19.2227C7.5542 19.3394 7.20435 19.3982 6.79613 19.3982H6.56257C6.38757 19.3398 6.15423 19.2811 5.97923 19.2227C5.33763 18.9311 4.75419 18.5814 4.22923 18.1147C3.17924 17.2397 2.18768 16.2479 1.42935 15.0813C-1.77896 10.4147 -0.787351 4.11475 3.6459 0.614736C3.93757 0.439736 4.28757 0.43985 4.5209 0.731517C4.63748 0.906434 4.69594 1.08126 4.63768 1.25618C4.22935 3.12284 3.87946 6.03951 5.62946 8.54784C7.14613 10.6478 10.296 12.6899 12.221 12.6899C12.4519 14.0095 12.3465 15.0863 11.9584 16.0053L20.6651 11.5238L30.1033 16.1112C29.6897 15.1751 29.5667 14.0812 29.8378 12.6916C31.7045 12.7497 34.9127 10.7083 36.4293 8.55012C38.1209 6.0419 37.7708 3.12513 37.3625 1.25845C37.3041 0.908507 37.4791 0.616367 37.829 0.499665Z" fill="#F4A427" stroke="black" stroke-width="0.583333"/>
<path d="M38.3542 0.616445C38.2376 0.499802 38.004 0.441337 37.829 0.499665C37.4791 0.616367 37.3041 0.908507 37.3625 1.25845C37.7708 3.12513 38.1209 6.0419 36.4293 8.55012C34.9127 10.7083 31.7045 12.7497 29.8378 12.6916C29.5667 14.0812 29.6897 15.1751 30.1033 16.1112L20.6651 11.5238L11.9584 16.0053C12.3465 15.0863 12.4519 14.0095 12.221 12.6899C10.296 12.6899 7.14613 10.6478 5.62946 8.54784C3.87946 6.03951 4.22935 3.12284 4.63768 1.25618C4.69594 1.08126 4.63748 0.906434 4.5209 0.731517C4.28757 0.43985 3.93757 0.439736 3.6459 0.614736C-0.787351 4.11475 -1.77896 10.4147 1.42935 15.0813C2.18768 16.2479 3.17924 17.2397 4.22923 18.1147C4.75419 18.5814 5.33763 18.9311 5.97923 19.2227C6.15423 19.2811 6.34389 19.3596 6.56257 19.3982C6.78124 19.4368 7.12996 19.4351 7.12996 19.4351C7.53819 19.4351 7.65504 19.5518 8.00496 19.4351H8.87996C9.00438 19.4102 9.04991 19.4715 9.17163 19.4351L33.0883 19.7268C33.1616 19.7458 33.5974 19.712 33.6716 19.7268H34.255C34.255 19.7268 34.5466 19.7268 35.5383 19.3999L35.7133 19.3418L36.005 19.225C36.6466 18.9333 37.1878 18.5831 37.7128 18.1164C38.8211 17.2415 39.7542 16.1913 40.5708 15.083C43.7791 10.4747 42.7875 4.11643 38.3542 0.616445Z" fill="#F89423" stroke="black" stroke-width="0.583333" stroke-linejoin="round"/>
<path d="M20.8732 27.8597C23.4981 27.8014 25.6569 28.8514 27.9319 30.9513C28.3985 31.4179 29.0403 31.7097 29.6819 31.6514C30.2651 31.4764 30.8485 31.1846 31.3151 30.7764C32.9317 29.6987 34.8468 29.22 36.7388 29.383C36.7621 29.4843 36.7829 29.5768 36.7987 29.6599C36.9071 30.2564 36.8541 30.9759 36.7952 31.6229V31.6246C36.3481 36.9336 30.4122 41.4551 20.6727 41.2234C16.0989 41.1076 12.2801 40.107 9.55688 38.4685C6.83743 36.8323 5.22435 34.5714 5.00072 31.9163C4.94408 31.2363 4.94365 30.6704 5.00016 29.931C5.01694 29.8071 5.03476 29.6831 5.0537 29.559C5.85462 29.4414 6.65564 29.4684 7.45654 29.6097C9.32297 29.9014 10.3733 31.068 11.7148 31.6514C12.473 32.0013 13.2319 31.418 13.9319 30.7764C15.7985 28.9683 18.3067 27.9181 20.8732 27.8597Z" fill="white"/>
<path d="M20.9992 10.0693C24.3614 10.0693 27.4251 11.0534 29.8438 12.5246C29.1161 14.8987 30.2317 17.5887 32.6197 18.8683C33.4573 19.3171 34.353 19.5386 35.2305 19.5553C35.3645 20.7717 35.0989 21.8286 34.7076 22.6099C32.9574 21.6376 27.7657 19.6932 20.9992 19.6932C14.2326 19.6932 9.23532 21.6376 7.58256 22.6099C7.24051 22.0956 7.07737 20.8287 7.25044 19.426C7.97396 19.3512 8.70038 19.1364 9.38781 18.7681C11.7813 17.4857 12.8961 14.7869 12.1586 12.4089C14.4621 10.9707 17.4608 10.0694 20.9992 10.0693Z" fill="#5A595C" stroke="black" stroke-width="0.583333" stroke-linecap="round" stroke-linejoin="round"/>
<path d="M21.203 8.37744C21.903 8.37744 22.5446 8.55267 23.1279 8.90267L23.3028 10.4772L23.9693 17.5313C30.2094 18.0692 34.4958 20.0979 36.0051 21.188V23.2297L34.5468 24.1047C32.7968 23.3269 27.6051 21.7713 20.8385 21.7713C14.0718 21.7713 9.46346 23.3269 8.00513 24.1047L6.25513 23.2297V21.188C7.63556 20.0664 11.803 17.951 18.2681 17.4886L18.9865 10.4191L19.1614 8.90267C19.7447 8.55269 20.4446 8.37746 21.0863 8.37744H21.203Z" fill="#929497"/>
<path d="M21.0859 8.66943H21.2021C21.8018 8.66943 22.35 8.80929 22.8535 9.08447L23.0117 10.5034V10.5044L23.6777 17.5522C23.5328 17.5357 23.3501 17.516 23.1396 17.4966C22.5986 17.4467 21.871 17.396 21.1299 17.396C20.3887 17.396 19.6529 17.4467 19.1045 17.4966C18.8889 17.5162 18.7018 17.5366 18.5537 17.5532L19.2754 10.4478L19.4326 9.08545C19.9423 8.81018 20.5372 8.66943 21.0859 8.66943Z" stroke="black" stroke-width="0.583333"/>
<path d="M6.25513 23.2291V21.1874C7.81068 19.9235 12.9051 17.3958 20.8385 17.3958C28.7718 17.3958 34.2551 19.9235 36.0051 21.1874V23.2291L34.5468 24.1041C32.7968 23.3263 27.6051 21.7708 20.8385 21.7708C14.0718 21.7708 9.17179 23.3263 7.71346 24.1041L6.25513 23.2291Z" fill="#929497" stroke="black" stroke-width="0.583333" stroke-linecap="round" stroke-linejoin="round"/>
<path d="M21.2057 29.144C22.4889 29.144 23.5388 29.4356 23.5391 30.0771C23.5391 30.7069 22.6891 31.5251 21.584 31.683V32.7779L21.6233 32.8759C21.6631 32.9611 21.7324 33.0786 21.8477 33.1972C22.0715 33.4271 22.4987 33.6922 23.3129 33.6922C23.7053 33.6922 23.9804 33.5958 24.1765 33.4666C24.3742 33.3364 24.5096 33.1611 24.6026 32.9773C24.6963 32.7922 24.7446 32.6036 24.769 32.4589C24.7811 32.3872 24.7866 32.328 24.7895 32.288C24.7909 32.2681 24.792 32.2529 24.7923 32.2436V32.2339C24.7923 32.0728 24.9229 31.9422 25.084 31.9422C25.2451 31.9422 25.3757 32.0728 25.3757 32.2339V32.2436C25.3756 32.2485 25.3754 32.2554 25.3751 32.2635C25.3745 32.2798 25.3737 32.3023 25.3717 32.3302C25.3676 32.3858 25.3593 32.4634 25.3438 32.5557C25.3128 32.7391 25.2504 32.9881 25.1227 33.2405C24.9944 33.4941 24.7976 33.7564 24.4972 33.9543C24.1953 34.1531 23.8059 34.2756 23.3129 34.2756C22.3565 34.2755 21.7734 33.9573 21.4296 33.6039C21.3775 33.5504 21.3328 33.4958 21.2923 33.4433C21.2519 33.4958 21.2071 33.5504 21.155 33.6039C20.8112 33.9573 20.2282 34.2755 19.2717 34.2756C18.7788 34.2756 18.3894 34.1531 18.0874 33.9543C17.7871 33.7564 17.5902 33.4941 17.4619 33.2405C17.3342 32.9881 17.2718 32.7391 17.2409 32.5557C17.2253 32.4634 17.217 32.3858 17.213 32.3302C17.211 32.3023 17.2101 32.2798 17.2096 32.2635C17.2093 32.2554 17.2091 32.2485 17.209 32.2436V32.2345C17.209 32.0734 17.3396 31.9422 17.5007 31.9422C17.6617 31.9422 17.7923 32.0728 17.7923 32.2339V32.2436C17.7926 32.2529 17.7937 32.2681 17.7952 32.288C17.7981 32.328 17.8036 32.3872 17.8157 32.4589C17.8401 32.6036 17.8884 32.7922 17.982 32.9773C18.075 33.1611 18.2105 33.3364 18.4081 33.4666C18.6042 33.5958 18.8793 33.6922 19.2717 33.6922C20.0859 33.6922 20.5131 33.4271 20.7369 33.1972C20.8523 33.0786 20.9216 32.9611 20.9613 32.8759L21.0007 32.7779V31.7018C19.8124 31.6099 18.8724 30.7395 18.8724 30.0771C18.8726 29.3773 19.9225 29.144 21.2057 29.144Z" fill="black"/>
<path d="M22.1374 29.9043C22.1374 30.0211 21.8749 30.254 21.1462 30.254C20.4175 30.254 20.1545 30.0207 20.1545 29.904C20.1545 29.7874 20.6212 29.7874 21.1462 29.7874C21.6712 29.7874 22.1374 29.7875 22.1374 29.9043Z" fill="white"/>
<path d="M16.7726 25.4097C16.8892 25.7014 16.9475 25.9931 16.9475 26.2847C16.9474 27.5679 16.1894 28.5592 15.2562 28.5594C15.0023 28.5594 14.7615 28.4813 14.5452 28.3435C14.0444 28.7861 13.5815 29.2665 13.157 29.7853C12.9237 30.077 12.69 30.4269 12.515 30.8352C12.34 31.1851 12.2235 31.5936 12.1652 32.0019C12.1069 32.1768 12.1071 32.4102 12.1071 32.5852V34.452C12.1654 34.8603 12.2236 35.3271 12.282 35.7354C12.3403 35.9687 12.3405 36.1436 12.3988 36.3769C12.4498 36.53 12.5006 36.7281 12.5907 36.8924C12.4998 36.7281 12.4422 36.53 12.3401 36.3769C12.2817 36.2019 12.1654 35.9685 12.1071 35.7935C11.9905 35.3853 11.8734 34.9772 11.7568 34.5107C11.6984 34.1024 11.6402 33.6355 11.5819 33.2272V31.9438C11.6402 31.4771 11.6986 31.0105 11.8735 30.6022C12.0485 30.1939 12.2235 29.7852 12.4569 29.3769C12.8596 28.7951 13.2627 28.248 13.7181 27.7613C13.6083 27.7469 13.4986 27.7454 13.3888 27.7454C13.0388 27.7454 12.6303 27.7455 12.2803 27.8621L11.7556 28.037C11.2306 28.2704 10.7638 28.6789 10.4722 29.1456C10.6471 28.7373 10.822 28.3873 11.1136 28.0957C11.2303 27.9207 11.4057 27.8039 11.5807 27.6873L12.1054 27.3375C12.4554 27.1042 12.8641 26.987 13.3307 26.8704C13.4336 26.8446 13.5253 26.8311 13.6156 26.8231C13.5831 26.6495 13.5643 26.4693 13.5643 26.2847C13.5643 25.1765 14.1476 24.2429 14.9058 24.0095L16.7726 25.4097Z" fill="black"/>
<path d="M16.307 25.9951C16.307 26.4618 16.0154 26.8118 15.7237 26.8118C15.432 26.8118 15.1404 26.4618 15.1404 25.9951C15.1404 25.5285 15.432 25.1785 15.7237 25.1785C16.0154 25.1785 16.307 25.5285 16.307 25.9951Z" fill="white"/>
<path d="M27.5651 24.0095C28.3233 24.243 28.9067 25.1765 28.9067 26.2847C28.9066 26.4679 28.889 26.6447 28.8599 26.814C29.0112 26.8186 29.1627 26.8309 29.314 26.8687C29.7806 26.927 30.1891 27.044 30.5974 27.219C31.0057 27.394 31.356 27.6856 31.706 27.9772C31.9976 28.2689 32.2311 28.6772 32.4061 29.0271C32.1728 28.6772 31.881 28.3854 31.5311 28.1521C31.1811 27.9188 30.8308 27.7439 30.4225 27.6855C30.0143 27.6272 29.606 27.6269 29.1978 27.6269C29.0679 27.6269 28.9055 27.6587 28.7591 27.6753C29.2092 28.17 29.5998 28.6807 29.956 29.2595C30.1893 29.6095 30.4224 30.0179 30.5974 30.4262C30.7724 30.8345 30.8894 31.3013 30.9478 31.7096C31.0061 32.1762 31.0061 32.5846 30.9478 33.0512C30.8894 33.4595 30.8312 33.9263 30.7729 34.3346C30.7145 34.7429 30.5978 35.1512 30.4812 35.5594C30.4229 35.7344 30.3643 35.9677 30.2476 36.1427C30.1893 36.3177 30.0726 36.5511 29.956 36.7261C30.0143 36.5511 30.1312 36.3177 30.1895 36.1427C30.2479 35.9678 30.3061 35.7344 30.3644 35.5594C30.4227 35.1512 30.5393 34.7429 30.5393 34.3346C30.5976 33.9263 30.5974 33.5178 30.5974 33.0512C30.5974 32.6429 30.5395 32.2342 30.4812 31.8258C30.3646 31.4177 30.2477 31.0678 30.0728 30.7179C29.8978 30.3679 29.6643 30.0177 29.3726 29.7261C28.956 29.2169 28.5018 28.7451 28.0117 28.3093C27.7875 28.4691 27.5361 28.5594 27.2734 28.5594C26.3985 28.5594 25.5816 27.5097 25.5815 26.2847C25.5815 25.9931 25.64 25.7014 25.6983 25.4097L27.5651 24.0095Z" fill="black"/>
<path d="M26.1633 25.9951C26.1633 26.4618 26.455 26.8118 26.7467 26.8118C27.0383 26.8118 27.33 26.4618 27.33 25.9951C27.33 25.5285 27.0383 25.1785 26.7467 25.1785C26.455 25.1785 26.1633 25.5285 26.1633 25.9951Z" fill="white"/>
</g>
<defs>
<clipPath id="clip0_8691_51484">
<rect width="42" height="42" rx="21" fill="white"/>
</clipPath>
</defs>
</svg>
