<svg xmlns="http://www.w3.org/2000/svg" width="42" height="42" fill="none"><path fill="#00EF8B" d="M21 41c11.046 0 20-8.954 20-20S32.046 1 21 1 1 9.954 1 21s8.954 20 20 20Z"/><path fill="#F3F3F3" d="M32.5 14V8.5H25c-.667 0-2.5 0-4.5 2s-2.167 5.333-2 6.5H24c0-.333-.132-1.115.5-2s1.572-1 2.108-1H32.5ZM24 17h5.5v5.5H24z"/><path fill="#F3F3F3" fill-rule="evenodd" d="M24 24.75A7.75 7.75 0 1 1 16.25 17h2.25v5.5h-2.15a2.15 2.15 0 1 0 2.15 2.15V22.5H24v2.25ZM24 17v-.002L19.238 17H24Z" clip-rule="evenodd"/></svg>