<svg width="42" height="42" viewBox="0 0 42 42" fill="none" xmlns="http://www.w3.org/2000/svg">
<rect width="42" height="42" rx="21" fill="white"/>
<path d="M27.9998 20.8008C28.4632 20.8008 28.8136 21.0661 29.4193 21.5923C29.9467 22.0504 30.7298 22.7695 31.8719 22.7695C32.4891 22.7695 32.9953 22.5586 33.412 22.2934C32.809 28.1408 28.1662 32.7897 22.3211 33.4003C21.6001 33.4756 21.0105 32.8806 21.0105 32.1557V28.8745C21.0105 28.1496 21.6041 27.5758 22.3147 27.4325C25.3143 26.8277 27.573 24.1773 27.573 20.9995C27.573 20.9588 27.5705 20.9182 27.5698 20.8777C27.712 20.8276 27.856 20.8008 27.9998 20.8008Z" fill="url(#paint0_linear_8664_51059)"/>
<path d="M9.59155 20.8008C10.0549 20.8008 10.4054 21.0661 11.0111 21.5923C11.5385 22.0504 12.3215 22.7695 13.4637 22.7695C14.6121 22.7695 15.379 22.0435 15.8919 21.5846C16.3919 21.1373 16.7081 20.8843 17.0731 20.8187V31.015C17.073 31.9103 16.1938 32.5395 15.3946 32.1358C11.3949 30.1146 8.63353 26.0019 8.54565 21.2353C8.87833 20.9683 9.23494 20.8009 9.59155 20.8008Z" fill="url(#paint1_linear_8664_51059)"/>
<path d="M22.3211 8.59995C28.339 9.22855 33.082 14.1379 33.4543 20.2285C33.3818 20.2924 33.314 20.3544 33.2498 20.4118C32.6625 20.9373 32.3291 21.1956 31.8719 21.1956C31.4085 21.1956 31.0582 20.9303 30.4524 20.4041C29.925 19.946 29.1419 19.2268 27.9998 19.2268C27.7725 19.2269 27.556 19.2556 27.3506 19.3044C26.7127 16.9143 24.7605 15.0609 22.3147 14.5677C21.6041 14.4245 21.0105 13.8506 21.0105 13.1258V9.84452C21.0105 9.11966 21.6001 8.52465 22.3211 8.59995Z" fill="url(#paint2_linear_8664_51059)"/>
<path d="M15.3946 9.86678C16.1938 9.46298 17.073 10.0922 17.073 10.9877V19.2344C16.0331 19.3109 15.3246 19.9795 14.8415 20.4116C14.2542 20.9371 13.9208 21.1954 13.4637 21.1954C13.0002 21.1954 12.6499 20.9302 12.0441 20.404C11.5167 19.9458 10.7335 19.2267 9.59152 19.2267C9.25201 19.2267 8.93622 19.2892 8.64624 19.3907C9.18478 15.2174 11.7856 11.6906 15.3946 9.86678Z" fill="url(#paint3_linear_8664_51059)"/>
<defs>
<linearGradient id="paint0_linear_8664_51059" x1="20.9999" y1="28.2195" x2="33.4687" y2="23.6257" gradientUnits="userSpaceOnUse">
<stop stop-color="#003582"/>
<stop offset="1" stop-color="#00286E"/>
</linearGradient>
<linearGradient id="paint1_linear_8664_51059" x1="8.53123" y1="21.0007" x2="20.6719" y2="32.157" gradientUnits="userSpaceOnUse">
<stop stop-color="#00479C"/>
<stop offset="1" stop-color="#00307B"/>
</linearGradient>
<linearGradient id="paint2_linear_8664_51059" x1="20.9999" y1="8.53198" x2="33.4687" y2="18.3757" gradientUnits="userSpaceOnUse">
<stop stop-color="#2E5DF8"/>
<stop offset="1" stop-color="#1C3AE5"/>
</linearGradient>
<linearGradient id="paint3_linear_8664_51059" x1="8.5312" y1="18.3757" x2="24.9375" y2="13.4539" gradientUnits="userSpaceOnUse">
<stop stop-color="#3872FF"/>
<stop offset="1" stop-color="#274EF1"/>
</linearGradient>
</defs>
</svg>
