<svg width="42" height="42" viewBox="0 0 42 42" fill="none" xmlns="http://www.w3.org/2000/svg">
<rect width="42" height="42" rx="21" fill="black"/>
<path d="M10.4306 10.349C9.62276 11.1972 8.95628 11.9108 8.94955 11.9243C8.94281 11.9445 9.66988 12.6581 10.5653 13.5063C11.4606 14.3613 12.2416 15.1086 12.2954 15.1557L12.3964 15.2499L12.2146 15.5529C10.6191 18.1919 10.2892 21.3694 11.2923 24.2912C11.4808 24.8432 11.804 25.5501 12.08 26.0146C12.2146 26.2435 12.2752 26.3916 12.2617 26.4185C12.2483 26.4455 11.4337 27.3072 10.4508 28.3372C9.46792 29.3605 8.6668 30.2154 8.65333 30.2289C8.6466 30.2491 11.4 32.9083 11.6626 33.1237L11.7636 33.2112L13.3187 31.5888C14.1737 30.6934 14.9748 29.8519 15.096 29.724L15.3249 29.4951L15.5403 29.6297C16.6376 30.3299 17.9235 30.8146 19.3439 31.0704C20.0575 31.1983 21.4174 31.232 22.1782 31.1377C23.6458 30.9694 25.0999 30.478 26.2915 29.7577L26.6012 29.5692L26.931 29.8923C27.6514 30.5924 30.3442 33.1506 30.3711 33.1641C30.3981 33.1776 33.3535 30.0875 33.3467 30.0471C33.34 30.0269 31.3136 28.0814 30.0749 26.9167L29.6643 26.5262L29.8528 26.2166C31.4348 23.5843 31.7647 20.3933 30.7414 17.4513C30.5933 17.0205 30.1423 16.0511 29.8797 15.6067L29.7518 15.3846L31.4819 13.5736C32.4312 12.584 33.2054 11.756 33.1986 11.7358C33.1717 11.6685 30.1423 8.80731 30.1019 8.80731C30.0749 8.80731 29.3142 9.5815 28.4054 10.5375C27.4965 11.4867 26.7425 12.2676 26.7223 12.2743C26.7089 12.2811 26.6214 12.2407 26.5406 12.1801C26.3117 12.0253 25.7327 11.7088 25.4096 11.5607C24.4267 11.1097 23.5111 10.8337 22.4474 10.6788C21.8954 10.598 20.2393 10.5846 19.7277 10.6586C18.5024 10.8337 17.4993 11.1366 16.4761 11.6483C16.1798 11.7896 15.8365 11.9781 15.7019 12.0589L15.4595 12.207L15.1835 11.9377C15.0354 11.7896 14.3622 11.1568 13.6957 10.5173C13.0292 9.88445 12.3493 9.23816 12.1877 9.07659L11.8915 8.78711L10.4306 10.349ZM21.7338 14.7383C22.8042 14.8662 23.7602 15.2297 24.6421 15.8491C25.0932 16.1655 25.7664 16.8387 26.0828 17.2898C27.8803 19.8345 27.5369 23.2948 25.2749 25.4154C23.3428 27.2196 20.549 27.6236 18.1995 26.4253C16.503 25.5568 15.3047 23.968 14.9209 22.0628C14.7998 21.457 14.7998 20.326 14.9209 19.7268C15.0354 19.1344 15.1902 18.7103 15.4797 18.1178C16.6376 15.7885 19.1487 14.4286 21.7338 14.7383Z" fill="#F3F3F3"/>
</svg>
