<svg width="42" height="42" viewBox="0 0 42 42" fill="none" xmlns="http://www.w3.org/2000/svg">
<rect width="42" height="42" rx="21" fill="#1E2739"/>
<path d="M10.4306 10.3499C9.62276 11.1982 8.95628 11.9118 8.94955 11.9253C8.94281 11.9454 9.66988 12.6591 10.5653 13.5073C11.4606 14.3623 12.2416 15.1095 12.2954 15.1567L12.3964 15.2509L12.2146 15.5539C10.6191 18.1929 10.2892 21.3704 11.2923 24.2922C11.4808 24.8442 11.804 25.5511 12.08 26.0156C12.2146 26.2445 12.2752 26.3926 12.2617 26.4195C12.2483 26.4464 11.4337 27.3081 10.4508 28.3382C9.46792 29.3614 8.6668 30.2164 8.65333 30.2299C8.6466 30.2501 11.4 32.9093 11.6626 33.1247L11.7636 33.2122L13.3187 31.5898C14.1737 30.6944 14.9748 29.8529 15.096 29.725L15.3249 29.4961L15.5403 29.6307C16.6376 30.3309 17.9235 30.8156 19.3439 31.0714C20.0575 31.1993 21.4174 31.233 22.1782 31.1387C23.6458 30.9704 25.0999 30.479 26.2915 29.7586L26.6012 29.5701L26.931 29.8933C27.6514 30.5934 30.3442 33.1516 30.3711 33.1651C30.3981 33.1785 33.3535 30.0885 33.3467 30.0481C33.34 30.0279 31.3136 28.0823 30.0749 26.9177L29.6643 26.5272L29.8528 26.2175C31.4348 23.5853 31.7647 20.3943 30.7414 17.4523C30.5933 17.0215 30.1423 16.052 29.8797 15.6077L29.7518 15.3856L31.4819 13.5746C32.4312 12.585 33.2054 11.7569 33.1986 11.7368C33.1717 11.6694 30.1423 8.80828 30.1019 8.80828C30.0749 8.80828 29.3142 9.58248 28.4054 10.5384C27.4965 11.4877 26.7425 12.2686 26.7223 12.2753C26.7089 12.2821 26.6214 12.2417 26.5406 12.1811C26.3117 12.0262 25.7327 11.7098 25.4096 11.5617C24.4267 11.1107 23.5111 10.8347 22.4474 10.6798C21.8954 10.599 20.2393 10.5856 19.7277 10.6596C18.5024 10.8346 17.4993 11.1376 16.4761 11.6492C16.1798 11.7906 15.8365 11.9791 15.7019 12.0599L15.4595 12.208L15.1835 11.9387C15.0354 11.7906 14.3622 11.1578 13.6957 10.5182C13.0292 9.88542 12.3493 9.23914 12.1877 9.07757L11.8915 8.78809L10.4306 10.3499ZM21.7338 14.7393C22.8042 14.8672 23.7602 15.2307 24.6421 15.8501C25.0932 16.1665 25.7664 16.8397 26.0828 17.2908C27.8803 19.8355 27.5369 23.2958 25.2749 25.4164C23.3428 27.2206 20.549 27.6245 18.1995 26.4262C16.503 25.5578 15.3047 23.969 14.9209 22.0638C14.7998 21.4579 14.7998 20.3269 14.9209 19.7278C15.0354 19.1354 15.1902 18.7112 15.4797 18.1188C16.6376 15.7895 19.1487 14.4296 21.7338 14.7393Z" fill="#FAFAFA"/>
</svg>
