<svg xmlns="http://www.w3.org/2000/svg" width="36" height="36" fill="none"><path fill="#fff" d="M18 35.998a17.956 17.956 0 0 1-12.728-5.272A17.941 17.941 0 0 1 0 18 17.955 17.955 0 0 1 5.272 5.271 17.955 17.955 0 0 1 17.999 0a17.956 17.956 0 0 1 12.728 5.272 17.942 17.942 0 0 1 5.271 12.727 17.957 17.957 0 0 1-5.272 12.728A17.943 17.943 0 0 1 18 35.998Z"/><path fill="#000" d="M17.999 35.044c9.414 0 17.045-7.632 17.045-17.045C35.044 8.585 27.413.953 18 .953 8.585.953.954 8.585.954 18c0 9.413 7.631 17.045 17.045 17.045Z"/><path fill="#fff" d="M18.418 14.799v7.853l7.689-4.66-7.689-3.193ZM18.418 13.914l7.619 3.166-1.821-2.97 3.872-3.872-2.314-2.315-3.317 3.319-4.039-6.584v9.256ZM17.6 22.652V14.8l-7.69 3.194 7.69 4.66ZM9.981 17.08l7.619-3.166V4.658l-4.037 6.584-3.319-3.319-2.314 2.315 3.873 3.871-1.822 2.97ZM26.02 20.438l-7.602 4.607v6.102l3.128-4.408 3.265 3.265 2.314-2.314-3.657-3.657 2.552-3.596ZM17.6 25.045l-7.602-4.608 2.553 3.596-3.657 3.657 2.313 2.314 3.265-3.264 3.128 4.406v-6.101Z"/></svg>