<svg width="42" height="42" viewBox="0 0 42 42" fill="none" xmlns="http://www.w3.org/2000/svg">
<g clip-path="url(#clip0_4532_193647)">
<path d="M20.9989 41.9979C18.1646 41.9979 15.4147 41.4423 12.8248 40.3474C10.3239 39.2895 8.07926 37.7753 6.15019 35.8477C4.22261 33.9201 2.70839 31.6739 1.65052 29.1731C0.555606 26.5832 0 23.8332 0 20.9989C0 18.1646 0.555606 15.4147 1.65052 12.8248C2.70839 10.3239 4.22261 8.07926 6.15019 6.15019C8.07926 4.22261 10.3239 2.70839 12.8248 1.65052C15.4147 0.555606 18.1646 0 20.9989 0C23.8332 0 26.5832 0.555606 29.1731 1.65052C31.6739 2.70839 33.9186 4.22261 35.8477 6.15019C37.7753 8.07778 39.2895 10.3239 40.3474 12.8248C41.4423 15.4147 41.9979 18.1646 41.9979 20.9989C41.9979 23.8332 41.4423 26.5832 40.3474 29.1731C39.2895 31.6739 37.7753 33.9186 35.8477 35.8477C33.9201 37.7753 31.6739 39.2895 29.1731 40.3474C26.5832 41.4437 23.8332 41.9979 20.9989 41.9979Z" fill="white"/>
<path d="M21.0347 40.921C32.0176 40.921 40.921 32.0176 40.921 21.0347C40.921 10.0518 32.0176 1.14844 21.0347 1.14844C10.0518 1.14844 1.14844 10.0518 1.14844 21.0347C1.14844 32.0176 10.0518 40.921 21.0347 40.921Z" fill="white"/>
<path d="M21.4922 17.2266V26.3889L30.4619 20.9529L21.4922 17.2266Z" fill="black"/>
<path d="M21.4922 16.2121L30.3804 19.9058L28.2557 16.4417L32.7732 11.9243L30.0737 9.2233L26.2038 13.0948L21.4922 5.41406V16.2121Z" fill="black"/>
<path d="M20.5322 26.3889V17.2266L11.5625 20.9529L20.5322 26.3889Z" fill="black"/>
<path d="M11.6584 19.9058L20.5466 16.2121V5.41406L15.8365 13.0948L11.9651 9.2233L9.26562 11.9243L13.7831 16.4402L11.6584 19.9058Z" fill="black"/>
<path d="M30.3612 23.875L21.4922 29.2503V36.3694L25.1414 31.2268L28.9507 35.036L31.6501 32.3365L27.383 28.0694L30.3612 23.875Z" fill="black"/>
<path d="M20.4939 29.2503L11.625 23.875L14.603 28.0694L10.3359 32.3365L13.0354 35.036L16.8447 31.2283L20.4939 36.368V29.2503Z" fill="black"/>
</g>
<defs>
<clipPath id="clip0_4532_193647">
<rect width="42" height="42" fill="white"/>
</clipPath>
</defs>
</svg>
