<svg width="42" height="42" viewBox="0 0 42 42" fill="none" xmlns="http://www.w3.org/2000/svg">
<rect x="0.5" y="0.5" width="41" height="41" rx="20.5" fill="#1E2739"/>
<rect x="0.5" y="0.5" width="41" height="41" rx="20.5" stroke="#FAFAFA"/>
<path d="M27.347 27.2359V15.4237C27.4075 15.42 27.465 15.4131 27.5229 15.4131C28.9292 15.4124 30.3352 15.4084 31.7416 15.4142C32.7664 15.4182 33.7526 15.6126 34.6774 16.0673C35.988 16.7113 36.9134 17.7154 37.4012 19.0937C37.9408 20.6181 37.9393 22.1587 37.3448 23.6623C36.589 25.5747 35.1262 26.6716 33.1399 27.0823C32.6397 27.1857 32.1188 27.2221 31.6065 27.2293C30.2551 27.249 28.9034 27.2359 27.5516 27.2359H27.347ZM29.8882 17.4955V25.092C30.6531 25.092 31.4074 25.1426 32.1522 25.0803C33.366 24.9787 34.2722 24.362 34.7833 23.2389C35.2555 22.201 35.2977 21.1128 35.0145 20.0228C34.6588 18.6547 33.7814 17.7886 32.3663 17.5982C31.5552 17.489 30.7244 17.5254 29.8882 17.4955Z" fill="white"/>
<path d="M16.1424 23.3735H18.6049C18.6304 23.5097 18.646 23.6284 18.6751 23.7434C18.835 24.3729 19.2183 24.8228 19.8095 25.0773C20.5701 25.4046 21.355 25.4177 22.1333 25.1487C22.6237 24.9794 22.9794 24.6586 23.0726 24.1136C23.1614 23.592 22.9896 23.1704 22.5039 22.9563C22.0649 22.763 21.5945 22.6308 21.1274 22.5125C20.348 22.3145 19.558 22.1583 18.7778 21.9639C18.5281 21.9016 18.2881 21.7877 18.0548 21.6745C16.9721 21.1495 16.4435 20.263 16.4092 19.0765C16.3601 17.3731 17.3358 16.0811 19.0494 15.5645C19.2744 15.4968 19.5048 15.448 19.7495 15.3864V13.8745H22.0292V15.4043C22.2058 15.4472 22.3692 15.4822 22.5298 15.527C23.5921 15.8226 24.4706 16.3687 25.005 17.3709C25.2748 17.877 25.3993 18.4216 25.4018 19.0117H22.9295C22.9088 18.9185 22.8924 18.8239 22.8665 18.7321C22.6947 18.1227 22.3099 17.704 21.7154 17.4936C21.1005 17.2759 20.475 17.2846 19.8609 17.4951C19.1863 17.7262 18.8517 18.3011 18.9828 18.9531C19.0483 19.2786 19.2474 19.5109 19.5383 19.6263C19.9468 19.7879 20.3684 19.9259 20.7954 20.0304C21.612 20.2302 22.4388 20.3875 23.2553 20.587C23.5342 20.6551 23.8033 20.7807 24.0628 20.9081C25.1066 21.4193 25.6148 22.2784 25.6417 23.4256C25.6825 25.1694 24.6992 26.4997 22.9652 27.052C22.667 27.147 22.3583 27.2092 22.0379 27.2908V28.782H19.7615V27.2518C19.503 27.1848 19.2558 27.1313 19.0155 27.056C17.88 26.7003 16.9753 26.0599 16.4671 24.9462C16.2403 24.4493 16.1358 23.9247 16.1424 23.3735Z" fill="white"/>
<path d="M12.0323 15.4173H14.5577C14.5625 15.4646 14.5708 15.5105 14.5708 15.5564C14.5708 17.8354 14.5748 20.1147 14.5661 22.3937C14.5635 23.0935 14.4591 23.7823 14.2323 24.4478C13.7521 25.857 12.7982 26.7683 11.3511 27.136C10.2258 27.4221 9.09175 27.4218 7.97227 27.1098C6.40064 26.6722 5.48175 25.5986 5.07947 24.0484C4.91892 23.4291 4.85849 22.7968 4.85812 22.1586C4.85739 19.9644 4.85776 17.7698 4.85776 15.5757C4.85776 15.5283 4.85776 15.481 4.85776 15.4224H7.39815C7.39815 15.4923 7.39815 15.5626 7.39815 15.6328C7.39815 17.8514 7.39306 20.07 7.40325 22.2885C7.40507 22.6675 7.44002 23.0531 7.51611 23.424C7.74183 24.5231 8.40405 25.09 9.52207 25.1457C9.82679 25.161 10.1432 25.1329 10.4406 25.0648C11.2892 24.8715 11.7345 24.2734 11.9063 23.4623C11.9871 23.0804 12.0246 22.6825 12.0264 22.2911C12.0373 20.0787 12.0319 17.8663 12.0319 15.6536C12.0319 15.5819 12.0323 15.5098 12.0323 15.4173Z" fill="white"/>
</svg>
