<svg xmlns="http://www.w3.org/2000/svg" width="42" height="42" fill="none"><circle cx="21" cy="21" r="21" fill="#26B6EA"/><path fill="#F3F3F3" fill-rule="evenodd" d="m22.166 8.232 6.632 3.407c.251.124.44.31.566.496V29.85a1.185 1.185 0 0 1-.535.495l-6.632 3.407a2.6 2.6 0 0 1-1.1.248c-.408 0-.785-.093-1.1-.248l-6.632-3.407a1.184 1.184 0 0 1-.534-.495V12.135c.094-.186.283-.372.534-.496l6.6-3.407c.63-.31 1.572-.31 2.201 0Zm-8.328 4.182 6.537-3.406c.377-.186 1.006-.186 1.383 0l6.538 3.406a.435.435 0 0 1 .126.093c-.032.031-.063.062-.126.093l-6.538 3.407c-.377.186-1.006.186-1.383 0L13.838 12.6a.432.432 0 0 1-.126-.093c.031-.03.063-.062.126-.093Zm-.126 1.058v6.349l6.098-3.19-6.098-3.16Zm8.643 3.18 6.097-3.159v6.35l-6.098-3.19Zm-1.728.567a2.17 2.17 0 0 0-.252.093l-6.537 3.375c-.063.031-.095.062-.126.093.031.031.063.062.126.093l6.537 3.407c.047.016.087.031.126.046.04.016.078.032.126.047v-7.154Zm.874 0v7.154a.6.6 0 0 0 .251-.062l6.538-3.407c.063-.03.094-.062.126-.093-.032-.03-.063-.062-.126-.093l-6.538-3.406c-.047-.016-.086-.031-.125-.047-.04-.015-.079-.03-.126-.046Zm-7.79 4.583 6.287 3.252c.031.015.07.03.11.046.04.016.079.031.11.047-.031.015-.07.03-.11.046-.04.015-.079.031-.11.046l-6.286 3.252v-6.69Zm14.741 0-6.286 3.252c-.048.047-.114.076-.17.101a1.207 1.207 0 0 0-.05.023c.032.015.071.03.11.046.04.015.079.031.11.046l6.286 3.252v-6.72Zm-6.694 11.215 6.538-3.407c.063-.031.094-.062.125-.093-.031-.03-.062-.062-.125-.093l-6.538-3.407c-.377-.186-1.006-.186-1.383 0l-6.537 3.407a.434.434 0 0 0-.126.093.434.434 0 0 0 .126.093l6.537 3.407c.377.185 1.006.185 1.383 0Z" clip-rule="evenodd"/><path fill="#F3F3F3" d="m30.052 9.257-.158-.093-.471.743.157.093c1.163.682 1.54.898 1.54 2.509H32c0-2.075-.723-2.509-1.948-3.252ZM10.88 29.201H10c0 2.075.755 2.509 1.95 3.252l.157.093.471-.743-.157-.093c-1.163-.682-1.54-.93-1.54-2.509Z"/></svg>