<svg xmlns="http://www.w3.org/2000/svg" width="42" height="42" fill="none"><path fill="#222" d="M21 41c11.046 0 20-8.954 20-20S32.046 1 21 1 1 9.954 1 21s8.954 20 20 20Z"/><path fill="#fff" d="M12.314 9.818 11 11.132l1.662 1.662 1.666 1.662-.137.407c-.178.534-.25.98-.25 1.572 0 1.927 1.008 3.568 2.794 4.544.719.392 1.953.835 3.321 1.187 2.672.686 3.082.806 3.608 1.053.719.34 1.075.711 1.223 1.27.066.243.062.788-.003 1.05-.167.634-.708 1.273-1.38 1.622-.907.475-2.486.606-3.676.3-.443-.108-1.071-.416-1.387-.674-.642-.53-1.143-1.445-1.365-2.501-.036-.167-.065-.309-.069-.316-.01-.014-3.728.349-3.746.37-.014.011-.003.164.022.338.116.838.41 1.837.748 2.53l.196.403-1.615 1.615L11 30.84l1.318 1.318 1.314 1.314 1.666-1.666 1.662-1.663.287.12c1.517.639 3.793.838 6 .52.53-.077 1.296-.259 1.699-.407l.24-.087 1.593 1.593 1.59 1.59 1.313-1.314L31 30.84l-1.477-1.477-1.474-1.474.185-.377c.385-.773.545-1.43.577-2.334.058-1.724-.388-3.024-1.404-4.095-1.06-1.114-2.255-1.644-5.627-2.493-2.377-.596-3.4-1.006-3.807-1.521-.403-.508-.44-1.22-.087-1.739.203-.301.704-.624 1.248-.806.614-.207 1.645-.3 2.41-.221 1.616.17 2.429.86 2.784 2.37.044.185.084.341.088.349.007.01 2.635-.084 3.422-.124l.45-.021-.025-.316a6.221 6.221 0 0 0-.41-1.815l-.127-.338 1.637-1.64L31 11.132l-1.314-1.318L28.368 8.5l-1.655 1.655-1.659 1.659-.402-.152c-.991-.37-1.95-.534-3.362-.574-1.542-.04-2.896.16-3.934.58l-.385.157-1.67-1.663-1.67-1.662-1.317 1.318Z"/></svg>