<svg width="42" height="42" viewBox="0 0 42 42" fill="none" xmlns="http://www.w3.org/2000/svg">
<path d="M21 41C32.0457 41 41 32.0457 41 21C41 9.9543 32.0457 1 21 1C9.9543 1 1 9.9543 1 21C1 32.0457 9.9543 41 21 41Z" fill="#222222"/>
<path d="M22.2496 8.76477L32.3333 14.3669L28.3333 16.7002L21.7622 13.1408C20.8708 12.658 19.7959 12.658 18.9045 13.1408L12.3333 16.7002V23.58C12.3333 24.681 12.9364 25.6935 13.9045 26.2179L20.3333 29.7002L26.7622 26.2179C27.7303 25.6935 28.3333 24.681 28.3333 23.58V22.0335L25.6667 23.3669V19.3669L34 15.0335V19.7002L32.3333 20.3669V25.0694C32.3333 26.4921 31.5777 27.8077 30.3488 28.5245L20.3333 34.3669L10.0256 28.5165C8.77358 27.8059 8 26.4774 8 25.0378V14.3669L18.4049 8.74257C19.6062 8.09321 21.0558 8.10158 22.2496 8.76477Z" fill="#C85553"/>
</svg>
