<svg width="42" height="42" viewBox="0 0 42 42" fill="none" xmlns="http://www.w3.org/2000/svg">
<mask id="mask0_3145_261640" style="mask-type:alpha" maskUnits="userSpaceOnUse" x="0" y="0" width="42" height="42">
<circle cx="21" cy="21" r="21" fill="#D9D9D9"/>
</mask>
<g mask="url(#mask0_3145_261640)">
<path d="M-21 0V42H63V0H-21Z" fill="#012169"/>
<path d="M-21 0L63 42L-21 0ZM63 0L-21 42L63 0Z" fill="black"/>
<path d="M-21 0L63 42M63 0L-21 42" stroke="white" stroke-width="8.4"/>
<path d="M-21 0L63 42L-21 0ZM63 0L-21 42L63 0Z" fill="black"/>
<path d="M-21 0L63 42M63 0L-21 42" stroke="#C8102E" stroke-width="5.6"/>
<path d="M21 0V42V0ZM-21 21H63H-21Z" fill="black"/>
<path d="M21 0V42M-21 21H63" stroke="white" stroke-width="14"/>
<path d="M21 0V42V0ZM-21 21H63H-21Z" fill="black"/>
<path d="M21 0V42M-21 21H63" stroke="#C8102E" stroke-width="8.4"/>
</g>
</svg>
