<svg xmlns="http://www.w3.org/2000/svg" id="a" viewBox="0 0 100 100" class="light"><defs><style>.b{fill-rule:evenodd;}.b,.c,.d{stroke-width:0px;}.b,.d{fill:#cab3f9;}.c{fill:#201f2d;}</style></defs><circle class="c" cx="50" cy="50" r="50"/><path class="b" d="m40.215675354003906,23.039556503295898h19.675491333007812l6.180793762207031,10.270284652709961h-25.743785858154297v.000534057617188c-8.990457534790039,0-16.278936386108398,7.472347259521484-16.278936386108398,16.689548492431641,0,9.130916595458984,7.152153015136719,16.549545288085938,16.026884078979492,16.687652587890625h33.254947662353516l-10.015995025634766-16.686592102050781h12.522464752197266l10.016380310058594,16.686592102050781h.114967346191406v10.255027770996094h-45.640712738037109v.017837524414062c-.320079803466797,0-.638835906982422-.006072998046875-.956142425537109-.017837524414062h-1.163387298583984v-.068672180175781c-13.532220840454102-1.106399536132812-24.177529335021973-12.715965270996094-24.177529335021973-26.874008178710938,0-14.851207733154297,11.712965965270996-26.897985458374023,26.18455982208252-26.960124969482422v-.000242233276367Z"/><path class="b" d="m44.085254669189453,42.396293640136719c0,2.836185455322266-2.24261474609375,5.135372161865234-5.009059906005859,5.135372161865234-2.766407012939453,0-5.009063720703125-2.299186706542969-5.009063720703125-5.135372161865234,0-2.836223602294922,2.242656707763672-5.135448455810547,5.009063720703125-5.135448455810547,2.766445159912109,0,5.009059906005859,2.299224853515625,5.009059906005859,5.135448455810547Z"/><ellipse class="d" cx="39.076193809509277" cy="56.617754936218262" rx="5.009060859712943" ry="5.13539028167944"/></svg>