<svg width="42" height="42" viewBox="0 0 42 42" fill="none" xmlns="http://www.w3.org/2000/svg">
<path d="M21 41C32.0457 41 41 32.0457 41 21C41 9.9543 32.0457 1 21 1C9.9543 1 1 9.9543 1 21C1 32.0457 9.9543 41 21 41Z" fill="#222222"/>
<path d="M25.9069 8.77457C29.4449 10.2838 31.8036 14.0029 31.5356 17.7759C25.2101 17.7759 18.8846 17.8297 12.5591 17.7219C12.5591 15.1887 13.4168 12.6015 15.2394 10.8228C17.9197 8.07388 22.369 7.21148 25.9069 8.77457Z" fill="#5FC0C1"/>
<path d="M25.6383 33.0303C26.0136 33.0303 26.3352 33.2459 26.3352 33.5154C26.3352 33.7849 26.0136 34.0005 25.6383 34.0005H15.4532C15.078 34.0005 14.7563 33.7849 14.7563 33.5154C14.7563 33.2459 15.078 33.0303 15.4532 33.0303H25.6383Z" fill="#E1177C"/>
<path d="M13.2561 34C13.6411 34 13.9532 33.6863 13.9532 33.2993C13.9532 32.9123 13.6411 32.5986 13.2561 32.5986C12.8712 32.5986 12.5591 32.9123 12.5591 33.2993C12.5591 33.6863 12.8712 34 13.2561 34Z" fill="#E1177C"/>
<path d="M19.3674 31.4131C19.7524 31.4131 20.0645 31.0994 20.0645 30.7124C20.0645 30.3254 19.7524 30.0117 19.3674 30.0117C18.9825 30.0117 18.6704 30.3254 18.6704 30.7124C18.6704 31.0994 18.9825 31.4131 19.3674 31.4131Z" fill="#E1177C"/>
<path d="M31.3209 30.0117C31.6961 30.0117 32.0178 30.3351 32.0178 30.7124C32.0178 31.0897 31.6961 31.4131 31.3209 31.4131H21.3502C20.975 31.4131 20.6533 31.0897 20.6533 30.7124C20.6533 30.3351 20.975 30.0117 21.3502 30.0117H31.3209Z" fill="#E1177C"/>
<path d="M6.28737 28.8262C6.67234 28.8262 6.9844 28.5125 6.9844 28.1255C6.9844 27.7385 6.67234 27.4248 6.28737 27.4248C5.90241 27.4248 5.59033 27.7385 5.59033 28.1255C5.59033 28.5125 5.90241 28.8262 6.28737 28.8262Z" fill="#E1177C"/>
<path d="M16.2047 27.4248C16.58 27.4248 16.9016 27.7482 16.9016 28.1255C16.9016 28.5028 16.58 28.8262 16.2047 28.8262H8.00303C7.62779 28.8262 7.30615 28.5028 7.30615 28.1255C7.30615 27.7482 7.62779 27.4248 8.00303 27.4248H16.2047Z" fill="#E1177C"/>
<path d="M34.5912 27.4248C34.9665 27.4248 35.2881 27.7482 35.2881 28.1255C35.2881 28.5028 34.9665 28.8262 34.5912 28.8262H18.295C17.9198 28.8262 17.5981 28.5028 17.5981 28.1255C17.5981 27.7482 17.9198 27.4248 18.295 27.4248H34.5912Z" fill="#E1177C"/>
<path d="M31.5351 24.8379C31.9104 24.8379 32.232 25.1613 32.232 25.5386C32.232 25.9159 31.9104 26.2393 31.5351 26.2393H11.5401C11.1649 26.2393 10.8433 25.9159 10.8433 25.5386C10.8433 25.1613 11.1649 24.8379 11.5401 24.8379H31.5351Z" fill="#E1177C"/>
<path d="M9.34352 26.2393C9.72849 26.2393 10.0406 25.9256 10.0406 25.5386C10.0406 25.1516 9.72849 24.8379 9.34352 24.8379C8.95856 24.8379 8.64648 25.1516 8.64648 25.5386C8.64648 25.9256 8.95856 26.2393 9.34352 26.2393Z" fill="#E1177C"/>
<path d="M27.354 22.3037C27.7292 22.3037 28.0509 22.6271 28.0509 23.0044C28.0509 23.3817 27.7292 23.7051 27.354 23.7051H7.35899C6.98375 23.7051 6.66211 23.3817 6.66211 23.0044C6.66211 22.6271 6.98375 22.3037 7.35899 22.3037H27.354Z" fill="#E1177C"/>
<path d="M4.94704 23.7051C5.332 23.7051 5.64407 23.3914 5.64407 23.0044C5.64407 22.6174 5.332 22.3037 4.94704 22.3037C4.56208 22.3037 4.25 22.6174 4.25 23.0044C4.25 23.3914 4.56208 23.7051 4.94704 23.7051Z" fill="#E1177C"/>
<path d="M9.34352 21.1182C9.72849 21.1182 10.0406 20.8045 10.0406 20.4175C10.0406 20.0305 9.72849 19.7168 9.34352 19.7168C8.95856 19.7168 8.64648 20.0305 8.64648 20.4175C8.64648 20.8045 8.95856 21.1182 9.34352 21.1182Z" fill="#E1177C"/>
<path d="M33.4648 19.7168C33.84 19.7168 34.1617 20.0402 34.1617 20.4175C34.1617 20.7948 33.84 21.1182 33.4648 21.1182H11.7008C11.3255 21.1182 11.0039 20.7948 11.0039 20.4175C11.0039 20.0402 11.3255 19.7168 11.7008 19.7168H33.4648Z" fill="#E1177C"/>
</svg>
