<svg xmlns="http://www.w3.org/2000/svg" width="36" height="36" fill="none"><rect width="36" height="36" fill="#BBC0DA" rx="18"/><path fill="#030303" d="M17.053 16v-.639c0-4.412-2.613-5.606-5.503-5.606s-5.503 1.564-5.503 5.977v4.526c0 2.962 1.255 5.976 4.619 5.976 1.542 0 2.53-.74 2.962-1.45l.35 1.224h3.075v-8.445h-5.338v2.715h1.193v.576c0 1.379-.195 2.654-1.06 2.654-.874 0-1.06-1.265-1.06-2.654v-5.801c0-1.348.094-2.582.762-2.582.669 0 .761 1.234.761 2.582v.946h4.742Zm8.2-1.05h4.381v-.679c0-3.127-2.088-4.516-5.184-4.516-2.962 0-5.184 1.656-5.184 4.557 0 5.431 6.151 4.238 6.151 7.92 0 .968-.38 1.287-.844 1.287-.462 0-.843-.32-.843-1.286v-1.338h-4.433v.638c0 3.271 2.139 4.711 5.328 4.711 3.055 0 5.328-1.697 5.328-4.742 0-6.058-6.326-4.382-6.326-7.735 0-.967.39-1.286.813-1.286.411 0 .813.32.813 1.286v1.183Z"/></svg>