<svg xmlns="http://www.w3.org/2000/svg" width="36" height="36" fill="none"><g clip-path="url(#a)"><path fill="#E6BC7B" d="M18 36c9.941 0 18-8.059 18-18S27.941 0 18 0 0 8.059 0 18s8.059 18 18 18Z"/><path stroke="#000" stroke-linecap="round" stroke-width="1.714" d="M24.859 12.857H11.402a.257.257 0 0 0-.257.257v9.772c0 .142.115.257.257.257h13.2a.257.257 0 0 0 .257-.257v-4.629a.257.257 0 0 0-.257-.257h-8.315m-.428-6V9.257c0-.142.115-.257.257-.257h3.771c.142 0 .258.115.258.257V12m0 15.429V24m-4.286 3.429V24"/><circle cx="17.999" cy="17.998" r="14.143" stroke="#030303" stroke-width="1.714"/></g><defs><clipPath id="a"><path fill="#fff" d="M0 0h36v36H0z"/></clipPath></defs></svg>