<svg width="42" height="42" viewBox="0 0 42 42" fill="none" xmlns="http://www.w3.org/2000/svg">
<g clip-path="url(#clip0_4532_195601)">
<mask id="mask0_4532_195601" style="mask-type:luminance" maskUnits="userSpaceOnUse" x="0" y="0" width="42" height="42">
<path d="M0 0H42V42H0V0Z" fill="white"/>
</mask>
<g mask="url(#mask0_4532_195601)">
<path d="M21 42C32.5978 42 42 32.5978 42 21C42 9.40217 32.5978 0 21 0C9.40217 0 0 9.40217 0 21C0 32.5978 9.40217 42 21 42Z" fill="#E6BC7B"/>
<path d="M29.0465 14.9998H13.3467C13.2672 14.9998 13.1909 15.0314 13.1347 15.0877C13.0785 15.1439 13.0469 15.2201 13.0469 15.2997V26.7003C13.0469 26.866 13.181 27.0002 13.3467 27.0002H28.7467C28.8262 27.0002 28.9025 26.9686 28.9587 26.9123C29.015 26.8561 29.0465 26.7799 29.0465 26.7003V21.2998C29.0465 21.2605 29.0388 21.2215 29.0237 21.1851C29.0086 21.1487 28.9866 21.1157 28.9587 21.0878C28.9309 21.06 28.8978 21.0379 28.8614 21.0228C28.8251 21.0078 28.7861 21 28.7467 21H19.0459M18.5465 14V10.7998C18.5465 10.6342 18.6807 10.5 18.8464 10.5H23.2459C23.4115 10.5 23.5469 10.6342 23.5469 10.7998V14M23.5469 32.0005V28M18.5465 32.0005V28" stroke="black" stroke-width="1.99967" stroke-linecap="round"/>
<path d="M21.0158 37.516C30.1286 37.516 37.516 30.1286 37.516 21.0158C37.516 11.903 30.1286 4.51562 21.0158 4.51562C11.903 4.51562 4.51562 11.903 4.51562 21.0158C4.51562 30.1286 11.903 37.516 21.0158 37.516Z" stroke="#030303" stroke-width="1.99967"/>
</g>
</g>
<defs>
<clipPath id="clip0_4532_195601">
<rect width="42" height="42" fill="white"/>
</clipPath>
</defs>
</svg>
