<svg xmlns="http://www.w3.org/2000/svg" width="42" height="42" fill="none"><circle cx="21" cy="21" r="20" fill="#222"/><path fill="#F3F3F3" d="m31.868 14.293-.988.985c.785 1.232 1.032 2.777.494 4.254-.899 2.508-3.682 3.83-6.22 2.934a4.478 4.478 0 0 1-.988-.493L21 25.13l-2.762-2.777a5.058 5.058 0 0 1-4.468.56c-2.605-.94-3.952-3.784-3.01-6.359.135-.403.338-.762.562-1.096l-1.19-1.187-.224.38A12.897 12.897 0 0 0 8 21.391c-.023 7.142 5.815 12.986 12.977 12.986H21c7.162 0 12.978-5.799 13-12.942 0-2.376-.653-4.707-1.886-6.74l-.246-.402Z"/><path fill="#F3F3F3" d="M12.777 16.909a2.65 2.65 0 0 0 2.11 4.254c.608 0 1.17-.203 1.618-.56l-3.728-3.694ZM25.78 20.377c.427.29.92.448 1.482.448a2.65 2.65 0 0 0 2.65-2.642c0-.537-.158-1.053-.45-1.479l-3.682 3.673ZM21.044 23.161 10.312 12.413l.427-.447A13.873 13.873 0 0 1 20.886 7.6h.022a13.95 13.95 0 0 1 10.328 4.59l.404.447L21.044 23.16Zm-8.98-10.748 8.98 8.98 8.87-8.8c-2.381-2.373-5.614-3.74-8.982-3.74h-.023c-3.346 0-6.466 1.255-8.845 3.56Z"/></svg>