<svg width="42" height="42" viewBox="0 0 42 42" fill="none" xmlns="http://www.w3.org/2000/svg">
<g clip-path="url(#clip0_11907_310305)">
<circle cx="21" cy="21" r="21" fill="#222222"/>
<path fill-rule="evenodd" clip-rule="evenodd" d="M8.09616 22.3051L8.31791 22.6932C9.03862 23.9498 10.6463 24.3749 11.903 23.6542L22.9907 17.2416L23.656 18.3135L24.0995 19.0711L24.1734 19.4038V30.8244C24.1734 32.2658 25.3561 33.4485 26.7975 33.4485H27.241C28.6824 33.4485 29.8651 32.2658 29.8651 30.8244V12.8249C29.8651 11.4759 29.0336 10.3117 27.8509 9.81272C26.7606 9.23984 25.467 9.25832 24.3952 9.86816L9.07558 18.72C7.81896 19.4407 7.39393 21.0485 8.11464 22.3051H8.09616Z" fill="url(#paint0_linear_11907_310305)"/>
<path fill-rule="evenodd" clip-rule="evenodd" d="M16.4143 16.9698C17.56 16.8034 20.0917 17.0252 21.145 17.2654C22.1984 17.5057 23.1408 18.2634 23.1408 18.2634C23.1408 18.2634 23.1039 18.2449 23.0484 18.2264C23.8431 18.5775 24.1757 19.3906 24.1757 19.3906C23.8246 15.5098 21.0896 12.6085 16.599 14.3641L9.35504 18.5405C9.31808 18.559 10.2421 17.8568 16.4327 16.9513L16.4143 16.9698ZM21.4777 18.1894C21.2929 18.2449 21.0896 18.3373 20.8678 18.4481C21.0711 18.3373 21.2744 18.2449 21.4777 18.1894Z" fill="url(#paint1_linear_11907_310305)"/>
<path fill-rule="evenodd" clip-rule="evenodd" d="M13.2565 28.9357L17.322 26.6257L17.5807 26.4779C17.5807 26.4779 18.0242 26.2376 18.3938 26.4779C18.7634 26.7181 18.7449 27.0323 18.7449 27.0323L18.8004 32.1882C18.8004 32.1882 18.6525 32.6132 18.3938 32.761C18.1351 32.9089 17.9688 32.9458 17.5622 32.8165C16.2697 32.507 14.0697 31.407 12.9608 30.0075C12.8315 29.7858 12.8684 29.5271 12.9239 29.3977C12.9978 29.1205 13.1641 28.9911 13.2565 28.9357Z" fill="url(#paint2_linear_11907_310305)"/>
<path fill-rule="evenodd" clip-rule="evenodd" d="M7.74586 21.0685C7.74586 21.0685 7.52411 19.8858 8.72528 18.9249C8.87312 18.814 9.03943 18.7031 9.22423 18.6107C10.9613 17.5943 15.2671 17.1323 16.4128 16.966C17.5585 16.7997 20.0902 17.0214 21.1436 17.2617C22.1969 17.5019 23.1394 18.2596 23.1394 18.2596C23.1394 18.2596 22.0491 17.7791 20.8849 18.4444C19.7206 19.1097 11.9038 23.6373 11.9038 23.6373C11.9038 23.6373 11.0168 24.0992 10.4069 23.9884C9.77862 23.859 9.09487 23.7851 8.50353 22.972C8.39265 22.7872 8.31873 22.6948 8.17089 22.4361L7.93066 21.9371L7.8013 21.4751L7.76434 21.0685H7.74586Z" fill="url(#paint3_linear_11907_310305)"/>
</g>
<defs>
<linearGradient id="paint0_linear_11907_310305" x1="18.8146" y1="9.39648" x2="18.8146" y2="33.4485" gradientUnits="userSpaceOnUse">
<stop stop-color="#4DFC8D"/>
<stop offset="1" stop-color="#1FC3F1"/>
</linearGradient>
<linearGradient id="paint1_linear_11907_310305" x1="18.2514" y1="13.5924" x2="16.4773" y2="20.005" gradientUnits="userSpaceOnUse">
<stop stop-color="#216882"/>
<stop offset="0.298" stop-color="#3AA698"/>
<stop offset="0.5412" stop-color="#53E4AF"/>
<stop offset="1" stop-color="#53E4AF"/>
</linearGradient>
<linearGradient id="paint2_linear_11907_310305" x1="13.7929" y1="27.1769" x2="18.8748" y2="30.5956" gradientUnits="userSpaceOnUse">
<stop stop-color="#4DFC8D"/>
<stop offset="0.502" stop-color="#1FC3F1"/>
<stop offset="1" stop-color="#1FC3F1"/>
</linearGradient>
<linearGradient id="paint3_linear_11907_310305" x1="16.4428" y1="16.3952" x2="13.7632" y2="24.3046" gradientUnits="userSpaceOnUse">
<stop stop-color="#216882"/>
<stop offset="1" stop-color="#53E4AF"/>
</linearGradient>
<clipPath id="clip0_11907_310305">
<rect width="42" height="42" fill="white"/>
</clipPath>
</defs>
</svg>
