<svg xmlns="http://www.w3.org/2000/svg" width="36" height="36" fill="none"><g clip-path="url(#a)"><g clip-path="url(#b)"><path fill="url(#c)" d="M18 36c9.941 0 18-8.059 18-18S27.941 0 18 0 0 8.059 0 18s8.059 18 18 18Z"/><path fill="url(#d)" fill-rule="evenodd" d="m6.785 18.767.192.338a2.28 2.28 0 0 0 3.113.835l9.629-5.568.578.932.385.658.065.289v9.917a2.288 2.288 0 0 0 2.278 2.28h.385a2.288 2.288 0 0 0 2.279-2.28v-15.63c0-1.17-.722-2.183-1.75-2.616a3.114 3.114 0 0 0-3 .049L7.635 15.658a2.28 2.28 0 0 0-.836 3.113h-.016l.002-.004Z" clip-rule="evenodd"/><path fill="url(#e)" fill-rule="evenodd" d="M14.008 14.128c.994-.145 3.193.05 4.108.257.914.208 1.734.867 1.734.867s-.032-.016-.08-.031c.69.304.978 1.011.978 1.011-.304-3.369-2.68-5.889-6.58-4.365l-6.29 3.626c-.032.016.77-.594 6.146-1.38l-.016.015Zm4.397 1.06a3.37 3.37 0 0 0-.53.225c.177-.096.353-.177.53-.226Z" clip-rule="evenodd"/><path fill="url(#f)" fill-rule="evenodd" d="m11.264 24.527 3.53-2.006.226-.128s.384-.208.706 0c.321.208.304.48.304.48l.049 4.478s-.128.369-.353.498c-.226.13-.37.16-.722.05-1.204-.403-3.338-1.268-3.997-2.44a.623.623 0 0 1-.031-.53.647.647 0 0 1 .288-.402Z" clip-rule="evenodd"/><path fill="url(#g)" fill-rule="evenodd" d="M6.481 17.694s-.192-1.028.851-1.861c.128-.096.273-.193.433-.273 1.509-.882 5.248-1.284 6.243-1.428.994-.145 3.193.05 4.108.257.914.208 1.734.867 1.734.867s-.947-.418-1.957.16c-1.012.58-7.8 4.51-7.8 4.51s-.77.402-1.3.304c-.545-.112-1.14-.177-1.653-.883-.096-.16-.161-.241-.289-.465l-.207-.433-.112-.402-.032-.353h-.019Z" clip-rule="evenodd"/></g></g><defs><linearGradient id="c" x1="18" x2="18" y1="36.002" y2="3.59" gradientUnits="userSpaceOnUse"><stop stop-color="#CCC"/><stop offset=".03" stop-color="#D0D0D0"/><stop offset=".26" stop-color="#EAEAEA"/><stop offset=".47" stop-color="#F9F9F9"/><stop offset=".64" stop-color="#fff"/></linearGradient><linearGradient id="d" x1="16.095" x2="16.095" y1="7.558" y2="28.445" gradientUnits="userSpaceOnUse"><stop stop-color="#84F697"/><stop offset="1" stop-color="#5AC0EB"/></linearGradient><linearGradient id="e" x1="15.603" x2="14.062" y1="11.196" y2="16.765" gradientUnits="userSpaceOnUse"><stop stop-color="#35677F"/><stop offset=".3" stop-color="#59A397"/><stop offset=".54" stop-color="#7EDFB2"/><stop offset="1" stop-color="#7EDFB2"/></linearGradient><linearGradient id="f" x1="11.729" x2="16.142" y1="23.001" y2="25.971" gradientUnits="userSpaceOnUse"><stop stop-color="#84F697"/><stop offset=".5" stop-color="#5AC0EB"/><stop offset="1" stop-color="#5AC0EB"/></linearGradient><linearGradient id="g" x1="14.034" x2="11.706" y1="13.636" y2="20.504" gradientUnits="userSpaceOnUse"><stop stop-color="#35677F"/><stop offset="1" stop-color="#7EDFB2"/></linearGradient><clipPath id="a"><path fill="#fff" d="M0 0h36v36H0z"/></clipPath><clipPath id="b"><path fill="#fff" d="M0 0h36v36H0z"/></clipPath></defs></svg>