<svg width="42" height="42" viewBox="0 0 42 42" fill="none" xmlns="http://www.w3.org/2000/svg">
<g clip-path="url(#clip0_4532_195609)">
<mask id="mask0_4532_195609" style="mask-type:luminance" maskUnits="userSpaceOnUse" x="0" y="0" width="42" height="42">
<path d="M0 0H42V42H0V0Z" fill="white"/>
</mask>
<g mask="url(#mask0_4532_195609)">
<mask id="mask1_4532_195609" style="mask-type:luminance" maskUnits="userSpaceOnUse" x="0" y="0" width="42" height="42">
<path d="M0 0H42V42H0V0Z" fill="white"/>
</mask>
<g mask="url(#mask1_4532_195609)">
<path d="M21 42C32.5978 42 42 32.5978 42 21C42 9.40217 32.5978 0 21 0C9.40217 0 0 9.40217 0 21C0 32.5978 9.40217 42 21 42Z" fill="url(#paint0_linear_4532_195609)"/>
<path fill-rule="evenodd" clip-rule="evenodd" d="M7.88572 21.9331L8.10972 22.3274C8.46236 22.938 9.04299 23.3836 9.724 23.5662C10.405 23.7489 11.1307 23.6537 11.7416 23.3016L22.9754 16.8056L23.6497 17.8929L24.0989 18.6606L24.1747 18.9978V30.5676C24.1772 31.2719 24.4579 31.9467 24.9557 32.445C25.4535 32.9432 26.1281 33.2245 26.8324 33.2276H27.2816C27.9861 33.2248 28.6609 32.9437 29.159 32.4454C29.6571 31.9471 29.9379 31.2721 29.9404 30.5676V12.3326C29.9404 10.9676 29.0981 9.78577 27.8987 9.28061C27.3577 8.99459 26.7532 8.84987 26.1414 8.85986C25.5295 8.86985 24.9301 9.03424 24.3987 9.33777L8.87739 18.3059C8.26662 18.6584 7.8208 19.2389 7.63791 19.92C7.45501 20.601 7.55002 21.3268 7.90205 21.9378H7.88339L7.88572 21.9331Z" fill="url(#paint1_linear_4532_195609)"/>
<path fill-rule="evenodd" clip-rule="evenodd" d="M16.3402 16.4577C17.4999 16.2885 20.0654 16.516 21.1329 16.7575C22.1992 17.0002 23.1559 17.769 23.1559 17.769C23.1559 17.769 23.1185 17.7503 23.0625 17.7328C23.8675 18.0875 24.2035 18.9123 24.2035 18.9123C23.8489 14.9818 21.0769 12.0418 16.5269 13.8198L9.18855 18.0502C9.15121 18.0688 10.0869 17.3572 16.3589 16.4402L16.3402 16.4577ZM21.47 17.6943C21.2568 17.764 21.05 17.8518 20.8517 17.9568C21.0582 17.8448 21.2635 17.7515 21.47 17.6943Z" fill="url(#paint2_linear_4532_195609)"/>
<path fill-rule="evenodd" clip-rule="evenodd" d="M13.1071 28.5975L17.2254 26.2572L17.4891 26.1079C17.4891 26.1079 17.9371 25.8652 18.3127 26.1079C18.6872 26.3505 18.6674 26.6679 18.6674 26.6679L18.7246 31.8922C18.7246 31.8922 18.5752 32.3227 18.3127 32.4732C18.0491 32.6249 17.8811 32.6599 17.4704 32.5315C16.0657 32.0614 13.5761 31.0522 12.8072 29.6849C12.756 29.5908 12.7262 29.4866 12.72 29.3797C12.7137 29.2728 12.7312 29.1659 12.7711 29.0665C12.8165 28.8719 12.9374 28.7032 13.1071 28.5975Z" fill="url(#paint3_linear_4532_195609)"/>
<path fill-rule="evenodd" clip-rule="evenodd" d="M7.5631 20.6205C7.5631 20.6205 7.3391 19.4211 8.55593 18.4493C8.70526 18.3373 8.87443 18.2241 9.0611 18.1308C10.8216 17.1018 15.1838 16.6328 16.3446 16.4648C17.5043 16.2956 20.0698 16.5231 21.1373 16.7646C22.2036 17.0073 23.1603 17.7761 23.1603 17.7761C23.1603 17.7761 22.0554 17.2885 20.8771 17.9628C19.6964 18.6395 11.7771 23.2245 11.7771 23.2245C11.7771 23.2245 10.8788 23.6935 10.2604 23.5791C9.6246 23.4485 8.93043 23.3726 8.33193 22.549C8.21993 22.3623 8.1441 22.2678 7.99476 22.0065L7.75326 21.5013L7.6226 21.0323L7.58526 20.6205H7.5631Z" fill="url(#paint4_linear_4532_195609)"/>
</g>
</g>
</g>
<defs>
<linearGradient id="paint0_linear_4532_195609" x1="21" y1="42.0023" x2="21" y2="4.18833" gradientUnits="userSpaceOnUse">
<stop stop-color="#CCCCCC"/>
<stop offset="0.03" stop-color="#D0D0D0"/>
<stop offset="0.26" stop-color="#EAEAEA"/>
<stop offset="0.47" stop-color="#F9F9F9"/>
<stop offset="0.64" stop-color="white"/>
</linearGradient>
<linearGradient id="paint1_linear_4532_195609" x1="18.7474" y1="8.85594" x2="18.7474" y2="33.2241" gradientUnits="userSpaceOnUse">
<stop stop-color="#84F697"/>
<stop offset="1" stop-color="#5AC0EB"/>
</linearGradient>
<linearGradient id="paint2_linear_4532_195609" x1="18.201" y1="13.037" x2="16.4032" y2="19.5342" gradientUnits="userSpaceOnUse">
<stop stop-color="#35677F"/>
<stop offset="0.3" stop-color="#59A397"/>
<stop offset="0.54" stop-color="#7EDFB2"/>
<stop offset="1" stop-color="#7EDFB2"/>
</linearGradient>
<linearGradient id="paint3_linear_4532_195609" x1="13.6496" y1="26.8172" x2="18.7981" y2="30.2822" gradientUnits="userSpaceOnUse">
<stop stop-color="#84F697"/>
<stop offset="0.5" stop-color="#5AC0EB"/>
<stop offset="1" stop-color="#5AC0EB"/>
</linearGradient>
<linearGradient id="paint4_linear_4532_195609" x1="16.3749" y1="15.8861" x2="13.6589" y2="23.8988" gradientUnits="userSpaceOnUse">
<stop stop-color="#35677F"/>
<stop offset="1" stop-color="#7EDFB2"/>
</linearGradient>
<clipPath id="clip0_4532_195609">
<rect width="42" height="42" fill="white"/>
</clipPath>
</defs>
</svg>
