<svg width="42" height="42" viewBox="0 0 42 42" fill="none" xmlns="http://www.w3.org/2000/svg">
<path d="M21 41C32.0457 41 41 32.0457 41 21C41 9.9543 32.0457 1 21 1C9.9543 1 1 9.9543 1 21C1 32.0457 9.9543 41 21 41Z" fill="#6646EC"/>
<path fill-rule="evenodd" clip-rule="evenodd" d="M19.5996 26.2998C24.0179 26.2998 27.5996 22.7181 27.5996 18.2998C27.5996 13.8815 24.0179 10.2998 19.5996 10.2998C15.1813 10.2998 11.5996 13.8815 11.5996 18.2998C11.5996 22.7181 15.1813 26.2998 19.5996 26.2998ZM19.5994 23.2C22.3608 23.2 24.5994 20.9614 24.5994 18.2C24.5994 15.4386 22.3608 13.2 19.5994 13.2C16.838 13.2 14.5994 15.4386 14.5994 18.2C14.5994 20.9614 16.838 23.2 19.5994 23.2Z" fill="#F3F3F3"/>
<path d="M21 33L26 28" stroke="#F3F3F3" stroke-width="2" stroke-linecap="round"/>
<circle cx="29.5" cy="11.5" r="1.5" fill="#F3F3F3"/>
</svg>
