<svg xmlns="http://www.w3.org/2000/svg" width="42" height="42" fill="none"><path fill="#222" d="M21 41c11.046 0 20-8.954 20-20S32.046 1 21 1 1 9.954 1 21s8.954 20 20 20Z"/><path fill="#C85553" d="m22.25 8.765 10.083 5.602-4 2.333-6.57-3.56a3 3 0 0 0-2.859 0l-6.57 3.56v6.88a3 3 0 0 0 1.57 2.638l6.43 3.482 6.428-3.482a3 3 0 0 0 1.571-2.638v-1.546l-2.666 1.333v-4L34 15.033V19.7l-1.667.667v4.702a4 4 0 0 1-1.984 3.456l-10.016 5.842-10.307-5.85A4 4 0 0 1 8 25.037v-10.67l10.405-5.624a4 4 0 0 1 3.845.022Z"/></svg>