<svg width="42" height="42" viewBox="0 0 42 42" fill="none" xmlns="http://www.w3.org/2000/svg">
<circle cx="21" cy="21" r="20" fill="#222222"/>
<path d="M28.3912 8C26.9062 7.99885 25.4814 8.58698 24.4296 9.63529C23.3777 10.6836 22.7848 12.1064 22.781 13.5914V19.791C22.2032 19.83 21.6124 19.8546 21 19.8546C20.3876 19.8546 19.7997 19.8791 19.219 19.9138V13.5914C19.1954 12.1193 18.594 10.7154 17.5446 9.68274C16.4952 8.65003 15.0818 8.07124 13.6095 8.07124C12.1372 8.07124 10.7238 8.65003 9.67443 9.68274C8.62501 10.7154 8.02362 12.1193 8 13.5914V28.4086C8.02362 29.8807 8.62501 31.2846 9.67443 32.3173C10.7238 33.35 12.1372 33.9288 13.6095 33.9288C15.0818 33.9288 16.4952 33.35 17.5446 32.3173C18.594 31.2846 19.1954 29.8807 19.219 28.4086V22.209C19.7968 22.17 20.3876 22.1454 21 22.1454C21.6124 22.1454 22.2003 22.1209 22.781 22.0862V28.4086C22.8046 29.8807 23.406 31.2846 24.4554 32.3173C25.5048 33.35 26.9182 33.9288 28.3905 33.9288C29.8628 33.9288 31.2762 33.35 32.3256 32.3173C33.375 31.2846 33.9764 29.8807 34 28.4086V13.5914C33.9962 12.1067 33.4035 10.6841 32.352 9.6358C31.3004 8.58753 29.876 7.99923 28.3912 8ZM13.6088 10.2909C14.4852 10.2905 15.326 10.6378 15.9466 11.2566C16.5673 11.8753 16.9171 12.715 16.9194 13.5914V20.1564C15.2782 20.3943 13.6755 20.8474 12.1528 21.5041C11.493 21.7937 10.8719 22.1644 10.3039 22.6077V13.5914C10.3062 12.716 10.6552 11.8772 11.2747 11.2586C11.8941 10.64 12.7334 10.292 13.6088 10.2909ZM16.9194 28.4086C16.9194 29.2866 16.5706 30.1287 15.9498 30.7496C15.3289 31.3704 14.4868 31.7192 13.6088 31.7192C12.7307 31.7192 11.8887 31.3704 11.2678 30.7496C10.6469 30.1287 10.2981 29.2866 10.2981 28.4086V26.9222C10.2981 25.6092 11.3381 24.3656 13.0816 23.5913C14.31 23.0613 15.599 22.6844 16.9194 22.469V28.4086ZM28.3912 31.7091C27.5148 31.7095 26.674 31.3622 26.0534 30.7434C25.4327 30.1247 25.0829 29.285 25.0806 28.4086V21.8436C26.7218 21.6057 28.3245 21.1526 29.8472 20.4959C30.507 20.2063 31.1281 19.8356 31.6961 19.3923V28.4086C31.6938 29.284 31.3448 30.1228 30.7253 30.7414C30.1059 31.36 29.2666 31.708 28.3912 31.7091ZM28.9184 18.4C27.69 18.93 26.401 19.3069 25.0806 19.5223V13.5914C25.0806 12.7134 25.4294 11.8713 26.0502 11.2505C26.6711 10.6296 27.5132 10.2808 28.3912 10.2808C29.2693 10.2808 30.1113 10.6296 30.7322 11.2505C31.3531 11.8713 31.7019 12.7134 31.7019 13.5914V15.0778C31.7019 16.385 30.6619 17.6287 28.9184 18.4Z" fill="url(#paint0_linear_7674_310977)"/>
<defs>
<linearGradient id="paint0_linear_7674_310977" x1="9.64667" y1="31.997" x2="32.205" y2="9.37707" gradientUnits="userSpaceOnUse">
<stop stop-color="#00AEE9"/>
<stop offset="1" stop-color="#69FABD"/>
</linearGradient>
</defs>
</svg>
