<svg width="36" height="36" xmlns="http://www.w3.org/2000/svg" fill="none">
 <defs>
  <linearGradient y2="0.85512" x2="0.15931" y1="0.10356" x1="0.85566" id="svg_12">
   <stop stop-opacity="0.99609" stop-color="#a5652c"/>
   <stop stop-opacity="0.99219" stop-color="#bc885a" offset="0.98047"/>
  </linearGradient>
 </defs>
 <g>
  <title>Layer 1</title>
  <path id="svg_1" d="m0,18.0733c0,-9.78082 8.21918,-18 18,-18l0,0c9.78082,0 18,8.21918 18,18l0,0c0,9.78082 -8.21918,18 -18,18l0,0c-9.78082,0 -18,-8.21918 -18,-18l0,0z" opacity="undefined" fill="url(#svg_12)"/>
  <path id="svg_2" stroke-linejoin="round" stroke-width="0.648" stroke="#F3F3F3" fill="#b87333" d="m13.8903,8.74167l-2.0232,6.24143c-0.0882,0.2721 0.1147,0.5511 0.4007,0.5511l11.4648,0c0.2861,0 0.4889,-0.279 0.4007,-0.5511l-2.0232,-6.24143c-0.0433,-0.1336 -0.1678,-0.22409 -0.3082,-0.22409l-7.6034,0c-0.1404,0 -0.2649,0.09049 -0.3082,0.22409z"/>
  <path id="svg_3" stroke-width="0.324" stroke="#F3F3F3" fill="#F3F3F3" d="m21.8175,8.68703l-9.6779,6.54597l1.9569,-6.56308l7.721,0.01711z"/>
  <path id="svg_4" fill="#F3F3F3" d="m18.1104,13.8537c-0.179,0 -0.324,0.1451 -0.324,0.324c0,0.179 0.145,0.324 0.324,0.324l0,-0.648zm5.7877,0l-5.7877,0l0,0.648l5.7877,0l0,-0.648z"/>
  <path id="svg_5" stroke-linejoin="round" stroke-width="0.648" stroke="#F3F3F3" fill="#b87333" d="m6.28243,18.3501l-2.02322,6.2414c-0.0882,0.2721 0.11465,0.5511 0.40068,0.5511l11.46481,0c0.2861,0 0.4889,-0.279 0.4007,-0.5511l-2.0232,-6.2414c-0.0433,-0.1336 -0.1678,-0.2241 -0.3082,-0.2241l-7.60336,0c-0.14045,0 -0.2649,0.0905 -0.30821,0.2241z"/>
  <path id="svg_6" stroke-width="0.324" stroke="#F3F3F3" fill="#F3F3F3" d="m14.2096,18.2954l-9.67786,6.546l1.95687,-6.5631l7.72099,0.0171z"/>
  <path id="svg_7" fill="#F3F3F3" d="m10.5024,23.4621c-0.1789,0 -0.324,0.1451 -0.324,0.324c0,0.179 0.1451,0.324 0.324,0.324l0,-0.648zm5.7877,0l-5.7877,0l0,0.648l5.7877,0l0,-0.648z"/>
  <path id="svg_8" stroke-linejoin="round" stroke-width="0.648" stroke="#F3F3F3" fill="#b87333" d="m21.4978,18.3501l-2.0233,6.2414c-0.0882,0.2721 0.1147,0.5511 0.4007,0.5511l11.4649,0c0.286,0 0.4888,-0.279 0.4006,-0.5511l-2.0232,-6.2414c-0.0433,-0.1336 -0.1677,-0.2241 -0.3082,-0.2241l-7.6033,0c-0.1405,0 -0.2649,0.0905 -0.3082,0.2241z"/>
  <path id="svg_9" stroke-width="0.324" stroke="#F3F3F3" fill="#F3F3F3" d="m29.4249,18.2954l-9.6778,6.546l1.9568,-6.5631l7.721,0.0171z"/>
  <path id="svg_10" fill="#F3F3F3" d="m25.7236,23.4621c-0.1789,0 -0.324,0.1451 -0.324,0.324c0,0.179 0.1451,0.324 0.324,0.324l0,-0.648zm5.7877,0l-5.7877,0l0,0.648l5.7877,0l0,-0.648z"/>
 </g>
</svg>