<svg xmlns="http://www.w3.org/2000/svg" width="36" height="36" fill="none"><path fill="url(#a)" d="M18 35.998c9.94 0 17.998-8.058 17.998-17.999C35.998 8.06 27.94 0 18 0 8.06 0 0 8.058 0 18c0 9.94 8.058 17.998 18 17.998Z"/><path fill="#DC9C79" stroke="#F3F3F3" stroke-linejoin="round" stroke-width=".648" d="m13.89 8.742-2.024 6.24a.421.421 0 0 0 .4.552h11.465a.421.421 0 0 0 .4-.551L22.11 8.742a.324.324 0 0 0-.309-.224h-7.603c-.14 0-.264.09-.308.224Z"/><path fill="#F3F3F3" stroke="#F3F3F3" stroke-width=".324" d="m21.817 8.687-9.677 6.546 1.957-6.563 7.72.017Z"/><path fill="#F3F3F3" d="M18.112 13.854a.324.324 0 1 0 0 .648v-.648Zm5.788 0h-5.788v.648H23.9v-.648Z"/><path fill="#DC9C79" stroke="#F3F3F3" stroke-linejoin="round" stroke-width=".648" d="M6.282 18.35 4.26 24.59a.421.421 0 0 0 .4.551h11.465a.421.421 0 0 0 .4-.55l-2.023-6.242a.324.324 0 0 0-.308-.224H6.59c-.14 0-.265.09-.308.224Z"/><path fill="#F3F3F3" stroke="#F3F3F3" stroke-width=".324" d="M14.21 18.294 4.533 24.84l1.957-6.563 7.72.017Z"/><path fill="#F3F3F3" d="M10.505 23.461a.324.324 0 1 0 0 .648v-.648Zm5.787 0h-5.787v.648h5.787v-.648Z"/><path fill="#DC9C79" stroke="#F3F3F3" stroke-linejoin="round" stroke-width=".648" d="m21.497 18.35-2.023 6.24a.421.421 0 0 0 .4.551H31.34a.421.421 0 0 0 .4-.55l-2.023-6.242a.324.324 0 0 0-.308-.224h-7.603c-.14 0-.265.09-.308.224Z"/><path fill="#F3F3F3" stroke="#F3F3F3" stroke-width=".324" d="m29.425 18.294-9.677 6.546 1.957-6.563 7.72.017Z"/><path fill="#F3F3F3" d="M25.72 23.461a.324.324 0 1 0 0 .648v-.648Zm5.787 0H25.72v.648h5.787v-.648Z"/><defs><linearGradient id="a" x1="31.284" x2="4.285" y1="4.285" y2="31.284" gradientUnits="userSpaceOnUse"><stop offset=".026" stop-color="#C75018"/><stop offset="1" stop-color="#FCBD8C"/></linearGradient></defs></svg>