<svg xmlns="http://www.w3.org/2000/svg" width="36" height="36" fill="none"><g clip-path="url(#a)"><g clip-path="url(#b)"><path fill="url(#c)" d="M-9 0h54v36H-9V0Z"/><path fill="#fff" d="M20.578 7.515a1.675 1.675 0 0 0-.894 2.508 2.71 2.71 0 0 1-1.217 3.972 2.32 2.32 0 0 0-.65 3.859 4.102 4.102 0 0 1-1.023-5.635.94.94 0 0 1-.067-.063 4.192 4.192 0 0 0 1.005 5.748 5.42 5.42 0 0 1 2.846-10.389Z"/><path fill="#EE1C25" d="m18.12 10.87-1.653.72 1.762.389-1.197-1.35.174 1.796"/><path fill="#fff" d="M28.773 17.213a1.674 1.674 0 0 0-2.661-.076 2.709 2.709 0 0 1-4.154.07 2.32 2.32 0 0 0-3.87.575 4.103 4.103 0 0 1 5.042-2.715.932.932 0 0 1 .04-.083 4.193 4.193 0 0 0-5.157 2.732 5.42 5.42 0 0 1 10.76-.503Z"/><path fill="#EE1C25" d="m24.823 15.913-1.197-1.35.175 1.796.914-1.556-1.654.721"/><path fill="#fff" d="M9.754 24.973a1.675 1.675 0 0 0 2.197-1.503 2.71 2.71 0 0 1 3.32-2.498 2.318 2.318 0 0 0 2.793-2.74 4.103 4.103 0 0 1-2.483 5.16.95.95 0 0 1 .016.09 4.193 4.193 0 0 0 2.565-5.24 5.42 5.42 0 0 1-8.408 6.731Z"/><path fill="#EE1C25" d="m13.713 23.705 1.763.388-1.198-1.35.175 1.796.914-1.556"/><path fill="#fff" d="M22.083 27.995a1.676 1.676 0 0 0-.75-2.554 2.71 2.71 0 0 1-1.35-3.929 2.32 2.32 0 0 0-1.743-3.503 4.103 4.103 0 0 1 4.14 3.957.92.92 0 0 1 .091.011 4.193 4.193 0 0 0-4.192-4.059 5.421 5.421 0 0 1 3.804 10.078Z"/><path fill="#EE1C25" d="m22.1 23.836.914-1.555-1.654.721 1.762.389-1.197-1.35"/><path fill="#fff" d="M8.824 12.307a1.675 1.675 0 0 0 2.108 1.625 2.71 2.71 0 0 1 3.402 2.386 2.32 2.32 0 0 0 3.47 1.81 4.102 4.102 0 0 1-5.676-.768.947.947 0 0 1-.08.044 4.193 4.193 0 0 0 5.776.82 5.42 5.42 0 0 1-9-5.917Z"/><path fill="#EE1C25" d="m11.254 15.681.175 1.796.914-1.556-1.654.721 1.762.389"/></g></g><defs><clipPath id="a"><rect width="36" height="36" fill="#fff" rx="18"/></clipPath><clipPath id="b"><rect width="36" height="36" fill="#fff" rx="18"/></clipPath><linearGradient id="c" x1="18.689" x2="18.689" y1="-1.677" y2="31.117" gradientUnits="userSpaceOnUse"><stop stop-color="#E94C53"/><stop offset=".531" stop-color="#EE1C25"/><stop offset="1" stop-color="#BF040C"/></linearGradient></defs></svg>