<svg xmlns="http://www.w3.org/2000/svg" width="42" height="42" fill="none"><g clip-path="url(#a)"><mask id="b" width="42" height="42" x="0" y="0" maskUnits="userSpaceOnUse" style="mask-type:luminance"><path fill="#fff" d="M42 21C42 9.402 32.598 0 21 0S0 9.402 0 21s9.402 21 21 21 21-9.402 21-21Z"/></mask><g mask="url(#b)"><mask id="c" width="42" height="42" x="0" y="0" maskUnits="userSpaceOnUse" style="mask-type:luminance"><path fill="#fff" d="M42 21C42 9.402 32.598 0 21 0S0 9.402 0 21s9.402 21 21 21 21-9.402 21-21Z"/></mask><g mask="url(#c)"><path fill="url(#d)" d="M-10.5 0h63v42h-63V0Z"/><path fill="#fff" d="M24.035 8.771a1.954 1.954 0 0 0-1.043 2.926 3.161 3.161 0 0 1-1.42 4.634 2.705 2.705 0 0 0-.758 4.502 4.785 4.785 0 0 1-1.194-6.574 1.107 1.107 0 0 1-.078-.073 4.89 4.89 0 0 0 1.172 6.706 6.323 6.323 0 0 1 3.32-12.12Z"/><path fill="#EE1C25" d="m21.124 12.672-1.929.84 2.056.454-1.396-1.575.203 2.095"/><path fill="#fff" d="M33.553 20.088a1.952 1.952 0 0 0-3.104-.089 3.16 3.16 0 0 1-4.847.082 2.707 2.707 0 0 0-4.515.67 4.787 4.787 0 0 1 5.883-3.167c.014-.033.03-.065.047-.097A4.892 4.892 0 0 0 21 20.675a6.323 6.323 0 0 1 12.553-.587Z"/><path fill="#EE1C25" d="m28.962 18.56-1.397-1.576.205 2.096 1.066-1.816-1.93.841"/><path fill="#fff" d="M11.406 29.114a1.956 1.956 0 0 0 2.563-1.753 3.162 3.162 0 0 1 3.874-2.914A2.704 2.704 0 0 0 21.1 21.25a4.786 4.786 0 0 1-2.897 6.02c.008.035.014.07.02.105a4.892 4.892 0 0 0 2.992-6.113 6.323 6.323 0 0 1-9.81 7.852Z"/><path fill="#EE1C25" d="m16 27.622 2.057.453-1.398-1.575.204 2.095 1.067-1.815"/><path fill="#fff" d="M25.733 32.62a1.955 1.955 0 0 0-.875-2.979 3.16 3.16 0 0 1-1.575-4.584 2.708 2.708 0 0 0-2.033-4.087 4.786 4.786 0 0 1 4.83 4.617c.036.002.071.007.106.013a4.892 4.892 0 0 0-4.89-4.736 6.325 6.325 0 0 1 4.438 11.757Z"/><path fill="#EE1C25" d="m25.8 27.766 1.067-1.814-1.93.841 2.056.454-1.396-1.575"/><path fill="#fff" d="M10.275 14.36a1.955 1.955 0 0 0 2.46 1.895 3.162 3.162 0 0 1 3.969 2.784 2.707 2.707 0 0 0 4.048 2.111 4.786 4.786 0 0 1-6.622-.895 1.1 1.1 0 0 1-.093.05 4.893 4.893 0 0 0 6.738.957 6.323 6.323 0 0 1-10.5-6.903Z"/><path fill="#EE1C25" d="m13.128 18.297.204 2.095 1.066-1.815-1.93.841 2.056.454"/></g></g></g><defs><linearGradient id="d" x1="21.804" x2="21.804" y1="-1.956" y2="36.303" gradientUnits="userSpaceOnUse"><stop stop-color="#E94C53"/><stop offset=".531" stop-color="#EE1C25"/><stop offset="1" stop-color="#BF040C"/></linearGradient><clipPath id="a"><path fill="#fff" d="M0 0h42v42H0z"/></clipPath></defs></svg>