<svg xmlns="http://www.w3.org/2000/svg" width="42" height="42" fill="none"><path fill="#38A2FF" d="M21 41c11.046 0 20-8.954 20-20S32.046 1 21 1 1 9.954 1 21s8.954 20 20 20Z"/><path fill="#030303" d="M25.888 12.185a2.762 2.762 0 0 1 3.887 0 2.756 2.756 0 0 1 0 3.884 2.726 2.726 0 0 1-2.325.78h-.133a1.43 1.43 0 0 0-.781.115 1.45 1.45 0 0 0-.743.8c-.134.342-.115.723.038 1.066.914 1.98.495 4.379-1.067 5.92a5.285 5.285 0 0 1-5.927 1.067 1.352 1.352 0 0 0-1.086-.038c-.343.133-.629.38-.781.723a1.5 1.5 0 0 0-.134.705v.133c.153.876-.152 1.77-.762 2.4a2.762 2.762 0 0 1-3.887 0c-.515-.515-.8-1.2-.8-1.943 0-.723.285-1.428.8-1.942a2.727 2.727 0 0 1 2.325-.78h.038c.095.018.19.038.285.038.21 0 .4-.039.591-.134.362-.171.61-.457.724-.78a1.395 1.395 0 0 0-.038-1.105c-.914-1.999-.495-4.379 1.067-5.92a5.285 5.285 0 0 1 5.927-1.067 1.35 1.35 0 0 0 1.086.038c.343-.133.629-.38.8-.723.134-.267.153-.572.114-.857a2.778 2.778 0 0 1 .782-2.38ZM23.163 23.15c1.181-1.18 1.181-3.103 0-4.302-1.182-1.18-3.106-1.18-4.307 0-1.181 1.18-1.181 3.103 0 4.302 1.2 1.18 3.125 1.18 4.307 0Zm7.622-6.054c1.62-1.618 1.62-4.246 0-5.883-1.62-1.619-4.25-1.619-5.888 0a4.286 4.286 0 0 0-1.143 2.113c-2.954-1.104-6.327-.4-8.576 1.847-2.248 2.247-2.953 5.636-1.829 8.587a4.127 4.127 0 0 0-2.134 1.142c-1.62 1.618-1.62 4.246 0 5.883 1.62 1.619 4.25 1.619 5.888 0 .61-.609.991-1.37 1.143-2.151a8.11 8.11 0 0 0 8.556-1.847 8.104 8.104 0 0 0 1.868-8.53 4.658 4.658 0 0 0 2.115-1.161Z"/></svg>