<svg xmlns="http://www.w3.org/2000/svg" width="42" height="42" fill="none"><path fill="#2A3069" d="M21 41c11.046 0 20-8.954 20-20S32.046 1 21 1 1 9.954 1 21s8.954 20 20 20Z"/><path fill="#F3F3F3" d="M17 29c0 4 1.667 6.333 2.5 7.5 0 0-1.156-.078-3-1S11 31 11 25.5s6-9 7.5-12.5c1.2-2.8 1.167-6.167 1-7.5 1.667 1.667 4.9 6.1 4.5 10.5-.5 5.5-7 8-7 13Z"/><path fill="#F3F3F3" d="M30.5 27c0-3-1.5-6.5-3.5-9-.5 2-.7 2.4-1.5 4-1 2-4.123 4.982-4.5 8-.5 4 1.833 6 3 6.5.167-.333.178-.285 2-1.5s4.5-3.969 4.5-8Z"/></svg>