<svg width="42" height="42" viewBox="0 0 42 42" fill="none" xmlns="http://www.w3.org/2000/svg">
<circle cx="21" cy="21" r="20" fill="#20C5C9"/>
<circle cx="29.75" cy="12" r="2" fill="#F3F3F3"/>
<circle cx="12.25" cy="30" r="2" fill="#F3F3F3"/>
<path fill-rule="evenodd" clip-rule="evenodd" d="M26.75 20.5C26.75 23.8137 24.0637 26.5 20.75 26.5C19.7627 26.5 18.831 26.2615 18.0095 25.839L15.8629 27.909C15.8312 27.9396 15.7979 27.9677 15.7633 27.9933C17.1907 28.9452 18.9056 29.5 20.75 29.5C25.7206 29.5 29.75 25.4706 29.75 20.5C29.75 18.7758 29.2652 17.1649 28.4244 15.7961L26.1852 17.9553C26.5475 18.7279 26.75 19.5903 26.75 20.5ZM26.5964 13.6573C26.5781 13.6731 26.5603 13.6897 26.5429 13.7071L24.4633 15.7867C23.4418 14.9809 22.1521 14.5 20.75 14.5C17.4363 14.5 14.75 17.1863 14.75 20.5C14.75 21.9021 15.2309 23.1918 16.0367 24.2133L14.0653 26.1847C14.0097 26.2403 13.9622 26.3006 13.9225 26.3642C12.5684 24.7891 11.75 22.7401 11.75 20.5C11.75 15.5294 15.7794 11.5 20.75 11.5C22.9817 11.5 25.0237 12.3123 26.5964 13.6573Z" fill="#F3F3F3"/>
</svg>
