<svg xmlns="http://www.w3.org/2000/svg" width="42" height="42" fill="none"><circle cx="21" cy="21" r="20" fill="#fff"/><path fill="url(#a)" d="M28.201 14c-1.561 0-3.27.849-5.074 2.523-.85.786-1.6 1.643-2.146 2.32 0 0 .874 1.005 1.834 2.087.523-.654 1.264-1.542 2.13-2.344 1.601-1.495 2.647-1.798 3.248-1.798 2.248 0 4.075 1.884 4.075 4.212 0 2.305-1.827 4.19-4.075 4.212a2.02 2.02 0 0 1-.39-.046c.656.303 1.366.521 2.03.521 4.121 0 4.933-2.842 4.98-3.044A7.427 7.427 0 0 0 35 21.016C34.992 17.146 31.948 14 28.201 14Z"/><path fill="url(#b)" d="M13.799 28c1.561 0 3.27-.848 5.074-2.522.85-.786 1.6-1.643 2.147-2.32 0 0-.875-1.005-1.835-2.087-.523.654-1.264 1.542-2.13 2.344-1.601 1.48-2.655 1.798-3.248 1.798-2.248 0-4.075-1.884-4.075-4.212 0-2.305 1.827-4.19 4.075-4.213.11 0 .234.016.39.047-.656-.303-1.366-.521-2.03-.521-4.121-.008-4.933 2.834-4.98 3.044A7.427 7.427 0 0 0 7 20.985c0 3.87 3.044 7.016 6.799 7.016Z"/><path fill="#29ABE2" fill-rule="evenodd" d="M16.937 18.648c-.453-.436-2.654-2.219-4.762-2.28-3.762-.094-4.863 2.63-4.965 2.981.726-3.052 3.412-5.333 6.596-5.349 2.6 0 5.23 2.546 7.174 4.843l.008-.008s.874 1.005 1.835 2.087c0 0 1.092 1.285 2.248 2.414.452.436 2.646 2.196 4.753 2.258 3.864.109 4.934-2.772 4.988-2.99-.71 3.076-3.403 5.365-6.603 5.38-2.6 0-5.23-2.546-7.182-4.843 0 .008-.008.008-.008.016 0 0-.874-1.005-1.834-2.087.008 0-1.085-1.293-2.248-2.422Z" clip-rule="evenodd"/><defs><linearGradient id="a" x1="24.547" x2="34.146" y1="15.109" y2="24.812" gradientUnits="userSpaceOnUse"><stop offset=".21" stop-color="#F15A24"/><stop offset=".684" stop-color="#FBB03B"/></linearGradient><linearGradient id="b" x1="17.456" x2="7.857" y1="26.893" y2="17.191" gradientUnits="userSpaceOnUse"><stop offset=".21" stop-color="#ED1E79"/><stop offset=".893" stop-color="#522785"/></linearGradient></defs></svg>