<svg xmlns="http://www.w3.org/2000/svg" width="42" height="42" fill="none"><circle cx="21" cy="21" r="20" fill="#20C5C9"/><circle cx="29.75" cy="12" r="2" fill="#F3F3F3"/><circle cx="12.25" cy="30" r="2" fill="#F3F3F3"/><path fill="#F3F3F3" fill-rule="evenodd" d="M26.75 20.5a6 6 0 0 1-8.74 5.339l-2.147 2.07a.998.998 0 0 1-.1.084 9 9 0 0 0 12.661-12.197l-2.239 2.16c.363.772.565 1.634.565 2.544Zm-.154-6.843a.998.998 0 0 0-.053.05l-2.08 2.08a6 6 0 0 0-8.427 8.427l-1.97 1.97a1.01 1.01 0 0 0-.144.18 9 9 0 0 1 12.674-12.707Z" clip-rule="evenodd"/></svg>