<svg width="42" height="42" viewBox="0 0 42 42" fill="none" xmlns="http://www.w3.org/2000/svg">
<circle cx="21" cy="21" r="20" fill="#152027"/>
<path d="M20 24L30.5 11H33.5L22.5 24L29 31.5H26.5L20 24Z" fill="#17B5CB"/>
<path d="M26 22.5L24.5 24L31 31.5H33.5L26 22.5Z" fill="#17B5CB"/>
<path d="M28.5 11H26L22.5 15.5L23.5 17L28.5 11Z" fill="#17B5CB"/>
<path d="M22.5 18.5L16 11H13L21 20L22.5 18.5Z" fill="#17B5CB"/>
<path d="M20 21L11 11H8.5L17.5 21L8.5 31.5H11L20 21Z" fill="#17B5CB"/>
<path d="M18.5 25.5L13.5 31.5H16L20 26.5L18.5 25.5Z" fill="#17B5CB"/>
</svg>
