<svg width="42" height="42" viewBox="0 0 42 42" fill="none" xmlns="http://www.w3.org/2000/svg">
<rect width="42" height="42" rx="21" fill="white"/>
<path d="M35.1284 29.8957C37.3623 26.1108 32.8477 19.5418 25.0446 14.9364C17.2416 10.331 9.23687 9.44201 6.87118 13.4508C4.63728 17.2358 9.15195 24.0375 16.955 28.6429C17.0235 28.6834 17.0921 28.7235 17.1607 28.7634L18.1561 26.9493C11.1057 22.7118 6.63352 16.8916 8.55828 14.0052C10.4744 11.4213 17.5839 12.0513 24.7862 16.3022C31.9885 20.5531 36.2808 26.4166 34.5206 29.3989C33.4362 31.2363 30.1487 31.9979 26.1871 30.9748L26.0707 31.5568C30.3709 32.4174 33.7749 32.189 35.1284 29.8957Z" fill="#8C8C8C"/>
<path d="M27.5372 10.7449L15.214 17.555L23.159 18.3281L27.5372 10.7449Z" fill="#8C8C8C"/>
<path d="M23.1587 18.325L15.2137 17.5519L19.3589 24.9065L23.1587 18.325Z" fill="#383838"/>
<path d="M27.7962 24.8357L27.5312 10.7578L23.1531 18.341L27.7962 24.8357Z" fill="#333333"/>
<path d="M19.353 24.9194L27.796 24.8326L23.1528 18.3379L19.353 24.9194Z" fill="#141414"/>
<path d="M14.5249 18.7402L15.6976 31.2432L18.6714 26.0925L14.5249 18.7402Z" fill="#8C8C8C"/>
<path d="M18.666 26.1055L15.6922 31.2562L27.1112 26.023L18.666 26.1055Z" fill="#333333"/>
</svg>
