<svg width="42" height="42" viewBox="0 0 42 42" fill="none" xmlns="http://www.w3.org/2000/svg">
<rect width="42" height="42" rx="21" fill="white"/>
<path fill-rule="evenodd" clip-rule="evenodd" d="M10.938 30.8012C10.7537 30.5918 10.5694 30.3803 10.3956 30.1625C6.0413 25.3516 5.31663 16.377 11.5475 10.5713C12.0167 10.1985 12.5005 9.86545 12.9968 9.57224C10.3139 11.8635 9.63741 13.5328 9.13056 15.822C8.26347 19.8579 10.76 25.3013 12.1884 27.224C14.9195 30.9144 18.6308 27.6094 16.3375 24.5557C14.6682 22.3503 11.2124 16.6221 12.4649 12.7893C13.2943 10.2613 15.728 8.39098 17.2758 7.51761C19.4644 6.9584 21.429 6.83692 23.5506 7.22858C20.4378 8.12744 19.6109 8.77338 18.6379 9.53343L18.6375 9.53371C18.5972 9.5652 18.5567 9.59688 18.5157 9.62878C13.2132 13.7613 16.3704 18.3378 18.7772 21.8264C18.9686 22.1038 19.1552 22.3744 19.3325 22.6372C21.2363 25.0311 21.4499 28.6314 19.0644 30.8683C17.3553 32.481 15.1771 32.9041 13.221 32.2171C12.6094 32.0056 12.0313 31.683 11.4742 31.2599C11.3171 31.1469 11.1789 31.0191 11.0511 30.8997L11.0344 30.8788C11.026 30.8683 11.015 30.8599 11.004 30.8515C10.993 30.8432 10.982 30.8348 10.9737 30.8243C10.9695 30.819 10.9627 30.8159 10.9558 30.8128C10.949 30.8096 10.9422 30.8065 10.938 30.8012Z" fill="url(#paint0_linear_6559_179127)"/>
<path fill-rule="evenodd" clip-rule="evenodd" d="M31.062 11.1988C31.2463 11.4082 31.4306 11.6197 31.6044 11.8375C35.9587 16.6484 36.6834 25.623 30.4525 31.4287C29.9833 31.8015 29.4995 32.1345 29.0032 32.4278C31.6861 30.1365 32.3626 28.4672 32.8694 26.178C33.7365 22.1421 31.24 16.6987 29.8116 14.776C27.0805 11.0856 23.3692 14.3906 25.6625 17.4443C27.3318 19.6497 30.7876 25.3779 29.5351 29.2107C28.7057 31.7387 26.272 33.609 24.7242 34.4824C22.5356 35.0416 20.571 35.1631 18.4494 34.7714C21.5622 33.8726 22.3891 33.2266 23.3621 32.4666L23.3625 32.4663C23.4028 32.4348 23.4433 32.4031 23.4843 32.3712C28.7868 28.2387 25.6296 23.6622 23.2228 20.1736C23.0314 19.8962 22.8448 19.6256 22.6675 19.3628C20.7637 16.9689 20.5501 13.3686 22.9356 11.1317C24.6447 9.51903 26.8229 9.09594 28.779 9.78294C29.3906 9.99444 29.9687 10.317 30.5258 10.7401C30.6829 10.8531 30.8211 10.9809 30.9489 11.1003L30.9656 11.1212C30.974 11.1317 30.985 11.1401 30.996 11.1485C31.007 11.1568 31.018 11.1652 31.0264 11.1757C31.0305 11.181 31.0374 11.1841 31.0442 11.1872C31.051 11.1904 31.0578 11.1935 31.062 11.1988Z" fill="url(#paint1_linear_6559_179127)"/>
<defs>
<linearGradient id="paint0_linear_6559_179127" x1="6.92525" y1="20.8138" x2="18.9637" y2="20.8138" gradientUnits="userSpaceOnUse">
<stop stop-color="#5285EE"/>
<stop offset="1" stop-color="#6EB3ED"/>
</linearGradient>
<linearGradient id="paint1_linear_6559_179127" x1="35.0762" y1="22.1108" x2="20.8153" y2="22.1108" gradientUnits="userSpaceOnUse">
<stop stop-color="#89E1F4"/>
<stop offset="1" stop-color="#6BAEE3"/>
</linearGradient>
</defs>
</svg>
