<svg xmlns="http://www.w3.org/2000/svg" width="36" height="36" fill="none"><g clip-path="url(#a)"><mask id="b" width="36" height="36" x="0" y="0" maskUnits="userSpaceOnUse" style="mask-type:alpha"><circle cx="18" cy="18" r="18" fill="#D9D9D9"/></mask><g mask="url(#b)"><path fill="#F3F3F3" d="M-9 0h54v36H-9V0Z"/><path fill="#FF9A33" d="M-9 0h54v12H-9V0Z"/><path fill="#138807" d="M-9 24h54v12H-9V24Z"/><path fill="#2C2C6F" d="M18.001 23.551a5.55 5.55 0 1 0 0-11.1 5.55 5.55 0 0 0 0 11.1Z"/><path fill="#F3F3F3" d="M18.001 22.801a4.8 4.8 0 1 0 0-9.6 4.8 4.8 0 0 0 0 9.6Z"/><path fill="#2C2C6F" d="M18 18.96a.96.96 0 1 0 0-1.92.96.96 0 0 0 0 1.92Z"/><path fill="#2C2C6F" d="m17.999 13.195.18 2.889-.18 1.43-.18-1.43.18-2.889ZM18.599 13.44a.21.21 0 1 0 .055-.417.21.21 0 0 0-.055.417ZM18.002 22.793l-.18-2.889.18-1.43.18 1.43-.18 2.889ZM17.401 22.548a.21.21 0 1 0-.054.417.21.21 0 0 0 .054-.417ZM19.24 13.36l-.573 2.836-.545 1.334.197-1.428.921-2.743ZM19.756 13.758a.21.21 0 1 0 .16-.389.21.21 0 0 0-.16.389ZM16.76 22.63l.573-2.837.545-1.335-.197 1.428-.921 2.743ZM16.244 22.237a.21.21 0 1 0-.16.388.21.21 0 0 0 .16-.388ZM20.4 13.844l-1.288 2.591-.871 1.149.559-1.329 1.6-2.411ZM20.794 14.356a.21.21 0 1 0 .255-.334.21.21 0 0 0-.255.334ZM15.6 22.152l1.289-2.591.87-1.149-.559 1.329-1.6 2.411ZM15.207 21.64a.21.21 0 1 0-.256.334.21.21 0 0 0 .255-.334ZM21.391 14.6l-1.915 2.17-1.139.884.884-1.139 2.17-1.915ZM21.633 15.2a.21.21 0 1 0 .333-.256.21.21 0 0 0-.334.256ZM14.597 21.39l1.915-2.17 1.139-.883-.884 1.138-2.17 1.915ZM14.35 20.789a.21.21 0 1 0-.333.255.21.21 0 0 0 .333-.255ZM22.156 15.607l-2.411 1.6-1.329.56 1.149-.872 2.591-1.288ZM22.24 16.251a.21.21 0 1 0 .387-.16.21.21 0 0 0-.388.16ZM13.843 20.403l2.412-1.6 1.328-.56-1.148.871-2.592 1.289ZM13.76 19.759a.21.21 0 1 0-.387.16.21.21 0 0 0 .388-.16ZM22.64 16.762l-2.743.921-1.428.197 1.334-.544 2.837-.574ZM22.556 17.408a.21.21 0 1 0 .416-.055.21.21 0 0 0-.416.055ZM13.366 19.25l2.743-.922 1.428-.196-1.335.544-2.837.574ZM13.45 18.61a.21.21 0 1 0-.417.055.21.21 0 0 0 .417-.055ZM22.81 18.01l-2.888.18-1.43-.18 1.43-.18 2.889.18ZM22.56 18.61a.21.21 0 1 0 .416.055.21.21 0 0 0-.416-.055ZM13.207 18.008l2.889-.18 1.43.18-1.43.18-2.889-.18ZM13.457 17.407a.21.21 0 1 0-.416-.055.21.21 0 0 0 .416.055ZM22.635 19.244l-2.837-.573-1.334-.545 1.428.197 2.743.921ZM22.237 19.76a.21.21 0 1 0 .388.16.21.21 0 0 0-.388-.16ZM13.365 16.758l2.837.573 1.334.544-1.428-.196-2.743-.921ZM13.758 16.248a.21.21 0 1 0-.389-.16.21.21 0 0 0 .389.16ZM22.158 20.398l-2.591-1.288-1.149-.871 1.329.559 2.411 1.6ZM21.64 20.798a.21.21 0 1 0 .334.255.21.21 0 0 0-.333-.255ZM13.836 15.598l2.592 1.288 1.148.871-1.328-.559-2.412-1.6ZM14.354 15.198a.21.21 0 1 0-.334-.255.21.21 0 0 0 .334.255ZM21.394 21.397l-2.17-1.915-.884-1.139 1.139.884 1.915 2.17ZM20.794 21.642a.21.21 0 1 0 .256.333.21.21 0 0 0-.256-.333ZM14.606 14.607l2.17 1.915.884 1.139-1.139-.884-1.915-2.17ZM15.206 14.362a.21.21 0 1 0-.256-.334.21.21 0 0 0 .256.334ZM20.393 22.149l-1.6-2.412-.56-1.328.872 1.148 1.288 2.592ZM19.749 22.231a.21.21 0 1 0 .16.388.21.21 0 0 0-.16-.388ZM15.595 13.838l1.6 2.411.56 1.329-.871-1.149-1.289-2.591ZM16.24 13.755a.21.21 0 1 0-.161-.388.21.21 0 0 0 .16.388ZM19.244 22.627l-.921-2.744-.196-1.428.544 1.335.573 2.837ZM18.599 22.543a.21.21 0 1 0 .055.416.21.21 0 0 0-.055-.416ZM16.75 13.36l.922 2.743.196 1.428-.544-1.335-.574-2.836ZM17.396 13.444a.21.21 0 1 0-.055-.417.21.21 0 0 0 .055.417Z"/></g></g><defs><clipPath id="a"><rect width="36" height="36" fill="#fff" rx="18"/></clipPath></defs></svg>