<svg width="36" height="36" viewBox="0 0 36 36" fill="none" xmlns="http://www.w3.org/2000/svg">
<g clip-path="url(#clip0_8751_366308)">
<mask id="mask0_8751_366308" style="mask-type:alpha" maskUnits="userSpaceOnUse" x="0" y="0" width="36" height="36">
<circle cx="18" cy="18" r="18" fill="#D9D9D9"/>
</mask>
<g mask="url(#mask0_8751_366308)">
<path d="M-9 0H45V36H-9V0Z" fill="#F3F3F3"/>
<path d="M-9 0H45V12H-9V0Z" fill="#FF9A33"/>
<path d="M-9 24H45V36H-9V24Z" fill="#138807"/>
<path d="M18.0012 23.5512C21.0664 23.5512 23.5512 21.0664 23.5512 18.0012C23.5512 14.936 21.0664 12.4512 18.0012 12.4512C14.936 12.4512 12.4512 14.936 12.4512 18.0012C12.4512 21.0664 14.936 23.5512 18.0012 23.5512Z" fill="#2C2C6F"/>
<path d="M18.0012 22.8012C20.6521 22.8012 22.8012 20.6521 22.8012 18.0012C22.8012 15.3502 20.6521 13.2012 18.0012 13.2012C15.3502 13.2012 13.2012 15.3502 13.2012 18.0012C13.2012 20.6521 15.3502 22.8012 18.0012 22.8012Z" fill="#F3F3F3"/>
<path d="M17.9991 18.9591C18.5293 18.9591 18.9591 18.5293 18.9591 17.9991C18.9591 17.4689 18.5293 17.0391 17.9991 17.0391C17.4689 17.0391 17.0391 17.4689 17.0391 17.9991C17.0391 18.5293 17.4689 18.9591 17.9991 18.9591Z" fill="#2C2C6F"/>
<path d="M17.9986 13.1953L18.1786 16.0838L17.9986 17.5139L17.8186 16.0838L17.9986 13.1953Z" fill="#2C2C6F"/>
<path d="M18.5989 13.4399C18.7139 13.455 18.8194 13.3741 18.8346 13.2591C18.8497 13.1441 18.7687 13.0386 18.6538 13.0235C18.5388 13.0084 18.4333 13.0893 18.4181 13.2043C18.403 13.3193 18.484 13.4248 18.5989 13.4399Z" fill="#2C2C6F"/>
<path d="M18.0019 22.793L17.8219 19.9045L18.0019 18.4744L18.1819 19.9045L18.0019 22.793Z" fill="#2C2C6F"/>
<path d="M17.4015 22.5484C17.2866 22.5332 17.1811 22.6142 17.1659 22.7292C17.1508 22.8442 17.2317 22.9496 17.3467 22.9648C17.4617 22.9799 17.5672 22.899 17.5823 22.784C17.5975 22.669 17.5165 22.5635 17.4015 22.5484Z" fill="#2C2C6F"/>
<path d="M19.2403 13.3591L18.6666 16.1957L18.1225 17.5305L18.3188 16.1025L19.2403 13.3591Z" fill="#2C2C6F"/>
<path d="M19.7559 13.7575C19.8631 13.8018 19.9859 13.751 20.0303 13.6438C20.0747 13.5367 20.0238 13.4138 19.9167 13.3694C19.8095 13.325 19.6867 13.3759 19.6423 13.4831C19.5979 13.5902 19.6488 13.7131 19.7559 13.7575Z" fill="#2C2C6F"/>
<path d="M16.7597 22.6292L17.3334 19.7926L17.8775 18.4578L17.6812 19.8857L16.7597 22.6292Z" fill="#2C2C6F"/>
<path d="M16.2441 22.2367C16.1369 22.1923 16.0141 22.2432 15.9697 22.3503C15.9253 22.4575 15.9762 22.5803 16.0833 22.6247C16.1905 22.6691 16.3133 22.6182 16.3577 22.5111C16.4021 22.4039 16.3512 22.2811 16.2441 22.2367Z" fill="#2C2C6F"/>
<path d="M20.4 13.8439L19.1117 16.4354L18.2407 17.5839L18.7999 16.2554L20.4 13.8439Z" fill="#2C2C6F"/>
<path d="M20.7937 14.3556C20.8857 14.4262 21.0176 14.4088 21.0882 14.3168C21.1588 14.2248 21.1414 14.093 21.0494 14.0224C20.9574 13.9518 20.8256 13.9691 20.755 14.0611C20.6844 14.1531 20.7017 14.285 20.7937 14.3556Z" fill="#2C2C6F"/>
<path d="M15.6002 22.1522L16.8886 19.5607L17.7595 18.4122L17.2003 19.7407L15.6002 22.1522Z" fill="#2C2C6F"/>
<path d="M15.2065 21.6405C15.1145 21.5699 14.9827 21.5873 14.9121 21.6793C14.8415 21.7713 14.8588 21.9031 14.9508 21.9737C15.0428 22.0443 15.1747 22.027 15.2453 21.935C15.3159 21.8429 15.2985 21.7111 15.2065 21.6405Z" fill="#2C2C6F"/>
<path d="M21.391 14.5999L19.4758 16.7697L18.3372 17.6536L19.2212 16.5151L21.391 14.5999Z" fill="#2C2C6F"/>
<path d="M21.6325 15.1996C21.7031 15.2916 21.835 15.309 21.927 15.2384C22.019 15.1678 22.0363 15.036 21.9657 14.9439C21.8951 14.8519 21.7633 14.8346 21.6713 14.9052C21.5793 14.9758 21.5619 15.1076 21.6325 15.1996Z" fill="#2C2C6F"/>
<path d="M14.5973 21.3903L16.5125 19.2206L17.651 18.3366L16.7671 19.4751L14.5973 21.3903Z" fill="#2C2C6F"/>
<path d="M14.3499 20.7887C14.2793 20.6966 14.1475 20.6793 14.0555 20.7499C13.9634 20.8205 13.9461 20.9523 14.0167 21.0443C14.0873 21.1363 14.2191 21.1537 14.3111 21.0831C14.4031 21.0125 14.4205 20.8807 14.3499 20.7887Z" fill="#2C2C6F"/>
<path d="M22.1564 15.6071L19.7449 17.2072L18.4164 17.7664L19.5649 16.8954L22.1564 15.6071Z" fill="#2C2C6F"/>
<path d="M22.2392 16.2512C22.2836 16.3584 22.4064 16.4093 22.5136 16.3649C22.6207 16.3205 22.6716 16.1977 22.6272 16.0905C22.5829 15.9833 22.46 15.9325 22.3529 15.9768C22.2457 16.0212 22.1948 16.1441 22.2392 16.2512Z" fill="#2C2C6F"/>
<path d="M13.8433 20.4027L16.2548 18.8026L17.5834 18.2434L16.4348 19.1144L13.8433 20.4027Z" fill="#2C2C6F"/>
<path d="M13.7605 19.7585C13.7162 19.6514 13.5933 19.6005 13.4862 19.6449C13.379 19.6893 13.3281 19.8121 13.3725 19.9193C13.4169 20.0264 13.5397 20.0773 13.6469 20.0329C13.754 19.9885 13.8049 19.8657 13.7605 19.7585Z" fill="#2C2C6F"/>
<path d="M22.6401 16.7618L19.8966 17.6832L18.4687 17.8795L19.8035 17.3355L22.6401 16.7618Z" fill="#2C2C6F"/>
<path d="M22.5561 17.4076C22.5712 17.5225 22.6767 17.6035 22.7917 17.5883C22.9067 17.5732 22.9876 17.4677 22.9725 17.3527C22.9573 17.2377 22.8519 17.1568 22.7369 17.1719C22.6219 17.1871 22.5409 17.2926 22.5561 17.4076Z" fill="#2C2C6F"/>
<path d="M13.3655 19.25L16.109 18.3285L17.537 18.1322L16.2021 18.6762L13.3655 19.25Z" fill="#2C2C6F"/>
<path d="M13.4495 18.61C13.4344 18.495 13.3289 18.4141 13.2139 18.4292C13.0989 18.4444 13.018 18.5499 13.0331 18.6648C13.0483 18.7798 13.1538 18.8608 13.2688 18.8456C13.3837 18.8305 13.4647 18.725 13.4495 18.61Z" fill="#2C2C6F"/>
<path d="M22.8105 18.0101L19.9221 18.1901L18.492 18.0101L19.9221 17.8301L22.8105 18.0101Z" fill="#2C2C6F"/>
<path d="M22.5601 18.6104C22.545 18.7254 22.6259 18.8309 22.7409 18.846C22.8559 18.8612 22.9614 18.7802 22.9765 18.6652C22.9916 18.5502 22.9107 18.4448 22.7957 18.4296C22.6807 18.4145 22.5752 18.4954 22.5601 18.6104Z" fill="#2C2C6F"/>
<path d="M13.207 18.0075L16.0955 17.8275L17.5256 18.0075L16.0955 18.1875L13.207 18.0075Z" fill="#2C2C6F"/>
<path d="M13.4575 17.4072C13.4726 17.2922 13.3917 17.1867 13.2767 17.1716C13.1617 17.1564 13.0562 17.2374 13.0411 17.3523C13.0259 17.4673 13.1069 17.5728 13.2219 17.588C13.3369 17.6031 13.4424 17.5222 13.4575 17.4072Z" fill="#2C2C6F"/>
<path d="M22.6351 19.2442L19.7984 18.6705L18.4636 18.1264L19.8916 18.3227L22.6351 19.2442Z" fill="#2C2C6F"/>
<path d="M22.2367 19.7599C22.1923 19.867 22.2432 19.9898 22.3503 20.0342C22.4575 20.0786 22.5803 20.0277 22.6247 19.9206C22.6691 19.8134 22.6182 19.6906 22.5111 19.6462C22.4039 19.6018 22.2811 19.6527 22.2367 19.7599Z" fill="#2C2C6F"/>
<path d="M13.3649 16.7578L16.2016 17.3315L17.5364 17.8755L16.1084 17.6792L13.3649 16.7578Z" fill="#2C2C6F"/>
<path d="M13.7575 16.248C13.8018 16.1408 13.751 16.018 13.6438 15.9736C13.5367 15.9292 13.4138 15.9801 13.3694 16.0872C13.325 16.1944 13.3759 16.3172 13.4831 16.3616C13.5902 16.406 13.7131 16.3551 13.7575 16.248Z" fill="#2C2C6F"/>
<path d="M22.1583 20.3981L19.5668 19.1097L18.4183 18.2388L19.7468 18.798L22.1583 20.3981Z" fill="#2C2C6F"/>
<path d="M21.6408 20.7976C21.5702 20.8897 21.5875 21.0215 21.6795 21.0921C21.7715 21.1627 21.9034 21.1453 21.974 21.0533C22.0446 20.9613 22.0272 20.8295 21.9352 20.7589C21.8432 20.6883 21.7114 20.7056 21.6408 20.7976Z" fill="#2C2C6F"/>
<path d="M13.8361 15.598L16.4276 16.8864L17.5761 17.7573L16.2476 17.1981L13.8361 15.598Z" fill="#2C2C6F"/>
<path d="M14.3536 15.1985C14.4242 15.1064 14.4069 14.9746 14.3149 14.904C14.2228 14.8334 14.091 14.8508 14.0204 14.9428C13.9498 15.0348 13.9672 15.1666 14.0592 15.2372C14.1512 15.3078 14.283 15.2905 14.3536 15.1985Z" fill="#2C2C6F"/>
<path d="M21.3942 21.3968L19.2245 19.4816L18.3405 18.3431L19.479 19.2271L21.3942 21.3968Z" fill="#2C2C6F"/>
<path d="M20.7945 21.6423C20.7025 21.7129 20.6851 21.8447 20.7557 21.9367C20.8264 22.0287 20.9582 22.0461 21.0502 21.9755C21.1422 21.9049 21.1596 21.7731 21.089 21.6811C21.0184 21.589 20.8865 21.5717 20.7945 21.6423Z" fill="#2C2C6F"/>
<path d="M14.6058 14.6071L16.7755 16.5223L17.6595 17.6608L16.521 16.7768L14.6058 14.6071Z" fill="#2C2C6F"/>
<path d="M15.2055 14.3616C15.2975 14.291 15.3149 14.1592 15.2443 14.0672C15.1736 13.9752 15.0418 13.9578 14.9498 14.0284C14.8578 14.099 14.8404 14.2308 14.911 14.3229C14.9816 14.4149 15.1135 14.4322 15.2055 14.3616Z" fill="#2C2C6F"/>
<path d="M20.3929 22.1486L18.7928 19.7371L18.2336 18.4086L19.1046 19.5571L20.3929 22.1486Z" fill="#2C2C6F"/>
<path d="M19.7488 22.2314C19.6416 22.2758 19.5907 22.3986 19.6351 22.5058C19.6795 22.6129 19.8023 22.6638 19.9095 22.6194C20.0167 22.575 20.0675 22.4522 20.0232 22.345C19.9788 22.2379 19.8559 22.187 19.7488 22.2314Z" fill="#2C2C6F"/>
<path d="M15.5953 13.8377L17.1954 16.2492L17.7546 17.5777L16.8837 16.4292L15.5953 13.8377Z" fill="#2C2C6F"/>
<path d="M16.2395 13.7549C16.3467 13.7105 16.3975 13.5877 16.3532 13.4806C16.3088 13.3734 16.1859 13.3225 16.0788 13.3669C15.9716 13.4113 15.9207 13.5341 15.9651 13.6413C16.0095 13.7484 16.1324 13.7993 16.2395 13.7549Z" fill="#2C2C6F"/>
<path d="M19.2443 22.6267L18.3229 19.8832L18.1266 18.4552L18.6706 19.79L19.2443 22.6267Z" fill="#2C2C6F"/>
<path d="M18.5985 22.5426C18.4836 22.5578 18.4026 22.6633 18.4178 22.7783C18.4329 22.8932 18.5384 22.9742 18.6534 22.9591C18.7684 22.9439 18.8493 22.8384 18.8342 22.7234C18.819 22.6084 18.7135 22.5275 18.5985 22.5426Z" fill="#2C2C6F"/>
<path d="M16.75 13.3597L17.6715 16.1031L17.8678 17.5311L17.3238 16.1963L16.75 13.3597Z" fill="#2C2C6F"/>
<path d="M17.3958 13.4437C17.5108 13.4285 17.5918 13.3231 17.5766 13.2081C17.5615 13.0931 17.456 13.0121 17.341 13.0273C17.226 13.0424 17.1451 13.1479 17.1602 13.2629C17.1754 13.3779 17.2808 13.4588 17.3958 13.4437Z" fill="#2C2C6F"/>
</g>
</g>
<defs>
<clipPath id="clip0_8751_366308">
<rect width="36" height="36" rx="18" fill="white"/>
</clipPath>
</defs>
</svg>
