<svg width="42" height="42" viewBox="0 0 42 42" fill="none" xmlns="http://www.w3.org/2000/svg">
<rect x="0.5" y="0.5" width="41" height="41" rx="20.5" fill="#1E2739"/>
<rect x="0.5" y="0.5" width="41" height="41" rx="20.5" stroke="white"/>
<path d="M27.8422 17.9151C33.0515 21.9688 35.7184 26.7863 33.9541 29.7756C32.6683 31.9542 29.4344 32.1712 25.3492 31.3536L25.4598 30.8008C29.2234 31.7727 32.3464 31.0492 33.3767 29.3036C34.7119 27.0414 32.381 23.0338 27.9038 19.4546L27.8422 17.9151Z" fill="white"/>
<path d="M20.1438 13.4513C14.2517 11.0363 8.92777 11.0722 7.1097 14.153C5.43752 16.9862 7.74573 21.5988 12.4262 25.5679L14.92 25.0228C9.96675 21.312 7.16588 16.9989 8.71245 14.6796C10.0291 12.9041 13.9271 12.726 18.5726 14.2916L20.1438 13.4513Z" fill="white"/>
<path d="M24.5563 15.6287C26.3566 16.8939 26.9427 19.3284 25.8745 21.2862L28.0881 24.1776L27.9991 20.8261L33.0903 19.4619L32.2751 16.4195L27.9129 17.5892L27.716 10.1583L24.5574 15.6293L24.5563 15.6287Z" fill="white"/>
<path d="M25.41 21.973C24.16 23.4928 22.0174 23.9962 20.2079 23.1575L19.054 25.1562L27.7054 24.9723L25.41 21.973Z" fill="white"/>
<path d="M17.951 17.6715L14.2065 17.1822L18.3729 24.7665L19.5269 22.7678C17.8952 21.6211 17.2599 19.5139 17.951 17.6715Z" fill="white"/>
<path d="M26.4562 26.9692L17.9018 27.1512L14.965 32.2379L19.6939 30.0688L20.8442 34.3619L23.8866 33.5467L22.5981 28.7376L26.4562 26.9692Z" fill="white"/>
<path d="M17.2258 26.7532L13.1063 19.2539L13.5038 23.4794L8.69475 24.768L9.50997 27.8104L13.8025 26.6611L14.2896 31.8389L17.2258 26.7532Z" fill="white"/>
<path d="M14.7049 16.4489L18.3158 16.9203C19.4772 15.0163 21.8786 14.3066 23.8745 15.2331L27.0338 9.76108L20.4999 13.306L19.3308 8.94275L16.2878 9.75902L17.652 14.8503L14.7049 16.4489Z" fill="white"/>
<path d="M22.4293 18.8429C21.6601 18.0163 21.7518 17.8575 21.8258 17.7294C21.9285 17.5516 22.3391 17.4612 22.8441 17.7527C23.1426 17.9251 23.6016 18.2889 23.3132 18.7886L24.2225 19.3136C24.7347 18.4265 24.3918 17.4338 23.3691 16.8434C22.2756 16.212 21.2892 16.5586 20.9164 17.2044C20.4067 18.0873 21.0007 18.848 21.655 19.5533C22.4241 20.3798 22.3365 20.5438 22.2625 20.6719C22.1599 20.8497 21.7492 20.9401 21.2442 20.6486C20.9446 20.4756 20.4867 20.1124 20.7751 19.6127L19.8658 19.0877C19.3536 19.9748 19.6965 20.9675 20.7192 21.5579C21.8127 22.1893 22.7991 21.8427 23.1719 21.1969C23.6833 20.3136 23.0852 19.5476 22.4293 18.8429Z" fill="white"/>
</svg>
