<svg width="42" height="42" viewBox="0 0 42 42" fill="none" xmlns="http://www.w3.org/2000/svg">
<rect width="42" height="42" rx="21" fill="white"/>
<path d="M35.145 29.477C37.3789 25.6921 32.3791 18.3571 25.4058 14.2252C18.4058 10.0933 9.25347 9.02333 6.88778 13.0322C4.95364 16.3092 8.07846 21.8477 14.0164 26.2642C14.9367 26.9487 15.2414 27.1749 15.2414 27.1749L15.7664 25.0749C15.7664 25.0749 15.6336 24.8957 14.5232 24.0249C9.67719 20.225 7.00894 15.9348 8.57488 13.5865C10.491 11.0026 18.025 11.0747 25.025 14.9247C32.2273 19.1756 36.2973 25.9979 34.5372 28.9802C33.4528 30.8175 30.1653 31.5792 26.2037 30.5561L26.0873 31.138C30.3875 31.9987 33.7915 31.7703 35.145 29.477Z" fill="#00A3FF"/>
<path d="M16.9972 15.8224L16.7109 15.9682C13.4771 17.6081 11.8719 21.2745 12.8495 24.7816C13.4247 26.8451 14.7865 28.4962 16.5241 29.4994L16.998 15.8211L16.9972 15.8224Z" fill="#00A3FF"/>
<path d="M20.7267 22.2166L16.9951 15.8223L16.5213 29.5006L20.7259 22.2179L20.7267 22.2166Z" fill="#66C8FF"/>
<path d="M28.1366 22.2548L28.1535 22.5757C28.3501 26.1961 25.9776 29.4195 22.4516 30.3264C20.3769 30.86 18.2661 30.5062 16.5285 29.503L28.1373 22.2535L28.1366 22.2548Z" fill="#66C8FF"/>
<path d="M20.731 22.219L28.1344 22.2535C20.3952 27.0865 16.5255 29.503 16.5255 29.503L20.7302 22.2203L20.731 22.219Z" fill="#CCEDFF"/>
<path d="M24.8359 15.1152L21.6695 20.5997L28.0469 20.6271L24.8359 15.1152Z" fill="#CCEDFF"/>
<path d="M24.8365 15.1144L18.4536 15.0873L21.67 20.5988L24.8365 15.1144Z" fill="#66C8FF"/>
<path d="M27.4981 10.5011L18.4512 15.0883L24.8386 15.1075L27.4981 10.5011Z" fill="#00A3FF"/>
<path d="M24.8406 15.1104L28.051 20.6325L27.5024 10.5L24.8406 15.1104Z" fill="#66C8FF"/>
</svg>
