<svg width="42" height="42" xmlns="http://www.w3.org/2000/svg" fill="none">
 <defs>
  <clipPath id="rbn_svg__clip0_9004_369919">
   <rect id="svg_1" rx="21" fill="white" height="42" width="42"/>
  </clipPath>
 </defs>
 <g>
  <title>Layer 1</title>
  <g id="svg_2" clip-path="url(#rbn_svg__clip0_9004_369919)">
   <rect id="svg_3" rx="21" fill="#FC0A54" height="42" width="42"/>
   <circle id="svg_4" fill="#0071c5" r="21" cy="21" cx="21"/>
  </g>
  <g stroke="null">
   <path stroke="null" fill="#fff" d="m15.50418,19.79836l-0.00347,4.17405l-1.28971,0l0.00347,-5.36188l2.83791,0.02079c1.2502,0 1.67572,0.86974 1.67572,1.5981l0,3.74299l-1.2904,0l0,-3.68893c0,-0.30493 -0.38601,-0.46709 -0.97022,-0.46709l-0.96399,-0.01802l0.00069,0zm9.47771,-0.11643c-0.48719,0 -0.80182,0.228 -0.95914,0.53709c-0.09356,0.18573 -0.12544,0.3278 -0.13652,0.55511l2.13034,0c-0.02772,-0.55441 -0.30493,-1.0922 -1.03468,-1.0922zm-1.09566,1.91619c0,0.66252 0.39086,1.20862 1.19961,1.20862c0.62995,0 0.77964,-0.15939 1.14348,-0.48858l0.88013,0.76371c-0.56342,0.5059 -0.98131,0.89053 -2.02361,0.89053c-1.36386,0 -2.48932,-0.69995 -2.48932,-2.67158c0,-1.68403 0.94943,-2.69029 2.44635,-2.69029c1.51909,0 2.06727,1.05824 2.06727,2.52051l0,0.46709l-3.22392,0zm-2.68336,2.37428c-1.1615,0 -1.82957,-0.7346 -1.82957,-1.46019l0,-5.3501l1.30426,0l0,1.46712l1.27446,0l0,1.18714l-1.28971,0l0,2.44982c0,0.2973 0.32225,0.51907 0.8039,0.51907l0.48511,0l0,1.18714l-0.74846,0zm-8.2781,-5.93708l-1.28901,0l-0.00416,-1.18714l1.28971,0l0.00347,1.18714zm0,5.93708c-1.07418,-0.09356 -1.29109,-0.80944 -1.29109,-1.49345l-0.00208,-3.84971l1.29317,0l0,5.34317zm16.77934,-0.21345c-1.07279,-0.09425 -1.30495,-0.68609 -1.30495,-1.36871l0,-5.54206l1.30495,0l0,6.91077zm5.02022,-6.34388c-1.30149,-5.77007 -13.86035,-6.14915 -21.79956,-1.75472l0,0.48511c7.93159,-3.70626 19.42113,-3.67022 20.4461,1.64384c0.34304,1.75749 -0.44769,3.66953 -2.3923,4.72292l0,1.37772c2.34101,-0.77895 4.44294,-3.38401 3.74576,-6.47486zm-14.4314,10.09519c-5.47969,0.46016 -11.18946,-0.26335 -11.98851,-4.15603c-0.39086,-1.91966 0.76648,-3.75823 2.04232,-5.02161l0,-0.67639c-2.29666,1.83165 -3.73883,3.95367 -3.02156,6.69247c0.91617,3.51221 5.8165,5.50256 13.29693,4.84142c2.95919,-0.26265 7.01958,-1.20169 9.71264,-2.54545l0,-1.90926c-2.44358,1.32297 -6.67376,2.49071 -10.04183,2.77484z"/>
  </g>
 </g>
</svg>