<svg xmlns="http://www.w3.org/2000/svg" width="36" height="36" fill="none"><g clip-path="url(#a)"><g clip-path="url(#b)"><rect width="36" height="36" fill="#F5F5F5" rx="18"/><path fill="#F3F3F3" d="M18 36c9.941 0 18-8.059 18-18S27.941 0 18 0 0 8.059 0 18s8.059 18 18 18Z"/><path fill="url(#c)" d="M18 36c9.941 0 18-8.059 18-18S27.941 0 18 0 0 8.059 0 18s8.059 18 18 18Z" opacity=".2"/><path fill="#3BC652" d="M6.444 12.588H4.286v2.079h2.158v-2.08Z"/><path fill="#65946D" d="M6.406 23.417v-7.495h-2.05v7.488h2.05v.007Zm13.576.074v-1.835c-.3 0-.552-.015-.737-.044-.215-.03-.376-.104-.483-.207-.108-.104-.177-.252-.215-.452a4.606 4.606 0 0 1-.047-.725v-2.612h1.482v-1.694H18.5v-2.915h-2.05v7.243c0 .614.054 1.132.161 1.547.108.407.292.74.546.991.253.252.59.43.998.54.415.111.937.163 1.559.163h.268Zm11.733-.074V12.43h-2.05v10.987h2.05Zm-17.238-6.755c-.569-.592-1.367-.888-2.38-.888-.492 0-.945.096-1.344.289a2.882 2.882 0 0 0-1.022.799l-.107.14v-1.08h-2.02v7.488H9.64v-3.988.273-.133c.023-.703.2-1.22.538-1.553.36-.356.798-.533 1.297-.533.592 0 1.045.177 1.344.518.292.34.446.821.446 1.435v3.981h2.065v-4.247c.008-1.066-.284-1.91-.852-2.501Zm14.129 2.997c0-.54-.1-1.044-.292-1.517-.2-.466-.476-.88-.822-1.236a3.753 3.753 0 0 0-1.267-.829 4.293 4.293 0 0 0-1.628-.296c-.56 0-1.09.104-1.582.304-.491.207-.921.48-1.282.828-.36.348-.653.763-.86 1.236a3.646 3.646 0 0 0-.315 1.524c0 .54.1 1.05.3 1.525.2.473.483.887.837 1.235.353.348.79.629 1.297.829a4.38 4.38 0 0 0 1.667.31c1.735 0 2.81-.761 3.455-1.472l-1.474-1.08c-.307.355-1.044.836-1.966.836-.576 0-1.052-.126-1.413-.385a1.9 1.9 0 0 1-.737-1.043l-.023-.067h6.105v-.703Zm-6.09-.689c0-.547.653-1.502 2.058-1.509 1.405 0 2.066.955 2.066 1.502l-4.124.007Z"/></g></g><defs><clipPath id="a"><path fill="#fff" d="M0 0h36v36H0z"/></clipPath><clipPath id="b"><rect width="36" height="36" fill="#fff" rx="18"/></clipPath><linearGradient id="c" x1="18" x2="18" y1="24.429" y2="36" gradientUnits="userSpaceOnUse"><stop stop-color="#fff"/><stop offset="1" stop-color="#68FD5B"/></linearGradient></defs></svg>