<svg width="42" height="42" viewBox="0 0 42 42" fill="none" xmlns="http://www.w3.org/2000/svg">
<rect width="42" height="42" rx="21" fill="#00A3FF"/>
<rect x="1.9563" y="1.95605" width="38.0875" height="38.0875" rx="19.0438" stroke="#05FF00" stroke-width="1.3125"/>
<path d="M35.145 29.4902C37.3789 25.7052 32.3791 18.3703 25.4058 14.2384C18.4058 10.1065 9.25347 9.03651 6.88778 13.0453C4.95364 16.3224 8.07846 21.8609 14.0164 26.2774C14.9367 26.9619 15.2414 27.1881 15.2414 27.1881L15.7664 25.0881C15.7664 25.0881 15.6336 24.9088 14.5232 24.0381C9.67719 20.2382 7.00894 15.948 8.57488 13.5996C10.491 11.0158 18.025 11.0879 25.025 14.9379C32.2273 19.1887 36.2973 26.0111 34.5372 28.9933C33.4528 30.8307 30.1653 31.5924 26.2037 30.5693L26.0873 31.1512C30.3875 32.0119 33.7915 31.7835 35.145 29.4902Z" fill="white"/>
<path d="M16.9972 15.8375L16.7109 15.9834C13.4771 17.6232 11.8719 21.2897 12.8495 24.7967C13.4247 26.8603 14.7865 28.5114 16.5241 29.5146L16.998 15.8362L16.9972 15.8375Z" fill="white"/>
<path opacity="0.6" d="M20.7267 22.2303L16.9951 15.8359L16.5213 29.5143L20.7259 22.2316L20.7267 22.2303Z" fill="white"/>
<path opacity="0.6" d="M28.1366 22.2704L28.1535 22.5913C28.3501 26.2117 25.9776 29.4351 22.4516 30.342C20.3769 30.8757 18.2661 30.5219 16.5285 29.5186L28.1373 22.2691L28.1366 22.2704Z" fill="white"/>
<path opacity="0.2" d="M20.731 22.2346L28.1344 22.2691C20.3952 27.1021 16.5255 29.5186 16.5255 29.5186L20.7302 22.2359L20.731 22.2346Z" fill="white"/>
<path opacity="0.2" d="M24.8359 15.1323L21.6695 20.6168L28.0469 20.6442L24.8359 15.1323Z" fill="white"/>
<path opacity="0.6" d="M24.8365 15.13L18.4536 15.1029L21.67 20.6145L24.8365 15.13Z" fill="white"/>
<path d="M27.4981 10.5202L18.4512 15.1074L24.8386 15.1266L27.4981 10.5202Z" fill="white"/>
<path opacity="0.6" d="M24.8406 15.1255L28.051 20.6476L27.5024 10.5151L24.8406 15.1255Z" fill="white"/>
</svg>
