<svg width="42" height="42" viewBox="0 0 42 42" fill="none" xmlns="http://www.w3.org/2000/svg">
<path d="M21 41C32.0457 41 41 32.0457 41 21C41 9.9543 32.0457 1 21 1C9.9543 1 1 9.9543 1 21C1 32.0457 9.9543 41 21 41Z" fill="#1C1C1C"/>
<path d="M21 7.15039L9 14.0784V27.9344L21 34.8624L33 27.9344V14.0784L21 7.15039ZM21.2453 29.5931L12.0347 24.3397L12.072 21.7851L21.24 27.0331L25.6613 24.4837L22.696 22.7717L21.5867 23.4117L19.5067 22.2171L20.6213 21.5717L19.1653 20.7291L18.2853 21.2411L16.2 20.0464L17.0853 19.5344L12.3867 16.8197L21.24 11.7104L29.592 16.4731L27.352 17.7744L21.24 14.2704L16.8187 16.8197L19.2933 18.2491L20.5573 17.5131L22.6427 18.7077L21.368 19.4437L22.824 20.2864L23.8587 19.6837L25.944 20.8784L24.8987 21.4864L30.0827 24.4784L21.2453 29.5931Z" fill="#F3F3F3"/>
</svg>
