<svg xmlns="http://www.w3.org/2000/svg" width="42" height="42" fill="none"><path fill="#1C1C1C" d="M21 41c11.046 0 20-8.954 20-20S32.046 1 21 1 1 9.954 1 21s8.954 20 20 20Z"/><path fill="#F3F3F3" d="M21 7.15 9 14.078v13.856l12 6.928 12-6.928V14.078L21 7.15Zm.245 22.443-9.21-5.253.037-2.555 9.168 5.248 4.421-2.55-2.965-1.711-1.11.64-2.08-1.195 1.115-.645-1.456-.843-.88.512-2.085-1.195.885-.512-4.698-2.714 8.853-5.11 8.352 4.763-2.24 1.301-6.112-3.504-4.421 2.55 2.474 1.43 1.264-.737 2.086 1.195-1.275.736 1.456.842 1.035-.602 2.085 1.194-1.045.608 5.184 2.992-8.838 5.115Z"/></svg>