<svg xmlns="http://www.w3.org/2000/svg" width="42" height="42" fill="none"><circle cx="21" cy="21" r="20" fill="#19263B"/><path fill="#39F2B1" d="M22.365 9v5.775l5.014-2.884L22.365 9Z"/><path fill="#39F2B1" d="M27.38 11.892v5.775l5.012-2.892-5.013-2.883Z" opacity=".9"/><path fill="#39F2B1" d="M22.365 14.775v5.775l5.014-2.883-5.014-2.892Zm5.014 2.892v5.775l5.013-2.892-5.013-2.883ZM22.365 20.55v5.775l5.014-2.884-5.014-2.891Z" opacity=".8"/><path fill="#39F2B1" d="M27.38 23.442v5.776l5.012-2.892-5.013-2.884Z"/><path fill="#39F2B1" d="M9.406 14.581v5.775l5.014-2.891-5.014-2.884Z" opacity=".4"/><path fill="#39F2B1" d="M15.731 16.727v5.776l5.006-2.884-5.006-2.892Z" opacity=".2"/><path fill="#39F2B1" d="M12.015 20.38v5.775l5.013-2.891-5.013-2.884Z" opacity=".3"/><path fill="#39F2B1" d="M15.318 24.738v5.775l5.006-2.89-5.006-2.885Z" opacity=".9"/><path fill="#39F2B1" d="M22.325 27.224V33l5.005-2.892-5.005-2.884Z" opacity=".7"/><path fill="#39F2B1" d="M16.566 13.876v5.776l5.006-2.884-5.006-2.892Z" opacity=".9"/><path fill="#39F2B1" d="M22.366 9v5.775l-5.014-2.884L22.366 9Z" opacity=".8"/><path fill="#39F2B1" d="M16.566 11.456v5.774L11.55 14.34l5.015-2.883ZM21.58 14.313v5.776l-5.014-2.893 5.014-2.884Z" opacity=".6"/><path fill="#39F2B1" d="M15.708 16.727v5.776l-5.014-2.884 5.014-2.892Z" opacity=".95"/><path fill="#39F2B1" d="M22.366 20.55v5.775L17.36 23.44l5.006-2.891Z" opacity=".6"/><path fill="#39F2B1" d="M12.014 21.895v5.775L7 24.777l5.014-2.883Z" opacity=".55"/><path fill="#39F2B1" d="M32.392 14.775v5.775l-5.013-2.883 5.013-2.892Z"/><path fill="#39F2B1" d="M27.379 17.668v5.774l-5.014-2.891 5.014-2.883Z" opacity=".95"/><path fill="#39F2B1" d="M32.392 20.55v5.775L27.38 23.44l5.013-2.891Z" opacity=".9"/><path fill="#39F2B1" d="M27.379 23.442v5.776l-5.014-2.892 5.014-2.884Z" opacity=".7"/><path fill="#39F2B1" d="M21.256 25.848v5.775l-5.013-2.884 5.013-2.891Z" opacity=".4"/><path fill="#39F2B1" d="M27.379 11.892v5.775l-5.014-2.892 5.014-2.883Z"/></svg>