<svg xmlns="http://www.w3.org/2000/svg" width="42" height="42" fill="none"><circle cx="21" cy="21" r="21" fill="#DDD"/><path fill="#3C1A26" d="M32.82 29.18v3.22l-4.901 2.87v-3.22l4.9-2.87Z"/><path fill="#29121A" d="m27.915 35.288-8.68-5.04v-3.221l8.68 5.04v3.22Z"/><path fill="#421D2A" d="m27.847 32.067-8.681-5.04 4.9-2.871 8.751 5.04-4.97 2.87Z"/><path fill="#3C1A26" d="M27.142 32.393v3.22l-4.9 2.87v-3.22l4.9-2.87Z"/><path fill="#29121A" d="m22.238 38.5-8.68-5.04v-3.22l8.68 5.04v3.22Z"/><path fill="#421D2A" d="m22.238 35.28-8.68-5.04 4.9-2.871 8.68 5.04-4.9 2.87Z"/><path fill="#DB5B54" d="M32.71 23.672v4.55l-11.972 6.931v-4.55l11.971-6.931Z"/><path fill="#DB5B54" d="M32.71 23.672v4.55l-11.972 6.931v-4.55l11.971-6.931Z"/><path fill="#A24741" d="m20.705 35.153-11.902-6.93v-4.55l11.902 6.93v4.55Z"/><path fill="#A24741" d="m20.705 35.153-11.902-6.93v-4.55l11.902 6.93v4.55Z"/><path fill="#DB5B54" d="m20.705 30.595-11.902-6.93 11.972-6.931 11.901 6.93-11.971 6.931Z"/><path fill="#BD967F" d="M32.607 14.477v9.171L20.636 30.58v-9.17l11.97-6.931Z"/><path fill="#886B59" d="m20.636 30.58-11.9-6.931v-9.171l11.9 6.93v9.171Z"/><path fill="#B88D73" d="m20.636 21.429-11.9-6.93 11.97-6.932 11.902 6.931-11.972 6.93Z"/><path fill="#fff" d="M26.59 20.288v1.82l-1.61.91v1.82l1.61-.91-3.22 1.82v-3.64l3.22-1.82Z"/><path fill="#493239" d="M26.655 22.1v1.82l-1.61.91v-1.82l1.61-.91Z"/><path fill="#fff" d="M31.308 17.588v1.82l-1.61.91v1.82l1.61-.91-3.15 1.89v-3.64l3.15-1.89Z"/><path fill="#493239" d="M31.375 19.468v1.82l-1.61.91v-1.82l1.61-.91Z"/><path fill="#886B59" d="M13.512 32.824v2.73l-3.99-2.31v-2.73l3.99 2.31Z"/><path fill="#BD967F" d="m13.489 32.824 3.99-2.31v2.73l-3.99 2.31v-2.73Z"/><path fill="#CAA390" d="m9.521 30.534 3.99-2.31 3.991 2.31-3.99 2.31-3.99-2.31Z"/><path fill="#A24741" d="M14.696 31.659v1.82l-1.19-.7-3.99-2.31-1.191-.7v-1.75l6.37 3.64Z"/><path fill="#A24741" d="M14.696 31.659v1.82l-1.19-.7-3.99-2.31-1.191-.7v-1.75l6.37 3.64Z"/><path fill="#C4524C" d="m14.685 31.662 3.99-2.31v1.82l-3.99 2.31v-1.82Z"/><path fill="#C4524C" d="m14.685 31.662 3.99-2.31v1.82l-3.99 2.31v-1.82Z"/><path fill="#DB5B54" d="m8.325 28.004 3.99-2.31 6.371 3.71-3.99 2.31-6.371-3.71Z"/><path fill="#DB5B54" d="m8.325 28.004 3.99-2.31 6.371 3.71-3.99 2.31-6.371-3.71ZM32.607 10.444v4.55l-11.971 6.932v-4.55l11.97-6.932Z"/><path fill="#A24741" d="m20.636 21.926-11.9-6.93v-4.551l11.9 6.93v4.55Z"/><path fill="#F2716A" d="m20.636 17.291-11.9-6.93L20.705 3.5l11.902 6.93-11.972 6.861Z"/><path fill="#DB5B54" d="M30.456 18.508c.98-.56 2.1-1.05 3.22-1.33v1.82c-1.12.28-2.17.7-3.22 1.33-1.12.7-2.24 1.47-3.22 2.38v-1.82c.98-.91 2.03-1.75 3.22-2.38Z"/><path fill="#A24741" d="m27.224 22.675-3.99-2.31v-1.82l3.99 2.31v1.82Z"/><path fill="#F2716A" d="m27.224 20.874-3.99-2.31c.98-.91 2.03-1.68 3.22-2.38 1.12-.7 3.15-1.33 3.15-1.33l3.99 2.38s-2.03.63-3.22 1.26c-1.12.63-2.17 1.47-3.15 2.38Z"/><path fill="#898989" d="m31.018 27.28-.77-.49-.21-.14.77.49.21.14ZM29.45 29.063l-.77-.49-.42-.35.77.49.42.35Z"/><path fill="#888" d="m21.406 31.01-.77-.49v-.28l.77.49v.28Z"/><path fill="#D6D6D6" d="M33.463 22.476v1.61l-2.45 3.22-.21-.14-1.33 1.82-.42-.35-1.54 2.45-1.61-.63-.42.84-1.331-.35-.21.42-2.52-.35v-1.61l12.04-6.93Z"/><path fill="#888" d="m21.406 30.727-.77-.49v-1.33l.77.49v1.33Z"/><path fill="#FDFDFD" d="m21.406 29.418-.77-.49 12.04-6.93.77.49-12.04 6.93ZM14.754 23.103l.77-.49 5.11 6.3-.77.49-5.11-6.3Z"/><path fill="#FDFDFD" d="m19.884 29.397.77-.49.77.49-.77.49-.77-.49Z"/><path fill="#D6D6D6" d="m20.636 29.91.77-.49v1.61l-.77.49v-1.61Z"/><path fill="#898989" d="M14.77 19.385v3.78l5.111 6.301.77.49v1.61l-5.95-3.64-1.4-.84-.7-.42v-1.61l.7-2.73v-3.78l1.47.84Z"/><path fill="#FDFDFD" d="m14.754 19.377.77-.49v3.78l-.77.42v-3.71Z"/><path fill="#DCDCDC" d="m13.386 18.557.77-.49 1.4.84-.77.49-1.4-.84Z"/></svg>