<svg width="42" height="42" viewBox="0 0 42 42" fill="none" xmlns="http://www.w3.org/2000/svg">
<circle cx="21" cy="21" r="21" fill="#DDDDDD"/>
<path d="M32.8192 29.1802V32.4005L27.9187 35.2708V32.0505L32.8192 29.1802Z" fill="#3C1A26"/>
<path d="M27.9151 35.2877L19.2341 30.2472V27.0269L27.9151 32.0674V35.2877Z" fill="#29121A"/>
<path d="M27.8467 32.0666L19.1658 27.0261L24.0663 24.1558L32.8172 29.1963L27.8467 32.0666Z" fill="#421D2A"/>
<path d="M27.1425 32.3931V35.6134L22.2419 38.4837V35.2634L27.1425 32.3931Z" fill="#3C1A26"/>
<path d="M22.2383 38.5009L13.5574 33.4603V30.24L22.2383 35.2805V38.5009Z" fill="#29121A"/>
<path d="M22.2383 35.2797L13.5574 30.2392L18.4579 27.3689L27.1388 32.4094L22.2383 35.2797Z" fill="#421D2A"/>
<path d="M32.7093 23.6719V28.2224L20.738 35.1531V30.6026L32.7093 23.6719Z" fill="#DB5B54"/>
<path d="M32.7093 23.6719V28.2224L20.738 35.1531V30.6026L32.7093 23.6719Z" fill="#DB5B54"/>
<path d="M20.7047 35.1533L8.80347 28.2226V23.6721L20.7047 30.6029V35.1533Z" fill="#A24741"/>
<path d="M20.7047 35.1533L8.80347 28.2226V23.6721L20.7047 30.6029V35.1533Z" fill="#A24741"/>
<path d="M20.7047 30.5951L8.80347 23.6644L20.7747 16.7336L32.676 23.6644L20.7047 30.5951Z" fill="#DB5B54"/>
<path d="M32.6068 14.4775V23.6485L20.6355 30.5793V21.4083L32.6068 14.4775Z" fill="#BD967F"/>
<path d="M20.6364 30.5795L8.73511 23.6488V14.4778L20.6364 21.4085V30.5795Z" fill="#886B59"/>
<path d="M20.6364 21.4289L8.73511 14.4981L20.7064 7.56738L32.6077 14.4981L20.6364 21.4289Z" fill="#B88D73"/>
<path d="M26.5902 20.2881V22.1083L24.98 23.0184V24.8386L26.5902 23.9285L23.3699 25.7487V22.1083L26.5902 20.2881Z" fill="white"/>
<path d="M26.6549 22.0996V23.9198L25.0447 24.8299V23.0097L26.6549 22.0996Z" fill="#493239"/>
<path d="M31.3083 17.5879V19.4081L29.6981 20.3182V22.1384L31.3083 21.2283L28.158 23.1185V19.4781L31.3083 17.5879Z" fill="white"/>
<path d="M31.3746 19.4678V21.288L29.7644 22.1981V20.3779L31.3746 19.4678Z" fill="#493239"/>
<path d="M13.5117 32.8237V35.554L9.52124 33.2437V30.5134L13.5117 32.8237Z" fill="#886B59"/>
<path d="M13.489 32.8237L17.4794 30.5134V33.2437L13.489 35.554V32.8237Z" fill="#BD967F"/>
<path d="M9.52124 30.5336L13.5117 28.2234L17.5021 30.5336L13.5117 32.8439L9.52124 30.5336Z" fill="#CAA390"/>
<path d="M14.6956 31.6587V33.4789L13.5055 32.7788L9.51508 30.4686L8.32495 29.7685V28.0183L14.6956 31.6587Z" fill="#A24741"/>
<path d="M14.6956 31.6587V33.4789L13.5055 32.7788L9.51508 30.4686L8.32495 29.7685V28.0183L14.6956 31.6587Z" fill="#A24741"/>
<path d="M14.6853 31.6616L18.6757 29.3513V31.1715L14.6853 33.4818V31.6616Z" fill="#C4524C"/>
<path d="M14.6853 31.6616L18.6757 29.3513V31.1715L14.6853 33.4818V31.6616Z" fill="#C4524C"/>
<path d="M8.32495 28.0043L12.3154 25.6941L18.6861 29.4045L14.6956 31.7147L8.32495 28.0043Z" fill="#DB5B54"/>
<path d="M8.32495 28.0043L12.3154 25.6941L18.6861 29.4045L14.6956 31.7147L8.32495 28.0043Z" fill="#DB5B54"/>
<path d="M32.6068 10.4443V14.9948L20.6355 21.9256V17.3751L32.6068 10.4443Z" fill="#DB5B54"/>
<path d="M20.6364 21.9258L8.73511 14.9951V10.4446L20.6364 17.3753V21.9258Z" fill="#A24741"/>
<path d="M20.6364 17.2915L8.73511 10.3607L20.7064 3.5L32.6077 10.4307L20.6364 17.2915Z" fill="#F2716A"/>
<path d="M30.4555 18.5079C31.4356 17.9478 32.5557 17.4578 33.6758 17.1777V18.9979C32.5557 19.278 31.5056 19.698 30.4555 20.3281C29.3353 21.0281 28.2152 21.7982 27.2351 22.7083V20.8881C28.2152 19.978 29.2653 19.1379 30.4555 18.5079Z" fill="#DB5B54"/>
<path d="M27.2236 22.6754L23.2332 20.3651V18.5449L27.2236 20.8552V22.6754Z" fill="#A24741"/>
<path d="M27.2236 20.8742L23.2332 18.5639C24.2133 17.6538 25.2634 16.8837 26.4535 16.1837C27.5736 15.4836 29.6038 14.8535 29.6038 14.8535L33.5943 17.2338C33.5943 17.2338 31.564 17.8638 30.3739 18.4939C29.2538 19.124 28.2037 19.9641 27.2236 20.8742Z" fill="#F2716A"/>
<path d="M31.0179 27.2809L30.2479 26.7909L30.0378 26.6509L30.8079 27.1409L31.0179 27.2809Z" fill="#898989"/>
<path d="M29.4506 29.0632L28.6805 28.5732L28.2605 28.2231L29.0306 28.7132L29.4506 29.0632Z" fill="#898989"/>
<path d="M21.4056 31.0098L20.6355 30.5198V30.2397L21.4056 30.7298V31.0098Z" fill="#888888"/>
<path d="M33.4629 22.4756V23.3157V23.8057V24.0858L31.0127 27.3061L30.8026 27.1661L29.4725 28.9863L29.0524 28.6362L27.5123 31.0865L25.9021 30.4564L25.4821 31.2965L24.1519 30.9465L23.9419 31.3665L21.4216 31.0165V30.7365V29.4063L33.4629 22.4756Z" fill="#D6D6D6"/>
<path d="M21.4056 30.7269L20.6355 30.2369V28.9067L21.4056 29.3968V30.7269Z" fill="#888888"/>
<path d="M21.4056 29.4179L20.6355 28.9278L32.6768 21.9971L33.4469 22.4871L21.4056 29.4179Z" fill="#FDFDFD"/>
<path d="M14.7537 23.1026L15.5237 22.6125L20.6343 28.9132L19.8642 29.4033L14.7537 23.1026Z" fill="#FDFDFD"/>
<path d="M19.8835 29.3968L20.6536 28.9067L21.4237 29.3968L20.6536 29.8868L19.8835 29.3968Z" fill="#FDFDFD"/>
<path d="M20.6355 29.9095L21.4056 29.4194V31.0296L20.6355 31.5197V29.9095Z" fill="#D6D6D6"/>
<path d="M14.7706 19.3853V23.1657L19.8811 29.4663L20.6512 29.9564V31.5666L14.7006 27.9262L13.3004 27.0861L12.6003 26.666V25.0559L13.3004 22.3256V18.5452L14.7706 19.3853Z" fill="#898989"/>
<path d="M14.7537 19.377L15.5237 18.887V22.6674L14.7537 23.0874V19.377Z" fill="#FDFDFD"/>
<path d="M13.3865 18.5567L14.1566 18.0667L15.5567 18.9067L14.7866 19.3968L13.3865 18.5567Z" fill="#DCDCDC"/>
</svg>
