<svg xmlns="http://www.w3.org/2000/svg" width="36" height="36" fill="none"><rect width="36" height="36" fill="#AECFCF" rx="18"/><path fill="#030303" d="M7.017 13.6h3.949v.286h-.214c-.418 0-.692.034-.821.103-.13.07-.216.199-.257.386-.042.19-.063.639-.063 1.347v2.911c0 .723-.028 1.27-.084 1.648a2.52 2.52 0 0 1-.474 1.104 2.54 2.54 0 0 1-1.037.827c-.433.192-.936.288-1.509.288-.643 0-1.14-.12-1.486-.356-.347-.238-.521-.523-.521-.85 0-.198.062-.364.186-.5a.602.602 0 0 1 .46-.2c.185 0 .34.06.464.18.126.12.188.27.188.446a.8.8 0 0 1-.077.326.61.61 0 0 0-.07.224c0 .133.08.238.238.313.16.074.356.113.59.113.477 0 .877-.152 1.203-.455.326-.304.522-.662.59-1.076.066-.411.1-1.093.1-2.042v-2.905c0-.678-.02-1.114-.06-1.312-.04-.196-.124-.332-.253-.407-.127-.076-.408-.113-.84-.113h-.202v-.287ZM14.456 17.789h.61c.493 0 .89-.048 1.192-.148.302-.097.555-.306.756-.62.202-.316.302-.704.302-1.166 0-.706-.173-1.224-.52-1.555-.346-.33-.907-.496-1.685-.496-.285 0-.504.01-.655.027v3.958Zm0 .306v1.8c0 .674.016 1.115.048 1.322.032.208.117.364.255.464.139.102.4.152.785.152h.284v.286H11.9v-.286h.228c.367 0 .621-.048.762-.137a.641.641 0 0 0 .27-.434c.037-.193.056-.646.056-1.36v-4.184c0-.68-.02-1.117-.057-1.315-.038-.198-.122-.333-.253-.41-.13-.075-.414-.112-.846-.112h-.16v-.286l1.073-.044a52.154 52.154 0 0 1 2.006-.051c.883 0 1.564.069 2.04.206.479.14.87.383 1.175.737.306.35.458.796.458 1.332a2.4 2.4 0 0 1-.313 1.232 1.993 1.993 0 0 1-.893.811c-.39.184-1.073.277-2.052.277h-.938ZM25.769 20.654l3.1-7.054H31.5v.286h-.314c-.422 0-.697.035-.827.103-.13.071-.216.2-.26.387-.045.19-.066.639-.066 1.347v4.184c0 .671.016 1.11.05 1.319.033.206.118.36.254.46.137.102.4.152.786.152h.377v.287h-4.1v-.287h.304c.363 0 .615-.047.757-.137a.653.653 0 0 0 .271-.432c.04-.195.06-.648.06-1.362v-5.426l-3.358 7.644h-.306l-3.39-7.644v4.995c0 .683.02 1.148.062 1.396.042.247.171.463.389.65.218.186.526.291.92.316v.287h-3.07v-.287c.366-.02.665-.12.895-.297a1.07 1.07 0 0 0 .42-.657c.052-.261.078-.742.078-1.448v-3.713c0-.679-.02-1.117-.06-1.315-.04-.198-.125-.333-.255-.409-.127-.075-.409-.113-.844-.113h-.234V13.6h2.6l3.13 7.054Z"/></svg>