<svg width="42" height="42" viewBox="0 0 42 42" fill="none" xmlns="http://www.w3.org/2000/svg">
<rect width="42" height="42" rx="21" fill="white"/>
<path d="M27.1618 11.5094C26.3765 11.004 25.3239 11.3009 24.9189 12.1377L21.7073 18.7693C21.656 18.8761 21.6774 19.0073 21.7613 19.0929L21.8692 19.2025C21.9557 19.288 22.085 19.3092 22.1933 19.2558L28.8703 16.067C29.7123 15.6634 30.0094 14.6181 29.502 13.8376C28.8947 12.9049 28.096 12.111 27.1567 11.5094H27.1621H27.1618ZM24.0769 17.43L23.3429 17.7402C23.2619 17.7749 23.1837 17.6948 23.216 17.6147L23.5266 16.8876C23.5967 16.7246 23.7612 16.6257 23.9367 16.6362C24.1474 16.6496 24.3145 16.8151 24.3279 17.024C24.3388 17.2003 24.2389 17.3633 24.074 17.433L24.0769 17.4304V17.43Z" fill="url(#paint0_linear_5397_299247)"/>
<path d="M22.3472 19.6144C22.2338 19.6544 22.1558 19.7615 22.1558 19.8816V20.0338C22.1558 20.1539 22.2313 20.2611 22.3472 20.3011L29.3403 22.7361C30.2229 23.0434 31.1782 22.5117 31.3754 21.6053C31.61 20.52 31.61 19.3976 31.3754 18.3122C31.1785 17.4034 30.2258 16.8742 29.3403 17.1815L22.3472 19.6165V19.614V19.6144ZM25.4375 20.2239C25.3216 20.3548 25.1324 20.4003 24.9678 20.3336L24.2283 20.0367C24.1473 20.0046 24.1473 19.8924 24.2283 19.8578L24.9678 19.561C25.1324 19.4943 25.3212 19.5396 25.4375 19.6706C25.5776 19.8282 25.5776 20.0634 25.4375 20.2185V20.2239Z" fill="url(#paint1_linear_5397_299247)"/>
<path d="M28.8765 23.8529L22.1994 20.6641C22.0915 20.6132 21.9593 20.6345 21.8753 20.7174L21.7675 20.8271C21.6811 20.9126 21.6596 21.041 21.7134 21.1507L24.925 27.7823C25.33 28.619 26.3822 28.9156 27.1679 28.4106C28.1072 27.8094 28.9059 27.0155 29.5132 26.0823C30.0206 25.3018 29.7239 24.2569 28.8815 23.8533H28.8761L28.8765 23.8529ZM24.3285 22.8801C24.3151 23.0886 24.1477 23.2541 23.9373 23.2675C23.7594 23.2783 23.5945 23.1766 23.5273 23.0161L23.2167 22.289C23.1815 22.2089 23.2625 22.1285 23.3435 22.1635L24.0776 22.4737C24.2396 22.5433 24.342 22.7063 24.3311 22.8827L24.3285 22.8801Z" fill="url(#paint2_linear_5397_299247)"/>
<path d="M21.345 21.2972C21.3047 21.185 21.1965 21.1074 21.0752 21.1074H20.9216C20.8002 21.1074 20.6919 21.1821 20.6516 21.2972L18.201 28.2415C17.8904 29.1183 18.4251 30.0669 19.34 30.2621C20.433 30.4972 21.564 30.4972 22.657 30.2621C23.572 30.0669 24.1063 29.1179 23.7961 28.2415L21.3454 21.2972H21.345ZM21.2666 24.3655C21.11 24.5044 20.8725 24.5044 20.7133 24.3655C20.5812 24.2479 20.5354 24.0608 20.6026 23.8977L20.8994 23.1655C20.9317 23.0855 21.045 23.0855 21.0773 23.1655L21.3741 23.8977C21.4416 24.0608 21.3959 24.2479 21.2634 24.3655H21.2658H21.2666Z" fill="url(#paint3_linear_5397_299247)"/>
<path d="M19.6541 20.301C19.7674 20.261 19.8455 20.1539 19.8455 20.0338V19.8816C19.8455 19.7615 19.7699 19.6543 19.6541 19.6143L12.6613 17.1793C11.7787 16.872 10.8234 17.404 10.6262 18.3101C10.3915 19.3954 10.3915 20.5178 10.6262 21.6032C10.823 22.512 11.7758 23.0412 12.6613 22.7338L19.6541 20.2989V20.3014V20.301ZM16.5449 19.6756C16.6611 19.5447 16.85 19.4992 17.0145 19.5659L17.7515 19.8628C17.8325 19.8949 17.8325 20.0071 17.7515 20.042L17.0145 20.3389C16.85 20.4056 16.6611 20.3601 16.5449 20.2293C16.4047 20.0717 16.4047 19.8365 16.5449 19.6814V19.6759V19.6756Z" fill="url(#paint4_linear_5397_299247)"/>
<path d="M20.2366 20.8249L20.1287 20.7153C20.0422 20.6298 19.9129 20.6086 19.8047 20.662L13.1276 23.8508C12.2856 24.2518 11.9885 25.2997 12.4959 26.0799C13.1032 27.0126 13.902 27.8065 14.8413 28.4081C15.6265 28.9134 16.6791 28.6166 17.0842 27.7798L20.2932 21.1481C20.3473 21.0385 20.3231 20.9101 20.2391 20.8246H20.2366V20.8249ZM18.7655 22.2843L18.4549 23.0114C18.3848 23.1745 18.2203 23.2733 18.0449 23.2629C17.8342 23.2495 17.6672 23.0839 17.6537 22.8755C17.6428 22.6991 17.7426 22.5361 17.9072 22.4664L18.6413 22.1562C18.7223 22.1216 18.8004 22.2017 18.7681 22.2818L18.7655 22.2843Z" fill="url(#paint5_linear_5397_299247)"/>
<path d="M35.0565 19.9706V19.9587C35.0565 18.0744 34.685 16.2465 33.9516 14.5249C33.2434 12.8625 32.2299 11.3699 30.9394 10.0884C29.6489 8.80652 28.1459 7.80019 26.4718 7.09722C24.7381 6.36898 22.897 6 20.9998 6C19.1027 6 17.262 6.36898 15.5283 7.09722C13.8542 7.80019 12.3508 8.80652 11.0603 10.0884C9.76973 11.3699 8.75634 12.8625 8.04842 14.5249C7.31507 16.2465 6.94313 18.0744 6.94313 19.9587V19.9706L6.93659 20.0871C6.88756 20.9491 6.91371 21.8136 7.01469 22.671L7.05827 23.0414L7.14944 24.5733C7.20683 25.5356 7.68447 26.425 8.45668 27.009C8.88455 27.4328 9.18131 27.9695 9.31171 28.5557L9.48025 29.3128C9.66258 30.1311 10.332 30.7544 11.166 30.882C11.8742 30.9907 12.4736 31.4592 12.746 32.1175L12.8335 32.3292L12.9803 32.639C13.487 33.7096 14.646 34.318 15.8221 34.1312L16.0698 34.0918C17.2634 33.9025 18.4119 34.6275 18.7453 35.7814C19.0668 36.8933 20.0268 37.4805 20.9998 37.5C21.9729 37.4805 22.9329 36.8933 23.2544 35.7814C23.5878 34.6275 24.7363 33.9025 25.9298 34.0918L26.1776 34.1312C27.3537 34.318 28.5127 33.7096 29.0194 32.639L29.1662 32.3292L29.2537 32.1175C29.5261 31.4592 30.1254 30.9907 30.8338 30.882C31.6677 30.7544 32.3371 30.1311 32.5194 29.3128L32.688 28.5557C32.8183 27.9695 33.1152 27.4328 33.543 27.009C34.3152 26.425 34.7929 25.5356 34.8502 24.5733L34.9414 23.0414L34.985 22.671C35.086 21.8136 35.1121 20.9491 35.0631 20.0871L35.0565 19.9706ZM29.3986 28.2985C27.155 30.5261 24.1726 31.7531 20.9998 31.7531C17.8271 31.7531 14.8447 30.5261 12.6014 28.2985C10.3582 26.0709 9.12247 23.1089 9.12247 19.9587C9.12247 16.8084 10.3582 13.8461 12.6014 11.6184C14.8447 9.39083 17.8275 8.16413 20.9998 8.16413C24.1722 8.16413 27.155 9.39083 29.3986 11.6184C31.6419 13.8461 32.8772 16.808 32.8772 19.9587C32.8772 23.1092 31.6419 26.0709 29.3986 28.2985Z" fill="url(#paint6_linear_5397_299247)"/>
<path d="M20.6549 18.6199C20.6953 18.732 20.8036 18.8096 20.9248 18.8096H21.0788C21.2001 18.8096 21.3084 18.7349 21.3488 18.6199L23.7994 11.6755C24.1099 10.7987 23.5753 9.85009 22.6603 9.65495C21.5674 9.42231 20.4363 9.42231 19.3434 9.65495C18.4284 9.85009 17.8941 10.7991 18.2043 11.6755L20.6549 18.6199ZM20.7145 15.5353C20.8711 15.3964 21.1087 15.3964 21.2677 15.5353C21.3999 15.6503 21.4457 15.84 21.3785 16.0031L21.0818 16.7356C21.0495 16.8157 20.9361 16.8157 20.9038 16.7356L20.607 16.0031C20.5394 15.84 20.5855 15.6528 20.7178 15.5353H20.7152H20.7145Z" fill="url(#paint7_linear_5397_299247)"/>
<path d="M13.1243 16.0669L19.8014 19.2557C19.9093 19.3091 20.0415 19.2853 20.1254 19.2024L20.2333 19.0927C20.3198 19.0072 20.3412 18.8788 20.2874 18.7691L17.0784 12.1375C16.6733 11.3007 15.6211 11.0042 14.8355 11.5092C13.8962 12.1105 13.0975 12.9043 12.4902 13.8375C11.9827 14.618 12.2795 15.6633 13.1218 16.0669H13.1243ZM17.6505 17.0213C17.6639 16.8128 17.8314 16.6469 18.0416 16.6335C18.2196 16.6227 18.3845 16.7244 18.4518 16.8849L18.7623 17.612C18.7975 17.6921 18.7165 17.7726 18.6355 17.7376L17.9015 17.4274C17.7394 17.3578 17.637 17.1948 17.6479 17.0183L17.6505 17.0213Z" fill="url(#paint8_linear_5397_299247)"/>
<defs>
<linearGradient id="paint0_linear_5397_299247" x1="38.75" y1="0.328766" x2="-8.1926" y2="12.9059" gradientUnits="userSpaceOnUse">
<stop stop-color="#D188FF"/>
<stop offset="1" stop-color="#831FD8"/>
</linearGradient>
<linearGradient id="paint1_linear_5397_299247" x1="38.7503" y1="0.329427" x2="-8.19232" y2="12.9066" gradientUnits="userSpaceOnUse">
<stop stop-color="#D188FF"/>
<stop offset="1" stop-color="#831FD8"/>
</linearGradient>
<linearGradient id="paint2_linear_5397_299247" x1="38.7506" y1="0.331384" x2="-8.19193" y2="12.9085" gradientUnits="userSpaceOnUse">
<stop stop-color="#D188FF"/>
<stop offset="1" stop-color="#831FD8"/>
</linearGradient>
<linearGradient id="paint3_linear_5397_299247" x1="38.7492" y1="0.330721" x2="-8.1934" y2="12.9079" gradientUnits="userSpaceOnUse">
<stop stop-color="#D188FF"/>
<stop offset="1" stop-color="#831FD8"/>
</linearGradient>
<linearGradient id="paint4_linear_5397_299247" x1="38.7505" y1="0.329013" x2="-8.19211" y2="12.9062" gradientUnits="userSpaceOnUse">
<stop stop-color="#D188FF"/>
<stop offset="1" stop-color="#831FD8"/>
</linearGradient>
<linearGradient id="paint5_linear_5397_299247" x1="38.75" y1="0.329212" x2="-8.19258" y2="12.9064" gradientUnits="userSpaceOnUse">
<stop stop-color="#D188FF"/>
<stop offset="1" stop-color="#831FD8"/>
</linearGradient>
<linearGradient id="paint6_linear_5397_299247" x1="38.7498" y1="0.330001" x2="-8.19281" y2="12.9072" gradientUnits="userSpaceOnUse">
<stop stop-color="#D188FF"/>
<stop offset="1" stop-color="#831FD8"/>
</linearGradient>
<linearGradient id="paint7_linear_5397_299247" x1="38.7503" y1="0.329015" x2="-8.19225" y2="12.9062" gradientUnits="userSpaceOnUse">
<stop stop-color="#D188FF"/>
<stop offset="1" stop-color="#831FD8"/>
</linearGradient>
<linearGradient id="paint8_linear_5397_299247" x1="38.7497" y1="0.328968" x2="-8.1929" y2="12.9061" gradientUnits="userSpaceOnUse">
<stop stop-color="#D188FF"/>
<stop offset="1" stop-color="#831FD8"/>
</linearGradient>
</defs>
</svg>
