<svg width="42" height="42" viewBox="0 0 42 42" fill="none" xmlns="http://www.w3.org/2000/svg">
<path d="M21 41C32.0457 41 41 32.0457 41 21C41 9.9543 32.0457 1 21 1C9.9543 1 1 9.9543 1 21C1 32.0457 9.9543 41 21 41Z" fill="#B31514"/>
<circle cx="20.5" cy="13" r="2.5" fill="#030303"/>
<circle cx="20.5" cy="31" r="2.5" fill="#030303"/>
<rect x="10" y="23" width="22" height="4" fill="#030303"/>
<path d="M10 10C10 16.0751 14.4249 21 20.5 21C26.5751 21 32 16.0751 32 10H28C28 13.866 24.366 17.5 20.5 17.5C16.634 17.5 14 13.866 14 10H10Z" fill="#030303"/>
</svg>
