<svg xmlns="http://www.w3.org/2000/svg" width="42" height="42" fill="none"><circle cx="21" cy="21" r="21" fill="#65C8A1"/><path fill="#F3F3F3" fill-rule="evenodd" d="m22.634 6.658 7.137 5.6c.074.056.133.13.172.218a.593.593 0 0 1-.036.55.539.539 0 0 1-.199.19l-10.574 6.237L21.74 6.979a.616.616 0 0 1 .135-.257.565.565 0 0 1 .232-.158.534.534 0 0 1 .527.094Zm7.358 21.189-10.44-6.38 10.44-6.384a.523.523 0 0 1 .557-.012.566.566 0 0 1 .205.217c.05.09.074.194.073.298V27.34a.618.618 0 0 1-.074.298.572.572 0 0 1-.204.217.525.525 0 0 1-.557-.007Zm-7.366 8.424 7.145-5.6a.563.563 0 0 0 .174-.22.603.603 0 0 0-.033-.557.548.548 0 0 0-.2-.194l-10.578-6.237 2.606 12.474a.616.616 0 0 0 .128.261c.062.075.14.131.228.165a.53.53 0 0 0 .53-.083v-.009ZM19.552 7.692l-2.714 13.544 2.68 13.552a.61.61 0 0 1-.031.334.568.568 0 0 1-.201.258.514.514 0 0 1-.602-.008l-6.92-5.671a1.522 1.522 0 0 1-.42-.55 1.622 1.622 0 0 1-.144-.693V14.023c0-.237.05-.47.148-.683.098-.213.24-.398.416-.542l6.953-5.69a.516.516 0 0 1 .602-.008c.09.063.16.153.201.258a.61.61 0 0 1 .032.334Z" clip-rule="evenodd"/></svg>