<svg xmlns="http://www.w3.org/2000/svg" width="42" height="42" fill="none"><g clip-path="url(#a)"><mask id="b" width="42" height="42" x="0" y="0" maskUnits="userSpaceOnUse" style="mask-type:alpha"><circle cx="21" cy="21" r="21" fill="#D9D9D9"/></mask><g mask="url(#b)"><path fill="red" d="M52.5 0h-63v42h63V0Z"/><path fill="#fff" d="M17.063 7.875h7.875v9.188h9.187v7.875h-9.188v9.187h-7.875v-9.188H7.876v-7.875h9.188V7.876Z"/><path fill="#fff" d="M46-1H-4v43h50V-1Z"/><path fill="#C60C30" fill-rule="evenodd" d="M14.017 16.424a8.333 8.333 0 1 1 13.865 9.247" clip-rule="evenodd"/><path fill="#003478" fill-rule="evenodd" d="M27.97 25.558a8.333 8.333 0 1 1-13.866-9.247" clip-rule="evenodd"/><path fill="#003478" fill-rule="evenodd" d="M20.944 21.035a4.167 4.167 0 0 1 6.933 4.623" clip-rule="evenodd"/><path fill="#C60C30" fill-rule="evenodd" d="M21.115 20.802a4.167 4.167 0 0 1-6.933-4.623" clip-rule="evenodd"/><path fill="#000" d="M4.824 15.213 9.44 8.29l-1.154-.77-4.616 6.923 1.154.769ZM8.284 17.52l4.616-6.922-1.153-.77L7.13 16.75l1.154.77ZM6.554 16.365l4.616-6.922-1.153-.769L5.4 15.596l1.153.77ZM34.482 29.58l2.116-3.172-1.154-.77-2.115 3.173 1.153.77ZM31.982 33.33l2.116-3.172-1.154-.77-2.115 3.173 1.153.77ZM36.213 30.736l2.116-3.172-1.154-.77-2.115 3.173 1.153.769ZM32.753 28.426l2.116-3.172-1.154-.77-2.116 3.173 1.154.77ZM30.251 32.176l2.116-3.172-1.153-.77-2.116 3.173 1.153.77ZM33.713 34.484l2.116-3.173-1.154-.769-2.115 3.173 1.153.769ZM32.288 13.046l-2.116-3.173-1.154.77 2.116 3.172 1.154-.77ZM34.788 16.796l-2.116-3.173-1.154.77 2.116 3.172 1.154-.77ZM38.25 14.488l-2.117-3.173-1.153.77 2.116 3.172 1.153-.77ZM35.748 10.738l-2.116-3.173-1.154.77 2.116 3.172 1.154-.77ZM36.519 15.643 31.902 8.72l-1.153.77 4.616 6.92 1.154-.769ZM7.96 30.09l2.117 3.172 1.153-.77-2.115-3.172-1.154.77ZM5.46 26.34l2.116 3.172 1.154-.77-2.116-3.172-1.154.77ZM3.73 27.494l4.616 6.922 1.153-.77-4.616-6.921-1.154.77ZM7.19 25.188l4.617 6.921 1.154-.769-4.617-6.922-1.153.77Z"/></g></g><defs><clipPath id="a"><rect width="42" height="42" fill="#fff" rx="21"/></clipPath></defs></svg>