<svg xmlns="http://www.w3.org/2000/svg" width="42" height="42" fill="none"><path fill="#222" d="M21 41c11.046 0 20-8.954 20-20S32.046 1 21 1 1 9.954 1 21s8.954 20 20 20Z"/><path fill="#fff" d="M33.294 13.414c-.422-.332-.924-.786-1.84-.9-.858-.113-1.733.462-2.325.843-.591.38-1.71 1.499-2.171 1.84-.462.34-1.645.655-3.549 1.798-1.904 1.142-9.373 5.938-9.373 5.938l1.944.025-8.669 4.464h.867l-1.248.948s1.102.291 2.026-.292v.268s10.321-4.068 12.314-3.014l-1.215.356c.105 0 2.066.13 2.066.13a2.782 2.782 0 0 0 1.248 2.009c1.183.778 1.207 1.207 1.207 1.207s-.616.251-.616.567c0 0 .908-.275 1.75-.25.535.02 1.065.104 1.58.25 0 0-.065-.34-.883-.567-.818-.227-1.628-1.118-2.025-1.604a2.268 2.268 0 0 1-.333-2.22c.284-.737 1.272-1.142 3.314-2.195 2.406-1.248 2.957-2.172 3.297-2.893.34-.72.843-2.155 1.127-2.827.356-.867.794-1.33 1.158-1.605.365-.275 1.985-.883 1.985-.883s-1.24-1.077-1.636-1.393Z"/></svg>