<svg width="42" height="42" viewBox="0 0 42 42" fill="none" xmlns="http://www.w3.org/2000/svg">
<circle cx="21" cy="21" r="21" fill="#172E2F"/>
<path d="M6.1295 35.828C2.34174 32.0294 0 26.7882 0 21C0 15.3633 2.22082 10.2452 5.83521 6.47314H24.5376V13.866C25.8925 14.0158 26.9462 15.1644 26.9462 16.5592C26.9462 17.9539 25.8925 19.1025 24.5376 19.2523V21.5393C26.3921 21.6923 27.8495 23.2458 27.8495 25.1398C27.8495 27.0338 26.3921 28.5874 24.5376 28.7403V35.828H6.1295Z" fill="url(#paint0_linear_5873_29905)"/>
<path d="M6.1295 35.828C2.34174 32.0294 0 26.7882 0 21C0 15.3633 2.22082 10.2452 5.83521 6.47314H24.5376V13.866C25.8925 14.0158 26.9462 15.1644 26.9462 16.5592C26.9462 17.9539 25.8925 19.1025 24.5376 19.2523V21.5393C26.3921 21.6923 27.8495 23.2458 27.8495 25.1398C27.8495 27.0338 26.3921 28.5874 24.5376 28.7403V35.828H6.1295Z" fill="url(#paint1_linear_5873_29905)" fill-opacity="0.9"/>
<path d="M1.47742 28.7526C0.524085 26.354 0 23.7382 0 20.9999C0 18.2043 0.546285 15.5362 1.53793 13.0967H15.6559V28.7526H1.47742Z" fill="url(#paint2_linear_5873_29905)"/>
<path d="M1.47742 28.7526C0.524085 26.354 0 23.7382 0 20.9999C0 18.2043 0.546285 15.5362 1.53793 13.0967H15.6559V28.7526H1.47742Z" fill="url(#paint3_linear_5873_29905)"/>
<path fill-rule="evenodd" clip-rule="evenodd" d="M29.001 19.9246C29.0486 19.8931 29.0661 19.8884 29.0835 19.8837C29.0986 19.8703 29.1192 19.8601 29.1398 19.8499C29.1604 19.8397 29.181 19.8295 29.1961 19.8161C30.3573 19.1306 31.0623 18.138 31.2226 16.7875C31.2752 16.2878 31.2534 15.7893 31.192 15.2828C31.14 14.8112 31.0137 14.3408 30.8048 13.9113C30.4093 13.065 29.7817 12.4678 28.9731 12.0314C28.3145 11.6667 27.6016 11.4473 26.8551 11.3117C26.104 11.1586 24.6884 11.0644 24.6884 11.0644L24.6884 6.54826L22.054 6.54826L22.054 10.9138L19.796 10.9138L19.796 6.54845L17.1616 6.54845L17.1616 10.9891L11.7423 10.9891L11.7423 13.8493C11.7423 13.8493 13.6458 13.8512 14.0003 13.8493C14.8233 13.8524 15.2046 14.5268 15.2046 15.2042L15.2046 19.0586L15.2046 26.9096C15.2057 26.9719 15.2157 27.0334 15.2256 27.0938C15.2392 27.1776 15.2526 27.2593 15.2412 27.3384C15.192 27.7812 14.8172 28.1247 14.336 28.1419L12.2918 28.1419L11.7422 31.3988L12.0159 31.3988L13.57 31.399L17.2368 31.399L17.2368 35.9031L19.8742 35.9031L19.8737 31.399L22.0615 31.399L22.0615 35.9031L24.7637 35.9031L24.7637 31.399C24.7637 31.399 27.074 31.182 28.0372 30.9419C28.7692 30.7452 29.4918 30.5137 30.1642 30.165C31.3916 29.5176 32.2547 28.5573 32.6825 27.2283C32.8859 26.5947 32.9661 25.9194 33.0114 25.2535C33.0494 24.4215 33.0178 23.6082 32.7455 22.8035C32.5422 22.1857 32.196 21.6623 31.7198 21.2113C31.1552 20.7093 30.506 20.3794 29.7756 20.1647C29.5023 20.0514 29.2604 19.9856 29.001 19.9246ZM24.9801 27.8231C24.1784 28.0384 23.3614 28.1272 22.5351 28.1811C21.9711 28.2206 21.3993 28.2306 20.8275 28.2407L20.8274 28.2407C20.6367 28.2441 20.4461 28.2474 20.2558 28.2519C20.1842 28.2531 20.147 28.2538 20.1269 28.2356C20.1053 28.216 20.1035 28.1745 20.0997 28.0883C20.0798 27.3188 20.0586 26.5449 20.0375 25.7711L20.0375 25.7701C20.0164 24.9961 19.9952 24.222 19.9753 23.4524L19.9703 23.301C19.9613 23.0321 19.9521 22.7544 19.9584 22.4856C19.9558 22.3369 19.9733 22.3322 20.0825 22.3215C20.2895 22.3149 20.4961 22.3071 20.7026 22.2993C21.6789 22.2627 22.6508 22.2262 23.6277 22.3029C24.316 22.3608 24.9787 22.4629 25.6346 22.6789C25.9603 22.7782 26.2651 22.9391 26.5572 23.1221C27.9245 23.9688 28.0016 26.1334 26.6352 27.0982C26.2067 27.3814 25.6946 27.6311 24.9801 27.8231ZM20.7657 14.0364C20.4792 14.0393 20.1911 14.0422 19.8999 14.0398C19.8919 14.0793 19.8838 14.1189 19.8932 14.1537C19.9365 15.5913 19.9643 17.0201 19.9924 18.4575C19.998 18.7429 20.0036 19.0287 20.0093 19.3149C20.0165 19.4811 20.0165 19.4811 20.1653 19.4784C20.266 19.4776 20.3667 19.477 20.4674 19.4764C21.2996 19.4712 22.1334 19.466 22.9513 19.3463C23.6148 19.2427 24.269 19.1043 24.8636 18.8138C25.2933 18.605 25.6695 18.3358 25.9338 17.9286C26.5435 16.999 26.3413 15.6898 25.4752 14.97C25.1818 14.7126 24.8374 14.5436 24.4676 14.4189C23.9523 14.2398 23.4256 14.1572 22.8862 14.0966C22.1742 14.0219 21.4747 14.0291 20.7657 14.0364Z" fill="#C5FDF2"/>
<defs>
<linearGradient id="paint0_linear_5873_29905" x1="13.9247" y1="6.47314" x2="13.9247" y2="35.828" gradientUnits="userSpaceOnUse">
<stop stop-color="#386F69"/>
<stop offset="0.49" stop-color="#407E75"/>
<stop offset="1" stop-color="#386D67"/>
</linearGradient>
<linearGradient id="paint1_linear_5873_29905" x1="4.5914" y1="21.2258" x2="27.8495" y2="21.1506" gradientUnits="userSpaceOnUse">
<stop stop-color="#3F7B73" stop-opacity="0"/>
<stop offset="1" stop-color="#4C9289"/>
</linearGradient>
<linearGradient id="paint2_linear_5873_29905" x1="7.82796" y1="13.0967" x2="7.82796" y2="28.7526" gradientUnits="userSpaceOnUse">
<stop stop-color="#2E5D58"/>
<stop offset="0.53" stop-color="#3C756E"/>
<stop offset="1" stop-color="#31605B"/>
</linearGradient>
<linearGradient id="paint3_linear_5873_29905" x1="0" y1="20.9246" x2="20.8495" y2="20.9246" gradientUnits="userSpaceOnUse">
<stop stop-color="#488B81" stop-opacity="0"/>
<stop offset="1" stop-color="#488B81"/>
</linearGradient>
</defs>
</svg>
