<svg width="42" height="42" viewBox="0 0 42 42" fill="none" xmlns="http://www.w3.org/2000/svg">
<path d="M21 41C32.0457 41 41 32.0457 41 21C41 9.9543 32.0457 1 21 1C9.9543 1 1 9.9543 1 21C1 32.0457 9.9543 41 21 41Z" fill="#F69988"/>
<path d="M21.0002 21.2618L15.4161 18.255L21.0002 9.23491L26.5839 18.255L21.0002 21.2618Z" stroke="#2B3850" stroke-width="1.3"/>
<path d="M30 24.9971C30 29.9676 25.9706 33.9971 21 33.9971C16.0294 33.9971 12 29.9676 12 24.9971C12 23.1469 12.5583 21.4272 13.5155 19.9971C13.562 19.9277 21 23.9975 21 23.9975C21 23.9975 28.438 19.9294 28.4845 19.9971C29.4417 21.4272 30 23.1469 30 24.9971Z" fill="#2B3850"/>
</svg>
