<svg width="42" height="42" viewBox="0 0 42 42" fill="none" xmlns="http://www.w3.org/2000/svg">
<circle cx="21" cy="21" r="20" fill="#0F011C"/>
<path d="M14.5907 19.1941H14.6028L14.809 19.2669L15.003 19.3396L15.2092 19.4003L15.4032 19.4852L15.6094 19.5579L15.8034 19.6307L16.0096 19.7035L16.2036 19.7762L16.3977 19.849L16.5917 19.9218L16.7979 19.9945L16.9919 20.0794L17.1981 20.14L17.3921 20.2128L17.5983 20.2856L17.7923 20.3705L17.9985 20.4432L18.1925 20.5039L18.3866 20.5766L18.5927 20.6615L18.7989 20.7343V20.419V20.3705V20.1158V19.9339V19.8005V19.4852V19.182V18.8667V18.5635V18.2361V17.9329V17.8965H18.5564H18.3259H18.3017H18.047H17.853H17.7802H17.5255H17.3921H17.2587H16.9919H16.9192H16.7372H16.4826H16.4704H16.4583H16.2158H15.9975H15.9611H15.6943H15.5245H15.0637H14.6028H14.5907H14.3239L14.1299 17.9935L13.669 18.2361L13.1961 18.4907L12.7231 18.7211L12.2744 18.9637L11.8014 19.2184L11.3285 19.4488L10.8676 19.7035L10.3946 19.946L9.93381 20.1764L9.47297 20.4311L9.04851 20.6494L9 27.5984L9.47297 27.9258L9.93381 28.2532L10.3946 28.5686L10.8676 28.9081L11.3285 29.2356L11.8014 29.563L12.0076 29.7207L12.2744 29.3811L12.7231 28.7747L12.7716 28.7141L12.7231 28.6777L12.2744 28.3503L11.8014 28.0228L11.3285 27.6954L10.8676 27.3679L10.3946 27.0284L10.2734 26.9556L10.3098 21.3285L10.3946 21.28L10.8676 21.0496L11.3285 20.8192L11.8014 20.5888L12.2744 20.3583L12.7231 20.1158L13.1961 19.8854L13.669 19.6671L14.1299 19.4245L14.5907 19.1941Z" fill="url(#paint0_linear_7674_310968)"/>
<path d="M22.619 32.452L22.231 32.6097L21.7944 32.7916L21.3578 32.9614L20.9212 33.1433L20.7272 33.216L20.4968 33.1069L20.0602 32.8765L19.6236 32.6703L19.1991 32.4399L18.7626 32.2216L18.326 32.0154L17.8894 31.785L17.4528 31.5667L17.0162 31.3484L16.5796 31.1301L16.143 30.8997L15.7307 30.6935L15.2941 30.4752L15.2456 30.451V24.7754H14.8575H14.421H13.9844V31.2271L14.421 31.4333L14.8575 31.6516L15.2941 31.882L15.7307 32.0882L16.143 32.3186L16.5796 32.5369L17.0162 32.7552L17.4528 32.9735L17.8894 33.1918L18.326 33.4101L18.7626 33.6284L19.1991 33.8588L19.6236 34.0649L20.0602 34.2954L20.4968 34.5015L20.6665 34.5985L20.9212 34.4773L21.3578 34.3196L21.7944 34.1377L22.231 33.9558L22.6554 33.786L23.092 33.6162L22.6554 32.5248L22.619 32.452Z" fill="url(#paint1_linear_7674_310968)"/>
<path d="M30.3683 24.568L30.3926 27.236L30.2835 27.333L29.5437 27.8424L28.8039 28.376L28.0642 28.9096L27.3244 29.4311L26.5846 29.9525L25.857 30.4861L25.1172 31.0076L24.6806 31.3229L24.3774 31.0925L23.6498 30.5225L22.91 29.9647L22.1703 29.3947L21.4426 28.8368L21.3092 28.7398V25.8656L21.4426 25.7444L22.1703 24.9682L22.91 24.2042L23.6498 23.428L24.3774 22.664L25.0929 21.9121H24.3774H23.6498H22.91H22.1703H21.4426H20.6907H19.951H19.2233H18.4835H17.7438H17.0161H16.2764L17.0161 22.6883L17.7438 23.4523L18.4835 24.2163L19.2233 24.9925L19.951 25.7565L20.0601 25.8656V29.3462L20.6907 29.8434L21.4426 30.4134L22.1703 30.9712L22.91 31.5412L23.6498 32.0991L24.3774 32.6691L24.6442 32.8752L25.1172 32.5357L25.857 32.0263L26.5846 31.4927L27.3244 30.9591L28.0642 30.4498L28.8039 29.9162L29.5437 29.3826L30.2835 28.8732L31.0232 28.3396L31.6296 27.8909L31.7509 24.6165L31.0232 24.5923L30.3683 24.568Z" fill="url(#paint2_linear_7674_310968)"/>
<path d="M10.2003 18.3599H10.2852L10.2973 14.7945L10.7703 14.4913L11.3645 14.1396L11.9466 13.7879L12.5287 13.4241L13.1108 13.0724L13.7051 12.7086L14.2751 12.3569L14.8693 12.0052L15.4514 11.6414L16.0457 11.2775H16.0578L16.6156 11.605L17.2099 11.9324L17.792 12.272L18.3741 12.5994L18.9562 12.9269L19.5383 13.2543L20.1205 13.5939L20.6904 13.9213L20.7147 13.8728L21.2968 12.8177L20.7147 12.4782L20.1205 12.1507L19.5383 11.8233L18.9562 11.4958L18.3741 11.1563L17.792 10.8288L17.2099 10.5014L16.6156 10.1618L16.0457 9.83439L16.0214 9.82227L15.4514 10.1618L14.8693 10.5257L14.2751 10.8895L13.7051 11.2533L13.1108 11.605L12.5287 11.9567L11.9466 12.3205L11.3645 12.6722L10.7703 13.036L10.2003 13.3877L9.60604 13.7394L9.04818 14.0911L9.02393 18.3478H9.60604L10.2003 18.3599Z" fill="url(#paint3_linear_7674_310968)"/>
<path d="M32.9998 15.0957L32.6966 14.8532L32.3934 14.6106L32.0902 14.3559L31.787 14.1134L31.4838 13.8708L31.1685 13.6283L30.8653 13.3858L30.5622 13.1432L30.2469 12.8885L30.0164 12.7188L29.9315 12.8158L29.6284 13.1917L29.3252 13.5798L29.2403 13.6768L29.3252 13.7617L29.6284 14.0164L29.9315 14.2711L30.2469 14.5257L30.5622 14.7804L30.8653 15.0472L31.1685 15.3019L31.4838 15.5565L31.6294 15.6778L31.6415 21.4141L31.4838 21.5232L31.1685 21.7172L30.8653 21.9113L30.5622 22.1053L30.2469 22.2994L29.9315 22.4934L29.6284 22.6874L29.3252 22.8815L29.022 23.0755L28.7188 23.2695L28.4156 23.4636L28.1003 23.6576L27.7971 23.8517L27.4939 24.0457L27.1908 24.2397L26.8754 24.4338L26.5723 24.6278L26.8754 25.1129L27.1908 25.598L27.2393 25.6829L27.4939 25.5252L27.7971 25.3433L28.1003 25.1493L28.4156 24.9674L28.7188 24.7612L29.022 24.5793L29.3252 24.3853L29.6284 24.2034L29.9315 24.0093L30.2469 23.8274L30.5622 23.6212L30.8653 23.4393L31.1685 23.2453L31.4838 23.0634L31.787 22.8693L32.0902 22.6874L32.3934 22.4813L32.6966 22.2994L32.9998 22.1053V15.0957Z" fill="url(#paint4_linear_7674_310968)"/>
<path d="M22.9948 18.5165V18.8318V19.1471V19.4624V19.7899V20.1173V20.4326V20.7479V20.9905L23.0918 20.9541L23.5041 20.7964L23.9165 20.6267L24.3167 20.469L24.729 20.2992L25.1413 20.1294L25.5415 19.9718L25.9539 19.802L26.3662 19.6443L26.7664 19.4746L27.1787 19.3169L27.5789 19.1471V18.8318V18.7105V17.8737V11.6403L27.1181 11.3492L26.6451 11.0824L26.1722 10.8156L25.7113 10.5246L25.2384 10.2578L24.7654 9.99097L24.3045 9.71204L23.8316 9.43311L23.3707 9.15418L22.8978 8.88738L22.4248 8.60845L21.964 8.32952L21.5031 8.06272L21.0302 7.79592L20.7755 7.65039L20.5572 7.77166L20.0842 8.02634L19.6113 8.26889L19.1626 8.53569L18.6896 8.79036L18.2166 9.03291L17.7437 9.29971L18.2166 9.56651L18.6896 9.83331L18.9806 10.0152L19.1626 9.91821L19.6113 9.67566L20.0842 9.42098L20.5572 9.17844L20.7391 9.08142L21.0302 9.2512L21.5031 9.518L21.964 9.7848L22.4248 10.0637L22.8978 10.3427L23.3707 10.6095L23.8316 10.8884L24.3045 11.1673L24.7654 11.4341L25.2384 11.7009L25.7113 11.992L26.1722 12.2588L26.3298 12.3437V17.8737H26.2207H26.1722H25.9539H25.7113H25.6871H25.4081H25.2384H25.1413H24.8745H24.7654H24.6077H24.3409H24.3045H24.0741H23.8316H23.8073H23.5284H23.3707H23.2616H23.0554H23.019" fill="url(#paint5_linear_7674_310968)"/>
<path d="M22.9946 20.9898L27.5788 19.1464L22.9946 17.873" fill="url(#paint6_linear_7674_310968)"/>
<path d="M18.7991 20.9911V17.9229L14.603 19.172L18.7991 20.9789" fill="url(#paint7_linear_7674_310968)"/>
<defs>
<linearGradient id="paint0_linear_7674_310968" x1="13.8964" y1="17.9001" x2="13.8964" y2="29.7158" gradientUnits="userSpaceOnUse">
<stop stop-color="#F6E93D"/>
<stop offset="0.13" stop-color="#F8E330"/>
<stop offset="0.35" stop-color="#F7C730"/>
<stop offset="0.64" stop-color="#F59C2E"/>
<stop offset="0.98" stop-color="#EB5E2C"/>
<stop offset="1" stop-color="#EB5C2C"/>
</linearGradient>
<linearGradient id="paint1_linear_7674_310968" x1="18.54" y1="24.7802" x2="18.54" y2="34.5973" gradientUnits="userSpaceOnUse">
<stop stop-color="#F6E93D"/>
<stop offset="0.13" stop-color="#F8E330"/>
<stop offset="0.35" stop-color="#F7C730"/>
<stop offset="0.64" stop-color="#F59C2E"/>
<stop offset="0.98" stop-color="#EB5E2C"/>
<stop offset="1" stop-color="#EB5C2C"/>
</linearGradient>
<linearGradient id="paint2_linear_7674_310968" x1="24.013" y1="21.9109" x2="24.013" y2="32.8789" gradientUnits="userSpaceOnUse">
<stop stop-color="#F6E93D"/>
<stop offset="0.13" stop-color="#F8E330"/>
<stop offset="0.35" stop-color="#F7C730"/>
<stop offset="0.64" stop-color="#F59C2E"/>
<stop offset="0.98" stop-color="#EB5E2C"/>
<stop offset="1" stop-color="#EB5C2C"/>
</linearGradient>
<linearGradient id="paint3_linear_7674_310968" x1="15.1598" y1="9.8259" x2="15.1598" y2="18.3611" gradientUnits="userSpaceOnUse">
<stop stop-color="#F6E93D"/>
<stop offset="0.13" stop-color="#F8E330"/>
<stop offset="0.35" stop-color="#F7C730"/>
<stop offset="0.64" stop-color="#F59C2E"/>
<stop offset="0.98" stop-color="#EB5E2C"/>
<stop offset="1" stop-color="#EB5C2C"/>
</linearGradient>
<linearGradient id="paint4_linear_7674_310968" x1="29.7909" y1="12.7163" x2="29.7909" y2="25.6841" gradientUnits="userSpaceOnUse">
<stop stop-color="#F6E93D"/>
<stop offset="0.13" stop-color="#F8E330"/>
<stop offset="0.35" stop-color="#F7C730"/>
<stop offset="0.64" stop-color="#F59C2E"/>
<stop offset="0.98" stop-color="#EB5E2C"/>
<stop offset="1" stop-color="#EB5C2C"/>
</linearGradient>
<linearGradient id="paint5_linear_7674_310968" x1="22.6601" y1="7.65039" x2="22.6601" y2="20.9941" gradientUnits="userSpaceOnUse">
<stop stop-color="#F6E93D"/>
<stop offset="0.13" stop-color="#F8E330"/>
<stop offset="0.35" stop-color="#F7C730"/>
<stop offset="0.64" stop-color="#F59C2E"/>
<stop offset="0.98" stop-color="#EB5E2C"/>
<stop offset="1" stop-color="#EB5C2C"/>
</linearGradient>
<linearGradient id="paint6_linear_7674_310968" x1="25.2818" y1="17.8815" x2="25.2818" y2="20.9971" gradientUnits="userSpaceOnUse">
<stop stop-color="#F6E93D"/>
<stop offset="0.13" stop-color="#F8E330"/>
<stop offset="0.35" stop-color="#F7C730"/>
<stop offset="0.64" stop-color="#F59C2E"/>
<stop offset="0.98" stop-color="#EB5E2C"/>
<stop offset="1" stop-color="#EB5C2C"/>
</linearGradient>
<linearGradient id="paint7_linear_7674_310968" x1="16.6505" y1="20.2207" x2="17.6401" y2="17.5017" gradientUnits="userSpaceOnUse">
<stop stop-color="#F6E93D"/>
<stop offset="0.13" stop-color="#F8E330"/>
<stop offset="0.35" stop-color="#F7C730"/>
<stop offset="0.64" stop-color="#F59C2E"/>
<stop offset="0.98" stop-color="#EB5E2C"/>
<stop offset="1" stop-color="#EB5C2C"/>
</linearGradient>
</defs>
</svg>
