<svg xmlns="http://www.w3.org/2000/svg" width="42" height="42" fill="none"><circle cx="21" cy="21" r="20" fill="#0F011C"/><path fill="url(#a)" d="M14.59 19.194h.013l.206.073.194.073.206.06.194.085.206.073.194.073.207.072.194.073.194.073.194.073.206.072.194.085.206.061.194.073.206.073.194.084.206.073.194.06.195.074.206.084.206.073V17.896h-4.475l-.194.098-.461.242-.473.255-.473.23-.449.243-.473.254-.473.23-.46.255-.473.243-.461.23-.461.255-.424.218L9 27.6l.473.327.46.327.462.316.473.34.46.327.473.327.207.158.266-.34.45-.606.048-.06-.049-.037-.449-.328-.473-.327-.473-.328-.46-.327-.473-.34-.122-.072.037-5.628.085-.048.473-.23.46-.23.473-.231.473-.23.45-.243.472-.23.473-.219.46-.243.462-.23Z"/><path fill="url(#b)" d="m22.619 32.452-.388.158-.437.182-.436.17-.437.181-.194.073-.23-.11-.437-.23-.436-.206-.425-.23-.436-.218-.437-.207-.437-.23-.436-.218-.437-.219-.436-.218-.437-.23-.412-.206-.437-.219-.048-.024v-5.676h-1.262v6.452l.437.206.437.219.436.23.437.206.412.23.437.219.436.218.437.218.436.219.437.218.437.218.436.23.425.207.436.23.437.206.17.098.254-.122.437-.157.436-.182.437-.182.424-.17.437-.17-.437-1.091-.036-.073Z"/><path fill="url(#c)" d="m30.368 24.568.025 2.668-.11.097-.74.51-.74.533-.739.534-.74.521-.74.521-.727.534-.74.522-.436.315-.304-.23-.727-.57-.74-.558-.74-.57-.727-.558-.134-.097v-2.874l.134-.122.727-.776.74-.764.74-.776.727-.764.716-.752h-8.817l.74.776.728.764.74.764.74.776.727.764.11.11v3.48l.63.497.752.57.727.558.74.57.74.558.727.57.267.206.473-.34.74-.509.728-.533.74-.534.74-.51.739-.533.74-.533.74-.51.74-.533.606-.45.12-3.274-.727-.024-.655-.024Z"/><path fill="url(#d)" d="M10.2 18.36h.085l.012-3.566.473-.303.595-.351.582-.352.582-.364.582-.352.594-.363.57-.352.594-.352.582-.364.595-.364h.012l.558.328.594.327.582.34.582.327.582.328.582.327.582.34.57.327.025-.048.582-1.055-.582-.34-.595-.327-.582-.328-.582-.327-.582-.34-.582-.327-.582-.328-.594-.34-.57-.327-.025-.012-.57.34-.582.364-.594.364-.57.363-.594.352-.582.352-.582.363-.582.352-.595.364-.57.352-.594.351-.558.352-.024 4.257h.582l.594.012Z"/><path fill="url(#e)" d="m33 15.096-.303-.243-.304-.242-.303-.255-.303-.243-.303-.242-.316-.243-.303-.242-.303-.243-.315-.255-.23-.17-.085.098-.304.376-.303.388-.085.097.085.085.303.254.303.255.316.255.315.254.303.267.304.255.315.255.145.12.012 5.737-.157.11-.316.193-.303.194-.303.194-.315.194-.316.194-.303.194-.303.194-.303.195-.303.194-.303.194-.316.194-.303.194-.303.194-.303.194-.316.194-.303.194.303.485.316.485.048.085.255-.158.303-.182.303-.194.316-.182.303-.206.303-.182.303-.194.303-.182.303-.194.316-.182.315-.206.303-.182.304-.194.315-.182.303-.194.303-.182.303-.206.304-.182.303-.194v-7.01Z"/><path fill="url(#f)" d="M22.995 18.517V20.99l.097-.036.412-.158.412-.17.4-.157.413-.17.412-.17.4-.157.413-.17.412-.158.4-.17.413-.157.4-.17V11.64l-.46-.29-.474-.268-.473-.266-.46-.291-.474-.267-.473-.267-.46-.279-.473-.279-.461-.279-.473-.267-.473-.279-.461-.278-.46-.267-.474-.267-.255-.146-.218.122-.473.254-.473.243-.448.267-.473.254-.473.243-.473.267.473.267.473.266.29.182.183-.097.448-.242.473-.255.473-.243.182-.097.291.17.473.267.461.267.46.279.474.279.473.267.46.278.474.28.46.266.473.267.473.291.461.267.158.085v5.53h-3.311"/><path fill="url(#g)" d="m22.995 20.99 4.584-1.844-4.584-1.273"/><path fill="url(#h)" d="M18.8 20.991v-3.068l-4.197 1.249 4.196 1.807"/><defs><linearGradient id="a" x1="13.896" x2="13.896" y1="17.9" y2="29.716" gradientUnits="userSpaceOnUse"><stop stop-color="#F6E93D"/><stop offset=".13" stop-color="#F8E330"/><stop offset=".35" stop-color="#F7C730"/><stop offset=".64" stop-color="#F59C2E"/><stop offset=".98" stop-color="#EB5E2C"/><stop offset="1" stop-color="#EB5C2C"/></linearGradient><linearGradient id="b" x1="18.54" x2="18.54" y1="24.78" y2="34.597" gradientUnits="userSpaceOnUse"><stop stop-color="#F6E93D"/><stop offset=".13" stop-color="#F8E330"/><stop offset=".35" stop-color="#F7C730"/><stop offset=".64" stop-color="#F59C2E"/><stop offset=".98" stop-color="#EB5E2C"/><stop offset="1" stop-color="#EB5C2C"/></linearGradient><linearGradient id="c" x1="24.013" x2="24.013" y1="21.911" y2="32.879" gradientUnits="userSpaceOnUse"><stop stop-color="#F6E93D"/><stop offset=".13" stop-color="#F8E330"/><stop offset=".35" stop-color="#F7C730"/><stop offset=".64" stop-color="#F59C2E"/><stop offset=".98" stop-color="#EB5E2C"/><stop offset="1" stop-color="#EB5C2C"/></linearGradient><linearGradient id="d" x1="15.16" x2="15.16" y1="9.826" y2="18.361" gradientUnits="userSpaceOnUse"><stop stop-color="#F6E93D"/><stop offset=".13" stop-color="#F8E330"/><stop offset=".35" stop-color="#F7C730"/><stop offset=".64" stop-color="#F59C2E"/><stop offset=".98" stop-color="#EB5E2C"/><stop offset="1" stop-color="#EB5C2C"/></linearGradient><linearGradient id="e" x1="29.791" x2="29.791" y1="12.716" y2="25.684" gradientUnits="userSpaceOnUse"><stop stop-color="#F6E93D"/><stop offset=".13" stop-color="#F8E330"/><stop offset=".35" stop-color="#F7C730"/><stop offset=".64" stop-color="#F59C2E"/><stop offset=".98" stop-color="#EB5E2C"/><stop offset="1" stop-color="#EB5C2C"/></linearGradient><linearGradient id="f" x1="22.66" x2="22.66" y1="7.65" y2="20.994" gradientUnits="userSpaceOnUse"><stop stop-color="#F6E93D"/><stop offset=".13" stop-color="#F8E330"/><stop offset=".35" stop-color="#F7C730"/><stop offset=".64" stop-color="#F59C2E"/><stop offset=".98" stop-color="#EB5E2C"/><stop offset="1" stop-color="#EB5C2C"/></linearGradient><linearGradient id="g" x1="25.282" x2="25.282" y1="17.881" y2="20.997" gradientUnits="userSpaceOnUse"><stop stop-color="#F6E93D"/><stop offset=".13" stop-color="#F8E330"/><stop offset=".35" stop-color="#F7C730"/><stop offset=".64" stop-color="#F59C2E"/><stop offset=".98" stop-color="#EB5E2C"/><stop offset="1" stop-color="#EB5C2C"/></linearGradient><linearGradient id="h" x1="16.651" x2="17.64" y1="20.221" y2="17.502" gradientUnits="userSpaceOnUse"><stop stop-color="#F6E93D"/><stop offset=".13" stop-color="#F8E330"/><stop offset=".35" stop-color="#F7C730"/><stop offset=".64" stop-color="#F59C2E"/><stop offset=".98" stop-color="#EB5E2C"/><stop offset="1" stop-color="#EB5C2C"/></linearGradient></defs></svg>