<svg width="42" height="42" viewBox="0 0 42 42" fill="none" xmlns="http://www.w3.org/2000/svg">
<rect width="42" height="42" rx="21" fill="#F3F3F3"/>
<path d="M20.2328 31.6082C26.0946 31.6082 30.8465 26.8563 30.8465 20.9945C30.8465 15.1328 26.0946 10.3809 20.2328 10.3809C14.371 10.3809 9.61914 15.1328 9.61914 20.9945C9.61914 26.8563 14.371 31.6082 20.2328 31.6082Z" fill="#2EB6EA"/>
<path d="M20.1749 31.6086C9.61886 31.6086 5.45274 17.7215 14.7769 11.8691C13.668 23.4758 19.5667 23.7326 25.0405 23.4758C34.2126 23.0456 34.2187 31.6086 34.2187 31.6086H20.1749Z" fill="#1542CD"/>
<path fill-rule="evenodd" clip-rule="evenodd" d="M30.265 24.4668C28.6681 28.5594 24.7414 31.486 20.115 31.6163C20.2237 31.6193 20.3332 31.6208 20.4433 31.6208H34.399C34.399 31.6208 34.3954 26.6019 30.265 24.4668Z" fill="#745DDF"/>
</svg>
