<svg xmlns="http://www.w3.org/2000/svg" width="42" height="42" fill="none"><rect width="42" height="42" fill="#F3F3F3" rx="21"/><path fill="#2EB6EA" d="M20.233 31.608c5.862 0 10.613-4.752 10.613-10.614 0-5.861-4.751-10.613-10.613-10.613-5.862 0-10.614 4.752-10.614 10.613 0 5.862 4.752 10.614 10.614 10.614Z"/><path fill="#1542CD" d="M20.175 31.609c-10.556 0-14.722-13.888-5.398-19.74-1.109 11.607 4.79 11.864 10.264 11.607 9.172-.43 9.178 8.133 9.178 8.133H20.175Z"/><path fill="#745DDF" fill-rule="evenodd" d="M30.265 24.467c-1.597 4.092-5.524 7.019-10.15 7.15.109.002.218.004.328.004H34.4s-.004-5.02-4.134-7.154Z" clip-rule="evenodd"/></svg>