<svg width="42" height="42" viewBox="0 0 42 42" fill="none" xmlns="http://www.w3.org/2000/svg">
<rect width="42" height="42" rx="21" fill="#DCE474"/>
<path d="M20.5501 15.931L21 16.3297L21.4499 15.931C21.4499 15.931 21.4498 15.931 21 15.4234C20.5502 15.931 20.5501 15.931 20.5501 15.931Z" fill="#030303"/>
<path d="M24.2664 17.0972C24.2664 17.0972 24.2665 17.0973 24.9434 17.0564C24.9026 17.7334 24.9027 17.7335 24.9027 17.7335L24.3027 17.6972L24.2664 17.0972Z" fill="#030303"/>
<path d="M26.069 20.5501C26.069 20.5501 26.069 20.5502 26.5766 21C26.069 21.4498 26.069 21.4499 26.069 21.4499L25.6703 21L26.069 20.5501Z" fill="#030303"/>
<path d="M24.9028 24.2664C24.9028 24.2664 24.9027 24.2665 24.9436 24.9434C24.2666 24.9026 24.2665 24.9027 24.2665 24.9027L24.3028 24.3027L24.9028 24.2664Z" fill="#030303"/>
<path d="M21.4499 26.069L21 25.6703L20.5501 26.069C20.5501 26.069 20.5502 26.069 21 26.5766C21.4498 26.069 21.4499 26.069 21.4499 26.069Z" fill="#030303"/>
<path d="M17.734 24.9021L17.6978 24.3021L17.0978 24.2659C17.0978 24.2659 17.0979 24.2659 17.057 24.9429C17.734 24.902 17.734 24.9021 17.734 24.9021Z" fill="#030303"/>
<path d="M15.931 21.4499L16.3297 21L15.931 20.5501C15.931 20.5501 15.931 20.5502 15.4234 21C15.931 21.4498 15.931 21.4499 15.931 21.4499Z" fill="#030303"/>
<path fill-rule="evenodd" clip-rule="evenodd" d="M32.0972 25.5966C32.1158 25.5968 32.1344 25.5969 32.1531 25.5969C34.6919 25.5969 36.75 23.5388 36.75 21C36.75 18.4612 34.6919 16.4031 32.1531 16.4031C32.1344 16.4031 32.1156 16.4032 32.0969 16.4034C32.1104 16.3903 32.1238 16.3771 32.1372 16.3637C33.9324 14.5685 33.9324 11.6579 32.1372 9.86273C30.342 8.06754 27.4314 8.06754 25.6362 9.86273C25.6229 9.87604 25.6097 9.8894 25.5966 9.90283C25.5968 9.88421 25.5969 9.86556 25.5969 9.84689C25.5969 7.3081 23.5388 5.25 21 5.25C18.4612 5.25 16.4031 7.3081 16.4031 9.84689C16.4031 9.86556 16.4032 9.8842 16.4034 9.90282C16.3905 9.88959 16.3775 9.87643 16.3644 9.86332C14.5692 8.06812 11.6586 8.06813 9.86343 9.86332C8.06823 11.6585 8.06823 14.5691 9.86343 16.3643C9.87657 16.3774 9.88977 16.3905 9.90304 16.4034C9.88435 16.4032 9.86563 16.4031 9.84689 16.4031C7.3081 16.4031 5.25 18.4612 5.25 21C5.25 23.5388 7.3081 25.5969 9.84689 25.5969C9.86556 25.5969 9.8842 25.5968 9.90282 25.5966C9.88959 25.6095 9.87643 25.6225 9.86332 25.6356C8.06812 27.4308 8.06812 30.3414 9.86332 32.1366C11.6585 33.9318 14.5691 33.9318 16.3643 32.1366C16.3774 32.1234 16.3905 32.1102 16.4034 32.097C16.4032 32.1157 16.4031 32.1344 16.4031 32.1531C16.4031 34.6919 18.4612 36.75 21 36.75C23.5388 36.75 25.5969 34.6919 25.5969 32.1531C25.5969 32.1344 25.5968 32.1156 25.5966 32.0969C25.6097 32.1104 25.6229 32.1238 25.6363 32.1372C27.4315 33.9324 30.3421 33.9324 32.1373 32.1372C33.9325 30.342 33.9325 27.4314 32.1373 25.6362C32.124 25.6229 32.1106 25.6097 32.0972 25.5966ZM10.8226 10.8225C9.55712 12.088 9.55712 14.1397 10.8226 15.4051C11.1873 15.7699 11.6157 16.0285 12.0713 16.1828C12.3295 16.2703 12.7556 16.3381 13.297 16.3808C13.8246 16.4223 14.413 16.4366 14.9684 16.4366C15.5212 16.4367 16.0335 16.4225 16.4084 16.4083C16.4226 16.0334 16.4368 15.5211 16.4367 14.9683C16.4367 14.4129 16.4224 13.8245 16.3809 13.2969C16.3382 12.7555 16.2704 12.3294 16.183 12.0712C16.0287 11.6156 15.77 11.1872 15.4052 10.8225C14.1398 9.55702 12.0881 9.55702 10.8226 10.8225ZM17.0979 17.734C17.0979 17.734 17.098 17.734 17.0571 17.057L17.0979 17.734ZM17.0571 17.057C17.7341 17.0979 17.7341 17.0978 17.7341 17.0978L17.0571 17.057ZM20.5501 15.931L20.5494 15.9303L20.5408 15.9227C20.5349 15.9175 20.5264 15.9099 20.5154 15.9C20.4933 15.8803 20.4612 15.8515 20.4204 15.8145C20.3387 15.7407 20.2217 15.6342 20.0796 15.5024C19.7957 15.2393 19.4097 14.8742 19.0025 14.4669C18.5963 14.0607 18.1633 13.607 17.7879 13.1674C17.7669 13.1428 17.746 13.1181 17.7252 13.0934C17.7279 13.1258 17.7306 13.1581 17.7331 13.1905C17.7785 13.7668 17.7932 14.3938 17.7932 14.9682C17.7932 15.5441 17.7785 16.0753 17.7638 16.4621C17.7565 16.6557 17.7491 16.8137 17.7435 16.9237C17.7408 16.9787 17.7385 17.0218 17.7368 17.0513C17.736 17.0661 17.7353 17.0775 17.7349 17.0853L17.7342 17.0968L17.7341 17.0978L17.6979 17.6978L17.0979 17.734L17.0969 17.7341L17.0854 17.7348C17.0776 17.7352 17.0662 17.7359 17.0514 17.7367C17.0219 17.7383 16.9788 17.7407 16.9238 17.7434C16.8138 17.749 16.6558 17.7564 16.4622 17.7637C16.0754 17.7784 15.5442 17.7931 14.9683 17.7931C14.3939 17.7931 13.7669 17.7784 13.1906 17.733C13.1581 17.7305 13.1257 17.7278 13.0933 17.7251C13.118 17.7459 13.1428 17.7669 13.1674 17.7879C13.607 18.1633 14.0607 18.5963 14.4669 19.0025C14.8742 19.4097 15.2393 19.7957 15.5024 20.0796C15.6342 20.2217 15.7407 20.3387 15.8145 20.4204C15.8515 20.4612 15.8803 20.4933 15.9 20.5154L15.9126 20.5295L15.9227 20.5408L15.9303 20.5494L15.931 20.5501L15.4234 21L15.931 21.4499L15.9303 21.4506L15.9227 21.4592L15.9116 21.4717L15.9 21.4846C15.8803 21.5067 15.8515 21.5388 15.8145 21.5796C15.7407 21.6613 15.6342 21.7783 15.5024 21.9204C15.2393 22.2043 14.8742 22.5903 14.4669 22.9975C14.0607 23.4037 13.607 23.8367 13.1674 24.2121C13.1428 24.2331 13.1182 24.254 13.0934 24.2748C13.1258 24.2721 13.1581 24.2694 13.1905 24.2669C13.7668 24.2215 14.3938 24.2068 14.9682 24.2068C15.5441 24.2068 16.0753 24.2215 16.4621 24.2362C16.6557 24.2435 16.8137 24.2509 16.9237 24.2564C16.9787 24.2592 17.0218 24.2615 17.0513 24.2632C17.0661 24.264 17.0775 24.2647 17.0853 24.2651L17.0968 24.2658L17.0978 24.2659L17.057 24.9429L17.734 24.9021L17.7341 24.9031L17.7348 24.9146L17.7357 24.9299L17.7367 24.9486C17.7383 24.9781 17.7407 25.0212 17.7434 25.0762C17.749 25.1862 17.7564 25.3442 17.7637 25.5378C17.7784 25.9246 17.7931 26.4558 17.7931 27.0317C17.7931 27.6061 17.7784 28.2331 17.733 28.8094C17.7305 28.8419 17.7278 28.8743 17.7251 28.9067C17.7459 28.882 17.7669 28.8572 17.7879 28.8326C18.1633 28.393 18.5963 27.9393 19.0025 27.5331C19.4097 27.1258 19.7957 26.7607 20.0796 26.4976C20.2217 26.3658 20.3387 26.2593 20.4204 26.1855C20.4612 26.1485 20.4933 26.1197 20.5154 26.1C20.5264 26.0901 20.5349 26.0825 20.5408 26.0773L20.5494 26.0697L20.5501 26.069L21 26.5766L21.4499 26.069L21.4506 26.0697L21.4592 26.0773C21.4651 26.0825 21.4736 26.0901 21.4846 26.1C21.5067 26.1197 21.5388 26.1485 21.5796 26.1855C21.6613 26.2593 21.7783 26.3658 21.9204 26.4976C22.2043 26.7607 22.5903 27.1258 22.9975 27.5331C23.4037 27.9393 23.8367 28.393 24.2121 28.8326C24.2333 28.8575 24.2545 28.8824 24.2755 28.9074C24.2728 28.875 24.2701 28.8425 24.2675 28.81C24.2222 28.2337 24.2075 27.6067 24.2075 27.0322C24.2075 26.4563 24.2222 25.9252 24.2369 25.5384C24.2442 25.3448 24.2516 25.1868 24.2571 25.0768C24.2599 25.0217 24.2622 24.9787 24.2639 24.9492C24.2647 24.9344 24.2654 24.923 24.2658 24.9152L24.2665 24.9037L24.2665 24.9027L24.9436 24.9434L24.9028 24.2664L24.9038 24.2664L24.9153 24.2657C24.9231 24.2653 24.9345 24.2646 24.9493 24.2638C24.9788 24.2621 25.0218 24.2598 25.0769 24.257C25.1869 24.2515 25.3449 24.2441 25.5385 24.2368C25.9253 24.2221 26.4565 24.2074 27.0323 24.2074C27.6068 24.2074 28.2338 24.2221 28.8101 24.2674C28.8425 24.27 28.8749 24.2726 28.9073 24.2754C28.8823 24.2544 28.8574 24.2333 28.8326 24.2121C28.393 23.8367 27.9393 23.4037 27.5331 22.9975C27.1258 22.5903 26.7607 22.2043 26.4976 21.9204C26.3658 21.7783 26.2593 21.6613 26.1855 21.5796C26.1604 21.552 26.1392 21.5283 26.1219 21.5091L26.1 21.4846C26.0901 21.4736 26.0825 21.4651 26.0773 21.4592L26.0697 21.4506L26.069 21.4499L26.5766 21L26.069 20.5501L26.0697 20.5494L26.0773 20.5408L26.0916 20.5248L26.1 20.5154C26.1197 20.4933 26.1485 20.4612 26.1855 20.4204C26.2593 20.3387 26.3658 20.2217 26.4976 20.0796C26.7607 19.7957 27.1258 19.4097 27.5331 19.0025C27.9393 18.5963 28.393 18.1633 28.8326 17.7879C28.8575 17.7667 28.8824 17.7455 28.9074 17.7245C28.892 17.7258 28.8766 17.7271 28.8613 17.7283C28.8442 17.7297 28.8271 17.7311 28.81 17.7325C28.2337 17.7778 27.6067 17.7925 27.0322 17.7925C26.4563 17.7925 25.9252 17.7778 25.5384 17.7631C25.3448 17.7558 25.1868 17.7484 25.0768 17.7429C25.0217 17.7401 24.9787 17.7378 24.9492 17.7361L24.9266 17.7348L24.9037 17.7335L24.9027 17.7335L24.9434 17.0564L24.2664 17.0972L24.2664 17.0962L24.2657 17.0847C24.2653 17.0769 24.2646 17.0655 24.2638 17.0507C24.2621 17.0212 24.2598 16.9781 24.257 16.9231C24.2515 16.8131 24.2441 16.6551 24.2368 16.4615C24.2221 16.0747 24.2074 15.5435 24.2074 14.9677C24.2074 14.3932 24.2221 13.7662 24.2674 13.1899C24.27 13.1575 24.2726 13.1251 24.2754 13.0927C24.2544 13.1177 24.2333 13.1426 24.2121 13.1674C23.8367 13.607 23.4037 14.0607 22.9975 14.4669C22.5903 14.8742 22.2043 15.2393 21.9204 15.5024C21.7783 15.6342 21.6613 15.7407 21.5796 15.8145C21.5388 15.8515 21.5067 15.8803 21.4846 15.9C21.4736 15.9099 21.4651 15.9175 21.4592 15.9227L21.4506 15.9303L21.4499 15.931L21 15.4234L20.5501 15.931ZM6.60646 21C6.60646 22.7896 8.05725 24.2404 9.84689 24.2404C10.3627 24.2404 10.8485 24.1204 11.2798 23.9074C11.5242 23.7866 11.8735 23.5333 12.2865 23.1806C12.6889 22.8369 13.115 22.431 13.5078 22.0383C13.8987 21.6474 14.251 21.2752 14.506 21C14.251 20.7248 13.8987 20.3526 13.5078 19.9617C13.115 19.569 12.6889 19.1631 12.2865 18.8194C11.8735 18.4667 11.5242 18.2134 11.2798 18.0926C10.8485 17.8796 10.3627 17.7596 9.84689 17.7596C8.05725 17.7596 6.60646 19.2104 6.60646 21ZM17.7596 9.84689C17.7596 8.05725 19.2104 6.60646 21 6.60646C22.7896 6.60646 24.2404 8.05725 24.2404 9.84689C24.2404 10.3627 24.1204 10.8485 23.9074 11.2798C23.7866 11.5242 23.5333 11.8735 23.1806 12.2865C22.8369 12.6889 22.431 13.115 22.0383 13.5078C21.6474 13.8987 21.2752 14.251 21 14.506C20.7248 14.251 20.3526 13.8987 19.9617 13.5078C19.569 13.115 19.1631 12.6889 18.8194 12.2865C18.4667 11.8735 18.2134 11.5242 18.0926 11.2798C17.8796 10.8485 17.7596 10.3627 17.7596 9.84689ZM17.7596 32.1531C17.7596 33.9427 19.2104 35.3935 21 35.3935C22.7896 35.3935 24.2404 33.9428 24.2404 32.1531C24.2404 31.6373 24.1204 31.1515 23.9074 30.7202C23.7866 30.4758 23.5333 30.1265 23.1806 29.7135C22.8369 29.3111 22.431 28.885 22.0383 28.4922C21.6474 28.1013 21.2752 27.749 21 27.494C20.7248 27.749 20.3526 28.1013 19.9617 28.4922C19.569 28.885 19.1631 29.3111 18.8194 29.7135C18.4667 30.1265 18.2134 30.4758 18.0926 30.7202C17.8796 31.1515 17.7596 31.6373 17.7596 32.1531ZM32.1531 24.2404C33.9427 24.2404 35.3935 22.7896 35.3935 21C35.3935 19.2104 33.9427 17.7596 32.1531 17.7596C31.6373 17.7596 31.1515 17.8796 30.7202 18.0926C30.4758 18.2134 30.1265 18.4667 29.7135 18.8194C29.3111 19.1631 28.885 19.569 28.4922 19.9617C28.1013 20.3526 27.749 20.7248 27.494 21C27.749 21.2752 28.1013 21.6474 28.4922 22.0383C28.885 22.431 29.3111 22.8369 29.7135 23.1806C30.1265 23.5333 30.4758 23.7866 30.7202 23.9074C31.1515 24.1204 31.6373 24.2404 32.1531 24.2404ZM10.8225 31.1774C12.0879 32.4429 14.1397 32.4429 15.4051 31.1774C15.7699 30.8127 16.0285 30.3843 16.1828 29.9287C16.2703 29.6705 16.3381 29.2444 16.3808 28.703C16.4223 28.1754 16.4366 27.587 16.4366 27.0316C16.4367 26.4788 16.4225 25.9665 16.4083 25.5916C16.0334 25.5774 15.5211 25.5632 14.9683 25.5633C14.4129 25.5633 13.8245 25.5776 13.2969 25.6191C12.7555 25.6617 12.3294 25.7296 12.0712 25.817C11.6156 25.9713 11.1872 26.23 10.8225 26.5947C9.55702 27.8602 9.55702 29.9119 10.8225 31.1774ZM31.178 15.4046C32.4435 14.1391 32.4435 12.0874 31.178 10.8219C29.9125 9.55643 27.8608 9.55643 26.5953 10.8219C26.2306 11.1866 25.9719 11.615 25.8176 12.0706C25.7302 12.3288 25.6623 12.7549 25.6197 13.2963C25.5782 13.8239 25.5639 14.4123 25.5638 14.9677C25.5638 15.5205 25.578 16.0328 25.5922 16.4077C25.9671 16.4219 26.4793 16.4361 27.0322 16.4361C27.5876 16.436 28.176 16.4217 28.7036 16.3802C29.245 16.3376 29.6711 16.2697 29.9293 16.1823C30.3849 16.028 30.8133 15.7693 31.178 15.4046ZM26.5954 31.178C27.8609 32.4435 29.9126 32.4435 31.1781 31.178C32.4436 29.9125 32.4436 27.8608 31.1781 26.5953C30.8134 26.2306 30.385 25.9719 29.9294 25.8176C29.6712 25.7302 29.2451 25.6623 28.7037 25.6197C28.1761 25.5782 27.5877 25.5639 27.0323 25.5638C26.4795 25.5638 25.9672 25.578 25.5923 25.5922C25.5781 25.9671 25.5639 26.4793 25.5639 27.0322C25.564 27.5876 25.5783 28.176 25.6198 28.7036C25.6624 29.245 25.7303 29.6711 25.8177 29.9293C25.972 30.3849 26.2307 30.8133 26.5954 31.178Z" fill="#030303"/>
</svg>
