<svg width="42" height="42" viewBox="0 0 42 42" fill="none" xmlns="http://www.w3.org/2000/svg">
<rect x="0.5" y="0.5" width="41" height="41" rx="20.5" fill="#1E2739"/>
<rect x="0.5" y="0.5" width="41" height="41" rx="20.5" stroke="white"/>
<path d="M15.1919 20.4512H5.41064L15.7013 15.6213L20.4647 5.25L20.4758 15.1027C20.4796 18.0551 18.1129 20.455 15.1882 20.455L15.1919 20.4512Z" fill="white"/>
<path d="M26.808 20.4512H36.5893L26.2987 15.6213L21.5353 5.25L21.5242 15.1027C21.5204 18.0551 23.887 20.455 26.8117 20.455L26.808 20.4512Z" fill="white"/>
<path d="M26.808 21.5488H36.5893L26.2987 26.3787L21.5353 36.75L21.5242 26.8973C21.5204 23.9449 23.887 21.545 26.8117 21.545L26.808 21.5488Z" fill="white"/>
<path d="M15.1919 21.5488H5.41064L15.7013 26.3787L20.4647 36.75L20.4758 26.8973C20.4796 23.9449 18.1129 21.545 15.1882 21.545L15.1919 21.5488Z" fill="white"/>
</svg>
