<svg width="42" height="42" viewBox="0 0 42 42" fill="none" xmlns="http://www.w3.org/2000/svg">
<g clip-path="url(#clip0_4532_195987)">
<mask id="mask0_4532_195987" style="mask-type:luminance" maskUnits="userSpaceOnUse" x="0" y="0" width="42" height="42">
<path d="M0 0H42V42H0V0Z" fill="white"/>
</mask>
<g mask="url(#mask0_4532_195987)">
<path d="M21 42C32.598 42 42 32.598 42 21C42 9.40202 32.598 0 21 0C9.40202 0 0 9.40202 0 21C0 32.598 9.40202 42 21 42Z" fill="#222222"/>
<path d="M21.7197 35.5644C29.8189 35.5644 36.3847 28.9986 36.3847 20.8994C36.3847 12.8001 29.8189 6.23438 21.7197 6.23438C13.6204 6.23438 7.05469 12.8001 7.05469 20.8994C7.05469 28.9986 13.6204 35.5644 21.7197 35.5644Z" fill="#F2E373"/>
<path d="M27.8238 27.4405C29.0453 29.8847 32.7646 29.474 33.9348 29.474C31.8978 32.7337 27.2381 35.9957 22.1211 35.9957C13.3478 35.9957 6.64062 29.019 6.64062 20.92C6.64062 12.821 20.0841 21.7367 29.4536 20.108C27.0095 22.1439 26.6023 24.9952 27.8238 27.4405Z" fill="url(#paint0_linear_4532_195987)"/>
<path d="M23.3248 5.06825C25.2802 4.41608 26.5833 3.43842 26.9905 3.03125C26.8552 4.11742 26.2578 6.53475 24.9547 7.51242C23.3248 8.73508 21.2878 8.32675 18.8437 11.1792C17.2138 13.0809 17.2803 17.4186 21.2878 18.5117C25.2953 19.6049 27.806 16.0676 33.5087 16.8819C36.36 17.2902 37.5827 18.5117 38.397 19.3261C36.7672 19.1907 33.5087 18.9177 30.6573 19.7344C27.0453 20.7657 24.1392 26.2514 20.8807 28.6944C17.6222 31.1397 10.6957 30.5576 8.25268 27.0657C5.40018 22.9929 6.10601 16.0606 9.59784 11.9877C14.4862 6.28392 20.8807 5.88142 23.3248 5.06825Z" fill="url(#paint1_linear_4532_195987)"/>
</g>
</g>
<defs>
<linearGradient id="paint0_linear_4532_195987" x1="20.0841" y1="20.1057" x2="26.1951" y2="35.585" gradientUnits="userSpaceOnUse">
<stop stop-color="#F2E373"/>
<stop offset="1" stop-color="#E62C21"/>
</linearGradient>
<linearGradient id="paint1_linear_4532_195987" x1="8.65984" y1="7.91958" x2="21.695" y2="26.2514" gradientUnits="userSpaceOnUse">
<stop stop-color="#F2E373"/>
<stop offset="1" stop-color="#ED2F24"/>
</linearGradient>
<clipPath id="clip0_4532_195987">
<rect width="42" height="42" fill="white"/>
</clipPath>
</defs>
</svg>
