<svg xmlns="http://www.w3.org/2000/svg" width="36" height="36" fill="none"><g clip-path="url(#a)"><circle cx="18" cy="18" r="18" fill="#222"/><circle cx="18.611" cy="17.937" r="12.57" fill="#F2E373"/><path fill="url(#b)" d="M23.846 23.524c1.047 2.095 4.235 1.743 5.238 1.743-1.746 2.794-5.74 5.59-10.126 5.59-7.52 0-13.269-5.98-13.269-12.922s11.523.7 19.554-.696c-2.095 1.745-2.444 4.189-1.397 6.285Z"/><path fill="url(#c)" d="M20.007 4.318c1.676-.559 2.793-1.397 3.142-1.746-.116.931-.628 3.003-1.745 3.841-1.397 1.048-3.143.698-5.238 3.143-1.397 1.63-1.34 5.348 2.095 6.285 3.435.937 5.587-2.095 10.475-1.397 2.444.35 3.492 1.397 4.19 2.095-1.397-.116-4.19-.35-6.634.35-3.096.884-5.587 5.586-8.38 7.68-2.793 2.096-8.73 1.597-10.824-1.396-2.445-3.491-1.84-9.433 1.153-12.924 4.19-4.889 9.671-5.233 11.766-5.93Z"/></g><defs><linearGradient id="b" x1="17.212" x2="22.45" y1="17.237" y2="30.505" gradientUnits="userSpaceOnUse"><stop stop-color="#F2E373"/><stop offset="1" stop-color="#E62C21"/></linearGradient><linearGradient id="c" x1="7.437" x2="18.61" y1="6.762" y2="22.475" gradientUnits="userSpaceOnUse"><stop stop-color="#F2E373"/><stop offset="1" stop-color="#ED2F24"/></linearGradient><clipPath id="a"><path fill="#fff" d="M0 0h36v36H0z"/></clipPath></defs></svg>