<svg xmlns="http://www.w3.org/2000/svg" width="42" height="42" fill="none"><g clip-path="url(#a)"><path fill="#F3F3F3" d="M0 0h21c11.598 0 21 9.402 21 21s-9.402 21-21 21S0 32.598 0 21V0Z"/><path fill="#2EB6EA" d="M0 0h26v42H0z"/><path fill="#745DDF" d="M21 0h21v42H21l6-14.5-6-6.5-5-7 5-14Z"/><path fill="#F3F3F3" d="M25.08 27.596a3.564 3.564 0 0 0-.93-2.593 8.479 8.479 0 0 0-3.153-1.779 37.876 37.876 0 0 1-3.835-1.619 12.253 12.253 0 0 1-2.763-1.847 7.422 7.422 0 0 1-1.796-2.456 8.038 8.038 0 0 1-.644-3.358 7.28 7.28 0 0 1 .519-2.974 7.437 7.437 0 0 1 1.687-2.531c1.587-1.483 2.967-2.139 4.177-2.503V0h6.014v5.983c1.596.317 3.163 1.275 4.585 2.93.6.762 1.076 1.6 1.417 2.485l-4.826 2.882c-.42-.84-.88-1.824-1.46-2.625a3.34 3.34 0 0 0-1.21-.897 3.426 3.426 0 0 0-1.493-.284 3.519 3.519 0 0 0-1.402.195 3.452 3.452 0 0 0-1.202.729 3.5 3.5 0 0 0-.721 1.187 3.432 3.432 0 0 0-.198 1.367c-.021.441.047.882.2 1.298.155.416.391.798.697 1.125a9.943 9.943 0 0 0 3.347 1.869c1.372.526 2.71 1.13 4.01 1.81.972.51 1.865 1.154 2.651 1.91a7.394 7.394 0 0 1 1.651 2.423 8.16 8.16 0 0 1 .573 3.17 7.248 7.248 0 0 1-.501 2.959 7.4 7.4 0 0 1-1.664 2.524c-1.623 1.482-2.202 1.82-4.454 2.752V42H18.34v-5.617c-2.905-1.103-3.493-2.015-5.203-3.738C11.95 31.296 11.26 29.035 11 27.3l5.712-1.68c0 1.26.352 3.1 1.183 4.127.424.435.941.773 1.514.992a4.307 4.307 0 0 0 1.803.273 4.12 4.12 0 0 0 2.838-.924c.349-.317.622-.704.802-1.135.18-.43.261-.893.24-1.357"/></g><defs><clipPath id="a"><path fill="#fff" d="M0 0h21c11.598 0 21 9.402 21 21s-9.402 21-21 21S0 32.598 0 21V0Z"/></clipPath></defs></svg>