<svg width="42" height="42" viewBox="0 0 42 42" fill="none" xmlns="http://www.w3.org/2000/svg">
<g clip-path="url(#clip0_26_29172)">
<path d="M21 42C32.598 42 42 32.598 42 21C42 9.40202 32.598 0 21 0C9.40202 0 0 9.40202 0 21C0 32.598 9.40202 42 21 42Z" fill="#EB445A"/>
<path d="M8.3999 37.8008C11.9111 40.4384 16.2791 42.0008 20.9999 42.0008C25.7207 42.0008 30.0971 40.4384 33.5999 37.8008H8.3999Z" fill="#EB445A"/>
<path d="M28.1736 29.3984H1.75562C2.41082 30.902 3.23402 32.3048 4.20002 33.5984H28.182V29.3984H28.1736Z" fill="#EB445A"/>
<path fill-rule="evenodd" clip-rule="evenodd" d="M33.4235 13.65C33.4235 10.752 31.0715 8.4 28.1735 8.4C25.2755 8.4 22.9235 10.752 22.9235 13.65C22.9235 16.548 25.2755 18.9 28.1735 18.9C31.0715 18.9 33.4235 16.548 33.4235 13.65ZM17.5055 7.8792C17.5055 6.426 16.3295 5.25 14.8763 5.25C13.4315 5.25 12.2471 6.426 12.2471 7.8792C12.2471 9.3324 13.4231 10.5084 14.8763 10.5084C16.3295 10.5084 17.5055 9.3324 17.5055 7.8792ZM1.75562 29.3991L14.8763 29.3991L14.8764 29.3991L16.043 29.3991H22.0541L18.5555 33.6005H28.1735V22.0505L25.0283 25.8275L16.043 15.0486L14.8764 13.6492V13.6491L14.8764 13.6491L14.8763 13.6491V13.6492L1.75562 29.3991ZM23.0256 28.2324L24.2692 26.739L16.043 16.8707V28.2324H23.0256ZM28.1737 33.6005H29.3403H36.2813H37.8001L36.8277 32.4338L29.3403 23.4503L28.1737 22.0505V23.8727V32.4338V33.6005ZM29.3403 25.2725L35.309 32.4338H29.3403V25.2725Z" fill="#F3F3F3"/>
</g>
<defs>
<clipPath id="clip0_26_29172">
<rect width="42" height="42" fill="white"/>
</clipPath>
</defs>
</svg>
