<svg width="42" height="42" viewBox="0 0 42 42" fill="none" xmlns="http://www.w3.org/2000/svg">
<g clip-path="url(#clip0_1915_201480)">
<path d="M21 42C32.598 42 42 32.598 42 21C42 9.40202 32.598 0 21 0C9.40202 0 0 9.40202 0 21C0 32.598 9.40202 42 21 42Z" fill="#EB445A"/>
<path d="M8.3999 37.8005C11.9111 40.4381 16.2791 42.0005 20.9999 42.0005C25.7207 42.0005 30.0971 40.4381 33.5999 37.8005H8.3999Z" fill="#EB445A"/>
<path d="M28.1734 29.3992H1.75537C2.41057 30.9028 3.23377 32.3056 4.19977 33.5992H28.1818V29.3992H28.1734Z" fill="#EB445A"/>
<path fill-rule="evenodd" clip-rule="evenodd" d="M33.4237 13.65C33.4237 10.752 31.0717 8.4 28.1737 8.4C25.2757 8.4 22.9237 10.752 22.9237 13.65C22.9237 16.548 25.2757 18.9 28.1737 18.9C31.0717 18.9 33.4237 16.548 33.4237 13.65ZM17.5057 7.8792C17.5057 6.426 16.3297 5.25 14.8765 5.25C13.4317 5.25 12.2473 6.426 12.2473 7.8792C12.2473 9.3324 13.4233 10.5084 14.8765 10.5084C16.3297 10.5084 17.5057 9.3324 17.5057 7.8792ZM1.75586 29.3991L14.8766 29.3991L14.8767 29.3991L16.0433 29.3991H22.0543L18.5557 33.6005H28.1737V22.0505L25.0285 25.8275L16.0433 15.0486L14.8767 13.6492V13.6491L14.8766 13.6491L14.8766 13.6491V13.6492L1.75586 29.3991ZM23.0259 28.2324L24.2695 26.739L16.0433 16.8707V28.2324H23.0259ZM28.1739 33.6005H29.3406H36.2816H37.8003L36.8279 32.4338L29.3406 23.4503L28.1739 22.0505V23.8727V32.4338V33.6005ZM29.3406 25.2725L35.3092 32.4338H29.3406V25.2725Z" fill="#F3F3F3"/>
</g>
<defs>
<clipPath id="clip0_1915_201480">
<rect width="42" height="42" fill="white"/>
</clipPath>
</defs>
</svg>
