<svg width="42" height="42" viewBox="0 0 42 42" fill="none" xmlns="http://www.w3.org/2000/svg">
<rect width="42" height="42" rx="21" fill="url(#paint0_linear_5307_314292)"/>
<path fill-rule="evenodd" clip-rule="evenodd" d="M12.2258 32.7672C8.64047 30.0881 6.3259 25.8122 6.3259 20.9914C6.3259 12.8785 12.899 6.30193 21.0075 6.30193C27.7017 6.30193 35.0008 10.3054 36.7708 16.4279C34.7891 9.59401 28.4807 4.58398 21 4.58398C11.9384 4.58398 4.59375 11.9325 4.59375 20.9991C4.59375 30.0655 11.9384 37.4141 21 37.4141C30.0615 37.4141 37.4063 30.0655 37.4063 20.9991V20.1363H36.5061C36.4758 20.1363 36.4379 20.1363 36.385 20.1363C36.2792 20.1363 36.1279 20.1287 35.9312 20.1211C35.5454 20.1059 35.0085 20.0833 34.4033 20.0303C33.1704 19.9243 31.7711 19.7124 30.8105 19.3341C29.275 18.721 28.4051 17.9037 27.4142 16.9501L27.3537 16.8972C26.3628 15.9436 25.2433 14.8689 23.3069 13.9607C21.4009 13.0602 19.2905 13.2039 17.74 13.5294C16.9532 13.6883 16.2801 13.9078 15.8035 14.0819C15.5615 14.1651 15.3724 14.2483 15.2362 14.3013C14.4571 14.6268 13.7008 15.0203 12.9368 15.376C12.9368 15.376 14.4344 15.7847 15.1833 16.0192C15.2135 16.0268 15.2514 16.042 15.3043 16.0571C15.4178 16.0949 15.5766 16.1479 15.7657 16.2311C16.159 16.39 16.6733 16.6322 17.1802 16.9577C17.9819 17.4723 18.6475 18.1232 18.9199 18.9178C17.218 19.1448 15.622 19.8865 14.4344 20.5903C13.7083 21.0142 13.1108 21.438 12.6872 21.7559C12.4754 21.9148 12.309 22.0509 12.1955 22.1418C12.0972 22.225 10.5617 23.5721 10.5617 23.5721C10.5617 23.5721 12.5435 23.7841 13.5192 23.9808C14.1697 24.1094 15.0471 24.3214 15.9624 24.6393C16.8776 24.9571 17.8079 25.3809 18.5795 25.9183C19.3509 26.4556 19.9184 27.0837 20.1982 27.7952C21.0075 29.8687 20.2133 31.897 18.6098 33.0322C17.0288 34.1523 14.6311 34.4172 12.2258 32.7672ZM17.8231 35.3405C18.466 35.1284 19.0711 34.8258 19.6158 34.4398C21.7943 32.8883 22.9364 30.058 21.8093 27.1669C21.3631 26.0317 20.5159 25.1614 19.5703 24.503C18.6249 23.8445 17.5432 23.3602 16.5373 23.0121C15.8792 22.7851 15.2362 22.6034 14.6765 22.4672C14.8731 22.3386 15.085 22.2024 15.3118 22.0737C16.6432 21.2942 18.3147 20.5752 19.9184 20.5752C22.3388 20.5752 24.139 21.3169 25.8635 22.1115C26.0224 22.1872 26.1738 22.2553 26.3326 22.3309C27.868 23.0499 29.4867 23.8144 31.3625 23.8144C33.1855 23.8144 34.5999 23.2997 35.5757 22.7699C34.7059 30.0503 28.511 35.6961 21 35.6961C19.9107 35.681 18.8442 35.5599 17.8231 35.3405ZM33.7074 21.6953C33.0644 21.9148 32.2778 22.0737 31.3625 22.0737C29.8875 22.0737 28.6244 21.4834 27.0209 20.7342C26.8772 20.666 26.7335 20.5979 26.5897 20.5298C24.9861 19.7881 23.1254 18.9935 20.705 18.8497C20.3797 17.2453 19.1619 16.1479 18.1257 15.482C18.0122 15.4063 17.8911 15.3381 17.7778 15.27C17.8836 15.2473 17.9895 15.2246 18.0954 15.2019C19.4947 14.9144 21.1664 14.8387 22.5733 15.5046C24.2525 16.2916 25.1979 17.2074 26.1813 18.1535L26.2116 18.1837C27.2251 19.16 28.2992 20.1742 30.1674 20.9233C31.2113 21.3472 32.5577 21.5742 33.7074 21.6953Z" fill="url(#paint1_linear_5307_314292)"/>
<defs>
<linearGradient id="paint0_linear_5307_314292" x1="21" y1="0" x2="21" y2="42" gradientUnits="userSpaceOnUse">
<stop stop-color="#222222"/>
<stop offset="1" stop-color="#301729"/>
</linearGradient>
<linearGradient id="paint1_linear_5307_314292" x1="4.59375" y1="37.4141" x2="37.9947" y2="36.8041" gradientUnits="userSpaceOnUse">
<stop stop-color="#29CCB9"/>
<stop offset="0.494792" stop-color="#0091FF"/>
<stop offset="1" stop-color="#FF66B7"/>
</linearGradient>
</defs>
</svg>
