<svg xmlns="http://www.w3.org/2000/svg" width="42" height="42" fill="none"><rect width="42" height="42" fill="#2866ED" rx="21"/><path fill="#F3F3F3" fill-rule="evenodd" d="M33.379 16.29v6.818H11.85c.897 4.127 4.665 7.177 9.15 7.177 3.678 0 6.907-2.064 8.432-5.113h4.037v5.65c0 1.346-1.077 2.423-2.512 2.423H11.043c-1.346 0-2.512-1.077-2.512-2.422V16.29H33.38Zm-6.369 8.792c-1.345 1.884-3.498 3.14-6.01 3.14-2.512 0-4.754-1.256-6.01-3.14h12.02Zm-11.303-7.176c-1.973 0-3.588 1.435-3.857 3.229h2.153c.27-.718.897-1.256 1.704-1.256.808 0 1.436.538 1.705 1.256h2.063c-.27-1.884-1.884-3.23-3.768-3.23Zm10.585 0c-1.973 0-3.588 1.435-3.857 3.229h2.153c.27-.718.897-1.256 1.704-1.256.808 0 1.436.538 1.705 1.256h2.153c-.36-1.884-1.974-3.23-3.857-3.23Zm4.575-9.15c1.346 0 2.512 1.076 2.512 2.422v2.96H8.531v-2.96c0-1.346 1.077-2.422 2.512-2.422h19.824Z" clip-rule="evenodd"/></svg>