<svg xmlns="http://www.w3.org/2000/svg" width="36" height="36" fill="none"><path fill="#030303" fill-rule="evenodd" d="M18 36c9.941 0 18-8.059 18-18S27.941 0 18 0 0 8.059 0 18s8.059 18 18 18Zm7.72-31.714-2.786 2.772a12.046 12.046 0 0 1 5.99 5.967l2.79-2.776-5.993-5.963ZM7.033 13.123a12.046 12.046 0 0 1 5.936-6.02L10.28 4.427 4.286 10.39l2.746 2.733Zm.001 9.756a12.046 12.046 0 0 0 5.937 6.02l-2.688 2.674-5.994-5.963 2.745-2.731Zm15.9 6.064a12.046 12.046 0 0 0 5.99-5.967l2.789 2.775-5.994 5.963-2.786-2.771Z" clip-rule="evenodd"/><path fill="url(#a)" fill-rule="evenodd" d="M36 18c0 9.941-8.059 18-18 18S0 27.941 0 18 8.059 0 18 0s18 8.059 18 18ZM25.72 4.286l-2.786 2.772a12.046 12.046 0 0 1 5.99 5.967l2.79-2.776-5.993-5.963ZM7.033 13.123a12.046 12.046 0 0 1 5.936-6.02L10.28 4.427 4.286 10.39l2.746 2.733Zm.001 9.756a12.046 12.046 0 0 0 5.937 6.02l-2.688 2.674-5.994-5.963 2.745-2.731Zm15.9 6.064a12.046 12.046 0 0 0 5.99-5.967l2.789 2.775-5.994 5.963-2.786-2.771Z" clip-rule="evenodd" opacity=".3" style="mix-blend-mode:lighten"/><path fill="#F3F3F3" d="M21.748 15.502c-.267-.153-.61-.153-.914 0l-2.13 1.259-1.446.801-2.092 1.26c-.267.152-.609.152-.913 0l-1.636-.993a.93.93 0 0 1-.457-.801V15.12c0-.305.152-.61.457-.8l1.636-.955c.266-.152.608-.152.913 0l1.636.992a.93.93 0 0 1 .456.802v1.258l1.446-.839v-1.297a.941.941 0 0 0-.457-.801l-3.043-1.793c-.267-.153-.609-.153-.913 0l-3.12 1.831a.84.84 0 0 0-.457.763v3.586c0 .305.152.61.457.802l3.082 1.793c.266.152.608.152.913 0l2.092-1.221 1.446-.84 2.092-1.22c.267-.153.61-.153.913 0l1.637.953a.93.93 0 0 1 .456.802v1.907c0 .305-.152.61-.456.801l-1.598.954c-.267.153-.61.153-.914 0l-1.636-.954a.93.93 0 0 1-.456-.8v-1.222l-1.446.84v1.259c0 .305.152.61.457.8l3.081 1.794c.267.153.61.153.914 0l3.081-1.793a.93.93 0 0 0 .457-.801v-3.625a.942.942 0 0 0-.457-.801l-3.081-1.793Z"/><defs><linearGradient id="a" x1="18" x2="18" y1="18" y2="38.128" gradientUnits="userSpaceOnUse"><stop stop-color="#fff" stop-opacity="0"/><stop offset="1" stop-color="#F3F3F3"/></linearGradient></defs></svg>