<svg width="42" height="42" viewBox="0 0 42 42" fill="none" xmlns="http://www.w3.org/2000/svg">
<circle cx="21" cy="21" r="21" fill="#7B3FE4"/>
<path d="M27.7347 15.9304C27.223 15.638 26.565 15.638 25.9802 15.9304L21.8862 18.3429L19.1081 19.8782L15.0872 22.2907C14.5755 22.5832 13.9175 22.5832 13.3326 22.2907L10.189 20.3899C9.67729 20.0975 9.31176 19.5127 9.31176 18.8547V15.1993C9.31176 14.6145 9.60419 14.0296 10.189 13.6641L13.3326 11.8364C13.8444 11.544 14.5024 11.544 15.0872 11.8364L18.2308 13.7372C18.7426 14.0296 19.1081 14.6145 19.1081 15.2725V17.685L21.8862 16.0766V13.591C21.8862 13.0061 21.5937 12.4213 21.0089 12.0557L15.1603 8.61971C14.6486 8.32728 13.9906 8.32728 13.4058 8.61971L7.41098 12.1289C6.82612 12.4213 6.53369 13.0061 6.53369 13.591V20.4631C6.53369 21.0479 6.82612 21.6328 7.41098 21.9983L13.3326 25.4343C13.8444 25.7268 14.5024 25.7268 15.0872 25.4343L19.1081 23.0949L21.8862 21.4866L25.9071 19.1471C26.4188 18.8547 27.0768 18.8547 27.6616 19.1471L30.8052 20.9748C31.317 21.2672 31.6825 21.8521 31.6825 22.5101V26.1654C31.6825 26.7503 31.3901 27.3351 30.8052 27.7007L27.7347 29.5283C27.223 29.8208 26.565 29.8208 25.9802 29.5283L22.8366 27.7007C22.3248 27.4082 21.9593 26.8234 21.9593 26.1654V23.826L19.1812 25.4343V27.8469C19.1812 28.4317 19.4736 29.0166 20.0585 29.3821L25.9802 32.8181C26.4919 33.1106 27.1499 33.1106 27.7347 32.8181L33.6564 29.3821C34.1682 29.0897 34.5337 28.5048 34.5337 27.8469V20.9017C34.5337 20.3168 34.2413 19.732 33.6564 19.3664L27.7347 15.9304Z" fill="#F3F3F3"/>
</svg>
