<svg xmlns="http://www.w3.org/2000/svg" width="28" height="28" viewBox="0 0 28 28" fill="none" class="light">
<path fill-rule="evenodd" clip-rule="evenodd" d="M26 14C26 20.6274 20.6274 26 14 26C7.37258 26 2 20.6274 2 14C2 7.37258 7.37258 2 14 2C20.6274 2 26 7.37258 26 14ZM19.1421 23.3848L23.3848 19.1421L21.3669 17.1243C20.5576 19.0302 19.0302 20.5576 17.1243 21.3669L19.1421 23.3848ZM11.433 21.5793C9.45324 20.909 7.82115 19.4848 6.87846 17.6485L5.2427 19.2843L9.48534 23.5269L11.433 21.5793ZM6.63302 10.8757C7.44236 8.96972 8.96973 7.44236 10.8757 6.63305L9.24264 5L5 9.24264L6.63302 10.8757ZM17.6484 6.87853L19.3848 5.14214L23.6275 9.38478L21.5792 11.433C20.9089 9.4533 19.4848 7.82122 17.6484 6.87853Z" fill="#060710"/>
<path d="M16.7689 12.6951C16.5935 12.6001 16.3679 12.6001 16.1674 12.6951L14.7637 13.4785L13.8112 13.977L12.4326 14.7604C12.2572 14.8553 12.0316 14.8553 11.8311 14.7604L10.7533 14.1432C10.5778 14.0482 10.4525 13.8583 10.4525 13.6447V12.4577C10.4525 12.2678 10.5527 12.0779 10.7533 11.9592L11.8311 11.3657C12.0065 11.2708 12.2321 11.2708 12.4326 11.3657L13.5104 11.9829C13.6859 12.0779 13.8112 12.2678 13.8112 12.4815V13.2648L14.7637 12.7426V11.9355C14.7637 11.7455 14.6634 11.5556 14.4629 11.4369L12.4577 10.3212C12.2822 10.2263 12.0567 10.2263 11.8561 10.3212L9.80078 11.4607C9.60026 11.5556 9.5 11.7455 9.5 11.9355V14.1669C9.5 14.3568 9.60026 14.5467 9.80078 14.6654L11.8311 15.7812C12.0065 15.8761 12.2321 15.8761 12.4326 15.7812L13.8112 15.0215L14.7637 14.4993L16.1423 13.7396C16.3178 13.6447 16.5433 13.6447 16.7439 13.7396L17.8217 14.3331C17.9971 14.428 18.1225 14.618 18.1225 14.8316V16.0185C18.1225 16.2085 18.0222 16.3984 17.8217 16.5171L16.7689 17.1105C16.5935 17.2055 16.3679 17.2055 16.1674 17.1105L15.0896 16.5171C14.9141 16.4221 14.7888 16.2322 14.7888 16.0185V15.2589L13.8363 15.7812V16.5645C13.8363 16.7545 13.9366 16.9444 14.1371 17.0631L16.1674 18.1788C16.3428 18.2737 16.5684 18.2737 16.7689 18.1788L18.7992 17.0631C18.9747 16.9681 19.1 16.7782 19.1 16.5645V14.3093C19.1 14.1194 18.9997 13.9295 18.7992 13.8108L16.7689 12.6951Z" fill="white"/>
<rect x="1.4" y="1.4" width="25.2" height="25.2" rx="12.6" stroke="white" stroke-width="1.2"/>
</svg>