<svg width="42" height="42" viewBox="0 0 42 42" fill="none" xmlns="http://www.w3.org/2000/svg">
<g clip-path="url(#clip0_4532_195999)">
<path fill-rule="evenodd" clip-rule="evenodd" d="M21 42C32.5978 42 42 32.5978 42 21C42 9.40217 32.5978 0 21 0C9.40217 0 0 9.40217 0 21C0 32.5978 9.40217 42 21 42ZM30.0067 5.00033L26.7563 8.23433C29.8504 9.63426 32.3328 12.1072 33.7447 15.1958L36.9997 11.9572L30.0078 5.00033H30.0067ZM8.20517 15.3102C9.58927 12.2093 12.0493 9.71437 15.1305 8.28683L11.9933 5.16483L5.00033 12.1217L8.20517 15.3102ZM8.20633 26.6922C9.59073 29.7933 12.0512 32.2882 15.1328 33.7155L11.9968 36.8352L5.00383 29.8783L8.20633 26.6922ZM26.7563 33.7668C29.8504 32.3669 32.3328 29.894 33.7447 26.8053L36.9985 30.0428L30.0055 36.9997L26.7563 33.7668Z" fill="#F3F3F3"/>
<path style="mix-blend-mode:multiply" opacity="0.5" fill-rule="evenodd" clip-rule="evenodd" d="M42 21C42 32.5978 32.5978 42 21 42C9.40217 42 0 32.5978 0 21C0 9.40217 9.40217 0 21 0C32.5978 0 42 9.40217 42 21ZM30.0067 5.00033L26.7563 8.23433C29.8504 9.63426 32.3328 12.1072 33.7447 15.1958L36.9997 11.9572L30.0078 5.00033H30.0067ZM8.20517 15.3102C9.58927 12.2093 12.0493 9.71437 15.1305 8.28683L11.9933 5.16483L5.00033 12.1217L8.20517 15.3102ZM8.20633 26.6922C9.59073 29.7933 12.0512 32.2882 15.1328 33.7155L11.9968 36.8352L5.00383 29.8783L8.20633 26.6922ZM26.7563 33.7668C29.8504 32.3669 32.3328 29.894 33.7447 26.8053L36.9985 30.0428L30.0055 36.9997L26.7563 33.7668Z" fill="url(#paint0_linear_4532_195999)"/>
<path d="M25.3419 18.116C25.0304 17.9375 24.6302 17.9375 24.2756 18.116L21.7906 19.5848L20.1036 20.5193L17.6629 21.9893C17.3514 22.1666 16.9524 22.1666 16.5977 21.9893L14.6891 20.8308C14.5266 20.7348 14.392 20.5982 14.2985 20.4343C14.205 20.2704 14.1559 20.085 14.1559 19.8963V17.6703C14.1559 17.3145 14.3332 16.9586 14.6891 16.737L16.5977 15.6228C16.9081 15.4455 17.3071 15.4455 17.6629 15.6228L19.5716 16.7801C19.734 16.8763 19.8685 17.0132 19.9618 17.1773C20.0551 17.3414 20.104 17.527 20.1036 17.7158V19.1835L21.7906 18.2046V16.6915C21.7894 16.503 21.7397 16.3181 21.6463 16.1544C21.5529 15.9908 21.419 15.8539 21.2574 15.757L17.7072 13.6651C17.3957 13.4866 16.9967 13.4866 16.6421 13.6651L13.0021 15.8013C12.8388 15.8849 12.7023 16.0127 12.608 16.17C12.5138 16.3274 12.4656 16.5081 12.4689 16.6915V20.8751C12.4689 21.231 12.6462 21.5868 13.0021 21.8108L16.5977 23.9026C16.9081 24.08 17.3071 24.08 17.6629 23.9026L20.1036 22.4781L21.7906 21.4981L24.2312 20.0748C24.5427 19.8963 24.9429 19.8963 25.2964 20.0748L27.2062 21.1866C27.3687 21.2828 27.5031 21.4197 27.5964 21.5838C27.6897 21.7479 27.7386 21.9335 27.7382 22.1223V24.3471C27.7382 24.703 27.5609 25.0588 27.2062 25.2816L25.3419 26.3946C25.0304 26.5731 24.6302 26.5731 24.2756 26.3946L22.3669 25.2816C22.2048 25.1856 22.0706 25.0491 21.9773 24.8854C21.884 24.7218 21.8349 24.5367 21.8349 24.3483V22.9226L20.1479 23.9026V25.3715C20.1479 25.7273 20.3252 26.0831 20.6811 26.3048L24.2756 28.3978C24.5871 28.5763 24.9872 28.5763 25.3419 28.3978L28.9364 26.306C29.0989 26.21 29.2335 26.0733 29.327 25.9094C29.4205 25.7456 29.4696 25.5601 29.4696 25.3715V21.1423C29.4683 20.9539 29.4185 20.769 29.3252 20.6053C29.2318 20.4417 29.0979 20.3048 28.9364 20.2078L25.3419 18.116Z" fill="#030303" stroke="#030303" stroke-width="0.299833"/>
</g>
<defs>
<linearGradient id="paint0_linear_4532_195999" x1="21" y1="15.1153" x2="21" y2="44.4827" gradientUnits="userSpaceOnUse">
<stop stop-color="white"/>
<stop offset="1" stop-color="#7D7D7D"/>
</linearGradient>
<clipPath id="clip0_4532_195999">
<rect width="42" height="42" fill="white"/>
</clipPath>
</defs>
</svg>
