<svg width="42" height="42" viewBox="0 0 42 42" fill="none" xmlns="http://www.w3.org/2000/svg">
<rect width="42" height="42" rx="21" fill="white"/>
<path fill-rule="evenodd" clip-rule="evenodd" d="M21 34.7812C28.6112 34.7812 34.7812 28.6112 34.7812 21C34.7812 13.3888 28.6112 7.21875 21 7.21875C13.3888 7.21875 7.21875 13.3888 7.21875 21C7.21875 28.6112 13.3888 34.7812 21 34.7812ZM10.6033 29.777L18.5103 22.5025C18.5903 22.4289 18.5513 22.2955 18.4443 22.2766L13.8143 21.4596C13.6714 21.4343 13.6691 21.2301 13.8114 21.2016L17.8452 20.3948C17.9399 20.3759 17.9824 20.2646 17.9245 20.1874L13.6209 14.4493C13.5314 14.3299 13.6789 14.1774 13.8012 14.263L19.5363 18.2776C19.611 18.3299 19.7149 18.292 19.7384 18.2039L20.8575 14.0075C20.8933 13.8732 21.0858 13.8793 21.113 14.0155L21.9461 18.181C21.965 18.2757 22.0763 18.3182 22.1535 18.2603L27.9365 13.9231C28.0545 13.8346 28.2063 13.9781 28.1244 14.1009L24.0712 20.1807C24.0176 20.2611 24.0663 20.3698 24.1619 20.3835L27.9401 20.9232C28.0803 20.9432 28.0938 21.1404 27.9576 21.1793L24.1328 22.2722C24.0461 22.2969 24.0096 22.3998 24.0613 22.4736L28.1229 28.276C28.2071 28.3962 28.0604 28.5429 27.9401 28.4587L22.1491 24.405C22.0721 24.3511 21.9652 24.3932 21.9455 24.485L21.1211 28.3323C21.0919 28.4682 20.8991 28.4715 20.8654 28.3366L19.7477 23.8658C19.7227 23.7656 19.5971 23.7323 19.5256 23.8069L12.236 31.4135C12.185 31.4666 12.1004 31.4675 12.0484 31.4155L10.5993 29.9664C10.5465 29.9136 10.5483 29.8275 10.6033 29.777Z" fill="url(#paint0_linear_5850_165148)"/>
<defs>
<linearGradient id="paint0_linear_5850_165148" x1="11.8125" y1="9.51562" x2="30.5156" y2="32.1562" gradientUnits="userSpaceOnUse">
<stop stop-color="#382CC6"/>
<stop offset="1" stop-color="#8C57F3"/>
</linearGradient>
</defs>
</svg>
