<svg width="42" height="42" viewBox="0 0 42 42" fill="none" xmlns="http://www.w3.org/2000/svg">
<path d="M42 21C42 32.598 32.598 42 21 42C15.777 42 10.9993 40.0932 7.32517 36.9378C7.39526 36.9597 7.47493 36.9421 7.52933 36.8853L18.6374 25.2943C18.7463 25.1807 18.9377 25.2315 18.9758 25.3842L20.679 32.1967C20.7303 32.4023 21.0242 32.3973 21.0685 32.1901L22.3248 26.3277C22.3548 26.1877 22.5178 26.1237 22.635 26.2058L31.4595 32.3829C31.6428 32.5112 31.8664 32.2876 31.7381 32.1044L25.5489 23.2627C25.4701 23.1501 25.5257 22.9935 25.6578 22.9557L31.4862 21.2905C31.6937 21.2312 31.6731 20.9307 31.4595 20.9002L25.7021 20.0777C25.5565 20.0569 25.4824 19.8912 25.564 19.7688L31.7403 10.5043C31.865 10.3172 31.6338 10.0984 31.4539 10.2334L22.6419 16.8424C22.5241 16.9307 22.3546 16.8659 22.3257 16.7216L21.0563 10.3742C21.0147 10.1667 20.7214 10.1574 20.6669 10.3619L18.9617 16.7565C18.9259 16.8907 18.7675 16.9485 18.6537 16.8688L9.91446 10.7514C9.7281 10.6209 9.50328 10.8532 9.63977 11.0352L16.1976 19.7789C16.2859 19.8967 16.2211 20.0662 16.0768 20.0951L9.92999 21.3244C9.71312 21.3678 9.71666 21.6791 9.93445 21.7175L16.9897 22.9625C17.1528 22.9913 17.2122 23.1945 17.0903 23.3067L5.04142 34.3916C4.98752 34.4412 4.96721 34.5133 4.98106 34.5798C1.87412 30.9185 0 26.1781 0 21C0 9.40202 9.40202 0 21 0C32.598 0 42 9.40202 42 21Z" fill="url(#paint0_linear_6005_138402)"/>
<defs>
<linearGradient id="paint0_linear_6005_138402" x1="7" y1="3.5" x2="35.5" y2="38" gradientUnits="userSpaceOnUse">
<stop stop-color="#382CC6"/>
<stop offset="1" stop-color="#8C57F3"/>
</linearGradient>
</defs>
</svg>
