<svg xmlns="http://www.w3.org/2000/svg" width="36" height="36" fill="none"><rect width="36" height="36" fill="#5097DB" rx="18"/><path fill="#030303" d="M7.377 20.87c0 1.035.227 1.83.524 2.31.39.63.97.897 1.562.897.763 0 1.462-.19 2.807-2.051 1.078-1.492 2.349-3.586 3.204-4.899l1.447-2.224c1.006-1.544 2.17-3.261 3.504-4.425C21.515 9.528 22.69 9 23.872 9c1.986 0 3.877 1.15 5.325 3.309 1.584 2.363 2.353 5.34 2.353 8.413 0 1.826-.36 3.168-.973 4.228-.591 1.026-1.745 2.05-3.685 2.05v-2.923c1.661 0 2.076-1.527 2.076-3.274 0-2.49-.58-5.253-1.86-7.228-.907-1.4-2.083-2.256-3.377-2.256-1.4 0-2.526 1.056-3.791 2.938-.673 1-1.364 2.218-2.14 3.593l-.854 1.513c-1.715 3.04-2.15 3.733-3.007 4.877C12.436 26.24 11.153 27 9.463 27c-2.005 0-3.272-.868-4.057-2.176-.641-1.066-.956-2.464-.956-4.058l2.927.105Z"/><path fill="#030303" d="M12.21 11.943c-1.155 0-2.137.812-2.96 2.053-1.161 1.753-1.873 4.366-1.873 6.875 0 1.034.227 1.829.524 2.31l-2.495 1.643c-.641-1.066-.956-2.464-.956-4.058 0-2.898.796-5.918 2.308-8.25C8.1 10.445 10.037 9 12.258 9l-.047 2.943Z"/><path fill="url(#a)" d="M6.756 12.515C8.098 10.447 10.034 9 12.256 9c1.286 0 2.565.38 3.9 1.471 1.461 1.192 3.018 3.155 4.96 6.39l.697 1.162c1.681 2.8 2.638 4.241 3.197 4.92.72.873 1.224 1.134 1.88 1.134 1.66 0 2.076-1.527 2.076-3.274l2.582-.081c0 1.826-.36 3.168-.973 4.228C29.983 25.976 28.83 27 26.89 27c-1.207 0-2.276-.262-3.457-1.377-.909-.856-1.97-2.376-2.788-3.742l-2.43-4.06c-1.22-2.038-2.338-3.557-2.986-4.245-.696-.74-1.592-1.633-3.02-1.633-1.157 0-2.139.812-2.96 2.053l-2.493-1.48Z"/><defs><linearGradient id="a" x1="6.795" x2="26.265" y1="19.8" y2="26.888" gradientUnits="userSpaceOnUse"><stop stop-color="#030303"/><stop offset=".49" stop-color="#8B8A8A"/><stop offset="1" stop-color="#030303"/></linearGradient></defs></svg>