<svg xmlns="http://www.w3.org/2000/svg" width="36" height="36" fill="none"><path fill="url(#a)" d="M18 35.998c9.94 0 17.998-8.058 17.998-17.999C35.998 8.06 27.94 0 18 0 8.06 0 0 8.058 0 18c0 9.94 8.058 17.998 18 17.998Z"/><path fill="#EC6571" d="m12.1 15.63 5.9-2.732V5.406l-5.9 10.225ZM18 12.898v5.958l5.902-3.225-5.901-2.733Z"/><path fill="#751417" d="M18 12.898v5.958l-5.9-3.225 5.9-2.733ZM23.902 15.63l-5.901-2.732V5.406l5.901 10.225Z"/><path fill="#EC6571" d="M18 21.164v6.355l-6.014-9.646 6.015 3.29Z"/><path fill="#751417" d="M18 21.164v6.355l6.016-9.646L18 21.163ZM25.008 19.328l1.372 3.822 2.98-4.986-4.352 1.164Z"/><path fill="#EC6571" d="m26.38 23.15 2.98-.881v-4.105l-2.98 4.986Z"/><path fill="#751417" d="m29.36 22.27-4.352 7.264-3.3 1.419 4.672-7.803 2.98-.88Z"/><path fill="#EC6571" d="m6.642 22.27 4.35 7.264 3.3 1.419L9.63 23.15l-2.988-.88Z"/><path fill="#751417" d="M18 30.954 10.993 19.33 9.63 23.152l4.663 7.802H18Z"/><path fill="#EC6571" d="M10.992 19.328 9.63 23.15l-2.988-4.986 4.35 1.164Z"/><path fill="#751417" d="m9.63 23.15-2.988-.881v-4.105L9.63 23.15Z"/><path fill="#EC6571" d="m18 30.954 7.008-11.624 1.372 3.822-4.673 7.802h-3.706Z"/><defs><linearGradient id="a" x1="17.999" x2="17.999" y1="0" y2="35.998" gradientUnits="userSpaceOnUse"><stop stop-color="#fff"/><stop offset="1" stop-color="#EFCBD0"/></linearGradient></defs></svg>