<svg width="42" height="42" viewBox="0 0 42 42" fill="none" xmlns="http://www.w3.org/2000/svg">
<rect width="42" height="42" rx="21" fill="white"/>
<path d="M13.7196 17.8611L20.9996 14.4778V5.24951L13.7196 17.8611Z" fill="#FF596E"/>
<path d="M20.9994 14.478V21.8396L28.2794 17.8613L20.9994 14.478Z" fill="#FF596E"/>
<path d="M20.9996 14.478V21.8396L13.7196 17.8613L20.9996 14.478Z" fill="#800010"/>
<path d="M28.2794 17.8611L20.9994 14.4778V5.24951L28.2794 17.8611Z" fill="#800010"/>
<path d="M20.9992 24.6748V32.5147L13.5792 20.6265L20.9992 24.6748Z" fill="#FF596E"/>
<path d="M20.9994 24.6748V32.5147L28.4193 20.6265L20.9994 24.6748Z" fill="#800010"/>
<path d="M29.6448 22.4106L31.3248 27.1356L35.0114 20.9873L29.6448 22.4106Z" fill="#800010"/>
<path d="M31.3246 27.1356L35.0112 26.0389V20.9873L31.3246 27.1356Z" fill="#FF596E"/>
<path d="M35.0118 26.0391L29.6451 34.999L25.5735 36.749L31.3251 27.1357L35.0118 26.0391Z" fill="#800010"/>
<path d="M6.98816 26.0391L12.3548 34.999L16.4264 36.749L10.6748 27.1357L6.98816 26.0391Z" fill="#FF596E"/>
<path d="M21.0005 36.7499L12.3555 22.4116L10.6755 27.1366L16.4272 36.7499H21.0005Z" fill="#800010"/>
<path d="M12.3548 22.4106L10.6748 27.1356L6.98816 20.9873L12.3548 22.4106Z" fill="#FF596E"/>
<path d="M10.6748 27.1356L6.98816 26.0389V20.9873L10.6748 27.1356Z" fill="#800010"/>
<path d="M20.9994 36.7499L29.6443 22.4116L31.3243 27.1366L25.5727 36.7499H20.9994Z" fill="#FF596E"/>
</svg>
