<svg width="42" height="42" viewBox="0 0 42 42" fill="none" xmlns="http://www.w3.org/2000/svg">
<g clip-path="url(#clip0_2736_274267)">
<mask id="mask0_2736_274267" style="mask-type:luminance" maskUnits="userSpaceOnUse" x="0" y="0" width="42" height="42">
<path d="M42 0H0V42H42V0Z" fill="white"/>
</mask>
<g mask="url(#mask0_2736_274267)">
<path d="M21 42C32.598 42 42 32.598 42 21C42 9.40202 32.598 0 21 0C9.40202 0 0 9.40202 0 21C0 32.598 9.40202 42 21 42Z" fill="#313042"/>
<path d="M16.1483 30.5527C16.2986 30.1018 16.5991 29.651 16.7494 29.0498C16.7494 28.8995 16.7494 28.5989 16.5991 28.4486C15.6974 27.2462 15.3967 25.8936 15.6974 24.541C15.6974 24.3907 15.6974 24.2404 15.8477 24.2404C15.8477 24.09 15.9979 24.09 15.9979 23.9398C17.05 24.9919 17.3506 26.3445 17.5009 27.6971C17.8015 27.096 18.2524 26.4948 18.5529 25.7433C18.5529 25.5931 18.4027 25.4427 18.4027 25.2924C17.5009 23.9398 17.3506 22.4369 17.9517 20.7836C19.0038 21.8357 19.3044 23.1883 19.3044 24.541C19.7553 23.9398 20.0558 23.3386 20.5067 22.8878C20.5067 22.7374 20.5067 22.5871 20.3565 22.4369C19.9056 21.0842 19.9055 19.7316 20.657 18.379C20.8074 18.2287 20.8074 18.0783 20.9576 17.9281C21.7091 19.1304 21.5588 20.3328 21.4085 21.5352H21.5588C21.8594 21.0842 22.16 20.7836 22.3103 20.3328C22.9115 18.6795 23.8132 17.4773 25.4664 16.7257C25.767 16.5754 25.9173 16.5754 26.2179 16.4252C26.2179 16.7257 26.2179 16.8761 26.0675 17.1766C25.6167 18.6795 24.5646 19.8819 23.0617 20.6333C22.4606 20.934 22.0096 21.3848 21.7091 21.986C22.9115 21.3848 24.1137 21.0842 25.6167 21.5352C25.3161 21.8357 25.1658 21.986 24.8653 22.1362C23.8132 22.8878 22.6108 23.1883 21.4085 23.0381C20.9577 23.0381 20.8074 23.0381 20.657 23.3386C20.3565 23.7895 20.0558 24.3907 19.7553 24.9919C21.1079 24.3907 22.4606 24.09 23.9635 24.8415C23.5127 25.1421 23.212 25.4427 22.9115 25.5931C21.8594 26.0439 20.8074 26.1941 19.605 25.8936C19.3044 25.7433 19.1541 25.8936 19.0038 26.1942C18.7032 26.7953 18.4027 27.3965 17.9517 28.1479C19.3044 27.5469 20.657 27.096 22.16 27.6971L22.3103 27.8474C22.16 27.9977 22.0096 27.9977 21.7091 28.1479C20.5067 28.8995 19.3044 29.2 17.9517 29.0498C17.6512 28.8995 17.3506 29.0498 17.3506 29.3503C16.8998 30.5527 16.4488 31.755 15.9979 32.807C15.8477 33.2579 15.5471 33.7089 15.2465 34.1597C15.0962 34.4603 14.7957 34.6106 14.495 34.4603C10.4371 32.3562 7.58156 29.2 6.52951 24.8415C4.42541 16.8761 8.7839 8.91051 16.5991 6.65611C25.6167 3.95085 34.484 9.96255 35.8366 18.6795C36.8886 25.7433 32.8307 32.5065 26.2179 34.9111C25.767 35.0615 25.4664 35.2118 25.1658 34.9111C24.8653 34.4603 24.8653 34.1597 25.0156 33.7089C25.6167 32.2058 26.0675 30.7029 26.5185 29.2C26.819 28.2983 27.1196 27.9977 28.0214 27.9977C28.9232 27.8474 29.8249 27.8474 30.7266 27.6971C31.4781 27.5469 31.7787 27.2462 31.7787 26.4948C31.7787 26.3445 31.7787 26.0439 31.7787 25.8936C31.6285 25.5931 31.7787 25.2924 32.0793 24.9919C32.3799 24.6912 32.3799 24.541 32.0793 24.2404C31.929 24.09 31.929 23.7895 32.0793 23.7895C32.3799 23.4889 32.3799 23.1883 32.0793 22.8878C31.7787 22.5871 31.929 22.2866 32.2296 22.1362C32.5302 21.986 32.6804 21.8357 32.8307 21.5352C33.2816 21.2345 33.1314 20.934 32.8307 20.6333C32.2296 20.0321 31.4781 19.5813 30.877 18.9802C30.4261 18.6795 30.2758 18.0783 30.4261 17.6275C30.5764 16.7257 30.4261 15.9742 29.9752 15.2228C29.5243 14.6216 29.2237 13.8701 28.9232 13.269C28.4723 12.217 27.7208 11.4655 26.6687 11.1649C25.6167 10.8643 24.5646 10.714 23.3623 10.5637C22.6108 10.4134 21.8594 10.4134 21.1079 10.2631C19.1541 9.96255 17.3506 10.4134 15.8477 11.7661C15.3967 12.0666 14.9459 12.5175 14.3448 12.6678C13.8938 12.8182 13.5933 13.269 13.2927 13.5696C13.1424 14.0204 12.8419 14.3211 12.3909 14.4713C11.6395 15.0725 10.888 15.5234 10.2868 16.2749C10.1365 16.5754 9.68566 16.7257 9.53537 16.8761C8.63361 17.4773 8.48331 18.0783 8.7839 18.9802C8.93419 19.5813 9.08448 20.1825 8.93419 20.7836C8.7839 21.2345 8.7839 21.8357 8.93419 22.2866C8.93419 22.8878 9.38508 23.4889 9.98625 23.6392C10.4371 23.7895 10.7377 24.09 10.7377 24.541C10.888 25.1421 11.1886 25.7433 11.6395 26.1942C12.0904 26.645 12.3909 27.2462 12.6915 27.8474C12.9921 28.5989 13.443 29.0498 14.1945 29.3503C14.9459 29.651 15.5471 29.9515 16.2986 30.2521C16.3777 30.5527 16.1483 30.5527 16.1483 30.5527Z" fill="#00DACC"/>
</g>
</g>
<defs>
<clipPath id="clip0_2736_274267">
<rect width="42" height="42" fill="white"/>
</clipPath>
</defs>
</svg>
