<svg xmlns="http://www.w3.org/2000/svg" width="42" height="42" fill="none"><circle cx="21" cy="21" r="20" fill="#00DACC"/><path fill="#F3F3F3" d="M16.146 30.55c.15-.45.451-.901.601-1.502 0-.15 0-.451-.15-.601-.902-1.203-1.202-2.555-.902-3.908 0-.15 0-.3.15-.3 0-.15.151-.15.151-.301 1.052 1.052 1.353 2.405 1.503 3.757.3-.601.751-1.202 1.052-1.954 0-.15-.15-.3-.15-.45-.902-1.353-1.052-2.856-.451-4.51 1.052 1.053 1.352 2.405 1.352 3.758.451-.601.752-1.202 1.203-1.653 0-.15 0-.3-.15-.451-.451-1.353-.451-2.705.3-4.058.15-.15.15-.3.3-.45.752 1.201.602 2.404.452 3.606h.15c.3-.45.601-.751.751-1.202.602-1.653 1.503-2.856 3.156-3.607.301-.15.451-.15.752-.3 0 .3 0 .45-.15.75-.451 1.504-1.503 2.706-3.006 3.457a2.95 2.95 0 0 0-1.353 1.353c1.203-.601 2.405-.902 3.908-.45-.3.3-.451.45-.752.6-1.052.752-2.254 1.052-3.456.902-.451 0-.602 0-.752.3-.3.452-.601 1.053-.902 1.654 1.353-.601 2.706-.902 4.209-.15-.451.3-.752.6-1.052.751-1.053.45-2.105.601-3.307.3-.3-.15-.45 0-.601.301-.3.601-.601 1.203-1.052 1.954 1.352-.601 2.705-1.052 4.208-.45l.15.15c-.15.15-.3.15-.6.3-1.203.752-2.406 1.052-3.758.902-.3-.15-.601 0-.601.3-.451 1.203-.902 2.405-1.353 3.457-.15.451-.45.902-.752 1.353-.15.3-.45.45-.75.3-4.059-2.104-6.914-5.26-7.966-9.618-2.105-7.966 2.254-15.931 10.07-18.186 9.017-2.705 17.884 3.307 19.237 12.024 1.052 7.063-3.006 13.826-9.62 16.231-.45.15-.75.3-1.051 0-.3-.45-.3-.751-.15-1.202.6-1.503 1.052-3.006 1.503-4.509.3-.902.6-1.202 1.502-1.202.902-.15 1.804-.15 2.706-.3.751-.151 1.052-.452 1.052-1.203v-.601c-.15-.3 0-.601.3-.902.3-.3.3-.451 0-.752-.15-.15-.15-.45 0-.45.3-.301.3-.602 0-.902-.3-.3-.15-.601.15-.752.301-.15.452-.3.602-.6.45-.301.3-.602 0-.903-.601-.6-1.353-1.052-1.954-1.653-.45-.3-.601-.902-.45-1.353.15-.901 0-1.653-.452-2.404-.45-.601-.751-1.353-1.052-1.954-.45-1.052-1.202-1.803-2.254-2.104-1.052-.3-2.104-.45-3.307-.601-.751-.15-1.503-.15-2.254-.3-1.954-.301-3.757.15-5.26 1.502-.451.3-.902.752-1.503.902-.451.15-.752.601-1.052.902-.15.45-.451.751-.902.901-.752.602-1.503 1.052-2.104 1.804-.15.3-.601.45-.752.601-.901.601-1.052 1.202-.751 2.104.15.601.3 1.202.15 1.804-.15.45-.15 1.052 0 1.503 0 .6.451 1.202 1.052 1.352.451.15.752.451.752.902.15.601.45 1.202.901 1.653.451.451.752 1.052 1.053 1.653.3.752.751 1.203 1.503 1.503.751.301 1.352.602 2.104.902-.451.15-.301.15-.15.3Z"/></svg>