<svg xmlns="http://www.w3.org/2000/svg" width="42" height="42" fill="none"><path fill="#F3F3F3" d="M0 21C0 9.402 9.402 0 21 0s21 9.402 21 21-9.402 21-21 21S0 32.598 0 21Z"/><path fill="#F5DA51" fill-rule="evenodd" d="M26.86 15.14V9.67H15.14v5.47H9.67v11.72h5.47v5.47h11.72v-5.47h5.47V15.14h-5.47Z" clip-rule="evenodd"/><path fill="#7441FC" d="M15.139 4.2H26.86v2.735H15.139zM37.8 15.14v11.72h-2.735V15.14zM4.2 26.86V15.14h2.734v11.72zM26.86 37.8H15.14v-2.735h11.72zM26.86 6.935h2.735V9.67H26.86zM15.14 35.065h-2.736V32.33h2.735z"/><path fill="#A492F9" d="M15.139 6.935H26.86V9.67H15.139zM35.065 15.14v11.72H32.33V15.14zM6.934 26.86V15.139H9.67V26.86zM26.86 35.065H15.14V32.33h11.72z"/><path fill="#7441FC" d="M12.404 6.935h2.735V9.67h-2.735zM29.595 35.065H26.86V32.33h2.735zM29.595 9.67h2.735v2.735h-2.735zM12.405 32.33H9.67v-2.735h2.735zM9.67 29.595H6.935V26.86H9.67zM9.67 15.14H6.935v-2.736H9.67zM32.33 26.86h2.735v2.735H32.33zM32.33 12.405h2.735v2.735H32.33z"/><path fill="#7441FC" d="M9.669 9.67h2.735v2.735H9.669zM32.33 32.33h-2.735v-2.735h2.735z"/><path fill="#A492F9" d="M12.404 9.67h2.735v2.735h-2.735zM29.595 32.33H26.86v-2.735h2.735zM26.86 9.67h2.735v2.735H26.86zM15.14 32.33h-2.736v-2.735h2.735zM12.405 29.595H9.67V26.86h2.735z"/><path fill="#A492F9" d="M12.405 15.14H9.67v-2.736h2.735zM29.595 26.86h2.735v2.735h-2.735zM29.595 12.405h2.735v2.735h-2.735z"/><path fill="#7441FC" d="M12.404 12.405h2.735v17.191h-2.735zM15.139 15.139h2.833v2.735h-2.833zM24.028 15.139h2.833v2.735h-2.833z"/><path fill="#7441FC" d="M17.874 17.777h6.251v2.833h-6.251zM26.86 12.405h2.735v17.191H26.86z"/></svg>