<svg width="42" height="42" viewBox="0 0 42 42" fill="none" xmlns="http://www.w3.org/2000/svg">
<g clip-path="url(#clip0_26_36078)">
<circle cx="21" cy="21" r="21" fill="#FB555E"/>
<path fill-rule="evenodd" clip-rule="evenodd" d="M11.9565 30.326V25.8043H8V22.9782H11.9565V19.5869H8V16.7608H11.9565V11.6738H14.2174L16.4783 16.7608H24.9565L27.7826 11.6738H30.0435V16.7608H34V19.5869H30.0435V22.9782H34V25.8043H30.0435V30.326H27.7826V25.8043H23.8261L21.9043 30.326H19.8696L18.1739 25.8043H14.2174V30.326H11.9565ZM14.2174 22.9782V19.5869H14.7826L16.4783 22.9782H14.2174ZM19.8696 22.9782L18.1739 19.5869H23.8261L22.1304 22.9782H19.8696ZM26.6522 19.5869L24.9565 22.9782H27.2174V19.5869H26.6522Z" fill="#F3F3F3"/>
</g>
<defs>
<clipPath id="clip0_26_36078">
<rect width="42" height="42" fill="white"/>
</clipPath>
</defs>
</svg>
