<svg width="42" height="42" viewBox="0 0 42 42" fill="none" xmlns="http://www.w3.org/2000/svg">
<circle cx="21" cy="21" r="20" fill="#FF6B6B"/>
<path d="M29.7616 25.0382C29.4189 26.6705 29.4515 28.1394 29.7127 29.6084C29.729 29.69 29.7616 29.7716 29.7779 29.8369C29.8759 30.3919 29.9412 31.159 30.5451 31.2406C31.2143 31.3386 31.3285 30.5388 31.557 30.0491C31.7856 29.5758 31.9651 29.5431 32.2589 30.0002C32.9118 31.0121 32.9444 32.122 32.3405 32.7096C31.7366 33.2972 30.6593 33.1666 29.68 32.3832C28.1947 31.1917 27.346 29.5595 26.4972 27.9109C26.1544 27.258 25.8933 26.5725 25.5995 25.9033C25.3873 25.4137 25.1262 25.3647 24.7834 25.8054C24.0163 26.7847 23.2165 27.7477 22.4657 28.7434C21.8128 29.6084 21.8291 30.5877 22.2372 31.5344C22.5962 32.3995 23.0369 33.2482 23.6735 33.9664C23.7877 34.0807 23.9346 34.1949 23.8694 34.3745C23.7877 34.603 23.5756 34.5703 23.3797 34.5866C22.7758 34.6683 22.1882 34.5377 21.6332 34.3255C21.4537 34.2602 21.2252 34.0317 21.0456 34.2439C20.8824 34.4397 21.1109 34.6519 21.1925 34.8315C21.4537 35.4517 21.9107 35.9087 22.4493 36.3005C22.5799 36.3984 22.7921 36.4474 22.7595 36.6432C22.7268 36.8881 22.4983 36.8881 22.3188 36.9044C19.4298 37.3288 16.704 37.2471 14.7943 34.554C14.778 34.5214 14.6964 34.5214 14.5984 34.505C14.3046 35.1579 14.5168 35.8761 14.4189 36.6106C13.9129 36.4637 13.7334 36.0556 13.5212 35.7129C11.4646 32.3832 10.0609 28.8903 10.7464 24.8587C10.8933 23.961 10.6975 23.0633 10.3057 22.2309C9.57124 20.6639 9.57124 19.146 10.4526 17.628C10.8117 17.0241 10.7954 16.4202 10.2731 15.9142C9.93033 15.5878 9.89768 15.1797 9.99561 14.788C10.9586 11.0992 12.7377 7.90009 16.1653 5.99041C20.8335 3.3952 26.3177 5.45178 28.2437 10.4137C28.6354 11.4093 29.0924 12.3397 29.9085 13.0742C30.5614 13.6781 30.7736 14.4942 30.8389 15.3593C30.8715 15.8 30.8715 16.2243 30.8715 16.665C30.8878 18.0034 31.2143 19.2439 32.1446 20.2559C32.2915 20.4028 32.52 20.566 32.3895 20.7945C32.2589 21.0393 31.9814 20.9741 31.8019 20.8761C31.0021 20.4844 30.8389 20.9088 30.7736 21.5943C30.643 23.0306 31.0674 24.3201 31.6223 25.6095C31.7203 25.838 32.0467 26.0992 31.7856 26.3277C31.5407 26.5562 31.2143 26.3114 30.9531 26.1808C30.4798 25.9523 30.2023 25.5279 29.7616 25.0382ZM16.1001 10.1689C16.5408 10.1689 16.8672 10.1525 17.1936 10.1689C17.4385 10.1852 17.8139 10.0546 17.8465 10.43C17.8792 10.7075 17.5038 10.7238 17.2916 10.8054C16.606 11.0339 15.9042 11.0013 15.186 11.0339C14.9412 11.0502 14.6474 11.0666 14.6311 11.393C14.6148 11.7521 14.9086 11.7358 15.1534 11.7358C15.5288 11.7358 15.9205 11.7195 16.2959 11.7031C17.3242 11.6378 18.3525 11.5726 19.3808 11.5073C19.544 11.4909 19.7562 11.5073 19.8052 11.6705C19.8705 11.8827 19.6746 12.0132 19.495 12.0785C19.2992 12.1601 19.087 12.1928 18.8748 12.2581C17.7812 12.5356 16.6713 12.5029 15.5451 12.5356C14.5821 12.5519 14.3699 12.7477 14.272 13.7271C14.2393 14.0535 14.1904 14.3799 14.2393 14.7064C14.4679 16.1264 14.0761 17.4485 13.5701 18.7543C13.3253 19.3582 13.0642 19.9621 13.1458 20.6476C13.1947 21.0883 13.358 21.48 13.8639 21.48C14.7127 21.4964 15.5451 21.4637 16.3939 21.4311C16.655 21.4148 16.8672 21.3005 16.9162 21.0067C16.9488 20.7619 16.7856 20.5986 16.5897 20.4844C16.4755 20.4191 16.3286 20.4028 16.2143 20.3375C15.9532 20.2232 15.5125 20.2069 15.6267 19.7989C15.7247 19.4724 16.1164 19.5214 16.4102 19.5377C17.7159 19.6356 18.6626 20.3212 19.2176 21.4637C19.9031 22.8348 20.0826 24.369 20.4744 25.838C20.8008 27.0622 21.0946 27.1928 22.0576 26.344C22.3841 26.0665 22.6942 25.7401 22.9553 25.3973C24.0815 23.961 24.7018 22.2961 25.2078 20.566C25.4689 19.6846 25.322 18.9828 24.7181 18.3136C24.4243 18.0034 24.0815 17.6933 24.0979 17.2037C24.1468 15.4735 24.3753 13.825 26.1055 12.862C26.3503 12.7314 26.6441 12.5682 26.6278 12.1928C26.5625 10.43 26.0239 8.37343 24.0979 7.39411C22.0903 6.38214 19.9684 6.33317 17.8302 6.85548C16.8672 7.08399 16.0021 7.52468 15.284 8.22653C15.1534 8.35711 14.9902 8.52033 15.0555 8.71619C15.1207 8.9447 15.3656 8.87941 15.5451 8.87941C15.6594 8.87941 15.7573 8.86309 15.8716 8.86309C16.0348 8.86309 16.2306 8.87941 16.2633 9.07528C16.3122 9.32011 16.149 9.41804 15.9368 9.45069C15.5941 9.51597 15.235 9.56494 14.8922 9.63023C14.729 9.66287 14.5658 9.72816 14.5821 9.94035C14.5984 10.1525 14.7617 10.2015 14.9412 10.2015C15.3982 10.2178 15.8063 10.1852 16.1001 10.1689ZM15.8552 23.2591C15.3003 23.3408 14.778 23.3734 14.272 23.4713C13.1621 23.6835 12.7377 24.3364 12.9662 25.4789C13.0315 25.7727 13.0642 26.1155 13.4232 26.1808C13.7987 26.2461 13.8966 25.887 14.0435 25.6422C14.778 24.2874 15.2676 24.2711 16.0837 25.6258C16.3775 26.0992 16.7203 26.4419 17.3079 26.393C17.9118 26.344 18.4341 26.1808 18.5484 25.4626C18.6626 24.6955 18.1077 23.6672 17.4221 23.504C16.8998 23.3571 16.3449 23.3244 15.8552 23.2591Z" fill="#100C0C"/>
<path d="M17.9443 13.9072C19.0379 13.9562 20.0661 14.2337 20.9475 14.9192C21.176 15.0987 21.3556 15.3436 21.5188 15.5884C21.6167 15.7353 21.6657 15.9475 21.5351 16.127C21.4046 16.3066 21.2087 16.3066 21.0291 16.2413C19.8376 15.7843 18.5972 15.8006 17.3567 15.7353C16.7364 15.7027 16.1652 15.5231 16.1815 14.8049C16.1978 14.1031 16.8181 14.0215 17.3567 13.9399C17.5362 13.9072 17.7321 13.9235 17.9443 13.9072Z" fill="#1A0F10"/>
<path d="M16.7529 17.0718C17.6017 16.321 18.9238 16.2557 19.6909 16.876C19.8215 16.9739 20.001 17.0718 19.9357 17.2514C19.8704 17.4309 19.6746 17.4146 19.5114 17.4309C18.5973 17.4472 17.6833 17.4962 16.7529 17.0718Z" fill="#1A0F10"/>
</svg>
