<svg width="42" height="42" viewBox="0 0 42 42" fill="none" xmlns="http://www.w3.org/2000/svg">
<circle cx="21" cy="21" r="21" fill="#22B1AB"/>
<path d="M27.5907 10.2479C28.476 10.2479 29.1953 9.51895 29.1953 8.62337C29.1953 7.7278 28.476 7 27.5907 7C26.7054 7.00463 25.9861 7.73243 25.9861 8.628C25.9861 9.52358 26.7054 10.2479 27.5907 10.2479ZM28.0641 14.4689C28.4272 14.4662 28.7743 14.3197 29.0291 14.0617C29.2839 13.8037 29.4255 13.4554 29.4227 13.0933C29.4227 12.3365 28.8147 11.7175 28.0641 11.7175C27.3134 11.7175 26.7054 12.3319 26.7054 13.0933C26.7054 13.8546 27.3122 14.4689 28.0641 14.4689ZM31.7942 15.0069C32.5414 15.0069 33.1494 14.3925 33.1494 13.6347C33.1494 12.8768 32.5414 12.2624 31.7942 12.2624C31.047 12.2624 30.4391 12.8768 30.4391 13.6347C30.4391 14.3925 31.0482 15.0069 31.7942 15.0069ZM31.3464 18.6182C31.9868 18.6182 32.5054 18.0929 32.5054 17.4461C32.5054 16.7992 31.9868 16.2739 31.3464 16.2739C30.7059 16.2739 30.1873 16.7992 30.1873 17.4461C30.1873 18.0929 30.7059 18.6182 31.3464 18.6182ZM34.3328 19.7891C34.9779 19.7891 35.5 19.2603 35.5 18.6089C35.5 17.9575 34.9779 17.4287 34.3328 17.4287C34.1785 17.4298 34.0258 17.4611 33.8836 17.521C33.7415 17.5809 33.6125 17.6681 33.5041 17.7777C33.3957 17.8873 33.31 18.0171 33.252 18.1597C33.1939 18.3024 33.1645 18.455 33.1656 18.6089C33.1656 19.2603 33.6889 19.7891 34.3328 19.7891ZM27.593 18.1299C27.75 18.129 27.9052 18.0972 28.0498 18.0365C28.1945 17.9758 28.3257 17.8872 28.436 17.7759C28.5463 17.6646 28.6336 17.5327 28.6928 17.3878C28.752 17.2428 28.782 17.0877 28.7811 16.9312V16.9288C28.7811 16.2658 28.2509 15.7278 27.593 15.7278C26.9352 15.7278 26.4049 16.2647 26.4049 16.9288C26.4049 17.5884 26.9363 18.1299 27.593 18.1299ZM26.5163 21.0029C27.0674 21.0029 27.5118 20.5516 27.5118 19.9974C27.514 19.7329 27.4107 19.4784 27.2247 19.2898C27.0387 19.1012 26.7852 18.9941 26.5199 18.9919H26.5163C25.9652 18.9919 25.5208 19.4432 25.5208 19.9974C25.5208 20.5516 25.9652 21.0029 26.5163 21.0029ZM30.2523 21.5108C30.3828 21.51 30.5119 21.4834 30.6322 21.4328C30.7525 21.3821 30.8616 21.3083 30.9533 21.2156C31.045 21.1229 31.1174 21.0131 31.1666 20.8925C31.2157 20.7718 31.2405 20.6427 31.2396 20.5125V20.5101C31.2396 19.957 30.7987 19.5092 30.2523 19.5092C29.7058 19.5092 29.2649 19.957 29.2649 20.5101C29.2632 20.6398 29.2872 20.7686 29.3354 20.8892C29.3836 21.0097 29.4552 21.1195 29.546 21.2124C29.6368 21.3054 29.7451 21.3796 29.8646 21.4308C29.9842 21.482 30.1127 21.5092 30.2428 21.5108H30.2523ZM33.2306 22.6772C33.7817 22.6772 34.2261 22.2259 34.2261 21.6682C34.2261 21.1105 33.7817 20.6592 33.2306 20.6592C32.6795 20.6592 32.2351 21.1105 32.2351 21.6682C32.2323 21.933 32.3351 22.1881 32.5209 22.3773C32.7067 22.5665 32.9603 22.6744 33.2258 22.6772H33.2306ZM31.7594 24.8571C32.2247 24.8571 32.6006 24.4741 32.6006 24.0067C32.6006 23.5392 32.2247 23.1562 31.7594 23.1562C31.2942 23.1562 30.9182 23.5392 30.9182 24.0067C30.9182 24.4741 31.2942 24.8571 31.7594 24.8571ZM28.7672 23.7093C29.2405 23.7093 29.6281 23.3182 29.6281 22.838C29.6281 22.3578 29.244 21.9667 28.7672 21.9667C28.2903 21.9667 27.9063 22.3578 27.9063 22.838C27.9063 23.3182 28.2938 23.7093 28.7672 23.7093ZM25.0359 23.177C25.263 23.1735 25.4796 23.0811 25.639 22.9197C25.7984 22.7583 25.8878 22.5409 25.8879 22.3144C25.8881 22.0879 25.799 21.8704 25.6398 21.7088C25.4806 21.5473 25.2641 21.4545 25.037 21.4507H25.0359C24.8088 21.4542 24.5922 21.5467 24.4328 21.708C24.2734 21.8694 24.184 22.0868 24.1838 22.3133C24.1836 22.5398 24.2728 22.7573 24.4319 22.9189C24.5911 23.0805 24.8076 23.1732 25.0347 23.177H25.0359ZM27.1104 25.2251C27.5222 25.2251 27.8529 24.8872 27.8529 24.4764C27.8548 24.2797 27.7782 24.0904 27.6401 23.95C27.5019 23.8096 27.3135 23.7297 27.1163 23.7278H27.1104C26.6985 23.7278 26.3678 24.0657 26.3678 24.4764C26.3656 24.6728 26.4418 24.862 26.5795 25.0024C26.7172 25.1428 26.9052 25.2229 27.1021 25.2251H27.1104ZM30.1014 26.3925C30.5133 26.3925 30.8521 26.0547 30.8521 25.6358C30.8521 25.217 30.518 24.8791 30.1014 24.8791C29.9002 24.8791 29.7072 24.9588 29.5649 25.1007C29.4226 25.2426 29.3426 25.4351 29.3426 25.6358C29.3426 25.8365 29.4226 26.029 29.5649 26.1709C29.7072 26.3128 29.9002 26.3925 30.1014 26.3925ZM28.4168 27.2684C28.7428 27.2684 29.0085 27 29.0085 26.6702C29.0094 26.5127 28.9476 26.3612 28.8367 26.2491C28.7258 26.1369 28.5747 26.0733 28.4168 26.072C28.0908 26.072 27.8251 26.3405 27.8251 26.6702C27.8247 26.8276 27.8867 26.9787 27.9975 27.0907C28.1083 27.2027 28.259 27.2666 28.4168 27.2684ZM26.8203 27.7382C26.891 27.7378 26.9609 27.7235 27.026 27.6961C27.0912 27.6687 27.1502 27.6288 27.1999 27.5786C27.2496 27.5285 27.2889 27.4691 27.3155 27.4038C27.3421 27.3385 27.3556 27.2686 27.3552 27.1981V27.1967C27.3552 26.8959 27.1138 26.6552 26.8203 26.6552C26.7496 26.6556 26.6797 26.67 26.6146 26.6973C26.5495 26.7247 26.4904 26.7646 26.4407 26.8148C26.391 26.8649 26.3518 26.9244 26.3251 26.9896C26.2985 27.0549 26.285 27.1248 26.2854 27.1953V27.1967C26.283 27.3378 26.3368 27.4742 26.4352 27.5757C26.5335 27.6772 26.6682 27.7356 26.8097 27.7381L26.8203 27.7382ZM25.4222 26.1808C25.7738 26.1808 26.0592 25.8915 26.0592 25.5375C26.0592 25.1834 25.7738 24.8941 25.4222 24.8941C25.0707 24.8941 24.7853 25.1834 24.7853 25.5375C24.7849 25.7068 24.8517 25.8694 24.9709 25.9899C25.0902 26.1104 25.2524 26.179 25.4222 26.1808ZM23.3709 24.7055C23.7793 24.7055 24.1135 24.3723 24.1135 23.9569C24.1135 23.5415 23.7828 23.2083 23.3709 23.2083C22.9625 23.2083 22.6284 23.5415 22.6284 23.9569C22.6281 24.1541 22.7059 24.3435 22.845 24.4837C22.9841 24.624 23.1732 24.7037 23.3709 24.7055ZM29.454 34.0848C30.3358 34.0848 31.0505 33.3604 31.0505 32.4683C31.0505 31.5762 30.3358 30.8519 29.454 30.8519C28.5723 30.8519 27.8576 31.5762 27.8576 32.4683C27.8576 33.3604 28.5723 34.0848 29.454 34.0848ZM25.399 32.0391C26.1334 32.0391 26.7298 31.4362 26.7298 30.6922C26.7298 29.9482 26.1334 29.3454 25.399 29.3454C24.6646 29.3454 24.0682 29.9482 24.0682 30.6922C24.0682 31.4362 24.6634 32.0391 25.399 32.0391ZM23.082 35C23.8246 35 24.4244 34.3937 24.4244 33.6404C24.4244 32.8918 23.8246 32.2809 23.082 32.2809C22.3395 32.2809 21.7396 32.8872 21.7396 33.6404C21.7369 33.9982 21.8767 34.3425 22.1284 34.5975C22.3802 34.8524 22.7231 34.9972 23.0819 35H23.082ZM22.3847 29.5444C22.5386 29.5433 22.6908 29.5121 22.8326 29.4524C22.9743 29.3926 23.1029 29.3057 23.211 29.1964C23.319 29.0871 23.4045 28.9577 23.4624 28.8155C23.5203 28.6733 23.5495 28.5211 23.5485 28.3677C23.5495 28.2142 23.5203 28.062 23.4624 27.9198C23.4045 27.7776 23.319 27.6482 23.211 27.5389C23.1029 27.4297 22.9743 27.3427 22.8326 27.283C22.6908 27.2233 22.5386 27.192 22.3847 27.1909C22.2308 27.192 22.0787 27.2233 21.9369 27.283C21.7951 27.3427 21.6666 27.4297 21.5585 27.5389C21.4504 27.6482 21.365 27.7776 21.3071 27.9198C21.2492 28.062 21.22 28.2142 21.221 28.3677C21.2222 29.0156 21.7443 29.5444 22.3847 29.5444ZM20.0736 32.5459C20.714 32.5459 21.2326 32.0205 21.2326 31.3737C21.2326 30.7269 20.714 30.2016 20.0736 30.2016C19.4331 30.2016 18.9145 30.7269 18.9145 31.3737C18.9114 31.6815 19.0311 31.9779 19.2471 32.1977C19.4631 32.4175 19.7579 32.5427 20.0665 32.5459H20.0736ZM17.5825 34.5823C18.223 34.5823 18.7381 34.057 18.7381 33.4137C18.7381 32.7669 18.2195 32.245 17.5825 32.245C16.9421 32.245 16.4269 32.7703 16.4269 33.4137C16.4269 34.057 16.9456 34.5823 17.5825 34.5823ZM15.5092 31.9314C15.7725 31.929 16.0242 31.8228 16.2092 31.6359C16.3942 31.449 16.4975 31.1967 16.4966 30.934C16.4966 30.3844 16.0557 29.9367 15.5092 29.9367C15.2466 29.9406 14.9961 30.0475 14.8118 30.2341C14.6275 30.4207 14.5242 30.6721 14.5242 30.934C14.5242 31.196 14.6275 31.4474 14.8118 31.634C14.9961 31.8206 15.2466 31.9275 15.5092 31.9314ZM18.0049 29.8857C18.2684 29.8839 18.5204 29.7778 18.7055 29.5908C18.8906 29.4038 18.9938 29.1511 18.9922 28.8883C18.9922 28.3353 18.5513 27.8909 18.0049 27.8909C17.7422 27.8945 17.4915 28.0008 17.3069 28.1871C17.1222 28.3734 17.0185 28.6247 17.018 28.8866C17.0176 29.1486 17.1204 29.4002 17.3044 29.5871C17.4884 29.7741 17.7388 29.8813 18.0014 29.8857H18.0049ZM20.3334 26.8855C20.464 26.8846 20.5931 26.858 20.7134 26.8074C20.8337 26.7567 20.9428 26.6829 21.0345 26.5902C21.1261 26.4975 21.1986 26.3877 21.2478 26.2671C21.2969 26.1464 21.3217 26.0173 21.3208 25.8871V25.8847C21.3208 25.3316 20.8799 24.8838 20.3334 24.8838C20.2029 24.8847 20.0738 24.9113 19.9535 24.9619C19.8332 25.0126 19.7241 25.0863 19.6324 25.1791C19.5408 25.2718 19.4683 25.3816 19.4191 25.5022C19.37 25.6228 19.3452 25.7519 19.3461 25.8822V25.8846C19.3461 26.4377 19.787 26.8855 20.3334 26.8855ZM16.7715 27.2985C17.2449 27.2985 17.6289 26.9121 17.6289 26.4319C17.6289 25.9517 17.2449 25.5652 16.7715 25.5652C16.2982 25.5652 15.9141 25.9517 15.9141 26.4319C15.9141 26.9121 16.2982 27.2985 16.7715 27.2985ZM14.2886 29.3361C14.4008 29.3355 14.5117 29.3129 14.6151 29.2695C14.7184 29.2262 14.8122 29.1629 14.8911 29.0834C14.97 29.0039 15.0324 28.9097 15.0747 28.8061C15.1171 28.7026 15.1385 28.5917 15.1379 28.4799V28.4776C15.1401 28.252 15.0523 28.0349 14.894 27.8739C14.7356 27.7129 14.5195 27.6212 14.2934 27.619H14.2886C14.1765 27.6196 14.0656 27.6423 13.9622 27.6856C13.8588 27.729 13.765 27.7922 13.6862 27.8717C13.6073 27.9512 13.5449 28.0455 13.5026 28.149C13.4602 28.2526 13.4387 28.3634 13.4393 28.4753V28.4776C13.4386 28.5896 13.4599 28.7006 13.5022 28.8044C13.5445 28.9081 13.6068 29.0026 13.6857 29.0823C13.7646 29.162 13.8584 29.2255 13.9618 29.269C14.0653 29.3126 14.1763 29.3354 14.2886 29.3361ZM13.7178 26.9479C13.9135 26.9464 14.1007 26.8676 14.2383 26.7289C14.3759 26.5901 14.4529 26.4026 14.4522 26.2074C14.4522 25.7966 14.1216 25.4669 13.7178 25.4669C13.314 25.4669 12.9834 25.8001 12.9834 26.2074C12.9834 26.6182 13.314 26.9479 13.7178 26.9479ZM13.6969 24.8525C13.7803 24.8517 13.8626 24.8346 13.9394 24.8021C14.0161 24.7696 14.0856 24.7223 14.144 24.663C14.2024 24.6037 14.2485 24.5335 14.2797 24.4564C14.3109 24.3793 14.3265 24.2969 14.3258 24.2138C14.3258 23.8632 14.0438 23.5751 13.6969 23.5751C13.35 23.5751 13.0681 23.8597 13.0681 24.2138C13.0681 24.5678 13.35 24.8525 13.6969 24.8525ZM14.0427 23.1099C14.3408 23.1099 14.5775 22.8658 14.5775 22.5684C14.5775 22.271 14.3362 22.0269 14.0427 22.0269C13.7445 22.0269 13.5078 22.271 13.5078 22.5684C13.5078 22.8658 13.7445 23.1099 14.0427 23.1099ZM16.1833 22.8183C16.5348 22.8183 16.8203 22.5291 16.8203 22.175C16.8203 21.8209 16.5348 21.5317 16.1833 21.5317C15.8317 21.5317 15.5463 21.8209 15.5463 22.175C15.5457 22.3444 15.6124 22.5072 15.7317 22.6277C15.8511 22.7483 16.0134 22.8168 16.1833 22.8183ZM18.5328 21.9054C18.9412 21.9054 19.2753 21.5675 19.2753 21.1568C19.2772 20.9601 19.2006 20.7707 19.0625 20.6303C18.9243 20.4899 18.7359 20.41 18.5387 20.4082H18.5328C18.1244 20.4082 17.7902 20.746 17.7902 21.1568C17.7895 21.2543 17.808 21.3511 17.8447 21.4415C17.8814 21.5319 17.9356 21.6142 18.0043 21.6838C18.0729 21.7533 18.1546 21.8086 18.2447 21.8467C18.3348 21.8847 18.4315 21.9047 18.5293 21.9054H18.5328ZM19.092 24.282C19.3154 24.2816 19.5295 24.1927 19.6873 24.0349C19.845 23.8771 19.9335 23.6633 19.9333 23.4404C19.9331 23.2176 19.8441 23.004 19.6861 22.8465C19.528 22.689 19.3137 22.6006 19.0903 22.6006C18.8668 22.6006 18.6525 22.689 18.4945 22.8465C18.3364 23.004 18.2475 23.2176 18.2472 23.4404C18.247 23.6633 18.3355 23.8771 18.4932 24.0349C18.651 24.1927 18.8651 24.2816 19.0885 24.282H19.092ZM16.2135 24.915C16.6219 24.915 16.9479 24.5817 16.9479 24.1698C16.9479 23.7579 16.6172 23.4246 16.2135 23.4246C16.1164 23.4252 16.0204 23.4449 15.931 23.4825C15.8416 23.5201 15.7604 23.5749 15.6922 23.6437C15.624 23.7126 15.5701 23.7942 15.5335 23.8838C15.4969 23.9735 15.4784 24.0694 15.479 24.1662V24.1698C15.4777 24.2663 15.4953 24.3621 15.5311 24.4517C15.5668 24.5414 15.6199 24.6231 15.6873 24.6923C15.7548 24.7615 15.8352 24.8167 15.924 24.8549C16.0129 24.8931 16.1084 24.9135 16.2051 24.9148H16.2135V24.915ZM8.09184 23.81C8.96897 23.81 9.68368 23.0891 9.68368 22.2016C9.68368 21.3141 8.96897 20.5933 8.09184 20.5933C7.2147 20.5933 6.5 21.3153 6.5 22.2028C6.5 23.0903 7.2147 23.81 8.09184 23.81ZM11.7048 20.9381C12.4601 20.9381 13.0681 20.3191 13.0681 19.5577C13.0681 18.7964 12.4555 18.1773 11.7048 18.1773C11.3408 18.1798 10.9927 18.3263 10.737 18.5847C10.4813 18.8432 10.3391 19.1923 10.3415 19.5553V19.5577C10.3415 20.3237 10.9541 20.9381 11.7048 20.9381ZM10.2951 17.3975C11.0458 17.3975 11.6503 16.783 11.6503 16.0252C11.6503 15.2673 11.0423 14.6529 10.2951 14.6529C10.1159 14.6541 9.93876 14.6905 9.77368 14.7599C9.60861 14.8294 9.45888 14.9307 9.33304 15.0579C9.2072 15.1851 9.10771 15.3358 9.04027 15.5013C8.97283 15.6669 8.93875 15.844 8.93997 16.0227V16.0252C8.93629 16.3854 9.07624 16.7324 9.32905 16.9897C9.58186 17.2471 9.92681 17.3937 10.288 17.3975H10.2951ZM13.7781 15.7197C14.4186 15.7197 14.9418 15.1944 14.9418 14.543C14.9418 13.8915 14.4197 13.3662 13.7781 13.3662C13.1365 13.3662 12.6144 13.8915 12.6144 14.543C12.6144 15.1944 13.1377 15.7197 13.7781 15.7197ZM15.2017 19.2522C15.8468 19.2522 16.3689 18.7235 16.3689 18.072C16.3689 17.4206 15.8468 16.8918 15.2017 16.8918C14.5567 16.8918 14.0345 17.4206 14.0345 18.072C14.0345 18.7235 14.5567 19.2522 15.2017 19.2522ZM18.3715 18.5187C18.6367 18.5165 18.8902 18.4094 19.0762 18.2208C19.2623 18.0323 19.3656 17.7778 19.3635 17.5133C19.3655 17.3834 19.3418 17.2543 19.2938 17.1335C19.2458 17.0127 19.1744 16.9026 19.0837 16.8093C18.993 16.716 18.8847 16.6415 18.7652 16.5899C18.6456 16.5384 18.517 16.5108 18.3867 16.5088C18.2564 16.5068 18.127 16.5305 18.0059 16.5783C17.8848 16.6262 17.7743 16.6974 17.6808 16.7879C17.5873 16.8783 17.5125 16.9863 17.4608 17.1055C17.4091 17.2248 17.3815 17.353 17.3795 17.483C17.3795 17.4931 17.3795 17.5032 17.3795 17.5133C17.3764 17.7769 17.4785 18.0309 17.6632 18.2194C17.8479 18.408 18.1001 18.5157 18.3644 18.5188L18.3715 18.5187ZM21.1096 18.5279C21.583 18.5279 21.9671 18.1415 21.9671 17.6647C21.9671 17.188 21.583 16.8016 21.1096 16.8016C20.8801 16.8016 20.6599 16.8925 20.4976 17.0544C20.3353 17.2163 20.2441 17.4358 20.2441 17.6647C20.2441 17.8937 20.3353 18.1132 20.4976 18.2751C20.6599 18.437 20.8801 18.5279 21.1096 18.5279ZM23.3721 19.0474C23.7677 19.0474 24.0949 18.7223 24.0949 18.3185C24.0949 17.9147 23.7724 17.5895 23.3721 17.5895C23.1794 17.591 22.9952 17.6686 22.8598 17.8052C22.7243 17.9418 22.6486 18.1264 22.6493 18.3185C22.6539 18.7177 22.9753 19.0474 23.3721 19.0474ZM23.6668 16.3885C23.8346 16.3873 23.9951 16.3197 24.113 16.2006C24.2309 16.0815 24.2966 15.9206 24.2956 15.7533C24.2956 15.4027 24.0137 15.118 23.6668 15.118C23.3199 15.118 23.0379 15.4027 23.0379 15.7533C23.037 15.9206 23.1027 16.0815 23.2206 16.2006C23.3385 16.3197 23.499 16.3873 23.6668 16.3885ZM21.9264 15.5184C22.1185 15.5179 22.3025 15.4414 22.438 15.3057C22.5736 15.1701 22.6496 14.9863 22.6493 14.7948C22.6491 14.6032 22.5726 14.4197 22.4368 14.2843C22.3009 14.149 22.1167 14.073 21.9246 14.073C21.7326 14.073 21.5484 14.149 21.4125 14.2843C21.2767 14.4197 21.2002 14.6032 21.2 14.7948C21.1997 14.9863 21.2757 15.1701 21.4113 15.3057C21.5468 15.4414 21.7308 15.5179 21.9228 15.5184H21.9264ZM19.6907 14.9907C19.9174 14.9889 20.1341 14.8975 20.2933 14.7366C20.4525 14.5756 20.5412 14.3583 20.54 14.1322C20.54 13.6555 20.1606 13.2736 19.6907 13.2736C19.2208 13.2736 18.8414 13.6601 18.8414 14.1322C18.8405 14.244 18.8616 14.355 18.9037 14.4586C18.9458 14.5623 19.0079 14.6567 19.0866 14.7364C19.1652 14.8161 19.2588 14.8796 19.3621 14.9233C19.4654 14.9669 19.5762 14.9898 19.6884 14.9907H19.6907ZM16.9572 14.9942C17.5083 14.9942 17.9527 14.543 17.9527 13.9887C17.9527 13.4345 17.5083 12.9832 16.9572 12.9832C16.4061 12.9832 15.9617 13.4345 15.9617 13.9887C15.9608 14.2535 16.0649 14.5078 16.2515 14.6962C16.438 14.8846 16.6917 14.9918 16.9572 14.9942ZM13.2758 12.4799C13.9 12.4799 14.4023 11.9708 14.4023 11.3402C14.4023 10.7096 13.8965 10.2005 13.2758 10.2005C12.6516 10.2005 12.1492 10.7096 12.1492 11.3402C12.1492 11.9708 12.655 12.4799 13.2758 12.4799ZM16.4443 11.7891C16.9955 11.7891 17.4398 11.3379 17.4398 10.7836C17.4398 10.2294 16.9955 9.77813 16.4443 9.77813C15.8932 9.77813 15.4489 10.2294 15.4489 10.7836C15.4489 11.3379 15.8932 11.7891 16.4443 11.7891ZM19.1813 11.8019C19.6547 11.8019 20.0387 11.4154 20.0387 10.9352C20.0387 10.455 19.6547 10.0686 19.1813 10.0686C19.0681 10.0692 18.9562 10.092 18.8518 10.1358C18.7474 10.1795 18.6527 10.2434 18.5731 10.3236C18.4935 10.4039 18.4305 10.499 18.3878 10.6035C18.345 10.7081 18.3233 10.82 18.3239 10.9329V10.9352C18.323 11.1633 18.4126 11.3826 18.5733 11.545C18.734 11.7074 18.9526 11.7997 19.1813 11.8019ZM21.4275 12.3179C21.8278 12.3179 22.1504 11.9928 22.1504 11.589C22.1504 11.1851 21.8278 10.86 21.4275 10.86C21.2337 10.86 21.0478 10.9368 20.9107 11.0735C20.7736 11.2102 20.6966 11.3956 20.6966 11.589C20.6966 11.7823 20.7736 11.9677 20.9107 12.1044C21.0478 12.2411 21.2337 12.3179 21.4275 12.3179ZM23.1528 13.2112C23.3249 13.2099 23.4895 13.1407 23.6105 13.0185C23.7314 12.8964 23.7988 12.7314 23.7979 12.5597C23.7979 12.1976 23.5078 11.9083 23.1528 11.9083C22.7978 11.9083 22.5077 12.201 22.5077 12.5597C22.5077 12.9184 22.7978 13.2112 23.1528 13.2112ZM24.4186 14.2363C24.4887 14.2359 24.558 14.2217 24.6226 14.1945C24.6872 14.1673 24.7458 14.1277 24.795 14.078C24.8442 14.0282 24.8832 13.9693 24.9096 13.9046C24.936 13.8398 24.9493 13.7705 24.9489 13.7006V13.6995C24.9495 13.6296 24.9363 13.5602 24.91 13.4954C24.8837 13.4306 24.8449 13.3716 24.7958 13.3217C24.7467 13.2719 24.6882 13.2322 24.6237 13.2049C24.5592 13.1775 24.4899 13.1632 24.4198 13.1626H24.4186C24.3485 13.163 24.2792 13.1772 24.2146 13.2044C24.1501 13.2316 24.0915 13.2712 24.0423 13.3209C23.993 13.3707 23.9541 13.4296 23.9277 13.4943C23.9013 13.5591 23.8879 13.6284 23.8884 13.6983V13.6995C23.8873 13.7689 23.9 13.8379 23.9256 13.9024C23.9513 13.967 23.9895 14.0259 24.0379 14.0757C24.0864 14.1256 24.1443 14.1654 24.2082 14.1929C24.2721 14.2205 24.3409 14.2352 24.4105 14.2362H24.4189L24.4186 14.2363Z" fill="#F3F3F3"/>
</svg>
