<svg xmlns="http://www.w3.org/2000/svg" width="42" height="42" fill="none"><circle cx="21" cy="21" r="21" fill="#22B1AB"/><path fill="#F3F3F3" d="M27.59 10.248c.886 0 1.605-.729 1.605-1.625 0-.895-.719-1.623-1.604-1.623a1.622 1.622 0 0 0-1.605 1.628c0 .896.72 1.62 1.605 1.62Zm.474 4.22a1.37 1.37 0 0 0 1.359-1.375 1.37 1.37 0 0 0-1.359-1.376c-.75 0-1.359.615-1.359 1.376 0 .762.607 1.376 1.36 1.376Zm3.73.539c.747 0 1.355-.614 1.355-1.372 0-.758-.608-1.373-1.355-1.373s-1.355.615-1.355 1.373.61 1.372 1.355 1.372Zm-.448 3.611c.64 0 1.16-.525 1.16-1.172 0-.647-.52-1.172-1.16-1.172-.64 0-1.159.525-1.159 1.172 0 .647.519 1.172 1.16 1.172Zm2.987 1.171c.645 0 1.167-.529 1.167-1.18 0-.652-.522-1.18-1.167-1.18a1.179 1.179 0 0 0-1.081.73 1.169 1.169 0 0 0-.086.45c0 .651.523 1.18 1.167 1.18Zm-6.74-1.66a1.198 1.198 0 0 0 1.1-.741c.059-.145.089-.3.088-.457v-.002c0-.663-.53-1.201-1.188-1.201-.658 0-1.188.537-1.188 1.2 0 .66.531 1.202 1.188 1.202Zm-1.077 2.874a1 1 0 0 0 .996-1.006.996.996 0 0 0-.992-1.005h-.004a1 1 0 0 0-.995 1.005 1 1 0 0 0 .995 1.006Zm3.736.508a.996.996 0 0 0 .988-.998v-.003c0-.553-.441-1-.988-1a.993.993 0 0 0-.987 1 .987.987 0 0 0 .978 1h.01Zm2.979 1.166c.55 0 .995-.451.995-1.009a1 1 0 0 0-.995-1.009c-.552 0-.996.451-.996 1.01a.997.997 0 0 0 .99 1.008h.006Zm-1.472 2.18a.847.847 0 0 0 .842-.85.847.847 0 0 0-.842-.85.847.847 0 0 0-.84.85c0 .467.375.85.84.85Zm-2.992-1.148c.474 0 .861-.39.861-.871a.866.866 0 0 0-.86-.871.866.866 0 0 0-.862.871c0 .48.388.871.861.871Zm-3.731-.532a.866.866 0 0 0 .852-.863.862.862 0 0 0-.851-.863h-.001a.867.867 0 0 0-.852.862.862.862 0 0 0 .85.864h.002Zm2.074 2.048a.746.746 0 0 0 .743-.749.74.74 0 0 0-.737-.748h-.006a.746.746 0 0 0-.742.748.74.74 0 0 0 .734.75h.008Zm2.991 1.167a.754.754 0 0 0 .751-.756.752.752 0 0 0-1.287-.535.756.756 0 0 0 .536 1.291Zm-1.684.876a.596.596 0 0 0 .591-.598.594.594 0 0 0-.591-.598.596.596 0 0 0-.592.598.596.596 0 0 0 .592.598Zm-1.597.47a.538.538 0 0 0 .535-.54v-.001a.538.538 0 0 0-.74-.5.539.539 0 0 0-.33.498v.002a.531.531 0 0 0 .525.541h.01Zm-1.398-1.557c.352 0 .637-.29.637-.643a.641.641 0 0 0-.637-.644.641.641 0 0 0-.451 1.096c.12.12.281.189.451.19Zm-2.051-1.476a.745.745 0 0 0 .742-.748.743.743 0 1 0-1.485 0 .746.746 0 0 0 .743.748Zm6.083 9.38c.882 0 1.596-.725 1.596-1.617s-.714-1.616-1.596-1.616c-.882 0-1.596.724-1.596 1.616 0 .892.714 1.617 1.596 1.617Zm-4.055-2.046a1.34 1.34 0 0 0 1.33-1.347 1.34 1.34 0 0 0-1.33-1.347 1.34 1.34 0 0 0-1.33 1.347c0 .744.594 1.347 1.33 1.347ZM23.082 35c.743 0 1.342-.606 1.342-1.36 0-.748-.6-1.36-1.342-1.36a1.35 1.35 0 0 0-1.342 1.36A1.348 1.348 0 0 0 23.082 35Zm-.697-5.456a1.176 1.176 0 0 0 1.077-.729c.058-.142.087-.294.087-.447a1.167 1.167 0 0 0-1.164-1.177 1.176 1.176 0 0 0-1.078.729 1.167 1.167 0 0 0-.086.448 1.174 1.174 0 0 0 1.164 1.176Zm-2.311 3.002c.64 0 1.159-.526 1.159-1.172 0-.647-.519-1.172-1.16-1.172-.64 0-1.159.525-1.159 1.172a1.159 1.159 0 0 0 1.152 1.172h.008Zm-2.492 2.036c.641 0 1.156-.525 1.156-1.168 0-.647-.518-1.169-1.155-1.169-.64 0-1.156.525-1.156 1.169 0 .643.519 1.168 1.155 1.168Zm-2.073-2.65a.998.998 0 0 0 0-1.995 1.001 1.001 0 0 0-.985.997.996.996 0 0 0 .985.997Zm2.496-2.046a.995.995 0 0 0 .987-.998.99.99 0 0 0-.987-.997 1.002 1.002 0 0 0-.987.996.996.996 0 0 0 .983.999h.004Zm2.328-3a.998.998 0 0 0 .915-.619.99.99 0 0 0 .073-.38v-.002a.994.994 0 0 0-.988-1.001.998.998 0 0 0-.914.618.99.99 0 0 0-.073.38v.003c0 .553.441 1 .987 1Zm-3.561.413a.861.861 0 0 0 .857-.867.861.861 0 0 0-.858-.867.861.861 0 0 0-.857.867c0 .48.384.867.857.867Zm-2.483 2.037a.855.855 0 0 0 .849-.856v-.002a.85.85 0 0 0-.845-.859h-.004a.857.857 0 0 0-.786.53.85.85 0 0 0-.064.326v.003a.852.852 0 0 0 .85.858Zm-.571-2.388a.741.741 0 0 0 0-1.481.74.74 0 0 0-.735.74c0 .411.331.74.735.74Zm-.021-2.096a.638.638 0 0 0 .583-.396.632.632 0 0 0 .046-.242.636.636 0 0 0-.63-.639.633.633 0 0 0-.628.639c0 .354.282.639.629.639Zm.346-1.742a.537.537 0 0 0 .535-.542.54.54 0 0 0-.535-.541.538.538 0 0 0-.535.541c0 .298.237.542.535.542Zm2.14-.292a.64.64 0 0 0 .637-.643.641.641 0 0 0-.637-.643.641.641 0 0 0-.637.643.64.64 0 0 0 .637.643Zm2.35-.913a.748.748 0 0 0 .742-.748.74.74 0 0 0-.736-.749h-.006a.748.748 0 0 0-.004 1.497h.004Zm.559 2.377a.844.844 0 0 0 .841-.842.84.84 0 0 0-.843-.84.844.844 0 0 0-.843.84.84.84 0 0 0 .841.842h.004Zm-2.878.633a.738.738 0 0 0 .734-.745.74.74 0 0 0-.735-.745.74.74 0 0 0-.734.741v.004a.733.733 0 0 0 .726.745h.009ZM8.091 23.81c.877 0 1.592-.72 1.592-1.608 0-.888-.715-1.609-1.592-1.609-.877 0-1.592.722-1.592 1.61 0 .887.715 1.607 1.592 1.607Zm3.613-2.872a1.37 1.37 0 0 0 1.363-1.38c0-.762-.612-1.38-1.363-1.38a1.375 1.375 0 0 0-1.364 1.377v.003c0 .766.613 1.38 1.364 1.38Zm-1.41-3.54c.75 0 1.355-.615 1.355-1.373s-.608-1.372-1.355-1.372a1.37 1.37 0 0 0-1.255.848 1.358 1.358 0 0 0-.1.522v.002a1.356 1.356 0 0 0 1.348 1.373h.007Zm3.483-1.678a1.17 1.17 0 0 0 1.164-1.177 1.17 1.17 0 0 0-1.164-1.177 1.17 1.17 0 0 0-1.164 1.177 1.17 1.17 0 0 0 1.164 1.177Zm1.424 3.532c.645 0 1.167-.528 1.167-1.18 0-.651-.522-1.18-1.167-1.18s-1.168.529-1.168 1.18c0 .652.523 1.18 1.168 1.18Zm3.17-.733a1.001 1.001 0 0 0 .991-1.006.988.988 0 0 0-.976-1.004.996.996 0 0 0-.926.596.987.987 0 0 0-.081.378v.03a.992.992 0 0 0 .984 1.006h.008Zm2.738.009a.86.86 0 0 0 .857-.863.86.86 0 1 0-1.723 0 .862.862 0 0 0 .866.863Zm2.262.52a.727.727 0 0 0 .723-.73.724.724 0 0 0-.723-.729.73.73 0 0 0-.723.73.732.732 0 0 0 .723.728Zm.295-2.66a.634.634 0 0 0 .629-.635.632.632 0 0 0-.63-.635.633.633 0 0 0-.628.635.631.631 0 0 0 .629.636Zm-1.74-.87a.726.726 0 0 0 .722-.723.722.722 0 0 0-.724-.722.726.726 0 0 0-.725.722.72.72 0 0 0 .723.723h.003Zm-2.236-.527a.857.857 0 0 0 .849-.859.852.852 0 0 0-.85-.858.854.854 0 0 0-.849.858.849.849 0 0 0 .847.859h.003Zm-2.734.003a1 1 0 0 0 .996-1.005 1 1 0 0 0-.996-1.006 1 1 0 0 0-.995 1.006 1 1 0 0 0 .995 1.005Zm-3.681-2.514c.624 0 1.126-.51 1.126-1.14 0-.63-.505-1.14-1.126-1.14-.624 0-1.127.51-1.127 1.14 0 .63.506 1.14 1.127 1.14Zm3.168-.69a1 1 0 0 0 .996-1.006 1 1 0 0 0-.996-1.006 1 1 0 0 0-.995 1.006 1 1 0 0 0 .995 1.005Zm2.737.012a.861.861 0 0 0 .858-.867.861.861 0 0 0-.858-.866.863.863 0 0 0-.857.864v.002a.862.862 0 0 0 .857.867Zm2.246.516c.4 0 .723-.325.723-.729a.724.724 0 0 0-1.24-.516.728.728 0 0 0 .517 1.245Zm1.726.893a.65.65 0 0 0 0-1.303.65.65 0 0 0-.645.652c0 .358.29.651.645.651Zm1.266 1.025a.533.533 0 0 0 .53-.535v-.002a.53.53 0 0 0-.53-.536.533.533 0 0 0-.53.535v.002a.528.528 0 0 0 .521.536h.009Z"/></svg>