<svg width="42" height="42" viewBox="0 0 42 42" fill="none" xmlns="http://www.w3.org/2000/svg">
<g clip-path="url(#clip0_4532_195996)">
<path d="M42 21C42 9.40202 32.598 0 21 0C9.40202 0 0 9.40202 0 21C0 32.598 9.40202 42 21 42C32.598 42 42 32.598 42 21Z" fill="white"/>
<path fill-rule="evenodd" clip-rule="evenodd" d="M22.6512 31.8574L23.4735 37.3333C22.6607 37.4635 21.8288 37.5296 21 37.5296H20.9873V26.3584H21C21.4554 26.3584 21.9055 26.2978 22.3397 26.1787L23.737 31.6224C23.3797 31.7207 23.016 31.7979 22.6512 31.8574ZM18.3962 25.6369L15.7082 30.4265C15.3913 30.2355 15.081 30.0292 14.7856 29.8063L11.5759 34.3554C12.2511 34.8652 12.9702 35.323 13.7125 35.7169L16.1552 30.785C16.6512 31.0465 17.1653 31.2682 17.6943 31.4471L16.0325 36.7154C16.8272 36.9835 17.6485 37.1887 18.4752 37.3245L19.3295 31.7626C18.968 31.7029 18.6085 31.6213 18.2543 31.5232L19.6454 26.1753C19.209 26.0539 18.7887 25.8718 18.3962 25.6369ZM6.73338 28.479L11.5856 25.9236C11.336 25.4161 11.1238 24.8842 10.9542 24.3426L5.77337 26.0759C6.03044 26.8988 6.35364 27.7077 6.73338 28.479ZM30.1297 26.4589L25.5004 23.6763C25.7286 23.2703 25.9036 22.8356 26.021 22.3843L31.191 23.8251C31.286 23.4589 31.3649 23.087 31.4225 22.7141L36.7996 23.6001C36.6684 24.4551 36.47 25.3047 36.2097 26.1267L31.1174 24.4044C30.9446 24.9517 30.7302 25.4836 30.4763 25.9965L35.2433 28.5265C34.8624 29.2945 34.4198 30.0369 33.9259 30.7354L29.5292 27.4132C29.7446 27.1076 29.9452 26.7877 30.1287 26.4599L30.1297 26.4589ZM25.9174 36.733C26.7129 36.4671 27.4947 36.1341 28.2412 35.7414L25.7744 30.7211C25.2827 30.9791 24.7685 31.1987 24.2448 31.3731L25.9174 36.733ZM26.3088 30.5245L23.5897 25.6444C23.9834 25.4095 24.3461 25.1226 24.6693 24.7894L32.2938 32.7025C31.7029 33.3126 31.0597 33.8787 30.3845 34.3851L27.24 29.9001C26.9403 30.1251 26.6298 30.3336 26.3088 30.5245ZM16.4923 23.6618L11.7755 26.4765C11.9611 26.8075 12.1617 27.1286 12.3792 27.4385L8.04428 30.6933C8.53497 31.3918 9.08212 32.056 9.67202 32.6672L17.3201 24.7784C16.998 24.4441 16.7195 24.069 16.4923 23.6618ZM10.7131 23.8163L15.975 22.3675C15.8599 21.9186 15.8 21.4518 15.8 20.9795H5C5 21.839 5.06508 22.7029 5.19201 23.547L10.4859 22.6941C10.5424 23.0714 10.6181 23.4467 10.7131 23.8163ZM30.4145 16.0358L35.2667 13.4804C35.6464 14.2517 35.9696 15.0603 36.2267 15.8835L31.0459 17.6168C30.8763 17.075 30.6639 16.5433 30.4145 16.0358ZM23.6037 16.3225L26.2917 11.5329L26.2928 11.5318C26.6097 11.7227 26.9189 11.929 27.2143 12.1519L30.424 7.60286C29.7488 7.09315 29.0298 6.63527 28.2874 6.24132L25.8448 11.1732C25.3487 10.9118 24.8347 10.69 24.3056 10.5112L25.9674 5.24281C25.1728 4.97474 24.3515 4.76955 23.5248 4.6338L22.6704 10.1968C23.032 10.2564 23.3914 10.338 23.7456 10.4362L22.3546 15.784C22.7909 15.9055 23.2112 16.0875 23.6037 16.3225ZM11.8705 15.5005L16.4998 18.2831C16.2715 18.6891 16.0966 19.1239 15.9792 19.5752L10.8091 18.1341C10.7141 18.5005 10.6353 18.8723 10.5776 19.2453L5.19949 18.3593C5.33069 17.5041 5.5291 16.6546 5.78934 15.8327L10.8816 17.5549C11.0544 17.0077 11.2688 16.476 11.5227 15.9629L6.75575 13.4328C7.13655 12.6649 7.57922 11.9225 8.07309 11.2241L12.4699 14.5462C12.2544 14.8517 12.054 15.1728 11.8705 15.5005ZM13.7587 6.218C14.5054 5.82531 15.287 5.49223 16.0826 5.22635L17.7551 10.5864C17.2314 10.7607 16.7173 10.9802 16.2255 11.2384L13.7587 6.218ZM15.6912 11.4348L18.4101 16.3148C18.0166 16.5499 17.6539 16.8367 17.3306 17.1699L9.70717 9.25685C10.2981 8.64667 10.9413 8.08071 11.6165 7.57427L14.761 12.0593C15.0606 11.8344 15.3703 11.6256 15.6912 11.4348ZM25.5088 18.2976L30.2256 15.483C30.04 15.1519 29.8384 14.8298 29.6208 14.5197L33.9558 11.2649C33.4651 10.5666 32.9179 9.9023 32.328 9.29113L24.6812 17.1811C25.0032 17.5153 25.2816 17.8904 25.5088 18.2976ZM19.6603 15.7809L18.2629 10.337C18.6202 10.2387 18.9829 10.1615 19.3477 10.1019L18.5254 4.62611C19.3382 4.49588 20.1701 4.42969 20.9989 4.42969H21.0118V15.601H20.9989C20.5438 15.601 20.0941 15.6619 19.6603 15.7809ZM26.0262 19.5918C26.1412 20.0405 26.1999 20.5068 26.2 20.9786H37C37 20.1191 36.935 19.2552 36.808 18.4112L31.5153 19.2652C31.4587 18.8878 31.383 18.5126 31.288 18.143L26.0262 19.5918Z" fill="#030303"/>
</g>
<defs>
<clipPath id="clip0_4532_195996">
<rect width="42" height="42" fill="white"/>
</clipPath>
</defs>
</svg>
