<svg xmlns="http://www.w3.org/2000/svg" width="36" height="36" fill="none"><rect width="36" height="36" fill="#F3F3F3" rx="18"/><path fill="#030303" fill-rule="evenodd" d="m19.415 27.324.705 4.693c-.697.112-1.41.168-2.12.168h-.011V22.61h.01c.391 0 .777-.052 1.15-.154l1.197 4.666c-.306.084-.617.15-.93.202Zm-3.647-5.332-2.304 4.105a9.162 9.162 0 0 1-.79-.532l-2.752 3.9c.579.437 1.195.83 1.832 1.167l2.093-4.228c.425.224.866.415 1.32.568l-1.425 4.516c.681.23 1.385.405 2.094.522l.732-4.768a8.855 8.855 0 0 1-.922-.205l1.193-4.584a4.363 4.363 0 0 1-1.07-.461Zm-9.997 2.436 4.16-2.19a9.537 9.537 0 0 1-.542-1.356l-4.44 1.486c.22.705.497 1.399.822 2.06Zm20.054-1.732-3.968-2.385a4.65 4.65 0 0 0 .447-1.107l4.431 1.235c.082-.314.15-.633.198-.953l4.61.76a14.453 14.453 0 0 1-.506 2.166l-4.365-1.477c-.148.47-.332.925-.55 1.365l4.087 2.168a14.274 14.274 0 0 1-1.13 1.894l-3.768-2.848c.184-.262.356-.536.514-.817Zm-1.618 7.957Zm-1.992.85a13.446 13.446 0 0 0 1.992-.85l-2.115-4.303c-.421.22-.862.409-1.31.558l1.433 4.595Zm.335-5.322-2.33-4.183c.337-.201.648-.447.925-.733l6.535 6.783a13.89 13.89 0 0 1-1.636 1.442l-2.695-3.844a8.923 8.923 0 0 1-.799.535ZM14.136 20.3l-4.043 2.412c.158.284.331.56.518.825l-3.716 2.79c.42.598.89 1.168 1.395 1.692l6.556-6.762a4.633 4.633 0 0 1-.71-.957Zm-4.953.132 4.51-1.242h-.001a4.791 4.791 0 0 1-.15-1.19H4.287c0 .737.055 1.478.164 2.201l4.538-.73c.048.323.113.644.195.961Zm16.887-6.669 4.159-2.19c.325.661.602 1.354.822 2.06l-4.44 1.485a9.551 9.551 0 0 0-.541-1.355Zm-5.838.246 2.304-4.105v-.001c.272.163.537.34.79.531l2.752-3.899a13.734 13.734 0 0 0-1.832-1.167l-2.093 4.227a9.028 9.028 0 0 0-1.32-.567l1.425-4.516a13.323 13.323 0 0 0-2.094-.522l-.732 4.768c.31.051.618.121.921.206l-1.192 4.583c.374.104.734.26 1.07.462Zm-10.057-.705 3.968 2.385c-.196.348-.346.721-.447 1.108l-4.431-1.235a9.719 9.719 0 0 0-.199.952l-4.61-.76c.113-.732.283-1.46.506-2.165l4.365 1.476a9.58 9.58 0 0 1 .55-1.364L5.79 11.53c.326-.658.705-1.295 1.129-1.893l3.768 2.847a9.33 9.33 0 0 0-.513.818Zm1.618-7.956Zm0 0c.64-.337 1.31-.622 1.992-.85l1.434 4.594c-.45.15-.89.338-1.311.56l-2.115-4.304Zm1.657 4.472Zm0 0L15.78 14a4.515 4.515 0 0 0-.925.733L8.32 7.952a13.877 13.877 0 0 1 1.637-1.443l2.695 3.845c.257-.193.523-.372.798-.535Zm8.415 5.882 4.043-2.413a9.658 9.658 0 0 0-.519-.825l3.716-2.79c-.42-.599-.89-1.168-1.395-1.692l-6.555 6.763c.276.286.515.608.71.957Zm-5.013-2.157h-.001Zm0 0-1.198-4.667c.306-.084.617-.15.93-.201l-.705-4.694c.697-.111 1.41-.168 2.12-.168h.011v9.575h-.011c-.39 0-.776.052-1.147.154Zm5.456 3.266c.099.385.149.785.15 1.189h9.256c0-.737-.055-1.477-.164-2.2l-4.537.731a9.569 9.569 0 0 0-.195-.962l-4.51 1.242Z" clip-rule="evenodd"/></svg>