<svg width="42" height="42" viewBox="0 0 42 42" fill="none" xmlns="http://www.w3.org/2000/svg">
<rect width="42" height="42" rx="21" fill="#2470FF"/>
<path opacity="0.8" d="M12.1985 24.8586V31.1131C12.1985 31.4982 12.5243 31.658 12.6257 31.6942C12.7271 31.7379 13.0674 31.8323 13.3715 31.549L18.1031 27.002C18.506 26.6147 18.8949 26.2078 19.1872 25.7316C19.3247 25.5078 19.3817 25.3816 19.3817 25.3816C19.6715 24.7932 19.6715 24.2266 19.389 23.6599C18.9691 22.8172 17.8973 21.96 16.2825 21.1465L13.5236 22.6865C12.7054 23.1514 12.1985 23.9724 12.1985 24.8586Z" fill="white"/>
<path d="M9.47803 10.947V17.5067C9.47803 18.3275 10.0284 19.054 10.8104 19.2864C13.4752 20.0564 18.1167 21.7127 19.2392 24.1462C19.3839 24.4658 19.4708 24.7783 19.4999 25.1051C20.2458 23.7466 20.586 22.1848 20.4269 20.6013C20.2094 18.3565 19.0218 16.3153 17.1682 15.015L10.557 10.3876C10.4411 10.3004 10.3035 10.2568 10.1659 10.2568C10.0501 10.2568 9.94871 10.2786 9.84009 10.3367C9.62284 10.4602 9.47803 10.6854 9.47803 10.947Z" fill="white"/>
<path opacity="0.8" d="M29.7969 24.8586V31.1131C29.7969 31.4982 29.4712 31.658 29.3697 31.6942C29.2684 31.7379 28.9278 31.8323 28.6239 31.549L23.7821 26.8963C23.4526 26.5795 23.1379 26.2444 22.8896 25.8606C22.6929 25.5566 22.6137 25.3816 22.6137 25.3816C22.324 24.7932 22.324 24.2266 22.6063 23.6599C23.0264 22.8172 24.0981 21.96 25.7127 21.1465L28.4717 22.6865C29.2973 23.1514 29.7969 23.9724 29.7969 24.8586Z" fill="white"/>
<path d="M32.522 10.945V17.5046C32.522 18.3256 31.9715 19.0519 31.1894 19.2845C28.5247 20.0545 23.8833 21.7108 22.7607 24.1443C22.6158 24.4639 22.5289 24.7762 22.5001 25.1031C21.7541 23.7447 21.4139 22.1829 21.5731 20.5993C21.7903 18.3546 22.9779 16.3134 24.8318 15.0131L31.443 10.3856C31.5589 10.2985 31.6964 10.2549 31.834 10.2549C31.9498 10.2549 32.0513 10.2767 32.1596 10.3348C32.3771 10.4583 32.522 10.6835 32.522 10.945Z" fill="white"/>
</svg>
