<svg xmlns="http://www.w3.org/2000/svg" width="42" height="42" fill="none"><rect width="42" height="42" fill="#030303" rx="21"/><path fill="#F2B705" d="M20.775 7a12.03 12.03 0 0 0-8.488 3.505 11.948 11.948 0 0 0-3.305 10.713l1.553-1.059c2.726-1.864 7.149-1.864 9.875 0l1.627 1.112.884.604c2.457 1.677 6.439 1.677 8.893 0l.722-.493a11.93 11.93 0 0 0-2.455-9.967 12.005 12.005 0 0 0-4.152-3.248 12.046 12.046 0 0 0-5.148-1.16L20.775 7Z"/><path fill="#53CBC8" d="M27.524 26.154a8.647 8.647 0 0 1-4.84-1.371l-2.508-1.712a8.695 8.695 0 0 0-9.073 0l-1.62 1.105a.706.706 0 0 1-1.091-.709.702.702 0 0 1 .295-.45l1.62-1.106a10.128 10.128 0 0 1 10.664 0l2.508 1.712a7.755 7.755 0 0 0 8.087 0l.951-.647a.705.705 0 0 1 .988.963.703.703 0 0 1-.192.196l-.951.648a8.68 8.68 0 0 1-4.838 1.371Z"/><path fill="#53CBC8" d="M15.588 31.18v-6.76c-.006-.143 0-.286.016-.428a.764.764 0 0 1 .76-.676.743.743 0 0 1 .717.677c.029.234.038.471.026.707v13.482a.788.788 0 0 1-.777.818.78.78 0 0 1-.732-.856v-4.496l-.01-2.468ZM14.161 27.776v3.359c0 .575-.317.947-.745.947s-.767-.4-.77-.947V24.41c0-.587.345-.986.792-.948.447.038.714.376.717.967.006 1.106.006 2.224.006 3.346ZM18.54 27.77v-2.358c0-.546.291-.9.726-.9a.817.817 0 0 1 .736.559.811.811 0 0 1 .037.322c.015 1.605.015 3.211 0 4.818 0 .547-.317.879-.77.872-.453-.006-.73-.34-.732-.9v-2.41l.003-.004ZM9.708 28.256v-2.36c0-.55.291-.904.726-.904a.815.815 0 0 1 .773.882c.015 1.607.015 3.214 0 4.821 0 .547-.317.875-.767.872-.45-.003-.732-.341-.735-.904v-2.407h.003ZM22.965 26.996a.744.744 0 0 0-.745-.742.744.744 0 0 0-.745.742v1.283a.744.744 0 0 0 1.49 0v-1.283ZM25.914 28.121a.744.744 0 0 0-.745-.742.744.744 0 0 0-.745.742v7.2c0 .41.334.743.745.743a.744.744 0 0 0 .745-.742v-7.2ZM28.843 28.4a.744.744 0 0 0-.745-.742.744.744 0 0 0-.745.743v6.12c0 .41.334.742.745.742a.744.744 0 0 0 .745-.742V28.4ZM31.813 27.7a.744.744 0 0 0-.745-.743.744.744 0 0 0-.745.742v2.639c0 .41.334.742.745.742a.744.744 0 0 0 .745-.742v-2.639Z"/></svg>