<svg width="42" height="42" viewBox="0 0 42 42" fill="none" xmlns="http://www.w3.org/2000/svg">
<rect x="0.5" y="0.5" width="41" height="41" rx="20.5" fill="url(#paint0_radial_5182_31017)"/>
<rect x="0.5" y="0.5" width="41" height="41" rx="20.5" stroke="#676287"/>
<circle cx="21" cy="21" r="17.0625" fill="url(#paint1_radial_5182_31017)" stroke="#4042B0" stroke-width="0.984375"/>
<path d="M20.4814 7.78981C20.4516 7.74083 20.3985 7.71093 20.3412 7.71094C20.2839 7.71094 20.2307 7.74084 20.201 7.78982L11.6723 21.8287C11.6562 21.8551 11.6484 21.8848 11.6484 21.9142C11.6484 21.9241 11.6492 21.934 11.651 21.9439C11.6594 21.9911 11.6881 22.0322 11.7295 22.0565L20.2583 27.0585C20.3095 27.0886 20.373 27.0886 20.4243 27.0585L28.9545 22.0565C28.9959 22.0322 29.0246 21.9911 29.0331 21.9439C29.0348 21.934 29.0357 21.9241 29.0356 21.9142C29.0357 21.8848 29.0278 21.8551 29.0118 21.8287L20.4814 7.78981ZM11.8955 23.0424C11.8287 23.0032 11.7436 23.0161 11.6913 23.0733C11.6391 23.1305 11.634 23.2164 11.6791 23.2794L20.2077 35.202C20.2385 35.2451 20.2882 35.2706 20.3412 35.2706C20.3941 35.2707 20.4438 35.2451 20.4746 35.2021L29.0097 23.2794C29.0548 23.2164 29.0497 23.1305 28.9975 23.0733C28.9453 23.0161 28.8602 23.0032 28.7934 23.0423L20.3413 27.9927L11.8955 23.0424Z" fill="#E1EBFF" stroke="#E1EBFF" stroke-width="0.328125" stroke-linejoin="round"/>
<path d="M20.3413 7.875L11.8125 21.914L20.3413 18.0688V7.875Z" fill="#FDBC01"/>
<path d="M20.3413 18.0698L11.8125 21.915L20.3413 26.9171V18.0698Z" fill="#E09D00"/>
<path d="M28.8716 21.914L20.3412 7.875V18.0688L28.8716 21.914Z" fill="#E09D00"/>
<path d="M20.3412 26.9171L28.8716 21.915L20.3412 18.0698V26.9171Z" fill="#C48000"/>
<path d="M11.8125 23.1841L20.3413 35.1069V28.183L11.8125 23.1841Z" fill="#FDBC01"/>
<path d="M20.3412 28.183V35.1069L28.8763 23.1841L20.3412 28.183Z" fill="#E09D00"/>
<rect x="26.1844" y="9.12188" width="6.69291" height="6.77399" rx="3.34646" fill="white"/>
<rect x="26.1844" y="9.12188" width="6.69291" height="6.77399" rx="3.34646" stroke="#FDBC00" stroke-width="0.13125"/>
<path d="M28.1852 12.2767L28.1486 12.3331C27.7341 12.9686 27.8268 13.801 28.3709 14.3343C28.6911 14.648 29.1106 14.8048 29.5305 14.8048L28.1852 12.2764V12.2767Z" fill="#44A2F7"/>
<path opacity="0.6" d="M29.5307 13.0447L28.1854 12.2764L29.5307 14.8048V13.0451V13.0447Z" fill="#44A2F7"/>
<path opacity="0.6" d="M30.8765 12.2767L30.9132 12.3331C31.3276 12.9686 31.2349 13.801 30.6908 14.3343C30.3707 14.648 29.9511 14.8048 29.5312 14.8048L30.8765 12.2764V12.2767Z" fill="#44A2F7"/>
<path opacity="0.2" d="M29.5312 13.0447L30.8765 12.2764C29.9797 13.962 29.5312 14.8048 29.5312 14.8048V13.0451V13.0447Z" fill="#44A2F7"/>
<path opacity="0.2" d="M29.5312 11.3281V12.6533L30.6899 11.991L29.5312 11.3281Z" fill="#44A2F7"/>
<path opacity="0.6" d="M29.5321 11.3281L28.3726 11.991L29.5321 12.6533V11.3281Z" fill="#44A2F7"/>
<path d="M29.5321 10.2129L28.3726 11.9908L29.5321 11.3259V10.2129Z" fill="#44A2F7"/>
<path opacity="0.6" d="M29.5312 11.3269L30.6908 11.9917L29.5312 10.2129V11.3269Z" fill="#44A2F7"/>
<defs>
<radialGradient id="paint0_radial_5182_31017" cx="0" cy="0" r="1" gradientUnits="userSpaceOnUse" gradientTransform="translate(21 21) rotate(90) scale(21)">
<stop offset="0.24" stop-color="#B2B3DF"/>
<stop offset="0.775" stop-color="white"/>
<stop offset="0.935" stop-color="#C1C2E8"/>
</radialGradient>
<radialGradient id="paint1_radial_5182_31017" cx="0" cy="0" r="1" gradientUnits="userSpaceOnUse" gradientTransform="translate(21 21) rotate(90) scale(17.0625)">
<stop offset="0.417965" stop-color="#6274D9"/>
<stop offset="1" stop-color="#7C8DEA"/>
</radialGradient>
</defs>
</svg>
