<svg width="42" height="42" viewBox="0 0 42 42" fill="none" xmlns="http://www.w3.org/2000/svg">
<rect width="42" height="42" rx="21" fill="white"/>
<rect width="42" height="42" rx="21" fill="white"/>
<path d="M30.709 13.7008C30.1457 13.1372 29.1973 13.3632 28.9064 14.0846L25.5475 27.4138C24.2044 31.8992 18.0887 31.9796 16.6895 27.4138C15.3768 23.1301 14.6234 18.5051 13.3624 14.188C13.1431 13.3798 12.0788 13.1081 11.5027 13.7264C10.8259 14.4522 11.6459 15.7396 10.7401 16.7133C9.75955 17.7675 7.89071 17.1867 7.73563 15.7659C7.51127 13.7109 8.05628 11.7356 9.86395 10.5997C12.5342 8.92175 15.8154 10.3257 16.722 13.2571C18.0441 17.5327 18.7739 22.1637 20.063 26.469C20.3755 27.3475 21.6219 27.4658 22.0855 26.6518C23.4438 22.3087 24.1807 17.655 25.4988 13.3098C27.0156 8.31018 33.8972 9.02312 34.5027 14.0762L34.501 29.3154C34.1304 31.3386 31.3121 31.2774 31.0293 29.2441L31.0259 14.4144C31.0006 14.16 30.8904 13.8836 30.7086 13.7014L30.709 13.7008Z" fill="#092E3E"/>
<path d="M9.45448 23.4614C10.4367 23.4614 11.2125 24.1091 11.2125 25.2978C11.2125 27.2494 11.2125 27.7927 11.2125 29.1808C11.2125 31.3544 7.73364 31.2892 7.73364 29.2821C7.73364 27.8208 7.74986 26.6314 7.74986 25.214C7.74986 24.4426 8.39522 23.4614 9.45448 23.4614Z" fill="#092E3E"/>
<path d="M9.44811 18.3605C9.95021 18.3466 10.8696 19.2934 11.176 19.6867C11.8474 20.5476 11.0814 21.1845 10.4523 21.7643C9.99346 22.1874 9.61368 22.5773 8.95176 22.1833C8.72606 22.0492 7.65328 20.9581 7.56475 20.7335C7.27215 19.9908 7.99285 19.3812 8.49258 18.9244C8.771 18.6697 9.03725 18.372 9.44778 18.3608L9.44811 18.3605Z" fill="#F5BA39"/>
</svg>
