<svg xmlns="http://www.w3.org/2000/svg" width="42" height="42" fill="none"><g clip-path="url(#a)"><path fill="#CE1126" d="M-15.75 0h73.5v42h-73.5V0Z"/><path fill="#F3F3F3" d="M-15.75 0h49v42h-49V0Z"/><path fill="#006847" d="M-15.75 0h24.5v42h-24.5V0Z"/><path fill="#9C4314" fill-rule="evenodd" d="M12.472 22.49c.006-.008.276-.481.244-.405.124.095.351.005.187-.21.04-.086.09-.152.13-.24.09-.169-.103-.242-.18-.125-.047.09-.092.144-.14.234-.244-.116-.26.157-.143.204l-.192.269.094.273Z" clip-rule="evenodd"/><path fill="#9C4314" fill-rule="evenodd" d="M12.439 22.385c-.008-.006-.485-.27-.408-.239.094-.125 0-.352-.212-.184-.088-.038-.154-.088-.242-.127-.17-.088-.241.107-.123.182.091.046.145.09.236.136-.113.246.16.258.206.14.075.052.362.218.437.27.09-.033.015-.146.106-.178ZM14.163 25.274c.002-.01.014-.554.022-.472.155.025.312-.163.065-.273-.006-.095.007-.178 0-.273 0-.192-.206-.164-.217-.024.001.1-.013.17-.012.271-.27.014-.154.262-.029.248-.01.09-.03.238-.041.328l.212.195Z" clip-rule="evenodd"/><path fill="#9C4314" fill-rule="evenodd" d="M14.084 25.197c-.01-.001-.554-.006-.472-.015.022-.155-.167-.31-.274-.06-.095.007-.178-.005-.273.002-.192.004-.161.21-.021.219.1-.003.17.01.271.007.019.27.265.151.249.026l.458.047c.065-.071-.002-.154.062-.226Z" clip-rule="evenodd"/><path fill="#42B2F3" fill-rule="evenodd" stroke="#000" stroke-width=".079" d="M19.72 27.063s.186.253.27.262c.262.018 2.335 0 2.335 0 0-.003.075-.044.075-.047.069-.087.062-.137.13-.224.11-.109.265-.143.374-.252.467-.112.887-.224 1.355-.299-.038-.277-.318-.218-.468-.327-.046-.043-.037-.087-.009-.13l1.037-.477v-.112c-.735.087-1.413.23-2.204.261l-2.7 1.112-.195.233Z" clip-rule="evenodd"/><path stroke="#000" stroke-width=".042" d="M12.258 22.104h-.01c.047 0 .01.003 0-.112"/><path fill="#008D00" fill-rule="evenodd" stroke="#286726" stroke-width=".146" d="M12.298 22.23c-.14-.496-.367-.93-.895-1.058-.099-.022-.17-.305-.004-.292.093.037.002-.017.095.02.092.033.236-.04.177-.198 0-.018-.177-.331-.177-.34-.032-.036.029-.237.187-.131.075.049.15.164.258.186.04-.006.065-.13.059-.224l.01-.323c-.038-.19.129-.285.263-.144.01.047-.001.047.008.094.03.062.068.072.112.01.06-.06.118-.12.178-.178.105-.04.17-.079.177.14 0 0-.145.182-.214.248-.036.053-.114.125.021.164.01 0 .193.027.193.027.125.052.139.19.046.202 0 0-.098.115-.27.21-.052.042-.096.093-.05.151.1.039.068.002.237.002.143-.033.13.316-.128.293-.077.018-.179.01-.22.134-.02.095-.024.28-.024.326-.016.223.017.53.017.54.019.159-.038.103-.056.14ZM13.827 25.076c-.019-.023-.486-.536-1.027-.478-.101.012-.263-.23-.103-.274.1.004.022-.01.123-.007.085-.06-.069-.243-.139-.179-.005-.018-.184.038-.26.023-.235-.023-.338-.285-.166-.385.106.041.308.045.417.03.108-.033.058-.131-.047-.146-.148-.022-.748-.168-.695-.24-.1-.166 0-.293.173-.205.144.087.16.038.126-.027-.043-.124-.084-.094-.09-.201-.01-.07.012-.132.114-.088.043-.037.114.222.38.124.05.041.092-.28.277-.23.14.042.044.187.071.39.022.135.157.104.175.034-.029-.308.273-.314.307-.21.029.077.055.284.018.48-.02.099-.004.295.06.335.106.003.037-.022.11-.132.123-.079.314.208.09.352-.236.051.134.951.165 1.001-.034.037-.074-.008-.08.034Z" clip-rule="evenodd"/><path fill="#9C4314" fill-rule="evenodd" d="M16.727 27.483c0-.01-.073-.55-.052-.47.157 0 .282-.21.021-.28-.02-.093-.02-.176-.042-.27-.031-.19-.23-.13-.22.01.018.1.015.17.032.27-.265.057-.111.284.01.25l.011.33.24.16Z" clip-rule="evenodd"/><path fill="#9C4314" fill-rule="evenodd" d="M16.718 27.42c-.01 0-.549.08-.469.058-.002-.156-.214-.279-.28-.017-.093.023-.176.024-.27.046-.189.034-.126.232.014.22.1-.02.17-.017.27-.036.06.264.284.108.249-.014l.46-.024c.052-.081-.026-.153.026-.234Z" clip-rule="evenodd"/><path fill="#33B1E9" fill-rule="evenodd" stroke="#000" stroke-width=".083" d="M16.534 24.469c1.319.778 1.657.665 1.602.32.064 0 .077.055.264-.083-.026.51.53.803.868.742.305.02.266.423.266.423.018.413-.12.58-.102.994-.005 0-.01-.05-.014-.05-.376-.089-1.116-.1-1.393-.16 1.27-.866-.977-.89-1.178-.92-.152-.019-.044-.167.045-.206.7-.138-.657-.8-.622-.88-.083-.048.006-.088.006-.088.093-.06.166-.032.258-.092Z" clip-rule="evenodd"/><path fill="#983D25" fill-rule="evenodd" stroke="#000" stroke-width=".118" d="M19.826 25.128a.413.413 0 0 0-.414.413c-.069.316-.059.759 0 1.183 0 .229.185.413.414.413.913.099 1.895.07 2.738 0 .23 0 .414-.184.414-.413.108-.375.079-.769 0-1.183a.413.413 0 0 0-.414-.413c-.913-.04-1.845-.089-2.738 0Z" clip-rule="evenodd"/><path fill="#268728" fill-rule="evenodd" stroke="#000003" stroke-linecap="round" stroke-linejoin="round" stroke-width=".079" d="m16.743 13.877-.625.541c-.256.114-.535.255-.334.86-.118.775.507.897 1.054.736.09-.201.12-.34.211-.54-.242-.038-.371.047-.59.032-.151-.024-.162-.138-.107-.212.237-.117.45-.229.687-.346-.006-.035-.012-.01-.017-.045-.195.1-.335.134-.541.218-.164.058-.21-.153-.145-.246 0 0 .424-.608.424-.613.035-.128.01-.343-.017-.385Z" clip-rule="evenodd"/><path fill="#fff" fill-rule="evenodd" d="M18.49 24.507a.328.328 0 1 0-.655 0 .326.326 0 0 0 .632.128.328.328 0 0 0 .023-.128Z" clip-rule="evenodd"/><path stroke="#000" stroke-width=".079" d="M18.49 24.507a.328.328 0 1 0-.655 0 .326.326 0 0 0 .632.128.328.328 0 0 0 .023-.128Zm0 0h-.328"/><path fill="#fff" fill-rule="evenodd" d="M16.938 25.742a.31.31 0 1 0-.618 0 .31.31 0 0 0 .53.223.31.31 0 0 0 .087-.223Z" clip-rule="evenodd"/><path stroke="#000" stroke-width=".079" d="M16.938 25.742a.31.31 0 1 0-.618 0 .31.31 0 0 0 .53.223.31.31 0 0 0 .087-.223Zm0 0h-.309"/><path fill="#fff" fill-rule="evenodd" d="M24.607 26.433a.31.31 0 1 0-.618 0 .31.31 0 0 0 .53.223.308.308 0 0 0 .088-.223Z" clip-rule="evenodd"/><path stroke="#000" stroke-width=".078" d="M24.607 26.433a.31.31 0 1 0-.618 0 .31.31 0 0 0 .53.223.308.308 0 0 0 .088-.223Zm0 0h-.31"/><path fill="#BA4600" fill-rule="evenodd" stroke="#000" stroke-linejoin="round" stroke-width=".042" d="M16.773 14.29c.008.185.013.418.013.489-.008-.174-.069-.313-.092-.38a.529.529 0 0 1 .08-.11Z" clip-rule="evenodd"/><path fill="#973100" fill-rule="evenodd" d="M19.799 26.808a.308.308 0 0 0-.428-.292.31.31 0 0 0-.19.292.308.308 0 0 0 .43.292.31.31 0 0 0 .188-.292Z" clip-rule="evenodd"/><path stroke="#000" stroke-width=".113" d="M19.799 26.808a.308.308 0 0 0-.428-.292.31.31 0 0 0-.19.292.308.308 0 0 0 .43.292.31.31 0 0 0 .188-.292Zm0 0h-.309"/><path fill="#973100" fill-rule="evenodd" d="M23.054 26.808a.308.308 0 0 0-.429-.292.31.31 0 0 0-.188.292.31.31 0 0 0 .529.223.31.31 0 0 0 .088-.223Z" clip-rule="evenodd"/><path stroke="#000" stroke-width=".113" d="M23.054 26.808a.308.308 0 0 0-.429-.292.31.31 0 0 0-.188.292.31.31 0 0 0 .529.223.31.31 0 0 0 .088-.223Zm0 0h-.309"/><path fill="#973100" fill-rule="evenodd" d="M23.054 25.312a.308.308 0 0 0-.53-.223.31.31 0 0 0-.087.223.31.31 0 1 0 .617 0Z" clip-rule="evenodd"/><path stroke="#000" stroke-width=".113" d="M23.054 25.312a.308.308 0 0 0-.53-.223.31.31 0 0 0-.087.223.31.31 0 1 0 .617 0Zm0 0h-.309"/><path fill="#973100" fill-rule="evenodd" d="M19.817 25.312a.31.31 0 0 0-.529-.223.31.31 0 0 0-.088.223.308.308 0 0 0 .429.292.31.31 0 0 0 .188-.292Z" clip-rule="evenodd"/><path stroke="#000" stroke-width=".113" d="M19.817 25.312a.31.31 0 0 0-.529-.223.31.31 0 0 0-.088.223.308.308 0 0 0 .429.292.31.31 0 0 0 .188-.292Zm0 0h-.308"/><path fill="#008D00" fill-rule="evenodd" stroke="#286726" stroke-width=".146" d="M16.773 27.651c-.018-.023-.156-.416-.94-.433-.11-.006-.18.025-.403.01-.13.01-.079-.144-.027-.2.085-.059-.303-.03-.436-.014-.135-.008-.225-.03-.301-.046-.235-.022-.372-.187-.2-.287.071-.07.364.01.473-.005.107-.033.092-.215-.012-.23-.149-.022-.797-.07-.744-.143-.1-.165-.07-.25.187-.219.143.088.14-.024.104-.089-.042-.123-.278-.143-.284-.25-.039-.257.13-.291.232-.248.043-.036-.193-.237.074-.335.066-.021.203-.005.249.239.139.043.043-.16.231-.243.162-.067-.01.724.182.717.166.067.133-.433.272-.335.3-.077.155.96.286.896.217.19.24-.17.303-.13.106.002.177.006.117.244-.044.185.022.229.056.303.203.447.507.443.609.649.033.304-.022.108-.027.15Z" clip-rule="evenodd"/><path fill="#009400" fill-rule="evenodd" stroke="#000" stroke-width=".079" d="M20.525 28.34c-.374.308-.763.507-.906.827.17-.023.237-.051.364-.035.138-.309.572-.474.828-.723l-.286-.07ZM21.527 28.373c.339.313.758.492.906.822-.17-.023-.242-.046-.344-.02-.137-.308-.592-.489-.848-.738.095-.023.19-.04.286-.064Z" clip-rule="evenodd"/><path fill="#fff" fill-rule="evenodd" stroke="#000" stroke-width=".079" d="M21.271 28.436c.41.246.574.423.827.738a1.025 1.025 0 0 0-.354.099c-.305-.397-.542-.539-.798-.788.095-.023.23-.026.325-.05Z" clip-rule="evenodd"/><path fill="#FFBA00" fill-rule="evenodd" stroke="#000" stroke-opacity=".772" stroke-width=".079" d="M17.397 15.101c-.164.045-.235.184-.25.313-.606.424-.166 1.26.396 1.086-.415-.622 0-.974.462-.755.14.102.238.317.251.303.088-.19.436-.356.436-.356s.28.037.331-.144c.032-.116.29-.596.29-.596l-.898-.185-.62-.013-.331.145c-.044.07-.023.132-.067.202Z" clip-rule="evenodd"/><path fill="#D40000" fill-rule="evenodd" stroke="#000" stroke-width=".079" d="M20.936 28.456c.41.246.599.477.852.792-.111.033-.15.216-.211.252-.197-.397-.523-.735-.868-1.074.095-.023.132.053.227.03Z" clip-rule="evenodd"/><path fill="#fff" fill-rule="evenodd" stroke="#000" stroke-width=".079" d="M20.781 28.408c-.41.246-.553.403-.806.718a.893.893 0 0 1 .333.12c.306-.398.542-.539.798-.789-.095-.023-.23-.026-.325-.049Z" clip-rule="evenodd"/><path fill="#D40000" fill-rule="evenodd" stroke="#000" stroke-width=".079" d="M21.116 28.427c-.41.246-.583.492-.836.807.204.146.154.155.196.237.197-.397.63-.725.975-1.064-.095-.023-.24.043-.335.02Z" clip-rule="evenodd"/><path fill="#973000" fill-rule="evenodd" d="M16.513 24.621c.024-.086-.009-.186-.091-.279a.804.804 0 0 0-.348-.216.753.753 0 0 0-.4-.028c-.115.028-.194.092-.217.178-.024.085.01.186.091.279.083.092.208.17.348.216.14.046.284.056.4.028.115-.029.194-.092.217-.178Z" clip-rule="evenodd"/><path stroke="#000" stroke-width=".08" d="M16.513 24.621c.024-.086-.009-.186-.091-.279a.804.804 0 0 0-.348-.216.753.753 0 0 0-.4-.028c-.115.028-.194.092-.217.178-.024.085.01.186.091.279.083.092.208.17.348.216.14.046.284.056.4.028.115-.029.194-.092.217-.178Zm0 0-.528-.173"/><path fill="#008D2B" fill-rule="evenodd" stroke="#005E00" stroke-width=".079" d="M20.45 27.912c-.296.213-.715.497-1.01.71-.061.051.204.106.302.058.312-.214.477-.355.79-.57l.177-.1c-.127-.008-.132-.089-.26-.098Z" clip-rule="evenodd"/><path fill="#973000" fill-rule="evenodd" d="M18.314 26.55c-.031-.07-.108-.12-.215-.136a.698.698 0 0 0-.352.047.653.653 0 0 0-.282.202c-.062.082-.08.168-.048.239.032.07.11.119.215.136.107.016.233 0 .352-.047a.653.653 0 0 0 .283-.203c.062-.082.079-.168.047-.239Z" clip-rule="evenodd"/><path stroke="#000" stroke-width=".079" d="M18.314 26.55c-.031-.07-.108-.12-.215-.136a.698.698 0 0 0-.352.047.653.653 0 0 0-.282.202c-.062.082-.08.168-.048.239.032.07.11.119.215.136.107.016.233 0 .352-.047a.653.653 0 0 0 .283-.203c.062-.082.079-.168.047-.239Zm0 0-.448.176"/><path fill="#008D00" fill-rule="evenodd" stroke="#000" stroke-width=".083" d="M23.467 24.635c.015-.812.727-.101 1.007-.436.656-.774.712-.832 1.293-.748 1.555.61-.068 2.024-1.658 1.38-.174-.096-.468-.1-.642-.196Z" clip-rule="evenodd"/><path fill="#6D390B" fill-rule="evenodd" d="M29.33 21.96a.164.164 0 0 0-.031-.134.244.244 0 0 0-.282-.08.145.145 0 0 0-.085.1.163.163 0 0 0 .032.133.244.244 0 0 0 .282.08.146.146 0 0 0 .085-.1Z" clip-rule="evenodd"/><path fill="#6D390B" d="m29.657 22.246-.379-.328-.1.115.379.328.1-.115Z"/><path fill="#6D390B" fill-rule="evenodd" d="m26.983 23.12.083.115.285-.248-.082-.116-.286.249Z" clip-rule="evenodd"/><path stroke="#000" stroke-linecap="round" stroke-width=".118" d="M19.826 25.12c.483.147.837 1.9 1.31 2.058M20.29 25.11c.482.147.827 1.9 1.3 2.058M20.742 25.088c.483.148.838 1.91 1.31 2.068"/><path fill="#973000" fill-rule="evenodd" d="M25.367 25.329c-.031-.07-.109-.12-.215-.136a.698.698 0 0 0-.352.047.653.653 0 0 0-.282.202c-.062.083-.08.169-.048.239.031.07.109.12.215.136.107.017.233 0 .352-.047a.653.653 0 0 0 .283-.202c.061-.083.078-.169.047-.24Z" clip-rule="evenodd"/><path stroke="#000" stroke-width=".069" d="M25.367 25.329c-.031-.07-.109-.12-.215-.136a.698.698 0 0 0-.352.047.653.653 0 0 0-.282.202c-.062.083-.08.169-.048.239.031.07.109.12.215.136.107.017.233 0 .352-.047a.653.653 0 0 0 .283-.202c.061-.083.078-.169.047-.24Zm0 0-.448.176"/><path fill="#DC0000" fill-rule="evenodd" stroke="#000" stroke-width=".075" d="M27.21 23.523c.025.094-.017.215-.182.258-.165.042-.32-.022-.344-.115-.024-.094.072-.229.236-.271.165-.043.266.035.29.128Z" clip-rule="evenodd"/><path fill="#008D00" fill-rule="evenodd" stroke="#286026" stroke-width=".146" d="M19.962 28.01c-.244.05-.8.17-1.043.657-.044.091-.41.162-.36.004.056-.082.077-.09.134-.172-.004-.104-.242-.073-.225.02a.31.31 0 0 0-.187.073c-.146.186-.394.178-.385-.02a.537.537 0 0 0 .184-.234c.03-.108-.182-.147-.25-.067-.146.076-.237.185-.41.27-.192.069-.377-.055-.21-.154.151-.074.025-.245-.048-.251-.127-.03-.647.057-.74.005-.074-.01-.208-.203-.051-.237.142-.046.379.052.44-.226.062-.467.804.24.683.044-.271-.402.191-.496.331-.222.057.123.34.307.422.272.154.017-.286-.39.063-.456.08.017.222.023.32.16.073.07.088.358.36.382.06-.088.003-.043-.05-.164 0-.146.241-.134.345.114.102.189.643.06 1.138.072.158-.026.413.113-.46.13Z" clip-rule="evenodd"/><path fill="#DC0000" fill-rule="evenodd" stroke="#000" stroke-width=".079" d="M26.663 23.505c.087.134.085.346-.15.499-.235.153-.51.134-.598 0-.087-.134-.008-.394.227-.547.235-.153.434-.085.521.048Z" clip-rule="evenodd"/><path fill="#DC0000" fill-rule="evenodd" stroke="#000" stroke-width=".075" d="M26.831 22.952c.081.052.133.17.042.313s-.248.202-.33.15c-.081-.052-.103-.216-.012-.36.092-.143.218-.155.3-.103Z" clip-rule="evenodd"/><path fill="#DC0000" fill-rule="evenodd" stroke="#000" stroke-width=".075" d="M27.079 23.194c.052.08.051.21-.091.302-.143.093-.31.081-.363 0-.052-.08-.005-.239.138-.332.142-.092.263-.051.316.03Z" clip-rule="evenodd"/><path fill="#D90000" fill-rule="evenodd" stroke="#000" stroke-width=".057" d="M27.61 22.714c.04.061.038.158-.069.228-.107.07-.233.06-.272 0-.04-.061-.004-.18.103-.25s.198-.039.238.022Z" clip-rule="evenodd"/><path fill="#fff" fill-rule="evenodd" stroke="#000" stroke-width=".079" d="M20.832 27.637c-.21.025-.329.038-.37.19a1.06 1.06 0 0 0 .014.353c0 .133.168.22.363.259h.336c.142 0 .403-.139.403-.272.021-.075.02-.196.02-.278 0-.223-.157-.237-.355-.258l-.41.006Z" clip-rule="evenodd"/><path fill="#008F00" fill-rule="evenodd" stroke="#286326" stroke-width=".13" d="M28.29 24.997c-.022-.775-.226-1.899.725-2.284.123-.032.167.037.126.14l-.85 2.144Z" clip-rule="evenodd"/><path fill="#008C00" fill-rule="evenodd" stroke="#286326" stroke-width=".13" d="M29.521 23.42c.17-.32.588-.4.736-.39-.292.299-.585 1.031-.748 1.27-.237.408-.926.697-1.34.936.463-.63.889-1.186 1.352-1.817Z" clip-rule="evenodd"/><path fill="#009400" fill-rule="evenodd" stroke="#000" stroke-width=".042" d="m20.85 27.633-.214.037c-.005 0-.164.103-.164.103l-.033.205.038.23.098.135.257.088.018-.798Z" clip-rule="evenodd"/><path fill="#008D00" fill-rule="evenodd" stroke="#286326" stroke-width=".13" d="M28.166 25.235c.028-.028.545-2.466 1.407-2.755.14.182.072.575.017.784-.265.91-.909 1.534-1.424 1.97Z" clip-rule="evenodd"/><path fill="#6D390B" fill-rule="evenodd" d="M30.07 22.235a.164.164 0 0 1 .104-.088.244.244 0 0 1 .274.103c.024.043.027.09.01.131a.164.164 0 0 1-.105.088.245.245 0 0 1-.275-.103.146.146 0 0 1-.009-.13Z" clip-rule="evenodd"/><path fill="#6D390B" d="m29.637 22.274.5-.04.011.152-.5.04-.011-.152Z"/><path fill="#6D390B" fill-rule="evenodd" d="M27.964 24.73a.185.185 0 0 0 .016-.149.269.269 0 0 0-.099-.14.233.233 0 0 0-.155-.048.154.154 0 0 0-.122.072.185.185 0 0 0-.015.149c.015.054.05.104.098.14a.233.233 0 0 0 .155.048.154.154 0 0 0 .122-.072Z" clip-rule="evenodd"/><path fill="#6D390B" d="m28.187 25.148-.261-.48-.141.082.26.48.142-.082Z"/><path fill="#6D390B" fill-rule="evenodd" d="M28.586 25.403a.185.185 0 0 0 .12.09c.055.015.116.01.17-.012a.232.232 0 0 0 .122-.11.154.154 0 0 0 0-.14.185.185 0 0 0-.12-.09.268.268 0 0 0-.17.013.232.232 0 0 0-.12.109.154.154 0 0 0-.002.14Z" clip-rule="evenodd"/><path fill="#6D390B" d="m28.113 25.38.546.022.002-.163-.546-.022-.002.163Z"/><path fill="#008C00" fill-rule="evenodd" stroke="#286326" stroke-width=".106" d="M27.79 25.96c.53-.286.199.117.166.337-.157.544-.303.548-.487.64-.275.25-1.154.13-1.563.232.513-.372 1.373-.836 1.885-1.208ZM26.998 25.836c.221-.175.257-.563.243-.697-.2.286-.714.6-.878.766-.282.242-.454.89-.606 1.284.43-.464.81-.89 1.241-1.353Z" clip-rule="evenodd"/><path fill="#008C00" fill-rule="evenodd" stroke="#286326" stroke-width=".13" d="M24.244 28.062c.347-.101.937.155 1.034.267-.418 0-1.096.29-1.382.34-.456.116-1.722-.598-2.175-.7.756-.038 1.749.203 2.523.093Z" clip-rule="evenodd"/><path fill="#00602B" fill-rule="evenodd" stroke="#004500" stroke-width=".079" d="M21.607 27.988c.297.213.715.497 1.01.71.061.051-.205.106-.302.058-.312-.214-.477-.355-.789-.57-.06-.032-.119-.066-.178-.099.127-.009.132-.09.26-.099Z" clip-rule="evenodd"/><path fill="#008C00" fill-rule="evenodd" stroke="#286326" stroke-width=".124" d="M25.713 27.171c.035-.013 1.446-1.917 2.322-1.838.053.208-.16.522-.291.681-.59.684-1.404.977-2.031 1.157Z" clip-rule="evenodd"/><path fill="#6D390B" fill-rule="evenodd" d="M25.54 26.89a.185.185 0 0 0 .085-.124.268.268 0 0 0-.022-.17.233.233 0 0 0-.114-.116.154.154 0 0 0-.14.006.185.185 0 0 0-.085.124.27.27 0 0 0 .021.17.234.234 0 0 0 .115.116c.048.02.098.018.14-.006Z" clip-rule="evenodd"/><path fill="#6D390B" d="m25.54 27.363-.004-.547-.163.006.004.547.163-.006Z"/><path fill="#6D390B" fill-rule="evenodd" d="M25.909 27.671a.185.185 0 0 0 .057.139c.04.04.095.067.153.075a.233.233 0 0 0 .16-.032.154.154 0 0 0 .073-.12.185.185 0 0 0-.058-.14.27.27 0 0 0-.153-.075.233.233 0 0 0-.16.032.155.155 0 0 0-.072.121Z" clip-rule="evenodd"/><path fill="#6D390B" d="m25.513 27.41.459.297.085-.14-.46-.297-.084.14Z"/><path fill="#DC0000" fill-rule="evenodd" stroke="#000" stroke-width=".059" d="M13.943 20.755c.042-.061.137-.102.256-.035.118.066.168.183.127.244-.041.062-.175.08-.293.014-.119-.066-.13-.16-.09-.223Z" clip-rule="evenodd"/><path fill="#008C00" fill-rule="evenodd" stroke="#286326" stroke-width=".106" d="M24.003 27.807c.582-.154.547-.435.82-.68-.63-.092-1.133.13-1.402.279-.425.274-.535.572-.903.777.627-.08.91-.17 1.485-.376Z" clip-rule="evenodd"/><path fill="#008C00" fill-rule="evenodd" stroke="#286326" stroke-width=".124" d="M22.102 27.978c1.666.125 1.401-.551 3.227-.534-.027.213-.376.482-.556.582-.798.422-2.11.62-2.67-.048Z" clip-rule="evenodd"/><path fill="#D40000" fill-rule="evenodd" stroke="#000" stroke-width=".042" d="m21.256 27.629.004.784.215-.084s.089-.14.089-.15c0-.008.037-.19.037-.195l-.018-.224-.164-.108-.163-.023Z" clip-rule="evenodd"/><path fill="#6D390B" d="m14.055 20.05.266.294.091-.077-.267-.293-.09.077Z"/><path fill="#DC0000" fill-rule="evenodd" stroke="#000" stroke-width=".07" d="M13.986 20.525c.045-.079.149-.13.279-.046.13.085.185.233.14.312-.046.08-.192.103-.322.018-.13-.085-.143-.206-.098-.284Z" clip-rule="evenodd"/><path fill="#DC0000" fill-rule="evenodd" stroke="#000" stroke-width=".063" d="M14.719 20.195c.076.003.158.07.154.223-.004.153-.087.27-.163.267-.076-.003-.156-.12-.152-.273.004-.153.085-.22.16-.217Z" clip-rule="evenodd"/><path fill="#DC0000" fill-rule="evenodd" stroke="#000" stroke-width=".069" d="M14.346 20.258c.086-.023.198.016.238.167.04.152-.017.294-.103.317-.086.022-.21-.065-.252-.217-.04-.151.03-.244.117-.267Z" clip-rule="evenodd"/><path fill="#008D00" fill-rule="evenodd" stroke="#000" stroke-linecap="round" stroke-linejoin="round" stroke-width=".079" d="M16.491 22.686c-.26-.66-.968-1.756-1.69-1.228-.801.691.365 1.778 1.36 1.717l.33-.489Z" clip-rule="evenodd"/><path fill="#DC0000" fill-rule="evenodd" stroke="#000" stroke-width=".083" d="M14.43 20.752c.139-.093.361-.096.527.147.165.242.15.53.011.623-.138.093-.414.017-.579-.226-.165-.242-.098-.45.041-.544Z" clip-rule="evenodd"/><path fill="#DC0000" fill-rule="evenodd" stroke="#000" stroke-width=".059" d="M13.916 19.648c.064-.043.165-.044.24.067.076.11.07.242.006.284-.063.043-.189.008-.264-.103-.076-.11-.045-.206.018-.248Z" clip-rule="evenodd"/><path fill="#008D00" fill-rule="evenodd" stroke="#000" stroke-width=".083" d="M18.697 23.473c-.326-.581-1.216-1.307-2.124-.843-1.073.753.433 1.881 1.974 1.325.138-.143.012-.34.15-.482Z" clip-rule="evenodd"/><path fill="#008D00" fill-rule="evenodd" stroke="#000" stroke-width=".083" d="M21.722 23.816c-.326-.58-2.075-1.24-2.837-.684-.954 1.07.446 1.815 2.33 1.285.138-.143.369-.458.507-.6Z" clip-rule="evenodd"/><path stroke="#000" stroke-linecap="round" stroke-linejoin="round" stroke-width=".079" d="M14.929 21.646c.01 0 .196.234.196.234l-.01-.327M15.256 22.105l.196.197M15.946 21.975l.019.224.121-.01M15.947 22.721a3.438 3.438 0 0 1-.206-.159M15.489 22.74l-.262-.084"/><path stroke="#000" stroke-width=".079" d="m14.994 22.244-.252-.084"/><path stroke="#000" stroke-linecap="round" stroke-linejoin="round" stroke-width=".079" d="M14.518 22.096h-.215"/><path stroke="#000" stroke-linecap="round" stroke-linejoin="round" stroke-width=".042" d="M15.526 21.386v-.28"/><path stroke="#000" stroke-linecap="round" stroke-linejoin="round" stroke-width=".079" d="M15.153 22.898c-.028 0-.392-.02-.392-.02M15.807 23.15l-.28.094M16.227 22.15c.009-.009.233-.12.233-.12M15.591 21.833c0-.009-.074-.308-.074-.308"/><path stroke="#000" stroke-width=".079" d="M20.827 27.633c-.21.025-.329.038-.37.19-.022.103-.004.237.014.353.038.194.168.22.363.259h.336c.141 0 .37-.092.408-.267.025-.089.015-.2.015-.283-.018-.205-.157-.237-.355-.258l-.41.006ZM20.85 27.633l-.006.779M21.26 27.633l-.007.779"/><path fill="#008C00" fill-rule="evenodd" stroke="#286326" stroke-width=".071" d="M29.687 20.968c.123-.405-.304-.5-.399-.728-.194.381-.126.77-.092.974.08.33.374.56.423.84.086-.418.072-.674.068-1.085Z" clip-rule="evenodd"/><path fill="#008C00" fill-rule="evenodd" stroke="#286326" stroke-width=".094" d="M30.25 20.593c.01-.221.299-.38.415-.415-.072.431.058.633.023.81-.026.289-.554.73-.779.975.114-.474.228-.896.342-1.37Z" clip-rule="evenodd"/><path fill="#008C00" fill-rule="evenodd" stroke="#286326" stroke-width=".101" d="M29.642 22.32c.014-.026-.22-2.06.366-2.482.154.09.204.381.216.54.032.702.055 1.058-.582 1.942Z" clip-rule="evenodd"/><path fill="#DC0000" fill-rule="evenodd" stroke="#000" stroke-width=".087" d="M17.878 22.273c.168.053.316.236.225.534-.09.297-.23.488-.452.422-.286-.066-.338-.332-.247-.63.09-.297.307-.38.474-.326Z" clip-rule="evenodd"/><path fill="#DC0000" fill-rule="evenodd" stroke="#000" stroke-width=".1" d="M18.163 21.968c.053.038.085.116.02.205-.065.089-.172.12-.225.082-.053-.037-.064-.144.001-.233.065-.089.15-.091.204-.054ZM17.721 21.878c.064-.013.143.017.163.125.021.108-.029.207-.093.22-.063.014-.149-.051-.17-.16-.02-.107.036-.171.1-.185Z" clip-rule="evenodd"/><path fill="#DC0000" fill-rule="evenodd" stroke="#000" stroke-width=".1" d="M17.907 22.113c.062.018.117.083.084.188-.034.105-.126.167-.188.149-.063-.02-.106-.117-.073-.222.034-.105.114-.134.177-.115Z" clip-rule="evenodd"/><path fill="#DC0000" fill-rule="evenodd" stroke="#000" stroke-width=".079" d="M17.997 21.738c.052.015.098.064.07.143-.029.08-.105.126-.157.112-.052-.014-.088-.088-.06-.168.028-.079.095-.1.147-.087Z" clip-rule="evenodd"/><path fill="#DC0000" fill-rule="evenodd" stroke="#000" stroke-width=".1" d="M18.27 22.216c.057.04.089.114.014.188-.075.075-.193.093-.25.054-.057-.04-.064-.138.01-.213.076-.074.169-.068.226-.029Z" clip-rule="evenodd"/><path fill="#DC0000" fill-rule="evenodd" stroke="#000" stroke-width=".091" d="M17.554 22.052c.058-.007.126.027.135.128.01.1-.043.187-.101.194-.058.007-.13-.06-.139-.16-.01-.102.047-.155.105-.162Z" clip-rule="evenodd"/><path stroke="#000" stroke-width=".042" d="M16.685 27.296v-.009"/><path fill="#fff" fill-rule="evenodd" stroke="#000" stroke-width=".079" d="M24.217 23.393c.326.174.214.582-.02.69-.012-.267-.183-.348-.438-.41.134-.075.277-.318.458-.28Z" clip-rule="evenodd"/><path fill="#008D00" fill-rule="evenodd" stroke="#000" stroke-width=".083" d="M21.095 25.022c.12-1.773 1.467-1.988 2.36-1.681 1.306.948-.02 1.736-1.976 1.788-.174-.096-.21-.012-.384-.107Z" clip-rule="evenodd"/><path fill="#fff" fill-rule="evenodd" stroke="#000" stroke-width=".084" d="M21.487 23.032c-.418-.017-.544.39-.38.604.166-.224.38-.206.663-.13-.087-.132-.086-.414-.283-.474Z" clip-rule="evenodd"/><path fill="#fff" fill-rule="evenodd" stroke="#000" stroke-width=".079" d="M21.705 23.563c-.327.174-.257.582-.024.69.012-.267.184-.348.439-.41-.134-.075-.235-.318-.415-.28Z" clip-rule="evenodd"/><path fill="#F6AA00" fill-rule="evenodd" stroke="#000" stroke-linecap="round" stroke-linejoin="round" stroke-width=".079" d="M24.26 23.426a.295.295 0 0 0-.247-.292c-.162-.02-.318.092-.48-.027-.02-.013-.398-.339-.507-.49-.108-.06-.335-.172-.335-.172-.134.175-.228.375-.421.49-.097.039-.134.084-.309.07-.181-.085-.38-.129-.484-.037.088.175.064.396.027.564.065.037.137-.007.216.01.242.007.18.267.27.379.256.07.385-.053.422-.26.068-.107.274-.12.42-.16.16-.032.358-.082.503 0 .12.063.2.14.262.27 0 0 .191.018.383-.018.006-.115-.018-.324.28-.327Z" clip-rule="evenodd"/><path stroke="#000" stroke-width=".079" d="m22.568 22.628.01.42c.05.153.389.137.43.038l-.01-.477"/><path stroke="#000" stroke-linecap="round" stroke-width=".079" d="M22.68 23.523c.074-.024.101-.228.101-.228M22.98 23.469l.018-.168M23.288 23.468l-.028-.177M22.475 23.338c-.012.006-.16-.178-.112-.159M22.204 23.608c.018 0-.244-.272-.198-.254M21.962 23.103c-.007-.02-.02-.121.028-.103"/><path stroke="#000" stroke-linecap="round" stroke-width=".079" d="M22.547 23.041c-.4.344-.775.2-.83.49M23.534 23.237c.014-.017.062-.106.012-.106"/><path stroke="#000" stroke-linecap="round" stroke-linejoin="round" stroke-width=".079" d="M17.127 23.406c.005-.007.303-.032.303-.032l-.276-.175M18.942 23.705c.006-.008.304-.033.304-.033l-.237-.274M19.676 23.753c-.014-.048.313.007.304-.033l-.207-.224M19.285 22.709c.01 0 .196.233.196.233l-.01-.327M24.909 24.268c.007.006-.002.333-.002.333l.215-.233M22.515 24.184c.006.006-.037.302-.037.302l.32-.17M16.91 22.666l.195.196M16.552 22.992l.196.196M17.89 23.501l.276-.024M17.451 23.773l.277-.02M19.451 23.146l.197.197M20.268 23.248l.196.196M18.747 22.89l.196.197M16.685 22.268l.196.196M18.876 24.655l.182-.21M19.795 24.829l.181-.21M16.267 23.757l.276-.025"/><path stroke="#000" stroke-linecap="round" stroke-linejoin="round" stroke-width=".084" d="M16.79 23.56c-.045.002.14-.012.191.008l-.273-.195"/><path stroke="#000" stroke-linecap="round" stroke-linejoin="round" stroke-width=".079" d="m17.135 24.144.276-.025M20.411 23.877l.277-.02M19.941 24.264l.277-.02M20.274 22.841c.01 0 .197.234.197.234l-.01-.327M22.967 23.676l-.197.196M23.61 23.89l-.196.197M23.324 24.441l-.196.197M25.63 24.492l-.195.196M24.416 24.35l-.196.196M25.61 23.176l-.196.196M26.538 24.503l-.276-.026M24.22 25.117l.013-.277M25.095 23.864l.141-.239M25.533 24.13l.141-.24M25.899 24.89c-.006.006-.305-.003-.305-.003l.214.156M21.749 24.805c.006.006-.036.303-.036.303l.32-.17M19.29 24.264c.036-.027.22-.085.21-.124l-.196-.072"/><path fill="#9C4314" fill-rule="evenodd" stroke="#000" stroke-linejoin="round" stroke-opacity=".772" stroke-width=".079" d="M27.618 22.396c.13.1.348-1.044.315-1.402 0-.024-.041-.783.118-1.325.1-.183.104-1.552-.047-1.912.12-.01.265-.048.284-.195-.555.205-.686-1.172-1.22-1.962-.52-.793-1.167-1.255-1.838-1.736.052-.135.13-.261.232-.387-.824.413-2.109-1.083-4.004-.971-.428.043-.629.068-.738.329-.352.03-.713.11-.714.574 0 .112.101.316.328.318.31.09.563.02.773.452.016.119.04.33.056.448 0 0-.278-.352-.43-.411.04-.059-.024-.099.093-.19-.143-.082-.397-.015-.397-.015s-.55-.26-.994-.19c0-.046-.085-.358-.085-.358-.079.22-.252.208-.277.416-.048-.15-.112-.333-.16-.483-.155.212-.11.442-.165.663-.062.05-.184.053-.216-.09-.015-.173-.037-.19-.036-.398-.112.196-.247.292-.292.63-.047-.127-.072-.247-.12-.373.006.44-.373.703-.732 1.012-.101.187.015.19.023.284l.19.095.34-.024c.055.07.01.075.157.121.394.11.888-.364 1.275.381-.178.149-.356.498-.3.563.07 0-.143.1.146.008-.302.293-.506.678-.506.702-.033.082.122-.011.09.138.041-.112.07-.009.07-.009-.687.744-.022 1.541-.096 1.97.114.185.128-.003.271-.023.121.527.467.847.68 1.265-.11-.034-.328-.046-.447.004.01.198.19.387.332.56-.103.032-.198.064-.3.095-.213.11-.355.227-.505.392-.1.242.478.3.754.341-.025.087-.06.196-.01.291.435.042.938-.087.938-.11 0-.024.109-.085.109-.085.059.117.187.152.245.135.082 0 .21-.328.151-.579.158.19.306.49.464.68.048.05.11.014.149-.02.134.213.32.426.454.639.07.081.055.051.151.057.088-.028.163-.04.209-.21 0 0 .029.026.07.12.106.076.18-.105.24-.164.033-.08.163.016.163-.032.048.032.079.17.126.202.073-.027.145-.186.15-.355.072.148.094.136.15.176.047-.04.062-.194.11-.234-.01-.081.568.558.591.558.058.042.384.142.452.025.163.11.602.177.673.001.362.155.788-.018.77-.191.33.132.844.044.844.02.059-.007.218-.161.067-.278-1.097-.766-2.729-2.033-3.357-2.338 0-.226-.171-1.041-.355-1.266-.034-.116.042-.258.15-.25.427.399.582.36.809.425.244.193.332.488.576.756.116.037.252.154.216.04-.152-.383-.337-.754-.794-1.252.237.118.625.432.887.659.174.287.223.517.381.88.114.072.231.34.214.118-.024-.417-.317-1.08-.317-1.126.465.37.46.945.6 1.297.122.178.182.415.233.36.058-.081-.138-1.085-.138-1.085-.032-.126-.047-.27-.08-.396.347.2.468.96.63 1.87 0 .145.06.304.051.398.075.092.16.345.156.194 0 0 0-1.48-.1-1.821-.025-.181.045-.478.045-.478.126.616.26 1.281.387 1.896v.45l.189.19.118-1.113s-.142-1.302-.142-1.325v-.38c-.003-.133.12-.107.2.044.017.324.016.58.031.904.056.37.094.64.124 1.112.015.386.03 1.3.112 1.284Z" clip-rule="evenodd"/><path stroke="#000" stroke-linecap="round" stroke-linejoin="round" stroke-width=".079" d="M21.487 24.537c-.018-.041-.03-.235-.072-.234l-.115.174M24.948 23.482l-.024.196M23.225 24.924c-.045.005-.234-.036-.245.003l.136.16"/><path stroke="#000" stroke-width=".042" d="M20.331 20.565v-.02.357c.01.05.01.107.01.163a.685.685 0 0 0 .041.143c.003.06.02.1.04.154.005.052.023.096.042.142.004.053.021.08.03.123a.485.485 0 0 0 .051.112c.014.013.019.027.031.03"/><path stroke="#000" stroke-width=".042" d="M19.535 21.8c0-.016-.002-.066.021-.101.036-.052.065-.084.112-.133.056-.036.096-.078.143-.123.051-.032.077-.06.123-.091.028-.03.06-.044.092-.062.035-.017.06-.043.112-.05.031-.016.095-.011.143-.011.048 0 .065-.01.112-.01"/><path stroke="#000" stroke-linecap="round" stroke-opacity=".772" stroke-width=".079" d="M26.955 18.256c.158.114.331.363.402.813M26.067 18.408c.23.205.358.429.53.931"/><path fill="#00C600" fill-rule="evenodd" d="M25.516 18.654c.14.16.223.326.3.525Z" clip-rule="evenodd"/><path stroke="#000" stroke-linecap="round" stroke-opacity=".772" stroke-width=".079" d="M25.516 18.654c.14.16.223.326.3.525"/><path fill="#00C600" fill-rule="evenodd" d="M24.568 18.133c.182.21.474.529.624.852Z" clip-rule="evenodd"/><path stroke="#000" stroke-linecap="round" stroke-opacity=".772" stroke-width=".079" d="M24.568 18.133c.182.21.474.529.624.852"/><path stroke="#000" stroke-opacity=".772" stroke-width=".079" d="M20.715 12.793c.013.91 1.345.688 1.456 1.542.255.932.149 1.535-.224 1.831-.211.218-.05.557.014.73.346.878.868 1.019 1.093 1.776"/><path stroke="#000" stroke-linecap="round" stroke-opacity=".772" stroke-width=".079" d="M20.217 13.415c0-.017.031-.048.062-.062.133-.043.214-.046.35-.054.116 0 .225.005.341.023"/><path stroke="#000" stroke-opacity=".772" stroke-width=".079" d="m21.94 21.762.463.753M23.415 20.643l2.478 1.897M23.35 21.162l1.81 1.59M19.942 19.191c.239.474.913 1.103 1.317 1.203a1.912 1.912 0 0 0-.052-.632"/><path stroke="#000" stroke-opacity=".772" stroke-width=".079" d="M20.71 18.921c.238.474.456.978 1.089 1.265.065-.46-.076-1.085-.425-1.721"/><path stroke="#000" stroke-opacity=".772" stroke-width=".079" d="M20.822 18.288c.217.13.414.19.56.207.065-.46.122-.946-.252-1.604"/><path stroke="#000" stroke-opacity=".772" stroke-width=".079" d="M19.983 18.56c.322.348.58.365.726.383.107-.315.152-.982.021-1.7M19.151 18.838c.32.414 1.058 1.2 1.455 1.486.014-.066.034-.097.029-.307M24.616 14.291c.343.395 1.666 1.725 1.928 2.348.452 1.017 1.285 1.21 1.493 1.097M22.35 19.79c.119.486.335 1.371.646 1.511.054-.052.1-.149.094-.36"/><path stroke="#000" stroke-opacity=".772" stroke-width=".079" d="M20.552 17.03c.14.142.171.272.316.29.177-.145.489-.952.377-1.547"/><path stroke="#000" stroke-opacity=".772" stroke-width=".079" d="M19.819 17.007c.066.32.127.59.354.593.376-.315.488-1.02.376-1.616M19.672 18.701l-.17-.373M23.335 21.72l1.136 1.033M22.794 21.305l.35.987M21.25 20.4c.238.474.746 1.157 1.15 1.258.014-.066.006-.123.001-.334M20.633 20.307c.239.473.94 1.244 1.344 1.47.013-.065.072-.078.067-.288M22.379 21.639l.506.84M21.773 19.531c.217.131.446.242.59.259.023-.512-.155-1.338-.522-1.97"/><path stroke="#000" stroke-opacity=".772" stroke-width=".079" d="M19.253 16.848c-.064.242-.055.507.171.51.63-.272.254-.542.794-1.46M20.083 15.182c.238.473.308.795.68.917.074-.034.26-.87-.368-1.55"/><path stroke="#000" stroke-opacity=".772" stroke-width=".079" d="M20.848 15.578a.536.536 0 0 0 .447.168c.142-.284-.162-1.088-.562-1.504M24.361 14.922c.3.421 1.613 1.892 2.176 2.361.127-.016.314.141.139-.39"/><path stroke="#000" stroke-opacity=".772" stroke-width=".079" d="M24.214 15.852c.3.42.847 1.134 1.41 1.604.142.052.279.035.324-.001.048-.047.004-.38.016-.72"/><path stroke="#000" stroke-opacity=".772" stroke-width=".079" d="M23.857 16.383c.343.378.796.813 1.35 1.317.141.052.264.055.28-.001.013-.055.039-.042.008-.381"/><path stroke="#000" stroke-opacity=".772" stroke-width=".079" d="M23.379 17.06c.343.378.656.657.967.726.15.018.229.02.245-.035.013-.056.004-.32 0-.625M22.892 17.564c.342.378.343.535.654.604.15.018.26-.001.288-.053.049-.107.065-.224.06-.528"/><path stroke="#000" stroke-linecap="round" stroke-opacity=".772" stroke-width=".079" d="M22.753 15.094c.346.063.374-.235.346-.449-.034-.268-.223-.385-.447-.328M22.561 16.278c.163.063.367.059.442-.128.06-.142.037-.49-.187-.433"/><path stroke="#000" stroke-linecap="round" stroke-opacity=".772" stroke-width=".079" d="M22.806 15.712c.31.02.34-.123.328-.302-.012-.208-.153-.367-.378-.31"/><path stroke="#000" stroke-opacity=".772" stroke-width=".079" d="M23.107 14.9c.454-.272 1.76.822.767 1.171"/><path stroke="#000" stroke-opacity=".772" stroke-width=".079" d="M23.01 15.676c.454-.273 1.453.62.44.968"/><path stroke="#000" stroke-opacity=".772" stroke-width=".079" d="M22.84 16.293c.507.018 1.09.83.097.93"/><path stroke="#000" stroke-linecap="round" stroke-opacity=".772" stroke-width=".079" d="M22.244 16.727c.163.062.257.103.402-.022a.29.29 0 0 0-.08-.428"/><path stroke="#000" stroke-opacity=".772" stroke-width=".079" d="M18.006 15.745c.171-.221.59-.362.733-.07M22.55 16.766c.295.096.764.917-.024 1"/><path stroke="#000" stroke-linecap="round" stroke-opacity=".772" stroke-width=".079" d="M22.174 13.055c.34.064.512.614.783.656.496.074-.064-.574-.172-.646"/><path stroke="#000" stroke-opacity=".772" stroke-width=".079" d="M17.158 15.404c.153.006.296-.022.393-.203M18.67 16.979c.085.157.303.094.483-.015.247-.14.039-.636.626-1.058M18.982 19.063c.32.414.928 1.032 1.306 1.364.014-.066.075-.1.07-.31M20.276 20.398l.728 1.012M21.794 20.156c.119.487.593 1.258.904 1.398.054-.053.09-.262.085-.473M21.625 21.549 21.58 22M22.714 19.293c.119.487.298 1.671.572 1.886.053-.052.164-1.036.159-1.247M22.346 19.26c.161.019.256.018.382.017.022-.512-.2-1.114-.566-1.746"/><path fill="#00C600" fill-rule="evenodd" d="m23.248 17.996-.025.518Z" clip-rule="evenodd"/><path stroke="#000" stroke-linecap="round" stroke-opacity=".772" stroke-width=".079" d="m23.248 17.996-.025.518"/><path stroke="#000" stroke-opacity=".772" stroke-width=".079" d="M21.42 17.775a.922.922 0 0 0 .43.077c.14-.693-.213-.694-.654-1.184"/><path stroke="#000" stroke-linecap="round" stroke-opacity=".772" stroke-width=".079" d="M23.388 13.166c.34.064.124.573.586.731.389.13.17-.406.063-.479"/><path stroke="#000" stroke-opacity=".772" stroke-width=".079" d="M22.883 14.309c.245-.179 1.123.069 1.42.318.084.08.214.396-.189.687M18.234 14.73c.705-.688 1.031-.61 1.838-.103a.46.46 0 0 0 .316-.04c.041-.1.002-.2-.05-.276-.361-.259-.63-.333-.97-.286M19.247 17.28c-.158.233-.288.74-.02 1.306.01.065.079.13.01.174-.132.066-.191.175-.265.285M23.352 20.889c.006-.857-.12-1.54-.461-2.159M21.872 17.555c.113-.012.255.02.325-.014.034-.125-.063-.28-.101-.397.065-.007.144-.007.195-.022.029-.108 0-.26 0-.39"/><path fill="#fff" fill-rule="evenodd" stroke="#000" stroke-opacity=".772" stroke-width=".079" d="M17.642 15.116c.027-.19.197-.401.388-.51.091-.051.153.01.194.03.05.082.02.235 0 .296-.052.102-.154.184-.337.256-.096-.041-.15-.03-.245-.072Z" clip-rule="evenodd"/><path stroke="#000" stroke-opacity=".772" stroke-width=".079" d="M19.275 18.75c.041.02.45.469.45.469h.244l.02-.684"/><path stroke="#000" stroke-linecap="round" stroke-linejoin="round" stroke-opacity=".772" stroke-width=".079" d="M19.94 17.434c-.082.268-.052.537 0 .806"/><path stroke="#000" stroke-opacity=".772" stroke-width=".079" d="m19.407 18.701.096-.373M19.582 17.291c-.122.225-.157.594-.094.861M22.919 18.783l-.232.005"/><path fill="#9F3000" fill-rule="evenodd" stroke="#000" stroke-width=".079" d="M14.643 17.916c.033.1-.076.046-.1.074-.114.041-.296-.1-.411-.44.056-.094.385-.299.49-.255 0 0 .208.079.233.166-.04.126-.219.47-.212.455Z" clip-rule="evenodd"/><path stroke="#000" stroke-opacity=".772" stroke-width=".079" d="m22.918 18.783.004-.455M23.294 21.172l.065 1.11"/><path fill="#238700" fill-rule="evenodd" stroke="#000" stroke-width=".079" d="M14.636 17.955c.224.21.575.069.631.583.024.288-.383.863 0 1.383.136.2.488.416.488.416.184.205.24.57.36.855.253.378.602.46.879.367 0 0 .911-.407.911-.415 0-.008-.463-.624-.463-.615 0 .007-.52.439-.528.439-.056-.008-.36.024-.472-.36-.007-.49-.25-.762-.639-.959-.197-.15-.354-.386-.184-.72.099-.303.197-.815-.152-1.158-.224-.15-.383-.267-.623-.312-.317.12-.315.088-.208.496Z" clip-rule="evenodd"/><path stroke="#000" stroke-opacity=".772" stroke-width=".079" d="M19.142 13.676c-.123.224-.111.359-.091.583M18.52 14.78h.285c.076-.001.109-.03.164-.07a.895.895 0 0 0 .112-.082.517.517 0 0 1 .102-.062c.058 0 .103.004.153.02.046.02.084.048.123.072.038.016.072.02.132.02.063 0 .128-.002.184.01a.58.58 0 0 1 .153.031c.05.032.08.069.112.103.002.054.02.087.02.142 0 .048.006.112-.01.143 0 .06-.009.1-.02.143-.037.036-.05.063-.102.072-.04.031-.1.03-.163.03h-.163c-.036-.03-.079-.06-.123-.102-.024-.055-.04-.073-.092-.091a1.005 1.005 0 0 0-.153-.01c-.05 0-.092.003-.122-.021a.238.238 0 0 0-.113-.051c-.046-.013-.1-.01-.153-.01h-.081"/><path stroke="#000" stroke-opacity=".772" stroke-width=".079" d="m18.785 14.872.01.01c-.023-.023-.015-.012.041.01.068.016.14.029.214.03.07 0 .135.01.205.011.048 0 .1.004.142-.01"/><path stroke="#000" stroke-opacity=".772" stroke-width=".079" d="M19.44 14.709h-.011c.032 0 .013-.002-.03.051-.005.058-.017.09.01.143.033.01.09.036.112.061.033.024.03.045.03.102-.019.032-.037.058-.06.102a.604.604 0 0 0-.062.255v.103M23.134 13.52c.011.022.207.413.45.165.036-.043.049-.073.049-.145a.435.435 0 0 0-.014-.112"/><path fill="#fff" fill-rule="evenodd" stroke="#000" stroke-width=".043" d="M17.243 21.378c.118.165.332.08.375-.051-.147.01-.203-.077-.255-.21-.03.076-.153.167-.12.261Z" clip-rule="evenodd"/><path stroke="#000" stroke-opacity=".772" stroke-width=".079" d="M24.166 13.884a.77.77 0 0 0 .521.199c.076 0 .435-.091.55-.251"/><path stroke="#000" stroke-opacity=".772" stroke-width=".079" d="M24.6 14.068c.005.03.015.143.015.217-.001.079.018.144-.012.21-.032.084-.068.117-.147.146-.064.029-.078 0-.15.003M22.874 13.674c0 .005.221.53.294.583"/><path fill="#fff" fill-rule="evenodd" stroke="#000" stroke-width=".043" d="M17.387 21.283c.117.164.331.08.374-.052-.147.01-.202-.077-.254-.21-.031.076-.154.168-.12.262Z" clip-rule="evenodd"/><path fill="#fff" fill-rule="evenodd" stroke="#000" stroke-width=".043" d="M17.61 21.187c.118.164.332.08.375-.052-.147.01-.203-.077-.254-.21-.032.077-.154.168-.12.262Z" clip-rule="evenodd"/><path stroke="#000" stroke-opacity=".772" stroke-width=".079" d="M21.612 13.405h.073c.229-.039 1 .103 1.133.245M21.757 17.129c-.005-.005.01.088.006.083.028.029-.004-.077-.02-.141a.383.383 0 0 1-.03-.174v-.057M20.316 20.526v.02-.083.42c.01.05.01.107.01.164a.654.654 0 0 0 .041.143c.003.06.02.1.041.152a.474.474 0 0 0 .041.144c.004.052.022.08.03.122.015.05.034.081.052.112.013.014.026.082.038.086"/><path stroke="#000" stroke-opacity=".772" stroke-width=".079" d="M19.693 19.924v.276c.014.067.016.139.03.204.007.058.02.108.032.163.005.055.07.248.092.296.023.045.06.092.081.122.04.013.074.027.123.03h.143c.057-.01.077-.016.102-.06.013-.028.013-.047.03-.061M19.52 21.781c0-.016-.002-.067.021-.102.036-.051.065-.083.112-.133.056-.035.195-.226.613-.336.048 0 .066-.01.112-.01M19.57 20.855c.003.004.228.122.345.127"/><path stroke="#000" stroke-width=".042" d="M20.212 21.252h-.01m.01 0c-.007 0-.004 0 0 0Z"/><path fill="#FFBC00" fill-rule="evenodd" stroke="#000" stroke-width=".079" d="M20.113 21.241c-.034-.022-1.116-.335-1.094-.335.022 0-.396.285-.396.285l1.032.352.413-.302h.045Z" clip-rule="evenodd"/><path fill="#F7B200" fill-rule="evenodd" stroke="#000" stroke-width=".079" d="M19.078 20.898c.068-.174.05-.403-.174-.545-.51-.313-1.367-.286-1.53.08-.176-.025-.266.118-.292.26-.455.123-.034.649.079.67.153.052.194.014.22-.036.086.02.202-.07.232-.133.108.02.19.018.192-.09.31.29.736.49.784.117l.489-.323Z" clip-rule="evenodd"/><path stroke="#000" stroke-width=".079" d="M17.083 20.684c-.029.202.107.42.323.63M17.366 20.432c-.029.202.03.547.245.757M17.686 20.215c-.198.166-.09.68.126.891"/><path fill="#288800" fill-rule="evenodd" stroke="#000100" stroke-linejoin="round" stroke-width=".079" d="M18.216 16.008c.457.605-.182 1.273-.74 1.659-.658.518-1.014 1.527.147 1.589.42-.008.875-.045 1.13.283.257.328.266.935-.379 1.323-.063-.055-.157-.222-.227-.272-.07-.051-.116.014-.18-.042-.022-.208.319-.518-.003-.593-.417.07-1.875.077-1.856-1.314.032-.31.197-.658.463-1.012s.995-.793 1.065-.985c.113-.166-.093-.49-.256-.534-.134-.357.457-.738.836-.102Z" clip-rule="evenodd"/><path stroke="#000" stroke-width=".079" d="m17.2 17.078.016.813M16.774 17.402l.868.127M17.414 16.896l.734.15"/><path stroke="#000" stroke-opacity=".642" stroke-width=".079" d="m16.642 17.543.61.362M16.206 18.309l.478.506M16.646 17.576l.081 1.199M16.317 18.08l.785.016"/><path stroke="#000" stroke-width=".079" d="M15.497 20.104c.121-.115.248-.28.327-.442M15.743 20.31c.164-.102.375-.181.583-.224M16.044 21.007c.142-.119.295-.244.4-.41M16.05 21.034c.25-.006.504-.032.75-.077M16.496 21.527c.186-.07.356-.177.494-.285M15.202 19.854c.145-.117.29-.25.406-.387M15.096 19.48c.157-.043.31-.123.443-.197M15.15 19.09a1.4 1.4 0 0 1 .413-.078M15.269 18.731a.911.911 0 0 1 .41.042M15.294 18.504a.692.692 0 0 1 .412-.093M15.231 18.335l.443-.302M15.153 18.211l.377-.373M15.046 18.159l.276-.471M16.147 15.373l-.003.672M16.826 15.48a2.267 2.267 0 0 1-.416.593M16.325 15.351c-.197-.016-.383.091-.533.218"/><path fill="#9D4600" fill-opacity=".994" fill-rule="evenodd" stroke="#000" stroke-linecap="round" stroke-linejoin="round" stroke-width=".042" d="M17.376 15.863c.328.12.763.286.717 1.249.272-.294.396-.707.052-1.227-.232-.25-.571-.303-.769-.022Z" clip-rule="evenodd"/><path stroke="#000" stroke-width=".079" d="M17.524 16.185c.014-.187.274-.417.412-.468M17.625 16.353c.069-.238.366-.427.503-.478M17.63 16.69c.128.003.608-.264.718-.422M17.67 16.513c.154-.108.444-.35.582-.402M18.095 16.707c.115-.065.155-.049.276-.174"/><path stroke="#000" stroke-width=".079" d="M17.376 15.87c.33.106.733.35.706 1.242"/><path stroke="#000" stroke-opacity=".642" stroke-width=".079" d="m16.28 19.32.448-.545M16.335 19.432h.401M16.111 18.889l.56.319"/><path fill="#9D4600" fill-rule="evenodd" stroke="#000" stroke-width=".042" d="M16.866 18.834a.906.906 0 0 1-.262-.064c.043.722.116.759.23 1.031.341.217.933.167 1.183.112.027.038.175.222.083.275-.098.062-.137.18-.14.373.057.066.117.009.176.051.06.042.129.19.183.318.055.128.727-.499.609-.969-.078-.44-.376-.591-.376-.591-.422-.211-1.014-.071-1.23-.152-.27-.06-.44-.292-.456-.384Z" clip-rule="evenodd"/><path stroke="#000" stroke-width=".079" d="M18.063 20.109c.363-.167.748-.18.853-.165M16.64 19.143c.079-.047.195-.145.329-.143M17.309 19.938c.064-.382.228-.64.313-.706M17.527 19.969c.065-.383.244-.656.328-.721M17.771 19.944c.065-.383.23-.631.313-.696M17.955 19.914a.985.985 0 0 1 .363-.637M18.077 20.023c.065-.382.39-.595.474-.66M18.087 20.082c.221-.319.586-.474.69-.496M17.08 19.889c.065-.383.234-.592.318-.657M16.861 19.819c.065-.383.264-.577.348-.641M17.997 20.606c.172-.135.289.301.297.354.009.053.041.107.126.156M16.728 19.556c.07-.194.223-.407.308-.472"/><path fill="#fff" fill-rule="evenodd" stroke="#000" stroke-width=".084" d="M17.67 20.232c-.224.354.034.667.322.542-.033-.245-.095-.4.128-.636-.158.01-.3-.047-.45.094Z" clip-rule="evenodd"/><path stroke="#000" stroke-width=".079" d="m16.828 17.629.106.52M16.934 18.105l-.19.64M18.055 20.142c.392-.076.77 0 .867.04"/><path stroke="#000" stroke-width=".085" d="M18.009 20.205c.402-.006.753.159.84.223"/><path stroke="#000" stroke-width=".084" d="M18.013 20.28c.387.087.56.284.628.367M17.987 20.37c.347.191.425.35.467.448"/><path fill="#296526" d="m12.426 22.185-.187.044.202.862.187-.044-.202-.862Z"/><path fill="#296526" fill-rule="evenodd" d="m13.791 25.144.392.446.146-.124-.368-.462-.17.14ZM25.744 27.049l-.485.342.107.158.499-.316-.121-.184ZM28.303 24.916l-.433.406.128.142.45-.383-.145-.165ZM29.675 22.05l-.157.39.086.11.169-.369-.098-.13Z" clip-rule="evenodd"/><path stroke="#000" stroke-width=".079" d="M16.856 19.841c-.21-.346-.237-.708-.248-1.062.112.054.2.083.264.064M16.124 15.353c-.173-.432.027-.667.243-.873"/><path fill="#000" fill-rule="evenodd" d="M16.407 14.36c-.018-.023-.047-.033-.08-.03a.187.187 0 0 0-.102.05.206.206 0 0 0-.062.097c-.01.035-.005.067.013.089.017.022.046.033.08.029a.188.188 0 0 0 .101-.049.206.206 0 0 0 .063-.097c.009-.035.004-.067-.013-.09Z" clip-rule="evenodd"/><path stroke="#000" stroke-width=".102" d="M15.285 17.655c-.036 0-.663-.085-.663-.085M15.02 18.112c0-.024-.41-.53-.41-.53"/></g><defs><clipPath id="a"><rect width="42" height="42" fill="#fff" rx="21"/></clipPath></defs></svg>