<svg xmlns="http://www.w3.org/2000/svg" width="42" height="42" fill="none"><circle cx="21" cy="21" r="21" fill="#222"/><path fill="#F3F3F3" d="m28.031 10.524-4.868 7.226c-.337.492.31 1.087.776.673l4.791-4.17c.13-.103.311-.025.311.156v13.026c0 .182-.233.26-.336.13L14.202 10.214a2.396 2.396 0 0 0-1.89-.88h-.518c-1.347 0-2.46 1.113-2.46 2.485v18.336a2.487 2.487 0 0 0 4.61 1.294l4.868-7.225c.336-.492-.31-1.088-.777-.673l-4.791 4.143c-.13.104-.31.026-.31-.155v-13c0-.182.232-.26.336-.13L27.772 31.76c.466.57 1.166.88 1.89.88h.519a2.487 2.487 0 0 0 2.486-2.485V11.819a2.487 2.487 0 0 0-2.486-2.486c-.88 0-1.684.44-2.15 1.191Z"/></svg>