<svg width="42" height="42" viewBox="0 0 42 42" fill="none" xmlns="http://www.w3.org/2000/svg">
<rect width="42" height="42" rx="21" fill="white"/>
<mask id="mask0_6559_179115" style="mask-type:luminance" maskUnits="userSpaceOnUse" x="9" y="10" width="24" height="22">
<path d="M32.1998 10.0195H9.7998V31.9817H32.1998V10.0195Z" fill="white"/>
</mask>
<g mask="url(#mask0_6559_179115)">
<path d="M19.3817 20.3446L11.1406 12.2695V20.3446H19.3817Z" fill="#FF86FF"/>
<path d="M10.952 10.2155L21.4765 20.5342C21.6013 20.6578 21.6713 20.8246 21.6713 20.9986C21.6713 21.1725 21.6013 21.3394 21.4765 21.463C21.412 21.5281 21.3343 21.5791 21.2484 21.6128C21.1625 21.6465 21.0703 21.662 20.9779 21.6585H10.4734C10.3848 21.6591 10.297 21.6424 10.215 21.6096C10.133 21.5766 10.0586 21.5281 9.99597 21.4667C9.93334 21.4052 9.88377 21.3322 9.85019 21.2519C9.8166 21.1715 9.79965 21.0854 9.80031 20.9986V10.675C9.80121 10.5445 9.84152 10.4172 9.91616 10.3092C9.9908 10.2012 10.0964 10.1174 10.2197 10.0682C10.3429 10.019 10.4783 10.0068 10.6086 10.033C10.7389 10.0592 10.8584 10.1227 10.952 10.2155Z" fill="#FF86FF"/>
<path d="M22.6226 21.6582L30.8586 29.7332V21.6582H22.6226Z" fill="#E200F1"/>
<path d="M31.0469 31.7821L20.5225 21.4634C20.3976 21.3399 20.3276 21.1729 20.3276 20.9991C20.3276 20.8251 20.3976 20.6583 20.5225 20.5347C20.5882 20.4716 20.6662 20.4223 20.7519 20.3895C20.8375 20.3568 20.9291 20.3413 21.021 20.3441H31.5505C31.7276 20.3441 31.8976 20.4131 32.0228 20.5359C32.1481 20.6588 32.2185 20.8253 32.2185 20.9991V31.3227C32.2192 31.4091 32.2024 31.4948 32.1691 31.5749C32.1358 31.6548 32.0867 31.7277 32.0246 31.789C31.9625 31.8503 31.8887 31.8991 31.8072 31.9323C31.7259 31.9655 31.6386 31.9825 31.5505 31.9825C31.4579 31.9841 31.3659 31.9671 31.2802 31.9326C31.1945 31.8982 31.1168 31.847 31.0519 31.7821" fill="#E200F1"/>
<path d="M21.4749 21.4637L10.9504 31.7824C10.8857 31.8475 10.8081 31.8988 10.7223 31.9333C10.6366 31.9677 10.5445 31.9846 10.4519 31.9828C10.3633 31.9834 10.2755 31.9669 10.1935 31.9339C10.1116 31.901 10.0371 31.8524 9.97446 31.791C9.91183 31.7296 9.86229 31.6566 9.8287 31.5762C9.79511 31.4959 9.77816 31.4098 9.77883 31.3229V20.9994C9.77882 20.9129 9.79625 20.8273 9.83013 20.7475C9.86402 20.6677 9.91369 20.5953 9.97625 20.5344C10.0388 20.4735 10.113 20.4254 10.1947 20.3927C10.2763 20.3602 10.3637 20.3437 10.4519 20.3443H21.0012C21.1359 20.3388 21.2691 20.3733 21.3833 20.4433C21.4976 20.5133 21.5875 20.6156 21.6415 20.7366C21.6954 20.8577 21.7107 20.9919 21.6854 21.1216C21.6602 21.2514 21.5955 21.3706 21.4999 21.4637" fill="#FF59FF"/>
<path d="M11.1406 29.7332L19.3817 21.6582H11.1406V29.7332Z" fill="#FF59FF"/>
<path d="M9.99933 30.8585L20.5238 20.5398C20.5882 20.4747 20.6659 20.4236 20.7518 20.3899C20.8377 20.3562 20.9299 20.3407 21.0224 20.3443C21.1996 20.3443 21.3695 20.4132 21.4948 20.5361C21.62 20.6589 21.6904 20.8256 21.6904 20.9993V31.3229C21.691 31.4093 21.6743 31.495 21.641 31.575C21.6078 31.6551 21.5586 31.7279 21.4965 31.7892C21.4344 31.8506 21.3605 31.8993 21.2792 31.9325C21.1978 31.9657 21.1105 31.9828 21.0224 31.9828H10.473C10.3846 31.9835 10.297 31.9666 10.2155 31.933C10.1341 31.8993 10.0605 31.8498 9.99933 31.7873C9.93632 31.7268 9.88626 31.6545 9.85208 31.5748C9.81791 31.495 9.80029 31.4094 9.80029 31.3229C9.80029 31.2364 9.81791 31.1508 9.85208 31.071C9.88626 30.9913 9.93632 30.9191 9.99933 30.8585Z" fill="#F41AFA"/>
<path d="M20.3314 22.5898L12.0952 30.665H20.3314V22.5898Z" fill="#F41AFA"/>
<path d="M20.5213 20.534L31.0457 10.2153C31.1109 10.1511 31.1887 10.1007 31.2744 10.0671C31.3602 10.0334 31.4519 10.0174 31.5443 10.0198C31.632 10.0198 31.7189 10.0367 31.7999 10.0696C31.881 10.1025 31.9546 10.1508 32.0166 10.2116C32.0787 10.2724 32.1279 10.3446 32.1615 10.4241C32.1951 10.5036 32.2124 10.5888 32.2124 10.6748V20.9984C32.213 21.0848 32.1962 21.1705 32.163 21.2505C32.1297 21.3306 32.0805 21.4033 32.0185 21.4647C31.9563 21.526 31.8825 21.5747 31.8011 21.6079C31.7197 21.6412 31.6324 21.6583 31.5443 21.6583H20.9999C20.8653 21.6623 20.7326 21.6267 20.6188 21.5561C20.5051 21.4853 20.4156 21.3828 20.362 21.2618C20.3083 21.1408 20.2929 21.0067 20.3177 20.877C20.3426 20.7472 20.4065 20.6278 20.5013 20.534" fill="#BC00DE"/>
<path d="M30.8586 12.2695L22.6226 20.3446H30.8586V12.2695Z" fill="#BC00DE"/>
<path d="M32.0023 11.1442L21.4778 21.463C21.412 21.5262 21.334 21.5761 21.2484 21.6096C21.1629 21.6432 21.0714 21.6598 20.9792 21.6585C20.8906 21.6592 20.8029 21.6425 20.7209 21.6096C20.6389 21.5766 20.5645 21.5281 20.5018 21.4667C20.4392 21.4052 20.3896 21.3322 20.356 21.2519C20.3225 21.1715 20.3055 21.0854 20.3062 20.9986V10.675C20.3062 10.5886 20.3236 10.503 20.3575 10.4232C20.3914 10.3434 20.4411 10.271 20.5036 10.2101C20.5661 10.1492 20.6404 10.1011 20.7221 10.0684C20.8037 10.0358 20.8911 10.0193 20.9792 10.02H31.5087C31.6007 10.0166 31.6923 10.0318 31.7781 10.0646C31.8639 10.0974 31.9419 10.1471 32.0072 10.2106C32.1324 10.335 32.2025 10.5027 32.2025 10.6774C32.2025 10.8521 32.1324 11.0198 32.0072 11.1442" fill="#9900CC"/>
<path d="M21.6714 19.411L29.9125 11.3359H21.6714V19.411Z" fill="#9900CC"/>
</g>
</svg>
