<svg width="42" height="42" viewBox="0 0 42 42" fill="none" xmlns="http://www.w3.org/2000/svg">
<circle cx="21" cy="21" r="20" fill="#222222"/>
<path d="M16.0234 18.9673C10.9066 17.7757 7.64726 19.6682 6.49072 20.5093L21.0001 6L36.0001 21.035C35.4043 21.5257 31.8295 24.3645 25.7314 22.8224" stroke="#0009FF"/>
<path d="M25.7313 22.7871C31.8294 24.3292 35.4042 21.5255 36 20.9998L21 36.0348L6 21.0348V20.9998L6.49065 20.5091C7.6472 19.668 10.9065 17.7755 16.0234 18.8619" stroke="#0009FD" stroke-linecap="round"/>
<path d="M15.8836 17.5225C15.8836 17.873 15.9537 18.1183 16.0237 18.4337C16.4093 19.9407 17.7761 20.8519 19.984 21.3776L20.0541 21.4127C20.6499 21.5178 21.2107 21.623 21.5962 21.7632C23.699 22.2889 24.2948 23.0248 24.2948 24.2164C24.2948 24.3566 24.2948 24.4968 24.2597 24.637C24.2597 24.672 24.2247 24.7071 24.2247 24.7421C24.2247 24.8473 24.1896 24.9524 24.1546 25.0576C24.1195 25.1276 24.1195 25.1627 24.0845 25.1977C24.0495 25.3029 24.0144 25.373 23.9794 25.4431C23.9443 25.5132 23.9093 25.5482 23.8742 25.5833C23.8392 25.6533 23.8041 25.7234 23.734 25.7935C23.699 25.8636 23.6289 25.8987 23.5938 25.9337C23.5237 26.0038 23.4537 26.0739 23.3836 26.109C23.3485 26.144 23.2784 26.179 23.2083 26.2141C23.1382 26.2842 23.0681 26.3192 22.963 26.3543C22.8929 26.3893 22.7878 26.3893 22.7177 26.4244C22.6476 26.4594 22.5424 26.4945 22.4373 26.5295C22.3672 26.5646 22.2621 26.5646 22.1569 26.5996C22.0518 26.6347 21.9116 26.6697 21.7714 26.6697C21.5611 26.7047 21.3158 26.7398 21.0705 26.7398H20.9653C20.7901 26.7398 20.6499 26.7398 20.4747 26.7047C20.4046 26.7047 20.3345 26.6697 20.2294 26.6697C20.0892 26.6347 19.984 26.6347 19.8789 26.5996C19.8088 26.5646 19.7037 26.5646 19.5985 26.5295L19.2831 26.4244C19.213 26.4244 19.1079 26.3893 19.0378 26.3543C18.9326 26.3192 18.8625 26.2491 18.7574 26.2141C18.7223 26.179 18.6523 26.144 18.5822 26.109C18.477 26.0739 18.4069 26.0038 18.3368 25.9337C18.3018 25.8987 18.2317 25.8636 18.1966 25.8286C18.1266 25.7585 18.0565 25.6533 17.9864 25.5833L17.8812 25.4781C17.8111 25.373 17.7761 25.2678 17.706 25.1627C17.6709 25.1276 17.6359 25.0926 17.6359 25.0576C17.4957 24.7772 17.3906 24.4618 17.3555 24.1113H15.498C15.6032 26.5996 17.706 28.1417 20.2644 28.3519V30.2094H21.5611V28.3519C24.0845 28.1417 26.1873 26.7398 26.1873 24.1463C26.1873 23.4454 26.0121 22.8496 25.7317 22.359C25.1009 21.2375 23.8041 20.5716 21.8766 20.116L21.5261 20.0459C20.9653 19.9758 20.4747 19.8706 20.0892 19.7305C19.949 19.6604 19.8438 19.6253 19.7037 19.5903C19.6336 19.5552 19.5284 19.5202 19.4583 19.4851C19.3532 19.4501 19.248 19.415 19.178 19.38L18.9677 19.2748C18.8976 19.2398 18.8275 19.1697 18.7574 19.1347C18.6873 19.0996 18.6523 19.0646 18.5822 19.0295C18.5121 18.9945 18.477 18.9244 18.4069 18.8893C18.3719 18.8192 18.3018 18.7842 18.2667 18.7491C18.1966 18.679 18.1616 18.644 18.1266 18.5739C18.0915 18.5389 18.0565 18.4688 18.0214 18.4337C17.9864 18.3987 17.9513 18.3286 17.9163 18.2585C17.8812 18.2234 17.8462 18.1533 17.8462 18.1183C17.8111 18.0482 17.7761 17.9781 17.7761 17.908C17.7761 17.8379 17.741 17.8029 17.741 17.7678C17.706 17.6627 17.706 17.5576 17.706 17.4524V17.3823C17.706 16.3309 18.5471 15.3496 20.1943 15.1393V15.1744C20.4046 15.1393 20.5798 15.1043 20.7901 15.1043H20.8953C21.1055 15.1043 21.3158 15.1043 21.5261 15.1393C22.998 15.3146 24.0144 16.1907 24.1546 17.6276H26.0121C25.942 15.2445 24.0144 13.6674 21.5261 13.4571V11.5996H20.2294V13.4571C17.706 13.7024 15.8836 15.2094 15.8836 17.5225Z" fill="#0109FA"/>
</svg>
