<svg xmlns="http://www.w3.org/2000/svg" width="42" height="42" fill="none"><circle cx="21" cy="21" r="20" fill="#222"/><path stroke="#0009FF" d="M16.023 18.967c-5.116-1.191-8.376.701-9.532 1.542L21 6l15 15.035c-.597.49-4.171 3.33-10.27 1.787"/><path stroke="#0009FD" stroke-linecap="round" d="M25.731 22.787C31.83 24.33 35.404 21.526 36 21L21 36.035l-15-15V21l.49-.49c1.157-.842 4.416-2.735 9.533-1.648"/><path fill="#0109FA" d="M15.884 17.523c0 .35.07.595.14.91.385 1.508 1.752 2.419 3.96 2.945l.07.035c.596.105 1.157.21 1.542.35 2.103.526 2.699 1.262 2.699 2.453 0 .14 0 .28-.035.421 0 .035-.035.07-.035.105 0 .105-.035.21-.07.316-.036.07-.036.105-.07.14-.036.105-.07.175-.106.245a.485.485 0 0 1-.105.14.733.733 0 0 1-.14.21c-.035.07-.105.106-.14.14-.07.07-.14.14-.21.176-.035.035-.106.07-.176.105a.566.566 0 0 1-.245.14c-.07.035-.175.035-.245.07a2.42 2.42 0 0 1-.28.105c-.07.036-.176.036-.281.07-.105.036-.245.07-.386.07a4.32 4.32 0 0 1-.7.07h-.106c-.175 0-.315 0-.49-.034-.07 0-.14-.035-.246-.035-.14-.035-.245-.035-.35-.07-.07-.035-.175-.035-.28-.07l-.316-.106a.65.65 0 0 1-.245-.07c-.105-.035-.175-.105-.28-.14a.763.763 0 0 0-.176-.105c-.105-.035-.175-.105-.245-.175-.035-.035-.105-.07-.14-.105-.07-.07-.14-.176-.21-.246l-.106-.105c-.07-.105-.105-.21-.175-.315-.035-.035-.07-.07-.07-.105a2.711 2.711 0 0 1-.28-.947h-1.858c.105 2.489 2.208 4.03 4.766 4.24v1.858h1.297v-1.857c2.523-.21 4.626-1.612 4.626-4.206 0-.7-.175-1.296-.455-1.787-.631-1.122-1.928-1.787-3.855-2.243l-.35-.07c-.562-.07-1.052-.175-1.438-.316a1.707 1.707 0 0 0-.385-.14c-.07-.035-.176-.07-.246-.105a2.41 2.41 0 0 1-.28-.105l-.21-.105c-.07-.035-.14-.105-.21-.14-.07-.035-.106-.07-.176-.106-.07-.035-.105-.105-.175-.14-.035-.07-.105-.105-.14-.14a.614.614 0 0 1-.14-.175c-.035-.035-.07-.105-.106-.14a.765.765 0 0 1-.105-.175.266.266 0 0 1-.07-.14.497.497 0 0 1-.07-.211c0-.07-.035-.105-.035-.14-.035-.105-.035-.21-.035-.316v-.07c0-1.051.841-2.032 2.488-2.243v.035c.21-.035.386-.07.596-.07h.105c.21 0 .42 0 .631.035 1.472.176 2.488 1.052 2.629 2.489h1.857c-.07-2.383-1.998-3.96-4.486-4.17V11.6H20.23v1.857c-2.523.245-4.345 1.752-4.345 4.066Z"/></svg>