<svg xmlns="http://www.w3.org/2000/svg" width="42" height="42" fill="none"><circle cx="21" cy="21" r="20" fill="#1A4199"/><path fill="#F3F3F3" d="m14.266 9.159 13.728 7.922v8.08L7 13.042l6.728-3.882a.566.566 0 0 1 .538 0Z" opacity=".7"/><path fill="#F3F3F3" d="m27.995 9-7 4.04 7 4.04V9Z" opacity=".85"/><path fill="#F3F3F3" d="m27.995 9 6.734 3.882a.566.566 0 0 1 .271.47v15.844l-7.005-4.034V9Z"/><path fill="#F3F3F3" d="m34.995 29.202-6.729 3.882a.566.566 0 0 1-.566 0L13.977 25.16V17.07l21.018 12.133Z" opacity=".85"/><path fill="#F3F3F3" d="M7 13.04v15.845a.566.566 0 0 0 .272.486L14 33.254V17.07L7 13.04Z" opacity=".55"/><path fill="#F3F3F3" d="m14 33.242 6.994-4.04L14 25.162v8.08Z" opacity=".7"/></svg>