<svg width="250" height="250" xmlns="http://www.w3.org/2000/svg" fill="none">
 <g>
  <path fill="#3a98ff" opacity="undefined" d="m125,250c-69.06077,0 -125,-55.93922 -125,-125c0,-69.06077 55.93923,-125 125,-125c69.06078,0 125,55.93923 125,125c0,69.06078 -55.93922,125 -125,125z" id="svg_1"/>
  <g id="svg_2">
   <g clip-path="url(#svg_29)" id="svg_3">
    <path fill="url(#svg_33)" d="m43.9997,138.5l17.19091,-30.0829c0.5008,-0.87627 1.4327,-1.41706 2.4419,-1.41706l7.3676,-0.00004l-16.7041,29.2326c-0.80114,1.4021 -2.29217,2.2674 -3.90702,2.2674l-6.38929,0z" id="svg_4"/>
    <path fill="url(#svg_32)" d="m98.00361,111.49995l-17.191,30.08295c-0.50069,0.8763 -1.43259,1.4171 -2.44189,1.4171l-7.3675,0l16.70399,-29.23256c0.8012,-1.40209 2.2923,-2.26739 3.9071,-2.26741l6.3893,-0.00008z" id="svg_5"/>
    <path fill="url(#svg_31)" d="m77.80961,116.29308l-4.5012,-7.87608c-0.5008,-0.87622 -1.4326,-1.41696 -2.4419,-1.41696l-7.3676,-0.00004l0.0003,0.00043c-0.4254,0.00716 -0.8766,0.14249 -1.2822,0.38208c0.1669,-0.06007 0.3469,-0.09283 0.5345,-0.09283c0.5544,0 1.042,0.28592 1.3234,0.71835l10.03149,17.55597l3.7032,-6.4799c0.4942,-0.8647 0.4942,-1.9263 0,-2.79102l0.00001,0z" clip-rule="evenodd" fill-rule="evenodd" id="svg_6"/>
    <path fill="url(#svg_30)" d="m64.19371,133.70689l4.5012,7.8761c0.5008,0.87619 1.4326,1.41699 2.4419,1.41699l7.3676,0l-0.0002,-0.00029c0.4254,-0.0072 0.8765,-0.1425 1.2821,-0.38211c-0.1669,0.0601 -0.3469,0.0928 -0.5345,0.0928c-0.5541,0 -1.0415,-0.2856 -1.323,-0.71761l-10.0319,-17.55679l-3.7032,6.4799c-0.4942,0.8647 -0.4942,1.9263 0,2.791l0,0.00001z" clip-rule="evenodd" fill-rule="evenodd" id="svg_7"/>
   </g>
   <defs transform="translate(-4 27) translate(-73.5359 37.623) translate(0 4.56036) translate(0.414066 0) translate(53.5843 -4.56036) translate(44.0003 0) translate(0 107) translate(152.002 107) scale(2.33001 2.33001) translate(-152.002 -107) translate(42.0591 61.3731) scale(2.45668 2.45668) translate(-42.0591 -61.3731)">
    <clipPath id="svg_29">
     <rect x="20.46217" y="171.623" fill="white" height="36" width="54.0012" id="svg_8"/>
    </clipPath>
   </defs>
  </g>
  <g fill="#3A98FF">
   <g id="svg_21">
    <g>
     <path fill="#ffffff" d="m189.54601,145.45288c0,-32.803 -51.049,-94.892 -56.87,-101.863c-3.991,-4.782 -11.354,-4.788 -15.352,0c-5.821,6.972 -56.87,69.061 -56.87,101.863c0,35.789 29.198,64.546 64.546,64.546c35.363,0 64.546,-28.774 64.546,-64.546zm-79.092,30c0,-4.419 6.719,-15.879 14.546,-26.655c7.827,10.776 14.546,22.237 14.546,26.655c0,8.021 -6.525,14.546 -14.546,14.546c-8.02,0 -14.546,-6.525 -14.546,-14.546zm49.002,-1.802c-1.412,-16.023 -20.708,-40.29 -26.78,-47.562c-3.991,-4.781 -11.354,-4.788 -15.352,0c-6.072,7.272 -25.368,31.539 -26.78,47.562c-6.301,-7.686 -10.09,-17.507 -10.09,-28.198c0,-16.976 24.83,-54.329 44.548,-79.532c19.716,25.192 44.544,62.537 44.544,79.532c0,10.691 -3.789,20.512 -10.09,28.198z"/>
    </g>
   </g>
   <g id="svg_10"/>
  </g>
 </g>
</svg>