<svg xmlns="http://www.w3.org/2000/svg" width="36" height="36" fill="none"><g clip-path="url(#a)"><g clip-path="url(#b)"><rect width="36" height="36" fill="#F5F5F5" rx="18"/><path fill="#F3F3F3" d="M18 36c9.941 0 18-8.059 18-18S27.941 0 18 0 0 8.059 0 18s8.059 18 18 18Z"/><path fill="url(#c)" d="M18 36c9.941 0 18-8.059 18-18S27.941 0 18 0 0 8.059 0 18s8.059 18 18 18Z" opacity=".2"/><path fill="#FF1010" d="m34.286 13.715-21.32 9.154c-1.769.754-3.254 1.132-4.455 1.132-1.36 0-2.347-.48-2.959-1.44-.385-.618-.498-1.4-.34-2.349.159-.949.578-1.96 1.258-3.034.567-.869 1.497-2.012 2.789-3.429a7.531 7.531 0 0 0-.952 2.263c-.34 1.463-.034 2.537.918 3.223.453.32 1.077.48 1.87.48.635 0 1.349-.103 2.142-.309l21.049-5.691Z"/></g></g><defs><clipPath id="a"><path fill="#fff" d="M0 0h36v36H0z"/></clipPath><clipPath id="b"><rect width="36" height="36" fill="#fff" rx="18"/></clipPath><linearGradient id="c" x1="18" x2="18" y1="24.429" y2="36" gradientUnits="userSpaceOnUse"><stop stop-color="#fff"/><stop offset="1" stop-color="#030303" stop-opacity=".73"/></linearGradient></defs></svg>