<svg width="42" height="42" viewBox="0 0 42 42" fill="none" xmlns="http://www.w3.org/2000/svg">
<rect width="42" height="42" rx="21" fill="#6BF5F5"/>
<path d="M38 15.75L13.1261 26.43C11.0632 27.31 9.33084 27.75 7.92912 27.75C6.34226 27.75 5.19179 27.19 4.47771 26.07C4.0281 25.35 3.89586 24.4367 4.081 23.33C4.26613 22.2233 4.75541 21.0433 5.54884 19.79C6.21002 18.7767 7.29438 17.4433 8.80189 15.79C8.27294 16.6433 7.90267 17.5233 7.69109 18.43C7.29438 20.1367 7.65142 21.39 8.76222 22.19C9.29117 22.5633 10.0185 22.75 10.9441 22.75C11.6847 22.75 12.5178 22.63 13.4434 22.39L38 15.75Z" fill="#030303"/>
</svg>
