<svg width="42" height="42" viewBox="0 0 42 42" fill="none" xmlns="http://www.w3.org/2000/svg">
<g clip-path="url(#clip0_4532_196541)">
<mask id="mask0_4532_196541" style="mask-type:luminance" maskUnits="userSpaceOnUse" x="0" y="0" width="42" height="42">
<path d="M42 21C42 9.40202 32.598 0 21 0C9.40202 0 0 9.40202 0 21C0 32.598 9.40202 42 21 42C32.598 42 42 32.598 42 21Z" fill="white"/>
</mask>
<g mask="url(#mask0_4532_196541)">
<mask id="mask1_4532_196541" style="mask-type:luminance" maskUnits="userSpaceOnUse" x="0" y="0" width="42" height="42">
<path d="M42 21C42 9.40202 32.598 0 21 0C9.40202 0 0 9.40202 0 21C0 32.598 9.40202 42 21 42C32.598 42 42 32.598 42 21Z" fill="white"/>
</mask>
<g mask="url(#mask1_4532_196541)">
<path d="M51.9297 0H-5.82031V42H51.9297V0Z" fill="url(#paint0_linear_4532_196541)"/>
<path d="M-5.82031 21H51.9297M15.1797 0V42" stroke="white" stroke-width="10.5"/>
<path d="M-5.82031 21H51.9297M15.1797 0V42" stroke="#00205B" stroke-width="5.25"/>
</g>
</g>
</g>
<defs>
<linearGradient id="paint0_linear_4532_196541" x1="23.0547" y1="0" x2="23.0547" y2="42" gradientUnits="userSpaceOnUse">
<stop stop-color="#F62A53"/>
<stop offset="0.822" stop-color="#BA0C2F"/>
</linearGradient>
<clipPath id="clip0_4532_196541">
<rect width="42" height="42" fill="white"/>
</clipPath>
</defs>
</svg>
