<svg xmlns="http://www.w3.org/2000/svg" width="36" height="36" fill="none"><g clip-path="url(#a)"><rect width="36" height="36" fill="#65DB9B" rx="18"/><path fill="#404141" d="M16.503 14.026v-2.033c.197-.014.397-.025.6-.031 5.558-.175 9.205 4.776 9.205 4.776s-3.937 5.471-8.161 5.471a5.123 5.123 0 0 1-1.644-.263v-6.163c2.165.261 2.599 1.217 3.9 3.386l2.894-2.44a7.662 7.662 0 0 0-5.672-2.77 10.52 10.52 0 0 0-1.125.067m0-14.589V10.35c.199-.016.399-.029.6-.037 7.73-.26 12.766 6.34 12.766 6.34s-5.785 7.035-11.813 7.035a8.899 8.899 0 0 1-1.556-.138v1.877c.43.055.862.083 1.295.084 5.608 0 9.664-2.864 13.591-6.254.65.521 3.317 1.79 3.865 2.346-3.734 3.125-12.437 5.645-17.37 5.645-.476 0-.933-.03-1.382-.072v10.512h21.316V-.562L16.5-.563Zm0 22.51v1.602c-5.188-.925-6.627-6.317-6.627-6.317a11.213 11.213 0 0 1 6.627-3.206v1.758h-.008a4.979 4.979 0 0 0-3.867 1.768s.95 3.413 3.875 4.395Zm-9.213-4.949a12.845 12.845 0 0 1 9.213-5.005v-1.646c-6.799.546-12.687 6.3-12.687 6.3s3.334 9.64 12.687 10.524v-1.75C9.64 24.563 7.29 17 7.29 17h-.003Z"/></g><defs><clipPath id="a"><rect width="36" height="36" fill="#fff" rx="18"/></clipPath></defs></svg>