<svg width="42" height="42" viewBox="0 0 42 42" fill="none" xmlns="http://www.w3.org/2000/svg">
<mask id="mask0_3145_261574" style="mask-type:alpha" maskUnits="userSpaceOnUse" x="0" y="0" width="42" height="42">
<circle cx="21" cy="21" r="21" fill="#D9D9D9"/>
</mask>
<g mask="url(#mask0_3145_261574)">
<path d="M67 0H-17V42H67V0Z" fill="#012169"/>
<path d="M36.4032 15.7483L36.3033 15.441L36.2035 15.7483L35.69 17.3286H34.0283H33.7052L33.9666 17.5186L35.3109 18.4953L34.7974 20.0756L34.6976 20.383L34.959 20.193L36.3033 19.2163L37.6476 20.193L37.9091 20.383L37.8092 20.0756L37.2957 18.4953L38.64 17.5186L38.9015 17.3286H38.5783H36.9167L36.4032 15.7483Z" fill="white" stroke="#F3F3F3" stroke-width="0.21"/>
<path d="M36.3101 15.8936L37.6473 20.0091L34.1465 17.4655H38.4738L34.9729 20.0091L35.6415 17.9513L36.3101 15.8936Z" fill="#C8102E"/>
<g clip-path="url(#clip0_3145_261574)">
<path d="M-16.9995 0L25.0005 21L-16.9995 0ZM-16.9995 21L25.0005 0L-16.9995 21Z" fill="black"/>
<path d="M-16.9995 0L25.0005 21M-16.9995 21L25.0005 0" stroke="white" stroke-width="4.2"/>
<path d="M-16.9995 0L25.0005 21L-16.9995 0ZM-16.9995 21L25.0005 0L-16.9995 21Z" fill="black"/>
<path d="M-16.9995 0L25.0005 21M-16.9995 21L25.0005 0" stroke="#C8102E" stroke-width="2.8"/>
<path d="M4.00098 0V21V0ZM-16.999 10.5H25.001H-16.999Z" fill="black"/>
<path d="M4.00098 0V21M-16.999 10.5H25.001" stroke="white" stroke-width="7"/>
<path d="M4.00098 0V21V0ZM-16.999 10.5H25.001H-16.999Z" fill="black"/>
<path d="M4.00098 0V21M-16.999 10.5H25.001" stroke="#C8102E" stroke-width="4.2"/>
</g>
</g>
<defs>
<clipPath id="clip0_3145_261574">
<rect width="42" height="21" fill="white" transform="translate(-17)"/>
</clipPath>
</defs>
</svg>
