<svg width="42" height="42" viewBox="0 0 42 42" fill="none" xmlns="http://www.w3.org/2000/svg">
<path d="M21 42C32.598 42 42 32.598 42 21C42 9.40202 32.598 0 21 0C9.40202 0 0 9.40202 0 21C0 32.598 9.40202 42 21 42Z" fill="#222222"/>
<g style="mix-blend-mode:multiply">
<path d="M21 42C32.598 42 42 32.598 42 21C42 9.40202 32.598 0 21 0C9.40202 0 0 9.40202 0 21C0 32.598 9.40202 42 21 42Z" fill="url(#paint0_linear_26_35217)"/>
</g>
<g style="mix-blend-mode:lighten" opacity="0.3">
<path d="M21 42C32.598 42 42 32.598 42 21C42 9.40202 32.598 0 21 0C9.40202 0 0 9.40202 0 21C0 32.598 9.40202 42 21 42Z" fill="url(#paint1_linear_26_35217)"/>
</g>
<path fill-rule="evenodd" clip-rule="evenodd" d="M10 10.193C10 10.0864 10.0864 10 10.193 10H17.1404C17.2469 10 17.3333 10.0864 17.3333 10.193V17.1404C17.3333 17.2469 17.2469 17.3333 17.1404 17.3333H10.193C10.0864 17.3333 10 17.2469 10 17.1404V10.193ZM10 24.8607C10 24.7541 10.0864 24.6677 10.193 24.6677H17.1404C17.2469 24.6677 17.3333 24.7541 17.3333 24.8607V31.808C17.3333 31.9146 17.2469 32.001 17.1404 32.001H10.193C10.0864 32.001 10 31.9146 10 31.808V24.8607ZM24.8607 10C24.7541 10 24.6677 10.0864 24.6677 10.193V17.1404C24.6677 17.2469 24.7541 17.3333 24.8607 17.3333H31.808C31.9146 17.3333 32.001 17.2469 32.001 17.1404V10.193C32.001 10.0864 31.9146 10 31.808 10H24.8607ZM24.6677 24.8607C24.6677 24.7541 24.7541 24.6677 24.8607 24.6677H31.808C31.9146 24.6677 32.001 24.7541 32.001 24.8607V31.808C32.001 31.9146 31.9146 32.001 31.808 32.001H24.8607C24.7541 32.001 24.6677 31.9146 24.6677 31.808V24.8607ZM17.5253 17.3323C17.4187 17.3323 17.3323 17.4187 17.3323 17.5253V24.4727C17.3323 24.5792 17.4187 24.6656 17.5253 24.6656H24.4727C24.5792 24.6656 24.6656 24.5792 24.6656 24.4727V17.5253C24.6656 17.4187 24.5792 17.3323 24.4727 17.3323H17.5253Z" fill="#F3F3F3"/>
<defs>
<linearGradient id="paint0_linear_26_35217" x1="21" y1="18" x2="21" y2="42" gradientUnits="userSpaceOnUse">
<stop stop-color="#030303" stop-opacity="0"/>
<stop offset="0.491311" stop-color="#030303" stop-opacity="0.3"/>
<stop offset="1" stop-color="#030303"/>
</linearGradient>
<linearGradient id="paint1_linear_26_35217" x1="21" y1="0" x2="21" y2="22" gradientUnits="userSpaceOnUse">
<stop stop-color="#F3F3F3"/>
<stop offset="0.50721" stop-color="#F3F3F3" stop-opacity="0.3"/>
<stop offset="1" stop-color="#F3F3F3" stop-opacity="0"/>
</linearGradient>
</defs>
</svg>
