<svg width="42" height="42" viewBox="0 0 42 42" fill="none" xmlns="http://www.w3.org/2000/svg">
<circle cx="21" cy="21" r="20" fill="#222222"/>
<path d="M21.0002 19.4905C25.0016 19.4905 28.2454 16.2467 28.2454 12.2453C28.2454 8.24382 25.0016 5 21.0002 5C16.9987 5 13.7549 8.24382 13.7549 12.2453C13.7549 16.2467 16.9987 19.4905 21.0002 19.4905Z" fill="#88BDF3"/>
<path d="M21.0002 37.0003C25.0016 37.0003 28.2454 33.7565 28.2454 29.755C28.2454 25.7536 25.0016 22.5098 21.0002 22.5098C16.9987 22.5098 13.7549 25.7536 13.7549 29.755C13.7549 33.7565 16.9987 37.0003 21.0002 37.0003Z" fill="#3075EE"/>
<path d="M29.7545 28.2444C33.756 28.2444 36.9998 25.0006 36.9998 20.9992C36.9998 16.9977 33.756 13.7539 29.7545 13.7539C25.7531 13.7539 22.5093 16.9977 22.5093 20.9992C22.5093 25.0006 25.7531 28.2444 29.7545 28.2444Z" fill="#5795F1"/>
<path d="M12.2453 28.2444C16.2467 28.2444 19.4905 25.0006 19.4905 20.9992C19.4905 16.9977 16.2467 13.7539 12.2453 13.7539C8.24382 13.7539 5 16.9977 5 20.9992C5 25.0006 8.24382 28.2444 12.2453 28.2444Z" fill="#205FEC"/>
<path d="M19.2946 19.2951C18.0032 18.9811 16.823 18.3179 15.8833 17.3781C14.9435 16.4384 14.2803 15.2582 13.9663 13.9668C15.2554 14.2856 16.433 14.9503 17.372 15.8894C18.311 16.8284 18.9758 18.006 19.2946 19.2951Z" fill="#134BEF"/>
<path d="M13.9512 28.049C14.2652 26.7576 14.9284 25.5774 15.8681 24.6377C16.8079 23.6979 17.9881 23.0347 19.2795 22.7207C18.9607 24.0098 18.2959 25.1874 17.3569 26.1264C16.4179 27.0654 15.2403 27.7302 13.9512 28.049Z" fill="#0932E8"/>
<path d="M22.7051 22.7051C23.9965 23.0191 25.1766 23.6823 26.1164 24.622C27.0562 25.5618 27.7194 26.742 28.0334 28.0334C26.7442 27.7146 25.5666 27.0498 24.6276 26.1108C23.6886 25.1718 23.0239 23.9942 22.7051 22.7051Z" fill="#164BEA"/>
<path d="M28.049 13.9512C27.735 15.2426 27.0718 16.4227 26.132 17.3625C25.1923 18.3023 24.0121 18.9655 22.7207 19.2795C23.0395 17.9903 23.7043 16.8127 24.6433 15.8737C25.5823 14.9347 26.7599 14.27 28.049 13.9512Z" fill="#3170F1"/>
</svg>
