<svg xmlns="http://www.w3.org/2000/svg" width="42" height="42" fill="none"><circle cx="21" cy="21" r="20" fill="#222"/><path fill="#F3F3F3" d="M7.657 16.11c-2.17.785-3.555 3.472-3.055 5.976.25 1.252.535 1.836 1.32 2.654 1.034 1.118 1.702 1.368 3.521 1.368 1.452 0 1.67-.05 2.47-.484 1.486-.834 2.304-2.153 2.487-4.022.234-2.57-1.252-4.974-3.438-5.592-.851-.234-2.487-.184-3.305.1Zm3.655 2.087c.985.717 1.486 2.37 1.136 3.822-.668 2.804-4.357 3.355-5.626.835-.767-1.503-.367-3.856.802-4.674.968-.701 2.687-.684 3.688.017ZM30.24 16.177c-3.137 1.252-4.022 5.875-1.652 8.68 1.285 1.535 4.323 1.819 5.675.517l.367-.35.05.467c.05.417.1.45.885.45h.835l.05-2.637.05-2.62H31.81v1.669h1.418c1.536 0 1.586.033 1.152.934-.3.618-1.369 1.236-2.17 1.236-1.92 0-3.071-1.352-3.071-3.54.017-2.42 1.569-3.805 3.689-3.304.818.2 1.652.918 1.652 1.435 0 .167.25.234 1.002.234h.985l-.234-.751c-.518-1.753-1.803-2.637-3.923-2.704-.934-.033-1.452.033-2.07.284ZM15.786 21.018v5.007h1.669l.034-3.371.05-3.389 1.235 3.389 1.235 3.388.835-.05.834-.05 1.219-3.338 1.218-3.339.05 3.338.05 3.339.885.05.868.05-.033-4.974-.05-4.974H23.563l-1.335 3.705c-.734 2.053-1.385 3.672-1.435 3.589-.067-.067-.668-1.652-1.336-3.539-.667-1.886-1.302-3.521-1.385-3.638-.1-.117-.568-.2-1.219-.2h-1.068v5.007Z"/></svg>