<svg width="42" height="42" viewBox="0 0 42 42" fill="none" xmlns="http://www.w3.org/2000/svg">
<circle cx="21" cy="21" r="20" fill="#222222"/>
<path d="M7.657 16.1102C5.4871 16.8947 4.1017 19.582 4.60245 22.0857C4.85282 23.3376 5.13658 23.9218 5.92108 24.7397C6.95595 25.858 7.62362 26.1084 9.443 26.1084C10.8952 26.1084 11.1122 26.0583 11.9133 25.6243C13.3989 24.7898 14.2168 23.4711 14.4004 21.6017C14.6341 19.0312 13.1485 16.6276 10.9619 16.01C10.1107 15.7763 8.47489 15.8264 7.657 16.1102ZM11.3124 18.1966C12.2973 18.9143 12.798 20.5668 12.4475 22.019C11.7798 24.8231 8.09098 25.374 6.82242 22.8535C6.05461 21.3513 6.45521 18.9978 7.62362 18.1799C8.59173 17.4789 10.311 17.4956 11.3124 18.1966Z" fill="#F3F3F3"/>
<path d="M30.2406 16.1767C27.1026 17.4286 26.2179 22.0521 28.5881 24.8563C29.8734 26.3919 32.9113 26.6757 34.2633 25.3737L34.6305 25.0232L34.6806 25.4906C34.7306 25.9079 34.7807 25.9412 35.5652 25.9412H36.3998L36.4499 23.304L36.4999 20.6834H34.1464H31.8096V21.518V22.3526H33.2284C34.764 22.3526 34.8141 22.3859 34.3801 23.2873C34.0797 23.9049 33.0114 24.5225 32.2102 24.5225C30.2907 24.5225 29.139 23.1705 29.139 20.9839C29.1557 18.5636 30.708 17.1782 32.8278 17.6789C33.6457 17.8792 34.4803 18.597 34.4803 19.1144C34.4803 19.2813 34.7306 19.3481 35.4818 19.3481H36.4666L36.2329 18.597C35.7154 16.8444 34.4302 15.9597 32.3104 15.8929C31.3756 15.8596 30.8582 15.9263 30.2406 16.1767Z" fill="#F3F3F3"/>
<path d="M15.7861 21.0178V26.0253H16.6207H17.4553L17.4887 22.6536L17.5387 19.2652L18.7739 22.6536L20.0091 26.042L20.8437 25.9919L21.6783 25.9418L22.8967 22.6035L24.1152 19.2652L24.1653 22.6035L24.2154 25.9418L25.1 25.9919L25.968 26.042L25.9346 21.0679L25.8845 16.0938H24.7328H23.5644L22.2291 19.7994C21.4946 21.8524 20.8437 23.4715 20.7936 23.388C20.7268 23.3213 20.1259 21.7356 19.4583 19.8494C18.7906 17.9633 18.1563 16.3275 18.0729 16.2107C17.9727 16.0938 17.5054 16.0104 16.8544 16.0104H15.7861V21.0178Z" fill="#F3F3F3"/>
</svg>
