<svg width="42" height="42" viewBox="0 0 42 42" fill="none" xmlns="http://www.w3.org/2000/svg">
<rect width="42" height="42" rx="21" fill="url(#paint0_linear_3666_105998)"/>
<path d="M21 34.7813H21.9773C24.1902 34.6266 26.2595 33.9508 28.0632 32.8757H21C14.4412 32.8757 9.12431 27.5588 9.12431 21C9.12431 14.4412 14.4412 9.12431 21 9.12431C27.5588 9.12431 32.8757 14.4412 32.8757 21C32.8757 21.6848 32.8178 22.3556 32.7069 23.0076H34.6359C34.7317 22.3519 34.7813 21.6815 34.7813 21C34.7813 13.3888 28.6112 7.21875 21 7.21875C13.3888 7.21875 7.21875 13.3888 7.21875 21C7.21875 28.6112 13.3888 34.7813 21 34.7813Z" fill="#06070A"/>
<path d="M21 30.834H30.7033C31.2957 30.2494 31.8356 29.6116 32.3152 28.9285H21C16.6212 28.9285 13.0715 25.3788 13.0715 21C13.0715 16.6212 16.6212 13.0715 21 13.0715C25.3788 13.0715 28.9285 16.6212 28.9285 21C28.9285 21.6945 28.8394 22.3671 28.6723 23.0076H30.6287C30.7633 22.359 30.834 21.6875 30.834 21C30.834 15.5688 26.4312 11.166 21 11.166C15.5688 11.166 11.166 15.5688 11.166 21C11.166 26.4312 15.5688 30.834 21 30.834Z" fill="#06070A"/>
<path d="M33.5019 26.8868H21C17.7488 26.8868 15.1132 24.2512 15.1132 21C15.1132 17.7488 17.7488 15.1132 21 15.1132C24.2512 15.1132 26.8868 17.7488 26.8868 21C26.8868 21.7045 26.7627 22.3807 26.5353 23.0076H24.4389C24.7838 22.4186 24.9812 21.7333 24.9812 21C24.9812 18.8012 23.1988 17.0188 21 17.0188C18.8012 17.0188 17.0188 18.8012 17.0188 21C17.0188 23.1988 18.8012 24.9812 21 24.9812H34.233C34.0356 25.6384 33.7906 26.2749 33.5019 26.8868Z" fill="#06070A"/>
<defs>
<linearGradient id="paint0_linear_3666_105998" x1="21" y1="0" x2="21" y2="42" gradientUnits="userSpaceOnUse">
<stop stop-color="white"/>
<stop offset="1" stop-color="#D3D3D3"/>
</linearGradient>
</defs>
</svg>
