<svg xmlns="http://www.w3.org/2000/svg" width="42" height="42" fill="none"><circle cx="21" cy="21" r="20" fill="#222"/><path fill="url(#a)" d="M28.391 8a5.606 5.606 0 0 0-5.61 5.591v6.2a26.33 26.33 0 0 1-1.781.064c-.612 0-1.2.024-1.781.059V13.59a5.61 5.61 0 0 0-11.219 0V28.41a5.61 5.61 0 0 0 11.219 0v-6.2A26.33 26.33 0 0 1 21 22.145c.612 0 1.2-.024 1.781-.059v6.323a5.61 5.61 0 0 0 11.219 0V13.59A5.606 5.606 0 0 0 28.391 8ZM13.61 10.29a3.309 3.309 0 0 1 3.31 3.301v6.565a18.873 18.873 0 0 0-4.766 1.348c-.66.29-1.281.66-1.85 1.104V13.59a3.309 3.309 0 0 1 3.306-3.3Zm3.31 18.119a3.311 3.311 0 0 1-6.62 0v-1.487c0-1.313 1.04-2.556 2.783-3.33a16.32 16.32 0 0 1 3.837-1.123v5.94Zm11.472 3.3a3.309 3.309 0 0 1-3.31-3.3v-6.565a18.873 18.873 0 0 0 4.766-1.348c.66-.29 1.281-.66 1.85-1.104v9.017a3.309 3.309 0 0 1-3.306 3.3Zm.527-13.309a16.32 16.32 0 0 1-3.837 1.122v-5.93a3.31 3.31 0 0 1 6.62 0v1.486c0 1.307-1.04 2.55-2.783 3.322Z"/><defs><linearGradient id="a" x1="9.647" x2="32.205" y1="31.997" y2="9.377" gradientUnits="userSpaceOnUse"><stop stop-color="#00AEE9"/><stop offset="1" stop-color="#69FABD"/></linearGradient></defs></svg>