<svg xmlns="http://www.w3.org/2000/svg" width="42" height="42" fill="none"><circle cx="21" cy="21" r="20" fill="#FF0420"/><path fill="#fff" d="M13.738 27.307c-1.392 0-2.532-.327-3.42-.982C9.439 25.662 9 24.71 9 23.485c0-.262.028-.57.084-.945.15-.84.365-1.85.645-3.037.794-3.215 2.85-4.822 6.159-4.822.897 0 1.71.15 2.42.458.71.29 1.271.738 1.683 1.336.41.589.616 1.29.616 2.103 0 .243-.028.551-.084.925a37.952 37.952 0 0 1-.635 3.037c-.412 1.599-1.112 2.804-2.122 3.599-1 .785-2.345 1.168-4.028 1.168Zm.253-2.524c.654 0 1.205-.196 1.663-.58.467-.382.804-.971 1-1.775.271-1.103.477-2.056.617-2.878.047-.243.075-.496.075-.757 0-1.066-.552-1.598-1.664-1.598-.654 0-1.215.196-1.682.58-.458.382-.785.971-.981 1.775-.215.785-.42 1.738-.636 2.878a3.733 3.733 0 0 0-.075.738c-.009 1.085.561 1.617 1.683 1.617ZM21.42 27.139c-.13 0-.224-.038-.298-.122-.056-.093-.075-.196-.056-.318l2.42-11.401a.466.466 0 0 1 .196-.318.515.515 0 0 1 .337-.122h4.663c1.3 0 2.337.271 3.122.804.794.542 1.196 1.318 1.196 2.336 0 .29-.037.599-.103.916-.29 1.346-.878 2.337-1.775 2.982-.879.645-2.084.962-3.617.962H25.14l-.803 3.841a.501.501 0 0 1-.197.318.515.515 0 0 1-.336.122H21.42Zm6.206-6.701c.496 0 .916-.131 1.28-.402.374-.271.617-.654.739-1.159.037-.196.056-.374.056-.523 0-.337-.103-.598-.3-.776-.195-.187-.541-.28-1.018-.28h-2.102l-.664 3.14h2.01Z"/></svg>