<svg width="42" height="42" viewBox="0 0 42 42" fill="none" xmlns="http://www.w3.org/2000/svg">
<rect x="0.655" y="0.655" width="40.69" height="40.69" rx="20.345" fill="#222222"/>
<rect x="0.655" y="0.655" width="40.69" height="40.69" rx="20.345" stroke="#404141" stroke-width="1.31"/>
<path d="M42 21C42 32.598 32.598 42 21 42C9.40202 42 0 32.598 0 21C0 9.40202 9.40202 0 21 0C32.598 0 42 9.40202 42 21Z" fill="#222222"/>
<path d="M18.7764 10.2285H13.9835C12.4553 10.2285 11.2164 11.4674 11.2164 12.9956V19.0238C11.2164 20.1154 10.3315 21.0003 9.23995 21.0003H7.3623" stroke="white" stroke-width="3.36"/>
<path d="M18.7764 31.7715H13.9835C12.4553 31.7715 11.2164 30.5326 11.2164 29.0044V22.9762C11.2164 21.8846 10.3315 20.9997 9.23995 20.9997H7.3623" stroke="white" stroke-width="3.36"/>
<path d="M23.2236 10.2285H28.0165C29.5447 10.2285 30.7836 11.4674 30.7836 12.9956V19.0238C30.7836 20.1154 31.6685 21.0003 32.76 21.0003H34.6377" stroke="white" stroke-width="3.36"/>
<path d="M23.2236 31.7715H28.0165C29.5447 31.7715 30.7836 30.5326 30.7836 29.0044V22.9762C30.7836 21.8846 31.6685 20.9997 32.76 20.9997H34.6377" stroke="white" stroke-width="3.36"/>
<circle cx="20.95" cy="20.951" r="3.95294" stroke="white" stroke-width="2.96471"/>
</svg>
