<svg width="42" height="42" viewBox="0 0 42 42" fill="none" xmlns="http://www.w3.org/2000/svg">
<g clip-path="url(#clip0_6717_45469)">
<path d="M21 42C32.598 42 42 32.598 42 21C42 9.40201 32.598 0 21 0C9.40201 0 0 9.40201 0 21C0 32.598 9.40201 42 21 42Z" fill="#1A82FF"/>
<path d="M18.7271 12.601C18.8496 12.7464 18.9735 12.8895 19.0985 13.0313C19.7032 12.8919 20.3318 12.815 20.9785 12.815C24.7854 12.815 27.9937 15.3705 28.9854 18.8601C29.1754 18.901 29.3641 18.9418 29.5552 18.9767C31.0638 19.2544 32.0134 19.4191 32.606 19.5188C31.8163 13.8031 26.9119 9.40234 20.9785 9.40234C19.5216 9.40234 18.126 9.66796 16.8386 10.1536C17.388 10.8989 18.1837 11.9206 18.7258 12.601H18.7271Z" fill="white"/>
<path d="M29.3374 22.1243C31.1189 21.7974 32.1346 21.6218 32.7104 21.5293C32.714 21.4018 32.7176 21.2733 32.7176 21.1447C32.7176 21.016 32.7152 20.8862 32.7104 20.7576C32.1346 20.6638 31.1189 20.4895 29.3374 20.1626C29.3062 20.1565 29.2737 20.1505 29.2424 20.1445C29.2821 20.4727 29.3049 20.8056 29.3049 21.1447C29.3049 21.4836 29.2821 21.8153 29.2437 22.1435C29.2749 22.1376 29.3074 22.1315 29.3387 22.1255L29.3374 22.1243Z" fill="white"/>
<path d="M17.7953 28.9185C17.8133 28.8969 17.8314 28.8764 17.8494 28.856C14.8021 27.6191 12.6529 24.632 12.6529 21.1412C12.6529 17.6504 14.8021 14.6621 17.8494 13.4252C17.8314 13.4035 17.8121 13.3819 17.7941 13.3615C17.7941 13.3615 16.4875 11.7194 15.711 10.6484C11.8727 12.5789 9.23901 16.5529 9.23901 21.1424C9.23901 25.7319 11.8727 29.7047 15.711 31.6351C16.4875 30.5629 17.7953 28.9209 17.7953 28.9209V28.9185Z" fill="white"/>
<path d="M29.555 23.3039C29.3651 23.3387 29.1752 23.3783 28.9865 23.4204C27.9948 26.91 24.7865 29.4668 20.9796 29.4668C20.3316 29.4668 19.703 29.3899 19.0983 29.2505C18.9733 29.3911 18.8494 29.5341 18.728 29.6796C18.186 30.3612 17.3902 31.3829 16.8396 32.1282C18.1271 32.6138 19.5226 32.8795 20.9796 32.8795C26.9129 32.8795 31.8173 28.4775 32.6071 22.7617C32.0145 22.8603 31.0648 23.0262 29.5562 23.3039H29.555Z" fill="white"/>
<path d="M15.2083 27.217C16.866 25.5714 19.5141 24.1675 22.714 23.2046C22.7152 23.2046 22.7163 23.2033 22.7188 23.2022H22.7176C22.7176 23.2022 22.7163 23.2046 22.7152 23.2046C21.0455 24.1458 19.4937 25.3166 18.1389 26.6689C17.6329 27.1738 17.1485 27.7087 16.6952 28.2616L16.634 28.3373C17.0042 28.5622 17.3924 28.7569 17.7963 28.9228C18.187 28.454 18.6029 27.9972 19.0344 27.5668H19.0357C21.8713 24.736 25.433 22.8572 29.3397 22.1239C29.377 21.8018 29.3986 21.4748 29.3986 21.143C29.3986 20.8113 29.377 20.4831 29.3397 20.161C25.433 19.4277 21.8701 17.5488 19.0344 14.7193C18.6053 14.2889 18.1894 13.8333 17.7963 13.3633C17.3913 13.5291 17.0018 13.7251 16.6327 13.9499L16.694 14.0245C17.1485 14.5798 17.6341 15.1147 18.1377 15.6172C19.4949 16.9707 21.0467 18.1415 22.7188 19.0839C19.5165 18.1186 16.8683 16.7158 15.2107 15.0678L15.1951 15.0522C14.8886 15.3443 14.6037 15.6593 14.3428 15.9946C15.367 17.0032 16.6989 17.9215 18.3036 18.7209H18.3024C19.7172 19.4253 21.3376 20.03 23.0854 20.5084H12.6083C12.5926 20.7175 12.5818 20.9291 12.5818 21.1418C12.5818 21.3546 12.5926 21.5662 12.6083 21.7753H23.0878C21.34 22.2525 19.7172 22.8572 18.3048 23.5628C16.7001 24.3622 15.3694 25.2805 14.344 26.289C14.6037 26.6245 14.8886 26.9394 15.1963 27.2315L15.2119 27.2158L15.2083 27.217Z" fill="white"/>
<path opacity="0.2" d="M34.1265 34.039C41.3269 26.7894 41.2884 15.0753 34.0388 7.87497C26.7892 0.674624 15.0751 0.713089 7.87476 7.96272L34.1265 34.039Z" fill="white"/>
<path d="M25.9441 14.4613C27.3925 15.5407 28.478 17.0794 28.9853 18.8632C29.1752 18.9041 29.3639 18.9449 29.555 18.9798C31.0637 19.2575 32.0133 19.4222 32.6059 19.522C32.1623 16.31 30.4182 13.5141 27.9238 11.6797L25.9441 14.4625V14.4613Z" fill="url(#paint0_linear_6717_45469)"/>
<path d="M25.9453 27.8224C27.3938 26.7429 28.4793 25.2044 28.9865 23.4205C29.1765 23.3796 29.3652 23.3387 29.5563 23.3039C31.0649 23.0262 32.0146 22.8616 32.6072 22.7617C32.1636 25.9737 30.4194 28.7697 27.9251 30.604L25.9453 27.8212V27.8224Z" fill="url(#paint1_linear_6717_45469)"/>
</g>
<defs>
<linearGradient id="paint0_linear_6717_45469" x1="30.7524" y1="23.9576" x2="28.817" y2="14.7413" gradientUnits="userSpaceOnUse">
<stop stop-color="#1A82FF" stop-opacity="0.5"/>
<stop offset="1" stop-color="white"/>
</linearGradient>
<linearGradient id="paint1_linear_6717_45469" x1="30.7524" y1="18.3261" x2="28.8171" y2="27.5423" gradientUnits="userSpaceOnUse">
<stop stop-color="#1A82FF" stop-opacity="0.5"/>
<stop offset="1" stop-color="white"/>
</linearGradient>
<clipPath id="clip0_6717_45469">
<rect width="42" height="42" fill="white"/>
</clipPath>
</defs>
</svg>
