<svg width="42" height="42" viewBox="0 0 42 42" fill="none" xmlns="http://www.w3.org/2000/svg">
<path d="M21 42C32.598 42 42 32.598 42 21C42 9.40202 32.598 0 21 0C9.40202 0 0 9.40202 0 21C0 32.598 9.40202 42 21 42Z" fill="url(#paint0_linear_1003_158890)"/>
<path d="M21.0082 37L7.7627 30.2372L21.0082 23.7411V37Z" fill="url(#paint1_linear_1003_158890)"/>
<path d="M21.0088 23.7411L34.2543 30.2772L21.0088 37V23.7411Z" fill="url(#paint2_linear_1003_158890)"/>
<path d="M28.8387 19.9262L34.2543 30.2639L21.0088 23.7278L28.8387 19.9262Z" fill="url(#paint3_linear_1003_158890)"/>
<path d="M13.1923 19.8995L21.0089 23.7411L7.75 30.2238L13.1923 19.8995Z" fill="url(#paint4_linear_1003_158890)"/>
<path d="M21.0093 23.7411V5L13.2061 19.9129L21.036 23.7411H21.0093Z" fill="url(#paint5_linear_1003_158890)"/>
<path d="M21.0088 23.7411V5L28.8387 19.9262L21.0088 23.7411Z" fill="url(#paint6_linear_1003_158890)"/>
<defs>
<linearGradient id="paint0_linear_1003_158890" x1="21" y1="0" x2="21" y2="42" gradientUnits="userSpaceOnUse">
<stop stop-color="white"/>
<stop offset="1" stop-color="#E6F6FF"/>
</linearGradient>
<linearGradient id="paint1_linear_1003_158890" x1="10.6636" y1="28.9967" x2="21.0013" y2="37" gradientUnits="userSpaceOnUse">
<stop stop-color="#43C1F9"/>
<stop offset="0.518717" stop-color="#2E83B5"/>
<stop offset="1" stop-color="#143764"/>
</linearGradient>
<linearGradient id="paint2_linear_1003_158890" x1="21.0016" y1="37" x2="32.3397" y2="29.3301" gradientUnits="userSpaceOnUse">
<stop stop-color="#4B9CF1"/>
<stop offset="0.580939" stop-color="#5299E9"/>
<stop offset="1" stop-color="#689FD2"/>
</linearGradient>
<linearGradient id="paint3_linear_1003_158890" x1="25.0033" y1="23.3276" x2="30.6723" y2="21.9937" gradientUnits="userSpaceOnUse">
<stop stop-color="#33B6FF"/>
<stop offset="1" stop-color="#4696FE"/>
</linearGradient>
<linearGradient id="paint4_linear_1003_158890" x1="10.3305" y1="28.6632" x2="15.3326" y2="19.9929" gradientUnits="userSpaceOnUse">
<stop stop-color="#4AB0EA"/>
<stop offset="0.490589" stop-color="#4DACE3"/>
<stop offset="1" stop-color="#6C819D"/>
</linearGradient>
<linearGradient id="paint5_linear_1003_158890" x1="21.0023" y1="14.3639" x2="15.9272" y2="14.3639" gradientUnits="userSpaceOnUse">
<stop stop-color="#5E71FB"/>
<stop offset="1" stop-color="#479BFD"/>
</linearGradient>
<linearGradient id="paint6_linear_1003_158890" x1="22.3355" y1="15.9912" x2="29.005" y2="20.3264" gradientUnits="userSpaceOnUse">
<stop stop-color="#5677EF"/>
<stop offset="1" stop-color="#7A9CFB"/>
</linearGradient>
</defs>
</svg>
