<svg xmlns="http://www.w3.org/2000/svg" width="42" height="42" fill="none"><rect width="42" height="42" fill="#222" rx="21"/><path fill="#A892C5" stroke="#7534A4" stroke-width=".754" d="M33.286 14.834c-.426.485-1.222.67-2.28.441-1.043-.226-2.251-.844-3.36-1.815-1.108-.97-1.88-2.087-2.24-3.092-.367-1.018-.288-1.832.138-2.318.425-.485 1.221-.67 2.28-.441 1.043.226 2.25.843 3.36 1.815 1.108.97 1.878 2.087 2.24 3.092.366 1.018.287 1.832-.138 2.318Z"/><path fill="#A892C5" stroke="#7534A4" stroke-width=".754" d="M25.881 10.625c-.301.301-1.382.88-1.884 1.13l5.653 4.9c.126-.503.452-1.583.754-1.885.377-.376 1.13-.753 1.13-1.507 0-.754-.753-1.508-1.507-2.261-.754-.754-1.884-1.508-2.638-1.508s-1.13.754-1.508 1.13Z"/><circle cx="19.474" cy="23.439" r="12.437" fill="#A892C5" stroke="#7534A4" stroke-width=".754"/><path fill="url(#a)" d="M30.76 24.573c-.566 5.713-5.387 10.176-11.25 10.176-6.244 0-11.306-5.063-11.306-11.307 0 0-.74-1.536 4.52-1.13 4.864.373 8.596-1.134 12.402-1.134 4.11 0 5.635 1.884 5.635 2.638v.757Z"/><path fill="url(#b)" d="M30.725 24.57c-.567 5.714-5.388 10.176-11.25 10.176-6.245 0-11.307-5.062-11.307-11.307 0 0 2.424 4.523 8.668 4.523 3.276 0 5.343-.952 9.046-2.261 1.507-.533 4.145-1.13 4.843-1.842v.711Z"/><circle cx="23.243" cy="15.902" r="2.261" fill="#F3F3F3"/><circle cx="26.635" cy="18.541" r="1.131" fill="#F3F3F3"/><defs><linearGradient id="a" x1="8.408" x2="30.67" y1="34.658" y2="34.658" gradientUnits="userSpaceOnUse"><stop stop-color="#0C0096"/><stop offset="1" stop-color="#B300C4"/></linearGradient><linearGradient id="b" x1="8.374" x2="30.636" y1="34.658" y2="34.658" gradientUnits="userSpaceOnUse"><stop stop-color="#1201C5"/><stop offset="1" stop-color="#F21CCF"/></linearGradient></defs></svg>