<svg xmlns="http://www.w3.org/2000/svg" width="42" height="42" fill="none"><circle cx="21" cy="21" r="20" fill="#F3F3F3"/><path fill="#4460EF" fill-rule="evenodd" d="M21.68 25.36a9.18 9.18 0 0 0 9.18-9.18 9.18 9.18 0 0 0-18.35-.446l-.01-.013V35h3.213a5.508 5.508 0 0 0 5.508-5.508V25.82l-.433-.502c.293.028.591.043.892.043Zm-.459-9.41c0 1.142-.616 2.066-1.377 2.066-.76 0-1.377-.924-1.377-2.065s.617-2.066 1.377-2.066 1.377.925 1.377 2.066Zm5.05 2.066c.76 0 1.377-.924 1.377-2.065s-.617-2.066-1.378-2.066c-.76 0-1.377.925-1.377 2.066 0 1.14.617 2.065 1.377 2.065Z" clip-rule="evenodd"/></svg>