<svg xmlns="http://www.w3.org/2000/svg" width="42" height="42" fill="none"><path fill="#222" d="M21 41c11.046 0 20-8.954 20-20S32.046 1 21 1 1 9.954 1 21s8.954 20 20 20Z"/><path fill="#EFE812" d="M13.906 9.782a24.946 24.946 0 0 1 1.702-1.778c-9.003-.288-6.381 6.221-9.331 12.829-3.377 7.616.4 10.517 6.025 11.424a12.247 12.247 0 0 1-1.902-3.11c-3.63-4.59-2.16-12.958 3.506-19.365Z"/><path fill="#EDE70A" d="M35.568 17.895a25.716 25.716 0 0 1-4.546 7.612 21.814 21.814 0 0 1-5.523 4.786 14.913 14.913 0 0 1-8.15 2.315 32.085 32.085 0 0 1-5.03-.351 10.282 10.282 0 0 0 3.364 2.635c8.14 3.936 8.652-3.373 17.263-7.083 4.835-2.084 4.852-6.154 2.617-9.914"/><path fill="#EDE70A" d="M25.498 10.297c1.179.207 2.314.61 3.36 1.191a18.738 18.738 0 0 1 6.71 6.408c1.465-4.133.781-7.376-2.422-7.963-3.529-.644-6.284-.853-8.932-2.702-3.261-2.266-6.123-1.528-8.602.778l.537.022c3.44.205 6.728.889 9.332 2.258"/><path fill="#DEC21C" d="M13.906 9.782C8.24 16.19 6.77 24.556 10.418 29.146a13.934 13.934 0 0 1 .786-12.441c3.07-5.119 9.234-7.34 14.295-6.407-2.622-1.387-5.91-2.053-9.331-2.258l-.538-.026a23.664 23.664 0 0 0-1.724 1.768Z"/><path fill="#E5CB22" d="M28.858 11.48a10.694 10.694 0 0 0-3.359-1.182c3.448 1.813 5.736 4.888 5.736 9.749A12.234 12.234 0 0 1 25.5 30.293a21.723 21.723 0 0 0 5.523-4.785 25.716 25.716 0 0 0 4.546-7.612 18.738 18.738 0 0 0-6.71-6.416Z"/><path fill="#CCA727" d="M25.498 10.298c-5.06-.933-11.224 1.288-14.294 6.385a13.921 13.921 0 0 0-.786 12.464 12.118 12.118 0 0 0 1.901 3.11c1.665.249 3.347.366 5.03.351a14.912 14.912 0 0 0 8.15-2.315 12.228 12.228 0 0 0 5.736-10.246c0-4.862-2.288-7.936-5.736-9.75Zm-.568 17.684a8.416 8.416 0 0 1-11.606-2.497c-2.515-3.879-1.271-8.886 2.501-11.553 4.221-2.999 9.634-1.817 11.606 2.498 1.924 4.203 1.396 9.06-2.501 11.553Z"/></svg>