<svg width="42" height="42" viewBox="0 0 42 42" fill="none" xmlns="http://www.w3.org/2000/svg">
<circle cx="21" cy="21" r="20" fill="#F3F3F3"/>
<path fill-rule="evenodd" clip-rule="evenodd" d="M21.6803 25.3607C26.7506 25.3607 30.8607 21.2506 30.8607 16.1803C30.8607 11.1101 26.7506 7 21.6803 7C16.7598 7 12.7436 10.8712 12.5108 15.7339L12.5 15.7213V35H15.7131C18.7552 35 21.2213 32.5337 21.2213 29.4918V25.8197L20.7878 25.3176C21.0815 25.3459 21.3793 25.3607 21.6803 25.3607ZM21.2213 15.9508C21.2213 17.0916 20.6047 18.0164 19.8443 18.0164C19.0838 18.0164 18.4672 17.0916 18.4672 15.9508C18.4672 14.81 19.0838 13.8852 19.8443 13.8852C20.6047 13.8852 21.2213 14.81 21.2213 15.9508ZM26.2705 18.0164C27.031 18.0164 27.6475 17.0916 27.6475 15.9508C27.6475 14.81 27.031 13.8852 26.2705 13.8852C25.51 13.8852 24.8934 14.81 24.8934 15.9508C24.8934 17.0916 25.51 18.0164 26.2705 18.0164Z" fill="#4460EF"/>
</svg>
