<svg width="42" height="42" viewBox="0 0 42 42" fill="none" xmlns="http://www.w3.org/2000/svg">
<rect width="42" height="42" rx="21" fill="url(#paint0_linear_3640_118648)"/>
<path d="M21.6562 30.8438C28.1801 30.8438 33.4688 25.5551 33.4688 19.0313C33.4688 12.5074 28.1801 7.21875 21.6562 7.21875C15.1324 7.21875 9.84375 12.5074 9.84375 19.0313C9.84375 25.5551 15.1324 30.8438 21.6562 30.8438Z" fill="#DEDEDE"/>
<path d="M16.3422 36.7489C19.9312 36.7489 22.8407 33.8394 22.8407 30.2504C22.8407 26.6614 19.9312 23.752 16.3422 23.752C12.7532 23.752 9.84375 26.6614 9.84375 30.2504C9.84375 33.8394 12.7532 36.7489 16.3422 36.7489Z" fill="#1F4480"/>
<path d="M22.8184 30.7871C22.4359 30.8245 22.048 30.8436 21.6557 30.8436C17.5543 30.8436 13.9411 28.7533 11.8232 25.5799C12.9927 24.4483 14.5859 23.752 16.3417 23.752C19.9307 23.752 22.8402 26.6614 22.8402 30.2504C22.8402 30.4312 22.8328 30.6102 22.8184 30.7871Z" fill="#152E51"/>
<path d="M15.6279 8.87203C16.0913 8.59649 16.5751 8.35175 17.0766 8.14062V25.3057H15.6279V8.87203Z" fill="#152E51"/>
<defs>
<linearGradient id="paint0_linear_3640_118648" x1="21" y1="0" x2="21" y2="42" gradientUnits="userSpaceOnUse">
<stop offset="0.115" stop-color="#A2A2A2"/>
<stop offset="1" stop-color="#7E7E7E"/>
</linearGradient>
</defs>
</svg>
