<?xml version="1.0" encoding="UTF-8" standalone="no"?>
<svg
   viewBox="0 0 600 600"
   version="1.1"
   id="svg16801"
   sodipodi:docname="pepe.svg"
   inkscape:version="1.1-alpha (17bc9184, 2021-03-28)"
   xmlns:inkscape="http://www.inkscape.org/namespaces/inkscape"
   xmlns:sodipodi="http://sodipodi.sourceforge.net/DTD/sodipodi-0.dtd"
   xmlns="http://www.w3.org/2000/svg"
   xmlns:svg="http://www.w3.org/2000/svg">
  <sodipodi:namedview
     id="namedview16803"
     pagecolor="#ffffff"
     bordercolor="#666666"
     borderopacity="1.0"
     objecttolerance="10.0"
     gridtolerance="10.0"
     guidetolerance="10.0"
     inkscape:pageshadow="2"
     inkscape:pageopacity="0.0"
     inkscape:pagecheckerboard="0"
     showgrid="false"
     inkscape:zoom="1.255"
     inkscape:cx="241.03586"
     inkscape:cy="279.28287"
     inkscape:window-width="1296"
     inkscape:window-height="1003"
     inkscape:window-x="44"
     inkscape:window-y="25"
     inkscape:window-maximized="0"
     inkscape:current-layer="svg16801" />
  <defs
     id="defs16783">
    <clipPath
       id="A">
      <path
         d="M300 600C134.254 600 0 465.746 0 300S134.254 0 300 0s300 134.254 300 300-134.254 300-300 300z"
         opacity="NaN"
         fill="#0ff"
         clip-path="none"
         fill-opacity="1"
         stroke-width="2.4"
         id="path16780" />
    </clipPath>
  </defs>
  <circle
     style="fill:#39933c;stroke-width:84.7405;fill-opacity:1"
     id="path17049"
     cx="300"
     cy="300"
     r="300" />
  <path
     d="M300 600C134.254 600 0 465.746 0 300S134.254 0 300 0s300 134.254 300 300-134.254 300-300 300z"
     opacity="NaN"
     fill="#39933c"
     clip-path="none"
     id="path16785" />
  <g
     clip-path="url(#A)"
     fill-rule="evenodd"
     id="g16799">
    <path
       d="M357.5 13.3h11.8c3.4 0 5.9.6 8.9.6 5.4 0 13.5-.2 17.9 1.7l19.5 9.6c4.2 2.1 8 4.9 11.3 8.2 3.4 3.4 5.9 6.7 8.6 10.7.7 1 1.2 1.8 1.9 2.8 2.1 2.8 4.5 5.5 6.1 8.7l7.4 12.1c.7 1.1 1.1 1.9 1.7 3 3.7 6.2 8.1 12.1 9.7 19.3.3 1.4-.1 3.2.9 4.1.5.5 2.4 1.1 3.2 1.6 1 .6 2 1.3 3 2 2.8 1.9 14.7 10.1 17 12.3 2 1.8 7.9 8.1 9.4 10.2.7 1 1.2 1.8 2 2.7 3.2 3.6 5.2 7.7 7.3 11.9 1 2 4 2.9 5.9 3.8l14.8 9.7c3.1 2.3 8.2 7.2 8.2 11.9 0 1.5-.5 3.5-1.2 4.4-1.5 1.9-2.6.7-4.4 1.5-.3.3 0 10 0 11 0 4.1-.9 7.1-.9 11.3 0 2.6.7 4.3.9 6.5.1 1.2-.1 2.2.1 3.4 1 6.9-.1 10.3-.9 16.8-.3 2.2-.6 3.8-1.7 5.7-4.9 9.6-1.3 4.2-8.6 13.9-1.2 1.6-2.2 2.5-3.5 3.9-4.1 4.1-5.9 3.9 1.6 10.1 1.6 1.3 3.7 4.4 5.2 6 .9.9 1.4 2 2.3 3.1 2.5 3.2 4.6 7 6.1 10.8.5 1.4.7 2.8 1.2 4.2.7 2.1 2.6 2.8 4 4.3 1.3 1.4 2.8 3 3.9 4.7 1.4 2.2 6.7 12.8 6.7 15.5 0 8.6-2.3 11-6.5 17.2-1.4 2.2-3.5 3.7-5.3 5.4l-5.1 5.5c-7.5 9.9-5.9 8.5-3.8 11.2 1.4 1.9 3.5 6.5 3.5 8.9 0 6.6-.6 10.1-4.6 15.2-1.6 2-2.7 4.1-4.5 5.9-1.6 1.6-6.6 7.6-6.6 9.4 0 .9 1.2 3.4 1.4 4.2 1.3 3.6.7 12.1-.2 15.7l-1.6 4.6c-3.1 7.6-5.1 9.2-9.9 15.3-4.1 5.3-8.4 5.7-3.5 11.7.6.8 1 1.1 1.6 1.9 2.9 4 6.8 4.9 10.9 7.4 3 1.8 6.5 3.1 9.4 5.1s5.7 3.8 8.7 5.8l6.1 4.6c.7.5 1.6 1 2.3 1.6l7.6 6.9c7.1 6.8 12.6 16.5 16.3 20.1l6.9 7.6c1.2 1.5 2 2.9 3.1 4.3 5.3 7 5.7 13 10.2 19.1 1.1 1.5 2 2.5 3 4.1 1.9 3.2 3.8 5.8 5.4 9.1 2.5 5 4 10.4 6.5 15.4.7 1.4 3.7 9.7 3.7 11.2 0 6.2-3.1 11.8-7.6 15.2-.7.5-1.5.8-2.3 1.3-3 2.1-2 1.9-6.5 4.2-3.2 1.6-5.8 3.8-9.1 5.1l-4.9 2.2c-3.2 1.5-6.8 3-10.5 3.7-2.2.5-3.1 1.1-5.6 1.6a40.28 40.28 0 0 0-5.8 1.3c-3.8 1.1-7.2 2.3-11.2 3l-13.2 1.3H511c-2.1 0-2.8-.6-4.7-.6-3.3-.1-7.2.4-10.3-.4-4.8-1.2-10.9-.5-15.8-.5-5.1 0-10.2-.8-15.1-1.2-1.9-.2-2.8-.6-4.7-.6-4.7 0-5.2-.5-9.7-1.3-3.9-.7-4.6-.4-8.6-2l-7.7-3.3c-3.2-1.5-10-6.3-13.2-8.4-1.1-.8-2.1-1.3-3.1-2.2-2.4-2-5.2-3.8-7.9-5.5-.8-.5-1-.7-1.7-1.2l-6.7-3.9c-1.6-.7-1.8-1.2-3.2-2.2-1.1-.8-2.4-1.3-3.6-2-4.5-2.7-5.5-6.8-7.2-11.4-.3-.8-.6-1.2-.8-2.1-.6 0-.8 0-1.4.1-2.4.6-4.6 9.8-14.1 14.6-.8.4-1.3.7-2 .9-1.1.4-1.3.4-2.3 1-1.5.9-9.3 3.1-12.9 5.2-1.4.8-3.3.8-4.9 1.3-2.5.8-12.3 3.2-14.8 3.2-5.8 0-19.6-.4-24.3 0-2.2.2-2.5.9-5.3.9h-36.4c-3.4 0-9-.6-11.8.4-4 1.4-9.7-.2-14.2 1-.8.2-1.2.6-2.2.7-1.9.2-4.1-.1-6.1.1-2.1.3-3.3.8-5.4.8-2.7 0-3.5.9-5.3.9h-34.4c-2.1 0-2.4-.9-8.6-.9-3.2 0-6.6.1-9.8 0-1.7 0-2.3-.5-3.9-.8-3-.5-6.6.4-9.6-.2-2.2-.5-.4-.6-4.2-.8l-4.5-.3c-1.6-.1-2.4-.8-3.9-.9-1.8-.1-2.9.1-4.4-.3-.7-.2-1.3-.4-1.8-.5-.9-.1-1.7 0-2.6-.1-2.2-.2-13.1-3-16.6-3-5.4.1-9.9-3-15-4.2-1.5-.3-2.4-.1-4-.7-3.7-1.5-7.5-2.1-11.3-3.5l-7-2.7c-1.3-.4-2.4-.6-3.6-1.1-2.3-.9-4.4-2.1-6.3-3.5-1.4-1-2-.9-3.6-1.5-2.3-.8-4.3-2.2-6.5-3.3-3.4-1.9-6-1.9-9.8-4.5-2.9-2-6.3-3.6-9.2-5.6-1-.7-1.7-1.2-2.8-1.9-1.3-.7-2.3-.7-3.4-1.7-3.5-3.2-6.4-6.2-9.8-9.5-2-2-3.6-4.5-5.3-6.9-3.6-5-3.5-3.3-6.8-10-.6-1.3-1.1-1.8-1.7-3.1-.7-1.4-.9-2.3-1.3-3.7-.7-2.4-1.8-4.7-2.8-6.9-1.9-4.2-2.4-6.6-3.8-10.7-1.9-5.6-1.6-7-2.7-12.1-.3-1.6-.7-1.7-.8-3.9-.1-1.6-.4-2.9-.8-4.2l-1-14.4c0-2 .5-2.7.6-4.4.1-2-.2-3.4.3-5 .6-2.1.7-4.9 1.2-6.8.8-3 .5-4.3.6-7.4.1-1.8.8-2.8.9-4.4.2-3.5 0-1.5.8-4.6.3-1.2.4-3.5.4-4.9 0-5.9-.2-4.4.7-9.7.2-1.2 0-3.4.3-5.1l.7-4.6c.2-2.9-.4-6.2.4-9.1.6-2 .4-2.3.7-4.7s.5-1.2.5-4.8c.1-3.1 3.3-13.3 3.3-17.7 0-2.6-.1-2.8.6-4.8.5-1.6.1-3.1.6-4.7.7-2.2.3-2.2.6-4.7.4-2.9 1.5-5.7 1.7-8.6.1-1.3.3-3.5.6-4.7.6-2.1.4-5.1.6-7.4l.7-4.6c.2-.8.5-1.3.7-2 .5-1.6.2-3.2.6-4.7l.6-2.1c1.1-6.2 3.3-12.6 5-18.6.5-1.7 1-2.2 1.6-3.7l3.7-12.3c.2-.9.2-1.3.5-2.2.2-.6.4-1.1.7-1.9.9-2.6 2.3-4.8 3-7.4.8-2.8 2.4-4.5 3.5-7.2l1.5-3.9c3.3-7.9 4.7-10.5 8.4-17.9.6-1.3 1.2-2.2 1.9-3.4 1.3-2.5 2-4.8 3.6-7.1.7-1 1.4-2.4 2-3.4l7.2-14.1c1.2-2.5 2.2-4.7 3.6-7 .8-1.3.9-2.5 1.6-3.7l9.4-17c3.4-5.7 5.7-11.9 9.2-17.5 4.3-7 5.6-10.6 9.2-17.1.7-1.2 1.4-2.1 2.2-3.2l8.4-12.6c.8-1.2 1.1-2.3 1.9-3.4l2.1-3.2c1.1-1.7 3-5 4.4-6.3 1.9-1.8 3-3.9 4.9-5.8l2.7-2.7c2.3-2.3 4.2-4.8 6.5-6.8 1.9-1.7 4.4-5.6 5.5-7.8 1.6-3.2 5.1-5.7 7.3-8.7 1.6-2.2 3.4-3.3 5-5.4s3-4 4.8-5.8c2.3-2.3 3.3-5.6 4.8-8.5 3.2-6.1 7.1-12.3 11.4-17.7 5.2-6.6 1.1-3 9.7-11.6 1.9-1.9 3.4-3.3 5.5-4.8 1-.7 2.2-1.2 3.5-1.9l10.3-5.7c6.7-4 12.5-6 20.6-6 1.8 0 3.2-.5 4.7-.6 3.4-.3 6.9 0 10.2-.5 3.8-.6 11.4-.5 15.2-.1 8.1.9 16.3 1 24.3 2.4.5.1 1.7.4 2.2.4 2.4.3 4.6.7 6.8 1.5 8.3 3 13.4 6 20.4 11.6 1.1.9 1.8 1.4 3 2.3 2.5 1.7 6.2 6 7.9 8.4.6 1 1.2 2.6 2.7 2.6 1.1 0 8.5-5.2 9.7-6.2 2-1.7 4.5-2.7 6.4-4.6 3.7-3.5 2.4-3.4 8.3-7.7 2.2-1.6 4.3-2.7 6.8-3.8 3.7-1.8 8.5-3.1 13.1-3.1z"
       fill="#39933c"
       id="path16787" />
    <path
       d="M432.1 354.1h-6.8c-1.9 0-3.8-.4-5-.4-3.4.1-7.3.1-10.6.6-6.3.9-13.6-.2-19.8-.9l-12.8-1.4c-3.7 0-9.6-.5-12.8-1.4-1.8-.5-4.3-.6-6.2-1-3.8-.7-7.7-2.1-11.4-2.8-2.5-.5-3.3-.8-5.6-1.4l-12.1-2.1-13.2-.9c-5-.6-9.6.2-14.8.2l-11.5-1.3c-1.3-.3-2.2-.7-3.4-1-2.1-.6-5.3-.8-7.4-1.1s-4.9-.9-7.3-1.4c-1.3-.2-2.1-.7-3.1-1.1-1.2-.4-2.3-.6-3.4-1-1-.3-1.8-.8-3-1.2-1.3-.5-1.9-1-3-1.4-2.3-.8-4.1-1.2-6.6-2l-9.5-3.5c-3.6-1.3-5.8-2.6-9.7-3.3-4.5-.8-9.2-2.2-13.6-3.6-6.9-2.2-15.6-11.2-18.9-11.3-1.4 0-2.4.7-2.4 2.1-.1 3.9 15.6 13.9 19.7 14.7l20.1 5.7c1.7.7 4.4 2.1 6.2 2.7 3.1 1 10.8 3 13 4.2 2 1.2 10.3 4.2 13 4.5 2.3.3 4.9 1.2 6.9 1.6 3 .5 4.6.2 7.3 1.3 1.5.6 13 2.3 15.1 2.3 9.6 0 18.4-.4 28 .5 2.7.2 4 .8 6.1 1.1 2.3.3 4.3.4 6.3 1.1l17.7 4.3c8.1 1 9.1 2 19.5 2.5 2.6.1 3.8.6 6.3.7 2.3.1 4.7.1 6.9.5 18 2.6 31.5-.2 48.8 1.5 7.4.7 15 0 22.5-.2 4.9-.1 9.2-1.1 14.2-1 4.4 0 11.1-.1 15-1.1 1.4-.4 1.9-.3 3.1-.8 2.8-1.1 5.8-2.4 7.9-4.2l4.1-3.9c1.1-1.2 4.8-4.7 6.4-5.5 1.7-.8 1.4-.6 2.5-1.6.7-.6 1.4-1.1 2.2-1.7 2.2-1.9 2.4-3.1 3.9.4 1.3 3.1 2.9 1.8 2 9.6-.2 1.6-1.7 5.8-2.7 6.8l-1 1.1c-.7.7-.5.2-1.1 1l-2.4 3.6c-.6.8-1.2 1-2.1 1.8-1.2 1.1-.7.9-1.6 2.3-1.5 2.3-4.5 7.1-6.7 8.7-.7.5-1.7 1.1-2.5 1.6-1.6 1.1-2.8 2.3-4.4 3.3s-3.2 1.8-4.9 2.8c-1.3.8-4 1.5-5.7 2.1-9.1 2.7-9.4 2.6-20.6 1.6l-16.8-.8c-3.5 0-6.6.8-10.1.9-14.2.5-28.2 2-42.4 1.8l-8.6-.3c-2.9 0-4.8-.6-7.7-.7-11-.7-22.1-.4-33.2-.6-3.1-.1-4.4-.7-7.1-1.3-3.2-.8-1.8-1.2-6.7-1.9-2.5-.4-4.2-1.2-7.2-1.4-2.6-.2-5.3 0-7.8-.4-2.9-.5-4.1-1.1-7.3-1.3-2.3-.1-5.1-.4-7.3-1-4.6-1.2-9.4-1.2-13.8-3.1-2-.9-4.1-1.6-6.1-2.5-2.2-1-3.7-1.7-5.7-2.9-3.1-1.8-10.9-4.6-14.2-6.8l-8.5-4.2c-1.8-.7-4.5-1.5-6.2-2.4l-11.1-5.8c-.9-.5-2-.8-2.9-1.3-1.1-.6-2-.9-3-1.4-3.5-1.9-13.2-8.7-15.8-9.6-3.8-1.2-1 .3-6.2-2.4-1.8-1-3.6-2.2-5.6-3l-4.1-2.2c-.6-.4-.5-.4-1.2-.8-1.8-1-3.9-1.6-5.3-3.3-2.7-3-6.9-4.9-9.9-7.3-2.4-1.8-4.7-3.6-5.9-6.5-2.1-5-2.2-3-1.1-10.3.4-2.5 1.5-3.7 2.9-5.7 2.9-4 15.9 1.3 20.7 1.7 1.4.1 2.1.4 3.2.9l12.8 4.1c1.2.3 2.5.5 3.6.8 1.9.6 4.7 1.2 6.4 2 1.8.8 4.4 1.9 6.2 2.4 3.6 1 10.2 3 13.5 3.4 2.7.3 4.7.8 7.2 1.4 2.2.5 5.2.5 7.6.9 1.4.3 1.8.6 3.3.9 1.3.2 2.5.2 3.8.4 2.5.3 4.3 1.1 7.1 1.5 2.4.4 4 1.4 6.6 1.7l13.8 3.1c2.1.6 12.1 1.9 14.4 2.8 1.4.5 1.5.6 3.3.9l3.8.6c4.9.6 9.9 1.6 15.1 1.9l14.9 2.2c4.8.9 10.3.6 15 1.9 5.1 1.5 14 .8 19.8.8 2.6 0 4.9.3 7.4.4 2.6.2 4.5.8 7.1.8 7.3.1 14.1.6 21.3 1.5 2.4.3 4.3.3 6.8.4 4.6.1 8.8 1.1 13.3 1.1h7.1c4.9 0 13.9-1.2 20.7-1.2 2.7 0 5.4.1 8-.2l18.5-4 5.2-2.1c4-1.9 7.8-5.1 10.9-8.1 1-.9.9-.4 2-1.8 2.1-2.8 7.6-9.8 9.5-12.8 2.1-3.4 6.4-11.7 7.4-15.4.9-3 1.8-5.9 2.3-9l.6-2.9c0-.1.1-.2.1-.2 1.2.3 2 2.2 2.7 3.3.6.9 1.7 2.8 2.1 3.8 1.6 4.4 2.7 4 3.6 8.3 1.1 5.6-3.2 12.6-6.9 16.6-.6.6-.9 1-1.4 1.6-.9 1.2-.7.6-1.6 1.4l-3 3c-3.9 3.7-6.9 9.9-10.6 13.1-1.2 1-1.8 1.9-3 3-.8.7-2.6 2.2-3.5 2.8-.6.4-1.2.7-1.8 1.1l-4.9 4c-1.2 1-1.8 2-2.9 3s-2.1 1.8-3.1 2.8-2.6 1.4-3.9 2c-.7.4-3.8 1.3-4.6 1.4-8.2 1.4-23.8.6-33.8 2.2-7.8 1.1-17.9-1-22.9-1z"
       fill="#166815"
       id="path16789" />
    <path
       d="M456.4 89c-1.3-.3-.2-.3-1.5-1.1-.9-.5-1.1-.2-2-.7l-3.5-1.8c-1.6-.9-2.4-.9-3.8-1.6-2.8-1.4-.1-.5-3.9-1.4-5.4-1.2-4.9-1.5-8.3-2.3-10.1-2.5-16.1-4.4-27.6-4.5-3.6-.1-6.8-.4-10.4-.4-1.6 0-3.1.4-4.7.5-1.8.1-3.6.1-5.3.3-2.8.4-6 1.2-9.2 1.4l-8.9 1.9c-1 .3-2.5 1-3.9 1.4-1 .3-1.1.5-1.8.9-.8.4-1.3.3-2.2.5-2.8.5-10.9 4-13 1.9-6.3-6.3-14.7-10.8-22.5-15.3 0-3.2-1.2-12.1-2.4-14.3-.9-1.6-1.8-3.7-2.5-5.7-1-2.6-2.6-3.9-2.8-5.8.9-1.1 8.4-5.7 8.7-6 1.1-1.1.3-.9 1.9-1.6 6.1-2.9 6.7-5.6 10.3-8.4.6-.5 1.5-1 2-1.6.6-.7 1.3-1.4 1.9-1.9 1.2-.9 8.8-4.1 10.4-4.3 2.5-.3 1.2-.4 2.9-.7a20.68 20.68 0 0 1 3.5-.3l14.8.1c4.8.5 18.7.7 20.6 1.5 4.1 1.7 10.8 5.3 12.6 6 2.2.9 1 .4 2.3 1.5l5.1 2.3c2.2.9 7 4 8.9 5.9 4.6 4.5 3.1 2.6 6.8 8l7 9.6c.9.7.1-.5.8.9 1.9 3.6 5 7.9 7.1 11.6 1 1.8 2 2.8 2.8 4.6.6 1.5 1.7 3.4 2.6 4.8.7 1.2 1 .8 3 4.4 1.3 2.3 1 1.1 2.7 4.7.5 1.2.5 1.8 1.2 2.7.8 1 1.4.8.3 2.3h0zm25.8 383.3c-.8-1-.3-.7.2-1.3 1.2-1.2 3.2-5.9 3.5-7.5.4-2.5.8-1 2.3-2.1.8-.6 1.2-2.3.9-3.3-.4-1.2-6.6-4.9-8-5.4-5.2-2.2-17.4-4.6-22.7-2.1-1.4.6-1.9.5-3.2 1.3l-5.3 3.6c-2.3 1.6-5.9 5.4-9.8 7.9l-2.6 1.9c-3.6 2.2-6.8 5.3-10.6 7.2-1.1.5-2 .8-3.1 1.3-4.9 2.5-14.7 1.3-19.4-.1-1.4-.4-1.8-.9-3.2-1.3-2.5-.7-3.5-2.2-4.4-4.5-.4-.9-1-2-1.1-3.1-.2-1.3-.2-3 .1-4.2.3-1.4.9-2.1 1.3-3.2 1.1-3.5 1.5-2.6 4.3-4.5l5.7-3.2c1.9-.7 3.2.8 4.8 1.5l2.8 1.6c1.4.8 2.6 1.6 3.6 2.9.8 1 1.2 1.3 1.9 2.6 2.2 3.7-6 8-7.1 9.6-1.6 2.4.8 5.3 3.6 4.2.4-.2 2.1-1.5 2.6-1.9l2.4-2.1c2.3-2.5 4.6-5.3 4.6-8.9 0-1.7-1.1-3.7-2-5l-3-3.6c-.8-1-.4-.3-1.3-1l-6.6-4.3c.8-1.1 1.5-1.2 2.6-2 1.2-.9 2.2-2.6 3.4-3.4 2.4-1.6 1.5-1.3 3.4-3.4 1-1.1 1.3-1.3 2.5-2.2 1.7-1.2 3.4-2.7 4.6-4.3 1.5-1.9 5.5-4.5 7.6-6 3-2.2 5.1-3.2 8.1-5.8 1.6-1.4 4.1-2 6.1-2.8 7.8-2.9 7.3-5.2 17.8-5.3 2.8 0 4.7.7 6.8 2.6 1 .9 1.6 1 2.5 1.9 2.8 2.8 6.7 6.2 10 8.4 2.1 1.4 2.7 3.3 3.8 5.4.7 1.3 2.3 2.9 3.8 5.1l2.1 2.4c1.2 1.3 3 1.8 4.4 2.7 2.1 1.3 3.1 1.3 4.5 2.3 3.7 2.6 7.9 3.9 11.5 6.5l13.3 9.5c1.8 1.2 3.7 2.6 5 4.1 2.2 2.4 4.7 4.3 7 6.6s3.9 5.3 6 7.6c2 2.2 4.6 7.3 7 9 1.7 1.2.6 1.1 1.9 2.5l3.4 3.4c2.2 2.6 1.8 2.5 3 4.1.7.9.3.2 1 1 1.8 2.2 5.6 8.7 5.9 12.3 2 1.3.5-.6 1.8 2.2 3.2 6.9 3.4 4.9 4.9 7.3s2.7 5.3 4.3 7.8l7.6 16.7c1.6 3.5 1.1 2.8 1.7 6.3.6 3.7 2.9 4.7 1.6 10-.4 1.5-.7.9-1.7 2.4-2.9 4.1-3 2.4-5.5 4.5-1.2 1-.5 1.1-1.9 2l-4 1.9c-2.1.9-3.2 2.6-4.7 3.2l-6.9 3.3c-1.8.9-1.1 1.5-3.9 1.9s-3.5 1.7-6.2 1.8l-.1.4s0 .1-.1.2l-.1.6c-2.1-.2-1.1-.4-3.4.2-1.2.3-2.3.3-3.6.6-4.2 1.1-8.4 2.1-12.6 3.7-1.1.4-5.5 1-6.8 1.1-3.4.4-4.1-.3-7.6.7-1.6.5-14.4.4-15.8-.1-1.7-.6-1.2-.6-3.5-.6l-16.6-.3c-3.4-.1-10.9.6-13.6-.5-1.1-.5-11.3-1.1-13-1.6-1.3-.3-3.3-.2-4.8-.3-2.6-.1-1.7-.6-3.8-.8-3.5-.4-5.3-.6-8.3-1.5s-7.9-2.6-10.6-4.2l-8.9-5.6c-1.2-1.2-3-1.9-4.5-2.9-.8-.6-.4-.6-1.2-1.2-.6-.5-1-.5-1.6-1.1L403 555c-1-.6-2.1-1.7-2.9-2.1l-3.1-1.6c-1.3-.8-.9-.8-1.7-2.1-.7-1.1-1-2.7-1.7-4.2-4.5-9.5-2.9-17.9-2.9-27.9 0-5-.5-4.3-.8-7.7-.2-2.3-1.6-4-2.5-5.9-.8-1.5-3.5-4.9-4.8-6.5-.8-1.1-1.3-2.5-1.9-3.7-1-2.1-3.1-4.8-4.6-6.4-2.8-3-5.5-5-8.5-8.4-2.7-3.1-5.1-6.7-6.4-10.4-1-2.9-.9-6.6.6-8.9.3-.4 2.5-2.5 2.9-2.7 4.5-3 5.7-5 11.7-5.1 2.7 0 2.4.1 4.5 1 6 2.5 2.4.2 6.4 4.8 1 1.1 1.1.8 1.9 2.2 2 3.8-.5 10.6 7.2 16.2 5.2 3.8 7.2 3.1 10.3 4 .8.2.7.5 2 .7 1.7.2 3.2 0 5 .4.3.7.6 2.3.9 3.2.3 1.3.8 1.5 1.1 2.7 1.1 4.3.7 9.9 1.6 14.1 1.1 5.3 5.1 11.1 9 14.5.9.8 1.4 1.2 2.1 2 1.8 2.2 4.2 3.5 6.2 5.3l7.8 6.2c2.5 2 4.6 4.5 6.9 6.8 1.3 1.3 5.4 3.7 7 4.8 3.4 2.3 8.3 2.9 12.3 3.5 3.7.6 5.4-.5 7-.6 2.1 3.7.5 5.7 4.2 9.7 1.1 1.2 1.6 2.2 4.1 3.1 1.1.4 1.5.8 2.5 1 5 1 10.5 1.4 15.4 1.8 3.5.3 6.2-.2 9.3-1.3.8-.3 1.4-.7 2-.9.5.6 1.2 3.6 1.6 4.9.5 1.7 3 4.4 4.5 5 6 2.4.4.8 7.7 1.8 3.8.5 7.5-.2 10.8-1.4 7.1-2.6 7.4-6.9 12.1-10.1.4-.3.5-.3.9-.6l3.4-4.6c.6-.8.8-.8 1.5-1.8.6-.8.8-1 1.3-1.7l2.2-2.8c.3-.5.3-.4.7-.8 2.6-2.7 4.7-5.5 7.5-8.2.8-.8.7-.9 1.6-1.3 0-2.1-.1-3.4-1.7-4-3.4-1.3-6.9 4.3-8.6 6.7-1.4 2-3.5 3.3-5 5.4-.7 1.1-.5.4-1.3 1.4l-4.2 5.9c-.4.5-.8.8-1.3 1.3-.8.9-1.5 1.8-2.4 2.7s-2.1 1.6-2.8 2.5c-.8 1-1.3 2-2.3 2.7-1.9 1.3-4.2 2.5-7.2 3.1-2.2.4-7.4.2-9.2-.7-4.4-2.1-2.4-2.5-4-6.3-1.9-4.4-1.7-3.9.5-7.5.9-1.5 1.3-1.5 2.7-2.6.7-.6.7-.7 1.4-1.3 2.1-1.6 10.8-10.9 11.3-11.6 2.3-3.5 2.6-2.9 4.8-5.3l2.5-2.8c1-1 1.4-1.6 2.5-2.5 1-.8 1.5-2.1.9-3.9-.5-1.5-1.7-1.8-3.5-1.5l-8 8.2c-1.4 1.1-2.1 2.1-3.2 3.6-1.6 2.2-4.5 4.9-6.5 7.1l-4.4 4.7c-1.7 1.9-2.4.7-6.8 7.1-.7 1-.8 1.9-1.6 2.9-2.8 3.6-9.2 2.1-13.2 2-1.6 0-3.2.1-4.8-.1-3.7-.4-.9-.9-8.2-1.4l-2.1-3.2c-.6-1.2-.8-2.4-1.2-3.8-.7-2.4-.2-4.2.9-6.2 1.4-2.7 2.4-6 3.8-8.6l6.4-9c1.7-1.7 2.7-4.3 3.9-6.1 1.2-1.9 4.8-4.6 6.7-6.1 2.2-1.7 5.6-3.4 7.2-5.2 2.8-3.2-.2-6.5-3.2-4.6-.4.3-.8.7-1.4 1.2l-7.4 5c-2.2 1.5-4.6 4.1-6.5 6.3-1.9 2.1-2.3 4.4-5 7.5-.8.9-1.4 2.2-2 3-1.5 2.1-2.7 3.2-4.1 6-.4.9-.7 1-1 1.6-.3.7-.2 1.2-.5 1.9-.4 1-1.1 2-1.7 3.4-.5 1.2-1.1 2.4-1.6 3.4-2.4.1-4.1.9-6.1.8-1.9-.1-3.9-.7-6-1-4-.6-6.8-3.2-9.4-4.8-2.4-1.5-3.6-3.2-5.5-5.1-.6-.6-1-1.3-1.6-2-2.2-2.6-4.1-5-5.2-9-.7-2.6.1-4 1.2-5.7.9-1.3 1.6-2.9 2.7-4.4 1.1-1.4 1.9-2.5 2.9-4.2 2.2-3.7 4.6-5.5 7.5-8.5.5-.5.2-.4.9-.8 1.6-1 3.3-1.3 5-2.2.7-.4 1.6-.8 2.4-1.2 1.2-.5 3.1-1.6 4.5-2.4 3-1.7 6-3.9 9-5.2 6.4-2.9 4.2-2.7 6.5-4.1 2.1-1.2 4.3-2.8 6-4.7 2.4-2.4 5.3-4.2 7.8-6.4 1.9-1.6 6.7-4.6 8-5.9 1.4-1.4 1.9-3.6 0-4.8-2.3-1.4-4 .5-5.1 1.5-1.3 1.1-2.8 1.8-4.2 2.9-1 .8-.4.7-1.9 1.6-.8.5-1.2.8-2 1.6-1 .9-.7.8-2 1.5-2.2 1.2-3.7 3.4-5.7 5l-2 1.6c-1.2 1.2-1.5 1.2-2 .9h0zM160.4 303.1c2.8 1 4.3-2.2 5.3-3.9 3.6-5.8 10.3-10.3 16.8-11.6 5.6-1.1 10.4-2.3 16.5-2.4 1.7 0 3.1-.3 4.7-.3 1.2 0 3.7.4 4.7.2 2.5-.6 2.4-4.1-.1-5.6-1.3-.8-15.3.3-17.6.6-1.9.2-2.5.6-3.9.8-5.7.9-13 2.8-17.5 6.3-.9.7-1.7 1.5-2.6 2.1-2.4 2-11.9 11.9-6.3 13.8h0zm37-37.5c4.4-.6 4.4-.8 4.5-2.8.3-4.1-4.1-3-8.2-2.8-2.9.1-5.6.7-8.4 1.1-2.1.2-5.7 1.4-7.3 2.2-2.2 1.1-4.8 2-3.4 5.7 1.9 2.5 4.5.7 6.8-.5 5.2-2.5 10.8-2.2 16-2.9h0zm249.2-18.3c-3.7 0-5.5-.7-8.4-1.4-.9-.2-1.7-.2-2.6-.4-2.4-.6-16.6-5.1-18.7-6.4-4.4-2.5-7.5 1.4-4.2 4.2 2.7 2.2 5.4 2.9 8.4 4.3 3.7 1.8 6.6 4.3 7.7 4.8 2.5 1.2.7.2 3.8 2.4 6.9 4.9 7.1 7.4 12.2 12.9l4.7 4.8c2.7 2.6.9.8 2.8 3.4.6.8.9.8 1.4 1.5 1.7 2.2 3.5 6.7 4.8 7.7 1.4 1.1 6.9 1.7 3.3-5.6-.6-1.1-.4-1.1-1.1-2.2-4.4-6.9-10-11.4-12.9-15.2l-4.2-5.3c-1.4-1.8-4.3-4.1-4.4-4.5 8.6.5 14.2 1.3 22.6-.4 1-.2 2.2-.9 3.1-1.4 1-.6 1.6-1.5 1.2-3.3-.7-3-4.3-1.4-6.2-.9-4.2 1.2-9 .9-13.3 1h0zm-52.9-72.2c-2.5-10.7-4.1-9.6-10.4-16.8l-4.2-4.9c-1.6-1.5-4.2-3.1-5.8-5.1-3.3-4-9.3-9.6-14.2-11.3-3.9-1.3-12.6-1.8-16.7-1.5-2.9.2-5.9.4-8.9.3-2-.1-7-1.3-8 .5.5 1.1 5 2.4 6.3 2.9 2.3.8 4.4 1.8 6.8 2.7 3.2 1.1 6.3 2.9 8.9 5 1.3 1.1 1.5.9 2.7 2 3.1 3 6.7 6.1 9.3 9.3 1 1.2 1.1 1.5 2.3 2.5 1 .8 1.6 1.5 2.5 2.2 1.7 1.3 3.7 2.7 5.3 4.1 3.5 3.1 6 6 9.4 9.2l4.5 4.6c2.5 2.1 4.9 4.3 6.8 7.1.7 1 1.4 1.7 2 2.8l1.6 3.1c1.7 4.4 2.7 4.7 3.3 10.8.3 2.5 1.4 6.7-.7 8.1-1 .4-2.1.5-3.1 0-.9-.6-.5-.1-.9-1.6a9.28 9.28 0 0 1-.3-2.4c-.1-2.8-1.1-5.5-1.6-8.4-.2-1.3-1-2.3-1.6-3.4-1.2-2.4-2.4-4.5-3.7-6.4-1.7-2.3-5.4-5.5-7.7-7.7l-2.6-2.5c-3.7-3.3-6-7-10.3-9.8-6.5-4.3-10.3-9.4-15.7-14.8-5.5-5.4-11.8-9-19.2-11.3l-7.2-2.8c-4.4-1.5-15.2-6.1-19.4-5.8-8.3.6-16.8-.6-25 .3-2.8.3-6.1 1-9.2 1h-10.1c-4.5 0-15.6-1.5-19.4-.4-1.1.3-2.6.8-3.8 1.2-1.5.4-3.1.5-4.4.9-5.3 1.8-10.1 3-14.5 5.6-2.2 1.3-3.7 3.1-5.3 4.7-1.8 1.7-3.4 3.1-5.2 5.1-2.2 2.4-5.4 5-7.4 7.7-2.4 3.1-5.7 5.4-7 8.4-.9 2.1-1.2 6.7 0 8.4 6.7.5 8.1-3.1 11.3-7.3 6.8-9 2.5-3.7 8.8-10.2 2-2.1 5.9-4.3 8.4-5.9l10.3-4c2.4-.6 5.3-1.4 7.6-2.2 3.9-1.4 3.8-1 7.7-1.8 2.6-.5 5-1 8-1.4 2.8-.4 6.2-.4 8.7-.9 2.2-.4 5.9-1 8.2-1.2l8.7-.6c3 0 5.9-.3 9.2-.3l8.3.8c3.3.4 5.3.5 8.3 1.6 1.2.4 2.6.6 3.8.9 1.2.4 2.1 1 3.2 1.6 2.7 1.4 5.7 2.1 8 3.9.7.5.4.4 1.4 1 3.3 1.8 11.1 7.7 12.8 8.5.6.4 1 .4 1.6.8 2.7 1.8 6.6 3.2 9.7 4.5 1.4.6 1.9 1.1 3.1 1.6 4.3 1.6 9 3.9 12.6 6.6l2.6 2.1c.6.5 2.2 1.6 2.6 2.1 1.6 1.8 3.3 3 4.7 4.8l3.6 6.1c1 2.3 1.7 4.5 2.8 6.8l2 5.1c1.9 3.8 2.8 8.2 4.9 11.7.9 1.5.3 2.9.9 4.1.3.6 3.3 1.6 4.1 2.2 1.4.9 2.3 1.9 3.2 3 .6.8.8.7 1.1 1.9.7 2.4 1.1 6.1.3 8.3-1.5 4.1-6.9 7.1-9.6 9.1-5.1 3.9-9.2 4.1-13.5 8.1l-4.6 4.9c-2.1 2.5-4 3.9-6.2 6.3-1.1 1.1-1.8 2.3-2.8 3.4-2.6 3.1-4.7 5-7.9 7.5-.8.6-1.3.8-1.9 1.3-3.3 2.9-6.8 6-11 7.7l-8.8 3.7c-1.7.5-2.7.5-5 1.3-1.7.6-2.9 1.2-4.5 1.7-1.8.6-3.3.7-4.9 1.4-6.2 2.6-11.4 5-17.8 7.1-3.8 1.3-7.3.7-11.6.9-1.6-2.6-1.3-2.8 0-5.5 2.1 0 5.2-.1 7.2-.3 2.4-.3 4.8-1.2 6.9-2.2.3-.1 1.1-.4 1.3-.5l5.2-2.1c1.4-.5 1.5-.7 2.7-1.2.8-.4 1.8-.5 2.7-.9 1.4-.6.8-.8 2.6-1.2 2.4-.5 3.7-.8 5.8-1.7 2-.8 3.4-1.3 5.6-1.8 2.6-.6 3.4-1.3 5.7-2 3.1-1 5.1-2.6 7.4-3.5 1.9-.8 2.7-2 4.3-3.1 1.4-1 2.6-2.5 4-3.4 1.9-1.1 4.8-3.3 6.2-5 1.6-1.9.8-1.5 3.3-4.1l3.6-3.8c1.1-1.1 3.3-2.9 3.5-4-.4-.2-7.8-.4-9.8-.8-3.5-.7-7.5-.4-11.1-.4-3.8 0-7.5-.3-10.9-.3-1.8 0-3.5-.1-5.3-.4-2-.2-3.2-.7-4.9-1-3.5-.6-6.9-.6-10.5-.8-4.7-.2-16.8-1.2-21.2-1.9l-10.1-1.5c-1.9-.2-3.2 0-5.1-.6-1.4-.4-3-.9-4.5-1.2-3-.7-5.4-2.3-8.5-3-3.8-.9-6.3-3-9.3-4.9-2.3-1.5-3-2-4.9-4-4-4.1-7.7-7.3-11.9-10.9-2.1-1.8-3.7-3.9-6.2-5.3-1.2-.7-2.5-1.2-3.3-2.4s-.2-3.1 1.3-3.9c3-1.6 7.3 3.4 9 4.6 2.3 1.8 11.7 10.2 13.1 11.8.8.9.9 1 1.7 1.8 1.6 1.7 1.9 1.8 4 3.1 8.1 5.1 8.3 3.7 14.4 6.6 5.9 2.8 11.9 2.1 18.1 3.2 8.3 1.6 17.2 2.3 25.5 2.6 2.3.1 4.2.4 6.5.5 5 .2 7.8 1.6 12.8 1.7 4.6.1 9.1.3 13.7 0 4.3-.2 9.1.7 13.1 1.1a38.61 38.61 0 0 0 6.8 0c1.9-.2 4-1.2 5.5-1.7 1.7-.7 3.3-1.4 4.9-2.2 5.4-2.6 8.5-4.7 12.8-8.6.9-.9.9-.5 1.1-2.3.5-4.1-3.4-6.4-4.3-6.2-1 .6-.8 1-2.2 1.8-3 1.8-6.5.6-9.5 2l-13.9 5.3c-1.9 1.1-7.5 1.3-9.9 1.6-5.1.6-9.7.5-14.6 0l-10.5-1c-1.3-.2-1.5-.4-3.2-.6-4.2-.4-8.9-1.6-13.1-2.4-2.9-.5-3.7-.5-6.3-1.4-.9-.3-2.3-.4-3.1-.8l-2.6-1.2c-4.8-1.8-12.8-4.2-17.9-5.2-2.1-.4-3.9-1.3-5.8-2-1.5-.5-1.5-.8-2.6-1.3l-13.6-5.7-3.9-3.8c-1.4-1.3-2.8-2.2-4.2-3.5-1.6-1.5-2-2.3-4-3.7-6.5-4.7-13.8-5.9-21.8-9-3-1.1-7.4-3.4-10.4-5-1.6-.8-4-1.5-5.5-2.2-2.6-1.1-3.1-1.9-4.9-3-4 1.2-10.4 3.4-13.3-.7-3.4-4.7-2.9-8.1-1.2-13.6 1-3.3 3.4-5.3 5.9-7.5.7-.6 1.3-1.7 1.9-2.5l8.7-9.1c2.5-2.8 6.5-6.3 9.2-8.6 4.2-3.6 7.2-3.9 12.2-5.6 6.8-2.4 3.4-1.4 10.3-3 1.7-.4 2-.6 3.3-1.1 2-.7 14.8-.3 17.4 0 5.6.7 11.6.1 17.1-.2 5.5-.2 11.6-1 16.9-.9 4.2.1 8.7.6 13 .1 1.2-.1 2.6-.5 3.6-.6 4.2-.4 12.4.4 16.9.7 5.5.4 11.9 0 17.5-.3 4.3-.2 2-1.1 7.8 0 2.1.4 5.9.4 8.2.6 5.6.6 9.2 2.6 12.5 5.3l4.7 4.2c1 1.1 3.1 4 4.6 4.1 1.7-2.9-1.4-8.4-2.7-11.1l-2.6-4.8c-1-1.5-2.3-2.9-2.9-4.8-.8-2.9-2.2-3.1-4-7.5l-4.3-6.3c-2.2-3.2-3.6-5.9-6.4-8.7l-3.9-3.8c-3-2.8-8.2-8.9-11.4-11.1l-9.1-6.3c-3-1.9-6.4-4-9.7-5.4-3.2-1.4-1.8-1.3-6.1-1.6-2.2-.1-5-.1-7.1-.4-2.2-.3-1.2-.8-2.7-1-10.8-1.3-21.5-1.4-32.3-2.2-4.6-.4-9.9.5-14.5.7-2.4.1-4.4.7-6.8.9-5.4.3-10.3 1.9-15.5 3.3l-5.8 1.9c-2.6.8-5.4 2.5-7.5 4l-4.3 3.1c-1.6 1.3-2 2.3-4.2 3.5-2.3 1.3-5.3 4.8-8.1 7-1.4 1.1-2.9 2.1-4.4 3-1.8 1.2-4.9 1.3-5.3-1.1-.6-3.3 4.4-4.9 7.9-7.6 2.5-2 3.8-4.3 5.8-5.5.9-.5 1.4-1 2.3-1.6 2.6-1.8 4.5-4.2 8.5-6.6 2.2-1.4 1.9-1.4 4.7-2.7 9.7-4.5 20.4-5.6 30.9-7.3l14.4-.8c5.4.1 30.5 1.4 35.3 2.7 2.9.8 7.3 1.1 10.4 1.2 2.9.1.8-3.7.1-8.1-.5-3.1-3-7.5-4.6-10.5-1.7-3.2-3.6-7.1-5.7-9.8l-3.3-4.1c-2.5-2.6-9.5-8-12.7-10.1-6.9-4.4-13.8-6.9-22.3-8.2-4.4-.7-9.4-.6-13.8-1.4-9.1-1.5-19.7-1.2-28.9-.5-8.4.7-11.9.5-20.1 2.6-3.2.8-2.9.8-5.3 2.4-3 1.9-6.1 2.9-9.7 5.4-5.5 3.7-5.6 1.3-13.3 9.5-1.3 1.4-2.5 2.2-3.7 4-.9 1.4-1.8 3.3-2.9 4.5-1.9 2.1-8.5 11.3-9.4 13.7-.7 1.9-1.6 3.1-2.5 4.9-.9 1.9-1.9 3.3-2.7 5-2.4 5.1-6.3 8.8-10.1 12.7l-7.1 8c-1.8 1.9-1.8 2.5-3.2 4.5-.9 1.3-2 3.3-3.1 4.3-3.7 3-.4-.7-3.7 3.9-1.2 1.7-2.4 2.6-3.7 4l-1.9 1.9c-.7.6-1.5 1.1-2 1.8-1.4 1.8-.6 1.8-3.1 4.3-1.2 1.2-2.4 2.6-3.2 4.5-.9 2-1.8 2.5-3 4.3-1.2 1.9-1.6 3.5-2.8 4.9-1.1 1.4-2.1 2.7-3 4.4-1.3 2.7-4.5 6.6-6.2 9.3l-4 7.3c-.6 1.5-.8 1.3-1.5 2.4-1 1.8-1.5 3.5-2.5 5.2-.5.8-.9 1.4-1.3 2.2-.7 1.3-.7 1.1-1.5 2.3-1.8 2.7-3.6 7.1-4.9 10.2-1 2.4-4.3 7.3-5.7 9.7-.8 1.5-2.4 3.2-3 4.7-.6 1.2-.1 1.3-1 2.5l-3.8 7.7c-1.4 3.8-3.9 6.4-5 10.4-.5 2-1.6 2.9-2.7 4.8-.9 1.5-1.9 3.3-2.5 5.1-.9 2.7-2.9 4.9-4.2 7.4-1.3 2.6-2.2 5.2-3.7 7.5l-5 10.1c-.8 1.6-2 3.4-2.4 5.3-.5 2.8-1.5 2.7-2.3 5.1-1.8 5.3-2.5 5.1-3.6 8l-3.4 8.2c-.2.7-.8 2-1 2.5-.3 1.1-.1 2-.7 3.2-1.1 2.6-1.2 2.8-1.8 5.9-.6 3-1.6 5.9-3 8.3-.6 1-2.2 7.2-2.5 8.7-.4 1.8-1.5 3.6-1.8 5.9s-.5 1.5-.9 2.9c-.2.8-.4 2.4-.5 3.3-.2 1.1-.2 2.3-.4 3.5-.2 1.4-.7 1.9-.9 2.9-.3 1.2 0 1.9-.3 3.3-1.1 5.4-.3 3.9-.8 6.9-.2 1.3-.5 1.9-.8 3.1-.5 2.1.1 4.8-.6 6.9-1.8 5.6-1.2 8.5-1.6 9.6-.5 1.7-.8.2-.8 3 0 2.4-.8 4-.9 6.8 0 5.9-.4 3.2-1 6.8l-2 9.2c-.3 2.3-.3 4.9-.8 6.9-.3 1.3 0 2.3-.3 3.6-1.2 4.6-.2 9.7-1.2 14.2-.5 2.3-.1 4.7-.7 6.7-1.5 5 0 10.7-.9 14.5-.4 1.5-.8.6-.8 3 0 1.6 0 2.1-.4 3.5-.8 2.9-.1 4.2-.5 6.9-.2 1.3-.6 1.8-.8 3.1s0 2.3-.3 3.6c-1.5 6-.5 1.5-.8 6-.2 3.8-2.4 8.9-.4 13.1l1.3 10.3c0 2.2.4 1.5.8 3.1.4 1.1.1 2.3.3 3.5.5 3 1.4 6 2.5 8.8.5 1.2 1.3 5.6 1.6 6.1.6 1.1.7.7 1.2 2.3.4 1.4.5 1.7 1.1 2.7 1.4 2.5 2.2 5.6 3 8.3l4 7.6c1 1.5 2.3 3.1 3.4 4.3 1.4 1.4 2 3 3.2 4.5 1.3 1.7 2.3 2.4 3.5 3.9 1.3 1.6 2.3 2.3 3.8 3.9 4.5 4.7 4 3.4 8.6 6.5l9.4 5.7c1.8.9 2.9 2.2 4.9 2.8 3.7 1 6.9 3.1 10.4 4.8l2.8 1c2.9.9 4.4 3.2 10.2 5.2 1 .4 2 .4 3 .8 3.6 1.6 7 2.7 11 4.1 2 .7 4 .8 6.1 1.6 1.5.6 4 .5 6.3 1.4 2.5 1 8.8 3.5 11.5 3.7 1.2.1 2.4-.1 3.6 0 1.3.1 1.6.6 3 .8 1.6.2 1.9-.1 3.3.6 1.6.8 1.1.4 3.2.5 1.5.1 1.6.4 2.9.7s2.4 0 3.6.2c1.5.2 1.4.7 3 .9 1.2.1 2.6-.1 3.8 0 1.3.1 1.6.6 3.1.8 1.2.2 2.5.1 3.7.1 3.1 0 4 .9 6.6 1.1 3.5.3 7.3-.2 10.8.6 4.7 1 13.2-1.2 18 1 .5.2 33.9 1.1 37.2-.1 3.2-1.1 10.3-1.3 13.7-1.4 2.8-.1 3.3-1.2 6.5-1.2 3.4 0 7.5.5 10.7-.5 2.9-.9 44.8-.3 49.5-.4 2.4 0 2-.9 6.2-1 6.8 0 24.4.8 29.6-1.1 1.7-.6 4.4-1 6.2-1.5 1.5-.4 4.5-1.2 5.4-1.9.7-.6 4.4-1.6 5.7-2.1 3.8-1.5 2.3-1.5 5.4-2 1.5-.2 1.6-.6 2.6-1.2.9-.5 1.8-.4 2.9-1 5.4-2.6 3.3-.7 8-7.3l3-4.4c3.3-4.4 5-3.4 4.1-10-1-7.1 1.7-13.5-.5-21-.5-1.7-4.8-7.6-6.1-9.3-1.2-1.5-1.5-3-2.7-4.8-3.7-5.9-5.7-6.8-10.8-12-1.3-1.3-2.4-2.2-3.6-3.8-.9-1.3-1.9-3.4-2.8-4.9-2-3.4-3.8-7.1-2.9-12 1-5.3.9-6.1 5.1-10.1 5.8-5.6 14.3-8.9 22.5-6.2 1.6.5 4.2 1.5 5.2 2.5 2.4 2.3 2.4 1.9 3.5 4.2 2.2 0 1.5-.7 2.6-2.2 1.7-2.2 6.8-4.5 9.5-6 2-1.1 4.4-2.9 6-4.3.9-.8 1.8-1.4 2.8-2.2l5.4-5c2.5-2.9 5.2-4.5 7.9-7.5 1.8-2 3.6-2.9 5.6-4.7 2.5-2.3 6.3-4.3 9.2-6.2 1.3-.9 1.7-1.5 2.7-2.3 1.8-1.5 4.8-2.1 7.2-3.2 2.6-1.2 4.2-2.4 6.9-3.5 5.2-2.1 12.6-2.6 17.9-1.2 1.8.5 4.9 2.9 6.4 4l8.3 7.1c3.8 3.6 3.2 2.2 6.4-1.1l1.6-1.6 1.5-2c1.8-2.1 4.7-5.3 5.9-8 1.2-3 3.2-6.5 3.7-9.9.5-3.3.7-10-.5-12.6-1.4.1-1.5.4-2.3 1.2-.8.7-1.4 1-2.2 1.7-1.4 1.1-2.9 2.2-4.4 3-.9.5-1.2.8-2.2 1.4-2.5 1.3-5.3 2.5-8.1 3.2-7.8 1.8-1.9 1.8-12.8 2.1-8.8.2-19.9-1.6-28.4-.9-4.5.3-9.2.9-13.9 1-9.6.2-18.6 1.4-28.4 1.4-4.8 0-9.9.2-14.7-.1-2.6-.2-4.4 0-6.9-.5-1.6-.3-5-.5-6.8-.5-4.7-.1-9.5-.5-14.5-.5-5.7 0-16.4.8-21.5-.9l-5.5-1.9c-6.4-2.3-15.3-1.5-19.7-2.8l-19.4-3.1c-7-1.2-12.6-4.3-18.8-7-.9-.4-1.5-1-2.4-1.4-3.6-1.7-6.5-2.6-10.2-4.6-5.4-3-9.4-5-15.3-7.2-1-.4-1.4-.6-2.4-1.2-2.5-1.3-4-1.4-7.6-3.6-1.9-1.2-2.8-1.5-5-2.4-4.1-1.8-6.1-3.2-9.4-5.4-1.4-.9-3.1-1.9-4.6-2.8-8.2-4.9-5.7-2.4-10.3-4.8l-4.9-2.5c-1.1-.5-1.1-.9-2.2-1.3-2.6-1.1-9.9-5-11.8-6.9-3.5-3.6-12.2-7.9-15.5-12.4-.3-.4-.4-.7-.8-1.2-2.3-3-4.1-7.3-3.5-11.3.2-1.2.7-5.7 1-6.7.9-2.7 3.8-7.5 6.3-8.5 3-1.2 2.5-1.2 6.1-1.2 4.7-.1 8.5 1 13 2 1.9.4 3.7 1.2 5.9 1.5 2.5.3 19.6 5.8 22.9 6.7 4.3 1.2 6.1 2.5 11.2 3.9l11.8 3 12.8 2c2.2.2 3.8 1 6.2 1.3 2.5.3 3.9.7 6.2 1.2 2 .4 4.3.7 6.2 1.2 7.8 2.3 22.2 5 30.6 6.7 1.9.4 3.9.9 6.1 1.3 2.3.4 4.5.4 6.6.8s4.2.6 6.5.9c2 .3 5.3.1 7.1.6 8.2 2.1 17.7 2.2 26.1 3.8 9 1.7 19.5 0 28.7 1.2l13.4 1.4c3.5.2 11.4-.1 14.3.7 5.5 1.4 22.2 1.9 28.1 1.3l14-.8c2.4-.2 4.9 0 7.3-.1 1.2 0 2.4-.1 3.6-.2l9.2-1.9c5.4-1.9 6.9.3 16.7-5.9 2.2-1.4 4.2-3.2 6-4.9 2.1-1.9 3.3-3.9 5-6.2 2-2.8 4.5-5.7 6.2-8.6.6-1 .5-1.6 1.1-2.4 1-1.3.6-.7 1.3-2.5l4.5-10.6c2.4-7.9 2.4-17.7-2.2-24.5-.7-1.1-.5-1.4-1.1-2.4-1-1.5-2-1.6-3.3-4.1-.9-1.6-5.5-5.8-7.2-8-.6-.8-.9-1.4-2.3-1.4-1.5 2.1-.8 2-3.3 4.7-.6.7-.6.8-1.2 1.5-.9 1.2-4.4 4-6 4.7-3.8 1.7-14.2 2.6-19.1 1.9-3.8-.6-3.4-5.2-.1-5.7 1.1-.2 3.9.1 5.2.1 4.6 0 11.8-.6 14.8-4 .7-.8 1.4-2 2.4-2.9.7-.6 1-.5 1-1.7-1.4-.2-4.1.5-5.8.6-2.4.1-3.9-.3-6.2-.3s-4.1 0-6.3-.2c-1.4-.1-1.6.2-2.5-.9-1.6-2-.5-4.9 4-4.6 11 .5 17.2 1.4 25.6-6.6 1.2-1.2 2.1-2.1 3.1-3.4l2.1-3c1.1-1.3 2.7-3.2 3.4-4.8 1.5-3.2 3.4-6.2 3.7-9.7.1-1.4 1.2-4.4.5-5.6-.1-.1-.3-1.1-1.4.5-.5.7-.6 1.2-1.2 1.8-.9 1-1.8 1.7-2.7 2.9-2.1 3-4.6 4.8-6.9 7-2.9 2.7-9.1 6.1-12.7 7.2-2.8.8-6.3 1.6-9.4 1.9-3.4.4-6.7 1-9.8 1.5-2.3.3-19.6.1-22.2-.1-3.5-.3-6.5-.8-10.3-.8-9.5 0-22.5-.3-30.8-3.3-3.6-1.3-9.7-1.3-11.8-5.2-.7-1.3-1.5-2.6-1.4-4.4.5-9.9 3.4-11.3 6.4-16.6 1-1.7 2.4-3 3.5-4.8.7-1.1.5-.6 1.4-1.6l1.2-1.5c3.3-3.6 6.6-5.7 9.5-10.4 1.4-2.4 3.2-4.5 5.1-6.4 1-1 1.8-2.1 2.7-2.9 3.6-2.9 13.3-9.4 16.8-11.3 3.6-2 4.6-2.5 8.7-2.9l10-1.2c7.2-.3 14.4-.5 21.5.4l10.1 1.4c2.7.8 6 1.8 8.3 3 1.6.9 2.3 1.3 3.2 2.4.6.7.8.8 1.3 1.4 1.5 1.9 5.9 8 6.9 10 .8 1.7.3.6 1.3 1.7 1.1 1.3.9 3 2.8 3.1.6-1.9.6-11.5-.1-14.1-1.6-6.1.6-6.1-5.5-9.5-7.1-4-11.2-5.2-19.6-5.4-1.7 0-2.8-.5-4.2-.7-8.8-1.2-31.6-1.7-38.3-.3-8.2 1.7-14.6 4.1-21.5 8.7l-5.8 4.2c-.6.5-.8.4-1.4 1-1.3 1.2-2.8 2.2-4 3.7-1.1 1.5-3.5 4.5-5.4 4.7-3.2.3-4-3-2-5.2 1.7-1.8 3.2-3.5 4.9-5.2s3.5-2.8 5.4-4.6c1.6-1.6 4.1-2.7 6-4.1 1.8-1.3 7.8-4.4 9.7-5.1 10.9-4 9.1-2.8 20.7-4.4 4.9-.7 14.1-.2 19.3 0 1.6.1 2.4.5 4.4.5l9.8.6c2 .3 1.2.5 4.2.6 6.7.1 10.4 1.3 16.7 3.6 2.5.9 7.4 4 9 6 1 1.2 1.1 2.1 2.9 2-.2-3.4-10-8.8-12-10.3-4.5-3.4-9.1-6.6-14.8-8-2-.5-17.4-2-20.8-2-7.3 0-28.5 1.1-34.2 3.7-1.2.6-1.5.6-2.8 1.1-2.2.8-6.3 4.1-8.6 2.9-.9-1-1.6-1.9-.9-3.6.8-2 1.3-1.4 2.7-2.4 2-1.4 6-3 8.5-3.9 3-1.1 12.5-2.1 15.5-2.4 9.1-.8 18.7-1.7 28.1-.8 1.9.2 7.5 1.1 9 1 .8-1.7-.6-2.8-1.4-4.1-1.4-2.4-3.3-4.2-4.9-6.4-1.1-1.5-2.1-3-3.7-4.6-2.4-2.3-3.9-4.3-6.7-6.4-.7-.5-1.2-.8-1.9-1.3-.9-.7-.6-.7-1.9-1.4-1.7-.9-2.3-1.9-3.7-2.8l-9.6-6.7c-2-1.2-4.6-2-6.4-3.4-4.6-3.4-9.9-5.5-15.1-7.7-1.1-.4-1-.7-2.2-1.1-1.7-.6-3.5-.6-5.3-1.2-13.8-4.3-24.2-6-39.5-6-3.4 0-8.5.6-11.8 1.2-5.5.9-11.2 1.2-16.5 3-4.1 1.4-5 2.1-9.9 3.2-2.3.5-2 1-5.2 1.3 0 .9 1.1 1.8 1.7 2.4 4.2 4.4 7 7.1 10.5 12.3.4.7.5.5.9 1.1.4.5.5 1 .8 1.5l5.2 8.4c.7 1.3 2.4 3.7 3.4 5.8 1.2 2.7 2.1 3.4 3.5 5.7 1.7 2.8 2.9 6.5 4.3 9.3.8 1.6 1.3 5.8 1.1 7.6-.3 2.7-2.5 4.5-.2 6.6 1.6 1.5 2.8 3.3 4.3 4.9 3.3 3.7 5.8 5.4 8.4 10 .8 1.5 2.6 9.1 2.8 11.1.3 2.4.5 6.2.6 8.6 0 2.1.4 7.2-.3 8.7-1.1 2.5-4.7 1.7-5.3-1.1-1.1-3-.1-12.7-1.2-17.3h0zm-50.2-2.7c-1.2 1-1.8.2-3.5.3-1.3.1-2.7.5-4.2.5l-18.1 1.1-46.5-.8c-5.4 0-10.4 1.1-15.4 1.2-4.9.1-10.9.8-15.4 1.5-6.6 1-15.7 1.4-21.6 3.6-1.1.4-2 .7-2.9 1.2s-1.7 1.4-3.2 1.3l-5.9-2.5c-2.1-1.2-1.1-1.8 1.3-4.8 1.4-1.8 1.5-2.6 4.5-5.8l3.2-3.3c1.3-1.5 5.5-3.9 7.3-5.1 1.6-1 13.3-4.9 15.7-5.6 6-1.9 14.3-3.2 21-3.9 1.3-.1 2.8-.1 3.9-.3l15-1.7c9.7-.3 9.7-.3 19.9.7 5.7.5 13.4 4.2 18.4 6.8l12.6 8.4c1.3.8 1.2 1.1 2.7 1.8l2.7 1.5c.8.4 2 .8 2.9 1.3 1.1.3 5.1 1.8 5.6 2.6h0zm80 328.3c1.3-.4.7-.9 3.2-2.6 3.4-2.4 6.6-5.5 9.6-8.2.6-.6 1.2-.9 1.7-1.3 1.5-1.4 4.9-5.6 7.3-7.5 5.3-4.2 2.5-1.8 6.1-5.7 1.1-1.2 1.9-1.8 3-2.9l3.1-2.8c1-.9 1.9-2.1 2.9-3 2.1-2 3.3-3.7 5.2-6.6 2.8-4.2 5.1-5.1-1-5-5.3 0-8.4 3.2-11.9 5.8-1.2.9-2.2 1.8-3.3 2.6l-6.7 5.1-6.9 5c-3.1 2.3-7.7 5.3-11.6 6.2-6.2 1.5-4.9-.5-3.1 5.5 1.4 4.2.2 12.6 2.4 15.4h0zm18.8-326.1c.1-1.1.6-.8 1.6-1.4.9-.5 1.2-.9 2.1-1.5s1.5-.9 2.2-1.4c4.4-2.7 6.2-4.7 12.2-5.2 9.4-.8 16.5-1.9 25.9-.7 4.8.6 12.8 1 17.5 3.2 5 2.4 3.7 2.4 5.5 4.9.6.9.9 1.1 1.4 2.1l7.3 10.5c.6.8.9.9 1.7 1.9 2.3 2.9 2.5 1.7 3.2 3.6.6 1.8 1.3 5.8-1.8 3-1.5-1.4-6.3-2.6-9.6-4.3-3.2-1.7-6.3-2.7-9.5-4.5-1.6-.9-3.7-2.5-6.4-4-4.2-2.3-8.8-3.5-13.7-3.8-2.1-.1-3.9-.6-6.2-.6s-4.5-.2-6.6-.4c-3.3-.3-26.2-1-26.8-1.4z"
       fill="#39933c"
       id="path16791" />
    <g
       fill="#fff"
       id="g16795">
      <path
         d="M323 227c.3-1.6-.2-.4.7-1.4 4.5-5.8 7.3-13.8 7.8-21.2 1.3-22.7-5.5-21-6.7-24.7 6.7.1 12.6-1 19.5-1 1.6 0 2.8-.3 4.7-.3 2 0 3.3.3 5 .4 4 .2 3.1-.2 7.1 3.1 3 2.5 7.8 7.7 9.1 11.3l8.8 22.1c2.8 6.9-2.6 5.4-3.8 5.5-3.2.4-5.2 1.7-7.9 2.5-2.2.7-4.8 2.1-7.3 3-7.1 2.6-19.9 2.8-28.1 2.1L323 227zm160-2.2c.3-1.2 1.9-2.7 2.8-4.1.9-1.5 1.5-3.2 2.3-4.8 3.6-7.3 2.4-16.3-.5-23.8l-4.8-7.7c-.7-.8-.4-.1-.8-1.1 1.8-1.2 9.4 2.2 11 3 1.8.9 3.1 1.9 4.6 2.8 2.5 1.6 12.1 6.2 14.7 7.2 3.7 1.4 9.6 2.3 7.9 6.6-.5 1.3-2.6 2.6-3.5 3.6-3.9 4.5-5.7 7.4-11 11.2-2.7 1.9-6.4 3.8-9.8 4.9-1.6.7-11.2 2.5-12.9 2.2zm-220.7-44.4c-.4 1.7-.9.7-3.5 4.1-2.9 3.8-5.7 7.5-7 12.3-.3 1-.2 2.3-.8 3.1h-.5c-1.3-.4-1.9-2.8-6-4.6l-7.9-3.4c-2.9-1.2-5.4-1.6-8.4-2.9l-6-2.4c-1.3-.4-1.4-.1-1.7-1.1 1.5-1.1 17.1-3.2 20.1-3.3l20.5-2h.3c.9 0 .4-.2.9.2zm48.3 11.5c2.3 1 3.9.4 6.2 3.4s.5 10.8-4.4 13.1c-3.2 1.5-4.6 1.2-8.5 1.2-5.7 0-10.7-11.4-.6-16.1 1.5-.8 5.3-2.5 7.3-1.6zM422.9 223c-1.4.3-4.8-1.2-6.4-1.6-9-2.2-7.7-1.4-6.9-8.2.4-3.2 7.7-13.1 9.6-15 .9-.9 7.2-7.8 8.1-8 .2.8-.8 2-1.3 3-.7 1.4-.7 2.5-1.2 3.9-.8 2.7-1.7 2.4-2.4 7.8-.4 3.4-1.2 5.2-1.1 9.1.3 3.2 1.7 7 1.6 9zm46.8-26.7c2.2.8 5.3-.6 8 3 .6.9.6 1.7.7 3.2.1 2.6.3 4.8-1.2 6.4-1.3 1.5-2.2 2.6-5.1 2.6-2.6 0-5.9.4-7.5-3.5-2.8-6.6 1.8-12.9 5.1-11.7zm-192.8-11.9c2.3.9 4.4 2.4 3.6 5.6-.3 1.2-2.6 3.8-6.3 3.3-1.8-.3-4.1-3-3.1-5.4.6-1.5.8-1.8 2-2.7s2.3-1.3 3.8-.8zm3.6 16.6c4.8 2 1.1 11-4.3 7.9-5.5-3.3 0-9.6 4.3-7.9zm162.7-11.7c6.6 1.8 3.1 9.9-1.6 8.9-2-.4-3.6-2.7-2.8-5.4.5-1.9 2.3-4.1 4.4-3.5zm2.7 19.6c1.8.9 1.9 3.8.9 5.4-2.2 3.7-8.7.9-6.6-3.9.4-1 .8-1.5 1.9-1.7 1.2-.2 2.9-.2 3.8.2z"
         id="path16793" />
    </g>
    <path
       d="M174.6 269c-1.4-3.6 1.3-4.5 3.4-5.7 1.5-.8 5.2-2 7.3-2.2l8.4-1.1c4.1-.2 8.5-1.3 8.2 2.8-.1 2 0 2.2-4.5 2.8-5.2.7-10.8.4-16 2.9-2.3 1.1-4.8 3-6.8.5h0zm305.8 192.1c0-2.9-2.1-3.4-5.3-4.1-1.4 2.1-5.9 8.9-7.5 10.6l-9.2 9.2c-2 2.4-3.8 4-6.1 6.3-.6.6-.9 1-1.5 1.5-5.1 4.1-9.6 9.6-14.2 13.3-1.2 1-2.1 1.8-3.4 2.8l-5.1 4.1c-.9.7-1.1.7-1.7 1.6.4.6 1.4 1.9 2 2.4l4.6 4.6c1.5 1.5 2.2 1 3.2 1 1.3-5.5.8-4 3.5-8.6 3.2-5.4 5.9-9.5 10.3-14 6.8-6.8 6-4.4 11-7l3.9-2.3c2.3-1.3 3.7-4.3 5.6-6.5 2.6-3.1 9.9-10.4 9.9-14.9h0zm-56.1 18.7c3.9-.9 8.5-3.9 11.6-6.2l6.9-5 6.7-5.1c1-.9 2.1-1.8 3.3-2.6 3.5-2.6 6.7-5.7 11.9-5.8 6.1 0 3.8.8 1 5-1.9 2.9-3.1 4.6-5.2 6.6-1 .9-1.9 2.1-2.9 3l-3.1 2.8c-1.1 1.2-1.9 1.7-3 2.9-3.6 4-.8 1.5-6.1 5.7-2.4 1.9-5.8 6-7.3 7.5-.5.4-1 .7-1.7 1.3-3 2.7-6.2 5.8-9.6 8.2-2.5 1.7-1.9 2.2-3.2 2.6-2.1-2.8-1-11.2-2.2-15.4-1.9-6-3.3-4 2.9-5.5h0zm57.9-7.5c-.8-1-.3-.7.2-1.3 1.2-1.2 3.2-5.9 3.5-7.5.4-2.5.8-1 2.3-2.1.8-.6 1.2-2.3.9-3.3-.4-1.2-6.6-4.9-8-5.4-5.2-2.2-17.4-4.6-22.7-2.1-1.4.6-1.9.5-3.2 1.3l-5.3 3.6c-2.3 1.6-5.9 5.4-9.8 7.9l-2.6 1.9c-3.6 2.2-6.8 5.3-10.6 7.2-1.1.5-2 .8-3.1 1.3-4.9 2.5-14.7 1.3-19.4-.1-1.4-.4-1.8-.9-3.2-1.3-2.5-.7-3.5-2.2-4.4-4.5-.4-.9-1-2-1.1-3.1-.2-1.3-.2-3 .1-4.2.3-1.4.9-2.1 1.3-3.2 1.1-3.5 1.5-2.6 4.3-4.5l5.7-3.2c1.9-.7 3.2.8 4.8 1.5l2.8 1.6c1.4.8 2.6 1.6 3.6 2.9.8 1 1.2 1.3 1.9 2.6 2.2 3.7-6 8-7.1 9.6-1.6 2.4.8 5.3 3.6 4.2.4-.2 2.1-1.5 2.6-1.9l2.4-2.1c2.3-2.5 4.6-5.3 4.6-8.9 0-1.7-1.1-3.7-2-5l-3-3.6c-.8-1-.4-.3-1.3-1l-6.6-4.3c.8-1.1 1.5-1.2 2.6-2 1.2-.9 2.2-2.6 3.4-3.4 2.4-1.6 1.5-1.3 3.4-3.4 1-1.1 1.3-1.3 2.5-2.2 1.7-1.2 3.4-2.7 4.6-4.3 1.5-1.9 5.5-4.5 7.6-6 3-2.2 5.1-3.2 8.1-5.8 1.6-1.4 4.1-2 6.1-2.8 7.8-2.9 7.3-5.2 17.8-5.3 2.8 0 4.7.7 6.8 2.6 1 .9 1.6 1 2.5 1.9 2.8 2.8 6.7 6.2 10 8.4 2.1 1.4 2.7 3.3 3.8 5.4.7 1.3 2.3 2.9 3.8 5.1l2.1 2.4c1.2 1.3 3 1.8 4.4 2.7 2.1 1.3 3.1 1.3 4.5 2.3 3.7 2.6 7.9 3.9 11.5 6.5l13.3 9.5c1.8 1.2 3.7 2.6 5 4.1 2.2 2.4 4.7 4.3 7 6.6s3.9 5.3 6 7.6c2 2.2 4.6 7.3 7 9 1.7 1.2.6 1.1 1.9 2.5l3.4 3.4c2.2 2.6 1.8 2.5 3 4.1.7.9.3.2 1 1 1.8 2.2 5.6 8.7 5.9 12.3 2 1.3.5-.6 1.8 2.2 3.2 6.9 3.4 4.9 4.9 7.3s2.7 5.3 4.3 7.8l7.6 16.7c1.6 3.5 1.1 2.8 1.7 6.3.6 3.7 2.9 4.7 1.6 10-.4 1.5-.7.9-1.7 2.4-2.9 4.1-3 2.4-5.5 4.5-1.2 1-.5 1.1-1.9 2l-4 1.9c-2.1.9-3.2 2.6-4.7 3.2l-6.9 3.3c-1.8.9-1.1 1.5-3.9 1.9s-3.5 1.7-6.2 1.8l-.1.4s0 .1-.1.2l-.1.6c-2.1-.2-1.1-.4-3.4.2-1.2.3-2.3.3-3.6.6-4.2 1.1-8.4 2.1-12.6 3.7-1.1.4-5.5 1-6.8 1.1-3.4.4-4.1-.3-7.6.7-1.6.5-14.4.4-15.8-.1-1.7-.6-1.2-.6-3.5-.6l-16.6-.3c-3.4-.1-10.9.6-13.6-.5-1.1-.5-11.3-1.1-13-1.6-1.3-.3-3.3-.2-4.8-.3-2.6-.1-1.7-.6-3.8-.8-3.5-.4-5.3-.6-8.3-1.5s-7.9-2.6-10.6-4.2l-8.9-5.6c-1.2-1.2-3-1.9-4.5-2.9-.8-.6-.4-.6-1.2-1.2-.6-.5-1-.5-1.6-1.1L403 555c-1-.6-2.1-1.7-2.9-2.1l-3.1-1.6c-1.3-.8-.9-.8-1.7-2.1-.7-1.1-1-2.7-1.7-4.2-4.5-9.5-2.9-17.9-2.9-27.9 0-5-.5-4.3-.8-7.7-.2-2.3-1.6-4-2.5-5.9-.8-1.5-3.5-4.9-4.8-6.5-.8-1.1-1.3-2.5-1.9-3.7-1-2.1-3.1-4.8-4.6-6.4-2.8-3-5.5-5-8.5-8.4-2.7-3.1-5.1-6.7-6.4-10.4-1-2.9-.9-6.6.6-8.9.3-.4 2.5-2.5 2.9-2.7 4.5-3 5.7-5 11.7-5.1 2.7 0 2.4.1 4.5 1 6 2.5 2.4.2 6.4 4.8 1 1.1 1.1.8 1.9 2.2 2 3.8-.5 10.6 7.2 16.2 5.2 3.8 7.2 3.1 10.3 4 .8.2.7.5 2 .7 1.7.2 3.2 0 5 .4.3.7.6 2.3.9 3.2.3 1.3.8 1.5 1.1 2.7 1.1 4.3.7 9.9 1.6 14.1 1.1 5.3 5.1 11.1 9 14.5.9.8 1.4 1.2 2.1 2 1.8 2.2 4.2 3.5 6.2 5.3l7.8 6.2c2.5 2 4.6 4.5 6.9 6.8 1.3 1.3 5.4 3.7 7 4.8 3.4 2.3 8.3 2.9 12.3 3.5 3.7.6 5.4-.5 7-.6 2.1 3.7.5 5.7 4.2 9.7 1.1 1.2 1.6 2.2 4.1 3.1 1.1.4 1.5.8 2.5 1 5 1 10.5 1.4 15.4 1.8 3.5.3 6.2-.2 9.3-1.3.8-.3 1.4-.7 2-.9.5.6 1.2 3.6 1.6 4.9.5 1.7 3 4.4 4.5 5 6 2.4.4.8 7.7 1.8 3.8.5 7.5-.2 10.8-1.4 7.1-2.6 7.4-6.9 12.1-10.1.4-.3.5-.3.9-.6l3.4-4.6c.6-.8.8-.8 1.5-1.8.6-.8.8-1 1.3-1.7l2.2-2.8c.3-.5.3-.4.7-.8 2.6-2.7 4.7-5.5 7.5-8.2.8-.8.7-.9 1.6-1.3 0-2.1-.1-3.4-1.7-4-3.4-1.3-6.9 4.3-8.6 6.7-1.4 2-3.5 3.3-5 5.4-.7 1.1-.5.4-1.3 1.4l-4.2 5.9c-.4.5-.8.8-1.3 1.3-.8.9-1.5 1.8-2.4 2.7s-2.1 1.6-2.8 2.5c-.8 1-1.3 2-2.3 2.7-1.9 1.3-4.2 2.5-7.2 3.1-2.2.4-7.4.2-9.2-.7-4.4-2.1-2.4-2.5-4-6.3-1.9-4.4-1.7-3.9.5-7.5.9-1.5 1.3-1.5 2.7-2.6.7-.6.7-.7 1.4-1.3 2.1-1.6 10.8-10.9 11.3-11.6 2.3-3.5 2.6-2.9 4.8-5.3l2.5-2.8c1-1 1.4-1.6 2.5-2.5 1-.8 1.5-2.1.9-3.9-.5-1.5-1.7-1.8-3.5-1.5l-8 8.2c-1.4 1.1-2.1 2.1-3.2 3.6-1.6 2.2-4.5 4.9-6.5 7.1l-4.4 4.7c-1.7 1.9-2.4.7-6.8 7.1-.7 1-.8 1.9-1.6 2.9-2.8 3.6-9.2 2.1-13.2 2-1.6 0-3.2.1-4.8-.1-3.7-.4-.9-.9-8.2-1.4l-2.1-3.2c-.6-1.2-.8-2.4-1.2-3.8-.7-2.4-.2-4.2.9-6.2 1.4-2.7 2.4-6 3.8-8.6l6.4-9c1.7-1.7 2.7-4.3 3.9-6.1 1.2-1.9 4.8-4.6 6.7-6.1 2.2-1.7 5.6-3.4 7.2-5.2 2.8-3.2-.2-6.5-3.2-4.6-.4.3-.8.7-1.4 1.2l-7.4 5c-2.2 1.5-4.6 4.1-6.5 6.3-1.9 2.1-2.3 4.4-5 7.5-.8.9-1.4 2.2-2 3-1.5 2.1-2.7 3.2-4.1 6-.4.9-.7 1-1 1.6-.3.7-.2 1.2-.5 1.9-.4 1-1.1 2-1.7 3.4-.5 1.2-1.1 2.4-1.6 3.4-2.4.1-4.1.9-6.1.8-1.9-.1-3.9-.7-6-1-4-.6-6.8-3.2-9.4-4.8-2.4-1.5-3.6-3.2-5.5-5.1-.6-.6-1-1.3-1.6-2-2.2-2.6-4.1-5-5.2-9-.7-2.6.1-4 1.2-5.7.9-1.3 1.6-2.9 2.7-4.4 1.1-1.4 1.9-2.5 2.9-4.2 2.2-3.7 4.6-5.5 7.5-8.5.5-.5.2-.4.9-.8 1.6-1 3.3-1.3 5-2.2.7-.4 1.6-.8 2.4-1.2 1.2-.5 3.1-1.6 4.5-2.4 3-1.7 6-3.9 9-5.2 6.4-2.9 4.2-2.7 6.5-4.1 2.1-1.2 4.3-2.8 6-4.7 2.4-2.4 5.3-4.2 7.8-6.4 1.9-1.6 6.7-4.6 8-5.9 1.4-1.4 1.9-3.6 0-4.8-2.3-1.4-4 .5-5.1 1.5-1.3 1.1-2.8 1.8-4.2 2.9-1 .8-.4.7-1.9 1.6-.8.5-1.2.8-2 1.6-1 .9-.7.8-2 1.5-2.2 1.2-3.7 3.4-5.7 5l-2 1.6c-1.2 1.2-1.5 1.2-2 .9h0zM299.4 348.5c-2.1 0-13.6-1.6-15.1-2.3-2.7-1.2-4.3-.8-7.3-1.3-2-.4-4.6-1.3-6.9-1.6-2.7-.3-11-3.3-13-4.5-2.2-1.2-9.9-3.2-13-4.2-1.8-.6-4.5-2-6.2-2.7l-20.1-5.7c-4.1-.8-19.8-10.8-19.7-14.7 0-1.4.9-2.1 2.4-2.1 3.3.1 12 9.1 18.9 11.3 4.4 1.4 9.1 2.8 13.6 3.6 3.9.7 6.1 2 9.7 3.3l9.5 3.5c2.5.8 4.3 1.1 6.6 2 1.1.4 1.7 1 3 1.4 1.2.4 1.9.9 3 1.2 1.1.4 2.3.6 3.4 1 1 .3 1.8.8 3.1 1.1 2.4.5 5.1 1 7.3 1.4 2.1.3 5.3.6 7.4 1.1 1.3.3 2.1.7 3.4 1l11.5 1.3c5.1 0 9.8-.7 14.8-.2 4.2.5 8.8.6 13.2.9l12.1 2.1c2.3.7 3.1.9 5.6 1.4 3.7.7 7.6 2.1 11.4 2.8 1.9.3 4.4.5 6.2 1 3.2.9 9.1 1.3 12.8 1.4l12.8 1.4c6.3.7 13.5 1.8 19.8.9 3.3-.5 7.3-.5 10.6-.6 1.2 0 3.1.4 5 .4h6.8c5.1 0 15.1 2.1 23 .9 10.1-1.6 25.6-.8 33.8-2.2.8-.1 3.8-1 4.6-1.4 1.3-.7 2.9-1 3.9-2s2.1-1.8 3.1-2.8c1.1-1 1.8-2 2.9-3l4.9-4a28.43 28.43 0 0 0 1.8-1.1c.9-.6 2.7-2 3.5-2.8 1.1-1.1 1.8-1.9 3-3 3.7-3.2 6.7-9.4 10.6-13.1l3-3c.9-.8.6-.2 1.6-1.4.5-.6.8-1 1.4-1.6 3.7-4 8-11 6.9-16.6-.8-4.2-2-3.8-3.6-8.3-.3-1-1.5-2.9-2.1-3.8-.7-1.1-1.5-3-2.7-3.3-.1.1-.1.2-.1.2l-.6 2.9c-.5 3.1-1.4 6-2.3 9-1.1 3.6-5.4 12-7.4 15.4-1.8 2.9-7.3 9.9-9.5 12.8-1.1 1.4-1 .9-2 1.8-3 2.9-6.9 6.2-10.9 8.1l-5.2 2.1-18.5 4c-2.6.3-5.3.2-8 .2-6.8 0-15.8 1.2-20.7 1.2h-7.1c-4.5 0-8.7-.9-13.3-1.1-2.5-.1-4.4-.1-6.8-.4-7.3-.8-14.1-1.3-21.3-1.5-2.6 0-4.5-.6-7.1-.8-2.5-.2-4.8-.4-7.4-.4-5.9 0-14.7.7-19.8-.8-4.7-1.3-10.2-.9-15-1.9l-14.9-2.2c-5.1-.3-10.1-1.3-15.1-1.9l-3.8-.6c-1.8-.3-1.9-.4-3.3-.9-2.3-.8-12.3-2.1-14.4-2.8l-13.8-3.1c-2.6-.3-4.2-1.3-6.6-1.7-2.7-.4-4.5-1.2-7.1-1.5-1.3-.2-2.5-.2-3.8-.4-1.5-.3-1.8-.6-3.3-.9-2.4-.4-5.4-.4-7.6-.9-2.5-.6-4.5-1.1-7.2-1.4-3.3-.4-9.9-2.4-13.5-3.4-1.8-.5-4.4-1.6-6.2-2.4-1.6-.7-4.5-1.4-6.4-2-1.1-.4-2.4-.6-3.6-.8l-12.8-4.1c-1.2-.5-1.8-.8-3.2-.9-4.7-.5-17.8-5.8-20.7-1.7-1.4 1.9-2.5 3.2-2.9 5.7-1.1 7.3-1 5.2 1.1 10.3 1.2 2.9 3.6 4.7 5.9 6.5 3 2.3 7.3 4.3 9.9 7.3 1.5 1.6 3.5 2.3 5.3 3.3.7.4.6.4 1.2.8l4.1 2.2c2 .8 3.8 2 5.6 3 5.2 2.7 2.4 1.2 6.2 2.4 2.7.8 12.3 7.7 15.8 9.6 1 .5 1.9.8 3 1.4.9.5 2 .8 2.9 1.3l11.1 5.8c1.7.9 4.4 1.7 6.2 2.4l8.5 4.2c3.2 2.2 11.1 5.1 14.2 6.8 2.1 1.2 3.5 1.9 5.7 2.9 2 .9 4.1 1.6 6.1 2.5 4.4 1.9 9.2 2 13.8 3.1 2.2.5 5 .8 7.3 1 3.2.2 4.4.9 7.3 1.3 2.5.4 5.2.2 7.8.4 3 .2 4.7 1 7.2 1.4 4.9.7 3.4 1.1 6.7 1.9 2.7.7 4.1 1.3 7.1 1.3 11 .2 22.2-.1 33.2.6 2.8.2 4.8.8 7.7.7l8.6.3c14.1.2 28.2-1.2 42.4-1.8 3.5-.1 6.5-.9 10.1-.9l16.8.8c11.2 1 11.5 1.2 20.6-1.6 1.7-.5 4.3-1.2 5.7-2.1 1.7-1 3.3-1.8 4.9-2.8s2.7-2.3 4.4-3.3c.8-.5 1.8-1.1 2.5-1.6 2.2-1.6 5.2-6.4 6.7-8.7.9-1.4.3-1.1 1.6-2.3.9-.8 1.4-.9 2.1-1.8l2.4-3.6c.6-.8.4-.3 1.1-1l1-1.1c1-1 2.5-5.2 2.7-6.8.9-7.8-.7-6.5-2-9.6-1.5-3.6-1.7-2.3-3.9-.4-.7.6-1.4 1.1-2.2 1.7-1.2 1-.9.8-2.5 1.6-1.6.7-5.3 4.3-6.4 5.5l-4.1 3.9c-2.2 1.8-5.2 3.1-7.9 4.2-1.3.5-1.7.4-3.1.8-3.9 1-10.5 1.2-15 1.1-5.1 0-9.3.9-14.2 1-7.4.2-15 .9-22.5.2-17.3-1.7-30.9 1.1-48.8-1.5-2.2-.3-4.6-.3-6.9-.5-2.5-.2-3.7-.6-6.3-.7-10.4-.5-11.4-1.4-19.5-2.5l-17.7-4.3c-2-.7-4-.7-6.3-1.1-2.1-.3-3.4-.9-6.1-1.1-9.7-.8-18.5-.4-28.1-.4h0zm146.5-139.6c-.9-.4-2.6-.4-3.7-.2s-1.5.7-1.9 1.7c-2.1 4.9 4.4 7.6 6.6 3.9.8-1.6.7-4.6-1-5.4h0zM280.5 201c-4.2-1.7-9.8 4.6-4.3 7.9 5.3 3.1 9-5.9 4.3-7.9h0zm189.2-4.7c-3.3-1.2-7.9 5.1-5.1 11.6 1.7 3.9 4.9 3.5 7.5 3.5 3 0 3.8-1.1 5.1-2.6 1.5-1.6 1.2-3.7 1.2-6.4 0-1.5 0-2.4-.7-3.2-2.7-3.5-5.8-2-8-2.9h0zm-159.1-4.4c-1.9-.8-5.8.8-7.3 1.5-10.2 4.7-5.2 16.1.6 16.1 3.9 0 5.3.3 8.5-1.2 4.9-2.3 6.7-10.1 4.4-13.1s-3.9-2.4-6.2-3.3h0zm132.6-2.6c-2.1-.6-3.9 1.7-4.4 3.4-.8 2.7.8 5 2.8 5.4 4.7 1 8.2-7 1.6-8.8h0zm-26.7 32.1c1.6.4 5 1.8 6.4 1.6.1-2-1.4-5.8-1.5-8.9-.1-3.9.7-5.7 1.1-9.1.6-5.4 1.5-5.2 2.4-7.8.4-1.4.5-2.5 1.2-3.9.5-1 1.5-2.2 1.3-3-.9.2-7.2 7.1-8.1 8-1.9 1.9-9.2 11.8-9.6 15-.9 6.7-2.2 5.9 6.8 8.1h0zm-139.6-37c-1.5-.6-2.6-.2-3.8.7s-1.4 1.2-2 2.7c-.9 2.4 1.3 5.2 3.1 5.4 3.7.5 6-2 6.3-3.3.7-3.1-1.3-4.6-3.6-5.5h0zM483 224.8c1.7.2 11.3-1.5 12.9-2 3.4-1.1 7.1-3 9.8-4.9 5.3-3.8 7.1-6.7 11-11.2.9-1.1 3-2.3 3.5-3.6 1.7-4.4-4.2-5.2-7.9-6.6-2.6-1-12.3-5.6-14.7-7.2-1.5-.9-2.8-1.9-4.6-2.8-1.6-.8-9.1-4.2-11-3 .4 1 .1.3.8 1.1l4.8 7.7c2.9 7.4 4.1 16.5.5 23.8-.8 1.6-1.4 3.3-2.3 4.8-.9 1.3-2.6 2.7-2.8 3.9h0zm-224.2-40.3c2.6-3.5 3.1-2.4 3.5-4.1-.5-.3-.1-.2-.8-.3h-.3l-20.5 2c-3 .1-18.6 2.1-20.1 3.3.2 1.1.4.7 1.7 1.1l6 2.4c3 1.3 5.5 1.7 8.4 2.9 3 1.2 5.2 2.1 7.9 3.4 4.2 1.9 4.7 4.2 6 4.6h.5c.5-.8.5-2.1.8-3.1 1.3-4.8 4.1-8.4 6.9-12.2h0zm73 43.9c8.2.7 21 .5 28.1-2.1 2.6-.9 5.1-2.4 7.3-3 2.7-.8 4.7-2.2 7.9-2.5 1.1-.1 6.6 1.4 3.8-5.5l-8.8-22.1c-1.3-3.6-6.1-8.8-9.1-11.3-4-3.3-3.1-3-7.1-3.1-1.8-.1-3-.4-5-.4-1.9 0-3.1.3-4.7.3-6.8 0-12.7 1-19.5 1 1.1 3.7 8 2 6.7 24.7-.4 7.4-3.2 15.4-7.8 21.2-.8 1.1-.4-.1-.7 1.4l8.9 1.4h0zm110.5-53.8c.1-1.1.6-.8 1.6-1.4.9-.5 1.2-.9 2.1-1.5s1.5-.9 2.2-1.4c4.4-2.7 6.2-4.7 12.2-5.2 9.4-.8 16.5-1.9 25.9-.7 4.8.6 12.8 1 17.5 3.2 5 2.4 3.7 2.4 5.5 4.9.6.9.9 1.1 1.4 2.1l7.3 10.5c.6.8.9.9 1.7 1.9 2.3 2.9 2.5 1.7 3.2 3.6.6 1.8 1.3 5.8-1.8 3-1.5-1.4-6.3-2.6-9.6-4.3-3.2-1.7-6.3-2.7-9.5-4.5-1.6-.9-3.7-2.5-6.4-4-4.2-2.3-8.8-3.5-13.7-3.8-2.1-.1-3.9-.6-6.2-.6s-4.5-.2-6.6-.4c-3.3-.3-26.2-1-26.8-1.4h0zm-98.8-2.2c-1.2 1-1.8.2-3.5.3-1.3.1-2.7.5-4.2.5l-18.1 1.1-46.5-.8c-5.4 0-10.4 1.1-15.4 1.2-4.9.1-10.9.8-15.4 1.5-6.6 1-15.7 1.4-21.6 3.6-1.1.4-2 .7-2.9 1.2s-1.7 1.4-3.2 1.3l-5.9-2.5c-2.1-1.2-1.1-1.8 1.3-4.8 1.4-1.8 1.5-2.6 4.5-5.8l3.2-3.3c1.3-1.5 5.5-3.9 7.3-5.1 1.6-1 13.3-4.9 15.7-5.6 6-1.9 14.3-3.2 21-3.9 1.3-.1 2.8-.1 3.9-.3l15-1.7c9.7-.3 9.7-.3 19.9.7 5.7.5 13.4 4.2 18.4 6.8l12.6 8.4c1.3.8 1.2 1.1 2.7 1.8l2.7 1.5c.8.4 2 .8 2.9 1.3 1.1.3 5.1 1.8 5.6 2.6h0zm47.8 280.9c2.2 0 1.5-.7 2.6-2.2 1.7-2.2 6.8-4.5 9.5-6 2-1.1 4.4-2.9 6-4.3.9-.8 1.8-1.4 2.8-2.2l5.4-5c2.5-2.9 5.2-4.5 7.9-7.5 1.8-2 3.6-2.9 5.6-4.7 2.5-2.3 6.3-4.3 9.2-6.2 1.3-.9 1.7-1.5 2.7-2.3 1.8-1.5 4.8-2.1 7.2-3.2 2.6-1.2 4.2-2.4 6.9-3.5 5.2-2.1 12.6-2.6 17.9-1.2 1.8.5 4.9 2.9 6.4 4l8.3 7.1c3.8 3.6 3.2 2.2 6.4-1.1l1.6-1.6 1.5-2c1.8-2.1 4.7-5.3 5.9-8 1.2-3 3.2-6.5 3.7-9.9.5-3.3.7-10-.5-12.6-1.4.1-1.5.4-2.3 1.2-.8.7-1.4 1-2.2 1.7-1.4 1.1-2.9 2.2-4.4 3-.9.5-1.2.8-2.2 1.4-2.5 1.3-5.3 2.5-8.1 3.2-7.8 1.8-1.9 1.8-12.8 2.1-8.8.2-19.9-1.6-28.4-.9-4.5.3-9.2.9-13.9 1-9.6.2-18.6 1.4-28.4 1.4-4.8 0-9.9.2-14.7-.1-2.6-.2-4.4 0-6.9-.5-1.6-.3-5-.5-6.8-.5-4.7-.1-9.5-.5-14.5-.5-5.7 0-16.4.8-21.5-.9l-5.5-1.9c-6.4-2.3-15.3-1.5-19.7-2.8l-19.4-3.1c-7-1.2-12.6-4.3-18.8-7-.9-.4-1.5-1-2.4-1.4-3.6-1.7-6.5-2.6-10.2-4.6-5.4-3-9.4-5-15.3-7.2-1-.4-1.4-.6-2.4-1.2-2.5-1.3-4-1.4-7.6-3.6-1.9-1.2-2.8-1.5-5-2.4-4.1-1.8-6.1-3.2-9.4-5.4-1.4-.9-3.1-1.9-4.6-2.8-8.2-4.9-5.7-2.4-10.3-4.8l-4.9-2.5c-1.1-.5-1.1-.9-2.2-1.3-2.6-1.1-9.9-5-11.8-6.9-3.5-3.6-12.2-7.9-15.5-12.4-.3-.4-.4-.7-.8-1.2-2.3-3-4.1-7.3-3.5-11.3.2-1.2.7-5.7 1-6.7.9-2.7 3.8-7.5 6.3-8.5 3-1.2 2.5-1.2 6.1-1.2 4.7-.1 8.5 1 13 2 1.9.4 3.7 1.2 5.9 1.5 2.5.3 19.6 5.8 22.9 6.7 4.3 1.2 6.1 2.5 11.2 3.9l11.8 3 12.8 2c2.2.2 3.8 1 6.2 1.3 2.5.3 3.9.7 6.2 1.2 2 .4 4.3.7 6.2 1.2 7.8 2.3 22.2 5 30.6 6.7 1.9.4 3.9.9 6.1 1.3 2.3.4 4.5.4 6.6.8s4.2.6 6.5.9c2 .3 5.3.1 7.1.6 8.2 2.1 17.7 2.2 26.1 3.8 9 1.7 19.5 0 28.7 1.2l13.4 1.4c3.5.2 11.4-.1 14.3.7 5.5 1.4 22.2 1.9 28.1 1.3l14-.8c2.4-.2 4.9 0 7.3-.1 1.2 0 2.4-.1 3.6-.2l9.2-1.9c5.4-1.9 6.9.3 16.7-5.9 2.2-1.4 4.2-3.2 6-4.9 2.1-1.9 3.3-3.9 5-6.2 2-2.8 4.5-5.7 6.2-8.6.6-1 .5-1.6 1.1-2.4 1-1.3.6-.7 1.3-2.5l4.5-10.6c2.4-7.9 2.4-17.7-2.2-24.5-.7-1.1-.5-1.4-1.1-2.4-1-1.5-2-1.6-3.3-4.1-.9-1.6-5.5-5.8-7.2-8-.6-.8-.9-1.4-2.3-1.4-1.5 2.1-.8 2-3.3 4.7-.6.7-.6.8-1.2 1.5-.9 1.2-4.4 4-6 4.7-3.8 1.7-14.2 2.6-19.1 1.9-3.8-.6-3.4-5.2-.1-5.7 1.1-.2 3.9.1 5.2.1 4.6 0 11.8-.6 14.8-4 .7-.8 1.4-2 2.4-2.9.7-.6 1-.5 1-1.7-1.4-.2-4.1.5-5.8.6-2.4.1-3.9-.3-6.2-.3s-4.1 0-6.3-.2c-1.4-.1-1.6.2-2.5-.9-1.6-2-.5-4.9 4-4.6 11 .5 17.2 1.4 25.6-6.6 1.2-1.2 2.1-2.1 3.1-3.4l2.1-3c1.1-1.3 2.7-3.2 3.4-4.8 1.5-3.2 3.4-6.2 3.7-9.7.1-1.4 1.2-4.4.5-5.6-.1-.1-.3-1.1-1.4.5-.5.7-.6 1.2-1.2 1.8-.9 1-1.8 1.7-2.7 2.9-2.1 3-4.6 4.8-6.9 7-2.9 2.7-9.1 6.1-12.7 7.2-2.8.8-6.3 1.6-9.4 1.9-3.4.4-6.7 1-9.8 1.5-2.3.3-19.6.1-22.2-.1-3.5-.3-6.5-.8-10.3-.8-9.5 0-22.5-.3-30.8-3.3-3.6-1.3-9.7-1.3-11.8-5.2-.7-1.3-1.5-2.6-1.4-4.4.5-9.9 3.4-11.3 6.4-16.6 1-1.7 2.4-3 3.5-4.8.7-1.1.5-.6 1.4-1.6l1.2-1.5c3.3-3.6 6.6-5.7 9.5-10.4 1.4-2.4 3.2-4.5 5.1-6.4 1-1 1.8-2.1 2.7-2.9 3.6-2.9 13.3-9.4 16.8-11.3 3.6-2 4.6-2.5 8.7-2.9l10-1.2c7.2-.3 14.4-.5 21.5.4l10.1 1.4c2.7.8 6 1.8 8.3 3 1.6.9 2.3 1.3 3.2 2.4.6.7.8.8 1.3 1.4 1.5 1.9 5.9 8 6.9 10 .8 1.7.3.6 1.3 1.7 1.1 1.3.9 3 2.8 3.1.6-1.9.6-11.5-.1-14.1-1.6-6.1.6-6.1-5.5-9.5-7.1-4-11.2-5.2-19.6-5.4-1.7 0-2.8-.5-4.2-.7-8.8-1.2-31.6-1.7-38.3-.3-8.2 1.7-14.6 4.1-21.5 8.7l-5.8 4.2c-.6.5-.8.4-1.4 1-1.3 1.2-2.8 2.2-4 3.7-1.1 1.5-3.5 4.5-5.4 4.7-3.2.3-4-3-2-5.2 1.7-1.8 3.2-3.5 4.9-5.2s3.5-2.8 5.4-4.6c1.6-1.6 4.1-2.7 6-4.1 1.8-1.3 7.8-4.4 9.7-5.1 10.9-4 9.1-2.8 20.7-4.4 4.9-.7 14.1-.2 19.3 0 1.6.1 2.4.5 4.4.5l9.8.6c2 .3 1.2.5 4.2.6 6.7.1 10.4 1.3 16.7 3.6 2.5.9 7.4 4 9 6 1 1.2 1.1 2.1 2.9 2-.2-3.4-10-8.8-12-10.3-4.5-3.4-9.1-6.6-14.8-8-2-.5-17.4-2-20.8-2-7.3 0-28.5 1.1-34.2 3.7-1.2.6-1.5.6-2.8 1.1-2.2.8-6.3 4.1-8.6 2.9-.9-1-1.6-1.9-.9-3.6.8-2 1.3-1.4 2.7-2.4 2-1.4 6-3 8.5-3.9 3-1.1 12.5-2.1 15.5-2.4 9.1-.8 18.7-1.7 28.1-.8 1.9.2 7.5 1.1 9 1 .8-1.7-.6-2.8-1.4-4.1-1.4-2.4-3.3-4.2-4.9-6.4-1.1-1.5-2.1-3-3.7-4.6-2.4-2.3-3.9-4.3-6.7-6.4-.7-.5-1.2-.8-1.9-1.3-.9-.7-.6-.7-1.9-1.4-1.7-.9-2.3-1.9-3.7-2.8l-9.6-6.7c-2-1.2-4.6-2-6.4-3.4-4.6-3.4-9.9-5.5-15.1-7.7-1.1-.4-1-.7-2.2-1.1-1.7-.6-3.5-.6-5.3-1.2-13.8-4.3-24.2-6-39.5-6-3.4 0-8.5.6-11.8 1.2-5.5.9-11.2 1.2-16.5 3-4.1 1.4-5 2.1-9.9 3.2-2.3.5-2 1-5.2 1.3 0 .9 1.1 1.8 1.7 2.4 4.2 4.4 7 7.1 10.5 12.3.4.7.5.5.9 1.1.4.5.5 1 .8 1.5l5.2 8.4c.7 1.3 2.4 3.7 3.4 5.8 1.2 2.7 2.1 3.4 3.5 5.7 1.7 2.8 2.9 6.5 4.3 9.3.8 1.6 1.3 5.8 1.1 7.6-.3 2.7-2.5 4.5-.2 6.6 1.6 1.5 2.8 3.3 4.3 4.9 3.3 3.7 5.8 5.4 8.4 10 .8 1.5 2.6 9.1 2.8 11.1.3 2.4.5 6.2.6 8.6 0 2.1.4 7.2-.3 8.7-1.1 2.5-4.7 1.7-5.3-1.1-.8-3.3.2-12.9-.8-17.5-2.5-10.7-4.1-9.6-10.4-16.8l-4.2-4.9c-1.6-1.5-4.2-3.1-5.8-5.1-3.3-4-9.3-9.6-14.2-11.3-3.9-1.3-12.6-1.8-16.7-1.5-2.9.2-5.9.4-8.9.3-2-.1-7-1.3-8 .5.5 1.1 5 2.4 6.3 2.9 2.3.8 4.4 1.8 6.8 2.7 3.2 1.1 6.3 2.9 8.9 5 1.3 1.1 1.5.9 2.7 2 3.1 3 6.7 6.1 9.3 9.3 1 1.2 1.1 1.5 2.3 2.5 1 .8 1.6 1.5 2.5 2.2 1.7 1.3 3.7 2.7 5.3 4.1 3.5 3.1 6 6 9.4 9.2l4.5 4.6c2.5 2.1 4.9 4.3 6.8 7.1.7 1 1.4 1.7 2 2.8l1.6 3.1c1.7 4.4 2.7 4.7 3.3 10.8.3 2.5 1.4 6.7-.7 8.1-1 .4-2.1.5-3.1 0-.9-.6-.5-.1-.9-1.6a9.28 9.28 0 0 1-.3-2.4c-.1-2.8-1.1-5.5-1.6-8.4-.2-1.3-1-2.3-1.6-3.4-1.2-2.4-2.4-4.5-3.7-6.4-1.7-2.3-5.4-5.5-7.7-7.7l-2.6-2.5c-3.7-3.3-6-7-10.3-9.8-6.5-4.3-10.3-9.4-15.7-14.8-5.5-5.4-11.8-9-19.2-11.3l-7.2-2.8c-4.4-1.5-15.2-6.1-19.4-5.8-8.3.6-16.8-.6-25 .3-2.8.3-6.1 1-9.2 1h-10.1c-4.5 0-15.6-1.5-19.4-.4-1.1.3-2.6.8-3.8 1.2-1.5.4-3.1.5-4.4.9-5.3 1.8-10.1 3-14.5 5.6-2.2 1.3-3.7 3.1-5.3 4.7-1.8 1.7-3.4 3.1-5.2 5.1-2.2 2.4-5.4 5-7.4 7.7-2.4 3.1-5.7 5.4-7 8.4-.9 2.1-1.2 6.7 0 8.4 6.7.5 8.1-3.1 11.3-7.3 6.8-9 2.5-3.7 8.8-10.2 2-2.1 5.9-4.3 8.4-5.9l10.3-4c2.4-.6 5.3-1.4 7.6-2.2 3.9-1.4 3.8-1 7.7-1.8 2.6-.5 5-1 8-1.4 2.8-.4 6.2-.4 8.7-.9 2.2-.4 5.9-1 8.2-1.2l8.7-.6c3 0 5.9-.3 9.2-.3l8.3.8c3.3.4 5.3.5 8.3 1.6 1.2.4 2.6.6 3.8.9 1.2.4 2.1 1 3.2 1.6 2.7 1.4 5.7 2.1 8 3.9.7.5.4.4 1.4 1 3.3 1.8 11.1 7.7 12.8 8.5.6.4 1 .4 1.6.8 2.7 1.8 6.6 3.2 9.7 4.5 1.4.6 1.9 1.1 3.1 1.6 4.3 1.6 9 3.9 12.6 6.6l2.6 2.1c.6.5 2.2 1.6 2.6 2.1 1.6 1.8 3.3 3 4.7 4.8l3.6 6.1c1 2.3 1.7 4.5 2.8 6.8l2 5.1c1.9 3.8 2.8 8.2 4.9 11.7.9 1.5.3 2.9.9 4.1.3.6 3.3 1.6 4.1 2.2 1.4.9 2.3 1.9 3.2 3 .6.8.8.7 1.1 1.9.7 2.4 1.1 6.1.3 8.3-1.5 4.1-6.9 7.1-9.6 9.1-5.1 3.9-9.2 4.1-13.5 8.1l-4.6 4.9c-2.1 2.5-4 3.9-6.2 6.3-1.1 1.1-1.8 2.3-2.8 3.4-2.6 3.1-4.7 5-7.9 7.5-.8.6-1.3.8-1.9 1.3-3.3 2.9-6.8 6-11 7.7l-8.8 3.7c-1.7.5-2.7.5-5 1.3-1.7.6-2.9 1.2-4.5 1.7-1.8.6-3.3.7-4.9 1.4-6.2 2.6-11.4 5-17.8 7.1-3.8 1.3-7.3.7-11.6.9-1.6-2.6-1.3-2.8 0-5.5 2.1 0 5.2-.1 7.2-.3 2.4-.3 4.8-1.2 6.9-2.2.3-.1 1.1-.4 1.3-.5l5.2-2.1c1.4-.5 1.5-.7 2.7-1.2.8-.4 1.8-.5 2.7-.9 1.4-.6.8-.8 2.6-1.2 2.4-.5 3.7-.8 5.8-1.7 2-.8 3.4-1.3 5.6-1.8 2.6-.6 3.4-1.3 5.7-2 3.1-1 5.1-2.6 7.4-3.5 1.9-.8 2.7-2 4.3-3.1 1.4-1 2.6-2.5 4-3.4 1.9-1.1 4.8-3.3 6.2-5 1.6-1.9.8-1.5 3.3-4.1l3.6-3.8c1.1-1.1 3.3-2.9 3.5-4-.4-.2-7.8-.4-9.8-.8-3.5-.7-7.5-.4-11.1-.4-3.8 0-7.5-.3-10.9-.3-1.8 0-3.5-.1-5.3-.4-2-.2-3.2-.7-4.9-1-3.5-.6-6.9-.6-10.5-.8-4.7-.2-16.8-1.2-21.2-1.9l-10.1-1.5c-1.9-.2-3.2 0-5.1-.6-1.4-.4-3-.9-4.5-1.2-3-.7-5.4-2.3-8.5-3-3.8-.9-6.3-3-9.3-4.9-2.3-1.5-3-2-4.9-4-4-4.1-7.7-7.3-11.9-10.9-2.1-1.8-3.7-3.9-6.2-5.3-1.2-.7-2.5-1.2-3.3-2.4s-.2-3.1 1.3-3.9c3-1.6 7.3 3.4 9 4.6 2.3 1.8 11.7 10.2 13.1 11.8.8.9.9 1 1.7 1.8 1.6 1.7 1.9 1.8 4 3.1 8.1 5.1 8.3 3.7 14.4 6.6 5.9 2.8 11.9 2.1 18.1 3.2 8.3 1.6 17.2 2.3 25.5 2.6 2.3.1 4.2.4 6.5.5 5 .2 7.8 1.6 12.8 1.7 4.6.1 9.1.3 13.7 0 4.3-.2 9.1.7 13.1 1.1a38.61 38.61 0 0 0 6.8 0c1.9-.2 4-1.2 5.5-1.7 1.7-.7 3.3-1.4 4.9-2.2 5.4-2.6 8.5-4.7 12.8-8.6.9-.9.9-.5 1.1-2.3.5-4.1-3.4-6.4-4.3-6.2-1 .6-.8 1-2.2 1.8-3 1.8-6.5.6-9.5 2l-13.9 5.3c-1.9 1.1-7.5 1.3-9.9 1.6-5.1.6-9.7.5-14.6 0l-10.5-1c-1.3-.2-1.5-.4-3.2-.6-4.2-.4-8.9-1.6-13.1-2.4-2.9-.5-3.7-.5-6.3-1.4-.9-.3-2.3-.4-3.1-.8l-2.6-1.2c-4.8-1.8-12.8-4.2-17.9-5.2-2.1-.4-3.9-1.3-5.8-2-1.5-.5-1.5-.8-2.6-1.3l-13.6-5.7-3.9-3.8c-1.4-1.3-2.8-2.2-4.2-3.5-1.6-1.5-2-2.3-4-3.7-6.5-4.7-13.8-5.9-21.8-9-3-1.1-7.4-3.4-10.4-5-1.6-.8-4-1.5-5.5-2.2-2.6-1.1-3.1-1.9-4.9-3-4 1.2-10.4 3.4-13.3-.7-3.4-4.7-2.9-8.1-1.2-13.6 1-3.3 3.4-5.3 5.9-7.5.7-.6 1.3-1.7 1.9-2.5l8.7-9.1c2.5-2.8 6.5-6.3 9.2-8.6 4.2-3.6 7.2-3.9 12.2-5.6 6.8-2.4 3.4-1.4 10.3-3 1.7-.4 2-.6 3.3-1.1 2-.7 14.8-.3 17.4 0 5.6.7 11.6.1 17.1-.2 5.5-.2 11.6-1 16.9-.9 4.2.1 8.7.6 13 .1 1.2-.1 2.6-.5 3.6-.6 4.2-.4 12.4.4 16.9.7 5.5.4 11.9 0 17.5-.3 4.3-.2 2-1.1 7.8 0 2.1.4 5.9.4 8.2.6 5.6.6 9.2 2.6 12.5 5.3l4.7 4.2c1 1.1 3.1 4 4.6 4.1 1.7-2.9-1.4-8.4-2.7-11.1l-2.6-4.8c-1-1.5-2.3-2.9-2.9-4.8-.8-2.9-2.2-3.1-4-7.5l-4.3-6.3c-2.2-3.2-3.6-5.9-6.4-8.7l-3.9-3.8c-3-2.8-8.2-8.9-11.4-11.1l-9.1-6.3c-3-1.9-6.4-4-9.7-5.4-3.2-1.4-1.8-1.3-6.1-1.6-2.2-.1-5-.1-7.1-.4-2.2-.3-1.2-.8-2.7-1-10.8-1.3-21.5-1.4-32.3-2.2-4.6-.4-9.9.5-14.5.7-2.4.1-4.4.7-6.8.9-5.4.3-10.3 1.9-15.5 3.3l-5.8 1.9c-2.6.8-5.4 2.5-7.5 4l-4.3 3.1c-1.6 1.3-2 2.3-4.2 3.5-2.3 1.3-5.3 4.8-8.1 7-1.4 1.1-2.9 2.1-4.4 3-1.8 1.2-4.9 1.3-5.3-1.1-.6-3.3 4.4-4.9 7.9-7.6 2.5-2 3.8-4.3 5.8-5.5.9-.5 1.4-1 2.3-1.6 2.6-1.8 4.5-4.2 8.5-6.6 2.2-1.4 1.9-1.4 4.7-2.7 9.7-4.5 20.4-5.6 30.9-7.3l14.4-.8c5.4.1 30.5 1.4 35.3 2.7 2.9.8 7.3 1.1 10.4 1.2 2.9.1.8-3.7.1-8.1-.5-3.1-3-7.5-4.6-10.5-1.7-3.2-3.6-7.1-5.7-9.8l-3.3-4.1c-2.5-2.6-9.5-8-12.7-10.1-6.9-4.4-13.8-6.9-22.3-8.2-4.4-.7-9.4-.6-13.8-1.4-9.1-1.5-19.7-1.2-28.9-.5-8.4.7-11.9.5-20.1 2.6-3.2.8-2.9.8-5.3 2.4-3 1.9-6.1 2.9-9.7 5.4-5.5 3.7-5.6 1.3-13.3 9.5-1.3 1.4-2.5 2.2-3.7 4-.9 1.4-1.8 3.3-2.9 4.5-1.9 2.1-8.5 11.3-9.4 13.7-.7 1.9-1.6 3.1-2.5 4.9-.9 1.9-1.9 3.3-2.7 5-2.4 5.1-6.3 8.8-10.1 12.7l-7.1 8c-1.8 1.9-1.8 2.5-3.2 4.5-.9 1.3-2 3.3-3.1 4.3-3.7 3-.4-.7-3.7 3.9-1.2 1.7-2.4 2.6-3.7 4l-1.9 1.9c-.7.6-1.5 1.1-2 1.8-1.4 1.8-.6 1.8-3.1 4.3-1.2 1.2-2.4 2.6-3.2 4.5-.9 2-1.8 2.5-3 4.3-1.2 1.9-1.6 3.5-2.8 4.9-1.1 1.4-2.1 2.7-3 4.4-1.3 2.7-4.5 6.6-6.2 9.3l-4 7.3c-.6 1.5-.8 1.3-1.5 2.4-1 1.8-1.5 3.5-2.5 5.2-.5.8-.9 1.4-1.3 2.2-.7 1.3-.7 1.1-1.5 2.3-1.8 2.7-3.6 7.1-4.9 10.2-1 2.4-4.3 7.3-5.7 9.7-.8 1.5-2.4 3.2-3 4.7-.6 1.2-.1 1.3-1 2.5l-3.8 7.7c-1.4 3.8-3.9 6.4-5 10.4-.5 2-1.6 2.9-2.7 4.8-.9 1.5-1.9 3.3-2.5 5.1-.9 2.7-2.9 4.9-4.2 7.4-1.3 2.6-2.2 5.2-3.7 7.5l-5 10.1c-.8 1.6-2 3.4-2.4 5.3-.5 2.8-1.5 2.7-2.3 5.1-1.8 5.3-2.5 5.1-3.6 8l-3.4 8.2c-.2.7-.8 2-1 2.5-.3 1.1-.1 2-.7 3.2-1.1 2.6-1.2 2.8-1.8 5.9-.6 3-1.6 5.9-3 8.3-.6 1-2.2 7.2-2.5 8.7-.4 1.8-1.5 3.6-1.8 5.9s-.5 1.5-.9 2.9c-.2.8-.4 2.4-.5 3.3-.2 1.1-.2 2.3-.4 3.5-.2 1.4-.7 1.9-.9 2.9-.3 1.2 0 1.9-.3 3.3-1.1 5.4-.3 3.9-.8 6.9-.2 1.3-.5 1.9-.8 3.1-.5 2.1.1 4.8-.6 6.9-1.8 5.6-1.2 8.5-1.6 9.6-.5 1.7-.8.2-.8 3 0 2.4-.8 4-.9 6.8 0 5.9-.4 3.2-1 6.8l-2 9.2c-.3 2.3-.3 4.9-.8 6.9-.3 1.3 0 2.3-.3 3.6-1.2 4.6-.2 9.7-1.2 14.2-.5 2.3-.1 4.7-.7 6.7-1.5 5 0 10.7-.9 14.5-.4 1.5-.8.6-.8 3 0 1.6 0 2.1-.4 3.5-.8 2.9-.1 4.2-.5 6.9-.2 1.3-.6 1.8-.8 3.1s0 2.3-.3 3.6c-1.5 6-.5 1.5-.8 6-.2 3.8-2.4 8.9-.4 13.1l1.3 10.3c0 2.2.4 1.5.8 3.1.4 1.1.1 2.3.3 3.5.5 3 1.4 6 2.5 8.8.5 1.2 1.3 5.6 1.6 6.1.6 1.1.7.7 1.2 2.3.4 1.4.5 1.7 1.1 2.7 1.4 2.5 2.2 5.6 3 8.3l4 7.6c1 1.5 2.3 3.1 3.4 4.3 1.4 1.4 2 3 3.2 4.5 1.3 1.7 2.3 2.4 3.5 3.9 1.3 1.6 2.3 2.3 3.8 3.9 4.5 4.7 4 3.4 8.6 6.5l9.4 5.7c1.8.9 2.9 2.2 4.9 2.8 3.7 1 6.9 3.1 10.4 4.8l2.8 1c2.9.9 4.4 3.2 10.2 5.2 1 .4 2 .4 3 .8 3.6 1.6 7 2.7 11 4.1 2 .7 4 .8 6.1 1.6 1.5.6 4 .5 6.3 1.4 2.5 1 8.8 3.5 11.5 3.7 1.2.1 2.4-.1 3.6 0 1.3.1 1.6.6 3 .8 1.6.2 1.9-.1 3.3.6 1.6.8 1.1.4 3.2.5 1.5.1 1.6.4 2.9.7s2.4 0 3.6.2c1.5.2 1.4.7 3 .9 1.2.1 2.6-.1 3.8 0 1.3.1 1.6.6 3.1.8 1.2.2 2.5.1 3.7.1 3.1 0 4 .9 6.6 1.1 3.5.3 7.3-.2 10.8.6 4.7 1 13.2-1.2 18 1 .5.2 33.9 1.1 37.2-.1 3.2-1.1 10.3-1.3 13.7-1.4 2.8-.1 3.3-1.2 6.5-1.2 3.4 0 7.5.5 10.7-.5 2.9-.9 44.8-.3 49.5-.4 2.4 0 2-.9 6.2-1 6.8 0 24.4.8 29.6-1.1 1.7-.6 4.4-1 6.2-1.5 1.5-.4 4.5-1.2 5.4-1.9.7-.6 4.4-1.6 5.7-2.1 3.8-1.5 2.3-1.5 5.4-2 1.5-.2 1.6-.6 2.6-1.2.9-.5 1.8-.4 2.9-1 5.4-2.6 3.3-.7 8-7.3l3-4.4c3.3-4.4 5-3.4 4.1-10-1-7.1 1.7-13.5-.5-21-.5-1.7-4.8-7.6-6.1-9.3-1.2-1.5-1.5-3-2.7-4.8-3.7-5.9-5.7-6.8-10.8-12-1.3-1.3-2.4-2.2-3.6-3.8-.9-1.3-1.9-3.4-2.8-4.9-2-3.4-3.8-7.1-2.9-12 1-5.3.9-6.1 5.1-10.1 5.8-5.6 14.3-8.9 22.5-6.2 1.6.5 4.2 1.5 5.2 2.5 2 2.4 2 2.1 3.1 4.4h0zM456.4 89c-1.3-.3-.2-.3-1.5-1.1-.9-.5-1.1-.2-2-.7l-3.5-1.8c-1.6-.9-2.4-.9-3.8-1.6-2.8-1.4-.1-.5-3.9-1.4-5.4-1.2-4.9-1.5-8.3-2.3-10.1-2.5-16.1-4.4-27.6-4.5-3.6-.1-6.8-.4-10.4-.4-1.6 0-3.1.4-4.7.5-1.8.1-3.6.1-5.3.3-2.8.4-6 1.2-9.2 1.4l-8.9 1.9c-1 .3-2.5 1-3.9 1.4-1 .3-1.1.5-1.8.9-.8.4-1.3.3-2.2.5-2.8.5-10.9 4-13 1.9-6.3-6.3-14.7-10.8-22.5-15.3 0-3.2-1.2-12.1-2.4-14.3-.9-1.6-1.8-3.7-2.5-5.7-1-2.6-2.6-3.9-2.8-5.8.9-1.1 8.4-5.7 8.7-6 1.1-1.1.3-.9 1.9-1.6 6.1-2.9 6.7-5.6 10.3-8.4.6-.5 1.5-1 2-1.6.6-.7 1.3-1.4 1.9-1.9 1.2-.9 8.8-4.1 10.4-4.3 2.5-.3 1.2-.4 2.9-.7a20.68 20.68 0 0 1 3.5-.3l14.8.1c4.8.5 18.7.7 20.6 1.5 4.1 1.7 10.8 5.3 12.6 6 2.2.9 1 .4 2.3 1.5l5.1 2.3c2.2.9 7 4 8.9 5.9 4.6 4.5 3.1 2.6 6.8 8l7 9.6c.9.7.1-.5.8.9 1.9 3.6 5 7.9 7.1 11.6 1 1.8 2 2.8 2.8 4.6.6 1.5 1.7 3.4 2.6 4.8.7 1.2 1 .8 3 4.4 1.3 2.3 1 1.1 2.7 4.7.5 1.2.5 1.8 1.2 2.7.8 1 1.4.8.3 2.3h0zm-98.9-75.7c-4.5 0-9.4 1.3-13.2 3.1-2.5 1.2-4.7 2.2-6.8 3.8-5.9 4.3-4.6 4.2-8.3 7.7-1.9 1.8-4.4 2.9-6.4 4.6-1.2 1-8.6 6.2-9.7 6.2-1.4 0-2-1.6-2.7-2.6-1.6-2.5-5.3-6.7-7.9-8.4-1.2-.8-2-1.4-3-2.3-7-5.6-12.1-8.6-20.4-11.6-2.2-.8-4.4-1.2-6.8-1.5-.5-.1-1.7-.3-2.2-.4-7.9-1.4-16.2-1.5-24.3-2.4-3.9-.4-11.4-.5-15.2.1-3.2.5-6.8.2-10.2.5-1.6.1-3 .6-4.7.6-8.1.1-13.9 2-20.6 6l-10.3 5.7c-1.3.6-2.4 1.1-3.5 1.9-2.2 1.5-3.7 2.9-5.5 4.8-8.6 8.6-4.5 5-9.7 11.6a121.36 121.36 0 0 0-11.4 17.7c-1.5 2.9-2.5 6.2-4.8 8.5-1.9 1.8-3.3 3.7-4.8 5.8-1.6 2.1-3.4 3.2-5 5.4-2.2 3-5.7 5.5-7.3 8.7-1.1 2.2-3.6 6.1-5.5 7.8-2.3 2-4.2 4.5-6.5 6.8l-2.7 2.7c-1.8 1.8-3 3.9-4.9 5.8-1.4 1.3-3.2 4.6-4.4 6.3l-2.1 3.2c-.7 1.2-1.1 2.3-1.9 3.4l-8.4 12.6c-.7 1.1-1.5 2-2.2 3.2-3.6 6.6-4.9 10.1-9.2 17.1-3.4 5.6-5.8 11.8-9.2 17.5l-9.4 17c-.6 1.2-.8 2.5-1.6 3.7-1.4 2.3-2.4 4.6-3.6 7L53.9 215a30.11 30.11 0 0 1-2 3.4c-1.5 2.3-2.3 4.6-3.6 7.1-.7 1.3-1.2 2.2-1.9 3.4-3.7 7.5-5.1 10-8.4 17.9l-1.5 3.9c-1.1 2.6-2.7 4.4-3.5 7.2-.7 2.5-2.1 4.8-3 7.4l-.7 1.9c-.3.8-.3 1.3-.5 2.2l-3.7 12.3c-.5 1.5-1.1 2.1-1.6 3.7-1.7 6.1-4 12.5-5 18.6-.1.7-.4 1.4-.6 2.1-.4 1.5-.1 3.1-.6 4.7-.2.6-.5 1.1-.7 2l-.7 4.6c-.1 2.4 0 5.3-.6 7.4-.3 1.3-.5 3.4-.6 4.7-.2 3-1.3 5.7-1.7 8.6-.3 2.5.1 2.5-.6 4.7-.5 1.6-.1 3.1-.6 4.7-.7 2-.6 2.1-.6 4.8 0 4.5-3.2 14.7-3.3 17.7-.1 3.6-.3 2.3-.5 4.8-.3 2.3-.1 2.6-.7 4.7-.8 2.9-.2 6.2-.4 9.1l-.7 4.6c-.3 1.6-.1 3.9-.3 5.1-.9 5.3-.7 3.8-.7 9.7 0 1.4-.1 3.7-.4 4.9-.8 3.1-.5 1.1-.8 4.6-.1 1.6-.8 2.7-.9 4.4-.1 3.1.2 4.4-.6 7.4-.5 1.9-.6 4.7-1.2 6.8-.5 1.7-.2 3.1-.3 5 .1 1.9-.4 2.6-.4 4.6l1 14.4c.4 1.4.7 2.7.8 4.2.1 2.3.5 2.3.8 3.9 1.1 5.1.8 6.5 2.7 12.1 1.4 4.1 1.9 6.6 3.8 10.7 1 2.2 2.1 4.5 2.8 6.9.4 1.4.6 2.4 1.3 3.7.6 1.2 1.1 1.8 1.7 3.1 3.4 6.8 3.3 5.1 6.8 10 1.7 2.3 3.2 4.8 5.3 6.9 3.3 3.3 6.3 6.3 9.8 9.5 1 .9 2.1 1 3.4 1.7 1.2.7 1.8 1.2 2.8 1.9 2.9 2 6.3 3.6 9.2 5.6 3.8 2.5 6.3 2.6 9.8 4.5 2.1 1.2 4.2 2.5 6.5 3.3 1.6.6 2.2.5 3.6 1.5 1.9 1.4 4 2.6 6.3 3.5 1.2.5 2.4.7 3.6 1.1l7 2.7c3.9 1.3 7.6 1.9 11.3 3.5 1.6.6 2.5.4 4 .7 5.2 1.2 9.6 4.3 15 4.2 3.4 0 14.4 2.8 16.6 3 .9.1 1.7-.1 2.6.1.5.1 1.2.4 1.8.5 1.6.4 2.6.1 4.4.3 1.4.1 2.3.8 3.9.9l4.5.3c3.8.3 2 .4 4.2.8 3 .6 6.6-.3 9.6.2 1.7.3 2.2.8 3.9.8 3.2.1 6.6 0 9.8 0 6.2 0 6.5.9 8.6.9h34.4c1.9 0 2.6-.9 5.3-.9 2.1 0 3.4-.5 5.4-.8s4.2.1 6.1-.1c1-.1 1.4-.5 2.2-.7 4.4-1.1 10.2.4 14.2-1 2.8-1 8.4-.4 11.8-.4H305c2.9 0 3.2-.7 5.3-.9 4.6-.3 18.4 0 24.3 0 2.5 0 12.4-2.4 14.8-3.2 1.6-.5 3.5-.6 4.9-1.3 3.6-2.1 11.4-4.2 12.9-5.2 1-.6 1.1-.6 2.3-1 .7-.3 1.2-.6 2-.9 9.5-4.8 11.7-14 14.1-14.6.6-.1.8-.1 1.4-.1.2.9.5 1.3.8 2.1 1.8 4.6 2.7 8.7 7.2 11.4 1.2.7 2.5 1.3 3.6 2 1.4.9 1.6 1.5 3.2 2.2l6.7 3.9c.8.5.9.7 1.7 1.2 2.7 1.7 5.4 3.4 7.9 5.5 1.1.9 2 1.4 3.1 2.2 3.2 2.1 10 7 13.2 8.4l7.7 3.3c4 1.6 4.7 1.3 8.6 2 4.5.8 4.9 1.3 9.7 1.3 1.9 0 2.8.5 4.7.6 4.9.4 10.1 1.2 15.1 1.2 4.9 0 11-.6 15.8.5 3.1.7 7 .3 10.3.4 1.9.1 2.7.6 4.7.6h12.1l13.2-1.3c4-.7 7.4-1.9 11.2-3a40.28 40.28 0 0 1 5.8-1.3c2.5-.4 3.3-1.1 5.6-1.6 3.7-.8 7.3-2.2 10.5-3.7l4.9-2.2c3.3-1.3 5.9-3.5 9.1-5.1 4.5-2.3 3.5-2.1 6.5-4.2.8-.5 1.5-.8 2.3-1.3 4.6-3.4 7.6-8.9 7.6-15.2 0-1.4-2.9-9.7-3.7-11.2-2.5-5-4-10.4-6.5-15.4-1.6-3.3-3.5-5.9-5.4-9.1-1-1.6-1.9-2.6-3-4.1-4.5-6.2-4.9-12.2-10.2-19.1-1.1-1.4-1.9-2.8-3.1-4.3l-6.9-7.6c-3.7-3.6-9.2-13.3-16.3-20.1l-7.6-6.9c-.7-.6-1.6-1-2.3-1.6L529 448c-3-2.1-5.8-3.9-8.7-5.8-2.9-2-6.4-3.3-9.4-5.1-4.1-2.5-8-3.4-10.9-7.4-.6-.9-1-1.2-1.6-1.9-5-6-.6-6.5 3.5-11.7 4.8-6.1 6.8-7.8 9.9-15.3l1.6-4.6c.9-3.6 1.5-12.1.2-15.7-.3-.8-1.4-3.3-1.4-4.2 0-1.8 5-7.9 6.6-9.4 1.8-1.7 2.9-3.9 4.5-5.9 4.1-5.1 4.6-8.6 4.6-15.2 0-2.4-2.1-7.1-3.5-8.9-2.1-2.7-3.7-1.3 3.8-11.2l5.1-5.5c1.9-1.7 3.9-3.2 5.3-5.4 4.1-6.2 6.5-8.6 6.5-17.2 0-2.7-5.4-13.3-6.7-15.5-1-1.7-2.6-3.3-3.9-4.7-1.4-1.6-3.3-2.2-4-4.3-.4-1.3-.7-2.8-1.2-4.2a37.18 37.18 0 0 0-6.1-10.8c-.8-1.1-1.4-2.1-2.3-3.1-1.5-1.6-3.6-4.7-5.2-6-7.5-6.2-5.7-6-1.6-10.1 1.4-1.4 2.3-2.2 3.5-3.9 7.2-9.8 3.7-4.3 8.6-13.9 1-2 1.4-3.5 1.7-5.7.8-6.5 2-9.9.9-16.8-.2-1.2 0-2.2-.1-3.4-.2-2.2-.9-4-.9-6.5 0-4.2.9-7.2.9-11.3 0-1-.3-10.7 0-11 1.8-.9 2.9.3 4.4-1.5.7-.9 1.2-2.8 1.2-4.4 0-4.7-5.2-9.6-8.2-11.9l-14.8-9.7c-2-1-5-1.8-5.9-3.8-2.1-4.2-4.1-8.4-7.3-11.9-.8-.9-1.3-1.7-2-2.7-1.5-2.1-7.4-8.3-9.4-10.2-2.3-2.2-14.2-10.4-17-12.3-1-.7-2-1.4-3-2-.8-.5-2.7-1.1-3.2-1.6-1-.9-.6-2.7-.9-4.1-1.7-7.2-6-13-9.7-19.3-.6-1.1-1.1-1.9-1.7-3l-7.4-12.1c-1.6-3.2-4-5.9-6.1-8.7-.7-1-1.2-1.8-1.9-2.8-2.7-4-5.2-7.3-8.6-10.7-3.3-3.3-7.1-6.1-11.3-8.2L396 15.6c-4.4-1.9-12.5-1.7-17.9-1.7-3 0-5.5-.6-8.9-.6h-11.7 0zM208.4 279.6c2.5 1.5 2.5 5 .1 5.6-1 .2-3.5-.1-4.7-.2-1.6 0-3.1.3-4.7.3-6.1.1-10.9 1.3-16.5 2.4-6.5 1.3-13.2 5.8-16.8 11.6-1 1.7-2.5 4.9-5.3 3.9-5.6-2 3.9-11.9 6.4-13.8.9-.7 1.8-1.5 2.6-2.1 4.4-3.5 11.8-5.4 17.5-6.3 1.4-.2 2-.6 3.9-.8 2.2-.3 16.2-1.4 17.5-.6h0zm238.2-32.3c4.3 0 9.1.2 13.1-.8 1.9-.5 5.5-2.1 6.2.9.4 1.8-.1 2.7-1.2 3.3-.8.5-2.1 1.2-3.1 1.4-8.4 1.6-14 .9-22.6.4.1.4 3 2.7 4.4 4.5l4.2 5.3c2.9 3.8 8.5 8.3 12.9 15.2.7 1.1.6 1 1.1 2.2 3.6 7.4-1.9 6.8-3.3 5.6-1.2-1-3.1-5.5-4.8-7.7-.5-.7-.8-.8-1.4-1.5-2-2.5-.1-.8-2.8-3.4l-4.7-4.8c-5.1-5.5-5.3-8.1-12.2-12.9-3.2-2.2-1.3-1.2-3.8-2.4-1-.5-3.9-3-7.7-4.8-3-1.5-5.7-2.1-8.4-4.3-3.3-2.7-.3-6.7 4.2-4.2 2.2 1.2 16.3 5.8 18.7 6.4.9.2 1.8.2 2.6.4 3.1.5 4.9 1.2 8.6 1.2z"
       fill="#000100"
       id="path16797" />
  </g>
</svg>
