<svg xmlns="http://www.w3.org/2000/svg" width="42" height="42" fill="none"><g clip-path="url(#a)"><rect width="42" height="42" fill="#268700" rx="21"/><path fill="#268700" fill-rule="evenodd" d="M23.225 3.47h.866c.25 0 .433.045.653.045.396 0 .99-.015 1.313.124l1.43.705c.309.154.587.359.83.601.249.25.432.492.63.785.052.073.088.132.14.205.154.206.33.404.447.639l.543.887c.051.08.08.14.125.22.271.455.594.888.711 1.416.022.103-.007.235.066.3.037.038.176.082.235.118.073.044.147.096.22.147.206.14 1.079.74 1.247.902.147.132.58.595.69.748.051.074.088.133.146.199.235.264.382.564.536.873.073.146.294.212.433.278l1.086.712c.227.169.601.528.601.873 0 .11-.037.257-.088.323-.11.139-.19.051-.323.11-.022.022 0 .733 0 .807 0 .3-.066.52-.066.829 0 .19.052.315.066.476.008.088-.007.162.008.25.073.506-.008.755-.066 1.232a1.026 1.026 0 0 1-.125.418c-.36.704-.096.308-.631 1.02-.088.117-.161.183-.257.286-.3.3-.433.286.118.741.117.095.271.323.381.44.066.066.103.147.169.228.183.234.337.513.447.792.037.102.052.205.088.308.052.154.191.205.294.315.095.103.205.22.286.345.103.161.491.94.491 1.137 0 .631-.168.807-.477 1.262-.102.161-.256.271-.388.396l-.374.404c-.55.726-.433.623-.28.821.104.14.258.477.258.653 0 .484-.044.74-.338 1.115-.117.147-.198.3-.33.433-.117.117-.484.557-.484.69 0 .066.088.249.103.308.095.264.05.887-.015 1.151l-.117.338c-.228.557-.375.675-.727 1.122-.3.389-.616.418-.257.858.044.06.074.081.118.14.213.293.499.36.8.543.22.132.476.227.69.374.212.146.417.279.637.425l.448.338c.051.036.117.073.169.117l.557.506c.52.499.924 1.21 1.196 1.475l.506.557c.088.11.147.213.227.316.39.513.418.953.748 1.4.081.11.147.184.22.301.14.235.28.426.397.668.183.367.293.763.477 1.13.05.102.271.711.271.821 0 .455-.227.866-.557 1.115-.052.037-.11.06-.17.096-.22.154-.146.14-.476.308-.235.117-.425.279-.668.374l-.36.161c-.234.11-.498.22-.77.272-.16.036-.227.08-.41.117a2.953 2.953 0 0 0-.426.096c-.278.08-.528.168-.821.22l-.968.095h-.888c-.154 0-.206-.044-.345-.044-.242-.007-.528.03-.755-.03-.353-.087-.8-.036-1.16-.036-.359 0-.748-.059-1.107-.088-.14-.015-.206-.044-.345-.044-.345 0-.382-.037-.712-.095-.286-.052-.337-.03-.63-.147l-.565-.242c-.235-.11-.734-.462-.969-.616-.08-.06-.154-.096-.227-.162a5.443 5.443 0 0 0-.58-.403c-.058-.037-.073-.052-.124-.088l-.492-.286c-.117-.052-.132-.088-.235-.162-.08-.059-.176-.095-.264-.147-.33-.198-.403-.498-.528-.836-.022-.058-.044-.088-.058-.154-.044 0-.06 0-.103.008-.176.044-.338.718-1.035 1.07-.058.03-.095.052-.146.067-.081.029-.096.029-.169.073-.11.066-.682.227-.946.381-.103.059-.242.059-.36.096-.183.058-.902.234-1.085.234-.426 0-1.438-.029-1.783 0-.162.015-.184.067-.389.067h-2.67c-.25 0-.66-.044-.866.029-.293.102-.711-.015-1.041.073-.06.015-.088.044-.162.051-.14.015-.3-.007-.447.008-.154.022-.242.059-.396.059-.198 0-.257.066-.39.066H10.88c-.154 0-.176-.066-.63-.066-.235 0-.485.007-.72 0-.124 0-.168-.037-.286-.06-.22-.036-.484.03-.704-.014-.161-.036-.03-.044-.308-.058a18.619 18.619 0 0 0-.33-.023c-.117-.007-.176-.058-.286-.066-.132-.007-.213.008-.323-.021-.051-.015-.095-.03-.132-.037-.066-.008-.125 0-.19-.008-.162-.014-.962-.22-1.218-.22-.397.008-.727-.22-1.1-.308-.11-.022-.177-.007-.294-.051-.272-.11-.55-.154-.83-.257l-.513-.198c-.095-.03-.176-.044-.264-.08a2.02 2.02 0 0 1-.462-.257c-.103-.074-.147-.066-.264-.11-.169-.059-.315-.162-.477-.242-.25-.14-.44-.14-.719-.33-.212-.147-.462-.265-.675-.411-.073-.052-.124-.088-.205-.14-.095-.051-.169-.051-.25-.124-.256-.235-.469-.455-.718-.697-.147-.147-.264-.33-.39-.507-.263-.366-.256-.242-.498-.733-.044-.096-.08-.132-.125-.227-.051-.103-.066-.17-.095-.272-.051-.176-.132-.345-.205-.506-.14-.308-.177-.484-.28-.785-.139-.41-.117-.514-.197-.888-.022-.117-.052-.124-.059-.286a1.276 1.276 0 0 0-.059-.308L-3 35.176c0-.147.037-.198.044-.323.007-.147-.015-.25.022-.367.044-.154.051-.36.088-.499.059-.22.037-.315.044-.542.007-.133.059-.206.066-.323.015-.257 0-.11.059-.338.022-.088.03-.256.03-.36 0-.432-.016-.322.05-.71.015-.089 0-.25.022-.375l.052-.337c.014-.213-.03-.455.03-.668.043-.146.029-.168.05-.345.023-.176.037-.088.037-.352.008-.227.242-.975.242-1.298 0-.19-.007-.205.044-.352.037-.118.008-.228.044-.345.052-.161.022-.161.044-.345.03-.213.11-.418.125-.63.007-.096.022-.257.044-.346.044-.154.03-.374.044-.542l.051-.338c.015-.058.037-.095.052-.146.036-.118.014-.235.044-.345l.044-.154c.08-.455.242-.925.367-1.365.036-.125.073-.161.117-.271l.271-.902c.015-.066.015-.096.037-.162l.051-.14c.066-.19.17-.351.22-.542.06-.206.177-.33.257-.528l.11-.286c.242-.58.345-.77.616-1.314.044-.095.089-.16.14-.249.095-.183.147-.352.264-.52.051-.074.103-.177.147-.25l.528-1.034c.088-.184.161-.345.264-.514.059-.095.066-.183.117-.271l.69-1.248c.25-.418.418-.872.675-1.283.315-.514.41-.778.675-1.255.051-.088.102-.154.161-.234l.616-.925c.059-.088.08-.168.14-.25.051-.08.102-.153.154-.234.08-.125.22-.367.322-.462.14-.132.22-.286.36-.425l.198-.199c.169-.168.308-.352.477-.498.14-.125.323-.411.403-.573.118-.234.374-.418.536-.638.117-.161.25-.242.367-.396.117-.154.22-.293.352-.425.168-.17.242-.411.352-.624.235-.447.52-.902.836-1.298.382-.485.08-.22.712-.851.139-.14.25-.242.403-.352.073-.052.162-.089.257-.14l.755-.418c.492-.293.917-.44 1.512-.44.132 0 .234-.037.344-.044.25-.022.507 0 .749-.037.278-.044.836-.037 1.115-.007.594.066 1.195.073 1.782.176.037.007.125.03.162.03.176.021.337.05.498.11.61.22.983.44 1.497.85.08.066.132.103.22.169.183.125.455.44.58.616.044.073.088.19.198.19.08 0 .623-.38.711-.454.147-.125.33-.198.47-.337.271-.257.176-.25.609-.565.161-.118.315-.198.498-.279.272-.132.624-.227.961-.227Z" clip-rule="evenodd"/><path fill="#9F3D05" fill-rule="evenodd" d="M28.696 28.467h-.499c-.14 0-.278-.029-.366-.029-.25.007-.536.007-.778.044-.462.066-.998-.015-1.453-.066l-.939-.103c-.271 0-.704-.036-.939-.102-.132-.037-.315-.044-.454-.074-.28-.051-.565-.154-.837-.205-.183-.037-.242-.059-.41-.103l-.888-.154c-.323-.022-.668-.037-.968-.066-.367-.044-.705.015-1.086.015l-.844-.096c-.095-.022-.161-.051-.25-.073-.153-.044-.388-.059-.542-.08-.154-.023-.36-.067-.536-.103-.095-.015-.154-.052-.227-.081-.088-.03-.169-.044-.25-.073-.073-.022-.131-.06-.22-.088-.095-.037-.139-.074-.22-.103-.168-.059-.3-.088-.484-.147l-.697-.257c-.264-.095-.425-.19-.711-.242a7.998 7.998 0 0 1-.998-.264c-.506-.161-1.144-.821-1.386-.829-.103 0-.176.052-.176.154-.008.286 1.144 1.02 1.445 1.079l1.474.418c.125.051.323.154.455.198.228.073.792.22.954.308.147.088.755.308.954.33.168.022.359.088.506.117.22.037.337.015.535.096.11.044.954.168 1.108.168.704 0 1.35-.029 2.054.037.198.015.293.059.447.08.17.023.316.03.463.082l1.298.315c.594.073.667.147 1.43.183.191.008.28.044.463.052.168.007.344.007.506.037 1.32.19 2.31-.015 3.58.11.543.05 1.1 0 1.65-.015.36-.008.675-.08 1.042-.074.323 0 .814-.007 1.1-.08.103-.03.14-.022.228-.059.205-.08.425-.176.58-.308l.3-.286c.08-.088.352-.345.47-.404.124-.058.102-.044.183-.117.051-.044.102-.08.161-.125.162-.139.176-.227.286.03.096.227.213.132.147.704-.015.117-.125.425-.198.499l-.073.08c-.052.052-.037.015-.081.074l-.176.264c-.044.059-.088.073-.154.132-.088.08-.052.066-.118.169-.11.168-.33.52-.491.638-.051.037-.125.08-.184.117-.117.081-.205.169-.322.242-.118.074-.235.132-.36.206-.095.058-.293.11-.418.154-.667.198-.69.19-1.511.117l-1.232-.058c-.257 0-.485.058-.741.066-1.042.036-2.069.146-3.11.131l-.632-.021c-.212 0-.352-.044-.564-.052-.807-.051-1.622-.03-2.436-.044-.227-.007-.323-.051-.52-.095-.236-.059-.133-.088-.492-.14-.184-.029-.308-.088-.528-.102-.191-.015-.39 0-.573-.03-.212-.036-.3-.08-.535-.095a2.614 2.614 0 0 1-.536-.073c-.337-.088-.69-.088-1.012-.228-.147-.066-.3-.117-.447-.183a3.714 3.714 0 0 1-.419-.213c-.227-.132-.8-.337-1.041-.499l-.624-.308c-.132-.051-.33-.11-.455-.176l-.814-.425c-.066-.037-.147-.059-.213-.096-.08-.044-.146-.066-.22-.102-.257-.14-.968-.639-1.159-.705-.278-.088-.073.022-.455-.176-.132-.073-.264-.161-.41-.22l-.301-.161c-.044-.03-.037-.03-.088-.059-.132-.073-.286-.117-.389-.242-.198-.22-.506-.36-.726-.535-.176-.133-.345-.264-.433-.477-.154-.367-.161-.22-.08-.756.029-.183.11-.271.212-.418.213-.293 1.166.095 1.518.125.103.007.154.03.235.066l.94.3c.087.023.183.037.263.06.14.043.345.087.47.146.132.059.323.14.455.176.264.073.748.22.99.25.198.021.345.058.528.102.162.037.382.037.558.066.102.022.132.044.242.066.095.015.183.015.279.03.183.021.315.08.52.11.176.029.294.102.485.124l1.012.228c.154.044.887.139 1.056.205.103.037.11.044.242.066l.279.044c.36.044.726.117 1.108.14l1.093.16c.352.067.755.045 1.1.14.374.11 1.027.059 1.453.059.19 0 .36.022.542.03.191.014.33.058.521.058.536.007 1.035.044 1.563.11.176.022.315.022.499.03.337.007.645.08.975.08h.521c.36 0 1.02-.088 1.519-.088.198 0 .396.007.587-.015l1.357-.293.381-.154c.294-.14.572-.374.8-.594.073-.066.066-.03.146-.132.155-.206.558-.72.697-.94.154-.249.47-.858.543-1.13.066-.22.132-.432.169-.66l.044-.212c0-.007.007-.015.007-.015.088.022.147.162.198.242.044.066.125.206.154.28.118.322.198.293.264.608.081.41-.234.924-.506 1.218-.044.044-.066.073-.102.117-.066.088-.052.044-.118.103l-.22.22c-.286.271-.506.726-.777.96-.088.074-.133.14-.22.22-.06.052-.191.162-.257.206-.044.03-.088.052-.132.081l-.36.293c-.088.074-.132.147-.212.22-.081.074-.155.133-.228.206-.073.073-.19.103-.286.147-.051.029-.279.095-.337.102-.602.103-1.746.044-2.48.162-.572.08-1.313-.074-1.68-.074Z" clip-rule="evenodd"/><path fill="#268700" fill-rule="evenodd" d="M30.481 9.02c-.095-.022-.015-.022-.11-.08-.066-.037-.08-.015-.147-.052l-.256-.132c-.118-.066-.176-.066-.28-.117-.204-.103-.006-.037-.285-.103-.396-.088-.36-.11-.61-.169-.74-.183-1.18-.322-2.024-.33-.264-.007-.499-.03-.763-.03-.117 0-.227.03-.344.038-.133.007-.264.007-.39.022-.205.029-.44.088-.674.102l-.653.14c-.073.022-.183.073-.286.102-.073.022-.08.037-.132.066-.059.03-.096.022-.162.037-.205.037-.8.293-.953.14-.462-.463-1.079-.793-1.65-1.123 0-.235-.089-.888-.177-1.049a2.764 2.764 0 0 1-.183-.418c-.074-.19-.19-.286-.206-.426.066-.08.617-.418.639-.44.08-.08.022-.066.139-.117.448-.213.491-.41.756-.616.044-.037.11-.074.146-.118.044-.051.096-.102.14-.14.088-.065.645-.3.763-.315.183-.022.088-.029.212-.05.088-.016.17-.023.257-.023l1.086.007c.352.037 1.372.052 1.51.11.302.125.793.39.925.44.162.067.074.03.169.11l.374.17c.162.065.514.293.653.432.337.33.227.19.499.587l.513.704c.066.052.008-.036.059.066.14.264.367.58.52.851.074.132.148.206.206.338.044.11.125.25.191.352.051.088.073.059.22.323.095.168.073.08.198.344.037.088.037.132.088.198.059.074.103.06.022.17Zm1.893 28.118c-.059-.073-.022-.051.014-.095.089-.088.235-.433.257-.55.03-.184.059-.074.169-.154.059-.044.088-.17.066-.242-.03-.089-.484-.36-.587-.397-.381-.161-1.276-.337-1.665-.154-.103.044-.14.037-.235.096l-.389.264c-.168.117-.433.396-.719.58l-.19.139c-.264.161-.5.389-.778.528-.08.037-.147.059-.227.095-.36.184-1.079.096-1.423-.007-.103-.03-.133-.066-.235-.095-.184-.052-.257-.162-.323-.33-.03-.067-.073-.147-.08-.228a.868.868 0 0 1 .007-.308c.022-.103.066-.154.095-.235.08-.257.11-.19.316-.33l.418-.235c.139-.051.234.059.352.11l.205.118c.103.058.19.117.264.212.059.074.088.096.14.191.161.272-.44.587-.521.705-.118.175.058.388.264.308.03-.015.154-.11.19-.14l.177-.154c.168-.183.337-.389.337-.653 0-.124-.08-.271-.147-.367l-.22-.264c-.058-.073-.029-.022-.095-.073l-.484-.315c.058-.081.11-.089.19-.147.088-.066.162-.19.25-.25.176-.117.11-.095.25-.249.073-.08.095-.095.183-.161a1.54 1.54 0 0 0 .337-.316c.11-.14.404-.33.558-.44.22-.161.374-.235.594-.425.117-.103.3-.147.447-.206.573-.213.536-.381 1.306-.389.206 0 .345.052.499.191.073.066.117.074.183.14.206.205.492.454.734.616.154.102.198.242.279.396.051.095.168.213.279.374l.154.176c.088.095.22.132.322.198.154.095.228.095.33.169.272.19.58.286.844.477l.976.697c.132.087.271.19.366.3.162.176.345.316.514.484.169.17.286.39.44.558.147.161.338.535.514.66.124.088.044.08.139.184l.25.249c.16.19.132.183.22.3.05.067.022.015.073.074.132.162.41.638.433.902.146.096.036-.044.132.162.235.506.25.36.36.535.11.176.197.39.315.572l.557 1.226c.117.256.08.205.125.462.044.271.213.345.117.733-.03.11-.051.066-.125.176-.212.301-.22.176-.403.33-.088.074-.037.081-.14.147l-.293.14c-.154.066-.235.19-.345.234l-.506.242c-.132.066-.08.11-.286.14-.205.03-.257.124-.455.132l-.007.03s0 .006-.007.014l-.008.044c-.154-.015-.08-.03-.25.014-.087.023-.168.023-.263.044-.308.081-.616.155-.925.272-.08.03-.403.073-.498.08-.25.03-.301-.021-.558.052-.117.037-1.056.03-1.159-.007-.125-.044-.088-.044-.257-.044l-1.217-.022c-.25-.008-.8.044-.998-.037-.08-.037-.829-.08-.954-.117-.095-.022-.242-.015-.352-.022-.19-.008-.125-.044-.279-.06-.256-.028-.388-.043-.608-.11-.22-.065-.58-.19-.778-.307l-.653-.411c-.088-.088-.22-.14-.33-.213-.059-.044-.03-.044-.088-.088-.044-.037-.073-.037-.117-.08l-1.174-.778c-.073-.044-.154-.125-.213-.154l-.227-.117c-.096-.06-.066-.06-.125-.155-.051-.08-.073-.198-.125-.308-.33-.697-.212-1.313-.212-2.046 0-.367-.037-.316-.06-.565-.014-.169-.117-.294-.183-.433a4.663 4.663 0 0 0-.352-.477c-.058-.08-.095-.183-.139-.271a2.188 2.188 0 0 0-.338-.47c-.205-.22-.403-.367-.623-.616a2.44 2.44 0 0 1-.47-.763c-.073-.213-.066-.484.044-.653.023-.03.184-.183.213-.198.33-.22.418-.367.858-.374.199 0 .177.007.33.073.44.184.177.015.47.353.073.08.08.058.14.16.146.28-.037.778.528 1.19.381.278.528.227.755.293.059.014.052.036.147.051.125.015.235 0 .367.03.022.05.044.168.066.234.022.096.059.11.08.198.081.316.052.727.118 1.035.08.388.374.814.66 1.063.066.059.103.088.154.147.132.161.308.257.455.389l.572.455c.183.146.338.33.506.498.096.096.396.272.514.353.25.168.609.212.902.256.272.044.396-.036.514-.044.154.272.036.418.308.712.08.088.117.161.3.227.081.03.11.059.184.074.367.073.77.102 1.13.132.256.022.454-.015.682-.096.059-.022.102-.051.147-.066.036.044.088.264.117.36.037.124.22.322.33.366.44.177.03.06.565.133.279.036.55-.015.792-.103.521-.19.543-.506.888-.741.03-.022.037-.022.066-.044l.25-.337c.043-.06.058-.06.11-.133.043-.058.058-.073.095-.124l.161-.206c.022-.036.022-.029.051-.058.191-.198.345-.404.55-.602.06-.059.052-.066.118-.095 0-.154-.007-.25-.125-.294-.25-.095-.506.316-.63.492-.103.147-.257.242-.367.396-.052.08-.037.03-.096.103l-.308.432c-.03.037-.059.06-.095.096-.059.066-.11.132-.176.198-.066.066-.154.117-.206.183-.058.074-.095.147-.169.198-.139.096-.308.184-.528.228-.161.03-.542.014-.675-.052-.322-.154-.176-.183-.293-.462-.14-.322-.125-.286.037-.55.066-.11.095-.11.198-.19.051-.045.051-.052.102-.096.154-.117.793-.8.83-.851.168-.257.19-.213.352-.389l.183-.205c.073-.074.103-.117.183-.184.074-.058.11-.154.066-.286-.036-.11-.124-.132-.256-.11l-.587.602c-.103.08-.154.154-.235.264-.117.161-.33.36-.477.52l-.323.346c-.124.139-.176.05-.498.52-.052.074-.06.14-.118.213-.205.264-.675.154-.968.147-.117 0-.235.007-.352-.008-.272-.029-.066-.066-.602-.102l-.154-.235c-.044-.088-.059-.176-.088-.279-.051-.176-.015-.308.066-.455.103-.198.176-.44.279-.63l.47-.66c.124-.125.197-.316.285-.448.088-.14.353-.337.492-.448.161-.124.41-.249.528-.381.206-.235-.014-.477-.235-.337-.029.021-.058.05-.102.087l-.543.367c-.161.11-.338.301-.477.462-.14.154-.169.323-.367.55-.058.067-.102.162-.147.22-.11.155-.197.236-.3.44-.03.067-.052.074-.074.118-.022.052-.014.088-.036.14-.03.073-.081.146-.125.25-.037.087-.08.175-.117.248-.176.008-.301.066-.448.06-.14-.008-.286-.052-.44-.074-.293-.044-.499-.235-.69-.352-.176-.11-.264-.235-.403-.374-.044-.044-.073-.096-.117-.147-.162-.19-.301-.367-.382-.66-.051-.191.008-.294.088-.419.066-.095.118-.212.198-.322.08-.103.14-.184.213-.308.161-.272.337-.404.55-.624.037-.037.015-.03.066-.059.118-.073.242-.095.367-.161.051-.03.117-.059.176-.088.088-.037.227-.117.33-.176.22-.125.44-.286.66-.381.47-.213.308-.199.477-.301.154-.088.316-.206.44-.345.176-.176.39-.308.573-.47.139-.117.491-.337.586-.432.103-.103.14-.265 0-.353-.168-.102-.293.037-.374.11-.095.081-.205.133-.308.213-.073.059-.03.052-.14.118a.686.686 0 0 0-.146.117c-.073.066-.051.059-.147.11-.161.088-.271.25-.418.367l-.147.117c-.088.088-.11.088-.146.066ZM8.767 24.726c.206.073.316-.161.39-.286a1.978 1.978 0 0 1 1.232-.851c.41-.08.762-.169 1.21-.176.125 0 .227-.022.345-.022.088 0 .271.03.344.015.184-.044.176-.301-.007-.411-.095-.059-1.122.022-1.291.044-.14.014-.183.044-.286.058-.418.067-.954.206-1.284.463-.066.051-.125.11-.19.154-.177.146-.874.873-.463 1.012Zm2.715-2.75c.322-.045.322-.06.33-.206.022-.301-.301-.22-.602-.206-.213.008-.41.052-.616.081a1.985 1.985 0 0 0-.536.161c-.161.081-.352.147-.25.419.14.183.331.05.5-.037.381-.183.792-.162 1.174-.213Zm18.28-1.343c-.271 0-.403-.052-.616-.103-.066-.015-.125-.015-.19-.03-.177-.043-1.218-.373-1.372-.469-.323-.183-.55.103-.309.308.199.162.397.213.617.316.271.132.484.315.564.352.184.088.052.014.28.176.505.36.52.543.894.946l.345.352c.198.191.066.059.205.25.044.058.066.058.103.11.125.161.257.491.352.565.103.08.506.124.242-.411-.044-.08-.029-.08-.08-.162-.323-.506-.734-.836-.947-1.115l-.308-.388c-.103-.132-.315-.301-.323-.33.631.036 1.042.095 1.658-.03.074-.014.162-.066.228-.102.073-.044.117-.11.088-.243-.052-.22-.316-.102-.455-.066-.308.088-.66.066-.976.074Zm-3.88-5.297c-.184-.785-.301-.704-.763-1.232l-.308-.36c-.118-.11-.308-.227-.426-.374-.242-.293-.682-.704-1.042-.829-.286-.095-.924-.132-1.225-.11-.212.015-.432.03-.652.022-.147-.007-.514-.095-.587.037.036.08.366.176.462.213.168.058.323.132.499.198a2.2 2.2 0 0 1 .652.367c.096.08.11.066.199.146.227.22.491.448.682.683.073.088.08.11.168.183.074.059.118.11.184.161.125.096.271.198.389.301.256.227.44.44.69.675l.33.337c.183.155.359.316.498.521.052.074.103.125.147.206l.117.227c.125.323.198.345.242.792.022.184.103.492-.051.595a.273.273 0 0 1-.227 0c-.066-.044-.037-.008-.066-.118a.68.68 0 0 1-.022-.176c-.008-.205-.081-.403-.118-.616-.014-.095-.073-.169-.117-.25a3.956 3.956 0 0 0-.272-.469c-.124-.169-.396-.404-.564-.565l-.191-.183c-.272-.242-.44-.514-.756-.72-.477-.315-.755-.689-1.152-1.085a3.388 3.388 0 0 0-1.408-.829l-.528-.205c-.323-.11-1.115-.448-1.423-.426-.61.044-1.233-.044-1.834.022-.206.022-.448.074-.675.074h-.741c-.33 0-1.144-.11-1.423-.03-.08.022-.19.059-.279.088-.11.03-.227.037-.323.066-.389.132-.74.22-1.063.411-.162.096-.272.228-.39.345-.131.125-.249.227-.38.374-.162.176-.397.367-.543.565-.177.227-.419.396-.514.616-.066.154-.088.492 0 .616.492.037.594-.227.829-.535.499-.66.183-.272.646-.748.146-.154.432-.316.616-.433l.755-.294c.176-.044.39-.102.558-.161.286-.103.279-.073.565-.132.19-.037.367-.073.586-.103.206-.03.455-.03.639-.066a7.94 7.94 0 0 1 .601-.088l.639-.044c.22 0 .432-.022.674-.022l.61.059c.241.03.388.037.608.117.088.03.19.044.279.066.088.03.154.074.235.118.198.102.418.154.587.286.05.036.029.03.102.073.242.132.815.565.94.624.043.029.072.029.117.058.198.132.484.235.711.33.103.044.14.081.227.118.316.117.66.286.925.484l.19.154c.045.037.162.117.191.154.118.132.242.22.345.352l.264.448c.073.168.125.33.206.498l.146.375c.14.278.206.601.36.858.066.11.022.213.066.3.022.045.242.118.3.162.103.066.17.14.235.22.044.059.059.052.081.14.051.176.08.447.022.608-.11.301-.506.521-.704.668-.374.286-.675.3-.99.594l-.338.36c-.154.183-.293.286-.455.462-.08.08-.132.168-.205.25-.191.227-.345.366-.58.55-.059.043-.095.058-.14.095-.241.212-.498.44-.806.564l-.646.272c-.124.037-.198.037-.366.095-.125.044-.213.088-.33.125-.133.044-.243.051-.36.103-.455.19-.836.367-1.306.52-.279.096-.535.052-.85.067-.118-.191-.096-.206 0-.404.153 0 .38-.007.527-.022a1.7 1.7 0 0 0 .507-.161c.022-.008.08-.03.095-.037l.381-.154c.103-.037.11-.051.198-.088.06-.03.133-.037.199-.066.102-.044.058-.059.19-.088.176-.037.272-.059.426-.125.146-.058.25-.095.41-.132.191-.044.25-.095.419-.146.227-.074.374-.191.543-.257.139-.059.198-.147.315-.228.103-.073.19-.183.293-.25a2 2 0 0 0 .455-.366c.118-.14.059-.11.242-.3l.264-.28c.081-.08.242-.212.257-.293-.03-.014-.572-.03-.719-.058-.257-.052-.55-.03-.814-.03-.279 0-.55-.022-.8-.022-.132 0-.256-.007-.388-.03-.147-.014-.235-.05-.36-.073-.257-.044-.506-.044-.77-.058a21.105 21.105 0 0 1-1.555-.14l-.741-.11c-.14-.014-.235 0-.374-.044-.103-.03-.22-.066-.33-.088-.22-.051-.397-.169-.624-.22-.279-.066-.462-.22-.682-.36a1.535 1.535 0 0 1-.36-.293c-.293-.3-.565-.535-.873-.8-.154-.131-.271-.285-.454-.388-.088-.051-.184-.088-.242-.176-.06-.088-.015-.228.095-.286.22-.118.535.25.66.337.169.132.858.748.961.866.059.066.066.073.125.132.117.125.14.132.293.227.594.374.61.272 1.057.484.432.206.872.154 1.327.235.61.118 1.262.169 1.871.19.169.008.308.03.477.038.367.014.572.117.939.124.337.008.667.022 1.005 0 .315-.014.667.052.96.081.155.015.346.015.5 0 .139-.015.293-.088.403-.125.125-.051.242-.102.36-.161a3.46 3.46 0 0 0 .939-.631c.066-.066.066-.037.08-.169.037-.3-.25-.47-.315-.455-.074.044-.059.074-.162.133-.22.132-.477.044-.697.146l-1.02.389c-.139.08-.55.095-.726.117a4.753 4.753 0 0 1-1.07 0l-.77-.073c-.096-.015-.11-.03-.235-.044-.309-.03-.653-.117-.962-.176-.212-.037-.27-.037-.462-.103-.066-.022-.168-.03-.227-.058l-.19-.088a9.978 9.978 0 0 0-1.314-.382c-.154-.03-.286-.095-.425-.147-.11-.036-.11-.058-.191-.095l-.998-.418-.286-.279c-.102-.095-.205-.161-.308-.257-.117-.11-.147-.168-.293-.271-.477-.345-1.013-.433-1.6-.66-.22-.081-.542-.25-.762-.367-.118-.059-.294-.11-.404-.162-.19-.08-.227-.139-.36-.22-.293.089-.762.25-.975-.05-.25-.346-.213-.595-.088-.998.073-.243.25-.39.433-.55.051-.045.095-.125.14-.184l.637-.668c.184-.205.477-.462.675-.63.308-.265.528-.287.895-.411.499-.176.25-.103.756-.22.124-.03.146-.044.242-.081.147-.051 1.086-.022 1.276 0 .411.051.851.007 1.255-.015.403-.014.85-.073 1.24-.066.308.008.638.044.953.008.088-.008.19-.037.264-.045.308-.029.91.03 1.24.052.403.03.873 0 1.284-.022.315-.015.146-.08.572 0 .154.03.433.03.601.044.411.044.675.19.917.389l.345.308c.074.08.228.293.338.3.124-.212-.103-.616-.198-.814l-.191-.352c-.074-.11-.169-.213-.213-.352-.059-.213-.161-.227-.293-.55l-.316-.462c-.161-.235-.264-.433-.47-.639-.095-.095-.19-.19-.285-.278-.22-.206-.602-.653-.837-.815l-.667-.462a5.18 5.18 0 0 0-.712-.396c-.235-.103-.132-.095-.447-.117-.162-.008-.367-.008-.521-.03-.162-.022-.088-.058-.198-.073-.793-.095-1.577-.103-2.37-.161-.337-.03-.726.036-1.063.051-.176.007-.323.051-.5.066-.395.022-.755.14-1.136.242l-.426.14c-.19.058-.396.183-.55.293-.103.073-.22.154-.315.227-.118.096-.147.17-.308.257-.17.095-.39.352-.595.514-.102.08-.212.154-.322.22-.132.088-.36.095-.39-.081-.043-.242.324-.36.58-.558.184-.146.28-.315.426-.403.066-.037.103-.073.168-.117.191-.132.33-.308.624-.485.161-.102.14-.102.345-.198.711-.33 1.496-.41 2.267-.535l1.056-.059c.396.008 2.237.103 2.59.198.212.059.535.081.762.088.213.008.06-.271.008-.594-.037-.227-.22-.55-.338-.77-.124-.235-.264-.521-.418-.72l-.242-.3c-.183-.19-.697-.587-.932-.74a4.034 4.034 0 0 0-1.635-.602c-.323-.052-.69-.044-1.013-.103-.667-.11-1.445-.088-2.12-.037-.616.052-.873.037-1.474.191-.235.059-.213.059-.39.176-.22.14-.447.213-.71.396-.404.272-.412.096-.976.697-.096.103-.184.162-.272.294-.066.102-.132.242-.212.33-.14.154-.624.829-.69 1.005-.051.14-.117.227-.183.36-.066.139-.14.241-.199.366-.176.374-.462.646-.74.932l-.521.586c-.132.14-.132.184-.235.33-.066.096-.147.243-.227.316-.272.22-.03-.051-.272.286-.088.125-.176.19-.271.293l-.14.14c-.051.044-.11.08-.146.132-.103.132-.044.132-.228.315-.088.088-.176.191-.235.33-.066.147-.132.184-.22.316-.088.14-.117.257-.205.36-.08.102-.154.197-.22.322-.095.198-.33.484-.455.682l-.293.536c-.044.11-.059.095-.11.176-.074.132-.11.257-.184.381-.036.06-.066.103-.095.162-.051.095-.051.08-.11.168-.132.199-.264.521-.36.749-.073.176-.315.535-.418.711-.058.11-.176.235-.22.345-.044.088-.007.095-.073.184l-.279.564c-.103.28-.286.47-.367.763-.036.147-.117.213-.198.352a1.97 1.97 0 0 0-.183.375c-.066.198-.213.359-.308.542-.096.191-.162.382-.272.55l-.366.741c-.06.118-.147.25-.177.39-.036.205-.11.197-.168.373-.132.39-.184.375-.264.587l-.25.602c-.014.051-.058.146-.073.183-.022.08-.007.147-.051.235-.081.19-.089.205-.133.433-.044.22-.117.433-.22.609-.044.073-.161.528-.183.638-.03.132-.11.264-.132.433-.022.168-.037.11-.066.212-.015.06-.03.177-.037.242-.014.081-.014.17-.03.257-.014.103-.05.14-.065.213-.022.088 0 .14-.022.242-.08.396-.022.286-.059.506-.014.096-.036.14-.058.228-.037.154.007.352-.045.506-.132.41-.088.623-.117.704-.037.125-.059.015-.059.22 0 .176-.058.294-.066.499 0 .433-.029.235-.073.499l-.147.675c-.022.168-.022.36-.058.506-.022.095 0 .169-.022.264-.088.337-.015.712-.088 1.042-.037.168-.008.344-.052.491-.11.367 0 .785-.066 1.064-.03.11-.058.044-.058.22 0 .117 0 .154-.03.257-.058.212-.007.308-.036.506-.015.095-.044.132-.06.227-.014.096 0 .169-.021.264-.11.44-.037.11-.059.44-.015.28-.176.653-.03.961l.096.756c0 .161.03.11.059.227.03.081.007.17.022.257.037.22.103.44.183.646.037.088.096.41.118.447.044.08.051.051.088.169a.62.62 0 0 0 .08.198c.103.183.162.41.22.609l.294.557c.073.11.169.228.25.316.102.102.146.22.234.33.095.125.169.176.257.286.095.117.168.169.279.286.33.345.293.25.63.477l.69.418c.132.066.213.161.36.206.27.073.506.227.762.352l.206.073c.212.066.323.235.748.381.073.03.147.03.22.06.264.116.514.197.807.3.147.051.293.059.447.117.11.044.294.037.463.103.183.073.645.257.843.271.088.008.176-.007.264 0 .096.008.118.044.22.06.118.014.14-.008.243.043.117.059.08.03.234.037.11.007.118.03.213.051.095.022.176 0 .264.015.11.014.103.051.22.066.088.007.19-.008.279 0 .095.007.117.044.227.059.088.014.184.007.272.007.227 0 .293.066.484.08.257.023.535-.014.792.044.345.074.969-.088 1.32.074.037.015 2.487.08 2.73-.008.234-.08.755-.095 1.005-.102.205-.008.242-.088.476-.088.25 0 .55.036.785-.037.213-.066 3.287-.022 3.632-.03.175 0 .146-.065.454-.073.5 0 1.79.06 2.172-.08.124-.044.322-.074.454-.11.11-.03.33-.088.397-.14.051-.044.322-.117.418-.154.279-.11.169-.11.396-.146.11-.015.117-.044.19-.088.067-.037.133-.03.213-.074.397-.19.242-.051.587-.535l.22-.323c.242-.323.367-.25.301-.734-.073-.52.125-.99-.037-1.54-.036-.125-.352-.558-.447-.682-.088-.11-.11-.22-.198-.353-.272-.432-.418-.498-.792-.88-.096-.095-.176-.161-.264-.279-.067-.095-.14-.249-.206-.36-.147-.248-.279-.52-.213-.88.074-.388.066-.447.375-.74.425-.411 1.049-.653 1.65-.455.117.037.308.11.381.183.177.169.177.14.257.308.162 0 .11-.05.191-.161.125-.161.499-.33.697-.44.147-.08.323-.213.44-.316.066-.058.132-.102.205-.16l.397-.368c.183-.213.381-.33.58-.55.131-.147.263-.213.41-.345.183-.168.462-.315.675-.454.095-.066.124-.11.198-.17.132-.11.352-.153.528-.234.19-.088.308-.176.506-.257.382-.154.924-.19 1.313-.088.132.037.36.213.47.294l.609.52c.278.265.234.162.47-.08l.116-.118.11-.146c.133-.154.345-.39.433-.587.088-.22.235-.477.272-.726.036-.242.051-.734-.037-.925-.103.008-.11.03-.169.088-.058.052-.102.074-.161.125a2.28 2.28 0 0 1-.323.22c-.066.037-.088.059-.161.103a2.784 2.784 0 0 1-.594.235c-.572.132-.14.132-.94.154-.645.014-1.46-.118-2.083-.066-.33.022-.675.066-1.02.073-.704.015-1.364.103-2.083.103-.352 0-.726.014-1.078-.008-.19-.014-.323 0-.506-.036a3.624 3.624 0 0 0-.5-.037c-.344-.007-.696-.037-1.063-.037-.418 0-1.203.059-1.577-.066l-.403-.14c-.47-.168-1.123-.11-1.446-.205l-1.423-.227c-.513-.088-.924-.315-1.379-.513-.066-.03-.11-.074-.176-.103-.264-.125-.477-.19-.748-.338a7.473 7.473 0 0 0-1.122-.528.984.984 0 0 1-.177-.088c-.183-.095-.293-.102-.557-.264-.14-.088-.205-.11-.367-.176-.3-.132-.447-.235-.69-.396-.102-.066-.227-.14-.337-.206-.601-.359-.418-.175-.755-.352l-.36-.183c-.08-.037-.08-.066-.161-.095-.191-.081-.727-.367-.866-.506-.257-.265-.895-.58-1.137-.91-.022-.03-.03-.052-.059-.088-.168-.22-.3-.536-.256-.83.014-.087.05-.417.073-.49.066-.199.279-.55.462-.624.22-.088.184-.088.447-.088.345-.008.624.073.954.146.14.03.272.089.433.11.183.023 1.438.426 1.68.492.315.088.447.183.822.286.286.073.572.154.865.22l.94.147c.16.015.278.073.454.095.183.022.286.052.455.088.146.03.315.052.455.088.572.17 1.628.367 2.244.492.14.03.286.066.448.095.168.03.33.03.484.059.154.03.308.044.477.066.146.022.389.007.52.044.602.154 1.3.161 1.915.279.66.124 1.43 0 2.106.088l.983.102c.256.015.836-.007 1.049.052.403.103 1.628.14 2.061.095l1.027-.059c.176-.014.36 0 .535-.007.089 0 .177-.007.265-.014l.674-.14c.397-.14.507.022 1.226-.433.161-.102.308-.234.44-.36.154-.139.242-.285.367-.454.146-.205.33-.418.454-.63.044-.074.037-.118.081-.177.073-.095.044-.051.095-.183l.33-.778c.177-.58.177-1.298-.16-1.797-.052-.08-.038-.103-.082-.176-.073-.11-.146-.118-.242-.301-.066-.117-.403-.425-.528-.587-.044-.059-.066-.103-.169-.103-.11.155-.058.147-.242.345-.044.052-.044.059-.088.11a1.728 1.728 0 0 1-.44.345c-.279.125-1.041.19-1.401.14-.279-.045-.25-.382-.007-.419.08-.014.286.008.381.008.338 0 .866-.044 1.086-.294.051-.058.103-.146.176-.213.051-.044.073-.036.073-.124-.102-.015-.3.036-.425.044-.176.007-.286-.022-.455-.022-.169 0-.3 0-.462-.015-.103-.007-.117.015-.184-.066-.117-.147-.036-.36.294-.337.807.036 1.262.102 1.878-.485.088-.088.154-.154.227-.249l.154-.22c.081-.095.198-.235.25-.352.11-.235.25-.455.271-.712.008-.103.088-.323.037-.41-.008-.008-.022-.081-.103.036-.037.052-.044.088-.088.132-.066.073-.132.125-.198.213-.154.22-.337.352-.506.513-.213.198-.668.448-.932.529a4.098 4.098 0 0 1-.69.139c-.249.03-.49.073-.718.11-.169.022-1.438.007-1.629-.007-.257-.022-.477-.059-.755-.059-.697 0-1.65-.022-2.26-.242-.264-.095-.711-.095-.865-.382-.052-.095-.11-.19-.103-.322.037-.727.25-.83.47-1.218.073-.125.175-.22.256-.352.051-.08.037-.044.103-.118.03-.036.051-.066.088-.11.242-.264.484-.418.697-.762a2.34 2.34 0 0 1 .374-.47c.073-.073.132-.154.198-.213.264-.213.976-.69 1.232-.829.264-.146.338-.183.638-.212l.734-.088c.528-.022 1.056-.037 1.577.029l.741.103c.198.058.44.132.61.22.116.066.168.095.234.176.044.051.059.058.095.102.11.14.433.587.506.734.06.125.022.044.096.125.08.095.066.22.205.227.044-.14.044-.844-.007-1.034-.118-.448.044-.448-.404-.697-.52-.294-.821-.382-1.438-.396-.124 0-.205-.037-.308-.052-.645-.088-2.318-.124-2.81-.022-.6.125-1.07.301-1.576.639l-.426.308c-.044.036-.058.029-.102.073-.096.088-.206.161-.294.271-.08.11-.257.33-.396.345-.235.022-.293-.22-.147-.381.125-.132.235-.257.36-.382.124-.124.256-.205.396-.337.117-.117.3-.198.44-.3.132-.096.572-.324.711-.375.8-.293.668-.205 1.519-.323.36-.051 1.034-.014 1.416 0 .117.008.176.037.323.037l.718.044c.147.022.089.037.309.044.491.007.763.095 1.225.264.183.066.543.293.66.44.073.088.08.154.213.147-.015-.25-.734-.646-.88-.756-.33-.25-.668-.484-1.086-.587-.147-.036-1.277-.146-1.526-.146-.536 0-2.09.08-2.51.271-.087.044-.11.044-.204.08-.162.06-.463.302-.631.214-.066-.074-.118-.14-.066-.264.058-.147.095-.103.198-.177.146-.102.44-.22.623-.286.22-.08.917-.154 1.137-.176.668-.058 1.372-.124 2.062-.058.139.014.55.08.66.073.059-.125-.044-.206-.103-.3-.102-.177-.242-.309-.36-.47-.08-.11-.153-.22-.27-.338-.177-.168-.287-.315-.492-.47-.052-.036-.088-.058-.14-.095-.066-.051-.044-.051-.139-.102-.125-.066-.169-.14-.271-.206l-.705-.491c-.146-.088-.337-.147-.47-.25-.337-.249-.725-.403-1.107-.564-.08-.03-.073-.052-.161-.081-.125-.044-.257-.044-.389-.088-1.012-.316-1.775-.44-2.898-.44-.25 0-.623.044-.865.088-.404.066-.822.088-1.21.22-.301.102-.367.154-.727.234-.169.037-.147.074-.381.096 0 .066.08.132.124.176.308.323.514.52.77.902.03.052.037.037.067.08.029.038.036.074.058.111l.382.616c.051.095.176.272.25.426.087.198.153.249.256.418.125.205.213.477.315.682.06.117.096.425.081.557-.022.199-.183.33-.015.485.118.11.206.242.316.36.242.27.425.395.616.733.059.11.19.667.205.814.023.176.037.455.045.63 0 .155.029.529-.023.64-.08.182-.344.124-.388-.082-.081-.22-.008-.931-.088-1.269Zm-3.683-.198c-.088.074-.132.015-.257.022-.095.008-.198.037-.308.037l-1.328.08-3.41-.058c-.397 0-.764.08-1.13.088-.36.007-.8.059-1.13.11-.484.073-1.152.103-1.585.264-.08.03-.146.051-.212.088s-.125.103-.235.095l-.433-.183c-.154-.088-.08-.132.095-.352.103-.132.11-.19.33-.426l.235-.242c.096-.11.404-.286.536-.374.117-.073.975-.36 1.151-.41.44-.14 1.05-.235 1.541-.287.095-.007.205-.007.286-.022l1.1-.124c.475-.015.962.002 1.46.051.418.037.983.308 1.35.499l.924.616c.096.059.088.08.199.132l.198.11c.058.03.146.059.212.095.081.023.374.133.411.191Zm5.869 24.084c.095-.03.051-.066.234-.191.25-.176.485-.404.705-.602.044-.044.088-.066.124-.095.11-.103.36-.41.536-.55.389-.308.183-.132.447-.418.081-.088.14-.132.22-.213l.228-.206c.073-.066.14-.154.213-.22.154-.146.242-.271.381-.484.206-.308.374-.374-.073-.367-.39 0-.616.235-.873.426-.088.066-.162.132-.242.19l-.492.375c-.169.125-.33.235-.506.367-.227.168-.565.388-.851.454-.455.11-.36-.036-.227.404.102.308.014.924.176 1.13ZM29.447 15.3c.007-.081.044-.06.117-.103.066-.037.088-.066.154-.11s.11-.066.162-.103c.322-.198.454-.345.895-.381.69-.059 1.21-.14 1.9-.052.352.044.939.074 1.283.235.367.176.272.176.404.36.044.066.066.08.102.154l.536.77c.044.059.066.066.125.14.168.212.183.124.234.263.044.132.096.426-.132.22-.11-.102-.462-.19-.704-.315-.235-.125-.462-.198-.697-.33-.117-.066-.271-.183-.47-.294a2.367 2.367 0 0 0-1.004-.278c-.154-.008-.286-.044-.455-.044a5.04 5.04 0 0 1-.484-.03c-.242-.022-1.922-.073-1.966-.102Z" clip-rule="evenodd"/><path fill="#fff" fill-rule="evenodd" d="M20.7 19.143c.022-.117-.015-.029.051-.102.33-.426.536-1.013.572-1.556.096-1.665-.403-1.54-.491-1.811.491.007.924-.074 1.43-.074.118 0 .206-.022.345-.022.147 0 .242.022.367.03.293.014.227-.015.52.227.22.183.573.565.668.829l.646 1.621c.205.506-.191.396-.279.404-.235.029-.381.124-.58.183-.16.051-.352.154-.535.22-.52.19-1.46.205-2.061.154l-.653-.103ZM32.432 18.983c.022-.088.14-.198.205-.3.066-.11.11-.236.17-.353.263-.535.175-1.196-.038-1.746l-.352-.565c-.051-.058-.029-.007-.058-.08.132-.088.69.16.807.22.132.066.227.139.337.205.183.117.888.455 1.078.528.272.103.705.169.58.484-.037.096-.19.191-.257.264-.286.33-.418.543-.807.822-.198.14-.47.279-.719.36-.117.05-.821.183-.946.16ZM16.239 15.727c-.03.125-.066.052-.257.301-.212.279-.418.55-.513.902-.022.074-.015.17-.059.228h-.037c-.095-.03-.139-.206-.44-.338-.198-.088-.36-.154-.58-.25-.212-.087-.396-.116-.615-.212l-.44-.176c-.096-.03-.103-.007-.125-.08.11-.081 1.254-.235 1.474-.243l1.504-.146h.022c.066 0 .03-.015.066.014ZM19.785 16.573c.168.074.286.03.454.25.17.22.037.792-.322.96-.235.11-.338.089-.624.089-.418 0-.785-.836-.044-1.181.11-.059.389-.184.536-.117ZM28.025 18.848c-.102.021-.352-.088-.47-.118-.66-.161-.564-.102-.505-.601.029-.235.565-.961.704-1.1.066-.067.528-.573.594-.588.015.06-.058.147-.095.22-.052.103-.052.184-.088.287-.059.198-.125.176-.176.572-.03.25-.088.381-.081.667.022.235.125.514.117.66ZM31.457 16.892c.161.058.389-.044.587.22.044.066.044.125.05.235.008.19.023.352-.087.469-.095.11-.161.19-.374.19-.191 0-.433.03-.55-.256-.206-.484.132-.946.374-.858ZM17.313 16.02c.169.066.323.176.264.41-.022.089-.19.28-.462.243-.132-.022-.3-.22-.227-.396.044-.11.058-.132.146-.198.088-.067.17-.096.28-.06ZM17.578 17.238c.352.146.08.807-.316.58-.403-.243 0-.705.316-.58ZM29.511 16.378c.485.133.228.727-.117.653-.147-.029-.264-.198-.205-.396.036-.14.168-.3.322-.257ZM29.71 17.817c.132.066.14.279.066.396-.161.272-.638.066-.484-.286.03-.073.059-.11.14-.124a.581.581 0 0 1 .278.014Z" clip-rule="evenodd"/><path fill="#000100" fill-rule="evenodd" d="M9.808 22.226c-.102-.264.096-.33.25-.418.11-.059.381-.147.535-.161.206-.022.404-.066.616-.081.301-.015.624-.095.602.205-.007.147 0 .162-.33.206-.382.051-.792.03-1.174.212-.169.081-.352.22-.499.037Zm22.433 14.092c0-.212-.154-.25-.389-.3-.102.154-.433.652-.55.777l-.675.675c-.146.176-.278.293-.447.462-.044.044-.066.073-.11.11-.374.3-.704.704-1.042.976-.088.073-.154.132-.25.205l-.373.301c-.067.051-.081.051-.125.117.03.044.102.14.146.176l.338.338c.11.11.161.073.235.073.095-.403.058-.293.256-.63.235-.397.433-.698.756-1.028.499-.498.44-.322.807-.513l.286-.169c.169-.095.271-.315.41-.477.192-.227.727-.763.727-1.093Zm-4.115 1.372c.286-.066.623-.286.85-.455.17-.124.33-.242.507-.367l.491-.374c.074-.066.154-.132.242-.19.257-.191.492-.419.873-.426.448 0 .28.059.074.367-.14.213-.228.337-.382.484-.073.066-.14.154-.212.22l-.228.206c-.08.087-.14.124-.22.212-.264.294-.059.11-.447.418-.177.14-.426.44-.536.55-.037.03-.073.052-.125.096-.22.198-.455.425-.704.602-.183.124-.14.16-.235.19-.154-.205-.073-.821-.161-1.13-.14-.44-.242-.293.213-.403Zm4.247-.55c-.059-.074-.022-.051.015-.096.088-.088.235-.432.257-.55.029-.183.058-.073.168-.154.059-.044.088-.169.066-.242-.029-.088-.484-.36-.587-.396-.381-.161-1.276-.337-1.665-.154-.102.044-.14.037-.235.095l-.388.264c-.17.118-.433.397-.72.58l-.19.14c-.264.16-.499.388-.778.527-.08.037-.146.06-.227.096-.36.183-1.078.095-1.423-.008-.103-.029-.132-.066-.235-.095-.183-.051-.257-.161-.323-.33-.029-.066-.073-.147-.08-.227a.865.865 0 0 1 .007-.308c.022-.103.066-.154.095-.235.081-.257.11-.19.316-.33l.418-.235c.14-.051.235.059.352.11l.206.117c.102.06.19.118.264.213.058.074.088.096.139.19.161.272-.44.588-.52.705-.118.176.058.389.263.308.03-.014.154-.11.19-.14l.177-.153c.169-.184.337-.39.337-.653 0-.125-.08-.272-.146-.367l-.22-.264c-.059-.073-.03-.022-.096-.073l-.484-.316c.059-.08.11-.088.19-.146.089-.067.162-.191.25-.25.176-.117.11-.095.25-.25.073-.08.095-.095.183-.16.125-.089.25-.199.337-.316.11-.14.404-.33.558-.44.22-.162.374-.235.594-.426.118-.102.301-.146.448-.205.572-.213.535-.382 1.306-.389.205 0 .344.051.498.19.074.067.118.074.184.14.205.206.491.455.733.616.154.103.198.242.279.396.051.096.169.213.279.375l.154.176c.088.095.22.132.323.198.154.095.227.095.33.168.271.191.58.287.843.477l.976.697c.132.088.271.19.367.3.161.177.345.316.513.485.169.169.286.389.44.558.147.161.338.535.514.66.125.088.044.08.14.183l.249.25c.161.19.132.183.22.3.051.066.022.015.073.074.132.161.411.638.433.902.147.095.037-.044.132.161.235.507.25.36.36.536.11.176.198.389.315.572l.558 1.225c.117.257.08.206.124.462.044.272.213.345.117.734-.029.11-.05.066-.124.176-.213.3-.22.176-.404.33-.088.074-.036.08-.139.147l-.294.14c-.154.065-.234.19-.344.234l-.506.242c-.132.066-.081.11-.286.14-.206.029-.257.124-.455.131l-.008.03s0 .007-.007.014l-.007.044c-.154-.014-.081-.029-.25.015-.088.022-.169.022-.264.044-.308.08-.616.154-.924.272-.08.029-.404.073-.499.08-.25.03-.3-.022-.557.052-.118.036-1.057.029-1.16-.008-.124-.044-.088-.044-.256-.044l-1.218-.022c-.25-.007-.8.044-.998-.036-.08-.037-.829-.081-.953-.118-.096-.022-.242-.014-.353-.022-.19-.007-.124-.044-.278-.059-.257-.029-.389-.044-.61-.11-.22-.066-.579-.19-.777-.308l-.653-.41c-.088-.088-.22-.14-.33-.213-.058-.044-.029-.044-.088-.088-.044-.037-.073-.037-.117-.08l-1.174-.779c-.073-.044-.154-.124-.212-.154l-.228-.117c-.095-.059-.066-.059-.125-.154-.051-.08-.073-.198-.124-.308-.33-.697-.213-1.313-.213-2.047 0-.367-.037-.315-.059-.565-.015-.168-.117-.293-.183-.432a4.66 4.66 0 0 0-.352-.477c-.059-.08-.096-.184-.14-.272a2.182 2.182 0 0 0-.337-.47c-.206-.22-.404-.366-.624-.615a2.442 2.442 0 0 1-.47-.763c-.072-.213-.065-.484.045-.653.022-.03.183-.184.213-.198.33-.22.418-.367.858-.374.198 0 .176.007.33.073.44.183.176.015.47.352.073.08.08.059.139.162.147.278-.037.777.528 1.188.381.279.528.227.756.293.058.015.051.037.146.052.125.014.235 0 .367.029.022.051.044.169.066.235.022.095.059.11.08.198.082.315.052.726.118 1.034.08.389.374.815.66 1.064.066.059.103.088.155.147.131.161.308.256.454.388l.572.455c.184.147.338.33.507.5.095.094.396.27.513.351.25.169.609.213.902.257.272.044.397-.037.514-.044.154.271.037.418.308.712.08.088.117.16.3.227.081.03.11.059.184.073.367.074.77.103 1.13.132.257.022.455-.014.682-.095.059-.022.103-.051.147-.066.037.044.088.264.117.36.037.124.22.322.33.366.44.176.03.059.565.132.279.037.55-.015.792-.102.521-.191.543-.507.888-.741.03-.022.037-.022.066-.044l.25-.338c.044-.059.058-.059.11-.132.044-.059.058-.073.095-.125l.161-.205c.022-.037.022-.03.052-.059.19-.198.344-.403.55-.601.059-.059.051-.066.117-.096 0-.154-.007-.249-.124-.293-.25-.095-.507.315-.631.491-.103.147-.257.242-.367.397-.051.08-.037.029-.095.102l-.309.433c-.029.037-.058.059-.095.096-.059.066-.11.131-.176.197-.066.066-.154.118-.205.184-.06.073-.096.147-.17.198-.139.095-.307.183-.527.227-.162.03-.543.015-.675-.051-.323-.154-.176-.183-.294-.462-.139-.323-.124-.286.037-.55.066-.11.095-.11.198-.191.052-.044.052-.051.103-.095.154-.118.792-.8.829-.851.169-.257.19-.213.352-.39.066-.072.117-.131.183-.204.074-.074.103-.118.184-.184.073-.059.11-.154.066-.286-.037-.11-.125-.132-.257-.11l-.587.602c-.103.08-.154.154-.235.264-.117.16-.33.359-.477.52l-.322.345c-.125.14-.176.051-.5.521-.05.073-.058.14-.117.213-.205.264-.674.154-.968.146-.117 0-.235.008-.352-.007-.271-.03-.066-.066-.602-.103l-.154-.234c-.043-.088-.058-.176-.087-.28-.052-.175-.015-.307.066-.454.102-.198.175-.44.278-.63l.47-.661c.124-.125.198-.315.286-.448.088-.139.352-.337.491-.447.162-.125.411-.25.528-.381.206-.235-.014-.477-.234-.338-.03.022-.059.052-.103.088l-.543.367c-.161.11-.337.3-.477.462-.139.154-.168.323-.366.55-.06.066-.103.162-.147.22-.11.154-.198.235-.3.44-.03.066-.052.074-.074.118-.022.051-.015.088-.037.14-.03.073-.08.146-.125.249a4.07 4.07 0 0 1-.117.25c-.176.006-.3.065-.447.058-.14-.008-.287-.052-.44-.074-.294-.044-.5-.234-.69-.352-.176-.11-.264-.234-.404-.374-.044-.044-.073-.095-.117-.147-.161-.19-.3-.366-.381-.66-.052-.19.007-.293.088-.418.066-.095.117-.213.198-.323.08-.102.139-.183.212-.308.162-.271.338-.403.55-.623.037-.037.015-.03.066-.059.118-.073.243-.095.367-.161.052-.03.118-.06.176-.088.088-.037.228-.118.33-.177.22-.124.44-.286.66-.38.47-.214.309-.199.477-.302a1.79 1.79 0 0 0 .44-.345c.177-.175.39-.308.573-.469.14-.117.491-.337.587-.433.102-.102.14-.264 0-.352-.169-.103-.294.037-.374.11-.096.08-.206.132-.309.213-.073.059-.029.051-.139.117a.686.686 0 0 0-.147.118c-.073.066-.05.058-.146.11-.162.088-.272.25-.418.366l-.147.118c-.088.088-.11.088-.147.066Zm-13.41-9.082c-.154 0-.997-.117-1.107-.169-.198-.088-.316-.058-.536-.095-.147-.03-.337-.095-.506-.117-.198-.022-.807-.242-.954-.33-.161-.088-.726-.235-.953-.309-.132-.044-.33-.146-.455-.198l-1.475-.418c-.3-.058-1.452-.792-1.445-1.078 0-.103.066-.154.176-.154.242.007.88.667 1.387.829.322.103.667.205.997.264.287.051.448.147.712.242l.697.257c.183.058.315.08.484.146.08.03.125.074.22.103.088.03.14.066.22.088.08.03.169.044.25.073.073.023.132.06.227.081.176.037.374.074.535.103.154.022.39.044.543.08.096.023.154.052.25.074l.843.095c.375 0 .72-.051 1.086-.014.308.036.646.044.968.066l.888.154c.169.051.227.066.41.102.272.052.558.154.837.206.14.022.323.037.455.073.235.066.668.096.939.103l.939.103c.462.051.99.132 1.452.066.242-.037.536-.037.778-.044.088 0 .227.029.367.029h.499c.374 0 1.107.154 1.687.066.74-.117 1.878-.059 2.48-.161.058-.008.278-.074.337-.103.095-.052.212-.073.286-.147.073-.073.154-.132.227-.205.08-.074.132-.147.213-.22l.36-.294c.05-.03.087-.051.132-.08a2.25 2.25 0 0 0 .256-.206c.08-.08.132-.14.22-.22.272-.235.492-.69.778-.96l.22-.221c.066-.059.044-.015.117-.103.037-.044.059-.073.103-.117.272-.294.587-.807.506-1.218-.059-.308-.146-.279-.264-.609a1.485 1.485 0 0 0-.154-.278c-.051-.081-.11-.22-.198-.242-.007.007-.007.014-.007.014l-.044.213c-.037.227-.103.44-.17.66-.08.264-.395.88-.542 1.13-.132.213-.535.726-.697.939-.08.102-.073.066-.146.132-.22.213-.507.455-.8.594l-.382.154-1.357.294c-.19.022-.389.014-.587.014-.498 0-1.159.088-1.518.088h-.52c-.331 0-.64-.066-.977-.08-.183-.008-.322-.008-.498-.03a18.864 18.864 0 0 0-1.563-.11c-.19 0-.33-.044-.52-.058-.184-.015-.353-.03-.544-.03-.432 0-1.078.052-1.452-.058-.345-.096-.748-.067-1.1-.14l-1.093-.161c-.375-.022-.741-.096-1.108-.14-.096-.014-.19-.029-.279-.044-.132-.022-.14-.029-.242-.066-.169-.058-.902-.154-1.056-.205l-1.013-.227c-.19-.022-.308-.096-.484-.125-.198-.03-.33-.088-.52-.11-.096-.015-.184-.015-.28-.03-.11-.022-.132-.044-.242-.066-.176-.029-.396-.029-.557-.066-.184-.044-.33-.08-.528-.102-.242-.03-.726-.176-.99-.25a3.867 3.867 0 0 1-.455-.176c-.118-.051-.33-.103-.47-.147-.08-.029-.176-.044-.264-.058l-.939-.301c-.088-.037-.132-.059-.235-.066-.345-.037-1.306-.425-1.518-.125-.103.14-.184.235-.213.418-.08.536-.073.382.08.756.089.213.265.345.434.477.22.169.535.315.726.535.11.118.257.17.389.242.05.03.044.03.088.06l.3.16c.147.06.28.147.411.22.382.199.176.089.455.177.198.058.902.564 1.159.704.073.037.14.058.22.102.066.037.147.06.213.096l.814.425c.125.066.323.125.455.176l.623.309c.235.16.815.374 1.042.498.154.088.257.14.418.213.147.066.301.117.448.183.323.14.675.147 1.012.228.162.037.367.059.536.073.234.015.322.066.535.096.183.029.382.014.572.029.22.015.345.073.529.103.359.051.249.08.491.14.198.05.3.094.52.094.808.015 1.63-.007 2.436.045.206.014.352.058.565.05l.631.023c1.034.014 2.069-.088 3.11-.132.257-.008.477-.066.741-.066l1.233.058c.821.074.843.088 1.51-.117.126-.037.316-.088.42-.154.124-.073.241-.132.358-.205.118-.074.199-.17.323-.242.059-.037.132-.081.184-.118.161-.117.381-.47.491-.638.066-.103.022-.08.118-.169.066-.058.102-.066.154-.132l.176-.264c.044-.059.029-.022.08-.073l.074-.081c.073-.073.183-.381.198-.499.066-.572-.052-.477-.147-.704-.11-.264-.125-.169-.286-.03-.051.045-.103.081-.161.125-.088.074-.066.059-.184.118-.117.051-.389.315-.47.403l-.3.286c-.161.132-.382.228-.58.308-.095.037-.124.03-.227.06-.286.072-.77.087-1.1.08-.375 0-.683.066-1.042.073-.543.015-1.1.066-1.65.015-1.27-.125-2.267.08-3.58-.11-.162-.022-.338-.022-.507-.037-.183-.015-.271-.044-.462-.051-.763-.037-.836-.103-1.43-.184l-1.299-.315c-.146-.051-.293-.051-.462-.08-.154-.023-.25-.067-.447-.082-.712-.058-1.357-.029-2.062-.029Zm10.747-10.24a.56.56 0 0 0-.271-.015c-.08.014-.11.051-.14.124-.154.36.323.558.485.287.058-.118.05-.338-.074-.397Zm-12.133-.58c-.308-.125-.719.337-.316.58.39.227.66-.433.316-.58Zm13.88-.345c-.243-.088-.58.374-.375.851.125.286.36.257.55.257.22 0 .279-.08.374-.19.11-.118.088-.272.088-.47 0-.11 0-.177-.051-.235-.198-.257-.425-.147-.587-.213Zm-11.672-.323c-.14-.058-.425.059-.536.11-.748.345-.381 1.181.044 1.181.287 0 .39.022.624-.088.36-.168.491-.74.323-.96-.169-.22-.286-.177-.455-.243Zm9.727-.19c-.154-.044-.286.124-.323.249-.058.198.06.367.206.396.345.074.601-.513.117-.645Zm-1.959 2.354c.118.03.367.132.47.118.007-.147-.103-.426-.11-.653-.007-.286.051-.418.08-.668.045-.396.11-.381.177-.572.03-.103.036-.183.088-.286.036-.073.11-.161.095-.22-.066.015-.528.52-.594.587-.14.14-.675.865-.704 1.1-.066.492-.162.433.498.594Zm-10.24-2.714c-.11-.044-.191-.014-.279.052-.088.066-.103.088-.147.198-.066.176.096.381.228.396.271.036.44-.147.462-.242.051-.228-.096-.338-.264-.404Zm15.119 2.964c.124.014.829-.11.946-.147.25-.08.521-.22.719-.36.389-.278.52-.49.807-.821.066-.08.22-.169.257-.264.124-.323-.308-.381-.58-.484-.19-.074-.902-.411-1.078-.528-.11-.066-.206-.14-.338-.206-.117-.058-.667-.308-.806-.22.029.073.007.022.058.08l.352.566c.213.542.301 1.21.037 1.746-.059.117-.103.242-.169.352-.066.095-.19.198-.205.286Zm-16.447-2.957c.19-.256.227-.176.257-.3-.037-.022-.008-.015-.059-.022h-.022l-1.504.146c-.22.008-1.364.155-1.474.242.014.081.03.052.124.081l.44.176c.22.096.404.125.617.213.22.088.381.154.58.25.307.139.344.308.44.337h.036c.037-.059.037-.154.059-.228.095-.352.3-.616.506-.895Zm5.355 3.22c.602.052 1.54.038 2.061-.153.191-.066.375-.176.536-.22.198-.059.345-.162.58-.184.08-.007.484.103.278-.403l-.645-1.621c-.096-.264-.448-.646-.668-.83-.293-.241-.227-.22-.52-.227-.133-.007-.22-.029-.367-.029s-.228.022-.345.022c-.5 0-.932.073-1.43.073.08.272.586.147.49 1.812a2.84 2.84 0 0 1-.571 1.556c-.06.08-.03-.008-.052.102l.653.103Zm8.106-3.946c.007-.08.044-.059.117-.103.067-.036.089-.066.155-.11.066-.043.11-.065.161-.102.323-.198.455-.345.895-.382.69-.058 1.21-.14 1.9-.051.352.044.939.073 1.284.235.366.176.271.176.403.36.044.065.066.08.103.153l.535.77c.044.06.066.066.125.14.169.213.183.125.235.264.044.132.095.425-.132.22-.11-.103-.462-.19-.704-.315-.235-.125-.463-.198-.697-.33-.118-.067-.272-.184-.47-.294a2.367 2.367 0 0 0-1.005-.279c-.154-.007-.286-.044-.455-.044-.168 0-.33-.014-.484-.03-.242-.021-1.922-.072-1.966-.102Zm-7.248-.161c-.088.073-.132.014-.256.022-.096.007-.198.036-.308.036l-1.328.081-3.411-.059c-.396 0-.763.081-1.13.089-.36.007-.8.058-1.13.11-.484.073-1.152.102-1.584.264-.081.029-.147.051-.213.088-.066.036-.125.102-.235.095l-.433-.183c-.154-.088-.08-.132.096-.352.102-.133.11-.191.33-.426l.235-.242c.095-.11.403-.286.535-.374.117-.073.976-.36 1.152-.41.44-.14 1.049-.236 1.54-.287.096-.007.206-.007.287-.022l1.1-.125c.474-.014.96.003 1.46.052.418.036.983.308 1.35.498l.924.617c.095.058.088.08.198.132l.198.11c.059.03.147.058.213.095.08.022.374.132.41.19Zm3.507 20.606c.161 0 .11-.051.19-.161.125-.162.5-.33.698-.44.146-.081.322-.213.44-.316.066-.059.132-.103.205-.161l.396-.367c.184-.213.382-.33.58-.55.132-.147.264-.213.41-.345.184-.169.463-.316.675-.455.096-.066.125-.11.198-.169.133-.11.353-.154.529-.234.19-.088.308-.176.506-.257.381-.154.924-.19 1.313-.088.132.036.36.213.47.293l.608.521c.28.264.235.161.47-.08l.117-.118.11-.147c.132-.154.345-.388.433-.586.088-.22.235-.477.271-.727.037-.242.052-.733-.036-.924-.103.007-.11.03-.169.088-.059.051-.103.073-.161.125-.103.08-.213.161-.323.22-.066.036-.088.058-.161.103a2.79 2.79 0 0 1-.595.234c-.572.132-.14.132-.939.154-.645.015-1.46-.117-2.083-.066-.33.022-.675.066-1.02.074-.704.014-1.364.102-2.083.102-.352 0-.726.015-1.078-.007-.191-.015-.323 0-.507-.037a3.626 3.626 0 0 0-.498-.036c-.345-.008-.697-.037-1.064-.037-.418 0-1.203.059-1.577-.066l-.404-.14c-.47-.168-1.122-.11-1.445-.205l-1.423-.227c-.514-.088-.924-.316-1.38-.514-.065-.03-.11-.073-.175-.102-.264-.125-.477-.191-.748-.338a7.484 7.484 0 0 0-1.123-.528.984.984 0 0 1-.176-.088c-.183-.095-.293-.103-.558-.264-.139-.088-.205-.11-.366-.176-.301-.132-.448-.235-.69-.396-.102-.067-.227-.14-.337-.206-.602-.36-.418-.176-.756-.352l-.36-.183c-.08-.037-.08-.066-.16-.096-.191-.08-.727-.366-.866-.506-.257-.264-.895-.58-1.137-.91-.022-.029-.03-.05-.059-.088-.169-.22-.3-.535-.257-.828.015-.088.052-.419.074-.492.066-.198.278-.55.462-.623.22-.089.183-.089.447-.089.345-.007.624.074.954.147.14.03.271.088.433.11.183.022 1.438.426 1.68.492.315.088.447.183.821.286.286.073.572.154.866.22l.939.147c.161.014.278.073.455.095.183.022.286.051.454.088.147.03.316.051.455.088.572.169 1.629.367 2.245.491.14.03.286.067.447.096.17.03.33.03.485.058.154.03.308.045.476.067.147.022.39.007.521.044.602.154 1.299.161 1.915.278.66.125 1.43 0 2.105.088l.983.103c.257.015.837-.007 1.05.051.403.103 1.628.14 2.06.096l1.028-.059c.176-.015.36 0 .535-.007.088 0 .176-.008.264-.015l.675-.14c.396-.139.506.023 1.225-.432.162-.103.308-.235.44-.36.154-.139.242-.286.367-.454.147-.206.33-.419.455-.631.044-.074.037-.118.08-.176.074-.096.045-.052.096-.184l.33-.777c.176-.58.176-1.299-.161-1.798-.052-.08-.037-.102-.08-.176-.074-.11-.148-.117-.243-.3-.066-.118-.404-.426-.528-.587-.044-.059-.066-.103-.169-.103-.11.154-.059.147-.242.345-.044.051-.044.058-.088.11a1.733 1.733 0 0 1-.44.345c-.279.124-1.042.19-1.401.139-.28-.044-.25-.381-.008-.418.081-.015.286.007.382.007.337 0 .865-.044 1.085-.293.052-.059.103-.147.177-.213.05-.044.073-.037.073-.125-.103-.014-.3.037-.425.044-.177.008-.287-.022-.455-.022-.17 0-.301 0-.462-.014-.103-.008-.118.014-.184-.066-.117-.147-.037-.36.294-.338.806.037 1.261.103 1.877-.484.089-.088.155-.154.228-.25l.154-.22c.08-.095.198-.234.25-.351.11-.235.249-.455.27-.712.008-.103.089-.323.038-.41-.008-.008-.023-.082-.103.036-.037.051-.044.088-.088.132-.066.073-.132.125-.198.212-.154.22-.338.353-.507.514-.212.198-.667.448-.931.528a4.098 4.098 0 0 1-.69.14c-.25.029-.491.073-.719.11-.168.022-1.437.007-1.628-.008-.257-.022-.477-.058-.756-.058-.697 0-1.65-.022-2.26-.242-.263-.096-.71-.096-.865-.382-.051-.095-.11-.19-.103-.323.037-.726.25-.829.47-1.217.073-.125.176-.22.257-.353.051-.08.036-.044.102-.117l.088-.11c.243-.264.485-.418.697-.763.103-.176.235-.33.375-.47.073-.073.132-.153.198-.212.264-.213.975-.69 1.232-.83.264-.146.337-.183.638-.212l.734-.088c.528-.022 1.056-.037 1.577.03l.74.102c.199.059.441.132.61.22.117.066.169.096.234.176.044.052.06.059.096.103.11.14.433.587.506.734.059.124.022.044.095.124.081.096.066.22.206.228.044-.14.044-.844-.008-1.035-.117-.447.044-.447-.403-.697-.52-.293-.822-.381-1.438-.396-.124 0-.205-.036-.308-.051-.645-.088-2.318-.125-2.81-.022-.601.125-1.07.3-1.577.638l-.425.308c-.044.037-.059.03-.103.074-.095.088-.205.161-.293.271-.081.11-.257.33-.396.345-.235.022-.294-.22-.147-.382.125-.132.235-.256.36-.381.124-.125.256-.205.395-.338.118-.117.301-.197.44-.3a5.09 5.09 0 0 1 .712-.374c.8-.294.668-.206 1.519-.323.36-.051 1.034-.015 1.415 0 .118.007.176.037.323.037l.72.044c.146.022.087.036.307.044.492.007.763.095 1.225.264.184.066.543.293.66.44.074.088.081.154.213.146-.014-.249-.733-.645-.88-.755-.33-.25-.668-.484-1.086-.587-.146-.037-1.276-.147-1.526-.147-.535 0-2.09.081-2.508.272-.088.044-.11.044-.206.08-.161.06-.462.301-.63.213-.067-.073-.118-.14-.067-.264.059-.147.096-.103.198-.176.147-.103.44-.22.624-.286.22-.08.917-.154 1.137-.176.667-.059 1.372-.125 2.061-.059.14.015.55.08.66.074.06-.125-.044-.206-.102-.301-.103-.176-.242-.308-.36-.47-.08-.11-.154-.22-.271-.337-.176-.169-.286-.316-.492-.47-.05-.036-.088-.058-.139-.095-.066-.051-.044-.051-.14-.103-.124-.066-.168-.14-.27-.205l-.705-.492c-.147-.088-.337-.146-.47-.249-.337-.25-.726-.403-1.107-.565-.08-.03-.073-.051-.162-.08-.124-.045-.256-.045-.388-.089-1.013-.315-1.776-.44-2.898-.44-.25 0-.623.044-.866.088-.403.066-.821.088-1.21.22-.3.103-.367.154-.726.235-.169.037-.147.073-.382.095 0 .067.081.133.125.177.308.322.514.52.77.902.03.051.037.037.066.08.03.037.037.074.059.11l.381.617c.052.095.177.271.25.425.088.198.154.25.257.418.124.206.212.477.315.683.059.117.095.425.08.557-.021.198-.183.33-.014.484.117.11.205.242.316.36.242.271.425.396.616.733.058.11.19.668.205.815.022.176.037.454.044.63 0 .154.03.529-.022.639-.08.183-.345.124-.389-.081-.058-.242.015-.946-.058-1.284-.184-.785-.301-.704-.763-1.232l-.308-.36c-.118-.11-.308-.227-.426-.374-.242-.293-.682-.704-1.042-.829-.286-.095-.924-.132-1.225-.11-.212.015-.432.03-.652.022-.147-.007-.514-.095-.587.037.036.08.366.176.462.213.169.058.323.132.499.198a2.2 2.2 0 0 1 .652.367c.096.08.11.066.199.146.227.22.491.448.682.682.073.088.08.11.169.184.073.059.117.11.183.161.125.096.271.198.389.301.256.228.44.44.69.675l.33.337c.183.154.359.316.498.521.052.074.103.125.147.206l.117.227c.125.323.198.345.242.792.022.184.103.492-.051.595a.274.274 0 0 1-.227 0c-.066-.045-.037-.008-.066-.118a.68.68 0 0 1-.022-.176c-.008-.205-.081-.403-.118-.616-.014-.096-.073-.169-.117-.25a3.948 3.948 0 0 0-.272-.469c-.124-.169-.396-.404-.564-.565l-.191-.183c-.272-.242-.44-.514-.756-.72-.477-.315-.755-.689-1.151-1.085a3.388 3.388 0 0 0-1.409-.829l-.528-.205c-.323-.11-1.115-.448-1.423-.426-.61.044-1.233-.044-1.834.022-.206.022-.448.074-.675.074h-.741c-.33 0-1.144-.11-1.423-.03-.08.022-.19.059-.279.088-.11.03-.227.037-.323.066-.389.132-.74.22-1.063.411-.162.095-.272.228-.39.345-.131.125-.249.227-.38.374-.162.176-.397.367-.543.565-.176.227-.419.396-.514.616-.066.154-.088.492 0 .616.492.037.594-.227.829-.535.499-.66.183-.272.646-.748.146-.155.432-.316.616-.433l.755-.294c.176-.044.39-.102.558-.161.286-.103.279-.073.565-.132.19-.037.367-.073.587-.103.205-.03.454-.03.638-.066a7.85 7.85 0 0 1 .601-.088l.639-.044c.22 0 .432-.022.674-.022l.61.059c.241.03.388.037.608.117.088.03.19.044.279.066.088.03.154.074.235.118.198.102.418.154.586.286.052.036.03.029.103.073.242.132.814.565.94.624.043.029.073.029.117.058.198.132.484.235.711.33.103.044.14.081.228.118.315.117.66.286.924.484l.19.154c.045.037.162.117.191.154.118.132.242.22.345.352l.264.448c.074.168.125.33.206.498l.146.375c.14.278.206.601.36.858.066.11.022.213.066.3.022.045.242.118.3.162a.97.97 0 0 1 .235.22c.044.059.059.051.081.14.051.175.08.447.022.608-.11.301-.506.521-.704.668-.374.286-.675.3-.99.594l-.338.36c-.154.183-.293.286-.455.462-.08.08-.132.168-.205.25a3.43 3.43 0 0 1-.58.55c-.058.043-.095.058-.14.095-.241.212-.498.44-.806.565l-.646.27c-.124.038-.198.038-.366.096-.125.044-.213.088-.33.125-.133.044-.243.051-.36.103-.455.19-.836.366-1.306.52-.279.096-.535.052-.85.067-.118-.191-.096-.206 0-.404.153 0 .38-.007.527-.022a1.7 1.7 0 0 0 .507-.161c.022-.008.08-.03.095-.037l.381-.154c.103-.037.11-.051.198-.088.06-.03.133-.037.199-.066.102-.044.058-.059.19-.088.176-.037.272-.059.426-.125.146-.059.25-.095.41-.132.191-.044.25-.095.419-.147.227-.073.374-.19.543-.256.139-.059.198-.147.315-.228.103-.073.19-.183.293-.25.14-.08.353-.241.455-.366.118-.14.059-.11.242-.3l.264-.28c.081-.08.242-.212.257-.293-.03-.015-.572-.03-.719-.059-.256-.05-.55-.029-.814-.029-.279 0-.55-.022-.8-.022-.132 0-.256-.007-.388-.03-.147-.014-.235-.05-.36-.073-.257-.044-.506-.044-.77-.058a21.105 21.105 0 0 1-1.555-.14l-.741-.11c-.14-.014-.235 0-.374-.044-.103-.03-.22-.066-.33-.088-.22-.051-.397-.169-.624-.22-.279-.066-.462-.22-.682-.36a1.537 1.537 0 0 1-.36-.293c-.293-.3-.565-.535-.873-.8-.154-.131-.271-.285-.454-.388-.088-.052-.184-.088-.243-.176-.058-.088-.014-.228.096-.286.22-.118.535.25.66.337.169.132.858.748.961.866.059.066.066.073.125.132.117.124.14.132.293.227.594.374.61.272 1.057.484.432.206.873.154 1.327.235.61.117 1.262.169 1.871.19.169.008.308.03.477.038.367.014.572.117.939.124.337.008.667.022 1.005 0 .315-.014.667.052.96.081.155.015.346.015.5 0 .139-.015.293-.088.403-.125.125-.051.242-.102.36-.161.396-.19.623-.345.938-.631.067-.066.067-.037.081-.169.037-.3-.25-.47-.315-.455-.074.045-.059.074-.162.133-.22.131-.476.043-.697.146l-1.02.389c-.139.08-.55.095-.726.117a4.758 4.758 0 0 1-1.07 0l-.77-.073c-.096-.015-.11-.03-.236-.044-.308-.03-.652-.117-.96-.176-.213-.037-.272-.037-.463-.103-.066-.022-.168-.03-.227-.059l-.19-.088a9.982 9.982 0 0 0-1.314-.38c-.154-.03-.286-.096-.425-.148-.11-.036-.11-.058-.191-.095l-.998-.418-.286-.279c-.103-.095-.205-.161-.308-.257-.117-.11-.147-.168-.293-.271-.477-.345-1.013-.433-1.6-.66-.22-.081-.542-.25-.762-.367-.118-.059-.294-.11-.404-.162-.19-.08-.227-.139-.36-.22-.293.089-.762.25-.975-.05-.25-.346-.213-.595-.088-.999.073-.242.25-.388.433-.55.051-.044.095-.124.14-.183l.637-.668c.184-.205.477-.462.675-.63.308-.265.528-.287.895-.411.499-.177.25-.103.756-.22.124-.03.146-.044.242-.081.146-.052 1.085-.022 1.276 0 .411.051.851.007 1.255-.015.403-.014.85-.073 1.24-.066.308.008.638.044.953.008.088-.008.19-.037.264-.044.308-.03.91.029 1.24.05.403.03.873 0 1.284-.021.315-.015.146-.08.572 0 .154.03.433.03.601.044.411.044.675.19.917.389l.345.308c.073.08.227.293.338.3.124-.212-.103-.616-.198-.814l-.191-.352c-.074-.11-.169-.213-.213-.352-.059-.213-.161-.227-.293-.55l-.316-.462c-.161-.235-.264-.433-.47-.639-.095-.095-.19-.19-.285-.278-.22-.206-.602-.653-.837-.815l-.667-.462a5.18 5.18 0 0 0-.712-.396c-.235-.103-.132-.095-.447-.117-.162-.008-.367-.008-.521-.03-.162-.022-.088-.058-.198-.073-.793-.095-1.577-.103-2.37-.161-.337-.03-.726.036-1.063.051-.176.007-.323.051-.5.066-.395.022-.755.14-1.136.242l-.426.14c-.19.058-.396.183-.55.293-.103.073-.22.154-.315.227-.118.096-.147.17-.308.257-.17.095-.39.352-.595.514-.102.08-.212.154-.322.22-.132.088-.36.095-.39-.081-.043-.242.324-.36.58-.558.184-.146.28-.315.426-.403.066-.037.103-.073.168-.117.191-.132.33-.309.624-.485.162-.102.14-.102.345-.198.711-.33 1.496-.41 2.267-.535l1.056-.059c.396.008 2.237.103 2.59.198.212.059.535.08.762.088.213.008.06-.271.008-.594-.037-.227-.22-.55-.338-.77-.124-.235-.264-.521-.418-.72l-.242-.3c-.183-.19-.697-.587-.932-.74a4.034 4.034 0 0 0-1.635-.602c-.323-.052-.69-.044-1.013-.103-.667-.11-1.445-.088-2.12-.037-.616.052-.873.037-1.474.191-.235.059-.213.059-.39.176-.22.14-.447.213-.71.396-.404.272-.412.096-.976.697-.096.103-.184.162-.272.294-.066.102-.132.242-.213.33-.139.154-.623.829-.69 1.005-.05.14-.116.227-.182.36-.066.139-.14.241-.199.366-.176.374-.462.645-.74.932l-.521.586c-.132.14-.132.184-.235.33-.066.096-.147.243-.227.316-.272.22-.03-.051-.272.286-.088.125-.176.19-.271.293l-.14.14c-.051.044-.11.08-.146.132-.103.132-.044.132-.228.315-.088.088-.176.191-.235.33-.066.147-.132.184-.22.316-.088.14-.117.257-.205.36-.08.102-.154.197-.22.322-.095.198-.33.484-.455.682l-.293.536c-.044.11-.059.095-.11.176-.074.132-.11.257-.184.381-.036.06-.066.103-.095.162-.051.095-.051.08-.11.168-.132.199-.264.521-.36.749-.073.176-.315.535-.418.711-.058.11-.176.235-.22.345-.044.088-.007.095-.073.183l-.279.565c-.103.28-.286.47-.367.763-.036.147-.117.213-.198.352a1.97 1.97 0 0 0-.183.375c-.066.198-.213.359-.308.542-.096.191-.162.382-.272.55l-.367.742c-.058.117-.146.249-.176.388-.036.206-.11.198-.168.374-.132.39-.184.375-.264.587l-.25.602c-.014.051-.058.146-.073.183-.022.08-.007.147-.051.235-.081.19-.089.205-.133.433-.044.22-.117.433-.22.609-.044.073-.161.528-.183.638-.03.132-.11.264-.132.433-.022.168-.037.11-.066.212-.015.06-.03.176-.037.242-.014.081-.014.17-.03.257-.014.103-.05.14-.065.213-.022.088 0 .14-.022.242-.08.396-.022.286-.059.506-.014.096-.036.14-.058.228-.037.154.007.352-.045.506-.132.41-.088.623-.117.704-.037.125-.059.015-.059.22 0 .176-.058.293-.066.499 0 .433-.029.235-.073.499l-.147.675c-.022.168-.022.36-.058.506-.022.095 0 .169-.022.264-.088.337-.015.712-.088 1.042-.037.168-.008.344-.052.491-.11.367 0 .785-.066 1.064-.03.11-.058.044-.058.22 0 .117 0 .154-.03.257-.058.212-.007.308-.036.506-.015.095-.044.132-.06.227-.014.096 0 .169-.021.264-.11.44-.037.11-.059.44-.015.28-.176.653-.03.961l.096.756c0 .161.03.11.059.227.03.081.007.17.022.257.037.22.103.44.183.646.037.088.096.41.118.447.044.08.051.052.088.169.029.103.036.125.08.198.103.183.162.41.22.609l.294.557c.073.11.169.228.25.316.102.102.146.22.234.33.095.125.169.176.257.286.095.117.168.169.279.286.33.345.293.25.63.477l.69.418c.132.066.213.161.36.205.27.074.506.228.762.353l.206.073c.212.066.323.235.748.381.073.03.147.03.22.06.264.116.514.197.807.3.147.051.293.059.447.117.11.044.294.037.463.103.183.073.645.257.843.271.088.008.176-.007.264 0 .096.008.118.044.22.059.118.015.14-.007.242.044.118.059.081.03.235.037.11.007.118.029.213.051.095.022.176 0 .264.015.11.014.103.051.22.066.088.007.19-.008.279 0 .095.007.117.044.227.058.088.015.184.008.272.008.227 0 .293.066.484.08.257.023.535-.014.792.044.345.074.969-.088 1.32.074.037.014 2.487.08 2.73-.008.234-.08.755-.095 1.005-.102.205-.008.242-.088.476-.088.25 0 .55.036.785-.037.213-.066 3.287-.022 3.631-.03.177 0 .147-.065.455-.073.5 0 1.79.06 2.172-.08.124-.044.323-.074.454-.11.11-.03.33-.088.397-.14.051-.044.322-.117.418-.154.278-.11.168-.11.396-.146.11-.015.117-.044.19-.088.067-.037.133-.03.213-.074.396-.19.242-.051.587-.535l.22-.323c.242-.323.367-.25.301-.734-.073-.52.125-.99-.037-1.54-.036-.125-.352-.558-.447-.682-.088-.11-.11-.22-.198-.353-.272-.432-.418-.498-.792-.88-.096-.095-.177-.161-.265-.279-.066-.095-.139-.25-.205-.36-.147-.248-.279-.52-.213-.88.074-.388.066-.447.374-.74.426-.411 1.05-.653 1.651-.455.117.037.308.11.381.183.147.176.147.154.228.323ZM30.48 9.022c-.096-.022-.015-.022-.11-.08-.067-.038-.081-.016-.147-.052l-.257-.132c-.117-.066-.176-.066-.279-.118-.205-.102-.007-.036-.286-.102-.396-.088-.36-.11-.609-.17-.74-.182-1.18-.322-2.024-.33-.264-.007-.5-.029-.763-.029-.118 0-.228.03-.345.037-.132.007-.264.007-.389.022-.205.03-.44.088-.675.103l-.653.14c-.073.021-.183.073-.286.102-.073.022-.08.037-.132.066-.058.03-.095.022-.161.037-.206.036-.8.293-.954.139-.462-.462-1.078-.792-1.65-1.122 0-.235-.088-.888-.177-1.05a2.764 2.764 0 0 1-.183-.418c-.073-.19-.19-.286-.205-.425.066-.08.616-.418.638-.44.08-.08.022-.066.14-.118.447-.212.49-.41.755-.616.044-.036.11-.073.147-.117.044-.051.095-.103.139-.14.088-.065.646-.3.763-.315.183-.022.088-.03.213-.051.088-.015.168-.022.256-.022l1.086.007c.352.037 1.372.051 1.511.11.301.125.793.389.925.44.161.066.073.03.168.11l.374.169c.162.066.514.293.653.433.338.33.228.19.5.587l.513.704c.066.051.007-.037.058.066.14.264.367.58.521.85.073.133.147.206.206.338.044.11.124.25.19.352.052.088.074.06.22.323.096.169.074.08.198.345.037.088.037.132.088.198.06.073.103.059.023.169Zm-7.256-5.553c-.33 0-.69.095-.968.227-.183.088-.345.161-.499.279-.433.315-.337.308-.609.565-.139.132-.322.212-.47.337-.087.073-.63.455-.71.455-.103 0-.147-.117-.199-.19-.117-.184-.389-.492-.58-.617a1.738 1.738 0 0 1-.22-.169c-.513-.41-.887-.63-1.496-.85a2.239 2.239 0 0 0-.499-.11c-.036-.008-.124-.023-.161-.03-.58-.103-1.188-.11-1.783-.176-.286-.03-.836-.037-1.115.007-.234.037-.498.015-.748.037-.117.007-.22.044-.345.044-.594.007-1.02.147-1.51.44l-.757.418c-.095.044-.175.08-.256.14-.162.11-.272.212-.404.352-.63.63-.33.366-.711.85a8.903 8.903 0 0 0-.837 1.3c-.11.212-.183.454-.352.623-.14.132-.242.271-.352.425-.117.154-.25.235-.367.396-.161.22-.418.404-.535.638-.08.162-.264.448-.404.573-.168.146-.308.33-.476.498l-.198.199c-.132.131-.22.286-.36.425-.103.095-.235.337-.323.462-.051.08-.102.154-.154.235-.051.088-.08.169-.14.25l-.615.924c-.052.08-.11.146-.162.234-.264.485-.36.741-.675 1.255-.249.41-.425.865-.674 1.284l-.69 1.247c-.044.088-.059.183-.117.271-.103.169-.176.338-.264.514l-.536 1.034a2.217 2.217 0 0 1-.147.25c-.11.168-.168.337-.264.52a7.646 7.646 0 0 1-.14.25c-.27.55-.373.733-.615 1.313l-.11.286c-.081.19-.199.322-.257.528-.052.183-.154.352-.22.543-.022.059-.037.095-.052.14-.022.058-.022.095-.036.16l-.272.903c-.036.11-.08.154-.117.271-.125.448-.294.917-.367 1.365-.007.051-.03.102-.044.154-.03.11-.007.227-.044.345-.015.044-.037.08-.051.146l-.052.338c-.007.176 0 .389-.044.543a2.77 2.77 0 0 0-.044.344c-.014.22-.095.418-.124.631-.022.184.007.184-.044.345-.037.117-.008.227-.044.345-.052.146-.044.154-.044.352 0 .33-.235 1.078-.242 1.298-.008.264-.022.17-.037.352-.022.17-.007.191-.052.345-.058.213-.014.455-.029.668l-.051.337c-.022.118-.008.286-.022.374-.066.39-.052.28-.052.712 0 .103-.007.271-.029.36-.059.227-.037.08-.059.337-.007.117-.058.198-.066.323-.007.227.015.322-.044.543-.036.139-.044.344-.088.498-.036.125-.014.228-.022.367.008.14-.029.19-.029.337l.073 1.057c.03.103.052.198.059.308.007.169.037.169.059.286.08.374.058.477.198.888.103.3.14.484.279.785.073.161.154.33.205.506.03.102.044.176.095.271.044.088.081.132.125.228.25.498.242.374.499.733.125.169.235.352.389.506.242.242.462.462.719.697.073.066.154.074.249.125.088.051.132.088.205.14.213.146.463.263.675.41.279.184.462.19.72.33.153.088.307.184.476.242.117.044.161.037.264.11.14.103.294.191.462.257.088.037.176.051.264.08l.514.199c.286.095.557.14.829.257.117.044.183.029.293.051.382.088.704.315 1.1.308.25 0 1.057.205 1.218.22.066.008.125-.007.191.008.037.007.088.029.132.036.117.03.19.008.323.022.103.008.169.059.286.066l.33.022c.279.022.147.03.308.059.22.044.484-.022.704.015.125.022.162.058.287.058.234.008.484 0 .718 0 .455 0 .477.066.631.066h2.524c.14 0 .19-.066.389-.066.154 0 .249-.036.396-.058.146-.022.308.007.447-.008.074-.007.103-.036.162-.051.322-.08.748.03 1.041-.073.206-.074.617-.03.866-.03h2.67c.213 0 .235-.051.389-.066.337-.022 1.35 0 1.782 0 .184 0 .91-.176 1.086-.235.118-.036.257-.044.36-.095.264-.154.836-.308.946-.381.073-.044.08-.044.169-.074.051-.022.088-.044.146-.066.697-.352.859-1.027 1.035-1.07.044-.008.059-.008.103-.008.014.066.036.095.058.154.132.337.198.638.528.836.088.052.184.096.264.147.103.066.118.11.235.161l.492.286c.058.037.066.052.124.088.198.125.396.25.58.404.08.066.147.103.227.161.235.154.734.514.969.616l.564.243c.294.117.345.095.631.146.33.059.36.096.712.096.14 0 .205.036.345.044.36.029.74.088 1.107.088s.807-.044 1.16.036c.227.052.513.022.755.03.14.007.198.044.345.044h.888l.968-.096c.293-.051.543-.139.821-.22.147-.044.28-.073.426-.095.183-.03.242-.08.41-.117.272-.06.536-.162.77-.272l.36-.161c.242-.096.433-.257.668-.374.33-.17.257-.154.477-.308.058-.037.11-.06.169-.096A1.38 1.38 0 0 0 41 42.98c0-.103-.213-.711-.271-.822-.184-.366-.294-.762-.477-1.13-.118-.241-.257-.432-.396-.667-.074-.117-.14-.19-.22-.3-.33-.455-.36-.896-.749-1.402-.08-.102-.14-.205-.227-.315l-.506-.558c-.272-.264-.675-.975-1.196-1.474l-.557-.506c-.052-.044-.118-.074-.17-.118l-.425-.33c-.22-.154-.425-.286-.638-.425-.213-.147-.47-.242-.69-.374-.3-.184-.586-.25-.8-.543-.043-.066-.072-.088-.116-.14-.367-.44-.044-.476.256-.858.352-.447.5-.572.727-1.122l.117-.338c.066-.264.11-.887.015-1.151-.022-.06-.103-.242-.103-.308 0-.133.367-.58.484-.69.132-.125.213-.286.33-.433.3-.374.338-.63.338-1.115 0-.176-.154-.52-.257-.653-.154-.198-.272-.095.279-.821l.374-.404c.14-.125.286-.235.389-.396.3-.455.476-.63.476-1.262 0-.198-.396-.975-.491-1.137-.074-.125-.19-.242-.286-.345-.103-.117-.242-.161-.294-.315-.029-.095-.051-.205-.088-.308a2.728 2.728 0 0 0-.447-.792c-.059-.081-.103-.154-.169-.228-.11-.117-.264-.345-.381-.44-.55-.455-.419-.44-.118-.74.103-.104.169-.162.257-.287.528-.719.271-.315.63-1.02a1.2 1.2 0 0 0 .126-.418c.058-.477.146-.726.066-1.232-.015-.088 0-.162-.008-.25-.014-.161-.066-.293-.066-.476 0-.308.066-.529.066-.83 0-.073-.022-.784 0-.806.132-.066.213.022.323-.11a.6.6 0 0 0 .088-.323c0-.345-.381-.704-.602-.873l-1.085-.712c-.147-.073-.367-.132-.433-.278-.154-.309-.3-.617-.536-.873-.058-.066-.095-.125-.146-.198-.11-.155-.543-.61-.69-.749-.169-.161-1.041-.763-1.247-.902-.073-.051-.147-.103-.22-.147-.059-.036-.198-.08-.235-.117-.073-.066-.044-.198-.066-.3-.124-.529-.44-.954-.711-1.417-.044-.08-.08-.139-.125-.22l-.543-.887c-.117-.235-.293-.433-.447-.639-.052-.073-.088-.132-.14-.205a5.005 5.005 0 0 0-.63-.785 3.197 3.197 0 0 0-.83-.601l-1.46-.727c-.322-.139-.916-.124-1.312-.124-.22 0-.404-.044-.653-.044h-.859ZM12.288 23.004c.183.11.183.367.007.41-.073.015-.257-.007-.345-.014-.117 0-.227.022-.345.022-.447.007-.8.095-1.21.176a1.979 1.979 0 0 0-1.232.85c-.074.126-.184.36-.39.287-.41-.147.287-.873.47-1.012.066-.052.132-.11.191-.154.323-.257.866-.396 1.284-.462.103-.015.147-.044.286-.06.161-.021 1.188-.102 1.284-.043Zm17.474-2.37c.315 0 .667.015.96-.058.14-.037.404-.154.455.066.03.132-.007.198-.088.242a.804.804 0 0 1-.227.102c-.616.118-1.027.066-1.658.03.007.03.22.198.323.33l.308.389c.213.279.623.609.946 1.115.052.08.044.073.081.161.264.543-.14.499-.242.41-.088-.072-.228-.402-.352-.564-.037-.051-.059-.059-.103-.11-.147-.183-.007-.059-.205-.25l-.345-.352c-.374-.403-.389-.594-.895-.946-.235-.161-.095-.088-.279-.176-.073-.037-.286-.22-.565-.352-.22-.11-.418-.154-.616-.315-.242-.199-.022-.492.308-.309.162.088 1.196.426 1.372.47.066.015.132.015.19.03.228.036.36.087.632.087Z" clip-rule="evenodd"/></g><defs><clipPath id="a"><rect width="42" height="42" fill="#fff" rx="21"/></clipPath></defs></svg>