<svg xmlns="http://www.w3.org/2000/svg" width="36" height="36" fill="none"><g clip-path="url(#a)"><mask id="b" width="36" height="36" x="0" y="0" maskUnits="userSpaceOnUse" style="mask-type:alpha"><circle cx="18" cy="18" r="18" fill="#D9D9D9"/></mask><g mask="url(#b)"><path fill="#0038A8" d="M71.999 0H0v18h71.999V0Z"/><path fill="#CE1126" d="M71.999 18H0v18h71.999V18Z"/><path fill="#F3F3F3" d="M.04 35.998-.001 0l31.139 17.963L.04 35.998Z"/><path fill="#FCD116" d="m26.198 19.955-.87-1.141-1.36.45.815-1.179-.848-1.155 1.374.412.837-1.164.032 1.433 1.366.436-1.353.474.007 1.434ZM4.106 32.68l-1.261-.684-1.057.97.26-1.41-1.247-.706 1.421-.188.286-1.405.618 1.293 1.424-.162-1.04.987.596 1.305ZM4.608 5.599 3.18 5.462l-.594 1.304-.312-1.4-1.423-.162 1.235-.728L1.8 3.071l1.074.95 1.248-.706L3.55 4.63l1.058.969ZM14.847 18.084a3.6 3.6 0 1 1-7.201 0 3.6 3.6 0 0 1 7.2 0Z"/><path fill="#FCD116" fill-rule="evenodd" d="m11.26 18.047-.461-7.033.461-.461.493.445-.493 7.049ZM11.262 18.067l.875-6.635h.016l.35.382-1.241 6.253Z" clip-rule="evenodd"/><path fill="#FCD116" fill-rule="evenodd" d="m11.262 18.05 3.532-5.282h.525l-4.057 5.282ZM11.262 18.064l4.661-5.314h.668v.636l-5.33 4.678Z" clip-rule="evenodd"/><path fill="#FCD116" fill-rule="evenodd" d="m11.268 18.05 5.328-4.14h.018l-.018.576-5.328 3.564ZM11.268 18.064l6.246-1.242h.018l.378.36-6.642.882Z" clip-rule="evenodd"/><path fill="#FCD116" fill-rule="evenodd" d="m11.268 18.064 7.056-.468h.018l.486.45-.486.486-7.074-.468Z" clip-rule="evenodd"/><path fill="#FCD116" fill-rule="evenodd" d="m11.268 18.047 6.696.882-.018.018-.342.36-6.336-1.26Z" clip-rule="evenodd"/><path fill="#FCD116" fill-rule="evenodd" d="m11.268 18.047 5.328 3.564v.018l.018.522-5.346-4.104ZM11.268 18.064l5.346 4.68v.037l-.018.63h-.648l-4.68-5.347Z" clip-rule="evenodd"/><path fill="#FCD116" fill-rule="evenodd" d="m11.268 18.047 4.122 5.364h.018-.558l-3.582-5.364ZM11.268 18.047l1.26 6.318-.378.342-.882-6.66ZM11.267 18.047l.468 7.092-.018.018-.45.468-.468-.468.468-7.11Z" clip-rule="evenodd"/><path fill="#FCD116" fill-rule="evenodd" d="m11.268 18.047-.882 6.696.036.036-.414-.414 1.26-6.318ZM11.265 18.047 7.683 23.41l-.018-.018-.522.018 4.122-5.364Z" clip-rule="evenodd"/><path fill="#FCD116" fill-rule="evenodd" d="m11.264 18.064-4.68 5.346h-.018l-.63-.018v-.648l5.328-4.68ZM11.264 18.064l-5.328 4.087.018.018-.018-.54 5.328-3.565ZM11.266 18.047l-6.318 1.26.018-.018-.378-.36 6.678-.882ZM11.263 18.046l-7.11.468-.018-.018-.414-.45.468-.468 7.074.468Z" clip-rule="evenodd"/><path fill="#FCD116" fill-rule="evenodd" d="m11.265 18.064-6.624-.882.342-.36 6.282 1.242ZM11.264 18.049l-5.328-3.564v-.522l5.328 4.086ZM11.264 18.048l-5.328-4.68v.018-.648h.666l4.662 5.31Z" clip-rule="evenodd"/><path fill="#FCD116" fill-rule="evenodd" d="m11.263 18.066-4.068-5.31h.054l.45-.018 3.564 5.328ZM11.267 18.05l-1.242-6.246v.036l.36-.432.882 6.642Z" clip-rule="evenodd"/></g></g><defs><clipPath id="a"><rect width="36" height="36" fill="#fff" rx="18"/></clipPath></defs></svg>