<svg width="42" height="42" viewBox="0 0 42 42" fill="none" xmlns="http://www.w3.org/2000/svg">
<g clip-path="url(#clip0_4561_223347)">
<mask id="mask0_4561_223347" style="mask-type:luminance" maskUnits="userSpaceOnUse" x="0" y="0" width="42" height="42">
<path d="M0 0H42V42H0V0Z" fill="white"/>
</mask>
<g mask="url(#mask0_4561_223347)">
<mask id="mask1_4561_223347" style="mask-type:luminance" maskUnits="userSpaceOnUse" x="0" y="0" width="42" height="42">
<path d="M42 21C42 9.40202 32.598 0 21 0C9.40202 0 0 9.40202 0 21C0 32.598 9.40202 42 21 42C32.598 42 42 32.598 42 21Z" fill="white"/>
</mask>
<g mask="url(#mask1_4561_223347)">
<path d="M42 21C42 9.40202 32.598 0 21 0C9.40202 0 0 9.40202 0 21C0 32.598 9.40202 42 21 42C32.598 42 42 32.598 42 21Z" fill="#F5F5F5"/>
<path d="M21 42C32.5978 42 42 32.5978 42 21C42 9.40217 32.5978 0 21 0C9.40217 0 0 9.40217 0 21C0 32.5978 9.40217 42 21 42Z" fill="#F3F3F3"/>
<path opacity="0.2" d="M21 42C32.5978 42 42 32.5978 42 21C42 9.40217 32.5978 0 21 0C9.40217 0 0 9.40217 0 21C0 32.5978 9.40217 42 21 42Z" fill="url(#paint0_linear_4561_223347)"/>
<path d="M20.7823 7.4375C15.1053 7.4375 10.4503 12.0925 10.4503 17.7695C10.4503 23.4453 15.1053 28.1015 20.7823 28.1015C26.4582 28.1015 31.1132 23.4465 31.1132 17.7695C31.1132 12.0925 26.4582 7.4375 20.7823 7.4375ZM20.7823 24.9212C19.842 24.925 18.9103 24.7427 18.0408 24.3847C17.1713 24.0266 16.3813 23.5 15.7163 22.8352C15.0514 22.1703 14.5246 21.3804 14.1665 20.511C13.8083 19.6415 13.6258 18.7098 13.6295 17.7695C13.6253 16.8292 13.8075 15.8973 14.1654 15.0278C14.5233 14.1582 15.05 13.3681 15.7149 12.7032C16.3798 12.0383 17.1699 11.5117 18.0394 11.1537C18.909 10.7958 19.8408 10.6137 20.7812 10.6178C24.7595 10.6178 27.934 13.7958 27.934 17.7695C27.8173 21.742 24.6393 24.9212 20.7823 24.9212ZM29.9757 27.1915L20.7823 31.164L11.5867 27.1915L10 30.0312L20.7823 34.5718L31.5635 30.0312L29.9757 27.1915Z" fill="#BB5252"/>
</g>
</g>
</g>
<defs>
<linearGradient id="paint0_linear_4561_223347" x1="21.1377" y1="15.3428" x2="21" y2="42" gradientUnits="userSpaceOnUse">
<stop stop-color="white"/>
<stop offset="1" stop-color="#030303" stop-opacity="0.58"/>
</linearGradient>
<clipPath id="clip0_4561_223347">
<rect width="42" height="42" fill="white"/>
</clipPath>
</defs>
</svg>
