<svg xmlns="http://www.w3.org/2000/svg" width="36" height="36" fill="none"><g clip-path="url(#a)"><g clip-path="url(#b)"><rect width="36" height="36" fill="#F5F5F5" rx="18"/><path fill="#F3F3F3" d="M18 36c9.941 0 18-8.059 18-18S27.941 0 18 0 0 8.059 0 18s8.059 18 18 18Z"/><path fill="url(#c)" d="M18 36c9.941 0 18-8.059 18-18S27.941 0 18 0 0 8.059 0 18s8.059 18 18 18Z" opacity=".2"/><path fill="#BB5252" d="M17.814 6.375c-4.866 0-8.856 3.99-8.856 8.856 0 4.865 3.99 8.856 8.856 8.856 4.865 0 8.855-3.99 8.855-8.856s-3.99-8.856-8.855-8.856Zm0 14.986a6.106 6.106 0 0 1-6.131-6.13 6.103 6.103 0 0 1 6.13-6.13c3.41 0 6.131 2.724 6.131 6.13-.1 3.405-2.824 6.13-6.13 6.13Zm7.88 1.946-7.88 3.405-7.882-3.405-1.36 2.434 9.242 3.892 9.241-3.892-1.36-2.434Z"/></g></g><defs><clipPath id="a"><path fill="#fff" d="M0 0h36v36H0z"/></clipPath><clipPath id="b"><rect width="36" height="36" fill="#fff" rx="18"/></clipPath><linearGradient id="c" x1="18.118" x2="18" y1="13.151" y2="36" gradientUnits="userSpaceOnUse"><stop stop-color="#fff"/><stop offset="1" stop-color="#030303" stop-opacity=".58"/></linearGradient></defs></svg>