<svg width="36" height="36" viewBox="0 0 36 36" fill="none" xmlns="http://www.w3.org/2000/svg">
<rect width="35.9982" height="35.9982" rx="17.9991" fill="url(#paint0_linear_4101_219285)"/>
<path d="M17.9991 35.9982C27.9396 35.9982 35.9982 27.9396 35.9982 17.9991C35.9982 8.0586 27.9396 0 17.9991 0C8.0586 0 0 8.0586 0 17.9991C0 27.9396 8.0586 35.9982 17.9991 35.9982Z" fill="url(#paint1_linear_4101_219285)"/>
<path d="M17.9993 16.6342L27.1188 10.3945H29.9987L29.5187 16.1542L17.9993 25.2738V16.6342Z" fill="#E3E4E4"/>
<path d="M29.0393 15.6758L23.2795 18.5556V19.0356L27.5993 17.5957L29.5192 16.1558L29.0393 15.6758Z" fill="url(#paint2_linear_4101_219285)"/>
<path d="M23.7595 16.1523L21.8396 17.1123L22.7996 18.0722L23.7595 16.1523Z" fill="#1E2B34"/>
<path d="M23.7595 16.1523L21.8396 17.5922L20.8796 16.6323L25.6794 12.3125L23.7595 16.1523Z" fill="#8099AB"/>
<g filter="url(#filter0_d_4101_219285)">
<path d="M22.3191 21.434L27.1188 10.3945L25.6789 11.3545L21.3591 20.954L22.3191 21.434Z" fill="url(#paint3_linear_4101_219285)"/>
</g>
<path d="M27.1188 10.3945L20.8791 18.0741L19.4392 15.6743L27.1188 10.3945Z" fill="#D3D9DF"/>
<path d="M27.1188 10.3945L20.3992 18.0741L19.4392 15.6743L27.1188 10.3945Z" fill="#F7F7F8"/>
<path d="M25.6787 19.1767L29.7105 14.7129L29.5185 16.1528L25.6787 19.1767Z" fill="#EEEEEE"/>
<path d="M19.4399 22.87L22.9918 27.3825L26.8316 22.39L26.3516 18.7422L20.8799 18.8389L19.4399 22.87Z" fill="url(#paint4_linear_4101_219285)"/>
<path d="M19.4399 22.8709L20.3999 23.8316L26.6396 20.4718L25.6796 19.5111L20.8799 18.8398L19.4399 22.8709Z" fill="#C9D1D7"/>
<path d="M19.4399 22.8866L22.9918 27.3992L20.8799 18.8398V18.8556L19.4399 22.8866Z" fill="#5C7589"/>
<path d="M25.1999 20.4722L23.8364 22.0285L21.8401 20.9521L23.28 19.9922L25.1999 20.4722Z" fill="#617E91"/>
<path d="M22.8003 22.8707L26.6401 20.4708V20.2773L23.7602 21.9108L22.8003 20.4708L21.3604 21.9108L22.8003 22.8707Z" fill="url(#paint5_linear_4101_219285)"/>
<path d="M20.1603 20.8566L23.4076 26.142L24.7199 25.1376V23.8324L20.1602 20.8555L20.1603 20.8566Z" fill="url(#paint6_linear_4101_219285)"/>
<path d="M20.4001 20.9512L22.992 27.3836L24.7199 25.1362L20.4001 20.9512Z" fill="#E1E3E5"/>
<path d="M17.9993 16.6342L8.87972 10.3945H5.99987L6.47984 16.1542L17.9993 25.2738V16.6342Z" fill="#E3E4E4"/>
<path d="M6.95928 15.6758L12.719 18.5556V19.0356L8.39921 17.5957L6.47931 16.1558L6.95928 15.6758Z" fill="url(#paint7_linear_4101_219285)"/>
<path d="M12.239 16.1523L14.1589 17.1123L13.199 18.0722L12.239 16.1523Z" fill="#1E2B34"/>
<path d="M12.239 16.1523L14.1589 17.5922L15.1189 16.6323L10.3191 12.3125L12.239 16.1523Z" fill="#8099AB"/>
<g filter="url(#filter1_d_4101_219285)">
<path d="M13.6795 21.434L8.87969 10.3945L10.3196 11.3545L14.6394 20.954L13.6795 21.434Z" fill="url(#paint8_linear_4101_219285)"/>
</g>
<path d="M8.87971 10.3945L15.1194 18.0741L16.5593 15.6743L8.87971 10.3945Z" fill="#D3D9DF"/>
<path d="M8.87971 10.3945L15.5994 18.0741L16.5593 15.6743L8.87971 10.3945Z" fill="#F7F7F8"/>
<path d="M10.3198 19.1767L6.28803 14.7129L6.48002 16.1528L10.3198 19.1767Z" fill="#EEEEEE"/>
<path d="M16.5586 22.87L13.0068 27.3825L9.16696 22.39L9.64694 18.7422L15.1187 18.8389L16.5586 22.87Z" fill="url(#paint9_linear_4101_219285)"/>
<path d="M16.5586 22.8709L15.5986 23.8316L9.35895 20.4718L10.3189 19.5111L15.1187 18.8398L16.5586 22.8709Z" fill="#C9D1D7"/>
<path d="M16.5586 22.8866L13.0068 27.3992L15.1187 18.8398V18.8556L16.5586 22.8866Z" fill="#5C7589"/>
<path d="M10.7989 20.4722L12.1624 22.0285L14.1587 20.9521L12.7188 19.9922L10.7989 20.4722Z" fill="#617E91"/>
<path d="M13.1985 22.8707L9.35869 20.4708V20.2773L12.2385 21.9108L13.1985 20.4708L14.6384 21.9108L13.1985 22.8707Z" fill="url(#paint10_linear_4101_219285)"/>
<path d="M15.8385 20.8566L12.5912 26.142L11.2789 25.1376V23.8324L15.8386 20.8555L15.8385 20.8566Z" fill="url(#paint11_linear_4101_219285)"/>
<path d="M15.5986 20.9512L13.0068 27.3836L11.2788 25.1362L15.5986 20.9512Z" fill="#E1E3E5"/>
<g filter="url(#filter2_d_4101_219285)">
<path d="M12.2393 20.0733L17.9958 28.186L23.7587 20.0733L18.0082 16.9883L12.2393 20.0733Z" fill="url(#paint12_linear_4101_219285)"/>
<g filter="url(#filter3_d_4101_219285)">
<path d="M17.9956 16.3672L12.239 18.9836L17.9956 22.3872V16.3672Z" fill="#CED5DB"/>
<path d="M17.9961 22.3872L23.7537 18.9836L17.9961 16.3672V22.3872Z" fill="#9AA7B2"/>
<path d="M17.9956 9.42969L12.239 18.9823L17.9956 16.3659V9.42969Z" fill="#CED5DB"/>
<path d="M23.7537 18.9823L17.9961 9.42969V16.3659L23.7537 18.9823Z" fill="#9AA7B2"/>
</g>
<path d="M12.2393 20.0762L17.9958 28.1889V23.4776L12.2393 20.0762Z" fill="#CED5DB"/>
<path d="M17.9961 23.4776V28.1889L23.7569 20.0762L17.9961 23.4776Z" fill="#9AA7B2"/>
</g>
<defs>
<filter id="filter0_d_4101_219285" x="20.3992" y="9.43458" width="7.67967" height="12.959" filterUnits="userSpaceOnUse" color-interpolation-filters="sRGB">
<feFlood flood-opacity="0" result="BackgroundImageFix"/>
<feColorMatrix in="SourceAlpha" type="matrix" values="0 0 0 0 0 0 0 0 0 0 0 0 0 0 0 0 0 0 127 0" result="hardAlpha"/>
<feOffset/>
<feGaussianBlur stdDeviation="0.479976"/>
<feComposite in2="hardAlpha" operator="out"/>
<feColorMatrix type="matrix" values="0 0 0 0 0 0 0 0 0 0 0 0 0 0 0 0 0 0 0.3 0"/>
<feBlend mode="normal" in2="BackgroundImageFix" result="effect1_dropShadow_4101_219285"/>
<feBlend mode="normal" in="SourceGraphic" in2="effect1_dropShadow_4101_219285" result="shape"/>
</filter>
<filter id="filter1_d_4101_219285" x="7.91969" y="9.43458" width="7.67967" height="12.959" filterUnits="userSpaceOnUse" color-interpolation-filters="sRGB">
<feFlood flood-opacity="0" result="BackgroundImageFix"/>
<feColorMatrix in="SourceAlpha" type="matrix" values="0 0 0 0 0 0 0 0 0 0 0 0 0 0 0 0 0 0 127 0" result="hardAlpha"/>
<feOffset/>
<feGaussianBlur stdDeviation="0.479976"/>
<feComposite in2="hardAlpha" operator="out"/>
<feColorMatrix type="matrix" values="0 0 0 0 0 0 0 0 0 0 0 0 0 0 0 0 0 0 0.3 0"/>
<feBlend mode="normal" in2="BackgroundImageFix" result="effect1_dropShadow_4101_219285"/>
<feBlend mode="normal" in="SourceGraphic" in2="effect1_dropShadow_4101_219285" result="shape"/>
</filter>
<filter id="filter2_d_4101_219285" x="8.39921" y="5.58988" width="19.1994" height="26.4394" filterUnits="userSpaceOnUse" color-interpolation-filters="sRGB">
<feFlood flood-opacity="0" result="BackgroundImageFix"/>
<feColorMatrix in="SourceAlpha" type="matrix" values="0 0 0 0 0 0 0 0 0 0 0 0 0 0 0 0 0 0 127 0" result="hardAlpha"/>
<feOffset/>
<feGaussianBlur stdDeviation="1.9199"/>
<feComposite in2="hardAlpha" operator="out"/>
<feColorMatrix type="matrix" values="0 0 0 0 0 0 0 0 0 0 0 0 0 0 0 0 0 0 0.45 0"/>
<feBlend mode="normal" in2="BackgroundImageFix" result="effect1_dropShadow_4101_219285"/>
<feBlend mode="normal" in="SourceGraphic" in2="effect1_dropShadow_4101_219285" result="shape"/>
</filter>
<filter id="filter3_d_4101_219285" x="10.6391" y="8.62973" width="14.7145" height="16.1569" filterUnits="userSpaceOnUse" color-interpolation-filters="sRGB">
<feFlood flood-opacity="0" result="BackgroundImageFix"/>
<feColorMatrix in="SourceAlpha" type="matrix" values="0 0 0 0 0 0 0 0 0 0 0 0 0 0 0 0 0 0 127 0" result="hardAlpha"/>
<feOffset dy="0.79996"/>
<feGaussianBlur stdDeviation="0.79996"/>
<feComposite in2="hardAlpha" operator="out"/>
<feColorMatrix type="matrix" values="0 0 0 0 0 0 0 0 0 0 0 0 0 0 0 0 0 0 0.25 0"/>
<feBlend mode="normal" in2="BackgroundImageFix" result="effect1_dropShadow_4101_219285"/>
<feBlend mode="normal" in="SourceGraphic" in2="effect1_dropShadow_4101_219285" result="shape"/>
</filter>
<linearGradient id="paint0_linear_4101_219285" x1="17.9991" y1="0" x2="17.9991" y2="35.9982" gradientUnits="userSpaceOnUse">
<stop stop-color="#404141"/>
<stop offset="1" stop-color="#222222"/>
</linearGradient>
<linearGradient id="paint1_linear_4101_219285" x1="18.1171" y1="13.1503" x2="17.9991" y2="35.9982" gradientUnits="userSpaceOnUse">
<stop stop-color="#252526"/>
<stop offset="1" stop-color="#0D0D0D"/>
</linearGradient>
<linearGradient id="paint2_linear_4101_219285" x1="29.0393" y1="16.1558" x2="23.2795" y2="18.5556" gradientUnits="userSpaceOnUse">
<stop stop-color="#98A9B5"/>
<stop offset="1" stop-color="#1F3446"/>
</linearGradient>
<linearGradient id="paint3_linear_4101_219285" x1="26.1589" y1="10.3945" x2="22.3191" y2="19.5141" gradientUnits="userSpaceOnUse">
<stop stop-color="#F0F2F3"/>
<stop offset="1" stop-color="#94A7B5"/>
</linearGradient>
<linearGradient id="paint4_linear_4101_219285" x1="19.1219" y1="18.4275" x2="25.5501" y2="23.1415" gradientUnits="userSpaceOnUse">
<stop stop-color="#C6CCD1"/>
<stop offset="1" stop-color="#EFEFEF"/>
</linearGradient>
<linearGradient id="paint5_linear_4101_219285" x1="22.3203" y1="22.8722" x2="27.1201" y2="20.4723" gradientUnits="userSpaceOnUse">
<stop stop-color="#202B32"/>
<stop offset="1" stop-color="#7D8C99"/>
</linearGradient>
<linearGradient id="paint6_linear_4101_219285" x1="21.265" y1="21.8565" x2="25.122" y2="25.7135" gradientUnits="userSpaceOnUse">
<stop stop-color="#ABB8C1"/>
<stop offset="1" stop-color="#D8E1E7"/>
</linearGradient>
<linearGradient id="paint7_linear_4101_219285" x1="6.95928" y1="16.1558" x2="12.719" y2="18.5556" gradientUnits="userSpaceOnUse">
<stop stop-color="#98A9B5"/>
<stop offset="1" stop-color="#1F3446"/>
</linearGradient>
<linearGradient id="paint8_linear_4101_219285" x1="9.83964" y1="10.3945" x2="13.6795" y2="19.5141" gradientUnits="userSpaceOnUse">
<stop stop-color="#F0F2F3"/>
<stop offset="1" stop-color="#94A7B5"/>
</linearGradient>
<linearGradient id="paint9_linear_4101_219285" x1="16.8767" y1="18.4275" x2="10.4484" y2="23.1415" gradientUnits="userSpaceOnUse">
<stop stop-color="#C6CCD1"/>
<stop offset="1" stop-color="#EFEFEF"/>
</linearGradient>
<linearGradient id="paint10_linear_4101_219285" x1="13.6785" y1="22.8722" x2="8.87872" y2="20.4723" gradientUnits="userSpaceOnUse">
<stop stop-color="#202B32"/>
<stop offset="1" stop-color="#7D8C99"/>
</linearGradient>
<linearGradient id="paint11_linear_4101_219285" x1="14.7338" y1="21.8565" x2="10.8768" y2="25.7135" gradientUnits="userSpaceOnUse">
<stop stop-color="#ABB8C1"/>
<stop offset="1" stop-color="#D8E1E7"/>
</linearGradient>
<linearGradient id="paint12_linear_4101_219285" x1="12.6419" y1="20.1421" x2="23.3556" y2="20.1421" gradientUnits="userSpaceOnUse">
<stop stop-color="#4A677E"/>
<stop offset="1" stop-color="#1F2E37"/>
</linearGradient>
</defs>
</svg>
