<svg width="42" height="42" viewBox="0 0 42 42" fill="none" xmlns="http://www.w3.org/2000/svg">
<g clip-path="url(#clip0_4532_196677)">
<path d="M41.9979 20.9989C41.9979 9.40155 32.5963 0 20.9989 0C9.40155 0 0 9.40155 0 20.9989C0 32.5963 9.40155 41.9979 20.9989 41.9979C32.5963 41.9979 41.9979 32.5963 41.9979 20.9989Z" fill="url(#paint0_linear_4532_196677)"/>
<path d="M20.9989 41.9979C32.5962 41.9979 41.9979 32.5962 41.9979 20.9989C41.9979 9.4017 32.5962 0 20.9989 0C9.4017 0 0 9.4017 0 20.9989C0 32.5962 9.4017 41.9979 20.9989 41.9979Z" fill="url(#paint1_linear_4532_196677)"/>
<path d="M21 19.4203L31.6394 12.1406H34.9993L34.4393 18.8603L21 29.4998V19.4203Z" fill="#E3E4E4"/>
<path d="M33.876 18.2969L27.1562 21.6566V22.2166L32.196 20.5368L34.4359 18.8569L33.876 18.2969Z" fill="url(#paint2_linear_4532_196677)"/>
<path d="M27.7555 18.8672L25.5156 19.9872L26.6356 21.1071L27.7555 18.8672Z" fill="#1E2B34"/>
<path d="M27.7193 18.8391L25.4794 20.519L24.3594 19.3991L29.9591 14.3594L27.7193 18.8391Z" fill="#8099AB"/>
<g filter="url(#filter0_d_4532_196677)">
<path d="M26.0575 25.02L31.6571 12.1406L29.9773 13.2606L24.9375 24.46L26.0575 25.02Z" fill="url(#paint3_linear_4532_196677)"/>
</g>
<path d="M31.6002 12.1406L24.3205 21.1002L22.6406 18.3004L31.6002 12.1406Z" fill="#D3D9DF"/>
<path d="M31.6002 12.1406L23.7606 21.1002L22.6406 18.3004L31.6002 12.1406Z" fill="#F7F7F8"/>
<path d="M29.9375 22.3484L34.6413 17.1406L34.4173 18.8205L29.9375 22.3484Z" fill="#EEEEEE"/>
<path d="M22.6406 26.722L26.7845 31.9866L31.2643 26.162L30.7043 21.9062L24.3206 22.0191L22.6406 26.722Z" fill="url(#paint4_linear_4532_196677)"/>
<path d="M22.6406 26.6873L23.7606 27.8081L31.0403 23.8884L29.9203 22.7676L24.3206 21.9844L22.6406 26.6873Z" fill="#C9D1D7"/>
<path d="M22.6406 26.7056L26.7845 31.9703L24.3206 21.9844V22.0028L22.6406 26.7056Z" fill="#5C7589"/>
<path d="M29.4354 23.8569L27.8446 25.6726L25.5156 24.4168L27.1955 23.2969L29.4354 23.8569Z" fill="#617E91"/>
<path d="M26.6174 26.6506L31.0972 23.8508V23.625L27.7373 25.5308L26.6174 23.8508L24.9375 25.5308L26.6174 26.6506Z" fill="url(#paint5_linear_4532_196677)"/>
<path d="M23.547 24.3607L27.3355 30.527L28.8665 29.3552V27.8324L23.5469 24.3594L23.547 24.3607Z" fill="url(#paint6_linear_4532_196677)"/>
<path d="M23.7891 24.4453L26.8129 31.9498L28.8288 29.3278L23.7891 24.4453Z" fill="#E1E3E5"/>
<path d="M20.9681 19.4203L10.3286 12.1406H6.96875L7.52871 18.8603L20.9681 29.4998V19.4203Z" fill="#E3E4E4"/>
<path d="M8.10684 18.2969L14.8265 21.6566V22.2166L9.78676 20.5368L7.54688 18.8569L8.10684 18.2969Z" fill="url(#paint7_linear_4532_196677)"/>
<path d="M14.2734 18.8672L16.5133 19.9872L15.3934 21.1071L14.2734 18.8672Z" fill="#1E2B34"/>
<path d="M14.3024 18.8391L16.5423 20.519L17.6623 19.3991L12.0625 14.3594L14.3024 18.8391Z" fill="#8099AB"/>
<g filter="url(#filter1_d_4532_196677)">
<path d="M16.0138 25.02L10.4141 12.1406L12.094 13.2606L17.1337 24.46L16.0138 25.02Z" fill="url(#paint8_linear_4532_196677)"/>
</g>
<path d="M10.3359 12.1406L17.6156 21.1002L19.2955 18.3004L10.3359 12.1406Z" fill="#D3D9DF"/>
<path d="M10.3359 12.1406L18.1756 21.1002L19.2955 18.3004L10.3359 12.1406Z" fill="#F7F7F8"/>
<path d="M12.0006 22.3484L7.29688 17.1406L7.52086 18.8205L12.0006 22.3484Z" fill="#EEEEEE"/>
<path d="M19.2876 26.722L15.1439 31.9866L10.6641 26.162L11.224 21.9062L17.6078 22.0191L19.2876 26.722Z" fill="url(#paint9_linear_4532_196677)"/>
<path d="M19.3058 26.6873L18.1858 27.8081L10.9062 23.8884L12.0262 22.7676L17.626 21.9844L19.3058 26.6873Z" fill="#C9D1D7"/>
<path d="M19.3156 26.7056L15.1719 31.9703L17.6358 21.9844V22.0028L19.3156 26.7056Z" fill="#5C7589"/>
<path d="M12.6328 23.8569L14.2236 25.6726L16.5526 24.4168L14.8727 23.2969L12.6328 23.8569Z" fill="#617E91"/>
<path d="M15.386 26.6506L10.9062 23.8508V23.625L14.266 25.5308L15.386 23.8508L17.0659 25.5308L15.386 26.6506Z" fill="url(#paint10_linear_4532_196677)"/>
<path d="M18.4445 24.3607L14.656 30.527L13.125 29.3552V27.8324L18.4447 24.3594L18.4445 24.3607Z" fill="url(#paint11_linear_4532_196677)"/>
<path d="M18.1648 24.4453L15.141 31.9498L13.125 29.3278L18.1648 24.4453Z" fill="#E1E3E5"/>
<g filter="url(#filter2_d_4532_196677)">
<path d="M14.2734 23.3648L20.9894 32.8296L27.7127 23.3648L21.0038 19.7656L14.2734 23.3648Z" fill="url(#paint12_linear_4532_196677)"/>
<g filter="url(#filter3_d_4532_196677)">
<path d="M20.9895 19.1094L14.2734 22.1618L20.9895 26.1327V19.1094Z" fill="#CED5DB"/>
<path d="M21 26.1327L27.7172 22.1618L21 19.1094V26.1327Z" fill="#9AA7B2"/>
<path d="M20.9895 10.9922L14.2734 22.1369L20.9895 19.0844V10.9922Z" fill="#CED5DB"/>
<path d="M27.7172 22.1369L21 10.9922V19.0844L27.7172 22.1369Z" fill="#9AA7B2"/>
</g>
<path d="M14.2734 23.375L20.9894 32.8398V27.3433L14.2734 23.375Z" fill="#CED5DB"/>
<path d="M21 27.3433V32.8398L27.7209 23.375L21 27.3433Z" fill="#9AA7B2"/>
</g>
</g>
<defs>
<filter id="filter0_d_4532_196677" x="23.8176" y="11.0207" width="8.95864" height="15.1227" filterUnits="userSpaceOnUse" color-interpolation-filters="sRGB">
<feFlood flood-opacity="0" result="BackgroundImageFix"/>
<feColorMatrix in="SourceAlpha" type="matrix" values="0 0 0 0 0 0 0 0 0 0 0 0 0 0 0 0 0 0 127 0" result="hardAlpha"/>
<feOffset/>
<feGaussianBlur stdDeviation="0.559972"/>
<feComposite in2="hardAlpha" operator="out"/>
<feColorMatrix type="matrix" values="0 0 0 0 0 0 0 0 0 0 0 0 0 0 0 0 0 0 0.3 0"/>
<feBlend mode="normal" in2="BackgroundImageFix" result="effect1_dropShadow_4532_196677"/>
<feBlend mode="normal" in="SourceGraphic" in2="effect1_dropShadow_4532_196677" result="shape"/>
</filter>
<filter id="filter1_d_4532_196677" x="9.29412" y="11.0207" width="8.95864" height="15.1227" filterUnits="userSpaceOnUse" color-interpolation-filters="sRGB">
<feFlood flood-opacity="0" result="BackgroundImageFix"/>
<feColorMatrix in="SourceAlpha" type="matrix" values="0 0 0 0 0 0 0 0 0 0 0 0 0 0 0 0 0 0 127 0" result="hardAlpha"/>
<feOffset/>
<feGaussianBlur stdDeviation="0.559972"/>
<feComposite in2="hardAlpha" operator="out"/>
<feColorMatrix type="matrix" values="0 0 0 0 0 0 0 0 0 0 0 0 0 0 0 0 0 0 0.3 0"/>
<feBlend mode="normal" in2="BackgroundImageFix" result="effect1_dropShadow_4532_196677"/>
<feBlend mode="normal" in="SourceGraphic" in2="effect1_dropShadow_4532_196677" result="shape"/>
</filter>
<filter id="filter2_d_4532_196677" x="9.79367" y="6.51242" width="22.4048" height="30.8033" filterUnits="userSpaceOnUse" color-interpolation-filters="sRGB">
<feFlood flood-opacity="0" result="BackgroundImageFix"/>
<feColorMatrix in="SourceAlpha" type="matrix" values="0 0 0 0 0 0 0 0 0 0 0 0 0 0 0 0 0 0 127 0" result="hardAlpha"/>
<feOffset/>
<feGaussianBlur stdDeviation="2.23988"/>
<feComposite in2="hardAlpha" operator="out"/>
<feColorMatrix type="matrix" values="0 0 0 0 0 0 0 0 0 0 0 0 0 0 0 0 0 0 0.45 0"/>
<feBlend mode="normal" in2="BackgroundImageFix" result="effect1_dropShadow_4532_196677"/>
<feBlend mode="normal" in="SourceGraphic" in2="effect1_dropShadow_4532_196677" result="shape"/>
</filter>
<filter id="filter3_d_4532_196677" x="12.4069" y="10.0589" width="17.1785" height="18.8738" filterUnits="userSpaceOnUse" color-interpolation-filters="sRGB">
<feFlood flood-opacity="0" result="BackgroundImageFix"/>
<feColorMatrix in="SourceAlpha" type="matrix" values="0 0 0 0 0 0 0 0 0 0 0 0 0 0 0 0 0 0 127 0" result="hardAlpha"/>
<feOffset dy="0.933287"/>
<feGaussianBlur stdDeviation="0.933287"/>
<feComposite in2="hardAlpha" operator="out"/>
<feColorMatrix type="matrix" values="0 0 0 0 0 0 0 0 0 0 0 0 0 0 0 0 0 0 0.25 0"/>
<feBlend mode="normal" in2="BackgroundImageFix" result="effect1_dropShadow_4532_196677"/>
<feBlend mode="normal" in="SourceGraphic" in2="effect1_dropShadow_4532_196677" result="shape"/>
</filter>
<linearGradient id="paint0_linear_4532_196677" x1="20.9989" y1="0" x2="20.9989" y2="41.9979" gradientUnits="userSpaceOnUse">
<stop stop-color="#404141"/>
<stop offset="1" stop-color="#222222"/>
</linearGradient>
<linearGradient id="paint1_linear_4532_196677" x1="21.1366" y1="15.342" x2="20.9989" y2="41.9979" gradientUnits="userSpaceOnUse">
<stop stop-color="#252526"/>
<stop offset="1" stop-color="#0D0D0D"/>
</linearGradient>
<linearGradient id="paint2_linear_4532_196677" x1="33.876" y1="18.8569" x2="27.1562" y2="21.6566" gradientUnits="userSpaceOnUse">
<stop stop-color="#98A9B5"/>
<stop offset="1" stop-color="#1F3446"/>
</linearGradient>
<linearGradient id="paint3_linear_4532_196677" x1="30.5373" y1="12.1406" x2="26.0575" y2="22.7802" gradientUnits="userSpaceOnUse">
<stop stop-color="#F0F2F3"/>
<stop offset="1" stop-color="#94A7B5"/>
</linearGradient>
<linearGradient id="paint4_linear_4532_196677" x1="22.2696" y1="21.5391" x2="29.7692" y2="27.0388" gradientUnits="userSpaceOnUse">
<stop stop-color="#C6CCD1"/>
<stop offset="1" stop-color="#EFEFEF"/>
</linearGradient>
<linearGradient id="paint5_linear_4532_196677" x1="26.0574" y1="26.6524" x2="31.6572" y2="23.8525" gradientUnits="userSpaceOnUse">
<stop stop-color="#202B32"/>
<stop offset="1" stop-color="#7D8C99"/>
</linearGradient>
<linearGradient id="paint6_linear_4532_196677" x1="24.8358" y1="25.5272" x2="29.3356" y2="30.027" gradientUnits="userSpaceOnUse">
<stop stop-color="#ABB8C1"/>
<stop offset="1" stop-color="#D8E1E7"/>
</linearGradient>
<linearGradient id="paint7_linear_4532_196677" x1="8.10684" y1="18.8569" x2="14.8265" y2="21.6566" gradientUnits="userSpaceOnUse">
<stop stop-color="#98A9B5"/>
<stop offset="1" stop-color="#1F3446"/>
</linearGradient>
<linearGradient id="paint8_linear_4532_196677" x1="11.534" y1="12.1406" x2="16.0138" y2="22.7802" gradientUnits="userSpaceOnUse">
<stop stop-color="#F0F2F3"/>
<stop offset="1" stop-color="#94A7B5"/>
</linearGradient>
<linearGradient id="paint9_linear_4532_196677" x1="19.6588" y1="21.5391" x2="12.1591" y2="27.0388" gradientUnits="userSpaceOnUse">
<stop stop-color="#C6CCD1"/>
<stop offset="1" stop-color="#EFEFEF"/>
</linearGradient>
<linearGradient id="paint10_linear_4532_196677" x1="15.946" y1="26.6524" x2="10.3463" y2="23.8525" gradientUnits="userSpaceOnUse">
<stop stop-color="#202B32"/>
<stop offset="1" stop-color="#7D8C99"/>
</linearGradient>
<linearGradient id="paint11_linear_4532_196677" x1="17.1557" y1="25.5272" x2="12.6559" y2="30.027" gradientUnits="userSpaceOnUse">
<stop stop-color="#ABB8C1"/>
<stop offset="1" stop-color="#D8E1E7"/>
</linearGradient>
<linearGradient id="paint12_linear_4532_196677" x1="14.7431" y1="23.4451" x2="27.2425" y2="23.4451" gradientUnits="userSpaceOnUse">
<stop stop-color="#4A677E"/>
<stop offset="1" stop-color="#1F2E37"/>
</linearGradient>
<clipPath id="clip0_4532_196677">
<rect width="42" height="42" fill="white"/>
</clipPath>
</defs>
</svg>
