<svg width="36" height="36" viewBox="0 0 36 36" fill="none" xmlns="http://www.w3.org/2000/svg">
<g clip-path="url(#clip0_579_186181)">
<g clip-path="url(#clip1_579_186181)">
<rect width="36" height="36" rx="18" fill="#F5F5F5"/>
<path d="M18 36C27.9411 36 36 27.9411 36 18C36 8.05887 27.9411 0 18 0C8.05887 0 0 8.05887 0 18C0 27.9411 8.05887 36 18 36Z" fill="#F3F3F3"/>
<path opacity="0.3" d="M18 36C27.9411 36 36 27.9411 36 18C36 8.05887 27.9411 0 18 0C8.05887 0 0 8.05887 0 18C0 27.9411 8.05887 36 18 36Z" fill="url(#paint0_linear_579_186181)"/>
<path fill-rule="evenodd" clip-rule="evenodd" d="M17.2041 12.5293H23.9733C27.6078 12.5293 28.976 14.3693 28.7646 17.0724C28.4151 21.5352 25.7172 24.0042 22.1386 24.0042H20.3318C19.8408 24.0042 19.5106 24.3292 19.3778 25.2099L18.6107 30.3297C18.56 30.6617 18.3853 30.8539 18.1232 30.8801H13.8701C13.4699 30.8801 13.3284 30.5743 13.4332 29.912L16.0263 13.4991C16.1277 12.8421 16.4876 12.5293 17.2041 12.5293Z" fill="#E300CC"/>
<path fill-rule="evenodd" clip-rule="evenodd" d="M12.9818 6.85742H19.7581C21.6662 6.85742 23.9308 6.91858 25.444 8.25531C26.4557 9.14821 26.9869 10.5688 26.8646 12.0995C26.4487 17.2734 23.3542 20.1723 19.2024 20.1723H15.8615C15.2918 20.1723 14.9161 20.5497 14.7554 21.5702L13.8223 27.5112C13.7611 27.8956 13.5951 28.1228 13.2981 28.1508H9.11666C8.65361 28.1508 8.48936 27.8013 8.60992 27.029L11.6154 7.98622C11.736 7.22087 12.1571 6.85742 12.9818 6.85742Z" fill="#7D0070"/>
<path fill-rule="evenodd" clip-rule="evenodd" d="M14.853 20.9918L16.036 13.5008C16.1391 12.8438 16.499 12.5293 17.2155 12.5293H23.9847C25.1048 12.5293 26.0117 12.704 26.7211 13.0273C26.0414 17.6333 23.0621 20.1915 19.162 20.1915H15.8263C15.379 20.1932 15.0505 20.4169 14.853 20.9918Z" fill="#A30093"/>
</g>
</g>
<defs>
<linearGradient id="paint0_linear_579_186181" x1="18.1181" y1="13.1506" x2="18" y2="36" gradientUnits="userSpaceOnUse">
<stop stop-color="white"/>
<stop offset="1" stop-color="#EA55ED"/>
</linearGradient>
<clipPath id="clip0_579_186181">
<rect width="36" height="36" fill="white"/>
</clipPath>
<clipPath id="clip1_579_186181">
<rect width="36" height="36" rx="18" fill="white"/>
</clipPath>
</defs>
</svg>
