<svg xmlns="http://www.w3.org/2000/svg" width="36" height="36" fill="none"><g clip-path="url(#a)"><g clip-path="url(#b)"><rect width="36" height="36" fill="#F5F5F5" rx="18"/><path fill="#F3F3F3" d="M18 36c9.941 0 18-8.059 18-18S27.941 0 18 0 0 8.059 0 18s8.059 18 18 18Z"/><path fill="url(#c)" d="M18 36c9.941 0 18-8.059 18-18S27.941 0 18 0 0 8.059 0 18s8.059 18 18 18Z" opacity=".3"/><path fill="#E300CC" fill-rule="evenodd" d="M17.204 12.53h6.769c3.634 0 5.003 1.84 4.791 4.542-.35 4.463-3.047 6.932-6.626 6.932h-1.807c-.49 0-.82.325-.954 1.206l-.767 5.12c-.05.332-.225.524-.487.55H13.87c-.4 0-.542-.306-.437-.968l2.593-16.413c.101-.657.461-.97 1.178-.97Z" clip-rule="evenodd"/><path fill="#7D0070" fill-rule="evenodd" d="M12.981 6.857h6.777c1.908 0 4.172.062 5.686 1.398 1.011.893 1.542 2.314 1.42 3.845-.416 5.173-3.51 8.072-7.662 8.072H15.86c-.57 0-.945.378-1.106 1.398l-.933 5.941c-.061.385-.227.612-.524.64H9.116c-.463 0-.627-.35-.507-1.122l3.006-19.043c.12-.765.542-1.129 1.366-1.129Z" clip-rule="evenodd"/><path fill="#A30093" fill-rule="evenodd" d="m14.852 20.992 1.183-7.491c.104-.657.464-.972 1.18-.972h6.77c1.12 0 2.026.175 2.736.498-.68 4.606-3.66 7.165-7.56 7.165h-3.335c-.447.001-.776.225-.974.8Z" clip-rule="evenodd"/></g></g><defs><clipPath id="a"><path fill="#fff" d="M0 0h36v36H0z"/></clipPath><clipPath id="b"><rect width="36" height="36" fill="#fff" rx="18"/></clipPath><linearGradient id="c" x1="18.118" x2="18" y1="13.151" y2="36" gradientUnits="userSpaceOnUse"><stop stop-color="#fff"/><stop offset="1" stop-color="#EA55ED"/></linearGradient></defs></svg>