<svg width="42" height="42" viewBox="0 0 42 42" fill="none" xmlns="http://www.w3.org/2000/svg">
<g clip-path="url(#clip0_4532_196736)">
<path d="M41.9979 20.9989C41.9979 9.40155 32.5963 0 20.9989 0C9.40155 0 0 9.40155 0 20.9989C0 32.5963 9.40155 41.9979 20.9989 41.9979C32.5963 41.9979 41.9979 32.5963 41.9979 20.9989Z" fill="url(#paint0_linear_4532_196736)"/>
<path d="M20.9989 41.9979C32.5962 41.9979 41.9979 32.5962 41.9979 20.9989C41.9979 9.4017 32.5962 0 20.9989 0C9.4017 0 0 9.4017 0 20.9989C0 32.5962 9.4017 41.9979 20.9989 41.9979Z" fill="url(#paint1_linear_4532_196736)"/>
<path d="M23.749 18.4631C23.7494 19.1928 23.4598 19.8927 22.9443 20.4089C22.4286 20.9253 21.7291 21.2157 20.9993 21.2163V23.9683C21.722 23.9679 22.4375 23.8251 23.1049 23.5481C23.7724 23.2711 24.3788 22.8654 24.8895 22.3541C25.4001 21.8428 25.8051 21.2359 26.0812 20.5681C26.3574 19.9003 26.4992 19.1845 26.4988 18.4619C26.4984 17.4966 26.2442 16.5484 25.7615 15.7124C25.2789 14.8765 24.5848 14.1822 23.749 13.6992C22.9134 13.2163 21.9652 12.9616 20.9999 12.9609C20.0346 12.9602 19.0861 13.2134 18.2496 13.6951C17.413 14.1785 16.7184 14.8736 16.2357 15.7105C15.7531 16.5475 15.4993 17.4969 15.5 18.4631V32.2244L17.9719 34.6987L18.2496 34.9764V18.4631C18.2494 18.1017 18.3202 17.7439 18.4582 17.4099C18.5963 17.076 18.7988 16.7726 19.0541 16.5168C19.3094 16.2612 19.6127 16.0583 19.9464 15.9198C20.2802 15.7814 20.638 15.7101 20.9993 15.7098C21.3606 15.7101 21.7185 15.7814 22.0522 15.9198C22.386 16.0583 22.6892 16.2612 22.9446 16.5168C23.1999 16.7726 23.4024 17.076 23.5404 17.4099C23.6785 17.7439 23.7494 18.1017 23.749 18.4631Z" fill="#110F23"/>
<path d="M21.0078 7.46875C19.0036 7.46875 17.1265 8.00539 15.5084 8.94218C14.4755 9.53972 13.5468 10.3014 12.7586 11.1972C10.9829 13.2065 10.0044 15.7965 10.0078 18.478V26.7365L12.7586 29.4897V18.478C12.7586 16.034 13.8203 13.8361 15.5084 12.323C17.0199 10.9688 18.9784 10.2205 21.0078 10.222C23.1966 10.2232 25.2953 11.0938 26.8423 12.6423C28.3893 14.1909 29.2578 16.2904 29.2568 18.4792C29.2578 20.6681 28.3893 22.7676 26.8423 24.3161C25.2953 25.8646 23.1966 26.7352 21.0078 26.7365V29.4897C27.0834 29.4897 32.0077 24.5584 32.0077 18.478C32.0077 12.3977 27.0834 7.46875 21.0078 7.46875Z" fill="#110F23"/>
</g>
<defs>
<linearGradient id="paint0_linear_4532_196736" x1="20.9989" y1="0" x2="20.9989" y2="41.9979" gradientUnits="userSpaceOnUse">
<stop stop-color="#404141"/>
<stop offset="1" stop-color="#222222"/>
</linearGradient>
<linearGradient id="paint1_linear_4532_196736" x1="21.1366" y1="15.342" x2="20.9989" y2="41.9979" gradientUnits="userSpaceOnUse">
<stop stop-color="white"/>
<stop offset="1" stop-color="#DDCCFE"/>
</linearGradient>
<clipPath id="clip0_4532_196736">
<rect width="42" height="42" fill="white"/>
</clipPath>
</defs>
</svg>
