<svg xmlns="http://www.w3.org/2000/svg" width="36" height="36" fill="none"><path fill="#F3F3F3" d="M18 36c9.941 0 18-8.059 18-18S27.941 0 18 0 0 8.059 0 18s8.059 18 18 18Z"/><path fill="url(#a)" d="M18 36c9.941 0 18-8.059 18-18S27.941 0 18 0 0 8.059 0 18s8.059 18 18 18Z"/><path fill="#110F23" d="M20.347 15.844a2.359 2.359 0 0 1-2.357 2.36v2.359a4.717 4.717 0 0 0 4.714-4.72 4.717 4.717 0 0 0-7.071-4.086 4.716 4.716 0 0 0-2.357 4.087V27.64l2.119 2.121.238.238V15.844a2.358 2.358 0 0 1 2.357-2.36 2.358 2.358 0 0 1 2.357 2.36Z"/><path fill="#110F23" d="M18 6.43c-1.718 0-3.327.46-4.714 1.263a9.427 9.427 0 0 0-2.357 1.933 9.406 9.406 0 0 0-2.358 6.241v7.079l2.358 2.36v-9.439c0-2.095.91-3.979 2.357-5.276A7.057 7.057 0 0 1 18 8.79a7.075 7.075 0 0 1 7.071 7.078A7.075 7.075 0 0 1 18 22.946v2.36c5.208 0 9.429-4.227 9.429-9.439S23.208 6.43 18 6.43Z"/><defs><linearGradient id="a" x1="18.118" x2="18" y1="13.151" y2="36" gradientUnits="userSpaceOnUse"><stop stop-color="#fff"/><stop offset="1" stop-color="#DDCCFE"/></linearGradient></defs></svg>