<svg xmlns="http://www.w3.org/2000/svg" width="36" height="36" fill="none"><path fill="#F3F3F3" d="M18 36c9.941 0 18-8.059 18-18S27.941 0 18 0 0 8.059 0 18s8.059 18 18 18Z"/><path fill="url(#a)" d="M18 36c9.941 0 18-8.059 18-18S27.941 0 18 0 0 8.059 0 18s8.059 18 18 18Z"/><path fill="#0071F3" d="M20.772 7.715h-6.119a1.39 1.39 0 0 0-1.376 1.168l-.43 2.766v.02h-2.054a.985.985 0 0 0-.986.984c0 .553.452.983.986 1.004h1.745l-.308 1.905-.02.144h-2.054a.985.985 0 0 0-.985.983c0 .533.452.984.985.984h1.746l-.945 5.962-.308 1.988-.164 1.065a1.387 1.387 0 0 0 1.376 1.598h4.599c.677 0 1.252-.491 1.376-1.168l.883-5.47h2.156c3.88 0 7.042-3.197 6.98-7.09-.061-3.831-3.264-6.843-7.083-6.843Zm-6.222 5.942 6.201.02c.555 0 1.027.451 1.027 1.025 0 .553-.452 1.024-1.027 1.024h-6.53l.33-2.07Zm6.242 5.983H18.205c-.677 0-1.252.491-1.375 1.168l-.883 5.49h-3.368l1.335-8.605h6.837a2.998 2.998 0 0 0 2.998-2.991c0-1.64-1.355-2.992-2.998-2.992l-5.872-.02.308-1.967h5.708c2.792 0 5.051 2.295 4.99 5.081-.083 2.705-2.362 4.836-5.093 4.836Z"/><defs><linearGradient id="a" x1="18" x2="18" y1="0" y2="36" gradientUnits="userSpaceOnUse"><stop stop-color="#fff"/><stop offset="1" stop-color="#BBE0FC"/></linearGradient></defs></svg>