<svg width="42" height="42" viewBox="0 0 42 42" fill="none" xmlns="http://www.w3.org/2000/svg">
<g clip-path="url(#clip0_4532_196741)">
<path d="M41.9979 20.9989C41.9979 9.40155 32.5963 0 20.9989 0C9.40155 0 0 9.40155 0 20.9989C0 32.5963 9.40155 41.9979 20.9989 41.9979C32.5963 41.9979 41.9979 32.5963 41.9979 20.9989Z" fill="url(#paint0_linear_4532_196741)"/>
<path d="M20.9989 41.9979C32.5962 41.9979 41.9979 32.5962 41.9979 20.9989C41.9979 9.4017 32.5962 0 20.9989 0C9.4017 0 0 9.4017 0 20.9989C0 32.5962 9.4017 41.9979 20.9989 41.9979Z" fill="url(#paint1_linear_4532_196741)"/>
<path d="M24.1979 9.02344H17.0594C16.6734 9.02238 16.2998 9.15901 16.0055 9.40877C15.7113 9.65853 15.5158 10.0051 15.4542 10.386L14.9525 13.6129V13.6362H12.5563C12.4054 13.6361 12.256 13.6656 12.1164 13.7232C11.977 13.7809 11.8502 13.8653 11.7435 13.972C11.6366 14.0786 11.5518 14.2052 11.4939 14.3445C11.4361 14.4839 11.4062 14.6332 11.406 14.7842C11.406 15.4293 11.9333 15.9309 12.5563 15.9554H14.592L14.2327 18.1778L14.2093 18.3458H11.8131C11.5088 18.3458 11.2169 18.4666 11.0015 18.6816C10.786 18.8966 10.6647 19.1883 10.6641 19.4926C10.6641 20.1144 11.1914 20.6405 11.8131 20.6405H13.8501L12.7476 27.5958L12.3883 29.9151L12.1969 31.1576C12.1614 31.3886 12.1763 31.6247 12.2408 31.8494C12.3052 32.0742 12.4176 32.2823 12.57 32.4594C12.7226 32.6367 12.9118 32.7786 13.1244 32.8757C13.3372 32.9728 13.5685 33.0226 13.8023 33.0218H19.1674C19.9573 33.0218 20.6281 32.4489 20.7728 31.6591L21.8028 25.2778H24.318C28.8445 25.2778 32.5333 21.5482 32.461 17.0066C32.3898 12.5373 28.6531 9.02344 24.1979 9.02344ZM16.9392 15.9554L24.1734 15.9788C24.8209 15.9788 25.3715 16.5049 25.3715 17.1746C25.3715 17.8196 24.8442 18.3691 24.1734 18.3691H16.5554L16.9404 15.9543L16.9392 15.9554ZM24.2212 22.9352H21.2031C20.4134 22.9352 19.7426 23.5081 19.5991 24.2978L18.569 30.7026H14.6398L16.1973 20.6639H24.1734C25.0996 20.6639 25.9879 20.2965 26.6437 19.6423C27.2993 18.9882 27.6687 18.1007 27.6709 17.1746C27.6709 15.2613 26.0901 13.684 24.1734 13.684L17.323 13.6607L17.6824 11.366H24.3414C27.5986 11.366 30.234 14.0434 30.1628 17.2935C30.066 20.4492 27.4072 22.9352 24.2212 22.9352Z" fill="#0071F3"/>
</g>
<defs>
<linearGradient id="paint0_linear_4532_196741" x1="20.9989" y1="0" x2="20.9989" y2="41.9979" gradientUnits="userSpaceOnUse">
<stop stop-color="#404141"/>
<stop offset="1" stop-color="#222222"/>
</linearGradient>
<linearGradient id="paint1_linear_4532_196741" x1="20.9989" y1="0" x2="20.9989" y2="41.9979" gradientUnits="userSpaceOnUse">
<stop stop-color="white"/>
<stop offset="1" stop-color="#BBE0FC"/>
</linearGradient>
<clipPath id="clip0_4532_196741">
<rect width="42" height="42" fill="white"/>
</clipPath>
</defs>
</svg>
