<svg xmlns="http://www.w3.org/2000/svg" width="36" height="36" fill="none"><g clip-path="url(#a)"><g clip-path="url(#b)"><rect width="36" height="36" fill="#F5F5F5" rx="18"/><path fill="#F3F3F3" d="M18 36c9.941 0 18-8.059 18-18S27.941 0 18 0 0 8.059 0 18s8.059 18 18 18Z"/><path fill="url(#c)" d="M18 36c9.941 0 18-8.059 18-18S27.941 0 18 0 0 8.059 0 18s8.059 18 18 18Z" opacity=".3"/><path fill="#DC8330" fill-rule="evenodd" d="M17.57 6.86C11.88 6.857 7.286 11.33 7.286 17.328c0 5.99 4.592 10.48 10.284 10.48.968 0 1.92-.137 2.807-.385l1.112 2.91c.11.333.338.524.757.524h1.772c.419 0 .748-.288.536-.833l-1.435-3.82c2.852-1.819 4.738-5.026 4.738-8.876 0-6.002-4.592-10.47-10.284-10.47m4.481 16.536-1.306-3.416c-.11-.288-.338-.537-.837-.537h-1.692c-.422 0-.76.282-.568.815l1.707 4.49a6.907 6.907 0 0 1-1.788.227c-4.177 0-7.127-3.304-7.127-7.648 0-4.329 2.95-7.645 7.127-7.645 4.18 0 7.127 3.316 7.127 7.645 0 2.525-1.001 4.696-2.643 6.063" clip-rule="evenodd"/></g></g><defs><clipPath id="a"><path fill="#fff" d="M0 0h36v36H0z"/></clipPath><clipPath id="b"><rect width="36" height="36" fill="#fff" rx="18"/></clipPath><linearGradient id="c" x1="18.118" x2="18" y1="13.151" y2="36" gradientUnits="userSpaceOnUse"><stop stop-color="#fff"/><stop offset="1" stop-color="#DD924D"/></linearGradient></defs></svg>