<svg width="42" height="42" viewBox="0 0 42 42" fill="none" xmlns="http://www.w3.org/2000/svg">
<g clip-path="url(#clip0_4532_196745)">
<mask id="mask0_4532_196745" style="mask-type:luminance" maskUnits="userSpaceOnUse" x="0" y="0" width="42" height="42">
<path d="M0 0H42V42H0V0Z" fill="white"/>
</mask>
<g mask="url(#mask0_4532_196745)">
<mask id="mask1_4532_196745" style="mask-type:luminance" maskUnits="userSpaceOnUse" x="0" y="0" width="42" height="42">
<path d="M42 21C42 9.40202 32.598 0 21 0C9.40202 0 0 9.40202 0 21C0 32.598 9.40202 42 21 42C32.598 42 42 32.598 42 21Z" fill="white"/>
</mask>
<g mask="url(#mask1_4532_196745)">
<path d="M42 21C42 9.40202 32.598 0 21 0C9.40202 0 0 9.40202 0 21C0 32.598 9.40202 42 21 42C32.598 42 42 32.598 42 21Z" fill="#F5F5F5"/>
<path d="M21 42C32.5978 42 42 32.5978 42 21C42 9.40217 32.5978 0 21 0C9.40217 0 0 9.40217 0 21C0 32.5978 9.40217 42 21 42Z" fill="#F3F3F3"/>
<path opacity="0.3" d="M21 42C32.5978 42 42 32.5978 42 21C42 9.40217 32.5978 0 21 0C9.40217 0 0 9.40217 0 21C0 32.5978 9.40217 42 21 42Z" fill="url(#paint0_linear_4532_196745)"/>
<path fill-rule="evenodd" clip-rule="evenodd" d="M20.5293 8.0414C13.8909 8.0379 8.53125 13.2564 8.53125 20.2541C8.53125 27.2424 13.8886 32.4807 20.5293 32.4807C21.6586 32.4807 22.7693 32.3209 23.8041 32.0316L25.1014 35.4266C25.2298 35.8151 25.4958 36.0379 25.9846 36.0379H28.0519C28.5407 36.0379 28.9246 35.7019 28.6773 35.0661L27.0031 30.6094C30.3304 28.4872 32.5308 24.7457 32.5308 20.2541C32.5308 13.2517 27.1734 8.03906 20.5328 8.03906M25.7606 27.3311L24.2369 23.3457C24.1086 23.0097 23.8426 22.7192 23.2604 22.7192H21.2864C20.7941 22.7192 20.3997 23.0482 20.6237 23.6701L22.6153 28.9084C21.9345 29.0874 21.2332 29.1764 20.5293 29.1732C15.6561 29.1732 12.2144 25.3186 12.2144 20.2506C12.2144 15.2001 15.6561 11.3314 20.5293 11.3314C25.4059 11.3314 28.8441 15.2001 28.8441 20.2506C28.8441 23.1964 27.6763 25.7292 25.7606 27.3241" fill="#DC8330"/>
</g>
</g>
</g>
<defs>
<linearGradient id="paint0_linear_4532_196745" x1="21.1377" y1="15.3428" x2="21" y2="42" gradientUnits="userSpaceOnUse">
<stop stop-color="white"/>
<stop offset="1" stop-color="#DD924D"/>
</linearGradient>
<clipPath id="clip0_4532_196745">
<rect width="42" height="42" fill="white"/>
</clipPath>
</defs>
</svg>
