<svg width="42" height="42" viewBox="0 0 42 42" fill="none" xmlns="http://www.w3.org/2000/svg">
<g clip-path="url(#clip0_4532_196758)">
<mask id="mask0_4532_196758" style="mask-type:luminance" maskUnits="userSpaceOnUse" x="0" y="0" width="42" height="42">
<path d="M0 0H42V42H0V0Z" fill="white"/>
</mask>
<g mask="url(#mask0_4532_196758)">
<path d="M21 42C32.5978 42 42 32.5978 42 21C42 9.40217 32.5978 0 21 0C9.40217 0 0 9.40217 0 21C0 32.5978 9.40217 42 21 42Z" fill="#222222"/>
<path d="M21.0478 28.7711H21.0163C18.9628 28.7945 16.9838 28.003 15.5127 26.57C14.0417 25.137 13.1986 23.1794 13.1682 21.1259C13.1451 19.0726 13.9367 17.0939 15.3697 15.6231C16.8027 14.1523 18.7601 13.3094 20.8133 13.2789H21C22.0176 13.277 23.0255 13.4756 23.9662 13.8636C24.9069 14.2516 25.7619 14.8213 26.4822 15.5401C27.2025 16.2588 27.7739 17.1126 28.1639 18.0525C28.5539 18.9923 28.7547 19.9999 28.7548 21.0174C28.7548 21.8609 28.6148 22.6893 28.3488 23.4709L31.8348 28.1458C35.7747 22.1736 34.1332 14.1224 28.1458 10.1826C22.1725 6.24278 14.1225 7.88428 10.1827 13.8728C6.24284 19.8601 7.88434 27.8961 13.8717 31.8359C15.4355 32.8662 17.2036 33.5463 19.0547 33.8297C20.9059 34.113 22.7964 33.9928 24.5968 33.4774C24.472 33.3211 21.0478 28.7559 21.0478 28.7711Z" fill="#F3F3F3"/>
<path d="M27.1606 24.7041L27.0043 24.486C26.9728 24.4393 26.911 24.3763 26.8643 24.3133C26.7416 24.1753 26.6107 24.0448 26.4723 23.9225C26.4093 23.8606 26.3475 23.8128 26.2693 23.751L26.1596 23.6576L26.05 23.5631C25.9718 23.5001 25.8936 23.4535 25.8003 23.3916C24.7678 22.7185 23.6735 22.3906 22.3446 22.3906H18.9531C18.9531 22.3906 24.5345 29.848 25.91 31.7391C26.0663 31.9585 26.2378 32.1615 26.4256 32.3493L26.5038 32.4275C26.5656 32.4893 26.6286 32.5371 26.7068 32.599L26.8165 32.6923L26.9261 32.7868C27.0043 32.8498 27.0825 32.8965 27.1758 32.9595C28.2031 33.6279 29.4059 33.9759 30.6315 33.9593H34.023L27.1606 24.7041Z" fill="#4FAFE7"/>
</g>
</g>
<defs>
<clipPath id="clip0_4532_196758">
<rect width="42" height="42" fill="white"/>
</clipPath>
</defs>
</svg>
