<svg xmlns="http://www.w3.org/2000/svg" width="36" height="36" fill="none"><g clip-path="url(#a)"><path fill="#222" d="M18 36c9.941 0 18-8.059 18-18S27.941 0 18 0 0 8.059 0 18s8.059 18 18 18Z"/><path fill="#F3F3F3" d="M18.006 24.643h-.027a6.652 6.652 0 0 1-6.727-6.553 6.652 6.652 0 0 1 6.553-6.726h.16a6.634 6.634 0 0 1 6.647 6.633c0 .723-.12 1.433-.348 2.103l2.988 4.007c3.377-5.119 1.97-12.02-3.162-15.397-5.12-3.377-12.02-1.97-15.397 3.163-3.377 5.132-1.97 12.02 3.162 15.397a11.138 11.138 0 0 0 9.193 1.407c-.107-.134-3.042-4.047-3.042-4.034Z"/><path fill="#4FAFE7" d="m23.26 21.19-.134-.187c-.027-.04-.08-.094-.12-.148a3.952 3.952 0 0 0-.336-.335c-.054-.053-.107-.094-.174-.147l-.094-.08-.094-.081c-.067-.054-.134-.094-.214-.147-.885-.577-1.823-.858-2.962-.858h-2.907s4.784 6.392 5.963 8.013c.134.188.281.362.442.523l.067.067c.053.053.107.094.174.147l.094.08.094.081c.067.054.134.094.214.148a5.299 5.299 0 0 0 2.962.857h2.907L23.26 21.19Z"/></g><defs><clipPath id="a"><path fill="#fff" d="M0 0h36v36H0z"/></clipPath></defs></svg>