<svg xmlns="http://www.w3.org/2000/svg" width="42" height="42" fill="none"><circle cx="21" cy="21" r="20" fill="#EF4F1F"/><path fill="#F3F3F3" d="m13.35 7.808 7.7 9.02 5.167-3.04S19.982 5.45 18.32 6.04c-1.563.595-4.97 1.768-4.97 1.768ZM26.41 13.79s1.173-2.06 1.756-4.809c0 0 5.85 2.352 3.605 8.24l-5.36-3.431Z"/><path fill="#F3F3F3" d="m31.77 17.226.49 6.179 2.24-.292s.583-.198.49-1.272c-.1-1.178-.292-3.63-.292-3.63s.1-.588-1.265-.78c-1.663-.305-1.663-.206-1.663-.206ZM32.254 23.406l-4.486 3.63 2.047 4.02s.49 1.57 1.949-.198c1.365-1.769 1.948-2.06 1.848-3.14-.086-1.08-.384-3.63-1.358-4.312ZM27.675 27.03l-6.142-2.749-5.36 10.889s-.391.781.974.88c1.364.2 3.604.69 4.777-.49 1.172-1.073 5.751-8.53 5.751-8.53ZM21.533 24.186l-.583-7.26-13.259.888s-.782.1-.682 1.57c.099 1.96.291 4.12.291 4.12s-.099.88 1.657.98c1.756.093 12.383.093 12.576-.298Z"/></svg>