<svg width="42" height="42" viewBox="0 0 42 42" fill="none" xmlns="http://www.w3.org/2000/svg">
<g clip-path="url(#clip0_18190_340355)">
<rect width="42" height="42" rx="21" fill="#F5F5F5"/>
<g opacity="0.8">
<path d="M21 42C32.598 42 42 32.598 42 21C42 9.40202 32.598 0 21 0C9.40202 0 0 9.40202 0 21C0 32.598 9.40202 42 21 42Z" fill="#D4A7F7"/>
<path d="M21 42C32.598 42 42 32.598 42 21C42 9.40202 32.598 0 21 0C9.40202 0 0 9.40202 0 21C0 32.598 9.40202 42 21 42Z" fill="url(#paint0_linear_18190_340355)"/>
</g>
<path fill-rule="evenodd" clip-rule="evenodd" d="M34.9091 23.5222L33.0383 22.8714L29.2153 20.4313L25.3923 16.6896V14.1681L22.8708 11.6466V10.5078H21.5694L18.5598 11.0772L16.689 14.1681L15.3062 16.6896L12.7847 19.1298V20.4313L10.9139 22.3021L10.2632 21.6514L5.2201 24.0915L4 24.7423V27.2638L5.38277 27.9145L7.82297 26.6944L10.9952 27.1825V29.6226L12.866 30.2734L15.3876 27.8332H17.2584V29.0533L16.6077 30.2734L17.5024 31.4935L20.4306 30.2734L19.7799 28.5652L20.4306 25.4743H21.6507V26.6944L23.5215 27.3451L24.1722 29.2159L25.4737 30.436L26.7751 29.2159L30.5167 27.9958L29.2966 26.7758L27.9952 24.2542H26.6938L27.3445 26.125L27.9952 26.7758L26.6938 27.9145H25.3923L24.0909 25.4743V24.1729L21.5694 21.7327L22.8708 20.5126L20.3493 18.0724L21.5694 16.8523V14.1681L22.8708 12.948L24.7416 14.8188L24.0909 16.6896L25.3923 17.9097L27.9139 21.6514L30.4354 22.8714L33.6077 26.0437L35.4785 26.6944V27.9145H36.6986L38 26.6944L35.4785 25.4743L34.9091 23.5222Z" fill="#381861"/>
</g>
<defs>
<linearGradient id="paint0_linear_18190_340355" x1="21" y1="0" x2="21" y2="42" gradientUnits="userSpaceOnUse">
<stop stop-color="white" stop-opacity="0"/>
<stop offset="1" stop-color="#8A51D2"/>
</linearGradient>
<clipPath id="clip0_18190_340355">
<rect width="42" height="42" rx="21" fill="white"/>
</clipPath>
</defs>
</svg>
