<svg width="36" height="36" viewBox="0 0 36 36" fill="none" xmlns="http://www.w3.org/2000/svg">
<g clip-path="url(#clip0_646_227603)">
<g clip-path="url(#clip1_646_227603)">
<rect width="36" height="36" rx="18" fill="#F3F3F3"/>
<path d="M18 36C27.9411 36 36 27.9411 36 18C36 8.05887 27.9411 0 18 0C8.05887 0 0 8.05887 0 18C0 27.9411 8.05887 36 18 36Z" fill="#E1C2FA"/>
<path d="M18 36C27.9411 36 36 27.9411 36 18C36 8.05887 27.9411 0 18 0C8.05887 0 0 8.05887 0 18C0 27.9411 8.05887 36 18 36Z" fill="url(#paint0_linear_646_227603)"/>
<path fill-rule="evenodd" clip-rule="evenodd" d="M29.9222 20.161L28.3187 19.6033L25.0418 17.5117L21.765 14.3046V12.1432L19.6037 9.98194V9.00586H18.4882L15.9085 9.4939L14.305 12.1432L13.1198 14.3046L10.9584 16.3962V17.5117L9.35489 19.1152L8.79713 18.5575L4.47451 20.6491L3.42871 21.2068V23.3681L4.61395 23.9259L6.70554 22.8801L9.42461 23.2984V25.39L11.0282 25.9478L13.1895 23.8562H14.793V24.902L14.2353 25.9478L15.0022 26.9936L17.5121 25.9478L16.9543 24.4836L17.5121 21.8343H18.5579V22.8801L20.1615 23.4378L20.7192 25.0414L21.8347 26.0872L22.9502 25.0414L26.1574 23.9956L25.1116 22.9498L23.996 20.7885H22.8805L23.4383 22.3921L23.996 22.9498L22.8805 23.9259H21.765L20.6495 21.8343V20.7188L18.4882 18.6272L19.6037 17.5814L17.4424 15.4898L18.4882 14.444V12.1432L19.6037 11.0975L21.2072 12.701L20.6495 14.3046L21.765 15.3504L23.9263 18.5575L26.0876 19.6033L28.8067 22.3223L30.4103 22.8801V23.9259H31.4561L32.5716 22.8801L30.4103 21.8343L29.9222 20.161Z" fill="#381861"/>
</g>
</g>
<defs>
<linearGradient id="paint0_linear_646_227603" x1="18" y1="0" x2="18" y2="36" gradientUnits="userSpaceOnUse">
<stop stop-color="white" stop-opacity="0"/>
<stop offset="1" stop-color="#9F71DA"/>
</linearGradient>
<clipPath id="clip0_646_227603">
<rect width="36" height="36" fill="white"/>
</clipPath>
<clipPath id="clip1_646_227603">
<rect width="36" height="36" rx="18" fill="white"/>
</clipPath>
</defs>
</svg>
