<svg width="42" height="42" viewBox="0 0 42 42" fill="none" xmlns="http://www.w3.org/2000/svg">
<circle cx="21" cy="21" r="20" fill="#EF4F1F"/>
<path d="M13.3496 7.80781L21.0491 16.8288L26.2172 13.7887C26.2172 13.7887 19.9819 5.4502 18.3192 6.0396C16.7557 6.63521 13.3496 7.80781 13.3496 7.80781Z" fill="#F3F3F3"/>
<path d="M26.4102 13.7897C26.4102 13.7897 27.5828 11.7299 28.166 8.98145C28.166 8.98145 34.0166 11.3329 31.7706 17.2207L26.4102 13.7897Z" fill="#F3F3F3"/>
<path d="M31.77 17.2255L32.2602 23.4049L34.4999 23.1133C34.4999 23.1133 35.0831 22.9147 34.99 21.8414C34.8908 20.6626 34.6984 18.2119 34.6984 18.2119C34.6984 18.2119 34.7977 17.6225 33.4328 17.4302C31.77 17.1262 31.77 17.2255 31.77 17.2255Z" fill="#F3F3F3"/>
<path d="M32.2537 23.4062L27.7681 27.0357L29.8155 31.0561C29.8155 31.0561 30.3056 32.6257 31.7636 30.8575C33.1285 29.0893 33.7117 28.7977 33.6125 27.7182C33.5256 26.6387 33.2278 24.0887 32.2537 23.4062Z" fill="#F3F3F3"/>
<path d="M27.6751 27.0297L21.5329 24.2812L16.1724 35.1697C16.1724 35.1697 15.7816 35.9514 17.1465 36.0507C18.5114 36.2492 20.7512 36.7394 21.9238 35.5606C23.0964 34.4872 27.6751 27.0297 27.6751 27.0297Z" fill="#F3F3F3"/>
<path d="M21.5328 24.1857L20.9496 16.9268L7.69118 17.814C7.69118 17.814 6.90944 17.9132 7.00871 19.3836C7.10798 21.3442 7.30031 23.5033 7.30031 23.5033C7.30031 23.5033 7.20104 24.3843 8.95684 24.4835C10.7126 24.5766 21.3405 24.5766 21.5328 24.1857Z" fill="#F3F3F3"/>
</svg>
