<svg xmlns="http://www.w3.org/2000/svg" width="42" height="42" fill="none"><mask id="a" fill="#fff"><path d="M42 21c0 11.598-9.402 21-21 21S0 32.598 0 21 9.402 0 21 0s21 9.402 21 21Z"/></mask><path fill="#fff" d="M42 21c0 11.598-9.402 21-21 21S0 32.598 0 21 9.402 0 21 0s21 9.402 21 21Z"/><path fill="#408AC9" d="M40 21c0 10.493-8.507 19-19 19v4c12.703 0 23-10.297 23-23h-4ZM21 40C10.507 40 2 31.493 2 21h-4c0 12.703 10.297 23 23 23v-4ZM2 21C2 10.507 10.507 2 21 2v-4C8.297-2-2 8.297-2 21h4ZM21 2c10.493 0 19 8.507 19 19h4C44 8.297 33.703-2 21-2v4Z" mask="url(#a)"/><path fill="#408AC9" d="M4.006 21.105c.023-.485.035-.975.076-1.459.262-3.15 1.33-6.003 3.173-8.564a15.972 15.972 0 0 1 2.001-2.299C13.883 4.385 20.825 2.868 26.84 5.08a14.379 14.379 0 0 1-3.973 3.535C23 7.5 21 6.5 22.5 6c-4.574-.782-8.582.718-11.78 3.623a15.692 15.692 0 0 0-3.692 5.082 15.68 15.68 0 0 0-1.021 3.057 11.75 11.75 0 0 0-.251 3.22c.193-.093.327-.233.49-.373.56-.479 1.12-.957 1.692-1.43.17-.14.315-.326.537-.396.04.536.122 1.061.245 1.586.058.24.064.245.256.082.222-.186.432-.38.677-.53.076.14.18.262.286.384.752.87 1.727 1.336 2.823 1.581.391.088.788.164 1.226.181-.123-.146-.222-.257-.31-.38-.402-.547-.315-1.055.251-1.434a2.06 2.06 0 0 1 .508-.251c1.36-.484 2.754-.45 4.154-.274a9.836 9.836 0 0 1 3.377 1.032c.018.018.041.03.059.047h-.006c.023.1.105.158.18.216.07.093.147.18.217.274.95 1.254 1.19 2.614.566 4.084-.514 1.202-1.4 2.082-2.486 2.77-2.246 1.419-4.696 1.862-7.292 1.395-2.654-.478-4.766-1.89-6.487-3.932-1.097-1.3-1.926-2.771-2.59-4.329-.036-.076-.041-.157-.123-.18Z"/><path fill="#408AC9" stroke="#408AC9" stroke-width=".1" d="M23.445 5.954a.202.202 0 0 0-.146-.117c-2.888-.315-5.77-.04-8.454 1.12-4.58 1.978-7.951 6.3-8.92 11.178-.18.916-.332 1.855-.274 2.794.006.135.117.1.193.036.14-.117.268-.24.408-.356.56-.479 1.12-.957 1.692-1.43.169-.14.315-.326.537-.396.011-.426-.012-.846.058-1.266.03-.111.058-.222.087-.339.105-.455.292-.875.508-1.283a7.69 7.69 0 0 1 1.313-1.57c.233-.21.49-.402.729-.606.046-.041.105-.07.157-.041.059.035.018.105.006.157-.029.117-.064.24-.093.356-.047.298-.088.59.146.84.099.17.262.222.437.245.304.041.595-.035.87-.151.793-.315 1.429-.852 2.018-1.453.082-.082.134-.175.28-.064.402.303.852.28 1.348.17-.485-.094-.875-.27-1.15-.666-.227-.332-.21-.694-.192-1.068.204-.758.7-1.271 1.383-1.61.268-.134.56-.239.84-.355.035-.006.07-.012.105-.024 1.09-.432 2.146-.922 3.103-1.604.554-.397 1.062-.834 1.424-1.424.07-.116.122-.32.204-.338.157-.023.146.216.262.303.321-.326.683-.595 1.021-.898.047-.035.129-.064.1-.14Zm-3.64-.158a.289.289 0 0 1-.053.123.369.369 0 0 0 .052-.123Z"/><path fill="#262F71" stroke="#262F71" stroke-width=".1" d="M21.968 20.76a9.833 9.833 0 0 0-3.377-1.033c-1.4-.175-2.795-.21-4.154.275a2.28 2.28 0 0 0-.508.25c-.566.38-.653.887-.25 1.436.087.122.186.233.309.379a6.732 6.732 0 0 1-1.226-.181c-1.096-.245-2.07-.712-2.823-1.581a2.27 2.27 0 0 1-.286-.385c.012-.047.035-.088.088-.088.017-.011.029-.023.046-.035l.012-.005.07-.053-.006.006c.04 0 .082-.006.082-.064l-.006.005c.087.024.152-.035.222-.07.332-.157.665-.332 1.003-.484 1.523-.67 3.127-.95 4.772-1.003.508-.018 1.015.04 1.517.082.735.058 1.464.18 2.182.344.922.204 1.82.484 2.707.81.04.018.082.047.122.007.041-.041 0-.082-.023-.117a7.966 7.966 0 0 0-.292-.484c-.198-.286-.408-.56-.612-.84.268.058.53.122.828.186-.175-.338-.397-.6-.63-.857-.18-.199-.367-.385-.554-.578.122-.11.245-.012.367 0 .84.076 1.663.245 2.462.502 1.424.455 2.736 1.126 3.915 2.06a12.7 12.7 0 0 1 2.538 2.677c.624.893 1.125 1.85 1.499 2.876.367.998.6 2.036.66 3.092.052.922.022 1.844-.164 2.754a9.363 9.363 0 0 1-1.651 3.733c-.076.105-.216.181-.222.339l.006-.006c-.018.023-.04.04-.058.064-.49.49-1.033.91-1.616 1.283-1.506.963-3.168 1.506-4.918 1.786a18.245 18.245 0 0 1-5.134.093 16.78 16.78 0 0 1-7.55-2.9c-.483-.332-.962-.676-1.382-1.09.064-.03.11.005.158.04.134.1.268.199.402.292a11.19 11.19 0 0 0 3.191 1.505c.695.204 1.4.345 2.13.374.035.046.087.04.14.04.513.03 1.02.047 1.54.012.712-.052 1.412-.14 2.1-.303a12.895 12.895 0 0 0 3.104-1.179 11.815 11.815 0 0 0 2.397-1.68c.776-.706 1.447-1.505 1.966-2.427a7.08 7.08 0 0 0 .934-3.05c.046-.62-.041-1.232-.193-1.833a6.386 6.386 0 0 0-.466-1.23c-.035.087-.059.128-.07.174-.094.537-.345.998-.671 1.424-.07.099-.204.152-.216.291l-.362.345c-.397.361-.81.7-1.295.927.012-.064.012-.128.03-.192.116-.455.22-.916.273-1.383.03-.35.047-.7.012-1.056a5.027 5.027 0 0 0-.467-1.727c-.455-.956-1.172-1.68-2.047-2.246-.158-.105-.304-.245-.514-.256h.006c-.006-.018-.03-.03-.047-.047Z"/><path fill="#161F42" d="M25.043 26.098c-.053.467-.158.928-.274 1.383-.018.064-.018.128-.03.192-.005.006-.005.012-.011.018.006-.006.006-.012.011-.018.49-.227.905-.565 1.296-.927.122-.111.239-.228.361-.344.175.606.28 1.213.234 1.855a5.779 5.779 0 0 1-.595 2.14c-.607 1.238-1.517 2.224-2.579 3.081a12.359 12.359 0 0 1-3.564 2.007c-1.313.478-2.667.73-4.067.665a8.815 8.815 0 0 1-2.13-.373 11.187 11.187 0 0 1-3.19-1.505c-.14-.094-.269-.193-.403-.292-.046-.035-.093-.076-.157-.041.006-.035-.006-.047-.041-.04h-.006c-.006-.112-.058-.158-.17-.13l-.005-.005c.006-.035-.006-.047-.04-.04h-.007c.012-.053-.023-.065-.064-.065-1.342-1.167-2.433-2.538-3.325-4.072a16.838 16.838 0 0 1-2.124-6.131A17.624 17.624 0 0 1 4 21.105c.088.023.093.104.117.169.67 1.557 1.493 3.027 2.59 4.328 1.72 2.042 3.833 3.454 6.487 3.932 2.596.467 5.046.024 7.293-1.394 1.085-.682 1.977-1.57 2.485-2.771.624-1.464.39-2.83-.566-4.084-.07-.093-.14-.18-.216-.274.082-.082.117.012.152.047.233.239.484.455.688.723.945 1.26 1.266 2.655.934 4.2-.076.356-.21.7-.397 1.086.607-.24 1.038-.607 1.476-.969Z"/><path fill="#408AC9" d="M28.415 5.755c.997.467 1.92 1.05 2.8 1.704a16.368 16.368 0 0 1 2.351 2.14 16.838 16.838 0 0 1 3.372 5.531 16.859 16.859 0 0 1 1.056 5.496 16.92 16.92 0 0 1-.496 4.562c-.012.058.006.163-.087.146-.082-.012-.035-.11-.041-.17a12.631 12.631 0 0 0-1.377-5.005 12.999 12.999 0 0 0-2.439-3.29c-.402-.397-.851-.747-1.289-1.097.123.012.245.024.368.041 1.12.14 2.216.385 3.26.834.292.123.864.397.864.397s-.256-.368-.291-.414a17.817 17.817 0 0 0-5.1-3.985 17.144 17.144 0 0 0-5.15-1.75c-.386-.064-.777-.105-1.167-.157.723-.613 1.394-1.272 1.948-2.048a10.58 10.58 0 0 0 1.418-2.935Z"/><path fill="#192144" d="M30.602 34.727c.006-.158.14-.234.222-.339a9.397 9.397 0 0 0 1.651-3.733c.187-.91.222-1.832.163-2.754a11 11 0 0 0-.659-3.092 12.275 12.275 0 0 0-1.5-2.876 12.703 12.703 0 0 0-2.537-2.678 12.29 12.29 0 0 0-3.914-2.06c-.8-.256-1.622-.425-2.462-.501-.123-.012-.245-.11-.368 0-.198-.082-.344-.245-.513-.362a9.085 9.085 0 0 0-1.29-.752 13.823 13.823 0 0 1 2.025-.012c1.78.117 3.488.52 5.075 1.336 3.588 1.843 5.828 4.76 6.651 8.704.554 2.655.18 5.192-1.26 7.532a7.433 7.433 0 0 1-1.284 1.587Z"/><path fill="#1A2345" d="M28.415 5.755a10.327 10.327 0 0 1-1.423 2.93c-.549.775-1.225 1.434-1.949 2.047-.402.268-.805.548-1.213.81-.759.48-1.57.858-2.398 1.19-.03.013-.064.018-.1.03-.023-.053.007-.076.03-.1.583-.553.95-1.236 1.19-1.994.035-.111.082-.17.187-.21 1.78-.706 3.197-1.879 4.352-3.384.11-.14.221-.274.309-.443a.257.257 0 0 0 .012-.047s-.024.012-.041.012l-1.161.344a12.52 12.52 0 0 0 2.724-5.07 15.306 15.306 0 0 1-.186 2.31c-.07.531-.216 1.05-.333 1.575Z"/><path fill="#192144" d="M21.554 17.936c.204.28.414.555.613.84.105.152.198.321.291.485.018.035.059.076.024.116-.035.041-.082.006-.123-.005a20.919 20.919 0 0 0-2.707-.811 15.312 15.312 0 0 0-2.182-.345c-.507-.04-1.009-.099-1.516-.081-1.652.058-3.256.338-4.773 1.003-.338.152-.665.327-1.003.484-.07.035-.134.094-.222.07.881-.653 1.85-1.137 2.876-1.51 1.686-.613 3.437-.829 5.222-.753 1.114.047 2.21.198 3.296.443.07.018.134.041.204.064Z"/><path fill="#1D2648" d="M19.454 11.006c.28-.134.56-.268.834-.414.21-.111.403-.251.607-.432-.041.286-.134.513-.228.747-.536 1.312-1.546 1.983-2.928 2.146-.304.035-.607.065-.916.035.268-.081.542-.151.805-.25.892-.327 1.563-.875 1.826-1.832Z"/><path fill="#408AC9" d="M19.454 11.006c-.263.957-.934 1.505-1.82 1.832-.263.1-.537.17-.805.25-.117-.326.005-.606.204-.85.18-.229.42-.398.682-.526.555-.286 1.144-.496 1.739-.706Zm-7.958 5.688a.703.703 0 0 1-.029.222.56.56 0 0 1-.099.169c.023-.111 0-.234-.082-.31a.32.32 0 0 0-.186-.081.533.533 0 0 0-.234.023c-.326.082-.595.315-.799.578a1.444 1.444 0 0 1-.017.017c-.03.006 0-.245.005-.28.012-.076.111-.116.14-.175.111-.18.205-.21.368-.344.157-.128.315-.257.537-.268.256-.018.361.081.367.338 0 .093-.011.018.03.11Z"/><path fill="#1D2648" d="M11.461 16.933c.03-.292.024-.712-.367-.688-.216.011-.38.14-.537.268a1.742 1.742 0 0 0-.402.45c-.035.052-.129.215-.129.168.041-.496.601-1.143 1.074-1.242.25-.053.443.081.478.338.041.245-.035.478-.117.706Z"/><path fill="#262F71" d="M9.729 33.775c.11-.029.163.018.17.129a.365.365 0 0 1-.17-.129Z"/><path fill="#192144" d="M9.957 19.687c-.006.053-.041.059-.082.064.03-.023.058-.04.082-.064Zm-.077.058-.07.053c.006-.041.042-.041.07-.053Z"/><path fill="#262F71" d="M9.624 33.659c.04.006.076.012.064.065a.336.336 0 0 1-.064-.065Z"/><path fill="#192144" d="M30.55 34.785c.017-.023.04-.041.058-.064a.092.092 0 0 1-.058.064ZM9.793 19.81c-.017.011-.03.023-.047.035a.193.193 0 0 1 .047-.036Z"/><path fill="#1A2345" d="M21.268 12.762c.006.006.012.012.012.018-.006.005-.012.011-.018.011-.005 0-.011-.006-.017-.011.012-.012.017-.018.023-.018Z"/><path fill="#262F71" d="M9.688 33.729c.035-.006.047.006.041.041a.137.137 0 0 1-.04-.041Zm.216.175c.035-.006.047.006.041.04-.012-.01-.023-.023-.041-.04Z"/><path fill="#101F64" d="M25.043 26.098c-.438.362-.87.73-1.465.986.187-.385.321-.73.397-1.085.338-1.54.012-2.94-.933-4.2-.205-.269-.461-.485-.689-.724-.035-.04-.076-.128-.151-.047-.076-.058-.152-.116-.181-.215.21.011.356.157.513.256.881.566 1.599 1.29 2.048 2.246a5.315 5.315 0 0 1 .46 2.783Z"/><path fill="#0E1F65" d="M21.968 20.76c.018.018.042.03.06.047-.018-.018-.042-.03-.06-.047Z"/><path fill="#101F64" d="M15.825 36.162c1.4.064 2.754-.187 4.067-.665a12.36 12.36 0 0 0 3.564-2.007c1.062-.858 1.972-1.844 2.579-3.08a5.783 5.783 0 0 0 .595-2.141c.047-.642-.053-1.249-.233-1.856.011-.14.145-.198.215-.291.321-.432.578-.887.671-1.424.006-.047.035-.087.07-.175.204.42.362.817.467 1.231.152.601.24 1.214.192 1.832a7.241 7.241 0 0 1-.933 3.051 9.89 9.89 0 0 1-1.966 2.427c-.723.66-1.529 1.22-2.398 1.68a12.9 12.9 0 0 1-3.103 1.179c-.689.163-1.389.25-2.1.303-.52.04-1.027.017-1.54-.012-.06-.017-.112-.011-.147-.052Z"/><path fill="#262F71" d="M24.74 27.668c-.006.006-.006.012-.012.018.006 0 .006-.006.012-.018 0 .006 0 0 0 0Z"/><path fill="#1D2648" d="M36.471 16.799s-.064-.059-.116-.1a22.575 22.575 0 0 0-4.031-2.566c-.07-.035-.14-.094-.245-.094.186.321.367.63.577.998-.128-.059-.192-.082-.25-.117a12.871 12.871 0 0 0-2.317-.921 13.122 13.122 0 0 0-3.074-.543l-.595-.035c.245.064.577.122.793.157 1.354.257 2.62.736 3.821 1.406.426.24.811.531 1.231.776.123.012.245.024.368.041 1.12.14 2.217.385 3.26.834.293.123.578.269.864.397h.006l-.291-.233Z"/></svg>