<svg width="42" height="42" viewBox="0 0 42 42" fill="none" xmlns="http://www.w3.org/2000/svg">
<mask id="path-1-inside-1_2842_245522" fill="white">
<path d="M42 21C42 32.598 32.598 42 21 42C9.40202 42 0 32.598 0 21C0 9.40202 9.40202 0 21 0C32.598 0 42 9.40202 42 21Z"/>
</mask>
<path d="M42 21C42 32.598 32.598 42 21 42C9.40202 42 0 32.598 0 21C0 9.40202 9.40202 0 21 0C32.598 0 42 9.40202 42 21Z" fill="white"/>
<path d="M40 21C40 31.4934 31.4934 40 21 40V44C33.7025 44 44 33.7025 44 21H40ZM21 40C10.5066 40 2 31.4934 2 21H-2C-2 33.7025 8.29745 44 21 44V40ZM2 21C2 10.5066 10.5066 2 21 2V-2C8.29745 -2 -2 8.29745 -2 21H2ZM21 2C31.4934 2 40 10.5066 40 21H44C44 8.29745 33.7025 -2 21 -2V2Z" fill="#408AC9" mask="url(#path-1-inside-1_2842_245522)"/>
<path d="M4.00586 21.1045C4.02919 20.6203 4.04086 20.1303 4.0817 19.6461C4.34423 16.4958 5.41183 13.643 7.25534 11.0819C7.85039 10.2535 8.51546 9.48342 9.25636 8.78335C13.8826 4.3846 20.825 2.86779 26.8397 5.07883C25.7488 6.49063 24.3953 7.69825 22.8668 8.61417C23 7.49976 21 6.49976 22.5 5.99976C17.9262 5.21801 13.9176 6.71815 10.7207 9.62343C9.18636 11.0177 7.89707 12.7854 7.02782 14.7048C6.58444 15.6848 6.24024 16.7116 6.00688 17.7617C5.82603 18.5726 5.68019 19.6869 5.75603 20.982C5.94855 20.8887 6.08272 20.7487 6.24607 20.6087C6.80613 20.1303 7.36618 19.6519 7.9379 19.1793C8.10709 19.0393 8.25293 18.8526 8.47462 18.7826C8.51546 19.3194 8.59713 19.8444 8.71964 20.3695C8.77798 20.6087 8.78382 20.6145 8.97634 20.4511C9.19802 20.2645 9.40804 20.0719 9.65307 19.9203C9.72891 20.0603 9.83392 20.1828 9.93893 20.3053C10.6915 21.1745 11.6658 21.6413 12.7625 21.8863C13.1534 21.9738 13.5501 22.0496 13.9876 22.0671C13.8651 21.9213 13.766 21.8104 13.6785 21.6879C13.2759 21.1395 13.3634 20.632 13.9293 20.2528C14.0868 20.1478 14.256 20.0603 14.4369 20.0019C15.7962 19.5177 17.1905 19.5527 18.5906 19.7277C19.7749 19.8736 20.9066 20.2061 21.9684 20.7603C21.9859 20.7778 22.0093 20.7895 22.0268 20.807H22.0209C22.0443 20.9062 22.1259 20.9645 22.2018 21.0229C22.2718 21.1162 22.3476 21.2037 22.4176 21.2971C23.3685 22.5513 23.6077 23.9106 22.9835 25.3808C22.4701 26.5826 21.5834 27.4635 20.4983 28.1519C18.2522 29.5695 15.802 30.0129 13.2059 29.5462C10.5515 29.0678 8.43962 27.656 6.71862 25.6141C5.62185 24.3132 4.79344 22.843 4.12837 21.2854C4.09337 21.2095 4.08753 21.1279 4.00586 21.1045Z" fill="#408AC9"/>
<path d="M23.4445 5.95389C23.4212 5.90139 23.3686 5.84888 23.2986 5.83721C20.4109 5.52218 17.5289 5.79638 14.8453 6.95732C10.2657 8.93501 6.89373 13.2579 5.92531 18.1351C5.74446 19.051 5.59278 19.9902 5.65112 20.9295C5.65695 21.0637 5.76779 21.0287 5.84363 20.9645C5.98365 20.8478 6.11199 20.7253 6.25201 20.6086C6.81206 20.1303 7.37211 19.6519 7.94384 19.1793C8.11302 19.0393 8.25887 18.8526 8.48055 18.7826C8.49222 18.3567 8.46889 17.9367 8.53889 17.5167C8.56806 17.4058 8.59723 17.295 8.6264 17.1783C8.73141 16.7233 8.9181 16.3032 9.13395 15.8948C9.50148 15.3115 9.93903 14.7922 10.4466 14.3255C10.6799 14.1155 10.9366 13.923 11.1758 13.7188C11.2225 13.678 11.2808 13.6488 11.3333 13.678C11.3917 13.713 11.3508 13.783 11.3392 13.8355C11.31 13.9522 11.275 14.0747 11.2458 14.1913C11.1991 14.4889 11.1583 14.7806 11.3917 15.0314C11.4908 15.2006 11.6542 15.2531 11.8292 15.2765C12.1326 15.3173 12.4243 15.2414 12.6985 15.1248C13.4919 14.8097 14.1278 14.273 14.717 13.6721C14.7987 13.5905 14.8512 13.4971 14.997 13.608C15.3995 13.9113 15.8488 13.888 16.3446 13.7771C15.8604 13.6838 15.4696 13.5088 15.1954 13.1121C14.9678 12.7795 14.9853 12.4178 15.0028 12.0445C15.207 11.2861 15.7029 10.7727 16.3855 10.4343C16.6538 10.3001 16.9455 10.1951 17.2256 10.0785C17.2606 10.0726 17.2956 10.0668 17.3306 10.0551C18.4215 9.62341 19.4774 9.13336 20.4342 8.4508C20.9884 8.05409 21.496 7.61655 21.8577 7.02733C21.9277 6.91065 21.9802 6.70646 22.0619 6.68896C22.2194 6.66563 22.2077 6.90482 22.3244 6.99232C22.6452 6.66563 23.0069 6.39727 23.3453 6.0939C23.392 6.0589 23.4737 6.02973 23.4445 5.95389ZM19.8041 5.79638C19.7983 5.84305 19.775 5.88388 19.7516 5.91889C19.775 5.87805 19.7983 5.83721 19.8041 5.79638Z" fill="#408AC9" stroke="#408AC9" stroke-width="0.1"/>
<path d="M21.9684 20.76C20.9067 20.2058 19.7749 19.8732 18.5906 19.7274C17.1905 19.5524 15.7962 19.5174 14.4369 20.0016C14.256 20.0657 14.0868 20.1474 13.9293 20.2524C13.3634 20.6316 13.2759 21.1392 13.6785 21.6876C13.766 21.8101 13.8651 21.9209 13.9877 22.0668C13.5501 22.0493 13.1534 21.9734 12.7625 21.8859C11.6658 21.6409 10.6915 21.1742 9.93894 20.3049C9.83393 20.1824 9.72892 20.0599 9.65308 19.9199C9.66474 19.8732 9.68808 19.8324 9.74058 19.8324C9.75809 19.8207 9.76976 19.8091 9.78726 19.7974L9.79892 19.7916C9.82226 19.7741 9.8456 19.7566 9.86893 19.739L9.8631 19.7449C9.90393 19.7449 9.94477 19.739 9.94477 19.6807L9.93894 19.6865C10.0264 19.7099 10.0906 19.6515 10.1606 19.6165C10.4932 19.459 10.8257 19.284 11.1641 19.1323C12.6867 18.4614 14.291 18.1814 15.9362 18.1289C16.4437 18.1114 16.9513 18.1697 17.453 18.2106C18.1881 18.2689 18.9173 18.3914 19.6349 18.5548C20.5566 18.759 21.455 19.039 22.3418 19.3657C22.3826 19.3832 22.4235 19.4123 22.4643 19.3715C22.5051 19.3307 22.4643 19.2898 22.441 19.2548C22.3476 19.0915 22.2543 18.9281 22.1493 18.7706C21.9509 18.4848 21.7409 18.2106 21.5367 17.9305C21.8051 17.9889 22.0676 18.0531 22.3651 18.1172C22.1901 17.7789 21.9684 17.5163 21.7351 17.2596C21.5542 17.0613 21.3675 16.8746 21.1808 16.6821C21.3034 16.5712 21.4259 16.6704 21.5484 16.6821C22.3885 16.7579 23.211 16.9271 24.0103 17.1838C25.4338 17.6388 26.7464 18.3097 27.9248 19.2432C28.8991 20.0132 29.7508 20.9058 30.4626 21.9209C31.0868 22.8135 31.5885 23.7703 31.9619 24.797C32.3294 25.7946 32.5628 26.8331 32.6211 27.889C32.6736 28.8108 32.6444 29.7325 32.4578 30.6426C32.1777 32.0077 31.6352 33.2562 30.8068 34.3763C30.7309 34.4813 30.5909 34.5571 30.5851 34.7147L30.5909 34.7088C30.5734 34.7322 30.5501 34.7497 30.5326 34.773C30.0425 35.263 29.5 35.6831 28.9166 36.0564C27.4114 37.019 25.7488 37.5616 23.9986 37.8416C22.2951 38.11 20.58 38.1508 18.8648 37.935C16.1112 37.5849 13.5968 36.6165 11.3157 35.0355C10.8315 34.703 10.3531 34.3588 9.9331 33.9446C9.99728 33.9154 10.0439 33.9504 10.0906 33.9854C10.2248 34.0846 10.359 34.1838 10.4932 34.2771C11.4791 34.948 12.5409 35.4497 13.6843 35.7823C14.3785 35.9864 15.0844 36.1265 15.8137 36.1556C15.8487 36.2023 15.9012 36.1965 15.9537 36.1965C16.4671 36.2256 16.9746 36.2431 17.4938 36.2081C18.2056 36.1556 18.9056 36.0681 19.594 35.9048C20.6791 35.6481 21.7117 35.2514 22.6977 34.7263C23.5669 34.2596 24.372 33.7054 25.0954 33.0462C25.8713 32.3403 26.5422 31.541 27.0614 30.6193C27.604 29.6683 27.919 28.6532 27.9948 27.5681C28.0415 26.9497 27.954 26.3372 27.8023 25.7363C27.6973 25.3221 27.5398 24.9254 27.3356 24.5053C27.3006 24.5928 27.2773 24.6337 27.2656 24.6804C27.1723 25.2171 26.9214 25.678 26.5947 26.1038C26.5247 26.203 26.3905 26.2555 26.3788 26.3955C26.2563 26.5122 26.1397 26.623 26.0171 26.7397C25.6204 27.1014 25.2062 27.4398 24.722 27.6673C24.7337 27.6031 24.7337 27.539 24.7512 27.4748C24.8679 27.0197 24.9729 26.5589 25.0254 26.0922C25.0546 25.7421 25.0721 25.3921 25.0371 25.0362C24.9787 24.4295 24.8329 23.8519 24.5703 23.3094C24.1153 22.3526 23.3977 21.6292 22.5226 21.0633C22.3651 20.9583 22.2193 20.8183 22.0093 20.8067H22.0151C22.0093 20.7891 21.9859 20.7775 21.9684 20.76Z" fill="#262F71" stroke="#262F71" stroke-width="0.1"/>
<path d="M25.0428 26.0983C24.9903 26.565 24.8853 27.0259 24.7687 27.4809C24.7512 27.5451 24.7512 27.6092 24.7395 27.6734C24.7337 27.6792 24.7337 27.6851 24.7278 27.6909C24.7337 27.6851 24.7337 27.6792 24.7395 27.6734C25.2295 27.4459 25.6437 27.1075 26.0346 26.7458C26.1571 26.635 26.2738 26.5183 26.3963 26.4016C26.5713 27.0083 26.6763 27.6151 26.6297 28.2568C26.5713 29.0152 26.3671 29.7269 26.0346 30.3978C25.4279 31.6346 24.5178 32.6206 23.456 33.4781C22.3826 34.3474 21.1866 35.0124 19.8915 35.485C18.5789 35.9634 17.2254 36.2142 15.8253 36.1501C15.1019 36.1209 14.3902 35.9809 13.6959 35.7767C12.5525 35.4442 11.4907 34.9424 10.5048 34.2715C10.3648 34.1782 10.2364 34.079 10.1023 33.9798C10.0556 33.9448 10.0089 33.904 9.94474 33.939C9.95057 33.904 9.9389 33.8923 9.9039 33.8982H9.89807C9.89223 33.7873 9.83973 33.7407 9.72888 33.7698L9.72305 33.764C9.72888 33.729 9.71721 33.7173 9.68221 33.7232H9.67638C9.68805 33.6707 9.65304 33.659 9.61221 33.659C8.27041 32.4922 7.17947 31.1212 6.28689 29.5869C5.17845 27.6851 4.47838 25.6374 4.16335 23.4555C4.05251 22.6738 4.00583 21.892 4 21.1045C4.08751 21.1278 4.09334 21.2095 4.11668 21.2736C4.78758 22.8313 5.61015 24.3014 6.70693 25.6024C8.42792 27.6442 10.5398 29.056 13.1942 29.5344C15.7903 30.0011 18.2405 29.5578 20.4866 28.1401C21.5717 27.4576 22.4643 26.5708 22.9718 25.369C23.596 23.9047 23.3627 22.5396 22.4059 21.2853C22.3359 21.192 22.2659 21.1044 22.1901 21.0111C22.2718 20.9294 22.3068 21.0228 22.3418 21.0578C22.5751 21.297 22.826 21.5128 23.0302 21.7812C23.9752 23.0413 24.2961 24.4356 23.9636 25.9816C23.8877 26.3375 23.7536 26.6817 23.5669 27.0667C24.1736 26.8275 24.6053 26.46 25.0428 26.0983Z" fill="#161F42"/>
<path d="M28.4147 5.75537C29.4123 6.22208 30.3341 6.80547 31.215 7.45887C32.0726 8.09476 32.8485 8.81233 33.5661 9.59991C35.042 11.2217 36.1738 13.0652 36.9381 15.1304C37.5973 16.9039 37.9473 18.7358 37.994 20.626C38.0348 22.1719 37.8715 23.6888 37.4981 25.1881C37.4864 25.2464 37.5039 25.3514 37.4106 25.3339C37.3289 25.3223 37.3756 25.2231 37.3698 25.1647C37.2531 23.4029 36.8039 21.7344 35.993 20.1593C35.3571 18.9283 34.5345 17.8374 33.5544 16.8689C33.1519 16.4722 32.7027 16.1222 32.2651 15.7722C32.3876 15.7838 32.5101 15.7955 32.6326 15.813C33.7528 15.953 34.8495 16.198 35.8938 16.6473C36.1855 16.7698 36.7572 17.044 36.7572 17.044C36.7572 17.044 36.5005 16.6764 36.4655 16.6297C35.007 14.9904 33.3094 13.6603 31.3667 12.6452C29.739 11.7935 28.0297 11.1984 26.2154 10.895C25.8303 10.8309 25.4395 10.79 25.0486 10.7375C25.772 10.125 26.4429 9.46573 26.9971 8.68982C27.6272 7.78557 28.088 6.80547 28.4147 5.75537Z" fill="#408AC9"/>
<path d="M30.6024 34.7265C30.6083 34.569 30.7424 34.4932 30.8241 34.3881C31.6525 33.2622 32.1951 32.0196 32.4751 30.6545C32.6618 29.7444 32.6968 28.8226 32.6384 27.9009C32.5743 26.8391 32.3409 25.8065 31.9792 24.8089C31.6058 23.788 31.11 22.8254 30.4799 21.9328C29.7682 20.9177 28.9164 20.0251 27.9422 19.255C26.7637 18.3274 25.4569 17.6507 24.0276 17.1957C23.2284 16.939 22.4058 16.7698 21.5657 16.694C21.4432 16.6823 21.3207 16.5831 21.1982 16.694C20.9998 16.6123 20.854 16.4489 20.6848 16.3322C20.2881 16.0522 19.8739 15.813 19.3955 15.5797C20.1014 15.5213 20.7606 15.5272 21.4199 15.568C23.1992 15.6847 24.9085 16.0872 26.4954 16.904C30.0832 18.7475 32.3234 21.6644 33.146 25.6081C33.7002 28.2626 33.3268 30.8003 31.8859 33.1397C31.53 33.7173 31.11 34.2598 30.6024 34.7265Z" fill="#192144"/>
<path d="M28.4151 5.75549C28.0884 6.80559 27.6276 7.78568 26.9917 8.6841C26.4433 9.46001 25.7666 10.1192 25.0432 10.7318C24.6406 11.0002 24.2381 11.2802 23.8297 11.5427C23.0713 12.0211 22.2604 12.4003 21.432 12.7328C21.4028 12.7445 21.3678 12.7503 21.3328 12.762C21.3095 12.7095 21.3386 12.6862 21.362 12.6628C21.9454 12.1086 22.3129 11.426 22.5521 10.6676C22.5871 10.5568 22.6338 10.4984 22.7388 10.4576C24.5181 9.75171 25.9357 8.57909 27.0909 7.07395C27.2017 6.93394 27.3125 6.79976 27.4 6.63057C27.4059 6.61891 27.4117 6.5839 27.4117 6.5839C27.4117 6.5839 27.3884 6.59557 27.3709 6.59557C26.9975 6.70641 26.6241 6.81726 26.2099 6.93977C27.5284 5.43463 28.4268 3.75446 28.9344 1.87012C28.9285 2.64602 28.8702 3.4161 28.7477 4.18034C28.6777 4.71122 28.5318 5.23044 28.4151 5.75549Z" fill="#1A2345"/>
<path d="M21.5541 17.9364C21.7583 18.2164 21.9683 18.4906 22.1666 18.7765C22.2716 18.9282 22.365 19.0974 22.4583 19.2607C22.4758 19.2957 22.5167 19.3366 22.4817 19.3774C22.4467 19.4182 22.4 19.3832 22.3592 19.3716C21.4724 19.0449 20.574 18.7648 19.6522 18.5606C18.9347 18.3973 18.2054 18.2748 17.4704 18.2164C16.9628 18.1756 16.4611 18.1173 15.9535 18.1348C14.3025 18.1931 12.6982 18.4731 11.1814 19.1382C10.8431 19.2899 10.5164 19.4649 10.178 19.6224C10.108 19.6574 10.0438 19.7158 9.9563 19.6924C10.8372 19.039 11.8056 18.5548 12.8324 18.1814C14.5184 17.5689 16.2686 17.353 18.0537 17.4289C19.168 17.4755 20.2648 17.6272 21.3499 17.8722C21.4199 17.8898 21.4841 17.9131 21.5541 17.9364Z" fill="#192144"/>
<path d="M19.4538 11.0058C19.7339 10.8716 20.0139 10.7375 20.2881 10.5916C20.4981 10.4808 20.6906 10.3408 20.8948 10.1599C20.854 10.4458 20.7606 10.6733 20.6673 10.9067C20.1306 12.2193 19.1213 12.8902 17.7387 13.0535C17.4353 13.0885 17.132 13.1177 16.8228 13.0885C17.0911 13.0069 17.3653 12.9368 17.6278 12.8377C18.5204 12.511 19.1913 11.9626 19.4538 11.0058Z" fill="#1D2648"/>
<path d="M19.4539 11.0061C19.1913 11.9629 18.5204 12.5112 17.6337 12.8379C17.3712 12.9371 17.097 13.0071 16.8286 13.0888C16.7119 12.7621 16.8345 12.4821 17.0328 12.2371C17.2137 12.0095 17.4528 11.8404 17.7154 11.712C18.2696 11.4261 18.8588 11.2161 19.4539 11.0061Z" fill="#408AC9"/>
<path d="M11.4964 16.6938C11.5081 16.723 11.4789 16.8922 11.4673 16.9155C11.4439 16.9739 11.4148 17.0322 11.3681 17.0847C11.3914 16.9739 11.3681 16.8514 11.2864 16.7755C11.2339 16.7288 11.1697 16.6997 11.0997 16.6938C11.0239 16.6822 10.9422 16.6938 10.8664 16.7172C10.5397 16.7988 10.2713 17.0322 10.0671 17.2947C10.0613 17.3006 10.0555 17.3064 10.0496 17.3122C10.0205 17.3181 10.0496 17.0672 10.0555 17.0322C10.0671 16.9564 10.1663 16.9155 10.1955 16.8572C10.3063 16.6763 10.3997 16.6472 10.563 16.513C10.7205 16.3846 10.878 16.2563 11.0997 16.2446C11.3564 16.2271 11.4614 16.3263 11.4673 16.583C11.4673 16.6763 11.4556 16.6005 11.4964 16.6938Z" fill="#408AC9"/>
<path d="M11.4615 16.933C11.4907 16.6413 11.4848 16.2212 11.094 16.2446C10.8781 16.2562 10.7148 16.3846 10.5572 16.5129C10.3939 16.6471 10.2656 16.7813 10.1547 16.9621C10.1197 17.0146 10.0264 17.178 10.0264 17.1313C10.0672 16.6354 10.6273 15.9879 11.0998 15.8887C11.3507 15.8362 11.5432 15.9704 11.5782 16.2271C11.619 16.4721 11.5432 16.7054 11.4615 16.933Z" fill="#1D2648"/>
<path d="M9.729 33.7753C9.83985 33.7462 9.89235 33.7928 9.89819 33.9037C9.82818 33.8804 9.77568 33.8337 9.729 33.7753Z" fill="#262F71"/>
<path d="M9.95689 19.687C9.95102 19.7398 9.91582 19.7457 9.87476 19.7515C9.90409 19.7281 9.93342 19.7105 9.95689 19.687Z" fill="#192144"/>
<path d="M9.88095 19.7451C9.85748 19.7627 9.83401 19.7803 9.81055 19.7979C9.81641 19.7569 9.85162 19.7569 9.88095 19.7451Z" fill="#192144"/>
<path d="M9.62378 33.6589C9.66485 33.6648 9.70005 33.6707 9.68831 33.7235C9.66485 33.7059 9.64138 33.6824 9.62378 33.6589Z" fill="#262F71"/>
<path d="M30.5498 34.785C30.5674 34.7615 30.5909 34.7439 30.6085 34.7205C30.6026 34.7498 30.5791 34.7733 30.5498 34.785Z" fill="#192144"/>
<path d="M9.79327 19.8093C9.77567 19.8211 9.76394 19.8328 9.74634 19.8445C9.76394 19.8269 9.78154 19.8152 9.79327 19.8093Z" fill="#192144"/>
<path d="M21.2683 12.762C21.2742 12.7678 21.2801 12.7737 21.2801 12.7796C21.2742 12.7854 21.2683 12.7913 21.2625 12.7913C21.2566 12.7913 21.2507 12.7854 21.2449 12.7796C21.2566 12.7678 21.2625 12.762 21.2683 12.762Z" fill="#1A2345"/>
<path d="M9.68823 33.729C9.72343 33.7231 9.73517 33.7348 9.7293 33.77C9.7117 33.7583 9.69997 33.7466 9.68823 33.729Z" fill="#262F71"/>
<path d="M9.90405 33.9038C9.93925 33.8979 9.95099 33.9097 9.94512 33.9449C9.93339 33.9331 9.92165 33.9214 9.90405 33.9038Z" fill="#262F71"/>
<path d="M25.0427 26.098C24.6052 26.4597 24.1735 26.8272 23.5784 27.0839C23.7651 26.6989 23.8993 26.3547 23.9751 25.9988C24.3135 24.4587 23.9868 23.0585 23.0417 21.7984C22.8375 21.5301 22.5808 21.3142 22.3533 21.075C22.3183 21.0342 22.2774 20.9467 22.2016 21.0284C22.1258 20.97 22.0499 20.9117 22.0208 20.8125C22.2308 20.8242 22.3766 20.97 22.5341 21.0692C23.4151 21.6351 24.1326 22.3585 24.5818 23.3152C24.8385 23.8578 24.9902 24.4353 25.0485 25.0421C25.0894 25.3979 25.0719 25.7421 25.0427 26.098Z" fill="#101F64"/>
<path d="M21.9685 20.76C21.9861 20.7776 22.0096 20.7893 22.0272 20.8069C22.0096 20.7893 21.9861 20.7776 21.9685 20.76Z" fill="#0E1F65"/>
<path d="M15.8254 36.1618C17.2256 36.226 18.579 35.9751 19.8917 35.4967C21.1868 35.0242 22.3827 34.3591 23.4562 33.4899C24.5179 32.6323 25.428 31.6464 26.0347 30.4096C26.3673 29.7387 26.5715 29.027 26.6298 28.2686C26.6765 27.6268 26.5773 27.0201 26.3965 26.4134C26.4081 26.2734 26.5423 26.215 26.6123 26.1217C26.9332 25.69 27.1899 25.2349 27.2832 24.6982C27.289 24.6515 27.3182 24.6107 27.3532 24.5232C27.5574 24.9432 27.7149 25.3399 27.8199 25.7541C27.9716 26.355 28.0591 26.9676 28.0124 27.586C27.9308 28.6711 27.6157 29.6862 27.079 30.6371C26.554 31.5589 25.8889 32.3581 25.113 33.064C24.3896 33.7232 23.5845 34.2833 22.7153 34.7442C21.7293 35.2692 20.6967 35.6659 19.6116 35.9226C18.9232 36.086 18.2232 36.1735 17.5114 36.226C16.9922 36.2668 16.4847 36.2435 15.9713 36.2143C15.9129 36.1968 15.8604 36.2026 15.8254 36.1618Z" fill="#101F64"/>
<path d="M24.7397 27.668C24.7337 27.6739 24.7337 27.6798 24.7278 27.6858C24.7337 27.6858 24.7337 27.6798 24.7397 27.668C24.7397 27.6739 24.7397 27.668 24.7397 27.668Z" fill="#262F71"/>
<path d="M36.4715 16.7987C36.4715 16.7987 36.4073 16.7404 36.3548 16.6995C35.1005 15.7078 33.7587 14.8385 32.3236 14.1326C32.2536 14.0976 32.1836 14.0393 32.0786 14.0393C32.2652 14.3602 32.4461 14.6694 32.6561 15.0369C32.5278 14.9785 32.4636 14.9552 32.4052 14.9202C31.6643 14.5293 30.8884 14.2376 30.0892 13.9985C29.0858 13.7009 28.059 13.5084 27.0147 13.4559C26.8222 13.4442 26.6297 13.4326 26.4197 13.4209C26.6647 13.4851 26.9972 13.5434 27.2131 13.5784C28.5665 13.8351 29.8325 14.3135 31.0343 14.9844C31.4602 15.2236 31.8452 15.5153 32.2652 15.7603C32.3877 15.772 32.5103 15.7836 32.6328 15.8011C33.7529 15.9411 34.8496 16.1862 35.8939 16.6354C36.1856 16.7579 36.4715 16.9037 36.7573 17.0321H36.7632L36.4715 16.7987Z" fill="#1D2648"/>
</svg>
