<svg width="42" height="42" viewBox="0 0 42 42" fill="none" xmlns="http://www.w3.org/2000/svg">
<rect width="42" height="42" rx="21" fill="#F2DA36"/>
<path d="M9.7998 29.0194V12.9824H25.7333C26.9749 13.0859 28.2164 13.1893 29.3029 13.6549C32.0963 14.5344 32.8724 18.3625 30.7513 20.1732C30.4409 20.4836 29.9236 20.7422 29.5098 20.9492C31.4756 21.7251 32.1998 23.2771 32.1998 25.2946V29.0194H26.1989C25.7333 29.0194 25.6298 28.8124 25.6298 28.3986V25.1912C25.6298 24.1566 25.3195 23.5875 24.2848 23.5875H16.2663V28.5021C16.2663 28.8125 16.1629 29.0194 16.0594 29.0194L9.7998 29.0194ZM16.3698 19.1903H24.4917C24.9573 19.1903 25.3195 18.9316 25.3195 18.466C25.3195 18.0005 24.9573 17.7935 24.4917 17.7935H16.3698V19.1903Z" fill="black"/>
</svg>
