<svg width="42" height="42" viewBox="0 0 42 42" fill="none" xmlns="http://www.w3.org/2000/svg">
<circle cx="21" cy="21" r="20" fill="#384182"/>
<path d="M19.401 30.3419L11.52 36.0003L16.5231 12.9772L19.401 30.3419ZM19.5604 30.2888L24.3598 30.3508L16.7091 13.0658L19.5604 30.2888ZM24.8114 29.908L28.4862 16.289L27.096 14.5889L24.8114 29.908ZM23.0404 8.55859L16.9924 12.6319L25.8297 9.77173L23.0404 8.55859ZM22.2789 8.55859L18.5243 8.68256L17.9753 10.2499L22.2789 8.55859Z" fill="#F3F3F3"/>
<path d="M26.8304 14.0667L17.1519 12.7384L25.874 9.99339L26.8304 14.0667ZM24.5369 8.9485L25.0682 7.50513L22.2789 6.29199L24.5369 8.9485ZM25.3427 7.36345L25.9714 9.63033L29.6906 8.64743L25.3427 7.36345Z" fill="#F3F3F3"/>
<path d="M24.5719 30.2627L16.8149 12.9069L26.9274 14.3237L24.5719 30.2627ZM22.7478 8.5591L17.9661 10.4275L16.8149 12.5527L22.7478 8.5591ZM19.7814 7.1423L18.5859 8.46169L22.553 8.36429L19.7814 7.1423ZM21.8712 6.11512L19.9762 6.99176L24.2974 8.89559L21.8712 6.11512ZM24.0318 6H21.9951L25.1475 7.22199L24.0318 6ZM25.2095 7.62047L24.7225 9.07269L25.6965 9.54201L25.2095 7.62047Z" fill="#F3F3F3"/>
</svg>
