<svg xmlns="http://www.w3.org/2000/svg" width="42" height="42" fill="none"><path fill="#FF9931" d="M20.995 42C9.38 42 0 32.594 0 21S9.404 0 20.995 0C32.586 0 41.99 9.406 41.99 21c-.023 11.594-9.404 21-20.995 21Z"/><path fill="#006E3C" d="M39.43 9.325a10.963 10.963 0 0 0-3.868-.924 6.396 6.396 0 0 0-3.33.71 4.855 4.855 0 0 0-.56.343c-1.546 1.075-2.392 2.794-2.779 4.105l-.2.741.616-.4 2.707-1.4c.516-.28 1.182-.187 1.462.329l.021.021c.022.043.022.065.043.107l6.274-3.481c-.064-.022-.322-.13-.386-.15Z"/><path fill="#06B23C" d="M38.44 13.516c-3.115 5.137-8.637 2.58-8.637 2.58L31.8 15.02a47.842 47.842 0 0 1 1.246-.667c.516-.279.71-.924.452-1.461l6.317-3.417a9.628 9.628 0 0 1-1.375 4.04Z"/><path fill="#fff" d="M41.506 7.864c-.28-.172-2.793-1.59-5.866-1.72a8.449 8.449 0 0 0-4.448.989c-.43.236-.817.494-1.203.795-2.772 2.214-3.481 5.803-3.675 7.372l-.021.13-.108.064-.816.43a6.844 6.844 0 0 0-2.815-1.612l-.15-.043.816-3.224-1.934-.495-.816 3.203-1.461-.387.795-3.203-1.934-.494-.795 3.181-3.847-.989s-.322 1.612-.472 2c0 0 .386.085.816.214.28.086 1.655.237 1.204 1.934-.258.968-1.762 7.394-1.892 7.824-.128.516-.257.795-.902.666l-1.547-.344-.967 2.3c.344.129 1.569.408 3.868.989l-.817 3.18 1.934.495.795-3.181 1.461.387-.795 3.18 1.934.495.817-3.224c2.234.409 3.524.28 3.846.236 1.87-.343 2.665-1.783 3.008-3.159.967-3.869-2.213-4.213-1.805-4.298 1.784-.366 2.643-2.064 2.536-3.59l.902-.494.108-.064.107.064a12.574 12.574 0 0 0 5.179 1.461 8.381 8.381 0 0 0 3.76-.709c.172-.064.322-.15.473-.236 4.534-2.45 5.135-8.404 5.178-9.07L42 8.229l-.494-.365ZM21.737 25.036c-.537 2.107-4.104 1.053-4.104 1.053l-1.697-.43 1.053-4.233 2.02.515c.021 0 3.33.731 2.728 3.095Zm.645-6.297c-.494 1.934-3.46 1.032-3.46 1.032l-1.418-.366.967-3.868 1.698.43c0 .02 2.772.601 2.213 2.772Zm17.362-9.091v.021c-.322 1.762-1.246 4.922-3.89 6.34l-.064.043c-.945.473-2.02.71-3.072.645a8.663 8.663 0 0 1-2.343-.43l-.558-.172.515-.279 2.75-1.462a1.071 1.071 0 0 0 .581-.924c0-.15-.021-.322-.086-.451-.021-.043-.021-.064-.043-.107l-.021-.022a1.088 1.088 0 0 0-1.462-.43l-2.707 1.462-.58.236.172-.559c.387-1.31 1.182-3.009 2.729-4.105.172-.129.365-.236.558-.344a6.396 6.396 0 0 1 3.331-.709c1.332.065 2.643.387 3.868.924.064.022.129.043.172.086l.172.086-.022.15Z"/></svg>