<svg xmlns="http://www.w3.org/2000/svg" width="42" height="42" fill="none"><rect width="42" height="42" fill="#CF1011" rx="21"/><path fill="#F3F3F3" fill-rule="evenodd" d="M20.995 15.479a5.521 5.521 0 1 1 0 11.044 5.521 5.521 0 1 1 0-11.044Z" clip-rule="evenodd"/><path fill="#F3F3F3" fill-rule="evenodd" d="M21.121 6.566a14.575 14.575 0 0 1 9.458 3.637l.038.038a14.313 14.313 0 0 1 4.794 9.905 14.439 14.439 0 0 1-3.6 10.447l-.038.038a14.313 14.313 0 0 1-9.905 4.794 14.438 14.438 0 0 1-10.447-3.6 14.328 14.328 0 0 1-4.832-9.944 14.439 14.439 0 0 1 3.6-10.447l1.25 1.101a12.778 12.778 0 0 0-3.19 9.234c.205 3.265 1.642 6.455 4.272 8.787a12.778 12.778 0 0 0 9.235 3.19c3.264-.205 6.454-1.642 8.786-4.272l.037-.037a12.683 12.683 0 0 0 3.153-9.197c-.205-3.265-1.642-6.455-4.272-8.787l-.037-.037a12.709 12.709 0 0 0-3.843-2.332 12.966 12.966 0 0 0-4.459-.858l.019-1.68-.019.02Z" clip-rule="evenodd"/><path fill="#F3F3F3" d="M12.786 6.66c1.007 0 1.903.41 2.556 1.063a3.627 3.627 0 0 1 1.063 2.556c0 1.008-.41 1.903-1.063 2.556a3.627 3.627 0 0 1-2.556 1.063 3.594 3.594 0 0 1-2.556-1.063 3.627 3.627 0 0 1-1.063-2.556c0-1.007.41-1.903 1.063-2.556a3.627 3.627 0 0 1 2.556-1.063Zm1.38 2.257a1.946 1.946 0 0 0-1.38-.578c-.54 0-1.026.224-1.38.578-.355.355-.579.84-.579 1.38 0 .542.224 1.027.579 1.381.354.355.84.579 1.38.579.541 0 1.026-.224 1.38-.579.355-.354.579-.84.579-1.38 0-.541-.224-1.026-.579-1.38Z"/></svg>