<svg xmlns="http://www.w3.org/2000/svg" width="36" height="36" fill="none"><path fill="url(#a)" d="M18 35.998c9.94 0 17.998-8.058 17.998-17.999C35.998 8.06 27.94 0 18 0 8.06 0 0 8.059 0 18c0 9.94 8.059 17.998 18 17.998Z"/><mask id="c" width="36" height="36" x="0" y="0" maskUnits="userSpaceOnUse" style="mask-type:alpha"><path fill="url(#b)" d="M18 35.998c9.94 0 17.998-8.058 17.998-17.999C35.998 8.06 27.94 0 18 0 8.06 0 0 8.059 0 18c0 9.94 8.059 17.998 18 17.998Z"/></mask><g mask="url(#c)"><path fill="url(#d)" d="M-.599 9.898a.72.72 0 0 1 .72-.72h9.84a.72.72 0 0 1 .72.72v16.739a.72.72 0 0 1-.72.72H.12a.72.72 0 0 1-.72-.72V9.897Z" opacity=".2"/><path fill="#E74310" d="M21.72 24.417a.72.72 0 0 1 .72-.72h12.84a.72.72 0 0 1 .719.72v6.24a.72.72 0 0 1-.72.72H22.44a.72.72 0 0 1-.72-.72v-6.24Z" opacity=".2"/><path fill="#DF3600" d="M30.06 26.34a.72.72 0 0 1 .72.72v12.12a.72.72 0 0 1-.72.72h-4.74a.72.72 0 0 1-.72-.72V27.06a.72.72 0 0 1 .72-.72h4.74Z" opacity=".2"/><path fill="url(#e)" d="M14.58 11.697a.72.72 0 0 1 .72.72v9.66a.72.72 0 0 1-.72.72H9.24a.72.72 0 0 1-.72-.72v-9.66a.72.72 0 0 1 .72-.72h5.34Z" opacity=".1"/><path fill="url(#f)" d="M3.42 14.58a.72.72 0 0 1 .72-.72h8.76a.72.72 0 0 1 .72.72v9.179a.72.72 0 0 1-.72.72H4.14a.72.72 0 0 1-.72-.72v-9.18Z" opacity=".1"/><path fill="#FF9776" d="M35.999 4.918a.72.72 0 0 1 .72.72v12.12a.72.72 0 0 1-.72.72h-11.16a.72.72 0 0 1-.72-.72V5.637a.72.72 0 0 1 .72-.72H36Z" opacity=".2"/><path fill="#FFCA8C" d="M29.218-3.121a.72.72 0 0 1 .72.72v13.32a.72.72 0 0 1-.72.72h-6.24a.72.72 0 0 1-.72-.72v-13.32a.72.72 0 0 1 .72-.72h6.24Z" opacity=".2"/><path fill="url(#g)" d="M32.458-.72a.72.72 0 0 1 .72.72v14.819a.72.72 0 0 1-.72.72h-13.56a.72.72 0 0 1-.72-.72V-.002a.72.72 0 0 1 .72-.72h13.56Z" opacity=".2"/><path fill="#DF3600" d="M12.72-4.92a.72.72 0 0 1 .72.72v9.96a.72.72 0 0 1-.72.72H7.98a.72.72 0 0 1-.72-.72V-4.2a.72.72 0 0 1 .72-.72h4.74ZM13.259 25.979a.72.72 0 0 1 .72.72v8.58a.72.72 0 0 1-.72.719H1.199a.72.72 0 0 1-.72-.72v-8.58a.72.72 0 0 1 .72-.72h12.06Z" opacity=".1"/><path fill="#FFD494" d="M23.879 21.178a.72.72 0 0 1 .72.72v13.379a.72.72 0 0 1-.72.72h-13.8a.72.72 0 0 1-.72-.72v-13.38a.72.72 0 0 1 .72-.72h13.8Z" opacity=".1"/><path fill="#FFD494" d="M19.32 0a.72.72 0 0 1 .72.72V4.2a.72.72 0 0 1-.72.72H4.921a.72.72 0 0 1-.72-.72V.72a.72.72 0 0 1 .72-.72h14.4Z" opacity=".2"/><path fill="#DF3600" d="M7.965 35.649 34.928 8.686l-.924-.925L7.04 34.724l.924.925ZM5.943 33.684 32.906 6.72l-1.204-1.204L4.739 32.48l1.204 1.204Z" opacity=".1"/><path fill="#F45C2C" d="M4.804 32.428 31.767 5.465 30.563 4.26 3.6 31.224l1.204 1.204Z" opacity=".1"/><path fill="#F45C2C" d="M3.723 31.106 30.686 4.143l-.99-.991L2.732 30.115l.991.99Z" opacity=".2"/><path fill="#FFBC6E" d="M2.732 30.116 29.695 3.152l-.99-.99L1.74 29.124l.99.99Z" opacity=".1"/><path fill="#DF3600" d="M2.071 28.793 29.034 1.83l-.99-.99L1.08 27.801l.991.991Z" opacity=".1"/><path fill="#FFD5A4" d="m-1.109 20.874 21.26-21.26-.99-.992-21.26 21.261.99.991Z" opacity=".09"/><path fill="#FFD5A4" d="m-2.248 19.67 21.26-21.26-.99-.99-21.26 21.26.99.99Z" opacity=".08"/><path fill="#FFD5A4" d="m-3.27 18.292 21.261-21.26-.99-.992-21.262 21.261.991.991Z" opacity=".05"/><path fill="#FFD5A4" d="M.57 23.763 25.263-.93l-.99-.99L-.421 22.772l.991.99ZM1.231 25.322 25.924.629l-.99-.991L.24 24.331l.991.991Z" opacity=".2"/><path fill="#FFD5A4" d="M.15 21.955 22.068.039l-.991-.99L-.84 20.963l.99.99Z" opacity=".1"/><path fill="#DF3600" d="M7.925 35.666 34.888 8.703l-1.977-1.977L5.948 33.69l1.977 1.977Z" opacity=".1"/><path fill="#DF3600" d="M7.925 35.666 34.888 8.703l-1.986-1.987L5.938 33.68l1.987 1.987Z" opacity=".1"/></g><path fill="#fff" d="m17.973 21.882-6.848-4.051 6.848-11.36 6.842 11.36-6.842 4.05Z"/><path fill="#fff" d="m17.973 28.782-6.848-9.645 6.848 4.045 6.848-4.045-6.848 9.645Z"/><defs><linearGradient id="d" x1="5.041" x2="5.041" y1="9.178" y2="27.357" gradientUnits="userSpaceOnUse"><stop stop-color="#FFE090"/><stop offset="1" stop-color="#FFE090" stop-opacity="0"/></linearGradient><linearGradient id="e" x1="11.88" x2="11.88" y1="11.697" y2="21.957" gradientUnits="userSpaceOnUse"><stop stop-color="#DF3600"/><stop offset="1" stop-color="#DF3600" stop-opacity="0"/></linearGradient><linearGradient id="f" x1="3.421" x2="12.848" y1="19.216" y2="19.216" gradientUnits="userSpaceOnUse"><stop stop-color="#DF3600"/><stop offset="1" stop-color="#DF3600" stop-opacity="0"/></linearGradient><linearGradient id="g" x1="25.678" x2="25.678" y1="-.721" y2="15.539" gradientUnits="userSpaceOnUse"><stop stop-color="#DF3600"/><stop offset="1" stop-color="#DF3600" stop-opacity="0"/></linearGradient><radialGradient id="a" cx="0" cy="0" r="1" gradientTransform="rotate(54.167 -2.538 15.803) scale(29.8234)" gradientUnits="userSpaceOnUse"><stop stop-color="#FFD794"/><stop offset="1" stop-color="#ED5A37"/></radialGradient><radialGradient id="b" cx="0" cy="0" r="1" gradientTransform="rotate(54.167 -2.538 15.803) scale(29.8234)" gradientUnits="userSpaceOnUse"><stop stop-color="#FFD794"/><stop offset="1" stop-color="#ED5A37"/></radialGradient></defs></svg>