<svg width="42" height="42" viewBox="0 0 42 42" fill="none" xmlns="http://www.w3.org/2000/svg">
<g clip-path="url(#clip0_4532_196782)">
<path d="M21 41.9977C32.5967 41.9977 41.9977 32.5967 41.9977 20.9988C41.9977 9.40333 32.5967 0 21 0C9.40333 0 0 9.40217 0 21C0 32.5967 9.40217 41.9977 21 41.9977Z" fill="url(#paint0_radial_4532_196782)"/>
<mask id="mask0_4532_196782" style="mask-type:alpha" maskUnits="userSpaceOnUse" x="0" y="0" width="42" height="42">
<path d="M21 41.9977C32.5967 41.9977 41.9977 32.5967 41.9977 20.9988C41.9977 9.40333 32.5967 0 21 0C9.40333 0 0 9.40217 0 21C0 32.5967 9.40217 41.9977 21 41.9977Z" fill="url(#paint1_radial_4532_196782)"/>
</mask>
<g mask="url(#mask0_4532_196782)">
<path opacity="0.2" d="M-0.655083 11.59C-0.655083 11.4797 -0.633356 11.3705 -0.591142 11.2685C-0.548928 11.1666 -0.487054 11.074 -0.409053 10.996C-0.331052 10.918 -0.238451 10.8562 -0.136537 10.8139C-0.0346239 10.7717 0.0746063 10.75 0.184917 10.75H11.6649C11.7752 10.75 11.8845 10.7717 11.9864 10.8139C12.0883 10.8562 12.1809 10.918 12.2589 10.996C12.3369 11.074 12.3988 11.1666 12.441 11.2685C12.4832 11.3705 12.5049 11.4797 12.5049 11.59V31.1188C12.5049 31.3416 12.4164 31.5553 12.2589 31.7128C12.1014 31.8703 11.8877 31.9588 11.6649 31.9588H0.18375C-0.0390318 31.9588 -0.252689 31.8703 -0.41022 31.7128C-0.56775 31.5553 -0.65625 31.3416 -0.65625 31.1188V11.5888L-0.655083 11.59Z" fill="url(#paint2_linear_4532_196782)"/>
<path opacity="0.2" d="M25.4297 28.4806C25.4297 28.2578 25.5182 28.0442 25.6757 27.8867C25.8332 27.7291 26.0469 27.6406 26.2697 27.6406H41.2497C41.4723 27.6409 41.6856 27.7296 41.8429 27.8871C42.0002 28.0446 42.0885 28.258 42.0885 28.4806V35.7606C42.0885 35.9834 42 36.1971 41.8425 36.3546C41.685 36.5121 41.4713 36.6006 41.2485 36.6006H26.2697C26.0469 36.6006 25.8332 36.5121 25.6757 36.3546C25.5182 36.1971 25.4297 35.9834 25.4297 35.7606V28.4806Z" fill="#E74310"/>
<path opacity="0.2" d="M35.0809 30.7656C35.3037 30.7656 35.5174 30.8541 35.6749 31.0117C35.8324 31.1692 35.9209 31.3828 35.9209 31.6056V45.7456C35.9209 45.9684 35.8324 46.1821 35.6749 46.3396C35.5174 46.4971 35.3037 46.5856 35.0809 46.5856H29.5509C29.3282 46.5856 29.1145 46.4971 28.957 46.3396C28.7994 46.1821 28.7109 45.9684 28.7109 45.7456V31.6056C28.7109 31.3828 28.7994 31.1692 28.957 31.0117C29.1145 30.8541 29.3282 30.7656 29.5509 30.7656H35.0809Z" fill="#DF3600"/>
<path opacity="0.1" d="M17.0778 13.6172C17.1881 13.6172 17.2974 13.6389 17.3993 13.6811C17.5012 13.7233 17.5938 13.7852 17.6718 13.8632C17.7498 13.9412 17.8117 14.0338 17.8539 14.1357C17.8961 14.2376 17.9178 14.3469 17.9178 14.4572V25.7272C17.9178 25.95 17.8293 26.1636 17.6718 26.3212C17.5143 26.4787 17.3006 26.5672 17.0778 26.5672H10.8478C10.625 26.5672 10.4114 26.4787 10.2538 26.3212C10.0963 26.1636 10.0078 25.95 10.0078 25.7272V14.4572C10.0078 14.3469 10.0295 14.2376 10.0718 14.1357C10.114 14.0338 10.1758 13.9412 10.2538 13.8632C10.3318 13.7852 10.4244 13.7233 10.5264 13.6811C10.6283 13.6389 10.7375 13.6172 10.8478 13.6172H17.0778Z" fill="url(#paint3_linear_4532_196782)"/>
<path opacity="0.1" d="M4.01562 16.9963C4.01562 16.7735 4.10412 16.5598 4.26166 16.4023C4.41919 16.2447 4.63284 16.1562 4.85562 16.1562H15.0756C15.2984 16.1563 15.5121 16.2447 15.6696 16.4023C15.8271 16.5598 15.9156 16.7735 15.9156 16.9963V27.7051C15.9156 27.9279 15.8271 28.1415 15.6696 28.2991C15.5121 28.4566 15.2984 28.5451 15.0756 28.5451H4.85562C4.63284 28.5451 4.41919 28.4566 4.26166 28.2991C4.10412 28.1415 4.01562 27.9279 4.01562 27.7051V16.9963Z" fill="url(#paint4_linear_4532_196782)"/>
<path opacity="0.2" d="M42.0788 5.74335C42.3015 5.74335 42.5152 5.83185 42.6727 5.98938C42.8303 6.14691 42.9188 6.36057 42.9188 6.58335V20.7234C42.9188 20.9461 42.8303 21.1598 42.6727 21.3173C42.5152 21.4749 42.3015 21.5634 42.0788 21.5634H29.0588C28.836 21.5634 28.6223 21.4749 28.4648 21.3173C28.3073 21.1598 28.2188 20.9461 28.2188 20.7234V6.58219C28.2188 6.35941 28.3073 6.14575 28.4648 5.98822C28.6223 5.83069 28.836 5.74219 29.0588 5.74219H42.0799L42.0788 5.74335Z" fill="#FF9776"/>
<path opacity="0.2" d="M34.12 -3.60938C34.2303 -3.60937 34.3395 -3.58765 34.4415 -3.54543C34.5434 -3.50322 34.636 -3.44135 34.714 -3.36334C34.792 -3.28534 34.8538 -3.19274 34.8961 -3.09083C34.9383 -2.98892 34.96 -2.87969 34.96 -2.76937V12.7706C34.96 12.9934 34.8715 13.2071 34.714 13.3646C34.5564 13.5221 34.3428 13.6106 34.12 13.6106H26.84C26.6172 13.6106 26.4036 13.5221 26.246 13.3646C26.0885 13.2071 26 12.9934 26 12.7706V-2.76937C26 -2.99216 26.0885 -3.20581 26.246 -3.36334C26.4036 -3.52088 26.6172 -3.60937 26.84 -3.60938H34.12Z" fill="#FFCA8C"/>
<path opacity="0.2" d="M37.91 -0.817979C38.1328 -0.817979 38.3464 -0.729479 38.504 -0.571949C38.6615 -0.414418 38.75 -0.200761 38.75 0.0220208V17.3109C38.75 17.5336 38.6615 17.7473 38.504 17.9048C38.3464 18.0624 38.1328 18.1509 37.91 18.1509H22.09C21.8672 18.1509 21.6536 18.0624 21.496 17.9048C21.3385 17.7473 21.25 17.5336 21.25 17.3109V0.0196875C21.25 -0.203094 21.3385 -0.416752 21.496 -0.574282C21.6536 -0.731813 21.8672 -0.820312 22.09 -0.820312H37.91V-0.817979Z" fill="url(#paint5_linear_4532_196782)"/>
<path opacity="0.1" d="M14.8593 -5.74219C15.0821 -5.74219 15.2957 -5.65369 15.4533 -5.49616C15.6108 -5.33863 15.6993 -5.12497 15.6993 -4.90219V6.71781C15.6993 6.94059 15.6108 7.15425 15.4533 7.31178C15.2957 7.46931 15.0821 7.55781 14.8593 7.55781H9.32929C9.10651 7.55781 8.89285 7.46931 8.73532 7.31178C8.57779 7.15425 8.48929 6.94059 8.48929 6.71781V-4.90219C8.48929 -5.12497 8.57779 -5.33863 8.73532 -5.49616C8.89285 -5.65369 9.10651 -5.74219 9.32929 -5.74219H14.8593ZM15.4881 30.3066C15.7109 30.3066 15.9246 30.3951 16.0821 30.5527C16.2396 30.7102 16.3281 30.9239 16.3281 31.1466V41.1566C16.3278 41.3792 16.2392 41.5926 16.0817 41.7499C15.9242 41.9071 15.7107 41.9955 15.4881 41.9955H1.41813C1.19534 41.9955 0.981686 41.907 0.824155 41.7494C0.666625 41.5919 0.578125 41.3783 0.578125 41.1555V31.1455C0.578125 30.9227 0.666625 30.709 0.824155 30.5515C0.981686 30.394 1.19534 30.3055 1.41813 30.3055L15.4881 30.3066Z" fill="#DF3600"/>
<path opacity="0.1" d="M27.9322 24.6887C28.155 24.6887 28.3686 24.7772 28.5262 24.9347C28.6837 25.0922 28.7722 25.3059 28.7722 25.5287V41.1375C28.7722 41.3603 28.6837 41.5739 28.5262 41.7315C28.3686 41.889 28.155 41.9775 27.9322 41.9775H11.8322C11.7219 41.9775 11.6126 41.9558 11.5107 41.9136C11.4088 41.8713 11.3162 41.8095 11.2382 41.7315C11.1602 41.6535 11.0983 41.5609 11.0561 41.459C11.0139 41.357 10.9922 41.2478 10.9922 41.1375V25.5275C10.9922 25.4172 11.0139 25.308 11.0561 25.206C11.0983 25.1041 11.1602 25.0115 11.2382 24.9335C11.3162 24.8555 11.4088 24.7937 11.5107 24.7514C11.6126 24.7092 11.7219 24.6875 11.8322 24.6875L27.9322 24.6887Z" fill="#FFD494"/>
<path opacity="0.2" d="M22.5607 0C22.7835 0 22.9971 0.0884998 23.1547 0.24603C23.3122 0.403561 23.4007 0.617218 23.4007 0.84V4.9C23.4007 5.12278 23.3122 5.33644 23.1547 5.49397C22.9971 5.6515 22.7835 5.74 22.5607 5.74H5.76187C5.53909 5.74 5.32544 5.6515 5.16791 5.49397C5.01037 5.33644 4.92188 5.12278 4.92188 4.9V0.84C4.92187 0.617218 5.01037 0.403561 5.16791 0.24603C5.32544 0.0884998 5.53909 0 5.76187 0L22.5607 0Z" fill="#FFD494"/>
<path opacity="0.1" d="M9.34179 41.5536L40.7986 10.0968L39.7206 9.0176L8.26263 40.4744L9.34179 41.5536ZM6.98279 39.2611L38.4396 7.8031L37.035 6.39844L5.57812 37.8564L6.98279 39.2611Z" fill="#DF3600"/>
<path opacity="0.1" d="M5.67029 37.8627L37.1271 6.40583L35.7225 5L4.26562 36.458L5.67029 37.8627Z" fill="#F45C2C"/>
<path opacity="0.2" d="M4.35929 36.3005L35.8161 4.84367L34.6611 3.6875L3.20312 35.1443L4.35929 36.2993V36.3005Z" fill="#F45C2C"/>
<path opacity="0.1" d="M3.20421 35.1599L34.661 3.70188L33.506 2.54688L2.04688 34.0025L3.20187 35.1575L3.20421 35.1599Z" fill="#FFBC6E"/>
<path opacity="0.1" d="M2.46867 33.5962L33.9255 2.13938L32.7705 0.984375L1.3125 32.4389L2.46867 33.5962Z" fill="#DF3600"/>
<path opacity="0.09" d="M-1.22 24.32L23.5833 -0.483292L22.4283 -1.64062L-2.375 23.1639L-1.22 24.32Z" fill="#FFD5A4"/>
<path opacity="0.08" d="M-2.5325 22.9271L22.2708 -1.87625L21.1158 -3.03125L-3.6875 21.7721L-2.5325 22.9271Z" fill="#FFD5A4"/>
<path opacity="0.05" d="M-3.76571 21.3669L21.0388 -3.43642L19.8838 -4.59375L-4.92188 20.2108L-3.76571 21.3669Z" fill="#FFD5A4"/>
<path opacity="0.2" d="M0.749917 27.7447L29.5584 -1.06375L28.4034 -2.21875L-0.40625 26.5886L0.749917 27.7436V27.7447ZM1.52108 29.5636L30.3296 0.755083L29.1746 -0.401083L0.364917 28.4074L1.52108 29.5636Z" fill="#FFD5A4"/>
<path opacity="0.1" d="M0.24875 25.5752L25.8198 0.0065624L24.6636 -1.14844L-0.90625 24.4179L0.24875 25.5729V25.5752Z" fill="#FFD5A4"/>
<path opacity="0.1" d="M9.27525 41.6383L40.7321 10.1815L38.4256 7.875L6.96875 39.333L9.27525 41.6383Z" fill="#DF3600"/>
<path opacity="0.1" d="M9.28692 41.5719L40.7438 10.115L38.4268 7.79688L6.96875 39.2549L9.28692 41.5719Z" fill="#DF3600"/>
</g>
<path d="M20.9503 25.5264L12.9609 20.8002L20.9503 7.54688L28.9326 20.8002L20.9503 25.5264Z" fill="white"/>
<path d="M20.9503 33.565L12.9609 22.3125L20.9503 27.0317L28.9396 22.3125L20.9503 33.565Z" fill="white"/>
</g>
<defs>
<radialGradient id="paint0_radial_4532_196782" cx="0" cy="0" r="1" gradientUnits="userSpaceOnUse" gradientTransform="translate(13.7197 10.044) rotate(54.167) scale(34.794)">
<stop stop-color="#FFD794"/>
<stop offset="1" stop-color="#ED5A37"/>
</radialGradient>
<radialGradient id="paint1_radial_4532_196782" cx="0" cy="0" r="1" gradientUnits="userSpaceOnUse" gradientTransform="translate(13.7197 10.044) rotate(54.167) scale(34.794)">
<stop stop-color="#FFD794"/>
<stop offset="1" stop-color="#ED5A37"/>
</radialGradient>
<linearGradient id="paint2_linear_4532_196782" x1="5.92492" y1="10.75" x2="5.92492" y2="31.9588" gradientUnits="userSpaceOnUse">
<stop stop-color="#FFE090"/>
<stop offset="1" stop-color="#FFE090" stop-opacity="0"/>
</linearGradient>
<linearGradient id="paint3_linear_4532_196782" x1="13.9278" y1="13.6172" x2="13.9278" y2="25.5872" gradientUnits="userSpaceOnUse">
<stop stop-color="#DF3600"/>
<stop offset="1" stop-color="#DF3600" stop-opacity="0"/>
</linearGradient>
<linearGradient id="paint4_linear_4532_196782" x1="4.01679" y1="22.4049" x2="15.015" y2="22.4049" gradientUnits="userSpaceOnUse">
<stop stop-color="#DF3600"/>
<stop offset="1" stop-color="#DF3600" stop-opacity="0"/>
</linearGradient>
<linearGradient id="paint5_linear_4532_196782" x1="30" y1="-0.819146" x2="30" y2="18.1509" gradientUnits="userSpaceOnUse">
<stop stop-color="#DF3600"/>
<stop offset="1" stop-color="#DF3600" stop-opacity="0"/>
</linearGradient>
<clipPath id="clip0_4532_196782">
<rect width="42" height="42" fill="white"/>
</clipPath>
</defs>
</svg>
