<svg width="42" height="42" viewBox="0 0 42 42" fill="none" xmlns="http://www.w3.org/2000/svg">
<path d="M21 42C32.598 42 42 32.598 42 21C42 9.40202 32.598 0 21 0C9.40202 0 0 9.40202 0 21C0 32.598 9.40202 42 21 42Z" fill="url(#paint0_linear_26_30382)"/>
<path d="M31.2576 10.27V30.8603H26.8211V20.1013H23.1695C22.7393 20.1013 22.3295 20.2624 22.0176 20.5437C21.8341 20.7048 21.7056 20.8985 21.6078 21.1248C21.5099 21.3511 21.4569 21.5774 21.4569 21.8241V24.3013C21.4569 24.9578 20.9186 25.5185 20.2397 25.5185H17.3099C16.6534 25.5185 16.0927 24.9802 16.0927 24.3013V21.3083C16.0927 20.6518 16.631 20.0911 17.3099 20.0911H19.9584C20.3131 20.0911 20.6577 19.9729 20.9166 19.7364C21.0777 19.5957 21.2184 19.4244 21.3142 19.2083C21.412 19.0146 21.4549 18.7985 21.4549 18.5722V14.6841H10.751V10.2578L31.2555 10.268L31.2576 10.27Z" fill="white"/>
<path d="M16.0946 28.1987V28.2415C16.0946 29.7278 14.8999 30.9225 13.4136 30.9225C11.9272 30.9225 10.7427 29.7278 10.7427 28.2415V28.1987C10.7427 26.7124 11.9374 25.5176 13.4237 25.5176C14.1659 25.5176 14.8346 25.8193 15.3199 26.3046C15.8051 26.8 16.0844 27.4565 16.0946 28.2007V28.1987Z" fill="white"/>
<defs>
<linearGradient id="paint0_linear_26_30382" x1="21" y1="-10.9343" x2="21" y2="30.7314" gradientUnits="userSpaceOnUse">
<stop stop-color="#AABCF9"/>
<stop offset="1" stop-color="#4B61E6"/>
</linearGradient>
</defs>
</svg>
