<svg width="42" height="42" viewBox="0 0 42 42" fill="none" xmlns="http://www.w3.org/2000/svg">
<path d="M0 20.9996C0 9.40184 9.40223 0 21 0C32.5978 0 42 9.40184 42 20.9996C42 32.5974 32.5978 41.9992 21 41.9992C9.40223 41.9992 0 32.5974 0 20.9996Z" fill="#149DD9"/>
<path d="M12.1031 15.8348H19.6942C19.7162 15.8332 19.7369 15.8237 19.7526 15.8081C19.7682 15.7924 19.7777 15.7717 19.7793 15.7497V13.295C19.7777 13.273 19.7682 13.2523 19.7526 13.2366C19.7369 13.221 19.7162 13.2115 19.6942 13.2099H12.1031C12.0811 13.2115 12.0604 13.221 12.0448 13.2366C12.0292 13.2523 12.0197 13.273 12.018 13.295V15.7497C12.0176 15.761 12.0196 15.7722 12.0237 15.7827C12.0278 15.7932 12.0341 15.8028 12.0421 15.8108C12.0501 15.8188 12.0596 15.825 12.0701 15.8291C12.0806 15.8333 12.0919 15.8352 12.1031 15.8348ZM17.2395 11.337H19.6942C19.7162 11.3353 19.7369 11.3258 19.7526 11.3102C19.7682 11.2946 19.7777 11.2739 19.7793 11.2518V8.79714C19.7777 8.77511 19.7682 8.75439 19.7526 8.73877C19.7369 8.72315 19.7162 8.71365 19.6942 8.71201H17.2395C17.2175 8.71365 17.1968 8.72315 17.1811 8.73877C17.1655 8.75439 17.156 8.77511 17.1544 8.79714V11.2518C17.156 11.2739 17.1655 11.2946 17.1811 11.3102C17.1968 11.3258 17.2175 11.3353 17.2395 11.337ZM6.73976 22.2198H4.28508C4.26305 22.2215 4.24233 22.2309 4.22671 22.2466C4.21109 22.2622 4.20159 22.2829 4.19995 22.3049V24.7596C4.20159 24.7817 4.21109 24.8024 4.22671 24.818C4.24233 24.8336 4.26305 24.8431 4.28508 24.8448H6.73976C6.76179 24.8431 6.78251 24.8336 6.79813 24.818C6.81376 24.8024 6.82325 24.7817 6.82489 24.7596V22.3049C6.82325 22.2829 6.81376 22.2622 6.79813 22.2466C6.78251 22.2309 6.76179 22.2215 6.73976 22.2198ZM15.7497 22.2198H13.295C13.273 22.2215 13.2523 22.2309 13.2366 22.2466C13.221 22.2622 13.2115 22.2829 13.2099 22.3049V29.896C13.2115 29.918 13.221 29.9387 13.2366 29.9544C13.2523 29.97 13.273 29.9795 13.295 29.9811H15.7497C15.7717 29.9795 15.7924 29.97 15.8081 29.9544C15.8237 29.9387 15.8332 29.918 15.8348 29.896V22.3049C15.8332 22.2829 15.8237 22.2622 15.8081 22.2466C15.7924 22.2309 15.7717 22.2215 15.7497 22.2198ZM30.7615 19.7651H33.2162C33.2382 19.7635 33.2589 19.754 33.2746 19.7384C33.2902 19.7228 33.2997 19.702 33.3013 19.68V17.2253C33.2997 17.2033 33.2902 17.1826 33.2746 17.167C33.2589 17.1513 33.2382 17.1418 33.2162 17.1402H30.7615C30.7395 17.1418 30.7188 17.1513 30.7031 17.167C30.6875 17.1826 30.678 17.2033 30.6764 17.2253V19.68C30.6747 19.6916 30.6758 19.7034 30.6795 19.7145C30.6831 19.7255 30.6894 19.7356 30.6976 19.7439C30.7059 19.7521 30.716 19.7584 30.7271 19.7621C30.7381 19.7657 30.7499 19.7668 30.7615 19.7651ZM26.2494 19.7651H28.7041C28.7262 19.7635 28.7469 19.754 28.7625 19.7384C28.7781 19.7228 28.7876 19.702 28.7893 19.68V12.089C28.7876 12.0669 28.7781 12.0462 28.7625 12.0306C28.7469 12.015 28.7262 12.0055 28.7041 12.0038H26.2494C26.2274 12.0055 26.2067 12.015 26.1911 12.0306C26.1754 12.0462 26.166 12.0669 26.1643 12.089V19.68C26.1639 19.6913 26.1658 19.7025 26.17 19.713C26.1741 19.7236 26.1804 19.7331 26.1884 19.7411C26.1964 19.7491 26.2059 19.7553 26.2164 19.7595C26.2269 19.7636 26.2382 19.7655 26.2494 19.7651ZM17.2395 6.82489H19.6942C19.7162 6.82325 19.7369 6.81376 19.7526 6.79813C19.7682 6.78251 19.7777 6.76179 19.7793 6.73976V4.28508C19.7777 4.26305 19.7682 4.24233 19.7526 4.22671C19.7369 4.21109 19.7162 4.20159 19.6942 4.19995H17.2395C17.2175 4.20159 17.1968 4.21109 17.1811 4.22671C17.1655 4.24233 17.156 4.26305 17.1544 4.28508V6.73976C17.154 6.75104 17.1559 6.76229 17.1601 6.7728C17.1642 6.78331 17.1705 6.79285 17.1784 6.80084C17.1864 6.80882 17.196 6.81508 17.2065 6.81922C17.217 6.82336 17.2282 6.82529 17.2395 6.82489ZM11.2518 22.2198H8.79714C8.77511 22.2215 8.75439 22.2309 8.73877 22.2466C8.72315 22.2622 8.71365 22.2829 8.71201 22.3049V24.7596C8.71365 24.7817 8.72315 24.8024 8.73877 24.818C8.75439 24.8336 8.77511 24.8431 8.79714 24.8448H11.2518C11.2739 24.8431 11.2946 24.8336 11.3102 24.818C11.3258 24.8024 11.3353 24.7817 11.337 24.7596V22.3049C11.3332 22.2837 11.323 22.2642 11.3078 22.249C11.2926 22.2337 11.273 22.2236 11.2518 22.2198ZM29.9102 26.1643H22.3191C22.2971 26.166 22.2764 26.1755 22.2608 26.1911C22.2451 26.2067 22.2356 26.2274 22.234 26.2495V28.7041C22.2356 28.7262 22.2451 28.7469 22.2608 28.7625C22.2764 28.7781 22.2971 28.7876 22.3191 28.7893H29.9102C29.9322 28.7876 29.9529 28.7781 29.9685 28.7625C29.9842 28.7469 29.9937 28.7262 29.9953 28.7041V26.2495C29.994 26.2273 29.9846 26.2064 29.9689 26.1907C29.9532 26.1751 29.9323 26.1657 29.9102 26.1643ZM35.0891 21.6948H24.334C24.3119 21.6965 24.2912 21.706 24.2756 21.7216C24.26 21.7372 24.2505 21.7579 24.2488 21.78V24.1637C24.2505 24.1857 24.26 24.2064 24.2756 24.2221C24.2912 24.2377 24.3119 24.2472 24.334 24.2488H35.0891C35.1111 24.2472 35.1319 24.2377 35.1475 24.2221C35.1631 24.2064 35.1726 24.1857 35.1742 24.1637V21.78C35.1746 21.7687 35.1727 21.7574 35.1686 21.7469C35.1644 21.7364 35.1582 21.7269 35.1502 21.7189C35.1422 21.7109 35.1327 21.7046 35.1222 21.7005C35.1116 21.6964 35.1004 21.6944 35.0891 21.6948ZM24.7596 30.6622H22.3049C22.2829 30.6638 22.2622 30.6733 22.2466 30.6889C22.2309 30.7046 22.2214 30.7253 22.2198 30.7473V33.202C22.2214 33.224 22.2309 33.2447 22.2466 33.2604C22.2622 33.276 22.2829 33.2855 22.3049 33.2871H24.7596C24.7817 33.2855 24.8024 33.276 24.818 33.2604C24.8336 33.2447 24.8431 33.224 24.8447 33.202V30.7473C24.8451 30.736 24.8432 30.7248 24.8391 30.7143C24.8349 30.7038 24.8287 30.6942 24.8207 30.6862C24.8127 30.6783 24.8032 30.672 24.7927 30.6679C24.7822 30.6637 24.7709 30.6618 24.7596 30.6622ZM17.7503 17.8355C17.7487 17.8134 17.7392 17.7927 17.7236 17.7771C17.7079 17.7615 17.6872 17.752 17.6652 17.7503H6.91002C6.88799 17.752 6.86727 17.7615 6.85165 17.7771C6.83603 17.7927 6.82653 17.8134 6.82489 17.8355V20.2192C6.82653 20.2412 6.83603 20.2619 6.85165 20.2776C6.86727 20.2932 6.88799 20.3027 6.91002 20.3043H17.6652C17.6872 20.3027 17.7079 20.2932 17.7236 20.2776C17.7392 20.2619 17.7487 20.2412 17.7503 20.2192V17.8355ZM37.7141 17.1544H35.2594C35.2373 17.156 35.2166 17.1655 35.201 17.1811C35.1854 17.1968 35.1759 17.2175 35.1742 17.2395V19.6942C35.1759 19.7162 35.1854 19.7369 35.201 19.7526C35.2166 19.7682 35.2373 19.7777 35.2594 19.7793H37.7141C37.7361 19.7777 37.7568 19.7682 37.7724 19.7526C37.788 19.7369 37.7975 19.7162 37.7992 19.6942V17.2395C37.8008 17.228 37.7998 17.2162 37.7961 17.2051C37.7924 17.194 37.7862 17.1839 37.7779 17.1756C37.7697 17.1674 37.7596 17.1612 37.7485 17.1575C37.7374 17.1538 37.7256 17.1527 37.7141 17.1544ZM20.2192 24.2488H17.8355C17.8134 24.2505 17.7927 24.26 17.7771 24.2756C17.7615 24.2912 17.752 24.3119 17.7503 24.334V35.0891C17.752 35.1111 17.7615 35.1319 17.7771 35.1475C17.7927 35.1631 17.8134 35.1726 17.8355 35.1742H20.2192C20.2412 35.1726 20.2619 35.1631 20.2776 35.1475C20.2932 35.1319 20.3027 35.1111 20.3043 35.0891V24.334C20.3027 24.3119 20.2932 24.2912 20.2776 24.2756C20.2619 24.26 20.2412 24.2505 20.2192 24.2488ZM24.2488 17.6794V6.91002C24.2472 6.88799 24.2377 6.86727 24.2221 6.85165C24.2064 6.83603 24.1857 6.82653 24.1637 6.82489H21.78C21.7579 6.82653 21.7372 6.83603 21.7216 6.85165C21.706 6.86727 21.6965 6.88799 21.6948 6.91002V17.6794C21.6965 17.7014 21.706 17.7221 21.7216 17.7377C21.7372 17.7534 21.7579 17.7629 21.78 17.7645H24.1637C24.1857 17.7629 24.2064 17.7534 24.2221 17.7377C24.2377 17.7221 24.2472 17.7014 24.2488 17.6794ZM24.7596 35.1742H22.3049C22.2829 35.1759 22.2622 35.1854 22.2466 35.201C22.2309 35.2166 22.2214 35.2373 22.2198 35.2594V37.7141C22.2214 37.7361 22.2309 37.7568 22.2466 37.7724C22.2622 37.7881 22.2829 37.7976 22.3049 37.7992H24.7596C24.7817 37.7976 24.8024 37.7881 24.818 37.7724C24.8336 37.7568 24.8431 37.7361 24.8447 37.7141V35.2594C24.8464 35.2478 24.8454 35.236 24.8417 35.2249C24.838 35.2138 24.8318 35.2038 24.8235 35.1955C24.8152 35.1872 24.8052 35.181 24.7941 35.1773C24.783 35.1736 24.7712 35.1726 24.7596 35.1742Z" fill="#F3F3F3"/>
</svg>
