<svg width="42" height="42" viewBox="0 0 42 42" fill="none" xmlns="http://www.w3.org/2000/svg">
<rect x="0.00830078" width="42" height="42" rx="21" fill="white"/>
<mask id="mask0_8189_50834" style="mask-type:luminance" maskUnits="userSpaceOnUse" x="0" y="0" width="43" height="42">
<path d="M42.0083 21C42.0083 9.40202 32.6063 0 21.0083 0C9.41032 0 0.00830078 9.40202 0.00830078 21C0.00830078 32.598 9.41032 42 21.0083 42C32.6063 42 42.0083 32.598 42.0083 21Z" fill="white"/>
</mask>
<g mask="url(#mask0_8189_50834)">
<path d="M42.0083 21C42.0083 26.6385 39.7868 31.7565 36.1703 35.529C36.0668 35.637 35.9618 35.7435 35.8568 35.8485C35.7518 35.9535 35.6513 36.051 35.5478 36.1515C34.8083 36.861 34.0178 37.5165 33.1823 38.112C32.7503 38.421 32.3048 38.7135 31.8473 38.9895C28.6838 40.9005 24.9743 42 21.0083 42C17.0423 42 13.3433 40.9035 10.1813 38.9955C9.72382 38.721 9.27678 38.4285 8.84333 38.118C8.00779 37.524 7.21727 36.87 6.4793 36.162C6.2678 35.9595 6.0608 35.7525 5.8583 35.541C2.2343 31.7685 0.00830078 26.6445 0.00830078 21C0.00830078 15.3555 2.3588 9.95098 6.1598 6.1515C9.95928 2.3505 15.2093 0 21.0083 0C26.8073 0 32.0573 2.3505 35.8568 6.1515C39.6578 9.95098 42.0083 15.201 42.0083 21Z" fill="#F8991D"/>
<mask id="mask1_8189_50834" style="mask-type:luminance" maskUnits="userSpaceOnUse" x="0" y="0" width="43" height="42">
<path d="M42.0083 21C42.0083 26.6385 39.7868 31.7565 36.1703 35.529C36.0668 35.637 35.9618 35.7435 35.8568 35.8485C35.7518 35.9535 35.6513 36.051 35.5478 36.1515C34.8083 36.861 34.0178 37.5165 33.1823 38.112C32.7503 38.421 32.3048 38.7135 31.8473 38.9895C28.6838 40.9005 24.9743 42 21.0083 42C17.0423 42 13.3433 40.9035 10.1813 38.9955C9.72382 38.721 9.27678 38.4285 8.84333 38.118C8.00779 37.524 7.21727 36.87 6.4793 36.162C6.2678 35.9595 6.0608 35.7525 5.8583 35.541C2.2343 31.7685 0.00830078 26.6445 0.00830078 21C0.00830078 15.3555 2.3588 9.95098 6.1598 6.1515C9.95928 2.3505 15.2093 0 21.0083 0C26.8073 0 32.0573 2.3505 35.8568 6.1515C39.6578 9.95098 42.0083 15.201 42.0083 21Z" fill="white"/>
</mask>
<g mask="url(#mask1_8189_50834)">
<g opacity="0.2">
<path d="M4.91162 37.1148L36.8916 5.1333" stroke="#F6E8D7" stroke-width="0.900001" stroke-linecap="round" stroke-linejoin="round"/>
<path d="M4.52905 4.51807L37.8891 37.8781" stroke="#F6E8D7" stroke-width="0.900001" stroke-linecap="round" stroke-linejoin="round"/>
<path d="M21.0083 -1.04834V46.1296" stroke="#F6E8D7" stroke-width="0.900001" stroke-linecap="round" stroke-linejoin="round"/>
<path d="M-0.356934 14.3594L33.003 47.7208" stroke="#F6E8D7" stroke-width="0.900001" stroke-linecap="round" stroke-linejoin="round"/>
<path d="M-3.03198 21.0039H44.1475" stroke="#F6E8D7" stroke-width="0.900001" stroke-linecap="round" stroke-linejoin="round"/>
<path d="M21.0079 35.7381C29.1456 35.7381 35.7424 29.1412 35.7424 21.0035C35.7424 12.8659 29.1456 6.26904 21.0079 6.26904C12.8703 6.26904 6.27344 12.8659 6.27344 21.0035C6.27344 29.1412 12.8703 35.7381 21.0079 35.7381Z" stroke="#F6E8D7" stroke-width="0.900001" stroke-linecap="round" stroke-linejoin="round"/>
</g>
<path d="M18.6095 33.3725L8.7478 33.2746L13.6489 28.375L18.6095 33.3725Z" stroke="#F6E8D7" stroke-width="0.900001" stroke-linecap="round" stroke-linejoin="round"/>
<path d="M35.75 20.9978C35.75 25.0688 34.1045 28.7513 31.436 31.4198L21.0095 20.9978V6.25879C29.153 6.25879 35.7515 12.8588 35.7515 20.9978H35.75Z" stroke="#F6E8D7" stroke-width="0.900001" stroke-linecap="round" stroke-linejoin="round"/>
<path d="M21.0083 6.25879C12.8664 6.25879 6.26636 12.8573 6.26636 20.9978H21.0083V6.25879Z" stroke="#F6E8D7" stroke-width="0.900001" stroke-linecap="round" stroke-linejoin="round"/>
<path d="M6.26636 20.9976L18.6639 33.3891H33.398L31.7951 31.8347L21.0083 20.9976H6.26636Z" stroke="#F6E8D7" stroke-width="0.900001" stroke-linecap="round" stroke-linejoin="round"/>
</g>
</g>
</svg>
