<svg width="42" height="42" viewBox="0 0 42 42" fill="none" xmlns="http://www.w3.org/2000/svg">
<mask id="mask0_8473_73375" style="mask-type:luminance" maskUnits="userSpaceOnUse" x="0" y="0" width="42" height="42">
<path d="M42 21C42 9.40202 32.598 0 21 0C9.40202 0 0 9.40202 0 21C0 32.598 9.40202 42 21 42C32.598 42 42 32.598 42 21Z" fill="white"/>
</mask>
<g mask="url(#mask0_8473_73375)">
<path d="M42 21C42 26.6385 39.7785 31.7565 36.162 35.529C36.0585 35.637 35.9535 35.7435 35.8485 35.8485C35.7435 35.9535 35.643 36.051 35.5395 36.1515C34.8 36.861 34.0095 37.5165 33.174 38.112C32.742 38.421 32.2965 38.7135 31.839 38.9895C28.6755 40.9005 24.966 42 21 42C17.034 42 13.335 40.9035 10.173 38.9955C9.71552 38.721 9.26848 38.4285 8.83503 38.118C7.99949 37.524 7.20897 36.87 6.471 36.162C6.2595 35.9595 6.0525 35.7525 5.85 35.541C2.226 31.7685 0 26.6445 0 21C0 15.3555 2.3505 9.95098 6.1515 6.1515C9.95098 2.3505 15.201 0 21 0C26.799 0 32.049 2.3505 35.8485 6.1515C39.6495 9.95098 42 15.201 42 21Z" fill="#F8991D"/>
<mask id="mask1_8473_73375" style="mask-type:luminance" maskUnits="userSpaceOnUse" x="0" y="0" width="42" height="42">
<path d="M42 21C42 26.6385 39.7785 31.7565 36.162 35.529C36.0585 35.637 35.9535 35.7435 35.8485 35.8485C35.7435 35.9535 35.643 36.051 35.5395 36.1515C34.8 36.861 34.0095 37.5165 33.174 38.112C32.742 38.421 32.2965 38.7135 31.839 38.9895C28.6755 40.9005 24.966 42 21 42C17.034 42 13.335 40.9035 10.173 38.9955C9.71552 38.721 9.26848 38.4285 8.83503 38.118C7.99949 37.524 7.20897 36.87 6.471 36.162C6.2595 35.9595 6.0525 35.7525 5.85 35.541C2.226 31.7685 0 26.6445 0 21C0 15.3555 2.3505 9.95098 6.1515 6.1515C9.95098 2.3505 15.201 0 21 0C26.799 0 32.049 2.3505 35.8485 6.1515C39.6495 9.95098 42 15.201 42 21Z" fill="white"/>
</mask>
<g mask="url(#mask1_8473_73375)">
<g opacity="0.2">
<path d="M4.90332 37.1148L36.8833 5.1333" stroke="#F6E8D7" stroke-width="0.900001" stroke-linecap="round" stroke-linejoin="round"/>
<path d="M4.52075 4.51807L37.8808 37.8781" stroke="#F6E8D7" stroke-width="0.900001" stroke-linecap="round" stroke-linejoin="round"/>
<path d="M21 -1.04834V46.1296" stroke="#F6E8D7" stroke-width="0.900001" stroke-linecap="round" stroke-linejoin="round"/>
<path d="M-0.365234 14.3594L32.9947 47.7208" stroke="#F6E8D7" stroke-width="0.900001" stroke-linecap="round" stroke-linejoin="round"/>
<path d="M-3.04028 21.0039H44.1392" stroke="#F6E8D7" stroke-width="0.900001" stroke-linecap="round" stroke-linejoin="round"/>
<path d="M20.9996 35.7381C29.1373 35.7381 35.7341 29.1412 35.7341 21.0035C35.7341 12.8659 29.1373 6.26904 20.9996 6.26904C12.862 6.26904 6.26514 12.8659 6.26514 21.0035C6.26514 29.1412 12.862 35.7381 20.9996 35.7381Z" stroke="#F6E8D7" stroke-width="0.900001" stroke-linecap="round" stroke-linejoin="round"/>
</g>
<path d="M18.6012 33.3725L8.7395 33.2746L13.6406 28.375L18.6012 33.3725Z" stroke="#F6E8D7" stroke-width="0.900001" stroke-linecap="round" stroke-linejoin="round"/>
<path d="M35.7417 20.9978C35.7417 25.0688 34.0962 28.7513 31.4277 31.4198L21.0012 20.9978V6.25879C29.1447 6.25879 35.7432 12.8588 35.7432 20.9978H35.7417Z" stroke="#F6E8D7" stroke-width="0.900001" stroke-linecap="round" stroke-linejoin="round"/>
<path d="M21 6.25879C12.8581 6.25879 6.25806 12.8573 6.25806 20.9978H21V6.25879Z" stroke="#F6E8D7" stroke-width="0.900001" stroke-linecap="round" stroke-linejoin="round"/>
<path d="M6.25806 20.9976L18.6556 33.3891H33.3897L31.7868 31.8347L21 20.9976H6.25806Z" stroke="#F6E8D7" stroke-width="0.900001" stroke-linecap="round" stroke-linejoin="round"/>
</g>
</g>
</svg>
