<svg width="42" height="42" viewBox="0 0 42 42" fill="none" xmlns="http://www.w3.org/2000/svg">
<rect width="42" height="42" rx="21" fill="white"/>
<path fill-rule="evenodd" clip-rule="evenodd" d="M9.29688 9.08663V29.3301C9.29711 29.7082 9.38251 30.0815 9.54675 30.4222C9.71099 30.763 9.94988 31.0626 10.2458 31.299L19.8139 38.9597C20.1505 39.2285 20.5688 39.375 21 39.375C21.4312 39.375 21.8495 39.2285 22.1862 38.9597L31.7542 31.299C32.0502 31.0626 32.289 30.763 32.4532 30.4222C32.6175 30.0815 32.7029 29.7082 32.7031 29.3301V9.08663C32.7031 8.41719 32.4366 7.77516 31.962 7.3018C31.4874 6.82843 30.8439 6.5625 30.1727 6.5625H11.8273C11.1562 6.5625 10.5126 6.82843 10.038 7.3018C9.56347 7.77516 9.29688 8.41719 9.29688 9.08663Z" fill="#004DE5"/>
<path d="M27.7772 18.2219V13.7992C27.7772 13.2127 27.5486 12.6503 27.1418 12.2356C26.735 11.8209 26.1832 11.5879 25.6079 11.5879H16.3881C15.8127 11.5879 15.261 11.8209 14.8541 12.2356C14.4473 12.6503 14.2188 13.2127 14.2188 13.7992V26.6319C14.219 26.9631 14.2922 27.2901 14.433 27.5886C14.5738 27.8872 14.7786 28.1497 15.0323 28.3567L18.3893 31.1042C18.4292 31.1372 18.4774 31.1579 18.5283 31.1642C18.5793 31.1703 18.6309 31.1615 18.6772 31.1389C18.7235 31.1164 18.7625 31.0808 18.7898 31.0365C18.8171 30.9922 18.8315 30.9409 18.8313 30.8886V21.8153C18.8313 21.7419 18.8599 21.6717 18.9108 21.6199C18.9616 21.568 19.0306 21.5388 19.1025 21.5388H21.543C21.9745 21.5388 22.3884 21.7136 22.6935 22.0247C22.9986 22.3356 23.17 22.7575 23.17 23.1974V30.8886C23.1701 30.9407 23.1845 30.9917 23.2118 31.0357C23.2389 31.0798 23.2778 31.1152 23.3239 31.1377C23.3699 31.1602 23.4212 31.1691 23.472 31.1631C23.5227 31.1572 23.5709 31.1368 23.6107 31.1042L26.9677 28.3567C27.2215 28.1497 27.4262 27.8872 27.567 27.5886C27.7079 27.2901 27.781 26.9631 27.7813 26.6319V22.6445C27.7813 22.058 27.5527 21.4956 27.1459 21.0809C26.739 20.6662 26.1872 20.4333 25.6119 20.4333C26.1866 20.4321 26.7373 20.1987 27.1433 19.784C27.5492 19.3695 27.7772 18.8076 27.7772 18.2219ZM21.5403 19.3276H19.0998C19.0279 19.3276 18.9589 19.2984 18.908 19.2465C18.8572 19.1947 18.8286 19.1245 18.8286 19.0511V14.0756C18.8286 14.0023 18.8572 13.932 18.908 13.8802C18.9589 13.8283 19.0279 13.7992 19.0998 13.7992H22.8961C22.9681 13.7992 23.037 13.8283 23.0879 13.8802C23.1387 13.932 23.1673 14.0023 23.1673 14.0756V17.669C23.1673 18.1089 22.9959 18.5308 22.6908 18.8417C22.3857 19.1528 21.9718 19.3276 21.5403 19.3276Z" fill="url(#paint0_linear_5307_314301)"/>
<defs>
<linearGradient id="paint0_linear_5307_314301" x1="21" y1="11.5879" x2="21" y2="31.166" gradientUnits="userSpaceOnUse">
<stop stop-color="white"/>
<stop offset="0.458333" stop-color="white"/>
<stop offset="1" stop-color="white"/>
</linearGradient>
</defs>
</svg>
