<svg xmlns="http://www.w3.org/2000/svg" width="42" height="42" fill="none"><path fill="#0293F6" d="M21 41c11.046 0 20-8.954 20-20S32.046 1 21 1 1 9.954 1 21s8.954 20 20 20Z"/><mask id="a" width="28" height="28" x="7" y="7" maskUnits="userSpaceOnUse" style="mask-type:luminance"><path fill="#fff" d="M35 7H7v28h28V7Z"/></mask><g mask="url(#a)"><path fill="#F3F3F3" fill-rule="evenodd" d="M32.156 12.556c-2.122-2.712-5.228-4.44-8.662-4.44-6.65 0-11.528 6.19-11.528 12.884 0 4.66 3.106 8.16 6.54 8.16.328 0 .635-.023.963-.088-2.319-1.684-3.785-4.747-3.785-8.072 0-5.294 3.588-9.428 7.81-9.428 4.615 0 7.81 4.572 7.81 9.428-.023 3.587-1.291 7.153-3.545 9.778-1.968 2.297-4.506 3.74-7.306 4.2 0 0 .24.022.547.022 7.722 0 14-6.278 14-14 0-3.172-1.05-6.103-2.844-8.444ZM30.034 21c0-4.66-3.106-8.16-6.54-8.16-.328 0-.635.023-.963.088 2.319 1.684 3.785 4.747 3.785 8.072 0 5.294-3.588 9.428-7.81 9.428-4.615 0-7.81-4.572-7.81-9.428.023-3.587 1.292-7.153 3.545-9.778 1.968-2.297 4.506-3.74 7.306-4.2 0 0-.24-.022-.547-.022-7.722 0-14 6.278-14 14a13.83 13.83 0 0 0 2.844 8.444c2.122 2.712 5.228 4.418 8.662 4.418 6.65.022 11.528-6.168 11.528-12.862Z" clip-rule="evenodd"/></g></svg>