<svg xmlns="http://www.w3.org/2000/svg" width="42" height="42" fill="none"><rect width="40" height="40" x="1" y="1" fill="#FF916A" rx="20"/><path stroke="#F3F3F3" stroke-linecap="round" stroke-linejoin="round" d="m5.625 35.535 6.3-6.554M6.525 36.938l8.55-8.895M7.875 37.875l6.3-6.555"/><path fill="#F3F3F3" fill-rule="evenodd" d="m30.373 13.28-.005-.166v-.002l-.002-.042c-.002-.048-.003-.097-.006-.145a12.208 12.208 0 0 0-.024-.378.409.409 0 0 0-.365-.381c-.122-.011-.242-.019-.363-.026l-.14-.006-.041-.001-.04-.001-.117-.004a10.841 10.841 0 0 0-.261-.003h-.044c-1.725.009-3.31.45-4.909 1.36-.015.01-.03.019-.047.027l-.037.021a.555.555 0 0 1-.015.009l-.015.008-.006.005c-1.311.762-2.62 1.837-3.975 3.25-.154.16-.305.323-.454.486l-2.633.209a.39.39 0 0 0-.212.084l-4.13 3.276a.427.427 0 0 0-.141.447.405.405 0 0 0 .348.3l3.875.365.613.64c-.077.2-1.07 3.822-1.07 3.822a.43.43 0 0 0 .088.45.392.392 0 0 0 .432.092l3.622-1.163.595.62.35 4.04c.014.171.129.316.287.363a.395.395 0 0 0 .429-.148l3.143-4.305a.428.428 0 0 0 .08-.221l.194-2.664c.172-.169.341-.34.51-.516 1.355-1.413 2.387-2.779 3.119-4.146l.002-.005.005-.01a10.737 10.737 0 0 0 .097-.188l.006-.01c.841-1.636 1.25-3.26 1.259-5.025v-.051c0-.089 0-.178-.002-.268Zm-6.298 7.272c.994 0 1.8-.838 1.8-1.872 0-1.035-.806-1.873-1.8-1.873s-1.8.838-1.8 1.873c0 1.034.806 1.872 1.8 1.872Z" clip-rule="evenodd"/><rect width="40" height="40" x="1" y="1" stroke="#FED386" stroke-width="2" rx="20"/></svg>