<svg width="42" height="42" viewBox="0 0 42 42" fill="none" xmlns="http://www.w3.org/2000/svg">
<rect width="42" height="42" rx="21" fill="#075A5A"/>
<g style="mix-blend-mode:screen" opacity="0.3">
<path opacity="0.8" d="M21.002 5.59961V16.986L30.6257 21.2866L21.002 5.59961Z" fill="white"/>
<path d="M20.9927 5.59961L11.3672 21.2866L20.9927 16.986V5.59961Z" fill="white"/>
<path opacity="0.8" d="M21.002 28.6613V36.3984L30.6324 23.0742L21.002 28.6613Z" fill="white"/>
<path d="M20.9927 36.3984V28.6601L11.3672 23.0742L20.9927 36.3984Z" fill="white"/>
<path opacity="0.5" d="M21.002 26.8782L30.6257 21.29L21.002 16.9922V26.8782Z" fill="white"/>
<path d="M11.3672 21.29L20.9927 26.8782V16.9922L11.3672 21.29Z" fill="white" fill-opacity="0.3"/>
</g>
<g style="mix-blend-mode:screen" opacity="0.3">
<path opacity="0.8" d="M21.001 6.17188V16.7256L29.921 20.7117L21.001 6.17188Z" fill="white"/>
<path d="M20.9938 6.17188L12.0723 20.7117L20.9938 16.7256V6.17188Z" fill="white"/>
<path opacity="0.8" d="M21.001 29.183V35.5762L28.9588 24.5664L21.001 29.183Z" fill="white"/>
<path d="M21.001 35.5762V29.1821L13.0474 24.5664L21.001 35.5762Z" fill="white"/>
<path opacity="0.5" d="M21.001 26.5087L29.921 21.3292L21.001 17.3457V26.5087Z" fill="white"/>
<path d="M12.0723 21.3292L20.9938 26.5087V17.3457L12.0723 21.3292Z" fill="white" fill-opacity="0.3"/>
</g>
<path d="M21.002 8.97656V17.8647L28.5142 21.2219L21.002 8.97656Z" fill="#C1DCDC"/>
<path d="M20.9984 8.97656L13.4849 21.2219L20.9984 17.8647V8.97656Z" fill="white"/>
<path d="M21.002 26.9824V33.0219L28.5195 22.6211L21.002 26.9824Z" fill="#C1DCDC"/>
<path d="M20.9984 33.0219V26.9814L13.4849 22.6211L20.9984 33.0219Z" fill="white"/>
<path opacity="0.5" d="M21.002 25.5842L28.5142 21.222L21.002 17.8672V25.5842Z" fill="white"/>
<path d="M13.4849 21.222L20.9984 25.5842V17.8672L13.4849 21.222Z" fill="white" fill-opacity="0.3"/>
</svg>
