<svg width="42" height="42" viewBox="0 0 42 42" fill="none" xmlns="http://www.w3.org/2000/svg">
<g clip-path="url(#clip0_4532_196861)">
<path d="M41.9979 20.9989C41.9979 9.40155 32.5963 0 20.9989 0C9.40155 0 0 9.40155 0 20.9989C0 32.5963 9.40155 41.9979 20.9989 41.9979C32.5963 41.9979 41.9979 32.5963 41.9979 20.9989Z" fill="url(#paint0_linear_4532_196861)"/>
<path d="M20.9989 41.9979C32.5962 41.9979 41.9979 32.5962 41.9979 20.9989C41.9979 9.4017 32.5962 0 20.9989 0C9.4017 0 0 9.4017 0 20.9989C0 32.5962 9.4017 41.9979 20.9989 41.9979Z" fill="url(#paint1_linear_4532_196861)"/>
<path d="M25.0206 7.03632L20.6991 9.48135C19.137 10.3651 18.998 12.5626 20.4363 13.6361L24.8488 16.9296C25.7475 17.6004 25.6609 18.9734 24.685 19.5259L20.7034 21.7809C19.1404 22.666 19.0037 24.866 20.4451 25.9378L24.646 29.0616C25.082 29.3858 25.3389 29.8969 25.3389 30.4401V30.5687C25.3389 30.9642 25.7658 31.2122 26.1094 31.0164L30.4536 28.5403C32.0166 27.6496 32.1446 25.4448 30.6954 24.379L26.2861 21.1361C25.3809 20.4704 25.4602 19.0935 26.4359 18.536L30.4616 16.2363C32.022 15.3448 32.1498 13.143 30.7028 12.0772L26.4888 8.97345C26.0493 8.64969 25.7898 8.13626 25.7898 7.59033V7.48485C25.7898 7.09013 25.3642 6.84195 25.0206 7.03632Z" fill="#F3F3F3"/>
<path d="M15.591 10.9738L11.2694 13.4189C9.70729 14.3026 9.56831 16.5002 11.0066 17.5736L15.419 20.8671C16.3178 21.5378 16.2312 22.9109 15.2553 23.4635L11.2737 25.7183C9.71064 26.6035 9.57396 28.8035 11.0154 29.8753L15.2163 32.999C15.6522 33.3233 15.9091 33.8344 15.9091 34.3776V34.5063C15.9091 34.9016 16.3361 35.1498 16.6797 34.9539L21.024 32.4778C22.5869 31.587 22.715 29.3823 21.2657 28.3165L16.8564 25.0735C15.9512 24.4078 16.0306 23.0309 17.0062 22.4735L21.0319 20.1739C22.5924 19.2824 22.72 17.0806 21.2731 16.0147L17.0591 12.9109C16.6196 12.5872 16.36 12.0737 16.36 11.5278V11.4223C16.36 11.0276 15.9345 10.7794 15.591 10.9738Z" fill="#F3F3F3"/>
</g>
<defs>
<linearGradient id="paint0_linear_4532_196861" x1="20.9989" y1="0" x2="20.9989" y2="41.9979" gradientUnits="userSpaceOnUse">
<stop stop-color="#404141"/>
<stop offset="1" stop-color="#222222"/>
</linearGradient>
<linearGradient id="paint1_linear_4532_196861" x1="21.1366" y1="15.342" x2="20.9989" y2="41.9979" gradientUnits="userSpaceOnUse">
<stop stop-color="#075A5A"/>
<stop offset="1" stop-color="#064646"/>
</linearGradient>
<clipPath id="clip0_4532_196861">
<rect width="42" height="42" fill="white"/>
</clipPath>
</defs>
</svg>
