<svg width="36" height="36" viewBox="0 0 36 36" fill="none" xmlns="http://www.w3.org/2000/svg">
<rect width="35.9982" height="35.9982" rx="17.9991" fill="url(#paint0_linear_4101_219283)"/>
<path d="M17.9991 35.9982C27.9396 35.9982 35.9982 27.9396 35.9982 17.9991C35.9982 8.0586 27.9396 0 17.9991 0C8.0586 0 0 8.0586 0 17.9991C0 27.9396 8.0586 35.9982 17.9991 35.9982Z" fill="url(#paint1_linear_4101_219283)"/>
<path d="M21.4772 6.05791L17.773 8.15365C16.4341 8.91117 16.3149 10.7947 17.5478 11.7149L21.3299 14.5379C22.1002 15.1128 22.026 16.2897 21.1895 16.7633L17.7767 18.6961C16.437 19.4548 16.3198 21.3405 17.5553 22.2592L21.1561 24.9367C21.5298 25.2146 21.75 25.6527 21.75 26.1183V26.2285C21.75 26.5675 22.1159 26.7801 22.4104 26.6123L26.134 24.4899C27.4737 23.7264 27.5835 21.8366 26.3413 20.9231L22.5619 18.1434C21.786 17.5728 21.854 16.3926 22.6903 15.9148L26.1409 13.9436C27.4784 13.1795 27.5879 11.2922 26.3476 10.3787L22.7356 7.71831C22.3589 7.4408 22.1365 7.00072 22.1365 6.53278V6.44237C22.1365 6.10404 21.7717 5.89131 21.4772 6.05791Z" fill="#F3F3F3"/>
<path d="M13.3566 9.38604L9.6524 11.4818C8.31345 12.2393 8.19433 14.1229 9.42716 15.043L13.2092 17.866C13.9796 18.4409 13.9054 19.6178 13.0689 20.0915L9.65607 22.0242C8.31633 22.7829 8.19917 24.6686 9.43469 25.5873L13.0355 28.2648C13.4091 28.5427 13.6293 28.9808 13.6293 29.4464V29.5567C13.6293 29.8956 13.9953 30.1083 14.2898 29.9404L18.0135 27.818C19.3531 27.0545 19.4629 25.1647 18.2207 24.2512L14.4413 21.4715C13.6654 20.9009 13.7334 19.7207 14.5697 19.2429L18.0203 17.2718C19.3578 16.5077 19.4672 14.6204 18.227 13.7068L14.615 11.0464C14.2383 10.7689 14.0158 10.3288 14.0158 9.86091V9.77049C14.0158 9.43217 13.6511 9.21944 13.3566 9.38604Z" fill="#F3F3F3"/>
<defs>
<linearGradient id="paint0_linear_4101_219283" x1="17.9991" y1="0" x2="17.9991" y2="35.9982" gradientUnits="userSpaceOnUse">
<stop stop-color="#404141"/>
<stop offset="1" stop-color="#222222"/>
</linearGradient>
<linearGradient id="paint1_linear_4101_219283" x1="18.1171" y1="13.1503" x2="17.9991" y2="35.9982" gradientUnits="userSpaceOnUse">
<stop stop-color="#075A5A"/>
<stop offset="1" stop-color="#064646"/>
</linearGradient>
</defs>
</svg>
