<svg xmlns="http://www.w3.org/2000/svg" width="42" height="42" fill="none"><circle cx="21" cy="21" r="20" fill="#222"/><path fill="#fff" fill-rule="evenodd" d="M14.33 8h3.63a.25.25 0 0 1 .25.252v5.303c0 .142.113.252.251.252h4.66c.14 0 .253-.11.253-.252V8.252c0-.139.11-.252.252-.252h3.627c.139 0 .252.113.252.252v5.303c0 .142.111.252.252.252h4.437c.14 0 .252.114.252.252v3.62a.25.25 0 0 1-.252.252h-4.437a.251.251 0 0 0-.252.252v5.634c0 .138.111.252.252.252h4.437a.25.25 0 0 1 .252.252v3.62c0 .138-.111.252-.252.252h-4.437a.251.251 0 0 0-.252.252v5.303a.253.253 0 0 1-.252.252h-3.627a.251.251 0 0 1-.252-.252v-5.303a.251.251 0 0 0-.252-.253h-4.658a.253.253 0 0 0-.252.253v5.303a.25.25 0 0 1-.25.252h-3.63a.253.253 0 0 1-.252-.252v-5.303a.25.25 0 0 0-.252-.253H9.393a.251.251 0 0 1-.252-.252v-3.62a.25.25 0 0 1 .252-.251h4.437a.251.251 0 0 0 .252-.252v-5.634a.251.251 0 0 0-.252-.252H9.392a.25.25 0 0 1-.252-.252v-3.62c0-.138.111-.252.252-.252h4.437a.25.25 0 0 0 .252-.252V8.252A.248.248 0 0 1 14.33 8Zm9.046 15.82v-5.637a.253.253 0 0 0-.252-.252h-4.66a.253.253 0 0 0-.252.252v5.634c0 .138.113.252.252.252h4.66a.25.25 0 0 0 .253-.25Z" clip-rule="evenodd"/></svg>