<svg width="42" height="42" viewBox="0 0 42 42" fill="none" xmlns="http://www.w3.org/2000/svg">
<path d="M21 41.9111C32.598 41.9111 42 32.529 42 20.9556C42 9.38212 32.598 0 21 0C9.40202 0 0 9.38212 0 20.9556C0 32.529 9.40202 41.9111 21 41.9111Z" fill="#CE3138"/>
<path d="M23.5965 23.5654V25.9143H19.3749V28.7964H16.2262V25.9143H15.1724V23.5654H16.2262V22.2894H15.1724V19.8009H16.2262V13.2051H20.7144C22.384 13.2051 23.5965 13.3447 24.3392 13.6304C25.0883 13.9097 25.6978 14.4049 26.1548 15.1159C26.6056 15.8269 26.8341 16.6458 26.8341 17.5727C26.8341 18.3281 26.7389 18.9756 26.5548 19.5025C26.3643 20.0294 26.1104 20.4675 25.7866 20.8166C25.4629 21.1658 25.0756 21.4388 24.6249 21.6356C24.1805 21.8323 23.6917 21.9784 23.1712 22.0736C22.6442 22.1688 22.0983 22.2259 21.527 22.2513C20.9556 22.2704 20.3779 22.2831 19.8002 22.2831H19.3749V23.5591H23.5965V23.5654ZM19.3812 19.8009H19.5717C21.0826 19.8009 22.0221 19.7374 22.3967 19.6105C22.7776 19.4835 23.0759 19.2613 23.2854 18.9502C23.4949 18.6392 23.5965 18.2456 23.5965 17.7822C23.5965 17.2489 23.4632 16.8236 23.1902 16.4998C22.9236 16.1761 22.5236 15.9793 21.9904 15.8967C21.8634 15.884 21.6095 15.8713 21.2286 15.8586C20.8477 15.8459 20.3398 15.8396 19.6923 15.8396H19.3749V19.8009H19.3812Z" fill="white"/>
</svg>
