<svg xmlns="http://www.w3.org/2000/svg" width="42" height="42" fill="none"><circle cx="21" cy="21" r="20" fill="#384182"/><path fill="#F3F3F3" d="M19.401 30.342 11.52 36l5.003-23.023 2.878 17.365Zm.16-.053 4.799.062-7.65-17.285 2.85 17.223Zm5.25-.381 3.675-13.619-1.39-1.7-2.285 15.319Zm-1.77-21.35-6.049 4.074 8.838-2.86-2.79-1.213Zm-.762 0-3.755.125-.549 1.567 4.304-1.691ZM26.83 14.067l-9.678-1.329 8.722-2.745.956 4.074Zm-2.293-5.119.531-1.443-2.79-1.213 2.259 2.656Zm.806-1.585.628 2.267 3.72-.983-4.348-1.284ZM24.572 30.263l-7.757-17.356 10.112 1.417-2.355 15.939ZM22.748 8.559l-4.782 1.869-1.151 2.125 5.933-3.994ZM19.78 7.142l-1.195 1.32 3.967-.098-2.772-1.222Zm2.09-1.027-1.895.877 4.321 1.904-2.426-2.78ZM24.031 6h-2.036l3.152 1.222L24.033 6Zm1.178 1.62-.486 1.453.974.469-.488-1.922Z"/></svg>