<svg width="42" height="42" viewBox="0 0 42 42" fill="none" xmlns="http://www.w3.org/2000/svg">
<mask id="mask0_6116_120279" style="mask-type:luminance" maskUnits="userSpaceOnUse" x="0" y="0" width="42" height="42">
<path d="M42 0H0V42H42V0Z" fill="white"/>
</mask>
<g mask="url(#mask0_6116_120279)">
<path d="M42 21C42 9.40202 32.5979 0 21 0C9.40202 0 0 9.40202 0 21C0 32.5979 9.40202 42 21 42C32.5979 42 42 32.5979 42 21Z" fill="white"/>
<path d="M24.2147 24.8176C18.2612 26.6037 13.3362 29.2087 10.2533 32.2611L10.1172 32.3965C10.937 33.1714 11.8359 33.8644 12.8076 34.4535L13.0165 34.1983C13.8584 33.1714 14.7605 32.1792 15.7005 31.2436C18.2231 28.7331 21.1099 26.5596 24.2179 24.8145L24.2147 24.8176Z" fill="#141416"/>
<path d="M5.24658 22.1758C5.48397 25.3604 6.66776 28.2805 8.5257 30.6556L8.61115 30.5705C10.5198 28.69 13.0044 26.9795 16.0017 25.4896C18.6288 24.1823 21.6453 23.0609 24.8959 22.1758H5.24658Z" fill="#141416"/>
<path d="M17.366 9.0867C22.6931 14.3881 29.3968 17.8941 36.7495 19.2234C35.8633 11.3641 29.1658 5.25 21.0282 5.25C18.879 5.25 16.8312 5.6784 14.9604 6.45015C15.7201 7.36365 16.5305 8.25195 17.366 9.0867Z" fill="#141416"/>
<path d="M10.2533 9.73927C13.3362 12.7948 18.2612 15.3967 24.2147 17.1859C21.1067 15.4376 18.2199 13.2673 15.6973 10.7567C14.7605 9.82432 13.8584 8.83208 13.0133 7.80203L12.8044 7.54688C11.8327 8.13593 10.9338 8.82892 10.1172 9.60382L10.2533 9.73927Z" fill="#141416"/>
<path d="M17.366 32.9172C16.5273 33.7519 15.717 34.6402 14.9604 35.5537C16.828 36.3255 18.879 36.7539 21.0282 36.7539C29.1658 36.7539 35.8633 30.6397 36.7526 22.7773C29.4 24.1066 22.6963 27.6126 17.3691 32.914L17.366 32.9172Z" fill="#141416"/>
<path d="M16.0017 16.5137C13.0044 15.0237 10.5198 13.3133 8.61115 11.4327L8.5257 11.3477C6.66776 13.7228 5.48397 16.6428 5.24658 19.8275H24.8927C21.6421 18.9423 18.6288 17.8209 15.9986 16.5105L16.0017 16.5137Z" fill="#141416"/>
</g>
</svg>
