<svg width="42" height="42" viewBox="0 0 42 42" fill="none" xmlns="http://www.w3.org/2000/svg">
<rect width="42" height="42" rx="21" fill="url(#paint0_linear_6954_218975)"/>
<path d="M31.5053 20.9931H28.9246C28.1539 20.9931 27.5293 21.6176 27.5293 22.3884V26.1341C27.5293 26.9048 26.9048 27.5294 26.134 27.5294H15.8672C15.0964 27.5294 14.4719 28.1539 14.4719 28.9247V31.5054C14.4719 32.2761 15.0964 32.9007 15.8672 32.9007H26.7283C27.4991 32.9007 28.1147 32.2761 28.1147 31.5054V29.4349C28.1147 28.6641 28.7393 28.1174 29.51 28.1174H31.5048C32.2756 28.1174 32.9001 27.4928 32.9001 26.7221V22.3722C32.9001 21.6014 32.2756 20.9931 31.5048 20.9931H31.5053Z" fill="#030303"/>
<path d="M14.4714 15.8662C14.4714 15.0954 15.0959 14.4709 15.8667 14.4709H26.1273C26.898 14.4709 27.5225 13.8463 27.5225 13.0756V10.4949C27.5225 9.72415 26.898 9.09961 26.1273 9.09961H15.2719C14.5011 9.09961 13.8766 9.72415 13.8766 10.4949V12.4834C13.8766 13.2542 13.2521 13.8787 12.4813 13.8787H10.4954C9.72464 13.8787 9.1001 14.5033 9.1001 15.274V19.6286C9.1001 20.3993 9.72725 20.9926 10.498 20.9926H13.0787C13.8494 20.9926 14.474 20.368 14.474 19.5973L14.4714 15.8662Z" fill="#030303"/>
<path d="M19.7857 18.2803H22.2646C23.0724 18.2803 23.7278 18.9362 23.7278 19.7435V22.2223C23.7278 23.0302 23.0719 23.6855 22.2646 23.6855H19.7857C18.9779 23.6855 18.3226 23.0296 18.3226 22.2223V19.7435C18.3226 18.9356 18.9784 18.2803 19.7857 18.2803Z" fill="#030303"/>
<defs>
<linearGradient id="paint0_linear_6954_218975" x1="34.5" y1="6" x2="6.5" y2="37" gradientUnits="userSpaceOnUse">
<stop stop-color="#94E2E1"/>
<stop offset="1" stop-color="#98FC8C"/>
</linearGradient>
</defs>
</svg>
