<svg width="42" height="42" viewBox="0 0 42 42" fill="none" xmlns="http://www.w3.org/2000/svg">
<path d="M42 21C42 32.598 32.598 42 21 42C9.40202 42 0 32.598 0 21C0 9.40202 9.40202 0 21 0C32.598 0 42 9.40202 42 21Z" fill="#FF8B00"/>
<path d="M20.4093 28.4463C17.5211 28.3019 12.948 25.7386 11.0225 24.475L8.67578 27.3632C8.94655 27.634 9.79498 28.356 11.0225 29.0781C12.25 29.8001 14.001 30.4019 14.7231 30.6125L13.7302 34.5838L16.5282 35.3961L17.5211 31.4248C17.7317 31.515 18.2612 31.7136 18.6944 31.7858C19.1276 31.858 19.597 31.9964 19.7775 32.0566L18.6944 36.0279L21.5827 36.75L22.5755 32.4176C22.8463 32.4477 23.5683 32.5079 24.2904 32.5079C25.193 32.5079 28.9838 32.3274 30.2474 29.7099C31.511 27.0924 30.6084 24.7457 28.6228 22.8503C26.6371 20.9549 20.8606 18.2471 19.236 16.8933C17.6113 15.5394 17.7918 12.9219 22.395 13.3732C26.0775 13.7342 29.5855 15.8703 30.8792 16.8933L33.3162 14.005C33.1958 13.9148 32.6663 13.5718 31.511 12.9219C30.3557 12.2721 28.9236 11.6884 28.352 11.4778L29.4351 7.32593L26.5468 6.51361L25.554 10.485C25.3735 10.4248 24.9403 10.2864 24.6514 10.2142C24.3626 10.142 23.6887 10.0036 23.3878 9.94341L24.3807 5.97206L21.5827 5.25L20.4093 9.58244C20.2288 9.52226 19.3984 9.43802 17.5211 9.58244C15.1743 9.76295 13.3692 11.2071 12.6471 13.283C11.9251 15.3589 13.2789 18.4277 18.4236 21.2257C23.5683 24.0237 25.0125 25.197 25.0125 26.3704C25.0125 27.5438 24.0196 28.6268 20.4093 28.4463Z" fill="white"/>
</svg>
