<svg width="42" height="42" viewBox="0 0 42 42" fill="none" xmlns="http://www.w3.org/2000/svg">
<g clip-path="url(#clip0_2736_274252)">
<path d="M41.9979 20.9989C41.9979 9.40155 32.5963 0 20.9989 0C9.40155 0 0 9.40155 0 20.9989C0 32.5963 9.40155 41.9979 20.9989 41.9979C32.5963 41.9979 41.9979 32.5963 41.9979 20.9989Z" fill="url(#paint0_linear_2736_274252)"/>
<path d="M31.9792 30.9917H25.897L25.9319 30.9626L26.0633 30.8465L26.1451 30.7719L26.275 30.656L26.3569 30.5804C26.4026 30.5362 26.4475 30.4908 26.4927 30.4448L26.5625 30.3752C26.6134 30.316 26.675 30.2543 26.7297 30.1929L26.7621 30.1582C26.8271 30.0803 26.891 30.0028 26.954 29.9254L27.0053 29.8596C27.0495 29.8021 27.0933 29.7456 27.1366 29.6854C27.1582 29.6554 27.1773 29.6237 27.2014 29.5935C27.2363 29.5416 27.2745 29.489 27.3094 29.4356C27.3313 29.4008 27.3533 29.366 27.3756 29.3311C27.4083 29.2792 27.4508 29.2141 27.4717 29.1722C27.4926 29.1304 27.5128 29.0929 27.5345 29.0559C27.565 29.0026 27.594 28.9479 27.6218 28.8922C27.6417 28.851 27.6629 28.8142 27.6797 28.7761C27.7079 28.7166 27.7348 28.6595 27.7615 28.6019C27.7779 28.5609 27.7964 28.524 27.8103 28.486C27.8371 28.4195 27.8618 28.3522 27.8859 28.2846C27.8985 28.2498 27.9116 28.2188 27.9232 28.185C27.9581 28.0825 27.9897 27.9801 28.0176 27.8736C28.2152 26.9842 28.2298 26.0642 28.0606 25.169C27.8915 24.274 27.5419 23.4226 27.0335 22.6669L27.138 22.4888C27.238 22.3123 27.3647 22.1523 27.5135 22.0144C27.6085 21.9263 27.7167 21.8534 27.8341 21.7984C27.9042 21.7661 27.9778 21.7419 28.0535 21.7263C28.1269 21.712 28.2018 21.7071 28.2765 21.7116C28.3262 21.7144 28.3756 21.7214 28.4242 21.7325C28.5422 21.759 28.6546 21.8061 28.7561 21.8719C28.7843 21.8886 28.8117 21.9067 28.838 21.9263C28.8835 21.9599 28.9271 21.9959 28.9686 22.0342C29.0593 22.1198 29.141 22.2146 29.2125 22.3168C29.2551 22.3721 29.2939 22.4303 29.3284 22.4909L33.0857 29.0894C33.1458 29.1927 33.1976 29.3009 33.2403 29.4127C33.2536 29.4474 33.2657 29.4823 33.2752 29.5172C33.2957 29.583 33.312 29.6502 33.3239 29.7182C33.3334 29.786 33.3368 29.8546 33.3344 29.923C33.335 30.0016 33.3268 30.08 33.31 30.1568C33.2907 30.2548 33.2553 30.3489 33.2055 30.4355C33.1548 30.5225 33.0904 30.6009 33.0149 30.6678C32.9547 30.7206 32.8888 30.7666 32.8184 30.8051L32.7428 30.8433C32.502 30.9473 32.2415 30.9978 31.9792 30.9917ZM24.9175 28.5751C24.9119 28.5106 24.9049 28.4451 24.8966 28.3786C24.8976 28.3599 24.8952 28.341 24.8896 28.323C24.8802 28.2498 24.8694 28.1753 24.8568 28.1L24.8498 28.0592C24.8384 27.9927 24.8251 27.9255 24.8116 27.8568C24.8095 27.8387 24.8059 27.8207 24.8007 27.8031C24.7868 27.7255 24.766 27.6468 24.7461 27.5712C24.744 27.5531 24.7397 27.5355 24.7332 27.5186C24.7158 27.4473 24.6964 27.3753 24.675 27.3026L24.6625 27.2576C24.6381 27.1737 24.6116 27.0897 24.5834 27.0041L24.5635 26.9448L23.3094 29.1047C23.2662 29.1827 23.2275 29.263 23.1934 29.3455C23.1313 29.4899 23.0899 29.6423 23.0704 29.7982C23.0625 29.8677 23.0605 29.9375 23.0645 30.0073C23.0678 30.0597 23.0749 30.1117 23.0857 30.1631C23.1259 30.3616 23.2299 30.5415 23.3818 30.6755C23.4628 30.7462 23.5534 30.8048 23.6512 30.8496C23.8899 30.9538 24.1484 31.0046 24.4088 30.9984H24.5483L24.56 30.9705C24.5778 30.9161 24.5949 30.8716 24.6151 30.8253L24.6221 30.8079C24.6384 30.766 24.6534 30.7207 24.6688 30.68L24.6823 30.6416C24.6988 30.5943 24.7137 30.5455 24.73 30.4967L24.7395 30.4664C24.7523 30.4232 24.7649 30.3794 24.7763 30.3351C24.7784 30.321 24.7821 30.3073 24.7872 30.294C24.8004 30.2424 24.8126 30.1895 24.8241 30.1362L24.8321 30.095C24.8416 30.0484 24.8509 30.0021 24.8593 29.9557L24.8663 29.9147C24.8756 29.8589 24.884 29.8017 24.8917 29.7442C24.8908 29.7284 24.8927 29.7125 24.8973 29.6972C24.9039 29.6456 24.9098 29.5928 24.9147 29.5395V29.5046C24.9147 29.4419 24.9261 29.3816 24.9261 29.319V28.8622V28.8117C24.9261 28.7421 24.9193 28.6724 24.9137 28.6026L24.9175 28.5751ZM20.1853 20.954C18.4434 18.0946 19.4454 14.2371 22.7949 13.4727C22.7949 13.4727 20.7545 16.7631 23.7354 19.0588C23.84 19.1397 23.9424 19.2208 24.0448 19.3027L24.8582 17.9092C24.8708 17.8813 24.8837 17.8534 24.8963 17.8249C24.9359 17.7385 24.9719 17.6507 25.0045 17.5619C25.0688 17.3854 25.1188 17.204 25.154 17.0195C25.1704 16.9278 25.185 16.8345 25.1952 16.7408V16.7387C25.2261 16.4709 25.2261 16.2004 25.1952 15.9325C25.1854 15.8399 25.1715 15.7466 25.154 15.6539C25.1415 15.5842 25.1261 15.5145 25.1077 15.4487C25.0815 15.3463 25.0509 15.2452 25.0161 15.1442C24.9812 15.0432 24.9422 14.9449 24.8993 14.8481C24.8868 14.8199 24.8749 14.7913 24.8614 14.7634L22.8861 11.2916L22.0501 9.78493C21.9804 9.66344 21.8996 9.54867 21.8087 9.44214C21.7298 9.35012 21.6405 9.26759 21.5425 9.1962C21.4974 9.16441 21.4503 9.13566 21.4014 9.11014C21.2677 9.03786 21.118 9 20.966 9C20.8139 9 20.6643 9.03786 20.5305 9.11014C20.4303 9.16274 20.3373 9.22834 20.2542 9.30524C20.159 9.39358 20.0733 9.49166 19.9985 9.59787C19.9586 9.65522 19.9199 9.71654 19.8822 9.78181L8.92255 29.0848C8.80168 29.2867 8.71902 29.509 8.67869 29.7408C8.66999 29.7973 8.6651 29.8544 8.66406 29.9115V29.9937C8.66655 30.046 8.67307 30.0981 8.68357 30.1494C8.6931 30.199 8.70686 30.2475 8.72468 30.2947C8.73409 30.318 8.74314 30.3413 8.75324 30.3644C8.79297 30.4497 8.84732 30.5274 8.91385 30.5939C8.93593 30.6172 8.95918 30.6395 8.98352 30.6605C9.01262 30.6853 9.04296 30.7085 9.07444 30.7302C9.21978 30.8271 9.3824 30.8953 9.55345 30.9308C9.65256 30.9527 9.75317 30.9671 9.85444 30.974H15.5188C15.5808 30.9723 15.6425 30.9663 15.7035 30.9563L15.7593 30.9493L15.894 30.9284L15.9498 30.9189C16.0094 30.9075 16.0665 30.896 16.1278 30.8821H16.148C16.2003 30.8712 16.2526 30.8566 16.3045 30.8412L16.365 30.8228L16.4811 30.7817L16.5406 30.7609C16.5967 30.7399 16.6514 30.719 16.7048 30.6946C16.3487 30.2828 16.049 29.8254 15.8133 29.3346C14.292 26.2091 16.5344 22.4178 16.5344 22.4178C16.5344 22.4178 16.1999 26.0111 18.5434 26.1753C18.8645 26.2147 19.1905 26.1832 19.4981 26.0831C19.8058 25.983 20.0877 25.8168 20.3242 25.5959C20.4524 25.4752 20.562 25.3361 20.6493 25.1831L20.7131 25.0737C20.8012 24.9213 20.8671 24.7571 20.9088 24.586C21.0597 23.9644 21.0731 23.3174 20.9482 22.6901C20.8232 22.0628 20.5628 21.4702 20.1853 20.954Z" fill="white"/>
</g>
<defs>
<linearGradient id="paint0_linear_2736_274252" x1="20.9989" y1="0" x2="20.9989" y2="41.9979" gradientUnits="userSpaceOnUse">
<stop stop-color="#404141"/>
<stop offset="0.0001" stop-color="#222222"/>
<stop offset="1" stop-color="#222222"/>
</linearGradient>
<clipPath id="clip0_2736_274252">
<rect width="42" height="42" fill="white"/>
</clipPath>
</defs>
</svg>
