<svg width="42" height="42" viewBox="0 0 42 42" fill="none" xmlns="http://www.w3.org/2000/svg">
<rect width="42" height="42" rx="21" fill="#FFEEDA"/>
<path d="M32.4634 26.4211V10.1643C32.4295 8.80675 31.3434 7.7207 29.9858 7.7207H13.0842C9.41876 7.78858 6.5 10.7752 6.5 14.4406C6.5 15.6624 6.83939 16.7485 7.34848 17.6649C7.78968 18.4454 8.46847 19.1582 9.11331 19.7012C9.31694 19.8709 9.21513 19.803 9.79209 20.1424C10.5727 20.6176 11.489 20.8551 11.489 20.8551V30.5617C11.523 31.0368 11.5569 31.4781 11.6927 31.8853C12.066 33.2429 13.0163 34.295 14.306 34.8041C14.849 35.0077 15.4599 35.1435 16.1048 35.1774L29.5786 35.2453C32.2598 35.2453 34.4658 33.0732 34.4658 30.3581C34.4658 28.7629 33.6852 27.3035 32.4634 26.4211Z" fill="#FFEEDA"/>
<path d="M32.8033 30.4598C32.7354 32.1907 31.31 33.5822 29.5791 33.5822L20.2798 33.5483C21.0264 32.6998 21.4677 31.5798 21.4677 30.358C21.4677 28.4574 20.3477 27.1338 20.3477 27.1338H29.613C31.3779 27.1338 32.8372 28.5932 32.8372 30.358L32.8033 30.4598Z" fill="#EBC28E"/>
<path d="M9.99572 18.3436C8.90967 17.3255 8.16301 16.0018 8.16301 14.4406V14.2709C8.26483 11.6237 10.4369 9.4516 13.0842 9.38372H30.0198C30.461 9.41766 30.8004 9.72311 30.8004 10.1643V24.5205C31.1737 24.5884 31.3773 24.6563 31.7507 24.7581C32.0561 24.8599 32.4634 25.0975 32.4634 25.0975V10.1643C32.4295 8.80675 31.3434 7.7207 29.9858 7.7207H13.0842C9.41876 7.78858 6.5 10.7752 6.5 14.4406C6.5 16.5788 7.48423 18.4115 9.04543 19.6673C9.14725 19.7691 9.24907 19.8709 9.55452 19.8709C10.0636 19.8709 10.403 19.4636 10.3691 19.0564C10.3691 18.683 10.2333 18.5473 9.99572 18.3436Z" fill="#101010"/>
<path d="M29.5789 25.4715H16.3087C15.4263 25.4715 14.7136 26.1842 14.7136 27.1006V29.0012C14.7475 29.8836 15.4942 30.6303 16.3766 30.6303H17.3608V29.0012H16.3766V27.1345C16.3766 27.1345 16.6142 27.1345 16.9196 27.1345C18.5826 27.1345 19.8384 28.6957 19.8384 30.3588C19.8384 31.8521 18.4808 33.7187 16.2408 33.583C14.2384 33.4472 13.1524 31.6824 13.1524 30.3588V14.1698C13.1524 13.4571 12.5415 12.8462 11.8288 12.8462H10.5051V14.5092H11.4894V30.3927C11.4215 33.6169 13.7972 35.246 16.2408 35.246L29.6128 35.2799C32.294 35.2799 34.5001 33.1078 34.5001 30.3927C34.4661 27.6776 32.294 25.4715 29.5789 25.4715ZM32.8031 30.4606C32.7352 32.1915 31.3098 33.583 29.5789 33.583L20.2796 33.549C21.0262 32.7006 21.4674 31.5806 21.4674 30.3588C21.4674 28.4582 20.3475 27.1345 20.3475 27.1345H29.6128C31.3777 27.1345 32.837 28.5939 32.837 30.3588L32.8031 30.4606Z" fill="#101010"/>
<path d="M26.015 14.7804H16.0029V13.1514H26.015C26.4562 13.1514 26.8295 13.5247 26.8295 13.9659C26.8295 14.4071 26.4901 14.7804 26.015 14.7804Z" fill="#101010"/>
<path d="M26.015 22.5854H16.0029V20.9224H26.015C26.4562 20.9224 26.8295 21.2957 26.8295 21.7369C26.8295 22.212 26.4901 22.5854 26.015 22.5854Z" fill="#101010"/>
<path d="M27.7798 18.6825H16.0029V17.0195H27.7798C28.221 17.0195 28.5943 17.3929 28.5943 17.8341C28.5943 18.3092 28.221 18.6825 27.7798 18.6825Z" fill="#101010"/>
</svg>
