<svg width="42" height="42" viewBox="0 0 42 42" fill="none" xmlns="http://www.w3.org/2000/svg">
<g clip-path="url(#clip0_2736_274242)">
<path d="M41.9979 20.9989C41.9979 9.40155 32.5963 0 20.9989 0C9.40155 0 0 9.40155 0 20.9989C0 32.5963 9.40155 41.9979 20.9989 41.9979C32.5963 41.9979 41.9979 32.5963 41.9979 20.9989Z" fill="#F3F3F3"/>
<path d="M21.6587 41.9979C21.2325 41.9979 20.7879 41.9979 20.3617 41.9979C20.3247 41.9793 20.2876 41.9793 20.2506 41.9793C19.1946 41.9424 18.1569 41.8314 17.1194 41.6279C15.0073 41.2209 12.9878 40.5179 11.0795 39.5004C8.72647 38.2424 6.68844 36.5959 4.96538 34.5609C3.00146 32.2299 1.59336 29.5659 0.759629 26.5874C0.444661 25.4589 0.240858 24.3304 0.111165 23.1649C0.0741102 22.7394 0.0370551 22.3139 0.0185276 21.8699C0.0185276 21.7773 0.0185276 21.7034 0.0185276 21.6109C0.0185276 21.5183 0.0370551 21.4073 0 21.3149C0 21.1113 0 20.9078 0 20.7044C0.0185276 20.6674 0.0185276 20.6303 0.0185276 20.5749C0.0185276 20.4268 0.0185276 20.2789 0.0185276 20.1308C0.0185276 20.1123 0.0185276 20.0938 0.0185276 20.0753C0.0555827 19.1873 0.14822 18.3178 0.296441 17.4483C0.666991 15.3023 1.35252 13.2488 2.37153 11.3063C3.98342 8.2353 6.20673 5.71929 9.04144 3.73978C10.7275 2.57428 12.5432 1.66778 14.4885 1.03878C16.4524 0.391277 18.4905 0.0582752 20.5655 0.002775C21.7699 -0.015725 22.9557 0.0582752 24.1414 0.224776C25.7162 0.465276 27.254 0.872278 28.7362 1.46428C31.96 2.75928 34.7391 4.70179 36.981 7.3658C39.9083 10.8068 41.5387 14.7843 41.9278 19.2799C42.039 20.6488 42.0204 22.0178 41.8537 23.3869C41.7055 24.6819 41.4461 25.9399 41.057 27.1794C39.7787 31.2124 37.4997 34.5794 34.2019 37.2619C32.0526 39.0194 29.6255 40.2774 26.9761 41.0728C25.4198 41.5354 23.8264 41.8129 22.2145 41.9054C22.0478 41.9793 21.844 41.9609 21.6587 41.9979ZM16.2857 9.36381C14.6368 9.36381 13.0064 9.36381 11.3574 9.36381C11.2833 9.36381 11.2277 9.36381 11.1536 9.36381C11.0609 9.36381 11.0054 9.4193 11.0054 9.51181C11.0054 9.56731 11.0054 9.6043 11.0054 9.6598C11.0054 10.6588 11.0054 11.6393 11.0054 12.6383C11.0054 13.9704 11.0054 15.3023 11.0054 16.6158C11.0054 16.9119 10.9868 16.9119 10.7089 16.9119C9.78255 16.9119 8.87469 16.9119 7.94831 16.9119C7.74452 16.9119 7.72598 16.9303 7.72598 17.1338C7.72598 17.8738 7.72598 18.5954 7.72598 19.3353C7.72598 19.3908 7.72598 19.4278 7.72598 19.4833C7.72598 19.5759 7.78157 19.6128 7.85568 19.6128C7.89273 19.6128 7.92979 19.6128 7.96684 19.6128C8.91175 19.6128 9.83813 19.6128 10.783 19.6128C10.9683 19.6128 10.9868 19.6314 10.9868 19.8163C10.9868 20.6118 10.9868 21.4258 10.9868 22.2214C10.9868 22.4618 10.9683 22.4988 10.7089 22.4988C9.74549 22.4988 8.76353 22.4988 7.8001 22.4988C7.72598 22.4988 7.68893 22.4988 7.68893 22.5913C7.68893 23.3869 7.68893 24.1823 7.68893 24.9779C7.68893 25.1813 7.72598 25.1999 7.92979 25.1999C8.87469 25.1999 9.83813 25.1999 10.783 25.1999C10.9498 25.1999 10.9683 25.2183 10.9683 25.4033C10.9683 25.4589 10.9683 25.4959 10.9683 25.5514C10.9683 27.8824 10.9683 30.1948 10.9683 32.5258C10.9683 32.6739 10.9683 32.6739 11.1165 32.6739C13.7104 32.6739 16.3043 32.6739 18.9166 32.6739C19.5466 32.6739 20.1764 32.6923 20.825 32.6739C22.0849 32.6369 23.3077 32.4703 24.5119 32.1004C25.9201 31.6749 27.2169 31.0644 28.3842 30.1764C30.0331 28.9184 31.2745 27.3458 32.0155 25.4033C32.0712 25.2738 32.1824 25.1999 32.3305 25.1999C33.1642 25.1999 33.9981 25.1999 34.8318 25.1999C34.8689 25.1999 34.9058 25.1999 34.9429 25.1813C35.0356 25.1629 35.0911 25.1074 35.1097 25.0148C35.1097 24.9593 35.1097 24.9039 35.1097 24.8668C35.1097 24.4043 35.1097 23.9419 35.1097 23.4794C35.1097 23.2018 35.0911 22.9243 35.1468 22.6469C35.1653 22.5358 35.1282 22.4988 35.017 22.4988C34.3686 22.4988 33.7202 22.4988 33.0716 22.4988C32.7937 22.4988 32.7753 22.4804 32.7937 22.2028C32.8494 21.4258 32.8494 20.6303 32.7937 19.8533C32.7753 19.6498 32.8123 19.6128 33.0161 19.6128C33.6275 19.6128 34.2574 19.6128 34.8689 19.6128C35.0541 19.6128 35.1282 19.5573 35.1282 19.3724C35.1282 18.6324 35.1282 17.8923 35.1282 17.1523C35.1282 16.9489 35.0911 16.9119 34.8874 16.9119C34.0721 16.9119 33.2384 16.9119 32.4232 16.9119C32.275 16.9119 32.1267 16.8194 32.0897 16.6713C31.8859 16.0978 31.6265 15.5428 31.293 15.0248C30.2184 13.2488 28.7733 11.8613 26.9576 10.8808C25.0307 9.8448 22.9927 9.3453 20.8065 9.3453C19.3242 9.3453 17.805 9.36381 16.2857 9.36381Z" fill="url(#paint0_linear_2736_274242)"/>
<path d="M21.4183 17.0032C18.9356 17.0032 16.4529 17.0032 13.9702 17.0032C13.6367 17.0032 13.6367 17.0032 13.6367 16.6703C13.6367 15.1718 13.6367 13.6733 13.6367 12.1748C13.6367 11.8788 13.6553 11.8418 13.9702 11.8418C16.3047 11.8418 18.6206 11.8418 20.9551 11.8418C23.2525 11.8418 25.272 12.5633 27.0506 14.0433C27.9214 14.7648 28.6069 15.6343 29.1072 16.6518C29.1443 16.7073 29.1627 16.7813 29.1627 16.8553C29.1443 17.0032 29.1443 17.0032 28.9775 17.0032C26.9951 17.0032 25.0127 17.0032 23.0301 17.0032C22.4743 17.0032 21.9555 17.0032 21.4183 17.0032Z" fill="url(#paint1_linear_2736_274242)"/>
<path d="M21.1404 25.2365C23.4563 25.2365 25.7908 25.2365 28.1067 25.2365C28.4031 25.2365 28.681 25.1995 28.9775 25.2181C29.1627 25.2181 29.2369 25.2735 29.1257 25.4771C29.0331 25.662 28.9405 25.847 28.8293 26.0321C28.014 27.3455 26.9395 28.3815 25.5685 29.1031C25.0682 29.3621 24.5494 29.6025 24.0121 29.7506C23.4749 29.9171 22.9375 30.0651 22.3632 30.1391C21.8814 30.2131 21.4183 30.3056 20.9366 30.3056C18.6021 30.3056 16.2676 30.3056 13.9516 30.3056C13.6367 30.3056 13.6367 30.287 13.6367 29.9726C13.6367 28.5111 13.6367 27.0311 13.6367 25.5696C13.6367 25.4955 13.6367 25.4216 13.6553 25.3476C13.6553 25.2735 13.7108 25.2365 13.7849 25.2365C13.859 25.2365 13.9332 25.2365 14.0073 25.2365C16.3973 25.2365 18.7688 25.2365 21.1404 25.2365Z" fill="url(#paint2_linear_2736_274242)"/>
<path d="M21.8435 22.5012C19.2125 22.5012 16.6001 22.5012 13.9693 22.5012C13.6543 22.5012 13.6543 22.5012 13.6543 22.1867C13.6543 21.4468 13.6543 20.6882 13.6543 19.9482C13.6543 19.9112 13.6543 19.8742 13.6543 19.8373C13.6728 19.6708 13.7284 19.6338 13.8767 19.6152C13.9136 19.6152 13.9322 19.6152 13.9693 19.6152C19.2311 19.6152 24.4744 19.6152 29.7362 19.6152C29.9956 19.6152 30.0327 19.6522 30.0512 19.9112C30.1067 20.7068 30.1067 21.5022 30.0327 22.3162C30.0141 22.4642 29.977 22.5012 29.8288 22.5198C29.7917 22.5198 29.7548 22.5198 29.7177 22.5198C27.0867 22.5012 24.4559 22.5012 21.8435 22.5012Z" fill="url(#paint3_linear_2736_274242)"/>
</g>
<defs>
<linearGradient id="paint0_linear_2736_274242" x1="20.999" y1="-6.32333e-09" x2="20.999" y2="41.9979" gradientUnits="userSpaceOnUse">
<stop stop-color="#84C23E"/>
<stop offset="1" stop-color="#4C7024"/>
</linearGradient>
<linearGradient id="paint1_linear_2736_274242" x1="21.3997" y1="11.8418" x2="21.3997" y2="17.0032" gradientUnits="userSpaceOnUse">
<stop stop-color="#84C23E"/>
<stop offset="1" stop-color="#4C7024"/>
</linearGradient>
<linearGradient id="paint2_linear_2736_274242" x1="21.4073" y1="25.2128" x2="21.4073" y2="30.3056" gradientUnits="userSpaceOnUse">
<stop stop-color="#84C23E"/>
<stop offset="1" stop-color="#4C7024"/>
</linearGradient>
<linearGradient id="paint3_linear_2736_274242" x1="21.8725" y1="19.6152" x2="21.8725" y2="22.5198" gradientUnits="userSpaceOnUse">
<stop stop-color="#84C23E"/>
<stop offset="1" stop-color="#4C7024"/>
</linearGradient>
<clipPath id="clip0_2736_274242">
<rect width="42" height="42" fill="white"/>
</clipPath>
</defs>
</svg>
