<svg width="42" height="42" viewBox="0 0 42 42" fill="none" xmlns="http://www.w3.org/2000/svg">
<rect width="42" height="42" rx="21" fill="url(#paint0_linear_3666_105934)"/>
<path fill-rule="evenodd" clip-rule="evenodd" d="M20.9637 34.8571C25.0108 34.8571 28.6515 33.1123 31.1786 30.332L30.5062 29.5878C29.674 28.6669 28.2555 28.5882 27.3266 29.4114L25.8921 30.6827C23.9408 32.4122 20.9748 32.3031 19.1556 30.435L18.2587 29.5139C17.3974 28.6295 15.9862 28.5988 15.0871 29.4448L12.4563 31.9201C14.8016 33.7603 17.7549 34.8571 20.9637 34.8571ZM32.4501 27.8312L32.7766 28.1927C34.0486 26.0961 34.7813 23.6343 34.7813 21.0008C34.7813 17.8075 33.7041 14.8666 31.8942 12.5233C31.5578 12.6098 31.2362 12.7753 30.9585 13.0215L29.5242 14.2927C27.5728 16.0222 24.6068 15.9132 22.7876 14.0451L21.8908 13.124C21.0294 12.2396 19.6182 12.2088 18.7191 13.0548L15.0286 16.5274L13.2332 14.6193L16.9237 11.1467C18.8638 9.32114 21.9092 9.38768 23.7677 11.2962L24.6646 12.2173C25.5077 13.083 26.8821 13.1335 27.7865 12.332L29.2208 11.0608C29.4616 10.8474 29.7175 10.6621 29.9847 10.5047C27.564 8.41074 24.4113 7.14453 20.9637 7.14453C14.0319 7.14453 8.29237 12.263 7.29839 18.9366C9.18989 17.8448 11.6459 18.1302 13.2346 19.7617L14.2718 20.8268C15.0781 21.6548 16.3786 21.7421 17.2883 21.0294L20.3631 18.6205C22.2086 17.1747 24.8213 17.2446 26.5868 18.7871L30.7736 22.4451L29.0499 24.418L24.863 20.7601C24.0448 20.0452 22.8341 20.0128 21.9789 20.683L18.9041 23.0919C16.9411 24.6298 14.1346 24.4413 12.3948 22.6547L11.3576 21.5896C10.4963 20.7051 9.08507 20.6743 8.18598 21.5203L7.21875 22.4303C7.51788 25.3571 8.72536 28.0139 10.5538 30.1128L13.2917 27.5366C15.2318 25.7111 18.2772 25.7776 20.1357 27.6862L21.0326 28.6072C21.8757 29.4729 23.2502 29.5235 24.1544 28.722L25.5888 27.4507C27.5932 25.6742 30.6545 25.844 32.4501 27.8312Z" fill="url(#paint1_linear_3666_105934)"/>
<defs>
<linearGradient id="paint0_linear_3666_105934" x1="21" y1="0" x2="21" y2="42" gradientUnits="userSpaceOnUse">
<stop stop-color="white"/>
<stop offset="1" stop-color="#D3D3D3"/>
</linearGradient>
<linearGradient id="paint1_linear_3666_105934" x1="21" y1="7.14453" x2="26.4752" y2="34.8459" gradientUnits="userSpaceOnUse">
<stop stop-color="#780000"/>
<stop offset="1" stop-color="#C1121F"/>
</linearGradient>
</defs>
</svg>
