<svg width="42" height="42" viewBox="0 0 42 42" fill="none" xmlns="http://www.w3.org/2000/svg">
<path d="M21 41C32.0457 41 41 32.0457 41 21C41 9.9543 32.0457 1 21 1C9.9543 1 1 9.9543 1 21C1 32.0457 9.9543 41 21 41Z" fill="#222222"/>
<path d="M20.7693 30.7154C16.2123 30.7154 12.5117 27.0168 12.5117 22.4621C12.5117 18.0343 19.9869 10.2143 20.3041 9.88674L20.6953 9.47461L21.0971 9.87618C21.4248 10.2038 29.0269 18.0238 29.0269 22.4516C29.0269 27.0168 25.3263 30.7154 20.7693 30.7154ZM20.7059 11.0703C20.0503 11.7783 18.6758 13.3106 17.3119 15.1071C14.8907 18.2985 13.6113 20.8347 13.6113 22.4516C13.6113 26.3933 16.8255 29.6058 20.7693 29.6058C24.7131 29.6058 27.9273 26.3933 27.9273 22.4516C27.9273 20.8347 26.6268 18.2985 24.1633 15.1071C22.7782 13.3212 21.372 11.7783 20.7059 11.0703Z" fill="url(#paint0_linear_7674_310988)"/>
<path d="M20.7685 33.3584C14.7524 33.3584 9.86768 28.4656 9.86768 22.4633C9.86768 16.5877 18.0724 8.38727 18.4213 8.04911C18.6328 7.83776 18.9923 7.83776 19.2037 8.04911C19.4152 8.26046 19.4152 8.61976 19.2037 8.83111C19.1191 8.91565 10.9779 17.0527 10.9779 22.4633C10.9779 27.8633 15.3763 32.2594 20.7791 32.2594C26.182 32.2594 30.5804 27.8633 30.5804 22.4633C30.5804 20.2441 29.1424 17.1795 26.4146 13.5759C24.3211 10.8178 22.217 8.72543 22.1959 8.7043C21.9739 8.49295 21.9739 8.14422 22.1959 7.9223C22.4074 7.70038 22.7563 7.70038 22.9783 7.9223C23.3378 8.27103 31.6905 16.5771 31.6905 22.4633C31.6694 28.4656 26.7846 33.3584 20.7685 33.3584Z" fill="url(#paint1_linear_7674_310988)"/>
<path d="M20.7692 36C13.4527 36 7.5 30.0505 7.5 22.7377C7.5 19.7154 9.02253 15.9956 12.0147 11.6946C14.2245 8.52435 16.392 6.26289 16.4871 6.16778C16.6986 5.94587 17.0475 5.94587 17.2695 6.15722C17.4916 6.36857 17.4916 6.7173 17.2801 6.93922C17.259 6.96035 15.0703 9.24294 12.9134 12.3392C10.0904 16.3866 8.5996 19.9796 8.5996 22.7377C8.5996 29.4375 14.0553 34.901 20.7692 34.901C27.4831 34.901 32.9389 29.4481 32.9389 22.7377C32.9389 19.9796 31.4375 16.3866 28.5933 12.3392C26.4153 9.24294 24.2055 6.96035 24.1843 6.93922C23.9729 6.7173 23.9729 6.36857 24.1949 6.15722C24.4169 5.94587 24.7659 5.94587 24.9773 6.16778C25.3474 6.54822 34.0385 15.5729 34.0385 22.7377C34.0385 30.0505 28.0858 36 20.7692 36Z" fill="url(#paint2_linear_7674_310988)"/>
<defs>
<linearGradient id="paint0_linear_7674_310988" x1="20.7693" y1="30.7141" x2="20.7693" y2="9.47331" gradientUnits="userSpaceOnUse">
<stop stop-color="#05AAC5"/>
<stop offset="1" stop-color="#71E0EC"/>
</linearGradient>
<linearGradient id="paint1_linear_7674_310988" x1="20.7791" y1="33.3571" x2="20.7791" y2="7.75457" gradientUnits="userSpaceOnUse">
<stop stop-color="#05AAC5"/>
<stop offset="1" stop-color="#71E0EC"/>
</linearGradient>
<linearGradient id="paint2_linear_7674_310988" x1="20.7692" y1="35.9987" x2="20.7692" y2="5.9987" gradientUnits="userSpaceOnUse">
<stop stop-color="#05AAC5"/>
<stop offset="1" stop-color="#71E0EC"/>
</linearGradient>
</defs>
</svg>
