<svg width="42" height="42" viewBox="0 0 42 42" fill="none" xmlns="http://www.w3.org/2000/svg">
<path d="M21 42C18.1655 42 15.4155 41.4444 12.8255 40.3494C10.3244 39.2915 8.07966 37.7772 6.1505 35.8495C4.22282 33.9218 2.70853 31.6756 1.6506 29.1745C0.555634 26.5845 0 23.8345 0 21C0 18.1655 0.555634 15.4155 1.6506 12.8255C2.70853 10.3244 4.22282 8.07966 6.1505 6.1505C8.07966 4.22282 10.3244 2.70853 12.8255 1.6506C15.4155 0.555634 18.1655 0 21 0C23.8345 0 26.5845 0.555634 29.1745 1.6506C31.6756 2.70853 33.9203 4.22282 35.8495 6.1505C37.7772 8.07818 39.2915 10.3244 40.3494 12.8255C41.4444 15.4155 42 18.1655 42 21C42 23.8345 41.4444 26.5845 40.3494 29.1745C39.2915 31.6756 37.7772 33.9203 35.8495 35.8495C33.9218 37.7772 31.6756 39.2915 29.1745 40.3494C26.5845 41.4458 23.8345 42 21 42Z" fill="white"/>
<path d="M21 40.8858C31.9835 40.8858 40.8873 31.982 40.8873 20.9986C40.8873 10.0152 31.9835 1.11133 21 1.11133C10.0166 1.11133 1.11279 10.0152 1.11279 20.9986C1.11279 31.982 10.0166 40.8858 21 40.8858Z" fill="#030303"/>
<path d="M10.4301 10.349C9.62227 11.1972 8.95579 11.9108 8.94906 11.9243C8.94232 11.9445 9.66939 12.6581 10.5648 13.5063C11.4601 14.3613 12.2411 15.1086 12.2949 15.1557L12.3959 15.2499L12.2141 15.5529C10.6186 18.1919 10.2887 21.3694 11.2918 24.2912C11.4803 24.8432 11.8035 25.5501 12.0795 26.0146C12.2141 26.2435 12.2747 26.3916 12.2613 26.4185C12.2478 26.4455 11.4332 27.3072 10.4503 28.3372C9.46743 29.3605 8.66631 30.2154 8.65284 30.2289C8.64611 30.2491 11.3995 32.9083 11.6621 33.1237L11.7631 33.2112L13.3182 31.5888C14.1732 30.6934 14.9743 29.8519 15.0955 29.724L15.3244 29.4951L15.5398 29.6297C16.6371 30.3299 17.923 30.8146 19.3434 31.0704C20.0571 31.1983 21.4169 31.232 22.1777 31.1377C23.6453 30.9694 25.0994 30.478 26.291 29.7577L26.6007 29.5692L26.9305 29.8923C27.6509 30.5924 30.3437 33.1506 30.3707 33.1641C30.3976 33.1776 33.353 30.0875 33.3463 30.0471C33.3395 30.0269 31.3131 28.0814 30.0744 26.9167L29.6638 26.5262L29.8523 26.2166C31.4343 23.5843 31.7642 20.3933 30.7409 17.4513C30.5928 17.0205 30.1418 16.0511 29.8792 15.6067L29.7513 15.3846L31.4815 13.5736C32.4307 12.584 33.2049 11.756 33.1981 11.7358C33.1712 11.6685 30.1418 8.80731 30.1014 8.80731C30.0744 8.80731 29.3137 9.5815 28.4049 10.5375C27.496 11.4867 26.742 12.2676 26.7218 12.2743C26.7084 12.2811 26.6209 12.2407 26.5401 12.1801C26.3112 12.0253 25.7322 11.7088 25.4091 11.5607C24.4262 11.1097 23.5106 10.8337 22.447 10.6788C21.8949 10.598 20.2388 10.5846 19.7272 10.6586C18.5019 10.8337 17.4988 11.1366 16.4756 11.6483C16.1794 11.7896 15.836 11.9781 15.7014 12.0589L15.459 12.207L15.183 11.9377C15.0349 11.7896 14.3617 11.1568 13.6952 10.5173C13.0287 9.88445 12.3488 9.23816 12.1872 9.07659L11.891 8.78711L10.4301 10.349ZM21.7333 14.7383C22.8038 14.8662 23.7597 15.2297 24.6416 15.8491C25.0927 16.1655 25.7659 16.8387 26.0823 17.2898C27.8798 19.8345 27.5364 23.2948 25.2744 25.4154C23.3423 27.2196 20.5485 27.6236 18.199 26.4253C16.5025 25.5568 15.3042 23.968 14.9204 22.0628C14.7993 21.457 14.7993 20.326 14.9204 19.7268C15.0349 19.1344 15.1897 18.7103 15.4792 18.1178C16.6371 15.7885 19.1482 14.4286 21.7333 14.7383Z" fill="#F3F3F3"/>
<path d="M21.2311 20.2679C19.6169 19.7855 19.6169 19.5185 19.6169 19.3031C19.6169 19.0041 20.0812 18.5911 20.9532 18.5911C21.4687 18.5911 22.3352 18.7157 22.3352 19.5559H23.9054C23.9054 18.0642 22.719 17.062 20.9532 17.062C19.0649 17.062 18.0467 18.2173 18.0467 19.3031C18.0467 20.7877 19.3848 21.3146 20.7594 21.7276C22.3736 22.21 22.3827 22.4805 22.3827 22.6959C22.3827 22.995 21.9184 23.4079 21.0464 23.4079C20.5291 23.4079 19.6645 23.2833 19.6645 22.4431H18.0942C18.0942 23.9348 19.2806 24.937 21.0464 24.937C22.9347 24.937 23.9529 23.7818 23.9529 22.6959C23.9548 21.2096 22.6075 20.6791 21.2311 20.2679Z" fill="#F3F3F3"/>
</svg>
