<svg xmlns="http://www.w3.org/2000/svg" width="36" height="36" fill="none"><path fill="#fff" d="M18 35.998a17.956 17.956 0 0 1-12.728-5.272A17.941 17.941 0 0 1 0 18 17.955 17.955 0 0 1 5.272 5.271 17.955 17.955 0 0 1 17.999 0a17.956 17.956 0 0 1 12.728 5.272 17.942 17.942 0 0 1 5.271 12.727 17.957 17.957 0 0 1-5.272 12.728A17.943 17.943 0 0 1 18 35.998Z"/><path fill="#000" d="M17.999 35.044c9.414 0 17.045-7.632 17.045-17.045C35.044 8.585 27.413.953 18 .953 8.585.953.954 8.585.954 18c0 9.413 7.631 17.045 17.045 17.045Z"/><path fill="#fff" d="M18.417 11.217a4.535 4.535 0 0 1 4.125 4.406l3.494 1.452-1.821-2.97 3.872-3.872-2.314-2.314-3.317 3.319-4.037-6.584v6.563h-.002ZM22.482 16.484a4.54 4.54 0 0 1-4.065 3.768v2.398l7.689-4.66-3.624-1.506ZM13.533 16.484 9.91 17.99l7.688 4.66V20.25a4.537 4.537 0 0 1-4.065-3.767ZM26.02 20.434l-7.603 4.607v6.102l3.128-4.408L24.81 30l2.314-2.314-3.657-3.657 2.552-3.595ZM17.6 25.041l-7.603-4.607 2.553 3.595-3.657 3.657L11.206 30l3.266-3.264 3.127 4.406V25.04ZM9.98 17.076l3.494-1.452A4.535 4.535 0 0 1 17.6 11.22V4.654l-4.037 6.584-3.319-3.319-2.314 2.316 3.873 3.872-1.822 2.969ZM18.17 15.215c-1.122-.344-1.122-.535-1.122-.688 0-.214.323-.508.928-.508.358 0 .96.088.96.688h1.091c0-1.064-.824-1.78-2.05-1.78-1.313 0-2.02.825-2.02 1.6 0 1.059.93 1.435 1.885 1.73 1.121.343 1.127.537 1.127.69 0 .213-.322.508-.928.508-.36 0-.96-.089-.96-.688h-1.09c0 1.064.823 1.779 2.05 1.779 1.312 0 2.02-.824 2.02-1.599 0-1.06-.935-1.439-1.892-1.732Z"/></svg>