<svg width="42" height="42" viewBox="0 0 42 42" fill="none" xmlns="http://www.w3.org/2000/svg">
<rect x="0.5" y="0.5" width="41" height="41" rx="20.5" fill="#1E2739"/>
<rect x="0.5" y="0.5" width="41" height="41" rx="20.5" stroke="#FAFAFA"/>
<path d="M27.347 27.3101V15.4979C27.4075 15.4942 27.465 15.4873 27.5229 15.4873C28.9292 15.4866 30.3352 15.4826 31.7416 15.4884C32.7664 15.4924 33.7526 15.6868 34.6774 16.1415C35.988 16.7856 36.9134 17.7896 37.4012 19.168C37.9408 20.6923 37.9393 22.233 37.3448 23.7365C36.589 25.6489 35.1262 26.7458 33.1399 27.1565C32.6397 27.2599 32.1188 27.2963 31.6065 27.3036C30.2551 27.3232 28.9034 27.3101 27.5516 27.3101H27.347ZM29.8882 17.5697V25.1662C30.6531 25.1662 31.4074 25.2168 32.1522 25.1545C33.366 25.053 34.2722 24.4362 34.7833 23.3131C35.2555 22.2752 35.2977 21.187 35.0145 20.097C34.6588 18.7289 33.7814 17.8628 32.3663 17.6724C31.5552 17.5632 30.7244 17.5996 29.8882 17.5697Z" fill="white"/>
<path d="M16.1424 23.4477H18.6049C18.6304 23.5839 18.646 23.7026 18.6751 23.8176C18.835 24.4471 19.2183 24.8971 19.8095 25.1515C20.5701 25.4788 21.355 25.4919 22.1333 25.2229C22.6237 25.0536 22.9794 24.7329 23.0726 24.1879C23.1614 23.6662 22.9896 23.2446 22.5039 23.0305C22.0649 22.8372 21.5945 22.7051 21.1274 22.5867C20.348 22.3887 19.558 22.2325 18.7778 22.0381C18.5281 21.9758 18.2881 21.8619 18.0548 21.7487C16.9721 21.2237 16.4435 20.3372 16.4092 19.1508C16.3601 17.4473 17.3358 16.1553 19.0494 15.6387C19.2744 15.571 19.5048 15.5222 19.7495 15.4607V13.9487H22.0292V15.4785C22.2058 15.5215 22.3692 15.5564 22.5298 15.6012C23.5921 15.8968 24.4706 16.4429 25.005 17.4451C25.2748 17.9512 25.3993 18.4958 25.4018 19.086H22.9295C22.9088 18.9928 22.8924 18.8981 22.8665 18.8064C22.6947 18.1969 22.3099 17.7783 21.7154 17.5678C21.1005 17.3501 20.475 17.3589 19.8609 17.5693C19.1863 17.8005 18.8517 18.3753 18.9828 19.0273C19.0483 19.3528 19.2474 19.5851 19.5383 19.7005C19.9468 19.8621 20.3684 20.0001 20.7954 20.1046C21.612 20.3045 22.4388 20.4617 23.2553 20.6612C23.5342 20.7293 23.8033 20.8549 24.0628 20.9823C25.1066 21.4935 25.6148 22.3526 25.6417 23.4998C25.6825 25.2436 24.6992 26.5739 22.9652 27.1262C22.667 27.2212 22.3583 27.2835 22.0379 27.365V28.8562H19.7615V27.326C19.503 27.2591 19.2558 27.2055 19.0155 27.1302C17.88 26.7745 16.9753 26.1341 16.4671 25.0205C16.2403 24.5235 16.1358 23.9989 16.1424 23.4477Z" fill="white"/>
<path d="M12.0323 15.4915H14.5577C14.5625 15.5389 14.5708 15.5847 14.5708 15.6306C14.5708 17.9096 14.5748 20.189 14.5661 22.468C14.5635 23.1677 14.4591 23.8565 14.2323 24.522C13.7521 25.9313 12.7982 26.8425 11.3511 27.2102C10.2258 27.4963 9.09175 27.496 7.97227 27.184C6.40064 26.7464 5.48175 25.6728 5.07947 24.1226C4.91892 23.5034 4.85849 22.871 4.85812 22.2328C4.85739 20.0386 4.85776 17.8441 4.85776 15.6499C4.85776 15.6026 4.85776 15.5552 4.85776 15.4966H7.39815C7.39815 15.5665 7.39815 15.6368 7.39815 15.707C7.39815 17.9256 7.39306 20.1442 7.40325 22.3628C7.40507 22.7417 7.44002 23.1273 7.51611 23.4983C7.74183 24.5973 8.40405 25.1642 9.52207 25.2199C9.82679 25.2352 10.1432 25.2071 10.4406 25.1391C11.2892 24.9458 11.7345 24.3476 11.9063 23.5365C11.9871 23.1546 12.0246 22.7567 12.0264 22.3653C12.0373 20.1529 12.0319 17.9405 12.0319 15.7278C12.0319 15.6561 12.0323 15.584 12.0323 15.4915Z" fill="white"/>
<path d="M20.9216 12.403C18.2232 12.4041 16.0436 10.2307 16.0344 7.53044C16.0257 4.83532 18.2246 2.63932 20.9278 2.64405C23.6243 2.64842 25.812 4.83896 25.8058 7.52789C25.7996 10.2274 23.6203 12.4026 20.9216 12.4034V12.403ZM23.178 6.39603C23.1605 5.70032 22.9053 5.13967 22.3221 4.80037C21.3719 4.247 20.3791 4.23426 19.4424 4.81165C18.3317 5.49572 18.3506 6.94285 19.4624 7.62364C19.7988 7.82933 20.1873 7.95202 20.5564 8.10128C20.9146 8.24654 21.2896 8.3543 21.6373 8.52068C21.9843 8.68632 21.9752 8.96264 21.6395 9.15559C21.3118 9.34418 20.954 9.34563 20.5965 9.2852C20.2495 9.22659 19.9998 9.05111 19.9805 8.65538H18.664C18.6739 9.28811 18.9043 9.79888 19.4016 10.1757C20.2382 10.8091 21.6948 10.7979 22.5263 10.1575C23.4725 9.42864 23.4467 8.12495 22.4481 7.47292C22.1186 7.25776 21.732 7.12706 21.3639 6.97561C20.9842 6.81943 20.5925 6.69201 20.2124 6.53692C20.081 6.48341 19.9466 6.39785 19.9528 6.22056C19.9586 6.04435 20.089 5.95807 20.2222 5.88271C20.4807 5.73636 20.7639 5.72398 21.0519 5.73818C21.5376 5.76184 21.7516 5.9304 21.8779 6.39676H23.1776L23.178 6.39603Z" fill="white"/>
</svg>
