<svg width="42" height="42" viewBox="0 0 42 42" fill="none" xmlns="http://www.w3.org/2000/svg">
<g clip-path="url(#clip0_4532_196892)">
<path d="M20.9989 41.9979C18.1646 41.9979 15.4147 41.4423 12.8248 40.3474C10.3239 39.2895 8.07926 37.7753 6.15019 35.8477C4.22261 33.9201 2.70839 31.6739 1.65052 29.1731C0.555606 26.5832 0 23.8332 0 20.9989C0 18.1646 0.555606 15.4147 1.65052 12.8248C2.70839 10.3239 4.22261 8.07926 6.15019 6.15019C8.07926 4.22261 10.3239 2.70839 12.8248 1.65052C15.4147 0.555606 18.1646 0 20.9989 0C23.8332 0 26.5832 0.555606 29.1731 1.65052C31.6739 2.70839 33.9186 4.22261 35.8477 6.15019C37.7753 8.07778 39.2895 10.3239 40.3474 12.8248C41.4423 15.4147 41.9979 18.1646 41.9979 20.9989C41.9979 23.8332 41.4423 26.5832 40.3474 29.1731C39.2895 31.6739 37.7753 33.9186 35.8477 35.8477C33.9201 37.7753 31.6739 39.2895 29.1731 40.3474C26.5832 41.4437 23.8332 41.9979 20.9989 41.9979Z" fill="white"/>
<path d="M21.0347 40.921C32.0176 40.921 40.921 32.0176 40.921 21.0347C40.921 10.0518 32.0176 1.14844 21.0347 1.14844C10.0518 1.14844 1.14844 10.0518 1.14844 21.0347C1.14844 32.0176 10.0518 40.921 21.0347 40.921Z" fill="white"/>
<path d="M21.4922 13.071C24.1487 13.3081 26.2392 15.5083 26.3045 18.2108L30.3804 19.9043L28.2557 16.4402L32.7732 11.9228L30.0737 9.2233L26.2038 13.0948L21.4937 5.41406V13.071H21.4922Z" fill="#030303"/>
<path d="M26.2348 19.1953C25.8437 21.5481 23.8998 23.3749 21.4922 23.5912V26.3885L30.4619 20.9524L26.2348 19.1953Z" fill="#030303"/>
<path d="M15.7895 19.1953L11.5625 20.951L20.5322 26.387V23.5898C18.1246 23.3749 16.1807 21.5481 15.7895 19.1953Z" fill="#030303"/>
<path d="M30.3612 23.875L21.4922 29.2503V36.3694L25.1414 31.2268L28.9507 35.036L31.6501 32.3365L27.383 28.0694L30.3612 23.875Z" fill="#030303"/>
<path d="M20.4939 29.2503L11.625 23.875L14.603 28.0694L10.3359 32.3365L13.0354 35.036L16.8447 31.2283L20.4939 36.368V29.2503Z" fill="#030303"/>
<path d="M11.6584 19.9057L15.7343 18.2123C15.7996 15.5098 17.8901 13.3096 20.5466 13.0725V5.41406L15.8365 13.0948L11.9651 9.2233L9.26562 11.9243L13.7831 16.4417L11.6584 19.9057Z" fill="#030303"/>
<path d="M21.206 17.7621C19.8977 17.3607 19.8977 17.1384 19.8977 16.9591C19.8977 16.7103 20.2741 16.3665 20.9808 16.3665C21.3986 16.3665 22.101 16.4702 22.101 17.1695H23.3736C23.3736 15.9279 22.412 15.0938 20.9808 15.0938C19.4503 15.0938 18.625 16.0553 18.625 16.9591C18.625 18.1949 19.7095 18.6334 20.8237 18.9771C22.132 19.3786 22.1395 19.6038 22.1395 19.783C22.1395 20.032 21.7631 20.3757 21.0563 20.3757C20.637 20.3757 19.9362 20.272 19.9362 19.5727H18.6636C18.6636 20.8143 19.6252 21.6484 21.0563 21.6484C22.5869 21.6484 23.4122 20.6869 23.4122 19.783C23.4136 18.5459 22.3217 18.1044 21.206 17.7621Z" fill="#030303"/>
</g>
<defs>
<clipPath id="clip0_4532_196892">
<rect width="42" height="42" fill="white"/>
</clipPath>
</defs>
</svg>
