<svg width="42" height="42" viewBox="0 0 42 42" fill="none" xmlns="http://www.w3.org/2000/svg">
<g clip-path="url(#clip0_7674_311011)">
<mask id="mask0_7674_311011" style="mask-type:alpha" maskUnits="userSpaceOnUse" x="0" y="0" width="42" height="42">
<circle cx="21" cy="21" r="21" fill="#D9D9D9"/>
</mask>
<g mask="url(#mask0_7674_311011)">
<path d="M52.5 0H-10.5V42H52.5V0Z" fill="#FF0000"/>
<path d="M17.0625 7.875H24.9375V17.0625H34.125V24.9375H24.9375V34.125H17.0625V24.9375H7.875V17.0625H17.0625V7.875Z" fill="white"/>
<path d="M-3 23H56V2.7875C56 0.7125 54.5571 -0.9875 52.7828 -1H0.217211C-1.55706 -0.9875 -3 0.7125 -3 2.7875V23Z" fill="#ED2939"/>
<path d="M-0.727668 44H52.7277C54.5323 43.9885 56 42.4302 56 40.5281V22H-4V40.5281C-4 42.4302 -2.53234 43.9885 -0.727668 44Z" fill="white"/>
<path d="M19.6202 12.6595C19.6202 16.6495 16.3902 19.8795 12.4002 19.8795C8.41018 19.8795 5.18018 16.6495 5.18018 12.6595C5.18018 8.66945 8.41018 5.43945 12.4002 5.43945C16.3802 5.43945 19.6202 8.66945 19.6202 12.6595Z" fill="white"/>
<path d="M21.8802 12.6598C21.8802 16.4298 18.8202 19.4798 15.0602 19.4798C11.2902 19.4798 8.24023 16.4198 8.24023 12.6598C8.24023 8.88984 11.3002 5.83984 15.0602 5.83984C18.8302 5.83984 21.8802 8.88984 21.8802 12.6598Z" fill="#ED2939"/>
<path d="M13.2902 12.8292L12.3102 12.0792L11.3302 12.8292L11.7102 11.6192L10.7202 10.8692L11.9402 10.8792L12.3102 9.65918L12.6802 10.8792L13.8902 10.8692L12.9102 11.6192L13.2902 12.8292Z" fill="white"/>
<path d="M20.9799 12.8292L19.9999 12.0792L19.0199 12.8292L19.3999 11.6192L18.4199 10.8692L19.6299 10.8792L19.9999 9.65918L20.3799 10.8792L21.5899 10.8692L20.6099 11.6192L20.9799 12.8292Z" fill="white"/>
<path d="M17.1398 9.97957L16.1598 9.22957L15.1798 9.97957L15.5598 8.76957L14.5698 8.01957H15.7898L16.1598 6.80957L16.5298 8.01957H17.7498L16.7598 8.75957L17.1398 9.97957Z" fill="white"/>
<path d="M14.7302 17.3995L13.7502 16.6495L12.7702 17.3995L13.1502 16.1895L12.1602 15.4395L13.3802 15.4495L13.7502 14.2295L14.1202 15.4495L15.3302 15.4395L14.3502 16.1895L14.7302 17.3995Z" fill="white"/>
<path d="M19.54 17.3995L18.56 16.6495L17.58 17.3995L17.96 16.1895L16.98 15.4395L18.19 15.4495L18.56 14.2295L18.94 15.4495L20.15 15.4395L19.17 16.1895L19.54 17.3995Z" fill="white"/>
</g>
</g>
<defs>
<clipPath id="clip0_7674_311011">
<rect width="42" height="42" rx="21" fill="white"/>
</clipPath>
</defs>
</svg>
