<svg xmlns="http://www.w3.org/2000/svg" width="42" height="42" fill="none"><g clip-path="url(#a)"><mask id="b" width="42" height="42" x="0" y="0" maskUnits="userSpaceOnUse" style="mask-type:alpha"><circle cx="21" cy="21" r="21" fill="#D9D9D9"/></mask><g mask="url(#b)"><path fill="red" d="M52.5 0h-63v42h63V0Z"/><path fill="#fff" d="M17.063 7.875h7.875v9.188h9.187v7.875h-9.188v9.187h-7.875v-9.188H7.876v-7.875h9.188V7.876Z"/><path fill="#ED2939" d="M-3 23h59V2.788C56 .713 54.557-.987 52.783-1H.217C-1.557-.988-3 .712-3 2.788V23Z"/><path fill="#fff" d="M-.728 44h53.456C54.532 43.989 56 42.43 56 40.528V22H-4v18.528C-4 42.43-2.532 43.988-.728 44ZM19.62 12.66c0 3.99-3.23 7.22-7.22 7.22-3.99 0-7.22-3.23-7.22-7.22 0-3.99 3.23-7.22 7.22-7.22 3.98 0 7.22 3.23 7.22 7.22Z"/><path fill="#ED2939" d="M21.88 12.66c0 3.77-3.06 6.82-6.82 6.82-3.77 0-6.82-3.06-6.82-6.82 0-3.77 3.06-6.82 6.82-6.82 3.77 0 6.82 3.05 6.82 6.82Z"/><path fill="#fff" d="m13.29 12.83-.98-.75-.98.75.38-1.21-.99-.75 1.22.01.37-1.22.37 1.22 1.21-.01-.98.75.38 1.21ZM20.98 12.83l-.98-.75-.98.75.38-1.21-.98-.75 1.21.01.37-1.22.38 1.22 1.21-.01-.98.75.37 1.21ZM17.14 9.98l-.98-.75-.98.75.38-1.21-.99-.75h1.22l.37-1.21.37 1.21h1.22l-.99.74.38 1.22ZM14.73 17.4l-.98-.75-.98.75.38-1.21-.99-.75 1.22.01.37-1.22.37 1.22 1.21-.01-.98.75.38 1.21ZM19.54 17.4l-.98-.75-.98.75.38-1.21-.98-.75 1.21.01.37-1.22.38 1.22 1.21-.01-.98.75.37 1.21Z"/></g></g><defs><clipPath id="a"><rect width="42" height="42" fill="#fff" rx="21"/></clipPath></defs></svg>