<svg xmlns="http://www.w3.org/2000/svg" width="42" height="42" fill="none"><circle cx="21" cy="21" r="20" fill="#1C2951"/><path fill="#000" d="M28.53 21.584c-.013.069-.215.275-.416.425-.592.433-1.65.835-2.726 1.028-.613.112-1.226.129-1.41.039-.12-.06-.138-.107-.095-.262.09-.321.382-.672.836-1.003.231-.167 1.17-.737 1.607-.977.72-.394 1.303-.63 1.698-.686.124-.017.274-.021.321 0 .077.03.163.258.197.532.017.146.009.788-.013.904ZM18.43 23.002c-.025.052-.154.108-.3.129-.145.021-.591.009-.844-.021-.909-.12-1.873-.399-2.576-.742-.394-.193-.677-.386-.887-.596l-.12-.124-.013-.163c-.022-.283-.017-.729.017-.887.021-.133.069-.262.133-.377.034-.043.034-.043.188-.043.19 0 .348.03.605.111.527.163 1.312.557 2.267 1.132.789.471 1.085.703 1.312 1.02.154.197.257.476.219.561ZM24.5 28.97c0 .013-.052.219-.116.463-.064.244-.116.442-.116.45-.047.005-.09.009-.137.005h-.137l-.189.445c-.102.245-.197.472-.21.506l-.025.06-.09-.146-.09-.145V29.42l-.035.009c-.073.017-.591.086-.818.107a11.68 11.68 0 0 1-2.816-.06 2.883 2.883 0 0 0-.283-.034c-.005.004 0 .278.008.617l.013.609-.073.111c-.038.06-.077.111-.077.116-.013.013-.056-.056-.154-.253a2.896 2.896 0 0 1-.24-.652l-.03-.124-.133.009-.133.012-.034-.158a4.503 4.503 0 0 1-.047-.292l-.013-.137-.112-.098a3.88 3.88 0 0 0-.141-.12c-.022-.018-.03-.047-.03-.073v-.052l.535.005.536.004.017.056.018.055.184.009.72.021.536.013.137-.214.141-.214h.18l-.004-.446-.004-.446-.236-.103c-.759-.334-1.204-.716-1.371-1.179-.035-.094-.035-.128-.043-.557-.005-.424-.005-.463.025-.557a.623.623 0 0 1 .442-.437c.073-.022.266-.022 1.277-.022l1.192.005.133.064a.746.746 0 0 1 .321.253c.103.137.133.244.133.506 0 .372-.026.694-.064.823a1.776 1.776 0 0 1-.249.492 2.285 2.285 0 0 1-.96.674l-.103.038.004.45.005.45.094.009.094.008.129.193.124.193h.575c.317 0 .595.004.621.009.043.008.052.004.094-.069l.052-.077h.493c.368-.017.48-.009.48.004Z"/><path fill="#000" d="M22.237 30.2c-.081.047-.137.068-.15.06-.013-.005-.073-.056-.137-.104l-.116-.094-.12.129c-.261.283-.27.296-.347.3-.12.013-.146-.009-.292-.227a7.051 7.051 0 0 1-.137-.206s-.056-.009-.12-.013l-.12-.013-.056.116-.055.116-.099-.03a2.08 2.08 0 0 1-.227-.09l-.129-.065v-.244l1.14.004 1.14.005.005.115c.004.137.008.133-.18.24Z"/><path fill="#fff" d="M32.952 24.971c-.004-.017-.004-.047-.008-.094-1.029-.112-3.965-.18-6.691 2.07 0 0-.879-4.029-4.994-4.029s-5.64 4.03-5.64 4.03c-2.307-2.483-5.393-2.303-6.507-2.14 0 .026-.005.056-.005.082-.034.621-.017.917.086 1.307.322 1.222 1.312 2.568 2.863 3.888 2.542 2.16 5.988 3.72 8.599 3.9 2.722.185 6.738-1.406 9.413-3.729.42-.373.814-.767 1.183-1.187.265-.309.66-.84.63-.84-.009 0 0-.009.017-.017.013-.009.026-.022.017-.03-.004-.005.004-.017.017-.022.013-.004.022-.013.017-.021-.004-.009 0-.017.017-.022.013-.004.018-.017.013-.025-.004-.009 0-.017.009-.017s.017-.013.017-.022.009-.021.017-.021a.018.018 0 0 0 .017-.018.449.449 0 0 1 .056-.098c.064-.099.322-.557.356-.634.244-.553.398-1.046.471-1.54.026-.235.047-.668.03-.77Zm-10.715 5.23c-.082.047-.138.068-.15.06-.013-.005-.073-.056-.138-.103l-.115-.095-.12.129c-.262.283-.27.296-.348.3-.12.013-.145-.009-.291-.227-.077-.112-.137-.206-.137-.206s-.056-.009-.12-.013l-.12-.013-.056.116-.056.116-.098-.03a2.078 2.078 0 0 1-.227-.09l-.13-.064v-.245l1.141.004 1.14.005.005.116c.004.137.008.132-.18.24Zm2.143-.772c-.065.244-.116.441-.116.45-.047.004-.09.009-.137.004h-.137l-.185.45c-.103.245-.197.472-.21.506l-.025.06-.09-.146-.09-.145V29.42l-.035.009c-.073.017-.591.086-.819.107a11.68 11.68 0 0 1-2.816-.06 2.883 2.883 0 0 0-.282-.034c-.005.004 0 .278.008.617l.013.609-.073.111c-.038.06-.077.112-.077.116-.013.013-.056-.056-.154-.253a2.901 2.901 0 0 1-.24-.651l-.03-.125-.133.009-.133.013-.035-.159a4.507 4.507 0 0 1-.047-.291l-.012-.138-.112-.098a3.762 3.762 0 0 0-.141-.12c-.022-.017-.03-.047-.03-.073v-.052l.535.005.536.004.017.056.018.056.184.008.72.022.536.012.137-.214.141-.214h.18l-.004-.446-.004-.446-.236-.103c-.759-.334-1.204-.716-1.372-1.178-.034-.095-.034-.13-.043-.558-.004-.424-.004-.463.026-.557a.623.623 0 0 1 .442-.437c.073-.022.265-.022 1.277-.022l1.192.005.133.064a.746.746 0 0 1 .321.253c.103.137.133.244.133.506 0 .373-.026.694-.064.823a1.778 1.778 0 0 1-.249.493 2.284 2.284 0 0 1-.96.673l-.103.038.004.45.005.45.094.009.094.008.129.193.124.193h.574c.318 0 .596.005.622.009.043.008.051.004.094-.069l.052-.077h.493c.381 0 .492.004.492.017-.012-.004-.068.206-.132.446Z"/><path fill="#FFA409" d="M32.919 24.534a14.464 14.464 0 0 0-.04-.596c-.183-1.946-.68-3.536-1.624-5.22a1.482 1.482 0 0 1-.094-.18c-.009-.013-.013-.026-.017-.035.133-.398.677-2.066 1.11-3.973.587-2.59.96-5.615-.18-6.524 0 0-1.972-.146-4.612 2.443a17.72 17.72 0 0 0-1.955 2.319l-.184-.06a13.38 13.38 0 0 0-3.275-.634 25.643 25.643 0 0 0-1.989 0c-1.23.081-2.173.265-3.244.638-.043.018-.082.03-.12.043a17.455 17.455 0 0 0-2.02-2.302c-2.747-2.601-4.791-2.451-4.791-2.451-1.21.938-.798 4.102-.172 6.776a44.43 44.43 0 0 0 1.106 3.888.965.965 0 0 1-.047.094c-.999 2.023-1.539 3.974-1.667 6.048 1.118-.163 4.2-.347 6.51 2.14 0 0 1.526-4.03 5.641-4.03s4.994 4.03 4.994 4.03a9.136 9.136 0 0 1 6.691-2.071 24.269 24.269 0 0 0-.021-.343Zm-21.29-7.484s-1.604-4.008-1.192-6.297c.068-.385.197-.724.398-.981 0 0 1.818.18 4.75 3.438 0 0-.558.27-1.304.844 0 0-.004.004-.008.004a10.303 10.303 0 0 0-2.645 2.992Zm6.802 5.954c-.026.051-.155.107-.3.128-.146.022-.592.009-.845-.021-.909-.12-1.873-.399-2.576-.742-.394-.192-.677-.385-.887-.595l-.12-.125-.013-.163c-.021-.282-.017-.728.017-.887.021-.133.069-.261.133-.377.034-.043.034-.043.188-.043.19 0 .348.03.605.112.527.162 1.312.557 2.267 1.131.79.472 1.085.703 1.312 1.02.154.198.257.476.219.562Zm10.098-1.419c-.013.069-.214.274-.416.424-.591.433-1.65.836-2.726 1.03-.613.11-1.226.128-1.41.038-.12-.06-.137-.107-.094-.262.09-.321.381-.673.836-1.003.231-.167 1.17-.737 1.607-.977.72-.394 1.303-.63 1.697-.686.125-.017.275-.021.322 0 .077.03.163.257.197.532.017.145.009.788-.013.904Zm-.711-7.531-.009-.004c-.72-.575-1.26-.845-1.26-.845 2.833-3.257 4.586-3.437 4.586-3.437.193.261.318.595.386.981.399 2.29-1.149 6.301-1.149 6.301a10.21 10.21 0 0 0-2.554-2.996Z"/><path fill="#FF9300" d="M31.526 10.751c-.335-.043-1.916-.051-3.708 3.305l-.009-.004c-.72-.575-1.26-.845-1.26-.845 2.834-3.257 4.587-3.437 4.587-3.437.197.261.321.595.39.981Z"/><path fill="#FF8300" d="M30.377 17.052a10.17 10.17 0 0 0-2.56-2.996c1.793-3.357 3.37-3.348 3.709-3.305.398 2.293-1.15 6.3-1.15 6.3ZM31.59 10.764l-.064-.013.064.013Z"/><path fill="#FF9300" d="M15.584 13.207s-.557.27-1.303.845c0 0-.005.004-.009.004-1.856-3.36-3.489-3.348-3.84-3.305.068-.386.197-.724.398-.981.005 0 1.822.18 4.754 3.437Z"/><path fill="#FF8300" d="M14.277 14.056c-.814.625-1.851 1.607-2.649 2.996 0 0-1.603-4.008-1.191-6.301.347-.043 1.984-.052 3.84 3.305ZM10.436 10.751l-.068.013.068-.013Z"/><path fill="#fff" d="M26.04 19.274s-1.372.086-1.2-.986c.17-1.071 1.242-1.2 1.542-1.157.3.043 1.5.471 1.286 1.372-.214.9-.514.728-.686.771-.171.043-.943 0-.943 0ZM15.923 19.274s-1.372.086-1.2-.986c.171-1.071 1.243-1.2 1.543-1.157.3.043 1.5.471 1.286 1.372-.215.9-.514.728-.686.771-.171.043-.943 0-.943 0Z"/></svg>