<svg width="42" height="42" viewBox="0 0 42 42" fill="none" xmlns="http://www.w3.org/2000/svg">
<rect width="42" height="42" rx="21" fill="white"/>
<path fill-rule="evenodd" clip-rule="evenodd" d="M8.39597 24.8375C12.4326 28.8741 17.8712 29.98 20.5435 27.3077C23.2159 24.6353 22.1098 19.1967 18.0732 15.1601C14.0367 11.1235 8.59804 10.0176 5.92574 12.6899C3.25343 15.3623 4.35939 20.8009 8.39597 24.8375ZM10.5261 25.3747C14.1275 28.1867 18.286 28.8793 19.8143 26.922C21.3427 24.9645 19.662 21.0982 16.0605 18.2863C12.4591 15.4744 8.30058 14.7816 6.77228 16.7391C5.24396 18.6964 6.92459 22.5628 10.5261 25.3747Z" fill="url(#paint0_linear_8768_51375)"/>
<path fill-rule="evenodd" clip-rule="evenodd" d="M33.604 17.4009C29.5675 13.3643 24.1289 12.2583 21.4565 14.9306C18.7842 17.603 19.8901 23.0416 23.9267 27.0782C27.9633 31.1148 33.4019 32.2207 36.0743 29.5484C38.7466 26.8761 37.6406 21.4375 33.604 17.4009ZM31.5149 16.9047C27.9134 14.0927 23.7551 13.4 22.2266 15.3574C20.6984 17.3149 22.379 21.1813 25.9805 23.9932C29.5819 26.8051 33.7404 27.4978 35.2688 25.5403C36.7971 23.583 35.1164 19.7166 31.5149 16.9047Z" fill="url(#paint1_linear_8768_51375)"/>
<path d="M21.9829 8.1665H25.9674L20.1013 33.8339H16.1167L21.9829 8.1665Z" fill="black"/>
<defs>
<linearGradient id="paint0_linear_8768_51375" x1="15.1143" y1="24.8494" x2="17.3875" y2="28.5431" gradientUnits="userSpaceOnUse">
<stop offset="0.0726915"/>
<stop offset="1" stop-color="white"/>
</linearGradient>
<linearGradient id="paint1_linear_8768_51375" x1="26.041" y1="19.276" x2="24.6125" y2="13.6953" gradientUnits="userSpaceOnUse">
<stop/>
<stop offset="1" stop-color="white"/>
</linearGradient>
</defs>
</svg>
