<svg width="42" height="42" viewBox="0 0 42 42" fill="none" xmlns="http://www.w3.org/2000/svg">
<rect width="42" height="42" rx="21" fill="#FFD600"/>
<path d="M18.8938 16.3407C17.1091 17.179 15.8733 18.9928 15.8733 21.0951C15.8733 22.6054 16.5111 23.9667 17.5319 24.9245C15.9672 27.1713 13.3686 28.1374 11.365 27.5181C8.25848 26.5579 6.83755 22.5125 7.91545 18.4038C9.64566 11.8089 17.4839 6.77125 24.3749 8.90117C20.009 10.2159 19.0559 13.0222 18.8938 16.3407Z" fill="white"/>
<path d="M22.583 26.1395C24.7723 25.5071 26.3733 23.4881 26.3733 21.0951C26.3733 19.6748 25.8093 18.3862 24.893 17.4411C26.6797 15.4023 29.3437 14.7336 31.2617 15.5603C34.2524 16.8495 35.2501 21.0254 33.7563 24.9952C31.3586 31.3676 23.0465 35.5338 16.4124 32.6741C20.7639 31.8599 22.0534 29.2971 22.583 26.1395Z" fill="white"/>
<path d="M23.8041 19.898L22.3724 20.0542C22.3319 19.9095 22.261 19.7735 22.1598 19.6464C22.0615 19.5191 21.9284 19.4164 21.7607 19.3383C21.5928 19.2602 21.3875 19.2211 21.1446 19.2211C20.8176 19.2211 20.5429 19.292 20.3202 19.4337C20.1004 19.5755 19.9919 19.7591 19.9948 19.9847C19.9919 20.1786 20.0627 20.3362 20.2073 20.4576C20.3549 20.5792 20.5978 20.6789 20.9363 20.757L22.073 20.9999C22.7036 21.1359 23.1721 21.3514 23.4787 21.6465C23.7882 21.9415 23.9444 22.3277 23.9473 22.8049C23.9444 23.2242 23.8216 23.5945 23.5785 23.9157C23.3384 24.2338 23.0044 24.4825 22.5763 24.6618C22.1483 24.8412 21.6565 24.9309 21.1011 24.9309C20.2854 24.9309 19.6289 24.7603 19.1313 24.4189C18.6339 24.0747 18.3374 23.5959 18.242 22.9827L19.7735 22.8352C19.843 23.136 19.9905 23.3631 20.216 23.5164C20.4416 23.6697 20.7352 23.7464 21.0968 23.7464C21.47 23.7464 21.7693 23.6697 21.995 23.5164C22.2235 23.3631 22.3376 23.1737 22.3376 22.9481C22.3376 22.7571 22.2639 22.5995 22.1164 22.4752C21.9717 22.3508 21.7462 22.2554 21.4395 22.1888L20.3029 21.9502C19.6636 21.8171 19.1907 21.5929 18.8841 21.2777C18.5775 20.9595 18.4256 20.5575 18.4285 20.0715C18.4256 19.6608 18.537 19.305 18.7625 19.0042C18.991 18.7004 19.3079 18.4662 19.7128 18.3013C20.1206 18.1336 20.5906 18.0497 21.1228 18.0497C21.9039 18.0497 22.5185 18.216 22.9667 18.5486C23.418 18.8813 23.6971 19.3311 23.8041 19.898Z" fill="white"/>
</svg>
