<svg xmlns="http://www.w3.org/2000/svg" width="42" height="42" fill="none"><g clip-path="url(#a)"><circle cx="21" cy="21" r="21" fill="#60CDF9"/><path fill="#F3F3F3" d="M13.903 17.18a.848.848 0 0 0-.666-.31H7.86a.18.18 0 0 1-.117-.045.139.139 0 0 1-.044-.1v-3.623c0-.039.017-.072.044-.1a.136.136 0 0 1 .117-.044h5.681c1.431 0 2.669.588 3.712 1.759l1.381 1.686-2.69 3.28-2.042-2.503Zm9.93-2.48c1.038-1.16 2.28-1.742 3.729-1.742h5.665a.142.142 0 0 1 .105.033.128.128 0 0 1 .033.111v3.623a.155.155 0 0 1-.033.1.116.116 0 0 1-.105.044H27.85a.846.846 0 0 0-.666.311l-3.962 4.821 3.978 4.855c.161.183.4.294.644.288h5.376a.124.124 0 0 1 .105.045.179.179 0 0 1 .034.116v3.623a.155.155 0 0 1-.034.1.116.116 0 0 1-.105.045h-5.659c-1.448 0-2.68-.589-3.712-1.76l-3.295-4.022-3.296 4.023c-1.037 1.17-2.28 1.759-3.728 1.759h-5.67a.125.125 0 0 1-.106-.045.152.152 0 0 1-.033-.116v-3.623c0-.04.011-.072.033-.1a.116.116 0 0 1 .106-.044h5.376c.255 0 .5-.117.666-.311l3.889-4.75 6.042-7.384Z"/></g><defs><clipPath id="a"><path fill="#fff" d="M0 0h42v42H0z"/></clipPath></defs></svg>