<svg xmlns="http://www.w3.org/2000/svg" width="42" height="42" fill="none"><circle cx="21" cy="21" r="21" fill="#14F195"/><path fill="#F3F3F3" d="M11.87 26.5a.84.84 0 0 1 .594-.244h20.482c.374 0 .562.45.297.715l-4.046 4.037a.84.84 0 0 1-.594.245H8.121a.419.419 0 0 1-.297-.715L11.87 26.5ZM11.87 11.422a.864.864 0 0 1 .594-.244h20.482c.374 0 .562.45.297.715l-4.046 4.037a.84.84 0 0 1-.594.245H8.121a.419.419 0 0 1-.297-.715l4.046-4.038ZM29.197 18.912a.84.84 0 0 0-.594-.244H8.121a.419.419 0 0 0-.297.715l4.046 4.038a.84.84 0 0 0 .594.244h20.482c.374 0 .562-.45.297-.715l-4.046-4.038Z"/></svg>