<svg width="42" height="42" viewBox="0 0 42 42" fill="none" xmlns="http://www.w3.org/2000/svg">
<rect width="42" height="42" rx="21" fill="url(#paint0_linear_5684_40650)"/>
<path fill-rule="evenodd" clip-rule="evenodd" d="M22.3215 7.48206C21.6213 7.29445 20.9016 7.70996 20.714 8.41014L20.2384 10.185C20.2029 10.3176 20.189 10.4509 20.1946 10.5811L16.9672 9.71641C16.197 9.51003 15.4053 9.9671 15.1989 10.7373C14.9926 11.5075 15.4496 12.2991 16.2198 12.5055L17.6144 12.8792L14.0476 26.1906L12.653 25.817C11.8828 25.6106 11.0911 26.0677 10.8848 26.8378C10.6784 27.608 11.1355 28.3997 11.9056 28.6061L15.582 29.5913L15.0386 31.6196C14.851 32.3198 15.2665 33.0395 15.9666 33.2271C16.6668 33.4147 17.3865 32.9992 17.5741 32.299L18.1176 30.2707L20.3997 30.8822L19.8561 32.9107C19.6685 33.6108 20.084 34.3305 20.7842 34.5181C21.4844 34.7057 22.2041 34.2902 22.3917 33.5901L22.9352 31.5616L23.1889 31.6296C26.2315 32.4449 29.1499 31.1886 29.9651 28.146C30.7804 25.1033 29.1935 22.9119 26.7599 21.8519C28.7046 21.6938 30.3801 20.512 30.9575 18.357C31.535 16.202 31.0395 13.487 27.7433 12.6038L27.4316 12.5203C27.5015 12.4103 27.556 12.288 27.5916 12.1555L28.0671 10.3806C28.2547 9.68039 27.8392 8.9607 27.1391 8.77309C26.4389 8.58548 25.7192 9.00099 25.5316 9.70117L25.056 11.4761C25.0205 11.6086 25.0066 11.7418 25.0121 11.872L22.6139 11.2294C22.6838 11.1194 22.7385 10.997 22.774 10.8644L23.2496 9.08954C23.4372 8.38936 23.0217 7.66967 22.3215 7.48206ZM19.5457 18.6192C19.7334 19.3194 20.4531 19.7349 21.1532 19.5473L26.2393 18.1845C26.9395 17.9969 27.355 17.2772 27.1674 16.577L27.0995 16.3234C26.9119 15.6233 26.1922 15.2077 25.492 15.3954L20.4059 16.7582C19.7057 16.9458 19.2902 17.6655 19.4778 18.3657L19.5457 18.6192ZM17.5107 26.214C17.6983 26.9142 18.418 27.3297 19.1182 27.1421L24.2043 25.7793C24.9045 25.5916 25.32 24.8719 25.1324 24.1718L25.0644 23.9182C24.8768 23.218 24.1571 22.8025 23.457 22.9901L18.3709 24.353C17.6707 24.5406 17.2552 25.2603 17.4428 25.9604L17.5107 26.214Z" fill="white"/>
<defs>
<linearGradient id="paint0_linear_5684_40650" x1="21" y1="0" x2="21" y2="42" gradientUnits="userSpaceOnUse">
<stop stop-color="#FAD76B"/>
<stop offset="0.485" stop-color="#ECB64F"/>
<stop offset="1" stop-color="#DA8B2D"/>
</linearGradient>
</defs>
</svg>
