<svg width="42" height="42" viewBox="0 0 42 42" fill="none" xmlns="http://www.w3.org/2000/svg">
<rect x="0.00830078" width="42" height="42" rx="21" fill="#1E2739"/>
<path d="M20.9263 38.0624C30.2932 38.1066 37.9953 30.5099 38.0704 21.1456C38.0852 19.2682 37.7957 17.4606 37.2501 15.7681C33.2167 16.1017 29.2771 17.809 26.1915 20.8937C22.8458 24.2384 21.1193 28.5868 21.0093 32.9688C21.0012 33.2972 20.5751 33.4177 20.3928 33.1456C18.1971 29.8667 14.4586 27.7078 10.2148 27.7078C8.62505 27.7078 7.10499 28.0107 5.71094 28.5628C8.48698 34.1682 14.2535 38.0301 20.9263 38.0624Z" fill="#1812FF"/>
<path d="M21.0077 9.03414C21.0158 8.70583 21.442 8.58522 21.6243 8.85725C23.82 12.1363 27.5584 14.2952 31.8023 14.2952C33.3934 14.2952 34.9134 13.991 36.3075 13.4389C33.5327 7.83077 27.7648 3.96743 21.0909 3.93526C11.7226 3.88971 4.01908 11.4904 3.94536 20.8559C3.93062 22.7334 4.22015 24.5424 4.76705 26.2349C8.79906 25.9013 12.7399 24.194 15.8243 21.1092C19.17 17.7645 20.8978 13.416 21.0077 9.03414Z" fill="#1812FF"/>
<mask id="mask0_8473_46779" style="mask-type:alpha" maskUnits="userSpaceOnUse" x="3" y="3" width="36" height="36">
<path d="M20.9263 38.0624C30.2932 38.1066 37.9953 30.5099 38.0704 21.1456C38.0852 19.2682 37.7957 17.4606 37.2501 15.7681C33.2167 16.1017 29.2771 17.809 26.1915 20.8937C22.8458 24.2384 21.1193 28.5868 21.0093 32.9688C21.0012 33.2972 20.5751 33.4177 20.3928 33.1456C18.1971 29.8667 14.4586 27.7078 10.2148 27.7078C8.62505 27.7078 7.10499 28.0107 5.71094 28.5628C8.48698 34.1682 14.2535 38.0301 20.9263 38.0624Z" fill="#1812FF"/>
<path d="M21.0077 9.03414C21.0158 8.70583 21.442 8.58522 21.6243 8.85725C23.82 12.1363 27.5584 14.2952 31.8023 14.2952C33.3934 14.2952 34.9134 13.991 36.3075 13.4389C33.5327 7.83077 27.7648 3.96743 21.0909 3.93526C11.7226 3.88971 4.01908 11.4904 3.94536 20.8559C3.93062 22.7334 4.22015 24.5424 4.76705 26.2349C8.79906 25.9013 12.7399 24.194 15.8243 21.1092C19.17 17.7645 20.8978 13.416 21.0077 9.03414Z" fill="#1812FF"/>
</mask>
<g mask="url(#mask0_8473_46779)">
<g filter="url(#filter0_f_8473_46779)">
<path d="M7.28446 33.1602C16.8676 33.1602 24.6363 25.3676 24.6363 15.7549C24.6363 6.14222 16.8676 -1.65039 7.28446 -1.65039C-2.2987 -1.65039 -10.0674 6.14222 -10.0674 15.7549C-10.0674 25.3676 -2.2987 33.1602 7.28446 33.1602Z" fill="#3CD1EE"/>
</g>
<g filter="url(#filter1_f_8473_46779)">
<path d="M34.0161 52.4172C44.9693 52.4172 53.8486 43.5105 53.8486 32.5235C53.8486 21.5366 44.9693 12.6299 34.0161 12.6299C23.0629 12.6299 14.1836 21.5366 14.1836 32.5235C14.1836 43.5105 23.0629 52.4172 34.0161 52.4172Z" fill="#CB19EA"/>
</g>
</g>
<mask id="mask1_8473_46779" style="mask-type:alpha" maskUnits="userSpaceOnUse" x="5" y="15" width="34" height="24">
<path d="M20.9273 38.0643C30.2942 38.1085 37.9963 30.5118 38.0714 21.1476C38.0862 19.2702 37.7967 17.4625 37.2511 15.77C33.2177 16.1036 29.2781 17.8109 26.1925 20.8957C22.8467 24.2405 21.1203 28.5889 21.0103 32.9708C21.0022 33.2991 20.5761 33.4196 20.3938 33.1477C18.1981 29.8686 14.4596 27.7098 10.2158 27.7098C8.62603 27.7098 7.10598 28.0127 5.71191 28.5647C8.48796 34.1702 14.2545 38.0322 20.9273 38.0643Z" fill="#1812FF"/>
</mask>
<g mask="url(#mask1_8473_46779)">
<g filter="url(#filter2_f_8473_46779)">
<path d="M27.6592 19.2964C27.6592 25.2839 32.2892 30.1377 38.0006 30.1377C43.712 30.1377 48.342 25.2839 48.342 19.2964C48.342 13.3089 43.712 8.45508 38.0006 8.45508C32.2892 8.45508 27.6592 13.3089 27.6592 19.2964Z" fill="#FF0833"/>
</g>
</g>
<defs>
<filter id="filter0_f_8473_46779" x="-24.2817" y="-15.8647" width="63.1322" height="63.2392" filterUnits="userSpaceOnUse" color-interpolation-filters="sRGB">
<feFlood flood-opacity="0" result="BackgroundImageFix"/>
<feBlend mode="normal" in="SourceGraphic" in2="BackgroundImageFix" result="shape"/>
<feGaussianBlur stdDeviation="7.10716" result="effect1_foregroundBlur_8473_46779"/>
</filter>
<filter id="filter1_f_8473_46779" x="-0.0307236" y="-1.58443" width="68.0937" height="68.2157" filterUnits="userSpaceOnUse" color-interpolation-filters="sRGB">
<feFlood flood-opacity="0" result="BackgroundImageFix"/>
<feBlend mode="normal" in="SourceGraphic" in2="BackgroundImageFix" result="shape"/>
<feGaussianBlur stdDeviation="7.10716" result="effect1_foregroundBlur_8473_46779"/>
</filter>
<filter id="filter2_f_8473_46779" x="16.2877" y="-2.91637" width="43.4258" height="44.4255" filterUnits="userSpaceOnUse" color-interpolation-filters="sRGB">
<feFlood flood-opacity="0" result="BackgroundImageFix"/>
<feBlend mode="normal" in="SourceGraphic" in2="BackgroundImageFix" result="shape"/>
<feGaussianBlur stdDeviation="5.68573" result="effect1_foregroundBlur_8473_46779"/>
</filter>
</defs>
</svg>
