<svg width="42" height="42" viewBox="0 0 42 42" fill="none" xmlns="http://www.w3.org/2000/svg">
<rect width="42" height="42" rx="21" fill="white"/>
<path d="M3.09058 19.9938H4.34817C4.70448 19.9938 5.01888 19.9205 5.29136 19.7738C5.56383 19.6061 5.78391 19.3965 5.95159 19.145C6.14023 18.8725 6.27648 18.5791 6.36029 18.2647C6.46508 17.9293 6.51753 17.594 6.51753 17.2586V12.1968C6.51753 11.4213 6.59089 10.7401 6.73756 10.1532C6.90525 9.56633 7.17773 9.07376 7.555 8.67552C7.93227 8.25638 8.43535 7.94196 9.06413 7.73233C9.71387 7.52275 10.5209 7.41797 11.485 7.41797H14.0316V9.46154H11.3592C10.4789 9.46154 9.85014 9.66066 9.47282 10.0589C9.11652 10.4571 8.93837 11.1802 8.93837 12.2282V16.5669C8.93837 17.9712 8.72874 19.0087 8.30959 19.6795C7.89039 20.3292 7.40827 20.7694 6.86331 20.9999C7.40827 21.2514 7.89039 21.723 8.30959 22.4147C8.72874 23.1063 8.93837 24.1124 8.93837 25.4329V29.7716C8.93837 30.8196 9.12697 31.5427 9.5043 31.941C9.88157 32.3392 10.5103 32.5383 11.3906 32.5383H14.0316V34.5819H11.485C10.5209 34.5819 9.71387 34.4771 9.06413 34.2675C8.43535 34.0579 7.93227 33.7435 7.555 33.3243C7.17773 32.926 6.90525 32.4335 6.73756 31.8466C6.59089 31.2597 6.51753 30.5786 6.51753 29.8031V24.7412C6.51753 24.4269 6.46508 24.1124 6.36029 23.798C6.27648 23.4627 6.14023 23.1693 5.95159 22.9177C5.78391 22.6453 5.56383 22.4252 5.29136 22.2575C5.03984 22.0898 4.73592 22.006 4.3796 22.006H3.09058V19.9938Z" fill="#030412"/>
<path d="M38.9095 22.006H37.6519C37.2956 22.006 36.9812 22.0898 36.7087 22.2575C36.4572 22.4042 36.2371 22.6138 36.0485 22.8863C35.8808 23.1378 35.7446 23.4313 35.6398 23.7666C35.556 24.081 35.514 24.4059 35.514 24.7412V29.8031C35.514 30.5786 35.4302 31.2597 35.2625 31.8466C35.1158 32.4335 34.8433 32.926 34.4451 33.3243C34.0678 33.7435 33.5543 34.0579 32.9045 34.2675C32.2757 34.4771 31.4793 34.5819 30.5151 34.5819H27.9685V32.5383H30.6409C31.5212 32.5383 32.1395 32.3392 32.4958 31.941C32.8731 31.5427 33.0618 30.8196 33.0618 29.7716V25.4329C33.0618 24.0286 33.2713 23.0016 33.6905 22.3518C34.1097 21.6811 34.5918 21.2305 35.1367 20.9999C34.5918 20.7484 34.1097 20.2768 33.6905 19.5851C33.2713 18.8934 33.0618 17.8874 33.0618 16.5669V12.2282C33.0618 11.1802 32.8731 10.4571 32.4958 10.0589C32.1186 9.66066 31.4897 9.46154 30.6094 9.46154H27.9685V7.41797H30.5151C31.4793 7.41797 32.2757 7.52275 32.9045 7.73233C33.5543 7.94196 34.0678 8.25638 34.4451 8.67552C34.8433 9.07376 35.1158 9.56633 35.2625 10.1532C35.4302 10.7401 35.514 11.4213 35.514 12.1968V17.2586C35.514 17.573 35.556 17.8979 35.6398 18.2332C35.7237 18.5476 35.8494 18.8411 36.017 19.1135C36.2057 19.365 36.4258 19.5747 36.6773 19.7423C36.9498 19.91 37.2641 19.9938 37.6205 19.9938H38.9095V22.006Z" fill="#030412"/>
<path d="M21.4859 27.9741C20.2514 27.9741 19.0951 27.7742 18.0171 27.3743C16.939 26.9743 16.0175 26.5136 15.2524 25.9919L16.2436 24.5836C16.9738 25.1052 17.7823 25.5225 18.6691 25.8354C19.5559 26.1484 20.5817 26.3049 21.7467 26.3049C22.8248 26.3049 23.6246 26.105 24.1462 25.705C24.6853 25.3051 24.9547 24.8444 24.9547 24.3227C24.9547 24.0793 24.9026 23.8532 24.7982 23.6446C24.7113 23.4359 24.5288 23.236 24.2505 23.0447C23.9897 22.8535 23.5985 22.6709 23.0769 22.497C22.5552 22.3231 21.8598 22.1493 20.9904 21.9754C19.3385 21.6277 18.0953 21.1582 17.2607 20.567C16.4435 19.9758 16.0349 19.2107 16.0349 18.2718C16.0349 17.246 16.4783 16.394 17.365 15.7159C18.2518 15.0203 19.5646 14.6726 21.3033 14.6726C22.2771 14.6726 23.216 14.8378 24.1201 15.1682C25.0243 15.4811 25.7894 15.855 26.4153 16.2896L25.3721 17.672C24.7982 17.2547 24.1462 16.933 23.416 16.7069C22.6856 16.4635 21.9206 16.3418 21.1208 16.3418C20.3905 16.3418 19.808 16.4287 19.3733 16.6027C18.956 16.7591 18.6518 16.9764 18.4605 17.2547C18.2866 17.5329 18.1997 17.8372 18.1997 18.1675C18.1997 18.7065 18.4866 19.1325 19.0603 19.4455C19.6515 19.7411 20.5905 20.0193 21.8771 20.2801C23.2855 20.5757 24.3636 20.906 25.1113 21.2712C25.8763 21.6364 26.3979 22.0537 26.6761 22.5231C26.9717 22.9926 27.1195 23.549 27.1195 24.1923C27.1195 24.8878 26.9022 25.5225 26.4675 26.0962C26.0328 26.6527 25.3981 27.1047 24.5635 27.4525C23.7289 27.8003 22.7031 27.9741 21.4859 27.9741Z" fill="#030412"/>
</svg>
