<?xml version="1.0" encoding="utf-8"?>
<svg width="42" height="42" viewBox="0 0 42 42" fill="none" xmlns="http://www.w3.org/2000/svg" xmlns:bx="https://boxy-svg.com">
  <defs>
    <bx:export>
      <bx:file format="svg"/>
    </bx:export>
  </defs>
  <g transform="matrix(0.864981, 0, 0, 0.864981, -49.226944, 0.474002)">
    <circle cx="81.189" cy="23.73" r="24.278" fill="black" style="stroke-width: 1;"/>
    <path d="M 60.318 22.527 L 61.774 22.527 C 62.187 22.527 62.55 22.442 62.866 22.272 C 63.181 22.078 63.435 21.835 63.63 21.544 C 63.848 21.229 64.006 20.889 64.103 20.525 C 64.225 20.137 64.285 19.749 64.285 19.361 L 64.285 13.502 C 64.285 12.604 64.37 11.816 64.539 11.137 C 64.734 10.457 65.049 9.887 65.486 9.426 C 65.922 8.941 66.504 8.577 67.233 8.334 C 67.985 8.092 68.919 7.971 70.035 7.971 L 72.982 7.971 L 72.982 10.336 L 69.889 10.336 C 68.87 10.336 68.143 10.567 67.705 11.027 C 67.294 11.488 67.087 12.325 67.087 13.538 L 67.087 18.56 C 67.087 20.186 66.844 21.387 66.359 22.163 C 65.874 22.915 65.316 23.425 64.685 23.691 C 65.316 23.983 65.874 24.528 66.359 25.329 C 66.844 26.13 67.087 27.294 67.087 28.822 L 67.087 33.844 C 67.087 35.058 67.305 35.894 67.742 36.355 C 68.179 36.816 68.907 37.047 69.925 37.047 L 72.982 37.047 L 72.982 39.412 L 70.035 39.412 C 68.919 39.412 67.985 39.291 67.233 39.048 C 66.504 38.806 65.922 38.442 65.486 37.957 C 65.049 37.496 64.734 36.926 64.539 36.246 C 64.37 35.567 64.285 34.779 64.285 33.881 L 64.285 28.022 C 64.285 27.658 64.225 27.294 64.103 26.93 C 64.006 26.542 63.848 26.202 63.63 25.911 C 63.435 25.596 63.181 25.341 62.866 25.147 C 62.574 24.953 62.223 24.856 61.81 24.856 L 60.318 24.856 L 60.318 22.527 Z" fill="white" style="stroke-width: 1;"/>
    <path d="M 101.778 24.856 L 100.322 24.856 C 99.91 24.856 99.546 24.953 99.23 25.147 C 98.939 25.317 98.684 25.56 98.466 25.875 C 98.272 26.166 98.114 26.506 97.993 26.894 C 97.896 27.258 97.847 27.634 97.847 28.022 L 97.847 33.881 C 97.847 34.779 97.75 35.567 97.556 36.246 C 97.386 36.926 97.071 37.496 96.61 37.957 C 96.173 38.442 95.579 38.806 94.827 39.048 C 94.099 39.291 93.177 39.412 92.061 39.412 L 89.114 39.412 L 89.114 37.047 L 92.207 37.047 C 93.226 37.047 93.941 36.816 94.354 36.355 C 94.791 35.894 95.009 35.058 95.009 33.844 L 95.009 28.822 C 95.009 27.197 95.252 26.008 95.737 25.256 C 96.222 24.48 96.78 23.958 97.411 23.691 C 96.78 23.4 96.222 22.854 95.737 22.054 C 95.252 21.253 95.009 20.089 95.009 18.56 L 95.009 13.538 C 95.009 12.325 94.791 11.488 94.354 11.027 C 93.917 10.567 93.189 10.336 92.171 10.336 L 89.114 10.336 L 89.114 7.971 L 92.061 7.971 C 93.177 7.971 94.099 8.092 94.827 8.334 C 95.579 8.577 96.173 8.941 96.61 9.426 C 97.071 9.887 97.386 10.457 97.556 11.137 C 97.75 11.816 97.847 12.604 97.847 13.502 L 97.847 19.361 C 97.847 19.725 97.896 20.101 97.993 20.489 C 98.09 20.853 98.236 21.193 98.43 21.508 C 98.648 21.799 98.903 22.042 99.194 22.236 C 99.509 22.43 99.873 22.527 100.286 22.527 L 101.778 22.527 L 101.778 24.856 Z" fill="white" style="stroke-width: 1;"/>
    <path d="M 81.61 31.759 C 80.181 31.759 78.843 31.527 77.595 31.065 C 76.347 30.602 75.28 30.068 74.395 29.465 L 75.542 27.835 C 76.387 28.438 77.323 28.921 78.349 29.284 C 79.376 29.646 80.563 29.827 81.912 29.827 C 83.16 29.827 84.085 29.595 84.689 29.133 C 85.313 28.67 85.625 28.136 85.625 27.533 C 85.625 27.251 85.565 26.989 85.444 26.748 C 85.343 26.506 85.132 26.275 84.81 26.053 C 84.508 25.832 84.055 25.621 83.451 25.419 C 82.847 25.218 82.042 25.017 81.036 24.816 C 79.124 24.413 77.685 23.87 76.719 23.185 C 75.773 22.501 75.3 21.616 75.3 20.529 C 75.3 19.342 75.814 18.355 76.84 17.57 C 77.866 16.765 79.386 16.363 81.398 16.363 C 82.526 16.363 83.612 16.554 84.659 16.936 C 85.705 17.299 86.591 17.731 87.316 18.235 L 86.108 19.835 C 85.444 19.351 84.689 18.979 83.844 18.717 C 82.998 18.436 82.113 18.295 81.187 18.295 C 80.342 18.295 79.668 18.395 79.165 18.597 C 78.682 18.778 78.329 19.029 78.108 19.351 C 77.907 19.674 77.806 20.026 77.806 20.408 C 77.806 21.032 78.138 21.525 78.802 21.887 C 79.487 22.23 80.573 22.551 82.063 22.853 C 83.693 23.196 84.941 23.578 85.806 24.001 C 86.692 24.423 87.295 24.906 87.617 25.45 C 87.96 25.993 88.131 26.637 88.131 27.382 C 88.131 28.187 87.879 28.921 87.376 29.585 C 86.873 30.229 86.138 30.753 85.172 31.155 C 84.206 31.558 83.019 31.759 81.61 31.759 Z" fill="white" style="stroke-width: 1;"/>
  </g>
</svg>