<svg width="36" height="36" viewBox="0 0 36 36" fill="none" xmlns="http://www.w3.org/2000/svg">
<rect y="-0.000976562" width="36" height="36" rx="18" fill="white"/>
<rect y="-0.000976562" width="36" height="36" rx="18" fill="white"/>
<path d="M21.4922 19.6604H31.1237C31.4941 19.6604 31.5688 19.156 31.2319 19.0019L21.4928 14.5662V4.89715C21.4928 4.53624 21.0101 4.41782 20.8436 4.73799L16.8397 12.4471L12.4031 10.4094C11.9786 10.238 11.7179 10.5835 11.862 10.8806L14.5077 16.3381H4.87625C4.5058 16.3381 4.43115 16.8425 4.76803 16.9965L14.5071 21.4323V31.1013C14.5071 31.4622 14.9898 31.5806 15.1563 31.2605L19.1602 23.5514L23.5969 25.5891C24.0213 25.7605 24.282 25.4149 24.138 25.1178L21.4922 19.6604Z" fill="url(#paint0_linear_6698_48897)"/>
<defs>
<linearGradient id="paint0_linear_6698_48897" x1="26.1681" y1="11.6071" x2="8.82619" y2="24.9085" gradientUnits="userSpaceOnUse">
<stop stop-color="#FA43BD"/>
<stop offset="1" stop-color="#FFA930"/>
</linearGradient>
</defs>
</svg>
