<svg width="42" height="42" viewBox="0 0 42 42" fill="none" xmlns="http://www.w3.org/2000/svg">
<rect width="42" height="42" rx="21" fill="white"/>
<path d="M25.0743 22.9382H36.311C36.7432 22.9382 36.8303 22.3498 36.4373 22.17L25.075 16.995V5.71448C25.075 5.29342 24.5119 5.15526 24.3175 5.5288L19.6464 14.5227L14.4703 12.1454C13.975 11.9454 13.6709 12.3486 13.839 12.6952L16.9257 19.0622H5.68899C5.25681 19.0622 5.16971 19.6507 5.56275 19.8304L16.925 25.0054V36.286C16.925 36.7071 17.4881 36.8452 17.6824 36.4717L22.3536 27.4778L27.5297 29.855C28.0249 30.0551 28.3291 29.6519 28.161 29.3053L25.0743 22.9382Z" fill="url(#paint0_linear_6698_48889)"/>
<defs>
<linearGradient id="paint0_linear_6698_48889" x1="30.5295" y1="13.5427" x2="10.2973" y2="29.0611" gradientUnits="userSpaceOnUse">
<stop stop-color="#FA43BD"/>
<stop offset="1" stop-color="#FFA930"/>
</linearGradient>
</defs>
</svg>
