<svg xmlns="http://www.w3.org/2000/svg" width="36" height="36" fill="none"><rect width="36" height="36" fill="#66BE92" rx="18"/><path fill="#030303" d="M8.038 17.212c1.024.985 2.008 1.812 2.008 3.544 0 1.89-.945 3.19-3.11 3.19-1.536 0-2.993-.63-3.111-3.072l-.04-.905 2.088-.119.039.552c.079 1.102.472 1.457 1.024 1.457.472 0 .708-.276.708-.867 0-.787-.866-1.496-1.732-2.205-1.26-1.102-1.969-2.047-1.969-3.7 0-1.694.985-3.033 3.032-3.033 1.575 0 2.796.709 2.914 3.032l.04.63-2.009.118v-.551c0-.709-.236-1.22-.866-1.22-.355 0-.709.236-.709.826-.04.866.433 1.181 1.693 2.323Zm20.357-2.992h.315c.433 0 .827.236.827 1.732 0 1.457-.473 1.693-.906 1.693h-.236V14.22Zm3.82 9.568-1.34-5.237c.788-.59 1.26-1.654 1.26-2.953 0-2.166-1.18-3.308-2.992-3.308h-3.347v11.498h2.599v-4.646h.197l1.024 4.646h2.598Zm-9.923-5.749c0 3.19-.433 3.859-1.181 3.859h-.394V14.22h.394c.748 0 1.18.63 1.18 3.82Zm-4.174 5.749h3.308c2.323 0 3.504-1.85 3.504-5.749 0-3.898-1.181-5.749-3.504-5.749h-3.308v11.498Zm-3.347-7.718c0 1.615-.433 1.89-.827 1.89h-.354v-3.74h.354c.394 0 .827.275.827 1.85Zm-.63 3.78c2.048 0 3.229-1.18 3.229-3.78 0-2.677-1.181-3.78-3.032-3.78h-3.386v11.498h2.599V19.85h.59Z"/></svg>