<svg width="42" height="42" viewBox="0 0 42 42" fill="none" xmlns="http://www.w3.org/2000/svg">
<circle cx="21" cy="21" r="20" fill="#222222"/>
<path d="M11.9421 19.5L11.7113 19.8461C9.05755 23.9999 9.63446 29.4228 13.2113 32.8843C15.1728 34.9612 17.9419 35.9996 20.7111 35.9996C20.7111 35.9996 20.7111 35.9996 11.9421 19.5Z" fill="#00A3FF"/>
<path opacity="0.6" d="M20.7114 24.4606L11.9424 19.3838C20.7114 35.9988 20.7114 35.9988 20.7114 35.9988C20.7114 32.4219 20.7114 28.2682 20.7114 24.4606Z" fill="#00A3FF"/>
<path opacity="0.6" d="M29.48 19.5L29.7107 19.8461C32.3645 23.9999 31.7876 29.4228 28.2108 32.8843C26.1339 34.9612 23.4801 35.9996 20.7109 35.9996C20.7109 35.9996 20.7109 35.9996 29.48 19.5Z" fill="#00A3FF"/>
<path opacity="0.2" d="M20.7109 24.4606L29.48 19.3838C20.7109 35.9988 20.7109 35.9988 20.7109 35.9988C20.7109 32.4219 20.7109 28.2682 20.7109 24.4606Z" fill="#00A3FF"/>
<path opacity="0.2" d="M20.7109 13.2686V21.9222L28.3261 17.6531L20.7109 13.2686Z" fill="#00A3FF"/>
<path opacity="0.6" d="M20.7109 13.2686L13.0957 17.6531L20.7109 21.9222V13.2686Z" fill="#00A3FF"/>
<path d="M20.7109 6L13.0957 17.6536L20.7109 13.2691V6Z" fill="#00A3FF"/>
<path opacity="0.6" d="M20.7109 13.2691L28.3261 17.6536L20.7109 6V13.2691Z" fill="#00A3FF"/>
</svg>
