<svg width="42" height="42" viewBox="0 0 42 42" fill="none" xmlns="http://www.w3.org/2000/svg">
<path d="M21 41C32.0457 41 41 32.0457 41 21C41 9.9543 32.0457 1 21 1C9.9543 1 1 9.9543 1 21C1 32.0457 9.9543 41 21 41Z" fill="#E6BC7B"/>
<path d="M29 15H13.3C13.1343 15 13 15.1343 13 15.3V26.7C13 26.8657 13.1343 27 13.3 27H28.7C28.8657 27 29 26.8657 29 26.7V21.3C29 21.1343 28.8657 21 28.7 21H19M18.5 14V10.8C18.5 10.6343 18.6343 10.5 18.8 10.5H23.2C23.3657 10.5 23.5 10.6343 23.5 10.8V14M23.5 32V28M18.5 32V28" stroke="black" stroke-width="2" stroke-linecap="round"/>
<circle cx="21" cy="21" r="16.5" stroke="#030303" stroke-width="2"/>
</svg>
