<svg xmlns="http://www.w3.org/2000/svg" width="42" height="42" fill="none"><path fill="#959696" d="M0 21C0 9.402 9.402 0 21 0s21 9.402 21 21-9.402 21-21 21S0 32.598 0 21Z"/><circle cx="21" cy="21" r="19" fill="#030303"/><path fill="#EEE" d="M29.23 20.938c.19.984-.382 1.492-1.177 1.777-2.609.953-4.422 2.667-5.313 5.334-.286.825-.86 1.206-1.813 1.238-.987 0-1.496-.476-1.782-1.27-.922-2.635-2.704-4.38-5.345-5.302-.827-.285-1.208-.857-1.177-1.809 0-.984.478-1.492 1.273-1.778 2.609-.889 4.326-2.603 5.217-5.206.318-.889.891-1.27 1.909-1.27s1.463.572 1.718 1.333c.89 2.604 2.64 4.318 5.249 5.175.859.286 1.431.794 1.24 1.778Z"/><path fill="#959696" d="M5.018 16.81c.763-2.349 1.813-4.54 3.404-6.476 1.909-2.317 4.422-3.778 7.126-4.92.668-.286 1.527-.699 2.1-.127.54.54-.128 1.27-.382 1.873-1.273 2.984-3.022 5.587-5.631 7.587-1.686 1.302-3.627 2.063-5.504 2.952-.668.35-1.24.095-1.113-.889ZM36.898 16.973c.095.984-.573.984-1.146.762-3.658-1.524-6.967-3.524-9.225-6.984-.86-1.301-1.273-2.762-2.1-4.032-.286-.444-.604-1.142-.35-1.46.35-.444 1.114-.222 1.623-.032 2.64.953 5.058 2.318 7.03 4.318 1.75 1.777 2.863 3.968 3.85 6.222.222.38.254.794.318 1.206ZM17.39 36.914c-1.972-.158-3.34-.984-4.613-1.714-3.499-1.968-5.853-4.984-7.348-8.698a5.25 5.25 0 0 1-.35-1.206c-.191-.985.19-1.46 1.209-1.048 4.612 1.936 8.525 4.635 10.466 9.524.286.73.763 1.397 1.018 2.127.159.571.032 1.079-.382 1.015ZM23.914 36.777c1.877-6.095 5.726-10.222 11.58-12.476.413-.159.89-.38 1.177-.095.413.413.223 1.016.064 1.492-.923 2.476-2.1 4.762-3.977 6.698-1.94 2-4.327 3.27-6.872 4.254-.604.254-1.24.254-1.972.127Z"/></svg>