<svg xmlns="http://www.w3.org/2000/svg" width="42" height="42" fill="none"><rect width="42" height="42" fill="#F3F3F3" rx="21"/><path fill="#13B3FF" d="M27.687 16.558c-.476-.271-1.087-.271-1.63 0l-3.801 2.239-2.58 1.424-3.733 2.238c-.476.271-1.087.271-1.63 0l-2.919-1.763a1.653 1.653 0 0 1-.814-1.425V15.88c0-.543.271-1.085.814-1.424l2.92-1.696c.475-.271 1.085-.271 1.629 0l2.919 1.764c.475.27.814.813.814 1.424v2.238l2.58-1.492v-2.306c0-.543-.272-1.085-.815-1.425l-5.43-3.187c-.476-.272-1.087-.272-1.63 0L8.815 13.03c-.543.272-.815.814-.815 1.357v6.375c0 .543.272 1.086.815 1.425l5.498 3.188c.476.27 1.086.27 1.63 0l3.733-2.17 2.58-1.493 3.734-2.17c.475-.272 1.086-.272 1.629 0l2.919 1.695c.475.271.814.814.814 1.425v3.39c0 .543-.271 1.086-.814 1.425l-2.851 1.696c-.476.271-1.087.271-1.63 0l-2.919-1.696a1.653 1.653 0 0 1-.814-1.424v-2.17l-2.58 1.492v2.238c0 .542.272 1.085.815 1.424l5.498 3.188c.476.271 1.087.271 1.63 0l5.498-3.188c.476-.271.815-.814.815-1.424V21.17c0-.542-.272-1.085-.815-1.424l-5.498-3.188Z"/></svg>