<svg width="42" height="42" viewBox="0 0 42 42" fill="none" xmlns="http://www.w3.org/2000/svg">
<rect width="42" height="42" rx="21" fill="url(#paint0_linear_1267_111967)"/>
<path d="M21 42C32.598 42 42 32.598 42 21C42 9.40202 32.598 0 21 0C9.40202 0 0 9.40202 0 21C0 32.598 9.40202 42 21 42Z" fill="url(#paint1_linear_1267_111967)"/>
<path fill-rule="evenodd" clip-rule="evenodd" d="M20.819 37L10 26.7905L20.819 5L32.4 27.4L20.819 37ZM16.2476 17.419L20.819 19.7048L25.8476 17.419L20.819 7.81905L16.2476 17.419ZM15.5619 18.6381L12.0571 25.7238L15.1048 24.1238L19.1429 27.019L20.1333 20.8476L15.5619 18.6381ZM26.6095 18.6381L21.2762 20.8476L20.2857 26.7143L27.6762 24.7333L30.419 26.2571L26.6095 18.6381Z" fill="#030303"/>
<defs>
<linearGradient id="paint0_linear_1267_111967" x1="21" y1="0" x2="21" y2="42" gradientUnits="userSpaceOnUse">
<stop stop-color="#404141"/>
<stop offset="1" stop-color="#222222"/>
</linearGradient>
<linearGradient id="paint1_linear_1267_111967" x1="21" y1="0" x2="21" y2="42" gradientUnits="userSpaceOnUse">
<stop stop-color="white"/>
<stop offset="1" stop-color="#C3C4C3"/>
</linearGradient>
</defs>
</svg>
