<svg width="42" height="42" viewBox="0 0 42 42" fill="none" xmlns="http://www.w3.org/2000/svg">
<rect x="0.6" y="0.6" width="40.8" height="40.8" rx="20.4" fill="#0C0C4F"/>
<rect x="0.6" y="0.6" width="40.8" height="40.8" rx="20.4" stroke="#EC796B" stroke-width="1.2"/>
<path fill-rule="evenodd" clip-rule="evenodd" d="M12.4361 16.8973L12.9449 15.3252C13.0483 15.0055 13.3007 14.7567 13.6216 14.6585L15.2014 14.1727C15.4201 14.1059 15.4219 13.7974 15.205 13.7271L13.6323 13.2182C13.3131 13.1148 13.0643 12.8624 12.9656 12.5415L12.4804 10.9617C12.4136 10.7436 12.1051 10.7412 12.0347 10.9587L11.5259 12.5309C11.4224 12.85 11.1701 13.0988 10.8492 13.1975L9.26935 13.6828C9.05068 13.7501 9.0483 14.0581 9.2658 14.1284L10.8385 14.6373C11.1577 14.7407 11.4065 14.9936 11.5052 15.3146L11.9904 16.8938C12.0572 17.1124 12.3657 17.1148 12.4361 16.8973Z" fill="#FAFAFA"/>
<path fill-rule="evenodd" clip-rule="evenodd" d="M37.4062 15.9854C36.7549 15.2571 35.7386 14.8471 34.7504 14.6789C33.7544 14.5174 32.7099 14.5324 31.7266 14.7071C29.737 15.0436 27.9295 15.8675 26.3529 16.8838C25.5342 17.3826 24.836 17.9597 24.1127 18.5475C23.7642 18.8448 23.4464 19.1614 23.1155 19.4734L22.2113 20.3731C21.2288 21.4001 20.2604 22.3355 19.3234 23.1108C18.3826 23.8826 17.5031 24.4687 16.6363 24.878C15.7701 25.2895 14.8432 25.5315 13.6351 25.5702C12.4376 25.6124 11.0208 25.3963 9.50528 25.0396C7.98166 24.6844 6.38168 24.1781 4.59375 23.7425C5.2176 25.4732 6.15704 27.0027 7.36318 28.4009C8.58346 29.7747 10.1072 31.0267 12.0647 31.8502C13.9939 32.692 16.4183 32.9942 18.6852 32.5383C20.9581 32.1007 22.9526 31.0491 24.5649 29.8326C26.1813 28.6039 27.489 27.2042 28.5915 25.7489C28.8957 25.3469 29.0567 25.1219 29.2769 24.8076L29.8857 23.906C30.3087 23.3482 30.6938 22.7132 31.1124 22.1606C31.9333 21.0033 32.7427 19.8473 33.6832 18.7823C34.1565 18.2421 34.6557 17.7255 35.2449 17.2289C35.5387 16.9866 35.8563 16.7494 36.208 16.5357C36.565 16.3052 36.942 16.1249 37.4062 15.9854Z" fill="#EC796B"/>
<path fill-rule="evenodd" clip-rule="evenodd" d="M37.4062 15.9946C36.7067 14.2291 35.4059 12.7429 33.6599 11.6463C31.9247 10.5616 29.5147 10.0081 27.1263 10.48C25.9465 10.7082 24.8034 11.1475 23.8003 11.7325C22.8018 12.3152 21.9069 13.0167 21.1323 13.7692C20.7456 14.1467 20.3946 14.5405 20.0458 14.9366L19.142 16.0889L17.746 17.9439C15.9663 20.3306 14.0499 23.1276 10.9048 23.9563C7.81729 24.77 6.47818 24.0494 4.59375 23.7517C4.93832 24.6413 5.36511 25.5052 5.94372 26.2652C6.51155 27.0406 7.18227 27.7687 8.01613 28.3932C8.43752 28.693 8.88242 28.9889 9.37653 29.2399C9.86843 29.4823 10.3989 29.6958 10.9651 29.8563C12.0913 30.165 13.3592 30.2732 14.5868 30.107C15.8151 29.9432 16.989 29.5541 18.0152 29.0372C19.0489 28.525 19.9494 27.9013 20.7535 27.2432C22.3519 25.9158 23.5952 24.4492 24.6454 22.9667C25.1736 22.2255 25.6531 21.4702 26.0966 20.7148L26.6185 19.8155C26.7781 19.5526 26.9395 19.2881 27.1033 19.0417C27.7648 18.052 28.4117 17.2584 29.1974 16.6627C29.9721 16.0517 31.0511 15.6002 32.4928 15.4953C33.9284 15.3892 35.5859 15.5852 37.4062 15.9946Z" fill="#FAFAFA"/>
<path fill-rule="evenodd" clip-rule="evenodd" d="M29.6387 30.6551C29.6387 31.952 30.6905 33.0035 31.9871 33.0035C33.284 33.0035 34.3343 31.952 34.3343 30.6551C34.3343 29.3585 33.284 28.3066 31.9871 28.3066C30.6905 28.3066 29.6387 29.3585 29.6387 30.6551Z" fill="#EC796B"/>
</svg>
