<svg width="42" height="42" viewBox="0 0 42 42" fill="none" xmlns="http://www.w3.org/2000/svg">
<rect width="42" height="42" rx="21" fill="#C3C4C3"/>
<path fill-rule="evenodd" clip-rule="evenodd" d="M21 36.5859C27.1614 36.5859 32.1562 32.2474 32.1562 26.0859C32.1562 23.3469 30.8438 20.5078 29.5312 18.2404C29.333 17.9546 29.1054 17.6226 28.8549 17.2544C28.7756 17.9556 28.4635 18.6136 27.9635 19.1191C27.3796 19.7094 26.587 20.0438 25.7585 20.0493H18.8109C19.6877 20.0686 20.5248 20.4256 21.148 21.0481C21.7882 21.6875 22.1508 22.5553 22.1567 23.4621V30.9909H22.1575C22.1575 33.1849 22.3597 34.3789 24.3328 34.5887C23.6615 35.0824 22.8382 35.322 22.0081 35.2653C21.5822 35.2833 21.1572 35.214 20.759 35.0616C20.3607 34.9093 19.9975 34.677 19.6916 34.3789C19.3857 34.0809 19.1434 33.7234 18.9796 33.3282C18.8158 32.933 18.7339 32.5085 18.7389 32.0804V20.0493H11.8125C11.8125 19.7015 11.8697 19.3596 11.979 19.0363C10.8486 21.0026 9.84375 23.6893 9.84375 26.0859C9.84375 32.2474 14.8386 36.5859 21 36.5859ZM12.773 17.7802C13.3518 17.22 14.1235 16.9038 14.929 16.8984H28.6133C25.9012 12.8949 21 5.41406 21 5.41406C21 5.41406 15.0352 14.3612 12.773 17.7802Z" fill="#030303"/>
</svg>
