<svg width="42" height="42" viewBox="0 0 42 42" fill="none" xmlns="http://www.w3.org/2000/svg">
<rect width="42" height="42" rx="21" fill="white"/>
<path d="M26.7188 18.4375H30.8438M26.7188 18.4375L20.9062 8.5L15.0938 18.4375M26.7188 18.4375H15.0938M11.1562 18.4375H15.0938M15.2813 23.5937H11.1563M15.2813 23.5937L21.0938 33.5312L26.9063 23.5938M15.2813 23.5937L26.9063 23.5938M30.8438 23.5938H26.9063" stroke="#030303" stroke-width="1.6875"/>
<path fill-rule="evenodd" clip-rule="evenodd" d="M14.8125 4.89309C8.34216 7.38023 3.75 13.6539 3.75 21.0002C3.75 28.3464 8.34216 34.6201 14.8125 37.1072V35.4883C9.18988 33.0839 5.25 27.5021 5.25 21.0002C5.25 14.4982 9.18988 8.91646 14.8125 6.51207V4.89309ZM27 35.567C32.7223 33.2074 36.75 27.5742 36.75 21.0002C36.75 14.4262 32.7223 8.79289 27 6.43332V4.82227C33.5689 7.25947 38.25 13.5832 38.25 21.0002C38.25 28.4172 33.5689 34.7409 27 37.1781V35.567Z" fill="#030303"/>
</svg>
