<svg width="42" height="42" viewBox="0 0 42 42" fill="none" xmlns="http://www.w3.org/2000/svg">
<rect width="42" height="42" rx="21" fill="url(#paint0_radial_6246_43792)"/>
<path d="M12.8122 26.7026H9.82373C10.0677 31.3682 13.9709 35.424 20.8933 35.424C27.7851 35.424 32.1762 31.6427 32.1762 26.7635C32.1762 17.4932 18.1792 18.0116 18.1792 12.6446C18.1792 11.1503 19.3075 9.38167 21.9301 9.38167C24.8576 9.38167 28.3034 11.6688 28.5474 14.5963H31.5053C31.2004 9.86958 26.5957 6.57617 20.7408 6.57617C14.6723 6.57617 10.0982 10.1135 10.0982 15.1146C10.0982 24.6594 24.0951 23.4091 24.0951 29.2946C24.0951 31.1242 22.9668 32.649 20.1309 32.649C16.5935 32.649 13.0257 30.179 12.8122 26.7026ZM15.3128 13.346C15.3128 20.6036 29.1878 19.1704 29.1878 26.916C29.1878 29.2336 27.6631 31.2767 25.8334 31.7951C26.4737 31.1853 26.9617 29.8435 26.9617 28.5627C26.9617 21.3965 13.0562 22.3723 13.0562 15.0232C13.0562 12.5531 14.6418 10.571 16.624 9.96107C15.8617 10.8759 15.3128 12.0652 15.3128 13.346Z" fill="white"/>
<defs>
<radialGradient id="paint0_radial_6246_43792" cx="0" cy="0" r="1" gradientUnits="userSpaceOnUse" gradientTransform="translate(21 65.4151) rotate(-90) scale(65.4152)">
<stop stop-color="#FFEF79"/>
<stop offset="1" stop-color="#00C2A1"/>
</radialGradient>
</defs>
</svg>
