<svg width="42" height="42" viewBox="0 0 42 42" fill="none" xmlns="http://www.w3.org/2000/svg">
<g clip-path="url(#clip0_2736_274234)">
<path style="mix-blend-mode:multiply" d="M41.9979 20.9989C41.9979 9.40155 32.5963 0 20.9989 0C9.40155 0 0 9.40155 0 20.9989C0 32.5963 9.40155 41.9979 20.9989 41.9979C32.5963 41.9979 41.9979 32.5963 41.9979 20.9989Z" fill="url(#paint0_linear_2736_274234)"/>
<path d="M26.7179 18.2788H30.8428M26.7179 18.2788L20.9057 8.3418L15.0935 18.2788M26.7179 18.2788H15.0935M15.0935 18.2788H11.1562M15.2811 23.4347H11.1562M15.2811 23.4347L21.0932 33.3718L26.9054 23.4347M15.2811 23.4347H26.9054M26.9054 23.4347H30.8428" stroke="#030303" stroke-width="1.68742"/>
<path fill-rule="evenodd" clip-rule="evenodd" d="M14.812 4.89308C8.34193 7.3801 3.75 13.6535 3.75 20.9994C3.75 28.3452 8.34193 34.6186 14.812 37.1057V35.4867C9.18962 33.0824 5.24993 27.501 5.24993 20.9994C5.24993 14.4978 9.18962 8.91625 14.812 6.51198V4.89308ZM26.9989 35.5654C32.7209 33.206 36.7483 27.5731 36.7483 20.9994C36.7483 14.4257 32.7209 8.79269 26.9989 6.43325V4.82227C33.5674 7.25935 38.2483 13.5828 38.2483 20.9994C38.2483 28.416 33.5674 34.7393 26.9989 37.1765V35.5654Z" fill="#030303"/>
</g>
<defs>
<linearGradient id="paint0_linear_2736_274234" x1="20.9989" y1="15.1146" x2="20.9989" y2="44.4804" gradientUnits="userSpaceOnUse">
<stop stop-color="#FAFAFA"/>
<stop offset="1" stop-color="#FAFAFA"/>
</linearGradient>
<clipPath id="clip0_2736_274234">
<rect width="42" height="42" fill="white"/>
</clipPath>
</defs>
</svg>
