<svg xmlns="http://www.w3.org/2000/svg" width="42" height="42" fill="none"><circle cx="21" cy="21" r="20" fill="#F056A3"/><mask id="a" width="28" height="28" x="7" y="7" maskUnits="userSpaceOnUse" style="mask-type:luminance"><path fill="#fff" d="M35 7H7v28h28V7Z"/></mask><g mask="url(#a)"><path fill="#F3F3F3" d="m12.834 9.684 21.7 14.816-5.367 7.934L7.467 17.5l5.367-7.816Z"/><path fill="#F3F3F3" d="M34.534 24.5c-1.867 2.684-8.167 1.634-14.117-2.566-6.067-4.084-9.333-9.567-7.583-12.25C14.7 7 21 8.05 26.95 12.25c6.067 3.967 9.334 9.567 7.584 12.25Z"/><path fill="#F3F3F3" d="M29.167 32.316C27.3 35 21 33.95 15.05 29.75c-5.95-4.2-9.333-9.567-7.467-12.367C9.45 14.7 15.75 15.75 21.7 19.95c5.95 4.2 9.217 9.683 7.467 12.366Z"/><path fill="#F056A3" d="M12.367 12.367c0-.117-.117-.233-.233-.117-.117.117-.234.117-.234.234.117.35.234.583.234.816 0 .117.116.234.233.117.117 0 .233-.117.117-.233 0-.233 0-.467-.117-.817ZM12.95 14.233c0-.116-.116-.233-.233-.116-.116.116-.116.116-.116.233 1.283 2.917 3.966 6.067 7.466 8.4.117.117.234 0 .35 0 .117-.117 0-.233 0-.35-3.616-2.333-6.183-5.367-7.466-8.167ZM27.067 25.667c-.117 0-.233 0-.233.117 0 .116 0 .233.116.233.35.117.817.233 1.167.35.116 0 .233 0 .233-.117 0-.116 0-.233-.117-.233-.35-.117-.816-.233-1.166-.35ZM29.167 26.134a.251.251 0 0 0-.233.233c0 .117.116.233.233.233.933.117 1.983.234 2.8.117a.25.25 0 0 0 .233-.233.25.25 0 0 0-.233-.234c-.933.117-1.867 0-2.8-.116Z"/><path fill="#F056A3" fill-rule="evenodd" d="M33.717 24.034c-1.633 2.333-7.35 1.167-12.833-2.683-5.6-3.85-8.867-8.75-7.233-11.084 1.633-2.333 7.35-1.166 12.833 2.684 5.483 3.85 8.75 8.75 7.233 11.083Zm-5.133-3.5c-.817 1.167-3.617.583-6.417-1.284-2.683-1.866-4.316-4.316-3.5-5.483.817-1.166 3.617-.583 6.417 1.284 2.683 1.866 4.317 4.316 3.5 5.483Z" clip-rule="evenodd"/></g></svg>