<svg xmlns="http://www.w3.org/2000/svg" width="36" height="36" fill="none"><path fill="url(#a)" d="M35.998 18C35.998 8.057 27.94 0 18 0 8.06 0 0 8.058 0 18c0 9.94 8.058 17.998 18 17.998 9.94 0 17.998-8.058 17.998-17.999Z"/><path fill="#fff" fill-rule="evenodd" d="m10.797 17.743 7.08-11.745 6.417 10.64a6.315 6.315 0 0 0-2.871-.68c-1.696 0-2.996.527-4.301 1.056-1.003.407-2.009.814-3.199.984-1.503.215-2.545.02-3.126-.255Zm14.14 1.836-7.059 9.998-6.77-9.593c.44.288 1.066.534 2.215.534 1.35 0 2.7-.525 4.05-1.05 1.35-.525 2.7-1.05 4.05-1.05 1.817 0 2.975.66 3.513 1.16Z" clip-rule="evenodd"/><path fill="#7591F2" fill-rule="evenodd" d="M17.88 19.273v10.304l7.058-9.999c-.538-.5-1.696-1.16-3.513-1.16-1.181 0-2.363.403-3.545.855Zm0-2.56c1.064-.41 2.176-.755 3.545-.755 1.216 0 2.204.338 2.871.68L17.88 5.999v10.715Z" clip-rule="evenodd"/><defs><linearGradient id="a" x1="17.999" x2="17.999" y1="0" y2="35.998" gradientUnits="userSpaceOnUse"><stop stop-color="#2041C9"/><stop offset="1" stop-color="#2F65EC"/></linearGradient></defs></svg>