<svg width="42" height="42" viewBox="0 0 42 42" fill="none" xmlns="http://www.w3.org/2000/svg">
<g clip-path="url(#clip0_4532_197016)">
<path d="M41.9977 21C41.9977 9.39983 32.5967 0 21 0C9.40333 0 0 9.401 0 21C0 32.5967 9.401 41.9977 21 41.9977C32.5967 41.9977 41.9977 32.5978 41.9977 21Z" fill="url(#paint0_linear_4532_197016)"/>
<path fill-rule="evenodd" clip-rule="evenodd" d="M12.6328 20.6713L20.8928 6.96875L28.3793 19.3821C27.3411 18.8569 26.1933 18.585 25.0298 18.5888C23.0511 18.5888 21.5345 19.2036 20.012 19.8208C18.8418 20.2956 17.6681 20.7704 16.2798 20.9687C14.5263 21.2196 13.3106 20.9921 12.6328 20.6713ZM29.1295 22.8133L20.894 34.4776L12.9956 23.2858C13.509 23.6218 14.2393 23.9088 15.5798 23.9088C17.1548 23.9088 18.7298 23.2963 20.3048 22.6838C21.8798 22.0713 23.4548 21.4587 25.0298 21.4587C27.1496 21.4587 28.5006 22.2287 29.1283 22.8121L29.1295 22.8133Z" fill="white"/>
<path fill-rule="evenodd" clip-rule="evenodd" d="M20.8359 22.4551V34.4764L29.0703 22.8109C28.4426 22.2276 27.0916 21.4576 24.9718 21.4576C23.5939 21.4576 22.2149 21.9277 20.8359 22.4551ZM20.8359 19.4684C22.0773 18.9901 23.3746 18.5876 24.9718 18.5876C26.3904 18.5876 27.5431 18.9819 28.3213 19.3809L20.8359 6.96875V19.4696V19.4684Z" fill="#7591F2"/>
</g>
<defs>
<linearGradient id="paint0_linear_4532_197016" x1="20.9988" y1="0" x2="20.9988" y2="41.9977" gradientUnits="userSpaceOnUse">
<stop stop-color="#2041C9"/>
<stop offset="1" stop-color="#2F65EC"/>
</linearGradient>
<clipPath id="clip0_4532_197016">
<rect width="42" height="42" fill="white"/>
</clipPath>
</defs>
</svg>
