<svg width="36" height="36" viewBox="0 0 36 36" fill="none" xmlns="http://www.w3.org/2000/svg">
<rect y="-0.000976562" width="36" height="36" rx="18" fill="white"/>
<rect y="-0.000976562" width="36" height="36" rx="18" fill="#FC784A"/>
<path d="M25.2638 12.2696C25.2638 15.3273 16.2494 16.7407 9.61475 16.7407V18.9042C18.7734 18.9042 27.4994 17.1013 27.4994 12.4138C27.4994 8.6638 21.009 6.7888 17.8359 6.42822C21.3696 7.43784 25.2638 9.21188 25.2638 12.2696Z" fill="white"/>
<path d="M27.4957 16.3749C27.498 16.4244 27.4994 16.4742 27.4994 16.5244C27.4994 21.2119 18.7734 23.0148 9.61475 23.0148V20.9234C17.5457 20.9234 25.1644 19.6235 27.4957 16.3749Z" fill="white"/>
<path d="M27.4867 20.57C27.4949 20.6626 27.4994 20.7563 27.4994 20.8513C27.4994 25.5388 18.7734 27.3417 9.61475 27.3417V25.1782C11.3948 25.1782 13.3462 25.0762 15.2489 24.8682C20.915 24.3633 25.7125 23.0243 27.4867 20.57Z" fill="white"/>
</svg>
