<svg width="43" height="42" viewBox="0 0 43 42" fill="none" xmlns="http://www.w3.org/2000/svg">
<rect x="0.0722656" width="42" height="42" rx="21" fill="white"/>
<rect x="0.0722656" width="42" height="42" rx="21" fill="white"/>
<path d="M21.0723 0C9.48751 0 0.0722656 9.39418 0.0722656 21C0.0722656 32.6058 9.46645 42 21.0723 42C32.6781 42 42.0723 32.6058 42.0723 21C42.0723 9.39418 32.6781 0 21.0723 0ZM16.4384 35.0702C16.4384 35.4915 16.0171 35.7864 15.5958 35.6389C9.48751 33.3641 5.44338 27.5928 5.44338 21C5.44338 14.4072 9.48751 8.63591 15.5958 6.36108C15.996 6.21364 16.4384 6.50853 16.4384 6.92979V7.87763C16.4384 8.13039 16.2699 8.36209 16.0382 8.44634C10.9198 10.4895 7.5497 15.4183 7.5497 21C7.5497 26.5817 10.9198 31.5105 16.0382 33.5537C16.2699 33.6379 16.4384 33.8696 16.4384 34.1224V35.0702ZM21.9148 28.8566V30.8365C21.9148 31.0682 21.7252 31.2367 21.5146 31.2367H20.2087C19.977 31.2367 19.8085 31.0471 19.8085 30.8365V28.7934C18.5868 28.5617 17.4073 28.014 16.5437 27.2347C15.7012 26.4554 15.1956 25.4865 15.0903 24.4122C15.0693 24.1805 15.2588 23.9699 15.4905 23.9699H16.7964C17.0071 23.9699 17.1545 24.1174 17.1966 24.328C17.2809 24.8335 17.5336 25.2758 17.976 25.676C18.7974 26.4343 20.1876 26.8977 21.4093 26.7924C22.5888 26.7081 23.9369 25.8656 24.0632 24.7914C24.2317 23.5486 23.7894 22.7904 22.5888 22.2638C21.999 21.99 21.3461 21.8215 20.651 21.653C19.9138 21.4634 19.1345 21.2738 18.3762 20.9368C17.3441 20.4734 16.5226 19.6098 16.1224 18.5777C15.7222 17.5456 15.7854 16.3872 16.2699 15.334C16.8596 14.0281 18.1445 13.1645 19.8085 12.8696V11.0582C19.8085 10.8265 19.998 10.658 20.2087 10.658H21.5146C21.7463 10.658 21.9148 10.8475 21.9148 11.0582V12.8485C23.1786 13.0592 24.3581 13.6489 25.1796 14.4915C25.8536 15.2076 26.1064 15.987 26.2327 16.8295C26.2749 17.0612 26.0853 17.2929 25.8325 17.2929H24.5688C24.3792 17.2929 24.2107 17.1454 24.1686 16.9559C24.1264 16.5978 23.9579 16.2608 23.663 15.9448C23.0311 15.2919 21.9148 14.8495 20.9038 14.8706C19.8927 14.8917 18.65 15.2498 18.2077 16.1976C17.9549 16.7452 17.9339 17.3139 18.1234 17.8405C18.313 18.346 18.7343 18.7884 19.2608 19.0201C19.8506 19.2939 20.5036 19.4413 21.1986 19.6309C21.9569 19.8205 22.7152 20.01 23.4735 20.3681C25.5166 21.2738 26.4434 22.9168 26.1696 25.0863C25.8957 27.1294 23.8526 28.5617 21.9148 28.8566ZM26.1906 35.7864C25.7904 35.9127 25.3902 35.6179 25.3902 35.1966V34.2488C25.3902 33.996 25.5587 33.7643 25.7904 33.68C31.0141 31.7212 34.5948 26.666 34.5948 21C34.5948 15.3551 31.0141 10.2788 25.7904 8.31996C25.5587 8.23571 25.3902 8.00401 25.3902 7.75125V6.82447C25.3902 6.40321 25.8115 6.10832 26.1906 6.2347C32.4253 8.40421 36.7012 14.344 36.7012 21C36.7012 27.6981 32.4675 33.659 26.1906 35.7864Z" fill="#FB8F51"/>
</svg>
