<svg width="42" height="42" viewBox="0 0 42 42" fill="none" xmlns="http://www.w3.org/2000/svg">
<rect width="42" height="42" rx="21" fill="#FC784A"/>
<path d="M29.4745 14.3154C29.4745 17.8827 18.9577 19.5317 11.2173 19.5317V22.0558C21.9024 22.0558 32.0827 19.9524 32.0827 14.4837C32.0827 10.1087 24.5106 7.92116 20.8086 7.50049C24.9312 8.67837 29.4745 10.7481 29.4745 14.3154Z" fill="white"/>
<path d="M32.0784 19.105C32.0811 19.1627 32.0827 19.2208 32.0827 19.2793C32.0827 24.7481 21.9024 26.8515 11.2173 26.8515V24.4115C20.47 24.4115 29.3586 22.8949 32.0784 19.105Z" fill="white"/>
<path d="M32.0679 23.9993C32.0774 24.1073 32.0827 24.2166 32.0827 24.3274C32.0827 29.7962 21.9024 31.8995 11.2173 31.8995V29.3755C13.2941 29.3755 15.5707 29.2564 17.7905 29.0138C24.4009 28.4248 29.998 26.8625 32.0679 23.9993Z" fill="white"/>
</svg>
