<svg width="42" height="42" viewBox="0 0 42 42" fill="none" xmlns="http://www.w3.org/2000/svg">
<rect width="42" height="42" rx="21" fill="#E81899"/>
<path d="M34.4116 27.159L29.6136 20.7702C29.0923 20.0761 28.3205 19.6602 27.4987 19.5685C27.3116 19.5473 27.1445 19.4408 27.0509 19.2804C26.9557 19.1199 26.9457 18.925 27.0209 18.7548C27.3499 18.0115 27.37 17.1487 27.0159 16.3595L23.7698 9.09319C23.2888 8.01421 22.2012 7.31836 21 7.31836C19.7987 7.31836 18.7112 8.01585 18.2302 9.09319L14.9841 16.3595C14.6316 17.1487 14.65 18.0115 14.9791 18.7548C15.0543 18.925 15.0426 19.1199 14.949 19.2804C14.8538 19.4408 14.6884 19.5473 14.5013 19.5685C13.6794 19.6602 12.9075 20.0761 12.3863 20.7702L7.58834 27.159C6.87666 28.107 6.80482 29.3775 7.40457 30.3976C8.006 31.4159 9.1654 31.9907 10.3582 31.8613L18.4022 30.9836C19.2759 30.8887 20.0294 30.4416 20.5205 29.7901C20.6325 29.6411 20.8112 29.5526 21 29.5526C21.1888 29.5526 21.3658 29.6411 21.4795 29.7901C21.9706 30.4416 22.724 30.8887 23.5977 30.9836L31.6418 31.8613C32.8345 31.9923 33.994 31.4176 34.5954 30.3976C35.1952 29.3775 35.1234 28.107 34.4116 27.159ZM17.0824 17.2714L20.3333 9.99696C20.4503 9.73663 20.7126 9.56799 21.0016 9.56799C21.2907 9.56799 21.553 9.73663 21.6699 9.99696L24.9209 17.2714C25.0228 17.5007 25.001 17.766 24.8608 17.9754C24.7205 18.185 24.4832 18.311 24.2259 18.311H17.7757C17.5201 18.311 17.2811 18.185 17.141 17.9754C17.0006 17.766 16.9788 17.5007 17.0807 17.2714H17.0824ZM18.7513 28.3461C18.636 28.5702 18.4122 28.7209 18.1583 28.7487L10.1059 29.6263C9.8186 29.6575 9.53794 29.5199 9.3926 29.2743C9.24726 29.0287 9.26562 28.7226 9.43769 28.4934L14.2407 22.0982C14.3927 21.8967 14.6366 21.7821 14.8922 21.7968C15.1478 21.8099 15.3784 21.9492 15.507 22.1669L15.512 22.175L18.7279 27.6337L18.7329 27.642C18.8617 27.8598 18.8683 28.125 18.753 28.3477L18.7513 28.3461ZM21.6615 25.8769C21.5246 26.1079 21.2739 26.252 21 26.252C20.7277 26.252 20.4753 26.1094 20.3385 25.8786L17.8677 21.6856C17.7306 21.4548 17.7306 21.1681 17.8677 20.9373C18.0045 20.7065 18.2552 20.5623 18.5292 20.5623H23.4691C23.7414 20.5623 23.9938 20.7032 24.1306 20.9357C24.2677 21.1681 24.2677 21.4531 24.1306 21.6839L21.6615 25.8769ZM32.6091 29.2743C32.4637 29.5199 32.1847 29.6591 31.8956 29.628L23.8433 28.7504C23.5894 28.7226 23.3656 28.5719 23.2503 28.3477C23.135 28.1234 23.1416 27.8581 23.2704 27.642L23.2753 27.6337L26.4913 22.175L26.4962 22.1669C26.6248 21.9492 26.8555 21.8099 27.1111 21.7968C27.3666 21.7838 27.6105 21.8967 27.7625 22.0982L32.5656 28.4934C32.7377 28.7226 32.7544 29.0287 32.6107 29.2743H32.6091Z" fill="#FAFAFA"/>
</svg>
