<svg width="42" height="42" viewBox="0 0 42 42" fill="none" xmlns="http://www.w3.org/2000/svg">
<rect width="42" height="42" rx="21" fill="white"/>
<path d="M23.3412 28.3064V18.6265C23.3336 17.4606 22.8654 16.3449 22.0387 15.5227C21.2119 14.7006 20.0937 14.2386 18.9277 14.2375V29.7072C18.9213 30.2575 19.0271 30.8034 19.2386 31.3115C19.4501 31.8196 19.7629 32.2792 20.158 32.6624C20.553 33.0456 21.022 33.3443 21.5363 33.5402C22.0506 33.7361 22.5995 33.8252 23.1493 33.802C24.2213 33.8749 25.2845 33.5668 26.1514 32.9321C23.6035 32.6623 23.3423 31.1272 23.3423 28.3064H23.3412Z" fill="#292929"/>
<path d="M14.0078 10.1875C12.938 10.1945 11.9145 10.6245 11.1605 11.3834C10.4065 12.1424 9.98338 13.1688 9.9834 14.2386H27.9925C29.0623 14.2315 30.0858 13.8016 30.8398 13.0426C31.5938 12.2837 32.0169 11.2573 32.0169 10.1875H14.0078Z" fill="#292929"/>
</svg>
