<svg width="42" height="42" viewBox="0 0 42 42" fill="none" xmlns="http://www.w3.org/2000/svg">
<rect width="42" height="42" rx="21" fill="#1E2739"/>
<path fill-rule="evenodd" clip-rule="evenodd" d="M22.2556 13.0448L22.2556 10.8281L24.3496 10.8281L24.3496 12.985H26.1444L26.1444 10.8281L28.2384 10.8281V13.1047C28.2384 13.1047 29.3636 13.1796 29.9607 13.3013C30.554 13.4091 31.1207 13.5834 31.6442 13.8733C32.2869 14.2203 32.7858 14.6949 33.1002 15.3676C33.2662 15.709 33.3666 16.0829 33.4079 16.4578C33.4567 16.8604 33.474 17.2566 33.4322 17.6538C33.3048 18.7273 32.7444 19.5163 31.8215 20.0612C31.8095 20.0718 31.7931 20.0799 31.7767 20.088C31.7603 20.0961 31.7439 20.1043 31.732 20.1149C31.7181 20.1186 31.7042 20.1224 31.6664 20.1474C31.8725 20.1959 32.0648 20.2482 32.2821 20.3383C32.8626 20.5089 33.3786 20.7711 33.8275 21.1701C34.206 21.5287 34.4811 21.9447 34.6428 22.4357C34.8592 23.0753 34.8843 23.7218 34.8541 24.3832C34.8181 24.9125 34.7544 25.4492 34.5926 25.9529C34.2527 27.0093 33.5666 27.7726 32.5909 28.2871C32.0565 28.5644 31.4821 28.7484 30.9003 28.9047C30.1347 29.0955 28.2983 29.268 28.2983 29.268L28.2983 31.1719H26.1504V29.268L24.4113 29.268L24.4116 31.1719L22.3154 31.1719V29.268L17.9479 29.2679L18.3848 26.6791H20.0096C20.3921 26.6654 20.6901 26.3923 20.7292 26.0404C20.7382 25.9776 20.7276 25.9126 20.7167 25.846C20.7089 25.7979 20.7009 25.7491 20.7001 25.6996L20.7001 16.3953C20.7001 15.8568 20.397 15.3208 19.7428 15.3184C19.461 15.3199 17.948 15.3184 17.948 15.3184L17.948 13.0448L22.2556 13.0448ZM28.4717 26.4255C27.8345 26.5967 27.1851 26.6673 26.5282 26.7101C26.08 26.7415 25.6254 26.7495 25.1709 26.7575C25.0194 26.7602 24.8678 26.7628 24.7165 26.7664C24.6596 26.7674 24.6301 26.7679 24.6141 26.7534C24.5969 26.7378 24.5955 26.7049 24.5925 26.6364C24.5766 26.0245 24.5598 25.4091 24.543 24.7937L24.543 24.7927C24.5262 24.1778 24.5094 23.5628 24.4935 22.9514C24.4923 22.9116 24.4909 22.8714 24.4896 22.8311C24.4825 22.6174 24.4751 22.3966 24.4802 22.183C24.4781 22.0647 24.492 22.061 24.5788 22.0525C24.7432 22.0472 24.9075 22.041 25.0715 22.0349C25.8476 22.0058 26.6203 21.9767 27.3968 22.0377C27.9438 22.0837 28.4706 22.1649 28.992 22.3366C29.2508 22.4155 29.4931 22.5434 29.7253 22.6889C30.8121 23.3619 30.8734 25.0824 29.7873 25.8493C29.4467 26.0745 29.0396 26.2729 28.4717 26.4255ZM25.1208 15.4669C24.893 15.4692 24.664 15.4715 24.4326 15.4696C24.4262 15.501 24.4198 15.5324 24.4272 15.5601C24.4616 16.7028 24.4838 17.8385 24.5061 18.981C24.5105 19.2079 24.515 19.4351 24.5195 19.6626C24.5225 19.7311 24.5239 19.7641 24.5411 19.7797C24.5571 19.7941 24.5866 19.7936 24.6435 19.7926C24.7235 19.7919 24.8036 19.7914 24.8836 19.7909C25.5451 19.7868 26.2079 19.7827 26.858 19.6875C27.3854 19.6052 27.9054 19.4952 28.3781 19.2643C28.7196 19.0983 29.0186 18.8843 29.2287 18.5607C29.7134 17.8217 29.5526 16.7812 28.8642 16.209C28.631 16.0044 28.3573 15.8701 28.0633 15.7709C27.6537 15.6286 27.2351 15.5629 26.8063 15.5148C26.2403 15.4554 25.6843 15.4611 25.1208 15.4669Z" fill="white"/>
<path d="M9.85418 15.4219H13.5729V19.1406H9.85418V15.4219Z" fill="white"/>
<path d="M13.5729 19.1406H17.2917V22.8594H13.5729V19.1406Z" fill="white"/>
<path d="M6.13543 19.1406H9.85418V22.8594H6.13543V19.1406Z" fill="white"/>
<path d="M9.85418 22.8594H13.5729V26.5781H9.85418V22.8594Z" fill="white"/>
</svg>
