<svg width="42" height="42" viewBox="0 0 42 42" fill="none" xmlns="http://www.w3.org/2000/svg">
<circle cx="21" cy="21" r="20" fill="#222222"/>
<circle cx="21.7114" cy="20.9248" r="14.665" fill="#F2E373"/>
<path d="M27.8215 27.4443C29.0432 29.8887 32.7617 29.4787 33.9319 29.4787C31.8951 32.7376 27.2364 36 22.1184 36C13.3442 36 6.63867 29.0232 6.63867 20.9239C6.63867 12.8246 20.0816 21.7413 29.4509 20.1119C27.0068 22.1486 26.5994 24.9991 27.8215 27.4443Z" fill="url(#paint0_linear_7674_310970)"/>
<path d="M23.3405 5.03681C25.2959 4.38503 26.5994 3.40736 27.0068 3C26.871 4.0863 26.2734 6.50331 24.9699 7.48098C23.3404 8.70307 21.3036 8.2957 18.8595 11.1472C17.2298 13.0485 17.2955 17.3867 21.3034 18.4797C25.3113 19.5728 27.8212 16.0356 33.5243 16.8503C36.3758 17.2577 37.5981 18.4797 38.4128 19.2945C36.7834 19.1587 33.5243 18.8871 30.6728 19.7018C27.0616 20.7336 24.1552 26.2196 20.8963 28.6638C17.6374 31.108 10.712 30.526 8.26781 27.0343C5.41625 22.9608 6.12123 16.0293 9.61298 11.9557C14.5014 6.25264 20.8963 5.85153 23.3405 5.03681Z" fill="url(#paint1_linear_7674_310970)"/>
<defs>
<linearGradient id="paint0_linear_7674_310970" x1="20.0816" y1="20.1094" x2="26.192" y2="35.5891" gradientUnits="userSpaceOnUse">
<stop stop-color="#F2E373"/>
<stop offset="1" stop-color="#E62C21"/>
</linearGradient>
<linearGradient id="paint1_linear_7674_310970" x1="8.67514" y1="7.88834" x2="21.7107" y2="26.2196" gradientUnits="userSpaceOnUse">
<stop stop-color="#F2E373"/>
<stop offset="1" stop-color="#ED2F24"/>
</linearGradient>
</defs>
</svg>
