<svg width="42" height="42" viewBox="0 0 42 42" fill="none" xmlns="http://www.w3.org/2000/svg">
<circle cx="21" cy="21" r="20" fill="#222222"/>
<path fill-rule="evenodd" clip-rule="evenodd" d="M10.8634 8.26232L5.02617 19.7091C5.00283 19.7505 4.99479 19.798 5.0033 19.8442C5.01181 19.8904 5.03639 19.9327 5.07324 19.9645L20.8304 34.0706C20.8757 34.1088 20.9346 34.1299 20.9956 34.1299C21.0566 34.1299 21.1155 34.1088 21.1609 34.0706L36.9274 19.9645C36.9639 19.9324 36.9882 19.8902 36.9967 19.8441C37.0051 19.798 36.9974 19.7506 36.9744 19.7091L31.1372 8.26232C31.1217 8.2225 31.0932 8.18827 31.0556 8.16451C31.018 8.14075 30.9734 8.12866 30.9281 8.12998H11.0705C11.0257 8.13112 10.9823 8.14419 10.9452 8.16763C10.9081 8.19108 10.879 8.22393 10.8613 8.26232H10.8634Z" fill="url(#paint0_linear_7674_310999)"/>
<path fill-rule="evenodd" clip-rule="evenodd" d="M10.8634 8.26232L5.02617 19.7091C5.00283 19.7505 4.99479 19.798 5.0033 19.8442C5.01181 19.8904 5.03639 19.9327 5.07324 19.9645L20.8304 34.0706C20.8757 34.1088 20.9346 34.1299 20.9956 34.1299C21.0566 34.1299 21.1155 34.1088 21.1609 34.0706L36.9274 19.9645C36.9639 19.9324 36.9882 19.8902 36.9967 19.8441C37.0051 19.798 36.9974 19.7506 36.9744 19.7091L31.1372 8.26232C31.1217 8.2225 31.0932 8.18827 31.0556 8.16451C31.018 8.14075 30.9734 8.12866 30.9281 8.12998H11.0705C11.0257 8.13112 10.9823 8.14419 10.9452 8.16763C10.9081 8.19108 10.879 8.22393 10.8613 8.26232H10.8634Z" fill="#D8B35D"/>
<path fill-rule="evenodd" clip-rule="evenodd" d="M23.0275 20.8802C22.9146 20.8889 22.3299 20.9241 21.0283 20.9241C19.9913 20.9241 19.2555 20.8977 18.9914 20.8802C14.984 20.7132 11.9948 20.0612 11.9948 19.2863C11.9948 18.5113 14.984 17.8511 18.9914 17.6841V20.2287C19.2528 20.2463 20.0007 20.2903 21.0377 20.2903C22.2823 20.2903 22.9046 20.2375 23.0181 20.2287V17.6841C27.0161 17.8511 30.0053 18.503 30.0053 19.2775C30.0053 20.052 27.0245 20.7132 23.0275 20.8802ZM23.0275 17.4287V15.1477H28.6101V11.6699H13.4094V15.1477H18.9914V17.4287C14.4558 17.624 11.0425 18.4586 11.0425 19.4713C11.0425 20.4841 14.4558 21.3118 18.9914 21.514V28.8139H23.0275V21.514C27.5537 21.3187 30.9581 20.4836 30.9581 19.4801C30.9581 18.4766 27.5537 17.6221 23.0275 17.4292V17.4287Z" fill="white"/>
<defs>
<linearGradient id="paint0_linear_7674_310999" x1="4.4936" y1="20.6736" x2="35.531" y2="20.6736" gradientUnits="userSpaceOnUse">
<stop stop-color="#D8B35D"/>
<stop offset="1" stop-color="#F5E7BF"/>
</linearGradient>
</defs>
</svg>
