<svg xmlns="http://www.w3.org/2000/svg" width="42" height="42" fill="none"><circle cx="21" cy="21" r="20" fill="#F3F3F3"/><path fill="url(#a)" d="M21 1c11.044 0 20 8.956 20 20s-8.956 20-20 20S1 32.044 1 21 9.956 1 21 1Z"/><path fill="#fff" d="M28.68 14.88c-.252.3-.236.964-.64.76 0 0-2.812-1.076-1.08-4.24.468-.732.952-.78.88-2.56.432.656 1.848 1.972 1.96 4.04.112 1.38-.712 1.564-1.12 2Z"/><path fill="#fff" d="M26.44 19.8c.692-.232 1.812-.6 1.88-2.96 1.068 1.636 4.692 3.932 2.96 10.96-.704 2.74-3.328 4.072-5.8 5.08-1.544.656-3.12 1.752-3.76 3.4 0 0-11.684-1.476-11.32-13.08.292-6.02 5.932-8.32 8.32-12.72 1.272-2.776.84-5.56.84-5.56S27 9.548 23.64 16.68c-1.092 2.52 1.516 3.372 2.8 3.12Z"/><path fill="url(#b)" d="M14.96 21.879v3.88h4.12v4.12h3.88v-4.12h4.12v-3.88H14.96Z"/><defs><linearGradient id="a" x1="1" x2="41" y1="21" y2="21" gradientUnits="userSpaceOnUse"><stop stop-color="#FFA50D"/><stop offset="1" stop-color="#FE5413"/></linearGradient><linearGradient id="b" x1="14.96" x2="27.08" y1="25.879" y2="25.879" gradientUnits="userSpaceOnUse"><stop stop-color="#FFA50D"/><stop offset="1" stop-color="#FE5413"/></linearGradient></defs></svg>