<svg width="42" height="42" viewBox="0 0 42 42" fill="none" xmlns="http://www.w3.org/2000/svg">
<path d="M21 41C32.0457 41 41 32.0457 41 21C41 9.9543 32.0457 1 21 1C9.9543 1 1 9.9543 1 21C1 32.0457 9.9543 41 21 41Z" fill="#2AB8E6"/>
<path d="M17 20V17.5H19.5V14.5H22.5V17.5H25V20H17Z" fill="#F3F3F3"/>
<path d="M25 22L25 24.5L22.5 24.5L22.5 27.5L19.5 27.5L19.5 24.5L17 24.5L17 22L25 22Z" fill="#F3F3F3"/>
<path d="M28 10.5C28 9.67157 27.3284 9 26.5 9H15.5C14.6716 9 14 9.67157 14 10.5V31.5C14 32.3284 14.6716 33 15.5 33H26.5C27.3284 33 28 32.3284 28 31.5V10.5Z" stroke="#F3F3F3" stroke-width="3" stroke-linejoin="round"/>
</svg>
