<svg width="42" height="42" viewBox="0 0 42 42" fill="none" xmlns="http://www.w3.org/2000/svg">
<circle cx="21" cy="21" r="20" fill="#F3F3F3"/>
<path d="M21 1C32.044 1 41 9.956 41 21C41 32.044 32.044 41 21 41C9.956 41 1 32.044 1 21C1 9.956 9.956 1 21 1Z" fill="url(#paint0_linear_7674_310992)"/>
<path d="M28.6802 14.8798C28.4282 15.1798 28.4442 15.8438 28.0402 15.6398C28.0402 15.6398 25.2282 14.5638 26.9602 11.3998C27.4282 10.6678 27.9122 10.6198 27.8402 8.83984C28.2722 9.49584 29.6882 10.8118 29.8002 12.8798C29.9122 14.2598 29.0882 14.4438 28.6802 14.8798Z" fill="white"/>
<path d="M26.4399 19.7999C27.1319 19.5679 28.2519 19.1999 28.3199 16.8399C29.3879 18.4759 33.0119 20.7719 31.2799 27.7999C30.5759 30.5399 27.9519 31.8719 25.4799 32.8799C23.9359 33.5359 22.3599 34.6319 21.7199 36.2799C21.7199 36.2799 10.0359 34.8039 10.3999 23.1999C10.6919 17.1799 16.3319 14.8799 18.7199 10.4799C19.9919 7.70392 19.5599 4.91992 19.5599 4.91992C19.5599 4.91992 26.9999 9.54792 23.6399 16.6799C22.5479 19.1999 25.1559 20.0519 26.4399 19.7999Z" fill="white"/>
<path d="M14.96 21.8789V25.7589H19.08V29.8789H22.96V25.7589H27.08V21.8789H14.96Z" fill="url(#paint1_linear_7674_310992)"/>
<defs>
<linearGradient id="paint0_linear_7674_310992" x1="1" y1="21" x2="41" y2="21" gradientUnits="userSpaceOnUse">
<stop stop-color="#FFA50D"/>
<stop offset="1" stop-color="#FE5413"/>
</linearGradient>
<linearGradient id="paint1_linear_7674_310992" x1="14.96" y1="25.8789" x2="27.08" y2="25.8789" gradientUnits="userSpaceOnUse">
<stop stop-color="#FFA50D"/>
<stop offset="1" stop-color="#FE5413"/>
</linearGradient>
</defs>
</svg>
