<svg width="42" height="42" viewBox="0 0 42 42" fill="none" xmlns="http://www.w3.org/2000/svg">
<g clip-path="url(#clip0_4532_197020)">
<path d="M41.9979 20.9989C41.9979 9.40155 32.5963 0 20.9989 0C9.40155 0 0 9.40155 0 20.9989C0 32.5963 9.40155 41.9979 20.9989 41.9979C32.5963 41.9979 41.9979 32.5963 41.9979 20.9989Z" fill="url(#paint0_linear_4532_197020)"/>
<path d="M20.9989 41.9979C32.5962 41.9979 41.9979 32.5962 41.9979 20.9989C41.9979 9.4017 32.5962 0 20.9989 0C9.4017 0 0 9.4017 0 20.9989C0 32.5962 9.4017 41.9979 20.9989 41.9979Z" fill="url(#paint1_linear_4532_197020)"/>
<path d="M34.6627 18.0612C34.27 16.2173 33.5091 14.4715 32.4258 12.9286C31.3425 11.3857 29.9589 10.0772 28.3579 9.08165C26.7569 8.08606 24.9714 7.42384 23.1085 7.13461C21.2456 6.84538 19.3433 6.93511 17.5159 7.39842C15.0727 8.01894 12.8423 9.28731 11.0598 11.0697C10.4235 11.7058 9.8493 12.4012 9.34494 13.1463C9.19593 13.3459 9.06217 13.5565 8.94478 13.7763C7.71936 15.8323 7.04096 18.1679 6.9742 20.5605C6.90746 22.9531 7.4546 25.3229 8.56349 27.444C9.67237 29.5652 11.306 31.367 13.3087 32.6777C15.3116 33.9885 17.6165 34.7643 20.0042 34.9316C22.8767 35.1313 25.7408 34.441 28.2071 32.9548C30.6732 31.4685 32.6214 29.2584 33.7865 26.6253C33.8705 26.4526 33.9452 26.2741 34.0082 26.0921C34.9944 23.5491 35.2246 20.7751 34.6709 18.1044L34.6627 18.0612ZM29.8061 11.6566C31.1389 12.9179 32.1852 14.4508 32.8743 16.1515C32.8885 16.1873 32.893 16.2264 32.8871 16.2646C32.8813 16.3028 32.8653 16.3388 32.841 16.3686C32.8166 16.3986 32.7847 16.4216 32.7484 16.435C32.7123 16.4486 32.6732 16.4522 32.6351 16.4455C32.2245 16.3756 31.808 16.346 31.3915 16.3569C31.2376 16.3601 31.0876 16.3086 30.9682 16.2113C30.849 16.114 30.7682 15.9775 30.7405 15.826C30.5178 14.5166 30.1573 13.2343 29.6649 12.0006L29.5856 11.8106C29.573 11.7814 29.5708 11.749 29.5794 11.7185C29.5879 11.688 29.6067 11.6614 29.6326 11.6432C29.6585 11.625 29.6899 11.6162 29.7215 11.6184C29.7531 11.6207 29.783 11.6349 29.8061 11.6566ZM31.136 19.8741C31.1355 19.8503 31.1409 19.8266 31.1514 19.8053C31.1619 19.7839 31.1774 19.7653 31.1966 19.7512C31.2158 19.737 31.2382 19.7276 31.2616 19.7239C31.2852 19.7201 31.3093 19.722 31.332 19.7295C31.3623 19.7388 31.3889 19.7577 31.4078 19.7831C31.6462 20.1166 31.8674 20.4619 32.0705 20.818C32.1047 20.8771 32.119 20.9458 32.1115 21.0138C32.104 21.0819 32.0748 21.1456 32.0285 21.1958C31.8791 21.3638 31.7158 21.5342 31.5396 21.7068L31.3471 21.9017C31.3293 21.9212 31.3057 21.9346 31.2797 21.9399C31.2538 21.9452 31.2269 21.9423 31.2027 21.9314C31.1786 21.9206 31.1585 21.9024 31.1452 21.8795C31.132 21.8565 31.1263 21.83 31.129 21.8037C31.1549 21.1608 31.1564 20.5172 31.136 19.8741ZM13.5051 10.5109C15.6786 8.95359 18.287 8.11938 20.9609 8.12638C21.6701 8.12638 22.3771 8.18471 23.076 8.29904C23.1162 8.30647 23.1537 8.32522 23.1836 8.35311C23.2137 8.38099 23.2352 8.41687 23.2456 8.45652C23.256 8.49618 23.2549 8.53797 23.2424 8.57702C23.23 8.61608 23.2065 8.65075 23.1751 8.67701C22.5054 9.20432 21.8825 9.98362 21.3306 10.9916C21.2655 11.1111 21.1617 11.2051 21.0363 11.258C20.9108 11.311 20.7712 11.3199 20.6401 11.2832C18.9239 10.7816 17.1402 10.5459 15.353 10.5856C14.7696 10.6054 14.1886 10.6673 13.6136 10.7699C13.5817 10.7745 13.5493 10.7684 13.5214 10.7525C13.4934 10.7366 13.4716 10.7118 13.4592 10.6821C13.447 10.6524 13.4449 10.6195 13.4534 10.5885C13.4619 10.5575 13.4793 10.5302 13.5051 10.5109ZM11.6712 29.7017C11.4028 29.1918 11.7505 28.0101 13.5238 26.2169C13.5677 26.173 13.6019 26.1201 13.6241 26.0619C13.6463 26.0037 13.6558 25.9415 13.6522 25.8793C13.6486 25.8172 13.6318 25.7566 13.603 25.7013C13.5743 25.6461 13.5341 25.5976 13.4853 25.5591L13.2741 25.3911C13.1889 25.3221 13.0811 25.2871 12.9717 25.2929C12.8623 25.2988 12.7589 25.345 12.6814 25.4226L12.6114 25.4926C11.7307 26.4013 11.1007 27.2436 10.7577 28.0008C10.735 28.0491 10.6998 28.0906 10.6559 28.1211C10.6119 28.1515 10.5607 28.1697 10.5074 28.174C10.4541 28.1783 10.4006 28.1684 10.3524 28.1453C10.3042 28.1222 10.2629 28.0869 10.2327 28.0428C8.84654 25.9459 8.11035 23.4866 8.1165 20.9731C8.1165 20.0736 8.20982 19.1741 8.39648 18.2934C8.39493 18.2599 8.40673 18.2273 8.42926 18.2025C8.4518 18.1779 8.48323 18.1631 8.51664 18.1616C8.55005 18.1601 8.58272 18.1718 8.60744 18.1944C8.63216 18.2169 8.64692 18.2483 8.64846 18.2817C8.95178 19.2418 9.38926 20.1553 9.9469 20.993C10.8223 22.3085 11.8765 23.4958 13.0793 24.5207C13.5109 24.8987 13.9613 25.2557 14.4383 25.6022C15.4261 26.3254 16.4678 26.9721 17.5544 27.5364C18.0467 27.7884 18.5274 28.0404 19.0184 28.2562C19.1534 28.3178 19.2993 28.3516 19.4476 28.3558C19.5959 28.36 19.7435 28.3344 19.8817 28.2807C20.1139 28.1898 20.3472 28.0953 20.5817 27.9973C20.7055 27.9456 20.8065 27.8513 20.8665 27.7313C20.9265 27.6113 20.9413 27.4739 20.9084 27.3439C20.4917 25.5543 20.2742 23.724 20.2597 21.8865V20.9766C20.2597 20.6476 20.2761 20.3198 20.2947 19.9966C20.4196 17.6797 20.8069 15.5029 21.4275 13.6725C21.455 13.591 21.4493 13.5021 21.4115 13.4249C21.3737 13.3478 21.3068 13.2888 21.2256 13.2606C21.0612 13.2057 20.8964 13.152 20.7311 13.0996C20.6507 13.0741 20.5637 13.081 20.4884 13.119C20.4132 13.1569 20.3558 13.2228 20.3286 13.3026C19.6519 15.2905 19.2342 17.6494 19.1222 20.146C19.1155 20.3017 19.0701 20.4534 18.9899 20.5872C18.9099 20.721 18.7978 20.8328 18.6639 20.9125C17.2663 21.7332 15.927 22.6493 14.6553 23.6539C14.5368 23.7486 14.3888 23.7988 14.2371 23.7959C14.0854 23.7928 13.9394 23.7368 13.8248 23.6376C12.7069 22.686 11.7269 21.5835 10.9129 20.3618C9.44293 18.1044 9.09295 15.9777 9.9294 14.3759L9.93524 14.3642C10.0426 14.1869 10.1534 14.0131 10.2677 13.8393C11.229 12.5688 13.0163 11.8326 15.3868 11.7488C15.5361 11.7441 15.6878 11.7418 15.8406 11.7418C17.3992 11.7581 18.9484 11.9936 20.4429 12.4393L20.5479 12.4708L20.6272 12.4941C20.9947 12.6038 21.3621 12.724 21.7296 12.8558L21.7564 12.8651L22.0435 12.9725L22.1345 13.0063L22.2208 13.039C23.0106 13.3446 23.784 13.6935 24.5353 14.0843C25.9659 14.8228 27.3119 15.7146 28.5496 16.7441C26.2992 17.2597 23.6848 18.2572 21.0531 19.5976C20.9932 19.6277 20.9425 19.6732 20.9059 19.7293C20.8694 19.7856 20.8486 19.8504 20.8454 19.9173C20.8361 20.0806 20.8244 20.4073 20.8151 20.6733C20.814 20.7105 20.8228 20.7474 20.8404 20.7802C20.858 20.8129 20.8839 20.8406 20.9155 20.8603C20.9471 20.8799 20.9833 20.891 21.0205 20.8924C21.0577 20.8938 21.0947 20.8854 21.1277 20.8681C23.7315 19.4996 26.3307 18.4742 28.5589 17.9376C28.7602 17.8889 28.9361 17.7671 29.0526 17.5959C29.169 17.4247 29.2176 17.2163 29.1889 17.0112C29.1476 16.7164 29.101 16.4224 29.0489 16.1294C28.985 15.7691 28.7881 15.4459 28.4971 15.224C26.6781 13.8506 24.6753 12.7393 22.5475 11.9225C22.5049 11.9065 22.4661 11.8815 22.4342 11.8491C22.4021 11.8168 22.3775 11.7778 22.362 11.735C22.3464 11.6922 22.3404 11.6466 22.3442 11.6012C22.3481 11.5558 22.3616 11.5118 22.3841 11.4722C23.2533 9.91362 24.2892 9.041 25.2983 9.041H25.3298C26.5197 9.06317 27.7062 10.3009 28.5846 12.4428C29.0606 13.6305 29.4083 14.867 29.6194 16.1294C29.7198 16.7091 29.8003 17.3076 29.8609 17.9201L29.8446 17.9306L29.8656 17.9516C30.0357 19.6952 30.042 21.4508 29.8843 23.1955C28.0968 24.6102 26.1802 25.8534 24.1597 26.9088C23.4481 27.2868 22.7365 27.6356 22.0341 27.9588L22.0015 27.9751L21.8393 28.0474C21.256 28.3122 20.6809 28.556 20.1116 28.7788L20.0159 28.8138L19.8899 28.8605L19.6052 28.9702L19.5271 28.9982L19.1829 29.1242L19.1421 29.1417C18.0222 29.55 16.8742 29.872 15.7065 30.1065C13.1493 30.5964 11.9523 30.2185 11.6712 29.7017ZM15.192 24.7144C16.4302 23.7184 17.7376 22.812 19.1047 22.002C19.1269 23.7717 19.3264 25.5346 19.6997 27.2634C19.1548 27.0299 18.6179 26.7781 18.0899 26.5086C17.0803 25.9838 16.1117 25.3841 15.192 24.7144ZM22.6233 33.7171C22.0726 33.7871 21.5196 33.8221 20.9656 33.8221C18.5065 33.8293 16.0979 33.1251 14.0301 31.7945C13.9994 31.7746 13.9758 31.7454 13.9628 31.7112C13.9497 31.6772 13.9478 31.6397 13.9574 31.6044C13.9671 31.569 13.9876 31.5378 14.0162 31.5149C14.0448 31.492 14.0798 31.4788 14.1164 31.4772H14.2131C14.786 31.4352 15.3565 31.3582 15.9211 31.2462C17.3931 30.9464 18.8365 30.5202 20.2352 29.9723C20.3014 29.9476 20.3745 29.9497 20.4392 29.9779C20.5038 30.0063 20.5549 30.0587 20.5817 30.124C21.1766 31.5705 21.9058 32.6637 22.7225 33.3589C22.7521 33.3846 22.7737 33.4182 22.7849 33.4556C22.7961 33.4932 22.7963 33.5332 22.7854 33.5708C22.7747 33.6085 22.7534 33.6422 22.724 33.6682C22.6947 33.6941 22.6585 33.711 22.6198 33.7171H22.6233ZM28.0539 30.2873C27.1357 32.0909 26.0064 33.1034 24.9122 33.0824C23.7222 33.0614 22.5358 31.8225 21.6573 29.6818C21.6308 29.6163 21.6309 29.543 21.6577 29.4775C21.6846 29.4122 21.7359 29.3598 21.8008 29.3318L21.8276 29.3202C21.8855 29.2948 21.9502 29.2908 22.0108 29.3085C23.567 29.7577 25.177 29.9933 26.7962 30.0085C26.9619 30.0085 27.1252 30.0085 27.2862 30.0003C27.4764 29.9945 27.6642 29.984 27.8485 29.9688C27.8865 29.9677 27.924 29.9763 27.9576 29.994C27.9912 30.0118 28.0196 30.0379 28.0401 30.0699C28.0605 30.1018 28.0723 30.1386 28.0743 30.1765C28.0764 30.2144 28.0685 30.2522 28.0515 30.2862L28.0539 30.2873ZM28.4516 28.7345C28.0515 28.7928 27.6479 28.8278 27.2442 28.8418C26.1592 28.871 25.0743 28.7847 24.008 28.5828C23.9857 28.5787 23.9646 28.5694 23.9466 28.5556C23.9286 28.5419 23.914 28.524 23.9042 28.5036C23.8943 28.4831 23.8894 28.4607 23.8897 28.4379C23.8902 28.4152 23.8959 28.3929 23.9065 28.3728C23.921 28.3461 23.9434 28.3244 23.9707 28.311L24.701 27.9331C26.3347 27.072 27.9063 26.0982 29.4048 25.0189C29.4221 25.0063 29.4422 24.9977 29.4634 24.9938C29.4846 24.9898 29.5064 24.9908 29.5271 24.9964C29.5479 25.002 29.5673 25.0121 29.5836 25.0261C29.5999 25.0401 29.613 25.0575 29.6218 25.0772C29.6334 25.1029 29.6381 25.1321 29.6334 25.1601C29.4526 26.2648 29.1843 27.3533 28.8296 28.4148C28.8021 28.4978 28.7522 28.5715 28.6856 28.6279C28.6189 28.6842 28.5379 28.7212 28.4516 28.7345ZM30.3416 29.753C30.0777 30.0371 29.7993 30.3074 29.5074 30.5625C29.483 30.5844 29.4519 30.597 29.4192 30.5985C29.3866 30.6 29.3545 30.5902 29.3281 30.5707C29.3019 30.5513 29.2831 30.5235 29.2749 30.4917C29.2669 30.4601 29.2698 30.4266 29.2834 30.397L29.3383 30.271C29.4153 30.103 29.4899 29.9292 29.5611 29.7495C29.57 29.7291 29.5831 29.711 29.5999 29.6964C29.6167 29.6819 29.6365 29.6713 29.6579 29.6655C29.8411 29.6188 30.0196 29.5687 30.1911 29.5138C30.2227 29.4982 30.259 29.4948 30.2931 29.5043C30.327 29.5137 30.3563 29.5354 30.3754 29.5652C30.3939 29.5953 30.4005 29.6311 30.3941 29.6658C30.3876 29.7005 30.3696 29.7315 30.3416 29.753ZM32.9232 25.6781C32.8521 25.8574 32.7763 26.0347 32.6958 26.2099C32.2735 27.0243 31.563 27.6683 30.6133 28.1151C30.5658 28.1362 30.5132 28.1436 30.4618 28.1361C30.4102 28.1286 30.3619 28.1067 30.3224 28.0729C30.2827 28.039 30.2535 27.9947 30.2382 27.945C30.2228 27.8952 30.2218 27.8421 30.2354 27.7919C30.5634 26.5995 30.8001 25.3839 30.9435 24.1556C30.9724 23.916 31.0898 23.696 31.2725 23.5384C31.6633 23.2002 32.0285 22.8618 32.3633 22.5317C32.4008 22.4938 32.4473 22.4663 32.4985 22.4519C32.5499 22.4374 32.604 22.4365 32.6557 22.4492C32.7074 22.4618 32.7548 22.4877 32.7936 22.5243C32.8323 22.5608 32.8609 22.6068 32.8765 22.6577C33.209 23.7554 33.2277 24.7821 32.9232 25.6781ZM33.1752 19.6583C33.1531 19.6977 33.1212 19.7307 33.0824 19.7542C33.0438 19.7775 32.9998 19.7906 32.9546 19.792C32.9094 19.7934 32.8646 19.7831 32.8246 19.7621C32.7846 19.7412 32.7506 19.7102 32.7261 19.6723L32.6772 19.5965C32.2805 18.9898 31.8406 18.4112 31.3611 17.8676C31.3348 17.8365 31.3179 17.7986 31.3123 17.7583C31.3067 17.7179 31.3126 17.6768 31.3295 17.6397C31.3464 17.6027 31.3735 17.5712 31.4076 17.549C31.4416 17.5267 31.4814 17.5145 31.5221 17.5141C32.6736 17.5141 33.2767 17.7976 33.461 18.1441C33.6244 18.4357 33.5777 18.9431 33.181 19.656L33.1752 19.6583ZM33.7959 21.3568C33.7954 21.3753 33.7886 21.3929 33.7767 21.4069C33.7649 21.4209 33.7486 21.4305 33.7305 21.4338C33.7123 21.4372 33.6935 21.4343 33.6772 21.4257C33.661 21.417 33.648 21.403 33.6407 21.386C33.6265 21.3512 33.6118 21.3166 33.5964 21.2822C33.5827 21.251 33.5776 21.2168 33.5814 21.183C33.5854 21.1492 33.5981 21.117 33.6185 21.0898L33.6652 21.028C33.7212 20.9556 33.8017 20.9661 33.8017 21.0478C33.8087 21.154 33.8064 21.2472 33.8017 21.3568H33.7959Z" fill="#7B2BF9"/>
</g>
<defs>
<linearGradient id="paint0_linear_4532_197020" x1="20.9989" y1="0" x2="20.9989" y2="41.9979" gradientUnits="userSpaceOnUse">
<stop stop-color="#404141"/>
<stop offset="1" stop-color="#222222"/>
</linearGradient>
<linearGradient id="paint1_linear_4532_197020" x1="21.1366" y1="15.342" x2="20.9989" y2="41.9979" gradientUnits="userSpaceOnUse">
<stop stop-color="white"/>
<stop offset="1" stop-color="#DDCCFE"/>
</linearGradient>
<clipPath id="clip0_4532_197020">
<rect width="42" height="42" fill="white"/>
</clipPath>
</defs>
</svg>
