<svg xmlns="http://www.w3.org/2000/svg" width="36" height="36" fill="none"><path fill="#F3F3F3" d="M18 36c9.941 0 18-8.059 18-18S27.941 0 18 0 0 8.059 0 18s8.059 18 18 18Z"/><path fill="url(#a)" d="M18 36c9.941 0 18-8.059 18-18S27.941 0 18 0 0 8.059 0 18s8.059 18 18 18Z"/><path fill="#7B2BF9" d="M29.74 15.51a12.01 12.01 0 0 0-14.698-9.14 12.006 12.006 0 0 0-5.534 3.147 12.138 12.138 0 0 0-1.47 1.78 4.255 4.255 0 0 0-.343.54 12.013 12.013 0 0 0 9.48 18.134 12.008 12.008 0 0 0 11.814-7.12c.072-.148.136-.301.19-.457a12.128 12.128 0 0 0 .568-6.847l-.006-.037Zm-4.163-5.49a10.984 10.984 0 0 1 2.63 3.853.186.186 0 0 1-.205.252 5.504 5.504 0 0 0-1.066-.076.555.555 0 0 1-.558-.455 16.156 16.156 0 0 0-.922-3.279l-.068-.163a.118.118 0 0 1 .189-.133Zm1.14 7.044a.128.128 0 0 1 .168-.124.128.128 0 0 1 .065.046 10.296 10.296 0 0 1 .568.887.275.275 0 0 1-.036.324c-.128.144-.268.29-.419.438l-.165.167a.108.108 0 0 1-.187-.084 22.97 22.97 0 0 0 .007-1.654ZM11.604 9.038a10.924 10.924 0 0 1 6.391-2.044c.608 0 1.214.05 1.813.148a.185.185 0 0 1 .085.324c-.574.452-1.108 1.12-1.581 1.984a.516.516 0 0 1-.592.25c-1.471-.43-3-.632-4.532-.598-.5.017-.998.07-1.491.158a.124.124 0 0 1-.092-.222Zm-1.572 16.45c-.23-.437.068-1.45 1.588-2.987a.378.378 0 0 0-.033-.564l-.181-.144a.38.38 0 0 0-.508.027l-.06.06c-.755.779-1.295 1.501-1.589 2.15a.26.26 0 0 1-.45.036 10.94 10.94 0 0 1-1.814-6.06c0-.771.08-1.542.24-2.297a.108.108 0 0 1 .216-.01c.26.823.635 1.606 1.113 2.324a14.6 14.6 0 0 0 2.685 3.024c.37.324.756.63 1.165.927a20.57 20.57 0 0 0 2.671 1.658c.422.216.834.432 1.255.617a.952.952 0 0 0 .74.021c.199-.078.399-.159.6-.243a.479.479 0 0 0 .28-.56 21.373 21.373 0 0 1-.556-4.678v-.78c0-.282.014-.563.03-.84.107-1.986.439-3.852.971-5.421a.279.279 0 0 0-.173-.353 27.746 27.746 0 0 0-.424-.138.276.276 0 0 0-.345.174c-.58 1.704-.938 3.726-1.034 5.866a.805.805 0 0 1-.393.657 30.278 30.278 0 0 0-3.436 2.35.557.557 0 0 1-.712-.014 13.563 13.563 0 0 1-2.496-2.808c-1.26-1.935-1.56-3.758-.843-5.131l.005-.01c.092-.152.187-.301.285-.45.824-1.089 2.356-1.72 4.388-1.792.128-.004.258-.006.389-.006 1.336.014 2.664.216 3.945.598l.09.027.068.02c.315.094.63.197.945.31l.023.008.246.092.078.029.074.028c.677.262 1.34.561 1.984.896a19.04 19.04 0 0 1 3.441 2.28c-1.929.442-4.17 1.297-6.426 2.446a.324.324 0 0 0-.178.274c-.008.14-.018.42-.026.648a.183.183 0 0 0 .268.167c2.232-1.173 4.46-2.052 6.37-2.512a.715.715 0 0 0 .54-.794 20.806 20.806 0 0 0-.12-.756 1.251 1.251 0 0 0-.473-.776 20.883 20.883 0 0 0-5.1-2.83.27.27 0 0 1-.14-.386c.745-1.336 1.633-2.084 2.498-2.084h.027c1.02.019 2.037 1.08 2.79 2.916.408 1.018.706 2.078.887 3.16.086.497.155 1.01.207 1.535l-.014.009.018.018a24.016 24.016 0 0 1 .016 4.495 31.125 31.125 0 0 1-4.907 3.183c-.61.324-1.22.623-1.822.9l-.028.014-.139.062c-.5.227-.993.436-1.481.627l-.082.03-.108.04-.244.094-.067.024-.295.108-.035.015c-.96.35-1.944.626-2.945.827-2.192.42-3.218.096-3.459-.347Zm3.018-4.275a28.649 28.649 0 0 1 3.354-2.325c.019 1.517.19 3.028.51 4.51a22.765 22.765 0 0 1-1.38-.647 19.495 19.495 0 0 1-2.484-1.538Zm6.37 7.717c-.472.06-.946.09-1.421.09a10.927 10.927 0 0 1-5.945-1.738.148.148 0 0 1 .074-.272h.083c.491-.036.98-.102 1.464-.198a22.394 22.394 0 0 0 3.698-1.092.233.233 0 0 1 .297.13c.51 1.24 1.135 2.177 1.835 2.773a.176.176 0 0 1-.088.307h.003Zm4.655-2.94c-.787 1.546-1.755 2.414-2.693 2.396-1.02-.018-2.037-1.08-2.79-2.915a.232.232 0 0 1 .123-.3l.023-.01a.23.23 0 0 1 .157-.01c1.334.385 2.714.587 4.102.6.142 0 .282 0 .42-.007.163-.005.324-.014.482-.027a.188.188 0 0 1 .174.272h.002Zm.341-1.331c-.343.05-.689.08-1.035.092-.93.025-1.86-.049-2.774-.222a.124.124 0 0 1-.087-.18.125.125 0 0 1 .055-.053l.626-.324a34.118 34.118 0 0 0 4.032-2.498.124.124 0 0 1 .186.05c.01.022.014.047.01.071-.155.947-.385 1.88-.689 2.79a.407.407 0 0 1-.324.274Zm1.62.873a9.601 9.601 0 0 1-.715.694.122.122 0 0 1-.192-.142l.047-.108c.066-.144.13-.293.191-.447a.127.127 0 0 1 .083-.072c.157-.04.31-.083.457-.13a.123.123 0 0 1 .158.044.122.122 0 0 1-.03.161Zm2.213-3.493a9.236 9.236 0 0 1-.195.456c-.362.698-.971 1.25-1.785 1.633a.236.236 0 0 1-.324-.277 20.89 20.89 0 0 0 .607-3.117.83.83 0 0 1 .282-.529c.335-.29.648-.58.935-.863a.264.264 0 0 1 .44.108c.285.941.301 1.821.04 2.589Zm.216-5.16a.225.225 0 0 1-.385.012l-.042-.065c-.34-.52-.717-1.016-1.128-1.482a.184.184 0 0 1 .138-.303c.987 0 1.504.243 1.662.54.14.25.1.685-.24 1.296l-.005.003Zm.532 1.456a.069.069 0 0 1-.056.066.07.07 0 0 1-.077-.041 3.053 3.053 0 0 0-.038-.089.165.165 0 0 1 .019-.165l.04-.053c.048-.062.117-.053.117.017.006.091.004.171 0 .265h-.005Z"/><defs><linearGradient id="a" x1="18.118" x2="18" y1="13.151" y2="36" gradientUnits="userSpaceOnUse"><stop stop-color="#fff"/><stop offset="1" stop-color="#DDCCFE"/></linearGradient></defs></svg>