<svg xmlns="http://www.w3.org/2000/svg" width="36" height="36" fill="none"><rect width="36" height="36" fill="#BC6CE1" rx="18"/><path fill="#030303" d="m18.003 29.769 2.99-16.818c2.851 0 3.75.313 3.88 1.588 0 0 1.912-.713 2.876-2.16-3.763-1.744-7.544-1.823-7.544-1.823l-2.206 2.688h.004l-2.206-2.688s-3.781.078-7.544 1.822c.963 1.448 2.876 2.161 2.876 2.161.13-1.276 1.029-1.588 3.86-1.59l3.014 16.82Z"/><path fill="#030303" d="M18 9.776c3.042-.023 6.524.47 10.089 2.024.476-.857.599-1.236.599-1.236A29.257 29.257 0 0 0 18 8.48c-3.143.014-6.791.541-10.688 2.083 0 0 .174.467.599 1.236C11.475 10.247 14.957 9.753 18 9.776Z"/></svg>