<svg xmlns="http://www.w3.org/2000/svg" width="36" height="36" fill="none"><g clip-path="url(#a)"><path fill="#DDD" d="m10.57 34.94 7.325.063h7.535A17.967 17.967 0 0 0 36 18.573C36 8.663 27.942.563 18.105.563 8.163.563 0 8.662 0 18.573c0 7.252 4.395 13.532 10.57 16.367Z"/><path fill="#878888" d="M9.111 4.679v2.765h1.748V4.679H9.111ZM9.111 29.453v2.765h1.748v-2.765H9.111ZM10.884 7.423v2.77h1.737v-2.77h-1.737ZM10.884 26.676v2.766h1.737v-2.766h-1.737ZM10.884 32.184v2.762h1.737v-2.762h-1.737ZM12.67 29.453v2.765h1.748v-2.765H12.67ZM16.224 1.916v2.763h1.748V1.916h-1.748ZM18.104 26.676v2.766h1.747v-2.766h-1.747ZM25.226 7.423v2.77h1.748v-2.77h-1.748ZM25.226 29.453v2.765h1.748v-2.765h-1.748ZM27.003 26.676v2.766h1.748v-2.766h-1.748Z"/><path stroke="#878888" stroke-width=".339" d="M10.886 32.182H9.107v2.02c.523.272.942.523 1.465.742h.314v-2.762m1.773-27.505h-1.78V2.07l.315-.157h1.465v2.763Zm0 0v2.765H10.92V4.677h1.738Zm1.782 0v2.765h-1.747V4.677m1.747 0h-1.747m1.747 0V1.914h-1.747v2.763m3.524 0v2.765H14.48V4.677m1.738 0H14.48m1.738 0V1.914H14.48v2.763m3.516 0v2.765h-1.748V4.677m1.748 0h-1.748m1.748 0V1.914h-1.748v2.763m3.534 0v2.765h-1.747V4.677m1.747 0h-1.747m1.747 0V1.914h-1.747v2.763m3.52 0v2.765h-1.748V4.677m1.748 0h-1.748m1.748 0V1.914h-1.748v2.763m3.53 0v2.765h-1.748V4.677m1.748 0h-1.748m1.748 0V1.914h-1.748v2.763M27 29.45v2.765h1.748V29.45h-1.748Zm1.782-22.03v2.77h1.748V7.42H28.78Zm0 2.768v2.76h1.748v-2.76H28.78Zm0 2.73v2.768h1.748V12.92H28.78Zm0 2.778v2.763h1.748v-2.764H28.78Zm0 2.73v2.768h1.748v-2.768H28.78Zm0 2.772v2.764h1.748v-2.764H28.78Zm0 2.745v2.763h1.748v-2.763H28.78Zm0 2.73v2.766h1.748v-2.766H28.78Zm1.777-16.485v2.76h1.748v-2.76h-1.748Zm0 2.73v2.768h1.748V12.92h-1.748Zm0 2.778v2.763h1.748v-2.764h-1.748Zm0 2.73v2.768h1.748v-2.768h-1.748Zm0 2.772v2.764h1.748v-2.764h-1.748Zm0 2.745v2.763h1.748v-2.763h-1.748Zm0 2.73v2.766h1.748v-2.766h-1.748ZM32.34 12.92v2.768h1.737V12.92H32.34Zm0 2.778v2.763h1.737v-2.764H32.34Zm0 2.73v2.768h1.737v-2.768H32.34Zm0 2.772v2.764h1.737v-2.764H32.34Zm3.552-.01-1.78.01v-2.772h1.884l-.104 2.763ZM3.766 7.694v2.502H5.44V7.42H3.975c-.104.094-.209.178-.209.272Zm-.102 2.496h-1.57c0 .104-.105.21-.105.335v2.417h1.675V10.19Zm30.455.283c-.104-.105-.104-.2-.104-.283H32.34v2.752h1.78v-2.47ZM32.337 7.63c-.104-.074-.104-.147-.21-.21h-1.569v2.773h1.78V7.631Zm-7.536-5.717h-1.36v2.763h1.674V2.039l-.314-.125Zm-12.137-.5c-.523.157-1.046.335-1.465.523h1.465v-.523Zm.002-.022v.544h1.78V.942c-.629.125-1.152.272-1.78.45ZM14.44.927v1.005h1.779V.655c-.628.063-1.151.147-1.78.272Zm3.56-.35c-.627 0-1.15.02-1.778.083v1.277h1.778V.577Zm1.775 1.357V.657a14.973 14.973 0 0 0-1.675-.095v1.371h1.675Zm.005-1.279v1.277h1.78V.917a13.936 13.936 0 0 0-1.78-.262Zm3.662.722v.555h1.465c-.524-.2-.942-.388-1.465-.555ZM27 2.95c-.628-.324-1.151-.628-1.779-.879v2.606h1.78V2.95ZM27 2.96v1.716h1.675v-.575c-.524-.409-1.047-.796-1.675-1.141Zm1.782 1.175v.545h.733a5.13 5.13 0 0 1-.733-.545Zm.733.542h-.733V7.44h1.78V5.619c-.42-.325-.733-.638-1.047-.942ZM32.34 7.69v2.501h1.675c-.523-.879-1.047-1.716-1.675-2.501Zm1.773 2.823v2.428h1.046c-.313-.838-.628-1.643-1.046-2.428Zm1.046 2.406h-1.046v2.774h1.674a12.55 12.55 0 0 0-.628-2.774Zm.105 11.025h-1.151v2.679c.418-.858.837-1.759 1.15-2.68Zm-2.924 2.73v2.774c.733-.869 1.256-1.8 1.78-2.774h-1.78Zm-1.782 4.818c.628-.618 1.256-1.267 1.78-1.957v-.084h-1.78v2.04Zm-1.777.722h1.047c.209-.22.418-.45.732-.68V29.45h-1.779v2.763Zm0-.032v.837c.314-.262.733-.534 1.047-.837H28.78ZM27 34.19a13.374 13.374 0 0 0 1.675-1.13v-.88h-1.675v2.01Zm-1.777.753h.314c.419-.22.942-.47 1.465-.743v-2.02h-1.779v2.763ZM7.325 33.03c.524.42 1.151.796 1.78 1.141v-1.988h-1.78v.847Zm-.104-.031v-.816H6.28c.309.278.623.55.942.816Zm-1.673-1.496c.21.241.524.482.733.712h.942V29.45H5.548v2.051Zm-1.782-2.01c.523.692 1.047 1.35 1.674 1.968v-2.009H3.766v.042Zm-.102-2.818H1.989c.523.974 1.046 1.905 1.675 2.774v-2.774ZM1.88 21.2H.207c.21.942.419 1.873.628 2.763H1.88v-2.763Zm.002 5.35v-2.605H.837c.314.9.628 1.768 1.046 2.605Zm.001-10.852H.314c-.104.261-.104.533-.104.805L.105 18.47l1.78-.01v-2.763Zm0-.004v-2.774H.941a12.537 12.537 0 0 0-.628 2.774h1.57Zm.001-2.745v-2.333c-.321.775-.635 1.553-.942 2.333h.942ZM5.44 7.44V5.723c-.524.534-1.047 1.12-1.465 1.716H5.44Zm.108 0h1.675V4.678h-.628c-.314.314-.733.649-1.047.994V7.44Zm1.674-3.267-.628.503h.628v-.503Zm.103-.028v.533h1.78V2.992c-.629.346-1.256.733-1.78 1.152Zm3.561-2.063c-.628.261-1.256.554-1.779.879v1.716h1.78V2.08Zm25.006 14.044c0-.146-.105-.293-.105-.429h-1.674v2.763l1.883.01-.104-2.344Zm-1.78 5.074v2.763h1.152c.21-.89.418-1.821.628-2.763h-1.78Zm.007 2.745H32.34v2.762h1.78v-2.762ZM1.99 26.706h1.674v-2.762H1.99v2.762ZM.21 21.2h1.675v-2.773l-1.78.01.105 2.146v.617Zm3.455-11.013v-2.47a56.268 56.268 0 0 0-1.57 2.47h1.57Zm26.893-4.515V7.44h1.57a9.122 9.122 0 0 0-1.57-1.768Zm-8.9-4.744v1.005h1.675v-.565c-.523-.178-1.151-.325-1.674-.44ZM7.223 7.421v2.77H5.474V7.42h1.748Zm0 2.768v2.76H5.474v-2.76h1.748Zm0 2.73v2.768H5.474V12.92h1.748Zm0 2.778v2.763H5.474v-2.764h1.748Zm0 2.73v2.768H5.474v-2.768h1.748Zm0 2.772v2.764H5.474v-2.764h1.748Zm0 2.745v2.763H5.474v-2.763h1.748Zm0 2.73v2.766H5.474v-2.766h1.748ZM5.439 10.19v2.76H3.7v-2.76H5.44Zm0 2.73v2.768H3.7V12.92H5.44Zm0 2.778v2.763H3.7v-2.764H5.44Zm0 2.73v2.768H3.7v-2.768H5.44Zm0 2.772v2.764H3.7v-2.764H5.44Zm0 2.745v2.763H3.7v-2.763H5.44Zm0 2.73v2.766H3.7v-2.766H5.44ZM3.663 12.92v2.768H1.915V12.92h1.748Zm0 2.778v2.763H1.915v-2.764h1.748Zm0 2.73v2.768H1.915v-2.768h1.748Zm0 2.772v2.764H1.915v-2.764h1.748ZM9.106 4.677v2.765H7.358V4.677h1.748Zm0 2.744v2.77H7.358V7.42h1.748Zm0 2.768v2.76H7.358v-2.76h1.748Zm0 2.73v2.768H7.358V12.92h1.748Zm0 2.778v2.763H7.358v-2.764h1.748Zm0 2.73v2.768H7.358v-2.768h1.748Zm0 2.772v2.764H7.358v-2.764h1.748Zm0 2.745v2.763H7.358v-2.763h1.748Zm0 2.73v2.766H7.358v-2.766h1.748Zm0 2.777v2.765H7.358V29.45h1.748Zm1.777-24.774v2.765H9.135V4.677h1.748Zm0 2.744v2.77H9.135V7.42h1.748Zm0 2.768v2.76H9.135v-2.76h1.748Zm0 2.73v2.768H9.135V12.92h1.748Zm0 2.778v2.763H9.135v-2.764h1.748Zm0 2.73v2.768H9.135v-2.768h1.748Zm0 2.772v2.764H9.135v-2.764h1.748Zm0 2.745v2.763H9.135v-2.763h1.748Zm0 2.73v2.766H9.135v-2.766h1.748Zm0 2.777v2.765H9.135V29.45h1.748Zm1.776-22.03v2.77H10.92V7.42h1.738Zm0 2.768v2.76H10.92v-2.76h1.738Zm0 2.73v2.768H10.92V12.92h1.738Zm0 2.778v2.763H10.92v-2.764h1.738Zm0 2.73v2.768H10.92v-2.768h1.738Zm0 2.772v2.764H10.92v-2.764h1.738Zm0 2.745v2.763H10.92v-2.763h1.738Zm0 2.73v2.766H10.92v-2.766h1.738Zm0 2.777v2.765H10.92V29.45h1.738Zm0 2.73v2.763H10.92v-2.762h1.738Zm1.782-24.76v2.77h-1.747V7.42h1.747Zm0 2.768v2.76h-1.747v-2.76h1.747Zm0 2.73v2.768h-1.747V12.92h1.747Zm0 2.778v2.763h-1.747v-2.764h1.747Zm0 2.73v2.768h-1.747v-2.768h1.747Zm0 2.772v2.764h-1.747v-2.764h1.747Zm0 2.745v2.763h-1.747v-2.763h1.747Zm0 2.73v2.766h-1.747v-2.766h1.747Zm0 2.777v2.765h-1.747V29.45h1.747Zm0 2.73v2.763h-1.747v-2.762h1.747Zm1.777-24.76v2.77H14.48V7.42h1.738Zm0 2.768v2.76H14.48v-2.76h1.738Zm0 2.73v2.768H14.48V12.92h1.738Zm0 2.778v2.763H14.48v-2.764h1.738Zm0 2.73v2.768H14.48v-2.768h1.738Zm0 2.772v2.764H14.48v-2.764h1.738Zm0 2.745v2.763H14.48v-2.763h1.738Zm0 2.73v2.766H14.48v-2.766h1.738Zm0 2.777v2.765H14.48V29.45h1.738Zm0 2.73v2.763H14.48v-2.762h1.738Zm1.778-24.76v2.77h-1.748V7.42h1.748Zm0 2.768v2.76h-1.748v-2.76h1.748Zm0 2.73v2.768h-1.748V12.92h1.748Zm0 2.778v2.763h-1.748v-2.764h1.748Zm0 2.73v2.768h-1.748v-2.768h1.748Zm0 2.772v2.764h-1.748v-2.764h1.748Zm0 2.745v2.763h-1.748v-2.763h1.748Zm0 2.73v2.766h-1.748v-2.766h1.748Zm0 2.777v2.765h-1.748V29.45h1.748Zm0 2.73v2.763h-1.748v-2.762h1.748Zm1.786-24.76v2.77h-1.747V7.42h1.747Zm0 2.768v2.76h-1.747v-2.76h1.747Zm0 2.73v2.768h-1.747V12.92h1.747Zm0 2.778v2.763h-1.747v-2.764h1.747Zm0 2.73v2.768h-1.747v-2.768h1.747Zm0 2.772v2.764h-1.747v-2.764h1.747Zm0 2.745v2.763h-1.747v-2.763h1.747Zm0 2.73v2.766h-1.747v-2.766h1.747Zm0 2.777v2.765h-1.747V29.45h1.747Zm0 2.73v2.763h-1.747v-2.762h1.747Zm1.773-24.76v2.77h-1.748V7.42h1.748Zm0 2.768v2.76h-1.748v-2.76h1.748Zm0 2.73v2.768h-1.748V12.92h1.748Zm0 2.778v2.763h-1.748v-2.764h1.748Zm0 2.73v2.768h-1.748v-2.768h1.748Zm0 2.772v2.764h-1.748v-2.764h1.748Zm0 2.745v2.763h-1.748v-2.763h1.748Zm0 2.73v2.766h-1.748v-2.766h1.748Zm0 2.777v2.765h-1.748V29.45h1.748Zm0 2.73v2.763h-1.748v-2.762h1.748Zm1.782-24.76v2.77h-1.748V7.42h1.748Zm0 2.768v2.76h-1.748v-2.76h1.748Zm0 2.73v2.768h-1.748V12.92h1.748Zm0 2.778v2.763h-1.748v-2.764h1.748Zm0 2.73v2.768h-1.748v-2.768h1.748Zm0 2.772v2.764h-1.748v-2.764h1.748Zm0 2.745v2.763h-1.748v-2.763h1.748Zm0 2.73v2.766h-1.748v-2.766h1.748Zm0 2.777v2.765h-1.748V29.45h1.748Zm0 2.73v2.763h-1.748v-2.762h1.748Zm1.776-27.504v2.765h-1.738V4.677h1.738Zm0 2.744v2.77h-1.738V7.42h1.738Zm0 2.768v2.76h-1.738v-2.76h1.738Zm0 2.73v2.768h-1.738V12.92h1.738Zm0 2.778v2.763h-1.738v-2.764h1.738Zm0 2.73v2.768h-1.738v-2.768h1.738Zm0 2.772v2.764h-1.738v-2.764h1.738Zm0 2.745v2.763h-1.738v-2.763h1.738Zm0 2.73v2.766h-1.738v-2.766h1.738Zm0 2.777v2.765h-1.738V29.45h1.738Zm0 2.73v2.763h-1.738v-2.762h1.738Zm1.89-27.504v2.765h-1.748V4.677h1.747Zm0 2.744v2.77h-1.748V7.42h1.747Zm0 2.768v2.76h-1.748v-2.76h1.747Zm0 2.73v2.768h-1.748V12.92h1.747Zm0 2.778v2.763h-1.748v-2.764h1.747Zm0 2.73v2.768h-1.748v-2.768h1.747Zm0 2.772v2.764h-1.748v-2.764h1.747Zm0 2.745v2.763h-1.748v-2.763h1.747Zm0 2.73v2.766h-1.748v-2.766h1.747Zm0 2.777v2.765h-1.748V29.45h1.747Zm1.67-24.774v2.765h-1.748V4.677h1.748Zm0 2.744v2.77h-1.748V7.42h1.748Zm0 2.768v2.76h-1.748v-2.76h1.748Zm0 2.73v2.768h-1.748V12.92h1.748Zm0 2.778v2.763h-1.748v-2.764h1.748Zm0 2.73v2.768h-1.748v-2.768h1.748Zm0 2.772v2.764h-1.748v-2.764h1.748Zm0 2.745v2.763h-1.748v-2.763h1.748Zm0 2.73v2.766h-1.748v-2.766h1.748Zm0 2.777v2.765h-1.748V29.45h1.748Zm1.883-22.03v2.77H28.81V7.42h1.747Zm0 2.768v2.76H28.81v-2.76h1.747Zm0 2.73v2.768H28.81V12.92h1.747Zm0 2.778v2.763H28.81v-2.764h1.747Zm0 2.73v2.768H28.81v-2.768h1.747Zm0 2.772v2.764H28.81v-2.764h1.747Zm0 2.745v2.763H28.81v-2.763h1.747Zm0 2.73v2.766H28.81v-2.766h1.747Zm1.778-16.485v2.76h-1.748v-2.76h1.748Zm0 2.73v2.768h-1.748V12.92h1.748Zm0 2.778v2.763h-1.748v-2.764h1.748Zm0 2.73v2.768h-1.748v-2.768h1.748Zm0 2.772v2.764h-1.748v-2.764h1.748Zm0 2.745v2.763h-1.748v-2.763h1.748Zm0 2.73v2.766h-1.748v-2.766h1.748Zm1.785-13.755v2.768h-1.737V12.92h1.737Zm0 2.778v2.763h-1.737v-2.764h1.737Zm0 2.73v2.768h-1.737v-2.768h1.737Zm0 2.772v2.764h-1.737v-2.764h1.737Z"/><path fill="#030303" d="M29.54 15.38c-2.198 0-3.893 1.155-3.893 3.158 0 1.696 1.57 2.882 3.641 2.882 1.57 0 2.826-1.136 3.203-1.852 0-.22-.189-.314-.44-.314-.314.553-1.318.98-1.758.96-2.512-.093-2.889-1.092-2.951-2.14-.063-1.137 1.193-2.123 2.26-2.047.566.044.817 1.042 1.319 1.406.188.088.565.076.816.025.189-.025.754-.144.754-.596 0-.377-.503-.792-.942-1.061-.44-.207-1.444-.421-2.01-.421Z"/><path fill="#030303" d="M14.785 19.72c0 .93-.189 1.42-.942 1.463v.15c1.256-.012 2.512 0 3.767-.03v-.076c-.565 0-1.004-.596-1.004-1.344v-2.492c0-.616.753-1.005 1.255-.961.754.075 1.194.584 1.194 1.03v2.455c0 .747-.189 1.212-.754 1.256v.131h3.39v-.1c-.501-.063-.878-.527-.878-1.23v-2.569c0-.552.502-.923 1.381-.942.754-.018 1.193.54 1.193 1.061v2.33c0 .797-.251 1.287-.879 1.35v.1c1.256.02 2.323.02 3.58 0v-.075c-.692 0-.88-.433-.88-1.344v-2.568c0-.854-.502-1.87-1.82-1.87-.88 0-1.508.432-1.885.552-.25.106-.44.226-.502.226-.126 0-.251-.076-.377-.258-.313-.326-.879-.52-1.507-.52-.753 0-1.507.432-1.883.552-.063.018-.314.15-.314.15-.063 0-.314 0-.314-.031 0-.716.063-.358 0-.867h-.503c-.125 0-.376.27-.69.39-.377.15-1.068.132-1.382.207v.509l.817.15v.986l-.063 2.23Z"/><path fill="#030303" d="M11.457 21.32c1.319-.063 2.575-.346 2.575-1.614 0-.93-1.005-1.513-2.072-1.978-.69-.283-1.696-.697-1.696-1.03 0-.39.754-1.136 1.445-.54l1.318 1.061.566-.12-.315-1.581c-.314.012-.502.031-1.632-.151-1.319-.195-2.951.477-2.951 1.733 0 .841 1.256 1.425 2.197 1.808.503.226 1.444.56 1.444 1.061 0 .496-.879.635-1.38.635-.817 0-1.759-1.124-1.759-1.124h-.565l.314 1.676c.125-.094.502-.081.565-.044.251.1 1.256.251 1.946.208Zm-3.202-5.087v-.778l-1.632.019c-.189 0-.189-.044-.189-.314v-1.062l-.816-.012c-.251.565-.565.935-.69 1.01l-1.57.673v.483l.564.013c.252 0 .377-.013.377.282v3.159c0 .954.502 1.657 1.884 1.689 1.004.025 1.632-.421 2.072-.842l-.126-.402c-.188.12-.376.227-.565.227-1.193 0-1.13-.898-1.13-1.696v-2.134c0-.314 0-.314.251-.314h1.57Z"/></g><defs><clipPath id="a"><rect width="36" height="36" fill="#fff" rx="18"/></clipPath></defs></svg>