<svg width="36" height="36" viewBox="0 0 36 36" fill="none" xmlns="http://www.w3.org/2000/svg">
<g clip-path="url(#clip0_11795_279220)">
<path d="M10.5697 34.9405L17.8953 35.0033H25.4303C31.7093 32.1778 36 25.8672 36 18.5731C36 8.66263 27.9417 0.5625 18.1045 0.5625C8.16271 0.5625 7.4734e-09 8.66263 7.4734e-09 18.5731C-0.000209277 25.8254 4.39518 32.1047 10.5697 34.9405Z" fill="#DDDDDD"/>
<path d="M9.11133 4.67899V7.44386H10.8591V4.67899H9.11133Z" fill="#878888"/>
<path d="M9.11133 29.4532V32.2181H10.8591V29.4532H9.11133Z" fill="#878888"/>
<path d="M10.8839 7.42345V10.1924H12.6211V7.42345H10.8839Z" fill="#878888"/>
<path d="M10.8839 26.6763V29.4424H12.6211V26.6763H10.8839Z" fill="#878888"/>
<path d="M10.8839 32.1838V34.9464H12.6211V32.1838H10.8839Z" fill="#878888"/>
<path d="M12.6701 29.4532V32.2181H14.4177V29.4532H12.6701Z" fill="#878888"/>
<path d="M16.2245 1.91602V4.67866H17.972V1.91602H16.2245Z" fill="#878888"/>
<path d="M18.1035 26.6763V29.4424H19.8512V26.6763H18.1035Z" fill="#878888"/>
<path d="M25.2261 7.42345V10.1924H26.9739V7.42345H25.2261Z" fill="#878888"/>
<path d="M25.2261 29.4532V32.2181H26.9739V29.4532H25.2261Z" fill="#878888"/>
<path d="M27.0033 26.6763V29.4424H28.7509V26.6763H27.0033Z" fill="#878888"/>
<path d="M10.8863 32.1816H9.10711V34.2013C9.63031 34.4735 10.0487 34.7245 10.5719 34.9443H10.8859V32.1816M12.6587 4.67655H10.8797V2.0709L11.1937 1.9139H12.6587V4.67655ZM12.6587 4.67655L12.6587 7.44175H10.9213V4.67688L12.6587 4.67655ZM14.4414 4.67688V7.44175H12.6939V4.67688M14.4414 4.67688H12.6939M14.4414 4.67688V1.9139H12.6939V4.67688M16.2177 4.67688V7.44175H14.4803V4.67688M16.2177 4.67688H14.4803M16.2177 4.67688V1.9139H14.4803V4.67688M17.9958 4.67688V7.44175H16.2483V4.67688M17.9958 4.67688H16.2483M17.9958 4.67688V1.9139H16.2483V4.67688M19.7822 4.67688V7.44175H18.0347V4.67688M19.7822 4.67688H18.0347M19.7822 4.67688V1.9139H18.0347V4.67688M21.555 4.67688V7.44175H19.8073V4.67688M21.555 4.67688H19.8073M21.555 4.67688V1.9139H19.8073V4.67688M23.3366 4.67688V7.44175H21.5891V4.67688M23.3366 4.67688H21.5891M23.3366 4.67688V1.9139H21.5891V4.67688M26.9993 29.4511V32.2159H28.7468V29.4511H26.9993ZM28.7811 7.42134V10.1903H30.5287V7.42134H28.7811ZM28.7811 10.1889V12.9485H30.5287V10.1889H28.7811ZM28.7811 12.9195V15.6874H30.5287V12.9195H28.7811ZM28.7811 15.6966V18.4604H30.5287V15.6964L28.7811 15.6966ZM28.7811 18.4269V21.1949H30.5287V18.4271L28.7811 18.4269ZM28.7811 21.1992V23.963H30.5287V21.1992H28.7811ZM28.7811 23.9436V26.7073H30.5287V23.9436H28.7811ZM28.7811 26.6742V29.4403H30.5287V26.6742H28.7811ZM30.5583 10.1889V12.9485H32.3059V10.1889H30.5583ZM30.5583 12.9195V15.6874H32.3059V12.9195H30.5583ZM30.5583 15.6966V18.4604H32.3059V15.6964L30.5583 15.6966ZM30.5583 18.4269V21.1949H32.3059V18.4271L30.5583 18.4269ZM30.5583 21.1992V23.963H32.3059V21.1992H30.5583ZM30.5583 23.9436V26.7073H32.3059V23.9436H30.5583ZM30.5583 26.6742V29.4403H32.3059V26.6742H30.5583ZM32.3401 12.9195V15.6874H34.0775V12.9195H32.3401ZM32.3401 15.6966V18.4604H34.0775V15.6964L32.3401 15.6966ZM32.3401 18.4269V21.1949H34.0775V18.4271L32.3401 18.4269ZM32.3401 21.1992V23.963H34.0775V21.1992H32.3401ZM35.8919 21.1896L34.1127 21.1999V18.4269H35.9965L35.8919 21.1896ZM3.76629 7.6933V10.1945H5.44049V7.42134H3.97549C3.87089 7.51537 3.76629 7.59905 3.76629 7.6933ZM3.66351 10.1889H2.0937C2.0937 10.2935 1.9891 10.3981 1.9891 10.5239V12.9412H3.66351V10.1889ZM34.1194 10.4715C34.0148 10.3669 34.0148 10.2726 34.0148 10.1889H32.3401V12.941H34.1194V10.4715ZM32.3371 7.63054C32.2327 7.55742 32.2327 7.4841 32.1279 7.42134H30.5583V10.1945H32.3371V7.63054ZM24.8009 1.9139H23.4403V4.67655H25.1147V2.03942L24.8009 1.9139ZM12.664 1.41407C12.1408 1.57087 11.6176 1.74879 11.199 1.93727H12.664V1.41407ZM12.6661 1.39188V1.93621H14.4453V0.942004C13.8171 1.06732 13.2939 1.21417 12.6661 1.39188ZM14.4387 0.927427V1.93199H16.2179V0.655062C15.5901 0.718025 15.0667 0.801704 14.4387 0.927427ZM17.9993 0.576384C17.3717 0.576384 16.8483 0.597304 16.2205 0.660064V1.93699H17.9993V0.576384ZM19.7739 1.93367V0.656741C19.2507 0.593981 18.6227 0.5625 18.0995 0.5625V1.93346L19.7739 1.93367ZM19.7795 0.655062V1.93199H21.5587V0.916865C21.0355 0.801501 20.4073 0.707666 19.7795 0.655062ZM23.4405 1.37704V1.93152H24.9055C24.3823 1.73289 23.9637 1.5444 23.4405 1.37704ZM27.0013 2.9501C26.3731 2.62574 25.8499 2.32209 25.2221 2.07126V4.6771H27.0013V2.9501ZM26.9993 2.95985V4.6761H28.6737V4.1007C28.1503 3.69246 27.6271 3.30513 26.9993 2.95985ZM28.7811 4.13539V4.67971H29.5135C29.1997 4.49123 28.9903 4.31331 28.7811 4.13539ZM29.5135 4.67708H28.7811V7.43993H30.5601V5.61868C30.1415 5.29432 29.8275 4.98052 29.5135 4.67708ZM32.3401 7.68977V10.191H34.0148C33.4916 9.31197 32.9684 8.47477 32.3401 7.68977ZM34.1127 10.5129V12.9408H35.1591C34.8455 12.1034 34.5311 11.2977 34.1127 10.5129ZM35.1591 12.9195H34.1127V15.6927H35.7871C35.6835 14.7475 35.4728 13.8171 35.1591 12.9195ZM35.2639 23.9436H34.1127V26.6226C34.5311 25.7645 34.9501 24.8645 35.2639 23.9436ZM32.3401 26.6742V29.4476C33.073 28.5791 33.5962 27.6475 34.1194 26.6744L32.3401 26.6742ZM30.5583 31.4917C31.1861 30.8742 31.8139 30.2253 32.3371 29.5347V29.4511H30.5583V31.4917ZM28.7811 32.2139H29.8275C30.0367 31.9942 30.2461 31.7638 30.5601 31.5335V29.4511H28.7811V32.2139ZM28.7811 32.1816V33.0186C29.0949 32.757 29.5135 32.4851 29.8275 32.1816H28.7811ZM26.9993 34.191C27.6273 33.8351 28.1505 33.4687 28.6737 33.0607V32.1816H26.9993V34.191ZM25.2221 34.9443H25.5361C25.9549 34.7245 26.4781 34.4735 27.0013 34.2013V32.1816H25.2221V34.9443ZM7.3253 33.0294C7.8487 33.4482 8.4765 33.8248 9.1045 34.17V32.1816H7.3253V33.0294ZM7.22135 32.9977V32.1816H6.27935C6.58799 32.4598 6.90205 32.7319 7.22135 32.9977ZM5.54831 31.5024C5.75751 31.7431 6.07151 31.9836 6.28091 32.2139H7.22292V29.4511H5.54811L5.54831 31.5024ZM3.76629 29.4927C4.28949 30.1837 4.81269 30.8429 5.44049 31.4604V29.4511H3.76629V29.4927ZM3.66351 26.6742H1.9891C2.5123 27.6477 3.0355 28.5791 3.66351 29.4476V26.6742ZM1.88149 21.1992H0.207287C0.416486 22.141 0.625685 23.0722 0.834883 23.962H1.88149V21.1992ZM1.88311 26.5495V23.9436H0.836708C1.15051 24.8436 1.46451 25.7125 1.88311 26.5495ZM1.88447 15.6966H0.31487C0.210271 15.9582 0.210271 16.2303 0.210271 16.5023L0.105469 18.4698L1.88467 18.4594L1.88447 15.6966ZM1.88333 15.6929V12.9195H0.941532C0.627771 13.8171 0.417151 14.7475 0.313733 15.6927L1.88333 15.6929ZM1.88495 12.9484V10.6147C1.56376 11.3897 1.24982 12.1676 0.943154 12.9484H1.88495ZM5.43956 7.43907V5.72283C4.91636 6.25659 4.39316 6.84255 3.97456 7.43907H5.43956ZM5.54811 7.43972H7.22271V4.67688H6.59451C6.28071 4.99088 5.86211 5.326 5.54811 5.67128V7.43972ZM7.22226 4.17241C7.01307 4.33998 6.80366 4.50734 6.59406 4.67469H7.22226V4.17241ZM7.3253 4.14366V4.67721H9.1045V2.99225C8.4765 3.33753 7.8487 3.72485 7.3253 4.14366ZM10.8863 2.08052C10.2581 2.34212 9.63031 2.63499 9.10711 2.95956V4.6758H10.8863V2.08052ZM35.8919 16.1253C35.8919 15.9791 35.7871 15.8325 35.7871 15.6964H34.1127V18.4592L35.9965 18.4696L35.8919 16.1253ZM34.1127 21.1992V23.962H35.2639C35.4731 23.0724 35.6825 22.141 35.8921 21.1992H34.1127ZM34.1194 23.9436H32.3401V26.7063H34.1194V23.9436ZM1.9891 26.7063H3.6633V23.9436H1.9891V26.7063ZM0.210474 21.1999H1.88467V18.4269L0.105469 18.4375L0.210271 20.5827L0.210474 21.1999ZM3.66535 10.1873V7.71753C3.14195 8.49177 2.61875 9.31882 2.09555 10.1873H3.66535ZM30.5583 5.67192V7.44036H32.1279C31.7095 6.81276 31.1861 6.2266 30.5583 5.67192ZM21.6585 0.92812V1.93268H23.3329V1.36764C22.8097 1.18972 22.1817 1.04287 21.6585 0.92812ZM7.22199 7.42134V10.1903H5.47406V7.42134H7.22199ZM7.22199 10.1889V12.9485H5.47406V10.1889H7.22199ZM7.22199 12.9195V15.6874H5.47406V12.9195H7.22199ZM7.22199 15.6966V18.4604H5.47406V15.6964L7.22199 15.6966ZM7.22199 18.4269V21.1949H5.47406V18.4271L7.22199 18.4269ZM7.22199 21.1992V23.963H5.47406V21.1992H7.22199ZM7.22199 23.9436V26.7073H5.47406V23.9436H7.22199ZM7.22199 26.6742V29.4403H5.47406V26.6742H7.22199ZM5.43866 10.1889V12.9485H3.7015V10.1889H5.43866ZM5.43866 12.9195V15.6874H3.7015V12.9195H5.43866ZM5.43866 15.6966V18.4604H3.7015V15.6964L5.43866 15.6966ZM5.43866 18.4269V21.1949H3.7015V18.4271L5.43866 18.4269ZM5.43866 21.1992V23.963H3.7015V21.1992H5.43866ZM5.43866 23.9436V26.7073H3.7015V23.9436H5.43866ZM5.43866 26.6742V29.4403H3.7015V26.6742H5.43866ZM3.66257 12.9195V15.6874H1.91505V12.9195H3.66257ZM3.66257 15.6966V18.4604H1.91505V15.6964L3.66257 15.6966ZM3.66257 18.4269V21.1949H1.91505V18.4271L3.66257 18.4269ZM3.66257 21.1992V23.963H1.91505V21.1992H3.66257ZM9.10562 4.67688V7.44175H7.35769V4.67688H9.10562ZM9.10562 7.42134V10.1903H7.35769V7.42134H9.10562ZM9.10562 10.1889V12.9485H7.35769V10.1889H9.10562ZM9.10562 12.9195V15.6874H7.35769V12.9195H9.10562ZM9.10562 15.6966V18.4604H7.35769V15.6964L9.10562 15.6966ZM9.10562 18.4269V21.1949H7.35769V18.4271L9.10562 18.4269ZM9.10562 21.1992V23.963H7.35769V21.1992H9.10562ZM9.10562 23.9436V26.7073H7.35769V23.9436H9.10562ZM9.10562 26.6742V29.4403H7.35769V26.6742H9.10562ZM9.10562 29.4511V32.2159H7.35769V29.4511H9.10562ZM10.8828 4.67688V7.44175H9.13488V4.67688H10.8828ZM10.8828 7.42134V10.1903H9.13488V7.42134H10.8828ZM10.8828 10.1889V12.9485H9.13488V10.1889H10.8828ZM10.8828 12.9195V15.6874H9.13488V12.9195H10.8828ZM10.8828 15.6966V18.4604H9.13488V15.6964L10.8828 15.6966ZM10.8828 18.4269V21.1949H9.13488V18.4271L10.8828 18.4269ZM10.8828 21.1992V23.963H9.13488V21.1992H10.8828ZM10.8828 23.9436V26.7073H9.13488V23.9436H10.8828ZM10.8828 26.6742V29.4403H9.13488V26.6742H10.8828ZM10.8828 29.4511V32.2159H9.13488V29.4511H10.8828ZM12.6587 7.42134V10.1903H10.9213V7.42134H12.6587ZM12.6587 10.1889V12.9485H10.9213V10.1889H12.6587ZM12.6587 12.9195V15.6874H10.9213V12.9195H12.6587ZM12.6587 15.6966V18.4604H10.9213V15.6964L12.6587 15.6966ZM12.6587 18.4269V21.1949H10.9213V18.4271L12.6587 18.4269ZM12.6587 21.1992V23.963H10.9213V21.1992H12.6587ZM12.6587 23.9436V26.7073H10.9213V23.9436H12.6587ZM12.6587 26.6742V29.4403H10.9213V26.6742H12.6587ZM12.6587 29.4511V32.2159H10.9213V29.4511H12.6587ZM12.6587 32.1816V34.9443H10.9213V32.1816H12.6587ZM14.4414 7.42134V10.1903H12.6939V7.42134H14.4414ZM14.4414 10.1889V12.9485H12.6939V10.1889H14.4414ZM14.4414 12.9195V15.6874H12.6939V12.9195H14.4414ZM14.4414 15.6966V18.4604H12.6939V15.6964L14.4414 15.6966ZM14.4414 18.4269V21.1949H12.6939V18.4271L14.4414 18.4269ZM14.4414 21.1992V23.963H12.6939V21.1992H14.4414ZM14.4414 23.9436V26.7073H12.6939V23.9436H14.4414ZM14.4414 26.6742V29.4403H12.6939V26.6742H14.4414ZM14.4414 29.4511V32.2159H12.6939V29.4511H14.4414ZM14.4414 32.1816V34.9443H12.6939V32.1816H14.4414ZM16.2177 7.42134V10.1903H14.4803V7.42134H16.2177ZM16.2177 10.1889V12.9485H14.4803V10.1889H16.2177ZM16.2177 12.9195V15.6874H14.4803V12.9195H16.2177ZM16.2177 15.6966V18.4604H14.4803V15.6964L16.2177 15.6966ZM16.2177 18.4269V21.1949H14.4803V18.4271L16.2177 18.4269ZM16.2177 21.1992V23.963H14.4803V21.1992H16.2177ZM16.2177 23.9436V26.7073H14.4803V23.9436H16.2177ZM16.2177 26.6742V29.4403H14.4803V26.6742H16.2177ZM16.2177 29.4511V32.2159H14.4803V29.4511H16.2177ZM16.2177 32.1816V34.9443H14.4803V32.1816H16.2177ZM17.9958 7.42134V10.1903H16.2483V7.42134H17.9958ZM17.9958 10.1889V12.9485H16.2483V10.1889H17.9958ZM17.9958 12.9195V15.6874H16.2483V12.9195H17.9958ZM17.9958 15.6966V18.4604H16.2483V15.6964L17.9958 15.6966ZM17.9958 18.4269V21.1949H16.2483V18.4271L17.9958 18.4269ZM17.9958 21.1992V23.963H16.2483V21.1992H17.9958ZM17.9958 23.9436V26.7073H16.2483V23.9436H17.9958ZM17.9958 26.6742V29.4403H16.2483V26.6742H17.9958ZM17.9958 29.4511V32.2159H16.2483V29.4511H17.9958ZM17.9958 32.1816V34.9443H16.2483V32.1816H17.9958ZM19.7822 7.42134V10.1903H18.0347V7.42134H19.7822ZM19.7822 10.1889V12.9485H18.0347V10.1889H19.7822ZM19.7822 12.9195V15.6874H18.0347V12.9195H19.7822ZM19.7822 15.6966V18.4604H18.0347V15.6964L19.7822 15.6966ZM19.7822 18.4269V21.1949H18.0347V18.4271L19.7822 18.4269ZM19.7822 21.1992V23.963H18.0347V21.1992H19.7822ZM19.7822 23.9436V26.7073H18.0347V23.9436H19.7822ZM19.7822 26.6742V29.4403H18.0347V26.6742H19.7822ZM19.7822 29.4511V32.2159H18.0347V29.4511H19.7822ZM19.7822 32.1816V34.9443H18.0347V32.1816H19.7822ZM21.555 7.42134V10.1903H19.8073V7.42134H21.555ZM21.555 10.1889V12.9485H19.8073V10.1889H21.555ZM21.555 12.9195V15.6874H19.8073V12.9195H21.555ZM21.555 15.6966V18.4604H19.8073V15.6964L21.555 15.6966ZM21.555 18.4269V21.1949H19.8073V18.4271L21.555 18.4269ZM21.555 21.1992V23.963H19.8073V21.1992H21.555ZM21.555 23.9436V26.7073H19.8073V23.9436H21.555ZM21.555 26.6742V29.4403H19.8073V26.6742H21.555ZM21.555 29.4511V32.2159H19.8073V29.4511H21.555ZM21.555 32.1816V34.9443H19.8073V32.1816H21.555ZM23.3366 7.42134V10.1903H21.5891V7.42134H23.3366ZM23.3366 10.1889V12.9485H21.5891V10.1889H23.3366ZM23.3366 12.9195V15.6874H21.5891V12.9195H23.3366ZM23.3366 15.6966V18.4604H21.5891V15.6964L23.3366 15.6966ZM23.3366 18.4269V21.1949H21.5891V18.4271L23.3366 18.4269ZM23.3366 21.1992V23.963H21.5891V21.1992H23.3366ZM23.3366 23.9436V26.7073H21.5891V23.9436H23.3366ZM23.3366 26.6742V29.4403H21.5891V26.6742H23.3366ZM23.3366 29.4511V32.2159H21.5891V29.4511H23.3366ZM23.3366 32.1816V34.9443H21.5891V32.1816H23.3366ZM25.1127 4.67688V7.44175H23.3755V4.67688H25.1127ZM25.1127 7.42134V10.1903H23.3755V7.42134H25.1127ZM25.1127 10.1889V12.9485H23.3755V10.1889H25.1127ZM25.1127 12.9195V15.6874H23.3755V12.9195H25.1127ZM25.1127 15.6966V18.4604H23.3755V15.6964L25.1127 15.6966ZM25.1127 18.4269V21.1949H23.3755V18.4271L25.1127 18.4269ZM25.1127 21.1992V23.963H23.3755V21.1992H25.1127ZM25.1127 23.9436V26.7073H23.3755V23.9436H25.1127ZM25.1127 26.6742V29.4403H23.3755V26.6742H25.1127ZM25.1127 29.4511V32.2159H23.3755V29.4511H25.1127ZM25.1127 32.1816V34.9443H23.3755V32.1816H25.1127ZM27.0023 4.67688V7.44175H25.2545V4.67688H27.0023ZM27.0023 7.42134V10.1903H25.2545V7.42134H27.0023ZM27.0023 10.1889V12.9485H25.2545V10.1889H27.0023ZM27.0023 12.9195V15.6874H25.2545V12.9195H27.0023ZM27.0023 15.6966V18.4604H25.2545V15.6964L27.0023 15.6966ZM27.0023 18.4269V21.1949H25.2545V18.4271L27.0023 18.4269ZM27.0023 21.1992V23.963H25.2545V21.1992H27.0023ZM27.0023 23.9436V26.7073H25.2545V23.9436H27.0023ZM27.0023 26.6742V29.4403H25.2545V26.6742H27.0023ZM27.0023 29.4511V32.2159H25.2545V29.4511H27.0023ZM28.673 4.67688V7.44175H26.9253V4.67688H28.673ZM28.673 7.42134V10.1903H26.9253V7.42134H28.673ZM28.673 10.1889V12.9485H26.9253V10.1889H28.673ZM28.673 12.9195V15.6874H26.9253V12.9195H28.673ZM28.673 15.6966V18.4604H26.9253V15.6964L28.673 15.6966ZM28.673 18.4269V21.1949H26.9253V18.4271L28.673 18.4269ZM28.673 21.1992V23.963H26.9253V21.1992H28.673ZM28.673 23.9436V26.7073H26.9253V23.9436H28.673ZM28.673 26.6742V29.4403H26.9253V26.6742H28.673ZM28.673 29.4511V32.2159H26.9253V29.4511H28.673ZM30.5564 7.42134V10.1903H28.8089V7.42134H30.5564ZM30.5564 10.1889V12.9485H28.8089V10.1889H30.5564ZM30.5564 12.9195V15.6874H28.8089V12.9195H30.5564ZM30.5564 15.6966V18.4604H28.8089V15.6964L30.5564 15.6966ZM30.5564 18.4269V21.1949H28.8089V18.4271L30.5564 18.4269ZM30.5564 21.1992V23.963H28.8089V21.1992H30.5564ZM30.5564 23.9436V26.7073H28.8089V23.9436H30.5564ZM30.5564 26.6742V29.4403H28.8089V26.6742H30.5564ZM32.3336 10.1889V12.9485H30.5861V10.1889H32.3336ZM32.3336 12.9195V15.6874H30.5861V12.9195H32.3336ZM32.3336 15.6966V18.4604H30.5861V15.6964L32.3336 15.6966ZM32.3336 18.4269V21.1949H30.5861V18.4271L32.3336 18.4269ZM32.3336 21.1992V23.963H30.5861V21.1992H32.3336ZM32.3336 23.9436V26.7073H30.5861V23.9436H32.3336ZM32.3336 26.6742V29.4403H30.5861V26.6742H32.3336ZM34.1188 12.9195V15.6874H32.3818V12.9195H34.1188ZM34.1188 15.6966V18.4604H32.3818V15.6964L34.1188 15.6966ZM34.1188 18.4269V21.1949H32.3818V18.4271L34.1188 18.4269ZM34.1188 21.1992V23.963H32.3818V21.1992H34.1188Z" stroke="#878888" stroke-width="0.338512"/>
<path d="M29.5395 15.38C27.3417 15.38 25.6465 16.5353 25.6465 18.5383C25.6465 20.2336 27.2163 21.4204 29.2884 21.4204C30.8582 21.4204 32.1139 20.2839 32.4908 19.568C32.4908 19.3483 32.3024 19.2542 32.0511 19.2542C31.7372 19.8066 30.7326 20.2338 30.293 20.2149C27.7814 20.1208 27.4045 19.1224 27.3418 18.0737C27.2792 16.9371 28.5349 15.9515 29.6023 16.0267C30.1675 16.0706 30.4186 17.069 30.9208 17.4331C31.1092 17.5211 31.486 17.5085 31.7373 17.4583C31.9256 17.4331 32.4908 17.3139 32.4908 16.8617C32.4908 16.485 31.9884 16.0704 31.5489 15.8006C31.1092 15.5935 30.1047 15.38 29.5395 15.38Z" fill="#030303"/>
<path d="M14.7848 19.7201C14.7848 20.6494 14.5964 21.1392 13.8428 21.1832V21.3338C15.0988 21.3213 16.3546 21.3338 17.6104 21.3025V21.2271C17.0454 21.2271 16.6057 20.6307 16.6057 19.8834V17.3906C16.6057 16.7752 17.3593 16.3858 17.8615 16.4298C18.6151 16.5051 19.0546 17.0139 19.0546 17.4596V19.9147C19.0546 20.6619 18.8663 21.1267 18.3012 21.1707V21.3025H21.6918V21.202C21.1896 21.1392 20.8127 20.6746 20.8127 19.9713V17.4031C20.8127 16.8506 21.3151 16.48 22.1941 16.4614C22.9476 16.4425 23.3872 17.0012 23.3872 17.5224V19.8519C23.3872 20.6493 23.1359 21.1391 22.5081 21.2019V21.3023C23.7637 21.3212 24.8314 21.3212 26.0871 21.3023V21.227C25.3963 21.227 25.2081 20.7937 25.2081 19.8833V17.3153C25.2081 16.4614 24.7057 15.4441 23.3872 15.4441C22.508 15.4441 21.8802 15.8773 21.5034 15.9966C21.2522 16.1033 21.0638 16.2226 21.0012 16.2226C20.8754 16.2226 20.7499 16.1473 20.6244 15.9653C20.3105 15.6387 19.7453 15.4441 19.1173 15.4441C18.364 15.4441 17.6104 15.8773 17.2336 15.9966C17.1708 16.0155 16.9196 16.1473 16.9196 16.1473C16.8569 16.1473 16.6057 16.1473 16.6057 16.1159C16.6057 15.4001 16.6685 15.758 16.6057 15.2494H16.1034C15.9779 15.2494 15.7268 15.5195 15.4127 15.6387C15.036 15.7894 14.3452 15.7705 14.0312 15.8458V16.3546L14.8477 16.5052V17.4911L14.7848 19.7201Z" fill="#030303"/>
<path d="M11.4574 21.3195C12.776 21.2567 14.0318 20.9741 14.0318 19.7058C14.0318 18.7765 13.0272 18.1926 11.9599 17.7278C11.2692 17.4453 10.2645 17.0309 10.2645 16.6981C10.2645 16.3087 11.018 15.5616 11.7086 16.1581L13.0273 17.2193L13.5925 17.0999L13.2784 15.5177C12.9645 15.5303 12.7761 15.549 11.6458 15.367C10.3273 15.1723 8.69479 15.8442 8.69479 17.0999C8.69479 17.9413 9.9506 18.5253 10.8924 18.9083C11.3947 19.1344 12.3364 19.4672 12.3364 19.9695C12.3364 20.4655 11.4574 20.6037 10.9551 20.6037C10.1388 20.6037 9.19699 19.4797 9.19699 19.4797H8.63191L8.94583 21.1563C9.07135 21.0621 9.44815 21.0747 9.51091 21.1123C9.76207 21.2128 10.7667 21.3634 11.4574 21.3195ZM8.25511 16.2335V15.4548L6.62263 15.4737C6.43423 15.4737 6.43423 15.4298 6.43423 15.1598V14.0985L5.61787 14.0859C5.36683 14.651 5.05279 15.0215 4.92727 15.0969L3.35742 15.7687V16.2522L3.92238 16.2649C4.17354 16.2649 4.29918 16.2522 4.29918 16.5473V19.7057C4.29918 20.66 4.80138 21.3634 6.18282 21.3947C7.18747 21.4198 7.81543 20.9739 8.25487 20.5532L8.12947 20.1514C7.94107 20.2707 7.75255 20.3775 7.56439 20.3775C6.37135 20.3775 6.43411 19.4795 6.43411 18.6821V16.5475C6.43411 16.2335 6.43411 16.2335 6.68514 16.2335H8.25511Z" fill="#030303"/>
</g>
<defs>
<clipPath id="clip0_11795_279220">
<rect width="36" height="36" rx="18" fill="white"/>
</clipPath>
</defs>
</svg>
