<svg xmlns="http://www.w3.org/2000/svg" width="42" height="42" fill="none"><circle cx="21" cy="21" r="20" fill="#7AC7BC"/><path fill="#F3F3F3" d="M19.378 17.322H15.04a2.582 2.582 0 0 1 2.582-2.582h8.468a2.582 2.582 0 0 1-2.582 2.582h-1.549v7.744a2.582 2.582 0 0 1-2.581 2.582V17.322Z"/><path fill="#F3F3F3" d="M11.117 10.609c-7.434 7.022-2.064 17.038 2.066 18.587-3.825-3.613-5.783-10.74 0-16.522 5.783-5.783 14.972-2.58 19.62 1.033-2.582-5.163-14.251-10.12-21.685-3.098Z"/><path fill="#F3F3F3" d="M29.705 31.78c7.434-7.022 2.065-17.038-2.066-18.587 3.826 3.613 5.783 10.74 0 16.522-5.783 5.783-14.972 2.58-19.62-1.033 2.582 5.162 14.252 10.12 21.686 3.098Z"/></svg>