<svg width="42" height="42" viewBox="0 0 42 42" fill="none" xmlns="http://www.w3.org/2000/svg">
<circle cx="21" cy="21" r="20" fill="#7AC7BC"/>
<path d="M19.3775 17.3218H15.0405C15.0405 15.896 16.1963 14.7402 17.6221 14.7402H26.0895C26.0895 16.166 24.9337 17.3218 23.508 17.3218H21.9591V25.0664C21.9591 26.4922 20.8033 27.648 19.3775 27.648V17.3218Z" fill="#F3F3F3"/>
<path d="M11.1175 10.6087C3.68301 17.6309 9.05266 27.6471 13.1831 29.1962C9.35769 25.5828 7.40041 18.4564 13.1831 12.6736C18.9658 6.89093 28.1553 10.0935 32.8028 13.7069C30.2214 8.54448 18.5515 3.587 11.1175 10.6087Z" fill="#F3F3F3"/>
<path d="M29.7048 31.78C37.1393 24.7578 31.7696 14.7416 27.6391 13.1925C31.4646 16.8059 33.4219 23.9323 27.6391 29.715C21.8564 35.4977 12.667 32.2951 8.01946 28.6817C10.6009 33.8442 22.2708 38.8017 29.7048 31.78Z" fill="#F3F3F3"/>
</svg>
