<svg width="42" height="42" viewBox="0 0 42 42" fill="none" xmlns="http://www.w3.org/2000/svg">
<g clip-path="url(#clip0_4532_197090)">
<path d="M41.9979 20.9989C41.9979 9.40155 32.5963 0 20.9989 0C9.40155 0 0 9.40155 0 20.9989C0 32.5963 9.40155 41.9979 20.9989 41.9979C32.5963 41.9979 41.9979 32.5963 41.9979 20.9989Z" fill="url(#paint0_linear_4532_197090)"/>
<path d="M20.9989 41.9979C32.5962 41.9979 41.9979 32.5962 41.9979 20.9989C41.9979 9.4017 32.5962 0 20.9989 0C9.4017 0 0 9.4017 0 20.9989C0 32.5962 9.4017 41.9979 20.9989 41.9979Z" fill="url(#paint1_linear_4532_197090)"/>
<path d="M8.45312 13.068L21.0035 9.02344V37.022C12.0405 33.2889 8.45429 26.133 8.45429 22.0894L8.45312 13.068Z" fill="#0500FF"/>
<path d="M33.5481 13.068L21 9.02344V37.022C29.9642 33.2889 33.5493 26.133 33.5493 22.0894L33.5481 13.068Z" fill="url(#paint2_linear_4532_197090)"/>
</g>
<defs>
<linearGradient id="paint0_linear_4532_197090" x1="20.9989" y1="0" x2="20.9989" y2="41.9979" gradientUnits="userSpaceOnUse">
<stop stop-color="#404141"/>
<stop offset="1" stop-color="#222222"/>
</linearGradient>
<linearGradient id="paint1_linear_4532_197090" x1="20.9989" y1="0" x2="20.9989" y2="41.9979" gradientUnits="userSpaceOnUse">
<stop stop-color="white"/>
<stop offset="1" stop-color="#BBE0FC"/>
</linearGradient>
<linearGradient id="paint2_linear_4532_197090" x1="30.215" y1="7.06236" x2="20.8798" y2="36.6849" gradientUnits="userSpaceOnUse">
<stop offset="0.02" stop-color="#0000FF"/>
<stop offset="0.08" stop-color="#0094FF"/>
<stop offset="0.16" stop-color="#48FF91"/>
<stop offset="0.42" stop-color="#0094FF"/>
<stop offset="0.68" stop-color="#0038FF"/>
<stop offset="0.9" stop-color="#0500FF"/>
</linearGradient>
<clipPath id="clip0_4532_197090">
<rect width="42" height="42" fill="white"/>
</clipPath>
</defs>
</svg>
