<svg xmlns="http://www.w3.org/2000/svg" width="36" height="36" fill="none"><path fill="#DDD" d="M18 36c9.941 0 18-8.059 18-18S27.941 0 18 0 0 8.059 0 18s8.059 18 18 18Z"/><path fill="url(#a)" d="M18 36c9.941 0 18-8.059 18-18S27.941 0 18 0 0 8.059 0 18s8.059 18 18 18Z"/><path fill="#0500FF" d="M7.242 11.18 18 7.713v24c-7.683-3.2-10.757-9.334-10.757-12.8V11.18Z"/><path fill="url(#b)" d="M28.756 11.18 18 7.713v24c7.684-3.2 10.757-9.334 10.757-12.8V11.18Z"/><defs><linearGradient id="a" x1="18" x2="18" y1="0" y2="36" gradientUnits="userSpaceOnUse"><stop stop-color="#fff"/><stop offset="1" stop-color="#BBE0FC"/></linearGradient><linearGradient id="b" x1="25.899" x2="17.897" y1="6.032" y2="31.424" gradientUnits="userSpaceOnUse"><stop offset=".02" stop-color="#00F"/><stop offset=".08" stop-color="#0094FF"/><stop offset=".16" stop-color="#48FF91"/><stop offset=".42" stop-color="#0094FF"/><stop offset=".68" stop-color="#0038FF"/><stop offset=".9" stop-color="#0500FF"/></linearGradient></defs></svg>