<svg xmlns="http://www.w3.org/2000/svg" width="36" height="36" fill="none"><g clip-path="url(#a)"><g clip-path="url(#b)"><rect width="36" height="36" fill="#F5F5F5" rx="18"/><path fill="#F3F3F3" d="M18 36c9.941 0 18-8.059 18-18S27.941 0 18 0 0 8.059 0 18s8.059 18 18 18Z"/><path fill="url(#c)" d="M18 36c9.941 0 18-8.059 18-18S27.941 0 18 0 0 8.059 0 18s8.059 18 18 18Z" opacity=".2"/><path fill="#DF2D2D" d="M5.105 20.083c.123.327.294.606.512.838.218.232.476.41.774.533.298.123.623.185.973.185.341 0 .661-.064.96-.192.298-.128.558-.308.781-.54.223-.232.396-.51.519-.831.123-.322.184-.682.184-1.08v-6.139H11.3v9.947H9.823v-.924c-.332.35-.723.62-1.173.81-.45.19-.935.284-1.456.284-.53 0-1.026-.092-1.485-.277a3.476 3.476 0 0 1-1.194-.788 3.72 3.72 0 0 1-.795-1.23 4.213 4.213 0 0 1-.292-1.598v-6.224H4.92v6.139c0 .398.062.76.185 1.087Zm8.767-7.226v3.624a3.8 3.8 0 0 1 1.151-.789 3.45 3.45 0 0 1 1.421-.291 3.811 3.811 0 0 1 2.7 1.108 3.813 3.813 0 0 1 1.108 2.686c0 .52-.1 1.011-.298 1.47-.2.46-.47.86-.81 1.201a3.811 3.811 0 0 1-2.7 1.108 3.5 3.5 0 0 1-1.428-.29 3.775 3.775 0 0 1-1.158-.79v.91h-1.421v-9.947h1.435Zm.164 7.318c.127.303.305.569.532.796.228.227.493.407.796.54.303.133.63.199.98.199.342 0 .664-.067.967-.2.303-.132.566-.312.788-.54.223-.226.4-.492.533-.795.133-.303.2-.63.2-.98s-.067-.68-.2-.988a2.61 2.61 0 0 0-.533-.803 2.46 2.46 0 0 0-1.755-.725 2.475 2.475 0 0 0-1.762.725 2.548 2.548 0 0 0-.54.803 2.47 2.47 0 0 0-.198.988c0 .35.064.677.192.98Zm7.026-2.444c.19-.455.45-.855.781-1.2a3.631 3.631 0 0 1 2.658-1.116c.52 0 1.004.095 1.449.284.445.19.829.453 1.15.789.323.336.574.734.754 1.194.18.459.27.959.27 1.499v.468h-5.897a2.464 2.464 0 0 0 .817 1.47c.213.186.455.33.725.434.27.105.556.157.86.157.861 0 1.558-.355 2.088-1.066l1.038.767c-.36.484-.806.862-1.336 1.137s-1.127.412-1.79.412a4 4 0 0 1-1.514-.284 3.686 3.686 0 0 1-2.039-1.996 3.732 3.732 0 0 1-.298-1.5c0-.511.095-.994.284-1.449Zm1.996-.561c-.402.336-.67.784-.802 1.343h4.419c-.123-.56-.386-1.007-.789-1.343a2.138 2.138 0 0 0-1.414-.505c-.54 0-1.011.169-1.414.505Zm7.751.163c-.303.332-.454.782-.454 1.35v4.121h-1.436v-7.247h1.421v.895a2.02 2.02 0 0 1 .704-.696c.289-.17.632-.256 1.03-.256h.497v1.336h-.596c-.474 0-.863.166-1.166.497Z"/></g></g><defs><clipPath id="a"><path fill="#fff" d="M0 0h36v36H0z"/></clipPath><clipPath id="b"><rect width="36" height="36" fill="#fff" rx="18"/></clipPath><linearGradient id="c" x1="18.118" x2="18" y1="13.151" y2="36" gradientUnits="userSpaceOnUse"><stop stop-color="#fff"/><stop offset="1" stop-color="#4F4F4F"/></linearGradient></defs></svg>