<svg width="42" height="42" viewBox="0 0 42 42" fill="none" xmlns="http://www.w3.org/2000/svg">
<rect width="42" height="42" rx="21" fill="#F563EF"/>
<path d="M5.95614 23.5273C6.09982 23.9086 6.29874 24.2347 6.55294 24.5054C6.80714 24.7762 7.10829 24.9834 7.4564 25.1271C7.80454 25.2707 8.18305 25.3426 8.59197 25.3426C8.98986 25.3426 9.36283 25.268 9.71097 25.1187C10.0591 24.9695 10.363 24.7596 10.6227 24.4888C10.8824 24.218 11.0841 23.8948 11.2278 23.519C11.3715 23.1433 11.4433 22.7233 11.4433 22.2591V15.0977H13.1839V26.7019H11.4599V25.6244C11.0731 26.0332 10.6172 26.3482 10.0922 26.5693C9.56725 26.7903 9.0009 26.9008 8.39305 26.9008C7.77413 26.9008 7.19669 26.7931 6.66067 26.5776C6.12469 26.3621 5.66049 26.0554 5.26818 25.6575C4.87587 25.2596 4.56639 24.7817 4.33985 24.2236C4.11327 23.6655 4 23.0438 4 22.3586V15.0977H5.74063V22.2591C5.74063 22.7233 5.81246 23.146 5.95614 23.5273ZM16.1843 15.0977V19.3249C16.5711 18.9381 17.0187 18.6315 17.5271 18.4049C18.0355 18.1783 18.5881 18.065 19.1848 18.065C19.8038 18.065 20.3839 18.181 20.9255 18.4131C21.467 18.6452 21.9367 18.9602 22.3346 19.3581C22.7324 19.7559 23.0474 20.2256 23.2795 20.7671C23.5116 21.3087 23.6276 21.8834 23.6276 22.4912C23.6276 23.099 23.5116 23.671 23.2795 24.207C23.0474 24.743 22.7324 25.2099 22.3346 25.6077C21.9367 26.0056 21.467 26.3206 20.9255 26.5527C20.3839 26.7848 19.8037 26.9008 19.1848 26.9008C18.588 26.9008 18.0327 26.7875 17.5188 26.5609C17.0049 26.3344 16.5545 26.0277 16.1677 25.6409V26.7019H14.51V15.0977H16.1843ZM16.375 23.6351C16.5241 23.9887 16.7314 24.2982 16.9966 24.5634C17.2619 24.8287 17.5713 25.0387 17.925 25.1934C18.2786 25.3481 18.6599 25.4255 19.0688 25.4255C19.4667 25.4255 19.8424 25.3481 20.1961 25.1934C20.5497 25.0387 20.8564 24.8287 21.1162 24.5634C21.3759 24.2982 21.5831 23.9887 21.7378 23.6351C21.8925 23.2814 21.9699 22.9002 21.9699 22.4912C21.9699 22.0823 21.8925 21.6983 21.7378 21.3391C21.5831 20.9799 21.3759 20.6677 21.1162 20.4025C20.8564 20.1373 20.5498 19.93 20.1961 19.7808C19.8424 19.6316 19.4667 19.557 19.0688 19.557C18.671 19.557 18.2952 19.6316 17.9416 19.7808C17.5879 19.93 17.2785 20.1373 17.0132 20.4025C16.748 20.6677 16.538 20.9799 16.3833 21.3391C16.2286 21.6983 16.1512 22.0823 16.1512 22.4912C16.1512 22.9002 16.2258 23.2814 16.375 23.6351ZM24.5724 20.7838C24.7934 20.2533 25.0973 19.7864 25.4841 19.383C25.8709 18.9796 26.3296 18.6619 26.8601 18.4298C27.3905 18.1977 27.9652 18.0817 28.5841 18.0817C29.192 18.0817 29.7556 18.1922 30.275 18.4132C30.7945 18.6342 31.242 18.9409 31.6178 19.3333C31.9936 19.7256 32.2865 20.1898 32.4964 20.7258C32.7064 21.2618 32.8114 21.8448 32.8114 22.4747V23.0218H25.9317C25.987 23.3644 26.0975 23.6821 26.2633 23.9749C26.4291 24.2678 26.6363 24.522 26.8849 24.7375C27.1336 24.9531 27.4154 25.1216 27.7304 25.2431C28.0454 25.3647 28.3797 25.4255 28.7333 25.4255C29.7391 25.4255 30.5514 25.011 31.1703 24.1822L32.3804 25.0773C31.9604 25.641 31.441 26.0831 30.8221 26.4035C30.2032 26.724 29.507 26.8843 28.7334 26.8843C28.1034 26.8843 27.5149 26.7737 26.9679 26.5527C26.4208 26.3317 25.9456 26.0222 25.5422 25.6244C25.1388 25.2265 24.8211 24.7596 24.589 24.2236C24.3569 23.6876 24.2409 23.1046 24.2409 22.4747C24.2408 21.8779 24.3514 21.3142 24.5724 20.7838ZM26.9015 20.1289C26.4318 20.5213 26.1196 21.0435 25.9649 21.6955H31.1205C30.9768 21.0435 30.6701 20.5213 30.2004 20.1289C29.7307 19.7366 29.1809 19.5404 28.551 19.5404C27.921 19.5404 27.3712 19.7366 26.9015 20.1289ZM35.9444 20.3196C35.5908 20.7064 35.4139 21.2313 35.4139 21.8944V26.7019H33.7396V18.2474H35.3973V19.2918C35.6073 18.9492 35.8809 18.6784 36.2179 18.4795C36.555 18.2805 36.9556 18.181 37.4198 18.181H38V19.7393H37.3038C36.7512 19.7394 36.2981 19.9328 35.9444 20.3196Z" fill="#030303"/>
</svg>
