<svg width="42" height="42" viewBox="0 0 42 42" fill="none" xmlns="http://www.w3.org/2000/svg">
<g clip-path="url(#clip0_4532_197095)">
<mask id="mask0_4532_197095" style="mask-type:luminance" maskUnits="userSpaceOnUse" x="0" y="0" width="42" height="42">
<path d="M0 0H42V42H0V0Z" fill="white"/>
</mask>
<g mask="url(#mask0_4532_197095)">
<mask id="mask1_4532_197095" style="mask-type:luminance" maskUnits="userSpaceOnUse" x="0" y="0" width="42" height="42">
<path d="M42 21C42 9.40202 32.598 0 21 0C9.40202 0 0 9.40202 0 21C0 32.598 9.40202 42 21 42C32.598 42 42 32.598 42 21Z" fill="white"/>
</mask>
<g mask="url(#mask1_4532_197095)">
<path d="M42 21C42 9.40202 32.598 0 21 0C9.40202 0 0 9.40202 0 21C0 32.598 9.40202 42 21 42C32.598 42 42 32.598 42 21Z" fill="#F5F5F5"/>
<path d="M21 42C32.5978 42 42 32.5978 42 21C42 9.40217 32.5978 0 21 0C9.40217 0 0 9.40217 0 21C0 32.5978 9.40217 42 21 42Z" fill="#F3F3F3"/>
<path opacity="0.2" d="M21 42C32.5978 42 42 32.5978 42 21C42 9.40217 32.5978 0 21 0C9.40217 0 0 9.40217 0 21C0 32.5978 9.40217 42 21 42Z" fill="url(#paint0_linear_4532_197095)"/>
<path d="M5.97256 23.446C6.11606 23.8275 6.31556 24.153 6.56989 24.4236C6.82422 24.6943 7.12522 24.902 7.47289 25.0455C7.82056 25.189 8.19972 25.2613 8.60806 25.2613C9.00589 25.2613 9.37923 25.1866 9.72806 25.0373C10.0757 24.888 10.3791 24.678 10.6392 24.4073C10.8994 24.1366 11.1012 23.8123 11.2447 23.4378C11.3882 23.0621 11.4594 22.6421 11.4594 22.1778V15.0156H13.2001V26.6205H11.4769V25.5425C11.0896 25.9508 10.6334 26.2658 10.1084 26.4875C9.58339 26.7091 9.01756 26.8188 8.40972 26.8188C7.79139 26.8188 7.21272 26.7115 6.67722 26.4956C6.15417 26.2891 5.67979 25.976 5.28422 25.5763C4.88302 25.1641 4.56775 24.6764 4.35672 24.1413C4.1233 23.5478 4.00759 22.9146 4.01606 22.277V15.0156H5.75672V22.1778C5.75672 22.6421 5.82906 23.0645 5.97256 23.446ZM16.2007 15.0156V19.2436C16.5877 18.8565 17.043 18.5444 17.5436 18.3231C18.0659 18.0938 18.631 17.978 19.2014 17.9836C19.7856 17.9816 20.3645 18.0947 20.905 18.3165C21.4455 18.5383 21.937 18.8644 22.3514 19.2763C23.179 20.1093 23.6436 21.2357 23.6441 22.41C23.6441 23.0166 23.5274 23.5895 23.2964 24.125C23.0631 24.6616 22.7481 25.1283 22.3514 25.5261C21.937 25.938 21.4455 26.2641 20.905 26.4859C20.3645 26.7077 19.7856 26.8209 19.2014 26.8188C18.6285 26.8241 18.0608 26.7089 17.5354 26.4805C17.0315 26.2603 16.5732 25.9477 16.1844 25.5588V26.6205H14.5266V15.0156H16.2007ZM16.3921 23.5533C16.5402 23.9068 16.7479 24.2171 17.0127 24.482C17.2787 24.7468 17.5879 24.9568 17.9414 25.112C18.2949 25.2671 18.6764 25.3441 19.0847 25.3441C19.4837 25.3441 19.8594 25.266 20.2129 25.1108C20.5664 24.9568 20.8732 24.7468 21.1322 24.4808C21.3924 24.2171 21.5989 23.9068 21.7541 23.5533C21.9092 23.1998 21.9874 22.8183 21.9874 22.41C21.9874 22.0016 21.9092 21.6166 21.7541 21.2573C21.6067 20.9091 21.3959 20.5914 21.1322 20.3205C20.864 20.0508 20.5449 19.8372 20.1934 19.692C19.8419 19.5468 19.465 19.4729 19.0847 19.4746C18.7032 19.4728 18.3251 19.5466 17.9722 19.6918C17.6194 19.837 17.2988 20.0506 17.0291 20.3205C16.7611 20.5896 16.5473 20.9076 16.3991 21.2573C16.2437 21.6216 16.165 22.0139 16.1681 22.41C16.1681 22.8183 16.2427 23.1998 16.3921 23.5533ZM24.5891 20.702C24.8107 20.1711 25.1141 19.7045 25.5002 19.302C25.9008 18.8847 26.3827 18.5539 26.916 18.33C27.4493 18.1061 28.0228 17.9938 28.6012 18C29.2079 18 29.7726 18.1108 30.2917 18.3313C30.8109 18.553 31.2589 18.8598 31.6334 19.2518C32.0102 19.6438 32.3031 20.1081 32.5131 20.6448C32.7231 21.1803 32.8281 21.7636 32.8281 22.3936V22.9396H25.9482C26.055 23.6054 26.3924 24.2124 26.9014 24.6546C27.1499 24.8716 27.4322 25.0396 27.7472 25.161C28.0622 25.2835 28.3959 25.3441 28.7506 25.3441C29.7551 25.3441 30.5682 24.93 31.1866 24.1005L32.3976 24.9953C31.9776 25.56 31.4572 26.001 30.8389 26.3218C30.2206 26.6426 29.5241 26.8025 28.7506 26.8025C28.1459 26.8075 27.546 26.695 26.9842 26.4711C26.4529 26.2605 25.9688 25.9461 25.5603 25.5463C25.1519 25.1465 24.8273 24.6692 24.6054 24.1425C24.3699 23.5894 24.2516 22.9935 24.2577 22.3925C24.2577 21.7963 24.3686 21.2328 24.5891 20.702ZM26.9177 20.0475C26.4487 20.4395 26.1361 20.9621 25.9821 21.6143H31.1376C30.9941 20.961 30.6872 20.4395 30.2171 20.0475C29.7565 19.6581 29.1704 19.4488 28.5674 19.4583C27.9374 19.4583 27.3879 19.6555 26.9177 20.0475ZM35.9606 20.2376C35.6071 20.625 35.4309 21.15 35.4309 21.8126V26.6205H33.7556V18.1656H35.4134V19.2098C35.6156 18.8752 35.8978 18.5961 36.2347 18.3978C36.5719 18.1995 36.9721 18.0991 37.4364 18.0991H38.0162V19.6578H37.3209C36.7679 19.6578 36.3141 19.8515 35.9606 20.2376Z" fill="#DF2D2D"/>
</g>
</g>
</g>
<defs>
<linearGradient id="paint0_linear_4532_197095" x1="21.1377" y1="15.3428" x2="21" y2="42" gradientUnits="userSpaceOnUse">
<stop stop-color="white"/>
<stop offset="1" stop-color="#4F4F4F"/>
</linearGradient>
<clipPath id="clip0_4532_197095">
<rect width="42" height="42" fill="white"/>
</clipPath>
</defs>
</svg>
