<svg width="42" height="42" viewBox="0 0 42 42" fill="none" xmlns="http://www.w3.org/2000/svg">
<rect width="42" height="42" rx="21" fill="#222222"/>
<path d="M20.4883 6.99219L10.7373 21.4598L20.4883 26.6132V6.99219Z" fill="url(#paint0_linear_8440_203813)"/>
<path d="M21.5107 6.99219L31.2617 21.4598L21.5107 26.6132V6.99219Z" fill="url(#paint1_linear_8440_203813)"/>
<path d="M21.5107 26.609L31.2631 21.4556L21.5107 17.4922V26.609Z" fill="#0E322D"/>
<path d="M10.7373 21.4556L20.4883 26.609V17.4922L10.7373 21.4556Z" fill="#0B5B3E"/>
<path d="M20.5347 35.0086V27.7566L10.8467 22.5234L20.5347 35.0086Z" fill="url(#paint2_linear_8440_203813)"/>
<path d="M21.5107 35.0086V27.7566L31.1987 22.5234L21.5107 35.0086Z" fill="url(#paint3_linear_8440_203813)"/>
<defs>
<linearGradient id="paint0_linear_8440_203813" x1="19.2493" y1="10.6476" x2="8.7017" y2="15.0576" gradientUnits="userSpaceOnUse">
<stop stop-color="#00FF84"/>
<stop offset="1" stop-color="#2EBAC6"/>
</linearGradient>
<linearGradient id="paint1_linear_8440_203813" x1="22.7497" y1="10.6476" x2="33.2973" y2="15.0576" gradientUnits="userSpaceOnUse">
<stop stop-color="#00FF84"/>
<stop offset="1" stop-color="#2EBAC6"/>
</linearGradient>
<linearGradient id="paint2_linear_8440_203813" x1="19.3027" y1="24.8488" x2="10.6717" y2="30.4838" gradientUnits="userSpaceOnUse">
<stop stop-color="#00FF84"/>
<stop offset="1" stop-color="#2EBAC6"/>
</linearGradient>
<linearGradient id="paint3_linear_8440_203813" x1="22.7427" y1="24.8488" x2="31.3737" y2="30.4838" gradientUnits="userSpaceOnUse">
<stop stop-color="#00FF84"/>
<stop offset="1" stop-color="#2EBAC6"/>
</linearGradient>
</defs>
</svg>
