<svg xmlns="http://www.w3.org/2000/svg" width="42" height="42" fill="none"><rect width="42" height="42" fill="#FF4A4A" rx="21"/><path fill="#F3F3F3" d="M25.832 25.259h-1.444a.5.5 0 0 1-.499-.499v-3.786l-2.54 1.594a.698.698 0 0 1-.698 0l-2.515-1.594v3.811a.5.5 0 0 1-.499.498h-1.444a.5.5 0 0 1-.499-.498v-7.348c0-.373.3-.647.648-.647.125 0 .25.05.374.124l4.01 2.74c.174.125.399.125.548 0l4.01-2.74a.677.677 0 0 1 1.047.548v7.323c-.025.25-.225.474-.499.474ZM13.527 25.209H4.585a.66.66 0 0 1-.647-.648v-7.348a.5.5 0 0 1 .498-.498H5.88a.5.5 0 0 1 .499.498v5.58h5.405v-5.58a.5.5 0 0 1 .498-.498h1.445a.5.5 0 0 1 .498.498v7.348c-.05.349-.324.648-.698.648ZM28.473 16.715h8.942a.66.66 0 0 1 .648.648v7.348a.5.5 0 0 1-.499.498H36.12a.5.5 0 0 1-.499-.498v-5.256a.33.33 0 0 0-.323-.324H30.54a.33.33 0 0 0-.324.324v5.256a.5.5 0 0 1-.498.498h-1.445a.5.5 0 0 1-.498-.498v-7.348c.05-.35.324-.648.698-.648Z"/><path fill="#F3F3F3" d="M31.736 21.174v1.444c0 .274.224.474.498.474h1.445c.274 0 .498-.225.498-.474v-1.444c0-.274-.224-.474-.498-.474h-1.445c-.274 0-.498.2-.498.474Z"/></svg>