<svg xmlns="http://www.w3.org/2000/svg" width="42" height="42" fill="none"><circle cx="21" cy="21" r="21" fill="#E7337A"/><path fill="#F3F3F3" d="M17.68 13.061c-.334-.048-.35-.063-.19-.08.302-.047 1.004.017 1.498.128 1.147.27 2.184.97 3.283 2.196l.287.334.415-.064c1.769-.286 3.586-.064 5.1.636.415.191 1.068.573 1.148.669.032.031.08.238.111.445.112.748.064 1.305-.175 1.734-.128.239-.128.302-.048.51.064.159.255.27.43.27.383 0 .781-.605.973-1.448l.08-.334.143.159c.813.907 1.45 2.164 1.546 3.055l.032.238-.144-.206c-.239-.366-.462-.605-.765-.812-.542-.366-1.115-.477-2.63-.557-1.37-.08-2.151-.19-2.916-.445-1.308-.43-1.977-.987-3.523-3.039-.685-.907-1.116-1.4-1.546-1.814-.94-.907-1.88-1.384-3.108-1.575Z"/><path fill="#F3F3F3" d="M29.555 15.08c.032-.604.112-1.002.287-1.368.064-.143.128-.27.144-.27.016 0-.016.111-.064.238-.127.35-.143.844-.064 1.4.112.716.16.812.925 1.591.35.366.765.828.924 1.019l.271.35-.27-.255c-.335-.318-1.1-.923-1.276-1.002-.111-.064-.127-.064-.207.016-.064.063-.08.159-.08.62-.016.716-.111 1.162-.35 1.623-.128.239-.144.19-.032-.08.08-.206.095-.302.095-.986 0-1.384-.159-1.718-1.131-2.275-.24-.143-.654-.35-.893-.462-.255-.11-.446-.206-.43-.206.032-.032.972.238 1.339.397.558.223.653.24.717.223.048-.048.08-.175.095-.573ZM18.335 17.45c-.67-.923-1.1-2.355-1.004-3.421l.032-.334.159.031c.287.048.78.24 1.02.382.638.382.924.907 1.195 2.212.08.382.192.827.24.97.08.239.382.796.637 1.146.175.254.064.382-.335.35-.605-.064-1.418-.62-1.944-1.337ZM28.743 24.372c-3.156-1.273-4.272-2.37-4.272-4.232 0-.27.016-.494.016-.494.016 0 .128.096.271.207.638.51 1.355.732 3.347 1.019 1.164.175 1.833.302 2.439.509 1.929.636 3.124 1.94 3.41 3.707.08.509.033 1.48-.095 1.988-.111.398-.43 1.13-.51 1.146-.016 0-.048-.08-.048-.207-.032-.668-.366-1.305-.924-1.798-.67-.572-1.53-1.002-3.634-1.845ZM26.51 24.896a3.763 3.763 0 0 0-.159-.668l-.08-.239.144.175c.207.24.367.525.51.923.112.303.112.398.112.891 0 .478-.016.589-.112.86-.16.429-.35.731-.67 1.065-.573.589-1.322.907-2.39 1.05-.191.016-.733.064-1.211.096-1.196.064-1.993.19-2.71.445-.096.032-.191.064-.207.048-.032-.032.462-.318.86-.509.558-.27 1.132-.414 2.391-.636.622-.096 1.26-.223 1.419-.287 1.578-.493 2.359-1.718 2.104-3.214Z"/><path fill="#F3F3F3" d="M27.961 27.457c-.414-.906-.51-1.765-.287-2.577.032-.08.064-.16.096-.16s.127.049.223.112c.191.128.59.35 1.61.907 1.291.7 2.024 1.241 2.534 1.862.447.54.718 1.161.845 1.925.08.43.032 1.463-.08 1.893-.35 1.352-1.147 2.434-2.31 3.055-.176.095-.32.159-.336.159-.015 0 .048-.16.144-.35.382-.812.43-1.591.143-2.466-.175-.541-.542-1.193-1.275-2.291-.877-1.273-1.084-1.607-1.307-2.069ZM16.086 32.327c1.18-.987 2.63-1.687 3.969-1.91.574-.095 1.53-.063 2.056.08.845.223 1.61.7 2.008 1.289.383.573.558 1.066.734 2.164.063.43.143.875.159.97.128.573.383 1.018.701 1.257.494.366 1.355.382 2.2.064.143-.048.27-.096.27-.08.033.032-.398.318-.684.462a2.26 2.26 0 0 1-1.148.27c-.765 0-1.419-.398-1.945-1.193-.111-.16-.334-.62-.526-1.05-.557-1.289-.844-1.67-1.498-2.1-.574-.366-1.307-.446-1.865-.175-.733.35-.924 1.288-.414 1.861.207.239.59.43.908.477a.972.972 0 0 0 1.1-.97c0-.382-.143-.605-.526-.78-.51-.223-1.068.032-1.052.525 0 .207.096.334.303.43.128.063.128.063.032.047-.462-.095-.574-.668-.207-1.034.446-.445 1.386-.254 1.705.366.128.255.144.764.032 1.082-.27.7-1.036 1.066-1.817.86-.526-.144-.75-.287-1.387-.94-1.115-1.145-1.546-1.368-3.14-1.606l-.302-.048.334-.318Z"/><path fill="#F3F3F3" fill-rule="evenodd" d="M7.703 6.727c3.714 4.503 9.436 11.503 9.723 11.885.24.318.144.62-.255.843-.223.127-.685.255-.909.255-.255 0-.557-.128-.765-.334-.143-.144-.765-1.05-2.167-3.23a206.837 206.837 0 0 0-1.993-3.07c-.063-.033-.063-.033 1.881 3.436 1.227 2.18 1.626 2.96 1.626 3.055 0 .206-.064.318-.319.604-.43.477-.622 1.018-.765 2.148-.16 1.257-.59 2.148-1.817 3.66-.717.89-.829 1.05-1.004 1.415-.223.446-.287.7-.319 1.273-.032.605.032.986.207 1.56.16.508.335.843.765 1.495.367.573.59 1.002.59 1.161 0 .127.032.127.606 0 1.37-.318 2.502-.859 3.124-1.527.382-.414.478-.637.478-1.21 0-.365-.016-.445-.111-.668-.16-.35-.463-.636-1.116-1.081-.861-.59-1.228-1.066-1.323-1.703-.08-.54.016-.907.494-1.909.494-1.034.622-1.464.701-2.514.048-.668.128-.939.319-1.145.207-.223.383-.303.877-.366.813-.112 1.338-.318 1.753-.716.366-.334.526-.668.542-1.162l.016-.366-.207-.222c-.75-.86-11.126-12.251-11.174-12.251-.016 0 .24.302.542.684Zm4.894 22.624a.656.656 0 0 0-.208-.875c-.27-.175-.685-.095-.685.143 0 .064.032.128.127.16.144.079.16.159.048.334-.111.175-.111.334.032.445.223.175.526.08.686-.207ZM19.052 20.982c-.382.111-.749.525-.86.939-.064.254-.032.716.08.859.175.223.334.286.78.286.877 0 1.626-.382 1.706-.843.08-.382-.255-.907-.717-1.145-.24-.128-.734-.175-.989-.096Zm1.02.796c.128-.191.08-.398-.159-.541-.43-.27-1.084-.048-1.084.366 0 .206.335.43.654.43.207 0 .494-.128.59-.256Z" clip-rule="evenodd"/></svg>