<svg width="42" height="42" viewBox="0 0 42 42" fill="none" xmlns="http://www.w3.org/2000/svg">
<path d="M21 42C32.598 42 42 32.598 42 21C42 9.40202 32.598 0 21 0C9.40202 0 0 9.40202 0 21C0 32.598 9.40202 42 21 42Z" fill="url(#paint0_linear_1002_158769)"/>
<path d="M21.1943 22.5779L29.995 13.7538L26.7968 10.5441L21.1943 5V22.5779Z" fill="#9FF7EC"/>
<path d="M21.194 37L10 27.4249V16.1206" fill="#BADEFF"/>
<path d="M21.194 27.3709C21.194 27.3709 13.1551 19.3411 10 16.1206L21.194 27.3709Z" fill="#CFE6FF"/>
<path d="M32.3992 16.1207V27.3872L21.1943 36.9948V27.3656C21.1943 27.3656 29.2441 19.3359 32.3992 16.1154" fill="#BCCFFF"/>
<path d="M21.1938 22.5779C21.1938 22.5779 15.0295 16.461 12.3984 13.743L15.5805 10.5441L21.1938 5V22.5779Z" fill="#C5C5FF"/>
<path d="M21.1943 37V27.3709C21.1943 27.3709 29.2441 19.3411 32.3992 16.1206L21.1943 36.9947V37Z" fill="#9077ED"/>
<path d="M10 16.1206C13.1497 19.3411 21.194 27.3709 21.194 27.3709V37L10 16.1206Z" fill="#5E9EFC"/>
<path d="M29.995 13.7539L21.1943 22.578V16.9042L29.995 13.7539Z" fill="#A181F7"/>
<path d="M12.3984 13.7429C15.0349 16.4608 21.1938 22.5777 21.1938 22.5777V16.9039L12.3984 13.7429Z" fill="#61A9FF"/>
<defs>
<linearGradient id="paint0_linear_1002_158769" x1="21" y1="0" x2="21" y2="42" gradientUnits="userSpaceOnUse">
<stop stop-color="white"/>
<stop offset="1" stop-color="#E6FFFC"/>
</linearGradient>
</defs>
</svg>
