<svg xmlns="http://www.w3.org/2000/svg" width="42" height="42" fill="none"><mask id="a" width="42" height="42" x="0" y="0" maskUnits="userSpaceOnUse" style="mask-type:alpha"><circle cx="21" cy="21" r="21" fill="#D9D9D9"/></mask><g mask="url(#a)"><path fill="#B22234" d="M68.9 0h-79.8v42h79.8V0Z"/><path fill="#000" d="M-10.9 4.84h79.8-79.8ZM68.9 11.3h-79.8 79.8Zm-79.8 6.462h79.8-79.8Zm79.8 6.461h-79.8 79.8Zm-79.8 6.462h79.8-79.8Zm79.8 6.462h-79.8 79.8Z"/><path stroke="#fff" stroke-width="3.231" d="M-10.9 4.84h79.8m0 6.461h-79.8m0 6.462h79.8m0 6.461h-79.8m0 6.462h79.8m0 6.462h-79.8"/><path fill="#3C3B6E" d="M21.02 0H-10.9v22.615h31.92V0Z"/><path fill="#fff" d="m2.346.964.76 2.338-1.989-1.445h2.458L1.587 3.302l.76-2.338ZM2.346 5.558l.76 2.337-1.989-1.444h2.458L1.587 7.895l.76-2.337ZM2.346 10.008l.76 2.338L1.117 10.9h2.458l-1.988 1.445.76-2.338ZM2.346 14.602l.76 2.337-1.989-1.444h2.458l-1.988 1.444.76-2.337ZM2.346 19.052l.76 2.338-1.989-1.445h2.458L1.587 21.39l.76-2.338ZM-.305 3.22l.76 2.338-1.989-1.445H.924l-1.988 1.445.76-2.338ZM-.305 7.813l.76 2.338-1.989-1.445H.924l-1.988 1.445.76-2.338ZM-.305 12.284l.76 2.338-1.989-1.445H.924l-1.988 1.445.76-2.338ZM-.305 16.857l.76 2.338-1.989-1.445H.924l-1.988 1.445.76-2.338ZM7.643.964l.76 2.338-1.99-1.445h2.459L6.883 3.302l.76-2.338ZM7.643 5.558l.76 2.337-1.99-1.444h2.459L6.883 7.895l.76-2.337ZM7.643 10.008l.76 2.338-1.99-1.445h2.459l-1.989 1.445.76-2.338ZM7.643 14.602l.76 2.337-1.99-1.444h2.459l-1.989 1.444.76-2.337ZM7.648 19.052l.76 2.338-1.99-1.445h2.459l-1.99 1.445.76-2.338ZM4.997 3.22l.76 2.338-1.989-1.445h2.458L4.238 5.558l.76-2.338ZM4.997 7.813l.76 2.338-1.989-1.445h2.458l-1.988 1.445.76-2.338ZM4.997 12.284l.76 2.338-1.989-1.445h2.458l-1.988 1.445.76-2.338ZM4.997 16.857l.76 2.338-1.989-1.445h2.458l-1.988 1.445.76-2.338ZM12.943.964l.76 2.338-1.989-1.445h2.458l-1.988 1.445.76-2.338ZM12.943 5.558l.76 2.337-1.989-1.444h2.458l-1.988 1.444.76-2.337ZM12.943 10.008l.76 2.338-1.989-1.445h2.458l-1.988 1.445.76-2.338ZM12.943 14.602l.76 2.337-1.989-1.444h2.458l-1.988 1.444.76-2.337ZM12.943 19.052l.76 2.338-1.989-1.445h2.458l-1.988 1.445.76-2.338ZM10.293 3.22l.76 2.338-1.989-1.445h2.458L9.533 5.558l.76-2.338ZM10.293 7.813l.76 2.338-1.989-1.445h2.458l-1.989 1.445.76-2.338ZM10.298 12.284l.76 2.338-1.99-1.445h2.459l-1.989 1.445.76-2.338ZM10.298 16.857l.76 2.338-1.99-1.445h2.459l-1.989 1.445.76-2.338ZM18.245.964l.76 2.338-1.989-1.445h2.458l-1.988 1.445.76-2.338ZM18.245 5.558l.76 2.337-1.989-1.444h2.458l-1.988 1.444.76-2.337ZM18.245 10.008l.76 2.338-1.989-1.445h2.458l-1.988 1.445.76-2.338ZM18.245 14.602l.76 2.337-1.989-1.444h2.458l-1.988 1.444.76-2.337ZM18.245 19.052l.76 2.338-1.989-1.445h2.458l-1.988 1.445.76-2.338ZM15.594 3.22l.76 2.338-1.989-1.445h2.458l-1.988 1.445.76-2.338ZM15.594 7.813l.76 2.338-1.989-1.445h2.458l-1.988 1.445.76-2.338ZM15.594 12.284l.76 2.338-1.989-1.445h2.458l-1.988 1.445.76-2.338ZM15.594 16.857l.76 2.338-1.989-1.445h2.458l-1.988 1.445.76-2.338Z"/></g></svg>