<svg xmlns="http://www.w3.org/2000/svg" width="42" height="42" fill="none"><circle cx="21" cy="21" r="21" fill="#26A17B"/><path fill="#F3F3F3" d="M22.234 31.186v2.488a.503.503 0 0 1-.504.503h-1.644a.503.503 0 0 1-.504-.503v-2.567c-1.538-.291-3.023-.98-4.11-1.959-1.06-.979-1.697-2.196-1.83-3.546a.516.516 0 0 1 .504-.556h1.644c.265 0 .45.185.504.45.106.635.424 1.191.981 1.694 1.034.953 2.784 1.535 4.323 1.402 1.485-.105 3.182-1.164 3.34-2.514.213-1.561-.344-2.514-1.855-3.176-.743-.344-1.565-.556-2.44-.767-.928-.238-1.91-.477-2.864-.9a5.452 5.452 0 0 1-2.838-2.964c-.503-1.297-.424-2.753.186-4.076.743-1.641 2.36-2.726 4.455-3.097V8.822c0-.29.239-.503.504-.503h1.644c.292 0 .504.239.504.503v2.25c1.591.264 3.076 1.006 4.11 2.064.849.9 1.167 1.88 1.326 2.938a.508.508 0 0 1-.504.582h-1.59a.535.535 0 0 1-.505-.423c-.053-.45-.265-.874-.636-1.27-.796-.821-2.201-1.377-3.474-1.35-1.273.026-2.837.476-3.394 1.667a2.67 2.67 0 0 0-.106 2.064c.238.636.769 1.191 1.432 1.482.742.345 1.564.53 2.44.768.954.238 1.909.476 2.863.926 2.572 1.138 3.74 3.203 3.394 5.929-.344 2.567-2.916 4.367-5.356 4.737Z"/></svg>