<svg width="42" height="42" viewBox="0 0 42 42" fill="none" xmlns="http://www.w3.org/2000/svg">
<path fill-rule="evenodd" clip-rule="evenodd" d="M21 39.9C31.4382 39.9 39.9 31.4382 39.9 21C39.9 10.5618 31.4382 2.1 21 2.1C10.5618 2.1 2.1 10.5618 2.1 21C2.1 31.4382 10.5618 39.9 21 39.9ZM21 42C32.598 42 42 32.598 42 21C42 9.40204 32.598 0 21 0C9.40204 0 0 9.40204 0 21C0 32.598 9.40204 42 21 42Z" fill="#EAAC08"/>
<path d="M21.0001 38.5549C30.696 38.5549 38.5561 30.6948 38.5561 20.9989C38.5561 11.303 30.696 3.44287 21.0001 3.44287C11.3042 3.44287 3.44409 11.303 3.44409 20.9989C3.44409 30.6948 11.3042 38.5549 21.0001 38.5549Z" fill="url(#paint0_linear_6773_45632)"/>
<path d="M3.87877 24.9012L11.6008 20.5111L3.55933 18.9724C3.99432 15.1883 5.63251 11.7701 8.08165 9.11035C10.0207 10.1782 11.9597 11.2465 13.8988 12.3146C16.2701 13.6211 18.6415 14.9274 21.0128 16.233L31.1243 21.8005L31.5029 22.0096C31.9148 22.3248 32.1636 22.8606 32.1443 23.4395C33.543 23.9122 34.1566 25.7604 33.8249 27.3536C33.2527 26.3621 32.3322 25.6772 31.2818 25.4767C29.6869 25.5225 28.0975 25.2447 26.5883 24.6601C24.3741 24.3421 22.6051 24.7833 21.0156 25.6486C19.0627 26.7132 16.8982 28.7444 14.9407 30.5814C14.327 31.1573 13.7337 31.7141 13.1736 32.2161C12.1153 33.0889 10.723 33.7161 9.28283 34.0735C8.70769 33.5576 8.16676 33.0045 7.66388 32.4177L12.5102 28.2303C12.7369 28.0326 12.7811 27.6659 12.6042 27.4108C12.4301 27.1558 12.1011 27.1071 11.8744 27.3048L6.96471 31.5477C6.31188 30.6805 5.73755 29.7507 5.2523 28.7692L6.48151 27.9122C6.72477 27.7404 6.79939 27.3822 6.64737 27.1071C6.49534 26.8349 6.17192 26.7518 5.92867 26.9209L4.77739 27.7233C4.40184 26.8183 4.09982 25.8752 3.87877 24.9012Z" fill="#CA8404"/>
<path d="M37.2611 14.3715C37.7376 15.5395 38.092 16.7701 38.3083 18.0479C38.0472 18.0946 37.7863 18.1412 37.5254 18.1878L37.5248 18.1879C34.9238 18.6525 32.3233 19.117 29.6121 19.6662L20.0259 14.4427L31.5802 8.14748C31.877 7.98573 32.1648 7.8328 32.446 7.68799C34.217 9.21224 35.6805 11.0839 36.7306 13.1972L35.0022 13.5114C34.7037 13.563 34.4992 13.8839 34.5462 14.2277C34.5904 14.5716 34.8696 14.8037 35.1681 14.7521L37.2611 14.3715Z" fill="#CA8404"/>
<path fill-rule="evenodd" clip-rule="evenodd" d="M20.9996 38.5556C30.6956 38.5556 38.5556 30.6956 38.5556 20.9996C38.5556 11.3037 30.6956 3.44361 20.9996 3.44361C11.3037 3.44361 3.44361 11.3037 3.44361 20.9996C3.44361 30.6956 11.3037 38.5556 20.9996 38.5556ZM20.9996 39.8996C31.4378 39.8996 39.8996 31.4378 39.8996 20.9996C39.8996 10.5614 31.4378 2.09961 20.9996 2.09961C10.5614 2.09961 2.09961 10.5614 2.09961 20.9996C2.09961 31.4378 10.5614 39.8996 20.9996 39.8996Z" fill="#EAAC08"/>
<path fill-rule="evenodd" clip-rule="evenodd" d="M20.9996 38.5556C30.6956 38.5556 38.5556 30.6956 38.5556 20.9996C38.5556 11.3037 30.6956 3.44361 20.9996 3.44361C11.3037 3.44361 3.44361 11.3037 3.44361 20.9996C3.44361 30.6956 11.3037 38.5556 20.9996 38.5556ZM20.9996 39.8996C31.4378 39.8996 39.8996 31.4378 39.8996 20.9996C39.8996 10.5614 31.4378 2.09961 20.9996 2.09961C10.5614 2.09961 2.09961 10.5614 2.09961 20.9996C2.09961 31.4378 10.5614 39.8996 20.9996 39.8996Z" fill="url(#paint1_linear_6773_45632)"/>
<path fill-rule="evenodd" clip-rule="evenodd" d="M20.9996 38.5556C30.6956 38.5556 38.5556 30.6956 38.5556 20.9996C38.5556 11.3037 30.6956 3.44361 20.9996 3.44361C11.3037 3.44361 3.44361 11.3037 3.44361 20.9996C3.44361 30.6956 11.3037 38.5556 20.9996 38.5556ZM20.9996 39.8996C31.4378 39.8996 39.8996 31.4378 39.8996 20.9996C39.8996 10.5614 31.4378 2.09961 20.9996 2.09961C10.5614 2.09961 2.09961 10.5614 2.09961 20.9996C2.09961 31.4378 10.5614 39.8996 20.9996 39.8996Z" fill="url(#paint2_linear_6773_45632)"/>
<path d="M19.556 12.5996V13.758C18.852 14.2779 18.1389 14.7038 17.4182 15.0365C16.6386 15.3741 15.8583 15.5438 15.0788 15.5438C15.03 15.5438 14.9805 15.5438 14.9318 15.5421V15.522C14.925 15.522 14.9175 15.522 14.9108 15.5211V15.501C14.904 15.501 14.8965 15.501 14.8898 15.5001V15.48C14.883 15.48 14.8755 15.48 14.8688 15.4791V15.459C14.862 15.459 14.8545 15.459 14.8478 15.4581V15.438C14.841 15.438 14.8335 15.438 14.8268 15.4371V15.417C14.82 15.417 14.8125 15.417 14.8058 15.4161V15.396C14.799 15.396 14.7915 15.396 14.7848 15.3951V15.375C14.778 15.375 14.7705 15.375 14.7638 15.3741V15.354C14.757 15.354 14.7495 15.354 14.7428 15.3531V15.333C14.736 15.333 14.7285 15.333 14.7218 15.3321V15.312C14.715 15.312 14.7075 15.312 14.7008 15.3111V15.291C14.694 15.291 14.6865 15.291 14.6798 15.2901V15.27C14.673 15.27 14.6655 15.27 14.6588 15.2691V15.249C14.652 15.249 14.6445 15.249 14.6378 15.2481V15.228C14.631 15.228 14.6235 15.228 14.6168 15.2271V15.207C14.61 15.207 14.6025 15.207 14.5958 15.2061V15.186C14.589 15.186 14.5815 15.186 14.5748 15.1851V15.165C14.568 15.165 14.5605 15.165 14.5538 15.1641V15.144C14.547 15.144 14.5395 15.144 14.5328 15.1431V15.123C14.526 15.123 14.5185 15.123 14.5118 15.1221V15.102C14.505 15.102 14.4975 15.102 14.4908 15.1011V15.081C14.484 15.081 14.4765 15.081 14.4698 15.0801V15.06C14.463 15.06 14.4555 15.06 14.4488 15.0591V15.039C14.442 15.039 14.4345 15.039 14.4278 15.0381V15.018C14.421 15.018 14.4135 15.018 14.4068 15.0171V14.997C14.4 14.997 14.3925 14.997 14.3858 14.9961V14.976C14.379 14.976 14.3715 14.976 14.3648 14.9751V14.955C14.358 14.955 14.3505 14.955 14.3438 14.9541V14.934C14.337 14.934 14.3295 14.934 14.3228 14.9331V14.913C14.316 14.913 14.3085 14.913 14.3018 14.9121V14.8911C14.3438 14.8928 14.3858 14.8928 14.4278 14.8928C15.2073 14.8928 15.9876 14.7231 16.7672 14.3855C17.5962 14.0033 18.4136 13.4976 19.22 12.8676C19.3325 12.7794 19.4451 12.6903 19.556 12.5996Z" fill="#85490E"/>
<path d="M22.9947 9.47131V33.0753H20.2059V33.0543H20.1849V33.0333H20.1639V33.0123H20.1429V32.9913H20.1219V32.9703H20.1009V32.9493H20.0799V32.9283H20.0589V32.9073H20.0379V32.8863H20.0169V32.8653H19.9959V32.8443H19.9749V32.8233H19.9539V32.8023H19.9329V32.7813H19.9119V32.7603H19.8909V32.7393H19.8699V32.7183H19.8489V32.6973H19.8279V32.6763H19.8069V32.6553H19.7859V32.6343H19.7649V32.6133H19.7439V32.5923H19.7229V32.5713H19.7019V32.5503H19.6809V32.5293H19.6599V32.5083H19.6389V32.4873H19.6179V32.4663H19.5969V32.4453H19.5759V32.4243H22.3437V8.84131H22.3647V8.86231H22.3857V8.88331H22.4067V8.90431H22.4277V8.92531H22.4487V8.94631H22.4697V8.96731H22.4907V8.98831H22.5117V9.00931H22.5327V9.03031H22.5537V9.05131H22.5747V9.07231H22.5957V9.09331H22.6167V9.11431H22.6377V9.13531H22.6587V9.15631H22.6797V9.17731H22.7007V9.19831H22.7217V9.21931H22.7427V9.24031H22.7637V9.26131H22.7847V9.28231H22.8057V9.30331H22.8267V9.32431H22.8477V9.34531H22.8687V9.36631H22.8897V9.38731H22.9107V9.40831H22.9317V9.42931H22.9527V9.45031H22.9737V9.47131H22.9947Z" fill="#85490E"/>
<path d="M22.3438 8.8208V32.4248H19.555V13.7575C19.5617 13.7524 19.5483 13.7625 19.555 13.7575V12.5991C19.4441 12.6898 19.3315 12.7789 19.219 12.8671C18.4126 13.4971 17.5953 14.0028 16.7662 14.385C15.9867 14.7226 15.2063 14.8923 14.4268 14.8923C14.3848 14.8923 14.3428 14.8923 14.3008 14.8906C14.2941 14.8915 14.2865 14.8906 14.2798 14.8906V12.2942C14.3092 12.2967 14.3394 12.2967 14.3697 12.2967C14.8207 12.2967 15.3516 12.138 15.9598 11.8221C16.6099 11.4853 17.2819 11.0468 17.9758 10.5067C18.6705 9.9674 19.2753 9.40544 19.7902 8.8208H22.3438Z" fill="url(#paint3_linear_6773_45632)"/>
<defs>
<linearGradient id="paint0_linear_6773_45632" x1="21.0001" y1="3.44287" x2="21.0001" y2="38.5549" gradientUnits="userSpaceOnUse">
<stop stop-color="#CA8404"/>
<stop offset="1" stop-color="#A15D07"/>
</linearGradient>
<linearGradient id="paint1_linear_6773_45632" x1="39.8996" y1="2.09961" x2="2.09961" y2="39.8996" gradientUnits="userSpaceOnUse">
<stop stop-color="#44403C"/>
<stop offset="0.4" stop-color="#44403C" stop-opacity="0"/>
</linearGradient>
<linearGradient id="paint2_linear_6773_45632" x1="39.8996" y1="2.09961" x2="2.09961" y2="39.8996" gradientUnits="userSpaceOnUse">
<stop offset="0.6" stop-color="#F5F5F4" stop-opacity="0"/>
<stop offset="1" stop-color="#F5F5F4"/>
</linearGradient>
<linearGradient id="paint3_linear_6773_45632" x1="18.3118" y1="8.8208" x2="18.3118" y2="32.4248" gradientUnits="userSpaceOnUse">
<stop stop-color="#FEF7C3"/>
<stop offset="1" stop-color="#FDDA47"/>
</linearGradient>
</defs>
</svg>
