<svg width="42" height="42" viewBox="0 0 42 42" fill="none" xmlns="http://www.w3.org/2000/svg">
<g clip-path="url(#clip0_3640_118655)">
<path d="M21 42C32.598 42 42 32.598 42 21C42 9.40202 32.598 0 21 0C9.40202 0 0 9.40202 0 21C0 32.598 9.40202 42 21 42Z" fill="#FCFC03"/>
<path d="M15.5517 18.6758L16.1253 16.9068L13.2028 14.7695L11.5318 19.8978L14.4387 22.0333L14.4336 22.0492H27.5151L26.2553 25.9333H9.61881L8.50098 29.3802H25.1375L29.4901 27.2146L31.6295 20.6183L28.9375 18.6408L15.5517 18.6758Z" fill="black"/>
<path d="M17.7203 11.3789L13.2031 14.7685L33.1347 14.775L34.2357 11.3789H17.7203Z" fill="black"/>
<path d="M18.0866 35.2507L27.5306 5.89844H24.1825L14.8379 35.2507H18.0866Z" fill="black"/>
</g>
<defs>
<clipPath id="clip0_3640_118655">
<rect width="42" height="42" fill="white"/>
</clipPath>
</defs>
</svg>
