<svg xmlns="http://www.w3.org/2000/svg" width="42" height="42" fill="none"><circle cx="21" cy="21" r="18.667" fill="#F3F3F3"/><path fill="#3E73C4" d="M21 0C9.415 0 0 9.394 0 21s9.394 21 21 21 21-9.394 21-21S32.606 0 21 0Zm-4.634 35.07c0 .422-.421.716-.842.569C9.415 33.364 5.37 27.593 5.37 21S9.415 8.636 15.524 6.361c.4-.147.842.148.842.569v.948a.616.616 0 0 1-.4.568A13.47 13.47 0 0 0 7.477 21a13.47 13.47 0 0 0 8.489 12.554c.232.084.4.316.4.568v.948Zm5.477-6.213v1.98a.4.4 0 0 1-.4.4h-1.307a.4.4 0 0 1-.4-.4v-2.044c-1.221-.231-2.401-.779-3.265-1.558-.842-.78-1.348-1.748-1.453-2.823a.41.41 0 0 1 .4-.442h1.306c.21 0 .358.147.4.358.085.506.337.948.78 1.348.821.758 2.211 1.222 3.433 1.116 1.18-.084 2.528-.926 2.654-2 .169-1.243-.274-2.002-1.474-2.528-.59-.274-1.243-.442-1.938-.611-.738-.19-1.517-.38-2.275-.716a4.335 4.335 0 0 1-2.254-2.36c-.4-1.031-.337-2.19.148-3.243.59-1.306 1.874-2.17 3.538-2.464v-1.812a.4.4 0 0 1 .4-.4h1.306a.4.4 0 0 1 .4.4v1.79c1.264.211 2.444.8 3.265 1.643.674.717.927 1.496 1.053 2.338a.404.404 0 0 1-.4.464h-1.264a.425.425 0 0 1-.4-.337c-.042-.358-.21-.695-.505-1.011-.632-.653-1.748-1.095-2.76-1.074-1.01.02-2.253.379-2.696 1.327a2.129 2.129 0 0 0-.084 1.642c.19.506.611.948 1.138 1.18.59.274 1.242.421 1.937.61.759.19 1.517.38 2.275.738 2.043.906 2.97 2.549 2.696 4.718-.274 2.043-2.317 3.476-4.255 3.77Zm4.275 6.93a.613.613 0 0 1-.8-.59v-.948c0-.253.168-.485.4-.569 5.224-1.959 8.805-7.014 8.805-12.68 0-5.645-3.581-10.721-8.805-12.68a.616.616 0 0 1-.4-.569v-.927a.62.62 0 0 1 .8-.59c6.235 2.17 10.51 8.11 10.51 14.766 0 6.698-4.233 12.659-10.51 14.786Z"/></svg>