<svg xmlns="http://www.w3.org/2000/svg" width="42" height="42" fill="none"><path fill="#216C58" d="M21 1c11.048 0 20 8.952 20 20s-8.952 20-20 20S1 32.048 1 21 9.952 1 21 1Z"/><path fill="#F3F3F3" d="M15.04 8.143h13.212c.397 0 .695.395.695.692v.395a.678.678 0 0 1-.695.693H15.04a.678.678 0 0 1-.696-.693v-.395c0-.297.398-.692.696-.692ZM19.51 16.45c.497-.197 1.093-.296 1.887-.296 1.093 0 1.888.198 2.484.593.397.297.695.594.894 1.088.199.396.497.791 1.093.791h3.179c.596 0 1.093-.494.993-1.088-.1-.989-.497-1.78-1.093-2.571-.695-.989-1.788-1.681-3.08-2.176-1.29-.494-2.78-.791-4.47-.791-1.688 0-3.178.297-4.47.791a8.252 8.252 0 0 0-3.179 2.176c-.794.989-1.192 2.077-1.192 3.363 0 1.582.596 2.868 1.788 3.758 1.193.89 2.683 1.582 4.57 1.978l2.483.494c.795.198 1.49.396 1.987.594.497.198.894.395 1.192.692.2.198.398.495.398.89 0 .396-.1.693-.398 1.088a3.2 3.2 0 0 1-1.291.791c-.497.198-1.192.297-1.987.297-.794 0-1.49-.099-2.086-.297-.596-.197-1.093-.494-1.39-.89-.2-.296-.398-.593-.497-.89a1.08 1.08 0 0 0-1.093-.89h-3.179c-.596 0-1.093.495-.993 1.088.099 1.187.496 2.176 1.192 3.066.794.989 1.887 1.78 3.278 2.275 1.39.494 2.98.79 4.867.79 1.888 0 3.477-.197 4.769-.79 1.39-.495 2.384-1.187 3.08-2.176.695-.99 1.092-2.077 1.092-3.363 0-.89-.198-1.681-.596-2.373a6.485 6.485 0 0 0-1.49-1.78c-.596-.495-1.39-.89-2.185-1.286a18.642 18.642 0 0 0-2.782-.792l-1.987-.395a26.22 26.22 0 0 1-1.291-.297 3.68 3.68 0 0 1-1.093-.494 4.312 4.312 0 0 1-.695-.594c-.1-.198-.199-.395-.199-.692 0-.297.1-.692.298-.89.397-.396.695-.594 1.192-.791Z"/><path fill="#F3F3F3" fill-rule="evenodd" d="M21 19.685v-9.07h-1.788v8.52c.243.13.519.247.795.315.314.079.63.157.993.235Zm0 4.335-1.788-.357v4.49c.52.173 1.117.27 1.788.293V24.02Zm.994 4.403v-4.17c.546.146 1.022.293 1.39.439.14.056.273.112.398.17v3.084a3.456 3.456 0 0 1-.497.208c-.346.137-.787.227-1.291.269ZM21 32.699a15.785 15.785 0 0 1-1.788-.14v1.595c0 .395.298.692.696.692h.397a.678.678 0 0 0 .695-.692v-1.455Zm.994-.003a16.246 16.246 0 0 0 1.788-.134v1.592a.677.677 0 0 1-.695.692h-.398a.678.678 0 0 1-.695-.692v-1.458Zm1.788-12.446v-9.635h-1.788v9.27l1.29.258c.167.033.333.069.498.107Z" clip-rule="evenodd"/><path fill="#F3F3F3" fill-rule="evenodd" d="M38.484 21.989c-.298 0-.497.198-.497.494-.795 8.704-8.046 15.528-16.987 15.528-8.94 0-16.192-6.824-16.987-15.528 0-.296-.298-.494-.497-.494-.298 0-.497.297-.497.593C3.814 31.78 11.563 39 21 39c9.437 0 17.186-7.22 17.98-16.418.1-.296-.198-.593-.496-.593ZM3.516 20.011c.298 0 .497-.198.497-.494.795-8.704 8.046-15.43 16.987-15.43 8.94 0 16.192 6.825 16.987 15.43 0 .296.298.494.497.494.298 0 .496-.297.496-.593C38.187 10.22 30.438 3 21 3 11.563 3 3.814 10.22 3.02 19.418c-.1.296.198.593.496.593Z" clip-rule="evenodd"/></svg>