<svg width="42" height="42" viewBox="0 0 42 42" fill="none" xmlns="http://www.w3.org/2000/svg">
<rect x="0.5" y="0.5" width="41" height="41" rx="20.5" fill="#1E2739"/>
<rect x="0.5" y="0.5" width="41" height="41" rx="20.5" stroke="url(#paint0_linear_8473_74836)"/>
<path fill-rule="evenodd" clip-rule="evenodd" d="M17.716 4.04565C9.75177 5.57927 3.73364 12.5916 3.73364 21.0001C3.73364 29.4085 9.75177 36.4209 17.716 37.9545V36.3363C10.6296 34.8238 5.32014 28.5307 5.32014 21.0001C5.32014 13.4695 10.6296 7.17635 17.716 5.66389V4.04565ZM24.3159 5.67446V4.05623C32.2695 5.60043 38.2665 12.6022 38.2665 21.0001C38.2665 29.398 32.2695 36.3997 24.3159 37.9439V36.3257C31.3811 34.8026 36.68 28.5201 36.68 21.0001C36.68 13.4801 31.3811 7.19751 24.3159 5.67446Z" fill="white"/>
<path d="M23.459 20.427C24.7811 20.6808 25.7964 21.1673 26.5262 21.876C27.256 22.574 27.6156 23.473 27.6156 24.5624V26.2864C27.6156 27.5979 27.1397 28.6556 26.1984 29.4594C25.257 30.2527 24.009 30.644 22.4754 30.644H21.9465V33.3834H20.1273V30.644H19.5668C18.5514 30.644 17.663 30.4219 16.8803 29.9671C16.1082 29.5017 15.4948 28.8566 15.0611 28.0316C14.638 27.1855 14.4265 26.223 14.4265 25.123H16.2457C16.2457 26.2335 16.5524 27.1431 17.1553 27.8412C17.7793 28.5181 18.6043 28.8671 19.6091 28.8671H22.4225C23.4167 28.8671 24.2205 28.6345 24.834 28.1691C25.4368 27.6826 25.7436 27.0585 25.7436 26.2864V24.5624C25.7436 23.949 25.5109 23.4307 25.0561 22.9971C24.6119 22.5634 24.009 22.2884 23.2369 22.1615L18.6783 21.3577C17.3986 21.125 16.3938 20.6385 15.6851 19.9087C14.9765 19.1683 14.6169 18.2482 14.6169 17.1376V15.6886C14.6169 14.3771 15.0717 13.3406 15.9813 12.5685C16.912 11.7752 18.1389 11.3839 19.6514 11.3839H20.1062V8.64453H21.9254V11.3839H22.5071C23.9455 11.3839 25.0984 11.8493 25.9762 12.78C26.8541 13.6896 27.2983 14.9059 27.2983 16.4078H25.4791C25.4791 15.4242 25.2042 14.6309 24.6647 14.0386C24.1253 13.4463 23.4061 13.1502 22.5071 13.1502H19.6408C18.6783 13.1502 17.9062 13.3829 17.3351 13.8483C16.764 14.2925 16.4784 14.9059 16.4784 15.678V17.127C16.4784 17.7511 16.6899 18.2799 17.113 18.7135C17.5572 19.1472 18.1495 19.4327 18.911 19.5702L23.459 20.427Z" fill="white"/>
<defs>
<linearGradient id="paint0_linear_8473_74836" x1="20.9973" y1="-0.387692" x2="20.9973" y2="42.3822" gradientUnits="userSpaceOnUse">
<stop stop-color="white"/>
<stop offset="1" stop-color="#111111"/>
</linearGradient>
</defs>
</svg>
