<svg width="42" height="42" viewBox="0 0 42 42" fill="none" xmlns="http://www.w3.org/2000/svg">
<rect width="42" height="42" rx="21" fill="url(#paint0_linear_5245_241737)"/>
<path d="M26.7188 18.2812H30.8438M26.7188 18.2812L20.9062 8.34375L15.0938 18.2812M26.7188 18.2812H15.0938M11.1562 18.2812H15.0938M15.2813 23.4375H11.1563M15.2813 23.4375L21.0938 33.375L26.9063 23.4375M15.2813 23.4375L26.9063 23.4375M30.8438 23.4375H26.9063" stroke="#F3F3F3" stroke-width="1.6875"/>
<path fill-rule="evenodd" clip-rule="evenodd" d="M14.8125 4.89308C8.34216 7.38023 3.75 13.6539 3.75 21.0002C3.75 28.3464 8.34216 34.6201 14.8125 37.1072V35.4882C9.18988 33.0839 5.25 27.5021 5.25 21.0002C5.25 14.4982 9.18988 8.91645 14.8125 6.51206V4.89308ZM27 35.567C32.7223 33.2074 36.75 27.5741 36.75 21.0002C36.75 14.4262 32.7223 8.79288 27 6.43332V4.82227C33.5689 7.25946 38.25 13.5832 38.25 21.0002C38.25 28.4172 33.5689 34.7408 27 37.178V35.567Z" fill="#F3F3F3"/>
<defs>
<linearGradient id="paint0_linear_5245_241737" x1="21" y1="0" x2="21" y2="42" gradientUnits="userSpaceOnUse">
<stop stop-color="#404141"/>
<stop offset="1" stop-color="#222222"/>
</linearGradient>
</defs>
</svg>
