<svg width="36" height="36" viewBox="0 0 36 36" fill="none" xmlns="http://www.w3.org/2000/svg">
<rect width="35.9982" height="35.9982" rx="17.9991" fill="url(#paint0_linear_855_161655)"/>
<path d="M22.9001 15.6678H26.4357M22.9001 15.6678L17.9182 7.15039L12.9364 15.6678M22.9001 15.6678H12.9364M9.56152 15.6678H12.9364M13.0971 20.0872H9.56152M13.0971 20.0872L18.079 28.6047L23.0609 20.0872M13.0971 20.0872L23.0609 20.0872M26.4357 20.0872H23.0609" stroke="#F3F3F3" stroke-width="1.44636"/>
<path fill-rule="evenodd" clip-rule="evenodd" d="M12.6955 4.19351C7.14981 6.32524 3.21387 11.7024 3.21387 17.9989C3.21387 24.2953 7.14981 29.6725 12.6955 31.8043V30.4166C7.87639 28.3558 4.49952 23.5717 4.49952 17.9989C4.49952 12.4261 7.87639 7.64194 12.6955 5.58114V4.19351ZM23.1414 30.4841C28.0461 28.4617 31.4982 23.6335 31.4982 17.9989C31.4982 12.3643 28.0461 7.53603 23.1414 5.51365V4.13281C28.7717 6.22174 32.7838 11.6418 32.7838 17.9989C32.7838 24.356 28.7717 29.776 23.1414 31.865V30.4841Z" fill="#F3F3F3"/>
<defs>
<linearGradient id="paint0_linear_855_161655" x1="17.9991" y1="0" x2="17.9991" y2="35.9982" gradientUnits="userSpaceOnUse">
<stop stop-color="#404141"/>
<stop offset="1" stop-color="#222222"/>
</linearGradient>
</defs>
</svg>
