<svg width="42" height="42" viewBox="0 0 42 42" fill="none" xmlns="http://www.w3.org/2000/svg">
<rect width="42" height="42" rx="21" fill="#304013"/>
<path d="M29.1359 19.7583C29.4468 19.0387 29.7222 18.3458 29.9265 17.6262C30.2463 16.498 30.4595 15.3521 30.3529 14.1706C30.2641 13.1045 29.9354 12.1451 29.1003 11.4167C28.3186 10.7415 27.3858 10.5372 26.382 10.5905C24.8718 10.6616 23.5126 11.2124 22.2068 11.9319C20.2435 13.0157 18.5468 14.446 17.0366 16.0983C15.5442 17.7151 14.2738 19.4829 13.2789 21.455C12.5238 22.9385 11.9464 24.4843 11.7332 26.1455C11.5999 27.1848 11.6088 28.2242 12.0086 29.2192C12.5327 30.5161 13.5276 31.209 14.9046 31.3512C16.1927 31.4844 17.4008 31.1469 18.5734 30.6494C20.2791 29.9298 21.7715 28.8816 23.1662 27.6734C24.0012 26.945 24.7741 26.1544 25.5025 25.3282C25.6358 25.1772 25.5825 25.1505 25.4315 25.0883C24.4187 24.6886 23.406 24.2711 22.3933 23.8802C22.2423 23.818 22.1801 23.7469 22.189 23.5782C22.2068 23.1695 22.1979 22.7698 22.189 22.3611C22.189 22.219 22.2245 22.1657 22.3755 22.1657C22.7487 22.1746 23.1306 22.1657 23.5126 22.1657C27.7945 22.1657 32.0763 22.1657 36.3581 22.1657C36.5447 22.1657 36.598 22.1923 36.5802 22.4055C36.2515 25.8257 34.9545 28.8372 32.6626 31.3956C30.2463 34.0962 27.2437 35.7663 23.6725 36.3792C20.4034 36.9389 17.2498 36.5125 14.2561 35.0645C10.9781 33.4832 8.544 31.0314 6.94497 27.7711C6.09216 26.0389 5.59469 24.1911 5.45255 22.2634C5.1594 18.3103 6.17211 14.7213 8.57953 11.5677C11.0936 8.27195 14.416 6.23763 18.5201 5.59802C23.406 4.83405 27.7589 6.11326 31.4633 9.40015C34.2527 11.8786 35.8962 15.0056 36.4825 18.6922C36.5269 18.9854 36.5358 19.2786 36.5891 19.5628C36.6246 19.7671 36.5358 19.7849 36.367 19.7849C34.1817 19.7849 31.9875 19.7849 29.8021 19.7849C29.5889 19.7849 29.3846 19.7849 29.1447 19.7849L29.1359 19.7583Z" fill="#C6E26B"/>
</svg>
