<svg width="42" height="42" viewBox="0 0 42 42" fill="none" xmlns="http://www.w3.org/2000/svg">
<g clip-path="url(#clip0_2736_274238)">
<path d="M41.9979 20.9989C41.9979 9.40155 32.5963 0 20.9989 0C9.40155 0 0 9.40155 0 20.9989C0 32.5963 9.40155 41.9979 20.9989 41.9979C32.5963 41.9979 41.9979 32.5963 41.9979 20.9989Z" fill="url(#paint0_linear_2736_274238)"/>
<path d="M20.9984 25.2333C23.3373 25.2333 25.2333 23.3374 25.2333 20.9984C25.2333 18.6596 23.3373 16.7637 20.9984 16.7637C18.6596 16.7637 16.7637 18.6596 16.7637 20.9984C16.7637 23.3374 18.6596 25.2333 20.9984 25.2333Z" fill="white"/>
<path fill-rule="evenodd" clip-rule="evenodd" d="M32.9773 18.5332C34.3391 17.1714 34.3391 14.9632 32.9773 13.6013L28.3974 9.02146C27.0356 7.65951 24.8273 7.65951 23.4653 9.02146C21.8801 10.2545 20.1185 10.2545 18.5333 9.02146C17.1713 7.65951 14.9632 7.65951 13.6013 9.02146L9.02146 13.6013C7.65951 14.9632 7.65951 17.1714 9.02146 18.5332C10.2545 20.1185 10.2545 21.88 9.02146 23.4653C7.65951 24.8274 7.65951 27.0355 9.02146 28.3975L13.6013 32.9773C14.8101 34.186 16.6855 34.322 18.0443 33.385C18.1812 33.2906 18.3109 33.1857 18.4405 33.0811L18.444 33.0783C18.6439 32.9167 18.8436 32.7554 19.0684 32.632C20.4079 31.8983 22.0726 31.894 23.4653 32.9773C24.8273 34.3392 27.0356 34.3392 28.3974 32.9773L32.9773 28.3975C34.3391 27.0355 34.3391 24.8274 32.9773 23.4653C31.7442 21.88 31.7442 20.1185 32.9773 18.5332ZM18.181 12.1922C19.543 10.8302 21.7512 10.8302 23.113 12.1922L29.4543 18.5333C30.8163 19.8953 30.8163 22.1035 29.4543 23.4654L23.113 29.8067C21.7512 31.1687 19.543 31.1687 18.181 29.8067L11.8399 23.4654C10.4778 22.1035 10.4778 19.8953 11.8399 18.5333L18.181 12.1922Z" fill="white"/>
</g>
<defs>
<linearGradient id="paint0_linear_2736_274238" x1="20.9989" y1="0" x2="20.9989" y2="41.9979" gradientUnits="userSpaceOnUse">
<stop stop-color="#404141"/>
<stop offset="1" stop-color="#222222"/>
</linearGradient>
<clipPath id="clip0_2736_274238">
<rect width="42" height="42" fill="white"/>
</clipPath>
</defs>
</svg>
