<svg width="42" height="42" viewBox="0 0 42 42" fill="none" xmlns="http://www.w3.org/2000/svg">
<rect width="42" height="42" rx="21" fill="#1E2739"/>
<path d="M20.999 25.234C23.3379 25.234 25.234 23.3379 25.234 20.999C25.234 18.66 23.3379 16.7639 20.999 16.7639C18.66 16.7639 16.7639 18.66 16.7639 20.999C16.7639 23.3379 18.66 25.234 20.999 25.234Z" fill="white"/>
<path fill-rule="evenodd" clip-rule="evenodd" d="M32.9785 18.5338C34.3405 17.1718 34.3405 14.9635 32.9785 13.6015L28.3985 9.02151C27.0365 7.6595 24.8282 7.6595 23.4661 9.02151C21.8807 10.2546 20.1191 10.2546 18.5338 9.02151C17.1718 7.6595 14.9635 7.6595 13.6015 9.02151L9.02151 13.6015C7.6595 14.9635 7.6595 17.1718 9.02151 18.5338C10.2546 20.1191 10.2546 21.8807 9.02151 23.4661C7.6595 24.8282 7.6595 27.0365 9.02151 28.3985L13.6015 32.9785C14.8104 34.1874 16.686 34.3232 18.0448 33.3862C18.1816 33.2918 18.3114 33.187 18.441 33.0823L18.4445 33.0796C18.6444 32.9179 18.8441 32.7566 19.069 32.6333C20.4085 31.8995 22.0733 31.8952 23.4661 32.9785C24.8282 34.3405 27.0365 34.3405 28.3985 32.9785L32.9785 28.3985C34.3405 27.0365 34.3405 24.8282 32.9785 23.4661C31.7454 21.8807 31.7454 20.1191 32.9785 18.5338ZM18.1815 12.1923C19.5435 10.8303 21.7518 10.8303 23.1138 12.1923L29.4554 18.5339C30.8174 19.8959 30.8174 22.1042 29.4554 23.4662L23.1138 29.8078C21.7518 31.1698 19.5435 31.1698 18.1815 29.8078L11.84 23.4662C10.4779 22.1042 10.4779 19.8959 11.84 18.5339L18.1815 12.1923Z" fill="white"/>
</svg>
