<svg width="42" height="42" viewBox="0 0 42 42" fill="none" xmlns="http://www.w3.org/2000/svg">
<path d="M21 1C32.0476 1 41 9.95238 41 21C41 32.0476 32.0476 41 21 41C9.95238 41 1 32.0476 1 21C1 9.95238 9.95238 1 21 1Z" fill="#216C58"/>
<path d="M15.0396 8.14258H28.2518C28.6492 8.14258 28.9472 8.53818 28.9472 8.83489V9.23049C28.9472 9.62609 28.6492 9.9228 28.2518 9.9228H15.0396C14.6423 9.9228 14.3442 9.62609 14.3442 9.23049V8.83489C14.3442 8.53818 14.7416 8.14258 15.0396 8.14258Z" fill="#F3F3F3"/>
<path d="M19.5101 16.4505C20.0068 16.2527 20.6028 16.1538 21.3975 16.1538C22.4903 16.1538 23.285 16.3516 23.881 16.7473C24.2784 17.044 24.5764 17.3407 24.7751 17.8352C24.9738 18.2308 25.2718 18.6264 25.8678 18.6264H29.0467C29.6428 18.6264 30.1395 18.1319 30.0401 17.5385C29.9408 16.5495 29.5434 15.7582 28.9474 14.967C28.252 13.978 27.1593 13.2857 25.8678 12.7912C24.5764 12.2967 23.0863 12 21.3975 12C19.7088 12 18.2187 12.2967 16.9272 12.7912C15.6358 13.2857 14.5431 14.0769 13.7484 14.967C12.9537 15.956 12.5563 17.044 12.5563 18.3297C12.5563 19.9121 13.1523 21.1978 14.3444 22.0879C15.5365 22.978 17.0266 23.6703 18.914 24.0659L21.3975 24.5604C22.1923 24.7582 22.8876 24.956 23.3843 25.1538C23.881 25.3516 24.2784 25.5495 24.5764 25.8462C24.7751 26.044 24.9738 26.3407 24.9738 26.7363C24.9738 27.1319 24.8744 27.4286 24.5764 27.8242C24.2784 28.1209 23.881 28.4176 23.285 28.6154C22.7883 28.8132 22.0929 28.9121 21.2982 28.9121C20.5035 28.9121 19.8081 28.8132 19.2121 28.6154C18.616 28.4176 18.1193 28.1209 17.8213 27.7253C17.6226 27.4286 17.4239 27.1319 17.3246 26.8352C17.2253 26.3407 16.8279 25.9451 16.2319 25.9451H13.053C12.457 25.9451 11.9603 26.4396 12.0596 27.033C12.1589 28.2198 12.5563 29.2088 13.2517 30.0989C14.0464 31.0879 15.1391 31.8791 16.5299 32.3736C17.9206 32.8681 19.5101 33.1648 21.3975 33.1648C23.285 33.1648 24.8744 32.967 26.1659 32.3736C27.5566 31.8791 28.55 31.1868 29.2454 30.1978C29.9408 29.2088 30.3381 28.1209 30.3381 26.8352C30.3381 25.9451 30.1395 25.1538 29.7421 24.4615C29.3447 23.7692 28.848 23.1758 28.252 22.6813C27.656 22.1868 26.8612 21.7912 26.0665 21.3956C25.2718 21.0989 24.2784 20.8022 23.285 20.6044L21.2982 20.2088C20.8015 20.1099 20.4041 20.011 20.0068 19.9121C19.6094 19.8132 19.2121 19.6154 18.914 19.4176C18.616 19.2198 18.4173 19.022 18.2187 18.8242C18.1193 18.6264 18.02 18.4286 18.02 18.1319C18.02 17.8352 18.1193 17.4396 18.318 17.2418C18.7154 16.8462 19.0134 16.6484 19.5101 16.4505Z" fill="#F3F3F3"/>
<path fill-rule="evenodd" clip-rule="evenodd" d="M21.0005 19.6853V10.6152H19.2124V19.1344C19.455 19.2653 19.7309 19.3816 20.0067 19.4503L20.0068 19.4503C20.3215 19.5286 20.6363 19.607 21.0005 19.6853ZM21.0005 24.0196L19.2124 23.6635V28.1537C19.7327 28.3263 20.3288 28.4236 21.0005 28.4455V24.0196ZM21.9939 28.4227V24.2525C22.5395 24.399 23.0164 24.5455 23.3843 24.692C23.5248 24.748 23.6574 24.804 23.782 24.8622V27.9455C23.6332 28.0223 23.4685 28.0926 23.2849 28.1536C22.9395 28.2911 22.4981 28.3808 21.9939 28.4227ZM21.0005 32.6986C20.3721 32.6844 19.7773 32.6367 19.2124 32.5593V34.1537C19.2124 34.5493 19.5104 34.846 19.9078 34.846H20.3051C20.7025 34.846 21.0005 34.5493 21.0005 34.1537V32.6986ZM21.9939 32.696C22.6257 32.6805 23.2218 32.6387 23.782 32.5624V34.1537C23.782 34.5493 23.484 34.846 23.0867 34.846H22.6893C22.2919 34.846 21.9939 34.5493 21.9939 34.1537V32.696ZM23.782 20.2496V10.6152H21.9939V19.8855L23.2849 20.1426C23.4509 20.1756 23.6169 20.2115 23.782 20.2496Z" fill="#F3F3F3"/>
<path fill-rule="evenodd" clip-rule="evenodd" d="M38.4838 21.989C38.1858 21.989 37.9871 22.1868 37.9871 22.4835C37.1924 31.1868 29.9406 38.011 21 38.011C12.0594 38.011 4.8076 31.1868 4.01288 22.4835C4.01288 22.1868 3.71486 21.989 3.51619 21.989C3.21817 21.989 3.01949 22.2857 3.01949 22.5824C3.8142 31.7802 11.5627 39 21 39C30.4373 39 38.1858 31.7802 38.9805 22.5824C39.0799 22.2857 38.7818 21.989 38.4838 21.989ZM3.51619 20.011C3.8142 20.011 4.01288 19.8132 4.01288 19.5165C4.8076 10.8132 12.0594 4.08791 21 4.08791C29.9406 4.08791 37.1924 10.9121 37.9871 19.5165C37.9871 19.8132 38.2851 20.011 38.4838 20.011C38.7818 20.011 38.9805 19.7143 38.9805 19.4176C38.1858 10.2198 30.4373 3 21 3C11.5627 3 3.8142 10.2198 3.01949 19.4176C2.92015 19.7143 3.21817 20.011 3.51619 20.011Z" fill="#F3F3F3"/>
</svg>
