<svg width="42" height="42" viewBox="0 0 42 42" fill="none" xmlns="http://www.w3.org/2000/svg">
<rect width="42" height="42" rx="21" fill="url(#paint0_radial_6246_43754)"/>
<path d="M12.8122 26.7026H9.82376C10.0677 31.3682 13.971 35.424 20.8932 35.424C27.785 35.424 32.1762 31.6427 32.1762 26.7635C32.1762 17.4932 18.1793 18.0117 18.1793 12.6446C18.1793 11.1504 19.3075 9.38165 21.93 9.38165C24.8576 9.38165 28.3034 11.6688 28.5474 14.5962H31.5053C31.2004 9.86955 26.5957 6.57617 20.7407 6.57617C14.6724 6.57617 10.0982 10.1135 10.0982 15.1146C10.0982 24.6594 24.0951 23.4091 24.0951 29.2946C24.0951 31.1242 22.9669 32.649 20.1309 32.649C16.5935 32.649 13.0256 30.1789 12.8122 26.7026ZM15.3128 13.346C15.3128 20.6036 29.1878 19.1704 29.1878 26.9161C29.1878 29.2336 27.663 31.2768 25.8334 31.7951C26.4737 31.1853 26.9616 29.8435 26.9616 28.5628C26.9616 21.3966 13.0561 22.3724 13.0561 15.0232C13.0561 12.5531 14.6419 10.5709 16.624 9.96108C15.8616 10.8759 15.3128 12.0652 15.3128 13.346Z" fill="white"/>
<defs>
<radialGradient id="paint0_radial_6246_43754" cx="0" cy="0" r="1" gradientUnits="userSpaceOnUse" gradientTransform="translate(21 48.6809) rotate(-90) scale(67.2948)">
<stop stop-color="#FFD232"/>
<stop offset="1" stop-color="#FF6D6D"/>
</radialGradient>
</defs>
</svg>
