<svg xmlns="http://www.w3.org/2000/svg" width="42" height="42" fill="none"><g clip-path="url(#a)"><path fill="#009393" d="M21 0c11.597 0 21 9.403 21 21s-9.403 21-21 21S0 32.602 0 21 9.403 0 21 0Z"/><path fill="#F3F3F3" d="M23.957 18.658v-3.127h7.146v-4.76H11.65v4.76h7.146v3.127c-5.804.268-10.173 1.418-10.173 2.794 0 1.377 4.369 2.526 10.173 2.794v10.005h5.168V24.247c5.799-.269 10.156-1.418 10.156-2.795-.006-1.376-4.363-2.526-10.162-2.794Zm.006 4.743c-.146.006-.892.052-2.56.052a54.82 54.82 0 0 1-2.602-.052v.006c-5.128-.228-8.96-1.12-8.96-2.188s3.826-1.96 8.96-2.188v3.477c.338.024 1.295.082 2.625.082 1.592 0 2.391-.064 2.543-.082V19.02c5.122.227 8.943 1.12 8.943 2.187-.012 1.068-3.833 1.96-8.949 2.194Z"/></g><defs><clipPath id="a"><path fill="#fff" d="M0 0h42v42H0z"/></clipPath></defs></svg>