<svg width="42" height="42" viewBox="0 0 42 42" fill="none" xmlns="http://www.w3.org/2000/svg">
<g clip-path="url(#clip0_4532_197116)">
<path d="M41.9979 20.9989C41.9979 9.40155 32.5963 0 20.9989 0C9.40155 0 0 9.40155 0 20.9989C0 32.5963 9.40155 41.9979 20.9989 41.9979C32.5963 41.9979 41.9979 32.5963 41.9979 20.9989Z" fill="url(#paint0_linear_4532_197116)"/>
<path d="M20.9989 41.9979C32.5962 41.9979 41.9979 32.5962 41.9979 20.9989C41.9979 9.4017 32.5962 0 20.9989 0C9.4017 0 0 9.4017 0 20.9989C0 32.5962 9.4017 41.9979 20.9989 41.9979Z" fill="url(#paint1_linear_4532_197116)"/>
<path fill-rule="evenodd" clip-rule="evenodd" d="M29.8316 21.0384C29.8316 15.7736 25.5636 11.5056 20.2988 11.5056V8.03906C21.1962 8.03906 22.0723 8.13002 22.9185 8.30317C28.8421 9.51532 33.2981 14.7565 33.2981 21.0384C33.2981 28.2177 27.4781 34.0377 20.2988 34.0377C14.6388 34.0377 9.82361 30.4205 8.03906 25.3715H11.8053C13.3832 28.4582 16.5942 30.5712 20.2988 30.5712C25.5636 30.5712 29.8316 26.3033 29.8316 21.0384ZM8.79875 14.9721C10.9783 19.0953 15.3103 21.905 20.2988 21.905V18.4386C16.0264 18.4386 12.4106 15.6281 11.1991 11.7551C10.2425 12.6929 9.43025 13.7774 8.79875 14.9721ZM12.6654 10.5151C13.407 14.0505 16.5429 16.7053 20.2988 16.7053C22.6919 16.7053 24.6319 18.6453 24.6319 21.0384C24.6319 23.4316 22.6919 25.3715 20.2988 25.3715H13.8126C15.2117 27.4618 17.5945 28.838 20.2988 28.838C24.6063 28.838 28.0984 25.346 28.0984 21.0384C28.0984 16.7308 24.6063 13.2388 20.2988 13.2388C17.9057 13.2388 15.9656 11.2988 15.9656 8.90569V8.77878C14.7766 9.199 13.6671 9.7873 12.6654 10.5151Z" fill="white"/>
</g>
<defs>
<linearGradient id="paint0_linear_4532_197116" x1="20.9989" y1="0" x2="20.9989" y2="41.9979" gradientUnits="userSpaceOnUse">
<stop stop-color="#404141"/>
<stop offset="1" stop-color="#222222"/>
</linearGradient>
<linearGradient id="paint1_linear_4532_197116" x1="21.1366" y1="15.342" x2="20.9989" y2="41.9979" gradientUnits="userSpaceOnUse">
<stop stop-color="#122A5F"/>
<stop offset="1" stop-color="#0E2048"/>
</linearGradient>
<clipPath id="clip0_4532_197116">
<rect width="42" height="42" fill="white"/>
</clipPath>
</defs>
</svg>
