<svg width="36" height="36" viewBox="0 0 36 36" fill="none" xmlns="http://www.w3.org/2000/svg">
<rect width="35.9982" height="35.9982" rx="17.9991" fill="url(#paint0_linear_4101_219279)"/>
<path d="M17.9991 35.9982C27.9396 35.9982 35.9982 27.9396 35.9982 17.9991C35.9982 8.0586 27.9396 0 17.9991 0C8.0586 0 0 8.0586 0 17.9991C0 27.9396 8.0586 35.9982 17.9991 35.9982Z" fill="url(#paint1_linear_4101_219279)"/>
<path fill-rule="evenodd" clip-rule="evenodd" d="M25.536 17.9997C25.536 13.487 21.8777 9.8287 17.365 9.8287V6.85742C18.1342 6.85742 18.8852 6.93538 19.6105 7.0838C24.6879 8.12278 28.5073 12.6152 28.5073 17.9997C28.5073 24.1534 23.5187 29.142 17.365 29.142C12.5136 29.142 8.3863 26.0415 6.85669 21.7138H10.0849C11.4374 24.3595 14.1897 26.1707 17.365 26.1707C21.8777 26.1707 25.536 22.5125 25.536 17.9997ZM7.50785 12.8C9.37604 16.3342 13.0892 18.7425 17.365 18.7425V15.7713C13.703 15.7713 10.6037 13.3623 9.56527 10.0426C8.74535 10.8464 8.04914 11.776 7.50785 12.8ZM10.8221 8.97977C11.4578 12.0101 14.1457 14.2856 17.365 14.2856C19.4163 14.2856 21.0791 15.9485 21.0791 17.9997C21.0791 20.051 19.4163 21.7138 17.365 21.7138H11.8054C13.0047 23.5055 15.0471 24.6851 17.365 24.6851C21.0572 24.6851 24.0504 21.6919 24.0504 17.9997C24.0504 14.3075 21.0572 11.3143 17.365 11.3143C15.3138 11.3143 13.6509 9.65147 13.6509 7.60024V7.49146C12.6317 7.85165 11.6807 8.35591 10.8221 8.97977Z" fill="white"/>
<defs>
<linearGradient id="paint0_linear_4101_219279" x1="17.9991" y1="0" x2="17.9991" y2="35.9982" gradientUnits="userSpaceOnUse">
<stop stop-color="#404141"/>
<stop offset="1" stop-color="#222222"/>
</linearGradient>
<linearGradient id="paint1_linear_4101_219279" x1="18.1171" y1="13.1503" x2="17.9991" y2="35.9982" gradientUnits="userSpaceOnUse">
<stop stop-color="#122A5F"/>
<stop offset="1" stop-color="#0E2048"/>
</linearGradient>
</defs>
</svg>
