<svg width="42" height="42" viewBox="0 0 42 42" fill="none" xmlns="http://www.w3.org/2000/svg">
<rect width="42" height="42" rx="21" fill="white"/>
<path d="M22.4707 27.5971C18.2626 27.6506 14.9878 27.0683 12.5576 26.2805C12.081 26.1187 11.0411 25.6451 10.6934 25.0458C10.501 24.7141 10.4987 23.8629 10.5656 22.9868C10.5844 23.0477 10.6064 23.1007 10.6318 23.1445C10.9789 23.744 12.0251 24.2161 12.5049 24.3772C14.9521 25.1609 18.2529 25.7371 22.4993 25.6744C27.221 25.6047 30.1194 25.0482 31.8216 24.3888C31.8206 24.404 31.8196 24.4192 31.8186 24.4344C31.748 25.5238 31.6793 26.581 28.8881 27.0775C27.2729 27.3648 25.1739 27.5627 22.4707 27.5971Z" fill="#FF1100"/>
<path d="M22.4707 29.1313C18.2626 29.1848 14.9878 28.6025 12.5576 27.8147C12.081 27.6528 11.0411 27.1792 10.6934 26.5799C10.501 26.2483 10.4987 25.3971 10.5656 24.521C10.5844 24.5819 10.6064 24.6348 10.6318 24.6787C10.9789 25.2781 12.0251 25.7502 12.5049 25.9113C14.9521 26.695 18.2529 27.2712 22.4993 27.2085C27.221 27.1388 30.1194 26.5824 31.8216 25.9229C31.8206 25.9381 31.8196 25.9534 31.8186 25.9685C31.748 27.0579 31.6793 28.1152 28.8881 28.6117C27.2729 28.8989 25.1739 29.0969 22.4707 29.1313Z" fill="#FDBF41"/>
<path d="M32.8236 27.5633C32.8627 28.5486 30.6474 30.5486 21.4732 30.6655C17.2651 30.719 13.9903 30.1366 11.56 29.3489C11.0835 29.187 10.0436 28.7134 9.69583 28.1141C9.50345 27.7825 9.50114 26.9313 9.56803 26.0552C9.58686 26.1161 9.60887 26.169 9.63424 26.2128C9.98123 26.8123 11.0276 27.2844 11.5074 27.4455C13.9546 28.2292 17.2552 28.8054 21.5017 28.7427C28.8134 28.6347 31.7527 27.3597 32.649 26.3423L32.8236 27.5633Z" fill="#F1ECE2"/>
<path d="M21.7973 9.58014C23.49 10.1857 25.9958 13.5333 22.4774 22.0797C20.8636 25.9998 18.5457 28.6441 16.2205 30.375C15.752 30.7096 14.5248 31.3614 13.364 31.2922C12.9097 31.2651 12.0515 30.9808 11.0701 30.5931C11.2976 30.653 11.4913 30.6903 11.6411 30.6994C12.8019 30.7692 14.029 30.1106 14.4975 29.7725C16.8228 28.0234 19.1407 25.3511 20.7545 21.3897C23.6594 14.2591 22.4579 10.7097 20.9978 9.34424L21.7973 9.58014Z" fill="#FF1100"/>
<path d="M23.2489 9.67476C24.9416 10.2977 27.4474 13.7418 23.929 22.5344C22.3151 26.5674 19.9973 29.2879 17.6721 31.0687C17.2035 31.4128 15.9763 32.0834 14.8156 32.0122C14.3612 31.9843 13.503 31.6919 12.5215 31.293C12.7491 31.3547 12.9428 31.393 13.0927 31.4023C14.2534 31.4742 15.4806 30.7966 15.9491 30.4488C18.2744 28.6493 20.5922 25.9001 22.206 21.8244C25.1109 14.4885 23.9094 10.8369 22.4494 9.43213L23.2489 9.67476Z" fill="#FDBF41"/>
<path d="M24.5177 10.4883C26.2104 11.1113 28.7162 14.5553 25.1978 23.3479C23.5839 27.381 21.2661 30.1015 18.9409 31.8822C18.4723 32.2264 17.2451 32.8969 16.0844 32.8257C15.63 32.7979 14.7718 32.5054 13.7903 32.1065C14.0179 32.1682 14.2116 32.2066 14.3615 32.2158C15.5222 32.2878 16.7494 31.6101 17.2179 31.2623C19.5431 29.4628 21.861 26.7136 23.4748 22.638C26.3797 15.3021 25.1782 11.6504 23.7182 10.2456L24.5177 10.4883Z" fill="#F1ECE2"/>
<path d="M26.3626 23.7452C29.8811 14.627 27.3752 11.0554 25.6825 10.4093L24.8831 10.1577C24.8984 10.173 24.9137 10.1885 24.929 10.2043C23.7012 10.0033 22.0191 10.837 20.4325 12.433C20.2057 12.6589 21.1993 12.2869 21.5206 11.9668C22.2914 11.3344 23.4445 11.0179 24.5283 11.4725C26.9738 12.4983 27.0244 17.9006 24.6416 23.5391C22.2587 29.1775 18.6166 32.8264 16.1712 31.8006C15.8443 31.6635 15.5024 31.4069 15.2183 31.2095C14.5621 30.6236 14.2662 29.841 14.2662 27.8217V30.3131C14.094 30.057 13.9488 29.77 13.8356 29.4479C13.8128 28.9058 13.4501 28.0025 13.3384 28.951C13.4227 31.0207 14.3203 32.2236 15.5319 32.9418L15.5263 32.9414C15.4809 32.9385 15.4459 32.9375 15.4157 32.9366C15.2999 32.9333 15.2531 32.9319 14.9555 32.8333C15.9057 33.25 16.4258 33.4439 16.9958 33.4657C18.3311 33.5169 19.8825 32.7385 20.351 32.3816C22.6763 30.5349 24.7488 27.9275 26.3626 23.7452Z" fill="#007FFF"/>
<path d="M21.5239 19.123C25.732 19.0695 29.0068 19.6519 31.4371 20.4396C31.9136 20.6015 32.9535 21.0751 33.3012 21.6744C33.4937 22.006 33.4959 22.8573 33.4291 23.7333C33.4103 23.6724 33.3883 23.6195 33.3629 23.5757C33.0158 22.9762 31.9695 22.5041 31.4897 22.343C29.0425 21.5593 25.7418 20.9831 21.4954 21.0458C16.7736 21.1155 13.8753 21.6719 12.1731 22.3314C12.1741 22.3162 12.1751 22.301 12.176 22.2858C12.2467 21.1964 12.3153 20.1391 15.1066 19.6427C16.7217 19.3554 18.8207 19.1575 21.5239 19.123Z" fill="#FF1100"/>
<path d="M21.5239 20.8569C25.732 20.8034 29.0068 21.3858 31.4371 22.1735C31.9136 22.3354 32.9535 22.809 33.3012 23.4083C33.4937 23.7399 33.4959 24.5911 33.4291 25.4672C33.4103 25.4063 33.3883 25.3534 33.3629 25.3095C33.0158 24.7101 31.9695 24.238 31.4897 24.0769C29.0425 23.2932 25.7418 22.7169 21.4954 22.7797C16.7736 22.8494 13.8753 23.4058 12.1731 24.0653C12.1741 24.0501 12.1751 24.0349 12.176 24.0197C12.2467 22.9303 12.3153 21.873 15.1066 21.3765C16.7217 21.0893 18.8207 20.8913 21.5239 20.8569Z" fill="#FDBF41"/>
<path opacity="0.48" d="M32.8029 28.1364C32.8442 28.1034 32.8442 28.1 32.8029 28.0669C32.7072 27.9881 32.6047 27.9195 32.4999 27.8542C32.1498 27.6365 31.7758 27.4704 31.3927 27.3263C31.3052 27.2933 31.2201 27.2534 31.1268 27.2365C31.1013 27.2068 31.0632 27.2043 31.0302 27.1933C30.6727 27.0712 30.3086 26.9712 29.9436 26.8755C29.9131 26.873 29.8834 26.8662 29.8569 26.8509C29.686 26.8127 29.5151 26.7738 29.345 26.7357C29.0288 26.6653 28.7109 26.6043 28.3922 26.5492C28.1561 26.5086 27.9191 26.4704 27.6821 26.434C27.4972 26.406 27.3122 26.3772 27.1256 26.3636C27.0951 26.3586 27.0645 26.3526 27.0332 26.3484C26.38 26.2662 25.7261 26.2044 25.0697 26.1577C24.6412 26.1281 24.2127 26.1044 23.7833 26.0874C23.2227 26.0653 22.6612 26.0552 22.0998 26.0552C21.4037 26.0552 20.7085 26.073 20.0141 26.1077C19.2116 26.1476 18.4107 26.2103 17.6122 26.3018C17.4818 26.3171 17.3497 26.3255 17.2209 26.3544C17.1944 26.3467 17.1688 26.3544 17.1424 26.3568C16.5735 26.4289 16.0071 26.5179 15.444 26.6272C15.1113 26.6916 14.7802 26.7628 14.4515 26.8433L14.4449 26.8543C14.4449 26.8543 14.3599 28.1101 14.5482 29.3364C14.8727 29.4152 15.1988 29.4855 15.5257 29.5482C15.8181 29.6041 16.1111 29.6575 16.4059 29.7008C16.8188 29.7617 17.2324 29.8237 17.6477 29.8677C18.0514 29.9109 18.4544 29.9558 18.859 29.9863C19.0984 30.0041 19.3371 30.0253 19.5765 30.0397C19.9307 30.0609 20.2858 30.0787 20.64 30.0914C20.9636 30.1033 21.2873 30.1126 21.611 30.1168C22.1286 30.1236 22.6472 30.1211 23.1649 30.1101C23.6635 30.099 24.1623 30.0796 24.6601 30.0507C25.2538 30.0168 25.8466 29.9685 26.4387 29.9058C27.3411 29.8101 28.2386 29.6813 29.1279 29.499C29.9048 29.3398 30.6727 29.1448 31.4175 28.8635C31.7419 28.7415 32.0598 28.6016 32.362 28.4288C32.5156 28.3415 32.6642 28.2466 32.8029 28.1356V28.1364Z" fill="url(#paint0_linear_6116_120366)"/>
<path d="M10.1731 25.5812C10.134 24.5957 12.3493 22.5958 21.5235 22.479C25.7315 22.4254 29.0063 23.0078 31.4367 23.7956C31.9131 23.9574 32.9531 24.431 33.3008 25.0303C33.4932 25.3619 33.4955 26.2132 33.4286 27.0892C33.4098 27.0283 33.3878 26.9754 33.3624 26.9316C33.0154 26.3321 31.969 25.86 31.4893 25.6989C29.0421 24.9152 25.7414 24.339 21.4949 24.4017C14.1833 24.5097 11.244 25.7847 10.3477 26.8021L10.1731 25.5812Z" fill="#F1ECE2"/>
<path d="M10.1731 27.3927C10.134 26.4073 12.3493 24.4073 21.5235 24.2905C25.7315 24.2369 29.0063 24.8193 31.4367 25.6071C31.9131 25.769 32.9531 26.2425 33.3008 26.8419C33.4742 27.1406 33.4932 27.8611 33.4464 28.6416C33.0745 28.0623 31.9594 27.6682 31.4895 27.5104C29.0423 26.7266 25.7416 26.1505 21.4952 26.2131C14.183 26.3211 11.2438 27.5964 10.3477 28.6138L10.1731 27.3927Z" fill="#007FFF"/>
<path d="M10.989 31.0493C9.29627 30.4214 6.79046 26.9503 10.3089 18.0887C11.9227 14.024 14.2406 11.2822 16.5658 9.4875C17.0343 9.14063 18.2615 8.46479 19.4223 8.53654C20.0785 8.57706 21.5771 9.17379 23.0727 9.8469C22.9188 9.86285 22.7702 9.87925 22.6285 9.89484C22.1143 9.9515 21.6887 9.99838 21.4172 9.98186C20.2565 9.91142 19.0293 10.575 18.5608 10.9157C16.2356 12.6779 13.9177 15.3701 12.3039 19.3613C9.38099 26.5897 10.6155 30.1653 12.0877 31.5221L10.989 31.0493Z" fill="#FF1100"/>
<path d="M12.4404 31.7415C10.7477 31.1069 8.24187 27.5981 11.7603 18.6403C13.3741 14.5314 15.692 11.7598 18.0172 9.94565C18.4858 9.59498 19.7129 8.91185 20.8736 8.98435C21.3803 9.01602 22.3893 9.38283 23.5112 9.86162C23.0923 9.7211 22.7437 9.63176 22.5059 9.6168C21.3452 9.54374 20.118 10.2318 19.6495 10.585C17.3242 12.4121 15.0064 15.2036 13.3925 19.3419C9.87416 28.3638 12.4613 31.7834 14.154 32.4227L15.6048 32.9195L12.4404 31.7415Z" fill="#FDBF41"/>
<path d="M13.7993 32.3513C12.1066 31.7098 9.60076 28.1634 13.1192 19.1093C14.733 14.9563 17.0509 12.1549 19.3761 10.3212C19.8446 9.96682 21.0718 9.27633 22.2326 9.34964C22.757 9.38275 23.8195 9.7788 24.9884 10.2876C24.5932 10.1614 24.2642 10.0817 24.0368 10.067C22.8761 9.99214 21.6582 10.6125 21.1897 10.9744C18.8644 12.8471 16.5467 15.708 14.9328 19.9492C11.9286 27.8444 14.0106 31.7152 15.5128 33.0138L13.7993 32.3513Z" fill="#F1ECE2"/>
<path d="M14.5718 19.6082C11.0534 28.7264 13.5592 32.298 15.2519 32.944L16.0513 33.1956C16.036 33.1804 16.0208 33.1648 16.0055 33.1491C17.2332 33.35 18.9153 32.5164 20.502 30.9203C20.7287 30.6945 19.7351 31.0665 19.4138 31.3865C18.643 32.0189 17.4899 32.3354 16.4061 31.8808C13.9607 30.8551 13.9099 25.4527 16.2928 19.8143C18.6757 14.1759 22.3178 10.527 24.7633 11.5527C25.0901 11.6899 25.4321 11.9464 25.7161 12.1438C26.3724 12.7297 26.6682 13.5123 26.6682 15.5316V13.0403C26.8404 13.2963 26.9857 13.5833 27.0988 13.9054C27.1217 14.4475 27.4844 15.3509 27.5961 14.4023C27.5118 12.3327 26.6142 11.1298 25.4025 10.4116L25.4081 10.412C25.4535 10.4149 25.4886 10.4159 25.5188 10.4168C25.6345 10.4201 25.6814 10.4214 25.9789 10.5201C25.0288 10.1034 24.5087 9.90948 23.9386 9.88766C22.6033 9.83648 21.0519 10.6148 20.5834 10.9717C18.2581 12.8184 16.1857 15.4258 14.5718 19.6082Z" fill="#007FFF"/>
<path d="M22.2569 30.0632C29.353 29.8599 32.3133 28.6139 33.287 27.5991L33.3797 28.4494L33.4241 28.4052C33.4532 28.5018 33.4636 28.7201 33.4194 28.9214C33.2954 29.7879 30.7169 32.034 20.7289 32.034C20.3642 32.034 20.0168 32.0298 19.686 32.0216C20.4302 31.3589 21.0648 30.7076 21.609 30.0769C21.8225 30.074 22.0384 30.0695 22.2569 30.0632Z" fill="#007FFF"/>
<defs>
<linearGradient id="paint0_linear_6116_120366" x1="24.31" y1="25.6035" x2="24.4813" y2="29.3983" gradientUnits="userSpaceOnUse">
<stop offset="0.16" stop-color="#191919"/>
<stop offset="0.97" stop-color="#191919" stop-opacity="0"/>
</linearGradient>
</defs>
</svg>
