<svg width="42" height="42" viewBox="0 0 42 42" fill="none" xmlns="http://www.w3.org/2000/svg">
<rect width="42" height="42" rx="21" fill="white"/>
<path d="M20.6677 30.4008C20.6928 30.3882 20.6928 30.3631 20.7054 30.3463C21.2082 29.3073 21.7151 28.2682 22.2053 27.225C22.7123 26.144 23.2318 25.0672 23.7555 23.9947C25.7289 19.9432 27.6688 15.8707 29.6338 11.8108C29.8642 11.329 30.2497 11.0525 30.7776 10.9812C30.8027 10.9771 30.8237 10.9771 30.8488 10.9771C31.5988 10.9771 32.3488 10.9771 33.0987 10.9771C33.1113 10.9771 33.1281 10.9771 33.1406 10.9771C33.1406 11.0064 33.1239 11.0273 33.1155 11.0441C31.4144 14.5803 29.7092 18.1164 28.0082 21.6526C26.0934 25.6287 24.1787 29.6048 22.264 33.5809C22.2388 33.6311 22.2137 33.6479 22.1592 33.6479C21.1663 33.6479 20.1691 33.6479 19.1761 33.6479C19.1259 33.6479 19.1007 33.6311 19.0756 33.585C16.7838 28.8087 14.4836 24.0282 12.1834 19.2518C11.3873 17.5969 10.5913 15.9461 9.79943 14.2953C9.2799 13.2144 8.75617 12.1334 8.23664 11.0525C8.22826 11.0315 8.21569 11.0064 8.20312 10.9771C8.23245 10.9771 8.2534 10.9771 8.27854 10.9771C10.3609 10.9771 12.4432 10.9771 14.5255 10.9771C14.7978 10.9771 15.066 11.0106 15.3341 11.0608C16.4653 11.2745 17.408 11.8192 18.1706 12.6739C18.489 13.03 18.7404 13.4323 18.9457 13.8596C20.2906 16.6416 21.6397 19.4236 22.9888 22.2014C23.0181 22.2643 23.0181 22.3062 22.9888 22.3648C22.4944 23.3913 22 24.4178 21.5056 25.4443C21.4931 25.4653 21.4805 25.4904 21.4679 25.5197C21.3967 25.3773 21.3339 25.239 21.2668 25.105C19.6412 21.7531 18.0156 18.3971 16.3899 15.0411C16.1804 14.6054 15.8327 14.3372 15.3551 14.2409C15.2671 14.2241 15.1749 14.2157 15.0827 14.2157C14.3705 14.2157 13.6582 14.2157 12.9459 14.2157C12.9292 14.2157 12.9082 14.2116 12.8831 14.2241C15.4808 19.6205 18.0742 25.0086 20.6677 30.4008Z" fill="#82BD00"/>
</svg>
