<svg width="36" height="36" viewBox="0 0 36 36" fill="none" xmlns="http://www.w3.org/2000/svg">
<rect y="-0.000976562" width="36" height="36" rx="18" fill="white"/>
<rect y="-0.000976562" width="36" height="36" rx="18" fill="url(#paint0_linear_6677_48019)"/>
<path d="M18.0214 8.44407C20.3976 8.46567 22.0393 9.84816 22.9466 12.1163C23.4434 13.3692 23.6162 14.6869 23.6594 16.0262C23.681 16.6094 23.7242 16.6742 24.2859 16.4798C25.798 16.0046 27.2453 15.3997 28.6062 14.5789C28.6926 14.5141 28.779 14.4709 28.887 14.4277C29.0598 14.3629 29.2542 14.3197 29.3838 14.4925C29.535 14.6869 29.4918 14.8813 29.319 15.0109C28.9734 15.3133 28.6494 15.5942 28.3037 15.875C26.9213 17.0198 25.3659 17.8407 23.7242 18.5104C23.4434 18.6184 23.2706 18.7912 23.1842 19.1152C22.5578 21.2753 21.5641 23.2411 20.2248 25.0556C19.7496 25.682 19.2743 26.3085 18.7127 26.8701C17.6326 27.9934 15.8181 27.691 15.1485 26.2869C14.522 25.034 13.9604 23.7379 13.2259 22.5498C12.2323 20.9297 11.0658 19.4824 9.70488 18.1431C8.19278 16.6526 6.52947 15.3781 4.67174 14.3197C4.41252 14.1685 4.1317 14.0388 3.85088 13.9092C3.63487 13.8012 3.44045 13.6284 3.52686 13.3692C3.61327 13.1316 3.85088 13.1316 4.0669 13.1748C6.18384 13.4772 8.10637 14.2765 9.9209 15.3349C12.8155 17.0415 15.1052 19.3744 16.9198 22.2042C17.2654 22.7442 17.2654 22.7442 17.6326 22.2258C18.1295 21.4914 18.5399 20.7137 18.9503 19.936C19.1231 19.612 19.1447 19.4608 18.6695 19.4392C16.3581 19.288 14.5436 18.2295 13.3555 16.199C11.9514 13.8228 12.7291 11.2955 14.6516 9.67535C15.6453 8.8977 16.747 8.42246 18.0214 8.44407ZM20.2896 15.1837C20.2464 14.1901 20.0952 13.2612 19.5768 12.3971C18.9935 11.4467 18.1079 11.1659 17.0926 11.5763C16.1205 11.9651 15.4941 13.0452 15.6885 13.9956C16.0773 15.7454 17.2438 16.7174 18.9287 16.9982C20.1384 17.2143 19.9872 17.3871 20.1816 16.1342C20.2248 15.8318 20.2464 15.5077 20.2896 15.1837Z" fill="#539496"/>
<path d="M31.544 12.4835C32.1272 12.4619 32.4728 12.786 32.4944 13.3476C32.4944 13.9956 31.9328 14.6005 31.328 14.6005C30.8095 14.6005 30.4207 14.1037 30.4207 13.4124C30.4207 12.9156 30.9391 12.4835 31.544 12.4835Z" fill="#539496"/>
<defs>
<linearGradient id="paint0_linear_6677_48019" x1="7.45242" y1="3.50902" x2="28.3324" y2="32.669" gradientUnits="userSpaceOnUse">
<stop stop-color="#CFF4EC"/>
<stop offset="1" stop-color="#E8FADA"/>
</linearGradient>
</defs>
</svg>
