<svg width="42" height="42" viewBox="0 0 42 42" fill="none" xmlns="http://www.w3.org/2000/svg">
<rect width="42" height="42" rx="21" fill="url(#paint0_linear_6677_48010)"/>
<path d="M21.0249 9.85239C23.7971 9.87759 25.7125 11.4905 26.7709 14.1367C27.3506 15.5984 27.5522 17.1357 27.6026 18.6982C27.6278 19.3786 27.6782 19.4542 28.3334 19.2274C30.0976 18.673 31.7861 17.9673 33.3738 17.0097C33.4746 16.9341 33.5754 16.8837 33.7014 16.8333C33.903 16.7577 34.1298 16.7073 34.281 16.9089C34.4575 17.1357 34.407 17.3625 34.2054 17.5137C33.8022 17.8665 33.4242 18.1942 33.021 18.5218C31.408 19.8575 29.5935 20.8151 27.6782 21.5964C27.3506 21.7224 27.149 21.924 27.0481 22.302C26.3173 24.8222 25.158 27.1156 23.5955 29.2325C23.0411 29.9634 22.4866 30.6942 21.8314 31.3494C20.5713 32.6599 18.4544 32.3071 17.6731 30.669C16.9423 29.2073 16.287 27.6952 15.4302 26.3091C14.2709 24.419 12.91 22.7305 11.3223 21.168C9.55816 19.429 7.61763 17.9421 5.45028 16.7073C5.14786 16.5308 4.82024 16.3796 4.49262 16.2284C4.2406 16.1024 4.01378 15.9008 4.11459 15.5984C4.2154 15.3212 4.49262 15.3212 4.74463 15.3716C7.2144 15.7244 9.45735 16.6568 11.5743 17.8917C14.9513 19.8827 17.6227 22.6045 19.7397 25.9059C20.1429 26.5359 20.1429 26.5359 20.5713 25.9311C21.1509 25.0742 21.6298 24.167 22.1086 23.2597C22.3102 22.8817 22.3354 22.7053 21.781 22.6801C19.0844 22.5036 16.9675 21.2688 15.5814 18.8998C13.9433 16.1276 14.8505 13.179 17.0935 11.2889C18.2528 10.3816 19.538 9.82718 21.0249 9.85239ZM23.6711 17.7153C23.6207 16.556 23.4443 15.4724 22.8395 14.4643C22.159 13.3554 21.1257 13.0278 19.9413 13.5066C18.8072 13.9603 18.0763 15.2204 18.3032 16.3292C18.7568 18.3706 20.1177 19.5046 22.0834 19.8323C23.4947 20.0843 23.3183 20.2859 23.5451 18.8242C23.5955 18.4714 23.6207 18.0933 23.6711 17.7153Z" fill="#539496"/>
<path d="M36.8012 14.5651C37.4817 14.5399 37.8849 14.9179 37.9101 15.5732C37.9101 16.3292 37.2548 17.0349 36.5492 17.0349C35.9444 17.0349 35.4907 16.4552 35.4907 15.6488C35.4907 15.0691 36.0956 14.5651 36.8012 14.5651Z" fill="#539496"/>
<defs>
<linearGradient id="paint0_linear_6677_48010" x1="8.69449" y1="4.095" x2="33.0545" y2="38.115" gradientUnits="userSpaceOnUse">
<stop stop-color="#CFF4EC"/>
<stop offset="1" stop-color="#E8FADA"/>
</linearGradient>
</defs>
</svg>
