<svg width="42" height="42" viewBox="0 0 42 42" fill="none" xmlns="http://www.w3.org/2000/svg">
<rect width="42" height="42" rx="21" fill="white"/>
<path fill-rule="evenodd" clip-rule="evenodd" d="M16.3685 26.1848C15.8848 25.8262 15.3011 25.5258 14.6555 25.3432C14.01 25.1607 13.3026 25.0961 12.611 25.1727C11.9194 25.2492 11.2434 25.4667 10.6537 25.786C10.064 26.1051 9.5604 26.5259 9.16727 26.9817C8.77306 27.4363 8.42963 27.9949 8.19961 28.6234C7.9696 29.2521 7.85298 29.951 7.87861 30.6445C7.90424 31.338 8.07209 32.0264 8.34784 32.6364C8.62363 33.2465 9.00734 33.7784 9.43404 34.2029C9.85971 34.6284 10.3929 35.0112 11.0046 35.2862C11.6163 35.5613 12.3065 35.7286 13.0019 35.7542C13.6973 35.7798 14.3979 35.6635 15.0283 35.434C15.6586 35.2046 16.2186 34.8621 16.6745 34.469C17.1314 34.0769 17.5534 33.5747 17.8733 32.9865C18.1934 32.3983 18.4116 31.7242 18.4882 31.0343C18.565 30.3446 18.5003 29.6391 18.3173 28.9952C18.1343 28.3514 17.8329 27.7692 17.4733 27.2868L18.6611 26.1023L19.5257 26.9644H20.0168L20.6094 26.3733V25.8836L19.7448 25.0214L21 23.7695L22.2552 25.0214L21.3906 25.8836V26.3733L21.9832 26.9644H22.4743L23.3389 26.1023L24.5267 27.2868C24.1671 27.7692 23.8657 28.3514 23.6828 28.9952C23.4997 29.6391 23.435 30.3446 23.5118 31.0343C23.5884 31.7242 23.8066 32.3983 24.1267 32.9865C24.4466 33.5747 24.8686 34.0769 25.3255 34.469C25.7814 34.8621 26.3414 35.2046 26.9717 35.434C27.602 35.6635 28.3028 35.7798 28.998 35.7542C29.6935 35.7286 30.3837 35.5613 30.9953 35.2862C31.6071 35.0112 32.1403 34.6284 32.5659 34.2029C32.9926 33.7784 33.3764 33.2465 33.6522 32.6364C33.928 32.0264 34.0958 31.338 34.1214 30.6445C34.147 29.951 34.0303 29.2521 33.8003 28.6234C33.5703 27.9949 33.2269 27.4363 32.8327 26.9817C32.4396 26.5259 31.9361 26.1051 31.3463 25.786C30.7566 25.4667 30.0807 25.2492 29.389 25.1727C28.6973 25.0961 27.99 25.1607 27.3445 25.3432C26.6989 25.5258 26.1151 25.8262 25.6315 26.1848L24.4658 25.0204L25.3299 24.1586V23.6689L24.7162 23.0568H24.2251L23.3605 23.9189L22.1048 22.6676L28.6876 16.1022L31.3523 18.7598V15.9946H34.125L31.4603 13.337L34.125 10.6793V10.1896L33.5112 9.57739H33.0202L21 21.5656L8.97985 9.57739H8.48881L7.875 10.1896V10.6793L10.5397 13.337L7.875 15.9946H10.6476V18.7598L13.3123 16.1022L19.8952 22.6676L18.6395 23.9189L17.7749 23.0568H17.2838L16.6701 23.6689V24.1586L17.5342 25.0204L16.3685 26.1848ZM27.0506 32.2668C26.7796 32.8213 26.8359 33.5896 27.185 34.099C27.5056 34.6265 28.1838 34.9954 28.8022 34.9785C29.4205 34.9954 30.0986 34.6265 30.4193 34.099C30.7683 33.5896 30.8246 32.8213 30.5535 32.2668L30.6211 32.1942C31.177 32.4659 31.9485 32.411 32.4601 32.063C32.99 31.7434 33.3606 31.0663 33.3437 30.4489C33.3606 29.8317 32.99 29.1547 32.4601 28.8351C31.9485 28.4871 31.177 28.4321 30.6211 28.7038L30.5535 28.6315C30.8246 28.0769 30.7683 27.3085 30.4193 26.799C30.0986 26.2716 29.4205 25.9026 28.8022 25.9195C28.1838 25.9026 27.5056 26.2716 27.185 26.799C26.8359 27.3085 26.7796 28.0769 27.0506 28.6315L26.9832 28.7038C26.4272 28.4321 25.6556 28.4871 25.1441 28.8351C24.6143 29.1547 24.2435 29.8317 24.2606 30.4489C24.2435 31.0663 24.6143 31.7434 25.1441 32.063C25.6556 32.411 26.4272 32.4659 26.9832 32.1942L27.0506 32.2668ZM14.8148 34.099C15.1638 33.5896 15.2201 32.8213 14.949 32.2668L15.0166 32.1942C15.5725 32.4659 16.3441 32.411 16.8556 32.063C17.3854 31.7434 17.7562 31.0663 17.7393 30.4489C17.7562 29.8317 17.3854 29.1547 16.8556 28.8351C16.3441 28.4871 15.5725 28.4321 15.0166 28.7038L14.949 28.6315C15.2201 28.0769 15.1638 27.3085 14.8148 26.799C14.4942 26.2716 13.8159 25.9026 13.1976 25.9195C12.5793 25.9026 11.9011 26.2716 11.5804 26.799C11.2314 27.3085 11.1752 28.0769 11.4462 28.6315L11.3787 28.7038C10.8227 28.4321 10.0511 28.4871 9.53963 28.8351C9.0098 29.1547 8.63907 29.8317 8.656 30.4489C8.63907 31.0663 9.0098 31.7434 9.53963 32.063C10.0511 32.411 10.8227 32.4659 11.3787 32.1942L11.4462 32.2668C11.1752 32.8213 11.2314 33.5896 11.5804 34.099C11.9011 34.6265 12.5793 34.9954 13.1976 34.9785C13.8159 34.9954 14.4942 34.6265 14.8148 34.099Z" fill="#E03405"/>
<path fill-rule="evenodd" clip-rule="evenodd" d="M20.96 9.39311L24.1154 6.24219L25.6779 7.80249V13.062L21.3506 17.3832H20.5695L16.2422 13.062V7.80249L17.8047 6.24219L20.96 9.39311ZM17.8047 7.34549L20.5695 10.1063V15.1766L17.8047 12.4157V7.34549ZM21.3508 10.1063L24.1155 7.34549V12.4157L21.3508 15.1766V10.1063Z" fill="#E03405"/>
</svg>
