<svg width="42" height="42" viewBox="0 0 42 42" fill="none" xmlns="http://www.w3.org/2000/svg">
<rect x="0.5" y="0.5" width="41" height="41" rx="20.5" fill="#222222"/>
<rect x="0.5" y="0.5" width="41" height="41" rx="20.5" stroke="white"/>
<path d="M40.3156 15.9484C40.2346 15.726 40.1339 15.5568 39.8743 15.5081L39.8639 15.5064C39.8579 15.5049 39.8518 15.5035 39.8456 15.5022C39.8399 15.501 39.8341 15.4999 39.8282 15.4988C39.5706 15.4527 39.359 15.5816 39.1842 15.8854C38.6289 16.8524 38.0741 17.8199 37.5191 18.7875L37.5183 18.7891C35.7017 21.9568 33.8841 25.1261 32.045 28.2846C30.8766 30.2821 29.101 31.3683 26.7734 31.4696C25.8799 31.509 24.9818 31.5015 24.0823 31.494C23.7222 31.491 23.3617 31.488 23.0014 31.488C22.9694 31.488 22.9418 31.4835 22.9094 31.4777L22.9094 19.1808C22.9081 19.1801 22.9067 19.1795 22.9053 19.1789C22.8904 19.1714 22.8763 19.1649 22.8732 19.1694C22.8669 19.1676 22.8606 19.1656 22.8542 19.1624C22.7668 19.3097 22.6817 19.457 22.5966 19.6043L22.5961 19.6051C22.5112 19.7521 22.4262 19.8991 22.339 20.0461C21.82 20.9439 21.3056 21.8455 20.7911 22.7473C19.6915 24.6745 18.5916 26.6025 17.4446 28.4963C16.313 30.3742 14.5558 31.3591 12.3662 31.4696C11.4721 31.509 10.578 31.5015 9.68727 31.494H9.68687L9.68616 31.494C9.33077 31.491 8.97591 31.488 8.6218 31.488C8.59301 31.488 8.56171 31.483 8.53183 31.4782C8.51179 31.475 8.49219 31.4718 8.47461 31.4704V13.1976H15.7794V25.4679C15.7858 25.4634 15.7919 25.4588 15.7978 25.4542V25.4772C15.8719 25.4196 15.9165 25.3472 15.958 25.2799C15.9629 25.2719 15.9678 25.2641 15.9726 25.2563C18.245 21.3073 20.5174 17.3583 22.7806 13.4001C22.8726 13.2345 22.9738 13.1792 23.1578 13.1792H30.2418V25.5047C30.2482 25.4997 30.2543 25.4947 30.2602 25.4897V25.514C30.343 25.4496 30.389 25.3852 30.4258 25.3115C31.2346 23.9001 32.0456 22.4909 32.8566 21.0818L32.8648 21.0675C33.6748 19.6601 34.4849 18.2526 35.2926 16.8428C35.7296 16.0834 36.1667 15.3217 36.6037 14.56C37.0407 13.7983 37.4777 13.0365 37.9147 12.2771C38.2406 11.7001 38.3506 11.2049 37.9965 10.5C39.0258 12.075 39.8639 13.9577 40.3156 15.9484Z" fill="white"/>
</svg>
