<svg xmlns="http://www.w3.org/2000/svg" width="42" height="42" fill="none"><circle cx="21" cy="21" r="21" fill="#E39652"/><path fill="#F3F3F3" d="m33.016 9.942-1.047 1.046a14.812 14.812 0 0 1 0 19.992l1.047 1.046a16.309 16.309 0 0 0 0-22.109v.025ZM11.01 10.032a14.812 14.812 0 0 1 19.993 0l1.046-1.047a16.309 16.309 0 0 0-22.11 0l1.072 1.047ZM10.031 30.99a14.813 14.813 0 0 1 0-19.98L8.985 9.962a16.309 16.309 0 0 0 0 22.109l1.046-1.081ZM30.988 31.956a14.813 14.813 0 0 1-19.991 0L9.95 33.003a16.309 16.309 0 0 0 22.11 0l-1.072-1.047ZM27.602 17.507c-.21-2.183-2.093-2.916-4.475-3.139v-3.006h-1.842v2.95h-1.471v-2.95h-1.828v3.027H14.25v1.97s1.36-.024 1.34 0a.952.952 0 0 1 1.046.81v8.287a.645.645 0 0 1-.223.45.639.639 0 0 1-.474.16c.024.021-1.34 0-1.34 0l-.348 2.201h3.7v3.076h1.842v-3.03h1.471v3.016h1.846v-3.041c3.11-.188 5.28-.956 5.552-3.868.22-2.344-.882-3.39-2.644-3.812 1.071-.527 1.734-1.503 1.584-3.1Zm-2.581 6.55c0 2.288-3.92 2.027-5.17 2.027v-4.06c1.25.003 5.17-.356 5.17 2.033Zm-.855-5.72c0 2.093-3.271 1.838-4.31 1.838v-3.69c1.039 0 4.31-.328 4.31 1.852Z"/></svg>