<svg width="42" height="42" viewBox="0 0 42 42" fill="none" xmlns="http://www.w3.org/2000/svg">
<rect width="42" height="42" rx="21" fill="#0E0C30"/>
<path fill-rule="evenodd" clip-rule="evenodd" d="M21 2.5C10.7827 2.5 2.5 10.7827 2.5 21C2.5 31.2173 10.7827 39.5 21 39.5C31.2173 39.5 39.5 31.2173 39.5 21C39.5 10.7827 31.2173 2.5 21 2.5ZM1.5 21C1.5 10.2304 10.2304 1.5 21 1.5C31.7696 1.5 40.5 10.2304 40.5 21C40.5 31.7696 31.7696 40.5 21 40.5C10.2304 40.5 1.5 31.7696 1.5 21Z" fill="url(#paint0_linear_7060_137525)"/>
<path fill-rule="evenodd" clip-rule="evenodd" d="M20.6544 4.77993C20.8141 4.68273 21.0147 4.68273 21.1744 4.77993L30.8344 10.6599C30.9834 10.7507 31.0744 10.9125 31.0744 11.087V20.999C31.0744 21.1805 30.9761 21.3477 30.8175 21.4359L21.1575 26.8119C21.0064 26.8961 20.8224 26.8961 20.6712 26.8119L11.0113 21.4359C10.8527 21.3477 10.7544 21.1805 10.7544 20.999V11.087C10.7544 10.9125 10.8454 10.7507 10.9944 10.6599L20.6544 4.77993ZM11.7544 11.9764L14.9852 13.9417L11.7544 19.2234V11.9764ZM11.9528 20.8155L20.9144 25.8028L29.876 20.8155L20.9144 6.16522L11.9528 20.8155ZM22.4187 6.70803L26.3217 13.0887L29.6125 11.0869L22.4187 6.70803ZM30.0744 11.9764L26.8435 13.9417L30.0744 19.2234V11.9764ZM19.4101 6.70803L15.5071 13.0887L12.2163 11.0869L19.4101 6.70803ZM11.0094 22.7471C11.167 22.6586 11.36 22.662 11.5144 22.7559L20.9144 28.4777L30.3144 22.7559C30.4688 22.662 30.6618 22.6586 30.8194 22.7471C30.9769 22.8357 31.0744 23.0023 31.0744 23.183L31.0744 30.911C31.0744 31.0855 30.9834 31.2474 30.8344 31.3381L21.1744 37.2181C21.0147 37.3153 20.8141 37.3153 20.6544 37.2181L10.9944 31.3381C10.8454 31.2474 10.7544 31.0855 10.7544 30.911L10.7544 23.183C10.7544 23.0023 10.8519 22.8357 11.0094 22.7471ZM13.0264 24.847L15.3585 28.1862L20.9144 35.9331L26.4702 28.1862L28.8024 24.847L21.1744 29.4901C21.0147 29.5873 20.8141 29.5873 20.6544 29.4901L13.0264 24.847ZM30.0744 24.7722L27.5824 28.3402L30.0744 29.9827L30.0744 24.7722ZM29.6403 30.8942L27.0046 29.157L22.7514 35.0875L29.6403 30.8942ZM19.0774 35.0875L12.1884 30.8942L14.8242 29.157L19.0774 35.0875ZM14.2464 28.3402L11.7544 24.7722L11.7544 29.9827L14.2464 28.3402Z" fill="#CFFD56"/>
<defs>
<linearGradient id="paint0_linear_7060_137525" x1="8.57519" y1="35.45" x2="33.0752" y2="6.575" gradientUnits="userSpaceOnUse">
<stop stop-color="#68A3DB"/>
<stop offset="1" stop-color="#8F56DC"/>
</linearGradient>
</defs>
</svg>
