<svg width="42" height="42" viewBox="0 0 42 42" fill="none" xmlns="http://www.w3.org/2000/svg">
<rect width="42" height="42" rx="21" fill="url(#paint0_linear_1028_123109)"/>
<path d="M21.0005 42C32.5985 42 42.0005 32.598 42.0005 21C42.0005 9.40202 32.5985 0 21.0005 0C9.40251 0 0.000488281 9.40202 0.000488281 21C0.000488281 32.598 9.40251 42 21.0005 42Z" fill="url(#paint1_linear_1028_123109)"/>
<path fill-rule="evenodd" clip-rule="evenodd" d="M21.0005 2.5C10.7832 2.5 2.50049 10.7827 2.50049 21C2.50049 31.2173 10.7832 39.5 21.0005 39.5C31.2178 39.5 39.5005 31.2173 39.5005 21C39.5005 10.7827 31.2178 2.5 21.0005 2.5ZM1.50049 21C1.50049 10.2304 10.2309 1.5 21.0005 1.5C31.77 1.5 40.5005 10.2304 40.5005 21C40.5005 31.7696 31.77 40.5 21.0005 40.5C10.2309 40.5 1.50049 31.7696 1.50049 21Z" fill="#120370"/>
<path fill-rule="evenodd" clip-rule="evenodd" d="M20.6564 4.77993C20.8161 4.68273 21.0166 4.68273 21.1763 4.77993L30.8363 10.6599C30.9854 10.7507 31.0763 10.9125 31.0763 11.087V20.999C31.0763 21.1805 30.978 21.3477 30.8195 21.4359L21.1595 26.8119C21.0083 26.8961 20.8244 26.8961 20.6732 26.8119L11.0132 21.4359C10.8547 21.3477 10.7563 21.1805 10.7563 20.999V11.087C10.7563 10.9125 10.8473 10.7507 10.9964 10.6599L20.6564 4.77993ZM11.7563 11.9764L14.9872 13.9417L11.7563 19.2234V11.9764ZM11.9547 20.8155L20.9163 25.8028L29.8779 20.8155L20.9163 6.16522L11.9547 20.8155ZM22.4206 6.70803L26.3237 13.0887L29.6145 11.0869L22.4206 6.70803ZM30.0763 11.9764L26.8455 13.9417L30.0763 19.2234V11.9764ZM19.4121 6.70803L15.509 13.0887L12.2182 11.0869L19.4121 6.70803ZM11.0114 22.7471C11.1689 22.6586 11.362 22.662 11.5163 22.7559L20.9163 28.4777L30.3164 22.7559C30.4707 22.662 30.6638 22.6586 30.8213 22.7471C30.9788 22.8357 31.0763 23.0023 31.0763 23.183L31.0763 30.911C31.0763 31.0855 30.9854 31.2474 30.8363 31.3381L21.1763 37.2181C21.0166 37.3153 20.8161 37.3153 20.6564 37.2181L10.9964 31.3381C10.8473 31.2474 10.7563 31.0855 10.7563 30.911L10.7563 23.183C10.7563 23.0023 10.8539 22.8357 11.0114 22.7471ZM13.0283 24.847L15.3605 28.1862L20.9163 35.9331L26.4722 28.1862L28.8043 24.847L21.1763 29.4901C21.0166 29.5873 20.8161 29.5873 20.6564 29.4901L13.0283 24.847ZM30.0763 24.7722L27.5844 28.3402L30.0763 29.9827L30.0763 24.7722ZM29.6423 30.8942L27.0065 29.157L22.7534 35.0875L29.6423 30.8942ZM19.0793 35.0875L12.1904 30.8942L14.8262 29.157L19.0793 35.0875ZM14.2483 28.3402L11.7563 24.7722L11.7563 29.9827L14.2483 28.3402Z" fill="#120370"/>
<defs>
<linearGradient id="paint0_linear_1028_123109" x1="21" y1="0" x2="21" y2="42" gradientUnits="userSpaceOnUse">
<stop stop-color="#404141"/>
<stop offset="1" stop-color="#222222"/>
</linearGradient>
<linearGradient id="paint1_linear_1028_123109" x1="38.9985" y1="9" x2="10.4985" y2="37.5" gradientUnits="userSpaceOnUse">
<stop stop-color="#A75BF6"/>
<stop offset="1" stop-color="#30B1F7"/>
</linearGradient>
</defs>
</svg>
