<svg width="36" height="36" viewBox="0 0 36 36" fill="none" xmlns="http://www.w3.org/2000/svg">
<rect y="-0.000976562" width="36" height="36" rx="18" fill="white"/>
<rect y="-0.000976562" width="36" height="36" rx="18" fill="#2574D9"/>
<path d="M15.2545 25.7063C14.3977 26.0129 13.4701 26.178 12.5072 26.178C7.99122 26.178 4.32812 22.5188 4.32812 17.9989C4.32812 13.479 7.99122 9.81982 12.5072 9.81982C13.4701 9.81982 14.3938 9.9849 15.2545 10.2915C12.0867 11.4195 9.81884 14.4459 9.81884 17.9989C9.81884 21.5519 12.0867 24.5783 15.2545 25.7063ZM23.4926 9.81982C22.5296 9.81982 21.606 9.9849 20.7452 10.2915C23.9131 11.4195 26.1809 14.4459 26.1809 17.9989C26.1809 21.5519 23.9131 24.5783 20.7452 25.7063C21.602 26.0129 22.5296 26.178 23.4926 26.178C28.0125 26.178 31.6716 22.5149 31.6716 17.9989C31.6716 13.4829 28.0085 9.81982 23.4926 9.81982Z" fill="#F2F2F2"/>
</svg>
