<svg width="42" height="42" viewBox="0 0 42 42" fill="none" xmlns="http://www.w3.org/2000/svg">
<rect width="42" height="42" rx="21" fill="#2574D9"/>
<path d="M17.797 29.9918C16.7974 30.3494 15.7152 30.542 14.5918 30.542C9.32317 30.542 5.04956 26.273 5.04956 20.9998C5.04956 15.7265 9.32317 11.4575 14.5918 11.4575C15.7152 11.4575 16.7928 11.6501 17.797 12.0078C14.1012 13.3238 11.4554 16.8546 11.4554 20.9998C11.4554 25.145 14.1012 28.6758 17.797 29.9918ZM27.4081 11.4575C26.2846 11.4575 25.2071 11.6501 24.2029 12.0078C27.8987 13.3238 30.5445 16.8546 30.5445 20.9998C30.5445 25.145 27.8987 28.6758 24.2029 29.9918C25.2025 30.3494 26.2846 30.542 27.4081 30.542C32.6813 30.542 36.9503 26.2684 36.9503 20.9998C36.9503 15.7311 32.6767 11.4575 27.4081 11.4575Z" fill="#F2F2F2"/>
</svg>
