<svg width="42" height="42" viewBox="0 0 42 42" fill="none" xmlns="http://www.w3.org/2000/svg">
<g clip-path="url(#clip0_4532_197168)">
<path d="M41.9979 20.9989C41.9979 9.40155 32.5963 0 20.9989 0C9.40155 0 0 9.40155 0 20.9989C0 32.5963 9.40155 41.9979 20.9989 41.9979C32.5963 41.9979 41.9979 32.5963 41.9979 20.9989Z" fill="url(#paint0_linear_4532_197168)"/>
<path d="M20.9989 41.9979C32.5962 41.9979 41.9979 32.5962 41.9979 20.9989C41.9979 9.4017 32.5962 0 20.9989 0C9.4017 0 0 9.4017 0 20.9989C0 32.5962 9.4017 41.9979 20.9989 41.9979Z" fill="#F3F3F3"/>
<path style="mix-blend-mode:multiply" opacity="0.5" d="M20.9989 41.9979C32.5962 41.9979 41.9979 32.5962 41.9979 20.9989C41.9979 9.4017 32.5962 0 20.9989 0C9.4017 0 0 9.4017 0 20.9989C0 32.5962 9.4017 41.9979 20.9989 41.9979Z" fill="url(#paint1_linear_4532_197168)"/>
<path d="M21.033 33.6989C28.0282 33.6989 33.6989 28.0282 33.6989 21.0331C33.6989 14.0379 28.0282 8.36719 21.033 8.36719C14.0379 8.36719 8.36719 14.0379 8.36719 21.0331C8.36719 28.0282 14.0379 33.6989 21.033 33.6989Z" stroke="#030303" stroke-width="2.66687"/>
<path d="M6.96875 21.0254H34.3012M32.3005 14.3594H20.9681C19.2 14.3594 17.5043 15.0617 16.254 16.312C15.0038 17.5622 14.3015 19.2579 14.3015 21.0259C14.3015 22.794 15.0038 24.4898 16.254 25.74C17.5043 26.9902 19.2 27.6925 20.9681 27.6925H32.3005" stroke="#030303" stroke-width="2.66687"/>
</g>
<defs>
<linearGradient id="paint0_linear_4532_197168" x1="20.9989" y1="0" x2="20.9989" y2="41.9979" gradientUnits="userSpaceOnUse">
<stop stop-color="#404141"/>
<stop offset="1" stop-color="#222222"/>
</linearGradient>
<linearGradient id="paint1_linear_4532_197168" x1="20.9989" y1="15.1146" x2="20.9989" y2="44.4804" gradientUnits="userSpaceOnUse">
<stop stop-color="white"/>
<stop offset="1" stop-color="#7D7D7D"/>
</linearGradient>
<clipPath id="clip0_4532_197168">
<rect width="42" height="42" fill="white"/>
</clipPath>
</defs>
</svg>
