<svg width="42" height="42" viewBox="0 0 42 42" fill="none" xmlns="http://www.w3.org/2000/svg">
<rect width="42" height="42" rx="21" fill="#222222"/>
<path d="M7.33301 20.9886H34.6668M32.666 14.3223H21.333C19.5648 14.3223 17.8691 15.0247 16.6188 16.275C15.3685 17.5252 14.6661 19.221 14.6661 20.9892C14.6661 22.7574 15.3685 24.4531 16.6188 25.7034C17.8691 26.9537 19.5648 27.6561 21.333 27.6561H32.666M34 21.0005C34 27.996 28.329 33.667 21.3335 33.667C14.338 33.667 8.66699 27.996 8.66699 21.0005C8.66699 14.005 14.338 8.33398 21.3335 8.33398C28.329 8.33398 34 14.005 34 21.0005Z" stroke="#F3F3F3" stroke-width="2.667"/>
</svg>
