<svg width="42" height="42" viewBox="0 0 42 42" fill="none" xmlns="http://www.w3.org/2000/svg">
<rect width="42" height="42" rx="21" fill="#222222"/>
<path d="M6.99902 11.5H11.7754L15.5274 23.7722L18.0859 17.4395C18.2495 17.0342 18.5305 16.6871 18.8929 16.4426C19.2552 16.1982 19.6823 16.0675 20.1194 16.0675H21.9382C22.3751 16.0678 22.8019 16.1985 23.164 16.443C23.5261 16.6874 23.8069 17.0344 23.9705 17.4395L26.5302 23.7722L27.936 19.1743H32.7112L29.7222 28.951C29.5846 29.3997 29.3067 29.7925 28.9294 30.0716C28.552 30.3507 28.095 30.5014 27.6257 30.5015H25.9504C25.5135 30.5012 25.0866 30.3705 24.7245 30.126C24.3625 29.8816 24.0816 29.5346 23.918 29.1295L21.0282 21.9778L18.1384 29.1295C17.9747 29.5348 17.6937 29.8819 17.3313 30.1264C16.969 30.3708 16.5419 30.5014 16.1049 30.5015H14.4307C13.961 30.5016 13.5037 30.3508 13.126 30.0715C12.7484 29.7922 12.4704 29.399 12.333 28.9498L6.99902 11.5ZM30.2239 11.5L28.8274 16.0675H33.6037L35.0002 11.5H30.2239Z" fill="#F3F3F3"/>
</svg>
