<svg xmlns="http://www.w3.org/2000/svg" width="36" height="36" fill="none"><path fill="#F3F3F3" d="M18 36c9.941 0 18-8.059 18-18S27.941 0 18 0 0 8.059 0 18s8.059 18 18 18Z"/><path fill="url(#a)" d="M18 36c9.941 0 18-8.059 18-18S27.941 0 18 0 0 8.059 0 18s8.059 18 18 18Z" opacity=".5" style="mix-blend-mode:multiply"/><path fill="#20252F" d="M6 10.713h4.094l3.216 10.519 2.193-5.428a1.88 1.88 0 0 1 1.743-1.176h1.559a1.88 1.88 0 0 1 1.742 1.176l2.194 5.428 1.205-3.941h4.093l-2.562 8.38A1.88 1.88 0 0 1 23.68 27h-1.436a1.88 1.88 0 0 1-1.742-1.176l-2.477-6.13-2.477 6.13a1.88 1.88 0 0 1-1.743 1.176H12.37a1.88 1.88 0 0 1-1.798-1.33L6 10.713ZM25.907 10.713l-1.197 3.915h4.094l1.197-3.915h-4.094Z"/><defs><linearGradient id="a" x1="18" x2="18" y1="12.956" y2="38.128" gradientUnits="userSpaceOnUse"><stop stop-color="#fff"/><stop offset="1" stop-color="#7D7D7D"/></linearGradient></defs></svg>