<svg width="42" height="42" viewBox="0 0 42 42" fill="none" xmlns="http://www.w3.org/2000/svg">
<g clip-path="url(#clip0_4532_197179)">
<path d="M41.9977 21C41.9977 9.39983 32.5967 0 21 0C9.40333 0 0 9.401 0 21C0 32.5967 9.401 41.9977 21 41.9977C32.5967 41.9977 41.9977 32.5978 41.9977 21Z" fill="#00A3FF"/>
<path opacity="0.6" d="M29.6088 19.5234L29.8445 19.8851C32.4952 23.9521 31.9037 29.2803 28.4212 32.6928C26.4382 34.6312 23.773 35.713 21 35.7051L29.61 19.5234H29.6088Z" fill="white"/>
<path opacity="0.2" d="M21.0023 24.4409L29.6112 19.5234L21 35.7039V24.4409H21.0023Z" fill="white"/>
<path d="M12.3863 19.5234L12.1506 19.8851C9.49879 23.9521 10.0915 29.2803 13.574 32.6928C15.557 34.6312 18.2221 35.713 20.9951 35.7051L12.3851 19.5234H12.3863Z" fill="white"/>
<path opacity="0.6" d="M21.0006 24.4409L12.3906 19.5234L21.0006 35.7039V24.4409Z" fill="white"/>
<path opacity="0.2" d="M21 13.4531V21.9348L28.4153 17.6963L21 13.4531Z" fill="white"/>
<path opacity="0.6" d="M21.0384 13.4531L13.6172 17.6963L21.036 21.9348V13.4531H21.0384Z" fill="white"/>
<path d="M21.0384 6.3125L13.6172 17.6922L21.036 13.4362V6.3125H21.0384Z" fill="white"/>
<path opacity="0.6" d="M21 13.442L28.4212 17.698L21 6.3125V13.442Z" fill="white"/>
</g>
<defs>
<clipPath id="clip0_4532_197179">
<rect width="42" height="42" fill="white"/>
</clipPath>
</defs>
</svg>
