<svg xmlns="http://www.w3.org/2000/svg" width="36" height="36" fill="none"><path fill="#00A3FF" d="M35.998 18C35.998 8.057 27.94 0 18 0 8.06 0 0 8.058 0 18c0 9.94 8.058 17.998 18 17.998 9.94 0 17.998-8.058 17.998-17.999Z"/><path fill="#fff" d="m25.383 16.72.202.31c2.272 3.486 1.765 8.053-1.22 10.978a9.063 9.063 0 0 1-6.361 2.582l7.38-13.87Z" opacity=".6"/><path fill="#fff" d="m18.002 20.936 7.379-4.215L18 30.59v-9.654Z" opacity=".2"/><path fill="#fff" d="m10.616 16.72-.202.31c-2.273 3.486-1.765 8.053 1.22 10.978a9.063 9.063 0 0 0 6.361 2.582l-7.38-13.87Z"/><path fill="#fff" d="m17.994 20.936-7.38-4.215 7.38 13.869v-9.654Z" opacity=".6"/><path fill="#fff" d="M18.004 11.52v7.27l6.356-3.633-6.356-3.637Z" opacity=".2"/><path fill="#fff" d="m18.002 11.52-6.361 3.637L18 18.79v-7.27Z" opacity=".6"/><path fill="#fff" d="m18.002 5.404-6.361 9.754L18 11.51V5.404Z"/><path fill="#fff" d="m18.004 11.511 6.361 3.648L18.004 5.4v6.111Z" opacity=".6"/></svg>