<svg width="36" height="36" viewBox="0 0 36 36" fill="none" xmlns="http://www.w3.org/2000/svg">
<path d="M35.9982 17.9991C35.9982 8.05847 27.9397 0 17.9991 0C8.05847 0 0 8.05847 0 17.9991C0 27.9397 8.05847 35.9982 17.9991 35.9982C27.9397 35.9982 35.9982 27.9397 35.9982 17.9991Z" fill="#00A3FF"/>
<path opacity="0.6" d="M25.3831 16.7207L25.5846 17.0299C27.8574 20.5164 27.3498 25.0826 24.3642 28.0078C22.6078 29.7289 20.3058 30.5894 18.0038 30.5896C18.0038 30.5896 18.0038 30.5896 25.3831 16.7207Z" fill="white"/>
<path opacity="0.2" d="M18.0015 20.9359L25.3808 16.7207C18.0015 30.5896 18.0015 30.5896 18.0015 30.5896C18.0015 27.5691 18.0015 24.1079 18.0015 20.9359Z" fill="white"/>
<path d="M10.6158 16.7207L10.4143 17.0299C8.14147 20.5164 8.6491 25.0826 11.6347 28.0078C13.3911 29.7289 15.6931 30.5894 17.9951 30.5896C17.9951 30.5896 17.9951 30.5896 10.6158 16.7207Z" fill="white"/>
<path opacity="0.6" d="M17.9937 20.9359L10.6144 16.7207C17.9937 30.5896 17.9937 30.5896 17.9937 30.5896C17.9937 27.5691 17.9937 24.1079 17.9937 20.9359Z" fill="white"/>
<path opacity="0.2" d="M18.0038 11.5195V18.7895L24.3603 15.1568L18.0038 11.5195Z" fill="white"/>
<path opacity="0.6" d="M18.0019 11.5195L11.6409 15.1568L18.0019 18.7895V11.5195Z" fill="white"/>
<path d="M18.0019 5.4043L11.6409 15.1578L18.0019 11.5104V5.4043Z" fill="white"/>
<path opacity="0.6" d="M18.0038 11.5113L24.3651 15.1588L18.0038 5.40039V11.5113Z" fill="white"/>
</svg>
