<svg xmlns="http://www.w3.org/2000/svg" width="36" height="36" fill="none"><rect width="36" height="36" fill="url(#a)" rx="18"/><path fill="#000" d="M11.595 20.304c.489-4.133 3.888-8.784 6.335-12.528 2.593 3.888 6.007 8.395 6.48 12.528.503 4.398-3.023 7.92-6.48 7.92-3.457 0-6.856-3.522-6.335-7.92Z"/><path fill="url(#b)" fill-rule="evenodd" d="M12.546 19.532c-.201 4.148 3.063 7.391 6.38 7.391.452 0 .906-.06 1.352-.175a11.039 11.039 0 0 1-7.731-7.216Z" clip-rule="evenodd"/><defs><linearGradient id="a" x1="27.444" x2="5.735" y1="6.172" y2="30.784" gradientUnits="userSpaceOnUse"><stop stop-color="#878C90"/><stop offset="1" stop-color="#BDBDBD"/></linearGradient><linearGradient id="b" x1="14.475" x2="18.888" y1="19.698" y2="29.074" gradientUnits="userSpaceOnUse"><stop stop-color="#F3F3F3"/><stop offset="1" stop-color="#969696"/></linearGradient></defs></svg>