<svg width="42" height="42" viewBox="0 0 42 42" fill="none" xmlns="http://www.w3.org/2000/svg">
<g clip-path="url(#clip0_5244_238072)">
<rect width="42" height="42" rx="21" fill="white"/>
<path style="mix-blend-mode:multiply" d="M42 21C42 9.40202 32.598 0 21 0C9.40202 0 0 9.40202 0 21C0 32.598 9.40202 42 21 42C32.598 42 42 32.598 42 21Z" fill="url(#paint0_linear_5244_238072)"/>
<path d="M20.9988 25.2338C23.3377 25.2338 25.2338 23.3377 25.2338 20.9988C25.2338 18.6598 23.3377 16.7637 20.9988 16.7637C18.6598 16.7637 16.7637 18.6598 16.7637 20.9988C16.7637 23.3377 18.6598 25.2338 20.9988 25.2338Z" fill="#030303"/>
<path fill-rule="evenodd" clip-rule="evenodd" d="M32.9785 18.5338C34.3405 17.1718 34.3405 14.9635 32.9785 13.6015L28.3985 9.02151C27.0365 7.6595 24.8282 7.6595 23.4661 9.02151C21.8807 10.2546 20.1191 10.2546 18.5338 9.02151C17.1718 7.6595 14.9635 7.6595 13.6015 9.02151L9.02151 13.6015C7.6595 14.9635 7.6595 17.1718 9.02151 18.5338C10.2546 20.1191 10.2546 21.8807 9.02151 23.4661C7.6595 24.8282 7.6595 27.0365 9.02151 28.3985L13.6015 32.9785C14.8104 34.1874 16.686 34.3232 18.0448 33.3862C18.1816 33.2918 18.3114 33.187 18.441 33.0823L18.4445 33.0796C18.6444 32.9179 18.8441 32.7566 19.069 32.6333C20.4085 31.8995 22.0733 31.8952 23.4661 32.9785C24.8282 34.3405 27.0365 34.3405 28.3985 32.9785L32.9785 28.3985C34.3405 27.0365 34.3405 24.8282 32.9785 23.4661C31.7454 21.8807 31.7454 20.1191 32.9785 18.5338ZM18.1815 12.1923C19.5435 10.8303 21.7518 10.8303 23.1138 12.1923L29.4554 18.5339C30.8174 19.8959 30.8174 22.1042 29.4554 23.4662L23.1138 29.8078C21.7518 31.1698 19.5435 31.1698 18.1815 29.8078L11.84 23.4662C10.4779 22.1042 10.4779 19.8959 11.84 18.5339L18.1815 12.1923Z" fill="#030303"/>
</g>
<defs>
<linearGradient id="paint0_linear_5244_238072" x1="21" y1="15.1153" x2="21" y2="44.4827" gradientUnits="userSpaceOnUse">
<stop stop-color="#FAFAFA"/>
<stop offset="1" stop-color="#FAFAFA"/>
</linearGradient>
<clipPath id="clip0_5244_238072">
<rect width="42" height="42" rx="21" fill="white"/>
</clipPath>
</defs>
</svg>
