<svg width="42" height="42" viewBox="0 0 42 42" fill="none" xmlns="http://www.w3.org/2000/svg">
<g clip-path="url(#clip0_4741_47532)">
<rect width="42" height="42" rx="21" fill="white"/>
<path fill-rule="evenodd" clip-rule="evenodd" d="M21.0367 22.6651C25.5704 22.6651 29.3375 21.8986 30.2792 20.8692C29.4908 19.993 26.6655 19.3142 23.0516 19.1389V21.3072C22.4165 21.351 21.7376 21.351 21.0367 21.351C20.3358 21.351 19.6788 21.3291 19.0218 21.2853V19.1389C15.4079 19.3361 12.5826 20.015 11.7941 20.8692C12.714 21.8986 16.503 22.6651 21.0367 22.6651ZM29.0747 12.4808V15.4594H23.0298V17.5182C27.2787 17.7372 30.4545 18.6352 30.4764 19.7303V21.9862C30.4545 23.0812 27.2787 23.9793 23.0298 24.1982V29.2576H19.0218V24.2201C14.7728 24.0011 11.597 23.1031 11.5751 22.0081V19.7303C11.597 18.6352 14.7728 17.7372 19.0218 17.5182V15.4594H12.9768V12.4808H29.0747ZM10.6115 7.75H31.8124C32.3162 7.75 32.7761 8.01282 33.0389 8.45086L39.2151 19.0513C39.5437 19.5989 39.4342 20.2998 38.9743 20.7378L21.9785 37.3393C21.431 37.8869 20.5329 37.8869 19.9855 37.3393L3.01154 20.7597C2.5516 20.2998 2.46399 19.5989 2.79252 19.0295L9.40686 8.40705C9.66968 8.01282 10.1296 7.75 10.6115 7.75Z" fill="#D3B25B"/>
</g>
<defs>
<clipPath id="clip0_4741_47532">
<rect width="42" height="42" rx="21" fill="white"/>
</clipPath>
</defs>
</svg>
