<svg width="36" height="36" viewBox="0 0 36 36" fill="none" xmlns="http://www.w3.org/2000/svg">
<g clip-path="url(#clip0_4741_47546)">
<g clip-path="url(#clip1_4741_47546)">
<rect width="36" height="36" rx="18" fill="white"/>
<path fill-rule="evenodd" clip-rule="evenodd" d="M18.0314 19.4275C21.9174 19.4275 25.1463 18.7704 25.9535 17.8881C25.2777 17.1371 22.856 16.5552 19.7584 16.405V18.2635C19.214 18.3011 18.6321 18.3011 18.0314 18.3011C17.4306 18.3011 16.8675 18.2823 16.3043 18.2447V16.405C13.2067 16.574 10.785 17.1559 10.1092 17.8881C10.8976 18.7704 14.1453 19.4275 18.0314 19.4275ZM24.921 10.698V13.2511H19.7397V15.0158C23.3816 15.2035 26.1037 15.9732 26.1225 16.9119V18.8455C26.1037 19.7841 23.3816 20.5539 19.7397 20.7415V25.0782H16.3043V20.7603C12.6623 20.5726 9.94022 19.8029 9.92144 18.8643V16.9119C9.94022 15.9732 12.6623 15.2035 16.3043 15.0158V13.2511H11.1229V10.698H24.921ZM9.09543 6.64307H27.2677C27.6995 6.64307 28.0937 6.86834 28.3189 7.2438L33.6129 16.3299C33.8945 16.7992 33.8006 17.4 33.4064 17.7754L18.8386 32.0053C18.3693 32.4747 17.5996 32.4747 17.1303 32.0053L2.58121 17.7942C2.18698 17.4 2.11189 16.7992 2.39348 16.3112L8.06292 7.20625C8.28819 6.86834 8.68242 6.64307 9.09543 6.64307Z" fill="#D3B25B"/>
</g>
</g>
<defs>
<clipPath id="clip0_4741_47546">
<rect width="36" height="36" rx="18" fill="white"/>
</clipPath>
<clipPath id="clip1_4741_47546">
<rect width="36" height="36" rx="18" fill="white"/>
</clipPath>
</defs>
</svg>
