<svg xmlns="http://www.w3.org/2000/svg" width="42" height="42" fill="none"><circle cx="21" cy="21" r="20" fill="#222"/><path fill="url(#a)" fill-rule="evenodd" d="M10.863 8.262 5.026 19.71a.2.2 0 0 0-.023.135.21.21 0 0 0 .07.12L20.83 34.072c.046.038.105.059.166.059.06 0 .12-.021.165-.06l15.766-14.105a.212.212 0 0 0 .07-.12.203.203 0 0 0-.023-.136L31.137 8.262a.204.204 0 0 0-.081-.097.227.227 0 0 0-.128-.035H11.07a.246.246 0 0 0-.125.038.223.223 0 0 0-.084.094h.002Z" clip-rule="evenodd"/><path fill="#D8B35D" fill-rule="evenodd" d="M10.863 8.262 5.026 19.71a.2.2 0 0 0-.023.135.21.21 0 0 0 .07.12L20.83 34.072c.046.038.105.059.166.059.06 0 .12-.021.165-.06l15.766-14.105a.212.212 0 0 0 .07-.12.203.203 0 0 0-.023-.136L31.137 8.262a.204.204 0 0 0-.081-.097.227.227 0 0 0-.128-.035H11.07a.246.246 0 0 0-.125.038.223.223 0 0 0-.084.094h.002Z" clip-rule="evenodd"/><path fill="#fff" fill-rule="evenodd" d="M23.027 20.88c-.112.009-.697.044-1.999.044-1.037 0-1.772-.026-2.037-.044-4.007-.167-6.996-.819-6.996-1.594 0-.775 2.989-1.435 6.996-1.602v2.545c.262.017 1.01.061 2.047.061 1.244 0 1.867-.052 1.98-.061v-2.545c3.998.167 6.987.819 6.987 1.593 0 .775-2.98 1.436-6.977 1.603Zm0-3.451v-2.281h5.583V11.67h-15.2v3.478h5.581v2.28c-4.535.196-7.948 1.03-7.948 2.043 0 1.013 3.413 1.84 7.948 2.043v7.3h4.037v-7.3c4.526-.195 7.93-1.03 7.93-2.034 0-1.003-3.404-1.858-7.93-2.05v-.001Z" clip-rule="evenodd"/><defs><linearGradient id="a" x1="4.494" x2="35.531" y1="20.674" y2="20.674" gradientUnits="userSpaceOnUse"><stop stop-color="#D8B35D"/><stop offset="1" stop-color="#F5E7BF"/></linearGradient></defs></svg>