<svg xmlns="http://www.w3.org/2000/svg" width="36" height="36" fill="none"><g clip-path="url(#a)"><circle cx="18" cy="18" r="18" fill="#F3F3F3"/><path fill="#F3F3F3" d="m20.405 14.04-4.46 2.567a.368.368 0 0 0-.184.323v2.154a.35.35 0 0 0 .184.31l1.868 1.078a.332.332 0 0 0 .356 0l7.706-4.438c1.308-.757 1.308-2.937 0-3.693L18.95 8.353a1.852 1.852 0 0 0-1.915 0l-6.924 3.99a1.89 1.89 0 0 0-.97 1.663c0 2.672.012 5.331 0 7.99a1.891 1.891 0 0 0 .964 1.664l6.924 4a1.904 1.904 0 0 0 1.916 0l6.931-4a1.873 1.873 0 0 0 .952-1.664v-3.473l-8.243 4.77a1.169 1.169 0 0 1-1.193 0L13.71 21.16a1.166 1.166 0 0 1-.597-1.033v-4.252a1.176 1.176 0 0 1 .584-1.021c1.228-.712 2.465-1.422 3.693-2.133a1.176 1.176 0 0 1 1.192 0l1.828 1.043a.16.16 0 0 1-.005.276Z"/><path fill="#F3F3F3" d="M17.999 5.244a12.752 12.752 0 1 0 0 25.504 12.752 12.752 0 0 0 0-25.504Zm2.405 8.514-1.828-1.044a1.176 1.176 0 0 0-1.193 0c-1.228.712-2.465 1.422-3.693 2.133a1.176 1.176 0 0 0-.583 1.021v4.253a1.168 1.168 0 0 0 .596 1.032l3.68 2.133a1.168 1.168 0 0 0 1.193 0l8.243-4.77v3.474a1.872 1.872 0 0 1-.945 1.663l-6.924 4.001a1.904 1.904 0 0 1-1.916 0l-6.925-4a1.892 1.892 0 0 1-.97-1.664c.012-2.66 0-5.32 0-7.99a1.891 1.891 0 0 1 .964-1.664l6.924-3.99a1.852 1.852 0 0 1 1.915 0l6.932 3.99c1.308.756 1.308 2.936 0 3.693l-7.706 4.436a.332.332 0 0 1-.356 0l-1.868-1.077a.349.349 0 0 1-.184-.31v-2.155a.366.366 0 0 1 .184-.322l4.46-2.568a.161.161 0 0 0 .057-.217.16.16 0 0 0-.057-.058Z"/><path fill="url(#b)" d="M18 0a18 18 0 1 0 0 36 18 18 0 0 0 0-36Zm2.405 13.762-1.828-1.044a1.176 1.176 0 0 0-1.193 0c-1.228.712-2.465 1.422-3.693 2.133a1.176 1.176 0 0 0-.583 1.021v4.253a1.167 1.167 0 0 0 .596 1.032l3.68 2.133a1.168 1.168 0 0 0 1.193 0l8.243-4.77v3.474a1.872 1.872 0 0 1-.945 1.663l-6.924 4.001a1.904 1.904 0 0 1-1.916 0l-6.925-4a1.89 1.89 0 0 1-.97-1.664c.012-2.66 0-5.32 0-7.99a1.892 1.892 0 0 1 .964-1.664l6.924-3.99a1.852 1.852 0 0 1 1.916 0l6.931 3.99c1.308.756 1.308 2.936 0 3.693l-7.706 4.436a.333.333 0 0 1-.356 0l-1.867-1.077a.349.349 0 0 1-.185-.31v-2.155a.366.366 0 0 1 .184-.322l4.46-2.568a.16.16 0 0 0 0-.275Z"/></g><defs><linearGradient id="b" x1="-12.828" x2="48.208" y1="-18.994" y2="54.249" gradientUnits="userSpaceOnUse"><stop stop-color="#273498"/><stop offset=".53" stop-color="#0074C2"/><stop offset="1" stop-color="#00ABE7"/></linearGradient><clipPath id="a"><path fill="#fff" d="M0 0h36v36H0z"/></clipPath></defs></svg>