<svg width="42" height="42" viewBox="0 0 42 42" fill="none" xmlns="http://www.w3.org/2000/svg">
<g clip-path="url(#clip0_4532_197204)">
<mask id="mask0_4532_197204" style="mask-type:luminance" maskUnits="userSpaceOnUse" x="0" y="0" width="42" height="42">
<path d="M0 0H42V42H0V0Z" fill="white"/>
</mask>
<g mask="url(#mask0_4532_197204)">
<path d="M21 42C32.598 42 42 32.598 42 21C42 9.40202 32.598 0 21 0C9.40202 0 0 9.40202 0 21C0 32.598 9.40202 42 21 42Z" fill="#F3F3F3"/>
<path d="M23.8055 16.3835L18.6021 19.3783C18.5361 19.4164 18.4815 19.4714 18.4437 19.5377C18.406 19.6039 18.3866 19.679 18.3875 19.7552V22.2682C18.3871 22.3423 18.4068 22.4151 18.4447 22.4788C18.4825 22.5425 18.5369 22.5947 18.6021 22.6298L20.7815 23.8875C20.8436 23.9269 20.9156 23.9479 20.9891 23.9479C21.0627 23.9479 21.1347 23.9269 21.1968 23.8875L30.1871 18.7098C31.7131 17.8267 31.7131 15.2833 30.1871 14.4013L22.108 9.74868C21.7709 9.5451 21.3846 9.4375 20.9909 9.4375C20.5971 9.4375 20.2109 9.5451 19.8738 9.74868L11.7958 14.4037C11.4506 14.596 11.1635 14.8776 10.9644 15.2189C10.7653 15.5602 10.6616 15.9487 10.6641 16.3438C10.6641 19.4612 10.6781 22.5633 10.6641 25.6655C10.6608 26.0601 10.7635 26.4484 10.9613 26.7898C11.1591 27.1313 11.4449 27.4134 11.7888 27.6068L19.8668 32.2735C20.2061 32.4711 20.5918 32.5752 20.9845 32.5752C21.3771 32.5752 21.7628 32.4711 22.1021 32.2735L30.1883 27.6068C30.5311 27.4133 30.8153 27.1308 31.0108 26.789C31.2063 26.4473 31.3059 26.0591 31.299 25.6655V21.6137L21.6821 27.1787C21.4715 27.3036 21.2311 27.3696 20.9862 27.3696C20.7413 27.3696 20.5009 27.3036 20.2903 27.1787L15.9946 24.6902C15.7808 24.5706 15.6032 24.3956 15.4806 24.1834C15.358 23.9713 15.2949 23.73 15.2981 23.485V18.5243C15.2971 18.2835 15.3596 18.0466 15.4792 17.8375C15.5988 17.6284 15.7713 17.4544 15.9795 17.3332C17.4121 16.5025 18.8553 15.6742 20.288 14.8447C20.4987 14.7208 20.7388 14.6554 20.9833 14.6554C21.2278 14.6554 21.4679 14.7208 21.6786 14.8447L23.8113 16.0615C23.8391 16.0785 23.8619 16.1024 23.8776 16.131C23.8933 16.1595 23.9012 16.1916 23.9006 16.2242C23.9 16.2567 23.8909 16.2886 23.8742 16.3165C23.8576 16.3445 23.8338 16.3676 23.8055 16.3835Z" fill="#F3F3F3"/>
<path d="M21.0336 6.15625C17.0879 6.15625 13.3038 7.72368 10.5137 10.5137C7.72368 13.3038 6.15625 17.0879 6.15625 21.0336C6.15625 24.9793 7.72368 28.7634 10.5137 31.5534C13.3038 34.3435 17.0879 35.9109 21.0336 35.9109C24.9793 35.9109 28.7634 34.3435 31.5534 31.5534C34.3435 28.7634 35.9109 24.9793 35.9109 21.0336C35.9109 17.0879 34.3435 13.3038 31.5534 10.5137C28.7634 7.72368 24.9793 6.15625 21.0336 6.15625ZM23.8394 16.0892L21.7068 14.8712C21.4958 14.7471 21.2556 14.6817 21.0108 14.6817C20.7661 14.6817 20.5258 14.7471 20.3149 14.8712C18.8822 15.7019 17.4391 16.5303 16.0064 17.3598C15.7985 17.4812 15.6262 17.6551 15.5068 17.8642C15.3874 18.0733 15.3251 18.3101 15.3262 18.5509V23.5128C15.3234 23.7574 15.3865 23.9983 15.5088 24.2101C15.6312 24.422 15.8083 24.597 16.0216 24.7167L20.3149 27.2052C20.5255 27.3303 20.7659 27.3964 21.0108 27.3964C21.2558 27.3964 21.4962 27.3303 21.7068 27.2052L31.3236 21.6403V25.6932C31.3312 26.0859 31.2329 26.4733 31.0388 26.8148C30.8448 27.1562 30.5623 27.439 30.2211 27.6334L22.1431 32.3012C21.8037 32.4988 21.4181 32.6029 21.0254 32.6029C20.6327 32.6029 20.2471 32.4988 19.9078 32.3012L11.8286 27.6346C11.4834 27.442 11.1963 27.1602 10.9972 26.8187C10.7982 26.4772 10.6944 26.0885 10.6969 25.6932C10.7109 22.5899 10.6969 19.4866 10.6969 16.3716C10.6936 15.977 10.7962 15.5887 10.994 15.2473C11.1919 14.9058 11.4776 14.6237 11.8216 14.4303L19.8996 9.77525C20.2366 9.57167 20.6229 9.46407 21.0167 9.46407C21.4104 9.46407 21.7967 9.57167 22.1337 9.77525L30.2211 14.4303C31.7471 15.3123 31.7471 17.8556 30.2211 18.7387L21.2307 23.9141C21.1687 23.9535 21.0966 23.9745 21.0231 23.9745C20.9495 23.9745 20.8775 23.9535 20.8154 23.9141L18.6361 22.6576C18.5708 22.6225 18.5163 22.5703 18.4784 22.5066C18.4406 22.4429 18.4209 22.37 18.4214 22.2959V19.7818C18.4205 19.7057 18.4399 19.6308 18.4776 19.5647C18.5154 19.4987 18.5701 19.4439 18.6361 19.4061L23.8394 16.4101C23.8813 16.3848 23.9116 16.3443 23.924 16.297C23.9364 16.2497 23.9299 16.1995 23.9059 16.1569C23.8899 16.129 23.867 16.1057 23.8394 16.0892Z" fill="#F3F3F3"/>
<path d="M21 0C15.4305 0 10.089 2.21249 6.15076 6.15076C2.21249 10.089 0 15.4305 0 21C0 26.5695 2.21249 31.911 6.15076 35.8492C10.089 39.7875 15.4305 42 21 42C26.5695 42 31.911 39.7875 35.8492 35.8492C39.7875 31.911 42 26.5695 42 21C42 15.4305 39.7875 10.089 35.8492 6.15076C31.911 2.21249 26.5695 0 21 0ZM23.8058 16.0557L21.6732 14.8377C21.4623 14.7135 21.222 14.6481 20.9772 14.6481C20.7325 14.6481 20.4922 14.7135 20.2813 14.8377C18.8487 15.6683 17.4055 16.4967 15.9728 17.3262C15.7649 17.4476 15.5926 17.6216 15.4732 17.8306C15.3538 18.0397 15.2916 18.2766 15.2927 18.5173V23.4792C15.2897 23.7238 15.3527 23.9647 15.4751 24.1766C15.5974 24.3885 15.7746 24.5635 15.988 24.6832L20.2813 27.1717C20.4919 27.2968 20.7323 27.3628 20.9772 27.3628C21.2222 27.3628 21.4626 27.2968 21.6732 27.1717L31.29 21.6067V25.6597C31.2976 26.0523 31.1993 26.4397 31.0053 26.7812C30.8112 27.1226 30.5287 27.4054 30.1875 27.5998L22.1095 32.2677C21.7702 32.4652 21.3845 32.5693 20.9918 32.5693C20.5992 32.5693 20.2135 32.4652 19.8742 32.2677L11.795 27.601C11.4497 27.4086 11.1624 27.1268 10.9633 26.7853C10.7642 26.4438 10.6606 26.055 10.6633 25.6597C10.6773 22.5563 10.6633 19.453 10.6633 16.338C10.6602 15.9434 10.7628 15.5552 10.9606 15.2138C11.1584 14.8724 11.4441 14.5902 11.788 14.3967L19.866 9.74167C20.2032 9.53786 20.5897 9.43014 20.9837 9.43014C21.3777 9.43014 21.7641 9.53786 22.1013 9.74167L30.1875 14.3967C31.7135 15.2787 31.7135 17.822 30.1875 18.7052L21.1972 23.8805C21.135 23.9198 21.063 23.9407 20.9895 23.9407C20.916 23.9407 20.844 23.9198 20.7818 23.8805L18.6037 22.624C18.5381 22.5891 18.4834 22.537 18.4454 22.4732C18.4073 22.4095 18.3874 22.3366 18.3878 22.2623V19.7482C18.3869 19.6721 18.4063 19.5972 18.4441 19.5311C18.4818 19.4651 18.5365 19.4103 18.6025 19.3725L23.8058 16.3765C23.8336 16.36 23.8567 16.3365 23.8727 16.3084C23.8886 16.2802 23.897 16.2484 23.897 16.2161C23.897 16.1837 23.8886 16.1519 23.8727 16.1238C23.8567 16.0957 23.8336 16.0722 23.8058 16.0557Z" fill="url(#paint0_linear_4532_197204)"/>
</g>
</g>
<defs>
<linearGradient id="paint0_linear_4532_197204" x1="-14.966" y1="-22.1597" x2="56.2427" y2="63.2905" gradientUnits="userSpaceOnUse">
<stop stop-color="#273498"/>
<stop offset="0.53" stop-color="#0074C2"/>
<stop offset="1" stop-color="#00ABE7"/>
</linearGradient>
<clipPath id="clip0_4532_197204">
<rect width="42" height="42" fill="white"/>
</clipPath>
</defs>
</svg>
