<svg width="42" height="42" viewBox="0 0 42 42" fill="none" xmlns="http://www.w3.org/2000/svg">
<circle cx="21" cy="21" r="21" fill="#3E1BDB"/>
<path d="M31.1558 12.1388L27.7482 13.879L11.2934 22.28C11.2377 21.8546 11.2097 21.426 11.2096 20.997C11.2118 19.2853 11.6602 17.6038 12.5102 16.1192C13.3603 14.6345 14.5826 13.3983 16.056 12.5328C17.5294 11.6673 19.2028 11.2027 20.9105 11.185C22.6181 11.1673 24.3008 11.597 25.7918 12.4317L27.7422 11.4356L28.0332 11.2867C26.2465 9.98687 24.136 9.20747 21.9349 9.03469C19.7339 8.86191 17.5281 9.30248 15.5613 10.3077C13.5944 11.3129 11.9432 12.8436 10.79 14.7307C9.6368 16.6178 9.02661 18.7877 9.02684 21.0006C9.02684 21.3062 9.03841 21.6107 9.06156 21.9139C9.09398 22.3433 8.99897 22.7728 8.78847 23.1482C8.57798 23.5236 8.26141 23.8282 7.8786 24.0237L6.8501 24.5494V27.0013L9.87814 25.4543L10.8587 24.9526L11.825 24.4594L29.1718 15.6L31.1211 14.6051L35.1501 12.5469V10.0962L31.1558 12.1388Z" fill="#F3F3F3"/>
<path d="M35.1501 15L12.8104 26.4013L10.8611 27.3986L6.8501 29.4472V31.8967L10.8336 29.8624L14.2412 28.1222L30.7128 19.7093C30.7685 20.1375 30.7965 20.5689 30.7966 21.0007C30.7956 22.7144 30.3473 24.3981 29.4964 25.8845C28.6455 27.3709 27.4216 28.6084 25.946 29.4742C24.4705 30.3399 22.7947 30.8037 21.0851 30.8196C19.3754 30.8355 17.6913 30.4029 16.2 29.5648L16.0803 29.6284L13.9658 30.7085C15.7521 32.0084 17.8622 32.7881 20.0629 32.9613C22.2636 33.1345 24.4692 32.6945 26.436 31.6899C28.4028 30.6854 30.0543 29.1554 31.208 27.269C32.3617 25.3826 32.9726 23.2133 32.9734 21.0007C32.9734 20.6922 32.9614 20.3838 32.9386 20.079C32.9063 19.6497 33.0012 19.2204 33.2114 18.845C33.4217 18.4697 33.7379 18.1649 34.1204 17.9691L35.1501 17.4435V15Z" fill="#F3F3F3"/>
</svg>
