<svg width="42" height="42" viewBox="0 0 42 42" fill="none" xmlns="http://www.w3.org/2000/svg">
<circle cx="21" cy="21" r="21" fill="#3E1BDB"/>
<path d="M31.1557 12.1388L27.7481 13.879L11.2933 22.28C11.2376 21.8546 11.2096 21.426 11.2094 20.997C11.2117 19.2853 11.6601 17.6038 12.5101 16.1192C13.3602 14.6345 14.5825 13.3983 16.0559 12.5328C17.5293 11.6673 19.2027 11.2027 20.9104 11.185C22.618 11.1673 24.3007 11.597 25.7917 12.4317L27.7421 11.4356L28.0331 11.2867C26.2463 9.98687 24.1358 9.20747 21.9348 9.03469C19.7338 8.86191 17.528 9.30248 15.5611 10.3077C13.5943 11.3129 11.943 12.8436 10.7899 14.7307C9.63668 16.6178 9.02649 18.7877 9.02671 21.0006C9.02671 21.3062 9.03829 21.6107 9.06144 21.9139C9.09386 22.3433 8.99884 22.7728 8.78835 23.1482C8.57786 23.5236 8.26129 23.8282 7.87848 24.0237L6.84998 24.5494V27.0013L9.87801 25.4543L10.8586 24.9526L11.8249 24.4594L29.1717 15.6L31.121 14.6051L35.15 12.5469V10.0962L31.1557 12.1388Z" fill="#F3F3F3"/>
<path d="M35.15 15L12.8103 26.4013L10.861 27.3986L6.84998 29.4472V31.8967L10.8335 29.8624L14.2411 28.1222L30.7127 19.7093C30.7684 20.1375 30.7964 20.5689 30.7965 21.0007C30.7954 22.7144 30.3472 24.3981 29.4963 25.8845C28.6454 27.3709 27.4214 28.6084 25.9459 29.4742C24.4704 30.3399 22.7946 30.8037 21.0849 30.8196C19.3753 30.8355 17.6912 30.4029 16.1999 29.5648L16.0802 29.6284L13.9657 30.7085C15.752 32.0084 17.8621 32.7881 20.0628 32.9613C22.2634 33.1345 24.469 32.6945 26.4359 31.6899C28.4027 30.6854 30.0542 29.1554 31.2079 27.269C32.3616 25.3826 32.9725 23.2133 32.9732 21.0007C32.9732 20.6922 32.9613 20.3838 32.9385 20.079C32.9061 19.6497 33.001 19.2204 33.2113 18.845C33.4216 18.4697 33.7378 18.1649 34.1203 17.9691L35.15 17.4435V15Z" fill="#F3F3F3"/>
</svg>
