<svg width="42" height="42" viewBox="0 0 42 42" fill="none" xmlns="http://www.w3.org/2000/svg">
<path d="M40.999 21.0002C40.999 32.0456 32.0457 41.0002 20.9995 41.0002C9.95335 41.0002 1 32.0456 1 21.0002C1 9.95474 9.95357 1 20.9995 1C32.0455 1 40.999 9.95389 40.999 21.0002Z" fill="white"/>
<path d="M21.0023 1C9.96006 1 0.990842 9.96741 1.0049 20.9995C1.00767 23.2067 1.35963 25.3299 2.02021 27.3159H8.00388V10.4913L21.0023 23.4896L34.0001 10.4913V27.3162H39.985C40.6465 25.3303 40.9967 23.2071 41.0006 20.9998C41.0195 9.95623 32.0457 1.00266 21.0023 1.00266V1Z" fill="#F26822"/>
<path d="M18.0122 26.4776L12.3396 20.8047V31.3917H8.0026L3.91016 31.3924C7.42051 37.1516 13.7646 41.0041 21.0014 41.0041C28.2383 41.0041 34.5827 37.1507 38.0937 31.3915H29.662V20.8047L23.9891 26.4776L21.0008 29.4659L18.0124 26.4776H18.0122Z" fill="#4D4D4D"/>
</svg>
