<svg width="42" height="42" viewBox="0 0 42 42" fill="none" xmlns="http://www.w3.org/2000/svg">
<g clip-path="url(#clip0_26_35990)">
<path d="M41.9983 20.9998C41.9983 32.5973 32.5974 41.9995 20.9991 41.9995C9.40086 41.9995 0 32.5973 0 20.9998C0 9.40232 9.40109 0 20.9991 0C32.5972 0 41.9983 9.40142 41.9983 20.9998Z" fill="#F3F3F3"/>
<path d="M21.0018 0C9.40766 0 -0.00985964 9.41562 0.00490014 20.9991C0.00780737 23.3167 0.377361 25.5459 1.07096 27.6312H7.35371V9.96565L21.0018 23.6136L34.6492 9.96565V27.6315H40.9333C41.6279 25.5464 41.9956 23.3171 41.9997 20.9995C42.0195 9.40388 32.5972 0.00279541 21.0018 0.00279541V0Z" fill="#F26822"/>
<path d="M17.8625 26.7514L11.9064 20.7949V31.9111H7.35266L3.05566 31.9118C6.74147 37.9589 13.4026 42.004 21.0012 42.004C28.5998 42.004 35.2613 37.958 38.9478 31.9109H30.0947V20.7949L24.1382 26.7514L21.0005 29.8891L17.8627 26.7514H17.8625Z" fill="#4D4D4D"/>
</g>
<defs>
<clipPath id="clip0_26_35990">
<rect width="42" height="42" fill="white"/>
</clipPath>
</defs>
</svg>
