<svg width="42" height="42" viewBox="0 0 42 42" fill="none" xmlns="http://www.w3.org/2000/svg">
<circle cx="21" cy="21" r="20" fill="#222222"/>
<path d="M29.4844 11H32.9531L25.7344 18.1475C23.1202 20.7345 18.8817 20.7345 16.2656 18.1475L9.04406 11H12.5156L18 16.4295C18.7991 17.2171 19.8759 17.6586 20.9979 17.6586C22.1198 17.6586 23.1967 17.2171 23.9958 16.4295L29.4844 11Z" fill="#F3F3F3"/>
<path d="M12.4711 30.875H9L16.2656 23.6834C18.8798 21.0964 23.1183 21.0964 25.7344 23.6834L33 30.875H29.5312L24 25.4014C23.2009 24.6139 22.1241 24.1724 21.0021 24.1724C19.8802 24.1724 18.8033 24.6139 18.0042 25.4014L12.4711 30.875Z" fill="#F3F3F3"/>
</svg>
