<svg xmlns="http://www.w3.org/2000/svg" width="42" height="42" fill="none"><circle cx="21" cy="21" r="20" fill="#2C7DF7"/><path fill="#F3F3F3" d="M23.282 35c-1.997 0-3.456-.481-4.375-1.444a4.458 4.458 0 0 1-1.373-3.11c-.01-.359.072-.713.24-1.03.157-.272.384-.499.657-.656a2.288 2.288 0 0 1 2.043 0c.272.156.498.383.652.657.173.314.26.67.25 1.028.017.429-.106.851-.35 1.203a1.63 1.63 0 0 1-.832.609 2.27 2.27 0 0 0 1.312.818 6.504 6.504 0 0 0 1.79.258 3.988 3.988 0 0 0 2.253-.674 3.937 3.937 0 0 0 1.47-1.99 8.65 8.65 0 0 0 .481-2.98 8.174 8.174 0 0 0-.525-3.097 3.824 3.824 0 0 0-1.518-1.925 4.037 4.037 0 0 0-2.187-.626 4.162 4.162 0 0 0-1.895.643l-1.404.705v-.705l6.313-8.469h-8.75v8.789a3.144 3.144 0 0 0 .481 1.798 1.658 1.658 0 0 0 1.47.704 2.458 2.458 0 0 0 1.452-.512c.473-.346.884-.769 1.217-1.251a.437.437 0 0 1 .158-.21.324.324 0 0 1 .21-.079.73.73 0 0 1 .412.175.876.876 0 0 1 .223.595 3.473 3.473 0 0 1-.079.438c-.31.752-.831 1.399-1.5 1.863a3.722 3.722 0 0 1-2.105.64c-1.895 0-3.207-.374-3.937-1.12a4.195 4.195 0 0 1-1.085-3.063v-8.767H10v-1.633h4.471V8.86l-1.024-1.024V7h2.971l1.116.578v5.004l11.558-.035 1.151 1.155-7.087 7.122c.428-.172.879-.281 1.338-.324.91.04 1.797.294 2.59.74a5.32 5.32 0 0 1 2.232 1.991c.482.731.824 1.546 1.006 2.402.15.675.231 1.365.241 2.057a8.602 8.602 0 0 1-.875 3.81 5.588 5.588 0 0 1-2.625 2.625 8.496 8.496 0 0 1-3.78.875Z"/></svg>