<svg xmlns="http://www.w3.org/2000/svg" width="36" height="36" fill="none"><path fill="#F3F3F3" d="M18 36c9.941 0 18-8.059 18-18S27.941 0 18 0 0 8.059 0 18s8.059 18 18 18Z"/><path fill="url(#a)" d="M18 36c9.941 0 18-8.059 18-18S27.941 0 18 0 0 8.059 0 18s8.059 18 18 18Z"/><path fill="url(#b)" stroke="url(#c)" stroke-width=".171" d="m14.603 26.795-.085-.012a.116.116 0 0 0 .018.08l1.483 2.576a3.005 3.005 0 0 0 2.598 1.503 3.006 3.006 0 0 0 2.597-1.503l8.47-14.722a3.02 3.02 0 0 0-1.097-4.113l-.043.074.043-.074a2.994 2.994 0 0 0-1.5-.405h-3.005a.116.116 0 0 0-.082.198c.018.018.042.03.067.033a2.353 2.353 0 0 1 1.562 1.375 2.372 2.372 0 0 1-.133 2.087l-7.09 12.337a2.361 2.361 0 0 1-1.725 1.152 2.347 2.347 0 0 1-1.961-.658.116.116 0 0 0-.07-.038h-.001a.115.115 0 0 0-.086.022.116.116 0 0 0-.045.076l.085.012Zm0 0a.03.03 0 0 0 .005.023l.006-.043a.03.03 0 0 0-.011.02Zm-3.678-6.616a1.389 1.389 0 0 0 2.116-.339l4.28-7.428a1.397 1.397 0 0 0-.704-1.99.117.117 0 0 1-.077-.108.115.115 0 0 1 .08-.11l.012-.005H19.583v.086l-8.658 9.894Zm0 0a.116.116 0 0 0-.07-.037l-.011.085.012-.085a.116.116 0 0 0-.086.023l.052.068-.052-.069a.116.116 0 0 0-.027.157l1.5 2.615c.177.307.43.562.736.739m-2.054-3.496 1.393 2.714c.169.294.412.538.704.708l-.043.074m0 0c.306.177.653.27 1.006.27m-1.006-.27 1.006.27M12.01 12.828a2.631 2.631 0 0 0-1.616-2.43A2.61 2.61 0 0 0 9.39 10.2v.086-.086a2.613 2.613 0 0 0-2.42 1.623 2.637 2.637 0 0 0 .568 2.864 2.617 2.617 0 0 0 2.854.57 2.622 2.622 0 0 0 1.176-.968l-.072-.047.072.047c.288-.432.441-.94.441-1.46Zm0 0h-.085.085Zm1.975 11.117c.353 0 .7-.093 1.005-.27m-1.005.27 1.005-.27m0 0c.306-.177.56-.432.736-.739l-.736.739Zm-.302 3.132Z"/><defs><linearGradient id="a" x1="18" x2="18" y1="0" y2="36" gradientUnits="userSpaceOnUse"><stop stop-color="#fff"/><stop offset="1" stop-color="#BBE0FC"/></linearGradient><linearGradient id="b" x1="29.704" x2="3.182" y1="26.564" y2="8.618" gradientUnits="userSpaceOnUse"><stop stop-color="#5433FF"/><stop offset=".5" stop-color="#20BDFF"/><stop offset="1" stop-color="#5CFFA2"/></linearGradient><linearGradient id="c" x1="18.428" x2="18.428" y1="10.285" y2="30.857" gradientUnits="userSpaceOnUse"><stop stop-color="#C3C4C3"/><stop offset="1" stop-color="#C3C4C3" stop-opacity="0"/></linearGradient></defs></svg>