<svg width="42" height="42" viewBox="0 0 42 42" fill="none" xmlns="http://www.w3.org/2000/svg">
<g clip-path="url(#clip0_4532_197233)">
<path d="M21 42C32.5978 42 42 32.5978 42 21C42 9.40217 32.5978 0 21 0C9.40217 0 0 9.40217 0 21C0 32.5978 9.40217 42 21 42Z" fill="#F3F3F3"/>
<path d="M21 42C32.5978 42 42 32.5978 42 21C42 9.40217 32.5978 0 21 0C9.40217 0 0 9.40217 0 21C0 32.5978 9.40217 42 21 42Z" fill="url(#paint0_linear_4532_197233)"/>
<path d="M16.9131 31.2386C16.9085 31.2713 16.916 31.3044 16.9341 31.332L18.6643 34.3373C18.9715 34.8696 19.4132 35.3118 19.9452 35.6196C20.4771 35.9273 21.0807 36.0898 21.6953 36.0908C22.3096 36.0895 22.9129 35.9269 23.4446 35.6191C23.9763 35.3114 24.4179 34.8693 24.7251 34.3373L34.6068 17.1616C35.0702 16.3549 35.1958 15.3975 34.956 14.4986C34.7162 13.5996 34.1306 12.8319 33.3269 12.3631C32.7953 12.0544 32.1917 11.8914 31.5769 11.8906H28.0711C28.0443 11.8906 28.0182 11.8986 27.9959 11.9135C27.9737 11.9283 27.9564 11.9495 27.9461 11.9742C27.9359 11.9989 27.9332 12.0261 27.9384 12.0523C27.9436 12.0786 27.9565 12.1027 27.9754 12.1216C27.9964 12.1426 28.0244 12.1566 28.0536 12.1601C28.46 12.2699 28.8357 12.4716 29.1517 12.7498C29.4677 13.028 29.7155 13.3751 29.8759 13.7643C30.0378 14.155 30.1081 14.5776 30.0812 14.9997C30.0543 15.4218 29.931 15.8321 29.7208 16.1991L21.4491 30.5923C21.2381 30.9547 20.9471 31.2642 20.5983 31.4971C20.2496 31.7301 19.8522 31.8803 19.4366 31.9363C19.0219 31.9916 18.6001 31.9512 18.2035 31.8181C17.807 31.685 17.4461 31.4628 17.1488 31.1686C17.1276 31.1447 17.0987 31.129 17.0671 31.1243C17.0495 31.1217 17.0304 31.1226 17.0132 31.1271C16.996 31.1315 16.9798 31.1392 16.9656 31.15C16.9371 31.1714 16.9182 31.2033 16.9131 31.2386ZM17.0123 31.2526C17.0114 31.2573 17.0114 31.262 17.0124 31.2666C17.0134 31.2712 17.0154 31.2756 17.0181 31.2795L17.0251 31.2293C17.0179 31.2351 17.0133 31.2435 17.0123 31.2526ZM12.7213 23.534C12.9005 23.6919 13.1125 23.8082 13.342 23.8746C13.5715 23.9411 13.8129 23.9559 14.0488 23.9181C14.2847 23.8803 14.5094 23.7908 14.7067 23.656C14.9039 23.5212 15.069 23.3445 15.1899 23.1385L20.1833 14.4725C20.2986 14.2694 20.3689 14.0439 20.3894 13.8113C20.41 13.5787 20.3803 13.3443 20.3025 13.1242C20.2246 12.904 20.1003 12.7032 19.938 12.5352C19.7757 12.3673 19.5793 12.2362 19.3619 12.1508C19.336 12.1413 19.3135 12.1242 19.2974 12.1018C19.2814 12.0793 19.2726 12.0524 19.2721 12.0248C19.272 11.9963 19.281 11.9684 19.2978 11.9453C19.3145 11.9223 19.3382 11.9051 19.3654 11.8965L19.3794 11.8906H22.8223V11.991L12.7213 23.534ZM12.7213 23.534C12.6999 23.5104 12.671 23.4952 12.6396 23.4908L12.6268 23.59L12.6408 23.4908C12.6231 23.4884 12.6051 23.4896 12.5879 23.4942C12.5707 23.4988 12.5546 23.5068 12.5404 23.5176L12.6011 23.597L12.5404 23.5165C12.5128 23.5372 12.4941 23.5677 12.4883 23.6018C12.4824 23.6358 12.4898 23.6708 12.5089 23.6996L14.2589 26.7505C14.4654 27.1086 14.7606 27.4061 15.1176 27.6126M12.7213 23.534L14.3464 26.7003C14.5436 27.0433 14.8271 27.328 15.1678 27.5263L15.1176 27.6126M15.1176 27.6126C15.4746 27.8191 15.8794 27.9276 16.2913 27.9276ZM15.1176 27.6126L16.2913 27.9276ZM13.9871 14.9578C13.9877 14.3519 13.809 13.7594 13.4735 13.2549C13.138 12.7504 12.6607 12.3565 12.1018 12.1228C11.7304 11.9693 11.3323 11.8907 10.9304 11.8918C10.325 11.8914 9.73315 12.0712 9.23032 12.4085C8.7275 12.7457 8.33648 13.225 8.10709 13.7853C7.87618 14.3456 7.81588 14.9616 7.93378 15.556C8.05167 16.1505 8.34249 16.6969 8.76976 17.1266C9.1966 17.5546 9.74087 17.8463 10.3336 17.9647C10.9264 18.0831 11.5409 18.0228 12.0994 17.7916C12.6584 17.5592 13.1359 17.1662 13.4714 16.6623C13.8074 16.1583 13.9859 15.5656 13.9859 14.959L13.9871 14.9578ZM16.2913 27.9276C16.7031 27.9276 17.1079 27.8191 17.4638 27.6126ZM16.2913 27.9276L17.4638 27.6126ZM17.4638 27.6126C17.8208 27.4061 18.1171 27.1086 18.3224 26.7505L17.4638 27.6126Z" fill="url(#paint1_linear_4532_197233)"/>
<path d="M17.0123 31.2526L16.9131 31.2386M17.0123 31.2526C17.0114 31.2573 17.0114 31.262 17.0124 31.2666C17.0134 31.2712 17.0154 31.2756 17.0181 31.2795L17.0251 31.2293C17.0179 31.2351 17.0133 31.2435 17.0123 31.2526ZM16.9131 31.2386C16.9085 31.2713 16.916 31.3044 16.9341 31.332L18.6643 34.3373C18.9715 34.8696 19.4132 35.3118 19.9452 35.6196C20.4771 35.9273 21.0807 36.0898 21.6953 36.0908C22.3096 36.0895 22.9129 35.9269 23.4446 35.6191C23.9763 35.3114 24.4179 34.8693 24.7251 34.3373L34.6068 17.1616C35.0702 16.3549 35.1958 15.3975 34.956 14.4986C34.7162 13.5996 34.1306 12.8319 33.3269 12.3631M16.9131 31.2386C16.9182 31.2033 16.9371 31.1714 16.9656 31.15C16.9798 31.1392 16.996 31.1315 17.0132 31.1271C17.0304 31.1226 17.0495 31.1217 17.0671 31.1243C17.0987 31.129 17.1276 31.1447 17.1488 31.1686C17.4461 31.4628 17.807 31.685 18.2035 31.8181C18.6001 31.9512 19.0219 31.9916 19.4366 31.9363C19.8522 31.8803 20.2496 31.7301 20.5983 31.4971C20.9471 31.2642 21.2381 30.9547 21.4491 30.5923L29.7208 16.1991C29.931 15.8321 30.0543 15.4218 30.0812 14.9997C30.1081 14.5776 30.0378 14.155 29.8759 13.7643C29.7155 13.3751 29.4677 13.028 29.1517 12.7498C28.8357 12.4716 28.46 12.2699 28.0536 12.1601C28.0244 12.1566 27.9964 12.1426 27.9754 12.1216C27.9565 12.1027 27.9436 12.0786 27.9384 12.0523C27.9332 12.0261 27.9359 11.9989 27.9461 11.9742C27.9564 11.9495 27.9737 11.9283 27.9959 11.9135C28.0182 11.8986 28.0443 11.8906 28.0711 11.8906H31.5769C32.1917 11.8914 32.7953 12.0544 33.3269 12.3631M33.3269 12.3631L33.2768 12.4495M12.7213 23.534C12.9005 23.6919 13.1125 23.8082 13.342 23.8746C13.5715 23.9411 13.8129 23.9559 14.0488 23.9181C14.2847 23.8803 14.5094 23.7908 14.7067 23.656C14.9039 23.5212 15.069 23.3445 15.1899 23.1385L20.1833 14.4725C20.2986 14.2694 20.3689 14.0439 20.3894 13.8113C20.41 13.5787 20.3803 13.3443 20.3025 13.1242C20.2246 12.904 20.1003 12.7032 19.938 12.5352C19.7757 12.3673 19.5793 12.2362 19.3619 12.1508C19.336 12.1413 19.3135 12.1242 19.2974 12.1018C19.2814 12.0793 19.2726 12.0524 19.2721 12.0248C19.272 11.9963 19.281 11.9684 19.2978 11.9453C19.3145 11.9223 19.3382 11.9051 19.3654 11.8965L19.3794 11.8906H22.8223V11.991L12.7213 23.534ZM12.7213 23.534C12.6999 23.5104 12.671 23.4952 12.6396 23.4908L12.6268 23.59L12.6408 23.4908C12.6231 23.4884 12.6051 23.4896 12.5879 23.4942C12.5707 23.4988 12.5546 23.5068 12.5404 23.5176L12.6011 23.597L12.5404 23.5165C12.5128 23.5372 12.4941 23.5677 12.4883 23.6018C12.4824 23.6358 12.4898 23.6708 12.5089 23.6996L14.2589 26.7505C14.4654 27.1086 14.7606 27.4061 15.1176 27.6126M12.7213 23.534L14.3464 26.7003C14.5436 27.0433 14.8271 27.328 15.1678 27.5263L15.1176 27.6126M15.1176 27.6126C15.4746 27.8191 15.8794 27.9276 16.2913 27.9276M15.1176 27.6126L16.2913 27.9276M16.2913 27.9276C16.7031 27.9276 17.1079 27.8191 17.4638 27.6126M16.2913 27.9276L17.4638 27.6126M13.9871 14.9578C13.9877 14.3519 13.809 13.7594 13.4735 13.2549C13.138 12.7504 12.6607 12.3565 12.1018 12.1228C11.7304 11.9693 11.3323 11.8907 10.9304 11.8918M13.9871 14.9578L13.9859 14.959C13.9859 15.5656 13.8074 16.1583 13.4714 16.6623M13.9871 14.9578H13.8879M10.9304 11.8918V11.9921M10.9304 11.8918C10.325 11.8914 9.73315 12.0712 9.23032 12.4085C8.7275 12.7457 8.33648 13.225 8.10709 13.7853C7.87618 14.3456 7.81588 14.9616 7.93378 15.556C8.05167 16.1505 8.34249 16.6969 8.76976 17.1266C9.1966 17.5546 9.74087 17.8463 10.3336 17.9647C10.9264 18.0831 11.5409 18.0228 12.0994 17.7916C12.6584 17.5592 13.1359 17.1662 13.4714 16.6623M13.4714 16.6623L13.3874 16.6075M17.4638 27.6126C17.8208 27.4061 18.1171 27.1086 18.3224 26.7505L17.4638 27.6126Z" stroke="url(#paint2_linear_4532_197233)" stroke-width="0.1995"/>
</g>
<defs>
<linearGradient id="paint0_linear_4532_197233" x1="21" y1="0" x2="21" y2="42" gradientUnits="userSpaceOnUse">
<stop stop-color="white"/>
<stop offset="1" stop-color="#BBE0FC"/>
</linearGradient>
<linearGradient id="paint1_linear_4532_197233" x1="34.6301" y1="30.9831" x2="3.68776" y2="10.0461" gradientUnits="userSpaceOnUse">
<stop stop-color="#5433FF"/>
<stop offset="0.5" stop-color="#20BDFF"/>
<stop offset="1" stop-color="#5CFFA2"/>
</linearGradient>
<linearGradient id="paint2_linear_4532_197233" x1="21.4748" y1="11.991" x2="21.4748" y2="35.9916" gradientUnits="userSpaceOnUse">
<stop stop-color="#C3C4C3"/>
<stop offset="1" stop-color="#C3C4C3" stop-opacity="0"/>
</linearGradient>
<clipPath id="clip0_4532_197233">
<rect width="42" height="42" fill="white"/>
</clipPath>
</defs>
</svg>
