<svg width="42" height="42" viewBox="0 0 42 42" fill="none" xmlns="http://www.w3.org/2000/svg">
<rect width="42" height="42" rx="21" fill="url(#paint0_linear_3147_172324)"/>
<path d="M21 42C32.598 42 42 32.598 42 21C42 9.40202 32.598 0 21 0C9.40202 0 0 9.40202 0 21C0 32.598 9.40202 42 21 42Z" fill="#F3F3F3"/>
<path d="M21 42C32.598 42 42 32.598 42 21C42 9.40202 32.598 0 21 0C9.40202 0 0 9.40202 0 21C0 32.598 9.40202 42 21 42Z" fill="url(#paint1_linear_3147_172324)"/>
<path d="M34.5443 17.1202L24.6629 34.2966C24.3642 34.8146 23.9349 35.2447 23.4183 35.5437C22.9015 35.8426 22.3156 36 21.7193 36C21.1228 36 20.5369 35.8426 20.0203 35.5437C19.5035 35.2447 19.0743 34.8146 18.7755 34.2966L17.0433 31.2878C17.0377 31.2803 17.0353 31.271 17.0367 31.2618C17.0379 31.2525 17.0429 31.2442 17.0503 31.2385C17.0577 31.233 17.0671 31.2306 17.0763 31.2318C17.0855 31.2332 17.0938 31.2382 17.0994 31.2456C17.4084 31.5517 17.7831 31.7829 18.1948 31.9213C18.6065 32.0599 19.0443 32.102 19.4747 32.0446C19.9051 31.9873 20.3168 31.8318 20.6782 31.5902C21.0395 31.3486 21.341 31.0274 21.5597 30.6509L29.8315 16.258C30.0496 15.878 30.1776 15.4528 30.2057 15.0152C30.2337 14.5775 30.1609 14.1393 29.9932 13.7345C29.8253 13.3296 29.5669 12.9689 29.2379 12.6803C28.9089 12.3918 28.5181 12.1831 28.0958 12.0704C28.0866 12.0704 28.0776 12.0667 28.071 12.0601C28.0645 12.0535 28.0608 12.0445 28.0608 12.0352C28.0608 12.0259 28.0645 12.0169 28.071 12.0103C28.0776 12.0037 28.0866 12 28.0958 12H31.6024C32.1991 12.0006 32.7852 12.1588 33.3017 12.4587C33.8182 12.7586 34.2471 13.1895 34.5452 13.7083C34.8433 14.2271 35.0001 14.8155 35 15.4144C34.9999 16.0133 34.8427 16.6016 34.5443 17.1202ZM22.8466 12H19.4207C19.4137 12.0023 19.4076 12.0068 19.4032 12.0128C19.3989 12.0188 19.3966 12.026 19.3966 12.0334C19.3966 12.0408 19.3989 12.0481 19.4032 12.0541C19.4076 12.0601 19.4137 12.0645 19.4207 12.0669C19.6515 12.1563 19.8602 12.2947 20.0328 12.4726C20.2053 12.6504 20.3375 12.8636 20.4204 13.0975C20.5034 13.3314 20.535 13.5804 20.5131 13.8277C20.4912 14.075 20.4165 14.3146 20.2939 14.5302L15.3006 23.1976C15.1716 23.4174 14.9957 23.6057 14.7855 23.7492C14.5753 23.8927 14.3361 23.9877 14.085 24.0274C13.834 24.0671 13.5772 24.0505 13.3333 23.9788C13.0894 23.9071 12.8643 23.7821 12.6742 23.6128C12.6686 23.6053 12.6603 23.6004 12.6511 23.5991C12.6419 23.5977 12.6325 23.6002 12.6251 23.6058C12.6177 23.6114 12.6127 23.6197 12.6114 23.6289C12.6101 23.6382 12.6125 23.6476 12.6181 23.655L14.3713 26.7095C14.5682 27.0523 14.8515 27.337 15.1929 27.5349C15.5342 27.7329 15.9215 27.8371 16.3157 27.8371C16.7099 27.8371 17.0972 27.7329 17.4385 27.5349C17.7798 27.337 18.0632 27.0523 18.2601 26.7095L24.7927 15.3783C24.9898 15.0357 25.0935 14.6471 25.0934 14.2515C25.0932 13.856 24.9893 13.4674 24.7921 13.125C24.5948 12.7825 24.3111 12.4982 23.9696 12.3008C23.6281 12.1033 23.2408 11.9995 22.8466 12ZM10.956 12C10.3714 12 9.79985 12.174 9.31373 12.5C8.82762 12.8259 8.44874 13.2892 8.22501 13.8313C8.00128 14.3734 7.94274 14.9698 8.0568 15.5453C8.17086 16.1207 8.45239 16.6493 8.86579 17.0642C9.27919 17.4791 9.8059 17.7616 10.3793 17.8761C10.9527 17.9906 11.5471 17.9318 12.0872 17.7073C12.6273 17.4827 13.089 17.1025 13.4138 16.6147C13.7386 16.1268 13.912 15.5533 13.912 14.9665C13.9124 14.5768 13.8363 14.1909 13.6879 13.8308C13.5395 13.4706 13.3218 13.1434 13.0472 12.8679C12.7726 12.5923 12.4466 12.3738 12.0877 12.2249C11.7289 12.076 11.3443 11.9995 10.956 12Z" fill="url(#paint2_linear_3147_172324)"/>
<defs>
<linearGradient id="paint0_linear_3147_172324" x1="21" y1="0" x2="21" y2="42" gradientUnits="userSpaceOnUse">
<stop stop-color="#404141"/>
<stop offset="1" stop-color="#222222"/>
</linearGradient>
<linearGradient id="paint1_linear_3147_172324" x1="21" y1="0" x2="21" y2="42" gradientUnits="userSpaceOnUse">
<stop stop-color="white"/>
<stop offset="1" stop-color="#BBE0FC"/>
</linearGradient>
<linearGradient id="paint2_linear_3147_172324" x1="34.6546" y1="30.9923" x2="3.71259" y2="10.0547" gradientUnits="userSpaceOnUse">
<stop stop-color="#5433FF"/>
<stop offset="0.5" stop-color="#20BDFF"/>
<stop offset="1" stop-color="#5CFFA2"/>
</linearGradient>
</defs>
</svg>
