<svg width="42" height="42" viewBox="0 0 42 42" fill="none" xmlns="http://www.w3.org/2000/svg">
<path d="M21 42C32.598 42 42 32.598 42 21C42 9.40202 32.598 0 21 0C9.40202 0 0 9.40202 0 21C0 32.598 9.40202 42 21 42Z" fill="#0657F9"/>
<path fill-rule="evenodd" clip-rule="evenodd" d="M12.2453 8.25657L10.5821 9.93657L14.6141 14.0358L18.6461 18.135V21.9654V25.7958H20.9981H23.3501V21.9654V18.135L27.3821 14.0358L31.4141 9.93657L29.7509 8.23977L28.0877 6.54297L24.5597 10.1214C22.6277 12.087 21.0149 13.6998 20.9981 13.6998C20.9645 13.6998 19.3685 12.1038 17.4365 10.1382C15.5045 8.17257 13.9253 6.57657 13.9085 6.57657C13.8917 6.57657 13.1357 7.33257 12.2285 8.25657H12.2453ZM10.5149 17.8494C9.92689 18.891 9.38929 20.7222 9.23809 22.2006C9.17089 22.923 9.20449 24.5022 9.30529 25.2246C10.3301 31.8774 16.5125 36.4134 23.0309 35.2542C27.3317 34.4982 30.8597 31.4238 32.2205 27.2406C32.6741 25.863 32.8253 24.939 32.8253 23.427C32.8253 21.7974 32.6405 20.7222 32.1197 19.227C31.9349 18.7062 31.4813 17.6982 31.4141 17.6982C31.3973 17.6982 30.5741 18.5046 29.6165 19.4958C27.9869 21.159 27.8525 21.2934 27.8861 21.4278C27.9029 21.5118 27.9533 21.7302 27.9869 21.9318C28.1045 22.503 28.1549 23.2926 28.1213 23.931C28.0709 24.6198 27.9869 25.0398 27.7853 25.6782C27.1301 27.7614 25.3997 29.5422 23.3165 30.2646C22.5269 30.5334 22.0733 30.6006 21.0485 30.6174C20.0069 30.6174 19.6205 30.567 18.8141 30.2982C16.6133 29.5758 14.8325 27.6942 14.1941 25.4598C13.9925 24.7374 13.9253 24.267 13.9253 23.3934C13.9253 22.587 13.9589 22.3686 14.1605 21.4278C14.1773 21.3438 13.7909 20.9238 12.3965 19.5126L10.6157 17.6982L10.5149 17.8662V17.8494Z" fill="white"/>
</svg>
