<svg width="42" height="42" viewBox="0 0 42 42" fill="none" xmlns="http://www.w3.org/2000/svg">
<rect width="42" height="42" rx="21" fill="#1E2739"/>
<path d="M10.846 27.6182L7.875 24.6472L11.5221 21.0001C12.7276 19.7946 14.2818 19.1466 15.8632 19.0533C15.4343 18.7079 14.8904 18.4999 14.2982 18.4999H9.14026V14.2981H14.2982C16.003 14.2981 17.5603 14.939 18.7443 15.9912C18.6854 15.4437 18.4478 14.9119 18.0291 14.493L14.382 10.8459L17.3529 7.875L21 11.5221C22.2055 12.7276 22.8535 14.282 22.9468 15.8632C23.2922 15.4344 23.5001 14.8904 23.5001 14.2981V9.14027H27.7019V14.2983C27.7019 16.0031 27.0609 17.5605 26.0088 18.7444C26.5562 18.6854 27.0879 18.4478 27.5068 18.029L31.1539 14.3819L34.125 17.3529L30.4779 21.0001C29.2724 22.2056 27.7181 22.8534 26.1369 22.9467C26.5657 23.2921 27.1097 23.5001 27.7019 23.5001H32.8598V27.7019H27.7019C25.9971 27.7019 24.4397 27.0609 23.2557 26.0087C23.3146 26.5562 23.5522 27.088 23.9709 27.5068L27.6182 31.1539L24.6471 34.125L20.9997 30.4779C19.7943 29.2723 19.1464 27.718 19.0532 26.1368C18.7078 26.5656 18.4999 27.1095 18.4999 27.7019V32.8598H14.2981V27.7019C14.2981 25.997 14.9389 24.4398 15.991 23.2558C15.4435 23.3148 14.9118 23.5523 14.493 23.9711L10.8459 27.6182H10.846Z" fill="white"/>
</svg>
