<svg width="42" height="42" viewBox="0 0 42 42" fill="none" xmlns="http://www.w3.org/2000/svg">
<rect x="1.25" y="1.25" width="39.5" height="39.5" rx="19.75" fill="#F5D4C2"/>
<rect x="1.25" y="1.25" width="39.5" height="39.5" rx="19.75" stroke="#FF5C00" stroke-width="2.5"/>
<rect width="42" height="42" rx="21" fill="#1E2739"/>
<path d="M14.7109 8.08979C15.3021 7.762 15.9762 7.77618 16.6079 8.12888C17.4943 8.62286 18.3896 9.13018 19.256 9.62083L19.2688 9.62788C19.8327 9.94743 20.4137 10.2767 20.9895 10.6007C21.4724 10.3343 21.95 10.0692 22.4135 9.81181C23.4543 9.23378 24.5304 8.63595 25.6006 8.06159C26.1694 7.75654 26.8468 7.79639 27.4591 8.1699C27.8095 8.38378 28.1914 8.6104 28.6255 8.86332C28.7847 8.95598 29.116 9.1494 29.1145 9.55674C29.1129 9.96209 28.7739 10.1561 28.6466 10.229C28.37 10.3882 28.092 10.5443 27.8231 10.6949L27.8097 10.702C27.5315 10.8578 27.2446 11.019 26.9656 11.1801C26.315 11.5554 25.6594 11.9373 25.0251 12.3067L25.0091 12.3157C24.7428 12.4708 24.4762 12.6265 24.2099 12.7816C24.0038 12.9014 23.7978 13.0214 23.5921 13.1411L23.5748 13.1514C22.887 13.5523 22.1768 13.9673 21.4663 14.369C21.3298 14.4464 21.1735 14.4786 21.0209 14.4786C20.8343 14.4786 20.6533 14.4301 20.5217 14.3543C19.6657 13.861 18.8051 13.3595 17.971 12.8732L17.9358 12.8649L17.8646 12.8117C17.2106 12.4304 16.5345 12.0359 15.869 11.6505C15.26 11.2982 14.6503 10.9543 14.0053 10.5905L13.9919 10.5828C13.7148 10.4266 13.4327 10.2673 13.144 10.104C12.9897 10.0267 12.8704 9.88619 12.8242 9.71183C12.7978 9.61176 12.7397 9.26629 13.1068 9.01777C13.1366 8.99769 13.1733 8.97411 13.2228 8.94471C13.2972 8.90006 13.3867 8.84922 13.46 8.80756L13.4657 8.80372C13.4964 8.78636 13.5216 8.77197 13.542 8.76014L13.7753 8.62492C14.0799 8.44826 14.3947 8.26534 14.7109 8.08979Z" fill="#FF5C00"/>
<path d="M8.46901 11.6849C8.7345 11.5573 9.08809 11.5732 9.34956 11.7233C10.0065 12.1031 10.666 12.4913 11.3036 12.8666C12.5059 13.5742 13.7487 14.3058 14.986 14.9892C16.6936 15.9323 18.0893 17.0419 19.2523 18.382C19.9059 19.1345 20.4834 19.974 21.0057 20.9301C21.3952 20.202 21.8848 19.4729 22.4848 18.7229C23.227 17.7951 23.9915 17.0415 24.8233 16.4203C25.5398 15.8857 26.3081 15.4224 27.051 14.9738L27.1221 14.9309C27.742 14.5574 28.3776 14.1951 28.9922 13.8446L28.9967 13.842C29.3144 13.6609 29.6437 13.4739 29.967 13.2864C30.2716 13.1101 30.5757 12.9325 30.8796 12.7551C31.4717 12.4099 32.0827 12.0539 32.6894 11.7099C32.9785 11.5465 33.3286 11.607 33.5597 11.7182C33.8599 11.8629 34.1147 12.0065 34.339 12.1572C34.5804 12.3198 34.7551 12.6177 34.7748 12.8993C34.7881 13.1013 34.7865 13.2942 34.785 13.4806C34.7839 13.61 34.7825 13.7424 34.7869 13.8677V13.8895C34.7868 14.4478 34.4216 14.659 34.2839 14.7386C33.3144 15.2944 32.2794 15.8914 31.025 16.6183C30.4009 16.9799 29.7771 17.3428 29.1537 17.7058L29.114 17.7289C28.7375 17.948 28.3609 18.1674 27.9841 18.3864C27.0064 18.9542 26.1177 19.7038 25.3431 20.6135C24.5181 21.5825 23.9403 22.521 23.5769 23.4833C23.3637 24.0483 23.1607 24.6473 22.9565 25.3149C22.8914 25.5261 22.8652 25.7741 22.8418 26.0307C22.6792 27.816 22.7002 29.6506 22.7207 31.4243C22.7329 32.4712 22.7452 33.5528 22.7207 34.6209C22.7165 34.7997 22.7035 35.3415 22.1029 35.6335C21.9995 35.6841 21.8908 35.7481 21.7767 35.8162C21.6562 35.8875 21.5343 35.9606 21.4005 36.0283C21.2762 36.0908 21.1432 36.1148 21.0179 36.1148C20.8674 36.1148 20.7278 36.08 20.6263 36.0347C20.4425 35.9521 20.2748 35.8602 20.113 35.7713L20.0809 35.7534C20.0481 35.7352 20.0147 35.7174 19.9816 35.6995C19.4924 35.4339 19.2615 35.0352 19.276 34.4806C19.2998 33.5658 19.2961 32.6316 19.292 31.7281C19.2905 31.3769 19.2888 31.0262 19.2888 30.6751H19.7509L19.2805 30.6745C19.2805 30.3401 19.2834 30.0011 19.2856 29.6734V29.6523C19.2916 28.868 19.2974 28.0568 19.2702 27.2644C19.2442 26.5149 19.1688 25.8715 19.0401 25.2982C18.7105 23.8289 18.1026 22.4879 17.2329 21.312C16.2872 20.0341 15.1549 19.0191 13.8677 18.2948C13.037 17.8272 12.2053 17.3359 11.401 16.8612L11.385 16.8522C10.9167 16.5758 10.433 16.2898 9.95582 16.0127C9.63662 15.8274 9.31031 15.6424 8.99516 15.4634L8.99132 15.4615C8.57576 15.2256 8.14573 14.9816 7.72496 14.7335C7.44716 14.5702 7.25815 14.2687 7.23213 13.9484C7.20536 13.6185 7.20479 13.2681 7.23085 12.907C7.25243 12.6202 7.42366 12.3254 7.66728 12.1546C7.91646 11.979 8.18672 11.821 8.46901 11.6849Z" fill="#FF5C00"/>
<path d="M33.9518 18.6461C34.1194 18.6086 34.2971 18.6294 34.4459 18.7159C34.6575 18.8391 34.7822 19.0587 34.783 19.2972C34.783 19.4441 34.7844 19.5896 34.7855 19.7343V19.7368C34.7889 20.1542 34.7922 20.5853 34.774 21.0134C34.7591 21.3616 34.6491 21.7031 34.4721 21.9504C34.2784 22.2212 34.0066 22.4717 33.7076 22.6547C33.3463 22.8757 32.98 23.0863 32.6258 23.2898C32.1088 23.5867 31.5769 23.8916 31.0826 24.2178C30.3307 24.7137 29.7971 25.4443 29.4958 26.3878C29.3608 26.8099 29.298 27.2526 29.3035 27.7413V28.8455C29.3013 29.2606 29.2993 29.6901 29.3067 30.1087C29.3243 31.1134 28.3862 31.9742 28.134 32.1498C28.0642 32.1985 28.0158 32.2342 27.9731 32.2658C27.7681 32.4169 27.6918 32.4678 26.9778 32.8343L26.9759 32.8362C26.9216 32.8622 26.8659 32.8941 26.8131 32.9246C26.6773 33.0031 26.5171 33.0279 26.3639 32.9951H26.3613C26.2852 32.9784 25.9063 32.8722 25.8736 32.3966C25.8713 32.3661 25.8695 32.3218 25.8672 32.2645C25.8639 32.1634 25.8606 32.0216 25.8576 31.8435C25.8516 31.4716 25.8475 30.9884 25.8467 30.4829C25.846 29.8654 25.8492 28.3202 25.896 27.3202C25.9745 25.6463 26.5655 24.1252 27.652 22.8002C28.4269 21.8552 29.4046 21.2221 30.2584 20.7276L31.2127 20.1746C32.0382 19.6958 32.8624 19.2184 33.6864 18.7422C33.791 18.6816 33.8878 18.6602 33.9518 18.6461Z" fill="#FF5C00"/>
<path d="M7.92288 18.7157C8.07171 18.6294 8.24984 18.6086 8.41763 18.6458C8.48159 18.66 8.57788 18.6814 8.68231 18.7419C9.50672 19.2181 10.3305 19.6959 11.1561 20.1743L12.1103 20.7274C12.9641 21.2218 13.9422 21.855 14.7167 22.7999C15.8033 24.125 16.3939 25.646 16.4727 27.32C16.5196 28.32 16.5228 29.8648 16.5221 30.4827C16.5213 30.9878 16.5177 31.4709 16.5118 31.8432C16.5088 32.0214 16.5056 32.1631 16.5022 32.2643C16.5004 32.3215 16.4981 32.3662 16.4958 32.3963C16.4634 32.8721 16.0833 32.9779 16.0074 32.9942H16.0049C15.8516 33.0273 15.6914 33.0022 15.5556 32.9237C15.5029 32.8933 15.4464 32.862 15.3922 32.8359H15.3935L15.3909 32.834C14.6771 32.4676 14.6006 32.4166 14.3957 32.2656C14.353 32.234 14.3043 32.1982 14.2348 32.1496C13.9824 31.9738 13.0445 31.1131 13.062 30.1084C13.0694 29.6899 13.0674 29.2604 13.0652 28.8452V27.741C13.0708 27.2523 13.0076 26.8096 12.873 26.3875C12.572 25.4438 12.0383 24.714 11.2862 24.2182C10.7918 23.8919 10.26 23.5864 9.74295 23.2896C9.3888 23.0865 9.02241 22.8755 8.66116 22.6544C8.36216 22.4715 8.09101 22.2209 7.89725 21.9501C7.72018 21.7028 7.60967 21.3614 7.59476 21.0132C7.57656 20.585 7.57989 20.154 7.58322 19.7366V19.734C7.58438 19.5893 7.58545 19.4438 7.58579 19.2969C7.58617 19.0588 7.71119 18.8388 7.92288 18.7157Z" fill="#FF5C00"/>
</svg>
