<svg width="42" height="42" viewBox="0 0 42 42" fill="none" xmlns="http://www.w3.org/2000/svg">
<rect x="1.25" y="1.25" width="39.5" height="39.5" rx="19.75" fill="#F5D4C2"/>
<rect x="1.25" y="1.25" width="39.5" height="39.5" rx="19.75" stroke="#FF5C00" stroke-width="2.5"/>
<path d="M23.4375 22.5712H21.7219L20.4097 22.575H18.5347C17.0413 22.5419 15.5476 22.1119 14.5032 21.044C13.4587 19.9761 12.8625 18.3256 12.8625 16.8319C12.8625 15.3381 13.4587 13.8648 14.5032 12.7969C15.5476 11.729 17.0413 11.1809 18.5347 11.1478H19.3594V7.875H22.7063V11.1478H27.6282V14.3006H19.3194C18.6481 14.3006 17.348 14.5673 16.8733 15.042C16.3986 15.5167 16.1319 16.1605 16.1319 16.8319C16.1319 17.5032 16.3986 18.147 16.8733 18.6217C17.348 19.0964 17.9918 19.3631 18.6632 19.3631H20.4097L21.7219 19.3594H24.2194C25.6594 19.3594 27.0375 20.2342 27.6938 20.9344C28.3284 21.6115 29.1375 22.7714 29.1375 24.9375C29.1375 26.7209 28.6125 28.2188 27.6282 29.2031C26.2568 30.5745 24.675 30.8625 23.5631 30.8625H22.7063V34.125H19.3594V30.8625H14.5032V27.6984H22.7813C23.4465 27.6764 24.7333 27.3967 25.1961 26.9183C25.6589 26.4399 25.9176 25.8004 25.9176 25.1348C25.9176 24.4693 25.6589 23.8298 25.1961 23.3514C24.7333 22.873 24.1027 22.5933 23.4375 22.5712Z" fill="#FF5C00"/>
</svg>
