<svg xmlns="http://www.w3.org/2000/svg" width="37" height="36" fill="none"><rect width="35.998" height="35.998" x=".338" fill="url(#a)" rx="17.999"/><path fill="url(#b)" d="M18.671 6.592c-2.954 0-4.071 4.246-4.26 6.797l-.025.286c.057.062.112.124.166.187 3.542 4.124 2.415 10.543 3.622 10.543.857 0 1.353-4.914 4.87-7.372l-.017-.132c-.22-3.722-1.401-10.31-4.356-10.31Z"/><path fill="url(#c)" stroke="#F3F3F3" stroke-width=".857" d="M7.69 9.842c2.013 1.291 4.04 5.937 4.996 10.471.804 3.815.045 7.052 3.958 9.6v2.066h3.562v-2.072c2.716 0 3.492-4.567 3.54-6.844.388-5.782 3.622-6.348 5.24-7.318-9.218-1.092-9.709 8.652-10.916 8.652-1.207 0-.08-6.418-3.622-10.542-1.797-2.094-5.303-3.77-6.759-4.013Z"/><defs><linearGradient id="a" x1="26.041" x2="6.073" y1="-.909" y2="30.783" gradientUnits="userSpaceOnUse"><stop stop-color="#DDAF37"/><stop offset="1" stop-color="#F0E8CC"/></linearGradient><linearGradient id="b" x1="18.76" x2="18.939" y1="10.267" y2="18.574" gradientUnits="userSpaceOnUse"><stop stop-color="#EFE7CF"/><stop offset="1" stop-color="#F3F3F3"/></linearGradient><linearGradient id="c" x1="18.337" x2="18.337" y1="9.842" y2="31.979" gradientUnits="userSpaceOnUse"><stop stop-color="#B98900"/><stop offset="1" stop-color="#FFC314"/></linearGradient></defs></svg>