<svg width="42" height="42" viewBox="0 0 42 42" fill="none" xmlns="http://www.w3.org/2000/svg">
<circle cx="21" cy="21" r="20" fill="#ECB244"/>
<path d="M19.6054 26.4194H28.9011V31.0673H23.4164V35H18.6466V31.1892H12.9263C12.9263 29.6371 12.6907 28.0933 13.0481 26.6633C13.17 25.9482 13.9989 25.2331 14.6 24.5181C16.3877 22.373 18.1754 20.2278 20.0849 18.0827C20.7998 17.2457 21.5149 16.5306 22.3519 15.5801H13.4138V10.9321H18.6547V7H23.3026V10.8098H29.023C29.023 12.3617 29.2586 13.9057 28.9011 15.3357C28.7793 16.0508 27.9504 16.7657 27.3491 17.4808C25.5615 19.626 23.7739 21.7711 21.8643 23.9163C21.1491 24.7537 20.4343 25.5825 19.6054 26.4194Z" fill="#F3F3F3"/>
</svg>
