<svg width="42" height="42" viewBox="0 0 42 42" fill="none" xmlns="http://www.w3.org/2000/svg">
<path d="M21 41C32.0457 41 41 32.0457 41 21C41 9.9543 32.0457 1 21 1C9.9543 1 1 9.9543 1 21C1 32.0457 9.9543 41 21 41Z" fill="#183C87"/>
<path d="M18.7002 27V21H22.7002V27L20.7002 28L18.7002 27Z" fill="#F3F3F3"/>
<path d="M12.5 18.4004L18.1292 21.4004V27.4004L12.5 30.4004L6.87083 27.4004V21.4004L12.5 18.4004Z" fill="#F3F3F3"/>
<path d="M28.9004 18.4004L34.5296 21.4004V27.4004L28.9004 30.4004L23.2712 27.4004V21.4004L28.9004 18.4004Z" fill="#F3F3F3"/>
<path d="M20.7002 12L28.5613 16V18L20.7002 22L12.8389 18V16L20.7002 12Z" fill="#F3F3F3"/>
</svg>
