<svg xmlns="http://www.w3.org/2000/svg" width="42" height="42" fill="none"><circle cx="21" cy="21" r="20" fill="#49C1BF"/><path fill="#F3F3F3" d="m30.782 18.57-4.032 1.797-10.697 5.445 10.697 5.143v-8.5l4.032-1.818v12.559l-4.032 1.797L11 27.456v-4.007l10.902-5.348L11 12.861V8.799L15.096 7l15.686 7.55v4.02Z"/><path fill="#7FD3D2" d="m11 8.798 15.75 7.55 4.032-1.797L15.096 7 11 8.798Z"/><path fill="#BEE9E8" d="m26.749 16.33 4.032-1.798v4.02l-4.032 1.797V16.33ZM26.749 34.971l4.032-1.797V20.615l-4.032 1.817v12.54Z"/><path fill="#F3F3F3" d="M11 8.805v4.064l10.902 5.239L11 23.456v4.007L26.75 35v-4.032L16.053 25.82l10.697-5.444v-4.02L11 8.805Z"/></svg>