<svg width="42" height="42" viewBox="0 0 42 42" fill="none" xmlns="http://www.w3.org/2000/svg">
<circle cx="21" cy="21" r="20" fill="#49C1BF"/>
<path d="M30.7816 18.5698L26.7495 20.3675L16.0529 25.8121L26.7495 30.9549V22.4542L30.7816 20.6372V33.1957L26.7495 34.9934L11 27.4558V23.4494L21.902 18.1011L11 12.8619V8.79774L15.0963 7L30.7816 14.5505V18.5698Z" fill="#F3F3F3"/>
<path d="M11 8.79774L26.7495 16.3483L30.7816 14.5505L15.0963 7L11 8.79774Z" fill="#7FD3D2"/>
<path d="M26.749 16.33L30.7811 14.5322V18.5515L26.749 20.3492V16.33Z" fill="#BEE9E8"/>
<path d="M26.749 34.9715L30.7811 33.1738V20.6152L26.749 22.4322V34.9715Z" fill="#BEE9E8"/>
<path d="M11 8.80469V12.8689L21.902 18.108L11 23.4563V27.4627L26.7495 35.0004V30.9683L16.0529 25.819L26.7495 20.3745V16.3552L11 8.80469Z" fill="#F3F3F3"/>
</svg>
