<svg width="42" height="42" viewBox="0 0 42 42" fill="none" xmlns="http://www.w3.org/2000/svg">
<rect width="42" height="42" rx="21" fill="#F0EEE8"/>
<path d="M26.2837 13.2576C24.0721 11.2528 21.2561 10.2517 17.8333 10.2517C14.4106 10.2517 11.5683 11.2731 9.30526 13.3171C7.308 15.1196 6.19215 17.3241 5.95645 19.9319C5.90504 20.5045 6.34888 21 6.91934 21H12.6428C12.6302 20.6878 12.6214 20.3705 12.6214 20.0444C12.6214 17.6022 13.0364 15.6922 13.8652 14.3119C14.6939 12.9315 15.8323 12.2413 17.2804 12.2413C18.9128 12.2413 20.2544 13.1439 21.3075 14.9477C21.7739 15.7479 22.1375 16.6517 22.3971 17.6604C22.8998 19.6146 24.6212 20.9988 26.6235 20.9988H29.5987C29.5987 17.8411 28.4928 15.2599 26.2824 13.2564L26.2837 13.2576Z" fill="black"/>
<path d="M15.7163 28.7424C17.928 30.7473 20.7439 31.7483 24.1667 31.7483C27.5894 31.7483 30.4317 30.7271 32.6949 28.683C34.692 26.8805 35.8078 24.6759 36.0436 22.0682C36.095 21.4956 35.6511 21 35.0806 21H29.3572C29.3698 21.3122 29.3786 21.6295 29.3786 21.9557C29.3786 24.3978 28.9635 26.3078 28.1349 27.6882C27.3061 29.0686 26.1676 29.7588 24.7195 29.7588C23.0872 29.7588 21.7457 28.8562 20.6925 27.0524C20.2261 26.2522 19.8625 25.3484 19.603 24.3397C19.1002 22.3854 17.3788 21.0013 15.3766 21.0013H12.4014C12.4014 24.1589 13.5072 26.7401 15.7176 28.7437L15.7163 28.7424Z" fill="black"/>
</svg>
