<svg width="42" height="42" viewBox="0 0 42 42" fill="none" xmlns="http://www.w3.org/2000/svg">
<rect width="42" height="42" rx="21" fill="#222222"/>
<path fill-rule="evenodd" clip-rule="evenodd" d="M15.6001 12.4492C14.3575 12.4492 13.3501 13.4566 13.3501 14.6992V18.2996H15.4501V14.6992C15.4501 14.6164 15.5173 14.5492 15.6001 14.5492H18.0001C18.0829 14.5492 18.1501 14.6164 18.1501 14.6992V18.2996H20.2501V14.6992C20.2501 13.4566 19.2427 12.4492 18.0001 12.4492H15.6001ZM20.2501 23.6996H18.1501V27.5992C18.1501 27.6821 18.0829 27.7492 18.0001 27.7492H15.6001C15.5173 27.7492 15.4501 27.6821 15.4501 27.5992V23.6996H13.3501V27.5992C13.3501 28.8419 14.3575 29.8492 15.6001 29.8492H18.0001C19.2427 29.8492 20.2501 28.8419 20.2501 27.5992V23.6996ZM22.3501 23.6996H24.4501V27.5992C24.4501 27.6821 24.5173 27.7492 24.6001 27.7492H27.0001C27.0829 27.7492 27.1501 27.6821 27.1501 27.5992V23.6996H29.0766C29.1345 23.6996 29.1923 23.6989 29.2501 23.6975V27.5992C29.2501 28.8419 28.2427 29.8492 27.0001 29.8492H24.6001C23.3575 29.8492 22.3501 28.8419 22.3501 27.5992V23.6996ZM29.2501 18.2924V14.6992C29.2501 13.4566 28.2427 12.4492 27.0001 12.4492H24.6001C23.3575 12.4492 22.3501 13.4566 22.3501 14.6992V18.2996H24.4501V14.6992C24.4501 14.6164 24.5173 14.5492 24.6001 14.5492H27.0001C27.0829 14.5492 27.1501 14.6164 27.1501 14.6992V18.2996H29.0766C29.1347 18.2996 29.1926 18.2971 29.2501 18.2924Z" fill="#7B47E1"/>
<path d="M7.80005 23.3992L9.48526 22.051C10.3364 21.3702 11.3939 20.9992 12.4838 20.9992H29.0767C30.4291 20.9992 31.7187 20.4287 32.6284 19.428L34.2 17.6992" stroke="#7B47E1" stroke-width="2.1" stroke-linejoin="round"/>
<path d="M7.80005 26.6353V15.3631C7.80005 14.074 8.4894 12.8832 9.60736 12.2412L19.2074 6.72863C20.3175 6.09117 21.6826 6.09117 22.7927 6.72863L32.3927 12.2412C33.5107 12.8832 34.2 14.074 34.2 15.3631V26.6353C34.2 27.9245 33.5107 29.1152 32.3927 29.7572L22.7927 35.2698C21.6826 35.9073 20.3175 35.9073 19.2074 35.2698L9.60736 29.7572C8.4894 29.1152 7.80005 27.9245 7.80005 26.6353Z" stroke="#7B47E1" stroke-width="2.1"/>
</svg>
