<svg width="42" height="42" viewBox="0 0 42 42" fill="none" xmlns="http://www.w3.org/2000/svg">
<g clip-path="url(#clip0_26_40082)">
<g clip-path="url(#clip1_26_40082)">
<path d="M0 21C0 32.598 9.40202 42 21 42C32.598 42 42 32.598 42 21C42 9.40202 32.598 0 21 0C9.40202 0 0 9.40202 0 21Z" fill="url(#paint0_linear_26_40082)"/>
<path d="M27.3018 25.7524L33.4745 22.153C33.804 21.964 34 21.6041 34 21.2261V14.0273C34 13.6494 33.7951 13.2895 33.4745 13.1005L27.3018 9.5011C26.9723 9.31213 26.5714 9.31213 26.2419 9.5011L20.0692 13.1005C19.7396 13.2895 19.5437 13.6494 19.5437 14.0273V26.8952L15.2148 29.4147L10.8859 26.8952V21.847L15.2148 19.3274L18.074 20.9922V17.6087L15.7492 16.25C15.5889 16.16 15.4019 16.106 15.2237 16.106C15.0456 16.106 14.8585 16.151 14.6982 16.25L8.52552 19.8494C8.19596 20.0383 8 20.3983 8 20.7762V27.975C8 28.3529 8.20486 28.7129 8.52552 28.9018L14.6982 32.5012C15.0277 32.6902 15.4286 32.6902 15.7581 32.5012L21.9308 28.9018C22.2604 28.7129 22.4563 28.3529 22.4563 27.975V15.1072L22.5365 15.0622L26.7852 12.5876L31.1141 15.1072V20.1553L26.7852 22.6839L23.9349 21.0192V24.4026L26.2597 25.7524C26.5714 25.9503 26.9812 25.9503 27.3018 25.7524Z" fill="white"/>
</g>
</g>
<defs>
<linearGradient id="paint0_linear_26_40082" x1="-7.67544" y1="3.45234" x2="35.6831" y2="29.9852" gradientUnits="userSpaceOnUse">
<stop stop-color="#943F90"/>
<stop offset="1" stop-color="#734E9B"/>
</linearGradient>
<clipPath id="clip0_26_40082">
<rect width="42" height="42" rx="21" fill="white"/>
</clipPath>
<clipPath id="clip1_26_40082">
<rect width="42" height="42" rx="21" fill="white"/>
</clipPath>
</defs>
</svg>
