<svg width="42" height="42" viewBox="0 0 42 42" fill="none" xmlns="http://www.w3.org/2000/svg">
<rect width="42" height="42" rx="21" fill="#222222"/>
<path d="M25.7722 23.2465C27.6857 22.1374 28.9719 20.0663 28.9719 17.694V14.9727C28.9719 10.57 25.4037 7 21.001 7C16.5983 7 13.0283 10.57 13.0283 14.9727V17.8889H17.8881V18.0785C17.2981 18.2255 16.74 18.4541 16.228 18.7535C14.3146 19.8626 13.0283 21.9337 13.0283 24.306V27.0273C13.0283 31.43 16.5965 35 20.9992 35C25.4019 35 28.9719 31.43 28.9719 27.0273V24.1112H24.1121V23.9216C24.702 23.7745 25.2602 23.5459 25.7722 23.2465ZM22.5565 28C22.5565 28.8593 21.8603 29.5555 21.001 29.5555C20.1417 29.5555 19.4454 28.8593 19.4454 28V14C19.4454 13.1407 20.1417 12.4444 21.001 12.4444C21.8603 12.4444 22.5565 13.1407 22.5565 14V28Z" fill="#F2F2F2"/>
</svg>
