<svg xmlns="http://www.w3.org/2000/svg" width="42" height="42" fill="none"><rect width="42" height="42" fill="#F3F3F3" rx="21"/><path fill="#030303" fill-rule="evenodd" d="M20.337 35.501c-.356-.037-.712-.07-1.068-.112a14.342 14.342 0 0 1-5.434-1.798c-.025-.013-.047-.033-.096-.066 2.908-2.175 5.803-4.337 8.713-6.512l.877.853c.488.477.978.949 1.456 1.433.12.118.205.117.343.046a9.424 9.424 0 0 0 3.596-3.15l.142-.209c.04.047.079.086.11.128 1.011 1.347 2.021 2.694 3.036 4.038.088.116.078.184-.016.29-2.35 2.67-5.271 4.316-8.792 4.879-.443.07-.893.097-1.34.146-.059.006-.118.022-.176.034h-1.351ZM21.614 6.5c.245.025.492.051.738.074 2.078.198 4.021.813 5.83 1.845.027.016.05.035.093.066l-8.856 6.353c-.117-.11-.23-.216-.342-.326-.623-.606-1.247-1.211-1.866-1.823-.099-.098-.174-.108-.298-.046a9.421 9.421 0 0 0-3.651 3.195l-.132.198-3.253-4.334c.328-.348.631-.695.96-1.015 2.139-2.087 4.68-3.415 7.623-3.948.567-.103 1.145-.138 1.719-.205.064-.006.129-.022.192-.034h1.243ZM8.422 13.795l6.585 8.632-1.329 1.363c-.33.339-.659.681-.996 1.015-.095.095-.1.167-.041.283a9.404 9.404 0 0 0 3.33 3.744c.008.005.011.019.035.063l-4.299 3.225c-2.57-2.213-4.238-4.94-4.907-8.248-.718-3.541-.137-6.887 1.622-10.077Zm18.686 5.76 1.21-1.256c.338-.35.67-.705 1.015-1.046.109-.107.107-.187.044-.314a9.407 9.407 0 0 0-3.23-3.688c-.048-.033-.096-.069-.179-.128l4.323-3.243c2.447 2.096 4.073 4.68 4.819 7.797.932 3.892.101 7.74-1.512 10.451l-6.49-8.572Z" clip-rule="evenodd"/></svg>