<svg xmlns="http://www.w3.org/2000/svg" width="36" height="36" fill="none"><rect width="35.998" height="35.998" fill="url(#a)" rx="17.999"/><path fill="url(#b)" stroke="#F3F3F3" stroke-width=".857" d="M7.228 19.312c.4 1.436 1.255 2.899 2.428 4.072 1.445 1.445 4.067 3.187 8.342 3.187s6.897-1.742 8.341-3.187c1.67-1.669 2.682-3.91 2.682-5.816 0-1.423-.357-3.83-2.542-5.001L7.228 19.312Zm0 0-.009-.034c-.388-1.526-.247-2.79-.012-3.67a5.789 5.789 0 0 1 .444-1.156h.004l.124-.211c.7-1.188 1.728-1.752 2.595-2.017a5.208 5.208 0 0 1 1.267-.22l.283.006c.412.01.815.073 1.19.186.358.107.688.259.978.452 1.931 1.288 3.85 1.307 3.906 1.307h.022c-.006 0 .13-.003.348-.026a8.028 8.028 0 0 0 3.536-1.28c.288-.193.614-.343.968-.45 1.133-.344 2.499-.225 3.607.368L7.228 19.312Z"/><path fill="url(#c)" d="M18.027 13.551c.584 0 1.855-.026 3.668-1.234a4.08 4.08 0 0 1 1.082-.504c.328 3.302-1.415 5.79-4.824 5.79-3.16 0-5.477-2.509-4.686-5.793.393.119.763.287 1.092.507 1.83 1.22 3.083 1.234 3.668 1.234Z"/><defs><linearGradient id="a" x1="27.442" x2="5.735" y1="6.171" y2="30.783" gradientUnits="userSpaceOnUse"><stop stop-color="#928051"/><stop offset="1" stop-color="#FFF9E5"/></linearGradient><linearGradient id="b" x1="23.133" x2="11.323" y1="15.992" y2="26.72" gradientUnits="userSpaceOnUse"><stop stop-color="#DEC27A"/><stop offset="1" stop-color="#B3A17E"/></linearGradient><linearGradient id="c" x1="17.963" x2="17.963" y1="13.447" y2="19.479" gradientUnits="userSpaceOnUse"><stop stop-color="#F3F3F3"/><stop offset="1" stop-color="#F4EED2"/></linearGradient></defs></svg>