<svg width="43" height="42" viewBox="0 0 43 42" fill="none" xmlns="http://www.w3.org/2000/svg">
<g clip-path="url(#clip0_4532_197276)">
<path d="M42.1617 20.9988C42.1617 9.4015 32.7602 0 21.1629 0C9.56556 0 0.164062 9.4015 0.164062 20.9988C0.164062 32.5962 9.56556 41.9977 21.1629 41.9977C32.7602 41.9977 42.1617 32.5962 42.1617 20.9988Z" fill="url(#paint0_linear_4532_197276)"/>
<path d="M8.57417 22.5573C9.04083 24.2326 10.0383 25.9394 11.4068 27.3079C13.0927 28.9938 16.1517 31.0261 21.1392 31.0261C26.1267 31.0261 29.1857 28.9938 30.8703 27.3079C32.8187 25.3608 33.9993 22.7463 33.9993 20.5226C33.9993 18.8624 33.5828 16.0543 31.0337 14.6881L8.57417 22.5573ZM8.57417 22.5573L8.56367 22.5176C8.111 20.7373 8.2755 19.2626 8.54967 18.2359C8.67362 17.7691 8.84728 17.317 9.06767 16.8873H9.07233L9.217 16.6411C10.0337 15.2551 11.233 14.5971 12.2445 14.2879C12.7247 14.1416 13.2212 14.0554 13.7227 14.0312L14.0528 14.0383C14.5335 14.0499 15.0037 14.1234 15.4412 14.2553C15.8588 14.3801 16.2438 14.5574 16.5822 14.7826C18.835 16.2853 21.0738 16.3074 21.1392 16.3074H21.1648C21.1578 16.3074 21.3165 16.3039 21.5708 16.2771C23.0448 16.1129 24.4587 15.6011 25.6962 14.7838C26.0322 14.5586 26.4125 14.3836 26.8255 14.2588C28.1473 13.8574 29.741 13.9963 31.0337 14.6881L8.57417 22.5573Z" fill="url(#paint1_linear_4532_197276)"/>
<path d="M8.57417 22.5573C9.04083 24.2326 10.0383 25.9394 11.4068 27.3079C13.0927 28.9938 16.1517 31.0261 21.1392 31.0261C26.1267 31.0261 29.1857 28.9938 30.8703 27.3079C32.8187 25.3608 33.9993 22.7463 33.9993 20.5226C33.9993 18.8624 33.5828 16.0543 31.0337 14.6881M8.57417 22.5573L31.0337 14.6881M8.57417 22.5573L8.56367 22.5176C8.111 20.7373 8.2755 19.2626 8.54967 18.2359C8.67362 17.7691 8.84728 17.317 9.06767 16.8873H9.07233L9.217 16.6411C10.0337 15.2551 11.233 14.5971 12.2445 14.2879C12.7247 14.1416 13.2212 14.0554 13.7227 14.0312L14.0528 14.0383C14.5335 14.0499 15.0037 14.1234 15.4412 14.2553C15.8588 14.3801 16.2438 14.5574 16.5822 14.7826C18.835 16.2853 21.0738 16.3074 21.1392 16.3074H21.1648C21.1578 16.3074 21.3165 16.3039 21.5708 16.2771C23.0448 16.1129 24.4587 15.6011 25.6962 14.7838C26.0322 14.5586 26.4125 14.3836 26.8255 14.2588C28.1473 13.8574 29.741 13.9963 31.0337 14.6881" stroke="#F3F3F3" stroke-width="0.999833"/>
<path d="M21.1572 15.8124C21.8386 15.8124 23.3214 15.7821 25.4366 14.3727C25.8262 14.1159 26.2516 13.9178 26.6989 13.7847C27.0816 17.6371 25.0481 20.5398 21.0709 20.5398C17.3842 20.5398 14.6811 17.6126 15.6039 13.7812C16.0624 13.9201 16.4941 14.1161 16.8779 14.3727C19.0129 15.7961 20.4747 15.8124 21.1572 15.8124Z" fill="url(#paint2_linear_4532_197276)"/>
</g>
<defs>
<linearGradient id="paint0_linear_4532_197276" x1="32.1797" y1="7.1995" x2="6.8549" y2="35.9135" gradientUnits="userSpaceOnUse">
<stop stop-color="#928051"/>
<stop offset="1" stop-color="#FFF9E5"/>
</linearGradient>
<linearGradient id="paint1_linear_4532_197276" x1="27.13" y1="18.6839" x2="13.3517" y2="31.1999" gradientUnits="userSpaceOnUse">
<stop stop-color="#DEC27A"/>
<stop offset="1" stop-color="#B3A17E"/>
</linearGradient>
<linearGradient id="paint2_linear_4532_197276" x1="21.0826" y1="15.6911" x2="21.0826" y2="22.7284" gradientUnits="userSpaceOnUse">
<stop stop-color="#F3F3F3"/>
<stop offset="1" stop-color="#F4EED2"/>
</linearGradient>
<clipPath id="clip0_4532_197276">
<rect width="42" height="42" fill="white" transform="translate(0.164062)"/>
</clipPath>
</defs>
</svg>
