<svg xmlns="http://www.w3.org/2000/svg" width="36" height="36" fill="none"><path fill="#F3F3F3" fill-rule="evenodd" d="M18 36c9.941 0 18-8.059 18-18S27.941 0 18 0 0 8.059 0 18s8.059 18 18 18Zm7.72-31.714-2.786 2.772a12.046 12.046 0 0 1 5.99 5.967l2.79-2.776-5.993-5.963ZM7.033 13.123a12.046 12.046 0 0 1 5.936-6.02L10.28 4.427 4.286 10.39l2.746 2.733Zm.001 9.756a12.046 12.046 0 0 0 5.937 6.02l-2.688 2.674-5.994-5.963 2.745-2.731Zm15.9 6.064a12.046 12.046 0 0 0 5.99-5.967l2.789 2.775-5.994 5.963-2.786-2.771Z" clip-rule="evenodd"/><path fill="url(#a)" fill-rule="evenodd" d="M36 18c0 9.941-8.059 18-18 18S0 27.941 0 18 8.059 0 18 0s18 8.059 18 18ZM25.72 4.286l-2.786 2.772a12.046 12.046 0 0 1 5.99 5.967l2.79-2.776-5.993-5.963ZM7.033 13.123a12.046 12.046 0 0 1 5.936-6.02L10.28 4.427 4.286 10.39l2.746 2.733Zm.001 9.756a12.046 12.046 0 0 0 5.937 6.02l-2.688 2.674-5.994-5.963 2.745-2.731Zm15.9 6.064a12.046 12.046 0 0 0 5.99-5.967l2.789 2.775-5.994 5.963-2.786-2.771Z" clip-rule="evenodd" opacity=".5" style="mix-blend-mode:multiply"/><path fill="#404141" d="m18.384 15.22-5.527 2.515 5.527 3.266 5.524-3.266-5.524-2.514Z"/><path fill="#121313" d="m23.902 17.735-5.525 3.266v-5.78l5.525 2.514Z"/><path fill="#878888" d="m12.857 17.743 5.527-2.521V8.57l-5.527 9.173Z"/><path fill="#404141" d="M18.377 8.57v6.651l5.525 2.522-5.525-9.173Z"/><path fill="#6C6D6D" d="m12.857 18.781 5.527 7.789v-4.522l-5.527-3.267Z"/><path fill="#222" d="M18.395 22.048v4.522l5.529-7.789-5.53 3.267Z"/><defs><linearGradient id="a" x1="18" x2="18" y1="12.956" y2="38.128" gradientUnits="userSpaceOnUse"><stop stop-color="#fff"/><stop offset="1" stop-color="#7D7D7D"/></linearGradient></defs></svg>