<svg xmlns="http://www.w3.org/2000/svg" fill="none" viewBox="0 0 43 42">
    <rect width="41" height="41" x="1.43384" y="0.5" fill="#1E2739" rx="20.5"/>
    <rect width="41" height="41" x="1.43384" y="0.5" stroke="#FAFAFA" rx="20.5"/>
    <rect width="42" height="42" x="0.933838" fill="#142722" rx="21"/>
    <path fill="#97FCE4" d="M36.9338 20.8603C36.9338 30.7784 30.8643 33.9609 27.6663 31.1272C25.0339 28.8166 24.2507 23.9339 20.2913 23.4325C15.266 22.8004 14.8309 29.4924 11.5241 29.4924C7.6735 29.4924 6.93384 23.8903 6.93384 21.0129C6.93384 18.0702 7.76052 14.0593 11.0455 14.0593C14.8744 14.0593 15.0919 19.7922 19.878 19.487C24.6423 19.1601 24.7293 13.1874 27.8186 10.637C30.5161 8.43537 36.9338 10.8114 36.9338 20.8603Z"/>
</svg>
